<?xml version="1.0" encoding="UTF-8" standalone="no"?>
<svg
   width="52.5mm"
   height="32.299999mm"
   viewBox="23 -27 52.5 32.299999"
   version="1.1"
   id="svg6"
   sodipodi:docname="projection_a.svg"
   inkscape:version="1.1.2 (0a00cf5339, 2022-02-04)"
   xmlns:inkscape="http://www.inkscape.org/namespaces/inkscape"
   xmlns:sodipodi="http://sodipodi.sourceforge.net/DTD/sodipodi-0.dtd"
   xmlns="http://www.w3.org/2000/svg"
   xmlns:svg="http://www.w3.org/2000/svg"
   xmlns:rdf="http://www.w3.org/1999/02/22-rdf-syntax-ns#"
   xmlns:cc="http://creativecommons.org/ns#"
   xmlns:dc="http://purl.org/dc/elements/1.1/">
  <defs
     id="defs10" />
  <sodipodi:namedview
     id="namedview8"
     pagecolor="#ffffff"
     bordercolor="#666666"
     borderopacity="1.0"
     inkscape:pageshadow="2"
     inkscape:pageopacity="0.0"
     inkscape:pagecheckerboard="0"
     inkscape:document-units="mm"
     showgrid="false"
     fit-margin-top="0"
     fit-margin-left="0"
     fit-margin-right="0"
     fit-margin-bottom="0"
     inkscape:zoom="3.5228781"
     inkscape:cx="99.208656"
     inkscape:cy="61.171575"
     inkscape:window-width="2806"
     inkscape:window-height="1736"
     inkscape:window-x="74"
     inkscape:window-y="27"
     inkscape:window-maximized="1"
     inkscape:current-layer="svg6" />
  <title
     id="title2">OpenSCAD Model</title>
  <path
     d="m 75.45,5.25 v -32.2 h -52.4 v 32.2 z m -3.8,-26.45 h -4 l -0.1307,-0.0068 -0.1292,-0.0205 -0.1264,-0.0339 -0.1221,-0.0469 -0.1166,-0.0594 -0.1097,-0.0712 -0.1017,-0.0824 -0.0925,-0.0925 -0.0824,-0.1017 -0.0712,-0.1097 -0.0594,-0.1166 -0.0469,-0.1221 -0.0339,-0.1264 -0.0205,-0.1292 -0.0068,-0.1307 0.0068,-0.1307 0.0205,-0.1292 0.0339,-0.1264 0.0469,-0.1221 0.0594,-0.1166 0.0712,-0.1097 0.0824,-0.1017 0.0925,-0.0925 0.1017,-0.0824 0.1097,-0.0712 0.1166,-0.0594 0.1221,-0.0469 0.1264,-0.0339 0.1292,-0.0205 L 67.65,-23.7 h 4 l 0.1307,0.0068 0.1292,0.0205 0.1264,0.0339 0.1221,0.0469 0.1166,0.0594 0.1097,0.0712 0.1017,0.0824 0.0925,0.0925 0.0824,0.1017 0.0712,0.1097 0.0594,0.1166 0.0469,0.1221 0.0339,0.1264 0.0205,0.1292 0.0068,0.1307 -0.0068,0.1307 -0.0205,0.1292 -0.0339,0.1264 -0.0469,0.1221 -0.0594,0.1166 -0.0712,0.1097 -0.0824,0.1017 -0.0925,0.0925 -0.1017,0.0824 -0.1097,0.0712 -0.1166,0.0594 -0.1221,0.0469 -0.1264,0.0339 -0.1292,0.0205 z"
     stroke="#000000"
     fill="#d3d3d3"
     stroke-width="0.5"
     id="path4"
     style="stroke-width:0.1;stroke-miterlimit:4;stroke-dasharray:none" />
  <metadata
     id="metadata827">
    <rdf:RDF>
      <cc:Work
         rdf:about="">
        <dc:title>OpenSCAD Model</dc:title>
      </cc:Work>
    </rdf:RDF>
  </metadata>
</svg>
