%TF.GenerationSoftware,KiCad,Pcbnew,6.0.4-6f826c9f35~116~ubuntu20.04.1*%
%TF.CreationDate,2022-05-25T15:37:37+00:00*%
%TF.ProjectId,TFSIK01A,54465349-4b30-4314-912e-6b696361645f,REV*%
%TF.SameCoordinates,Original*%
%TF.FileFunction,Copper,L1,Top*%
%TF.FilePolarity,Positive*%
%FSLAX46Y46*%
G04 Gerber Fmt 4.6, Leading zero omitted, Abs format (unit mm)*
G04 Created by KiCad (PCBNEW 6.0.4-6f826c9f35~116~ubuntu20.04.1) date 2022-05-25 15:37:37*
%MOMM*%
%LPD*%
G01*
G04 APERTURE LIST*
%TA.AperFunction,SMDPad,CuDef*%
%ADD10R,1.524000X1.524000*%
%TD*%
%TA.AperFunction,SMDPad,CuDef*%
%ADD11R,4.100000X3.600000*%
%TD*%
%TA.AperFunction,ComponentPad*%
%ADD12C,0.500000*%
%TD*%
%TA.AperFunction,ComponentPad*%
%ADD13C,0.300000*%
%TD*%
%TA.AperFunction,ViaPad*%
%ADD14C,0.800000*%
%TD*%
%TA.AperFunction,Conductor*%
%ADD15C,0.300000*%
%TD*%
%TA.AperFunction,Conductor*%
%ADD16C,0.200000*%
%TD*%
%TA.AperFunction,Conductor*%
%ADD17C,0.400000*%
%TD*%
G04 APERTURE END LIST*
D10*
%TO.P,J2,1*%
%TO.N,GND*%
X127388600Y-83483400D03*
%TO.P,J2,2*%
X129928600Y-83483400D03*
%TO.P,J2,3*%
%TO.N,/#RST_1*%
X127388600Y-86023400D03*
%TO.P,J2,4*%
%TO.N,/C2D*%
X129928600Y-86023400D03*
%TO.P,J2,5*%
%TO.N,+5V*%
X127388600Y-88563400D03*
%TO.P,J2,6*%
%TO.N,GND*%
X129928600Y-88563400D03*
%TD*%
D11*
%TO.P,U2,37,GND_RF*%
%TO.N,GND*%
X140241000Y-84855000D03*
D12*
X138441000Y-86405000D03*
X139641000Y-84855000D03*
X142041000Y-86405000D03*
X139641000Y-83305000D03*
X139641000Y-86405000D03*
X138441000Y-83305000D03*
X142041000Y-83305000D03*
X142041000Y-84855000D03*
X140841000Y-83305000D03*
X140841000Y-84855000D03*
X140841000Y-86405000D03*
X138441000Y-84855000D03*
%TD*%
D13*
%TO.P,U3,9*%
%TO.N,GND*%
X154061000Y-93380000D03*
X153461000Y-93380000D03*
X152861000Y-93380000D03*
%TD*%
D14*
%TO.N,GND*%
X157259000Y-94507000D03*
X165006000Y-99968000D03*
X137693000Y-77271000D03*
X152433000Y-97047000D03*
X150528000Y-99841000D03*
X158675000Y-80925000D03*
X153830000Y-78124000D03*
X144051000Y-88538000D03*
X171229000Y-87268000D03*
X133383000Y-92094000D03*
X168054000Y-87268000D03*
X169641500Y-87268000D03*
X161293000Y-85671000D03*
X151798000Y-83458000D03*
X147988000Y-87522000D03*
X165768000Y-103651000D03*
X135161000Y-103778000D03*
X161958000Y-79394000D03*
X138844000Y-99587000D03*
X160688000Y-76346000D03*
X146591000Y-77235000D03*
X161323000Y-99206000D03*
X164879000Y-94126000D03*
X163482000Y-76346000D03*
X150782000Y-78124000D03*
X143238200Y-94049800D03*
X135669000Y-76092000D03*
X164879000Y-85109000D03*
X169451000Y-91205000D03*
X168555200Y-77771000D03*
X154846000Y-88157000D03*
X170017400Y-77771000D03*
X170441000Y-102221000D03*
X153576000Y-97174000D03*
X153449000Y-76092000D03*
X164879000Y-83966000D03*
X167800000Y-92729000D03*
X155227000Y-76092000D03*
X169057000Y-102221000D03*
X146464000Y-100349000D03*
X153195000Y-103651000D03*
X157809332Y-97174000D03*
X157005000Y-89935000D03*
X158529000Y-102254000D03*
X129600000Y-101575000D03*
X141511000Y-99587000D03*
X153449000Y-100095000D03*
X154719000Y-103651000D03*
X129525000Y-93475000D03*
X162212000Y-87776000D03*
X169451000Y-92729000D03*
X142654000Y-103651000D03*
X161831000Y-80537000D03*
X161831000Y-81807000D03*
X174404000Y-92729000D03*
X174404000Y-87268000D03*
X164879000Y-79902000D03*
X151544000Y-93745000D03*
X126525000Y-80994200D03*
X156878000Y-82188000D03*
X164879000Y-78886000D03*
X158743000Y-79721000D03*
X165260000Y-91332000D03*
X138844000Y-97428000D03*
X126525000Y-78657400D03*
X126575000Y-93766667D03*
X162343000Y-84071000D03*
X160307000Y-100095000D03*
X131706600Y-87522000D03*
X159545000Y-103143000D03*
X166657000Y-102889000D03*
X165006000Y-76346000D03*
X173209000Y-102221000D03*
X171825000Y-102221000D03*
X136685000Y-77743000D03*
X171479600Y-77771000D03*
X174404000Y-77771000D03*
X149512000Y-99079000D03*
X148496000Y-98317000D03*
X163228000Y-101111000D03*
X141511000Y-98240800D03*
X160275000Y-80800000D03*
X158867665Y-97174000D03*
X141384000Y-103651000D03*
X148496000Y-96031000D03*
X130589000Y-102635000D03*
X162571264Y-93271000D03*
X131859000Y-86252000D03*
X161350000Y-84700000D03*
X148750000Y-89173000D03*
X144432000Y-92729000D03*
X149512000Y-85109000D03*
X164879000Y-95523000D03*
X145829000Y-92983000D03*
X156750999Y-97174000D03*
X151925000Y-76092000D03*
X142908000Y-97809000D03*
X146337000Y-102381000D03*
X148623000Y-78505000D03*
X126500000Y-91750000D03*
X131732000Y-102635000D03*
X134526000Y-76092000D03*
X160942000Y-103651000D03*
X161993000Y-83021000D03*
X126525000Y-79775000D03*
X162085000Y-98444000D03*
X136050000Y-85617000D03*
X158783000Y-88030000D03*
X131986000Y-76092000D03*
X140114000Y-103651000D03*
X132113000Y-92475000D03*
X156751000Y-100095000D03*
X138844000Y-98444000D03*
X162593000Y-103651000D03*
X138767800Y-77692200D03*
X143797000Y-103651000D03*
X129573000Y-102635000D03*
X142146000Y-92856000D03*
X151544000Y-95142000D03*
X137574000Y-99587000D03*
X153449000Y-101365000D03*
X142908000Y-99587000D03*
X147861000Y-102381000D03*
X131808200Y-85210600D03*
X161958000Y-100222000D03*
X133891000Y-103778000D03*
X167673000Y-102221000D03*
X152052000Y-101873000D03*
X131750000Y-90500000D03*
X152500000Y-86500000D03*
X164244000Y-103651000D03*
X164879000Y-81045000D03*
X155633400Y-80029000D03*
X127025000Y-101050000D03*
X150528000Y-85871000D03*
X132621000Y-103778000D03*
X133256000Y-76092000D03*
X129954000Y-92475000D03*
X126575000Y-94825000D03*
X133510000Y-83585000D03*
X127025000Y-99991665D03*
X127600000Y-93791667D03*
X164879000Y-92729000D03*
X165260000Y-88792000D03*
X174593000Y-102221000D03*
X151798000Y-103651000D03*
X159926000Y-97174000D03*
X134653000Y-92221000D03*
X157259000Y-102254000D03*
X148496000Y-97174000D03*
X164879000Y-87649000D03*
X146972000Y-97555000D03*
X131757400Y-89020600D03*
X133281400Y-84855000D03*
X164498000Y-101111000D03*
X154634333Y-97174000D03*
X155692666Y-97174000D03*
X141511000Y-96920000D03*
X143289000Y-92729000D03*
X152433000Y-78124000D03*
X154846000Y-89173000D03*
X146972000Y-94634000D03*
X152052000Y-87522000D03*
X140368000Y-75965000D03*
X157894000Y-100095000D03*
X151544000Y-92475000D03*
X136812000Y-89808000D03*
X156116000Y-103270000D03*
X148496000Y-95015000D03*
X154592000Y-100095000D03*
X156075000Y-85875000D03*
X146972000Y-93491000D03*
X148750000Y-92602000D03*
X155735000Y-100095000D03*
X172941800Y-77771000D03*
X150655000Y-101365000D03*
X150528000Y-76092000D03*
X166043000Y-77071000D03*
X144940000Y-100730000D03*
X162343000Y-86271000D03*
X171102000Y-92729000D03*
X163482000Y-78886000D03*
X131097000Y-92475000D03*
X151671000Y-96158000D03*
X156878000Y-81045000D03*
X162293000Y-94871000D03*
X143839332Y-75965000D03*
X145575000Y-75965000D03*
X169451000Y-89046000D03*
X149512000Y-79394000D03*
X172816500Y-87268000D03*
X164879000Y-86252000D03*
X167093000Y-77771000D03*
X162212000Y-76346000D03*
X146972000Y-98952000D03*
X155227000Y-78505000D03*
X136100800Y-103244600D03*
X159037000Y-100095000D03*
X142103666Y-75965000D03*
X142933400Y-96412000D03*
X149766000Y-103016000D03*
X172753000Y-92729000D03*
X151290000Y-86633000D03*
X135669000Y-77108000D03*
X145067000Y-103651000D03*
X158783000Y-86760000D03*
X148724600Y-80130600D03*
X165260000Y-90062000D03*
X146972000Y-96158000D03*
X147353000Y-78505000D03*
X154846000Y-87141000D03*
X152052000Y-88665000D03*
%TO.N,+3V3*%
X140669165Y-93237000D03*
X155735000Y-92602000D03*
%TO.N,/P1.5*%
X131147800Y-78505000D03*
X138469835Y-79300335D03*
%TO.N,/P1.4*%
X133535400Y-77489000D03*
X140384951Y-80961708D03*
%TO.N,/C2D*%
X133637000Y-81196980D03*
%TO.N,/#RST_1*%
X131249400Y-81959400D03*
%TO.N,GPIO3*%
X142148170Y-88986986D03*
X162000000Y-91000000D03*
%TO.N,GPIO1*%
X141190500Y-88700851D03*
X158910000Y-94507000D03*
%TO.N,/#RTS*%
X137701000Y-88538000D03*
X135923000Y-95269000D03*
%TO.N,GPIO2*%
X152052000Y-89832989D03*
X143106835Y-81368921D03*
%TO.N,+5V*%
X128455400Y-100349000D03*
%TO.N,/#CTS*%
X136859006Y-87791237D03*
X135923000Y-93618000D03*
%TO.N,/RX_u*%
X137447000Y-97174000D03*
X139756659Y-88604002D03*
%TO.N,/TX_u*%
X136050000Y-96666000D03*
X138757483Y-88578483D03*
%TO.N,/P1.6*%
X138034353Y-80199980D03*
X129268200Y-78505000D03*
%TD*%
D15*
%TO.N,+3V3*%
X140669165Y-93096558D02*
X142184194Y-91581529D01*
X152695381Y-92483381D02*
X154473382Y-92483382D01*
X154473382Y-92483382D02*
X154592000Y-92602000D01*
X142184194Y-91581529D02*
X151793529Y-91581529D01*
X154592000Y-92602000D02*
X155735000Y-92602000D01*
X151793529Y-91581529D02*
X152695381Y-92483381D01*
X140669165Y-93237000D02*
X140669165Y-93096558D01*
D16*
%TO.N,/P1.5*%
X132561955Y-79919155D02*
X131147800Y-78505000D01*
X138469835Y-79300335D02*
X137659420Y-79300335D01*
X137659420Y-79300335D02*
X137040600Y-79919155D01*
X137040600Y-79919155D02*
X132561955Y-79919155D01*
%TO.N,/P1.4*%
X140384951Y-80961708D02*
X140384951Y-80226192D01*
X140384951Y-80226192D02*
X138612959Y-78454200D01*
X138612959Y-78454200D02*
X138564600Y-78454200D01*
X135566035Y-79519635D02*
X133535400Y-77489000D01*
X138564600Y-78454200D02*
X137852035Y-78454200D01*
X136786600Y-79519635D02*
X135566035Y-79519635D01*
X137852035Y-78454200D02*
X136786600Y-79519635D01*
D15*
%TO.N,/C2D*%
X129928600Y-86023400D02*
X131351000Y-84601000D01*
X133637000Y-81196980D02*
X133637000Y-82061000D01*
X133637000Y-82061000D02*
X131351000Y-84347000D01*
X131351000Y-84601000D02*
X131351000Y-84347000D01*
%TO.N,/#RST_1*%
X128607800Y-82264200D02*
X128963400Y-81908600D01*
X128963400Y-81908600D02*
X131198600Y-81908600D01*
X128607800Y-84804200D02*
X128607800Y-82264200D01*
X127388600Y-86023400D02*
X128607800Y-84804200D01*
%TO.N,GPIO3*%
X152166511Y-90582489D02*
X152293511Y-90582489D01*
X152166511Y-90582489D02*
X152262917Y-90582489D01*
X162000000Y-91000000D02*
X161331480Y-91340480D01*
X161331480Y-91340480D02*
X153020908Y-91340480D01*
X152262917Y-90582489D02*
X153020908Y-91340480D01*
X142148170Y-89810170D02*
X142920489Y-90582489D01*
X142148170Y-88986986D02*
X142148170Y-89810170D01*
X152293511Y-90582489D02*
X152293511Y-90613083D01*
X142920489Y-90582489D02*
X152166511Y-90582489D01*
X153020908Y-91340480D02*
X152293511Y-90613083D01*
%TO.N,GPIO1*%
X152056009Y-91082009D02*
X152814001Y-91840000D01*
X152814001Y-91840000D02*
X156243000Y-91840000D01*
X142713582Y-91082009D02*
X152056009Y-91082009D01*
X156243000Y-91840000D02*
X158910000Y-94507000D01*
X141190500Y-89558927D02*
X142713582Y-91082009D01*
X141190500Y-88700851D02*
X141190500Y-89558927D01*
D17*
%TO.N,/#RTS*%
X137701000Y-88538000D02*
X137701000Y-88705277D01*
X138336000Y-89340277D02*
X138336000Y-92856000D01*
X137701000Y-88705277D02*
X138336000Y-89340277D01*
X138336000Y-92856000D02*
X135923000Y-95269000D01*
D15*
%TO.N,GPIO2*%
X151493611Y-89832989D02*
X152052000Y-89832989D01*
X151243631Y-90082969D02*
X151493611Y-89832989D01*
X143106835Y-89371835D02*
X143817969Y-90082969D01*
X143817969Y-90082969D02*
X151243631Y-90082969D01*
X143106835Y-81368921D02*
X143106835Y-89371835D01*
D17*
%TO.N,+5V*%
X128557000Y-89731800D02*
X128557000Y-100247400D01*
X128557000Y-89731800D02*
X127388600Y-88563400D01*
X128557000Y-100247400D02*
X128455400Y-100349000D01*
%TO.N,/#CTS*%
X136859006Y-87791237D02*
X135923000Y-88727243D01*
X135923000Y-88727243D02*
X135923000Y-93618000D01*
%TO.N,/RX_u*%
X139869665Y-94751335D02*
X137447000Y-97174000D01*
X139869665Y-88717008D02*
X139869665Y-94751335D01*
X139756659Y-88604002D02*
X139869665Y-88717008D01*
%TO.N,/TX_u*%
X136050000Y-96666000D02*
X136050000Y-96539000D01*
X136050000Y-96539000D02*
X138935520Y-93653480D01*
X138935520Y-88756520D02*
X138757483Y-88578483D01*
X138935520Y-93653480D02*
X138935520Y-88756520D01*
D16*
%TO.N,/P1.6*%
X131081875Y-80318675D02*
X129268200Y-78505000D01*
X137915658Y-80318675D02*
X131081875Y-80318675D01*
X138034353Y-80199980D02*
X137915658Y-80318675D01*
%TD*%
%TA.AperFunction,Conductor*%
%TO.N,GND*%
G36*
X126277052Y-75339482D02*
G01*
X126301079Y-75374605D01*
X126374241Y-75590133D01*
X126493505Y-75819725D01*
X126646125Y-76028636D01*
X126828589Y-76212058D01*
X127036698Y-76365770D01*
X127265663Y-76486234D01*
X127268496Y-76487212D01*
X127268500Y-76487214D01*
X127507373Y-76569698D01*
X127507377Y-76569699D01*
X127510215Y-76570679D01*
X127566195Y-76580903D01*
X127762232Y-76616706D01*
X127762239Y-76616707D01*
X127764726Y-76617161D01*
X127767253Y-76617293D01*
X127767258Y-76617294D01*
X127802090Y-76619119D01*
X127847519Y-76621500D01*
X128008782Y-76621500D01*
X128200976Y-76606880D01*
X128354834Y-76571218D01*
X128450091Y-76549139D01*
X128450094Y-76549138D01*
X128453015Y-76548461D01*
X128693318Y-76452590D01*
X128844026Y-76363993D01*
X128913766Y-76322995D01*
X128913771Y-76322991D01*
X128916354Y-76321473D01*
X129048564Y-76213837D01*
X129114661Y-76160026D01*
X129114662Y-76160025D01*
X129116991Y-76158129D01*
X129290613Y-75966315D01*
X129433222Y-75750447D01*
X129541538Y-75515491D01*
X129581047Y-75378159D01*
X129612849Y-75334468D01*
X129656968Y-75321000D01*
X136226272Y-75321000D01*
X136277052Y-75339482D01*
X136301079Y-75374605D01*
X136374241Y-75590133D01*
X136493505Y-75819725D01*
X136646125Y-76028636D01*
X136828589Y-76212058D01*
X137036698Y-76365770D01*
X137265663Y-76486234D01*
X137268496Y-76487212D01*
X137268500Y-76487214D01*
X137507373Y-76569698D01*
X137507377Y-76569699D01*
X137510215Y-76570679D01*
X137566195Y-76580903D01*
X137762232Y-76616706D01*
X137762239Y-76616707D01*
X137764726Y-76617161D01*
X137767253Y-76617293D01*
X137767258Y-76617294D01*
X137802090Y-76619119D01*
X137847519Y-76621500D01*
X138008782Y-76621500D01*
X138200976Y-76606880D01*
X138354834Y-76571218D01*
X138450091Y-76549139D01*
X138450094Y-76549138D01*
X138453015Y-76548461D01*
X138693318Y-76452590D01*
X138844026Y-76363993D01*
X138913766Y-76322995D01*
X138913771Y-76322991D01*
X138916354Y-76321473D01*
X139048564Y-76213837D01*
X139114661Y-76160026D01*
X139114662Y-76160025D01*
X139116991Y-76158129D01*
X139290613Y-75966315D01*
X139433222Y-75750447D01*
X139541538Y-75515491D01*
X139581047Y-75378159D01*
X139612849Y-75334468D01*
X139656968Y-75321000D01*
X146226272Y-75321000D01*
X146277052Y-75339482D01*
X146301079Y-75374605D01*
X146374241Y-75590133D01*
X146493505Y-75819725D01*
X146646125Y-76028636D01*
X146828589Y-76212058D01*
X147036698Y-76365770D01*
X147265663Y-76486234D01*
X147268496Y-76487212D01*
X147268500Y-76487214D01*
X147507373Y-76569698D01*
X147507377Y-76569699D01*
X147510215Y-76570679D01*
X147566195Y-76580903D01*
X147762232Y-76616706D01*
X147762239Y-76616707D01*
X147764726Y-76617161D01*
X147767253Y-76617293D01*
X147767258Y-76617294D01*
X147802090Y-76619119D01*
X147847519Y-76621500D01*
X148008782Y-76621500D01*
X148200976Y-76606880D01*
X148354834Y-76571218D01*
X148450091Y-76549139D01*
X148450094Y-76549138D01*
X148453015Y-76548461D01*
X148693318Y-76452590D01*
X148844026Y-76363993D01*
X148913766Y-76322995D01*
X148913771Y-76322991D01*
X148916354Y-76321473D01*
X149048564Y-76213837D01*
X149114661Y-76160026D01*
X149114662Y-76160025D01*
X149116991Y-76158129D01*
X149290613Y-75966315D01*
X149433222Y-75750447D01*
X149541538Y-75515491D01*
X149581047Y-75378159D01*
X149612849Y-75334468D01*
X149656968Y-75321000D01*
X156226272Y-75321000D01*
X156277052Y-75339482D01*
X156301079Y-75374605D01*
X156374241Y-75590133D01*
X156493505Y-75819725D01*
X156646125Y-76028636D01*
X156828589Y-76212058D01*
X157036698Y-76365770D01*
X157265663Y-76486234D01*
X157268496Y-76487212D01*
X157268500Y-76487214D01*
X157507373Y-76569698D01*
X157507377Y-76569699D01*
X157510215Y-76570679D01*
X157566195Y-76580903D01*
X157762232Y-76616706D01*
X157762239Y-76616707D01*
X157764726Y-76617161D01*
X157767253Y-76617293D01*
X157767258Y-76617294D01*
X157802090Y-76619119D01*
X157847519Y-76621500D01*
X158008782Y-76621500D01*
X158200976Y-76606880D01*
X158354834Y-76571218D01*
X158450091Y-76549139D01*
X158450094Y-76549138D01*
X158453015Y-76548461D01*
X158693318Y-76452590D01*
X158844026Y-76363993D01*
X158913766Y-76322995D01*
X158913771Y-76322991D01*
X158916354Y-76321473D01*
X159048564Y-76213837D01*
X159114661Y-76160026D01*
X159114662Y-76160025D01*
X159116991Y-76158129D01*
X159290613Y-75966315D01*
X159433222Y-75750447D01*
X159541538Y-75515491D01*
X159581047Y-75378159D01*
X159612849Y-75334468D01*
X159656968Y-75321000D01*
X166226272Y-75321000D01*
X166277052Y-75339482D01*
X166301079Y-75374605D01*
X166374241Y-75590133D01*
X166493505Y-75819725D01*
X166646125Y-76028636D01*
X166828589Y-76212058D01*
X167036698Y-76365770D01*
X167265663Y-76486234D01*
X167268496Y-76487212D01*
X167268500Y-76487214D01*
X167507373Y-76569698D01*
X167507377Y-76569699D01*
X167510215Y-76570679D01*
X167566195Y-76580903D01*
X167762232Y-76616706D01*
X167762239Y-76616707D01*
X167764726Y-76617161D01*
X167767253Y-76617293D01*
X167767258Y-76617294D01*
X167802090Y-76619119D01*
X167847519Y-76621500D01*
X168008782Y-76621500D01*
X168200976Y-76606880D01*
X168354834Y-76571218D01*
X168450091Y-76549139D01*
X168450094Y-76549138D01*
X168453015Y-76548461D01*
X168693318Y-76452590D01*
X168844026Y-76363993D01*
X168913766Y-76322995D01*
X168913771Y-76322991D01*
X168916354Y-76321473D01*
X169048564Y-76213837D01*
X169114661Y-76160026D01*
X169114662Y-76160025D01*
X169116991Y-76158129D01*
X169290613Y-75966315D01*
X169433222Y-75750447D01*
X169541538Y-75515491D01*
X169581047Y-75378159D01*
X169612849Y-75334468D01*
X169656968Y-75321000D01*
X174964000Y-75321000D01*
X175014780Y-75339482D01*
X175041800Y-75386282D01*
X175043000Y-75400000D01*
X175043000Y-79467000D01*
X175024518Y-79517780D01*
X174977718Y-79544800D01*
X174964000Y-79546000D01*
X169030696Y-79546000D01*
X169018338Y-79545027D01*
X168999144Y-79541987D01*
X168999143Y-79541987D01*
X168993000Y-79541014D01*
X168961519Y-79546000D01*
X168873994Y-79559862D01*
X168873993Y-79559862D01*
X168867852Y-79560835D01*
X168754955Y-79618359D01*
X168665359Y-79707955D01*
X168607835Y-79820852D01*
X168588014Y-79946000D01*
X168588987Y-79952143D01*
X168588987Y-79952144D01*
X168592027Y-79971338D01*
X168593000Y-79983696D01*
X168593000Y-84858304D01*
X168592027Y-84870662D01*
X168588014Y-84896000D01*
X168593000Y-84927481D01*
X168607835Y-85021148D01*
X168665359Y-85134045D01*
X168754955Y-85223641D01*
X168867852Y-85281165D01*
X168873993Y-85282138D01*
X168873994Y-85282138D01*
X168986857Y-85300013D01*
X168993000Y-85300986D01*
X168999143Y-85300013D01*
X168999144Y-85300013D01*
X169018338Y-85296973D01*
X169030696Y-85296000D01*
X174964000Y-85296000D01*
X175014780Y-85314482D01*
X175041800Y-85361282D01*
X175043000Y-85375000D01*
X175043000Y-94467000D01*
X175024518Y-94517780D01*
X174977718Y-94544800D01*
X174964000Y-94546000D01*
X169030696Y-94546000D01*
X169018338Y-94545027D01*
X168999144Y-94541987D01*
X168999143Y-94541987D01*
X168993000Y-94541014D01*
X168961519Y-94546000D01*
X168873994Y-94559862D01*
X168873993Y-94559862D01*
X168867852Y-94560835D01*
X168754955Y-94618359D01*
X168665359Y-94707955D01*
X168607835Y-94820852D01*
X168606862Y-94826993D01*
X168606862Y-94826994D01*
X168599972Y-94870499D01*
X168588014Y-94946000D01*
X168588987Y-94952143D01*
X168588987Y-94952144D01*
X168592027Y-94971338D01*
X168593000Y-94983696D01*
X168593000Y-99858304D01*
X168592027Y-99870662D01*
X168588014Y-99896000D01*
X168593000Y-99927481D01*
X168607835Y-100021148D01*
X168665359Y-100134045D01*
X168754955Y-100223641D01*
X168867852Y-100281165D01*
X168873993Y-100282138D01*
X168873994Y-100282138D01*
X168986857Y-100300013D01*
X168993000Y-100300986D01*
X168999143Y-100300013D01*
X168999144Y-100300013D01*
X169018338Y-100296973D01*
X169030696Y-100296000D01*
X174964000Y-100296000D01*
X175014780Y-100314482D01*
X175041800Y-100361282D01*
X175043000Y-100375000D01*
X175043000Y-104442000D01*
X175024518Y-104492780D01*
X174977718Y-104519800D01*
X174964000Y-104521000D01*
X169659728Y-104521000D01*
X169608948Y-104502518D01*
X169584920Y-104467394D01*
X169512720Y-104254698D01*
X169511759Y-104251867D01*
X169392495Y-104022275D01*
X169239875Y-103813364D01*
X169057411Y-103629942D01*
X168849302Y-103476230D01*
X168620337Y-103355766D01*
X168617504Y-103354788D01*
X168617500Y-103354786D01*
X168378627Y-103272302D01*
X168378623Y-103272301D01*
X168375785Y-103271321D01*
X168319805Y-103261097D01*
X168123768Y-103225294D01*
X168123761Y-103225293D01*
X168121274Y-103224839D01*
X168118747Y-103224707D01*
X168118742Y-103224706D01*
X168083910Y-103222881D01*
X168038481Y-103220500D01*
X167877218Y-103220500D01*
X167685024Y-103235120D01*
X167682099Y-103235798D01*
X167435909Y-103292861D01*
X167435906Y-103292862D01*
X167432985Y-103293539D01*
X167192682Y-103389410D01*
X167190095Y-103390931D01*
X166972234Y-103519005D01*
X166972229Y-103519009D01*
X166969646Y-103520527D01*
X166967315Y-103522424D01*
X166967316Y-103522424D01*
X166835251Y-103629942D01*
X166769009Y-103683871D01*
X166595387Y-103875685D01*
X166452778Y-104091553D01*
X166344462Y-104326509D01*
X166343634Y-104329387D01*
X166304953Y-104463841D01*
X166273151Y-104507532D01*
X166229032Y-104521000D01*
X159659728Y-104521000D01*
X159608948Y-104502518D01*
X159584920Y-104467394D01*
X159512720Y-104254698D01*
X159511759Y-104251867D01*
X159392495Y-104022275D01*
X159239875Y-103813364D01*
X159057411Y-103629942D01*
X158849302Y-103476230D01*
X158620337Y-103355766D01*
X158617504Y-103354788D01*
X158617500Y-103354786D01*
X158378627Y-103272302D01*
X158378623Y-103272301D01*
X158375785Y-103271321D01*
X158319805Y-103261097D01*
X158123768Y-103225294D01*
X158123761Y-103225293D01*
X158121274Y-103224839D01*
X158118747Y-103224707D01*
X158118742Y-103224706D01*
X158083910Y-103222881D01*
X158038481Y-103220500D01*
X157877218Y-103220500D01*
X157685024Y-103235120D01*
X157682099Y-103235798D01*
X157435909Y-103292861D01*
X157435906Y-103292862D01*
X157432985Y-103293539D01*
X157192682Y-103389410D01*
X157190095Y-103390931D01*
X156972234Y-103519005D01*
X156972229Y-103519009D01*
X156969646Y-103520527D01*
X156967315Y-103522424D01*
X156967316Y-103522424D01*
X156835251Y-103629942D01*
X156769009Y-103683871D01*
X156595387Y-103875685D01*
X156452778Y-104091553D01*
X156344462Y-104326509D01*
X156343634Y-104329387D01*
X156304953Y-104463841D01*
X156273151Y-104507532D01*
X156229032Y-104521000D01*
X149659728Y-104521000D01*
X149608948Y-104502518D01*
X149584920Y-104467394D01*
X149512720Y-104254698D01*
X149511759Y-104251867D01*
X149392495Y-104022275D01*
X149239875Y-103813364D01*
X149057411Y-103629942D01*
X148849302Y-103476230D01*
X148620337Y-103355766D01*
X148617504Y-103354788D01*
X148617500Y-103354786D01*
X148378627Y-103272302D01*
X148378623Y-103272301D01*
X148375785Y-103271321D01*
X148319805Y-103261097D01*
X148123768Y-103225294D01*
X148123761Y-103225293D01*
X148121274Y-103224839D01*
X148118747Y-103224707D01*
X148118742Y-103224706D01*
X148083910Y-103222881D01*
X148038481Y-103220500D01*
X147877218Y-103220500D01*
X147685024Y-103235120D01*
X147682099Y-103235798D01*
X147435909Y-103292861D01*
X147435906Y-103292862D01*
X147432985Y-103293539D01*
X147192682Y-103389410D01*
X147190095Y-103390931D01*
X146972234Y-103519005D01*
X146972229Y-103519009D01*
X146969646Y-103520527D01*
X146967315Y-103522424D01*
X146967316Y-103522424D01*
X146835251Y-103629942D01*
X146769009Y-103683871D01*
X146595387Y-103875685D01*
X146452778Y-104091553D01*
X146344462Y-104326509D01*
X146343634Y-104329387D01*
X146304953Y-104463841D01*
X146273151Y-104507532D01*
X146229032Y-104521000D01*
X139659728Y-104521000D01*
X139608948Y-104502518D01*
X139584920Y-104467394D01*
X139512720Y-104254698D01*
X139511759Y-104251867D01*
X139392495Y-104022275D01*
X139239875Y-103813364D01*
X139057411Y-103629942D01*
X138849302Y-103476230D01*
X138620337Y-103355766D01*
X138617504Y-103354788D01*
X138617500Y-103354786D01*
X138378627Y-103272302D01*
X138378623Y-103272301D01*
X138375785Y-103271321D01*
X138319805Y-103261097D01*
X138123768Y-103225294D01*
X138123761Y-103225293D01*
X138121274Y-103224839D01*
X138118747Y-103224707D01*
X138118742Y-103224706D01*
X138083910Y-103222881D01*
X138038481Y-103220500D01*
X137877218Y-103220500D01*
X137685024Y-103235120D01*
X137682099Y-103235798D01*
X137435909Y-103292861D01*
X137435906Y-103292862D01*
X137432985Y-103293539D01*
X137192682Y-103389410D01*
X137190095Y-103390931D01*
X136972234Y-103519005D01*
X136972229Y-103519009D01*
X136969646Y-103520527D01*
X136967315Y-103522424D01*
X136967316Y-103522424D01*
X136835251Y-103629942D01*
X136769009Y-103683871D01*
X136595387Y-103875685D01*
X136452778Y-104091553D01*
X136344462Y-104326509D01*
X136343634Y-104329387D01*
X136304953Y-104463841D01*
X136273151Y-104507532D01*
X136229032Y-104521000D01*
X129659728Y-104521000D01*
X129608948Y-104502518D01*
X129584920Y-104467394D01*
X129512720Y-104254698D01*
X129511759Y-104251867D01*
X129392495Y-104022275D01*
X129239875Y-103813364D01*
X129057411Y-103629942D01*
X128849302Y-103476230D01*
X128620337Y-103355766D01*
X128617504Y-103354788D01*
X128617500Y-103354786D01*
X128378627Y-103272302D01*
X128378623Y-103272301D01*
X128375785Y-103271321D01*
X128319805Y-103261097D01*
X128123768Y-103225294D01*
X128123761Y-103225293D01*
X128121274Y-103224839D01*
X128118747Y-103224707D01*
X128118742Y-103224706D01*
X128083910Y-103222881D01*
X128038481Y-103220500D01*
X127877218Y-103220500D01*
X127685024Y-103235120D01*
X127682099Y-103235798D01*
X127435909Y-103292861D01*
X127435906Y-103292862D01*
X127432985Y-103293539D01*
X127192682Y-103389410D01*
X127190095Y-103390931D01*
X126972234Y-103519005D01*
X126972229Y-103519009D01*
X126969646Y-103520527D01*
X126967315Y-103522424D01*
X126967316Y-103522424D01*
X126835251Y-103629942D01*
X126769009Y-103683871D01*
X126595387Y-103875685D01*
X126452778Y-104091553D01*
X126344462Y-104326509D01*
X126343634Y-104329387D01*
X126304953Y-104463841D01*
X126273151Y-104507532D01*
X126229032Y-104521000D01*
X125922000Y-104521000D01*
X125871220Y-104502518D01*
X125844200Y-104455718D01*
X125843000Y-104442000D01*
X125843000Y-89345148D01*
X126426100Y-89345148D01*
X126437733Y-89403631D01*
X126442054Y-89410098D01*
X126442055Y-89410100D01*
X126449507Y-89421252D01*
X126482048Y-89469952D01*
X126488513Y-89474272D01*
X126541900Y-89509945D01*
X126541902Y-89509946D01*
X126548369Y-89514267D01*
X126558856Y-89516353D01*
X126603040Y-89525142D01*
X126603043Y-89525142D01*
X126606852Y-89525900D01*
X127751986Y-89525900D01*
X127802766Y-89544382D01*
X127807847Y-89549039D01*
X128133361Y-89874553D01*
X128156199Y-89923529D01*
X128156500Y-89930414D01*
X128156500Y-99782481D01*
X128138018Y-99833261D01*
X128125592Y-99845156D01*
X128100358Y-99864519D01*
X128027118Y-99920718D01*
X128023969Y-99924822D01*
X127945804Y-100026689D01*
X127930864Y-100046159D01*
X127870356Y-100192238D01*
X127849718Y-100349000D01*
X127870356Y-100505762D01*
X127930864Y-100651841D01*
X128027118Y-100777282D01*
X128031222Y-100780431D01*
X128148448Y-100870382D01*
X128148450Y-100870383D01*
X128152559Y-100873536D01*
X128256009Y-100916386D01*
X128293850Y-100932061D01*
X128293852Y-100932061D01*
X128298638Y-100934044D01*
X128455400Y-100954682D01*
X128612162Y-100934044D01*
X128616948Y-100932061D01*
X128616950Y-100932061D01*
X128654791Y-100916386D01*
X128758241Y-100873536D01*
X128762350Y-100870383D01*
X128762352Y-100870382D01*
X128879578Y-100780431D01*
X128883682Y-100777282D01*
X128979936Y-100651841D01*
X129040444Y-100505762D01*
X129061082Y-100349000D01*
X129040444Y-100192238D01*
X128979936Y-100046159D01*
X128973825Y-100038195D01*
X128957500Y-99990103D01*
X128957500Y-95269000D01*
X135317318Y-95269000D01*
X135337956Y-95425762D01*
X135398464Y-95571841D01*
X135494718Y-95697282D01*
X135498822Y-95700431D01*
X135616048Y-95790382D01*
X135616050Y-95790383D01*
X135620159Y-95793536D01*
X135723609Y-95836386D01*
X135761450Y-95852061D01*
X135761452Y-95852061D01*
X135766238Y-95854044D01*
X135923000Y-95874682D01*
X135951293Y-95870957D01*
X136004050Y-95882653D01*
X136036947Y-95925524D01*
X136034591Y-95979512D01*
X136017465Y-96005142D01*
X135967954Y-96054653D01*
X135922405Y-96077116D01*
X135913180Y-96078331D01*
X135893238Y-96080956D01*
X135888452Y-96082939D01*
X135888450Y-96082939D01*
X135850609Y-96098614D01*
X135747159Y-96141464D01*
X135743050Y-96144617D01*
X135743048Y-96144618D01*
X135646514Y-96218691D01*
X135621718Y-96237718D01*
X135525464Y-96363159D01*
X135464956Y-96509238D01*
X135444318Y-96666000D01*
X135464956Y-96822762D01*
X135525464Y-96968841D01*
X135621718Y-97094282D01*
X135625822Y-97097431D01*
X135743048Y-97187382D01*
X135743050Y-97187383D01*
X135747159Y-97190536D01*
X135850609Y-97233386D01*
X135888450Y-97249061D01*
X135888452Y-97249061D01*
X135893238Y-97251044D01*
X136050000Y-97271682D01*
X136206762Y-97251044D01*
X136211548Y-97249061D01*
X136211550Y-97249061D01*
X136249391Y-97233386D01*
X136352841Y-97190536D01*
X136356950Y-97187383D01*
X136356952Y-97187382D01*
X136474178Y-97097431D01*
X136478282Y-97094282D01*
X136574536Y-96968841D01*
X136635044Y-96822762D01*
X136655682Y-96666000D01*
X136641422Y-96557680D01*
X136653118Y-96504922D01*
X136663885Y-96491508D01*
X139241004Y-93914389D01*
X139241007Y-93914385D01*
X139263570Y-93891822D01*
X139275238Y-93868922D01*
X139281712Y-93858359D01*
X139293161Y-93842601D01*
X139296817Y-93837569D01*
X139298740Y-93831652D01*
X139298741Y-93831649D01*
X139304760Y-93813126D01*
X139309503Y-93801673D01*
X139319776Y-93781512D01*
X139359297Y-93744658D01*
X139413262Y-93741830D01*
X139456420Y-93774351D01*
X139469165Y-93817378D01*
X139469165Y-94552720D01*
X139450683Y-94603500D01*
X139446026Y-94608581D01*
X137508752Y-96545855D01*
X137459776Y-96568693D01*
X137452891Y-96568994D01*
X137452134Y-96568994D01*
X137447000Y-96568318D01*
X137290238Y-96588956D01*
X137285452Y-96590939D01*
X137285450Y-96590939D01*
X137247609Y-96606614D01*
X137144159Y-96649464D01*
X137140050Y-96652617D01*
X137140048Y-96652618D01*
X137043514Y-96726691D01*
X137018718Y-96745718D01*
X136922464Y-96871159D01*
X136861956Y-97017238D01*
X136841318Y-97174000D01*
X136861956Y-97330762D01*
X136922464Y-97476841D01*
X137018718Y-97602282D01*
X137022822Y-97605431D01*
X137140048Y-97695382D01*
X137140050Y-97695383D01*
X137144159Y-97698536D01*
X137247609Y-97741386D01*
X137285450Y-97757061D01*
X137285452Y-97757061D01*
X137290238Y-97759044D01*
X137447000Y-97779682D01*
X137603762Y-97759044D01*
X137608548Y-97757061D01*
X137608550Y-97757061D01*
X137646391Y-97741386D01*
X137749841Y-97698536D01*
X137753950Y-97695383D01*
X137753952Y-97695382D01*
X137871178Y-97605431D01*
X137875282Y-97602282D01*
X137971536Y-97476841D01*
X138032044Y-97330762D01*
X138052682Y-97174000D01*
X138052006Y-97168865D01*
X138052006Y-97168109D01*
X138070488Y-97117329D01*
X138075145Y-97112248D01*
X140175149Y-95012244D01*
X140175152Y-95012240D01*
X140197715Y-94989677D01*
X140200763Y-94983696D01*
X140209382Y-94966779D01*
X140215854Y-94956217D01*
X140230961Y-94935424D01*
X140238900Y-94910989D01*
X140243643Y-94899538D01*
X140255311Y-94876639D01*
X140259332Y-94851249D01*
X140262222Y-94839213D01*
X140270165Y-94814768D01*
X140270165Y-93839937D01*
X140288647Y-93789157D01*
X140335447Y-93762137D01*
X140379397Y-93766951D01*
X140507615Y-93820061D01*
X140507617Y-93820061D01*
X140512403Y-93822044D01*
X140585361Y-93831649D01*
X140648315Y-93839937D01*
X140669165Y-93842682D01*
X140690016Y-93839937D01*
X140752969Y-93831649D01*
X140825927Y-93822044D01*
X140830713Y-93820061D01*
X140830715Y-93820061D01*
X140905323Y-93789157D01*
X140972006Y-93761536D01*
X140976115Y-93758383D01*
X140976117Y-93758382D01*
X141093343Y-93668431D01*
X141097447Y-93665282D01*
X141116474Y-93640486D01*
X141190547Y-93543952D01*
X141190548Y-93543950D01*
X141193701Y-93539841D01*
X141254209Y-93393762D01*
X141274847Y-93237000D01*
X141254209Y-93080238D01*
X141252227Y-93075454D01*
X141250887Y-93070452D01*
X141252693Y-93069968D01*
X141250658Y-93023371D01*
X141270141Y-92991264D01*
X142306237Y-91955168D01*
X142355213Y-91932330D01*
X142362098Y-91932029D01*
X151615625Y-91932029D01*
X151666405Y-91950511D01*
X151671486Y-91955168D01*
X152415138Y-92698820D01*
X152425643Y-92711826D01*
X152432556Y-92722533D01*
X152458129Y-92742694D01*
X152458645Y-92743100D01*
X152465597Y-92749279D01*
X152468127Y-92751809D01*
X152470779Y-92753704D01*
X152483354Y-92762690D01*
X152486332Y-92764926D01*
X152519063Y-92790730D01*
X152519065Y-92790731D01*
X152524192Y-92794773D01*
X152530331Y-92796929D01*
X152531215Y-92797485D01*
X152532798Y-92798307D01*
X152533754Y-92798707D01*
X152539050Y-92802492D01*
X152585244Y-92816306D01*
X152588778Y-92817455D01*
X152629594Y-92831789D01*
X152629602Y-92831791D01*
X152634287Y-92833436D01*
X152639425Y-92833881D01*
X152641097Y-92833881D01*
X152645162Y-92834225D01*
X152650844Y-92835924D01*
X152657368Y-92835668D01*
X152657370Y-92835668D01*
X152701301Y-92833942D01*
X152704402Y-92833881D01*
X152777853Y-92833881D01*
X154292558Y-92833882D01*
X154341467Y-92850843D01*
X154355264Y-92861720D01*
X154362216Y-92867898D01*
X154364746Y-92870428D01*
X154367398Y-92872323D01*
X154379973Y-92881309D01*
X154382951Y-92883545D01*
X154415682Y-92909349D01*
X154415684Y-92909350D01*
X154420811Y-92913392D01*
X154426950Y-92915548D01*
X154427829Y-92916101D01*
X154429420Y-92916928D01*
X154430374Y-92917327D01*
X154435669Y-92921111D01*
X154441920Y-92922980D01*
X154441923Y-92922982D01*
X154481876Y-92934930D01*
X154485417Y-92936081D01*
X154526213Y-92950407D01*
X154530906Y-92952055D01*
X154536044Y-92952500D01*
X154537708Y-92952500D01*
X154541778Y-92952844D01*
X154547463Y-92954544D01*
X154553987Y-92954288D01*
X154553990Y-92954288D01*
X154597935Y-92952561D01*
X154601036Y-92952500D01*
X155208075Y-92952500D01*
X155258855Y-92970982D01*
X155270750Y-92983408D01*
X155301415Y-93023371D01*
X155306718Y-93030282D01*
X155310822Y-93033431D01*
X155428048Y-93123382D01*
X155428050Y-93123383D01*
X155432159Y-93126536D01*
X155535609Y-93169386D01*
X155573450Y-93185061D01*
X155573452Y-93185061D01*
X155578238Y-93187044D01*
X155735000Y-93207682D01*
X155891762Y-93187044D01*
X155896548Y-93185061D01*
X155896550Y-93185061D01*
X155934391Y-93169386D01*
X156037841Y-93126536D01*
X156041950Y-93123383D01*
X156041952Y-93123382D01*
X156159178Y-93033431D01*
X156163282Y-93030282D01*
X156182309Y-93005486D01*
X156256382Y-92908952D01*
X156256383Y-92908950D01*
X156259536Y-92904841D01*
X156306802Y-92790730D01*
X156318061Y-92763550D01*
X156318061Y-92763548D01*
X156320044Y-92758762D01*
X156339391Y-92611807D01*
X156364343Y-92563874D01*
X156414269Y-92543194D01*
X156465807Y-92559444D01*
X156473576Y-92566258D01*
X158289567Y-94382249D01*
X158312405Y-94431225D01*
X158312030Y-94448421D01*
X158304318Y-94507000D01*
X158324956Y-94663762D01*
X158326939Y-94668548D01*
X158326939Y-94668550D01*
X158334142Y-94685939D01*
X158385464Y-94809841D01*
X158388617Y-94813950D01*
X158388618Y-94813952D01*
X158454291Y-94899538D01*
X158481718Y-94935282D01*
X158485822Y-94938431D01*
X158603048Y-95028382D01*
X158603050Y-95028383D01*
X158607159Y-95031536D01*
X158702791Y-95071148D01*
X158748450Y-95090061D01*
X158748452Y-95090061D01*
X158753238Y-95092044D01*
X158910000Y-95112682D01*
X159066762Y-95092044D01*
X159071548Y-95090061D01*
X159071550Y-95090061D01*
X159117209Y-95071148D01*
X159212841Y-95031536D01*
X159216950Y-95028383D01*
X159216952Y-95028382D01*
X159334178Y-94938431D01*
X159338282Y-94935282D01*
X159365709Y-94899538D01*
X159431382Y-94813952D01*
X159431383Y-94813950D01*
X159434536Y-94809841D01*
X159485858Y-94685939D01*
X159493061Y-94668550D01*
X159493061Y-94668548D01*
X159495044Y-94663762D01*
X159515682Y-94507000D01*
X159495044Y-94350238D01*
X159434536Y-94204159D01*
X159338282Y-94078718D01*
X159300114Y-94049431D01*
X159216952Y-93985618D01*
X159216950Y-93985617D01*
X159212841Y-93982464D01*
X159109391Y-93939614D01*
X159071550Y-93923939D01*
X159071548Y-93923939D01*
X159066762Y-93921956D01*
X158910000Y-93901318D01*
X158851422Y-93909030D01*
X158798663Y-93897334D01*
X158785249Y-93886567D01*
X156724523Y-91825841D01*
X156701685Y-91776865D01*
X156715671Y-91724667D01*
X156759937Y-91693672D01*
X156780384Y-91690980D01*
X161289019Y-91690980D01*
X161304444Y-91692501D01*
X161320256Y-91695649D01*
X161326728Y-91694781D01*
X161326730Y-91694781D01*
X161349838Y-91691681D01*
X161354099Y-91691397D01*
X161354087Y-91691249D01*
X161357342Y-91690980D01*
X161360595Y-91690980D01*
X161363803Y-91690446D01*
X161363805Y-91690446D01*
X161373410Y-91688847D01*
X161382328Y-91687363D01*
X161384769Y-91686996D01*
X161435907Y-91680136D01*
X161440687Y-91678200D01*
X161442168Y-91677446D01*
X161442353Y-91677372D01*
X161446583Y-91676668D01*
X161494335Y-91650902D01*
X161495997Y-91650030D01*
X161583074Y-91605682D01*
X161689662Y-91551396D01*
X161743301Y-91544820D01*
X161755748Y-91548805D01*
X161793456Y-91564424D01*
X161843238Y-91585044D01*
X162000000Y-91605682D01*
X162156762Y-91585044D01*
X162161548Y-91583061D01*
X162161550Y-91583061D01*
X162237995Y-91551396D01*
X162302841Y-91524536D01*
X162306950Y-91521383D01*
X162306952Y-91521382D01*
X162424178Y-91431431D01*
X162428282Y-91428282D01*
X162447309Y-91403486D01*
X162521382Y-91306952D01*
X162521383Y-91306950D01*
X162524536Y-91302841D01*
X162585044Y-91156762D01*
X162605682Y-91000000D01*
X162585044Y-90843238D01*
X162524536Y-90697159D01*
X162428282Y-90571718D01*
X162403486Y-90552691D01*
X162306952Y-90478618D01*
X162306950Y-90478617D01*
X162302841Y-90475464D01*
X162199391Y-90432614D01*
X162161550Y-90416939D01*
X162161548Y-90416939D01*
X162156762Y-90414956D01*
X162000000Y-90394318D01*
X161843238Y-90414956D01*
X161838452Y-90416939D01*
X161838450Y-90416939D01*
X161800609Y-90432614D01*
X161697159Y-90475464D01*
X161693050Y-90478617D01*
X161693048Y-90478618D01*
X161596514Y-90552691D01*
X161571718Y-90571718D01*
X161475464Y-90697159D01*
X161414956Y-90843238D01*
X161414280Y-90848374D01*
X161414280Y-90848375D01*
X161411720Y-90867819D01*
X161386768Y-90915752D01*
X161369250Y-90927903D01*
X161283654Y-90971498D01*
X161264259Y-90981376D01*
X161228406Y-90989980D01*
X153198812Y-90989980D01*
X153148032Y-90971498D01*
X153142951Y-90966841D01*
X152629508Y-90453398D01*
X152619001Y-90440389D01*
X152597141Y-90406533D01*
X152593985Y-90401196D01*
X152577391Y-90370443D01*
X152577389Y-90370441D01*
X152574289Y-90364695D01*
X152569494Y-90360263D01*
X152565493Y-90355104D01*
X152565532Y-90355073D01*
X152564308Y-90353617D01*
X152564271Y-90353650D01*
X152559878Y-90348822D01*
X152556336Y-90343337D01*
X152551208Y-90339295D01*
X152551206Y-90339292D01*
X152530944Y-90323318D01*
X152502508Y-90277366D01*
X152510263Y-90223886D01*
X152517178Y-90213187D01*
X152573382Y-90139941D01*
X152573383Y-90139939D01*
X152576536Y-90135830D01*
X152637044Y-89989751D01*
X152657682Y-89832989D01*
X152637044Y-89676227D01*
X152633789Y-89668367D01*
X152616265Y-89626063D01*
X152576536Y-89530148D01*
X152573277Y-89525900D01*
X152483431Y-89408811D01*
X152480282Y-89404707D01*
X152450828Y-89382106D01*
X152358952Y-89311607D01*
X152358950Y-89311606D01*
X152354841Y-89308453D01*
X152251391Y-89265603D01*
X152213550Y-89249928D01*
X152213548Y-89249928D01*
X152208762Y-89247945D01*
X152052000Y-89227307D01*
X151895238Y-89247945D01*
X151890452Y-89249928D01*
X151890450Y-89249928D01*
X151852609Y-89265603D01*
X151749159Y-89308453D01*
X151745050Y-89311606D01*
X151745048Y-89311607D01*
X151653172Y-89382106D01*
X151623718Y-89404707D01*
X151620569Y-89408811D01*
X151620566Y-89408814D01*
X151589786Y-89448928D01*
X151544211Y-89477964D01*
X151523336Y-89478017D01*
X151523256Y-89479720D01*
X151516735Y-89479413D01*
X151510350Y-89478038D01*
X151477374Y-89481941D01*
X151468088Y-89482489D01*
X151464496Y-89482489D01*
X151461277Y-89483025D01*
X151461274Y-89483025D01*
X151446019Y-89485564D01*
X151442335Y-89486088D01*
X151403710Y-89490660D01*
X151394472Y-89491753D01*
X151388607Y-89494569D01*
X151387592Y-89494800D01*
X151385884Y-89495341D01*
X151384929Y-89495732D01*
X151378508Y-89496801D01*
X151372763Y-89499901D01*
X151372760Y-89499902D01*
X151336049Y-89519711D01*
X151332786Y-89521375D01*
X151289285Y-89542263D01*
X151285337Y-89545581D01*
X151284153Y-89546765D01*
X151281039Y-89549393D01*
X151275817Y-89552211D01*
X151250468Y-89579633D01*
X151241533Y-89589299D01*
X151239383Y-89591535D01*
X151121588Y-89709330D01*
X151072612Y-89732168D01*
X151065727Y-89732469D01*
X143995873Y-89732469D01*
X143945093Y-89713987D01*
X143940012Y-89709330D01*
X143480474Y-89249792D01*
X143457636Y-89200816D01*
X143457335Y-89193931D01*
X143457335Y-81895846D01*
X143475817Y-81845066D01*
X143488243Y-81833171D01*
X143531012Y-81800353D01*
X143531013Y-81800352D01*
X143535117Y-81797203D01*
X143554144Y-81772407D01*
X143628217Y-81675873D01*
X143628218Y-81675871D01*
X143631371Y-81671762D01*
X143691879Y-81525683D01*
X143711540Y-81376339D01*
X143711841Y-81374056D01*
X143712517Y-81368921D01*
X143710605Y-81354394D01*
X143692555Y-81217295D01*
X143691879Y-81212159D01*
X143631371Y-81066080D01*
X143615468Y-81045354D01*
X143538266Y-80944743D01*
X143535117Y-80940639D01*
X143474517Y-80894139D01*
X143413787Y-80847539D01*
X143413785Y-80847538D01*
X143409676Y-80844385D01*
X143302903Y-80800158D01*
X143268385Y-80785860D01*
X143268383Y-80785860D01*
X143263597Y-80783877D01*
X143106835Y-80763239D01*
X142950073Y-80783877D01*
X142945287Y-80785860D01*
X142945285Y-80785860D01*
X142910767Y-80800158D01*
X142803994Y-80844385D01*
X142799885Y-80847538D01*
X142799883Y-80847539D01*
X142739153Y-80894139D01*
X142678553Y-80940639D01*
X142675404Y-80944743D01*
X142598203Y-81045354D01*
X142582299Y-81066080D01*
X142521791Y-81212159D01*
X142521115Y-81217295D01*
X142503066Y-81354394D01*
X142501153Y-81368921D01*
X142501829Y-81374056D01*
X142502130Y-81376339D01*
X142521791Y-81525683D01*
X142582299Y-81671762D01*
X142585452Y-81675871D01*
X142585453Y-81675873D01*
X142659526Y-81772407D01*
X142678553Y-81797203D01*
X142682657Y-81800352D01*
X142682658Y-81800353D01*
X142725427Y-81833171D01*
X142754462Y-81878748D01*
X142756335Y-81895846D01*
X142756335Y-88560406D01*
X142737853Y-88611186D01*
X142691053Y-88638206D01*
X142637835Y-88628822D01*
X142614660Y-88608498D01*
X142614339Y-88608079D01*
X142576452Y-88558704D01*
X142529094Y-88522365D01*
X142455122Y-88465604D01*
X142455120Y-88465603D01*
X142451011Y-88462450D01*
X142347036Y-88419382D01*
X142309720Y-88403925D01*
X142309718Y-88403925D01*
X142304932Y-88401942D01*
X142177270Y-88385135D01*
X142153305Y-88381980D01*
X142148170Y-88381304D01*
X142143035Y-88381980D01*
X142119070Y-88385135D01*
X141991408Y-88401942D01*
X141986622Y-88403925D01*
X141986620Y-88403925D01*
X141850116Y-88460467D01*
X141845329Y-88462450D01*
X141841222Y-88465602D01*
X141839993Y-88466311D01*
X141786774Y-88475692D01*
X141739976Y-88448670D01*
X141727513Y-88428131D01*
X141715036Y-88398010D01*
X141710692Y-88392348D01*
X141621931Y-88276673D01*
X141618782Y-88272569D01*
X141530744Y-88205015D01*
X141497452Y-88179469D01*
X141497450Y-88179468D01*
X141493341Y-88176315D01*
X141389891Y-88133465D01*
X141352050Y-88117790D01*
X141352048Y-88117790D01*
X141347262Y-88115807D01*
X141190500Y-88095169D01*
X141033738Y-88115807D01*
X141028952Y-88117790D01*
X141028950Y-88117790D01*
X140991109Y-88133465D01*
X140887659Y-88176315D01*
X140883550Y-88179468D01*
X140883548Y-88179469D01*
X140850256Y-88205015D01*
X140762218Y-88272569D01*
X140759069Y-88276673D01*
X140670309Y-88392348D01*
X140665964Y-88398010D01*
X140637966Y-88465604D01*
X140607930Y-88538117D01*
X140605456Y-88544089D01*
X140584818Y-88700851D01*
X140605456Y-88857613D01*
X140607439Y-88862399D01*
X140607439Y-88862401D01*
X140612690Y-88875078D01*
X140665964Y-89003692D01*
X140669117Y-89007801D01*
X140669118Y-89007803D01*
X140708696Y-89059382D01*
X140762218Y-89129133D01*
X140766322Y-89132282D01*
X140766323Y-89132283D01*
X140809092Y-89165101D01*
X140838127Y-89210678D01*
X140840000Y-89227776D01*
X140840000Y-89513108D01*
X140838230Y-89529735D01*
X140835549Y-89542188D01*
X140836903Y-89553627D01*
X140839452Y-89575164D01*
X140840000Y-89584450D01*
X140840000Y-89588042D01*
X140840535Y-89591258D01*
X140840536Y-89591267D01*
X140843074Y-89606516D01*
X140843598Y-89610198D01*
X140845346Y-89624965D01*
X140849264Y-89658065D01*
X140852080Y-89663930D01*
X140852313Y-89664953D01*
X140852848Y-89666644D01*
X140853243Y-89667608D01*
X140854312Y-89674030D01*
X140861919Y-89688127D01*
X140877215Y-89716476D01*
X140878900Y-89719784D01*
X140899774Y-89763253D01*
X140903092Y-89767201D01*
X140904276Y-89768385D01*
X140906904Y-89771499D01*
X140909722Y-89776721D01*
X140914520Y-89781156D01*
X140946810Y-89811005D01*
X140949046Y-89813155D01*
X142230203Y-91094312D01*
X142253041Y-91143288D01*
X142239055Y-91195486D01*
X142194789Y-91226481D01*
X142183629Y-91228625D01*
X142176995Y-91229410D01*
X142167947Y-91230481D01*
X142158664Y-91231029D01*
X142155079Y-91231029D01*
X142151861Y-91231565D01*
X142151857Y-91231565D01*
X142136620Y-91234101D01*
X142132936Y-91234625D01*
X142091543Y-91239524D01*
X142091542Y-91239524D01*
X142085056Y-91240292D01*
X142079191Y-91243109D01*
X142078183Y-91243338D01*
X142076466Y-91243881D01*
X142075511Y-91244273D01*
X142069091Y-91245341D01*
X142026652Y-91268240D01*
X142023344Y-91269925D01*
X141984354Y-91288647D01*
X141984349Y-91288650D01*
X141979868Y-91290802D01*
X141975920Y-91294121D01*
X141974738Y-91295303D01*
X141971620Y-91297934D01*
X141966400Y-91300751D01*
X141961967Y-91305547D01*
X141932116Y-91337839D01*
X141929966Y-91340075D01*
X140653071Y-92616970D01*
X140607522Y-92639433D01*
X140564232Y-92645133D01*
X140512403Y-92651956D01*
X140507617Y-92653939D01*
X140507615Y-92653939D01*
X140379397Y-92707049D01*
X140325409Y-92709407D01*
X140282537Y-92676510D01*
X140270165Y-92634063D01*
X140270165Y-88945764D01*
X140280270Y-88908049D01*
X140281195Y-88906843D01*
X140341703Y-88760764D01*
X140362341Y-88604002D01*
X140341703Y-88447240D01*
X140281195Y-88301161D01*
X140256840Y-88269420D01*
X140188090Y-88179824D01*
X140184941Y-88175720D01*
X140104274Y-88113822D01*
X140063611Y-88082620D01*
X140063609Y-88082619D01*
X140059500Y-88079466D01*
X139956050Y-88036616D01*
X139918209Y-88020941D01*
X139918207Y-88020941D01*
X139913421Y-88018958D01*
X139756659Y-87998320D01*
X139599897Y-88018958D01*
X139595111Y-88020941D01*
X139595109Y-88020941D01*
X139557268Y-88036616D01*
X139453818Y-88079466D01*
X139449709Y-88082619D01*
X139449707Y-88082620D01*
X139409044Y-88113822D01*
X139328377Y-88175720D01*
X139325228Y-88179824D01*
X139322875Y-88182177D01*
X139273899Y-88205015D01*
X139221701Y-88191029D01*
X139204341Y-88174410D01*
X139185765Y-88150201D01*
X139138355Y-88113822D01*
X139064435Y-88057101D01*
X139064433Y-88057100D01*
X139060324Y-88053947D01*
X138956874Y-88011097D01*
X138919033Y-87995422D01*
X138919031Y-87995422D01*
X138914245Y-87993439D01*
X138757483Y-87972801D01*
X138600721Y-87993439D01*
X138595935Y-87995422D01*
X138595933Y-87995422D01*
X138558092Y-88011097D01*
X138454642Y-88053947D01*
X138450533Y-88057100D01*
X138450531Y-88057101D01*
X138376611Y-88113822D01*
X138329201Y-88150201D01*
X138326053Y-88154304D01*
X138326051Y-88154306D01*
X138307448Y-88178550D01*
X138261872Y-88207585D01*
X138208295Y-88200532D01*
X138182099Y-88178551D01*
X138129282Y-88109718D01*
X138089857Y-88079466D01*
X138007952Y-88016618D01*
X138007950Y-88016617D01*
X138003841Y-88013464D01*
X137900391Y-87970614D01*
X137862550Y-87954939D01*
X137862548Y-87954939D01*
X137857762Y-87952956D01*
X137701000Y-87932318D01*
X137544238Y-87952956D01*
X137543877Y-87950211D01*
X137500019Y-87946395D01*
X137461789Y-87908203D01*
X137455047Y-87864470D01*
X137464012Y-87796373D01*
X137464012Y-87796372D01*
X137464688Y-87791237D01*
X137444050Y-87634475D01*
X137383542Y-87488396D01*
X137287288Y-87362955D01*
X137262492Y-87343928D01*
X137165958Y-87269855D01*
X137165956Y-87269854D01*
X137161847Y-87266701D01*
X137058397Y-87223851D01*
X137020556Y-87208176D01*
X137020554Y-87208176D01*
X137015768Y-87206193D01*
X136859006Y-87185555D01*
X136702244Y-87206193D01*
X136697458Y-87208176D01*
X136697456Y-87208176D01*
X136659615Y-87223851D01*
X136556165Y-87266701D01*
X136552056Y-87269854D01*
X136552054Y-87269855D01*
X136455520Y-87343928D01*
X136430724Y-87362955D01*
X136334470Y-87488396D01*
X136273962Y-87634475D01*
X136253324Y-87791237D01*
X136254000Y-87796372D01*
X136254000Y-87797129D01*
X136235518Y-87847909D01*
X136230861Y-87852989D01*
X135617516Y-88466334D01*
X135617513Y-88466338D01*
X135594950Y-88488901D01*
X135592127Y-88494442D01*
X135592126Y-88494443D01*
X135583286Y-88511793D01*
X135576807Y-88522365D01*
X135565362Y-88538117D01*
X135565360Y-88538121D01*
X135561704Y-88543153D01*
X135556651Y-88558704D01*
X135553764Y-88567590D01*
X135549022Y-88579039D01*
X135537354Y-88601939D01*
X135533333Y-88627329D01*
X135530443Y-88639365D01*
X135522500Y-88663810D01*
X135522500Y-93130169D01*
X135504018Y-93180949D01*
X135499361Y-93186030D01*
X135498823Y-93186568D01*
X135494718Y-93189718D01*
X135480934Y-93207682D01*
X135462378Y-93231865D01*
X135398464Y-93315159D01*
X135337956Y-93461238D01*
X135317318Y-93618000D01*
X135337956Y-93774762D01*
X135339939Y-93779548D01*
X135339939Y-93779550D01*
X135349103Y-93801673D01*
X135398464Y-93920841D01*
X135494718Y-94046282D01*
X135498822Y-94049431D01*
X135616048Y-94139382D01*
X135616050Y-94139383D01*
X135620159Y-94142536D01*
X135723609Y-94185386D01*
X135761450Y-94201061D01*
X135761452Y-94201061D01*
X135766238Y-94203044D01*
X135923000Y-94223682D01*
X136079762Y-94203044D01*
X136084548Y-94201061D01*
X136084550Y-94201061D01*
X136122391Y-94185386D01*
X136225841Y-94142536D01*
X136229950Y-94139383D01*
X136229952Y-94139382D01*
X136347178Y-94049431D01*
X136351282Y-94046282D01*
X136447536Y-93920841D01*
X136496897Y-93801673D01*
X136506061Y-93779550D01*
X136506061Y-93779548D01*
X136508044Y-93774762D01*
X136528682Y-93618000D01*
X136508044Y-93461238D01*
X136447536Y-93315159D01*
X136383623Y-93231865D01*
X136365066Y-93207682D01*
X136351282Y-93189718D01*
X136347177Y-93186568D01*
X136346639Y-93186030D01*
X136323801Y-93137054D01*
X136323500Y-93130169D01*
X136323500Y-88925858D01*
X136341982Y-88875078D01*
X136346639Y-88869997D01*
X136797253Y-88419382D01*
X136846229Y-88396544D01*
X136853114Y-88396243D01*
X136853871Y-88396243D01*
X136859006Y-88396919D01*
X136881946Y-88393899D01*
X137015768Y-88376281D01*
X137016129Y-88379026D01*
X137059987Y-88382842D01*
X137098217Y-88421034D01*
X137104959Y-88464767D01*
X137095994Y-88532864D01*
X137095318Y-88538000D01*
X137115956Y-88694762D01*
X137176464Y-88840841D01*
X137179617Y-88844950D01*
X137179618Y-88844952D01*
X137198836Y-88869997D01*
X137272718Y-88966282D01*
X137276822Y-88969431D01*
X137394048Y-89059382D01*
X137394050Y-89059383D01*
X137398159Y-89062536D01*
X137402946Y-89064519D01*
X137402948Y-89064520D01*
X137543610Y-89122784D01*
X137569239Y-89139909D01*
X137912361Y-89483031D01*
X137935199Y-89532007D01*
X137935500Y-89538892D01*
X137935500Y-92657386D01*
X137917018Y-92708166D01*
X137912361Y-92713247D01*
X135984752Y-94640855D01*
X135935776Y-94663693D01*
X135928891Y-94663994D01*
X135928134Y-94663994D01*
X135923000Y-94663318D01*
X135766238Y-94683956D01*
X135761452Y-94685939D01*
X135761450Y-94685939D01*
X135723609Y-94701614D01*
X135620159Y-94744464D01*
X135616050Y-94747617D01*
X135616048Y-94747618D01*
X135541199Y-94805052D01*
X135494718Y-94840718D01*
X135491569Y-94844822D01*
X135402237Y-94961242D01*
X135398464Y-94966159D01*
X135371384Y-95031536D01*
X135346041Y-95092720D01*
X135337956Y-95112238D01*
X135317318Y-95269000D01*
X128957500Y-95269000D01*
X128957500Y-89668367D01*
X128949557Y-89643922D01*
X128946667Y-89631886D01*
X128942646Y-89606496D01*
X128930978Y-89583596D01*
X128926236Y-89572147D01*
X128921317Y-89557009D01*
X128918296Y-89547710D01*
X128903188Y-89526915D01*
X128896719Y-89516360D01*
X128885050Y-89493458D01*
X128374239Y-88982647D01*
X128351401Y-88933671D01*
X128351100Y-88926786D01*
X128351100Y-87781652D01*
X128339467Y-87723169D01*
X128335146Y-87716702D01*
X128335145Y-87716700D01*
X128299472Y-87663313D01*
X128295152Y-87656848D01*
X128288687Y-87652528D01*
X128235300Y-87616855D01*
X128235298Y-87616854D01*
X128228831Y-87612533D01*
X128207906Y-87608371D01*
X128174160Y-87601658D01*
X128174157Y-87601658D01*
X128170348Y-87600900D01*
X126606852Y-87600900D01*
X126603043Y-87601658D01*
X126603040Y-87601658D01*
X126569294Y-87608371D01*
X126548369Y-87612533D01*
X126541902Y-87616854D01*
X126541900Y-87616855D01*
X126488513Y-87652528D01*
X126482048Y-87656848D01*
X126477728Y-87663313D01*
X126442055Y-87716700D01*
X126442054Y-87716702D01*
X126437733Y-87723169D01*
X126426100Y-87781652D01*
X126426100Y-89345148D01*
X125843000Y-89345148D01*
X125843000Y-86805148D01*
X126426100Y-86805148D01*
X126437733Y-86863631D01*
X126442054Y-86870098D01*
X126442055Y-86870100D01*
X126477728Y-86923487D01*
X126482048Y-86929952D01*
X126488513Y-86934272D01*
X126541900Y-86969945D01*
X126541902Y-86969946D01*
X126548369Y-86974267D01*
X126569294Y-86978429D01*
X126603040Y-86985142D01*
X126603043Y-86985142D01*
X126606852Y-86985900D01*
X128170348Y-86985900D01*
X128174157Y-86985142D01*
X128174160Y-86985142D01*
X128207906Y-86978429D01*
X128228831Y-86974267D01*
X128235298Y-86969946D01*
X128235300Y-86969945D01*
X128288687Y-86934272D01*
X128295152Y-86929952D01*
X128299472Y-86923487D01*
X128335145Y-86870100D01*
X128335146Y-86870098D01*
X128339467Y-86863631D01*
X128351100Y-86805148D01*
X128351100Y-85589304D01*
X128369582Y-85538524D01*
X128374239Y-85533443D01*
X128823239Y-85084443D01*
X128836245Y-85073938D01*
X128846952Y-85067025D01*
X128867519Y-85040936D01*
X128873698Y-85033984D01*
X128876228Y-85031454D01*
X128887111Y-85016224D01*
X128889345Y-85013249D01*
X128915149Y-84980518D01*
X128915150Y-84980516D01*
X128919192Y-84975389D01*
X128921348Y-84969250D01*
X128921901Y-84968371D01*
X128922728Y-84966780D01*
X128923127Y-84965826D01*
X128926911Y-84960531D01*
X128928780Y-84954280D01*
X128928782Y-84954277D01*
X128940730Y-84914324D01*
X128941881Y-84910783D01*
X128956207Y-84869987D01*
X128957855Y-84865294D01*
X128958300Y-84860156D01*
X128958300Y-84858492D01*
X128958644Y-84854422D01*
X128960344Y-84848737D01*
X128959769Y-84834084D01*
X128958361Y-84798265D01*
X128958300Y-84795164D01*
X128958300Y-82442104D01*
X128976782Y-82391324D01*
X128981439Y-82386243D01*
X129085443Y-82282239D01*
X129134419Y-82259401D01*
X129141304Y-82259100D01*
X130683495Y-82259100D01*
X130734275Y-82277582D01*
X130746170Y-82290008D01*
X130749298Y-82294084D01*
X130821118Y-82387682D01*
X130825222Y-82390831D01*
X130942448Y-82480782D01*
X130942450Y-82480783D01*
X130946559Y-82483936D01*
X131050009Y-82526786D01*
X131087850Y-82542461D01*
X131087852Y-82542461D01*
X131092638Y-82544444D01*
X131249400Y-82565082D01*
X131406162Y-82544444D01*
X131410948Y-82542461D01*
X131410950Y-82542461D01*
X131448791Y-82526786D01*
X131552241Y-82483936D01*
X131556350Y-82480783D01*
X131556352Y-82480782D01*
X131673578Y-82390831D01*
X131677682Y-82387682D01*
X131749502Y-82294084D01*
X131770782Y-82266352D01*
X131770783Y-82266350D01*
X131773936Y-82262241D01*
X131834444Y-82116162D01*
X131855082Y-81959400D01*
X131834444Y-81802638D01*
X131773936Y-81656559D01*
X131755567Y-81632619D01*
X131680831Y-81535222D01*
X131677682Y-81531118D01*
X131615091Y-81483090D01*
X131556352Y-81438018D01*
X131556350Y-81438017D01*
X131552241Y-81434864D01*
X131433998Y-81385886D01*
X131410950Y-81376339D01*
X131410948Y-81376339D01*
X131406162Y-81374356D01*
X131249400Y-81353718D01*
X131092638Y-81374356D01*
X131087852Y-81376339D01*
X131087850Y-81376339D01*
X131064802Y-81385886D01*
X130946559Y-81434864D01*
X130942450Y-81438017D01*
X130942448Y-81438018D01*
X130883709Y-81483090D01*
X130821118Y-81531118D01*
X130818135Y-81535005D01*
X130769254Y-81557799D01*
X130762369Y-81558100D01*
X129009219Y-81558100D01*
X128992592Y-81556330D01*
X128986523Y-81555023D01*
X128986520Y-81555023D01*
X128980139Y-81553649D01*
X128947163Y-81557552D01*
X128937877Y-81558100D01*
X128934285Y-81558100D01*
X128931066Y-81558636D01*
X128931063Y-81558636D01*
X128915808Y-81561175D01*
X128912124Y-81561699D01*
X128901660Y-81562938D01*
X128864261Y-81567364D01*
X128858395Y-81570180D01*
X128857372Y-81570413D01*
X128855678Y-81570949D01*
X128854714Y-81571344D01*
X128848297Y-81572412D01*
X128805833Y-81595325D01*
X128802541Y-81597001D01*
X128763554Y-81615722D01*
X128763552Y-81615723D01*
X128759073Y-81617874D01*
X128755126Y-81621192D01*
X128753950Y-81622368D01*
X128750825Y-81625006D01*
X128745606Y-81627822D01*
X128741172Y-81632619D01*
X128711322Y-81664910D01*
X128709172Y-81667146D01*
X128392361Y-81983957D01*
X128379355Y-81994462D01*
X128368648Y-82001375D01*
X128348487Y-82026948D01*
X128348081Y-82027464D01*
X128341902Y-82034416D01*
X128339372Y-82036946D01*
X128337477Y-82039598D01*
X128328491Y-82052173D01*
X128326258Y-82055147D01*
X128296408Y-82093011D01*
X128294252Y-82099150D01*
X128293696Y-82100034D01*
X128292874Y-82101617D01*
X128292474Y-82102573D01*
X128288689Y-82107869D01*
X128286819Y-82114122D01*
X128286818Y-82114124D01*
X128274869Y-82154081D01*
X128273720Y-82157615D01*
X128257745Y-82203106D01*
X128257300Y-82208244D01*
X128257300Y-82209912D01*
X128256955Y-82213983D01*
X128255256Y-82219664D01*
X128255512Y-82226184D01*
X128255512Y-82226185D01*
X128257239Y-82270134D01*
X128257300Y-82273236D01*
X128257300Y-84626296D01*
X128238818Y-84677076D01*
X128234161Y-84682157D01*
X127878557Y-85037761D01*
X127829581Y-85060599D01*
X127822696Y-85060900D01*
X126606852Y-85060900D01*
X126603043Y-85061658D01*
X126603040Y-85061658D01*
X126569294Y-85068371D01*
X126548369Y-85072533D01*
X126541902Y-85076854D01*
X126541900Y-85076855D01*
X126488513Y-85112528D01*
X126482048Y-85116848D01*
X126477728Y-85123313D01*
X126442055Y-85176700D01*
X126442054Y-85176702D01*
X126437733Y-85183169D01*
X126436215Y-85190801D01*
X126429683Y-85223641D01*
X126426100Y-85241652D01*
X126426100Y-86805148D01*
X125843000Y-86805148D01*
X125843000Y-78505000D01*
X128662518Y-78505000D01*
X128683156Y-78661762D01*
X128743664Y-78807841D01*
X128839918Y-78933282D01*
X128844022Y-78936431D01*
X128961248Y-79026382D01*
X128961250Y-79026383D01*
X128965359Y-79029536D01*
X129068809Y-79072386D01*
X129106650Y-79088061D01*
X129106652Y-79088061D01*
X129111438Y-79090044D01*
X129268200Y-79110682D01*
X129273335Y-79110006D01*
X129273336Y-79110006D01*
X129389264Y-79094744D01*
X129442022Y-79106440D01*
X129455436Y-79117207D01*
X130830949Y-80492720D01*
X130834363Y-80496675D01*
X130836450Y-80500944D01*
X130841796Y-80505903D01*
X130873015Y-80534863D01*
X130875149Y-80536920D01*
X130889152Y-80550923D01*
X130892159Y-80552986D01*
X130894277Y-80554746D01*
X130897504Y-80557580D01*
X130918521Y-80577076D01*
X130925296Y-80579779D01*
X130931278Y-80582166D01*
X130946692Y-80590397D01*
X130958021Y-80598168D01*
X130965116Y-80599852D01*
X130965119Y-80599853D01*
X130985365Y-80604657D01*
X130996397Y-80608145D01*
X131022497Y-80618558D01*
X131028790Y-80619175D01*
X131037302Y-80619175D01*
X131055542Y-80621310D01*
X131066941Y-80624015D01*
X131074172Y-80623031D01*
X131097200Y-80619897D01*
X131107853Y-80619175D01*
X133170854Y-80619175D01*
X133221634Y-80637657D01*
X133248654Y-80684457D01*
X133239270Y-80737675D01*
X133218946Y-80760850D01*
X133208718Y-80768698D01*
X133112464Y-80894139D01*
X133051956Y-81040218D01*
X133031318Y-81196980D01*
X133031994Y-81202115D01*
X133035149Y-81226080D01*
X133051956Y-81353742D01*
X133053939Y-81358528D01*
X133053939Y-81358530D01*
X133066970Y-81389990D01*
X133112464Y-81499821D01*
X133115617Y-81503930D01*
X133115618Y-81503932D01*
X133164291Y-81567364D01*
X133208718Y-81625262D01*
X133212822Y-81628411D01*
X133212823Y-81628412D01*
X133255592Y-81661230D01*
X133284627Y-81706807D01*
X133286500Y-81723905D01*
X133286500Y-81883096D01*
X133268018Y-81933876D01*
X133263361Y-81938957D01*
X131135561Y-84066757D01*
X131122555Y-84077262D01*
X131111848Y-84084175D01*
X131091687Y-84109748D01*
X131091281Y-84110264D01*
X131085102Y-84117216D01*
X131082572Y-84119746D01*
X131080677Y-84122398D01*
X131071691Y-84134973D01*
X131069458Y-84137947D01*
X131039608Y-84175811D01*
X131037452Y-84181950D01*
X131036896Y-84182834D01*
X131036074Y-84184417D01*
X131035674Y-84185373D01*
X131031889Y-84190669D01*
X131030019Y-84196922D01*
X131030018Y-84196924D01*
X131018069Y-84236881D01*
X131016920Y-84240415D01*
X131000945Y-84285906D01*
X131000500Y-84291044D01*
X131000500Y-84292712D01*
X131000155Y-84296783D01*
X130998456Y-84302464D01*
X130998712Y-84308984D01*
X130998712Y-84308985D01*
X131000439Y-84352934D01*
X131000500Y-84356036D01*
X131000500Y-84423096D01*
X130982018Y-84473876D01*
X130977361Y-84478957D01*
X130418557Y-85037761D01*
X130369581Y-85060599D01*
X130362696Y-85060900D01*
X129146852Y-85060900D01*
X129143043Y-85061658D01*
X129143040Y-85061658D01*
X129109294Y-85068371D01*
X129088369Y-85072533D01*
X129081902Y-85076854D01*
X129081900Y-85076855D01*
X129028513Y-85112528D01*
X129022048Y-85116848D01*
X129017728Y-85123313D01*
X128982055Y-85176700D01*
X128982054Y-85176702D01*
X128977733Y-85183169D01*
X128976215Y-85190801D01*
X128969683Y-85223641D01*
X128966100Y-85241652D01*
X128966100Y-86805148D01*
X128977733Y-86863631D01*
X128982054Y-86870098D01*
X128982055Y-86870100D01*
X129017728Y-86923487D01*
X129022048Y-86929952D01*
X129028513Y-86934272D01*
X129081900Y-86969945D01*
X129081902Y-86969946D01*
X129088369Y-86974267D01*
X129109294Y-86978429D01*
X129143040Y-86985142D01*
X129143043Y-86985142D01*
X129146852Y-86985900D01*
X130710348Y-86985900D01*
X130714157Y-86985142D01*
X130714160Y-86985142D01*
X130747906Y-86978429D01*
X130768831Y-86974267D01*
X130775298Y-86969946D01*
X130775300Y-86969945D01*
X130828687Y-86934272D01*
X130835152Y-86929952D01*
X130839472Y-86923487D01*
X130875145Y-86870100D01*
X130875146Y-86870098D01*
X130879467Y-86863631D01*
X130891100Y-86805148D01*
X130891100Y-85589304D01*
X130909582Y-85538524D01*
X130914239Y-85533443D01*
X131566439Y-84881243D01*
X131579445Y-84870738D01*
X131590152Y-84863825D01*
X131610719Y-84837736D01*
X131616898Y-84830784D01*
X131619428Y-84828254D01*
X131630311Y-84813024D01*
X131632545Y-84810049D01*
X131658349Y-84777318D01*
X131658350Y-84777316D01*
X131662392Y-84772189D01*
X131664548Y-84766050D01*
X131665104Y-84765166D01*
X131665926Y-84763583D01*
X131666326Y-84762627D01*
X131670111Y-84757331D01*
X131683925Y-84711137D01*
X131685074Y-84707603D01*
X131699408Y-84666787D01*
X131699410Y-84666779D01*
X131701055Y-84662094D01*
X131701500Y-84656956D01*
X131701500Y-84655284D01*
X131701844Y-84651219D01*
X131703543Y-84645537D01*
X131701561Y-84595080D01*
X131701500Y-84591979D01*
X131701500Y-84524904D01*
X131719982Y-84474124D01*
X131724639Y-84469043D01*
X133852439Y-82341243D01*
X133865445Y-82330738D01*
X133876152Y-82323825D01*
X133896719Y-82297736D01*
X133902898Y-82290784D01*
X133905428Y-82288254D01*
X133916311Y-82273024D01*
X133918545Y-82270049D01*
X133944349Y-82237318D01*
X133944350Y-82237316D01*
X133948392Y-82232189D01*
X133950548Y-82226050D01*
X133951104Y-82225166D01*
X133951926Y-82223583D01*
X133952326Y-82222627D01*
X133956111Y-82217331D01*
X133969925Y-82171137D01*
X133971074Y-82167603D01*
X133985408Y-82126787D01*
X133985410Y-82126779D01*
X133987055Y-82122094D01*
X133987500Y-82116956D01*
X133987500Y-82115284D01*
X133987844Y-82111219D01*
X133989543Y-82105537D01*
X133988850Y-82087882D01*
X133987561Y-82055080D01*
X133987500Y-82051979D01*
X133987500Y-81723905D01*
X134005982Y-81673125D01*
X134018408Y-81661230D01*
X134061177Y-81628412D01*
X134061178Y-81628411D01*
X134065282Y-81625262D01*
X134109709Y-81567364D01*
X134158382Y-81503932D01*
X134158383Y-81503930D01*
X134161536Y-81499821D01*
X134207030Y-81389990D01*
X134220061Y-81358530D01*
X134220061Y-81358528D01*
X134222044Y-81353742D01*
X134238851Y-81226080D01*
X134242006Y-81202115D01*
X134242682Y-81196980D01*
X134222044Y-81040218D01*
X134161536Y-80894139D01*
X134065282Y-80768698D01*
X134055054Y-80760850D01*
X134026019Y-80715275D01*
X134033072Y-80661698D01*
X134072913Y-80625189D01*
X134103146Y-80619175D01*
X137567412Y-80619175D01*
X137615504Y-80635500D01*
X137727401Y-80721362D01*
X137727403Y-80721363D01*
X137731512Y-80724516D01*
X137830577Y-80765550D01*
X137872803Y-80783041D01*
X137872805Y-80783041D01*
X137877591Y-80785024D01*
X138034353Y-80805662D01*
X138191115Y-80785024D01*
X138195901Y-80783041D01*
X138195903Y-80783041D01*
X138238129Y-80765550D01*
X138337194Y-80724516D01*
X138341303Y-80721363D01*
X138341305Y-80721362D01*
X138458531Y-80631411D01*
X138462635Y-80628262D01*
X138491690Y-80590397D01*
X138555735Y-80506932D01*
X138555736Y-80506930D01*
X138558889Y-80502821D01*
X138619397Y-80356742D01*
X138640035Y-80199980D01*
X138619397Y-80043218D01*
X138594878Y-79984024D01*
X138592521Y-79930038D01*
X138625418Y-79887166D01*
X138637633Y-79880808D01*
X138767887Y-79826855D01*
X138767889Y-79826854D01*
X138772676Y-79824871D01*
X138776785Y-79821718D01*
X138776787Y-79821717D01*
X138894013Y-79731766D01*
X138898117Y-79728617D01*
X138982721Y-79618359D01*
X138991217Y-79607287D01*
X138991218Y-79607285D01*
X138994371Y-79603176D01*
X139049470Y-79470154D01*
X139085977Y-79430315D01*
X139139554Y-79423262D01*
X139178316Y-79444528D01*
X140061312Y-80327524D01*
X140084150Y-80376500D01*
X140084451Y-80383385D01*
X140084451Y-80396417D01*
X140065969Y-80447197D01*
X140053543Y-80459092D01*
X139956669Y-80533426D01*
X139953520Y-80537530D01*
X139881483Y-80631411D01*
X139860415Y-80658867D01*
X139832401Y-80726499D01*
X139813222Y-80772802D01*
X139799907Y-80804946D01*
X139779269Y-80961708D01*
X139799907Y-81118470D01*
X139860415Y-81264549D01*
X139956669Y-81389990D01*
X139960773Y-81393139D01*
X140077999Y-81483090D01*
X140078001Y-81483091D01*
X140082110Y-81486244D01*
X140164925Y-81520547D01*
X140223401Y-81544769D01*
X140223403Y-81544769D01*
X140228189Y-81546752D01*
X140337743Y-81561175D01*
X140378928Y-81566597D01*
X140384951Y-81567390D01*
X140390975Y-81566597D01*
X140432159Y-81561175D01*
X140541713Y-81546752D01*
X140546499Y-81544769D01*
X140546501Y-81544769D01*
X140604977Y-81520547D01*
X140687792Y-81486244D01*
X140691901Y-81483091D01*
X140691903Y-81483090D01*
X140809129Y-81393139D01*
X140813233Y-81389990D01*
X140909487Y-81264549D01*
X140969995Y-81118470D01*
X140990633Y-80961708D01*
X140969995Y-80804946D01*
X140956681Y-80772802D01*
X140937501Y-80726499D01*
X140909487Y-80658867D01*
X140888420Y-80631411D01*
X140816382Y-80537530D01*
X140813233Y-80533426D01*
X140716359Y-80459092D01*
X140687324Y-80413516D01*
X140685451Y-80396417D01*
X140685451Y-80280546D01*
X140685833Y-80275345D01*
X140687376Y-80270850D01*
X140685507Y-80221058D01*
X140685451Y-80218095D01*
X140685451Y-80198244D01*
X140684785Y-80194668D01*
X140684531Y-80191915D01*
X140684252Y-80187616D01*
X140683451Y-80166276D01*
X140683451Y-80166275D01*
X140683177Y-80158984D01*
X140680298Y-80152282D01*
X140680297Y-80152279D01*
X140677754Y-80146360D01*
X140672675Y-80129642D01*
X140671496Y-80123311D01*
X140671496Y-80123310D01*
X140670160Y-80116139D01*
X140655408Y-80092207D01*
X140650085Y-80081959D01*
X140638987Y-80056129D01*
X140634973Y-80051243D01*
X140628958Y-80045228D01*
X140617569Y-80030821D01*
X140611419Y-80020844D01*
X140605613Y-80016429D01*
X140605611Y-80016427D01*
X140587106Y-80002356D01*
X140579063Y-79995333D01*
X138863885Y-78280155D01*
X138860471Y-78276200D01*
X138858384Y-78271931D01*
X138821819Y-78238012D01*
X138819685Y-78235955D01*
X138805682Y-78221952D01*
X138802675Y-78219889D01*
X138800557Y-78218129D01*
X138797330Y-78215295D01*
X138776313Y-78195799D01*
X138769540Y-78193097D01*
X138769537Y-78193095D01*
X138763554Y-78190708D01*
X138748142Y-78182480D01*
X138736813Y-78174708D01*
X138729718Y-78173024D01*
X138729715Y-78173023D01*
X138709473Y-78168220D01*
X138698446Y-78164733D01*
X138672337Y-78154317D01*
X138666044Y-78153700D01*
X138657532Y-78153700D01*
X138639293Y-78151565D01*
X138627893Y-78148860D01*
X138620662Y-78149844D01*
X138597634Y-78152978D01*
X138586981Y-78153700D01*
X137906395Y-78153700D01*
X137901190Y-78153318D01*
X137896693Y-78151774D01*
X137846886Y-78153644D01*
X137843922Y-78153700D01*
X137824087Y-78153700D01*
X137820505Y-78154367D01*
X137817768Y-78154620D01*
X137813470Y-78154899D01*
X137805569Y-78155195D01*
X137792118Y-78155700D01*
X137792117Y-78155700D01*
X137784827Y-78155974D01*
X137778125Y-78158853D01*
X137778122Y-78158854D01*
X137772203Y-78161397D01*
X137755485Y-78166476D01*
X137749154Y-78167655D01*
X137749153Y-78167655D01*
X137741982Y-78168991D01*
X137735774Y-78172818D01*
X137735773Y-78172818D01*
X137718056Y-78183739D01*
X137707799Y-78189068D01*
X137681973Y-78200164D01*
X137677086Y-78204177D01*
X137671068Y-78210195D01*
X137656660Y-78221584D01*
X137652900Y-78223902D01*
X137646687Y-78227732D01*
X137642272Y-78233539D01*
X137642270Y-78233540D01*
X137628202Y-78252041D01*
X137621179Y-78260084D01*
X136685268Y-79195996D01*
X136636292Y-79218834D01*
X136629407Y-79219135D01*
X135723229Y-79219135D01*
X135672449Y-79200653D01*
X135667368Y-79195996D01*
X134147607Y-77676236D01*
X134124769Y-77627260D01*
X134125144Y-77610064D01*
X134140406Y-77494136D01*
X134140406Y-77494135D01*
X134141082Y-77489000D01*
X134120444Y-77332238D01*
X134059936Y-77186159D01*
X133963682Y-77060718D01*
X133938886Y-77041691D01*
X133842352Y-76967618D01*
X133842350Y-76967617D01*
X133838241Y-76964464D01*
X133734791Y-76921614D01*
X133696950Y-76905939D01*
X133696948Y-76905939D01*
X133692162Y-76903956D01*
X133535400Y-76883318D01*
X133378638Y-76903956D01*
X133373852Y-76905939D01*
X133373850Y-76905939D01*
X133336009Y-76921614D01*
X133232559Y-76964464D01*
X133228450Y-76967617D01*
X133228448Y-76967618D01*
X133131914Y-77041691D01*
X133107118Y-77060718D01*
X133010864Y-77186159D01*
X132950356Y-77332238D01*
X132929718Y-77489000D01*
X132950356Y-77645762D01*
X133010864Y-77791841D01*
X133107118Y-77917282D01*
X133111222Y-77920431D01*
X133228448Y-78010382D01*
X133228450Y-78010383D01*
X133232559Y-78013536D01*
X133336009Y-78056386D01*
X133373850Y-78072061D01*
X133373852Y-78072061D01*
X133378638Y-78074044D01*
X133535400Y-78094682D01*
X133540535Y-78094006D01*
X133540536Y-78094006D01*
X133656464Y-78078744D01*
X133709222Y-78090440D01*
X133722636Y-78101207D01*
X135105223Y-79483794D01*
X135128061Y-79532770D01*
X135114075Y-79584968D01*
X135069809Y-79615963D01*
X135049362Y-79618655D01*
X132719148Y-79618655D01*
X132668368Y-79600173D01*
X132663287Y-79595516D01*
X131760007Y-78692236D01*
X131737169Y-78643260D01*
X131737544Y-78626064D01*
X131752806Y-78510136D01*
X131752806Y-78510135D01*
X131753482Y-78505000D01*
X131732844Y-78348238D01*
X131672336Y-78202159D01*
X131663550Y-78190708D01*
X131589866Y-78094682D01*
X131576082Y-78076718D01*
X131496326Y-78015519D01*
X131454752Y-77983618D01*
X131454750Y-77983617D01*
X131450641Y-77980464D01*
X131347191Y-77937614D01*
X131309350Y-77921939D01*
X131309348Y-77921939D01*
X131304562Y-77919956D01*
X131147800Y-77899318D01*
X130991038Y-77919956D01*
X130986252Y-77921939D01*
X130986250Y-77921939D01*
X130948409Y-77937614D01*
X130844959Y-77980464D01*
X130840850Y-77983617D01*
X130840848Y-77983618D01*
X130799274Y-78015519D01*
X130719518Y-78076718D01*
X130705734Y-78094682D01*
X130632051Y-78190708D01*
X130623264Y-78202159D01*
X130562756Y-78348238D01*
X130542118Y-78505000D01*
X130562756Y-78661762D01*
X130623264Y-78807841D01*
X130719518Y-78933282D01*
X130723622Y-78936431D01*
X130840848Y-79026382D01*
X130840850Y-79026383D01*
X130844959Y-79029536D01*
X130948409Y-79072386D01*
X130986250Y-79088061D01*
X130986252Y-79088061D01*
X130991038Y-79090044D01*
X131147800Y-79110682D01*
X131152935Y-79110006D01*
X131152936Y-79110006D01*
X131268864Y-79094744D01*
X131321622Y-79106440D01*
X131335036Y-79117207D01*
X132101143Y-79883314D01*
X132123981Y-79932290D01*
X132109995Y-79984488D01*
X132065729Y-80015483D01*
X132045282Y-80018175D01*
X131239069Y-80018175D01*
X131188289Y-79999693D01*
X131183208Y-79995036D01*
X129880407Y-78692236D01*
X129857569Y-78643260D01*
X129857944Y-78626064D01*
X129873206Y-78510136D01*
X129873206Y-78510135D01*
X129873882Y-78505000D01*
X129853244Y-78348238D01*
X129792736Y-78202159D01*
X129783950Y-78190708D01*
X129710266Y-78094682D01*
X129696482Y-78076718D01*
X129616726Y-78015519D01*
X129575152Y-77983618D01*
X129575150Y-77983617D01*
X129571041Y-77980464D01*
X129467591Y-77937614D01*
X129429750Y-77921939D01*
X129429748Y-77921939D01*
X129424962Y-77919956D01*
X129268200Y-77899318D01*
X129111438Y-77919956D01*
X129106652Y-77921939D01*
X129106650Y-77921939D01*
X129068809Y-77937614D01*
X128965359Y-77980464D01*
X128961250Y-77983617D01*
X128961248Y-77983618D01*
X128919674Y-78015519D01*
X128839918Y-78076718D01*
X128826134Y-78094682D01*
X128752451Y-78190708D01*
X128743664Y-78202159D01*
X128683156Y-78348238D01*
X128662518Y-78505000D01*
X125843000Y-78505000D01*
X125843000Y-75400000D01*
X125861482Y-75349220D01*
X125908282Y-75322200D01*
X125922000Y-75321000D01*
X126226272Y-75321000D01*
X126277052Y-75339482D01*
G37*
%TD.AperFunction*%
%TD*%
M02*
