%TF.GenerationSoftware,KiCad,Pcbnew,6.0.4-6f826c9f35~116~ubuntu20.04.1*%
%TF.CreationDate,2022-05-11T12:10:42+00:00*%
%TF.ProjectId,TFSIK01A,54465349-4b30-4314-912e-6b696361645f,REV*%
%TF.SameCoordinates,Original*%
%TF.FileFunction,Soldermask,Top*%
%TF.FilePolarity,Negative*%
%FSLAX46Y46*%
G04 Gerber Fmt 4.6, Leading zero omitted, Abs format (unit mm)*
G04 Created by KiCad (PCBNEW 6.0.4-6f826c9f35~116~ubuntu20.04.1) date 2022-05-11 12:10:42*
%MOMM*%
%LPD*%
G01*
G04 APERTURE LIST*
G04 Aperture macros list*
%AMRoundRect*
0 Rectangle with rounded corners*
0 $1 Rounding radius*
0 $2 $3 $4 $5 $6 $7 $8 $9 X,Y pos of 4 corners*
0 Add a 4 corners polygon primitive as box body*
4,1,4,$2,$3,$4,$5,$6,$7,$8,$9,$2,$3,0*
0 Add four circle primitives for the rounded corners*
1,1,$1+$1,$2,$3*
1,1,$1+$1,$4,$5*
1,1,$1+$1,$6,$7*
1,1,$1+$1,$8,$9*
0 Add four rect primitives between the rounded corners*
20,1,$1+$1,$2,$3,$4,$5,0*
20,1,$1+$1,$4,$5,$6,$7,0*
20,1,$1+$1,$6,$7,$8,$9,0*
20,1,$1+$1,$8,$9,$2,$3,0*%
G04 Aperture macros list end*
%ADD10C,3.000000*%
%ADD11RoundRect,0.200000X-0.762000X-0.762000X0.762000X-0.762000X0.762000X0.762000X-0.762000X0.762000X0*%
%ADD12RoundRect,0.437500X-0.287500X-0.237500X0.287500X-0.237500X0.287500X0.237500X-0.287500X0.237500X0*%
%ADD13RoundRect,0.400000X-0.200000X-0.275000X0.200000X-0.275000X0.200000X0.275000X-0.200000X0.275000X0*%
%ADD14C,0.700000*%
G04 APERTURE END LIST*
D10*
%TO.C,M4*%
X42500000Y30000000D03*
%TD*%
D11*
%TO.C,J2*%
X21590000Y26289000D03*
X21590000Y23749000D03*
X21590000Y21209000D03*
X21590000Y18669000D03*
%TD*%
D10*
%TO.C,M3*%
X22500000Y30000000D03*
%TD*%
%TO.C,M1*%
X32500000Y30000000D03*
%TD*%
%TO.C,M6*%
X62500000Y0D03*
%TD*%
%TO.C,M7*%
X52500000Y0D03*
%TD*%
D12*
%TO.C,D1*%
X82589400Y10414000D03*
X84339400Y10414000D03*
%TD*%
D10*
%TO.C,M5*%
X42500000Y0D03*
%TD*%
%TO.C,M8*%
X22500000Y0D03*
%TD*%
%TO.C,M10*%
X62500000Y30000000D03*
%TD*%
D13*
%TO.C,R6*%
X86814400Y10454000D03*
X88464400Y10454000D03*
%TD*%
D10*
%TO.C,M2*%
X52500000Y30000000D03*
%TD*%
%TO.C,M9*%
X32500000Y0D03*
%TD*%
D14*
%TO.C,U3*%
X48618000Y11541000D03*
X48018000Y11541000D03*
X47418000Y11541000D03*
%TD*%
G36*
X69941383Y3916998D02*
G01*
X69987876Y3863342D01*
X69999260Y3810264D01*
X69977732Y125264D01*
X69957332Y57261D01*
X69903406Y11083D01*
X69851734Y0D01*
X40893000Y0D01*
X40824879Y20002D01*
X40778386Y73658D01*
X40767000Y126000D01*
X40767000Y3811000D01*
X40787002Y3879121D01*
X40840658Y3925614D01*
X40893000Y3937000D01*
X69873262Y3937000D01*
X69941383Y3916998D01*
G37*
G36*
X69918383Y29951998D02*
G01*
X69964876Y29898342D01*
X69976260Y29845264D01*
X69954732Y26160264D01*
X69934332Y26092261D01*
X69880406Y26046083D01*
X69828734Y26035000D01*
X40870000Y26035000D01*
X40801879Y26055002D01*
X40755386Y26108658D01*
X40744000Y26161000D01*
X40744000Y29846000D01*
X40764002Y29914121D01*
X40817658Y29960614D01*
X40870000Y29972000D01*
X69850262Y29972000D01*
X69918383Y29951998D01*
G37*
M02*
