%TF.GenerationSoftware,KiCad,Pcbnew,6.0.4-6f826c9f35~116~ubuntu20.04.1*%
%TF.CreationDate,2022-05-05T10:16:54+00:00*%
%TF.ProjectId,TFSIK01A,54465349-4b30-4314-912e-6b696361645f,REV*%
%TF.SameCoordinates,Original*%
%TF.FileFunction,Copper,L1,Top*%
%TF.FilePolarity,Positive*%
%FSLAX46Y46*%
G04 Gerber Fmt 4.6, Leading zero omitted, Abs format (unit mm)*
G04 Created by KiCad (PCBNEW 6.0.4-6f826c9f35~116~ubuntu20.04.1) date 2022-05-05 10:16:54*
%MOMM*%
%LPD*%
G01*
G04 APERTURE LIST*
%TA.AperFunction,ComponentPad*%
%ADD10R,1.524000X1.524000*%
%TD*%
%TA.AperFunction,SMDPad,CuDef*%
%ADD11R,4.100000X3.600000*%
%TD*%
%TA.AperFunction,ComponentPad*%
%ADD12C,0.500000*%
%TD*%
%TA.AperFunction,ComponentPad*%
%ADD13C,0.300000*%
%TD*%
%TA.AperFunction,ViaPad*%
%ADD14C,0.800000*%
%TD*%
%TA.AperFunction,Conductor*%
%ADD15C,0.300000*%
%TD*%
%TA.AperFunction,Conductor*%
%ADD16C,0.200000*%
%TD*%
%TA.AperFunction,Conductor*%
%ADD17C,0.400000*%
%TD*%
%TA.AperFunction,Conductor*%
%ADD18C,0.600000*%
%TD*%
G04 APERTURE END LIST*
D10*
%TO.P,J2,1*%
%TO.N,+5V*%
X21590000Y26289000D03*
%TO.P,J2,2*%
%TO.N,/#RST_1*%
X21590000Y23749000D03*
%TO.P,J2,3*%
%TO.N,/C2D*%
X21590000Y21209000D03*
%TO.P,J2,4*%
%TO.N,GND*%
X21590000Y18669000D03*
%TD*%
D11*
%TO.P,U2,37,GND_RF*%
%TO.N,GND*%
X34798000Y20066000D03*
D12*
X32998000Y18516000D03*
X34198000Y20066000D03*
X36598000Y18516000D03*
X34198000Y21616000D03*
X34198000Y18516000D03*
X32998000Y21616000D03*
X36598000Y21616000D03*
X36598000Y20066000D03*
X35398000Y21616000D03*
X35398000Y20066000D03*
X35398000Y18516000D03*
X32998000Y20066000D03*
%TD*%
D13*
%TO.P,U3,9*%
%TO.N,GND*%
X48618000Y11541000D03*
X48018000Y11541000D03*
X47418000Y11541000D03*
%TD*%
D14*
%TO.N,GND*%
X51816000Y10414000D03*
X59563000Y4953000D03*
X32250000Y27650000D03*
X46990000Y7874000D03*
X45085000Y5080000D03*
X53150000Y22300000D03*
X48387000Y26797000D03*
X38608000Y16383000D03*
X65786000Y17653000D03*
X27940000Y12827000D03*
X62611000Y17653000D03*
X64198500Y17653000D03*
X55850000Y19250000D03*
X46355000Y21463000D03*
X42545000Y17399000D03*
X21717000Y27940000D03*
X21463000Y15367000D03*
X60325000Y1270000D03*
X29718000Y1143000D03*
X56515000Y25527000D03*
X33401000Y5334000D03*
X55245000Y28575000D03*
X41148000Y27686000D03*
X55880000Y5715000D03*
X59436000Y10795000D03*
X58039000Y28575000D03*
X45339000Y26797000D03*
X37795200Y10871200D03*
X30226000Y28829000D03*
X59436000Y19812000D03*
X64008000Y13716000D03*
X63112200Y27150000D03*
X49403000Y16764000D03*
X64574400Y27150000D03*
X64998000Y2700000D03*
X48133000Y7747000D03*
X48006000Y28829000D03*
X24130000Y20066000D03*
X59436000Y20955000D03*
X62357000Y12192000D03*
X49784000Y28829000D03*
X63614000Y2700000D03*
X41021000Y4572000D03*
X47752000Y1270000D03*
X52366332Y7747000D03*
X51562000Y14986000D03*
X53086000Y2667000D03*
X21590000Y6815668D03*
X36068000Y5334000D03*
X48006000Y4826000D03*
X49276000Y1270000D03*
X21590000Y7874001D03*
X56769000Y17145000D03*
X52750000Y20400000D03*
X64008000Y12192000D03*
X37211000Y1270000D03*
X56388000Y24384000D03*
X56388000Y23114000D03*
X68961000Y12192000D03*
X68961000Y17653000D03*
X59436000Y25019000D03*
X46101000Y11176000D03*
X51435000Y22733000D03*
X59436000Y26035000D03*
X51435000Y21590000D03*
X53300000Y25200000D03*
X59817000Y13589000D03*
X33401000Y7493000D03*
X21590000Y11049000D03*
X56900000Y20850000D03*
X54864000Y4826000D03*
X26162000Y17399000D03*
X54102000Y1778000D03*
X61214000Y2032000D03*
X59563000Y28575000D03*
X67766000Y2700000D03*
X66382000Y2700000D03*
X31242000Y27178000D03*
X66036600Y27150000D03*
X68961000Y27150000D03*
X44069000Y5842000D03*
X43053000Y6604000D03*
X57785000Y3810000D03*
X36068000Y6680200D03*
X54850000Y23850000D03*
X53424665Y7747000D03*
X35941000Y1270000D03*
X43053000Y8890000D03*
X25146000Y2286000D03*
X57128264Y11650000D03*
X26416000Y18669000D03*
X54991000Y20193000D03*
X43307000Y15748000D03*
X38989000Y12192000D03*
X44069000Y19812000D03*
X59436000Y9398000D03*
X40386000Y11938000D03*
X24130000Y14605000D03*
X51307999Y7747000D03*
X46482000Y28829000D03*
X37465000Y7112000D03*
X40894000Y2540000D03*
X43180000Y26416000D03*
X21463000Y14097000D03*
X26289000Y2286000D03*
X29083000Y28829000D03*
X55499000Y1270000D03*
X56550000Y21900000D03*
X56642000Y6477000D03*
X30607000Y19304000D03*
X53340000Y16891000D03*
X26543000Y28829000D03*
X34671000Y1270000D03*
X26670000Y12446000D03*
X51308000Y4826000D03*
X33401000Y6477000D03*
X57150000Y1270000D03*
X38354000Y1270000D03*
X24130000Y2286000D03*
X33020000Y26797000D03*
X36703000Y12065000D03*
X46101000Y9779000D03*
X32131000Y5334000D03*
X48006000Y3556000D03*
X25019000Y28829000D03*
X37465000Y5334000D03*
X42418000Y2540000D03*
X25273000Y20066000D03*
X53900000Y20350000D03*
X56515000Y4699000D03*
X28448000Y1143000D03*
X62230000Y2700000D03*
X46609000Y3048000D03*
X26162000Y14478000D03*
X45593000Y20320000D03*
X58801000Y1270000D03*
X59436000Y23876000D03*
X50190400Y24892000D03*
X21590000Y4699000D03*
X45085000Y19050000D03*
X27178000Y1143000D03*
X27813000Y28829000D03*
X24511000Y12446000D03*
X21590000Y9990667D03*
X28067000Y21336000D03*
X21590000Y5757335D03*
X21590000Y8932334D03*
X59436000Y12192000D03*
X59817000Y16129000D03*
X69150000Y2700000D03*
X24130000Y17399000D03*
X46355000Y1270000D03*
X54483000Y7747000D03*
X29210000Y12700000D03*
X51816000Y2667000D03*
X21463000Y16637000D03*
X43053000Y7747000D03*
X59436000Y17272000D03*
X41529000Y7366000D03*
X26162000Y15875000D03*
X27178000Y20066000D03*
X59055000Y3810000D03*
X49191333Y7747000D03*
X50249666Y7747000D03*
X36068000Y8001000D03*
X37846000Y12192000D03*
X46990000Y26797000D03*
X49403000Y15748000D03*
X41529000Y10287000D03*
X46609000Y17399000D03*
X34925000Y28956000D03*
X52451000Y4826000D03*
X46101000Y12446000D03*
X31369000Y15113000D03*
X50673000Y1651000D03*
X43053000Y9906000D03*
X49149000Y4826000D03*
X51435000Y20447000D03*
X41529000Y11430000D03*
X43307000Y12319000D03*
X50292000Y4826000D03*
X67498800Y27150000D03*
X45212000Y3556000D03*
X45085000Y28829000D03*
X60600000Y27850000D03*
X39497000Y4191000D03*
X56900000Y18650000D03*
X65659000Y12192000D03*
X58039000Y26035000D03*
X25654000Y12446000D03*
X46228000Y8763000D03*
X51435000Y23876000D03*
X56850000Y10050000D03*
X38396332Y28956000D03*
X40132000Y28956000D03*
X64008000Y15875000D03*
X44069000Y25527000D03*
X67373500Y17653000D03*
X59436000Y18669000D03*
X61650000Y27150000D03*
X56769000Y28575000D03*
X41529000Y5969000D03*
X49784000Y26416000D03*
X30657800Y1676400D03*
X53594000Y4826000D03*
X33020000Y25654000D03*
X36660666Y28956000D03*
X37490400Y8509000D03*
X44323000Y1905000D03*
X67310000Y12192000D03*
X45847000Y18288000D03*
X30226000Y27813000D03*
X39624000Y1270000D03*
X53340000Y18161000D03*
X43281600Y24790400D03*
X59817000Y14859000D03*
X41529000Y8763000D03*
X41910000Y26416000D03*
X49403000Y17780000D03*
X46609000Y16256000D03*
%TO.N,+3V3*%
X35226165Y11684000D03*
X50292000Y12319000D03*
%TO.N,/P1.5*%
X23622000Y27813000D03*
X33592892Y24095357D03*
%TO.N,/P1.4*%
X28194000Y27813000D03*
X34875394Y23802099D03*
%TO.N,/C2D*%
X28194000Y23724020D03*
X26162000Y20828000D03*
%TO.N,GPIO3*%
X36705170Y15934014D03*
X56007000Y13462000D03*
%TO.N,GPIO1*%
X35747500Y16220149D03*
X53467000Y10414000D03*
%TO.N,/#RTS*%
X32258000Y16383000D03*
X30480000Y9652000D03*
%TO.N,GPIO2*%
X46609000Y15088011D03*
X37663835Y23552079D03*
%TO.N,+5V*%
X22860000Y4445000D03*
%TO.N,/#CTS*%
X31416006Y17129763D03*
X30480000Y11303000D03*
%TO.N,/RX_u*%
X32004000Y7747000D03*
X34313659Y16316998D03*
%TO.N,/TX_u*%
X30607000Y8255000D03*
X33314483Y16342517D03*
%TD*%
D15*
%TO.N,+3V3*%
X35226165Y11824442D02*
X36741194Y13339471D01*
X47252381Y12437619D02*
X49030382Y12437618D01*
X49030382Y12437618D02*
X49149000Y12319000D01*
X36741194Y13339471D02*
X46350529Y13339471D01*
X49149000Y12319000D02*
X50292000Y12319000D01*
X46350529Y13339471D02*
X47252381Y12437619D01*
X35226165Y11684000D02*
X35226165Y11824442D01*
D16*
%TO.N,/P1.5*%
X33570972Y24117277D02*
X30111723Y24117277D01*
X26416000Y27813000D02*
X23622000Y27813000D01*
X33592892Y24095357D02*
X33570972Y24117277D01*
X30111723Y24117277D02*
X26416000Y27813000D01*
%TO.N,/P1.4*%
X31190212Y24816788D02*
X28194000Y27813000D01*
X33860705Y24816788D02*
X31190212Y24816788D01*
X34875394Y23802099D02*
X33860705Y24816788D01*
D15*
%TO.N,/C2D*%
X26162000Y20828000D02*
X28194000Y22860000D01*
X28194000Y22860000D02*
X28194000Y23724020D01*
%TO.N,GPIO3*%
X46723511Y14338511D02*
X46850511Y14338511D01*
X46723511Y14338511D02*
X46819917Y14338511D01*
X55888480Y13580520D02*
X56007000Y13462000D01*
X46819917Y14338511D02*
X47577908Y13580520D01*
X36705170Y15110830D02*
X37477489Y14338511D01*
X47577908Y13580520D02*
X55888480Y13580520D01*
X36705170Y15934014D02*
X36705170Y15110830D01*
X46850511Y14338511D02*
X46850511Y14307917D01*
X37477489Y14338511D02*
X46723511Y14338511D01*
X47577908Y13580520D02*
X46850511Y14307917D01*
%TO.N,GPIO1*%
X46613009Y13838991D02*
X47371001Y13081000D01*
X47371001Y13081000D02*
X50800000Y13081000D01*
X37270582Y13838991D02*
X46613009Y13838991D01*
X50800000Y13081000D02*
X53467000Y10414000D01*
X35747500Y15362073D02*
X37270582Y13838991D01*
X35747500Y16220149D02*
X35747500Y15362073D01*
D17*
%TO.N,/#RTS*%
X32258000Y16383000D02*
X32258000Y16215723D01*
X32893000Y15580723D02*
X32893000Y12065000D01*
X32258000Y16215723D02*
X32893000Y15580723D01*
X32893000Y12065000D02*
X30480000Y9652000D01*
D15*
%TO.N,GPIO2*%
X46050611Y15088011D02*
X46609000Y15088011D01*
X45800631Y14838031D02*
X46050611Y15088011D01*
X37663835Y15549165D02*
X38374969Y14838031D01*
X38374969Y14838031D02*
X45800631Y14838031D01*
X37663835Y23552079D02*
X37663835Y15549165D01*
D18*
%TO.N,+5V*%
X22860000Y25019000D02*
X22860000Y4445000D01*
X21590000Y26289000D02*
X22860000Y25019000D01*
D17*
%TO.N,/#CTS*%
X31416006Y17129763D02*
X30480000Y16193757D01*
X30480000Y16193757D02*
X30480000Y11303000D01*
%TO.N,/RX_u*%
X34426665Y10169665D02*
X32004000Y7747000D01*
X34426665Y16203992D02*
X34426665Y10169665D01*
X34313659Y16316998D02*
X34426665Y16203992D01*
%TO.N,/TX_u*%
X30607000Y8255000D02*
X30607000Y8382000D01*
X30607000Y8382000D02*
X33492520Y11267520D01*
X33492520Y16164480D02*
X33314483Y16342517D01*
X33492520Y11267520D02*
X33492520Y16164480D01*
%TD*%
%TA.AperFunction,Conductor*%
%TO.N,GND*%
G36*
X20792904Y29781518D02*
G01*
X20819912Y29734787D01*
X20848078Y29575858D01*
X20931241Y29330867D01*
X21050505Y29101275D01*
X21203125Y28892364D01*
X21385589Y28708942D01*
X21593698Y28555230D01*
X21822663Y28434766D01*
X21825496Y28433788D01*
X21825500Y28433786D01*
X22064373Y28351302D01*
X22064377Y28351301D01*
X22067215Y28350321D01*
X22123195Y28340097D01*
X22319232Y28304294D01*
X22319239Y28304293D01*
X22321726Y28303839D01*
X22324253Y28303707D01*
X22324258Y28303706D01*
X22359090Y28301881D01*
X22404519Y28299500D01*
X22565782Y28299500D01*
X22757976Y28314120D01*
X22845393Y28334382D01*
X23007091Y28371861D01*
X23007094Y28371862D01*
X23010015Y28372539D01*
X23163532Y28433786D01*
X23218506Y28455718D01*
X23272520Y28457368D01*
X23277507Y28453437D01*
X23299213Y28495135D01*
X23312549Y28504994D01*
X23470766Y28598005D01*
X23470771Y28598009D01*
X23473354Y28599527D01*
X23605564Y28707163D01*
X23671661Y28760974D01*
X23671662Y28760975D01*
X23673991Y28762871D01*
X23847613Y28954685D01*
X23990222Y29170553D01*
X24098538Y29405509D01*
X24170068Y29654145D01*
X24179995Y29731107D01*
X24204822Y29779105D01*
X24258346Y29800000D01*
X30742124Y29800000D01*
X30792904Y29781518D01*
X30819912Y29734787D01*
X30848078Y29575858D01*
X30931241Y29330867D01*
X31050505Y29101275D01*
X31203125Y28892364D01*
X31385589Y28708942D01*
X31593698Y28555230D01*
X31822663Y28434766D01*
X31825496Y28433788D01*
X31825500Y28433786D01*
X32064373Y28351302D01*
X32064377Y28351301D01*
X32067215Y28350321D01*
X32123195Y28340097D01*
X32319232Y28304294D01*
X32319239Y28304293D01*
X32321726Y28303839D01*
X32324253Y28303707D01*
X32324258Y28303706D01*
X32359090Y28301881D01*
X32404519Y28299500D01*
X32565782Y28299500D01*
X32757976Y28314120D01*
X32845393Y28334382D01*
X33007091Y28371861D01*
X33007094Y28371862D01*
X33010015Y28372539D01*
X33250318Y28468410D01*
X33401026Y28557007D01*
X33470766Y28598005D01*
X33470771Y28598009D01*
X33473354Y28599527D01*
X33605564Y28707163D01*
X33671661Y28760974D01*
X33671662Y28760975D01*
X33673991Y28762871D01*
X33847613Y28954685D01*
X33990222Y29170553D01*
X34098538Y29405509D01*
X34170068Y29654145D01*
X34179995Y29731107D01*
X34204822Y29779105D01*
X34258346Y29800000D01*
X40742124Y29800000D01*
X40792904Y29781518D01*
X40819912Y29734787D01*
X40848078Y29575858D01*
X40931241Y29330867D01*
X41050505Y29101275D01*
X41203125Y28892364D01*
X41385589Y28708942D01*
X41593698Y28555230D01*
X41822663Y28434766D01*
X41825496Y28433788D01*
X41825500Y28433786D01*
X42064373Y28351302D01*
X42064377Y28351301D01*
X42067215Y28350321D01*
X42123195Y28340097D01*
X42319232Y28304294D01*
X42319239Y28304293D01*
X42321726Y28303839D01*
X42324253Y28303707D01*
X42324258Y28303706D01*
X42359090Y28301881D01*
X42404519Y28299500D01*
X42565782Y28299500D01*
X42757976Y28314120D01*
X42845393Y28334382D01*
X43007091Y28371861D01*
X43007094Y28371862D01*
X43010015Y28372539D01*
X43250318Y28468410D01*
X43401026Y28557007D01*
X43470766Y28598005D01*
X43470771Y28598009D01*
X43473354Y28599527D01*
X43605564Y28707163D01*
X43671661Y28760974D01*
X43671662Y28760975D01*
X43673991Y28762871D01*
X43847613Y28954685D01*
X43990222Y29170553D01*
X44098538Y29405509D01*
X44170068Y29654145D01*
X44179995Y29731107D01*
X44204822Y29779105D01*
X44258346Y29800000D01*
X50742124Y29800000D01*
X50792904Y29781518D01*
X50819912Y29734787D01*
X50848078Y29575858D01*
X50931241Y29330867D01*
X51050505Y29101275D01*
X51203125Y28892364D01*
X51385589Y28708942D01*
X51593698Y28555230D01*
X51822663Y28434766D01*
X51825496Y28433788D01*
X51825500Y28433786D01*
X52064373Y28351302D01*
X52064377Y28351301D01*
X52067215Y28350321D01*
X52123195Y28340097D01*
X52319232Y28304294D01*
X52319239Y28304293D01*
X52321726Y28303839D01*
X52324253Y28303707D01*
X52324258Y28303706D01*
X52359090Y28301881D01*
X52404519Y28299500D01*
X52565782Y28299500D01*
X52757976Y28314120D01*
X52845393Y28334382D01*
X53007091Y28371861D01*
X53007094Y28371862D01*
X53010015Y28372539D01*
X53250318Y28468410D01*
X53401026Y28557007D01*
X53470766Y28598005D01*
X53470771Y28598009D01*
X53473354Y28599527D01*
X53605564Y28707163D01*
X53671661Y28760974D01*
X53671662Y28760975D01*
X53673991Y28762871D01*
X53847613Y28954685D01*
X53990222Y29170553D01*
X54098538Y29405509D01*
X54170068Y29654145D01*
X54179995Y29731107D01*
X54204822Y29779105D01*
X54258346Y29800000D01*
X60742124Y29800000D01*
X60792904Y29781518D01*
X60819912Y29734787D01*
X60848078Y29575858D01*
X60931241Y29330867D01*
X61050505Y29101275D01*
X61203125Y28892364D01*
X61385589Y28708942D01*
X61593698Y28555230D01*
X61822663Y28434766D01*
X61825496Y28433788D01*
X61825500Y28433786D01*
X62064373Y28351302D01*
X62064377Y28351301D01*
X62067215Y28350321D01*
X62123195Y28340097D01*
X62319232Y28304294D01*
X62319239Y28304293D01*
X62321726Y28303839D01*
X62324253Y28303707D01*
X62324258Y28303706D01*
X62359090Y28301881D01*
X62404519Y28299500D01*
X62565782Y28299500D01*
X62757976Y28314120D01*
X62845393Y28334382D01*
X63007091Y28371861D01*
X63007094Y28371862D01*
X63010015Y28372539D01*
X63250318Y28468410D01*
X63401026Y28557007D01*
X63470766Y28598005D01*
X63470771Y28598009D01*
X63473354Y28599527D01*
X63605564Y28707163D01*
X63671661Y28760974D01*
X63671662Y28760975D01*
X63673991Y28762871D01*
X63847613Y28954685D01*
X63990222Y29170553D01*
X64098538Y29405509D01*
X64170068Y29654145D01*
X64179995Y29731107D01*
X64204822Y29779105D01*
X64258346Y29800000D01*
X69721000Y29800000D01*
X69771780Y29781518D01*
X69798800Y29734718D01*
X69800000Y29721000D01*
X69800000Y25254000D01*
X69781518Y25203220D01*
X69734718Y25176200D01*
X69721000Y25175000D01*
X63555877Y25175000D01*
X63504551Y25175045D01*
X63496533Y25171195D01*
X63496530Y25171194D01*
X63491637Y25168844D01*
X63475006Y25163036D01*
X63461038Y25159850D01*
X63450022Y25151072D01*
X63434992Y25141644D01*
X63422295Y25135547D01*
X63416740Y25128600D01*
X63416737Y25128598D01*
X63413346Y25124357D01*
X63400881Y25111914D01*
X63396638Y25108533D01*
X63396635Y25108530D01*
X63389677Y25102985D01*
X63385811Y25094970D01*
X63383560Y25090303D01*
X63374102Y25075284D01*
X63372455Y25073224D01*
X63365306Y25064285D01*
X63362679Y25052859D01*
X63362095Y25050320D01*
X63356258Y25033700D01*
X63353900Y25028812D01*
X63353899Y25028810D01*
X63350035Y25020798D01*
X63350015Y24997787D01*
X63350000Y24997723D01*
X63350000Y24980877D01*
X63349977Y24954075D01*
X63349955Y24929551D01*
X63349995Y24929468D01*
X63350000Y24929421D01*
X63350000Y20030877D01*
X63349955Y19979551D01*
X63353805Y19971533D01*
X63353806Y19971530D01*
X63356156Y19966637D01*
X63361964Y19950006D01*
X63365150Y19936038D01*
X63373928Y19925022D01*
X63383356Y19909992D01*
X63389453Y19897295D01*
X63396400Y19891740D01*
X63396402Y19891737D01*
X63400643Y19888346D01*
X63413086Y19875881D01*
X63416467Y19871638D01*
X63416470Y19871635D01*
X63422015Y19864677D01*
X63430030Y19860811D01*
X63434697Y19858560D01*
X63449716Y19849102D01*
X63460715Y19840306D01*
X63474680Y19837095D01*
X63491300Y19831258D01*
X63496188Y19828900D01*
X63496190Y19828899D01*
X63504202Y19825035D01*
X63513097Y19825027D01*
X63513098Y19825027D01*
X63527213Y19825015D01*
X63527277Y19825000D01*
X63544123Y19825000D01*
X63595178Y19824955D01*
X63595449Y19824955D01*
X63595532Y19824995D01*
X63595579Y19825000D01*
X69721000Y19825000D01*
X69771780Y19806518D01*
X69798800Y19759718D01*
X69800000Y19746000D01*
X69800000Y10254000D01*
X69781518Y10203220D01*
X69734718Y10176200D01*
X69721000Y10175000D01*
X63555877Y10175000D01*
X63504551Y10175045D01*
X63496533Y10171195D01*
X63496530Y10171194D01*
X63491637Y10168844D01*
X63475006Y10163036D01*
X63461038Y10159850D01*
X63450022Y10151072D01*
X63434992Y10141644D01*
X63422295Y10135547D01*
X63416740Y10128600D01*
X63416737Y10128598D01*
X63413346Y10124357D01*
X63400881Y10111914D01*
X63396638Y10108533D01*
X63396635Y10108530D01*
X63389677Y10102985D01*
X63385811Y10094970D01*
X63383560Y10090303D01*
X63374102Y10075284D01*
X63365306Y10064285D01*
X63363313Y10055616D01*
X63362095Y10050320D01*
X63356258Y10033700D01*
X63353900Y10028812D01*
X63353899Y10028810D01*
X63350035Y10020798D01*
X63350027Y10011903D01*
X63350027Y10011902D01*
X63350015Y9997787D01*
X63350000Y9997723D01*
X63350000Y9980877D01*
X63349957Y9931323D01*
X63349955Y9929551D01*
X63349995Y9929468D01*
X63350000Y9929421D01*
X63350000Y5030877D01*
X63349955Y4979551D01*
X63353805Y4971533D01*
X63353806Y4971530D01*
X63356156Y4966637D01*
X63361964Y4950006D01*
X63365150Y4936038D01*
X63373928Y4925022D01*
X63383356Y4909992D01*
X63389453Y4897295D01*
X63396400Y4891740D01*
X63396402Y4891737D01*
X63400643Y4888346D01*
X63413086Y4875881D01*
X63416467Y4871638D01*
X63416470Y4871635D01*
X63422015Y4864677D01*
X63430030Y4860811D01*
X63434697Y4858560D01*
X63449716Y4849102D01*
X63460715Y4840306D01*
X63474680Y4837095D01*
X63491300Y4831258D01*
X63496188Y4828900D01*
X63496190Y4828899D01*
X63504202Y4825035D01*
X63513097Y4825027D01*
X63513098Y4825027D01*
X63527213Y4825015D01*
X63527277Y4825000D01*
X63544123Y4825000D01*
X63595178Y4824955D01*
X63595449Y4824955D01*
X63595532Y4824995D01*
X63595579Y4825000D01*
X69721000Y4825000D01*
X69771780Y4806518D01*
X69798800Y4759718D01*
X69800000Y4746000D01*
X69800000Y279000D01*
X69781518Y228220D01*
X69734718Y201200D01*
X69721000Y200000D01*
X64257876Y200000D01*
X64207096Y218482D01*
X64180088Y265214D01*
X64152446Y421188D01*
X64152444Y421194D01*
X64151922Y424142D01*
X64068759Y669133D01*
X63949495Y898725D01*
X63796875Y1107636D01*
X63614411Y1291058D01*
X63406302Y1444770D01*
X63177337Y1565234D01*
X63174504Y1566212D01*
X63174500Y1566214D01*
X62935627Y1648698D01*
X62935623Y1648699D01*
X62932785Y1649679D01*
X62876805Y1659903D01*
X62680768Y1695706D01*
X62680761Y1695707D01*
X62678274Y1696161D01*
X62675747Y1696293D01*
X62675742Y1696294D01*
X62640910Y1698119D01*
X62595481Y1700500D01*
X62434218Y1700500D01*
X62242024Y1685880D01*
X62239099Y1685202D01*
X61992909Y1628139D01*
X61992906Y1628138D01*
X61989985Y1627461D01*
X61749682Y1531590D01*
X61747095Y1530069D01*
X61529234Y1401995D01*
X61529229Y1401991D01*
X61526646Y1400473D01*
X61524315Y1398576D01*
X61524316Y1398576D01*
X61392251Y1291058D01*
X61326009Y1237129D01*
X61152387Y1045315D01*
X61009778Y829447D01*
X60901462Y594491D01*
X60829932Y345855D01*
X60821309Y279000D01*
X60820005Y268894D01*
X60795178Y220895D01*
X60741654Y200000D01*
X54257876Y200000D01*
X54207096Y218482D01*
X54180088Y265214D01*
X54152446Y421188D01*
X54152444Y421194D01*
X54151922Y424142D01*
X54068759Y669133D01*
X53949495Y898725D01*
X53796875Y1107636D01*
X53614411Y1291058D01*
X53406302Y1444770D01*
X53177337Y1565234D01*
X53174504Y1566212D01*
X53174500Y1566214D01*
X52935627Y1648698D01*
X52935623Y1648699D01*
X52932785Y1649679D01*
X52876805Y1659903D01*
X52680768Y1695706D01*
X52680761Y1695707D01*
X52678274Y1696161D01*
X52675747Y1696293D01*
X52675742Y1696294D01*
X52640910Y1698119D01*
X52595481Y1700500D01*
X52434218Y1700500D01*
X52242024Y1685880D01*
X52239099Y1685202D01*
X51992909Y1628139D01*
X51992906Y1628138D01*
X51989985Y1627461D01*
X51749682Y1531590D01*
X51747095Y1530069D01*
X51529234Y1401995D01*
X51529229Y1401991D01*
X51526646Y1400473D01*
X51524315Y1398576D01*
X51524316Y1398576D01*
X51392251Y1291058D01*
X51326009Y1237129D01*
X51152387Y1045315D01*
X51009778Y829447D01*
X50901462Y594491D01*
X50829932Y345855D01*
X50821309Y279000D01*
X50820005Y268894D01*
X50795178Y220895D01*
X50741654Y200000D01*
X44257876Y200000D01*
X44207096Y218482D01*
X44180088Y265214D01*
X44152446Y421188D01*
X44152444Y421194D01*
X44151922Y424142D01*
X44068759Y669133D01*
X43949495Y898725D01*
X43796875Y1107636D01*
X43614411Y1291058D01*
X43406302Y1444770D01*
X43177337Y1565234D01*
X43174504Y1566212D01*
X43174500Y1566214D01*
X42935627Y1648698D01*
X42935623Y1648699D01*
X42932785Y1649679D01*
X42876805Y1659903D01*
X42680768Y1695706D01*
X42680761Y1695707D01*
X42678274Y1696161D01*
X42675747Y1696293D01*
X42675742Y1696294D01*
X42640910Y1698119D01*
X42595481Y1700500D01*
X42434218Y1700500D01*
X42242024Y1685880D01*
X42239099Y1685202D01*
X41992909Y1628139D01*
X41992906Y1628138D01*
X41989985Y1627461D01*
X41749682Y1531590D01*
X41747095Y1530069D01*
X41529234Y1401995D01*
X41529229Y1401991D01*
X41526646Y1400473D01*
X41524315Y1398576D01*
X41524316Y1398576D01*
X41392251Y1291058D01*
X41326009Y1237129D01*
X41152387Y1045315D01*
X41009778Y829447D01*
X40901462Y594491D01*
X40829932Y345855D01*
X40821309Y279000D01*
X40820005Y268894D01*
X40795178Y220895D01*
X40741654Y200000D01*
X34257876Y200000D01*
X34207096Y218482D01*
X34180088Y265214D01*
X34152446Y421188D01*
X34152444Y421194D01*
X34151922Y424142D01*
X34068759Y669133D01*
X33949495Y898725D01*
X33796875Y1107636D01*
X33614411Y1291058D01*
X33406302Y1444770D01*
X33177337Y1565234D01*
X33174504Y1566212D01*
X33174500Y1566214D01*
X32935627Y1648698D01*
X32935623Y1648699D01*
X32932785Y1649679D01*
X32876805Y1659903D01*
X32680768Y1695706D01*
X32680761Y1695707D01*
X32678274Y1696161D01*
X32675747Y1696293D01*
X32675742Y1696294D01*
X32640910Y1698119D01*
X32595481Y1700500D01*
X32434218Y1700500D01*
X32242024Y1685880D01*
X32239099Y1685202D01*
X31992909Y1628139D01*
X31992906Y1628138D01*
X31989985Y1627461D01*
X31749682Y1531590D01*
X31747095Y1530069D01*
X31529234Y1401995D01*
X31529229Y1401991D01*
X31526646Y1400473D01*
X31524315Y1398576D01*
X31524316Y1398576D01*
X31392251Y1291058D01*
X31326009Y1237129D01*
X31152387Y1045315D01*
X31009778Y829447D01*
X30901462Y594491D01*
X30829932Y345855D01*
X30821309Y279000D01*
X30820005Y268894D01*
X30795178Y220895D01*
X30741654Y200000D01*
X24257876Y200000D01*
X24207096Y218482D01*
X24180088Y265214D01*
X24152446Y421188D01*
X24152444Y421194D01*
X24151922Y424142D01*
X24068759Y669133D01*
X23949495Y898725D01*
X23796875Y1107636D01*
X23614411Y1291058D01*
X23406302Y1444770D01*
X23177337Y1565234D01*
X23174504Y1566212D01*
X23174500Y1566214D01*
X22935627Y1648698D01*
X22935623Y1648699D01*
X22932785Y1649679D01*
X22876805Y1659903D01*
X22680768Y1695706D01*
X22680761Y1695707D01*
X22678274Y1696161D01*
X22675747Y1696293D01*
X22675742Y1696294D01*
X22640910Y1698119D01*
X22595481Y1700500D01*
X22434218Y1700500D01*
X22242024Y1685880D01*
X22239099Y1685202D01*
X21992909Y1628139D01*
X21992906Y1628138D01*
X21989985Y1627461D01*
X21749682Y1531590D01*
X21747095Y1530069D01*
X21529234Y1401995D01*
X21529229Y1401991D01*
X21526646Y1400473D01*
X21524315Y1398576D01*
X21524316Y1398576D01*
X21392251Y1291058D01*
X21326009Y1237129D01*
X21152387Y1045315D01*
X21009778Y829447D01*
X20901462Y594491D01*
X20829932Y345855D01*
X20821309Y279000D01*
X20820005Y268894D01*
X20795178Y220895D01*
X20741654Y200000D01*
X20279000Y200000D01*
X20228220Y218482D01*
X20201200Y265282D01*
X20200000Y279000D01*
X20200000Y20427252D01*
X20627500Y20427252D01*
X20628258Y20423443D01*
X20628258Y20423440D01*
X20632977Y20399718D01*
X20639133Y20368769D01*
X20643454Y20362302D01*
X20643455Y20362300D01*
X20679128Y20308913D01*
X20683448Y20302448D01*
X20689913Y20298128D01*
X20743300Y20262455D01*
X20743302Y20262454D01*
X20749769Y20258133D01*
X20770694Y20253971D01*
X20804440Y20247258D01*
X20804443Y20247258D01*
X20808252Y20246500D01*
X22280500Y20246500D01*
X22331280Y20228018D01*
X22358300Y20181218D01*
X22359500Y20167500D01*
X22359500Y4805982D01*
X22343176Y4757891D01*
X22335464Y4747841D01*
X22274956Y4601762D01*
X22254318Y4445000D01*
X22274956Y4288238D01*
X22335464Y4142159D01*
X22431718Y4016718D01*
X22435822Y4013569D01*
X22553048Y3923618D01*
X22553050Y3923617D01*
X22557159Y3920464D01*
X22660609Y3877614D01*
X22698450Y3861939D01*
X22698452Y3861939D01*
X22703238Y3859956D01*
X22860000Y3839318D01*
X23016762Y3859956D01*
X23021548Y3861939D01*
X23021550Y3861939D01*
X23059391Y3877614D01*
X23162841Y3920464D01*
X23166950Y3923617D01*
X23166952Y3923618D01*
X23284178Y4013569D01*
X23288282Y4016718D01*
X23384536Y4142159D01*
X23445044Y4288238D01*
X23465682Y4445000D01*
X23445044Y4601762D01*
X23384536Y4747841D01*
X23376824Y4757891D01*
X23360500Y4805982D01*
X23360500Y9652000D01*
X29874318Y9652000D01*
X29894956Y9495238D01*
X29955464Y9349159D01*
X30051718Y9223718D01*
X30055822Y9220569D01*
X30173048Y9130618D01*
X30173050Y9130617D01*
X30177159Y9127464D01*
X30280609Y9084614D01*
X30318450Y9068939D01*
X30318452Y9068939D01*
X30323238Y9066956D01*
X30480000Y9046318D01*
X30508293Y9050043D01*
X30561050Y9038347D01*
X30593947Y8995476D01*
X30591591Y8941488D01*
X30574465Y8915858D01*
X30524954Y8866347D01*
X30479405Y8843884D01*
X30470180Y8842669D01*
X30450238Y8840044D01*
X30445452Y8838061D01*
X30445450Y8838061D01*
X30407609Y8822386D01*
X30304159Y8779536D01*
X30300050Y8776383D01*
X30300048Y8776382D01*
X30203514Y8702309D01*
X30178718Y8683282D01*
X30082464Y8557841D01*
X30021956Y8411762D01*
X30001318Y8255000D01*
X30021956Y8098238D01*
X30082464Y7952159D01*
X30178718Y7826718D01*
X30182822Y7823569D01*
X30300048Y7733618D01*
X30300050Y7733617D01*
X30304159Y7730464D01*
X30407609Y7687614D01*
X30445450Y7671939D01*
X30445452Y7671939D01*
X30450238Y7669956D01*
X30607000Y7649318D01*
X30763762Y7669956D01*
X30768548Y7671939D01*
X30768550Y7671939D01*
X30806391Y7687614D01*
X30909841Y7730464D01*
X30913950Y7733617D01*
X30913952Y7733618D01*
X31031178Y7823569D01*
X31035282Y7826718D01*
X31131536Y7952159D01*
X31192044Y8098238D01*
X31212682Y8255000D01*
X31198422Y8363320D01*
X31210118Y8416078D01*
X31220885Y8429492D01*
X33798004Y11006611D01*
X33798007Y11006615D01*
X33820570Y11029178D01*
X33832238Y11052078D01*
X33838712Y11062641D01*
X33850161Y11078399D01*
X33853817Y11083431D01*
X33855740Y11089348D01*
X33855741Y11089351D01*
X33861760Y11107874D01*
X33866503Y11119327D01*
X33876776Y11139488D01*
X33916297Y11176342D01*
X33970262Y11179170D01*
X34013420Y11146649D01*
X34026165Y11103622D01*
X34026165Y10368280D01*
X34007683Y10317500D01*
X34003026Y10312419D01*
X32065752Y8375145D01*
X32016776Y8352307D01*
X32009891Y8352006D01*
X32009134Y8352006D01*
X32004000Y8352682D01*
X31847238Y8332044D01*
X31842452Y8330061D01*
X31842450Y8330061D01*
X31804609Y8314386D01*
X31701159Y8271536D01*
X31697050Y8268383D01*
X31697048Y8268382D01*
X31600514Y8194309D01*
X31575718Y8175282D01*
X31479464Y8049841D01*
X31418956Y7903762D01*
X31398318Y7747000D01*
X31418956Y7590238D01*
X31479464Y7444159D01*
X31575718Y7318718D01*
X31579822Y7315569D01*
X31697048Y7225618D01*
X31697050Y7225617D01*
X31701159Y7222464D01*
X31804609Y7179614D01*
X31842450Y7163939D01*
X31842452Y7163939D01*
X31847238Y7161956D01*
X32004000Y7141318D01*
X32160762Y7161956D01*
X32165548Y7163939D01*
X32165550Y7163939D01*
X32203391Y7179614D01*
X32306841Y7222464D01*
X32310950Y7225617D01*
X32310952Y7225618D01*
X32428178Y7315569D01*
X32432282Y7318718D01*
X32528536Y7444159D01*
X32589044Y7590238D01*
X32609682Y7747000D01*
X32609006Y7752135D01*
X32609006Y7752891D01*
X32627488Y7803671D01*
X32632145Y7808752D01*
X34732149Y9908756D01*
X34732152Y9908760D01*
X34754715Y9931323D01*
X34765392Y9952277D01*
X34766382Y9954221D01*
X34772854Y9964783D01*
X34787961Y9985576D01*
X34795900Y10010011D01*
X34800643Y10021462D01*
X34804388Y10028812D01*
X34812311Y10044361D01*
X34816332Y10069751D01*
X34819222Y10081787D01*
X34827165Y10106232D01*
X34827165Y11081063D01*
X34845647Y11131843D01*
X34892447Y11158863D01*
X34936397Y11154049D01*
X35064615Y11100939D01*
X35064617Y11100939D01*
X35069403Y11098956D01*
X35142361Y11089351D01*
X35205315Y11081063D01*
X35226165Y11078318D01*
X35247016Y11081063D01*
X35309969Y11089351D01*
X35382927Y11098956D01*
X35387713Y11100939D01*
X35387715Y11100939D01*
X35462323Y11131843D01*
X35529006Y11159464D01*
X35533115Y11162617D01*
X35533117Y11162618D01*
X35650343Y11252569D01*
X35654447Y11255718D01*
X35673474Y11280514D01*
X35747547Y11377048D01*
X35747548Y11377050D01*
X35750701Y11381159D01*
X35811209Y11527238D01*
X35831847Y11684000D01*
X35811209Y11840762D01*
X35809227Y11845546D01*
X35807887Y11850548D01*
X35809693Y11851032D01*
X35807658Y11897629D01*
X35827141Y11929736D01*
X36863237Y12965832D01*
X36912213Y12988670D01*
X36919098Y12988971D01*
X46172625Y12988971D01*
X46223405Y12970489D01*
X46228486Y12965832D01*
X46972138Y12222180D01*
X46982643Y12209174D01*
X46989556Y12198467D01*
X47015129Y12178306D01*
X47015645Y12177900D01*
X47022597Y12171721D01*
X47025127Y12169191D01*
X47027779Y12167296D01*
X47040354Y12158310D01*
X47043332Y12156074D01*
X47076063Y12130270D01*
X47076065Y12130269D01*
X47081192Y12126227D01*
X47087331Y12124071D01*
X47088215Y12123515D01*
X47089798Y12122693D01*
X47090754Y12122293D01*
X47096050Y12118508D01*
X47142244Y12104694D01*
X47145778Y12103545D01*
X47186594Y12089211D01*
X47186602Y12089209D01*
X47191287Y12087564D01*
X47196425Y12087119D01*
X47198097Y12087119D01*
X47202162Y12086775D01*
X47207844Y12085076D01*
X47214368Y12085332D01*
X47214370Y12085332D01*
X47258301Y12087058D01*
X47261402Y12087119D01*
X47334853Y12087119D01*
X48849558Y12087118D01*
X48898467Y12070157D01*
X48912264Y12059280D01*
X48919216Y12053102D01*
X48921746Y12050572D01*
X48924398Y12048677D01*
X48936973Y12039691D01*
X48939951Y12037455D01*
X48972682Y12011651D01*
X48972684Y12011650D01*
X48977811Y12007608D01*
X48983950Y12005452D01*
X48984829Y12004899D01*
X48986420Y12004072D01*
X48987374Y12003673D01*
X48992669Y11999889D01*
X48998920Y11998020D01*
X48998923Y11998018D01*
X49038876Y11986070D01*
X49042417Y11984919D01*
X49083213Y11970593D01*
X49087906Y11968945D01*
X49093044Y11968500D01*
X49094708Y11968500D01*
X49098778Y11968156D01*
X49104463Y11966456D01*
X49110987Y11966712D01*
X49110990Y11966712D01*
X49154935Y11968439D01*
X49158036Y11968500D01*
X49765075Y11968500D01*
X49815855Y11950018D01*
X49827750Y11937592D01*
X49858415Y11897629D01*
X49863718Y11890718D01*
X49867822Y11887569D01*
X49985048Y11797618D01*
X49985050Y11797617D01*
X49989159Y11794464D01*
X50092609Y11751614D01*
X50130450Y11735939D01*
X50130452Y11735939D01*
X50135238Y11733956D01*
X50292000Y11713318D01*
X50448762Y11733956D01*
X50453548Y11735939D01*
X50453550Y11735939D01*
X50491391Y11751614D01*
X50594841Y11794464D01*
X50598950Y11797617D01*
X50598952Y11797618D01*
X50716178Y11887569D01*
X50720282Y11890718D01*
X50739309Y11915514D01*
X50813382Y12012048D01*
X50813383Y12012050D01*
X50816536Y12016159D01*
X50863802Y12130270D01*
X50875061Y12157450D01*
X50875061Y12157452D01*
X50877044Y12162238D01*
X50896391Y12309193D01*
X50921343Y12357126D01*
X50971269Y12377806D01*
X51022807Y12361556D01*
X51030576Y12354742D01*
X52846567Y10538751D01*
X52869405Y10489775D01*
X52869030Y10472579D01*
X52861318Y10414000D01*
X52881956Y10257238D01*
X52883939Y10252452D01*
X52883939Y10252450D01*
X52891142Y10235061D01*
X52942464Y10111159D01*
X52945617Y10107050D01*
X52945618Y10107048D01*
X53001900Y10033700D01*
X53038718Y9985718D01*
X53042822Y9982569D01*
X53160048Y9892618D01*
X53160050Y9892617D01*
X53164159Y9889464D01*
X53266640Y9847015D01*
X53305450Y9830939D01*
X53305452Y9830939D01*
X53310238Y9828956D01*
X53467000Y9808318D01*
X53623762Y9828956D01*
X53628548Y9830939D01*
X53628550Y9830939D01*
X53667360Y9847015D01*
X53769841Y9889464D01*
X53773950Y9892617D01*
X53773952Y9892618D01*
X53891178Y9982569D01*
X53895282Y9985718D01*
X53932100Y10033700D01*
X53988382Y10107048D01*
X53988383Y10107050D01*
X53991536Y10111159D01*
X54042858Y10235061D01*
X54050061Y10252450D01*
X54050061Y10252452D01*
X54052044Y10257238D01*
X54072682Y10414000D01*
X54052044Y10570762D01*
X53991536Y10716841D01*
X53895282Y10842282D01*
X53857114Y10871569D01*
X53773952Y10935382D01*
X53773950Y10935383D01*
X53769841Y10938536D01*
X53666391Y10981386D01*
X53628550Y10997061D01*
X53628548Y10997061D01*
X53623762Y10999044D01*
X53467000Y11019682D01*
X53408422Y11011970D01*
X53355663Y11023666D01*
X53342249Y11034433D01*
X51281523Y13095159D01*
X51258685Y13144135D01*
X51272671Y13196333D01*
X51316937Y13227328D01*
X51337384Y13230020D01*
X55400327Y13230020D01*
X55451107Y13211538D01*
X55473312Y13181254D01*
X55482464Y13159159D01*
X55578718Y13033718D01*
X55582822Y13030569D01*
X55700048Y12940618D01*
X55700050Y12940617D01*
X55704159Y12937464D01*
X55807609Y12894614D01*
X55845450Y12878939D01*
X55845452Y12878939D01*
X55850238Y12876956D01*
X56007000Y12856318D01*
X56163762Y12876956D01*
X56168548Y12878939D01*
X56168550Y12878939D01*
X56206391Y12894614D01*
X56309841Y12937464D01*
X56313950Y12940617D01*
X56313952Y12940618D01*
X56431178Y13030569D01*
X56435282Y13033718D01*
X56531536Y13159159D01*
X56592044Y13305238D01*
X56612682Y13462000D01*
X56592044Y13618762D01*
X56586415Y13632353D01*
X56568045Y13676701D01*
X56531536Y13764841D01*
X56435282Y13890282D01*
X56352036Y13954159D01*
X56313952Y13983382D01*
X56313950Y13983383D01*
X56309841Y13986536D01*
X56206391Y14029386D01*
X56168550Y14045061D01*
X56168548Y14045061D01*
X56163762Y14047044D01*
X56007000Y14067682D01*
X55850238Y14047044D01*
X55845452Y14045061D01*
X55845450Y14045061D01*
X55807609Y14029386D01*
X55704159Y13986536D01*
X55700050Y13983383D01*
X55700048Y13983382D01*
X55653084Y13947345D01*
X55604992Y13931020D01*
X47755812Y13931020D01*
X47705032Y13949502D01*
X47699951Y13954159D01*
X47186508Y14467602D01*
X47176001Y14480611D01*
X47154141Y14514467D01*
X47150985Y14519804D01*
X47134391Y14550557D01*
X47134389Y14550559D01*
X47131289Y14556305D01*
X47126494Y14560737D01*
X47122493Y14565896D01*
X47122532Y14565927D01*
X47121308Y14567383D01*
X47121271Y14567350D01*
X47116878Y14572178D01*
X47113336Y14577663D01*
X47108208Y14581705D01*
X47108206Y14581708D01*
X47087944Y14597682D01*
X47059508Y14643634D01*
X47067263Y14697114D01*
X47074178Y14707813D01*
X47130382Y14781059D01*
X47130383Y14781061D01*
X47133536Y14785170D01*
X47194044Y14931249D01*
X47214682Y15088011D01*
X47194044Y15244773D01*
X47189678Y15255315D01*
X47173265Y15294937D01*
X47133536Y15390852D01*
X47125528Y15401289D01*
X47040431Y15512189D01*
X47037282Y15516293D01*
X47007828Y15538894D01*
X46915952Y15609393D01*
X46915950Y15609394D01*
X46911841Y15612547D01*
X46808391Y15655397D01*
X46770550Y15671072D01*
X46770548Y15671072D01*
X46765762Y15673055D01*
X46609000Y15693693D01*
X46452238Y15673055D01*
X46447452Y15671072D01*
X46447450Y15671072D01*
X46409609Y15655397D01*
X46306159Y15612547D01*
X46302050Y15609394D01*
X46302048Y15609393D01*
X46210172Y15538894D01*
X46180718Y15516293D01*
X46177569Y15512189D01*
X46177566Y15512186D01*
X46146786Y15472072D01*
X46101211Y15443036D01*
X46080336Y15442983D01*
X46080256Y15441280D01*
X46073735Y15441587D01*
X46067350Y15442962D01*
X46034374Y15439059D01*
X46025088Y15438511D01*
X46021496Y15438511D01*
X46018277Y15437975D01*
X46018274Y15437975D01*
X46003019Y15435436D01*
X45999335Y15434912D01*
X45960710Y15430340D01*
X45951472Y15429247D01*
X45945607Y15426431D01*
X45944592Y15426200D01*
X45942884Y15425659D01*
X45941929Y15425268D01*
X45935508Y15424199D01*
X45929763Y15421099D01*
X45929760Y15421098D01*
X45893049Y15401289D01*
X45889786Y15399625D01*
X45846285Y15378737D01*
X45842337Y15375419D01*
X45841153Y15374235D01*
X45838039Y15371607D01*
X45832817Y15368789D01*
X45828382Y15363991D01*
X45798533Y15331701D01*
X45796383Y15329465D01*
X45678588Y15211670D01*
X45629612Y15188832D01*
X45622727Y15188531D01*
X38552873Y15188531D01*
X38502093Y15207013D01*
X38497012Y15211670D01*
X38037474Y15671208D01*
X38014636Y15720184D01*
X38014335Y15727069D01*
X38014335Y23025154D01*
X38032817Y23075934D01*
X38045243Y23087829D01*
X38088012Y23120647D01*
X38088013Y23120648D01*
X38092117Y23123797D01*
X38148359Y23197093D01*
X38185217Y23245127D01*
X38185218Y23245129D01*
X38188371Y23249238D01*
X38238669Y23370668D01*
X38246896Y23390529D01*
X38246896Y23390531D01*
X38248879Y23395317D01*
X38269517Y23552079D01*
X38266843Y23572394D01*
X38254792Y23663926D01*
X38248879Y23708841D01*
X38188371Y23854920D01*
X38172468Y23875646D01*
X38106818Y23961202D01*
X38092117Y23980361D01*
X38031517Y24026861D01*
X37970787Y24073461D01*
X37970785Y24073462D01*
X37966676Y24076615D01*
X37863226Y24119465D01*
X37825385Y24135140D01*
X37825383Y24135140D01*
X37820597Y24137123D01*
X37663835Y24157761D01*
X37507073Y24137123D01*
X37502287Y24135140D01*
X37502285Y24135140D01*
X37464444Y24119465D01*
X37360994Y24076615D01*
X37356885Y24073462D01*
X37356883Y24073461D01*
X37296153Y24026861D01*
X37235553Y23980361D01*
X37220852Y23961202D01*
X37155203Y23875646D01*
X37139299Y23854920D01*
X37078791Y23708841D01*
X37072878Y23663926D01*
X37060828Y23572394D01*
X37058153Y23552079D01*
X37078791Y23395317D01*
X37080774Y23390531D01*
X37080774Y23390529D01*
X37089001Y23370668D01*
X37139299Y23249238D01*
X37142452Y23245129D01*
X37142453Y23245127D01*
X37179311Y23197093D01*
X37235553Y23123797D01*
X37239657Y23120648D01*
X37239658Y23120647D01*
X37282427Y23087829D01*
X37311462Y23042252D01*
X37313335Y23025154D01*
X37313335Y16360594D01*
X37294853Y16309814D01*
X37248053Y16282794D01*
X37194835Y16292178D01*
X37171660Y16312502D01*
X37171339Y16312921D01*
X37133452Y16362296D01*
X37086094Y16398635D01*
X37012122Y16455396D01*
X37012120Y16455397D01*
X37008011Y16458550D01*
X36904036Y16501618D01*
X36866720Y16517075D01*
X36866718Y16517075D01*
X36861932Y16519058D01*
X36734270Y16535865D01*
X36710305Y16539020D01*
X36705170Y16539696D01*
X36700035Y16539020D01*
X36676070Y16535865D01*
X36548408Y16519058D01*
X36543622Y16517075D01*
X36543620Y16517075D01*
X36407116Y16460533D01*
X36402329Y16458550D01*
X36398222Y16455398D01*
X36396993Y16454689D01*
X36343774Y16445308D01*
X36296976Y16472330D01*
X36284513Y16492869D01*
X36272036Y16522990D01*
X36267692Y16528652D01*
X36178931Y16644327D01*
X36175782Y16648431D01*
X36087744Y16715985D01*
X36054452Y16741531D01*
X36054450Y16741532D01*
X36050341Y16744685D01*
X35946891Y16787535D01*
X35909050Y16803210D01*
X35909048Y16803210D01*
X35904262Y16805193D01*
X35747500Y16825831D01*
X35590738Y16805193D01*
X35585952Y16803210D01*
X35585950Y16803210D01*
X35548109Y16787535D01*
X35444659Y16744685D01*
X35440550Y16741532D01*
X35440548Y16741531D01*
X35407256Y16715985D01*
X35319218Y16648431D01*
X35316069Y16644327D01*
X35227309Y16528652D01*
X35222964Y16522990D01*
X35194966Y16455396D01*
X35164930Y16382883D01*
X35162456Y16376911D01*
X35141818Y16220149D01*
X35162456Y16063387D01*
X35164439Y16058601D01*
X35164439Y16058599D01*
X35169690Y16045922D01*
X35222964Y15917308D01*
X35226117Y15913199D01*
X35226118Y15913197D01*
X35265696Y15861618D01*
X35319218Y15791867D01*
X35323322Y15788718D01*
X35323323Y15788717D01*
X35366092Y15755899D01*
X35395127Y15710322D01*
X35397000Y15693224D01*
X35397000Y15407892D01*
X35395230Y15391265D01*
X35392549Y15378812D01*
X35394303Y15363991D01*
X35396452Y15345836D01*
X35397000Y15336550D01*
X35397000Y15332958D01*
X35397535Y15329742D01*
X35397536Y15329733D01*
X35400074Y15314484D01*
X35400598Y15310802D01*
X35402346Y15296035D01*
X35406264Y15262935D01*
X35409080Y15257070D01*
X35409313Y15256047D01*
X35409848Y15254356D01*
X35410243Y15253392D01*
X35411312Y15246970D01*
X35418919Y15232873D01*
X35434215Y15204524D01*
X35435900Y15201216D01*
X35456774Y15157747D01*
X35460092Y15153799D01*
X35461276Y15152615D01*
X35463904Y15149501D01*
X35466722Y15144279D01*
X35471520Y15139844D01*
X35503810Y15109995D01*
X35506046Y15107845D01*
X36787203Y13826688D01*
X36810041Y13777712D01*
X36796055Y13725514D01*
X36751789Y13694519D01*
X36740629Y13692375D01*
X36733995Y13691590D01*
X36724947Y13690519D01*
X36715664Y13689971D01*
X36712079Y13689971D01*
X36708861Y13689435D01*
X36708857Y13689435D01*
X36693620Y13686899D01*
X36689936Y13686375D01*
X36648543Y13681476D01*
X36648542Y13681476D01*
X36642056Y13680708D01*
X36636191Y13677891D01*
X36635183Y13677662D01*
X36633466Y13677119D01*
X36632511Y13676727D01*
X36626091Y13675659D01*
X36583652Y13652760D01*
X36580344Y13651075D01*
X36541354Y13632353D01*
X36541349Y13632350D01*
X36536868Y13630198D01*
X36532920Y13626879D01*
X36531738Y13625697D01*
X36528620Y13623066D01*
X36523400Y13620249D01*
X36518967Y13615453D01*
X36489116Y13583161D01*
X36486966Y13580925D01*
X35210071Y12304030D01*
X35164522Y12281567D01*
X35121232Y12275867D01*
X35069403Y12269044D01*
X35064617Y12267061D01*
X35064615Y12267061D01*
X34936397Y12213951D01*
X34882409Y12211593D01*
X34839537Y12244490D01*
X34827165Y12286937D01*
X34827165Y15975236D01*
X34837270Y16012951D01*
X34838195Y16014157D01*
X34898703Y16160236D01*
X34919341Y16316998D01*
X34898703Y16473760D01*
X34838195Y16619839D01*
X34813840Y16651580D01*
X34745090Y16741176D01*
X34741941Y16745280D01*
X34661274Y16807178D01*
X34620611Y16838380D01*
X34620609Y16838381D01*
X34616500Y16841534D01*
X34513050Y16884384D01*
X34475209Y16900059D01*
X34475207Y16900059D01*
X34470421Y16902042D01*
X34313659Y16922680D01*
X34156897Y16902042D01*
X34152111Y16900059D01*
X34152109Y16900059D01*
X34114268Y16884384D01*
X34010818Y16841534D01*
X34006709Y16838381D01*
X34006707Y16838380D01*
X33966044Y16807178D01*
X33885377Y16745280D01*
X33882228Y16741176D01*
X33879875Y16738823D01*
X33830899Y16715985D01*
X33778701Y16729971D01*
X33761341Y16746590D01*
X33742765Y16770799D01*
X33695355Y16807178D01*
X33621435Y16863899D01*
X33621433Y16863900D01*
X33617324Y16867053D01*
X33513874Y16909903D01*
X33476033Y16925578D01*
X33476031Y16925578D01*
X33471245Y16927561D01*
X33314483Y16948199D01*
X33157721Y16927561D01*
X33152935Y16925578D01*
X33152933Y16925578D01*
X33115092Y16909903D01*
X33011642Y16867053D01*
X33007533Y16863900D01*
X33007531Y16863899D01*
X32933611Y16807178D01*
X32886201Y16770799D01*
X32883053Y16766696D01*
X32883051Y16766694D01*
X32864448Y16742450D01*
X32818872Y16713415D01*
X32765295Y16720468D01*
X32739099Y16742449D01*
X32686282Y16811282D01*
X32646857Y16841534D01*
X32564952Y16904382D01*
X32564950Y16904383D01*
X32560841Y16907536D01*
X32457391Y16950386D01*
X32419550Y16966061D01*
X32419548Y16966061D01*
X32414762Y16968044D01*
X32258000Y16988682D01*
X32101238Y16968044D01*
X32100877Y16970789D01*
X32057019Y16974605D01*
X32018789Y17012797D01*
X32012047Y17056530D01*
X32021012Y17124627D01*
X32021012Y17124628D01*
X32021688Y17129763D01*
X32001050Y17286525D01*
X31940542Y17432604D01*
X31844288Y17558045D01*
X31819492Y17577072D01*
X31722958Y17651145D01*
X31722956Y17651146D01*
X31718847Y17654299D01*
X31615397Y17697149D01*
X31577556Y17712824D01*
X31577554Y17712824D01*
X31572768Y17714807D01*
X31416006Y17735445D01*
X31259244Y17714807D01*
X31254458Y17712824D01*
X31254456Y17712824D01*
X31216615Y17697149D01*
X31113165Y17654299D01*
X31109056Y17651146D01*
X31109054Y17651145D01*
X31012520Y17577072D01*
X30987724Y17558045D01*
X30891470Y17432604D01*
X30830962Y17286525D01*
X30810324Y17129763D01*
X30811000Y17124628D01*
X30811000Y17123871D01*
X30792518Y17073091D01*
X30787861Y17068011D01*
X30174516Y16454666D01*
X30174513Y16454662D01*
X30151950Y16432099D01*
X30149127Y16426558D01*
X30149126Y16426557D01*
X30140286Y16409207D01*
X30133807Y16398635D01*
X30122362Y16382883D01*
X30122360Y16382879D01*
X30118704Y16377847D01*
X30113651Y16362296D01*
X30110764Y16353410D01*
X30106022Y16341961D01*
X30094354Y16319061D01*
X30090333Y16293671D01*
X30087443Y16281635D01*
X30079500Y16257190D01*
X30079500Y11790831D01*
X30061018Y11740051D01*
X30056361Y11734970D01*
X30055823Y11734432D01*
X30051718Y11731282D01*
X30037934Y11713318D01*
X30019378Y11689135D01*
X29955464Y11605841D01*
X29894956Y11459762D01*
X29874318Y11303000D01*
X29894956Y11146238D01*
X29896939Y11141452D01*
X29896939Y11141450D01*
X29906103Y11119327D01*
X29955464Y11000159D01*
X30051718Y10874718D01*
X30055822Y10871569D01*
X30173048Y10781618D01*
X30173050Y10781617D01*
X30177159Y10778464D01*
X30280609Y10735614D01*
X30318450Y10719939D01*
X30318452Y10719939D01*
X30323238Y10717956D01*
X30480000Y10697318D01*
X30636762Y10717956D01*
X30641548Y10719939D01*
X30641550Y10719939D01*
X30679391Y10735614D01*
X30782841Y10778464D01*
X30786950Y10781617D01*
X30786952Y10781618D01*
X30904178Y10871569D01*
X30908282Y10874718D01*
X31004536Y11000159D01*
X31053897Y11119327D01*
X31063061Y11141450D01*
X31063061Y11141452D01*
X31065044Y11146238D01*
X31085682Y11303000D01*
X31065044Y11459762D01*
X31004536Y11605841D01*
X30940623Y11689135D01*
X30922066Y11713318D01*
X30908282Y11731282D01*
X30904177Y11734432D01*
X30903639Y11734970D01*
X30880801Y11783946D01*
X30880500Y11790831D01*
X30880500Y15995142D01*
X30898982Y16045922D01*
X30903639Y16051003D01*
X31354253Y16501618D01*
X31403229Y16524456D01*
X31410114Y16524757D01*
X31410871Y16524757D01*
X31416006Y16524081D01*
X31438946Y16527101D01*
X31572768Y16544719D01*
X31573129Y16541974D01*
X31616987Y16538158D01*
X31655217Y16499966D01*
X31661959Y16456233D01*
X31652994Y16388136D01*
X31652318Y16383000D01*
X31672956Y16226238D01*
X31733464Y16080159D01*
X31736617Y16076050D01*
X31736618Y16076048D01*
X31755836Y16051003D01*
X31829718Y15954718D01*
X31833822Y15951569D01*
X31951048Y15861618D01*
X31951050Y15861617D01*
X31955159Y15858464D01*
X31959946Y15856481D01*
X31959948Y15856480D01*
X32100610Y15798216D01*
X32126239Y15781091D01*
X32469361Y15437969D01*
X32492199Y15388993D01*
X32492500Y15382108D01*
X32492500Y12263614D01*
X32474018Y12212834D01*
X32469361Y12207753D01*
X30541752Y10280145D01*
X30492776Y10257307D01*
X30485891Y10257006D01*
X30485134Y10257006D01*
X30480000Y10257682D01*
X30323238Y10237044D01*
X30318452Y10235061D01*
X30318450Y10235061D01*
X30280609Y10219386D01*
X30177159Y10176536D01*
X30173050Y10173383D01*
X30173048Y10173382D01*
X30086600Y10107048D01*
X30051718Y10080282D01*
X30043627Y10069738D01*
X29959237Y9959758D01*
X29955464Y9954841D01*
X29928384Y9889464D01*
X29903041Y9828280D01*
X29894956Y9808762D01*
X29874318Y9652000D01*
X23360500Y9652000D01*
X23360500Y20828000D01*
X25556318Y20828000D01*
X25576956Y20671238D01*
X25637464Y20525159D01*
X25733718Y20399718D01*
X25737822Y20396569D01*
X25855048Y20306618D01*
X25855050Y20306617D01*
X25859159Y20303464D01*
X25958163Y20262455D01*
X26000450Y20244939D01*
X26000452Y20244939D01*
X26005238Y20242956D01*
X26162000Y20222318D01*
X26318762Y20242956D01*
X26323548Y20244939D01*
X26323550Y20244939D01*
X26365837Y20262455D01*
X26464841Y20303464D01*
X26468950Y20306617D01*
X26468952Y20306618D01*
X26586178Y20396569D01*
X26590282Y20399718D01*
X26686536Y20525159D01*
X26747044Y20671238D01*
X26767682Y20828000D01*
X26759970Y20886578D01*
X26771666Y20939337D01*
X26782433Y20952751D01*
X28409436Y22579755D01*
X28422437Y22590257D01*
X28433152Y22597175D01*
X28453719Y22623264D01*
X28459897Y22630216D01*
X28462428Y22632747D01*
X28473307Y22647970D01*
X28475541Y22650945D01*
X28501350Y22683684D01*
X28505392Y22688811D01*
X28507547Y22694947D01*
X28508098Y22695824D01*
X28508926Y22697417D01*
X28509326Y22698373D01*
X28513111Y22703669D01*
X28526933Y22749887D01*
X28528082Y22753422D01*
X28539965Y22787258D01*
X28544055Y22798906D01*
X28544500Y22804044D01*
X28544500Y22805712D01*
X28544845Y22809783D01*
X28546544Y22815464D01*
X28544561Y22865937D01*
X28544500Y22869036D01*
X28544500Y23197095D01*
X28562982Y23247875D01*
X28575408Y23259770D01*
X28618177Y23292588D01*
X28618178Y23292589D01*
X28622282Y23295738D01*
X28685343Y23377921D01*
X28715382Y23417068D01*
X28715383Y23417070D01*
X28718536Y23421179D01*
X28779044Y23567258D01*
X28795851Y23694920D01*
X28799006Y23718885D01*
X28799682Y23724020D01*
X28779044Y23880782D01*
X28771042Y23900102D01*
X28748830Y23953725D01*
X28718536Y24026861D01*
X28694056Y24058765D01*
X28633929Y24137123D01*
X28622282Y24152302D01*
X28525876Y24226277D01*
X28500952Y24245402D01*
X28500950Y24245403D01*
X28496841Y24248556D01*
X28393391Y24291406D01*
X28355550Y24307081D01*
X28355548Y24307081D01*
X28350762Y24309064D01*
X28194000Y24329702D01*
X28037238Y24309064D01*
X28032452Y24307081D01*
X28032450Y24307081D01*
X27994609Y24291406D01*
X27891159Y24248556D01*
X27887050Y24245403D01*
X27887048Y24245402D01*
X27862124Y24226277D01*
X27765718Y24152302D01*
X27754071Y24137123D01*
X27693945Y24058765D01*
X27669464Y24026861D01*
X27639170Y23953725D01*
X27616959Y23900102D01*
X27608956Y23880782D01*
X27588318Y23724020D01*
X27588994Y23718885D01*
X27592149Y23694920D01*
X27608956Y23567258D01*
X27669464Y23421179D01*
X27672617Y23417070D01*
X27672618Y23417068D01*
X27702657Y23377921D01*
X27765718Y23295738D01*
X27769822Y23292589D01*
X27769823Y23292588D01*
X27812592Y23259770D01*
X27841627Y23214193D01*
X27843500Y23197095D01*
X27843500Y23037904D01*
X27825018Y22987124D01*
X27820361Y22982043D01*
X26286751Y21448433D01*
X26237775Y21425595D01*
X26220579Y21425970D01*
X26162000Y21433682D01*
X26005238Y21413044D01*
X26000452Y21411061D01*
X26000450Y21411061D01*
X25962609Y21395386D01*
X25859159Y21352536D01*
X25855050Y21349383D01*
X25855048Y21349382D01*
X25758514Y21275309D01*
X25733718Y21256282D01*
X25637464Y21130841D01*
X25576956Y20984762D01*
X25556318Y20828000D01*
X23360500Y20828000D01*
X23360500Y24954075D01*
X23362448Y24971509D01*
X23362775Y24972954D01*
X23362775Y24972955D01*
X23364018Y24978448D01*
X23360652Y25032705D01*
X23360500Y25037597D01*
X23360500Y25054940D01*
X23358783Y25066933D01*
X23358139Y25073224D01*
X23355490Y25115916D01*
X23355490Y25115917D01*
X23355141Y25121538D01*
X23350962Y25133113D01*
X23347068Y25148733D01*
X23346928Y25149710D01*
X23345323Y25160918D01*
X23327871Y25199302D01*
X23325283Y25204994D01*
X23322893Y25210867D01*
X23308372Y25251090D01*
X23306460Y25256387D01*
X23303137Y25260936D01*
X23299200Y25266326D01*
X23291079Y25280223D01*
X23288315Y25286301D01*
X23285984Y25291428D01*
X23254373Y25328114D01*
X23250444Y25333063D01*
X23243278Y25342872D01*
X23241478Y25345336D01*
X23229504Y25357310D01*
X23225517Y25361603D01*
X23196075Y25395772D01*
X23192400Y25400037D01*
X23183410Y25405864D01*
X23170518Y25416296D01*
X22575639Y26011175D01*
X22552801Y26060151D01*
X22552500Y26067036D01*
X22552500Y27070748D01*
X22540867Y27129231D01*
X22536546Y27135698D01*
X22536545Y27135700D01*
X22500872Y27189087D01*
X22496552Y27195552D01*
X22490087Y27199872D01*
X22436700Y27235545D01*
X22436698Y27235546D01*
X22430231Y27239867D01*
X22409306Y27244029D01*
X22375560Y27250742D01*
X22375557Y27250742D01*
X22371748Y27251500D01*
X20808252Y27251500D01*
X20804443Y27250742D01*
X20804440Y27250742D01*
X20770694Y27244029D01*
X20749769Y27239867D01*
X20743302Y27235546D01*
X20743300Y27235545D01*
X20689913Y27199872D01*
X20683448Y27195552D01*
X20679128Y27189087D01*
X20643455Y27135700D01*
X20643454Y27135698D01*
X20639133Y27129231D01*
X20627500Y27070748D01*
X20627500Y25507252D01*
X20639133Y25448769D01*
X20643454Y25442302D01*
X20643455Y25442300D01*
X20669650Y25403098D01*
X20683448Y25382448D01*
X20689913Y25378128D01*
X20743300Y25342455D01*
X20743302Y25342454D01*
X20749769Y25338133D01*
X20770694Y25333971D01*
X20804440Y25327258D01*
X20804443Y25327258D01*
X20808252Y25326500D01*
X21811964Y25326500D01*
X21862744Y25308018D01*
X21867825Y25303361D01*
X22324825Y24846361D01*
X22347663Y24797385D01*
X22333677Y24745187D01*
X22289411Y24714192D01*
X22268964Y24711500D01*
X20808252Y24711500D01*
X20804443Y24710742D01*
X20804440Y24710742D01*
X20770694Y24704029D01*
X20749769Y24699867D01*
X20743302Y24695546D01*
X20743300Y24695545D01*
X20689913Y24659872D01*
X20683448Y24655552D01*
X20679128Y24649087D01*
X20643455Y24595700D01*
X20643454Y24595698D01*
X20639133Y24589231D01*
X20636874Y24577874D01*
X20632998Y24558386D01*
X20627500Y24530748D01*
X20627500Y22967252D01*
X20639133Y22908769D01*
X20643454Y22902302D01*
X20643455Y22902300D01*
X20667755Y22865934D01*
X20683448Y22842448D01*
X20689913Y22838128D01*
X20743300Y22802455D01*
X20743302Y22802454D01*
X20749769Y22798133D01*
X20769461Y22794216D01*
X20804440Y22787258D01*
X20804443Y22787258D01*
X20808252Y22786500D01*
X22280500Y22786500D01*
X22331280Y22768018D01*
X22358300Y22721218D01*
X22359500Y22707500D01*
X22359500Y22250500D01*
X22341018Y22199720D01*
X22294218Y22172700D01*
X22280500Y22171500D01*
X20808252Y22171500D01*
X20804443Y22170742D01*
X20804440Y22170742D01*
X20770694Y22164029D01*
X20749769Y22159867D01*
X20743302Y22155546D01*
X20743300Y22155545D01*
X20689913Y22119872D01*
X20683448Y22115552D01*
X20679128Y22109087D01*
X20643455Y22055700D01*
X20643454Y22055698D01*
X20639133Y22049231D01*
X20627500Y21990748D01*
X20627500Y20427252D01*
X20200000Y20427252D01*
X20200000Y27813000D01*
X23016318Y27813000D01*
X23036956Y27656238D01*
X23097464Y27510159D01*
X23100617Y27506050D01*
X23100618Y27506048D01*
X23119384Y27481592D01*
X23193718Y27384718D01*
X23197822Y27381569D01*
X23315048Y27291618D01*
X23315050Y27291617D01*
X23319159Y27288464D01*
X23408398Y27251500D01*
X23460450Y27229939D01*
X23460452Y27229939D01*
X23465238Y27227956D01*
X23622000Y27207318D01*
X23778762Y27227956D01*
X23783548Y27229939D01*
X23783550Y27229939D01*
X23835602Y27251500D01*
X23924841Y27288464D01*
X23928950Y27291617D01*
X23928952Y27291618D01*
X24046178Y27381569D01*
X24050282Y27384718D01*
X24124616Y27481592D01*
X24170192Y27510627D01*
X24187291Y27512500D01*
X26258807Y27512500D01*
X26309587Y27494018D01*
X26314668Y27489361D01*
X29860797Y23943232D01*
X29864211Y23939277D01*
X29866298Y23935008D01*
X29871644Y23930049D01*
X29902863Y23901089D01*
X29904997Y23899032D01*
X29919000Y23885029D01*
X29922007Y23882966D01*
X29924125Y23881206D01*
X29927352Y23878372D01*
X29948369Y23858876D01*
X29955144Y23856173D01*
X29961126Y23853786D01*
X29976540Y23845555D01*
X29987869Y23837784D01*
X29994964Y23836100D01*
X29994967Y23836099D01*
X30015213Y23831295D01*
X30026245Y23827807D01*
X30052345Y23817394D01*
X30058638Y23816777D01*
X30067150Y23816777D01*
X30085390Y23814642D01*
X30096789Y23811937D01*
X30104020Y23812921D01*
X30127048Y23816055D01*
X30137701Y23816777D01*
X33010781Y23816777D01*
X33061561Y23798295D01*
X33073456Y23785869D01*
X33164610Y23667075D01*
X33168714Y23663926D01*
X33285940Y23573975D01*
X33285942Y23573974D01*
X33290051Y23570821D01*
X33393501Y23527971D01*
X33431342Y23512296D01*
X33431344Y23512296D01*
X33436130Y23510313D01*
X33592892Y23489675D01*
X33749654Y23510313D01*
X33754440Y23512296D01*
X33754442Y23512296D01*
X33792283Y23527971D01*
X33895733Y23570821D01*
X33899842Y23573974D01*
X33899844Y23573975D01*
X34017070Y23663926D01*
X34021174Y23667075D01*
X34068810Y23729155D01*
X34114274Y23788405D01*
X34114275Y23788407D01*
X34117428Y23792516D01*
X34121114Y23801414D01*
X34157618Y23841256D01*
X34211195Y23848312D01*
X34256773Y23819279D01*
X34272424Y23781496D01*
X34282666Y23703705D01*
X34290350Y23645337D01*
X34350858Y23499258D01*
X34354011Y23495149D01*
X34354012Y23495147D01*
X34358211Y23489675D01*
X34447112Y23373817D01*
X34451216Y23370668D01*
X34568442Y23280717D01*
X34568444Y23280716D01*
X34572553Y23277563D01*
X34672764Y23236054D01*
X34713844Y23219038D01*
X34713846Y23219038D01*
X34718632Y23217055D01*
X34875394Y23196417D01*
X35032156Y23217055D01*
X35036942Y23219038D01*
X35036944Y23219038D01*
X35078024Y23236054D01*
X35178235Y23277563D01*
X35182344Y23280716D01*
X35182346Y23280717D01*
X35299572Y23370668D01*
X35303676Y23373817D01*
X35392577Y23489675D01*
X35396776Y23495147D01*
X35396777Y23495149D01*
X35399930Y23499258D01*
X35460438Y23645337D01*
X35481076Y23802099D01*
X35460438Y23958861D01*
X35453233Y23976257D01*
X35432271Y24026861D01*
X35399930Y24104940D01*
X35375236Y24137123D01*
X35306825Y24226277D01*
X35303676Y24230381D01*
X35277406Y24250539D01*
X35182346Y24323481D01*
X35182344Y24323482D01*
X35178235Y24326635D01*
X35074785Y24369485D01*
X35036944Y24385160D01*
X35036942Y24385160D01*
X35032156Y24387143D01*
X34875394Y24407781D01*
X34870259Y24407105D01*
X34870258Y24407105D01*
X34754330Y24391843D01*
X34701572Y24403539D01*
X34688158Y24414306D01*
X34111631Y24990833D01*
X34108217Y24994788D01*
X34106130Y24999057D01*
X34069565Y25032976D01*
X34067431Y25035033D01*
X34053428Y25049036D01*
X34050421Y25051099D01*
X34048303Y25052859D01*
X34045076Y25055693D01*
X34024059Y25075189D01*
X34017286Y25077891D01*
X34017283Y25077893D01*
X34011300Y25080280D01*
X33995888Y25088508D01*
X33984559Y25096280D01*
X33977464Y25097964D01*
X33977461Y25097965D01*
X33957219Y25102768D01*
X33946192Y25106255D01*
X33920083Y25116671D01*
X33913790Y25117288D01*
X33905278Y25117288D01*
X33887039Y25119423D01*
X33875639Y25122128D01*
X33868408Y25121144D01*
X33845380Y25118010D01*
X33834727Y25117288D01*
X31347406Y25117288D01*
X31296626Y25135770D01*
X31291545Y25140427D01*
X28806207Y27625764D01*
X28783369Y27674740D01*
X28783744Y27691936D01*
X28799006Y27807864D01*
X28799006Y27807865D01*
X28799682Y27813000D01*
X28779044Y27969762D01*
X28718536Y28115841D01*
X28622282Y28241282D01*
X28546411Y28299500D01*
X28500952Y28334382D01*
X28500950Y28334383D01*
X28496841Y28337536D01*
X28393391Y28380386D01*
X28355550Y28396061D01*
X28355548Y28396061D01*
X28350762Y28398044D01*
X28194000Y28418682D01*
X28037238Y28398044D01*
X28032452Y28396061D01*
X28032450Y28396061D01*
X27994609Y28380386D01*
X27891159Y28337536D01*
X27887050Y28334383D01*
X27887048Y28334382D01*
X27841589Y28299500D01*
X27765718Y28241282D01*
X27669464Y28115841D01*
X27608956Y27969762D01*
X27588318Y27813000D01*
X27608956Y27656238D01*
X27669464Y27510159D01*
X27672617Y27506050D01*
X27672618Y27506048D01*
X27691384Y27481592D01*
X27765718Y27384718D01*
X27769822Y27381569D01*
X27887048Y27291618D01*
X27887050Y27291617D01*
X27891159Y27288464D01*
X27980398Y27251500D01*
X28032450Y27229939D01*
X28032452Y27229939D01*
X28037238Y27227956D01*
X28194000Y27207318D01*
X28199135Y27207994D01*
X28199136Y27207994D01*
X28315064Y27223256D01*
X28367822Y27211560D01*
X28381236Y27200793D01*
X30939286Y24642743D01*
X30942700Y24638788D01*
X30944787Y24634519D01*
X30950133Y24629560D01*
X30981352Y24600600D01*
X30983486Y24598543D01*
X30997489Y24584540D01*
X31000496Y24582477D01*
X31002614Y24580717D01*
X31005841Y24577883D01*
X31024119Y24560928D01*
X31026859Y24558386D01*
X31025943Y24557398D01*
X31054233Y24520795D01*
X31052063Y24466799D01*
X31015694Y24426830D01*
X30978972Y24417777D01*
X30268917Y24417777D01*
X30218137Y24436259D01*
X30213056Y24440916D01*
X26666926Y27987045D01*
X26663512Y27991000D01*
X26661425Y27995269D01*
X26624860Y28029188D01*
X26622726Y28031245D01*
X26608723Y28045248D01*
X26605716Y28047311D01*
X26603598Y28049071D01*
X26600371Y28051905D01*
X26579354Y28071401D01*
X26572581Y28074103D01*
X26572578Y28074105D01*
X26566595Y28076492D01*
X26551183Y28084720D01*
X26539854Y28092492D01*
X26532759Y28094176D01*
X26532756Y28094177D01*
X26512514Y28098980D01*
X26501487Y28102467D01*
X26475378Y28112883D01*
X26469085Y28113500D01*
X26460573Y28113500D01*
X26442334Y28115635D01*
X26430934Y28118340D01*
X26423703Y28117356D01*
X26400675Y28114222D01*
X26390022Y28113500D01*
X24187291Y28113500D01*
X24136511Y28131982D01*
X24124616Y28144408D01*
X24053431Y28237178D01*
X24050282Y28241282D01*
X23974411Y28299500D01*
X23928952Y28334382D01*
X23928950Y28334383D01*
X23924841Y28337536D01*
X23821391Y28380386D01*
X23783550Y28396061D01*
X23783548Y28396061D01*
X23778762Y28398044D01*
X23622000Y28418682D01*
X23465238Y28398044D01*
X23460452Y28396061D01*
X23460450Y28396061D01*
X23382817Y28363904D01*
X23328829Y28361546D01*
X23323200Y28365865D01*
X23300385Y28323403D01*
X23295877Y28319671D01*
X23193718Y28241282D01*
X23097464Y28115841D01*
X23036956Y27969762D01*
X23016318Y27813000D01*
X20200000Y27813000D01*
X20200000Y29721000D01*
X20218482Y29771780D01*
X20265282Y29798800D01*
X20279000Y29800000D01*
X20742124Y29800000D01*
X20792904Y29781518D01*
G37*
%TD.AperFunction*%
%TD*%
M02*
