M48
; DRILL file {KiCad 6.0.4-6f826c9f35~116~ubuntu20.04.1} date Wed May 25 15:37:38 2022
; FORMAT={-:-/ absolute / metric / decimal}
; #@! TF.CreationDate,2022-05-25T15:37:38+00:00
; #@! TF.GenerationSoftware,Kicad,Pcbnew,6.0.4-6f826c9f35~116~ubuntu20.04.1
; #@! TF.FileFunction,Plated,1,2,PTH
FMAT,2
METRIC
; #@! TA.AperFunction,Plated,PTH,ComponentDrill
T1C0.200
; #@! TA.AperFunction,Plated,PTH,ViaDrill
T2C0.400
%
G90
G05
T1
X138.441Y-83.305
X138.441Y-84.855
X138.441Y-86.405
X139.641Y-83.305
X139.641Y-84.855
X139.641Y-86.405
X140.841Y-83.305
X140.841Y-84.855
X140.841Y-86.405
X142.041Y-83.305
X142.041Y-84.855
X142.041Y-86.405
X152.861Y-93.38
X153.461Y-93.38
X154.061Y-93.38
T2
X126.5Y-91.75
X126.525Y-78.657
X126.525Y-79.775
X126.525Y-80.994
X126.575Y-93.767
X126.575Y-94.825
X127.025Y-99.992
X127.025Y-101.05
X127.6Y-93.792
X128.455Y-100.349
X129.268Y-78.505
X129.525Y-93.475
X129.573Y-102.635
X129.6Y-101.575
X129.954Y-92.475
X130.589Y-102.635
X131.097Y-92.475
X131.148Y-78.505
X131.249Y-81.959
X131.707Y-87.522
X131.732Y-102.635
X131.75Y-90.5
X131.757Y-89.021
X131.808Y-85.211
X131.859Y-86.252
X131.986Y-76.092
X132.113Y-92.475
X132.621Y-103.778
X133.256Y-76.092
X133.281Y-84.855
X133.383Y-92.094
X133.51Y-83.585
X133.535Y-77.489
X133.637Y-81.197
X133.891Y-103.778
X134.526Y-76.092
X134.653Y-92.221
X135.161Y-103.778
X135.669Y-76.092
X135.669Y-77.108
X135.923Y-93.618
X135.923Y-95.269
X136.05Y-85.617
X136.05Y-96.666
X136.101Y-103.245
X136.685Y-77.743
X136.812Y-89.808
X136.859Y-87.791
X137.447Y-97.174
X137.574Y-99.587
X137.693Y-77.271
X137.701Y-88.538
X138.034Y-80.2
X138.47Y-79.3
X138.757Y-88.578
X138.768Y-77.692
X138.844Y-97.428
X138.844Y-98.444
X138.844Y-99.587
X139.757Y-88.604
X140.114Y-103.651
X140.368Y-75.965
X140.385Y-80.962
X140.669Y-93.237
X141.19Y-88.701
X141.384Y-103.651
X141.511Y-96.92
X141.511Y-98.241
X141.511Y-99.587
X142.104Y-75.965
X142.146Y-92.856
X142.148Y-88.987
X142.654Y-103.651
X142.908Y-97.809
X142.908Y-99.587
X142.933Y-96.412
X143.107Y-81.369
X143.238Y-94.05
X143.289Y-92.729
X143.797Y-103.651
X143.839Y-75.965
X144.051Y-88.538
X144.432Y-92.729
X144.94Y-100.73
X145.067Y-103.651
X145.575Y-75.965
X145.829Y-92.983
X146.337Y-102.381
X146.464Y-100.349
X146.591Y-77.235
X146.972Y-93.491
X146.972Y-94.634
X146.972Y-96.158
X146.972Y-97.555
X146.972Y-98.952
X147.353Y-78.505
X147.861Y-102.381
X147.988Y-87.522
X148.496Y-95.015
X148.496Y-96.031
X148.496Y-97.174
X148.496Y-98.317
X148.623Y-78.505
X148.725Y-80.131
X148.75Y-89.173
X148.75Y-92.602
X149.512Y-79.394
X149.512Y-85.109
X149.512Y-99.079
X149.766Y-103.016
X150.528Y-76.092
X150.528Y-85.871
X150.528Y-99.841
X150.655Y-101.365
X150.782Y-78.124
X151.29Y-86.633
X151.544Y-92.475
X151.544Y-93.745
X151.544Y-95.142
X151.671Y-96.158
X151.798Y-83.458
X151.798Y-103.651
X151.925Y-76.092
X152.052Y-87.522
X152.052Y-88.665
X152.052Y-89.833
X152.052Y-101.873
X152.433Y-78.124
X152.433Y-97.047
X152.5Y-86.5
X153.195Y-103.651
X153.449Y-76.092
X153.449Y-100.095
X153.449Y-101.365
X153.576Y-97.174
X153.83Y-78.124
X154.592Y-100.095
X154.634Y-97.174
X154.719Y-103.651
X154.846Y-87.141
X154.846Y-88.157
X154.846Y-89.173
X155.227Y-76.092
X155.227Y-78.505
X155.633Y-80.029
X155.693Y-97.174
X155.735Y-92.602
X155.735Y-100.095
X156.075Y-85.875
X156.116Y-103.27
X156.751Y-97.174
X156.751Y-100.095
X156.878Y-81.045
X156.878Y-82.188
X157.005Y-89.935
X157.259Y-94.507
X157.259Y-102.254
X157.809Y-97.174
X157.894Y-100.095
X158.529Y-102.254
X158.675Y-80.925
X158.743Y-79.721
X158.783Y-86.76
X158.783Y-88.03
X158.868Y-97.174
X158.91Y-94.507
X159.037Y-100.095
X159.545Y-103.143
X159.926Y-97.174
X160.275Y-80.8
X160.307Y-100.095
X160.688Y-76.346
X160.942Y-103.651
X161.293Y-85.671
X161.323Y-99.206
X161.35Y-84.7
X161.831Y-80.537
X161.831Y-81.807
X161.958Y-79.394
X161.958Y-100.222
X161.993Y-83.021
X162.0Y-91.0
X162.085Y-98.444
X162.212Y-76.346
X162.212Y-87.776
X162.293Y-94.871
X162.343Y-84.071
X162.343Y-86.271
X162.571Y-93.271
X162.593Y-103.651
X163.228Y-101.111
X163.482Y-76.346
X163.482Y-78.886
X164.244Y-103.651
X164.498Y-101.111
X164.879Y-78.886
X164.879Y-79.902
X164.879Y-81.045
X164.879Y-83.966
X164.879Y-85.109
X164.879Y-86.252
X164.879Y-87.649
X164.879Y-92.729
X164.879Y-94.126
X164.879Y-95.523
X165.006Y-76.346
X165.006Y-99.968
X165.26Y-88.792
X165.26Y-90.062
X165.26Y-91.332
X165.768Y-103.651
X166.043Y-77.071
X166.657Y-102.889
X167.093Y-77.771
X167.673Y-102.221
X167.8Y-92.729
X168.054Y-87.268
X168.555Y-77.771
X169.057Y-102.221
X169.451Y-89.046
X169.451Y-91.205
X169.451Y-92.729
X169.641Y-87.268
X170.017Y-77.771
X170.441Y-102.221
X171.102Y-92.729
X171.229Y-87.268
X171.48Y-77.771
X171.825Y-102.221
X172.753Y-92.729
X172.816Y-87.268
X172.942Y-77.771
X173.209Y-102.221
X174.404Y-77.771
X174.404Y-87.268
X174.404Y-92.729
X174.593Y-102.221
T0
M30
