%TF.GenerationSoftware,KiCad,Pcbnew,6.0.4-6f826c9f35~116~ubuntu20.04.1*%
%TF.CreationDate,2022-05-05T10:16:54+00:00*%
%TF.ProjectId,TFSIK01A,54465349-4b30-4314-912e-6b696361645f,REV*%
%TF.SameCoordinates,Original*%
%TF.FileFunction,Legend,Top*%
%TF.FilePolarity,Positive*%
%FSLAX46Y46*%
G04 Gerber Fmt 4.6, Leading zero omitted, Abs format (unit mm)*
G04 Created by KiCad (PCBNEW 6.0.4-6f826c9f35~116~ubuntu20.04.1) date 2022-05-05 10:16:54*
%MOMM*%
%LPD*%
G01*
G04 APERTURE LIST*
%ADD10C,0.300000*%
%ADD11C,0.150000*%
%ADD12R,1.524000X1.524000*%
G04 APERTURE END LIST*
D10*
X61845000Y20071428D02*
X61845000Y20785714D01*
X62273571Y19928571D02*
X60773571Y20428571D01*
X62273571Y20928571D01*
X62273571Y21428571D02*
X60773571Y21428571D01*
X62273571Y22285714D01*
X60773571Y22285714D01*
X60773571Y22785714D02*
X60773571Y23642857D01*
X62273571Y23214285D02*
X60773571Y23214285D01*
X62273571Y24928571D02*
X62273571Y24071428D01*
X62273571Y24500000D02*
X60773571Y24500000D01*
X60987857Y24357142D01*
X61130714Y24214285D01*
X61202142Y24071428D01*
X24650285Y20673285D02*
X24578857Y20601857D01*
X24364571Y20530428D01*
X24221714Y20530428D01*
X24007428Y20601857D01*
X23864571Y20744714D01*
X23793142Y20887571D01*
X23721714Y21173285D01*
X23721714Y21387571D01*
X23793142Y21673285D01*
X23864571Y21816142D01*
X24007428Y21959000D01*
X24221714Y22030428D01*
X24364571Y22030428D01*
X24578857Y21959000D01*
X24650285Y21887571D01*
X25221714Y21887571D02*
X25293142Y21959000D01*
X25436000Y22030428D01*
X25793142Y22030428D01*
X25936000Y21959000D01*
X26007428Y21887571D01*
X26078857Y21744714D01*
X26078857Y21601857D01*
X26007428Y21387571D01*
X25150285Y20530428D01*
X26078857Y20530428D01*
X26721714Y20530428D02*
X26721714Y22030428D01*
X27078857Y22030428D01*
X27293142Y21959000D01*
X27436000Y21816142D01*
X27507428Y21673285D01*
X27578857Y21387571D01*
X27578857Y21173285D01*
X27507428Y20887571D01*
X27436000Y20744714D01*
X27293142Y20601857D01*
X27078857Y20530428D01*
X26721714Y20530428D01*
X45200714Y7044428D02*
X46057857Y7044428D01*
X45629285Y5544428D02*
X45629285Y7044428D01*
X47057857Y6330142D02*
X46557857Y6330142D01*
X46557857Y5544428D02*
X46557857Y7044428D01*
X47272142Y7044428D01*
X47772142Y5615857D02*
X47986428Y5544428D01*
X48343571Y5544428D01*
X48486428Y5615857D01*
X48557857Y5687285D01*
X48629285Y5830142D01*
X48629285Y5973000D01*
X48557857Y6115857D01*
X48486428Y6187285D01*
X48343571Y6258714D01*
X48057857Y6330142D01*
X47915000Y6401571D01*
X47843571Y6473000D01*
X47772142Y6615857D01*
X47772142Y6758714D01*
X47843571Y6901571D01*
X47915000Y6973000D01*
X48057857Y7044428D01*
X48415000Y7044428D01*
X48629285Y6973000D01*
X49272142Y5544428D02*
X49272142Y7044428D01*
X49986428Y5544428D02*
X49986428Y7044428D01*
X50843571Y5544428D02*
X50200714Y6401571D01*
X50843571Y7044428D02*
X49986428Y6187285D01*
X51772142Y7044428D02*
X51915000Y7044428D01*
X52057857Y6973000D01*
X52129285Y6901571D01*
X52200714Y6758714D01*
X52272142Y6473000D01*
X52272142Y6115857D01*
X52200714Y5830142D01*
X52129285Y5687285D01*
X52057857Y5615857D01*
X51915000Y5544428D01*
X51772142Y5544428D01*
X51629285Y5615857D01*
X51557857Y5687285D01*
X51486428Y5830142D01*
X51415000Y6115857D01*
X51415000Y6473000D01*
X51486428Y6758714D01*
X51557857Y6901571D01*
X51629285Y6973000D01*
X51772142Y7044428D01*
X53700714Y5544428D02*
X52843571Y5544428D01*
X53272142Y5544428D02*
X53272142Y7044428D01*
X53129285Y6830142D01*
X52986428Y6687285D01*
X52843571Y6615857D01*
X54272142Y5973000D02*
X54986428Y5973000D01*
X54129285Y5544428D02*
X54629285Y7044428D01*
X55129285Y5544428D01*
X23721714Y24070428D02*
X24793142Y24070428D01*
X24150285Y24713285D02*
X23721714Y22784714D01*
X24650285Y23427571D02*
X23578857Y23427571D01*
X24221714Y22784714D02*
X24650285Y24713285D01*
X26150285Y23070428D02*
X25650285Y23784714D01*
X25293142Y23070428D02*
X25293142Y24570428D01*
X25864571Y24570428D01*
X26007428Y24499000D01*
X26078857Y24427571D01*
X26150285Y24284714D01*
X26150285Y24070428D01*
X26078857Y23927571D01*
X26007428Y23856142D01*
X25864571Y23784714D01*
X25293142Y23784714D01*
X26721714Y23141857D02*
X26936000Y23070428D01*
X27293142Y23070428D01*
X27436000Y23141857D01*
X27507428Y23213285D01*
X27578857Y23356142D01*
X27578857Y23499000D01*
X27507428Y23641857D01*
X27436000Y23713285D01*
X27293142Y23784714D01*
X27007428Y23856142D01*
X26864571Y23927571D01*
X26793142Y23999000D01*
X26721714Y24141857D01*
X26721714Y24284714D01*
X26793142Y24427571D01*
X26864571Y24499000D01*
X27007428Y24570428D01*
X27364571Y24570428D01*
X27578857Y24499000D01*
X28007428Y24570428D02*
X28864571Y24570428D01*
X28436000Y23070428D02*
X28436000Y24570428D01*
X24507428Y27110428D02*
X23793142Y27110428D01*
X23721714Y26396142D01*
X23793142Y26467571D01*
X23936000Y26539000D01*
X24293142Y26539000D01*
X24436000Y26467571D01*
X24507428Y26396142D01*
X24578857Y26253285D01*
X24578857Y25896142D01*
X24507428Y25753285D01*
X24436000Y25681857D01*
X24293142Y25610428D01*
X23936000Y25610428D01*
X23793142Y25681857D01*
X23721714Y25753285D01*
X25007428Y27110428D02*
X25507428Y25610428D01*
X26007428Y27110428D01*
X24578857Y19419000D02*
X24436000Y19490428D01*
X24221714Y19490428D01*
X24007428Y19419000D01*
X23864571Y19276142D01*
X23793142Y19133285D01*
X23721714Y18847571D01*
X23721714Y18633285D01*
X23793142Y18347571D01*
X23864571Y18204714D01*
X24007428Y18061857D01*
X24221714Y17990428D01*
X24364571Y17990428D01*
X24578857Y18061857D01*
X24650285Y18133285D01*
X24650285Y18633285D01*
X24364571Y18633285D01*
X25293142Y17990428D02*
X25293142Y19490428D01*
X26150285Y17990428D01*
X26150285Y19490428D01*
X26864571Y17990428D02*
X26864571Y19490428D01*
X27221714Y19490428D01*
X27436000Y19419000D01*
X27578857Y19276142D01*
X27650285Y19133285D01*
X27721714Y18847571D01*
X27721714Y18633285D01*
X27650285Y18347571D01*
X27578857Y18204714D01*
X27436000Y18061857D01*
X27221714Y17990428D01*
X26864571Y17990428D01*
X47678571Y9978571D02*
X47750000Y10050000D01*
X47892857Y10121428D01*
X48250000Y10121428D01*
X48392857Y10050000D01*
X48464285Y9978571D01*
X48535714Y9835714D01*
X48535714Y9692857D01*
X48464285Y9478571D01*
X47607142Y8621428D01*
X48535714Y8621428D01*
X49464285Y10121428D02*
X49607142Y10121428D01*
X49750000Y10050000D01*
X49821428Y9978571D01*
X49892857Y9835714D01*
X49964285Y9550000D01*
X49964285Y9192857D01*
X49892857Y8907142D01*
X49821428Y8764285D01*
X49750000Y8692857D01*
X49607142Y8621428D01*
X49464285Y8621428D01*
X49321428Y8692857D01*
X49250000Y8764285D01*
X49178571Y8907142D01*
X49107142Y9192857D01*
X49107142Y9550000D01*
X49178571Y9835714D01*
X49250000Y9978571D01*
X49321428Y10050000D01*
X49464285Y10121428D01*
X50535714Y9978571D02*
X50607142Y10050000D01*
X50750000Y10121428D01*
X51107142Y10121428D01*
X51250000Y10050000D01*
X51321428Y9978571D01*
X51392857Y9835714D01*
X51392857Y9692857D01*
X51321428Y9478571D01*
X50464285Y8621428D01*
X51392857Y8621428D01*
X51964285Y9978571D02*
X52035714Y10050000D01*
X52178571Y10121428D01*
X52535714Y10121428D01*
X52678571Y10050000D01*
X52750000Y9978571D01*
X52821428Y9835714D01*
X52821428Y9692857D01*
X52750000Y9478571D01*
X51892857Y8621428D01*
X52821428Y8621428D01*
X61845000Y5071428D02*
X61845000Y5785714D01*
X62273571Y4928571D02*
X60773571Y5428571D01*
X62273571Y5928571D01*
X62273571Y6428571D02*
X60773571Y6428571D01*
X62273571Y7285714D01*
X60773571Y7285714D01*
X60773571Y7785714D02*
X60773571Y8642857D01*
X62273571Y8214285D02*
X60773571Y8214285D01*
X60916428Y9071428D02*
X60845000Y9142857D01*
X60773571Y9285714D01*
X60773571Y9642857D01*
X60845000Y9785714D01*
X60916428Y9857142D01*
X61059285Y9928571D01*
X61202142Y9928571D01*
X61416428Y9857142D01*
X62273571Y9000000D01*
X62273571Y9928571D01*
D11*
%TO.C,J2*%
X22860000Y27559000D02*
X22860000Y17399000D01*
X20320000Y27559000D02*
X22860000Y27559000D01*
X20320000Y17399000D02*
X20320000Y27559000D01*
X22860000Y17399000D02*
X20320000Y17399000D01*
%TD*%
D12*
%TO.C,J2*%
X21590000Y26289000D03*
X21590000Y23749000D03*
X21590000Y21209000D03*
X21590000Y18669000D03*
%TD*%
M02*
