%TF.GenerationSoftware,KiCad,Pcbnew,6.0.4-6f826c9f35~116~ubuntu20.04.1*%
%TF.CreationDate,2022-05-12T13:34:53+00:00*%
%TF.ProjectId,TFSIK01A,54465349-4b30-4314-912e-6b696361645f,REV*%
%TF.SameCoordinates,Original*%
%TF.FileFunction,Legend,Bot*%
%TF.FilePolarity,Positive*%
%FSLAX46Y46*%
G04 Gerber Fmt 4.6, Leading zero omitted, Abs format (unit mm)*
G04 Created by KiCad (PCBNEW 6.0.4-6f826c9f35~116~ubuntu20.04.1) date 2022-05-12 13:34:53*
%MOMM*%
%LPD*%
G01*
G04 APERTURE LIST*
%ADD10C,0.150000*%
%ADD11C,0.120000*%
%ADD12C,0.100000*%
%ADD13C,0.250000*%
%ADD14C,0.127000*%
%ADD15C,0.240000*%
G04 APERTURE END LIST*
D10*
%TO.C,L5*%
X46806380Y8502166D02*
X46806380Y8978357D01*
X45806380Y8978357D01*
X45806380Y7692642D02*
X45806380Y8168833D01*
X46282571Y8216452D01*
X46234952Y8168833D01*
X46187333Y8073595D01*
X46187333Y7835500D01*
X46234952Y7740261D01*
X46282571Y7692642D01*
X46377809Y7645023D01*
X46615904Y7645023D01*
X46711142Y7692642D01*
X46758761Y7740261D01*
X46806380Y7835500D01*
X46806380Y8073595D01*
X46758761Y8168833D01*
X46711142Y8216452D01*
%TO.C,D1*%
X21585180Y28220895D02*
X20585180Y28220895D01*
X20585180Y27982800D01*
X20632800Y27839942D01*
X20728038Y27744704D01*
X20823276Y27697085D01*
X21013752Y27649466D01*
X21156609Y27649466D01*
X21347085Y27697085D01*
X21442323Y27744704D01*
X21537561Y27839942D01*
X21585180Y27982800D01*
X21585180Y28220895D01*
X21585180Y26697085D02*
X21585180Y27268514D01*
X21585180Y26982800D02*
X20585180Y26982800D01*
X20728038Y27078038D01*
X20823276Y27173276D01*
X20870895Y27268514D01*
%TO.C,D2*%
X29665380Y28017695D02*
X28665380Y28017695D01*
X28665380Y27779600D01*
X28713000Y27636742D01*
X28808238Y27541504D01*
X28903476Y27493885D01*
X29093952Y27446266D01*
X29236809Y27446266D01*
X29427285Y27493885D01*
X29522523Y27541504D01*
X29617761Y27636742D01*
X29665380Y27779600D01*
X29665380Y28017695D01*
X28760619Y27065314D02*
X28713000Y27017695D01*
X28665380Y26922457D01*
X28665380Y26684361D01*
X28713000Y26589123D01*
X28760619Y26541504D01*
X28855857Y26493885D01*
X28951095Y26493885D01*
X29093952Y26541504D01*
X29665380Y27112933D01*
X29665380Y26493885D01*
%TO.C,L3*%
X49650166Y7420619D02*
X50126357Y7420619D01*
X50126357Y8420619D01*
X49412071Y8420619D02*
X48793023Y8420619D01*
X49126357Y8039666D01*
X48983500Y8039666D01*
X48888261Y7992047D01*
X48840642Y7944428D01*
X48793023Y7849190D01*
X48793023Y7611095D01*
X48840642Y7515857D01*
X48888261Y7468238D01*
X48983500Y7420619D01*
X49269214Y7420619D01*
X49364452Y7468238D01*
X49412071Y7515857D01*
%TO.C,J1*%
X23233333Y14697619D02*
X23233333Y13983333D01*
X23280952Y13840476D01*
X23376190Y13745238D01*
X23519047Y13697619D01*
X23614285Y13697619D01*
X22233333Y13697619D02*
X22804761Y13697619D01*
X22519047Y13697619D02*
X22519047Y14697619D01*
X22614285Y14554761D01*
X22709523Y14459523D01*
X22804761Y14411904D01*
%TO.C,R6*%
X21831580Y23217666D02*
X21355390Y23551000D01*
X21831580Y23789095D02*
X20831580Y23789095D01*
X20831580Y23408142D01*
X20879200Y23312904D01*
X20926819Y23265285D01*
X21022057Y23217666D01*
X21164914Y23217666D01*
X21260152Y23265285D01*
X21307771Y23312904D01*
X21355390Y23408142D01*
X21355390Y23789095D01*
X20831580Y22360523D02*
X20831580Y22551000D01*
X20879200Y22646238D01*
X20926819Y22693857D01*
X21069676Y22789095D01*
X21260152Y22836714D01*
X21641104Y22836714D01*
X21736342Y22789095D01*
X21783961Y22741476D01*
X21831580Y22646238D01*
X21831580Y22455761D01*
X21783961Y22360523D01*
X21736342Y22312904D01*
X21641104Y22265285D01*
X21403009Y22265285D01*
X21307771Y22312904D01*
X21260152Y22360523D01*
X21212533Y22455761D01*
X21212533Y22646238D01*
X21260152Y22741476D01*
X21307771Y22789095D01*
X21403009Y22836714D01*
%TO.C,D3*%
X25782495Y28351219D02*
X25782495Y29351219D01*
X25544400Y29351219D01*
X25401542Y29303600D01*
X25306304Y29208361D01*
X25258685Y29113123D01*
X25211066Y28922647D01*
X25211066Y28779790D01*
X25258685Y28589314D01*
X25306304Y28494076D01*
X25401542Y28398838D01*
X25544400Y28351219D01*
X25782495Y28351219D01*
X24877733Y29351219D02*
X24258685Y29351219D01*
X24592019Y28970266D01*
X24449161Y28970266D01*
X24353923Y28922647D01*
X24306304Y28875028D01*
X24258685Y28779790D01*
X24258685Y28541695D01*
X24306304Y28446457D01*
X24353923Y28398838D01*
X24449161Y28351219D01*
X24734876Y28351219D01*
X24830114Y28398838D01*
X24877733Y28446457D01*
%TO.C,U1*%
X38554523Y3717619D02*
X39582619Y3717619D01*
X39703571Y3657142D01*
X39764047Y3596666D01*
X39824523Y3475714D01*
X39824523Y3233809D01*
X39764047Y3112857D01*
X39703571Y3052380D01*
X39582619Y2991904D01*
X38554523Y2991904D01*
X39824523Y1721904D02*
X39824523Y2447619D01*
X39824523Y2084761D02*
X38554523Y2084761D01*
X38735952Y2205714D01*
X38856904Y2326666D01*
X38917380Y2447619D01*
%TO.C,L11*%
X56841380Y24184357D02*
X56841380Y24660547D01*
X55841380Y24660547D01*
X56841380Y23327214D02*
X56841380Y23898642D01*
X56841380Y23612928D02*
X55841380Y23612928D01*
X55984238Y23708166D01*
X56079476Y23803404D01*
X56127095Y23898642D01*
X56841380Y22374833D02*
X56841380Y22946261D01*
X56841380Y22660547D02*
X55841380Y22660547D01*
X55984238Y22755785D01*
X56079476Y22851023D01*
X56127095Y22946261D01*
%TO.C,J3*%
X58902380Y21283333D02*
X59616666Y21283333D01*
X59759523Y21330952D01*
X59854761Y21426190D01*
X59902380Y21569047D01*
X59902380Y21664285D01*
X58902380Y20902380D02*
X58902380Y20283333D01*
X59283333Y20616666D01*
X59283333Y20473809D01*
X59330952Y20378571D01*
X59378571Y20330952D01*
X59473809Y20283333D01*
X59711904Y20283333D01*
X59807142Y20330952D01*
X59854761Y20378571D01*
X59902380Y20473809D01*
X59902380Y20759523D01*
X59854761Y20854761D01*
X59807142Y20902380D01*
%TO.C,L7*%
X46806380Y14217166D02*
X46806380Y14693357D01*
X45806380Y14693357D01*
X45806380Y13979071D02*
X45806380Y13312404D01*
X46806380Y13740976D01*
%TO.C,J4*%
X58552380Y9633333D02*
X59266666Y9633333D01*
X59409523Y9680952D01*
X59504761Y9776190D01*
X59552380Y9919047D01*
X59552380Y10014285D01*
X58885714Y8728571D02*
X59552380Y8728571D01*
X58504761Y8966666D02*
X59219047Y9204761D01*
X59219047Y8585714D01*
%TO.C,Y2*%
X37126190Y29100009D02*
X37126190Y28623819D01*
X37459523Y29623819D02*
X37126190Y29100009D01*
X36792857Y29623819D01*
X36507142Y29528580D02*
X36459523Y29576200D01*
X36364285Y29623819D01*
X36126190Y29623819D01*
X36030952Y29576200D01*
X35983333Y29528580D01*
X35935714Y29433342D01*
X35935714Y29338104D01*
X35983333Y29195247D01*
X36554761Y28623819D01*
X35935714Y28623819D01*
D11*
%TO.C,C2*%
X48170220Y25783000D02*
X48451380Y25783000D01*
X48170220Y24763000D02*
X48451380Y24763000D01*
%TO.C,C32*%
X51281420Y18290000D02*
X51562580Y18290000D01*
X51281420Y17270000D02*
X51562580Y17270000D01*
%TO.C,L12*%
X57329000Y6169248D02*
X57329000Y6691752D01*
X58749000Y6169248D02*
X58749000Y6691752D01*
%TO.C,U9*%
X54339000Y9333000D02*
X54339000Y10733000D01*
X56659000Y10733000D02*
X56659000Y8833000D01*
%TO.C,C34*%
X48770000Y17158580D02*
X48770000Y16877420D01*
X47750000Y17158580D02*
X47750000Y16877420D01*
%TO.C,C19*%
X38610000Y14491580D02*
X38610000Y14210420D01*
X37590000Y14491580D02*
X37590000Y14210420D01*
%TO.C,C1*%
X28785452Y3605200D02*
X28262948Y3605200D01*
X28785452Y2135200D02*
X28262948Y2135200D01*
%TO.C,L5*%
X43994000Y8074248D02*
X43994000Y8596752D01*
X45414000Y8074248D02*
X45414000Y8596752D01*
%TO.C,D1*%
X22065000Y24806800D02*
X22065000Y27266800D01*
X23535000Y24806800D02*
X22065000Y24806800D01*
X23535000Y27266800D02*
X23535000Y24806800D01*
%TO.C,R22*%
X27319500Y23224258D02*
X27319500Y22749742D01*
X26274500Y23224258D02*
X26274500Y22749742D01*
%TO.C,R3*%
X28749258Y9002500D02*
X28274742Y9002500D01*
X28749258Y10047500D02*
X28274742Y10047500D01*
%TO.C,D2*%
X27535000Y27266800D02*
X27535000Y24806800D01*
X27535000Y24806800D02*
X26065000Y24806800D01*
X26065000Y24806800D02*
X26065000Y27266800D01*
%TO.C,U2*%
X37908000Y22676000D02*
X37433000Y22676000D01*
X37908000Y22201000D02*
X37908000Y22676000D01*
X37908000Y17931000D02*
X37908000Y17456000D01*
X37908000Y17456000D02*
X37433000Y17456000D01*
X31688000Y17931000D02*
X31688000Y17456000D01*
X31688000Y22201000D02*
X31688000Y22676000D01*
X31688000Y17456000D02*
X32163000Y17456000D01*
%TO.C,C13*%
X41425400Y23760820D02*
X41425400Y24041980D01*
X42445400Y23760820D02*
X42445400Y24041980D01*
%TO.C,L16*%
X49617752Y13641000D02*
X49095248Y13641000D01*
X49617752Y15061000D02*
X49095248Y15061000D01*
%TO.C,C26*%
X57529000Y18515420D02*
X57529000Y18796580D01*
X58549000Y18515420D02*
X58549000Y18796580D01*
D10*
%TO.C,C21*%
X30790000Y12612000D02*
X32440000Y12612000D01*
X30790000Y14312000D02*
X30790000Y12612000D01*
X33440000Y12612000D02*
X35090000Y12612000D01*
X35090000Y12612000D02*
X35090000Y14312000D01*
X32440000Y14312000D02*
X30790000Y14312000D01*
X35090000Y14312000D02*
X33440000Y14312000D01*
D11*
%TO.C,R1*%
X28685258Y5192500D02*
X28210742Y5192500D01*
X28685258Y6237500D02*
X28210742Y6237500D01*
%TO.C,C11*%
X44203219Y18494030D02*
X44402030Y18295219D01*
X43481970Y17772781D02*
X43680781Y17573970D01*
%TO.C,L3*%
X49744752Y5513000D02*
X49222248Y5513000D01*
X49744752Y6933000D02*
X49222248Y6933000D01*
%TO.C,C18*%
X29029252Y13743000D02*
X28506748Y13743000D01*
X29029252Y15213000D02*
X28506748Y15213000D01*
%TO.C,C20*%
X41048000Y14424252D02*
X41048000Y13901748D01*
X42518000Y14424252D02*
X42518000Y13901748D01*
%TO.C,C15*%
X40388000Y14504580D02*
X40388000Y14223420D01*
X39368000Y14504580D02*
X39368000Y14223420D01*
%TO.C,L13*%
X52020400Y12895948D02*
X52020400Y13418452D01*
X53440400Y12895948D02*
X53440400Y13418452D01*
%TO.C,J1*%
X24951000Y3815000D02*
X25941000Y3815000D01*
X20681000Y3285000D02*
X20681000Y11715000D01*
X23501000Y12985000D02*
X24951000Y12985000D01*
X24951000Y2015000D02*
X24951000Y3815000D01*
X24951000Y12985000D02*
X24951000Y11185000D01*
X23501000Y2015000D02*
X24951000Y2015000D01*
%TO.C,R6*%
X23331700Y23288258D02*
X23331700Y22813742D01*
X22286700Y23288258D02*
X22286700Y22813742D01*
%TO.C,C33*%
X51281420Y15619000D02*
X51562580Y15619000D01*
X51281420Y16639000D02*
X51562580Y16639000D01*
%TO.C,D3*%
X25535000Y27266800D02*
X25535000Y24806800D01*
X24065000Y24806800D02*
X24065000Y27266800D01*
X25535000Y24806800D02*
X24065000Y24806800D01*
%TO.C,R2*%
X28749258Y7097500D02*
X28274742Y7097500D01*
X28749258Y8142500D02*
X28274742Y8142500D01*
%TO.C,L10*%
X39472800Y22054452D02*
X39472800Y21531948D01*
X40892800Y22054452D02*
X40892800Y21531948D01*
D10*
%TO.C,U1*%
X38227000Y5080000D02*
X38227000Y2032000D01*
X38227000Y2032000D02*
X31115000Y2032000D01*
X31115000Y2032000D02*
X31115000Y5080000D01*
X38227000Y8890000D02*
X36703000Y11176000D01*
X32639000Y11176000D02*
X31115000Y8890000D01*
X38227000Y8128000D02*
X38227000Y8890000D01*
X36677600Y11150600D02*
X32613600Y11150600D01*
X31115000Y8890000D02*
X31115000Y8128000D01*
D12*
%TO.C,U3*%
X47018000Y12541000D02*
X47018000Y10541000D01*
X49018000Y10541000D02*
X49018000Y12541000D01*
D13*
X49543000Y10166000D02*
G75*
G03*
X49543000Y10166000I-125000J0D01*
G01*
D11*
%TO.C,C9*%
X44069580Y11686000D02*
X43788420Y11686000D01*
X44069580Y10666000D02*
X43788420Y10666000D01*
%TO.C,C14*%
X28575580Y18032000D02*
X28294420Y18032000D01*
X28575580Y19052000D02*
X28294420Y19052000D01*
%TO.C,C4*%
X53467580Y6733000D02*
X53186420Y6733000D01*
X53467580Y5713000D02*
X53186420Y5713000D01*
%TO.C,C7*%
X46099000Y5588580D02*
X46099000Y5307420D01*
X47119000Y5588580D02*
X47119000Y5307420D01*
%TO.C,C3*%
X40130400Y10432148D02*
X40130400Y10954652D01*
X38660400Y10432148D02*
X38660400Y10954652D01*
%TO.C,C31*%
X51662420Y8507000D02*
X51943580Y8507000D01*
X51662420Y9527000D02*
X51943580Y9527000D01*
%TO.C,L11*%
X58749000Y23802752D02*
X58749000Y23280248D01*
X57329000Y23802752D02*
X57329000Y23280248D01*
%TO.C,R23*%
X24242500Y23287258D02*
X24242500Y22812742D01*
X25287500Y23287258D02*
X25287500Y22812742D01*
%TO.C,R20*%
X28941500Y21415742D02*
X28941500Y21890258D01*
X29986500Y21415742D02*
X29986500Y21890258D01*
%TO.C,C17*%
X36705000Y14237580D02*
X36705000Y13956420D01*
X35685000Y14237580D02*
X35685000Y13956420D01*
%TO.C,C27*%
X57529000Y11811580D02*
X57529000Y11530420D01*
X58549000Y11811580D02*
X58549000Y11530420D01*
%TO.C,J3*%
X70000000Y18875000D02*
X60200000Y18875000D01*
X60200000Y18875000D02*
X60200000Y26125000D01*
X70000000Y26125000D02*
X60200000Y26125000D01*
X59800000Y23050000D02*
X59800000Y21950000D01*
%TO.C,L7*%
X43994000Y13789248D02*
X43994000Y14311752D01*
X45414000Y13789248D02*
X45414000Y14311752D01*
%TO.C,C16*%
X28575580Y17274000D02*
X28294420Y17274000D01*
X28575580Y16254000D02*
X28294420Y16254000D01*
%TO.C,C28*%
X53973000Y16318620D02*
X53973000Y16599780D01*
X54993000Y16318620D02*
X54993000Y16599780D01*
%TO.C,U7*%
X56770000Y16258000D02*
X58670000Y16258000D01*
X58170000Y13938000D02*
X56770000Y13938000D01*
D14*
%TO.C,FL1*%
X46360000Y23364000D02*
X46360000Y19564000D01*
X50160000Y19564000D02*
X50160000Y23364000D01*
D15*
X50456000Y19180000D02*
G75*
G03*
X50456000Y19180000I-120000J0D01*
G01*
D11*
%TO.C,R4*%
X28749258Y11825500D02*
X28274742Y11825500D01*
X28749258Y10780500D02*
X28274742Y10780500D01*
%TO.C,J4*%
X60200000Y3875000D02*
X60200000Y11125000D01*
X70000000Y3875000D02*
X60200000Y3875000D01*
X70000000Y11125000D02*
X60200000Y11125000D01*
X59800000Y8050000D02*
X59800000Y6950000D01*
%TO.C,Y2*%
X36158600Y24565200D02*
X37958600Y24565200D01*
X37958600Y28165200D02*
X36158600Y28165200D01*
X37958600Y24565200D02*
X37958600Y24325200D01*
X39758600Y25965200D02*
X39758600Y26765200D01*
X40158600Y25965200D02*
X39758600Y25965200D01*
X34358600Y26765200D02*
X34358600Y25965200D01*
%TO.C,C12*%
X43293420Y20572000D02*
X43574580Y20572000D01*
X43293420Y21592000D02*
X43574580Y21592000D01*
%TO.C,C5*%
X40130400Y7185252D02*
X40130400Y6662748D01*
X38660400Y7185252D02*
X38660400Y6662748D01*
%TO.C,L8*%
X40336400Y17721948D02*
X40336400Y18244452D01*
X41756400Y17721948D02*
X41756400Y18244452D01*
%TO.C,L9*%
X45390779Y23812687D02*
X45021313Y23443221D01*
X44386687Y24816779D02*
X44017221Y24447313D01*
%TO.C,C29*%
X55094600Y13169020D02*
X55094600Y13450180D01*
X54074600Y13169020D02*
X54074600Y13450180D01*
%TO.C,R5*%
X49769500Y11857258D02*
X49769500Y11382742D01*
X50814500Y11857258D02*
X50814500Y11382742D01*
%TD*%
M02*
