%TF.GenerationSoftware,KiCad,Pcbnew,6.0.4-6f826c9f35~116~ubuntu20.04.1*%
%TF.CreationDate,2022-05-12T13:34:53+00:00*%
%TF.ProjectId,TFSIK01A,54465349-4b30-4314-912e-6b696361645f,REV*%
%TF.SameCoordinates,Original*%
%TF.FileFunction,Copper,L1,Top*%
%TF.FilePolarity,Positive*%
%FSLAX46Y46*%
G04 Gerber Fmt 4.6, Leading zero omitted, Abs format (unit mm)*
G04 Created by KiCad (PCBNEW 6.0.4-6f826c9f35~116~ubuntu20.04.1) date 2022-05-12 13:34:53*
%MOMM*%
%LPD*%
G01*
G04 APERTURE LIST*
%TA.AperFunction,SMDPad,CuDef*%
%ADD10R,1.524000X1.524000*%
%TD*%
%TA.AperFunction,SMDPad,CuDef*%
%ADD11R,4.100000X3.600000*%
%TD*%
%TA.AperFunction,ComponentPad*%
%ADD12C,0.500000*%
%TD*%
%TA.AperFunction,ComponentPad*%
%ADD13C,0.300000*%
%TD*%
%TA.AperFunction,ViaPad*%
%ADD14C,0.800000*%
%TD*%
%TA.AperFunction,Conductor*%
%ADD15C,0.300000*%
%TD*%
%TA.AperFunction,Conductor*%
%ADD16C,0.200000*%
%TD*%
%TA.AperFunction,Conductor*%
%ADD17C,0.400000*%
%TD*%
G04 APERTURE END LIST*
D10*
%TO.P,J2,1*%
%TO.N,GND*%
X21945600Y21437600D03*
%TO.P,J2,2*%
X24485600Y21437600D03*
%TO.P,J2,3*%
%TO.N,/#RST_1*%
X21945600Y18897600D03*
%TO.P,J2,4*%
%TO.N,/C2D*%
X24485600Y18897600D03*
%TO.P,J2,5*%
%TO.N,+5V*%
X21945600Y16357600D03*
%TO.P,J2,6*%
%TO.N,GND*%
X24485600Y16357600D03*
%TD*%
D11*
%TO.P,U2,37,GND_RF*%
%TO.N,GND*%
X34798000Y20066000D03*
D12*
X32998000Y18516000D03*
X34198000Y20066000D03*
X36598000Y18516000D03*
X34198000Y21616000D03*
X34198000Y18516000D03*
X32998000Y21616000D03*
X36598000Y21616000D03*
X36598000Y20066000D03*
X35398000Y21616000D03*
X35398000Y20066000D03*
X35398000Y18516000D03*
X32998000Y20066000D03*
%TD*%
D13*
%TO.P,U3,9*%
%TO.N,GND*%
X48618000Y11541000D03*
X48018000Y11541000D03*
X47418000Y11541000D03*
%TD*%
D14*
%TO.N,GND*%
X51816000Y10414000D03*
X59563000Y4953000D03*
X32250000Y27650000D03*
X46990000Y7874000D03*
X45085000Y5080000D03*
X53150000Y22300000D03*
X48387000Y26797000D03*
X38608000Y16383000D03*
X65786000Y17653000D03*
X27940000Y12827000D03*
X62611000Y17653000D03*
X64198500Y17653000D03*
X55850000Y19250000D03*
X46355000Y21463000D03*
X42545000Y17399000D03*
X60325000Y1270000D03*
X29718000Y1143000D03*
X56515000Y25527000D03*
X33401000Y5334000D03*
X55245000Y28575000D03*
X41148000Y27686000D03*
X55880000Y5715000D03*
X59436000Y10795000D03*
X58039000Y28575000D03*
X45339000Y26797000D03*
X37795200Y10871200D03*
X30226000Y28829000D03*
X59436000Y19812000D03*
X64008000Y13716000D03*
X63112200Y27150000D03*
X49403000Y16764000D03*
X64574400Y27150000D03*
X64998000Y2700000D03*
X48133000Y7747000D03*
X48006000Y28829000D03*
X59436000Y20955000D03*
X62357000Y12192000D03*
X49784000Y28829000D03*
X63614000Y2700000D03*
X41021000Y4572000D03*
X47752000Y1270000D03*
X52366332Y7747000D03*
X51562000Y14986000D03*
X53086000Y2667000D03*
X21590000Y6815668D03*
X36068000Y5334000D03*
X48006000Y4826000D03*
X49276000Y1270000D03*
X21590000Y7874001D03*
X56769000Y17145000D03*
X52750000Y20400000D03*
X64008000Y12192000D03*
X37211000Y1270000D03*
X56388000Y24384000D03*
X56388000Y23114000D03*
X68961000Y12192000D03*
X68961000Y17653000D03*
X59436000Y25019000D03*
X46101000Y11176000D03*
X21082000Y23926800D03*
X51435000Y22733000D03*
X59436000Y26035000D03*
X51435000Y21590000D03*
X53300000Y25200000D03*
X59817000Y13589000D03*
X33401000Y7493000D03*
X21082000Y26263600D03*
X21590000Y11049000D03*
X56900000Y20850000D03*
X54864000Y4826000D03*
X26263600Y17399000D03*
X54102000Y1778000D03*
X61214000Y2032000D03*
X59563000Y28575000D03*
X67766000Y2700000D03*
X66382000Y2700000D03*
X31242000Y27178000D03*
X66036600Y27150000D03*
X68961000Y27150000D03*
X44069000Y5842000D03*
X43053000Y6604000D03*
X57785000Y3810000D03*
X36068000Y6680200D03*
X54850000Y23850000D03*
X53424665Y7747000D03*
X35941000Y1270000D03*
X43053000Y8890000D03*
X25146000Y2286000D03*
X57128264Y11650000D03*
X26416000Y18669000D03*
X54991000Y20193000D03*
X43307000Y15748000D03*
X38989000Y12192000D03*
X44069000Y19812000D03*
X59436000Y9398000D03*
X40386000Y11938000D03*
X24231600Y14376400D03*
X51307999Y7747000D03*
X46482000Y28829000D03*
X37465000Y7112000D03*
X40894000Y2540000D03*
X43180000Y26416000D03*
X21463000Y14097000D03*
X26289000Y2286000D03*
X29083000Y28829000D03*
X55499000Y1270000D03*
X56550000Y21900000D03*
X21082000Y25146000D03*
X56642000Y6477000D03*
X30607000Y19304000D03*
X53340000Y16891000D03*
X26543000Y28829000D03*
X34671000Y1270000D03*
X26670000Y12446000D03*
X51308000Y4826000D03*
X33401000Y6477000D03*
X57150000Y1270000D03*
X33324800Y27228800D03*
X38354000Y1270000D03*
X24130000Y2286000D03*
X36703000Y12065000D03*
X46101000Y9779000D03*
X32131000Y5334000D03*
X48006000Y3556000D03*
X37465000Y5334000D03*
X42418000Y2540000D03*
X26365200Y19710400D03*
X53900000Y20350000D03*
X56515000Y4699000D03*
X28448000Y1143000D03*
X62230000Y2700000D03*
X46609000Y3048000D03*
X26162000Y14478000D03*
X45593000Y20320000D03*
X58801000Y1270000D03*
X59436000Y23876000D03*
X50190400Y24892000D03*
X21590000Y4699000D03*
X45085000Y19050000D03*
X27178000Y1143000D03*
X27813000Y28829000D03*
X24511000Y12446000D03*
X21590000Y9990667D03*
X28067000Y21336000D03*
X21590000Y5757335D03*
X21590000Y8932334D03*
X59436000Y12192000D03*
X59817000Y16129000D03*
X69150000Y2700000D03*
X46355000Y1270000D03*
X54483000Y7747000D03*
X29210000Y12700000D03*
X51816000Y2667000D03*
X43053000Y7747000D03*
X59436000Y17272000D03*
X41529000Y7366000D03*
X26314400Y15900400D03*
X27838400Y20066000D03*
X59055000Y3810000D03*
X49191333Y7747000D03*
X50249666Y7747000D03*
X36068000Y8001000D03*
X37846000Y12192000D03*
X46990000Y26797000D03*
X49403000Y15748000D03*
X41529000Y10287000D03*
X46609000Y17399000D03*
X34925000Y28956000D03*
X52451000Y4826000D03*
X46101000Y12446000D03*
X31369000Y15113000D03*
X50673000Y1651000D03*
X43053000Y9906000D03*
X49149000Y4826000D03*
X51435000Y20447000D03*
X41529000Y11430000D03*
X43307000Y12319000D03*
X50292000Y4826000D03*
X67498800Y27150000D03*
X45212000Y3556000D03*
X45085000Y28829000D03*
X60600000Y27850000D03*
X39497000Y4191000D03*
X56900000Y18650000D03*
X65659000Y12192000D03*
X58039000Y26035000D03*
X25654000Y12446000D03*
X46228000Y8763000D03*
X51435000Y23876000D03*
X56850000Y10050000D03*
X38396332Y28956000D03*
X40132000Y28956000D03*
X64008000Y15875000D03*
X44069000Y25527000D03*
X67373500Y17653000D03*
X59436000Y18669000D03*
X61650000Y27150000D03*
X56769000Y28575000D03*
X41529000Y5969000D03*
X49784000Y26416000D03*
X30657800Y1676400D03*
X53594000Y4826000D03*
X36660666Y28956000D03*
X37490400Y8509000D03*
X44323000Y1905000D03*
X67310000Y12192000D03*
X45847000Y18288000D03*
X30226000Y27813000D03*
X39624000Y1270000D03*
X53340000Y18161000D03*
X43281600Y24790400D03*
X59817000Y14859000D03*
X41529000Y8763000D03*
X41910000Y26416000D03*
X49403000Y17780000D03*
X46609000Y16256000D03*
%TO.N,+3V3*%
X35226165Y11684000D03*
X50292000Y12319000D03*
%TO.N,/P1.5*%
X25704800Y26416000D03*
X33026835Y25620665D03*
%TO.N,/P1.4*%
X28092400Y27432000D03*
X34941951Y23959292D03*
%TO.N,/C2D*%
X28194000Y23724020D03*
%TO.N,/#RST_1*%
X25806400Y22961600D03*
%TO.N,GPIO3*%
X36705170Y15934014D03*
X56007000Y13462000D03*
%TO.N,GPIO1*%
X35747500Y16220149D03*
X53467000Y10414000D03*
%TO.N,/#RTS*%
X32258000Y16383000D03*
X30480000Y9652000D03*
%TO.N,GPIO2*%
X46609000Y15088011D03*
X37663835Y23552079D03*
%TO.N,+5V*%
X23012400Y4572000D03*
%TO.N,/#CTS*%
X31416006Y17129763D03*
X30480000Y11303000D03*
%TO.N,/RX_u*%
X32004000Y7747000D03*
X34313659Y16316998D03*
%TO.N,/TX_u*%
X30607000Y8255000D03*
X33314483Y16342517D03*
%TO.N,/P1.6*%
X32591353Y24721020D03*
X23825200Y26416000D03*
%TD*%
D15*
%TO.N,+3V3*%
X35226165Y11824442D02*
X36741194Y13339471D01*
X47252381Y12437619D02*
X49030382Y12437618D01*
X49030382Y12437618D02*
X49149000Y12319000D01*
X36741194Y13339471D02*
X46350529Y13339471D01*
X49149000Y12319000D02*
X50292000Y12319000D01*
X46350529Y13339471D02*
X47252381Y12437619D01*
X35226165Y11684000D02*
X35226165Y11824442D01*
D16*
%TO.N,/P1.5*%
X27118955Y25001845D02*
X25704800Y26416000D01*
X33026835Y25620665D02*
X32216420Y25620665D01*
X32216420Y25620665D02*
X31597600Y25001845D01*
X31597600Y25001845D02*
X27118955Y25001845D01*
%TO.N,/P1.4*%
X34941951Y23959292D02*
X34941951Y24694808D01*
X34941951Y24694808D02*
X33169959Y26466800D01*
X33169959Y26466800D02*
X33121600Y26466800D01*
X30123035Y25401365D02*
X28092400Y27432000D01*
X33121600Y26466800D02*
X32409035Y26466800D01*
X31343600Y25401365D02*
X30123035Y25401365D01*
X32409035Y26466800D02*
X31343600Y25401365D01*
D15*
%TO.N,/C2D*%
X24485600Y18897600D02*
X25908000Y20320000D01*
X28194000Y23724020D02*
X28194000Y22860000D01*
X28194000Y22860000D02*
X25908000Y20574000D01*
X25908000Y20320000D02*
X25908000Y20574000D01*
%TO.N,/#RST_1*%
X23164800Y22656800D02*
X23520400Y23012400D01*
X23520400Y23012400D02*
X25755600Y23012400D01*
X23164800Y20116800D02*
X23164800Y22656800D01*
X21945600Y18897600D02*
X23164800Y20116800D01*
%TO.N,GPIO3*%
X46723511Y14338511D02*
X46850511Y14338511D01*
X46723511Y14338511D02*
X46819917Y14338511D01*
X55888480Y13580520D02*
X56007000Y13462000D01*
X46819917Y14338511D02*
X47577908Y13580520D01*
X36705170Y15110830D02*
X37477489Y14338511D01*
X47577908Y13580520D02*
X55888480Y13580520D01*
X36705170Y15934014D02*
X36705170Y15110830D01*
X46850511Y14338511D02*
X46850511Y14307917D01*
X37477489Y14338511D02*
X46723511Y14338511D01*
X47577908Y13580520D02*
X46850511Y14307917D01*
%TO.N,GPIO1*%
X46613009Y13838991D02*
X47371001Y13081000D01*
X47371001Y13081000D02*
X50800000Y13081000D01*
X37270582Y13838991D02*
X46613009Y13838991D01*
X50800000Y13081000D02*
X53467000Y10414000D01*
X35747500Y15362073D02*
X37270582Y13838991D01*
X35747500Y16220149D02*
X35747500Y15362073D01*
D17*
%TO.N,/#RTS*%
X32258000Y16383000D02*
X32258000Y16215723D01*
X32893000Y15580723D02*
X32893000Y12065000D01*
X32258000Y16215723D02*
X32893000Y15580723D01*
X32893000Y12065000D02*
X30480000Y9652000D01*
D15*
%TO.N,GPIO2*%
X46050611Y15088011D02*
X46609000Y15088011D01*
X45800631Y14838031D02*
X46050611Y15088011D01*
X37663835Y15549165D02*
X38374969Y14838031D01*
X38374969Y14838031D02*
X45800631Y14838031D01*
X37663835Y23552079D02*
X37663835Y15549165D01*
D17*
%TO.N,+5V*%
X23114000Y15189200D02*
X23114000Y4673600D01*
X23114000Y15189200D02*
X21945600Y16357600D01*
X23114000Y4673600D02*
X23012400Y4572000D01*
%TO.N,/#CTS*%
X31416006Y17129763D02*
X30480000Y16193757D01*
X30480000Y16193757D02*
X30480000Y11303000D01*
%TO.N,/RX_u*%
X34426665Y10169665D02*
X32004000Y7747000D01*
X34426665Y16203992D02*
X34426665Y10169665D01*
X34313659Y16316998D02*
X34426665Y16203992D01*
%TO.N,/TX_u*%
X30607000Y8255000D02*
X30607000Y8382000D01*
X30607000Y8382000D02*
X33492520Y11267520D01*
X33492520Y16164480D02*
X33314483Y16342517D01*
X33492520Y11267520D02*
X33492520Y16164480D01*
D16*
%TO.N,/P1.6*%
X25638875Y24602325D02*
X23825200Y26416000D01*
X32472658Y24602325D02*
X25638875Y24602325D01*
X32591353Y24721020D02*
X32472658Y24602325D01*
%TD*%
%TA.AperFunction,Conductor*%
%TO.N,GND*%
G36*
X20792904Y29781518D02*
G01*
X20819912Y29734787D01*
X20848078Y29575858D01*
X20931241Y29330867D01*
X21050505Y29101275D01*
X21203125Y28892364D01*
X21385589Y28708942D01*
X21593698Y28555230D01*
X21822663Y28434766D01*
X21825496Y28433788D01*
X21825500Y28433786D01*
X22064373Y28351302D01*
X22064377Y28351301D01*
X22067215Y28350321D01*
X22123195Y28340097D01*
X22319232Y28304294D01*
X22319239Y28304293D01*
X22321726Y28303839D01*
X22324253Y28303707D01*
X22324258Y28303706D01*
X22359090Y28301881D01*
X22404519Y28299500D01*
X22565782Y28299500D01*
X22757976Y28314120D01*
X22911834Y28349782D01*
X23007091Y28371861D01*
X23007094Y28371862D01*
X23010015Y28372539D01*
X23250318Y28468410D01*
X23401026Y28557007D01*
X23470766Y28598005D01*
X23470771Y28598009D01*
X23473354Y28599527D01*
X23605564Y28707163D01*
X23671661Y28760974D01*
X23671662Y28760975D01*
X23673991Y28762871D01*
X23847613Y28954685D01*
X23990222Y29170553D01*
X24098538Y29405509D01*
X24170068Y29654145D01*
X24179995Y29731107D01*
X24204822Y29779105D01*
X24258346Y29800000D01*
X30742124Y29800000D01*
X30792904Y29781518D01*
X30819912Y29734787D01*
X30848078Y29575858D01*
X30931241Y29330867D01*
X31050505Y29101275D01*
X31203125Y28892364D01*
X31385589Y28708942D01*
X31593698Y28555230D01*
X31822663Y28434766D01*
X31825496Y28433788D01*
X31825500Y28433786D01*
X32064373Y28351302D01*
X32064377Y28351301D01*
X32067215Y28350321D01*
X32123195Y28340097D01*
X32319232Y28304294D01*
X32319239Y28304293D01*
X32321726Y28303839D01*
X32324253Y28303707D01*
X32324258Y28303706D01*
X32359090Y28301881D01*
X32404519Y28299500D01*
X32565782Y28299500D01*
X32757976Y28314120D01*
X32911834Y28349782D01*
X33007091Y28371861D01*
X33007094Y28371862D01*
X33010015Y28372539D01*
X33250318Y28468410D01*
X33401026Y28557007D01*
X33470766Y28598005D01*
X33470771Y28598009D01*
X33473354Y28599527D01*
X33605564Y28707163D01*
X33671661Y28760974D01*
X33671662Y28760975D01*
X33673991Y28762871D01*
X33847613Y28954685D01*
X33990222Y29170553D01*
X34098538Y29405509D01*
X34170068Y29654145D01*
X34179995Y29731107D01*
X34204822Y29779105D01*
X34258346Y29800000D01*
X40742124Y29800000D01*
X40792904Y29781518D01*
X40819912Y29734787D01*
X40848078Y29575858D01*
X40931241Y29330867D01*
X41050505Y29101275D01*
X41203125Y28892364D01*
X41385589Y28708942D01*
X41593698Y28555230D01*
X41822663Y28434766D01*
X41825496Y28433788D01*
X41825500Y28433786D01*
X42064373Y28351302D01*
X42064377Y28351301D01*
X42067215Y28350321D01*
X42123195Y28340097D01*
X42319232Y28304294D01*
X42319239Y28304293D01*
X42321726Y28303839D01*
X42324253Y28303707D01*
X42324258Y28303706D01*
X42359090Y28301881D01*
X42404519Y28299500D01*
X42565782Y28299500D01*
X42757976Y28314120D01*
X42911834Y28349782D01*
X43007091Y28371861D01*
X43007094Y28371862D01*
X43010015Y28372539D01*
X43250318Y28468410D01*
X43401026Y28557007D01*
X43470766Y28598005D01*
X43470771Y28598009D01*
X43473354Y28599527D01*
X43605564Y28707163D01*
X43671661Y28760974D01*
X43671662Y28760975D01*
X43673991Y28762871D01*
X43847613Y28954685D01*
X43990222Y29170553D01*
X44098538Y29405509D01*
X44170068Y29654145D01*
X44179995Y29731107D01*
X44204822Y29779105D01*
X44258346Y29800000D01*
X50742124Y29800000D01*
X50792904Y29781518D01*
X50819912Y29734787D01*
X50848078Y29575858D01*
X50931241Y29330867D01*
X51050505Y29101275D01*
X51203125Y28892364D01*
X51385589Y28708942D01*
X51593698Y28555230D01*
X51822663Y28434766D01*
X51825496Y28433788D01*
X51825500Y28433786D01*
X52064373Y28351302D01*
X52064377Y28351301D01*
X52067215Y28350321D01*
X52123195Y28340097D01*
X52319232Y28304294D01*
X52319239Y28304293D01*
X52321726Y28303839D01*
X52324253Y28303707D01*
X52324258Y28303706D01*
X52359090Y28301881D01*
X52404519Y28299500D01*
X52565782Y28299500D01*
X52757976Y28314120D01*
X52911834Y28349782D01*
X53007091Y28371861D01*
X53007094Y28371862D01*
X53010015Y28372539D01*
X53250318Y28468410D01*
X53401026Y28557007D01*
X53470766Y28598005D01*
X53470771Y28598009D01*
X53473354Y28599527D01*
X53605564Y28707163D01*
X53671661Y28760974D01*
X53671662Y28760975D01*
X53673991Y28762871D01*
X53847613Y28954685D01*
X53990222Y29170553D01*
X54098538Y29405509D01*
X54170068Y29654145D01*
X54179995Y29731107D01*
X54204822Y29779105D01*
X54258346Y29800000D01*
X60742124Y29800000D01*
X60792904Y29781518D01*
X60819912Y29734787D01*
X60848078Y29575858D01*
X60931241Y29330867D01*
X61050505Y29101275D01*
X61203125Y28892364D01*
X61385589Y28708942D01*
X61593698Y28555230D01*
X61822663Y28434766D01*
X61825496Y28433788D01*
X61825500Y28433786D01*
X62064373Y28351302D01*
X62064377Y28351301D01*
X62067215Y28350321D01*
X62123195Y28340097D01*
X62319232Y28304294D01*
X62319239Y28304293D01*
X62321726Y28303839D01*
X62324253Y28303707D01*
X62324258Y28303706D01*
X62359090Y28301881D01*
X62404519Y28299500D01*
X62565782Y28299500D01*
X62757976Y28314120D01*
X62911834Y28349782D01*
X63007091Y28371861D01*
X63007094Y28371862D01*
X63010015Y28372539D01*
X63250318Y28468410D01*
X63401026Y28557007D01*
X63470766Y28598005D01*
X63470771Y28598009D01*
X63473354Y28599527D01*
X63605564Y28707163D01*
X63671661Y28760974D01*
X63671662Y28760975D01*
X63673991Y28762871D01*
X63847613Y28954685D01*
X63990222Y29170553D01*
X64098538Y29405509D01*
X64170068Y29654145D01*
X64179995Y29731107D01*
X64204822Y29779105D01*
X64258346Y29800000D01*
X69721000Y29800000D01*
X69771780Y29781518D01*
X69798800Y29734718D01*
X69800000Y29721000D01*
X69800000Y25254000D01*
X69781518Y25203220D01*
X69734718Y25176200D01*
X69721000Y25175000D01*
X63555877Y25175000D01*
X63504551Y25175045D01*
X63496533Y25171195D01*
X63496530Y25171194D01*
X63491637Y25168844D01*
X63475006Y25163036D01*
X63461038Y25159850D01*
X63450022Y25151072D01*
X63434992Y25141644D01*
X63422295Y25135547D01*
X63416740Y25128600D01*
X63416737Y25128598D01*
X63413346Y25124357D01*
X63400881Y25111914D01*
X63396638Y25108533D01*
X63396635Y25108530D01*
X63389677Y25102985D01*
X63385811Y25094970D01*
X63383560Y25090303D01*
X63374102Y25075284D01*
X63365306Y25064285D01*
X63363313Y25055616D01*
X63362095Y25050320D01*
X63356258Y25033700D01*
X63353900Y25028812D01*
X63353899Y25028810D01*
X63350035Y25020798D01*
X63350015Y24997787D01*
X63350000Y24997723D01*
X63350000Y24980877D01*
X63349962Y24936974D01*
X63349955Y24929551D01*
X63349995Y24929468D01*
X63350000Y24929421D01*
X63350000Y20030877D01*
X63349955Y19979551D01*
X63353805Y19971533D01*
X63353806Y19971530D01*
X63356156Y19966637D01*
X63361964Y19950006D01*
X63365150Y19936038D01*
X63373928Y19925022D01*
X63383356Y19909992D01*
X63389453Y19897295D01*
X63396400Y19891740D01*
X63396402Y19891737D01*
X63400643Y19888346D01*
X63413086Y19875881D01*
X63416467Y19871638D01*
X63416470Y19871635D01*
X63422015Y19864677D01*
X63430030Y19860811D01*
X63434697Y19858560D01*
X63449716Y19849102D01*
X63460715Y19840306D01*
X63474680Y19837095D01*
X63491300Y19831258D01*
X63496188Y19828900D01*
X63496190Y19828899D01*
X63504202Y19825035D01*
X63513097Y19825027D01*
X63513098Y19825027D01*
X63527213Y19825015D01*
X63527277Y19825000D01*
X63544123Y19825000D01*
X63595178Y19824955D01*
X63595449Y19824955D01*
X63595532Y19824995D01*
X63595579Y19825000D01*
X69721000Y19825000D01*
X69771780Y19806518D01*
X69798800Y19759718D01*
X69800000Y19746000D01*
X69800000Y10254000D01*
X69781518Y10203220D01*
X69734718Y10176200D01*
X69721000Y10175000D01*
X63555877Y10175000D01*
X63504551Y10175045D01*
X63496533Y10171195D01*
X63496530Y10171194D01*
X63491637Y10168844D01*
X63475006Y10163036D01*
X63461038Y10159850D01*
X63450022Y10151072D01*
X63434992Y10141644D01*
X63422295Y10135547D01*
X63416740Y10128600D01*
X63416737Y10128598D01*
X63413346Y10124357D01*
X63400881Y10111914D01*
X63396638Y10108533D01*
X63396635Y10108530D01*
X63389677Y10102985D01*
X63385811Y10094970D01*
X63383560Y10090303D01*
X63374102Y10075284D01*
X63365306Y10064285D01*
X63363313Y10055616D01*
X63362095Y10050320D01*
X63356258Y10033700D01*
X63353900Y10028812D01*
X63353899Y10028810D01*
X63350035Y10020798D01*
X63350027Y10011903D01*
X63350027Y10011902D01*
X63350015Y9997787D01*
X63350000Y9997723D01*
X63350000Y9980877D01*
X63349957Y9931323D01*
X63349955Y9929551D01*
X63349995Y9929468D01*
X63350000Y9929421D01*
X63350000Y5030877D01*
X63349955Y4979551D01*
X63353805Y4971533D01*
X63353806Y4971530D01*
X63356156Y4966637D01*
X63361964Y4950006D01*
X63365150Y4936038D01*
X63373928Y4925022D01*
X63383356Y4909992D01*
X63389453Y4897295D01*
X63396400Y4891740D01*
X63396402Y4891737D01*
X63400643Y4888346D01*
X63413086Y4875881D01*
X63416467Y4871638D01*
X63416470Y4871635D01*
X63422015Y4864677D01*
X63430030Y4860811D01*
X63434697Y4858560D01*
X63449716Y4849102D01*
X63460715Y4840306D01*
X63474680Y4837095D01*
X63491300Y4831258D01*
X63496188Y4828900D01*
X63496190Y4828899D01*
X63504202Y4825035D01*
X63513097Y4825027D01*
X63513098Y4825027D01*
X63527213Y4825015D01*
X63527277Y4825000D01*
X63544123Y4825000D01*
X63595178Y4824955D01*
X63595449Y4824955D01*
X63595532Y4824995D01*
X63595579Y4825000D01*
X69721000Y4825000D01*
X69771780Y4806518D01*
X69798800Y4759718D01*
X69800000Y4746000D01*
X69800000Y279000D01*
X69781518Y228220D01*
X69734718Y201200D01*
X69721000Y200000D01*
X64257876Y200000D01*
X64207096Y218482D01*
X64180088Y265214D01*
X64152446Y421188D01*
X64152444Y421194D01*
X64151922Y424142D01*
X64068759Y669133D01*
X63949495Y898725D01*
X63796875Y1107636D01*
X63614411Y1291058D01*
X63406302Y1444770D01*
X63177337Y1565234D01*
X63174504Y1566212D01*
X63174500Y1566214D01*
X62935627Y1648698D01*
X62935623Y1648699D01*
X62932785Y1649679D01*
X62876805Y1659903D01*
X62680768Y1695706D01*
X62680761Y1695707D01*
X62678274Y1696161D01*
X62675747Y1696293D01*
X62675742Y1696294D01*
X62640910Y1698119D01*
X62595481Y1700500D01*
X62434218Y1700500D01*
X62242024Y1685880D01*
X62239099Y1685202D01*
X61992909Y1628139D01*
X61992906Y1628138D01*
X61989985Y1627461D01*
X61749682Y1531590D01*
X61747095Y1530069D01*
X61529234Y1401995D01*
X61529229Y1401991D01*
X61526646Y1400473D01*
X61524315Y1398576D01*
X61524316Y1398576D01*
X61392251Y1291058D01*
X61326009Y1237129D01*
X61152387Y1045315D01*
X61009778Y829447D01*
X60901462Y594491D01*
X60829932Y345855D01*
X60821309Y279000D01*
X60820005Y268894D01*
X60795178Y220895D01*
X60741654Y200000D01*
X54257876Y200000D01*
X54207096Y218482D01*
X54180088Y265214D01*
X54152446Y421188D01*
X54152444Y421194D01*
X54151922Y424142D01*
X54068759Y669133D01*
X53949495Y898725D01*
X53796875Y1107636D01*
X53614411Y1291058D01*
X53406302Y1444770D01*
X53177337Y1565234D01*
X53174504Y1566212D01*
X53174500Y1566214D01*
X52935627Y1648698D01*
X52935623Y1648699D01*
X52932785Y1649679D01*
X52876805Y1659903D01*
X52680768Y1695706D01*
X52680761Y1695707D01*
X52678274Y1696161D01*
X52675747Y1696293D01*
X52675742Y1696294D01*
X52640910Y1698119D01*
X52595481Y1700500D01*
X52434218Y1700500D01*
X52242024Y1685880D01*
X52239099Y1685202D01*
X51992909Y1628139D01*
X51992906Y1628138D01*
X51989985Y1627461D01*
X51749682Y1531590D01*
X51747095Y1530069D01*
X51529234Y1401995D01*
X51529229Y1401991D01*
X51526646Y1400473D01*
X51524315Y1398576D01*
X51524316Y1398576D01*
X51392251Y1291058D01*
X51326009Y1237129D01*
X51152387Y1045315D01*
X51009778Y829447D01*
X50901462Y594491D01*
X50829932Y345855D01*
X50821309Y279000D01*
X50820005Y268894D01*
X50795178Y220895D01*
X50741654Y200000D01*
X44257876Y200000D01*
X44207096Y218482D01*
X44180088Y265214D01*
X44152446Y421188D01*
X44152444Y421194D01*
X44151922Y424142D01*
X44068759Y669133D01*
X43949495Y898725D01*
X43796875Y1107636D01*
X43614411Y1291058D01*
X43406302Y1444770D01*
X43177337Y1565234D01*
X43174504Y1566212D01*
X43174500Y1566214D01*
X42935627Y1648698D01*
X42935623Y1648699D01*
X42932785Y1649679D01*
X42876805Y1659903D01*
X42680768Y1695706D01*
X42680761Y1695707D01*
X42678274Y1696161D01*
X42675747Y1696293D01*
X42675742Y1696294D01*
X42640910Y1698119D01*
X42595481Y1700500D01*
X42434218Y1700500D01*
X42242024Y1685880D01*
X42239099Y1685202D01*
X41992909Y1628139D01*
X41992906Y1628138D01*
X41989985Y1627461D01*
X41749682Y1531590D01*
X41747095Y1530069D01*
X41529234Y1401995D01*
X41529229Y1401991D01*
X41526646Y1400473D01*
X41524315Y1398576D01*
X41524316Y1398576D01*
X41392251Y1291058D01*
X41326009Y1237129D01*
X41152387Y1045315D01*
X41009778Y829447D01*
X40901462Y594491D01*
X40829932Y345855D01*
X40821309Y279000D01*
X40820005Y268894D01*
X40795178Y220895D01*
X40741654Y200000D01*
X34257876Y200000D01*
X34207096Y218482D01*
X34180088Y265214D01*
X34152446Y421188D01*
X34152444Y421194D01*
X34151922Y424142D01*
X34068759Y669133D01*
X33949495Y898725D01*
X33796875Y1107636D01*
X33614411Y1291058D01*
X33406302Y1444770D01*
X33177337Y1565234D01*
X33174504Y1566212D01*
X33174500Y1566214D01*
X32935627Y1648698D01*
X32935623Y1648699D01*
X32932785Y1649679D01*
X32876805Y1659903D01*
X32680768Y1695706D01*
X32680761Y1695707D01*
X32678274Y1696161D01*
X32675747Y1696293D01*
X32675742Y1696294D01*
X32640910Y1698119D01*
X32595481Y1700500D01*
X32434218Y1700500D01*
X32242024Y1685880D01*
X32239099Y1685202D01*
X31992909Y1628139D01*
X31992906Y1628138D01*
X31989985Y1627461D01*
X31749682Y1531590D01*
X31747095Y1530069D01*
X31529234Y1401995D01*
X31529229Y1401991D01*
X31526646Y1400473D01*
X31524315Y1398576D01*
X31524316Y1398576D01*
X31392251Y1291058D01*
X31326009Y1237129D01*
X31152387Y1045315D01*
X31009778Y829447D01*
X30901462Y594491D01*
X30829932Y345855D01*
X30821309Y279000D01*
X30820005Y268894D01*
X30795178Y220895D01*
X30741654Y200000D01*
X24257876Y200000D01*
X24207096Y218482D01*
X24180088Y265214D01*
X24152446Y421188D01*
X24152444Y421194D01*
X24151922Y424142D01*
X24068759Y669133D01*
X23949495Y898725D01*
X23796875Y1107636D01*
X23614411Y1291058D01*
X23406302Y1444770D01*
X23177337Y1565234D01*
X23174504Y1566212D01*
X23174500Y1566214D01*
X22935627Y1648698D01*
X22935623Y1648699D01*
X22932785Y1649679D01*
X22876805Y1659903D01*
X22680768Y1695706D01*
X22680761Y1695707D01*
X22678274Y1696161D01*
X22675747Y1696293D01*
X22675742Y1696294D01*
X22640910Y1698119D01*
X22595481Y1700500D01*
X22434218Y1700500D01*
X22242024Y1685880D01*
X22239099Y1685202D01*
X21992909Y1628139D01*
X21992906Y1628138D01*
X21989985Y1627461D01*
X21749682Y1531590D01*
X21747095Y1530069D01*
X21529234Y1401995D01*
X21529229Y1401991D01*
X21526646Y1400473D01*
X21524315Y1398576D01*
X21524316Y1398576D01*
X21392251Y1291058D01*
X21326009Y1237129D01*
X21152387Y1045315D01*
X21009778Y829447D01*
X20901462Y594491D01*
X20829932Y345855D01*
X20821309Y279000D01*
X20820005Y268894D01*
X20795178Y220895D01*
X20741654Y200000D01*
X20279000Y200000D01*
X20228220Y218482D01*
X20201200Y265282D01*
X20200000Y279000D01*
X20200000Y15575852D01*
X20983100Y15575852D01*
X20994733Y15517369D01*
X20999054Y15510902D01*
X20999055Y15510900D01*
X21006507Y15499748D01*
X21039048Y15451048D01*
X21045513Y15446728D01*
X21098900Y15411055D01*
X21098902Y15411054D01*
X21105369Y15406733D01*
X21115856Y15404647D01*
X21160040Y15395858D01*
X21160043Y15395858D01*
X21163852Y15395100D01*
X22308986Y15395100D01*
X22359766Y15376618D01*
X22364847Y15371961D01*
X22690361Y15046447D01*
X22713199Y14997471D01*
X22713500Y14990586D01*
X22713500Y5138519D01*
X22695018Y5087739D01*
X22682592Y5075844D01*
X22623990Y5030877D01*
X22584118Y5000282D01*
X22580969Y4996178D01*
X22493980Y4882811D01*
X22487864Y4874841D01*
X22427356Y4728762D01*
X22406718Y4572000D01*
X22427356Y4415238D01*
X22487864Y4269159D01*
X22584118Y4143718D01*
X22588222Y4140569D01*
X22705448Y4050618D01*
X22705450Y4050617D01*
X22709559Y4047464D01*
X22813009Y4004614D01*
X22850850Y3988939D01*
X22850852Y3988939D01*
X22855638Y3986956D01*
X23012400Y3966318D01*
X23169162Y3986956D01*
X23173948Y3988939D01*
X23173950Y3988939D01*
X23211791Y4004614D01*
X23315241Y4047464D01*
X23319350Y4050617D01*
X23319352Y4050618D01*
X23436578Y4140569D01*
X23440682Y4143718D01*
X23536936Y4269159D01*
X23597444Y4415238D01*
X23618082Y4572000D01*
X23597444Y4728762D01*
X23536936Y4874841D01*
X23530825Y4882805D01*
X23514500Y4930897D01*
X23514500Y9652000D01*
X29874318Y9652000D01*
X29894956Y9495238D01*
X29955464Y9349159D01*
X30051718Y9223718D01*
X30055822Y9220569D01*
X30173048Y9130618D01*
X30173050Y9130617D01*
X30177159Y9127464D01*
X30280609Y9084614D01*
X30318450Y9068939D01*
X30318452Y9068939D01*
X30323238Y9066956D01*
X30480000Y9046318D01*
X30508293Y9050043D01*
X30561050Y9038347D01*
X30593947Y8995476D01*
X30591591Y8941488D01*
X30574465Y8915858D01*
X30524954Y8866347D01*
X30479405Y8843884D01*
X30470180Y8842669D01*
X30450238Y8840044D01*
X30445452Y8838061D01*
X30445450Y8838061D01*
X30407609Y8822386D01*
X30304159Y8779536D01*
X30300050Y8776383D01*
X30300048Y8776382D01*
X30203514Y8702309D01*
X30178718Y8683282D01*
X30082464Y8557841D01*
X30021956Y8411762D01*
X30001318Y8255000D01*
X30021956Y8098238D01*
X30082464Y7952159D01*
X30178718Y7826718D01*
X30182822Y7823569D01*
X30300048Y7733618D01*
X30300050Y7733617D01*
X30304159Y7730464D01*
X30407609Y7687614D01*
X30445450Y7671939D01*
X30445452Y7671939D01*
X30450238Y7669956D01*
X30607000Y7649318D01*
X30763762Y7669956D01*
X30768548Y7671939D01*
X30768550Y7671939D01*
X30806391Y7687614D01*
X30909841Y7730464D01*
X30913950Y7733617D01*
X30913952Y7733618D01*
X31031178Y7823569D01*
X31035282Y7826718D01*
X31131536Y7952159D01*
X31192044Y8098238D01*
X31212682Y8255000D01*
X31198422Y8363320D01*
X31210118Y8416078D01*
X31220885Y8429492D01*
X33798004Y11006611D01*
X33798007Y11006615D01*
X33820570Y11029178D01*
X33832238Y11052078D01*
X33838712Y11062641D01*
X33850161Y11078399D01*
X33853817Y11083431D01*
X33855740Y11089348D01*
X33855741Y11089351D01*
X33861760Y11107874D01*
X33866503Y11119327D01*
X33876776Y11139488D01*
X33916297Y11176342D01*
X33970262Y11179170D01*
X34013420Y11146649D01*
X34026165Y11103622D01*
X34026165Y10368280D01*
X34007683Y10317500D01*
X34003026Y10312419D01*
X32065752Y8375145D01*
X32016776Y8352307D01*
X32009891Y8352006D01*
X32009134Y8352006D01*
X32004000Y8352682D01*
X31847238Y8332044D01*
X31842452Y8330061D01*
X31842450Y8330061D01*
X31804609Y8314386D01*
X31701159Y8271536D01*
X31697050Y8268383D01*
X31697048Y8268382D01*
X31600514Y8194309D01*
X31575718Y8175282D01*
X31479464Y8049841D01*
X31418956Y7903762D01*
X31398318Y7747000D01*
X31418956Y7590238D01*
X31479464Y7444159D01*
X31575718Y7318718D01*
X31579822Y7315569D01*
X31697048Y7225618D01*
X31697050Y7225617D01*
X31701159Y7222464D01*
X31804609Y7179614D01*
X31842450Y7163939D01*
X31842452Y7163939D01*
X31847238Y7161956D01*
X32004000Y7141318D01*
X32160762Y7161956D01*
X32165548Y7163939D01*
X32165550Y7163939D01*
X32203391Y7179614D01*
X32306841Y7222464D01*
X32310950Y7225617D01*
X32310952Y7225618D01*
X32428178Y7315569D01*
X32432282Y7318718D01*
X32528536Y7444159D01*
X32589044Y7590238D01*
X32609682Y7747000D01*
X32609006Y7752135D01*
X32609006Y7752891D01*
X32627488Y7803671D01*
X32632145Y7808752D01*
X34732149Y9908756D01*
X34732152Y9908760D01*
X34754715Y9931323D01*
X34765392Y9952277D01*
X34766382Y9954221D01*
X34772854Y9964783D01*
X34787961Y9985576D01*
X34795900Y10010011D01*
X34800643Y10021462D01*
X34804388Y10028812D01*
X34812311Y10044361D01*
X34816332Y10069751D01*
X34819222Y10081787D01*
X34827165Y10106232D01*
X34827165Y11081063D01*
X34845647Y11131843D01*
X34892447Y11158863D01*
X34936397Y11154049D01*
X35064615Y11100939D01*
X35064617Y11100939D01*
X35069403Y11098956D01*
X35142361Y11089351D01*
X35205315Y11081063D01*
X35226165Y11078318D01*
X35247016Y11081063D01*
X35309969Y11089351D01*
X35382927Y11098956D01*
X35387713Y11100939D01*
X35387715Y11100939D01*
X35462323Y11131843D01*
X35529006Y11159464D01*
X35533115Y11162617D01*
X35533117Y11162618D01*
X35650343Y11252569D01*
X35654447Y11255718D01*
X35673474Y11280514D01*
X35747547Y11377048D01*
X35747548Y11377050D01*
X35750701Y11381159D01*
X35811209Y11527238D01*
X35831847Y11684000D01*
X35811209Y11840762D01*
X35809227Y11845546D01*
X35807887Y11850548D01*
X35809693Y11851032D01*
X35807658Y11897629D01*
X35827141Y11929736D01*
X36863237Y12965832D01*
X36912213Y12988670D01*
X36919098Y12988971D01*
X46172625Y12988971D01*
X46223405Y12970489D01*
X46228486Y12965832D01*
X46972138Y12222180D01*
X46982643Y12209174D01*
X46989556Y12198467D01*
X47015129Y12178306D01*
X47015645Y12177900D01*
X47022597Y12171721D01*
X47025127Y12169191D01*
X47027779Y12167296D01*
X47040354Y12158310D01*
X47043332Y12156074D01*
X47076063Y12130270D01*
X47076065Y12130269D01*
X47081192Y12126227D01*
X47087331Y12124071D01*
X47088215Y12123515D01*
X47089798Y12122693D01*
X47090754Y12122293D01*
X47096050Y12118508D01*
X47142244Y12104694D01*
X47145778Y12103545D01*
X47186594Y12089211D01*
X47186602Y12089209D01*
X47191287Y12087564D01*
X47196425Y12087119D01*
X47198097Y12087119D01*
X47202162Y12086775D01*
X47207844Y12085076D01*
X47214368Y12085332D01*
X47214370Y12085332D01*
X47258301Y12087058D01*
X47261402Y12087119D01*
X47334853Y12087119D01*
X48849558Y12087118D01*
X48898467Y12070157D01*
X48912264Y12059280D01*
X48919216Y12053102D01*
X48921746Y12050572D01*
X48924398Y12048677D01*
X48936973Y12039691D01*
X48939951Y12037455D01*
X48972682Y12011651D01*
X48972684Y12011650D01*
X48977811Y12007608D01*
X48983950Y12005452D01*
X48984829Y12004899D01*
X48986420Y12004072D01*
X48987374Y12003673D01*
X48992669Y11999889D01*
X48998920Y11998020D01*
X48998923Y11998018D01*
X49038876Y11986070D01*
X49042417Y11984919D01*
X49083213Y11970593D01*
X49087906Y11968945D01*
X49093044Y11968500D01*
X49094708Y11968500D01*
X49098778Y11968156D01*
X49104463Y11966456D01*
X49110987Y11966712D01*
X49110990Y11966712D01*
X49154935Y11968439D01*
X49158036Y11968500D01*
X49765075Y11968500D01*
X49815855Y11950018D01*
X49827750Y11937592D01*
X49858415Y11897629D01*
X49863718Y11890718D01*
X49867822Y11887569D01*
X49985048Y11797618D01*
X49985050Y11797617D01*
X49989159Y11794464D01*
X50092609Y11751614D01*
X50130450Y11735939D01*
X50130452Y11735939D01*
X50135238Y11733956D01*
X50292000Y11713318D01*
X50448762Y11733956D01*
X50453548Y11735939D01*
X50453550Y11735939D01*
X50491391Y11751614D01*
X50594841Y11794464D01*
X50598950Y11797617D01*
X50598952Y11797618D01*
X50716178Y11887569D01*
X50720282Y11890718D01*
X50739309Y11915514D01*
X50813382Y12012048D01*
X50813383Y12012050D01*
X50816536Y12016159D01*
X50863802Y12130270D01*
X50875061Y12157450D01*
X50875061Y12157452D01*
X50877044Y12162238D01*
X50896391Y12309193D01*
X50921343Y12357126D01*
X50971269Y12377806D01*
X51022807Y12361556D01*
X51030576Y12354742D01*
X52846567Y10538751D01*
X52869405Y10489775D01*
X52869030Y10472579D01*
X52861318Y10414000D01*
X52881956Y10257238D01*
X52883939Y10252452D01*
X52883939Y10252450D01*
X52891142Y10235061D01*
X52942464Y10111159D01*
X52945617Y10107050D01*
X52945618Y10107048D01*
X53001900Y10033700D01*
X53038718Y9985718D01*
X53042822Y9982569D01*
X53160048Y9892618D01*
X53160050Y9892617D01*
X53164159Y9889464D01*
X53266640Y9847015D01*
X53305450Y9830939D01*
X53305452Y9830939D01*
X53310238Y9828956D01*
X53467000Y9808318D01*
X53623762Y9828956D01*
X53628548Y9830939D01*
X53628550Y9830939D01*
X53667360Y9847015D01*
X53769841Y9889464D01*
X53773950Y9892617D01*
X53773952Y9892618D01*
X53891178Y9982569D01*
X53895282Y9985718D01*
X53932100Y10033700D01*
X53988382Y10107048D01*
X53988383Y10107050D01*
X53991536Y10111159D01*
X54042858Y10235061D01*
X54050061Y10252450D01*
X54050061Y10252452D01*
X54052044Y10257238D01*
X54072682Y10414000D01*
X54052044Y10570762D01*
X53991536Y10716841D01*
X53895282Y10842282D01*
X53857114Y10871569D01*
X53773952Y10935382D01*
X53773950Y10935383D01*
X53769841Y10938536D01*
X53666391Y10981386D01*
X53628550Y10997061D01*
X53628548Y10997061D01*
X53623762Y10999044D01*
X53467000Y11019682D01*
X53408422Y11011970D01*
X53355663Y11023666D01*
X53342249Y11034433D01*
X51281523Y13095159D01*
X51258685Y13144135D01*
X51272671Y13196333D01*
X51316937Y13227328D01*
X51337384Y13230020D01*
X55400327Y13230020D01*
X55451107Y13211538D01*
X55473312Y13181254D01*
X55482464Y13159159D01*
X55578718Y13033718D01*
X55582822Y13030569D01*
X55700048Y12940618D01*
X55700050Y12940617D01*
X55704159Y12937464D01*
X55807609Y12894614D01*
X55845450Y12878939D01*
X55845452Y12878939D01*
X55850238Y12876956D01*
X56007000Y12856318D01*
X56163762Y12876956D01*
X56168548Y12878939D01*
X56168550Y12878939D01*
X56206391Y12894614D01*
X56309841Y12937464D01*
X56313950Y12940617D01*
X56313952Y12940618D01*
X56431178Y13030569D01*
X56435282Y13033718D01*
X56531536Y13159159D01*
X56592044Y13305238D01*
X56612682Y13462000D01*
X56592044Y13618762D01*
X56586415Y13632353D01*
X56568045Y13676701D01*
X56531536Y13764841D01*
X56435282Y13890282D01*
X56352036Y13954159D01*
X56313952Y13983382D01*
X56313950Y13983383D01*
X56309841Y13986536D01*
X56206391Y14029386D01*
X56168550Y14045061D01*
X56168548Y14045061D01*
X56163762Y14047044D01*
X56007000Y14067682D01*
X55850238Y14047044D01*
X55845452Y14045061D01*
X55845450Y14045061D01*
X55807609Y14029386D01*
X55704159Y13986536D01*
X55700050Y13983383D01*
X55700048Y13983382D01*
X55653084Y13947345D01*
X55604992Y13931020D01*
X47755812Y13931020D01*
X47705032Y13949502D01*
X47699951Y13954159D01*
X47186508Y14467602D01*
X47176001Y14480611D01*
X47154141Y14514467D01*
X47150985Y14519804D01*
X47134391Y14550557D01*
X47134389Y14550559D01*
X47131289Y14556305D01*
X47126494Y14560737D01*
X47122493Y14565896D01*
X47122532Y14565927D01*
X47121308Y14567383D01*
X47121271Y14567350D01*
X47116878Y14572178D01*
X47113336Y14577663D01*
X47108208Y14581705D01*
X47108206Y14581708D01*
X47087944Y14597682D01*
X47059508Y14643634D01*
X47067263Y14697114D01*
X47074178Y14707813D01*
X47130382Y14781059D01*
X47130383Y14781061D01*
X47133536Y14785170D01*
X47194044Y14931249D01*
X47214682Y15088011D01*
X47194044Y15244773D01*
X47190789Y15252633D01*
X47173265Y15294937D01*
X47133536Y15390852D01*
X47130277Y15395100D01*
X47040431Y15512189D01*
X47037282Y15516293D01*
X47007828Y15538894D01*
X46915952Y15609393D01*
X46915950Y15609394D01*
X46911841Y15612547D01*
X46808391Y15655397D01*
X46770550Y15671072D01*
X46770548Y15671072D01*
X46765762Y15673055D01*
X46609000Y15693693D01*
X46452238Y15673055D01*
X46447452Y15671072D01*
X46447450Y15671072D01*
X46409609Y15655397D01*
X46306159Y15612547D01*
X46302050Y15609394D01*
X46302048Y15609393D01*
X46210172Y15538894D01*
X46180718Y15516293D01*
X46177569Y15512189D01*
X46177566Y15512186D01*
X46146786Y15472072D01*
X46101211Y15443036D01*
X46080336Y15442983D01*
X46080256Y15441280D01*
X46073735Y15441587D01*
X46067350Y15442962D01*
X46034374Y15439059D01*
X46025088Y15438511D01*
X46021496Y15438511D01*
X46018277Y15437975D01*
X46018274Y15437975D01*
X46003019Y15435436D01*
X45999335Y15434912D01*
X45960710Y15430340D01*
X45951472Y15429247D01*
X45945607Y15426431D01*
X45944592Y15426200D01*
X45942884Y15425659D01*
X45941929Y15425268D01*
X45935508Y15424199D01*
X45929763Y15421099D01*
X45929760Y15421098D01*
X45893049Y15401289D01*
X45889786Y15399625D01*
X45846285Y15378737D01*
X45842337Y15375419D01*
X45841153Y15374235D01*
X45838039Y15371607D01*
X45832817Y15368789D01*
X45807468Y15341367D01*
X45798533Y15331701D01*
X45796383Y15329465D01*
X45678588Y15211670D01*
X45629612Y15188832D01*
X45622727Y15188531D01*
X38552873Y15188531D01*
X38502093Y15207013D01*
X38497012Y15211670D01*
X38037474Y15671208D01*
X38014636Y15720184D01*
X38014335Y15727069D01*
X38014335Y23025154D01*
X38032817Y23075934D01*
X38045243Y23087829D01*
X38088012Y23120647D01*
X38088013Y23120648D01*
X38092117Y23123797D01*
X38111144Y23148593D01*
X38185217Y23245127D01*
X38185218Y23245129D01*
X38188371Y23249238D01*
X38248879Y23395317D01*
X38268540Y23544661D01*
X38268841Y23546944D01*
X38269517Y23552079D01*
X38267605Y23566606D01*
X38249555Y23703705D01*
X38248879Y23708841D01*
X38188371Y23854920D01*
X38172468Y23875646D01*
X38095266Y23976257D01*
X38092117Y23980361D01*
X38031517Y24026861D01*
X37970787Y24073461D01*
X37970785Y24073462D01*
X37966676Y24076615D01*
X37859903Y24120842D01*
X37825385Y24135140D01*
X37825383Y24135140D01*
X37820597Y24137123D01*
X37663835Y24157761D01*
X37507073Y24137123D01*
X37502287Y24135140D01*
X37502285Y24135140D01*
X37467767Y24120842D01*
X37360994Y24076615D01*
X37356885Y24073462D01*
X37356883Y24073461D01*
X37296153Y24026861D01*
X37235553Y23980361D01*
X37232404Y23976257D01*
X37155203Y23875646D01*
X37139299Y23854920D01*
X37078791Y23708841D01*
X37078115Y23703705D01*
X37060066Y23566606D01*
X37058153Y23552079D01*
X37058829Y23546944D01*
X37059130Y23544661D01*
X37078791Y23395317D01*
X37139299Y23249238D01*
X37142452Y23245129D01*
X37142453Y23245127D01*
X37216526Y23148593D01*
X37235553Y23123797D01*
X37239657Y23120648D01*
X37239658Y23120647D01*
X37282427Y23087829D01*
X37311462Y23042252D01*
X37313335Y23025154D01*
X37313335Y16360594D01*
X37294853Y16309814D01*
X37248053Y16282794D01*
X37194835Y16292178D01*
X37171660Y16312502D01*
X37171339Y16312921D01*
X37133452Y16362296D01*
X37086094Y16398635D01*
X37012122Y16455396D01*
X37012120Y16455397D01*
X37008011Y16458550D01*
X36904036Y16501618D01*
X36866720Y16517075D01*
X36866718Y16517075D01*
X36861932Y16519058D01*
X36734270Y16535865D01*
X36710305Y16539020D01*
X36705170Y16539696D01*
X36700035Y16539020D01*
X36676070Y16535865D01*
X36548408Y16519058D01*
X36543622Y16517075D01*
X36543620Y16517075D01*
X36407116Y16460533D01*
X36402329Y16458550D01*
X36398222Y16455398D01*
X36396993Y16454689D01*
X36343774Y16445308D01*
X36296976Y16472330D01*
X36284513Y16492869D01*
X36272036Y16522990D01*
X36267692Y16528652D01*
X36178931Y16644327D01*
X36175782Y16648431D01*
X36087744Y16715985D01*
X36054452Y16741531D01*
X36054450Y16741532D01*
X36050341Y16744685D01*
X35946891Y16787535D01*
X35909050Y16803210D01*
X35909048Y16803210D01*
X35904262Y16805193D01*
X35747500Y16825831D01*
X35590738Y16805193D01*
X35585952Y16803210D01*
X35585950Y16803210D01*
X35548109Y16787535D01*
X35444659Y16744685D01*
X35440550Y16741532D01*
X35440548Y16741531D01*
X35407256Y16715985D01*
X35319218Y16648431D01*
X35316069Y16644327D01*
X35227309Y16528652D01*
X35222964Y16522990D01*
X35194966Y16455396D01*
X35164930Y16382883D01*
X35162456Y16376911D01*
X35141818Y16220149D01*
X35162456Y16063387D01*
X35164439Y16058601D01*
X35164439Y16058599D01*
X35169690Y16045922D01*
X35222964Y15917308D01*
X35226117Y15913199D01*
X35226118Y15913197D01*
X35265696Y15861618D01*
X35319218Y15791867D01*
X35323322Y15788718D01*
X35323323Y15788717D01*
X35366092Y15755899D01*
X35395127Y15710322D01*
X35397000Y15693224D01*
X35397000Y15407892D01*
X35395230Y15391265D01*
X35392549Y15378812D01*
X35393903Y15367373D01*
X35396452Y15345836D01*
X35397000Y15336550D01*
X35397000Y15332958D01*
X35397535Y15329742D01*
X35397536Y15329733D01*
X35400074Y15314484D01*
X35400598Y15310802D01*
X35402346Y15296035D01*
X35406264Y15262935D01*
X35409080Y15257070D01*
X35409313Y15256047D01*
X35409848Y15254356D01*
X35410243Y15253392D01*
X35411312Y15246970D01*
X35418919Y15232873D01*
X35434215Y15204524D01*
X35435900Y15201216D01*
X35456774Y15157747D01*
X35460092Y15153799D01*
X35461276Y15152615D01*
X35463904Y15149501D01*
X35466722Y15144279D01*
X35471520Y15139844D01*
X35503810Y15109995D01*
X35506046Y15107845D01*
X36787203Y13826688D01*
X36810041Y13777712D01*
X36796055Y13725514D01*
X36751789Y13694519D01*
X36740629Y13692375D01*
X36733995Y13691590D01*
X36724947Y13690519D01*
X36715664Y13689971D01*
X36712079Y13689971D01*
X36708861Y13689435D01*
X36708857Y13689435D01*
X36693620Y13686899D01*
X36689936Y13686375D01*
X36648543Y13681476D01*
X36648542Y13681476D01*
X36642056Y13680708D01*
X36636191Y13677891D01*
X36635183Y13677662D01*
X36633466Y13677119D01*
X36632511Y13676727D01*
X36626091Y13675659D01*
X36583652Y13652760D01*
X36580344Y13651075D01*
X36541354Y13632353D01*
X36541349Y13632350D01*
X36536868Y13630198D01*
X36532920Y13626879D01*
X36531738Y13625697D01*
X36528620Y13623066D01*
X36523400Y13620249D01*
X36518967Y13615453D01*
X36489116Y13583161D01*
X36486966Y13580925D01*
X35210071Y12304030D01*
X35164522Y12281567D01*
X35121232Y12275867D01*
X35069403Y12269044D01*
X35064617Y12267061D01*
X35064615Y12267061D01*
X34936397Y12213951D01*
X34882409Y12211593D01*
X34839537Y12244490D01*
X34827165Y12286937D01*
X34827165Y15975236D01*
X34837270Y16012951D01*
X34838195Y16014157D01*
X34898703Y16160236D01*
X34919341Y16316998D01*
X34898703Y16473760D01*
X34838195Y16619839D01*
X34813840Y16651580D01*
X34745090Y16741176D01*
X34741941Y16745280D01*
X34661274Y16807178D01*
X34620611Y16838380D01*
X34620609Y16838381D01*
X34616500Y16841534D01*
X34513050Y16884384D01*
X34475209Y16900059D01*
X34475207Y16900059D01*
X34470421Y16902042D01*
X34313659Y16922680D01*
X34156897Y16902042D01*
X34152111Y16900059D01*
X34152109Y16900059D01*
X34114268Y16884384D01*
X34010818Y16841534D01*
X34006709Y16838381D01*
X34006707Y16838380D01*
X33966044Y16807178D01*
X33885377Y16745280D01*
X33882228Y16741176D01*
X33879875Y16738823D01*
X33830899Y16715985D01*
X33778701Y16729971D01*
X33761341Y16746590D01*
X33742765Y16770799D01*
X33695355Y16807178D01*
X33621435Y16863899D01*
X33621433Y16863900D01*
X33617324Y16867053D01*
X33513874Y16909903D01*
X33476033Y16925578D01*
X33476031Y16925578D01*
X33471245Y16927561D01*
X33314483Y16948199D01*
X33157721Y16927561D01*
X33152935Y16925578D01*
X33152933Y16925578D01*
X33115092Y16909903D01*
X33011642Y16867053D01*
X33007533Y16863900D01*
X33007531Y16863899D01*
X32933611Y16807178D01*
X32886201Y16770799D01*
X32883053Y16766696D01*
X32883051Y16766694D01*
X32864448Y16742450D01*
X32818872Y16713415D01*
X32765295Y16720468D01*
X32739099Y16742449D01*
X32686282Y16811282D01*
X32646857Y16841534D01*
X32564952Y16904382D01*
X32564950Y16904383D01*
X32560841Y16907536D01*
X32457391Y16950386D01*
X32419550Y16966061D01*
X32419548Y16966061D01*
X32414762Y16968044D01*
X32258000Y16988682D01*
X32101238Y16968044D01*
X32100877Y16970789D01*
X32057019Y16974605D01*
X32018789Y17012797D01*
X32012047Y17056530D01*
X32021012Y17124627D01*
X32021012Y17124628D01*
X32021688Y17129763D01*
X32001050Y17286525D01*
X31940542Y17432604D01*
X31844288Y17558045D01*
X31819492Y17577072D01*
X31722958Y17651145D01*
X31722956Y17651146D01*
X31718847Y17654299D01*
X31615397Y17697149D01*
X31577556Y17712824D01*
X31577554Y17712824D01*
X31572768Y17714807D01*
X31416006Y17735445D01*
X31259244Y17714807D01*
X31254458Y17712824D01*
X31254456Y17712824D01*
X31216615Y17697149D01*
X31113165Y17654299D01*
X31109056Y17651146D01*
X31109054Y17651145D01*
X31012520Y17577072D01*
X30987724Y17558045D01*
X30891470Y17432604D01*
X30830962Y17286525D01*
X30810324Y17129763D01*
X30811000Y17124628D01*
X30811000Y17123871D01*
X30792518Y17073091D01*
X30787861Y17068011D01*
X30174516Y16454666D01*
X30174513Y16454662D01*
X30151950Y16432099D01*
X30149127Y16426558D01*
X30149126Y16426557D01*
X30140286Y16409207D01*
X30133807Y16398635D01*
X30122362Y16382883D01*
X30122360Y16382879D01*
X30118704Y16377847D01*
X30113651Y16362296D01*
X30110764Y16353410D01*
X30106022Y16341961D01*
X30094354Y16319061D01*
X30090333Y16293671D01*
X30087443Y16281635D01*
X30079500Y16257190D01*
X30079500Y11790831D01*
X30061018Y11740051D01*
X30056361Y11734970D01*
X30055823Y11734432D01*
X30051718Y11731282D01*
X30037934Y11713318D01*
X30019378Y11689135D01*
X29955464Y11605841D01*
X29894956Y11459762D01*
X29874318Y11303000D01*
X29894956Y11146238D01*
X29896939Y11141452D01*
X29896939Y11141450D01*
X29906103Y11119327D01*
X29955464Y11000159D01*
X30051718Y10874718D01*
X30055822Y10871569D01*
X30173048Y10781618D01*
X30173050Y10781617D01*
X30177159Y10778464D01*
X30280609Y10735614D01*
X30318450Y10719939D01*
X30318452Y10719939D01*
X30323238Y10717956D01*
X30480000Y10697318D01*
X30636762Y10717956D01*
X30641548Y10719939D01*
X30641550Y10719939D01*
X30679391Y10735614D01*
X30782841Y10778464D01*
X30786950Y10781617D01*
X30786952Y10781618D01*
X30904178Y10871569D01*
X30908282Y10874718D01*
X31004536Y11000159D01*
X31053897Y11119327D01*
X31063061Y11141450D01*
X31063061Y11141452D01*
X31065044Y11146238D01*
X31085682Y11303000D01*
X31065044Y11459762D01*
X31004536Y11605841D01*
X30940623Y11689135D01*
X30922066Y11713318D01*
X30908282Y11731282D01*
X30904177Y11734432D01*
X30903639Y11734970D01*
X30880801Y11783946D01*
X30880500Y11790831D01*
X30880500Y15995142D01*
X30898982Y16045922D01*
X30903639Y16051003D01*
X31354253Y16501618D01*
X31403229Y16524456D01*
X31410114Y16524757D01*
X31410871Y16524757D01*
X31416006Y16524081D01*
X31438946Y16527101D01*
X31572768Y16544719D01*
X31573129Y16541974D01*
X31616987Y16538158D01*
X31655217Y16499966D01*
X31661959Y16456233D01*
X31652994Y16388136D01*
X31652318Y16383000D01*
X31672956Y16226238D01*
X31733464Y16080159D01*
X31736617Y16076050D01*
X31736618Y16076048D01*
X31755836Y16051003D01*
X31829718Y15954718D01*
X31833822Y15951569D01*
X31951048Y15861618D01*
X31951050Y15861617D01*
X31955159Y15858464D01*
X31959946Y15856481D01*
X31959948Y15856480D01*
X32100610Y15798216D01*
X32126239Y15781091D01*
X32469361Y15437969D01*
X32492199Y15388993D01*
X32492500Y15382108D01*
X32492500Y12263614D01*
X32474018Y12212834D01*
X32469361Y12207753D01*
X30541752Y10280145D01*
X30492776Y10257307D01*
X30485891Y10257006D01*
X30485134Y10257006D01*
X30480000Y10257682D01*
X30323238Y10237044D01*
X30318452Y10235061D01*
X30318450Y10235061D01*
X30280609Y10219386D01*
X30177159Y10176536D01*
X30173050Y10173383D01*
X30173048Y10173382D01*
X30086600Y10107048D01*
X30051718Y10080282D01*
X30043627Y10069738D01*
X29959237Y9959758D01*
X29955464Y9954841D01*
X29928384Y9889464D01*
X29903041Y9828280D01*
X29894956Y9808762D01*
X29874318Y9652000D01*
X23514500Y9652000D01*
X23514500Y15252633D01*
X23506557Y15277078D01*
X23503667Y15289114D01*
X23499646Y15314504D01*
X23487978Y15337404D01*
X23483236Y15348853D01*
X23478317Y15363991D01*
X23475296Y15373290D01*
X23460188Y15394085D01*
X23453719Y15404640D01*
X23442050Y15427542D01*
X22931239Y15938353D01*
X22908401Y15987329D01*
X22908100Y15994214D01*
X22908100Y17139348D01*
X22896467Y17197831D01*
X22892146Y17204298D01*
X22892145Y17204300D01*
X22856472Y17257687D01*
X22852152Y17264152D01*
X22845687Y17268472D01*
X22792300Y17304145D01*
X22792298Y17304146D01*
X22785831Y17308467D01*
X22764906Y17312629D01*
X22731160Y17319342D01*
X22731157Y17319342D01*
X22727348Y17320100D01*
X21163852Y17320100D01*
X21160043Y17319342D01*
X21160040Y17319342D01*
X21126294Y17312629D01*
X21105369Y17308467D01*
X21098902Y17304146D01*
X21098900Y17304145D01*
X21045513Y17268472D01*
X21039048Y17264152D01*
X21034728Y17257687D01*
X20999055Y17204300D01*
X20999054Y17204298D01*
X20994733Y17197831D01*
X20983100Y17139348D01*
X20983100Y15575852D01*
X20200000Y15575852D01*
X20200000Y18115852D01*
X20983100Y18115852D01*
X20994733Y18057369D01*
X20999054Y18050902D01*
X20999055Y18050900D01*
X21034728Y17997513D01*
X21039048Y17991048D01*
X21045513Y17986728D01*
X21098900Y17951055D01*
X21098902Y17951054D01*
X21105369Y17946733D01*
X21126294Y17942571D01*
X21160040Y17935858D01*
X21160043Y17935858D01*
X21163852Y17935100D01*
X22727348Y17935100D01*
X22731157Y17935858D01*
X22731160Y17935858D01*
X22764906Y17942571D01*
X22785831Y17946733D01*
X22792298Y17951054D01*
X22792300Y17951055D01*
X22845687Y17986728D01*
X22852152Y17991048D01*
X22856472Y17997513D01*
X22892145Y18050900D01*
X22892146Y18050902D01*
X22896467Y18057369D01*
X22908100Y18115852D01*
X22908100Y19331696D01*
X22926582Y19382476D01*
X22931239Y19387557D01*
X23380239Y19836557D01*
X23393245Y19847062D01*
X23403952Y19853975D01*
X23424519Y19880064D01*
X23430698Y19887016D01*
X23433228Y19889546D01*
X23444111Y19904776D01*
X23446345Y19907751D01*
X23472149Y19940482D01*
X23472150Y19940484D01*
X23476192Y19945611D01*
X23478348Y19951750D01*
X23478901Y19952629D01*
X23479728Y19954220D01*
X23480127Y19955174D01*
X23483911Y19960469D01*
X23485780Y19966720D01*
X23485782Y19966723D01*
X23497730Y20006676D01*
X23498881Y20010217D01*
X23513207Y20051013D01*
X23514855Y20055706D01*
X23515300Y20060844D01*
X23515300Y20062508D01*
X23515644Y20066578D01*
X23517344Y20072263D01*
X23516769Y20086916D01*
X23515361Y20122735D01*
X23515300Y20125836D01*
X23515300Y22478896D01*
X23533782Y22529676D01*
X23538439Y22534757D01*
X23642443Y22638761D01*
X23691419Y22661599D01*
X23698304Y22661900D01*
X25240495Y22661900D01*
X25291275Y22643418D01*
X25303170Y22630992D01*
X25306298Y22626916D01*
X25378118Y22533318D01*
X25382222Y22530169D01*
X25499448Y22440218D01*
X25499450Y22440217D01*
X25503559Y22437064D01*
X25607009Y22394214D01*
X25644850Y22378539D01*
X25644852Y22378539D01*
X25649638Y22376556D01*
X25806400Y22355918D01*
X25963162Y22376556D01*
X25967948Y22378539D01*
X25967950Y22378539D01*
X26005791Y22394214D01*
X26109241Y22437064D01*
X26113350Y22440217D01*
X26113352Y22440218D01*
X26230578Y22530169D01*
X26234682Y22533318D01*
X26306502Y22626916D01*
X26327782Y22654648D01*
X26327783Y22654650D01*
X26330936Y22658759D01*
X26391444Y22804838D01*
X26412082Y22961600D01*
X26391444Y23118362D01*
X26330936Y23264441D01*
X26312567Y23288381D01*
X26237831Y23385778D01*
X26234682Y23389882D01*
X26172091Y23437910D01*
X26113352Y23482982D01*
X26113350Y23482983D01*
X26109241Y23486136D01*
X25990998Y23535114D01*
X25967950Y23544661D01*
X25967948Y23544661D01*
X25963162Y23546644D01*
X25806400Y23567282D01*
X25649638Y23546644D01*
X25644852Y23544661D01*
X25644850Y23544661D01*
X25621802Y23535114D01*
X25503559Y23486136D01*
X25499450Y23482983D01*
X25499448Y23482982D01*
X25440709Y23437910D01*
X25378118Y23389882D01*
X25375135Y23385995D01*
X25326254Y23363201D01*
X25319369Y23362900D01*
X23566219Y23362900D01*
X23549592Y23364670D01*
X23543523Y23365977D01*
X23543520Y23365977D01*
X23537139Y23367351D01*
X23504163Y23363448D01*
X23494877Y23362900D01*
X23491285Y23362900D01*
X23488066Y23362364D01*
X23488063Y23362364D01*
X23472808Y23359825D01*
X23469124Y23359301D01*
X23458660Y23358062D01*
X23421261Y23353636D01*
X23415395Y23350820D01*
X23414372Y23350587D01*
X23412678Y23350051D01*
X23411714Y23349656D01*
X23405297Y23348588D01*
X23362833Y23325675D01*
X23359541Y23323999D01*
X23320554Y23305278D01*
X23320552Y23305277D01*
X23316073Y23303126D01*
X23312126Y23299808D01*
X23310950Y23298632D01*
X23307825Y23295994D01*
X23302606Y23293178D01*
X23298172Y23288381D01*
X23268322Y23256090D01*
X23266172Y23253854D01*
X22949361Y22937043D01*
X22936355Y22926538D01*
X22925648Y22919625D01*
X22905487Y22894052D01*
X22905081Y22893536D01*
X22898902Y22886584D01*
X22896372Y22884054D01*
X22894477Y22881402D01*
X22885491Y22868827D01*
X22883258Y22865853D01*
X22853408Y22827989D01*
X22851252Y22821850D01*
X22850696Y22820966D01*
X22849874Y22819383D01*
X22849474Y22818427D01*
X22845689Y22813131D01*
X22843819Y22806878D01*
X22843818Y22806876D01*
X22831869Y22766919D01*
X22830720Y22763385D01*
X22814745Y22717894D01*
X22814300Y22712756D01*
X22814300Y22711088D01*
X22813955Y22707017D01*
X22812256Y22701336D01*
X22812512Y22694816D01*
X22812512Y22694815D01*
X22814239Y22650866D01*
X22814300Y22647764D01*
X22814300Y20294704D01*
X22795818Y20243924D01*
X22791161Y20238843D01*
X22435557Y19883239D01*
X22386581Y19860401D01*
X22379696Y19860100D01*
X21163852Y19860100D01*
X21160043Y19859342D01*
X21160040Y19859342D01*
X21126294Y19852629D01*
X21105369Y19848467D01*
X21098902Y19844146D01*
X21098900Y19844145D01*
X21070181Y19824955D01*
X21039048Y19804152D01*
X21034728Y19797687D01*
X20999055Y19744300D01*
X20999054Y19744298D01*
X20994733Y19737831D01*
X20983100Y19679348D01*
X20983100Y18115852D01*
X20200000Y18115852D01*
X20200000Y26416000D01*
X23219518Y26416000D01*
X23240156Y26259238D01*
X23300664Y26113159D01*
X23396918Y25987718D01*
X23401022Y25984569D01*
X23518248Y25894618D01*
X23518250Y25894617D01*
X23522359Y25891464D01*
X23625809Y25848614D01*
X23663650Y25832939D01*
X23663652Y25832939D01*
X23668438Y25830956D01*
X23825200Y25810318D01*
X23830335Y25810994D01*
X23830336Y25810994D01*
X23946264Y25826256D01*
X23999022Y25814560D01*
X24012436Y25803793D01*
X25387949Y24428280D01*
X25391363Y24424325D01*
X25393450Y24420056D01*
X25398796Y24415097D01*
X25430015Y24386137D01*
X25432149Y24384080D01*
X25446152Y24370077D01*
X25449159Y24368014D01*
X25451277Y24366254D01*
X25454504Y24363420D01*
X25475521Y24343924D01*
X25482296Y24341221D01*
X25488278Y24338834D01*
X25503692Y24330603D01*
X25515021Y24322832D01*
X25522116Y24321148D01*
X25522119Y24321147D01*
X25542365Y24316343D01*
X25553397Y24312855D01*
X25579497Y24302442D01*
X25585790Y24301825D01*
X25594302Y24301825D01*
X25612542Y24299690D01*
X25623941Y24296985D01*
X25631172Y24297969D01*
X25654200Y24301103D01*
X25664853Y24301825D01*
X27727854Y24301825D01*
X27778634Y24283343D01*
X27805654Y24236543D01*
X27796270Y24183325D01*
X27775946Y24160150D01*
X27765718Y24152302D01*
X27669464Y24026861D01*
X27608956Y23880782D01*
X27588318Y23724020D01*
X27588994Y23718885D01*
X27592149Y23694920D01*
X27608956Y23567258D01*
X27610939Y23562472D01*
X27610939Y23562470D01*
X27623970Y23531010D01*
X27669464Y23421179D01*
X27672617Y23417070D01*
X27672618Y23417068D01*
X27721291Y23353636D01*
X27765718Y23295738D01*
X27769822Y23292589D01*
X27769823Y23292588D01*
X27812592Y23259770D01*
X27841627Y23214193D01*
X27843500Y23197095D01*
X27843500Y23037904D01*
X27825018Y22987124D01*
X27820361Y22982043D01*
X25692561Y20854243D01*
X25679555Y20843738D01*
X25668848Y20836825D01*
X25648687Y20811252D01*
X25648281Y20810736D01*
X25642102Y20803784D01*
X25639572Y20801254D01*
X25637677Y20798602D01*
X25628691Y20786027D01*
X25626458Y20783053D01*
X25596608Y20745189D01*
X25594452Y20739050D01*
X25593896Y20738166D01*
X25593074Y20736583D01*
X25592674Y20735627D01*
X25588889Y20730331D01*
X25587019Y20724078D01*
X25587018Y20724076D01*
X25575069Y20684119D01*
X25573920Y20680585D01*
X25557945Y20635094D01*
X25557500Y20629956D01*
X25557500Y20628288D01*
X25557155Y20624217D01*
X25555456Y20618536D01*
X25555712Y20612016D01*
X25555712Y20612015D01*
X25557439Y20568066D01*
X25557500Y20564964D01*
X25557500Y20497904D01*
X25539018Y20447124D01*
X25534361Y20442043D01*
X24975557Y19883239D01*
X24926581Y19860401D01*
X24919696Y19860100D01*
X23703852Y19860100D01*
X23700043Y19859342D01*
X23700040Y19859342D01*
X23666294Y19852629D01*
X23645369Y19848467D01*
X23638902Y19844146D01*
X23638900Y19844145D01*
X23610181Y19824955D01*
X23579048Y19804152D01*
X23574728Y19797687D01*
X23539055Y19744300D01*
X23539054Y19744298D01*
X23534733Y19737831D01*
X23523100Y19679348D01*
X23523100Y18115852D01*
X23534733Y18057369D01*
X23539054Y18050902D01*
X23539055Y18050900D01*
X23574728Y17997513D01*
X23579048Y17991048D01*
X23585513Y17986728D01*
X23638900Y17951055D01*
X23638902Y17951054D01*
X23645369Y17946733D01*
X23666294Y17942571D01*
X23700040Y17935858D01*
X23700043Y17935858D01*
X23703852Y17935100D01*
X25267348Y17935100D01*
X25271157Y17935858D01*
X25271160Y17935858D01*
X25304906Y17942571D01*
X25325831Y17946733D01*
X25332298Y17951054D01*
X25332300Y17951055D01*
X25385687Y17986728D01*
X25392152Y17991048D01*
X25396472Y17997513D01*
X25432145Y18050900D01*
X25432146Y18050902D01*
X25436467Y18057369D01*
X25448100Y18115852D01*
X25448100Y19331696D01*
X25466582Y19382476D01*
X25471239Y19387557D01*
X26123439Y20039757D01*
X26136445Y20050262D01*
X26147152Y20057175D01*
X26167719Y20083264D01*
X26173898Y20090216D01*
X26176428Y20092746D01*
X26187311Y20107976D01*
X26189545Y20110951D01*
X26215349Y20143682D01*
X26215350Y20143684D01*
X26219392Y20148811D01*
X26221548Y20154950D01*
X26222104Y20155834D01*
X26222926Y20157417D01*
X26223326Y20158373D01*
X26227111Y20163669D01*
X26240925Y20209863D01*
X26242074Y20213397D01*
X26256408Y20254213D01*
X26256410Y20254221D01*
X26258055Y20258906D01*
X26258500Y20264044D01*
X26258500Y20265716D01*
X26258844Y20269781D01*
X26260543Y20275463D01*
X26258561Y20325920D01*
X26258500Y20329021D01*
X26258500Y20396096D01*
X26276982Y20446876D01*
X26281639Y20451957D01*
X28409439Y22579757D01*
X28422445Y22590262D01*
X28433152Y22597175D01*
X28453719Y22623264D01*
X28459898Y22630216D01*
X28462428Y22632746D01*
X28473311Y22647976D01*
X28475545Y22650951D01*
X28501349Y22683682D01*
X28501350Y22683684D01*
X28505392Y22688811D01*
X28507548Y22694950D01*
X28508104Y22695834D01*
X28508926Y22697417D01*
X28509326Y22698373D01*
X28513111Y22703669D01*
X28526925Y22749863D01*
X28528074Y22753397D01*
X28542408Y22794213D01*
X28542410Y22794221D01*
X28544055Y22798906D01*
X28544500Y22804044D01*
X28544500Y22805716D01*
X28544844Y22809781D01*
X28546543Y22815463D01*
X28545850Y22833118D01*
X28544561Y22865920D01*
X28544500Y22869021D01*
X28544500Y23197095D01*
X28562982Y23247875D01*
X28575408Y23259770D01*
X28618177Y23292588D01*
X28618178Y23292589D01*
X28622282Y23295738D01*
X28666709Y23353636D01*
X28715382Y23417068D01*
X28715383Y23417070D01*
X28718536Y23421179D01*
X28764030Y23531010D01*
X28777061Y23562470D01*
X28777061Y23562472D01*
X28779044Y23567258D01*
X28795851Y23694920D01*
X28799006Y23718885D01*
X28799682Y23724020D01*
X28779044Y23880782D01*
X28718536Y24026861D01*
X28622282Y24152302D01*
X28612054Y24160150D01*
X28583019Y24205725D01*
X28590072Y24259302D01*
X28629913Y24295811D01*
X28660146Y24301825D01*
X32124412Y24301825D01*
X32172504Y24285500D01*
X32284401Y24199638D01*
X32284403Y24199637D01*
X32288512Y24196484D01*
X32387577Y24155450D01*
X32429803Y24137959D01*
X32429805Y24137959D01*
X32434591Y24135976D01*
X32591353Y24115338D01*
X32748115Y24135976D01*
X32752901Y24137959D01*
X32752903Y24137959D01*
X32795129Y24155450D01*
X32894194Y24196484D01*
X32898303Y24199637D01*
X32898305Y24199638D01*
X33015531Y24289589D01*
X33019635Y24292738D01*
X33048690Y24330603D01*
X33112735Y24414068D01*
X33112736Y24414070D01*
X33115889Y24418179D01*
X33176397Y24564258D01*
X33197035Y24721020D01*
X33176397Y24877782D01*
X33151878Y24936976D01*
X33149521Y24990962D01*
X33182418Y25033834D01*
X33194633Y25040192D01*
X33324887Y25094145D01*
X33324889Y25094146D01*
X33329676Y25096129D01*
X33333785Y25099282D01*
X33333787Y25099283D01*
X33451013Y25189234D01*
X33455117Y25192383D01*
X33539494Y25302345D01*
X33548217Y25313713D01*
X33548218Y25313715D01*
X33551371Y25317824D01*
X33606470Y25450846D01*
X33642977Y25490685D01*
X33696554Y25497738D01*
X33735316Y25476472D01*
X34618312Y24593476D01*
X34641150Y24544500D01*
X34641451Y24537615D01*
X34641451Y24524583D01*
X34622969Y24473803D01*
X34610543Y24461908D01*
X34513669Y24387574D01*
X34510520Y24383470D01*
X34438483Y24289589D01*
X34417415Y24262133D01*
X34389401Y24194501D01*
X34370222Y24148198D01*
X34356907Y24116054D01*
X34336269Y23959292D01*
X34356907Y23802530D01*
X34417415Y23656451D01*
X34513669Y23531010D01*
X34517773Y23527861D01*
X34634999Y23437910D01*
X34635001Y23437909D01*
X34639110Y23434756D01*
X34721925Y23400453D01*
X34780401Y23376231D01*
X34780403Y23376231D01*
X34785189Y23374248D01*
X34894743Y23359825D01*
X34935928Y23354403D01*
X34941951Y23353610D01*
X34947975Y23354403D01*
X34989159Y23359825D01*
X35098713Y23374248D01*
X35103499Y23376231D01*
X35103501Y23376231D01*
X35161977Y23400453D01*
X35244792Y23434756D01*
X35248901Y23437909D01*
X35248903Y23437910D01*
X35366129Y23527861D01*
X35370233Y23531010D01*
X35466487Y23656451D01*
X35526995Y23802530D01*
X35547633Y23959292D01*
X35526995Y24116054D01*
X35513681Y24148198D01*
X35494501Y24194501D01*
X35466487Y24262133D01*
X35445420Y24289589D01*
X35373382Y24383470D01*
X35370233Y24387574D01*
X35273359Y24461908D01*
X35244324Y24507484D01*
X35242451Y24524583D01*
X35242451Y24640454D01*
X35242833Y24645655D01*
X35244376Y24650150D01*
X35242507Y24699942D01*
X35242451Y24702905D01*
X35242451Y24722756D01*
X35241785Y24726332D01*
X35241531Y24729085D01*
X35241252Y24733384D01*
X35240451Y24754724D01*
X35240451Y24754725D01*
X35240177Y24762016D01*
X35237298Y24768718D01*
X35237297Y24768721D01*
X35234754Y24774640D01*
X35229675Y24791358D01*
X35228496Y24797689D01*
X35228496Y24797690D01*
X35227160Y24804861D01*
X35212408Y24828793D01*
X35207085Y24839041D01*
X35195987Y24864871D01*
X35191973Y24869757D01*
X35185958Y24875772D01*
X35174569Y24890179D01*
X35168419Y24900156D01*
X35162613Y24904571D01*
X35162611Y24904573D01*
X35144106Y24918644D01*
X35136063Y24925667D01*
X33420885Y26640845D01*
X33417471Y26644800D01*
X33415384Y26649069D01*
X33378819Y26682988D01*
X33376685Y26685045D01*
X33362682Y26699048D01*
X33359675Y26701111D01*
X33357557Y26702871D01*
X33354330Y26705705D01*
X33333313Y26725201D01*
X33326540Y26727903D01*
X33326537Y26727905D01*
X33320554Y26730292D01*
X33305142Y26738520D01*
X33293813Y26746292D01*
X33286718Y26747976D01*
X33286715Y26747977D01*
X33266473Y26752780D01*
X33255446Y26756267D01*
X33229337Y26766683D01*
X33223044Y26767300D01*
X33214532Y26767300D01*
X33196293Y26769435D01*
X33184893Y26772140D01*
X33177662Y26771156D01*
X33154634Y26768022D01*
X33143981Y26767300D01*
X32463395Y26767300D01*
X32458190Y26767682D01*
X32453693Y26769226D01*
X32403886Y26767356D01*
X32400922Y26767300D01*
X32381087Y26767300D01*
X32377505Y26766633D01*
X32374768Y26766380D01*
X32370470Y26766101D01*
X32362569Y26765805D01*
X32349118Y26765300D01*
X32349117Y26765300D01*
X32341827Y26765026D01*
X32335125Y26762147D01*
X32335122Y26762146D01*
X32329203Y26759603D01*
X32312485Y26754524D01*
X32306154Y26753345D01*
X32306153Y26753345D01*
X32298982Y26752009D01*
X32292774Y26748182D01*
X32292773Y26748182D01*
X32275056Y26737261D01*
X32264799Y26731932D01*
X32238973Y26720836D01*
X32234086Y26716823D01*
X32228068Y26710805D01*
X32213660Y26699416D01*
X32209900Y26697098D01*
X32203687Y26693268D01*
X32199272Y26687461D01*
X32199270Y26687460D01*
X32185202Y26668959D01*
X32178179Y26660916D01*
X31242268Y25725004D01*
X31193292Y25702166D01*
X31186407Y25701865D01*
X30280229Y25701865D01*
X30229449Y25720347D01*
X30224368Y25725004D01*
X28704607Y27244764D01*
X28681769Y27293740D01*
X28682144Y27310936D01*
X28697406Y27426864D01*
X28697406Y27426865D01*
X28698082Y27432000D01*
X28677444Y27588762D01*
X28616936Y27734841D01*
X28520682Y27860282D01*
X28495886Y27879309D01*
X28399352Y27953382D01*
X28399350Y27953383D01*
X28395241Y27956536D01*
X28291791Y27999386D01*
X28253950Y28015061D01*
X28253948Y28015061D01*
X28249162Y28017044D01*
X28092400Y28037682D01*
X27935638Y28017044D01*
X27930852Y28015061D01*
X27930850Y28015061D01*
X27893009Y27999386D01*
X27789559Y27956536D01*
X27785450Y27953383D01*
X27785448Y27953382D01*
X27688914Y27879309D01*
X27664118Y27860282D01*
X27567864Y27734841D01*
X27507356Y27588762D01*
X27486718Y27432000D01*
X27507356Y27275238D01*
X27567864Y27129159D01*
X27664118Y27003718D01*
X27668222Y27000569D01*
X27785448Y26910618D01*
X27785450Y26910617D01*
X27789559Y26907464D01*
X27893009Y26864614D01*
X27930850Y26848939D01*
X27930852Y26848939D01*
X27935638Y26846956D01*
X28092400Y26826318D01*
X28097535Y26826994D01*
X28097536Y26826994D01*
X28213464Y26842256D01*
X28266222Y26830560D01*
X28279636Y26819793D01*
X29662223Y25437206D01*
X29685061Y25388230D01*
X29671075Y25336032D01*
X29626809Y25305037D01*
X29606362Y25302345D01*
X27276148Y25302345D01*
X27225368Y25320827D01*
X27220287Y25325484D01*
X26317007Y26228764D01*
X26294169Y26277740D01*
X26294544Y26294936D01*
X26309806Y26410864D01*
X26309806Y26410865D01*
X26310482Y26416000D01*
X26289844Y26572762D01*
X26229336Y26718841D01*
X26220550Y26730292D01*
X26146866Y26826318D01*
X26133082Y26844282D01*
X26053326Y26905481D01*
X26011752Y26937382D01*
X26011750Y26937383D01*
X26007641Y26940536D01*
X25904191Y26983386D01*
X25866350Y26999061D01*
X25866348Y26999061D01*
X25861562Y27001044D01*
X25704800Y27021682D01*
X25548038Y27001044D01*
X25543252Y26999061D01*
X25543250Y26999061D01*
X25505409Y26983386D01*
X25401959Y26940536D01*
X25397850Y26937383D01*
X25397848Y26937382D01*
X25356274Y26905481D01*
X25276518Y26844282D01*
X25262734Y26826318D01*
X25189051Y26730292D01*
X25180264Y26718841D01*
X25119756Y26572762D01*
X25099118Y26416000D01*
X25119756Y26259238D01*
X25180264Y26113159D01*
X25276518Y25987718D01*
X25280622Y25984569D01*
X25397848Y25894618D01*
X25397850Y25894617D01*
X25401959Y25891464D01*
X25505409Y25848614D01*
X25543250Y25832939D01*
X25543252Y25832939D01*
X25548038Y25830956D01*
X25704800Y25810318D01*
X25709935Y25810994D01*
X25709936Y25810994D01*
X25825864Y25826256D01*
X25878622Y25814560D01*
X25892036Y25803793D01*
X26658143Y25037686D01*
X26680981Y24988710D01*
X26666995Y24936512D01*
X26622729Y24905517D01*
X26602282Y24902825D01*
X25796069Y24902825D01*
X25745289Y24921307D01*
X25740208Y24925964D01*
X24437407Y26228764D01*
X24414569Y26277740D01*
X24414944Y26294936D01*
X24430206Y26410864D01*
X24430206Y26410865D01*
X24430882Y26416000D01*
X24410244Y26572762D01*
X24349736Y26718841D01*
X24340950Y26730292D01*
X24267266Y26826318D01*
X24253482Y26844282D01*
X24173726Y26905481D01*
X24132152Y26937382D01*
X24132150Y26937383D01*
X24128041Y26940536D01*
X24024591Y26983386D01*
X23986750Y26999061D01*
X23986748Y26999061D01*
X23981962Y27001044D01*
X23825200Y27021682D01*
X23668438Y27001044D01*
X23663652Y26999061D01*
X23663650Y26999061D01*
X23625809Y26983386D01*
X23522359Y26940536D01*
X23518250Y26937383D01*
X23518248Y26937382D01*
X23476674Y26905481D01*
X23396918Y26844282D01*
X23383134Y26826318D01*
X23309451Y26730292D01*
X23300664Y26718841D01*
X23240156Y26572762D01*
X23219518Y26416000D01*
X20200000Y26416000D01*
X20200000Y29721000D01*
X20218482Y29771780D01*
X20265282Y29798800D01*
X20279000Y29800000D01*
X20742124Y29800000D01*
X20792904Y29781518D01*
G37*
%TD.AperFunction*%
%TD*%
M02*
