%TF.GenerationSoftware,KiCad,Pcbnew,6.0.4-6f826c9f35~116~ubuntu20.04.1*%
%TF.CreationDate,2022-05-25T15:37:37+00:00*%
%TF.ProjectId,TFSIK01A,54465349-4b30-4314-912e-6b696361645f,REV*%
%TF.SameCoordinates,Original*%
%TF.FileFunction,Legend,Bot*%
%TF.FilePolarity,Positive*%
%FSLAX46Y46*%
G04 Gerber Fmt 4.6, Leading zero omitted, Abs format (unit mm)*
G04 Created by KiCad (PCBNEW 6.0.4-6f826c9f35~116~ubuntu20.04.1) date 2022-05-25 15:37:37*
%MOMM*%
%LPD*%
G01*
G04 APERTURE LIST*
%ADD10C,0.150000*%
%ADD11C,0.120000*%
%ADD12C,0.100000*%
%ADD13C,0.250000*%
%ADD14C,0.127000*%
%ADD15C,0.240000*%
G04 APERTURE END LIST*
D10*
%TO.C,L5*%
X152249380Y-96418833D02*
X152249380Y-95942642D01*
X151249380Y-95942642D01*
X151249380Y-97228357D02*
X151249380Y-96752166D01*
X151725571Y-96704547D01*
X151677952Y-96752166D01*
X151630333Y-96847404D01*
X151630333Y-97085500D01*
X151677952Y-97180738D01*
X151725571Y-97228357D01*
X151820809Y-97275976D01*
X152058904Y-97275976D01*
X152154142Y-97228357D01*
X152201761Y-97180738D01*
X152249380Y-97085500D01*
X152249380Y-96847404D01*
X152201761Y-96752166D01*
X152154142Y-96704547D01*
%TO.C,D1*%
X127028180Y-76700104D02*
X126028180Y-76700104D01*
X126028180Y-76938200D01*
X126075800Y-77081057D01*
X126171038Y-77176295D01*
X126266276Y-77223914D01*
X126456752Y-77271533D01*
X126599609Y-77271533D01*
X126790085Y-77223914D01*
X126885323Y-77176295D01*
X126980561Y-77081057D01*
X127028180Y-76938200D01*
X127028180Y-76700104D01*
X127028180Y-78223914D02*
X127028180Y-77652485D01*
X127028180Y-77938200D02*
X126028180Y-77938200D01*
X126171038Y-77842961D01*
X126266276Y-77747723D01*
X126313895Y-77652485D01*
%TO.C,D2*%
X135108380Y-76903304D02*
X134108380Y-76903304D01*
X134108380Y-77141400D01*
X134156000Y-77284257D01*
X134251238Y-77379495D01*
X134346476Y-77427114D01*
X134536952Y-77474733D01*
X134679809Y-77474733D01*
X134870285Y-77427114D01*
X134965523Y-77379495D01*
X135060761Y-77284257D01*
X135108380Y-77141400D01*
X135108380Y-76903304D01*
X134203619Y-77855685D02*
X134156000Y-77903304D01*
X134108380Y-77998542D01*
X134108380Y-78236638D01*
X134156000Y-78331876D01*
X134203619Y-78379495D01*
X134298857Y-78427114D01*
X134394095Y-78427114D01*
X134536952Y-78379495D01*
X135108380Y-77808066D01*
X135108380Y-78427114D01*
%TO.C,L3*%
X155093166Y-97500380D02*
X155569357Y-97500380D01*
X155569357Y-96500380D01*
X154855071Y-96500380D02*
X154236023Y-96500380D01*
X154569357Y-96881333D01*
X154426500Y-96881333D01*
X154331261Y-96928952D01*
X154283642Y-96976571D01*
X154236023Y-97071809D01*
X154236023Y-97309904D01*
X154283642Y-97405142D01*
X154331261Y-97452761D01*
X154426500Y-97500380D01*
X154712214Y-97500380D01*
X154807452Y-97452761D01*
X154855071Y-97405142D01*
%TO.C,J1*%
X132083333Y-91452380D02*
X132083333Y-92166666D01*
X132130952Y-92309523D01*
X132226190Y-92404761D01*
X132369047Y-92452380D01*
X132464285Y-92452380D01*
X131083333Y-92452380D02*
X131654761Y-92452380D01*
X131369047Y-92452380D02*
X131369047Y-91452380D01*
X131464285Y-91595238D01*
X131559523Y-91690476D01*
X131654761Y-91738095D01*
%TO.C,R6*%
X127274580Y-81703333D02*
X126798390Y-81370000D01*
X127274580Y-81131904D02*
X126274580Y-81131904D01*
X126274580Y-81512857D01*
X126322200Y-81608095D01*
X126369819Y-81655714D01*
X126465057Y-81703333D01*
X126607914Y-81703333D01*
X126703152Y-81655714D01*
X126750771Y-81608095D01*
X126798390Y-81512857D01*
X126798390Y-81131904D01*
X126274580Y-82560476D02*
X126274580Y-82370000D01*
X126322200Y-82274761D01*
X126369819Y-82227142D01*
X126512676Y-82131904D01*
X126703152Y-82084285D01*
X127084104Y-82084285D01*
X127179342Y-82131904D01*
X127226961Y-82179523D01*
X127274580Y-82274761D01*
X127274580Y-82465238D01*
X127226961Y-82560476D01*
X127179342Y-82608095D01*
X127084104Y-82655714D01*
X126846009Y-82655714D01*
X126750771Y-82608095D01*
X126703152Y-82560476D01*
X126655533Y-82465238D01*
X126655533Y-82274761D01*
X126703152Y-82179523D01*
X126750771Y-82131904D01*
X126846009Y-82084285D01*
%TO.C,D3*%
X131225495Y-76569780D02*
X131225495Y-75569780D01*
X130987400Y-75569780D01*
X130844542Y-75617400D01*
X130749304Y-75712638D01*
X130701685Y-75807876D01*
X130654066Y-75998352D01*
X130654066Y-76141209D01*
X130701685Y-76331685D01*
X130749304Y-76426923D01*
X130844542Y-76522161D01*
X130987400Y-76569780D01*
X131225495Y-76569780D01*
X130320733Y-75569780D02*
X129701685Y-75569780D01*
X130035019Y-75950733D01*
X129892161Y-75950733D01*
X129796923Y-75998352D01*
X129749304Y-76045971D01*
X129701685Y-76141209D01*
X129701685Y-76379304D01*
X129749304Y-76474542D01*
X129796923Y-76522161D01*
X129892161Y-76569780D01*
X130177876Y-76569780D01*
X130273114Y-76522161D01*
X130320733Y-76474542D01*
%TO.C,U1*%
X143997523Y-101203380D02*
X145025619Y-101203380D01*
X145146571Y-101263857D01*
X145207047Y-101324333D01*
X145267523Y-101445285D01*
X145267523Y-101687190D01*
X145207047Y-101808142D01*
X145146571Y-101868619D01*
X145025619Y-101929095D01*
X143997523Y-101929095D01*
X145267523Y-103199095D02*
X145267523Y-102473380D01*
X145267523Y-102836238D02*
X143997523Y-102836238D01*
X144178952Y-102715285D01*
X144299904Y-102594333D01*
X144360380Y-102473380D01*
%TO.C,L11*%
X162284380Y-80736642D02*
X162284380Y-80260452D01*
X161284380Y-80260452D01*
X162284380Y-81593785D02*
X162284380Y-81022357D01*
X162284380Y-81308071D02*
X161284380Y-81308071D01*
X161427238Y-81212833D01*
X161522476Y-81117595D01*
X161570095Y-81022357D01*
X162284380Y-82546166D02*
X162284380Y-81974738D01*
X162284380Y-82260452D02*
X161284380Y-82260452D01*
X161427238Y-82165214D01*
X161522476Y-82069976D01*
X161570095Y-81974738D01*
%TO.C,J3*%
X164345380Y-83637666D02*
X165059666Y-83637666D01*
X165202523Y-83590047D01*
X165297761Y-83494809D01*
X165345380Y-83351952D01*
X165345380Y-83256714D01*
X164345380Y-84018619D02*
X164345380Y-84637666D01*
X164726333Y-84304333D01*
X164726333Y-84447190D01*
X164773952Y-84542428D01*
X164821571Y-84590047D01*
X164916809Y-84637666D01*
X165154904Y-84637666D01*
X165250142Y-84590047D01*
X165297761Y-84542428D01*
X165345380Y-84447190D01*
X165345380Y-84161476D01*
X165297761Y-84066238D01*
X165250142Y-84018619D01*
%TO.C,L7*%
X152249380Y-90703833D02*
X152249380Y-90227642D01*
X151249380Y-90227642D01*
X151249380Y-90941928D02*
X151249380Y-91608595D01*
X152249380Y-91180023D01*
%TO.C,J4*%
X163995380Y-95287666D02*
X164709666Y-95287666D01*
X164852523Y-95240047D01*
X164947761Y-95144809D01*
X164995380Y-95001952D01*
X164995380Y-94906714D01*
X164328714Y-96192428D02*
X164995380Y-96192428D01*
X163947761Y-95954333D02*
X164662047Y-95716238D01*
X164662047Y-96335285D01*
%TO.C,Y2*%
X142569190Y-75820990D02*
X142569190Y-76297180D01*
X142902523Y-75297180D02*
X142569190Y-75820990D01*
X142235857Y-75297180D01*
X141950142Y-75392419D02*
X141902523Y-75344800D01*
X141807285Y-75297180D01*
X141569190Y-75297180D01*
X141473952Y-75344800D01*
X141426333Y-75392419D01*
X141378714Y-75487657D01*
X141378714Y-75582895D01*
X141426333Y-75725752D01*
X141997761Y-76297180D01*
X141378714Y-76297180D01*
D11*
%TO.C,C2*%
X153613220Y-79138000D02*
X153894380Y-79138000D01*
X153613220Y-80158000D02*
X153894380Y-80158000D01*
%TO.C,C32*%
X156724420Y-86631000D02*
X157005580Y-86631000D01*
X156724420Y-87651000D02*
X157005580Y-87651000D01*
%TO.C,L12*%
X162772000Y-98751752D02*
X162772000Y-98229248D01*
X164192000Y-98751752D02*
X164192000Y-98229248D01*
%TO.C,U9*%
X159782000Y-95588000D02*
X159782000Y-94188000D01*
X162102000Y-94188000D02*
X162102000Y-96088000D01*
%TO.C,C34*%
X154213000Y-87762420D02*
X154213000Y-88043580D01*
X153193000Y-87762420D02*
X153193000Y-88043580D01*
%TO.C,C19*%
X144053000Y-90429420D02*
X144053000Y-90710580D01*
X143033000Y-90429420D02*
X143033000Y-90710580D01*
%TO.C,C1*%
X134228452Y-101315800D02*
X133705948Y-101315800D01*
X134228452Y-102785800D02*
X133705948Y-102785800D01*
%TO.C,L5*%
X149437000Y-96846752D02*
X149437000Y-96324248D01*
X150857000Y-96846752D02*
X150857000Y-96324248D01*
%TO.C,D1*%
X127508000Y-80114200D02*
X127508000Y-77654200D01*
X128978000Y-80114200D02*
X127508000Y-80114200D01*
X128978000Y-77654200D02*
X128978000Y-80114200D01*
%TO.C,R22*%
X132762500Y-81696742D02*
X132762500Y-82171258D01*
X131717500Y-81696742D02*
X131717500Y-82171258D01*
%TO.C,R3*%
X134192258Y-95918500D02*
X133717742Y-95918500D01*
X134192258Y-94873500D02*
X133717742Y-94873500D01*
%TO.C,D2*%
X132978000Y-77654200D02*
X132978000Y-80114200D01*
X132978000Y-80114200D02*
X131508000Y-80114200D01*
X131508000Y-80114200D02*
X131508000Y-77654200D01*
%TO.C,U2*%
X143351000Y-82245000D02*
X142876000Y-82245000D01*
X143351000Y-82720000D02*
X143351000Y-82245000D01*
X143351000Y-86990000D02*
X143351000Y-87465000D01*
X143351000Y-87465000D02*
X142876000Y-87465000D01*
X137131000Y-86990000D02*
X137131000Y-87465000D01*
X137131000Y-82720000D02*
X137131000Y-82245000D01*
X137131000Y-87465000D02*
X137606000Y-87465000D01*
%TO.C,C13*%
X146868400Y-81160180D02*
X146868400Y-80879020D01*
X147888400Y-81160180D02*
X147888400Y-80879020D01*
%TO.C,L16*%
X155060752Y-91280000D02*
X154538248Y-91280000D01*
X155060752Y-89860000D02*
X154538248Y-89860000D01*
%TO.C,C26*%
X162972000Y-86405580D02*
X162972000Y-86124420D01*
X163992000Y-86405580D02*
X163992000Y-86124420D01*
D10*
%TO.C,C21*%
X136233000Y-92309000D02*
X137883000Y-92309000D01*
X136233000Y-90609000D02*
X136233000Y-92309000D01*
X138883000Y-92309000D02*
X140533000Y-92309000D01*
X140533000Y-92309000D02*
X140533000Y-90609000D01*
X137883000Y-90609000D02*
X136233000Y-90609000D01*
X140533000Y-90609000D02*
X138883000Y-90609000D01*
D11*
%TO.C,R1*%
X134128258Y-99728500D02*
X133653742Y-99728500D01*
X134128258Y-98683500D02*
X133653742Y-98683500D01*
%TO.C,C11*%
X149646219Y-86426970D02*
X149845030Y-86625781D01*
X148924970Y-87148219D02*
X149123781Y-87347030D01*
%TO.C,L3*%
X155187752Y-99408000D02*
X154665248Y-99408000D01*
X155187752Y-97988000D02*
X154665248Y-97988000D01*
%TO.C,C18*%
X134472252Y-91178000D02*
X133949748Y-91178000D01*
X134472252Y-89708000D02*
X133949748Y-89708000D01*
%TO.C,C20*%
X146491000Y-90496748D02*
X146491000Y-91019252D01*
X147961000Y-90496748D02*
X147961000Y-91019252D01*
%TO.C,C15*%
X145831000Y-90416420D02*
X145831000Y-90697580D01*
X144811000Y-90416420D02*
X144811000Y-90697580D01*
%TO.C,L13*%
X157463400Y-92025052D02*
X157463400Y-91502548D01*
X158883400Y-92025052D02*
X158883400Y-91502548D01*
%TO.C,J1*%
X130394000Y-101106000D02*
X131384000Y-101106000D01*
X126124000Y-101636000D02*
X126124000Y-93206000D01*
X128944000Y-91936000D02*
X130394000Y-91936000D01*
X130394000Y-102906000D02*
X130394000Y-101106000D01*
X130394000Y-91936000D02*
X130394000Y-93736000D01*
X128944000Y-102906000D02*
X130394000Y-102906000D01*
%TO.C,R6*%
X128774700Y-81632742D02*
X128774700Y-82107258D01*
X127729700Y-81632742D02*
X127729700Y-82107258D01*
%TO.C,C33*%
X156724420Y-89302000D02*
X157005580Y-89302000D01*
X156724420Y-88282000D02*
X157005580Y-88282000D01*
%TO.C,D3*%
X130978000Y-77654200D02*
X130978000Y-80114200D01*
X129508000Y-80114200D02*
X129508000Y-77654200D01*
X130978000Y-80114200D02*
X129508000Y-80114200D01*
%TO.C,R2*%
X134192258Y-97823500D02*
X133717742Y-97823500D01*
X134192258Y-96778500D02*
X133717742Y-96778500D01*
%TO.C,L10*%
X144915800Y-82866548D02*
X144915800Y-83389052D01*
X146335800Y-82866548D02*
X146335800Y-83389052D01*
D10*
%TO.C,U1*%
X143670000Y-99841000D02*
X143670000Y-102889000D01*
X143670000Y-102889000D02*
X136558000Y-102889000D01*
X136558000Y-102889000D02*
X136558000Y-99841000D01*
X143670000Y-96031000D02*
X142146000Y-93745000D01*
X138082000Y-93745000D02*
X136558000Y-96031000D01*
X143670000Y-96793000D02*
X143670000Y-96031000D01*
X142120600Y-93770400D02*
X138056600Y-93770400D01*
X136558000Y-96031000D02*
X136558000Y-96793000D01*
D12*
%TO.C,U3*%
X152461000Y-92380000D02*
X152461000Y-94380000D01*
X154461000Y-94380000D02*
X154461000Y-92380000D01*
D13*
X154986000Y-94755000D02*
G75*
G03*
X154986000Y-94755000I-125000J0D01*
G01*
D11*
%TO.C,C9*%
X149512580Y-93235000D02*
X149231420Y-93235000D01*
X149512580Y-94255000D02*
X149231420Y-94255000D01*
%TO.C,C14*%
X134018580Y-86889000D02*
X133737420Y-86889000D01*
X134018580Y-85869000D02*
X133737420Y-85869000D01*
%TO.C,C4*%
X158910580Y-98188000D02*
X158629420Y-98188000D01*
X158910580Y-99208000D02*
X158629420Y-99208000D01*
%TO.C,C7*%
X151542000Y-99332420D02*
X151542000Y-99613580D01*
X152562000Y-99332420D02*
X152562000Y-99613580D01*
%TO.C,C3*%
X145573400Y-94488852D02*
X145573400Y-93966348D01*
X144103400Y-94488852D02*
X144103400Y-93966348D01*
%TO.C,C31*%
X157105420Y-96414000D02*
X157386580Y-96414000D01*
X157105420Y-95394000D02*
X157386580Y-95394000D01*
%TO.C,L11*%
X164192000Y-81118248D02*
X164192000Y-81640752D01*
X162772000Y-81118248D02*
X162772000Y-81640752D01*
%TO.C,R23*%
X129685500Y-81633742D02*
X129685500Y-82108258D01*
X130730500Y-81633742D02*
X130730500Y-82108258D01*
%TO.C,R20*%
X134384500Y-83505258D02*
X134384500Y-83030742D01*
X135429500Y-83505258D02*
X135429500Y-83030742D01*
%TO.C,C17*%
X142148000Y-90683420D02*
X142148000Y-90964580D01*
X141128000Y-90683420D02*
X141128000Y-90964580D01*
%TO.C,C27*%
X162972000Y-93109420D02*
X162972000Y-93390580D01*
X163992000Y-93109420D02*
X163992000Y-93390580D01*
%TO.C,J3*%
X165643000Y-86046000D02*
X165643000Y-78796000D01*
X175443000Y-78796000D02*
X165643000Y-78796000D01*
X165243000Y-81871000D02*
X165243000Y-82971000D01*
X175443000Y-86046000D02*
X165643000Y-86046000D01*
%TO.C,L7*%
X149437000Y-91131752D02*
X149437000Y-90609248D01*
X150857000Y-91131752D02*
X150857000Y-90609248D01*
%TO.C,C16*%
X134018580Y-87647000D02*
X133737420Y-87647000D01*
X134018580Y-88667000D02*
X133737420Y-88667000D01*
%TO.C,C28*%
X159416000Y-88602380D02*
X159416000Y-88321220D01*
X160436000Y-88602380D02*
X160436000Y-88321220D01*
%TO.C,U7*%
X162213000Y-88663000D02*
X164113000Y-88663000D01*
X163613000Y-90983000D02*
X162213000Y-90983000D01*
D14*
%TO.C,FL1*%
X151803000Y-81557000D02*
X151803000Y-85357000D01*
X155603000Y-85357000D02*
X155603000Y-81557000D01*
D15*
X155899000Y-85741000D02*
G75*
G03*
X155899000Y-85741000I-120000J0D01*
G01*
D11*
%TO.C,R4*%
X134192258Y-93095500D02*
X133717742Y-93095500D01*
X134192258Y-94140500D02*
X133717742Y-94140500D01*
%TO.C,J4*%
X165643000Y-101046000D02*
X165643000Y-93796000D01*
X175443000Y-101046000D02*
X165643000Y-101046000D01*
X175443000Y-93796000D02*
X165643000Y-93796000D01*
X165243000Y-96871000D02*
X165243000Y-97971000D01*
%TO.C,Y2*%
X141601600Y-80355800D02*
X143401600Y-80355800D01*
X143401600Y-76755800D02*
X141601600Y-76755800D01*
X143401600Y-80355800D02*
X143401600Y-80595800D01*
X145201600Y-78955800D02*
X145201600Y-78155800D01*
X145601600Y-78955800D02*
X145201600Y-78955800D01*
X139801600Y-78155800D02*
X139801600Y-78955800D01*
%TO.C,C12*%
X148736420Y-84349000D02*
X149017580Y-84349000D01*
X148736420Y-83329000D02*
X149017580Y-83329000D01*
%TO.C,C5*%
X145573400Y-97735748D02*
X145573400Y-98258252D01*
X144103400Y-97735748D02*
X144103400Y-98258252D01*
%TO.C,L8*%
X145779400Y-87199052D02*
X145779400Y-86676548D01*
X147199400Y-87199052D02*
X147199400Y-86676548D01*
%TO.C,L9*%
X150833779Y-81108313D02*
X150464313Y-81477779D01*
X149829687Y-80104221D02*
X149460221Y-80473687D01*
%TO.C,C29*%
X160537600Y-91751980D02*
X160537600Y-91470820D01*
X159517600Y-91751980D02*
X159517600Y-91470820D01*
%TO.C,R5*%
X155212500Y-93063742D02*
X155212500Y-93538258D01*
X156257500Y-93063742D02*
X156257500Y-93538258D01*
%TD*%
M02*
