M48
; DRILL file {KiCad 6.0.4-6f826c9f35~116~ubuntu20.04.1} date Thu May  5 09:33:23 2022
; FORMAT={-:-/ absolute / metric / decimal}
; #@! TF.CreationDate,2022-05-05T09:33:23+00:00
; #@! TF.GenerationSoftware,Kicad,Pcbnew,6.0.4-6f826c9f35~116~ubuntu20.04.1
; #@! TF.FileFunction,Plated,1,2,PTH
FMAT,2
METRIC
; #@! TA.AperFunction,Plated,PTH,ComponentDrill
T1C0.200
; #@! TA.AperFunction,Plated,PTH,ViaDrill
T2C0.400
; #@! TA.AperFunction,Plated,PTH,ComponentDrill
T3C0.889
%
G90
G05
T1
X32.998Y21.616
X32.998Y20.066
X32.998Y18.516
X34.198Y21.616
X34.198Y20.066
X34.198Y18.516
X35.398Y21.616
X35.398Y20.066
X35.398Y18.516
X36.598Y21.616
X36.598Y20.066
X36.598Y18.516
X47.418Y11.541
X48.018Y11.541
X48.618Y11.541
T2
X21.463Y16.637
X21.463Y15.367
X21.463Y14.097
X21.59Y11.049
X21.59Y9.991
X21.59Y8.932
X21.59Y7.874
X21.59Y6.816
X21.59Y5.757
X21.59Y4.699
X21.717Y27.94
X22.86Y4.445
X23.622Y27.813
X24.13Y20.066
X24.13Y17.399
X24.13Y14.605
X24.13Y2.286
X24.511Y12.446
X25.019Y28.829
X25.146Y2.286
X25.273Y20.066
X25.654Y12.446
X26.162Y20.828
X26.162Y17.399
X26.162Y15.875
X26.162Y14.478
X26.289Y2.286
X26.416Y18.669
X26.543Y28.829
X26.67Y12.446
X27.178Y20.066
X27.178Y1.143
X27.813Y28.829
X27.94Y12.827
X28.067Y21.336
X28.194Y27.813
X28.194Y23.724
X28.448Y1.143
X29.083Y28.829
X29.21Y12.7
X29.718Y1.143
X30.226Y28.829
X30.226Y27.813
X30.48Y11.303
X30.48Y9.652
X30.607Y19.304
X30.607Y8.255
X30.658Y1.676
X31.242Y27.178
X31.369Y15.113
X31.416Y17.13
X32.004Y7.747
X32.131Y5.334
X32.25Y27.65
X32.258Y16.383
X33.02Y26.797
X33.02Y25.654
X33.314Y16.343
X33.401Y7.493
X33.401Y6.477
X33.401Y5.334
X33.593Y24.095
X34.314Y16.317
X34.671Y1.27
X34.875Y23.802
X34.925Y28.956
X35.226Y11.684
X35.747Y16.22
X35.941Y1.27
X36.068Y8.001
X36.068Y6.68
X36.068Y5.334
X36.661Y28.956
X36.703Y12.065
X36.705Y15.934
X37.211Y1.27
X37.465Y7.112
X37.465Y5.334
X37.49Y8.509
X37.664Y23.552
X37.795Y10.871
X37.846Y12.192
X38.354Y1.27
X38.396Y28.956
X38.608Y16.383
X38.989Y12.192
X39.497Y4.191
X39.624Y1.27
X40.132Y28.956
X40.386Y11.938
X40.894Y2.54
X41.021Y4.572
X41.148Y27.686
X41.529Y11.43
X41.529Y10.287
X41.529Y8.763
X41.529Y7.366
X41.529Y5.969
X41.91Y26.416
X42.418Y2.54
X42.545Y17.399
X43.053Y9.906
X43.053Y8.89
X43.053Y7.747
X43.053Y6.604
X43.18Y26.416
X43.282Y24.79
X43.307Y15.748
X43.307Y12.319
X44.069Y25.527
X44.069Y19.812
X44.069Y5.842
X44.323Y1.905
X45.085Y28.829
X45.085Y19.05
X45.085Y5.08
X45.212Y3.556
X45.339Y26.797
X45.593Y20.32
X45.847Y18.288
X46.101Y12.446
X46.101Y11.176
X46.101Y9.779
X46.228Y8.763
X46.355Y21.463
X46.355Y1.27
X46.482Y28.829
X46.609Y17.399
X46.609Y16.256
X46.609Y15.088
X46.609Y3.048
X46.99Y26.797
X46.99Y7.874
X47.752Y1.27
X48.006Y28.829
X48.006Y4.826
X48.006Y3.556
X48.133Y7.747
X48.387Y26.797
X49.149Y4.826
X49.191Y7.747
X49.276Y1.27
X49.403Y17.78
X49.403Y16.764
X49.403Y15.748
X49.784Y28.829
X49.784Y26.416
X50.19Y24.892
X50.25Y7.747
X50.292Y12.319
X50.292Y4.826
X50.673Y1.651
X51.308Y7.747
X51.308Y4.826
X51.435Y23.876
X51.435Y22.733
X51.435Y21.59
X51.435Y20.447
X51.562Y14.986
X51.816Y10.414
X51.816Y2.667
X52.366Y7.747
X52.451Y4.826
X52.75Y20.4
X53.086Y2.667
X53.15Y22.3
X53.3Y25.2
X53.34Y18.161
X53.34Y16.891
X53.425Y7.747
X53.467Y10.414
X53.594Y4.826
X53.9Y20.35
X54.102Y1.778
X54.483Y7.747
X54.85Y23.85
X54.864Y4.826
X54.991Y20.193
X55.245Y28.575
X55.499Y1.27
X55.85Y19.25
X55.88Y5.715
X56.007Y13.462
X56.388Y24.384
X56.388Y23.114
X56.515Y25.527
X56.515Y4.699
X56.55Y21.9
X56.642Y6.477
X56.769Y28.575
X56.769Y17.145
X56.85Y10.05
X56.9Y20.85
X56.9Y18.65
X57.128Y11.65
X57.15Y1.27
X57.785Y3.81
X58.039Y28.575
X58.039Y26.035
X58.801Y1.27
X59.055Y3.81
X59.436Y26.035
X59.436Y25.019
X59.436Y23.876
X59.436Y20.955
X59.436Y19.812
X59.436Y18.669
X59.436Y17.272
X59.436Y12.192
X59.436Y10.795
X59.436Y9.398
X59.563Y28.575
X59.563Y4.953
X59.817Y16.129
X59.817Y14.859
X59.817Y13.589
X60.325Y1.27
X60.6Y27.85
X61.214Y2.032
X61.65Y27.15
X62.23Y2.7
X62.357Y12.192
X62.611Y17.653
X63.112Y27.15
X63.614Y2.7
X64.008Y15.875
X64.008Y13.716
X64.008Y12.192
X64.198Y17.653
X64.574Y27.15
X64.998Y2.7
X65.659Y12.192
X65.786Y17.653
X66.037Y27.15
X66.382Y2.7
X67.31Y12.192
X67.373Y17.653
X67.499Y27.15
X67.766Y2.7
X68.961Y27.15
X68.961Y17.653
X68.961Y12.192
X69.15Y2.7
T3
X21.59Y26.289
X21.59Y23.749
X21.59Y21.209
X21.59Y18.669
T0
M30
