%TF.GenerationSoftware,KiCad,Pcbnew,6.0.4-6f826c9f35~116~ubuntu20.04.1*%
%TF.CreationDate,2022-08-01T19:56:32+00:00*%
%TF.ProjectId,TFSIK01A,54465349-4b30-4314-912e-6b696361645f,REV*%
%TF.SameCoordinates,Original*%
%TF.FileFunction,Paste,Bot*%
%TF.FilePolarity,Positive*%
%FSLAX46Y46*%
G04 Gerber Fmt 4.6, Leading zero omitted, Abs format (unit mm)*
G04 Created by KiCad (PCBNEW 6.0.4-6f826c9f35~116~ubuntu20.04.1) date 2022-08-01 19:56:32*
%MOMM*%
%LPD*%
G01*
G04 APERTURE LIST*
G04 Aperture macros list*
%AMRoundRect*
0 Rectangle with rounded corners*
0 $1 Rounding radius*
0 $2 $3 $4 $5 $6 $7 $8 $9 X,Y pos of 4 corners*
0 Add a 4 corners polygon primitive as box body*
4,1,4,$2,$3,$4,$5,$6,$7,$8,$9,$2,$3,0*
0 Add four circle primitives for the rounded corners*
1,1,$1+$1,$2,$3*
1,1,$1+$1,$4,$5*
1,1,$1+$1,$6,$7*
1,1,$1+$1,$8,$9*
0 Add four rect primitives between the rounded corners*
20,1,$1+$1,$2,$3,$4,$5,0*
20,1,$1+$1,$4,$5,$6,$7,0*
20,1,$1+$1,$6,$7,$8,$9,0*
20,1,$1+$1,$8,$9,$2,$3,0*%
%AMFreePoly0*
4,1,7,1.675000,-0.750000,-8.125000,-0.750000,-8.125000,0.350000,-1.675000,0.350000,-1.675000,0.750000,1.675000,0.750000,1.675000,-0.750000,1.675000,-0.750000,$1*%
%AMFreePoly1*
4,1,7,1.675000,0.350000,8.125000,0.350000,8.125000,-0.750000,-1.675000,-0.750000,-1.675000,0.750000,1.675000,0.750000,1.675000,0.350000,1.675000,0.350000,$1*%
G04 Aperture macros list end*
%ADD10RoundRect,0.225000X-0.225000X-0.250000X0.225000X-0.250000X0.225000X0.250000X-0.225000X0.250000X0*%
%ADD11RoundRect,0.250000X0.450000X-0.325000X0.450000X0.325000X-0.450000X0.325000X-0.450000X-0.325000X0*%
%ADD12R,0.400000X0.650000*%
%ADD13RoundRect,0.225000X-0.250000X0.225000X-0.250000X-0.225000X0.250000X-0.225000X0.250000X0.225000X0*%
%ADD14RoundRect,0.250000X0.250000X0.475000X-0.250000X0.475000X-0.250000X-0.475000X0.250000X-0.475000X0*%
%ADD15RoundRect,0.237500X0.237500X-0.287500X0.237500X0.287500X-0.237500X0.287500X-0.237500X-0.287500X0*%
%ADD16RoundRect,0.200000X-0.275000X0.200000X-0.275000X-0.200000X0.275000X-0.200000X0.275000X0.200000X0*%
%ADD17RoundRect,0.200000X0.200000X0.275000X-0.200000X0.275000X-0.200000X-0.275000X0.200000X-0.275000X0*%
%ADD18RoundRect,0.250000X-0.279307X0.447137X-0.279307X-0.447137X0.279307X-0.447137X0.279307X0.447137X0*%
%ADD19RoundRect,0.062500X-0.062500X0.362500X-0.062500X-0.362500X0.062500X-0.362500X0.062500X0.362500X0*%
%ADD20RoundRect,0.062500X-0.362500X0.062500X-0.362500X-0.062500X0.362500X-0.062500X0.362500X0.062500X0*%
%ADD21RoundRect,0.225000X0.250000X-0.225000X0.250000X0.225000X-0.250000X0.225000X-0.250000X-0.225000X0*%
%ADD22RoundRect,0.250000X0.325000X0.450000X-0.325000X0.450000X-0.325000X-0.450000X0.325000X-0.450000X0*%
%ADD23R,1.300000X1.500000*%
%ADD24R,0.700000X3.000000*%
%ADD25RoundRect,0.225000X-0.335876X-0.017678X-0.017678X-0.335876X0.335876X0.017678X0.017678X0.335876X0*%
%ADD26RoundRect,0.250000X-0.475000X0.250000X-0.475000X-0.250000X0.475000X-0.250000X0.475000X0.250000X0*%
%ADD27RoundRect,0.150000X0.700000X-0.150000X0.700000X0.150000X-0.700000X0.150000X-0.700000X-0.150000X0*%
%ADD28RoundRect,0.250000X1.100000X-0.250000X1.100000X0.250000X-1.100000X0.250000X-1.100000X-0.250000X0*%
%ADD29RoundRect,0.250000X-0.450000X0.325000X-0.450000X-0.325000X0.450000X-0.325000X0.450000X0.325000X0*%
%ADD30R,1.016000X2.032000*%
%ADD31R,3.657600X2.032000*%
%ADD32R,0.300000X0.750000*%
%ADD33R,1.650000X0.850000*%
%ADD34R,1.000000X1.800000*%
%ADD35RoundRect,0.225000X0.225000X0.250000X-0.225000X0.250000X-0.225000X-0.250000X0.225000X-0.250000X0*%
%ADD36RoundRect,0.250000X0.475000X-0.250000X0.475000X0.250000X-0.475000X0.250000X-0.475000X-0.250000X0*%
%ADD37RoundRect,0.200000X0.275000X-0.200000X0.275000X0.200000X-0.275000X0.200000X-0.275000X-0.200000X0*%
%ADD38R,3.249000X1.450000*%
%ADD39FreePoly0,180.000000*%
%ADD40FreePoly1,0.000000*%
%ADD41R,0.650000X0.400000*%
%ADD42R,0.600000X1.500000*%
%ADD43R,1.800000X1.200000*%
%ADD44RoundRect,0.250000X-0.088388X0.548008X-0.548008X0.088388X0.088388X-0.548008X0.548008X-0.088388X0*%
G04 APERTURE END LIST*
D10*
%TO.C,C2*%
X152978800Y-79648000D03*
X154528800Y-79648000D03*
%TD*%
%TO.C,C32*%
X156090000Y-87141000D03*
X157640000Y-87141000D03*
%TD*%
D11*
%TO.C,L12*%
X163482000Y-99515500D03*
X163482000Y-97465500D03*
%TD*%
D12*
%TO.C,U9*%
X161592000Y-95838000D03*
X160942000Y-95838000D03*
X160292000Y-95838000D03*
X160292000Y-93938000D03*
X160942000Y-93938000D03*
X161592000Y-93938000D03*
%TD*%
D13*
%TO.C,C34*%
X153703000Y-87128000D03*
X153703000Y-88678000D03*
%TD*%
%TO.C,C19*%
X143543000Y-89795000D03*
X143543000Y-91345000D03*
%TD*%
D14*
%TO.C,C1*%
X134917200Y-102050800D03*
X133017200Y-102050800D03*
%TD*%
D11*
%TO.C,L5*%
X150147000Y-97610500D03*
X150147000Y-95560500D03*
%TD*%
D15*
%TO.C,D1*%
X128243000Y-79329200D03*
X128243000Y-77579200D03*
%TD*%
D16*
%TO.C,R22*%
X132240000Y-81109000D03*
X132240000Y-82759000D03*
%TD*%
D17*
%TO.C,R3*%
X134780000Y-95396000D03*
X133130000Y-95396000D03*
%TD*%
D15*
%TO.C,D2*%
X132243000Y-79329200D03*
X132243000Y-77579200D03*
%TD*%
D18*
%TO.C,U2*%
X140241000Y-84080000D03*
X141441000Y-85630000D03*
X139041000Y-85630000D03*
X140241000Y-85630000D03*
X141441000Y-84080000D03*
X139041000Y-84080000D03*
D19*
X137991000Y-82405000D03*
X138491000Y-82405000D03*
X138991000Y-82405000D03*
X139491000Y-82405000D03*
X139991000Y-82405000D03*
X140491000Y-82405000D03*
X140991000Y-82405000D03*
X141491000Y-82405000D03*
X141991000Y-82405000D03*
X142491000Y-82405000D03*
D20*
X143191000Y-83105000D03*
X143191000Y-83605000D03*
X143191000Y-84105000D03*
X143191000Y-84605000D03*
X143191000Y-85105000D03*
X143191000Y-85605000D03*
X143191000Y-86105000D03*
X143191000Y-86605000D03*
D19*
X142491000Y-87305000D03*
X141991000Y-87305000D03*
X141491000Y-87305000D03*
X140991000Y-87305000D03*
X140491000Y-87305000D03*
X139991000Y-87305000D03*
X139491000Y-87305000D03*
X138991000Y-87305000D03*
X138491000Y-87305000D03*
X137991000Y-87305000D03*
D20*
X137291000Y-86605000D03*
X137291000Y-86105000D03*
X137291000Y-85605000D03*
X137291000Y-85105000D03*
X137291000Y-84605000D03*
X137291000Y-84105000D03*
X137291000Y-83605000D03*
X137291000Y-83105000D03*
%TD*%
D21*
%TO.C,C13*%
X147378400Y-81794600D03*
X147378400Y-80244600D03*
%TD*%
D22*
%TO.C,L16*%
X155824500Y-90570000D03*
X153774500Y-90570000D03*
%TD*%
D21*
%TO.C,C26*%
X163482000Y-87040000D03*
X163482000Y-85490000D03*
%TD*%
D23*
%TO.C,C21*%
X139733000Y-91459000D03*
D24*
X138383000Y-91459000D03*
D23*
X137033000Y-91459000D03*
%TD*%
D17*
%TO.C,R1*%
X134716000Y-99206000D03*
X133066000Y-99206000D03*
%TD*%
D25*
%TO.C,C11*%
X148836992Y-86338992D03*
X149933008Y-87435008D03*
%TD*%
D22*
%TO.C,L3*%
X155951500Y-98698000D03*
X153901500Y-98698000D03*
%TD*%
D14*
%TO.C,C18*%
X135161000Y-90443000D03*
X133261000Y-90443000D03*
%TD*%
D26*
%TO.C,C20*%
X147226000Y-89808000D03*
X147226000Y-91708000D03*
%TD*%
D13*
%TO.C,C15*%
X145321000Y-89782000D03*
X145321000Y-91332000D03*
%TD*%
D11*
%TO.C,L13*%
X158173400Y-92788800D03*
X158173400Y-90738800D03*
%TD*%
D27*
%TO.C,J1*%
X130534000Y-100546000D03*
X130534000Y-99296000D03*
X130534000Y-98046000D03*
X130534000Y-96796000D03*
X130534000Y-95546000D03*
X130534000Y-94296000D03*
D28*
X127334000Y-102396000D03*
X127334000Y-92446000D03*
%TD*%
D16*
%TO.C,R6*%
X128252200Y-81045000D03*
X128252200Y-82695000D03*
%TD*%
D10*
%TO.C,C33*%
X156090000Y-88792000D03*
X157640000Y-88792000D03*
%TD*%
D15*
%TO.C,D3*%
X130243000Y-79329200D03*
X130243000Y-77579200D03*
%TD*%
D17*
%TO.C,R2*%
X134780000Y-97301000D03*
X133130000Y-97301000D03*
%TD*%
D29*
%TO.C,L10*%
X145625800Y-82102800D03*
X145625800Y-84152800D03*
%TD*%
D30*
%TO.C,U1*%
X142400000Y-101619000D03*
X140114000Y-101619000D03*
X137828000Y-101619000D03*
D31*
X140114000Y-95015000D03*
%TD*%
D32*
%TO.C,U3*%
X154211000Y-94380000D03*
X153711000Y-94380000D03*
X153211000Y-94380000D03*
X152711000Y-94380000D03*
X152711000Y-92380000D03*
X153211000Y-92380000D03*
X153711000Y-92380000D03*
X154211000Y-92380000D03*
D33*
X153461000Y-93380000D03*
%TD*%
D34*
%TO.C,Y1*%
X134266600Y-79521000D03*
X136766600Y-79521000D03*
%TD*%
D35*
%TO.C,C9*%
X150147000Y-93745000D03*
X148597000Y-93745000D03*
%TD*%
%TO.C,C14*%
X134653000Y-86379000D03*
X133103000Y-86379000D03*
%TD*%
%TO.C,C4*%
X159545000Y-98698000D03*
X157995000Y-98698000D03*
%TD*%
D13*
%TO.C,C7*%
X152052000Y-98698000D03*
X152052000Y-100248000D03*
%TD*%
D36*
%TO.C,C3*%
X144838400Y-95177600D03*
X144838400Y-93277600D03*
%TD*%
D10*
%TO.C,C31*%
X156471000Y-95904000D03*
X158021000Y-95904000D03*
%TD*%
D29*
%TO.C,L11*%
X163482000Y-80354500D03*
X163482000Y-82404500D03*
%TD*%
D16*
%TO.C,R23*%
X130208000Y-81046000D03*
X130208000Y-82696000D03*
%TD*%
D37*
%TO.C,R20*%
X134907000Y-84093000D03*
X134907000Y-82443000D03*
%TD*%
D13*
%TO.C,C17*%
X141638000Y-90049000D03*
X141638000Y-91599000D03*
%TD*%
%TO.C,C27*%
X163482000Y-92475000D03*
X163482000Y-94025000D03*
%TD*%
D38*
%TO.C,J3*%
X167241000Y-82421000D03*
D39*
X167368000Y-79546000D03*
D40*
X167368000Y-85296000D03*
%TD*%
D11*
%TO.C,L7*%
X150147000Y-91895500D03*
X150147000Y-89845500D03*
%TD*%
D35*
%TO.C,C16*%
X134653000Y-88157000D03*
X133103000Y-88157000D03*
%TD*%
D21*
%TO.C,C28*%
X159926000Y-89236800D03*
X159926000Y-87686800D03*
%TD*%
D41*
%TO.C,U7*%
X163863000Y-89173000D03*
X163863000Y-89823000D03*
X163863000Y-90473000D03*
X161963000Y-90473000D03*
X161963000Y-89823000D03*
X161963000Y-89173000D03*
%TD*%
D42*
%TO.C,FL1*%
X154973000Y-85107000D03*
X153703000Y-85107000D03*
X152433000Y-85107000D03*
X152433000Y-81807000D03*
X153703000Y-81807000D03*
X154973000Y-81807000D03*
%TD*%
D17*
%TO.C,R4*%
X134780000Y-93618000D03*
X133130000Y-93618000D03*
%TD*%
D38*
%TO.C,J4*%
X167241000Y-97421000D03*
D40*
X167368000Y-100296000D03*
D39*
X167368000Y-94546000D03*
%TD*%
D43*
%TO.C,Y2*%
X144501600Y-79755800D03*
X140501600Y-79755800D03*
X140501600Y-77355800D03*
X144501600Y-77355800D03*
%TD*%
D10*
%TO.C,C12*%
X148102000Y-83839000D03*
X149652000Y-83839000D03*
%TD*%
D26*
%TO.C,C5*%
X144838400Y-97047000D03*
X144838400Y-98947000D03*
%TD*%
D11*
%TO.C,L8*%
X146489400Y-87962800D03*
X146489400Y-85912800D03*
%TD*%
D44*
%TO.C,L9*%
X150871784Y-80066216D03*
X149422216Y-81515784D03*
%TD*%
D21*
%TO.C,C29*%
X160027600Y-92386400D03*
X160027600Y-90836400D03*
%TD*%
D16*
%TO.C,R5*%
X155735000Y-92476000D03*
X155735000Y-94126000D03*
%TD*%
M02*
