%TF.GenerationSoftware,KiCad,Pcbnew,6.0.4-6f826c9f35~116~ubuntu20.04.1*%
%TF.CreationDate,2022-05-05T10:27:08+00:00*%
%TF.ProjectId,TFSIK01A,54465349-4b30-4314-912e-6b696361645f,REV*%
%TF.SameCoordinates,Original*%
%TF.FileFunction,Paste,Bot*%
%TF.FilePolarity,Positive*%
%FSLAX46Y46*%
G04 Gerber Fmt 4.6, Leading zero omitted, Abs format (unit mm)*
G04 Created by KiCad (PCBNEW 6.0.4-6f826c9f35~116~ubuntu20.04.1) date 2022-05-05 10:27:08*
%MOMM*%
%LPD*%
G01*
G04 APERTURE LIST*
G04 Aperture macros list*
%AMRoundRect*
0 Rectangle with rounded corners*
0 $1 Rounding radius*
0 $2 $3 $4 $5 $6 $7 $8 $9 X,Y pos of 4 corners*
0 Add a 4 corners polygon primitive as box body*
4,1,4,$2,$3,$4,$5,$6,$7,$8,$9,$2,$3,0*
0 Add four circle primitives for the rounded corners*
1,1,$1+$1,$2,$3*
1,1,$1+$1,$4,$5*
1,1,$1+$1,$6,$7*
1,1,$1+$1,$8,$9*
0 Add four rect primitives between the rounded corners*
20,1,$1+$1,$2,$3,$4,$5,0*
20,1,$1+$1,$4,$5,$6,$7,0*
20,1,$1+$1,$6,$7,$8,$9,0*
20,1,$1+$1,$8,$9,$2,$3,0*%
%AMFreePoly0*
4,1,7,1.675000,-0.750000,-8.125000,-0.750000,-8.125000,0.350000,-1.675000,0.350000,-1.675000,0.750000,1.675000,0.750000,1.675000,-0.750000,1.675000,-0.750000,$1*%
%AMFreePoly1*
4,1,7,1.675000,0.350000,8.125000,0.350000,8.125000,-0.750000,-1.675000,-0.750000,-1.675000,0.750000,1.675000,0.750000,1.675000,0.350000,1.675000,0.350000,$1*%
G04 Aperture macros list end*
%ADD10RoundRect,0.225000X-0.225000X-0.250000X0.225000X-0.250000X0.225000X0.250000X-0.225000X0.250000X0*%
%ADD11RoundRect,0.250000X0.450000X-0.325000X0.450000X0.325000X-0.450000X0.325000X-0.450000X-0.325000X0*%
%ADD12R,0.400000X0.650000*%
%ADD13RoundRect,0.225000X-0.250000X0.225000X-0.250000X-0.225000X0.250000X-0.225000X0.250000X0.225000X0*%
%ADD14RoundRect,0.250000X0.250000X0.475000X-0.250000X0.475000X-0.250000X-0.475000X0.250000X-0.475000X0*%
%ADD15RoundRect,0.200000X-0.275000X0.200000X-0.275000X-0.200000X0.275000X-0.200000X0.275000X0.200000X0*%
%ADD16RoundRect,0.200000X0.200000X0.275000X-0.200000X0.275000X-0.200000X-0.275000X0.200000X-0.275000X0*%
%ADD17RoundRect,0.237500X0.237500X-0.287500X0.237500X0.287500X-0.237500X0.287500X-0.237500X-0.287500X0*%
%ADD18RoundRect,0.250000X-0.279307X0.447137X-0.279307X-0.447137X0.279307X-0.447137X0.279307X0.447137X0*%
%ADD19RoundRect,0.062500X-0.062500X0.362500X-0.062500X-0.362500X0.062500X-0.362500X0.062500X0.362500X0*%
%ADD20RoundRect,0.062500X-0.362500X0.062500X-0.362500X-0.062500X0.362500X-0.062500X0.362500X0.062500X0*%
%ADD21RoundRect,0.225000X0.250000X-0.225000X0.250000X0.225000X-0.250000X0.225000X-0.250000X-0.225000X0*%
%ADD22RoundRect,0.250000X0.325000X0.450000X-0.325000X0.450000X-0.325000X-0.450000X0.325000X-0.450000X0*%
%ADD23R,1.300000X1.500000*%
%ADD24R,0.700000X3.000000*%
%ADD25RoundRect,0.225000X-0.335876X-0.017678X-0.017678X-0.335876X0.335876X0.017678X0.017678X0.335876X0*%
%ADD26RoundRect,0.250000X-0.475000X0.250000X-0.475000X-0.250000X0.475000X-0.250000X0.475000X0.250000X0*%
%ADD27RoundRect,0.150000X0.700000X-0.150000X0.700000X0.150000X-0.700000X0.150000X-0.700000X-0.150000X0*%
%ADD28RoundRect,0.250000X1.100000X-0.250000X1.100000X0.250000X-1.100000X0.250000X-1.100000X-0.250000X0*%
%ADD29RoundRect,0.250000X-0.450000X0.325000X-0.450000X-0.325000X0.450000X-0.325000X0.450000X0.325000X0*%
%ADD30R,1.016000X2.032000*%
%ADD31R,3.657600X2.032000*%
%ADD32R,0.300000X0.750000*%
%ADD33R,1.650000X0.850000*%
%ADD34R,1.000000X1.800000*%
%ADD35RoundRect,0.225000X0.225000X0.250000X-0.225000X0.250000X-0.225000X-0.250000X0.225000X-0.250000X0*%
%ADD36RoundRect,0.250000X0.475000X-0.250000X0.475000X0.250000X-0.475000X0.250000X-0.475000X-0.250000X0*%
%ADD37RoundRect,0.200000X0.275000X-0.200000X0.275000X0.200000X-0.275000X0.200000X-0.275000X-0.200000X0*%
%ADD38R,1.500000X1.450000*%
%ADD39FreePoly0,180.000000*%
%ADD40FreePoly1,0.000000*%
%ADD41R,0.650000X0.400000*%
%ADD42R,0.600000X1.500000*%
%ADD43R,1.800000X1.200000*%
%ADD44RoundRect,0.250000X-0.088388X0.548008X-0.548008X0.088388X0.088388X-0.548008X0.548008X-0.088388X0*%
G04 APERTURE END LIST*
D10*
%TO.C,C2*%
X47535800Y25273000D03*
X49085800Y25273000D03*
%TD*%
%TO.C,C32*%
X50647000Y17780000D03*
X52197000Y17780000D03*
%TD*%
D11*
%TO.C,L12*%
X58039000Y5405500D03*
X58039000Y7455500D03*
%TD*%
D12*
%TO.C,U9*%
X56149000Y9083000D03*
X55499000Y9083000D03*
X54849000Y9083000D03*
X54849000Y10983000D03*
X55499000Y10983000D03*
X56149000Y10983000D03*
%TD*%
D13*
%TO.C,C34*%
X48260000Y17793000D03*
X48260000Y16243000D03*
%TD*%
%TO.C,C19*%
X38100000Y15126000D03*
X38100000Y13576000D03*
%TD*%
D14*
%TO.C,C1*%
X29474200Y2870200D03*
X27574200Y2870200D03*
%TD*%
D11*
%TO.C,L5*%
X44704000Y7310500D03*
X44704000Y9360500D03*
%TD*%
D15*
%TO.C,R22*%
X26797000Y23812000D03*
X26797000Y22162000D03*
%TD*%
D16*
%TO.C,R3*%
X29337000Y9525000D03*
X27687000Y9525000D03*
%TD*%
D17*
%TO.C,D2*%
X26847800Y25591800D03*
X26847800Y27341800D03*
%TD*%
D18*
%TO.C,U2*%
X34798000Y20841000D03*
X35998000Y19291000D03*
X33598000Y19291000D03*
X34798000Y19291000D03*
X35998000Y20841000D03*
X33598000Y20841000D03*
D19*
X32548000Y22516000D03*
X33048000Y22516000D03*
X33548000Y22516000D03*
X34048000Y22516000D03*
X34548000Y22516000D03*
X35048000Y22516000D03*
X35548000Y22516000D03*
X36048000Y22516000D03*
X36548000Y22516000D03*
X37048000Y22516000D03*
D20*
X37748000Y21816000D03*
X37748000Y21316000D03*
X37748000Y20816000D03*
X37748000Y20316000D03*
X37748000Y19816000D03*
X37748000Y19316000D03*
X37748000Y18816000D03*
X37748000Y18316000D03*
D19*
X37048000Y17616000D03*
X36548000Y17616000D03*
X36048000Y17616000D03*
X35548000Y17616000D03*
X35048000Y17616000D03*
X34548000Y17616000D03*
X34048000Y17616000D03*
X33548000Y17616000D03*
X33048000Y17616000D03*
X32548000Y17616000D03*
D20*
X31848000Y18316000D03*
X31848000Y18816000D03*
X31848000Y19316000D03*
X31848000Y19816000D03*
X31848000Y20316000D03*
X31848000Y20816000D03*
X31848000Y21316000D03*
X31848000Y21816000D03*
%TD*%
D21*
%TO.C,C13*%
X41935400Y23126400D03*
X41935400Y24676400D03*
%TD*%
D22*
%TO.C,L16*%
X50381500Y14351000D03*
X48331500Y14351000D03*
%TD*%
D21*
%TO.C,C26*%
X58039000Y17881000D03*
X58039000Y19431000D03*
%TD*%
D23*
%TO.C,C21*%
X34290000Y13462000D03*
D24*
X32940000Y13462000D03*
D23*
X31590000Y13462000D03*
%TD*%
D16*
%TO.C,R1*%
X29273000Y5715000D03*
X27623000Y5715000D03*
%TD*%
D25*
%TO.C,C11*%
X43393992Y18582008D03*
X44490008Y17485992D03*
%TD*%
D22*
%TO.C,L3*%
X50508500Y6223000D03*
X48458500Y6223000D03*
%TD*%
D14*
%TO.C,C18*%
X29718000Y14478000D03*
X27818000Y14478000D03*
%TD*%
D26*
%TO.C,C20*%
X41783000Y15113000D03*
X41783000Y13213000D03*
%TD*%
D13*
%TO.C,C15*%
X39878000Y15139000D03*
X39878000Y13589000D03*
%TD*%
D11*
%TO.C,L13*%
X52730400Y12132200D03*
X52730400Y14182200D03*
%TD*%
D27*
%TO.C,J1*%
X25091000Y4375000D03*
X25091000Y5625000D03*
X25091000Y6875000D03*
X25091000Y8125000D03*
X25091000Y9375000D03*
X25091000Y10625000D03*
D28*
X21891000Y2525000D03*
X21891000Y12475000D03*
%TD*%
D10*
%TO.C,C33*%
X50647000Y16129000D03*
X52197000Y16129000D03*
%TD*%
D17*
%TO.C,D3*%
X24790400Y25591800D03*
X24790400Y27341800D03*
%TD*%
D16*
%TO.C,R2*%
X29337000Y7620000D03*
X27687000Y7620000D03*
%TD*%
D29*
%TO.C,L10*%
X40182800Y22818200D03*
X40182800Y20768200D03*
%TD*%
D30*
%TO.C,U1*%
X36957000Y3302000D03*
X34671000Y3302000D03*
X32385000Y3302000D03*
D31*
X34671000Y9906000D03*
%TD*%
D32*
%TO.C,U3*%
X48768000Y10541000D03*
X48268000Y10541000D03*
X47768000Y10541000D03*
X47268000Y10541000D03*
X47268000Y12541000D03*
X47768000Y12541000D03*
X48268000Y12541000D03*
X48768000Y12541000D03*
D33*
X48018000Y11541000D03*
%TD*%
D34*
%TO.C,Y1*%
X29123000Y25273000D03*
X31623000Y25273000D03*
%TD*%
D35*
%TO.C,C9*%
X44704000Y11176000D03*
X43154000Y11176000D03*
%TD*%
%TO.C,C14*%
X29210000Y18542000D03*
X27660000Y18542000D03*
%TD*%
%TO.C,C4*%
X54102000Y6223000D03*
X52552000Y6223000D03*
%TD*%
D13*
%TO.C,C7*%
X46609000Y6223000D03*
X46609000Y4673000D03*
%TD*%
D36*
%TO.C,C3*%
X39395400Y9743400D03*
X39395400Y11643400D03*
%TD*%
D10*
%TO.C,C31*%
X51028000Y9017000D03*
X52578000Y9017000D03*
%TD*%
D29*
%TO.C,L11*%
X58039000Y24566500D03*
X58039000Y22516500D03*
%TD*%
D15*
%TO.C,R23*%
X24765000Y23875000D03*
X24765000Y22225000D03*
%TD*%
D37*
%TO.C,R20*%
X29464000Y20828000D03*
X29464000Y22478000D03*
%TD*%
D13*
%TO.C,C17*%
X36195000Y14872000D03*
X36195000Y13322000D03*
%TD*%
%TO.C,C27*%
X58039000Y12446000D03*
X58039000Y10896000D03*
%TD*%
D38*
%TO.C,J3*%
X60950000Y22500000D03*
D39*
X61925000Y25375000D03*
D40*
X61925000Y19625000D03*
%TD*%
D11*
%TO.C,L7*%
X44704000Y13025500D03*
X44704000Y15075500D03*
%TD*%
D35*
%TO.C,C16*%
X29210000Y16764000D03*
X27660000Y16764000D03*
%TD*%
D21*
%TO.C,C28*%
X54483000Y15684200D03*
X54483000Y17234200D03*
%TD*%
D41*
%TO.C,U7*%
X58420000Y15748000D03*
X58420000Y15098000D03*
X58420000Y14448000D03*
X56520000Y14448000D03*
X56520000Y15098000D03*
X56520000Y15748000D03*
%TD*%
D42*
%TO.C,FL1*%
X49530000Y19814000D03*
X48260000Y19814000D03*
X46990000Y19814000D03*
X46990000Y23114000D03*
X48260000Y23114000D03*
X49530000Y23114000D03*
%TD*%
D16*
%TO.C,R4*%
X29337000Y11303000D03*
X27687000Y11303000D03*
%TD*%
D38*
%TO.C,J4*%
X60950000Y7500000D03*
D39*
X61925000Y10375000D03*
D40*
X61925000Y4625000D03*
%TD*%
D43*
%TO.C,Y2*%
X39058600Y25089000D03*
X35058600Y25089000D03*
X35058600Y27489000D03*
X39058600Y27489000D03*
%TD*%
D10*
%TO.C,C12*%
X42659000Y21082000D03*
X44209000Y21082000D03*
%TD*%
D26*
%TO.C,C5*%
X39395400Y7874000D03*
X39395400Y5974000D03*
%TD*%
D11*
%TO.C,L8*%
X41046400Y16958200D03*
X41046400Y19008200D03*
%TD*%
D44*
%TO.C,L9*%
X45428784Y24854784D03*
X43979216Y23405216D03*
%TD*%
D21*
%TO.C,C29*%
X54584600Y12534600D03*
X54584600Y14084600D03*
%TD*%
D15*
%TO.C,R5*%
X50292000Y12445000D03*
X50292000Y10795000D03*
%TD*%
M02*
