  0
SECTION
  2
HEADER
  9
$ANGBASE
  50
0.0
  9
$ANGDIR
  70
1
  9
$MEASUREMENT
  70
0
  0
ENDSEC
  0
SECTION
  2
TABLES
  0
TABLE
  2
LTYPE
  70
4
  0
LTYPE
  5
40F
  2
CONTINUOUS
  70
0
  3
Solid line
  72
65
  73
0
  40
0.0
  0
LTYPE
  5
410
  2
DASHDOT
 70
0
  3
Dash Dot ____ _ ____ _
 72
65
 73
4
 40
2.0
 49
1.25
 49
-0.25
 49
0.25
 49
-0.25
  0
LTYPE
  5
411
  2
DASHED
 70
0
  3
Dashed __ __ __ __ __
 72
65
 73
2
 40
0.75
 49
0.5
 49
-0.25
  0
LTYPE
  5
43B
  2
DOTTED
 70
0
  3
Dotted .  .  .  .
 72
65
 73
2
 40
0.2
 49
0.0
 49
-0.2
  0
ENDTAB
  0
TABLE
  2
STYLE
  70
4
  0
STYLE
  2
KICAD
  70
0
  40
0
  41
1
  42
1
  50
0
  71
0
  3
isocp.shx
  0
STYLE
  2
KICADB
  70
0
  40
0
  41
1
  42
1
  50
0
  71
0
  3
isocp.shx
  0
STYLE
  2
KICADI
  70
0
  40
0
  41
1
  42
1
  50
15
  71
0
  3
isocp.shx
  0
STYLE
  2
KICADBI
  70
0
  40
0
  41
1
  42
1
  50
15
  71
0
  3
isocp.shx
  0
ENDTAB
  0
TABLE
  2
LAYER
  70
1
  0
LAYER
  2
BLACK
  70
0
  62
7
  6
CONTINUOUS
  0
ENDTAB
  0
ENDSEC
  0
SECTION
  2
ENTITIES
0
LINE
8
BLACK
6
CONTINUOUS
10
2.7536
20
0.154213
11
2.75543
21
0.1521
0
LINE
8
BLACK
6
CONTINUOUS
10
2.75543
20
0.1521
11
2.75588
21
0.15001
0
LINE
8
BLACK
6
CONTINUOUS
10
2.75588
20
0.15001
11
2.75503
21
0.00493165
0
LINE
8
BLACK
6
CONTINUOUS
10
2.75503
20
0.00493165
11
2.75423
21
0.00225437
0
LINE
8
BLACK
6
CONTINUOUS
10
2.75423
20
0.00225437
11
2.7521
21
0.000436339
0
LINE
8
BLACK
6
CONTINUOUS
10
2.7521
20
0.000436339
11
2.75007
21
0
0
LINE
8
BLACK
6
CONTINUOUS
10
2.75007
20
0
11
2.51969
21
0
0
LINE
8
BLACK
6
CONTINUOUS
10
2.51969
20
0
11
2.51961
21
-0.00288484
0
LINE
8
BLACK
6
CONTINUOUS
10
2.51961
20
-0.00288484
11
2.51835
21
-0.0124798
0
LINE
8
BLACK
6
CONTINUOUS
10
2.51835
20
-0.0124798
11
2.51554
21
-0.0217396
0
LINE
8
BLACK
6
CONTINUOUS
10
2.51554
20
-0.0217396
11
2.51125
21
-0.0304156
0
LINE
8
BLACK
6
CONTINUOUS
10
2.51125
20
-0.0304156
11
2.5056
21
-0.0382748
0
LINE
8
BLACK
6
CONTINUOUS
10
2.5056
20
-0.0382748
11
2.49875
21
-0.0451061
0
LINE
8
BLACK
6
CONTINUOUS
10
2.49875
20
-0.0451061
11
2.49087
21
-0.050726
0
LINE
8
BLACK
6
CONTINUOUS
10
2.49087
20
-0.050726
11
2.48218
21
-0.0549836
0
LINE
8
BLACK
6
CONTINUOUS
10
2.48218
20
-0.0549836
11
2.47291
21
-0.0577646
0
LINE
8
BLACK
6
CONTINUOUS
10
2.47291
20
-0.0577646
11
2.46331
21
-0.0589943
0
LINE
8
BLACK
6
CONTINUOUS
10
2.46331
20
-0.0589943
11
2.45364
21
-0.0586397
0
LINE
8
BLACK
6
CONTINUOUS
10
2.45364
20
-0.0586397
11
2.44415
21
-0.0567103
0
LINE
8
BLACK
6
CONTINUOUS
10
2.44415
20
-0.0567103
11
2.43511
21
-0.0532578
0
LINE
8
BLACK
6
CONTINUOUS
10
2.43511
20
-0.0532578
11
2.42676
21
-0.0483751
0
LINE
8
BLACK
6
CONTINUOUS
10
2.42676
20
-0.0483751
11
2.41931
21
-0.0421933
0
LINE
8
BLACK
6
CONTINUOUS
10
2.41931
20
-0.0421933
11
2.41297
21
-0.0348783
0
LINE
8
BLACK
6
CONTINUOUS
10
2.41297
20
-0.0348783
11
2.40792
21
-0.0266266
0
LINE
8
BLACK
6
CONTINUOUS
10
2.40792
20
-0.0266266
11
2.40428
21
-0.0176599
0
LINE
8
BLACK
6
CONTINUOUS
10
2.40428
20
-0.0176599
11
2.40215
21
-0.0082189
0
LINE
8
BLACK
6
CONTINUOUS
10
2.40215
20
-0.0082189
11
2.40168
21
0
0
LINE
8
BLACK
6
CONTINUOUS
10
2.40168
20
0
11
2.12598
21
0
0
LINE
8
BLACK
6
CONTINUOUS
10
2.12598
20
0
11
2.12591
21
-0.00288484
0
LINE
8
BLACK
6
CONTINUOUS
10
2.12591
20
-0.00288484
11
2.12465
21
-0.0124798
0
LINE
8
BLACK
6
CONTINUOUS
10
2.12465
20
-0.0124798
11
2.12184
21
-0.0217396
0
LINE
8
BLACK
6
CONTINUOUS
10
2.12184
20
-0.0217396
11
2.11755
21
-0.0304156
0
LINE
8
BLACK
6
CONTINUOUS
10
2.11755
20
-0.0304156
11
2.1119
21
-0.0382748
0
LINE
8
BLACK
6
CONTINUOUS
10
2.1119
20
-0.0382748
11
2.10505
21
-0.0451061
0
LINE
8
BLACK
6
CONTINUOUS
10
2.10505
20
-0.0451061
11
2.09717
21
-0.050726
0
LINE
8
BLACK
6
CONTINUOUS
10
2.09717
20
-0.050726
11
2.08848
21
-0.0549836
0
LINE
8
BLACK
6
CONTINUOUS
10
2.08848
20
-0.0549836
11
2.07921
21
-0.0577646
0
LINE
8
BLACK
6
CONTINUOUS
10
2.07921
20
-0.0577646
11
2.06961
21
-0.0589943
0
LINE
8
BLACK
6
CONTINUOUS
10
2.06961
20
-0.0589943
11
2.05994
21
-0.0586397
0
LINE
8
BLACK
6
CONTINUOUS
10
2.05994
20
-0.0586397
11
2.05045
21
-0.0567103
0
LINE
8
BLACK
6
CONTINUOUS
10
2.05045
20
-0.0567103
11
2.04141
21
-0.0532578
0
LINE
8
BLACK
6
CONTINUOUS
10
2.04141
20
-0.0532578
11
2.03306
21
-0.0483751
0
LINE
8
BLACK
6
CONTINUOUS
10
2.03306
20
-0.0483751
11
2.02561
21
-0.0421933
0
LINE
8
BLACK
6
CONTINUOUS
10
2.02561
20
-0.0421933
11
2.01927
21
-0.0348783
0
LINE
8
BLACK
6
CONTINUOUS
10
2.01927
20
-0.0348783
11
2.01422
21
-0.0266266
0
LINE
8
BLACK
6
CONTINUOUS
10
2.01422
20
-0.0266266
11
2.01058
21
-0.0176599
0
LINE
8
BLACK
6
CONTINUOUS
10
2.01058
20
-0.0176599
11
2.00845
21
-0.0082189
0
LINE
8
BLACK
6
CONTINUOUS
10
2.00845
20
-0.0082189
11
2.00797
21
0
0
LINE
8
BLACK
6
CONTINUOUS
10
2.00797
20
0
11
1.73228
21
0
0
LINE
8
BLACK
6
CONTINUOUS
10
1.73228
20
0
11
1.73221
21
-0.00288484
0
LINE
8
BLACK
6
CONTINUOUS
10
1.73221
20
-0.00288484
11
1.73095
21
-0.0124798
0
LINE
8
BLACK
6
CONTINUOUS
10
1.73095
20
-0.0124798
11
1.72814
21
-0.0217396
0
LINE
8
BLACK
6
CONTINUOUS
10
1.72814
20
-0.0217396
11
1.72385
21
-0.0304156
0
LINE
8
BLACK
6
CONTINUOUS
10
1.72385
20
-0.0304156
11
1.7182
21
-0.0382748
0
LINE
8
BLACK
6
CONTINUOUS
10
1.7182
20
-0.0382748
11
1.71135
21
-0.0451061
0
LINE
8
BLACK
6
CONTINUOUS
10
1.71135
20
-0.0451061
11
1.70347
21
-0.050726
0
LINE
8
BLACK
6
CONTINUOUS
10
1.70347
20
-0.050726
11
1.69478
21
-0.0549836
0
LINE
8
BLACK
6
CONTINUOUS
10
1.69478
20
-0.0549836
11
1.68551
21
-0.0577646
0
LINE
8
BLACK
6
CONTINUOUS
10
1.68551
20
-0.0577646
11
1.67591
21
-0.0589943
0
LINE
8
BLACK
6
CONTINUOUS
10
1.67591
20
-0.0589943
11
1.66624
21
-0.0586397
0
LINE
8
BLACK
6
CONTINUOUS
10
1.66624
20
-0.0586397
11
1.65675
21
-0.0567103
0
LINE
8
BLACK
6
CONTINUOUS
10
1.65675
20
-0.0567103
11
1.64771
21
-0.0532578
0
LINE
8
BLACK
6
CONTINUOUS
10
1.64771
20
-0.0532578
11
1.63936
21
-0.0483751
0
LINE
8
BLACK
6
CONTINUOUS
10
1.63936
20
-0.0483751
11
1.63191
21
-0.0421933
0
LINE
8
BLACK
6
CONTINUOUS
10
1.63191
20
-0.0421933
11
1.62557
21
-0.0348783
0
LINE
8
BLACK
6
CONTINUOUS
10
1.62557
20
-0.0348783
11
1.62052
21
-0.0266266
0
LINE
8
BLACK
6
CONTINUOUS
10
1.62052
20
-0.0266266
11
1.61688
21
-0.0176599
0
LINE
8
BLACK
6
CONTINUOUS
10
1.61688
20
-0.0176599
11
1.61475
21
-0.0082189
0
LINE
8
BLACK
6
CONTINUOUS
10
1.61475
20
-0.0082189
11
1.61427
21
0
0
LINE
8
BLACK
6
CONTINUOUS
10
1.61427
20
0
11
1.60996
21
0
0
LINE
8
BLACK
6
CONTINUOUS
10
1.60996
20
0
11
1.60728
21
0.00078748
0
LINE
8
BLACK
6
CONTINUOUS
10
1.60728
20
0.00078748
11
1.60545
21
0.00289992
0
LINE
8
BLACK
6
CONTINUOUS
10
1.60545
20
0.00289992
11
1.605
21
0.00496063
0
LINE
8
BLACK
6
CONTINUOUS
10
1.605
20
0.00496063
11
1.605
21
0.150039
0
LINE
8
BLACK
6
CONTINUOUS
10
1.605
20
0.150039
11
1.60579
21
0.152721
0
LINE
8
BLACK
6
CONTINUOUS
10
1.60579
20
0.152721
11
1.6079
21
0.154552
0
LINE
8
BLACK
6
CONTINUOUS
10
1.6079
20
0.154552
11
1.60996
21
0.155
0
LINE
8
BLACK
6
CONTINUOUS
10
1.60996
20
0.155
11
2.75092
21
0.155
0
LINE
8
BLACK
6
CONTINUOUS
10
2.75092
20
0.155
11
2.7536
21
0.154213
0
LINE
8
BLACK
6
CONTINUOUS
10
1.28509
20
0.058793
11
1.29461
21
0.0570959
0
LINE
8
BLACK
6
CONTINUOUS
10
1.29461
20
0.0570959
11
1.30374
21
0.0538654
0
LINE
8
BLACK
6
CONTINUOUS
10
1.30374
20
0.0538654
11
1.31221
21
0.0491883
0
LINE
8
BLACK
6
CONTINUOUS
10
1.31221
20
0.0491883
11
1.3198
21
0.0431902
0
LINE
8
BLACK
6
CONTINUOUS
10
1.3198
20
0.0431902
11
1.32632
21
0.0360322
0
LINE
8
BLACK
6
CONTINUOUS
10
1.32632
20
0.0360322
11
1.33157
21
0.0279065
0
LINE
8
BLACK
6
CONTINUOUS
10
1.33157
20
0.0279065
11
1.33543
21
0.0190315
0
LINE
8
BLACK
6
CONTINUOUS
10
1.33543
20
0.0190315
11
1.33779
21
0.00964524
0
LINE
8
BLACK
6
CONTINUOUS
10
1.33779
20
0.00964524
11
1.33858
21
0
0
LINE
8
BLACK
6
CONTINUOUS
10
1.33858
20
0
11
1.33851
21
-0.00288484
0
LINE
8
BLACK
6
CONTINUOUS
10
1.33851
20
-0.00288484
11
1.33725
21
-0.0124798
0
LINE
8
BLACK
6
CONTINUOUS
10
1.33725
20
-0.0124798
11
1.33444
21
-0.0217396
0
LINE
8
BLACK
6
CONTINUOUS
10
1.33444
20
-0.0217396
11
1.33015
21
-0.0304156
0
LINE
8
BLACK
6
CONTINUOUS
10
1.33015
20
-0.0304156
11
1.3245
21
-0.0382748
0
LINE
8
BLACK
6
CONTINUOUS
10
1.3245
20
-0.0382748
11
1.31765
21
-0.0451061
0
LINE
8
BLACK
6
CONTINUOUS
10
1.31765
20
-0.0451061
11
1.30977
21
-0.050726
0
LINE
8
BLACK
6
CONTINUOUS
10
1.30977
20
-0.050726
11
1.30108
21
-0.0549836
0
LINE
8
BLACK
6
CONTINUOUS
10
1.30108
20
-0.0549836
11
1.29181
21
-0.0577646
0
LINE
8
BLACK
6
CONTINUOUS
10
1.29181
20
-0.0577646
11
1.28221
21
-0.0589943
0
LINE
8
BLACK
6
CONTINUOUS
10
1.28221
20
-0.0589943
11
1.27254
21
-0.0586397
0
LINE
8
BLACK
6
CONTINUOUS
10
1.27254
20
-0.0586397
11
1.26305
21
-0.0567103
0
LINE
8
BLACK
6
CONTINUOUS
10
1.26305
20
-0.0567103
11
1.25401
21
-0.0532578
0
LINE
8
BLACK
6
CONTINUOUS
10
1.25401
20
-0.0532578
11
1.24565
21
-0.0483751
0
LINE
8
BLACK
6
CONTINUOUS
10
1.24565
20
-0.0483751
11
1.23821
21
-0.0421933
0
LINE
8
BLACK
6
CONTINUOUS
10
1.23821
20
-0.0421933
11
1.23187
21
-0.0348783
0
LINE
8
BLACK
6
CONTINUOUS
10
1.23187
20
-0.0348783
11
1.22682
21
-0.0266266
0
LINE
8
BLACK
6
CONTINUOUS
10
1.22682
20
-0.0266266
11
1.22317
21
-0.0176599
0
LINE
8
BLACK
6
CONTINUOUS
10
1.22317
20
-0.0176599
11
1.22105
21
-0.0082189
0
LINE
8
BLACK
6
CONTINUOUS
10
1.22105
20
-0.0082189
11
1.22049
21
0.00144283
0
LINE
8
BLACK
6
CONTINUOUS
10
1.22049
20
0.00144283
11
1.22152
21
0.0110658
0
LINE
8
BLACK
6
CONTINUOUS
10
1.22152
20
0.0110658
11
1.2241
21
0.0203916
0
LINE
8
BLACK
6
CONTINUOUS
10
1.2241
20
0.0203916
11
1.22818
21
0.0291698
0
LINE
8
BLACK
6
CONTINUOUS
10
1.22818
20
0.0291698
11
1.23363
21
0.0371646
0
LINE
8
BLACK
6
CONTINUOUS
10
1.23363
20
0.0371646
11
1.24032
21
0.0441613
0
LINE
8
BLACK
6
CONTINUOUS
10
1.24032
20
0.0441613
11
1.24806
21
0.049972
0
LINE
8
BLACK
6
CONTINUOUS
10
1.24806
20
0.049972
11
1.25664
21
0.0544407
0
LINE
8
BLACK
6
CONTINUOUS
10
1.25664
20
0.0544407
11
1.26584
21
0.0574474
0
LINE
8
BLACK
6
CONTINUOUS
10
1.26584
20
0.0574474
11
1.27541
21
0.0589113
0
LINE
8
BLACK
6
CONTINUOUS
10
1.27541
20
0.0589113
11
1.28509
21
0.058793
0
LINE
8
BLACK
6
CONTINUOUS
10
0.891384
20
0.058793
11
0.900912
21
0.0570959
0
LINE
8
BLACK
6
CONTINUOUS
10
0.900912
20
0.0570959
11
0.910035
21
0.0538654
0
LINE
8
BLACK
6
CONTINUOUS
10
0.910035
20
0.0538654
11
0.918507
21
0.0491883
0
LINE
8
BLACK
6
CONTINUOUS
10
0.918507
20
0.0491883
11
0.926102
21
0.0431902
0
LINE
8
BLACK
6
CONTINUOUS
10
0.926102
20
0.0431902
11
0.932616
21
0.0360322
0
LINE
8
BLACK
6
CONTINUOUS
10
0.932616
20
0.0360322
11
0.937872
21
0.0279065
0
LINE
8
BLACK
6
CONTINUOUS
10
0.937872
20
0.0279065
11
0.941731
21
0.0190315
0
LINE
8
BLACK
6
CONTINUOUS
10
0.941731
20
0.0190315
11
0.944089
21
0.00964524
0
LINE
8
BLACK
6
CONTINUOUS
10
0.944089
20
0.00964524
11
0.944882
21
0
0
LINE
8
BLACK
6
CONTINUOUS
10
0.944882
20
0
11
0.944811
21
-0.00288484
0
LINE
8
BLACK
6
CONTINUOUS
10
0.944811
20
-0.00288484
11
0.943548
21
-0.0124798
0
LINE
8
BLACK
6
CONTINUOUS
10
0.943548
20
-0.0124798
11
0.940735
21
-0.0217396
0
LINE
8
BLACK
6
CONTINUOUS
10
0.940735
20
-0.0217396
11
0.936447
21
-0.0304156
0
LINE
8
BLACK
6
CONTINUOUS
10
0.936447
20
-0.0304156
11
0.930799
21
-0.0382748
0
LINE
8
BLACK
6
CONTINUOUS
10
0.930799
20
-0.0382748
11
0.923944
21
-0.0451061
0
LINE
8
BLACK
6
CONTINUOUS
10
0.923944
20
-0.0451061
11
0.916066
21
-0.050726
0
LINE
8
BLACK
6
CONTINUOUS
10
0.916066
20
-0.050726
11
0.907375
21
-0.0549836
0
LINE
8
BLACK
6
CONTINUOUS
10
0.907375
20
-0.0549836
11
0.898105
21
-0.0577646
0
LINE
8
BLACK
6
CONTINUOUS
10
0.898105
20
-0.0577646
11
0.888506
21
-0.0589943
0
LINE
8
BLACK
6
CONTINUOUS
10
0.888506
20
-0.0589943
11
0.878834
21
-0.0586397
0
LINE
8
BLACK
6
CONTINUOUS
10
0.878834
20
-0.0586397
11
0.869351
21
-0.0567103
0
LINE
8
BLACK
6
CONTINUOUS
10
0.869351
20
-0.0567103
11
0.86031
21
-0.0532578
0
LINE
8
BLACK
6
CONTINUOUS
10
0.86031
20
-0.0532578
11
0.851954
21
-0.0483751
0
LINE
8
BLACK
6
CONTINUOUS
10
0.851954
20
-0.0483751
11
0.844508
21
-0.0421933
0
LINE
8
BLACK
6
CONTINUOUS
10
0.844508
20
-0.0421933
11
0.838172
21
-0.0348783
0
LINE
8
BLACK
6
CONTINUOUS
10
0.838172
20
-0.0348783
11
0.833115
21
-0.0266266
0
LINE
8
BLACK
6
CONTINUOUS
10
0.833115
20
-0.0266266
11
0.829474
21
-0.0176599
0
LINE
8
BLACK
6
CONTINUOUS
10
0.829474
20
-0.0176599
11
0.827346
21
-0.0082189
0
LINE
8
BLACK
6
CONTINUOUS
10
0.827346
20
-0.0082189
11
0.826789
21
0.00144283
0
LINE
8
BLACK
6
CONTINUOUS
10
0.826789
20
0.00144283
11
0.827818
21
0.0110658
0
LINE
8
BLACK
6
CONTINUOUS
10
0.827818
20
0.0110658
11
0.830404
21
0.0203916
0
LINE
8
BLACK
6
CONTINUOUS
10
0.830404
20
0.0203916
11
0.834479
21
0.0291698
0
LINE
8
BLACK
6
CONTINUOUS
10
0.834479
20
0.0291698
11
0.839932
21
0.0371646
0
LINE
8
BLACK
6
CONTINUOUS
10
0.839932
20
0.0371646
11
0.846619
21
0.0441613
0
LINE
8
BLACK
6
CONTINUOUS
10
0.846619
20
0.0441613
11
0.854358
21
0.049972
0
LINE
8
BLACK
6
CONTINUOUS
10
0.854358
20
0.049972
11
0.862942
21
0.0544407
0
LINE
8
BLACK
6
CONTINUOUS
10
0.862942
20
0.0544407
11
0.872141
21
0.0574474
0
LINE
8
BLACK
6
CONTINUOUS
10
0.872141
20
0.0574474
11
0.881707
21
0.0589113
0
LINE
8
BLACK
6
CONTINUOUS
10
0.881707
20
0.0589113
11
0.891384
21
0.058793
0
LINE
8
BLACK
6
CONTINUOUS
10
3.2661
20
0.43627
11
3.27093
21
0.434573
0
LINE
8
BLACK
6
CONTINUOUS
10
3.27093
20
0.434573
11
3.27505
21
0.43153
0
LINE
8
BLACK
6
CONTINUOUS
10
3.27505
20
0.43153
11
3.27809
21
0.42741
0
LINE
8
BLACK
6
CONTINUOUS
10
3.27809
20
0.42741
11
3.27979
21
0.422578
0
LINE
8
BLACK
6
CONTINUOUS
10
3.27979
20
0.422578
11
3.28009
21
0.41935
0
LINE
8
BLACK
6
CONTINUOUS
10
3.28009
20
0.41935
11
3.28009
21
0.40065
0
LINE
8
BLACK
6
CONTINUOUS
10
3.28009
20
0.40065
11
3.27979
21
0.397422
0
LINE
8
BLACK
6
CONTINUOUS
10
3.27979
20
0.397422
11
3.27809
21
0.39259
0
LINE
8
BLACK
6
CONTINUOUS
10
3.27809
20
0.39259
11
3.27505
21
0.38847
0
LINE
8
BLACK
6
CONTINUOUS
10
3.27505
20
0.38847
11
3.27093
21
0.385427
0
LINE
8
BLACK
6
CONTINUOUS
10
3.27093
20
0.385427
11
3.2661
21
0.38373
0
LINE
8
BLACK
6
CONTINUOUS
10
3.2661
20
0.38373
11
3.26287
21
0.383425
0
LINE
8
BLACK
6
CONTINUOUS
10
3.26287
20
0.383425
11
3.24023
21
0.383425
0
LINE
8
BLACK
6
CONTINUOUS
10
3.24023
20
0.383425
11
3.237
21
0.38373
0
LINE
8
BLACK
6
CONTINUOUS
10
3.237
20
0.38373
11
3.23217
21
0.385427
0
LINE
8
BLACK
6
CONTINUOUS
10
3.23217
20
0.385427
11
3.22805
21
0.38847
0
LINE
8
BLACK
6
CONTINUOUS
10
3.22805
20
0.38847
11
3.22501
21
0.39259
0
LINE
8
BLACK
6
CONTINUOUS
10
3.22501
20
0.39259
11
3.22331
21
0.397422
0
LINE
8
BLACK
6
CONTINUOUS
10
3.22331
20
0.397422
11
3.22301
21
0.40065
0
LINE
8
BLACK
6
CONTINUOUS
10
3.22301
20
0.40065
11
3.22301
21
0.41935
0
LINE
8
BLACK
6
CONTINUOUS
10
3.22301
20
0.41935
11
3.22331
21
0.422578
0
LINE
8
BLACK
6
CONTINUOUS
10
3.22331
20
0.422578
11
3.22501
21
0.42741
0
LINE
8
BLACK
6
CONTINUOUS
10
3.22501
20
0.42741
11
3.22805
21
0.43153
0
LINE
8
BLACK
6
CONTINUOUS
10
3.22805
20
0.43153
11
3.23217
21
0.434573
0
LINE
8
BLACK
6
CONTINUOUS
10
3.23217
20
0.434573
11
3.237
21
0.43627
0
LINE
8
BLACK
6
CONTINUOUS
10
3.237
20
0.43627
11
3.24023
21
0.436575
0
LINE
8
BLACK
6
CONTINUOUS
10
3.24023
20
0.436575
11
3.26287
21
0.436575
0
LINE
8
BLACK
6
CONTINUOUS
10
3.26287
20
0.436575
11
3.2661
21
0.43627
0
LINE
8
BLACK
6
CONTINUOUS
10
3.335
20
0.43627
11
3.33983
21
0.434573
0
LINE
8
BLACK
6
CONTINUOUS
10
3.33983
20
0.434573
11
3.34395
21
0.43153
0
LINE
8
BLACK
6
CONTINUOUS
10
3.34395
20
0.43153
11
3.34699
21
0.42741
0
LINE
8
BLACK
6
CONTINUOUS
10
3.34699
20
0.42741
11
3.34869
21
0.422578
0
LINE
8
BLACK
6
CONTINUOUS
10
3.34869
20
0.422578
11
3.34899
21
0.41935
0
LINE
8
BLACK
6
CONTINUOUS
10
3.34899
20
0.41935
11
3.34899
21
0.40065
0
LINE
8
BLACK
6
CONTINUOUS
10
3.34899
20
0.40065
11
3.34869
21
0.397422
0
LINE
8
BLACK
6
CONTINUOUS
10
3.34869
20
0.397422
11
3.34699
21
0.39259
0
LINE
8
BLACK
6
CONTINUOUS
10
3.34699
20
0.39259
11
3.34395
21
0.38847
0
LINE
8
BLACK
6
CONTINUOUS
10
3.34395
20
0.38847
11
3.33983
21
0.385427
0
LINE
8
BLACK
6
CONTINUOUS
10
3.33983
20
0.385427
11
3.335
21
0.38373
0
LINE
8
BLACK
6
CONTINUOUS
10
3.335
20
0.38373
11
3.33177
21
0.383425
0
LINE
8
BLACK
6
CONTINUOUS
10
3.33177
20
0.383425
11
3.30913
21
0.383425
0
LINE
8
BLACK
6
CONTINUOUS
10
3.30913
20
0.383425
11
3.3059
21
0.38373
0
LINE
8
BLACK
6
CONTINUOUS
10
3.3059
20
0.38373
11
3.30107
21
0.385427
0
LINE
8
BLACK
6
CONTINUOUS
10
3.30107
20
0.385427
11
3.29695
21
0.38847
0
LINE
8
BLACK
6
CONTINUOUS
10
3.29695
20
0.38847
11
3.29391
21
0.39259
0
LINE
8
BLACK
6
CONTINUOUS
10
3.29391
20
0.39259
11
3.29221
21
0.397422
0
LINE
8
BLACK
6
CONTINUOUS
10
3.29221
20
0.397422
11
3.29191
21
0.40065
0
LINE
8
BLACK
6
CONTINUOUS
10
3.29191
20
0.40065
11
3.29191
21
0.41935
0
LINE
8
BLACK
6
CONTINUOUS
10
3.29191
20
0.41935
11
3.29221
21
0.422578
0
LINE
8
BLACK
6
CONTINUOUS
10
3.29221
20
0.422578
11
3.29391
21
0.42741
0
LINE
8
BLACK
6
CONTINUOUS
10
3.29391
20
0.42741
11
3.29695
21
0.43153
0
LINE
8
BLACK
6
CONTINUOUS
10
3.29695
20
0.43153
11
3.30107
21
0.434573
0
LINE
8
BLACK
6
CONTINUOUS
10
3.30107
20
0.434573
11
3.3059
21
0.43627
0
LINE
8
BLACK
6
CONTINUOUS
10
3.3059
20
0.43627
11
3.30913
21
0.436575
0
LINE
8
BLACK
6
CONTINUOUS
10
3.30913
20
0.436575
11
3.33177
21
0.436575
0
LINE
8
BLACK
6
CONTINUOUS
10
3.33177
20
0.436575
11
3.335
21
0.43627
0
LINE
8
BLACK
6
CONTINUOUS
10
3.43063
20
0.437379
11
3.43502
21
0.435142
0
LINE
8
BLACK
6
CONTINUOUS
10
3.43502
20
0.435142
11
3.4385
21
0.431658
0
LINE
8
BLACK
6
CONTINUOUS
10
3.4385
20
0.431658
11
3.44074
21
0.427268
0
LINE
8
BLACK
6
CONTINUOUS
10
3.44074
20
0.427268
11
3.44151
21
0.422402
0
LINE
8
BLACK
6
CONTINUOUS
10
3.44151
20
0.422402
11
3.44151
21
0.400748
0
LINE
8
BLACK
6
CONTINUOUS
10
3.44151
20
0.400748
11
3.44074
21
0.395882
0
LINE
8
BLACK
6
CONTINUOUS
10
3.44074
20
0.395882
11
3.4385
21
0.391492
0
LINE
8
BLACK
6
CONTINUOUS
10
3.4385
20
0.391492
11
3.43502
21
0.388008
0
LINE
8
BLACK
6
CONTINUOUS
10
3.43502
20
0.388008
11
3.43063
21
0.385771
0
LINE
8
BLACK
6
CONTINUOUS
10
3.43063
20
0.385771
11
3.42576
21
0.385
0
LINE
8
BLACK
6
CONTINUOUS
10
3.42576
20
0.385
11
3.41002
21
0.385
0
LINE
8
BLACK
6
CONTINUOUS
10
3.41002
20
0.385
11
3.40515
21
0.385771
0
LINE
8
BLACK
6
CONTINUOUS
10
3.40515
20
0.385771
11
3.40076
21
0.388008
0
LINE
8
BLACK
6
CONTINUOUS
10
3.40076
20
0.388008
11
3.39728
21
0.391492
0
LINE
8
BLACK
6
CONTINUOUS
10
3.39728
20
0.391492
11
3.39504
21
0.395882
0
LINE
8
BLACK
6
CONTINUOUS
10
3.39504
20
0.395882
11
3.39427
21
0.400748
0
LINE
8
BLACK
6
CONTINUOUS
10
3.39427
20
0.400748
11
3.39427
21
0.422402
0
LINE
8
BLACK
6
CONTINUOUS
10
3.39427
20
0.422402
11
3.39504
21
0.427268
0
LINE
8
BLACK
6
CONTINUOUS
10
3.39504
20
0.427268
11
3.39728
21
0.431658
0
LINE
8
BLACK
6
CONTINUOUS
10
3.39728
20
0.431658
11
3.40076
21
0.435142
0
LINE
8
BLACK
6
CONTINUOUS
10
3.40076
20
0.435142
11
3.40515
21
0.437379
0
LINE
8
BLACK
6
CONTINUOUS
10
3.40515
20
0.437379
11
3.41002
21
0.43815
0
LINE
8
BLACK
6
CONTINUOUS
10
3.41002
20
0.43815
11
3.42576
21
0.43815
0
LINE
8
BLACK
6
CONTINUOUS
10
3.42576
20
0.43815
11
3.43063
21
0.437379
0
LINE
8
BLACK
6
CONTINUOUS
10
3.49559
20
0.437379
11
3.49998
21
0.435142
0
LINE
8
BLACK
6
CONTINUOUS
10
3.49998
20
0.435142
11
3.50346
21
0.431658
0
LINE
8
BLACK
6
CONTINUOUS
10
3.50346
20
0.431658
11
3.5057
21
0.427268
0
LINE
8
BLACK
6
CONTINUOUS
10
3.5057
20
0.427268
11
3.50647
21
0.422402
0
LINE
8
BLACK
6
CONTINUOUS
10
3.50647
20
0.422402
11
3.50647
21
0.400748
0
LINE
8
BLACK
6
CONTINUOUS
10
3.50647
20
0.400748
11
3.5057
21
0.395882
0
LINE
8
BLACK
6
CONTINUOUS
10
3.5057
20
0.395882
11
3.50346
21
0.391492
0
LINE
8
BLACK
6
CONTINUOUS
10
3.50346
20
0.391492
11
3.49998
21
0.388008
0
LINE
8
BLACK
6
CONTINUOUS
10
3.49998
20
0.388008
11
3.49559
21
0.385771
0
LINE
8
BLACK
6
CONTINUOUS
10
3.49559
20
0.385771
11
3.49072
21
0.385
0
LINE
8
BLACK
6
CONTINUOUS
10
3.49072
20
0.385
11
3.47498
21
0.385
0
LINE
8
BLACK
6
CONTINUOUS
10
3.47498
20
0.385
11
3.47011
21
0.385771
0
LINE
8
BLACK
6
CONTINUOUS
10
3.47011
20
0.385771
11
3.46572
21
0.388008
0
LINE
8
BLACK
6
CONTINUOUS
10
3.46572
20
0.388008
11
3.46224
21
0.391492
0
LINE
8
BLACK
6
CONTINUOUS
10
3.46224
20
0.391492
11
3.46
21
0.395882
0
LINE
8
BLACK
6
CONTINUOUS
10
3.46
20
0.395882
11
3.45923
21
0.400748
0
LINE
8
BLACK
6
CONTINUOUS
10
3.45923
20
0.400748
11
3.45923
21
0.422402
0
LINE
8
BLACK
6
CONTINUOUS
10
3.45923
20
0.422402
11
3.46
21
0.427268
0
LINE
8
BLACK
6
CONTINUOUS
10
3.46
20
0.427268
11
3.46224
21
0.431658
0
LINE
8
BLACK
6
CONTINUOUS
10
3.46224
20
0.431658
11
3.46572
21
0.435142
0
LINE
8
BLACK
6
CONTINUOUS
10
3.46572
20
0.435142
11
3.47011
21
0.437379
0
LINE
8
BLACK
6
CONTINUOUS
10
3.47011
20
0.437379
11
3.47498
21
0.43815
0
LINE
8
BLACK
6
CONTINUOUS
10
3.47498
20
0.43815
11
3.49072
21
0.43815
0
LINE
8
BLACK
6
CONTINUOUS
10
3.49072
20
0.43815
11
3.49559
21
0.437379
0
LINE
8
BLACK
6
CONTINUOUS
10
1.91835
20
0.467475
11
1.92219
21
0.465518
0
LINE
8
BLACK
6
CONTINUOUS
10
1.92219
20
0.465518
11
1.92524
21
0.462469
0
LINE
8
BLACK
6
CONTINUOUS
10
1.92524
20
0.462469
11
1.9272
21
0.458628
0
LINE
8
BLACK
6
CONTINUOUS
10
1.9272
20
0.458628
11
1.92787
21
0.45437
0
LINE
8
BLACK
6
CONTINUOUS
10
1.92787
20
0.45437
11
1.9272
21
0.450112
0
LINE
8
BLACK
6
CONTINUOUS
10
1.9272
20
0.450112
11
1.92524
21
0.446271
0
LINE
8
BLACK
6
CONTINUOUS
10
1.92524
20
0.446271
11
1.92219
21
0.443222
0
LINE
8
BLACK
6
CONTINUOUS
10
1.92219
20
0.443222
11
1.91835
21
0.441265
0
LINE
8
BLACK
6
CONTINUOUS
10
1.91835
20
0.441265
11
1.91409
21
0.440591
0
LINE
8
BLACK
6
CONTINUOUS
10
1.91409
20
0.440591
11
1.90984
21
0.441265
0
LINE
8
BLACK
6
CONTINUOUS
10
1.90984
20
0.441265
11
1.906
21
0.443222
0
LINE
8
BLACK
6
CONTINUOUS
10
1.906
20
0.443222
11
1.90295
21
0.446271
0
LINE
8
BLACK
6
CONTINUOUS
10
1.90295
20
0.446271
11
1.90228
21
0.447572
0
LINE
8
BLACK
6
CONTINUOUS
10
1.90228
20
0.447572
11
1.90162
21
0.446271
0
LINE
8
BLACK
6
CONTINUOUS
10
1.90162
20
0.446271
11
1.89857
21
0.443222
0
LINE
8
BLACK
6
CONTINUOUS
10
1.89857
20
0.443222
11
1.89473
21
0.441265
0
LINE
8
BLACK
6
CONTINUOUS
10
1.89473
20
0.441265
11
1.89047
21
0.440591
0
LINE
8
BLACK
6
CONTINUOUS
10
1.89047
20
0.440591
11
1.88621
21
0.441265
0
LINE
8
BLACK
6
CONTINUOUS
10
1.88621
20
0.441265
11
1.88237
21
0.443222
0
LINE
8
BLACK
6
CONTINUOUS
10
1.88237
20
0.443222
11
1.87932
21
0.446271
0
LINE
8
BLACK
6
CONTINUOUS
10
1.87932
20
0.446271
11
1.87866
21
0.447572
0
LINE
8
BLACK
6
CONTINUOUS
10
1.87866
20
0.447572
11
1.878
21
0.446271
0
LINE
8
BLACK
6
CONTINUOUS
10
1.878
20
0.446271
11
1.87495
21
0.443222
0
LINE
8
BLACK
6
CONTINUOUS
10
1.87495
20
0.443222
11
1.87111
21
0.441265
0
LINE
8
BLACK
6
CONTINUOUS
10
1.87111
20
0.441265
11
1.86685
21
0.440591
0
LINE
8
BLACK
6
CONTINUOUS
10
1.86685
20
0.440591
11
1.86259
21
0.441265
0
LINE
8
BLACK
6
CONTINUOUS
10
1.86259
20
0.441265
11
1.85875
21
0.443222
0
LINE
8
BLACK
6
CONTINUOUS
10
1.85875
20
0.443222
11
1.8557
21
0.446271
0
LINE
8
BLACK
6
CONTINUOUS
10
1.8557
20
0.446271
11
1.85375
21
0.450112
0
LINE
8
BLACK
6
CONTINUOUS
10
1.85375
20
0.450112
11
1.85307
21
0.45437
0
LINE
8
BLACK
6
CONTINUOUS
10
1.85307
20
0.45437
11
1.85375
21
0.458628
0
LINE
8
BLACK
6
CONTINUOUS
10
1.85375
20
0.458628
11
1.8557
21
0.462469
0
LINE
8
BLACK
6
CONTINUOUS
10
1.8557
20
0.462469
11
1.85875
21
0.465518
0
LINE
8
BLACK
6
CONTINUOUS
10
1.85875
20
0.465518
11
1.86259
21
0.467475
0
LINE
8
BLACK
6
CONTINUOUS
10
1.86259
20
0.467475
11
1.86685
21
0.46815
0
LINE
8
BLACK
6
CONTINUOUS
10
1.86685
20
0.46815
11
1.87111
21
0.467475
0
LINE
8
BLACK
6
CONTINUOUS
10
1.87111
20
0.467475
11
1.87495
21
0.465518
0
LINE
8
BLACK
6
CONTINUOUS
10
1.87495
20
0.465518
11
1.878
21
0.462469
0
LINE
8
BLACK
6
CONTINUOUS
10
1.878
20
0.462469
11
1.87866
21
0.461168
0
LINE
8
BLACK
6
CONTINUOUS
10
1.87866
20
0.461168
11
1.87932
21
0.462469
0
LINE
8
BLACK
6
CONTINUOUS
10
1.87932
20
0.462469
11
1.88237
21
0.465518
0
LINE
8
BLACK
6
CONTINUOUS
10
1.88237
20
0.465518
11
1.88621
21
0.467475
0
LINE
8
BLACK
6
CONTINUOUS
10
1.88621
20
0.467475
11
1.89047
21
0.46815
0
LINE
8
BLACK
6
CONTINUOUS
10
1.89047
20
0.46815
11
1.89473
21
0.467475
0
LINE
8
BLACK
6
CONTINUOUS
10
1.89473
20
0.467475
11
1.89857
21
0.465518
0
LINE
8
BLACK
6
CONTINUOUS
10
1.89857
20
0.465518
11
1.90162
21
0.462469
0
LINE
8
BLACK
6
CONTINUOUS
10
1.90162
20
0.462469
11
1.90228
21
0.461168
0
LINE
8
BLACK
6
CONTINUOUS
10
1.90228
20
0.461168
11
1.90295
21
0.462469
0
LINE
8
BLACK
6
CONTINUOUS
10
1.90295
20
0.462469
11
1.906
21
0.465518
0
LINE
8
BLACK
6
CONTINUOUS
10
1.906
20
0.465518
11
1.90984
21
0.467475
0
LINE
8
BLACK
6
CONTINUOUS
10
1.90984
20
0.467475
11
1.91409
21
0.46815
0
LINE
8
BLACK
6
CONTINUOUS
10
1.91409
20
0.46815
11
1.91835
21
0.467475
0
LINE
8
BLACK
6
CONTINUOUS
10
0.883013
20
0.772275
11
0.885568
21
0.770568
0
LINE
8
BLACK
6
CONTINUOUS
10
0.885568
20
0.770568
11
0.887275
21
0.768013
0
LINE
8
BLACK
6
CONTINUOUS
10
0.887275
20
0.768013
11
0.887874
21
0.765
0
LINE
8
BLACK
6
CONTINUOUS
10
0.887874
20
0.765
11
0.887874
21
0.705
0
LINE
8
BLACK
6
CONTINUOUS
10
0.887874
20
0.705
11
0.887275
21
0.701987
0
LINE
8
BLACK
6
CONTINUOUS
10
0.887275
20
0.701987
11
0.885568
21
0.699432
0
LINE
8
BLACK
6
CONTINUOUS
10
0.885568
20
0.699432
11
0.883013
21
0.697725
0
LINE
8
BLACK
6
CONTINUOUS
10
0.883013
20
0.697725
11
0.88
21
0.697126
0
LINE
8
BLACK
6
CONTINUOUS
10
0.88
20
0.697126
11
0.82
21
0.697126
0
LINE
8
BLACK
6
CONTINUOUS
10
0.82
20
0.697126
11
0.816987
21
0.697725
0
LINE
8
BLACK
6
CONTINUOUS
10
0.816987
20
0.697725
11
0.814432
21
0.699432
0
LINE
8
BLACK
6
CONTINUOUS
10
0.814432
20
0.699432
11
0.812725
21
0.701987
0
LINE
8
BLACK
6
CONTINUOUS
10
0.812725
20
0.701987
11
0.812126
21
0.705
0
LINE
8
BLACK
6
CONTINUOUS
10
0.812126
20
0.705
11
0.812126
21
0.765
0
LINE
8
BLACK
6
CONTINUOUS
10
0.812126
20
0.765
11
0.812725
21
0.768013
0
LINE
8
BLACK
6
CONTINUOUS
10
0.812725
20
0.768013
11
0.814432
21
0.770568
0
LINE
8
BLACK
6
CONTINUOUS
10
0.814432
20
0.770568
11
0.816987
21
0.772275
0
LINE
8
BLACK
6
CONTINUOUS
10
0.816987
20
0.772275
11
0.82
21
0.772874
0
LINE
8
BLACK
6
CONTINUOUS
10
0.82
20
0.772874
11
0.88
21
0.772874
0
LINE
8
BLACK
6
CONTINUOUS
10
0.88
20
0.772874
11
0.883013
21
0.772275
0
LINE
8
BLACK
6
CONTINUOUS
10
0.883013
20
0.872275
11
0.885568
21
0.870568
0
LINE
8
BLACK
6
CONTINUOUS
10
0.885568
20
0.870568
11
0.887275
21
0.868013
0
LINE
8
BLACK
6
CONTINUOUS
10
0.887275
20
0.868013
11
0.887874
21
0.865
0
LINE
8
BLACK
6
CONTINUOUS
10
0.887874
20
0.865
11
0.887874
21
0.805
0
LINE
8
BLACK
6
CONTINUOUS
10
0.887874
20
0.805
11
0.887275
21
0.801987
0
LINE
8
BLACK
6
CONTINUOUS
10
0.887275
20
0.801987
11
0.885568
21
0.799432
0
LINE
8
BLACK
6
CONTINUOUS
10
0.885568
20
0.799432
11
0.883013
21
0.797725
0
LINE
8
BLACK
6
CONTINUOUS
10
0.883013
20
0.797725
11
0.88
21
0.797126
0
LINE
8
BLACK
6
CONTINUOUS
10
0.88
20
0.797126
11
0.82
21
0.797126
0
LINE
8
BLACK
6
CONTINUOUS
10
0.82
20
0.797126
11
0.816987
21
0.797725
0
LINE
8
BLACK
6
CONTINUOUS
10
0.816987
20
0.797725
11
0.814432
21
0.799432
0
LINE
8
BLACK
6
CONTINUOUS
10
0.814432
20
0.799432
11
0.812725
21
0.801987
0
LINE
8
BLACK
6
CONTINUOUS
10
0.812725
20
0.801987
11
0.812126
21
0.805
0
LINE
8
BLACK
6
CONTINUOUS
10
0.812126
20
0.805
11
0.812126
21
0.865
0
LINE
8
BLACK
6
CONTINUOUS
10
0.812126
20
0.865
11
0.812725
21
0.868013
0
LINE
8
BLACK
6
CONTINUOUS
10
0.812725
20
0.868013
11
0.814432
21
0.870568
0
LINE
8
BLACK
6
CONTINUOUS
10
0.814432
20
0.870568
11
0.816987
21
0.872275
0
LINE
8
BLACK
6
CONTINUOUS
10
0.816987
20
0.872275
11
0.82
21
0.872874
0
LINE
8
BLACK
6
CONTINUOUS
10
0.82
20
0.872874
11
0.88
21
0.872874
0
LINE
8
BLACK
6
CONTINUOUS
10
0.88
20
0.872874
11
0.883013
21
0.872275
0
LINE
8
BLACK
6
CONTINUOUS
10
0.883013
20
0.972275
11
0.885568
21
0.970568
0
LINE
8
BLACK
6
CONTINUOUS
10
0.885568
20
0.970568
11
0.887275
21
0.968013
0
LINE
8
BLACK
6
CONTINUOUS
10
0.887275
20
0.968013
11
0.887874
21
0.965
0
LINE
8
BLACK
6
CONTINUOUS
10
0.887874
20
0.965
11
0.887874
21
0.905
0
LINE
8
BLACK
6
CONTINUOUS
10
0.887874
20
0.905
11
0.887275
21
0.901987
0
LINE
8
BLACK
6
CONTINUOUS
10
0.887275
20
0.901987
11
0.885568
21
0.899432
0
LINE
8
BLACK
6
CONTINUOUS
10
0.885568
20
0.899432
11
0.883013
21
0.897725
0
LINE
8
BLACK
6
CONTINUOUS
10
0.883013
20
0.897725
11
0.88
21
0.897126
0
LINE
8
BLACK
6
CONTINUOUS
10
0.88
20
0.897126
11
0.82
21
0.897126
0
LINE
8
BLACK
6
CONTINUOUS
10
0.82
20
0.897126
11
0.816987
21
0.897725
0
LINE
8
BLACK
6
CONTINUOUS
10
0.816987
20
0.897725
11
0.814432
21
0.899432
0
LINE
8
BLACK
6
CONTINUOUS
10
0.814432
20
0.899432
11
0.812725
21
0.901987
0
LINE
8
BLACK
6
CONTINUOUS
10
0.812725
20
0.901987
11
0.812126
21
0.905
0
LINE
8
BLACK
6
CONTINUOUS
10
0.812126
20
0.905
11
0.812126
21
0.965
0
LINE
8
BLACK
6
CONTINUOUS
10
0.812126
20
0.965
11
0.812725
21
0.968013
0
LINE
8
BLACK
6
CONTINUOUS
10
0.812725
20
0.968013
11
0.814432
21
0.970568
0
LINE
8
BLACK
6
CONTINUOUS
10
0.814432
20
0.970568
11
0.816987
21
0.972275
0
LINE
8
BLACK
6
CONTINUOUS
10
0.816987
20
0.972275
11
0.82
21
0.972874
0
LINE
8
BLACK
6
CONTINUOUS
10
0.82
20
0.972874
11
0.88
21
0.972874
0
LINE
8
BLACK
6
CONTINUOUS
10
0.88
20
0.972874
11
0.883013
21
0.972275
0
LINE
8
BLACK
6
CONTINUOUS
10
0.883013
20
1.07227
11
0.885568
21
1.07057
0
LINE
8
BLACK
6
CONTINUOUS
10
0.885568
20
1.07057
11
0.887275
21
1.06801
0
LINE
8
BLACK
6
CONTINUOUS
10
0.887275
20
1.06801
11
0.887874
21
1.065
0
LINE
8
BLACK
6
CONTINUOUS
10
0.887874
20
1.065
11
0.887874
21
1.005
0
LINE
8
BLACK
6
CONTINUOUS
10
0.887874
20
1.005
11
0.887275
21
1.00199
0
LINE
8
BLACK
6
CONTINUOUS
10
0.887275
20
1.00199
11
0.885568
21
0.999432
0
LINE
8
BLACK
6
CONTINUOUS
10
0.885568
20
0.999432
11
0.883013
21
0.997725
0
LINE
8
BLACK
6
CONTINUOUS
10
0.883013
20
0.997725
11
0.88
21
0.997126
0
LINE
8
BLACK
6
CONTINUOUS
10
0.88
20
0.997126
11
0.82
21
0.997126
0
LINE
8
BLACK
6
CONTINUOUS
10
0.82
20
0.997126
11
0.816987
21
0.997725
0
LINE
8
BLACK
6
CONTINUOUS
10
0.816987
20
0.997725
11
0.814432
21
0.999432
0
LINE
8
BLACK
6
CONTINUOUS
10
0.814432
20
0.999432
11
0.812725
21
1.00199
0
LINE
8
BLACK
6
CONTINUOUS
10
0.812725
20
1.00199
11
0.812126
21
1.005
0
LINE
8
BLACK
6
CONTINUOUS
10
0.812126
20
1.005
11
0.812126
21
1.065
0
LINE
8
BLACK
6
CONTINUOUS
10
0.812126
20
1.065
11
0.812725
21
1.06801
0
LINE
8
BLACK
6
CONTINUOUS
10
0.812725
20
1.06801
11
0.814432
21
1.07057
0
LINE
8
BLACK
6
CONTINUOUS
10
0.814432
20
1.07057
11
0.816987
21
1.07227
0
LINE
8
BLACK
6
CONTINUOUS
10
0.816987
20
1.07227
11
0.82
21
1.07287
0
LINE
8
BLACK
6
CONTINUOUS
10
0.82
20
1.07287
11
0.88
21
1.07287
0
LINE
8
BLACK
6
CONTINUOUS
10
0.88
20
1.07287
11
0.883013
21
1.07227
0
LINE
8
BLACK
6
CONTINUOUS
10
2.46619
20
1.2399
11
2.47572
21
1.2382
0
LINE
8
BLACK
6
CONTINUOUS
10
2.47572
20
1.2382
11
2.48484
21
1.23497
0
LINE
8
BLACK
6
CONTINUOUS
10
2.48484
20
1.23497
11
2.49331
21
1.23029
0
LINE
8
BLACK
6
CONTINUOUS
10
2.49331
20
1.23029
11
2.50091
21
1.22429
0
LINE
8
BLACK
6
CONTINUOUS
10
2.50091
20
1.22429
11
2.50742
21
1.21713
0
LINE
8
BLACK
6
CONTINUOUS
10
2.50742
20
1.21713
11
2.51268
21
1.20901
0
LINE
8
BLACK
6
CONTINUOUS
10
2.51268
20
1.20901
11
2.51653
21
1.20013
0
LINE
8
BLACK
6
CONTINUOUS
10
2.51653
20
1.20013
11
2.51889
21
1.19075
0
LINE
8
BLACK
6
CONTINUOUS
10
2.51889
20
1.19075
11
2.51969
21
1.1811
0
LINE
8
BLACK
6
CONTINUOUS
10
2.51969
20
1.1811
11
2.51966
21
1.18
0
LINE
8
BLACK
6
CONTINUOUS
10
2.51966
20
1.18
11
2.75001
21
1.18
0
LINE
8
BLACK
6
CONTINUOUS
10
2.75001
20
1.18
11
2.75269
21
1.17921
0
LINE
8
BLACK
6
CONTINUOUS
10
2.75269
20
1.17921
11
2.75452
21
1.1771
0
LINE
8
BLACK
6
CONTINUOUS
10
2.75452
20
1.1771
11
2.75497
21
1.17501
0
LINE
8
BLACK
6
CONTINUOUS
10
2.75497
20
1.17501
11
2.75412
21
1.02993
0
LINE
8
BLACK
6
CONTINUOUS
10
2.75412
20
1.02993
11
2.75332
21
1.02725
0
LINE
8
BLACK
6
CONTINUOUS
10
2.75332
20
1.02725
11
2.7512
21
1.02544
0
LINE
8
BLACK
6
CONTINUOUS
10
2.7512
20
1.02544
11
2.74916
21
1.025
0
LINE
8
BLACK
6
CONTINUOUS
10
2.74916
20
1.025
11
1.60906
21
1.025
0
LINE
8
BLACK
6
CONTINUOUS
10
1.60906
20
1.025
11
1.60637
21
1.02579
0
LINE
8
BLACK
6
CONTINUOUS
10
1.60637
20
1.02579
11
1.60454
21
1.0279
0
LINE
8
BLACK
6
CONTINUOUS
10
1.60454
20
1.0279
11
1.60409
21
1.02996
0
LINE
8
BLACK
6
CONTINUOUS
10
1.60409
20
1.02996
11
1.60409
21
1.17504
0
LINE
8
BLACK
6
CONTINUOUS
10
1.60409
20
1.17504
11
1.60488
21
1.17772
0
LINE
8
BLACK
6
CONTINUOUS
10
1.60488
20
1.17772
11
1.60699
21
1.17955
0
LINE
8
BLACK
6
CONTINUOUS
10
1.60699
20
1.17955
11
1.60906
21
1.18
0
LINE
8
BLACK
6
CONTINUOUS
10
1.60906
20
1.18
11
1.61434
21
1.18
0
LINE
8
BLACK
6
CONTINUOUS
10
1.61434
20
1.18
11
1.61419
21
1.18255
0
LINE
8
BLACK
6
CONTINUOUS
10
1.61419
20
1.18255
11
1.61522
21
1.19217
0
LINE
8
BLACK
6
CONTINUOUS
10
1.61522
20
1.19217
11
1.61781
21
1.20149
0
LINE
8
BLACK
6
CONTINUOUS
10
1.61781
20
1.20149
11
1.62188
21
1.21027
0
LINE
8
BLACK
6
CONTINUOUS
10
1.62188
20
1.21027
11
1.62733
21
1.21827
0
LINE
8
BLACK
6
CONTINUOUS
10
1.62733
20
1.21827
11
1.63402
21
1.22526
0
LINE
8
BLACK
6
CONTINUOUS
10
1.63402
20
1.22526
11
1.64176
21
1.23107
0
LINE
8
BLACK
6
CONTINUOUS
10
1.64176
20
1.23107
11
1.65034
21
1.23554
0
LINE
8
BLACK
6
CONTINUOUS
10
1.65034
20
1.23554
11
1.65954
21
1.23855
0
LINE
8
BLACK
6
CONTINUOUS
10
1.65954
20
1.23855
11
1.66911
21
1.24001
0
LINE
8
BLACK
6
CONTINUOUS
10
1.66911
20
1.24001
11
1.67879
21
1.2399
0
LINE
8
BLACK
6
CONTINUOUS
10
1.67879
20
1.2399
11
1.68831
21
1.2382
0
LINE
8
BLACK
6
CONTINUOUS
10
1.68831
20
1.2382
11
1.69744
21
1.23497
0
LINE
8
BLACK
6
CONTINUOUS
10
1.69744
20
1.23497
11
1.70591
21
1.23029
0
LINE
8
BLACK
6
CONTINUOUS
10
1.70591
20
1.23029
11
1.7135
21
1.22429
0
LINE
8
BLACK
6
CONTINUOUS
10
1.7135
20
1.22429
11
1.72002
21
1.21713
0
LINE
8
BLACK
6
CONTINUOUS
10
1.72002
20
1.21713
11
1.72527
21
1.20901
0
LINE
8
BLACK
6
CONTINUOUS
10
1.72527
20
1.20901
11
1.72913
21
1.20013
0
LINE
8
BLACK
6
CONTINUOUS
10
1.72913
20
1.20013
11
1.73149
21
1.19075
0
LINE
8
BLACK
6
CONTINUOUS
10
1.73149
20
1.19075
11
1.73228
21
1.1811
0
LINE
8
BLACK
6
CONTINUOUS
10
1.73228
20
1.1811
11
1.73226
21
1.18
0
LINE
8
BLACK
6
CONTINUOUS
10
1.73226
20
1.18
11
2.00804
21
1.18
0
LINE
8
BLACK
6
CONTINUOUS
10
2.00804
20
1.18
11
2.00789
21
1.18255
0
LINE
8
BLACK
6
CONTINUOUS
10
2.00789
20
1.18255
11
2.00892
21
1.19217
0
LINE
8
BLACK
6
CONTINUOUS
10
2.00892
20
1.19217
11
2.01151
21
1.20149
0
LINE
8
BLACK
6
CONTINUOUS
10
2.01151
20
1.20149
11
2.01558
21
1.21027
0
LINE
8
BLACK
6
CONTINUOUS
10
2.01558
20
1.21027
11
2.02103
21
1.21827
0
LINE
8
BLACK
6
CONTINUOUS
10
2.02103
20
1.21827
11
2.02772
21
1.22526
0
LINE
8
BLACK
6
CONTINUOUS
10
2.02772
20
1.22526
11
2.03546
21
1.23107
0
LINE
8
BLACK
6
CONTINUOUS
10
2.03546
20
1.23107
11
2.04404
21
1.23554
0
LINE
8
BLACK
6
CONTINUOUS
10
2.04404
20
1.23554
11
2.05324
21
1.23855
0
LINE
8
BLACK
6
CONTINUOUS
10
2.05324
20
1.23855
11
2.06281
21
1.24001
0
LINE
8
BLACK
6
CONTINUOUS
10
2.06281
20
1.24001
11
2.07249
21
1.2399
0
LINE
8
BLACK
6
CONTINUOUS
10
2.07249
20
1.2399
11
2.08201
21
1.2382
0
LINE
8
BLACK
6
CONTINUOUS
10
2.08201
20
1.2382
11
2.09114
21
1.23497
0
LINE
8
BLACK
6
CONTINUOUS
10
2.09114
20
1.23497
11
2.09961
21
1.23029
0
LINE
8
BLACK
6
CONTINUOUS
10
2.09961
20
1.23029
11
2.1072
21
1.22429
0
LINE
8
BLACK
6
CONTINUOUS
10
2.1072
20
1.22429
11
2.11372
21
1.21713
0
LINE
8
BLACK
6
CONTINUOUS
10
2.11372
20
1.21713
11
2.11897
21
1.20901
0
LINE
8
BLACK
6
CONTINUOUS
10
2.11897
20
1.20901
11
2.12283
21
1.20013
0
LINE
8
BLACK
6
CONTINUOUS
10
2.12283
20
1.20013
11
2.12519
21
1.19075
0
LINE
8
BLACK
6
CONTINUOUS
10
2.12519
20
1.19075
11
2.12598
21
1.1811
0
LINE
8
BLACK
6
CONTINUOUS
10
2.12598
20
1.1811
11
2.12596
21
1.18
0
LINE
8
BLACK
6
CONTINUOUS
10
2.12596
20
1.18
11
2.40174
21
1.18
0
LINE
8
BLACK
6
CONTINUOUS
10
2.40174
20
1.18
11
2.40159
21
1.18255
0
LINE
8
BLACK
6
CONTINUOUS
10
2.40159
20
1.18255
11
2.40262
21
1.19217
0
LINE
8
BLACK
6
CONTINUOUS
10
2.40262
20
1.19217
11
2.40521
21
1.20149
0
LINE
8
BLACK
6
CONTINUOUS
10
2.40521
20
1.20149
11
2.40928
21
1.21027
0
LINE
8
BLACK
6
CONTINUOUS
10
2.40928
20
1.21027
11
2.41474
21
1.21827
0
LINE
8
BLACK
6
CONTINUOUS
10
2.41474
20
1.21827
11
2.42142
21
1.22526
0
LINE
8
BLACK
6
CONTINUOUS
10
2.42142
20
1.22526
11
2.42916
21
1.23107
0
LINE
8
BLACK
6
CONTINUOUS
10
2.42916
20
1.23107
11
2.43775
21
1.23554
0
LINE
8
BLACK
6
CONTINUOUS
10
2.43775
20
1.23554
11
2.44694
21
1.23855
0
LINE
8
BLACK
6
CONTINUOUS
10
2.44694
20
1.23855
11
2.45651
21
1.24001
0
LINE
8
BLACK
6
CONTINUOUS
10
2.45651
20
1.24001
11
2.46619
21
1.2399
0
LINE
8
BLACK
6
CONTINUOUS
10
1.28509
20
1.2399
11
1.29461
21
1.2382
0
LINE
8
BLACK
6
CONTINUOUS
10
1.29461
20
1.2382
11
1.30374
21
1.23497
0
LINE
8
BLACK
6
CONTINUOUS
10
1.30374
20
1.23497
11
1.31221
21
1.23029
0
LINE
8
BLACK
6
CONTINUOUS
10
1.31221
20
1.23029
11
1.3198
21
1.22429
0
LINE
8
BLACK
6
CONTINUOUS
10
1.3198
20
1.22429
11
1.32632
21
1.21713
0
LINE
8
BLACK
6
CONTINUOUS
10
1.32632
20
1.21713
11
1.33157
21
1.20901
0
LINE
8
BLACK
6
CONTINUOUS
10
1.33157
20
1.20901
11
1.33543
21
1.20013
0
LINE
8
BLACK
6
CONTINUOUS
10
1.33543
20
1.20013
11
1.33779
21
1.19075
0
LINE
8
BLACK
6
CONTINUOUS
10
1.33779
20
1.19075
11
1.33858
21
1.1811
0
LINE
8
BLACK
6
CONTINUOUS
10
1.33858
20
1.1811
11
1.33851
21
1.17822
0
LINE
8
BLACK
6
CONTINUOUS
10
1.33851
20
1.17822
11
1.33725
21
1.16862
0
LINE
8
BLACK
6
CONTINUOUS
10
1.33725
20
1.16862
11
1.33444
21
1.15936
0
LINE
8
BLACK
6
CONTINUOUS
10
1.33444
20
1.15936
11
1.33015
21
1.15069
0
LINE
8
BLACK
6
CONTINUOUS
10
1.33015
20
1.15069
11
1.3245
21
1.14283
0
LINE
8
BLACK
6
CONTINUOUS
10
1.3245
20
1.14283
11
1.31765
21
1.136
0
LINE
8
BLACK
6
CONTINUOUS
10
1.31765
20
1.136
11
1.30977
21
1.13038
0
LINE
8
BLACK
6
CONTINUOUS
10
1.30977
20
1.13038
11
1.30108
21
1.12612
0
LINE
8
BLACK
6
CONTINUOUS
10
1.30108
20
1.12612
11
1.29181
21
1.12334
0
LINE
8
BLACK
6
CONTINUOUS
10
1.29181
20
1.12334
11
1.28221
21
1.12211
0
LINE
8
BLACK
6
CONTINUOUS
10
1.28221
20
1.12211
11
1.27254
21
1.12246
0
LINE
8
BLACK
6
CONTINUOUS
10
1.27254
20
1.12246
11
1.26305
21
1.12439
0
LINE
8
BLACK
6
CONTINUOUS
10
1.26305
20
1.12439
11
1.25401
21
1.12784
0
LINE
8
BLACK
6
CONTINUOUS
10
1.25401
20
1.12784
11
1.24565
21
1.13273
0
LINE
8
BLACK
6
CONTINUOUS
10
1.24565
20
1.13273
11
1.23821
21
1.13891
0
LINE
8
BLACK
6
CONTINUOUS
10
1.23821
20
1.13891
11
1.23187
21
1.14622
0
LINE
8
BLACK
6
CONTINUOUS
10
1.23187
20
1.14622
11
1.22682
21
1.15448
0
LINE
8
BLACK
6
CONTINUOUS
10
1.22682
20
1.15448
11
1.22317
21
1.16344
0
LINE
8
BLACK
6
CONTINUOUS
10
1.22317
20
1.16344
11
1.22105
21
1.17288
0
LINE
8
BLACK
6
CONTINUOUS
10
1.22105
20
1.17288
11
1.22049
21
1.18255
0
LINE
8
BLACK
6
CONTINUOUS
10
1.22049
20
1.18255
11
1.22152
21
1.19217
0
LINE
8
BLACK
6
CONTINUOUS
10
1.22152
20
1.19217
11
1.2241
21
1.20149
0
LINE
8
BLACK
6
CONTINUOUS
10
1.2241
20
1.20149
11
1.22818
21
1.21027
0
LINE
8
BLACK
6
CONTINUOUS
10
1.22818
20
1.21027
11
1.23363
21
1.21827
0
LINE
8
BLACK
6
CONTINUOUS
10
1.23363
20
1.21827
11
1.24032
21
1.22526
0
LINE
8
BLACK
6
CONTINUOUS
10
1.24032
20
1.22526
11
1.24806
21
1.23107
0
LINE
8
BLACK
6
CONTINUOUS
10
1.24806
20
1.23107
11
1.25664
21
1.23554
0
LINE
8
BLACK
6
CONTINUOUS
10
1.25664
20
1.23554
11
1.26584
21
1.23855
0
LINE
8
BLACK
6
CONTINUOUS
10
1.26584
20
1.23855
11
1.27541
21
1.24001
0
LINE
8
BLACK
6
CONTINUOUS
10
1.27541
20
1.24001
11
1.28509
21
1.2399
0
LINE
8
BLACK
6
CONTINUOUS
10
0.891384
20
1.2399
11
0.900912
21
1.2382
0
LINE
8
BLACK
6
CONTINUOUS
10
0.900912
20
1.2382
11
0.910035
21
1.23497
0
LINE
8
BLACK
6
CONTINUOUS
10
0.910035
20
1.23497
11
0.918507
21
1.23029
0
LINE
8
BLACK
6
CONTINUOUS
10
0.918507
20
1.23029
11
0.926102
21
1.22429
0
LINE
8
BLACK
6
CONTINUOUS
10
0.926102
20
1.22429
11
0.932616
21
1.21713
0
LINE
8
BLACK
6
CONTINUOUS
10
0.932616
20
1.21713
11
0.937872
21
1.20901
0
LINE
8
BLACK
6
CONTINUOUS
10
0.937872
20
1.20901
11
0.941731
21
1.20013
0
LINE
8
BLACK
6
CONTINUOUS
10
0.941731
20
1.20013
11
0.944089
21
1.19075
0
LINE
8
BLACK
6
CONTINUOUS
10
0.944089
20
1.19075
11
0.944882
21
1.1811
0
LINE
8
BLACK
6
CONTINUOUS
10
0.944882
20
1.1811
11
0.944811
21
1.17822
0
LINE
8
BLACK
6
CONTINUOUS
10
0.944811
20
1.17822
11
0.943548
21
1.16862
0
LINE
8
BLACK
6
CONTINUOUS
10
0.943548
20
1.16862
11
0.940735
21
1.15936
0
LINE
8
BLACK
6
CONTINUOUS
10
0.940735
20
1.15936
11
0.936447
21
1.15069
0
LINE
8
BLACK
6
CONTINUOUS
10
0.936447
20
1.15069
11
0.930799
21
1.14283
0
LINE
8
BLACK
6
CONTINUOUS
10
0.930799
20
1.14283
11
0.923944
21
1.136
0
LINE
8
BLACK
6
CONTINUOUS
10
0.923944
20
1.136
11
0.916066
21
1.13038
0
LINE
8
BLACK
6
CONTINUOUS
10
0.916066
20
1.13038
11
0.907375
21
1.12612
0
LINE
8
BLACK
6
CONTINUOUS
10
0.907375
20
1.12612
11
0.898105
21
1.12334
0
LINE
8
BLACK
6
CONTINUOUS
10
0.898105
20
1.12334
11
0.888506
21
1.12211
0
LINE
8
BLACK
6
CONTINUOUS
10
0.888506
20
1.12211
11
0.878834
21
1.12246
0
LINE
8
BLACK
6
CONTINUOUS
10
0.878834
20
1.12246
11
0.869351
21
1.12439
0
LINE
8
BLACK
6
CONTINUOUS
10
0.869351
20
1.12439
11
0.86031
21
1.12784
0
LINE
8
BLACK
6
CONTINUOUS
10
0.86031
20
1.12784
11
0.851954
21
1.13273
0
LINE
8
BLACK
6
CONTINUOUS
10
0.851954
20
1.13273
11
0.844508
21
1.13891
0
LINE
8
BLACK
6
CONTINUOUS
10
0.844508
20
1.13891
11
0.838172
21
1.14622
0
LINE
8
BLACK
6
CONTINUOUS
10
0.838172
20
1.14622
11
0.833115
21
1.15448
0
LINE
8
BLACK
6
CONTINUOUS
10
0.833115
20
1.15448
11
0.829474
21
1.16344
0
LINE
8
BLACK
6
CONTINUOUS
10
0.829474
20
1.16344
11
0.827346
21
1.17288
0
LINE
8
BLACK
6
CONTINUOUS
10
0.827346
20
1.17288
11
0.826789
21
1.18255
0
LINE
8
BLACK
6
CONTINUOUS
10
0.826789
20
1.18255
11
0.827818
21
1.19217
0
LINE
8
BLACK
6
CONTINUOUS
10
0.827818
20
1.19217
11
0.830404
21
1.20149
0
LINE
8
BLACK
6
CONTINUOUS
10
0.830404
20
1.20149
11
0.834479
21
1.21027
0
LINE
8
BLACK
6
CONTINUOUS
10
0.834479
20
1.21027
11
0.839932
21
1.21827
0
LINE
8
BLACK
6
CONTINUOUS
10
0.839932
20
1.21827
11
0.846619
21
1.22526
0
LINE
8
BLACK
6
CONTINUOUS
10
0.846619
20
1.22526
11
0.854358
21
1.23107
0
LINE
8
BLACK
6
CONTINUOUS
10
0.854358
20
1.23107
11
0.862942
21
1.23554
0
LINE
8
BLACK
6
CONTINUOUS
10
0.862942
20
1.23554
11
0.872141
21
1.23855
0
LINE
8
BLACK
6
CONTINUOUS
10
0.872141
20
1.23855
11
0.881707
21
1.24001
0
LINE
8
BLACK
6
CONTINUOUS
10
0.881707
20
1.24001
11
0.891384
21
1.2399
  0
ENDSEC
  0
EOF
