  0
SECTION
  2
HEADER
  9
$ANGBASE
  50
0.0
  9
$ANGDIR
  70
1
  9
$MEASUREMENT
  70
0
  0
ENDSEC
  0
SECTION
  2
TABLES
  0
TABLE
  2
LTYPE
  70
4
  0
LTYPE
  5
40F
  2
CONTINUOUS
  70
0
  3
Solid line
  72
65
  73
0
  40
0.0
  0
LTYPE
  5
410
  2
DASHDOT
 70
0
  3
Dash Dot ____ _ ____ _
 72
65
 73
4
 40
2.0
 49
1.25
 49
-0.25
 49
0.25
 49
-0.25
  0
LTYPE
  5
411
  2
DASHED
 70
0
  3
Dashed __ __ __ __ __
 72
65
 73
2
 40
0.75
 49
0.5
 49
-0.25
  0
LTYPE
  5
43B
  2
DOTTED
 70
0
  3
Dotted .  .  .  .
 72
65
 73
2
 40
0.2
 49
0.0
 49
-0.2
  0
ENDTAB
  0
TABLE
  2
STYLE
  70
4
  0
STYLE
  2
KICAD
  70
0
  40
0
  41
1
  42
1
  50
0
  71
0
  3
isocp.shx
  0
STYLE
  2
KICADB
  70
0
  40
0
  41
1
  42
1
  50
0
  71
0
  3
isocp.shx
  0
STYLE
  2
KICADI
  70
0
  40
0
  41
1
  42
1
  50
15
  71
0
  3
isocp.shx
  0
STYLE
  2
KICADBI
  70
0
  40
0
  41
1
  42
1
  50
15
  71
0
  3
isocp.shx
  0
ENDTAB
  0
TABLE
  2
LAYER
  70
1
  0
LAYER
  2
BLACK
  70
0
  62
7
  6
CONTINUOUS
  0
ENDTAB
  0
ENDSEC
  0
SECTION
  2
ENTITIES
0
LINE
8
BLACK
6
CONTINUOUS
10
6.9049
20
-3.97654
11
6.90673
21
-3.97865
0
LINE
8
BLACK
6
CONTINUOUS
10
6.90673
20
-3.97865
11
6.90718
21
-3.98074
0
LINE
8
BLACK
6
CONTINUOUS
10
6.90718
20
-3.98074
11
6.90633
21
-4.12582
0
LINE
8
BLACK
6
CONTINUOUS
10
6.90633
20
-4.12582
11
6.90552
21
-4.12849
0
LINE
8
BLACK
6
CONTINUOUS
10
6.90552
20
-4.12849
11
6.9034
21
-4.13031
0
LINE
8
BLACK
6
CONTINUOUS
10
6.9034
20
-4.13031
11
6.90137
21
-4.13075
0
LINE
8
BLACK
6
CONTINUOUS
10
6.90137
20
-4.13075
11
6.67098
21
-4.13075
0
LINE
8
BLACK
6
CONTINUOUS
10
6.67098
20
-4.13075
11
6.67091
21
-4.13363
0
LINE
8
BLACK
6
CONTINUOUS
10
6.67091
20
-4.13363
11
6.66965
21
-4.14323
0
LINE
8
BLACK
6
CONTINUOUS
10
6.66965
20
-4.14323
11
6.66684
21
-4.15249
0
LINE
8
BLACK
6
CONTINUOUS
10
6.66684
20
-4.15249
11
6.66255
21
-4.16116
0
LINE
8
BLACK
6
CONTINUOUS
10
6.66255
20
-4.16116
11
6.6569
21
-4.16902
0
LINE
8
BLACK
6
CONTINUOUS
10
6.6569
20
-4.16902
11
6.65005
21
-4.17585
0
LINE
8
BLACK
6
CONTINUOUS
10
6.65005
20
-4.17585
11
6.64217
21
-4.18147
0
LINE
8
BLACK
6
CONTINUOUS
10
6.64217
20
-4.18147
11
6.63348
21
-4.18573
0
LINE
8
BLACK
6
CONTINUOUS
10
6.63348
20
-4.18573
11
6.62421
21
-4.18851
0
LINE
8
BLACK
6
CONTINUOUS
10
6.62421
20
-4.18851
11
6.61461
21
-4.18974
0
LINE
8
BLACK
6
CONTINUOUS
10
6.61461
20
-4.18974
11
6.60494
21
-4.18939
0
LINE
8
BLACK
6
CONTINUOUS
10
6.60494
20
-4.18939
11
6.59545
21
-4.18746
0
LINE
8
BLACK
6
CONTINUOUS
10
6.59545
20
-4.18746
11
6.58641
21
-4.18401
0
LINE
8
BLACK
6
CONTINUOUS
10
6.58641
20
-4.18401
11
6.57806
21
-4.17912
0
LINE
8
BLACK
6
CONTINUOUS
10
6.57806
20
-4.17912
11
6.57061
21
-4.17294
0
LINE
8
BLACK
6
CONTINUOUS
10
6.57061
20
-4.17294
11
6.56427
21
-4.16563
0
LINE
8
BLACK
6
CONTINUOUS
10
6.56427
20
-4.16563
11
6.55922
21
-4.15737
0
LINE
8
BLACK
6
CONTINUOUS
10
6.55922
20
-4.15737
11
6.55558
21
-4.14841
0
LINE
8
BLACK
6
CONTINUOUS
10
6.55558
20
-4.14841
11
6.55345
21
-4.13897
0
LINE
8
BLACK
6
CONTINUOUS
10
6.55345
20
-4.13897
11
6.55297
21
-4.13075
0
LINE
8
BLACK
6
CONTINUOUS
10
6.55297
20
-4.13075
11
6.27728
21
-4.13075
0
LINE
8
BLACK
6
CONTINUOUS
10
6.27728
20
-4.13075
11
6.27721
21
-4.13363
0
LINE
8
BLACK
6
CONTINUOUS
10
6.27721
20
-4.13363
11
6.27595
21
-4.14323
0
LINE
8
BLACK
6
CONTINUOUS
10
6.27595
20
-4.14323
11
6.27314
21
-4.15249
0
LINE
8
BLACK
6
CONTINUOUS
10
6.27314
20
-4.15249
11
6.26885
21
-4.16116
0
LINE
8
BLACK
6
CONTINUOUS
10
6.26885
20
-4.16116
11
6.2632
21
-4.16902
0
LINE
8
BLACK
6
CONTINUOUS
10
6.2632
20
-4.16902
11
6.25635
21
-4.17585
0
LINE
8
BLACK
6
CONTINUOUS
10
6.25635
20
-4.17585
11
6.24847
21
-4.18147
0
LINE
8
BLACK
6
CONTINUOUS
10
6.24847
20
-4.18147
11
6.23978
21
-4.18573
0
LINE
8
BLACK
6
CONTINUOUS
10
6.23978
20
-4.18573
11
6.23051
21
-4.18851
0
LINE
8
BLACK
6
CONTINUOUS
10
6.23051
20
-4.18851
11
6.22091
21
-4.18974
0
LINE
8
BLACK
6
CONTINUOUS
10
6.22091
20
-4.18974
11
6.21124
21
-4.18939
0
LINE
8
BLACK
6
CONTINUOUS
10
6.21124
20
-4.18939
11
6.20175
21
-4.18746
0
LINE
8
BLACK
6
CONTINUOUS
10
6.20175
20
-4.18746
11
6.19271
21
-4.18401
0
LINE
8
BLACK
6
CONTINUOUS
10
6.19271
20
-4.18401
11
6.18436
21
-4.17912
0
LINE
8
BLACK
6
CONTINUOUS
10
6.18436
20
-4.17912
11
6.17691
21
-4.17294
0
LINE
8
BLACK
6
CONTINUOUS
10
6.17691
20
-4.17294
11
6.17057
21
-4.16563
0
LINE
8
BLACK
6
CONTINUOUS
10
6.17057
20
-4.16563
11
6.16552
21
-4.15737
0
LINE
8
BLACK
6
CONTINUOUS
10
6.16552
20
-4.15737
11
6.16188
21
-4.14841
0
LINE
8
BLACK
6
CONTINUOUS
10
6.16188
20
-4.14841
11
6.15975
21
-4.13897
0
LINE
8
BLACK
6
CONTINUOUS
10
6.15975
20
-4.13897
11
6.15927
21
-4.13075
0
LINE
8
BLACK
6
CONTINUOUS
10
6.15927
20
-4.13075
11
5.88358
21
-4.13075
0
LINE
8
BLACK
6
CONTINUOUS
10
5.88358
20
-4.13075
11
5.88351
21
-4.13363
0
LINE
8
BLACK
6
CONTINUOUS
10
5.88351
20
-4.13363
11
5.88225
21
-4.14323
0
LINE
8
BLACK
6
CONTINUOUS
10
5.88225
20
-4.14323
11
5.87944
21
-4.15249
0
LINE
8
BLACK
6
CONTINUOUS
10
5.87944
20
-4.15249
11
5.87515
21
-4.16116
0
LINE
8
BLACK
6
CONTINUOUS
10
5.87515
20
-4.16116
11
5.8695
21
-4.16902
0
LINE
8
BLACK
6
CONTINUOUS
10
5.8695
20
-4.16902
11
5.86265
21
-4.17585
0
LINE
8
BLACK
6
CONTINUOUS
10
5.86265
20
-4.17585
11
5.85477
21
-4.18147
0
LINE
8
BLACK
6
CONTINUOUS
10
5.85477
20
-4.18147
11
5.84608
21
-4.18573
0
LINE
8
BLACK
6
CONTINUOUS
10
5.84608
20
-4.18573
11
5.83681
21
-4.18851
0
LINE
8
BLACK
6
CONTINUOUS
10
5.83681
20
-4.18851
11
5.82721
21
-4.18974
0
LINE
8
BLACK
6
CONTINUOUS
10
5.82721
20
-4.18974
11
5.81754
21
-4.18939
0
LINE
8
BLACK
6
CONTINUOUS
10
5.81754
20
-4.18939
11
5.80805
21
-4.18746
0
LINE
8
BLACK
6
CONTINUOUS
10
5.80805
20
-4.18746
11
5.79901
21
-4.18401
0
LINE
8
BLACK
6
CONTINUOUS
10
5.79901
20
-4.18401
11
5.79065
21
-4.17912
0
LINE
8
BLACK
6
CONTINUOUS
10
5.79065
20
-4.17912
11
5.78321
21
-4.17294
0
LINE
8
BLACK
6
CONTINUOUS
10
5.78321
20
-4.17294
11
5.77687
21
-4.16563
0
LINE
8
BLACK
6
CONTINUOUS
10
5.77687
20
-4.16563
11
5.77182
21
-4.15737
0
LINE
8
BLACK
6
CONTINUOUS
10
5.77182
20
-4.15737
11
5.76817
21
-4.14841
0
LINE
8
BLACK
6
CONTINUOUS
10
5.76817
20
-4.14841
11
5.76605
21
-4.13897
0
LINE
8
BLACK
6
CONTINUOUS
10
5.76605
20
-4.13897
11
5.76557
21
-4.13075
0
LINE
8
BLACK
6
CONTINUOUS
10
5.76557
20
-4.13075
11
5.76126
21
-4.13075
0
LINE
8
BLACK
6
CONTINUOUS
10
5.76126
20
-4.13075
11
5.75858
21
-4.12996
0
LINE
8
BLACK
6
CONTINUOUS
10
5.75858
20
-4.12996
11
5.75675
21
-4.12785
0
LINE
8
BLACK
6
CONTINUOUS
10
5.75675
20
-4.12785
11
5.7563
21
-4.12579
0
LINE
8
BLACK
6
CONTINUOUS
10
5.7563
20
-4.12579
11
5.7563
21
-3.98071
0
LINE
8
BLACK
6
CONTINUOUS
10
5.7563
20
-3.98071
11
5.75709
21
-3.97803
0
LINE
8
BLACK
6
CONTINUOUS
10
5.75709
20
-3.97803
11
5.7592
21
-3.9762
0
LINE
8
BLACK
6
CONTINUOUS
10
5.7592
20
-3.9762
11
5.76126
21
-3.97575
0
LINE
8
BLACK
6
CONTINUOUS
10
5.76126
20
-3.97575
11
6.90222
21
-3.97575
0
LINE
8
BLACK
6
CONTINUOUS
10
6.90222
20
-3.97575
11
6.9049
21
-3.97654
0
LINE
8
BLACK
6
CONTINUOUS
10
5.04268
20
-4.07195
11
5.05221
21
-4.07365
0
LINE
8
BLACK
6
CONTINUOUS
10
5.05221
20
-4.07365
11
5.06133
21
-4.07688
0
LINE
8
BLACK
6
CONTINUOUS
10
5.06133
20
-4.07688
11
5.06981
21
-4.08156
0
LINE
8
BLACK
6
CONTINUOUS
10
5.06981
20
-4.08156
11
5.0774
21
-4.08756
0
LINE
8
BLACK
6
CONTINUOUS
10
5.0774
20
-4.08756
11
5.08391
21
-4.09472
0
LINE
8
BLACK
6
CONTINUOUS
10
5.08391
20
-4.09472
11
5.08917
21
-4.10284
0
LINE
8
BLACK
6
CONTINUOUS
10
5.08917
20
-4.10284
11
5.09303
21
-4.11172
0
LINE
8
BLACK
6
CONTINUOUS
10
5.09303
20
-4.11172
11
5.09539
21
-4.1211
0
LINE
8
BLACK
6
CONTINUOUS
10
5.09539
20
-4.1211
11
5.09618
21
-4.13075
0
LINE
8
BLACK
6
CONTINUOUS
10
5.09618
20
-4.13075
11
5.09611
21
-4.13363
0
LINE
8
BLACK
6
CONTINUOUS
10
5.09611
20
-4.13363
11
5.09485
21
-4.14323
0
LINE
8
BLACK
6
CONTINUOUS
10
5.09485
20
-4.14323
11
5.09203
21
-4.15249
0
LINE
8
BLACK
6
CONTINUOUS
10
5.09203
20
-4.15249
11
5.08775
21
-4.16116
0
LINE
8
BLACK
6
CONTINUOUS
10
5.08775
20
-4.16116
11
5.0821
21
-4.16902
0
LINE
8
BLACK
6
CONTINUOUS
10
5.0821
20
-4.16902
11
5.07524
21
-4.17585
0
LINE
8
BLACK
6
CONTINUOUS
10
5.07524
20
-4.17585
11
5.06736
21
-4.18147
0
LINE
8
BLACK
6
CONTINUOUS
10
5.06736
20
-4.18147
11
5.05867
21
-4.18573
0
LINE
8
BLACK
6
CONTINUOUS
10
5.05867
20
-4.18573
11
5.0494
21
-4.18851
0
LINE
8
BLACK
6
CONTINUOUS
10
5.0494
20
-4.18851
11
5.0398
21
-4.18974
0
LINE
8
BLACK
6
CONTINUOUS
10
5.0398
20
-4.18974
11
5.03013
21
-4.18939
0
LINE
8
BLACK
6
CONTINUOUS
10
5.03013
20
-4.18939
11
5.02065
21
-4.18746
0
LINE
8
BLACK
6
CONTINUOUS
10
5.02065
20
-4.18746
11
5.01161
21
-4.18401
0
LINE
8
BLACK
6
CONTINUOUS
10
5.01161
20
-4.18401
11
5.00325
21
-4.17912
0
LINE
8
BLACK
6
CONTINUOUS
10
5.00325
20
-4.17912
11
4.99581
21
-4.17294
0
LINE
8
BLACK
6
CONTINUOUS
10
4.99581
20
-4.17294
11
4.98947
21
-4.16563
0
LINE
8
BLACK
6
CONTINUOUS
10
4.98947
20
-4.16563
11
4.98441
21
-4.15737
0
LINE
8
BLACK
6
CONTINUOUS
10
4.98441
20
-4.15737
11
4.98077
21
-4.14841
0
LINE
8
BLACK
6
CONTINUOUS
10
4.98077
20
-4.14841
11
4.97865
21
-4.13897
0
LINE
8
BLACK
6
CONTINUOUS
10
4.97865
20
-4.13897
11
4.97809
21
-4.12931
0
LINE
8
BLACK
6
CONTINUOUS
10
4.97809
20
-4.12931
11
4.97912
21
-4.11968
0
LINE
8
BLACK
6
CONTINUOUS
10
4.97912
20
-4.11968
11
4.9817
21
-4.11036
0
LINE
8
BLACK
6
CONTINUOUS
10
4.9817
20
-4.11036
11
4.98578
21
-4.10158
0
LINE
8
BLACK
6
CONTINUOUS
10
4.98578
20
-4.10158
11
4.99123
21
-4.09358
0
LINE
8
BLACK
6
CONTINUOUS
10
4.99123
20
-4.09358
11
4.99792
21
-4.08659
0
LINE
8
BLACK
6
CONTINUOUS
10
4.99792
20
-4.08659
11
5.00566
21
-4.08078
0
LINE
8
BLACK
6
CONTINUOUS
10
5.00566
20
-4.08078
11
5.01424
21
-4.07631
0
LINE
8
BLACK
6
CONTINUOUS
10
5.01424
20
-4.07631
11
5.02344
21
-4.0733
0
LINE
8
BLACK
6
CONTINUOUS
10
5.02344
20
-4.0733
11
5.03301
21
-4.07184
0
LINE
8
BLACK
6
CONTINUOUS
10
5.03301
20
-4.07184
11
5.04268
21
-4.07195
0
LINE
8
BLACK
6
CONTINUOUS
10
5.43638
20
-4.07195
11
5.44591
21
-4.07365
0
LINE
8
BLACK
6
CONTINUOUS
10
5.44591
20
-4.07365
11
5.45503
21
-4.07688
0
LINE
8
BLACK
6
CONTINUOUS
10
5.45503
20
-4.07688
11
5.46351
21
-4.08156
0
LINE
8
BLACK
6
CONTINUOUS
10
5.46351
20
-4.08156
11
5.4711
21
-4.08756
0
LINE
8
BLACK
6
CONTINUOUS
10
5.4711
20
-4.08756
11
5.47762
21
-4.09472
0
LINE
8
BLACK
6
CONTINUOUS
10
5.47762
20
-4.09472
11
5.48287
21
-4.10284
0
LINE
8
BLACK
6
CONTINUOUS
10
5.48287
20
-4.10284
11
5.48673
21
-4.11172
0
LINE
8
BLACK
6
CONTINUOUS
10
5.48673
20
-4.11172
11
5.48909
21
-4.1211
0
LINE
8
BLACK
6
CONTINUOUS
10
5.48909
20
-4.1211
11
5.48988
21
-4.13075
0
LINE
8
BLACK
6
CONTINUOUS
10
5.48988
20
-4.13075
11
5.48981
21
-4.13363
0
LINE
8
BLACK
6
CONTINUOUS
10
5.48981
20
-4.13363
11
5.48855
21
-4.14323
0
LINE
8
BLACK
6
CONTINUOUS
10
5.48855
20
-4.14323
11
5.48573
21
-4.15249
0
LINE
8
BLACK
6
CONTINUOUS
10
5.48573
20
-4.15249
11
5.48145
21
-4.16116
0
LINE
8
BLACK
6
CONTINUOUS
10
5.48145
20
-4.16116
11
5.4758
21
-4.16902
0
LINE
8
BLACK
6
CONTINUOUS
10
5.4758
20
-4.16902
11
5.46894
21
-4.17585
0
LINE
8
BLACK
6
CONTINUOUS
10
5.46894
20
-4.17585
11
5.46107
21
-4.18147
0
LINE
8
BLACK
6
CONTINUOUS
10
5.46107
20
-4.18147
11
5.45237
21
-4.18573
0
LINE
8
BLACK
6
CONTINUOUS
10
5.45237
20
-4.18573
11
5.44311
21
-4.18851
0
LINE
8
BLACK
6
CONTINUOUS
10
5.44311
20
-4.18851
11
5.43351
21
-4.18974
0
LINE
8
BLACK
6
CONTINUOUS
10
5.43351
20
-4.18974
11
5.42383
21
-4.18939
0
LINE
8
BLACK
6
CONTINUOUS
10
5.42383
20
-4.18939
11
5.41435
21
-4.18746
0
LINE
8
BLACK
6
CONTINUOUS
10
5.41435
20
-4.18746
11
5.40531
21
-4.18401
0
LINE
8
BLACK
6
CONTINUOUS
10
5.40531
20
-4.18401
11
5.39695
21
-4.17912
0
LINE
8
BLACK
6
CONTINUOUS
10
5.39695
20
-4.17912
11
5.38951
21
-4.17294
0
LINE
8
BLACK
6
CONTINUOUS
10
5.38951
20
-4.17294
11
5.38317
21
-4.16563
0
LINE
8
BLACK
6
CONTINUOUS
10
5.38317
20
-4.16563
11
5.37812
21
-4.15737
0
LINE
8
BLACK
6
CONTINUOUS
10
5.37812
20
-4.15737
11
5.37447
21
-4.14841
0
LINE
8
BLACK
6
CONTINUOUS
10
5.37447
20
-4.14841
11
5.37235
21
-4.13897
0
LINE
8
BLACK
6
CONTINUOUS
10
5.37235
20
-4.13897
11
5.37179
21
-4.12931
0
LINE
8
BLACK
6
CONTINUOUS
10
5.37179
20
-4.12931
11
5.37282
21
-4.11968
0
LINE
8
BLACK
6
CONTINUOUS
10
5.37282
20
-4.11968
11
5.3754
21
-4.11036
0
LINE
8
BLACK
6
CONTINUOUS
10
5.3754
20
-4.11036
11
5.37948
21
-4.10158
0
LINE
8
BLACK
6
CONTINUOUS
10
5.37948
20
-4.10158
11
5.38493
21
-4.09358
0
LINE
8
BLACK
6
CONTINUOUS
10
5.38493
20
-4.09358
11
5.39162
21
-4.08659
0
LINE
8
BLACK
6
CONTINUOUS
10
5.39162
20
-4.08659
11
5.39936
21
-4.08078
0
LINE
8
BLACK
6
CONTINUOUS
10
5.39936
20
-4.08078
11
5.40794
21
-4.07631
0
LINE
8
BLACK
6
CONTINUOUS
10
5.40794
20
-4.07631
11
5.41714
21
-4.0733
0
LINE
8
BLACK
6
CONTINUOUS
10
5.41714
20
-4.0733
11
5.42671
21
-4.07184
0
LINE
8
BLACK
6
CONTINUOUS
10
5.42671
20
-4.07184
11
5.43638
21
-4.07195
0
LINE
8
BLACK
6
CONTINUOUS
10
6.06965
20
-3.66327
11
6.07349
21
-3.66523
0
LINE
8
BLACK
6
CONTINUOUS
10
6.07349
20
-3.66523
11
6.07654
21
-3.66828
0
LINE
8
BLACK
6
CONTINUOUS
10
6.07654
20
-3.66828
11
6.0785
21
-3.67212
0
LINE
8
BLACK
6
CONTINUOUS
10
6.0785
20
-3.67212
11
6.07917
21
-3.67638
0
LINE
8
BLACK
6
CONTINUOUS
10
6.07917
20
-3.67638
11
6.0785
21
-3.68064
0
LINE
8
BLACK
6
CONTINUOUS
10
6.0785
20
-3.68064
11
6.07654
21
-3.68448
0
LINE
8
BLACK
6
CONTINUOUS
10
6.07654
20
-3.68448
11
6.07349
21
-3.68753
0
LINE
8
BLACK
6
CONTINUOUS
10
6.07349
20
-3.68753
11
6.06965
21
-3.68948
0
LINE
8
BLACK
6
CONTINUOUS
10
6.06965
20
-3.68948
11
6.06539
21
-3.69016
0
LINE
8
BLACK
6
CONTINUOUS
10
6.06539
20
-3.69016
11
6.06114
21
-3.68948
0
LINE
8
BLACK
6
CONTINUOUS
10
6.06114
20
-3.68948
11
6.05729
21
-3.68753
0
LINE
8
BLACK
6
CONTINUOUS
10
6.05729
20
-3.68753
11
6.05425
21
-3.68448
0
LINE
8
BLACK
6
CONTINUOUS
10
6.05425
20
-3.68448
11
6.05358
21
-3.68318
0
LINE
8
BLACK
6
CONTINUOUS
10
6.05358
20
-3.68318
11
6.05292
21
-3.68448
0
LINE
8
BLACK
6
CONTINUOUS
10
6.05292
20
-3.68448
11
6.04987
21
-3.68753
0
LINE
8
BLACK
6
CONTINUOUS
10
6.04987
20
-3.68753
11
6.04603
21
-3.68948
0
LINE
8
BLACK
6
CONTINUOUS
10
6.04603
20
-3.68948
11
6.04177
21
-3.69016
0
LINE
8
BLACK
6
CONTINUOUS
10
6.04177
20
-3.69016
11
6.03751
21
-3.68948
0
LINE
8
BLACK
6
CONTINUOUS
10
6.03751
20
-3.68948
11
6.03367
21
-3.68753
0
LINE
8
BLACK
6
CONTINUOUS
10
6.03367
20
-3.68753
11
6.03062
21
-3.68448
0
LINE
8
BLACK
6
CONTINUOUS
10
6.03062
20
-3.68448
11
6.02996
21
-3.68318
0
LINE
8
BLACK
6
CONTINUOUS
10
6.02996
20
-3.68318
11
6.0293
21
-3.68448
0
LINE
8
BLACK
6
CONTINUOUS
10
6.0293
20
-3.68448
11
6.02625
21
-3.68753
0
LINE
8
BLACK
6
CONTINUOUS
10
6.02625
20
-3.68753
11
6.02241
21
-3.68948
0
LINE
8
BLACK
6
CONTINUOUS
10
6.02241
20
-3.68948
11
6.01815
21
-3.69016
0
LINE
8
BLACK
6
CONTINUOUS
10
6.01815
20
-3.69016
11
6.01389
21
-3.68948
0
LINE
8
BLACK
6
CONTINUOUS
10
6.01389
20
-3.68948
11
6.01005
21
-3.68753
0
LINE
8
BLACK
6
CONTINUOUS
10
6.01005
20
-3.68753
11
6.007
21
-3.68448
0
LINE
8
BLACK
6
CONTINUOUS
10
6.007
20
-3.68448
11
6.00504
21
-3.68064
0
LINE
8
BLACK
6
CONTINUOUS
10
6.00504
20
-3.68064
11
6.00437
21
-3.67638
0
LINE
8
BLACK
6
CONTINUOUS
10
6.00437
20
-3.67638
11
6.00504
21
-3.67212
0
LINE
8
BLACK
6
CONTINUOUS
10
6.00504
20
-3.67212
11
6.007
21
-3.66828
0
LINE
8
BLACK
6
CONTINUOUS
10
6.007
20
-3.66828
11
6.01005
21
-3.66523
0
LINE
8
BLACK
6
CONTINUOUS
10
6.01005
20
-3.66523
11
6.01389
21
-3.66327
0
LINE
8
BLACK
6
CONTINUOUS
10
6.01389
20
-3.66327
11
6.01815
21
-3.6626
0
LINE
8
BLACK
6
CONTINUOUS
10
6.01815
20
-3.6626
11
6.02241
21
-3.66327
0
LINE
8
BLACK
6
CONTINUOUS
10
6.02241
20
-3.66327
11
6.02625
21
-3.66523
0
LINE
8
BLACK
6
CONTINUOUS
10
6.02625
20
-3.66523
11
6.0293
21
-3.66828
0
LINE
8
BLACK
6
CONTINUOUS
10
6.0293
20
-3.66828
11
6.02996
21
-3.66958
0
LINE
8
BLACK
6
CONTINUOUS
10
6.02996
20
-3.66958
11
6.03062
21
-3.66828
0
LINE
8
BLACK
6
CONTINUOUS
10
6.03062
20
-3.66828
11
6.03367
21
-3.66523
0
LINE
8
BLACK
6
CONTINUOUS
10
6.03367
20
-3.66523
11
6.03751
21
-3.66327
0
LINE
8
BLACK
6
CONTINUOUS
10
6.03751
20
-3.66327
11
6.04177
21
-3.6626
0
LINE
8
BLACK
6
CONTINUOUS
10
6.04177
20
-3.6626
11
6.04603
21
-3.66327
0
LINE
8
BLACK
6
CONTINUOUS
10
6.04603
20
-3.66327
11
6.04987
21
-3.66523
0
LINE
8
BLACK
6
CONTINUOUS
10
6.04987
20
-3.66523
11
6.05292
21
-3.66828
0
LINE
8
BLACK
6
CONTINUOUS
10
6.05292
20
-3.66828
11
6.05358
21
-3.66958
0
LINE
8
BLACK
6
CONTINUOUS
10
6.05358
20
-3.66958
11
6.05425
21
-3.66828
0
LINE
8
BLACK
6
CONTINUOUS
10
6.05425
20
-3.66828
11
6.05729
21
-3.66523
0
LINE
8
BLACK
6
CONTINUOUS
10
6.05729
20
-3.66523
11
6.06114
21
-3.66327
0
LINE
8
BLACK
6
CONTINUOUS
10
6.06114
20
-3.66327
11
6.06539
21
-3.6626
0
LINE
8
BLACK
6
CONTINUOUS
10
6.06539
20
-3.6626
11
6.06965
21
-3.66327
0
LINE
8
BLACK
6
CONTINUOUS
10
5.04831
20
-3.44947
11
5.05087
21
-3.45118
0
LINE
8
BLACK
6
CONTINUOUS
10
5.05087
20
-3.45118
11
5.05257
21
-3.45373
0
LINE
8
BLACK
6
CONTINUOUS
10
5.05257
20
-3.45373
11
5.05317
21
-3.45675
0
LINE
8
BLACK
6
CONTINUOUS
10
5.05317
20
-3.45675
11
5.05317
21
-3.51675
0
LINE
8
BLACK
6
CONTINUOUS
10
5.05317
20
-3.51675
11
5.05257
21
-3.51976
0
LINE
8
BLACK
6
CONTINUOUS
10
5.05257
20
-3.51976
11
5.05087
21
-3.52232
0
LINE
8
BLACK
6
CONTINUOUS
10
5.05087
20
-3.52232
11
5.04831
21
-3.52402
0
LINE
8
BLACK
6
CONTINUOUS
10
5.04831
20
-3.52402
11
5.0453
21
-3.52462
0
LINE
8
BLACK
6
CONTINUOUS
10
5.0453
20
-3.52462
11
4.9853
21
-3.52462
0
LINE
8
BLACK
6
CONTINUOUS
10
4.9853
20
-3.52462
11
4.98229
21
-3.52402
0
LINE
8
BLACK
6
CONTINUOUS
10
4.98229
20
-3.52402
11
4.97973
21
-3.52232
0
LINE
8
BLACK
6
CONTINUOUS
10
4.97973
20
-3.52232
11
4.97802
21
-3.51976
0
LINE
8
BLACK
6
CONTINUOUS
10
4.97802
20
-3.51976
11
4.97743
21
-3.51675
0
LINE
8
BLACK
6
CONTINUOUS
10
4.97743
20
-3.51675
11
4.97743
21
-3.45675
0
LINE
8
BLACK
6
CONTINUOUS
10
4.97743
20
-3.45675
11
4.97802
21
-3.45373
0
LINE
8
BLACK
6
CONTINUOUS
10
4.97802
20
-3.45373
11
4.97973
21
-3.45118
0
LINE
8
BLACK
6
CONTINUOUS
10
4.97973
20
-3.45118
11
4.98229
21
-3.44947
0
LINE
8
BLACK
6
CONTINUOUS
10
4.98229
20
-3.44947
11
4.9853
21
-3.44887
0
LINE
8
BLACK
6
CONTINUOUS
10
4.9853
20
-3.44887
11
5.0453
21
-3.44887
0
LINE
8
BLACK
6
CONTINUOUS
10
5.0453
20
-3.44887
11
5.04831
21
-3.44947
0
LINE
8
BLACK
6
CONTINUOUS
10
5.14831
20
-3.44947
11
5.15087
21
-3.45118
0
LINE
8
BLACK
6
CONTINUOUS
10
5.15087
20
-3.45118
11
5.15257
21
-3.45373
0
LINE
8
BLACK
6
CONTINUOUS
10
5.15257
20
-3.45373
11
5.15317
21
-3.45675
0
LINE
8
BLACK
6
CONTINUOUS
10
5.15317
20
-3.45675
11
5.15317
21
-3.51675
0
LINE
8
BLACK
6
CONTINUOUS
10
5.15317
20
-3.51675
11
5.15257
21
-3.51976
0
LINE
8
BLACK
6
CONTINUOUS
10
5.15257
20
-3.51976
11
5.15087
21
-3.52232
0
LINE
8
BLACK
6
CONTINUOUS
10
5.15087
20
-3.52232
11
5.14831
21
-3.52402
0
LINE
8
BLACK
6
CONTINUOUS
10
5.14831
20
-3.52402
11
5.1453
21
-3.52462
0
LINE
8
BLACK
6
CONTINUOUS
10
5.1453
20
-3.52462
11
5.0853
21
-3.52462
0
LINE
8
BLACK
6
CONTINUOUS
10
5.0853
20
-3.52462
11
5.08229
21
-3.52402
0
LINE
8
BLACK
6
CONTINUOUS
10
5.08229
20
-3.52402
11
5.07973
21
-3.52232
0
LINE
8
BLACK
6
CONTINUOUS
10
5.07973
20
-3.52232
11
5.07802
21
-3.51976
0
LINE
8
BLACK
6
CONTINUOUS
10
5.07802
20
-3.51976
11
5.07743
21
-3.51675
0
LINE
8
BLACK
6
CONTINUOUS
10
5.07743
20
-3.51675
11
5.07743
21
-3.45675
0
LINE
8
BLACK
6
CONTINUOUS
10
5.07743
20
-3.45675
11
5.07802
21
-3.45373
0
LINE
8
BLACK
6
CONTINUOUS
10
5.07802
20
-3.45373
11
5.07973
21
-3.45118
0
LINE
8
BLACK
6
CONTINUOUS
10
5.07973
20
-3.45118
11
5.08229
21
-3.44947
0
LINE
8
BLACK
6
CONTINUOUS
10
5.08229
20
-3.44947
11
5.0853
21
-3.44887
0
LINE
8
BLACK
6
CONTINUOUS
10
5.0853
20
-3.44887
11
5.1453
21
-3.44887
0
LINE
8
BLACK
6
CONTINUOUS
10
5.1453
20
-3.44887
11
5.14831
21
-3.44947
0
LINE
8
BLACK
6
CONTINUOUS
10
5.04831
20
-3.34947
11
5.05087
21
-3.35118
0
LINE
8
BLACK
6
CONTINUOUS
10
5.05087
20
-3.35118
11
5.05257
21
-3.35373
0
LINE
8
BLACK
6
CONTINUOUS
10
5.05257
20
-3.35373
11
5.05317
21
-3.35675
0
LINE
8
BLACK
6
CONTINUOUS
10
5.05317
20
-3.35675
11
5.05317
21
-3.41675
0
LINE
8
BLACK
6
CONTINUOUS
10
5.05317
20
-3.41675
11
5.05257
21
-3.41976
0
LINE
8
BLACK
6
CONTINUOUS
10
5.05257
20
-3.41976
11
5.05087
21
-3.42232
0
LINE
8
BLACK
6
CONTINUOUS
10
5.05087
20
-3.42232
11
5.04831
21
-3.42402
0
LINE
8
BLACK
6
CONTINUOUS
10
5.04831
20
-3.42402
11
5.0453
21
-3.42462
0
LINE
8
BLACK
6
CONTINUOUS
10
5.0453
20
-3.42462
11
4.9853
21
-3.42462
0
LINE
8
BLACK
6
CONTINUOUS
10
4.9853
20
-3.42462
11
4.98229
21
-3.42402
0
LINE
8
BLACK
6
CONTINUOUS
10
4.98229
20
-3.42402
11
4.97973
21
-3.42232
0
LINE
8
BLACK
6
CONTINUOUS
10
4.97973
20
-3.42232
11
4.97802
21
-3.41976
0
LINE
8
BLACK
6
CONTINUOUS
10
4.97802
20
-3.41976
11
4.97743
21
-3.41675
0
LINE
8
BLACK
6
CONTINUOUS
10
4.97743
20
-3.41675
11
4.97743
21
-3.35675
0
LINE
8
BLACK
6
CONTINUOUS
10
4.97743
20
-3.35675
11
4.97802
21
-3.35373
0
LINE
8
BLACK
6
CONTINUOUS
10
4.97802
20
-3.35373
11
4.97973
21
-3.35118
0
LINE
8
BLACK
6
CONTINUOUS
10
4.97973
20
-3.35118
11
4.98229
21
-3.34947
0
LINE
8
BLACK
6
CONTINUOUS
10
4.98229
20
-3.34947
11
4.9853
21
-3.34887
0
LINE
8
BLACK
6
CONTINUOUS
10
4.9853
20
-3.34887
11
5.0453
21
-3.34887
0
LINE
8
BLACK
6
CONTINUOUS
10
5.0453
20
-3.34887
11
5.04831
21
-3.34947
0
LINE
8
BLACK
6
CONTINUOUS
10
5.14831
20
-3.34947
11
5.15087
21
-3.35118
0
LINE
8
BLACK
6
CONTINUOUS
10
5.15087
20
-3.35118
11
5.15257
21
-3.35373
0
LINE
8
BLACK
6
CONTINUOUS
10
5.15257
20
-3.35373
11
5.15317
21
-3.35675
0
LINE
8
BLACK
6
CONTINUOUS
10
5.15317
20
-3.35675
11
5.15317
21
-3.41675
0
LINE
8
BLACK
6
CONTINUOUS
10
5.15317
20
-3.41675
11
5.15257
21
-3.41976
0
LINE
8
BLACK
6
CONTINUOUS
10
5.15257
20
-3.41976
11
5.15087
21
-3.42232
0
LINE
8
BLACK
6
CONTINUOUS
10
5.15087
20
-3.42232
11
5.14831
21
-3.42402
0
LINE
8
BLACK
6
CONTINUOUS
10
5.14831
20
-3.42402
11
5.1453
21
-3.42462
0
LINE
8
BLACK
6
CONTINUOUS
10
5.1453
20
-3.42462
11
5.0853
21
-3.42462
0
LINE
8
BLACK
6
CONTINUOUS
10
5.0853
20
-3.42462
11
5.08229
21
-3.42402
0
LINE
8
BLACK
6
CONTINUOUS
10
5.08229
20
-3.42402
11
5.07973
21
-3.42232
0
LINE
8
BLACK
6
CONTINUOUS
10
5.07973
20
-3.42232
11
5.07802
21
-3.41976
0
LINE
8
BLACK
6
CONTINUOUS
10
5.07802
20
-3.41976
11
5.07743
21
-3.41675
0
LINE
8
BLACK
6
CONTINUOUS
10
5.07743
20
-3.41675
11
5.07743
21
-3.35675
0
LINE
8
BLACK
6
CONTINUOUS
10
5.07743
20
-3.35675
11
5.07802
21
-3.35373
0
LINE
8
BLACK
6
CONTINUOUS
10
5.07802
20
-3.35373
11
5.07973
21
-3.35118
0
LINE
8
BLACK
6
CONTINUOUS
10
5.07973
20
-3.35118
11
5.08229
21
-3.34947
0
LINE
8
BLACK
6
CONTINUOUS
10
5.08229
20
-3.34947
11
5.0853
21
-3.34887
0
LINE
8
BLACK
6
CONTINUOUS
10
5.0853
20
-3.34887
11
5.1453
21
-3.34887
0
LINE
8
BLACK
6
CONTINUOUS
10
5.1453
20
-3.34887
11
5.14831
21
-3.34947
0
LINE
8
BLACK
6
CONTINUOUS
10
5.04831
20
-3.24947
11
5.05087
21
-3.25118
0
LINE
8
BLACK
6
CONTINUOUS
10
5.05087
20
-3.25118
11
5.05257
21
-3.25373
0
LINE
8
BLACK
6
CONTINUOUS
10
5.05257
20
-3.25373
11
5.05317
21
-3.25675
0
LINE
8
BLACK
6
CONTINUOUS
10
5.05317
20
-3.25675
11
5.05317
21
-3.31675
0
LINE
8
BLACK
6
CONTINUOUS
10
5.05317
20
-3.31675
11
5.05257
21
-3.31976
0
LINE
8
BLACK
6
CONTINUOUS
10
5.05257
20
-3.31976
11
5.05087
21
-3.32232
0
LINE
8
BLACK
6
CONTINUOUS
10
5.05087
20
-3.32232
11
5.04831
21
-3.32402
0
LINE
8
BLACK
6
CONTINUOUS
10
5.04831
20
-3.32402
11
5.0453
21
-3.32462
0
LINE
8
BLACK
6
CONTINUOUS
10
5.0453
20
-3.32462
11
4.9853
21
-3.32462
0
LINE
8
BLACK
6
CONTINUOUS
10
4.9853
20
-3.32462
11
4.98229
21
-3.32402
0
LINE
8
BLACK
6
CONTINUOUS
10
4.98229
20
-3.32402
11
4.97973
21
-3.32232
0
LINE
8
BLACK
6
CONTINUOUS
10
4.97973
20
-3.32232
11
4.97802
21
-3.31976
0
LINE
8
BLACK
6
CONTINUOUS
10
4.97802
20
-3.31976
11
4.97743
21
-3.31675
0
LINE
8
BLACK
6
CONTINUOUS
10
4.97743
20
-3.31675
11
4.97743
21
-3.25675
0
LINE
8
BLACK
6
CONTINUOUS
10
4.97743
20
-3.25675
11
4.97802
21
-3.25373
0
LINE
8
BLACK
6
CONTINUOUS
10
4.97802
20
-3.25373
11
4.97973
21
-3.25118
0
LINE
8
BLACK
6
CONTINUOUS
10
4.97973
20
-3.25118
11
4.98229
21
-3.24947
0
LINE
8
BLACK
6
CONTINUOUS
10
4.98229
20
-3.24947
11
4.9853
21
-3.24887
0
LINE
8
BLACK
6
CONTINUOUS
10
4.9853
20
-3.24887
11
5.0453
21
-3.24887
0
LINE
8
BLACK
6
CONTINUOUS
10
5.0453
20
-3.24887
11
5.04831
21
-3.24947
0
LINE
8
BLACK
6
CONTINUOUS
10
5.14831
20
-3.24947
11
5.15087
21
-3.25118
0
LINE
8
BLACK
6
CONTINUOUS
10
5.15087
20
-3.25118
11
5.15257
21
-3.25373
0
LINE
8
BLACK
6
CONTINUOUS
10
5.15257
20
-3.25373
11
5.15317
21
-3.25675
0
LINE
8
BLACK
6
CONTINUOUS
10
5.15317
20
-3.25675
11
5.15317
21
-3.31675
0
LINE
8
BLACK
6
CONTINUOUS
10
5.15317
20
-3.31675
11
5.15257
21
-3.31976
0
LINE
8
BLACK
6
CONTINUOUS
10
5.15257
20
-3.31976
11
5.15087
21
-3.32232
0
LINE
8
BLACK
6
CONTINUOUS
10
5.15087
20
-3.32232
11
5.14831
21
-3.32402
0
LINE
8
BLACK
6
CONTINUOUS
10
5.14831
20
-3.32402
11
5.1453
21
-3.32462
0
LINE
8
BLACK
6
CONTINUOUS
10
5.1453
20
-3.32462
11
5.0853
21
-3.32462
0
LINE
8
BLACK
6
CONTINUOUS
10
5.0853
20
-3.32462
11
5.08229
21
-3.32402
0
LINE
8
BLACK
6
CONTINUOUS
10
5.08229
20
-3.32402
11
5.07973
21
-3.32232
0
LINE
8
BLACK
6
CONTINUOUS
10
5.07973
20
-3.32232
11
5.07802
21
-3.31976
0
LINE
8
BLACK
6
CONTINUOUS
10
5.07802
20
-3.31976
11
5.07743
21
-3.31675
0
LINE
8
BLACK
6
CONTINUOUS
10
5.07743
20
-3.31675
11
5.07743
21
-3.25675
0
LINE
8
BLACK
6
CONTINUOUS
10
5.07743
20
-3.25675
11
5.07802
21
-3.25373
0
LINE
8
BLACK
6
CONTINUOUS
10
5.07802
20
-3.25373
11
5.07973
21
-3.25118
0
LINE
8
BLACK
6
CONTINUOUS
10
5.07973
20
-3.25118
11
5.08229
21
-3.24947
0
LINE
8
BLACK
6
CONTINUOUS
10
5.08229
20
-3.24947
11
5.0853
21
-3.24887
0
LINE
8
BLACK
6
CONTINUOUS
10
5.0853
20
-3.24887
11
5.1453
21
-3.24887
0
LINE
8
BLACK
6
CONTINUOUS
10
5.1453
20
-3.24887
11
5.14831
21
-3.24947
0
LINE
8
BLACK
6
CONTINUOUS
10
6.61749
20
-2.89085
11
6.62701
21
-2.89255
0
LINE
8
BLACK
6
CONTINUOUS
10
6.62701
20
-2.89255
11
6.63614
21
-2.89578
0
LINE
8
BLACK
6
CONTINUOUS
10
6.63614
20
-2.89578
11
6.64461
21
-2.90046
0
LINE
8
BLACK
6
CONTINUOUS
10
6.64461
20
-2.90046
11
6.6522
21
-2.90646
0
LINE
8
BLACK
6
CONTINUOUS
10
6.6522
20
-2.90646
11
6.65872
21
-2.91361
0
LINE
8
BLACK
6
CONTINUOUS
10
6.65872
20
-2.91361
11
6.66397
21
-2.92174
0
LINE
8
BLACK
6
CONTINUOUS
10
6.66397
20
-2.92174
11
6.66783
21
-2.93061
0
LINE
8
BLACK
6
CONTINUOUS
10
6.66783
20
-2.93061
11
6.67019
21
-2.94
0
LINE
8
BLACK
6
CONTINUOUS
10
6.67019
20
-2.94
11
6.67098
21
-2.94965
0
LINE
8
BLACK
6
CONTINUOUS
10
6.67098
20
-2.94965
11
6.67096
21
-2.95075
0
LINE
8
BLACK
6
CONTINUOUS
10
6.67096
20
-2.95075
11
6.90131
21
-2.95075
0
LINE
8
BLACK
6
CONTINUOUS
10
6.90131
20
-2.95075
11
6.90399
21
-2.95154
0
LINE
8
BLACK
6
CONTINUOUS
10
6.90399
20
-2.95154
11
6.90582
21
-2.95365
0
LINE
8
BLACK
6
CONTINUOUS
10
6.90582
20
-2.95365
11
6.90627
21
-2.95574
0
LINE
8
BLACK
6
CONTINUOUS
10
6.90627
20
-2.95574
11
6.90542
21
-3.10082
0
LINE
8
BLACK
6
CONTINUOUS
10
6.90542
20
-3.10082
11
6.90462
21
-3.10349
0
LINE
8
BLACK
6
CONTINUOUS
10
6.90462
20
-3.10349
11
6.9025
21
-3.10531
0
LINE
8
BLACK
6
CONTINUOUS
10
6.9025
20
-3.10531
11
6.90046
21
-3.10575
0
LINE
8
BLACK
6
CONTINUOUS
10
6.90046
20
-3.10575
11
5.76035
21
-3.10575
0
LINE
8
BLACK
6
CONTINUOUS
10
5.76035
20
-3.10575
11
5.75767
21
-3.10496
0
LINE
8
BLACK
6
CONTINUOUS
10
5.75767
20
-3.10496
11
5.75584
21
-3.10285
0
LINE
8
BLACK
6
CONTINUOUS
10
5.75584
20
-3.10285
11
5.75539
21
-3.10079
0
LINE
8
BLACK
6
CONTINUOUS
10
5.75539
20
-3.10079
11
5.75539
21
-2.95571
0
LINE
8
BLACK
6
CONTINUOUS
10
5.75539
20
-2.95571
11
5.75618
21
-2.95303
0
LINE
8
BLACK
6
CONTINUOUS
10
5.75618
20
-2.95303
11
5.75829
21
-2.9512
0
LINE
8
BLACK
6
CONTINUOUS
10
5.75829
20
-2.9512
11
5.76035
21
-2.95075
0
LINE
8
BLACK
6
CONTINUOUS
10
5.76035
20
-2.95075
11
5.76564
21
-2.95075
0
LINE
8
BLACK
6
CONTINUOUS
10
5.76564
20
-2.95075
11
5.76549
21
-2.9482
0
LINE
8
BLACK
6
CONTINUOUS
10
5.76549
20
-2.9482
11
5.76652
21
-2.93858
0
LINE
8
BLACK
6
CONTINUOUS
10
5.76652
20
-2.93858
11
5.7691
21
-2.92925
0
LINE
8
BLACK
6
CONTINUOUS
10
5.7691
20
-2.92925
11
5.77318
21
-2.92048
0
LINE
8
BLACK
6
CONTINUOUS
10
5.77318
20
-2.92048
11
5.77863
21
-2.91248
0
LINE
8
BLACK
6
CONTINUOUS
10
5.77863
20
-2.91248
11
5.78532
21
-2.90548
0
LINE
8
BLACK
6
CONTINUOUS
10
5.78532
20
-2.90548
11
5.79306
21
-2.89967
0
LINE
8
BLACK
6
CONTINUOUS
10
5.79306
20
-2.89967
11
5.80164
21
-2.8952
0
LINE
8
BLACK
6
CONTINUOUS
10
5.80164
20
-2.8952
11
5.81084
21
-2.8922
0
LINE
8
BLACK
6
CONTINUOUS
10
5.81084
20
-2.8922
11
5.82041
21
-2.89073
0
LINE
8
BLACK
6
CONTINUOUS
10
5.82041
20
-2.89073
11
5.83009
21
-2.89085
0
LINE
8
BLACK
6
CONTINUOUS
10
5.83009
20
-2.89085
11
5.83961
21
-2.89255
0
LINE
8
BLACK
6
CONTINUOUS
10
5.83961
20
-2.89255
11
5.84874
21
-2.89578
0
LINE
8
BLACK
6
CONTINUOUS
10
5.84874
20
-2.89578
11
5.85721
21
-2.90046
0
LINE
8
BLACK
6
CONTINUOUS
10
5.85721
20
-2.90046
11
5.8648
21
-2.90646
0
LINE
8
BLACK
6
CONTINUOUS
10
5.8648
20
-2.90646
11
5.87132
21
-2.91361
0
LINE
8
BLACK
6
CONTINUOUS
10
5.87132
20
-2.91361
11
5.87657
21
-2.92174
0
LINE
8
BLACK
6
CONTINUOUS
10
5.87657
20
-2.92174
11
5.88043
21
-2.93061
0
LINE
8
BLACK
6
CONTINUOUS
10
5.88043
20
-2.93061
11
5.88279
21
-2.94
0
LINE
8
BLACK
6
CONTINUOUS
10
5.88279
20
-2.94
11
5.88358
21
-2.94965
0
LINE
8
BLACK
6
CONTINUOUS
10
5.88358
20
-2.94965
11
5.88356
21
-2.95075
0
LINE
8
BLACK
6
CONTINUOUS
10
5.88356
20
-2.95075
11
6.15934
21
-2.95075
0
LINE
8
BLACK
6
CONTINUOUS
10
6.15934
20
-2.95075
11
6.15919
21
-2.9482
0
LINE
8
BLACK
6
CONTINUOUS
10
6.15919
20
-2.9482
11
6.16022
21
-2.93858
0
LINE
8
BLACK
6
CONTINUOUS
10
6.16022
20
-2.93858
11
6.16281
21
-2.92925
0
LINE
8
BLACK
6
CONTINUOUS
10
6.16281
20
-2.92925
11
6.16688
21
-2.92048
0
LINE
8
BLACK
6
CONTINUOUS
10
6.16688
20
-2.92048
11
6.17233
21
-2.91248
0
LINE
8
BLACK
6
CONTINUOUS
10
6.17233
20
-2.91248
11
6.17902
21
-2.90548
0
LINE
8
BLACK
6
CONTINUOUS
10
6.17902
20
-2.90548
11
6.18676
21
-2.89967
0
LINE
8
BLACK
6
CONTINUOUS
10
6.18676
20
-2.89967
11
6.19534
21
-2.8952
0
LINE
8
BLACK
6
CONTINUOUS
10
6.19534
20
-2.8952
11
6.20454
21
-2.8922
0
LINE
8
BLACK
6
CONTINUOUS
10
6.20454
20
-2.8922
11
6.21411
21
-2.89073
0
LINE
8
BLACK
6
CONTINUOUS
10
6.21411
20
-2.89073
11
6.22379
21
-2.89085
0
LINE
8
BLACK
6
CONTINUOUS
10
6.22379
20
-2.89085
11
6.23331
21
-2.89255
0
LINE
8
BLACK
6
CONTINUOUS
10
6.23331
20
-2.89255
11
6.24244
21
-2.89578
0
LINE
8
BLACK
6
CONTINUOUS
10
6.24244
20
-2.89578
11
6.25091
21
-2.90046
0
LINE
8
BLACK
6
CONTINUOUS
10
6.25091
20
-2.90046
11
6.2585
21
-2.90646
0
LINE
8
BLACK
6
CONTINUOUS
10
6.2585
20
-2.90646
11
6.26502
21
-2.91361
0
LINE
8
BLACK
6
CONTINUOUS
10
6.26502
20
-2.91361
11
6.27027
21
-2.92174
0
LINE
8
BLACK
6
CONTINUOUS
10
6.27027
20
-2.92174
11
6.27413
21
-2.93061
0
LINE
8
BLACK
6
CONTINUOUS
10
6.27413
20
-2.93061
11
6.27649
21
-2.94
0
LINE
8
BLACK
6
CONTINUOUS
10
6.27649
20
-2.94
11
6.27728
21
-2.94965
0
LINE
8
BLACK
6
CONTINUOUS
10
6.27728
20
-2.94965
11
6.27726
21
-2.95075
0
LINE
8
BLACK
6
CONTINUOUS
10
6.27726
20
-2.95075
11
6.55304
21
-2.95075
0
LINE
8
BLACK
6
CONTINUOUS
10
6.55304
20
-2.95075
11
6.55289
21
-2.9482
0
LINE
8
BLACK
6
CONTINUOUS
10
6.55289
20
-2.9482
11
6.55392
21
-2.93858
0
LINE
8
BLACK
6
CONTINUOUS
10
6.55392
20
-2.93858
11
6.55651
21
-2.92925
0
LINE
8
BLACK
6
CONTINUOUS
10
6.55651
20
-2.92925
11
6.56058
21
-2.92048
0
LINE
8
BLACK
6
CONTINUOUS
10
6.56058
20
-2.92048
11
6.56603
21
-2.91248
0
LINE
8
BLACK
6
CONTINUOUS
10
6.56603
20
-2.91248
11
6.57272
21
-2.90548
0
LINE
8
BLACK
6
CONTINUOUS
10
6.57272
20
-2.90548
11
6.58046
21
-2.89967
0
LINE
8
BLACK
6
CONTINUOUS
10
6.58046
20
-2.89967
11
6.58904
21
-2.8952
0
LINE
8
BLACK
6
CONTINUOUS
10
6.58904
20
-2.8952
11
6.59824
21
-2.8922
0
LINE
8
BLACK
6
CONTINUOUS
10
6.59824
20
-2.8922
11
6.60781
21
-2.89073
0
LINE
8
BLACK
6
CONTINUOUS
10
6.60781
20
-2.89073
11
6.61749
21
-2.89085
0
LINE
8
BLACK
6
CONTINUOUS
10
5.43638
20
-2.89085
11
5.44591
21
-2.89255
0
LINE
8
BLACK
6
CONTINUOUS
10
5.44591
20
-2.89255
11
5.45503
21
-2.89578
0
LINE
8
BLACK
6
CONTINUOUS
10
5.45503
20
-2.89578
11
5.46351
21
-2.90046
0
LINE
8
BLACK
6
CONTINUOUS
10
5.46351
20
-2.90046
11
5.4711
21
-2.90646
0
LINE
8
BLACK
6
CONTINUOUS
10
5.4711
20
-2.90646
11
5.47762
21
-2.91361
0
LINE
8
BLACK
6
CONTINUOUS
10
5.47762
20
-2.91361
11
5.48287
21
-2.92174
0
LINE
8
BLACK
6
CONTINUOUS
10
5.48287
20
-2.92174
11
5.48673
21
-2.93061
0
LINE
8
BLACK
6
CONTINUOUS
10
5.48673
20
-2.93061
11
5.48909
21
-2.94
0
LINE
8
BLACK
6
CONTINUOUS
10
5.48909
20
-2.94
11
5.48988
21
-2.94965
0
LINE
8
BLACK
6
CONTINUOUS
10
5.48988
20
-2.94965
11
5.48981
21
-2.95253
0
LINE
8
BLACK
6
CONTINUOUS
10
5.48981
20
-2.95253
11
5.48855
21
-2.96213
0
LINE
8
BLACK
6
CONTINUOUS
10
5.48855
20
-2.96213
11
5.48573
21
-2.97139
0
LINE
8
BLACK
6
CONTINUOUS
10
5.48573
20
-2.97139
11
5.48145
21
-2.98006
0
LINE
8
BLACK
6
CONTINUOUS
10
5.48145
20
-2.98006
11
5.4758
21
-2.98792
0
LINE
8
BLACK
6
CONTINUOUS
10
5.4758
20
-2.98792
11
5.46894
21
-2.99475
0
LINE
8
BLACK
6
CONTINUOUS
10
5.46894
20
-2.99475
11
5.46107
21
-3.00037
0
LINE
8
BLACK
6
CONTINUOUS
10
5.46107
20
-3.00037
11
5.45237
21
-3.00463
0
LINE
8
BLACK
6
CONTINUOUS
10
5.45237
20
-3.00463
11
5.44311
21
-3.00741
0
LINE
8
BLACK
6
CONTINUOUS
10
5.44311
20
-3.00741
11
5.43351
21
-3.00864
0
LINE
8
BLACK
6
CONTINUOUS
10
5.43351
20
-3.00864
11
5.42383
21
-3.00829
0
LINE
8
BLACK
6
CONTINUOUS
10
5.42383
20
-3.00829
11
5.41435
21
-3.00636
0
LINE
8
BLACK
6
CONTINUOUS
10
5.41435
20
-3.00636
11
5.40531
21
-3.0029
0
LINE
8
BLACK
6
CONTINUOUS
10
5.40531
20
-3.0029
11
5.39695
21
-2.99802
0
LINE
8
BLACK
6
CONTINUOUS
10
5.39695
20
-2.99802
11
5.38951
21
-2.99184
0
LINE
8
BLACK
6
CONTINUOUS
10
5.38951
20
-2.99184
11
5.38317
21
-2.98452
0
LINE
8
BLACK
6
CONTINUOUS
10
5.38317
20
-2.98452
11
5.37812
21
-2.97627
0
LINE
8
BLACK
6
CONTINUOUS
10
5.37812
20
-2.97627
11
5.37447
21
-2.96731
0
LINE
8
BLACK
6
CONTINUOUS
10
5.37447
20
-2.96731
11
5.37235
21
-2.95786
0
LINE
8
BLACK
6
CONTINUOUS
10
5.37235
20
-2.95786
11
5.37179
21
-2.9482
0
LINE
8
BLACK
6
CONTINUOUS
10
5.37179
20
-2.9482
11
5.37282
21
-2.93858
0
LINE
8
BLACK
6
CONTINUOUS
10
5.37282
20
-2.93858
11
5.3754
21
-2.92925
0
LINE
8
BLACK
6
CONTINUOUS
10
5.3754
20
-2.92925
11
5.37948
21
-2.92048
0
LINE
8
BLACK
6
CONTINUOUS
10
5.37948
20
-2.92048
11
5.38493
21
-2.91248
0
LINE
8
BLACK
6
CONTINUOUS
10
5.38493
20
-2.91248
11
5.39162
21
-2.90548
0
LINE
8
BLACK
6
CONTINUOUS
10
5.39162
20
-2.90548
11
5.39936
21
-2.89967
0
LINE
8
BLACK
6
CONTINUOUS
10
5.39936
20
-2.89967
11
5.40794
21
-2.8952
0
LINE
8
BLACK
6
CONTINUOUS
10
5.40794
20
-2.8952
11
5.41714
21
-2.8922
0
LINE
8
BLACK
6
CONTINUOUS
10
5.41714
20
-2.8922
11
5.42671
21
-2.89073
0
LINE
8
BLACK
6
CONTINUOUS
10
5.42671
20
-2.89073
11
5.43638
21
-2.89085
0
LINE
8
BLACK
6
CONTINUOUS
10
5.04268
20
-2.89085
11
5.05221
21
-2.89255
0
LINE
8
BLACK
6
CONTINUOUS
10
5.05221
20
-2.89255
11
5.06133
21
-2.89578
0
LINE
8
BLACK
6
CONTINUOUS
10
5.06133
20
-2.89578
11
5.06981
21
-2.90046
0
LINE
8
BLACK
6
CONTINUOUS
10
5.06981
20
-2.90046
11
5.0774
21
-2.90646
0
LINE
8
BLACK
6
CONTINUOUS
10
5.0774
20
-2.90646
11
5.08391
21
-2.91361
0
LINE
8
BLACK
6
CONTINUOUS
10
5.08391
20
-2.91361
11
5.08917
21
-2.92174
0
LINE
8
BLACK
6
CONTINUOUS
10
5.08917
20
-2.92174
11
5.09303
21
-2.93061
0
LINE
8
BLACK
6
CONTINUOUS
10
5.09303
20
-2.93061
11
5.09539
21
-2.94
0
LINE
8
BLACK
6
CONTINUOUS
10
5.09539
20
-2.94
11
5.09618
21
-2.94965
0
LINE
8
BLACK
6
CONTINUOUS
10
5.09618
20
-2.94965
11
5.09611
21
-2.95253
0
LINE
8
BLACK
6
CONTINUOUS
10
5.09611
20
-2.95253
11
5.09485
21
-2.96213
0
LINE
8
BLACK
6
CONTINUOUS
10
5.09485
20
-2.96213
11
5.09203
21
-2.97139
0
LINE
8
BLACK
6
CONTINUOUS
10
5.09203
20
-2.97139
11
5.08775
21
-2.98006
0
LINE
8
BLACK
6
CONTINUOUS
10
5.08775
20
-2.98006
11
5.0821
21
-2.98792
0
LINE
8
BLACK
6
CONTINUOUS
10
5.0821
20
-2.98792
11
5.07524
21
-2.99475
0
LINE
8
BLACK
6
CONTINUOUS
10
5.07524
20
-2.99475
11
5.06736
21
-3.00037
0
LINE
8
BLACK
6
CONTINUOUS
10
5.06736
20
-3.00037
11
5.05867
21
-3.00463
0
LINE
8
BLACK
6
CONTINUOUS
10
5.05867
20
-3.00463
11
5.0494
21
-3.00741
0
LINE
8
BLACK
6
CONTINUOUS
10
5.0494
20
-3.00741
11
5.0398
21
-3.00864
0
LINE
8
BLACK
6
CONTINUOUS
10
5.0398
20
-3.00864
11
5.03013
21
-3.00829
0
LINE
8
BLACK
6
CONTINUOUS
10
5.03013
20
-3.00829
11
5.02065
21
-3.00636
0
LINE
8
BLACK
6
CONTINUOUS
10
5.02065
20
-3.00636
11
5.01161
21
-3.0029
0
LINE
8
BLACK
6
CONTINUOUS
10
5.01161
20
-3.0029
11
5.00325
21
-2.99802
0
LINE
8
BLACK
6
CONTINUOUS
10
5.00325
20
-2.99802
11
4.99581
21
-2.99184
0
LINE
8
BLACK
6
CONTINUOUS
10
4.99581
20
-2.99184
11
4.98947
21
-2.98452
0
LINE
8
BLACK
6
CONTINUOUS
10
4.98947
20
-2.98452
11
4.98441
21
-2.97627
0
LINE
8
BLACK
6
CONTINUOUS
10
4.98441
20
-2.97627
11
4.98077
21
-2.96731
0
LINE
8
BLACK
6
CONTINUOUS
10
4.98077
20
-2.96731
11
4.97865
21
-2.95786
0
LINE
8
BLACK
6
CONTINUOUS
10
4.97865
20
-2.95786
11
4.97809
21
-2.9482
0
LINE
8
BLACK
6
CONTINUOUS
10
4.97809
20
-2.9482
11
4.97912
21
-2.93858
0
LINE
8
BLACK
6
CONTINUOUS
10
4.97912
20
-2.93858
11
4.9817
21
-2.92925
0
LINE
8
BLACK
6
CONTINUOUS
10
4.9817
20
-2.92925
11
4.98578
21
-2.92048
0
LINE
8
BLACK
6
CONTINUOUS
10
4.98578
20
-2.92048
11
4.99123
21
-2.91248
0
LINE
8
BLACK
6
CONTINUOUS
10
4.99123
20
-2.91248
11
4.99792
21
-2.90548
0
LINE
8
BLACK
6
CONTINUOUS
10
4.99792
20
-2.90548
11
5.00566
21
-2.89967
0
LINE
8
BLACK
6
CONTINUOUS
10
5.00566
20
-2.89967
11
5.01424
21
-2.8952
0
LINE
8
BLACK
6
CONTINUOUS
10
5.01424
20
-2.8952
11
5.02344
21
-2.8922
0
LINE
8
BLACK
6
CONTINUOUS
10
5.02344
20
-2.8922
11
5.03301
21
-2.89073
0
LINE
8
BLACK
6
CONTINUOUS
10
5.03301
20
-2.89073
11
5.04268
21
-2.89085
  0
ENDSEC
  0
EOF
