  0
SECTION
  2
HEADER
  9
$ANGBASE
  50
0.0
  9
$ANGDIR
  70
1
  9
$MEASUREMENT
  70
0
  0
ENDSEC
  0
SECTION
  2
TABLES
  0
TABLE
  2
LTYPE
  70
4
  0
LTYPE
  5
40F
  2
CONTINUOUS
  70
0
  3
Solid line
  72
65
  73
0
  40
0.0
  0
LTYPE
  5
410
  2
DASHDOT
 70
0
  3
Dash Dot ____ _ ____ _
 72
65
 73
4
 40
2.0
 49
1.25
 49
-0.25
 49
0.25
 49
-0.25
  0
LTYPE
  5
411
  2
DASHED
 70
0
  3
Dashed __ __ __ __ __
 72
65
 73
2
 40
0.75
 49
0.5
 49
-0.25
  0
LTYPE
  5
43B
  2
DOTTED
 70
0
  3
Dotted .  .  .  .
 72
65
 73
2
 40
0.2
 49
0.0
 49
-0.2
  0
ENDTAB
  0
TABLE
  2
STYLE
  70
4
  0
STYLE
  2
KICAD
  70
0
  40
0
  41
1
  42
1
  50
0
  71
0
  3
isocp.shx
  0
STYLE
  2
KICADB
  70
0
  40
0
  41
1
  42
1
  50
0
  71
0
  3
isocp.shx
  0
STYLE
  2
KICADI
  70
0
  40
0
  41
1
  42
1
  50
15
  71
0
  3
isocp.shx
  0
STYLE
  2
KICADBI
  70
0
  40
0
  41
1
  42
1
  50
15
  71
0
  3
isocp.shx
  0
ENDTAB
  0
TABLE
  2
LAYER
  70
1
  0
LAYER
  2
BLACK
  70
0
  62
7
  6
CONTINUOUS
  0
ENDTAB
  0
ENDSEC
  0
SECTION
  2
ENTITIES
0
LINE
8
BLACK
6
CONTINUOUS
10
6.9090233858267718
20
-3.692002598425197
11
6.9091732283464564
21
-3.6927559055118109
0
LINE
8
BLACK
6
CONTINUOUS
10
6.9091732283464564
20
-3.6927559055118109
11
6.9091732283464564
21
-3.9781889763779525
0
LINE
8
BLACK
6
CONTINUOUS
10
6.9091732283464564
20
-3.9781889763779525
11
6.9090233858267718
21
-3.9789422834645669
0
LINE
8
BLACK
6
CONTINUOUS
10
6.9090233858267718
20
-3.9789422834645669
11
6.9079580314960625
21
-3.9800076377952753
0
LINE
8
BLACK
6
CONTINUOUS
10
6.9079580314960625
20
-3.9800076377952753
11
6.9064514173228346
21
-3.9800076377952753
0
LINE
8
BLACK
6
CONTINUOUS
10
6.9064514173228346
20
-3.9800076377952753
11
6.9053860629921262
21
-3.9789422834645669
0
LINE
8
BLACK
6
CONTINUOUS
10
6.9053860629921262
20
-3.9789422834645669
11
6.9052362204724407
21
-3.9781889763779525
0
LINE
8
BLACK
6
CONTINUOUS
10
6.9052362204724407
20
-3.9781889763779525
11
6.9052362204724407
21
-3.6927559055118109
0
LINE
8
BLACK
6
CONTINUOUS
10
6.9052362204724407
20
-3.6927559055118109
11
6.9053860629921262
21
-3.692002598425197
0
LINE
8
BLACK
6
CONTINUOUS
10
6.9053860629921262
20
-3.692002598425197
11
6.9064514173228346
21
-3.6909372440944881
0
LINE
8
BLACK
6
CONTINUOUS
10
6.9064514173228346
20
-3.6909372440944881
11
6.9079580314960625
21
-3.6909372440944881
0
LINE
8
BLACK
6
CONTINUOUS
10
6.9079580314960625
20
-3.6909372440944881
11
6.9090233858267718
21
-3.692002598425197
0
LINE
8
BLACK
6
CONTINUOUS
10
6.842902913385827
20
-3.8789222834645667
11
6.8429285826771649
21
-3.87891374015748
0
LINE
8
BLACK
6
CONTINUOUS
10
6.8429285826771649
20
-3.87891374015748
11
6.8431110629921257
21
-3.8789637007874016
0
LINE
8
BLACK
6
CONTINUOUS
10
6.8431110629921257
20
-3.8789637007874016
11
6.8432968897637796
21
-3.8790006692913384
0
LINE
8
BLACK
6
CONTINUOUS
10
6.8432968897637796
20
-3.8790006692913384
11
6.8433160236220472
21
-3.8790198031496064
0
LINE
8
BLACK
6
CONTINUOUS
10
6.8433160236220472
20
-3.8790198031496064
11
6.843373070866142
21
-3.8790354330708658
0
LINE
8
BLACK
6
CONTINUOUS
10
6.843373070866142
20
-3.8790354330708658
11
6.8448729527559058
21
-3.8797853543307084
0
LINE
8
BLACK
6
CONTINUOUS
10
6.8448729527559058
20
-3.8797853543307084
11
6.8450226771653542
21
-3.8799015748031493
0
LINE
8
BLACK
6
CONTINUOUS
10
6.8450226771653542
20
-3.8799015748031493
11
6.8451798818897638
21
-3.8800066141732281
0
LINE
8
BLACK
6
CONTINUOUS
10
6.8451798818897638
20
-3.8800066141732281
11
6.8459298031496063
21
-3.8807564960629919
0
LINE
8
BLACK
6
CONTINUOUS
10
6.8459298031496063
20
-3.8807564960629919
11
6.8460350393700784
21
-3.8809140157480315
0
LINE
8
BLACK
6
CONTINUOUS
10
6.8460350393700784
20
-3.8809140157480315
11
6.8461510236220473
21
-3.8810634251968503
0
LINE
8
BLACK
6
CONTINUOUS
10
6.8461510236220473
20
-3.8810634251968503
11
6.8469009448818898
21
-3.8825632677165354
0
LINE
8
BLACK
6
CONTINUOUS
10
6.8469009448818898
20
-3.8825632677165354
11
6.8469165354330705
21
-3.882620275590551
0
LINE
8
BLACK
6
CONTINUOUS
10
6.8469165354330705
20
-3.882620275590551
11
6.8469357086614169
21
-3.8826394488188973
0
LINE
8
BLACK
6
CONTINUOUS
10
6.8469357086614169
20
-3.8826394488188973
11
6.8469725984251966
21
-3.8828249212598425
0
LINE
8
BLACK
6
CONTINUOUS
10
6.8469725984251966
20
-3.8828249212598425
11
6.847022677165354
21
-3.8830077559055116
0
LINE
8
BLACK
6
CONTINUOUS
10
6.847022677165354
20
-3.8830077559055116
11
6.8470140944881885
21
-3.8830334645669291
0
LINE
8
BLACK
6
CONTINUOUS
10
6.8470140944881885
20
-3.8830334645669291
11
6.8470256299212595
21
-3.8830914566929131
0
LINE
8
BLACK
6
CONTINUOUS
10
6.8470256299212595
20
-3.8830914566929131
11
6.8470256299212595
21
-3.8879096062992127
0
LINE
8
BLACK
6
CONTINUOUS
10
6.8470256299212595
20
-3.8879096062992127
11
6.8533435826771649
21
-3.8879096062992127
0
LINE
8
BLACK
6
CONTINUOUS
10
6.8533435826771649
20
-3.8879096062992127
11
6.8537955905511811
21
-3.8879995275590549
0
LINE
8
BLACK
6
CONTINUOUS
10
6.8537955905511811
20
-3.8879995275590549
11
6.8544347637795271
21
-3.8886387007874017
0
LINE
8
BLACK
6
CONTINUOUS
10
6.8544347637795271
20
-3.8886387007874017
11
6.8544347637795271
21
-3.8895427165354328
0
LINE
8
BLACK
6
CONTINUOUS
10
6.8544347637795271
20
-3.8895427165354328
11
6.8537955905511811
21
-3.8901818897637797
0
LINE
8
BLACK
6
CONTINUOUS
10
6.8537955905511811
20
-3.8901818897637797
11
6.8533435826771649
21
-3.8902718110236219
0
LINE
8
BLACK
6
CONTINUOUS
10
6.8533435826771649
20
-3.8902718110236219
11
6.837595551181102
21
-3.8902718110236219
0
LINE
8
BLACK
6
CONTINUOUS
10
6.837595551181102
20
-3.8902718110236219
11
6.8371435433070866
21
-3.8901818897637797
0
LINE
8
BLACK
6
CONTINUOUS
10
6.8371435433070866
20
-3.8901818897637797
11
6.8365043700787398
21
-3.8895427165354328
0
LINE
8
BLACK
6
CONTINUOUS
10
6.8365043700787398
20
-3.8895427165354328
11
6.8364144488188971
21
-3.889090708661417
0
LINE
8
BLACK
6
CONTINUOUS
10
6.8364144488188971
20
-3.889090708661417
11
6.8364144488188971
21
-3.8830914566929131
0
LINE
8
BLACK
6
CONTINUOUS
10
6.8364144488188971
20
-3.8830914566929131
11
6.8364259842519681
21
-3.8830333858267716
0
LINE
8
BLACK
6
CONTINUOUS
10
6.8364259842519681
20
-3.8830333858267716
11
6.8364174409448815
21
-3.8830077559055116
0
LINE
8
BLACK
6
CONTINUOUS
10
6.8364174409448815
20
-3.8830077559055116
11
6.8364674015748026
21
-3.8828251968503937
0
LINE
8
BLACK
6
CONTINUOUS
10
6.8364674015748026
20
-3.8828251968503937
11
6.8365043700787398
21
-3.8826394488188973
0
LINE
8
BLACK
6
CONTINUOUS
10
6.8365043700787398
20
-3.8826394488188973
11
6.8365235039370074
21
-3.882620275590551
0
LINE
8
BLACK
6
CONTINUOUS
10
6.8365235039370074
20
-3.882620275590551
11
6.8365391338582677
21
-3.8825632283464566
0
LINE
8
BLACK
6
CONTINUOUS
10
6.8365391338582677
20
-3.8825632283464566
11
6.8372890551181102
21
-3.8810634251968503
0
LINE
8
BLACK
6
CONTINUOUS
10
6.8372890551181102
20
-3.8810634251968503
11
6.8374052755905508
21
-3.8809136614173227
0
LINE
8
BLACK
6
CONTINUOUS
10
6.8374052755905508
20
-3.8809136614173227
11
6.83751031496063
21
-3.8807564960629919
0
LINE
8
BLACK
6
CONTINUOUS
10
6.83751031496063
20
-3.8807564960629919
11
6.8382601968503938
21
-3.8800065748031494
0
LINE
8
BLACK
6
CONTINUOUS
10
6.8382601968503938
20
-3.8800065748031494
11
6.8384179133858263
21
-3.8799011811023623
0
LINE
8
BLACK
6
CONTINUOUS
10
6.8384179133858263
20
-3.8799011811023623
11
6.8385671653543305
21
-3.8797853543307084
0
LINE
8
BLACK
6
CONTINUOUS
10
6.8385671653543305
20
-3.8797853543307084
11
6.8400670078740156
21
-3.8790354330708658
0
LINE
8
BLACK
6
CONTINUOUS
10
6.8400670078740156
20
-3.8790354330708658
11
6.8401240157480316
21
-3.8790198031496064
0
LINE
8
BLACK
6
CONTINUOUS
10
6.8401240157480316
20
-3.8790198031496064
11
6.840143188976378
21
-3.8790006692913384
0
LINE
8
BLACK
6
CONTINUOUS
10
6.840143188976378
20
-3.8790006692913384
11
6.8403286614173231
21
-3.8789637401574804
0
LINE
8
BLACK
6
CONTINUOUS
10
6.8403286614173231
20
-3.8789637401574804
11
6.8405114960629918
21
-3.8789137007874013
0
LINE
8
BLACK
6
CONTINUOUS
10
6.8405114960629918
20
-3.8789137007874013
11
6.8405372047244093
21
-3.8789222440944879
0
LINE
8
BLACK
6
CONTINUOUS
10
6.8405372047244093
20
-3.8789222440944879
11
6.8405951968503933
21
-3.8789107480314962
0
LINE
8
BLACK
6
CONTINUOUS
10
6.8405951968503933
20
-3.8789107480314962
11
6.8428448818897634
21
-3.8789107480314962
0
LINE
8
BLACK
6
CONTINUOUS
10
6.8428448818897634
20
-3.8789107480314962
11
6.842902913385827
21
-3.8789222834645667
0
LINE
8
BLACK
6
CONTINUOUS
10
6.8397949999999996
20
-3.881812440944882
11
6.839316141732283
21
-3.8822912598425194
0
LINE
8
BLACK
6
CONTINUOUS
10
6.839316141732283
20
-3.8822912598425194
11
6.8387766535433068
21
-3.8833703149606298
0
LINE
8
BLACK
6
CONTINUOUS
10
6.8387766535433068
20
-3.8833703149606298
11
6.8387766535433068
21
-3.8879096062992127
0
LINE
8
BLACK
6
CONTINUOUS
10
6.8387766535433068
20
-3.8879096062992127
11
6.8446634251968499
21
-3.8879096062992127
0
LINE
8
BLACK
6
CONTINUOUS
10
6.8446634251968499
20
-3.8879096062992127
11
6.8446634251968499
21
-3.8833703149606298
0
LINE
8
BLACK
6
CONTINUOUS
10
6.8446634251968499
20
-3.8833703149606298
11
6.8441238582677162
21
-3.8822912598425194
0
LINE
8
BLACK
6
CONTINUOUS
10
6.8441238582677162
20
-3.8822912598425194
11
6.843645078740157
21
-3.881812440944882
0
LINE
8
BLACK
6
CONTINUOUS
10
6.843645078740157
20
-3.881812440944882
11
6.8425660629921259
21
-3.8812729527559053
0
LINE
8
BLACK
6
CONTINUOUS
10
6.8425660629921259
20
-3.8812729527559053
11
6.8408740551181104
21
-3.8812729527559053
0
LINE
8
BLACK
6
CONTINUOUS
10
6.8408740551181104
20
-3.8812729527559053
11
6.8397949999999996
21
-3.881812440944882
0
LINE
8
BLACK
6
CONTINUOUS
10
6.8401865354330704
20
-3.8638918503937005
11
6.8401865748031492
21
-3.8647957480314958
0
LINE
8
BLACK
6
CONTINUOUS
10
6.8401865748031492
20
-3.8647957480314958
11
6.8399305511811024
21
-3.8651789763779525
0
LINE
8
BLACK
6
CONTINUOUS
10
6.8399305511811024
20
-3.8651789763779525
11
6.8393777559055113
21
-3.8657317716535431
0
LINE
8
BLACK
6
CONTINUOUS
10
6.8393777559055113
20
-3.8657317716535431
11
6.8387766535433068
21
-3.8675350393700785
0
LINE
8
BLACK
6
CONTINUOUS
10
6.8387766535433068
20
-3.8675350393700785
11
6.8387766535433068
21
-3.8686516141732281
0
LINE
8
BLACK
6
CONTINUOUS
10
6.8387766535433068
20
-3.8686516141732281
11
6.8393777559055113
21
-3.870454960629921
0
LINE
8
BLACK
6
CONTINUOUS
10
6.8393777559055113
20
-3.870454960629921
11
6.8405449212598421
21
-3.8716220866141731
0
LINE
8
BLACK
6
CONTINUOUS
10
6.8405449212598421
20
-3.8716220866141731
11
6.8417573228346455
21
-3.8722282677165354
0
LINE
8
BLACK
6
CONTINUOUS
10
6.8417573228346455
20
-3.8722282677165354
11
6.844490078740157
21
-3.8729114960629922
0
LINE
8
BLACK
6
CONTINUOUS
10
6.844490078740157
20
-3.8729114960629922
11
6.8464490944881886
21
-3.8729114960629922
0
LINE
8
BLACK
6
CONTINUOUS
10
6.8464490944881886
20
-3.8729114960629922
11
6.8491817716535435
21
-3.8722283070866141
0
LINE
8
BLACK
6
CONTINUOUS
10
6.8491817716535435
20
-3.8722283070866141
11
6.8503942519685035
21
-3.8716220472440943
0
LINE
8
BLACK
6
CONTINUOUS
10
6.8503942519685035
20
-3.8716220472440943
11
6.851561299212598
21
-3.8704549999999998
0
LINE
8
BLACK
6
CONTINUOUS
10
6.851561299212598
20
-3.8704549999999998
11
6.8521624803149601
21
-3.8686515354330706
0
LINE
8
BLACK
6
CONTINUOUS
10
6.8521624803149601
20
-3.8686515354330706
11
6.8521624803149601
21
-3.867535118110236
0
LINE
8
BLACK
6
CONTINUOUS
10
6.8521624803149601
20
-3.867535118110236
11
6.851561299212598
21
-3.8657316535433068
0
LINE
8
BLACK
6
CONTINUOUS
10
6.851561299212598
20
-3.8657316535433068
11
6.8510086220472441
21
-3.8651789763779525
0
LINE
8
BLACK
6
CONTINUOUS
10
6.8510086220472441
20
-3.8651789763779525
11
6.8507525984251965
21
-3.8647957874015746
0
LINE
8
BLACK
6
CONTINUOUS
10
6.8507525984251965
20
-3.8647957874015746
11
6.8507525984251965
21
-3.8638918503937005
0
LINE
8
BLACK
6
CONTINUOUS
10
6.8507525984251965
20
-3.8638918503937005
11
6.851391811023622
21
-3.8632526377952754
0
LINE
8
BLACK
6
CONTINUOUS
10
6.851391811023622
20
-3.8632526377952754
11
6.8522957480314961
21
-3.8632526377952754
0
LINE
8
BLACK
6
CONTINUOUS
10
6.8522957480314961
20
-3.8632526377952754
11
6.852678937007874
21
-3.8635086614173226
0
LINE
8
BLACK
6
CONTINUOUS
10
6.852678937007874
20
-3.8635086614173226
11
6.8534288582677165
21
-3.8642585826771652
0
LINE
8
BLACK
6
CONTINUOUS
10
6.8534288582677165
20
-3.8642585826771652
11
6.8534616929133856
21
-3.8643077559055117
0
LINE
8
BLACK
6
CONTINUOUS
10
6.8534616929133856
20
-3.8643077559055117
11
6.8534859448818892
21
-3.8643198818897635
0
LINE
8
BLACK
6
CONTINUOUS
10
6.8534859448818892
20
-3.8643198818897635
11
6.8535796456692912
21
-3.8644842519685039
0
LINE
8
BLACK
6
CONTINUOUS
10
6.8535796456692912
20
-3.8644842519685039
11
6.8536849212598421
21
-3.8646417716535431
0
LINE
8
BLACK
6
CONTINUOUS
10
6.8536849212598421
20
-3.8646417716535431
11
6.8536849212598421
21
-3.8646688582677164
0
LINE
8
BLACK
6
CONTINUOUS
10
6.8536849212598421
20
-3.8646688582677164
11
6.8537142125984252
21
-3.8647202362204722
0
LINE
8
BLACK
6
CONTINUOUS
10
6.8537142125984252
20
-3.8647202362204722
11
6.8544640944881889
21
-3.8669699212598423
0
LINE
8
BLACK
6
CONTINUOUS
10
6.8544640944881889
20
-3.8669699212598423
11
6.8544877559055113
21
-3.8671577952755904
0
LINE
8
BLACK
6
CONTINUOUS
10
6.8544877559055113
20
-3.8671577952755904
11
6.8545246850393697
21
-3.8673434251968501
0
LINE
8
BLACK
6
CONTINUOUS
10
6.8545246850393697
20
-3.8673434251968501
11
6.8545246850393697
21
-3.8688432677165352
0
LINE
8
BLACK
6
CONTINUOUS
10
6.8545246850393697
20
-3.8688432677165352
11
6.8544877165354325
21
-3.8690288976377953
0
LINE
8
BLACK
6
CONTINUOUS
10
6.8544877165354325
20
-3.8690288976377953
11
6.8544640944881889
21
-3.8692167322834643
0
LINE
8
BLACK
6
CONTINUOUS
10
6.8544640944881889
20
-3.8692167322834643
11
6.8537142125984252
21
-3.8714664960629919
0
LINE
8
BLACK
6
CONTINUOUS
10
6.8537142125984252
20
-3.8714664960629919
11
6.8536848818897633
21
-3.8715179133858268
0
LINE
8
BLACK
6
CONTINUOUS
10
6.8536848818897633
20
-3.8715179133858268
11
6.8536848818897633
21
-3.871544960629921
0
LINE
8
BLACK
6
CONTINUOUS
10
6.8536848818897633
20
-3.871544960629921
11
6.8535797244094487
21
-3.8717023228346457
0
LINE
8
BLACK
6
CONTINUOUS
10
6.8535797244094487
20
-3.8717023228346457
11
6.8534859448818892
21
-3.8718668503937006
0
LINE
8
BLACK
6
CONTINUOUS
10
6.8534859448818892
20
-3.8718668503937006
11
6.8534617322834643
21
-3.8718789370078741
0
LINE
8
BLACK
6
CONTINUOUS
10
6.8534617322834643
20
-3.8718789370078741
11
6.8534288582677165
21
-3.8719281889763777
0
LINE
8
BLACK
6
CONTINUOUS
10
6.8534288582677165
20
-3.8719281889763777
11
6.8519290157480315
21
-3.8734279527559052
0
LINE
8
BLACK
6
CONTINUOUS
10
6.8519290157480315
20
-3.8734279527559052
11
6.8517715354330706
21
-3.873533149606299
0
LINE
8
BLACK
6
CONTINUOUS
10
6.8517715354330706
20
-3.873533149606299
11
6.8516220472440947
21
-3.873649212598425
0
LINE
8
BLACK
6
CONTINUOUS
10
6.8516220472440947
20
-3.873649212598425
11
6.8501222440944884
21
-3.8743990944881888
0
LINE
8
BLACK
6
CONTINUOUS
10
6.8501222440944884
20
-3.8743990944881888
11
6.8499974409448816
21
-3.8744332283464566
0
LINE
8
BLACK
6
CONTINUOUS
10
6.8499974409448816
20
-3.8744332283464566
11
6.8498805118110235
21
-3.8744885039370076
0
LINE
8
BLACK
6
CONTINUOUS
10
6.8498805118110235
20
-3.8744885039370076
11
6.8468809055118109
21
-3.8752384251968501
0
LINE
8
BLACK
6
CONTINUOUS
10
6.8468809055118109
20
-3.8752384251968501
11
6.8467364173228349
21
-3.8752454330708659
0
LINE
8
BLACK
6
CONTINUOUS
10
6.8467364173228349
20
-3.8752454330708659
11
6.8465944488188972
21
-3.8752737007874014
0
LINE
8
BLACK
6
CONTINUOUS
10
6.8465944488188972
20
-3.8752737007874014
11
6.8443447244094484
21
-3.8752737007874014
0
LINE
8
BLACK
6
CONTINUOUS
10
6.8443447244094484
20
-3.8752737007874014
11
6.8442027165354329
21
-3.8752454330708659
0
LINE
8
BLACK
6
CONTINUOUS
10
6.8442027165354329
20
-3.8752454330708659
11
6.8440582677165356
21
-3.8752384251968501
0
LINE
8
BLACK
6
CONTINUOUS
10
6.8440582677165356
20
-3.8752384251968501
11
6.8410586220472442
21
-3.8744885039370076
0
LINE
8
BLACK
6
CONTINUOUS
10
6.8410586220472442
20
-3.8744885039370076
11
6.8409416535433065
21
-3.8744332283464566
0
LINE
8
BLACK
6
CONTINUOUS
10
6.8409416535433065
20
-3.8744332283464566
11
6.8408168897637793
21
-3.8743990944881888
0
LINE
8
BLACK
6
CONTINUOUS
10
6.8408168897637793
20
-3.8743990944881888
11
6.839317086614173
21
-3.873649212598425
0
LINE
8
BLACK
6
CONTINUOUS
10
6.839317086614173
20
-3.873649212598425
11
6.8391674409448822
21
-3.8735330708661415
0
LINE
8
BLACK
6
CONTINUOUS
10
6.8391674409448822
20
-3.8735330708661415
11
6.8390100787401575
21
-3.8734279527559052
0
LINE
8
BLACK
6
CONTINUOUS
10
6.8390100787401575
20
-3.8734279527559052
11
6.83751031496063
21
-3.8719281496062989
0
LINE
8
BLACK
6
CONTINUOUS
10
6.83751031496063
20
-3.8719281496062989
11
6.8374774409448813
21
-3.8718789370078741
0
LINE
8
BLACK
6
CONTINUOUS
10
6.8374774409448813
20
-3.8718789370078741
11
6.8374532283464564
21
-3.8718668503937006
0
LINE
8
BLACK
6
CONTINUOUS
10
6.8374532283464564
20
-3.8718668503937006
11
6.8373594488188978
21
-3.8717023622047244
0
LINE
8
BLACK
6
CONTINUOUS
10
6.8373594488188978
20
-3.8717023622047244
11
6.8372542913385823
21
-3.871544960629921
0
LINE
8
BLACK
6
CONTINUOUS
10
6.8372542913385823
20
-3.871544960629921
11
6.8372542913385823
21
-3.8715178740157481
0
LINE
8
BLACK
6
CONTINUOUS
10
6.8372542913385823
20
-3.8715178740157481
11
6.8372250000000001
21
-3.8714664960629919
0
LINE
8
BLACK
6
CONTINUOUS
10
6.8372250000000001
20
-3.8714664960629919
11
6.8364750787401576
21
-3.8692167716535431
0
LINE
8
BLACK
6
CONTINUOUS
10
6.8364750787401576
20
-3.8692167716535431
11
6.8364514173228343
21
-3.8690291338582674
0
LINE
8
BLACK
6
CONTINUOUS
10
6.8364514173228343
20
-3.8690291338582674
11
6.8364144488188971
21
-3.8688432677165352
0
LINE
8
BLACK
6
CONTINUOUS
10
6.8364144488188971
20
-3.8688432677165352
11
6.8364144488188971
21
-3.8673434251968501
0
LINE
8
BLACK
6
CONTINUOUS
10
6.8364144488188971
20
-3.8673434251968501
11
6.8364514173228343
21
-3.8671575196850392
0
LINE
8
BLACK
6
CONTINUOUS
10
6.8364514173228343
20
-3.8671575196850392
11
6.8364750787401576
21
-3.8669699212598423
0
LINE
8
BLACK
6
CONTINUOUS
10
6.8364750787401576
20
-3.8669699212598423
11
6.8372250000000001
21
-3.8647202362204722
0
LINE
8
BLACK
6
CONTINUOUS
10
6.8372250000000001
20
-3.8647202362204722
11
6.8372542519685036
21
-3.8646688976377952
0
LINE
8
BLACK
6
CONTINUOUS
10
6.8372542519685036
20
-3.8646688976377952
11
6.8372542519685036
21
-3.8646418110236218
0
LINE
8
BLACK
6
CONTINUOUS
10
6.8372542519685036
20
-3.8646418110236218
11
6.8373596062992128
21
-3.8644840944881889
0
LINE
8
BLACK
6
CONTINUOUS
10
6.8373596062992128
20
-3.8644840944881889
11
6.8374532283464564
21
-3.8643198818897635
0
LINE
8
BLACK
6
CONTINUOUS
10
6.8374532283464564
20
-3.8643198818897635
11
6.8374773622047247
21
-3.8643077952755904
0
LINE
8
BLACK
6
CONTINUOUS
10
6.8374773622047247
20
-3.8643077952755904
11
6.8375102755905512
21
-3.8642585826771652
0
LINE
8
BLACK
6
CONTINUOUS
10
6.8375102755905512
20
-3.8642585826771652
11
6.838260157480315
21
-3.8635087007874014
0
LINE
8
BLACK
6
CONTINUOUS
10
6.838260157480315
20
-3.8635087007874014
11
6.8386433464566929
21
-3.8632526377952754
0
LINE
8
BLACK
6
CONTINUOUS
10
6.8386433464566929
20
-3.8632526377952754
11
6.839547283464567
21
-3.8632525984251966
0
LINE
8
BLACK
6
CONTINUOUS
10
6.839547283464567
20
-3.8632525984251966
11
6.8401865354330704
21
-3.8638918503937005
0
LINE
8
BLACK
6
CONTINUOUS
10
6.850402007874016
20
-3.8474262204724408
11
6.8504276771653538
21
-3.8474176771653541
0
LINE
8
BLACK
6
CONTINUOUS
10
6.8504276771653538
20
-3.8474176771653541
11
6.8506101968503934
21
-3.8474676377952757
0
LINE
8
BLACK
6
CONTINUOUS
10
6.8506101968503934
20
-3.8474676377952757
11
6.8507959842519686
21
-3.8475046062992124
0
LINE
8
BLACK
6
CONTINUOUS
10
6.8507959842519686
20
-3.8475046062992124
11
6.8508151181102361
21
-3.8475237401574804
0
LINE
8
BLACK
6
CONTINUOUS
10
6.8508151181102361
20
-3.8475237401574804
11
6.8508722047244097
21
-3.8475393700787399
0
LINE
8
BLACK
6
CONTINUOUS
10
6.8508722047244097
20
-3.8475393700787399
11
6.852372007874016
21
-3.8482892913385824
0
LINE
8
BLACK
6
CONTINUOUS
10
6.852372007874016
20
-3.8482892913385824
11
6.8525214566929131
21
-3.8484053149606297
0
LINE
8
BLACK
6
CONTINUOUS
10
6.8525214566929131
20
-3.8484053149606297
11
6.852678937007874
21
-3.8485105118110234
0
LINE
8
BLACK
6
CONTINUOUS
10
6.852678937007874
20
-3.8485105118110234
11
6.8534288188976378
21
-3.8492603937007872
0
LINE
8
BLACK
6
CONTINUOUS
10
6.8534288188976378
20
-3.8492603937007872
11
6.8535338976377949
21
-3.8494176377952756
0
LINE
8
BLACK
6
CONTINUOUS
10
6.8535338976377949
20
-3.8494176377952756
11
6.8536501181102363
21
-3.8495674015748031
0
LINE
8
BLACK
6
CONTINUOUS
10
6.8536501181102363
20
-3.8495674015748031
11
6.8544
21
-3.8510672047244094
0
LINE
8
BLACK
6
CONTINUOUS
10
6.8544
20
-3.8510672047244094
11
6.8544155905511808
21
-3.8511242125984251
0
LINE
8
BLACK
6
CONTINUOUS
10
6.8544155905511808
20
-3.8511242125984251
11
6.8544347637795271
21
-3.8511433858267714
0
LINE
8
BLACK
6
CONTINUOUS
10
6.8544347637795271
20
-3.8511433858267714
11
6.8544716929133855
21
-3.8513291732283466
0
LINE
8
BLACK
6
CONTINUOUS
10
6.8544716929133855
20
-3.8513291732283466
11
6.8545216929133854
21
-3.8515116929133857
0
LINE
8
BLACK
6
CONTINUOUS
10
6.8545216929133854
20
-3.8515116929133857
11
6.85451311023622
21
-3.8515373228346457
0
LINE
8
BLACK
6
CONTINUOUS
10
6.85451311023622
20
-3.8515373228346457
11
6.8545246850393697
21
-3.8515953937007872
0
LINE
8
BLACK
6
CONTINUOUS
10
6.8545246850393697
20
-3.8515953937007872
11
6.8545246850393697
21
-3.8575946456692911
0
LINE
8
BLACK
6
CONTINUOUS
10
6.8545246850393697
20
-3.8575946456692911
11
6.8544347637795271
21
-3.8580466535433069
0
LINE
8
BLACK
6
CONTINUOUS
10
6.8544347637795271
20
-3.8580466535433069
11
6.8537955905511811
21
-3.8586858267716533
0
LINE
8
BLACK
6
CONTINUOUS
10
6.8537955905511811
20
-3.8586858267716533
11
6.8533435826771649
21
-3.8587757480314959
0
LINE
8
BLACK
6
CONTINUOUS
10
6.8533435826771649
20
-3.8587757480314959
11
6.837595551181102
21
-3.8587757480314959
0
LINE
8
BLACK
6
CONTINUOUS
10
6.837595551181102
20
-3.8587757480314959
11
6.8371435433070866
21
-3.8586858267716533
0
LINE
8
BLACK
6
CONTINUOUS
10
6.8371435433070866
20
-3.8586858267716533
11
6.8365043700787398
21
-3.8580466535433069
0
LINE
8
BLACK
6
CONTINUOUS
10
6.8365043700787398
20
-3.8580466535433069
11
6.8364144488188971
21
-3.8575946456692911
0
LINE
8
BLACK
6
CONTINUOUS
10
6.8364144488188971
20
-3.8575946456692911
11
6.8364144488188971
21
-3.8523453149606297
0
LINE
8
BLACK
6
CONTINUOUS
10
6.8364144488188971
20
-3.8523453149606297
11
6.8364259842519681
21
-3.8522872440944882
0
LINE
8
BLACK
6
CONTINUOUS
10
6.8364259842519681
20
-3.8522872440944882
11
6.8364174409448815
21
-3.8522616141732282
0
LINE
8
BLACK
6
CONTINUOUS
10
6.8364174409448815
20
-3.8522616141732282
11
6.8364674015748026
21
-3.8520790551181103
0
LINE
8
BLACK
6
CONTINUOUS
10
6.8364674015748026
20
-3.8520790551181103
11
6.8365043700787398
21
-3.8518933070866139
0
LINE
8
BLACK
6
CONTINUOUS
10
6.8365043700787398
20
-3.8518933070866139
11
6.8365235039370074
21
-3.8518741338582676
0
LINE
8
BLACK
6
CONTINUOUS
10
6.8365235039370074
20
-3.8518741338582676
11
6.8365391338582677
21
-3.8518170866141732
0
LINE
8
BLACK
6
CONTINUOUS
10
6.8365391338582677
20
-3.8518170866141732
11
6.8372890551181102
21
-3.8503172834645669
0
LINE
8
BLACK
6
CONTINUOUS
10
6.8372890551181102
20
-3.8503172834645669
11
6.837405078740157
21
-3.8501677952755906
0
LINE
8
BLACK
6
CONTINUOUS
10
6.837405078740157
20
-3.8501677952755906
11
6.8375102755905512
21
-3.8500103543307085
0
LINE
8
BLACK
6
CONTINUOUS
10
6.8375102755905512
20
-3.8500103543307085
11
6.838260157480315
21
-3.8492604724409447
0
LINE
8
BLACK
6
CONTINUOUS
10
6.838260157480315
20
-3.8492604724409447
11
6.8384175196850396
21
-3.8491552755905509
0
LINE
8
BLACK
6
CONTINUOUS
10
6.8384175196850396
20
-3.8491552755905509
11
6.8385671653543305
21
-3.8490391732283462
0
LINE
8
BLACK
6
CONTINUOUS
10
6.8385671653543305
20
-3.8490391732283462
11
6.8400670078740156
21
-3.8482892913385824
0
LINE
8
BLACK
6
CONTINUOUS
10
6.8400670078740156
20
-3.8482892913385824
11
6.8401240157480316
21
-3.848273661417323
0
LINE
8
BLACK
6
CONTINUOUS
10
6.8401240157480316
20
-3.848273661417323
11
6.840143188976378
21
-3.8482545275590549
0
LINE
8
BLACK
6
CONTINUOUS
10
6.840143188976378
20
-3.8482545275590549
11
6.8403289763779522
21
-3.8482175590551182
0
LINE
8
BLACK
6
CONTINUOUS
10
6.8403289763779522
20
-3.8482175590551182
11
6.8405114960629918
21
-3.8481675984251966
0
LINE
8
BLACK
6
CONTINUOUS
10
6.8405114960629918
20
-3.8481675984251966
11
6.8405371259842518
21
-3.8481761417322833
0
LINE
8
BLACK
6
CONTINUOUS
10
6.8405371259842518
20
-3.8481761417322833
11
6.8405951968503933
21
-3.8481646062992123
0
LINE
8
BLACK
6
CONTINUOUS
10
6.8405951968503933
20
-3.8481646062992123
11
6.8420949999999996
21
-3.8481646062992123
0
LINE
8
BLACK
6
CONTINUOUS
10
6.8420949999999996
20
-3.8481646062992123
11
6.8421530314960632
21
-3.8481761417322833
0
LINE
8
BLACK
6
CONTINUOUS
10
6.8421530314960632
20
-3.8481761417322833
11
6.8421787007874011
21
-3.8481675984251966
0
LINE
8
BLACK
6
CONTINUOUS
10
6.8421787007874011
20
-3.8481675984251966
11
6.8423611811023619
21
-3.8482175590551182
0
LINE
8
BLACK
6
CONTINUOUS
10
6.8423611811023619
20
-3.8482175590551182
11
6.8425470078740158
21
-3.8482545275590549
0
LINE
8
BLACK
6
CONTINUOUS
10
6.8425470078740158
20
-3.8482545275590549
11
6.8425661417322834
21
-3.848273661417323
0
LINE
8
BLACK
6
CONTINUOUS
10
6.8425661417322834
20
-3.848273661417323
11
6.8426231889763782
21
-3.8482892913385824
0
LINE
8
BLACK
6
CONTINUOUS
10
6.8426231889763782
20
-3.8482892913385824
11
6.8441229921259845
21
-3.8490391732283462
0
LINE
8
BLACK
6
CONTINUOUS
10
6.8441229921259845
20
-3.8490391732283462
11
6.8442725984251966
21
-3.8491553149606297
0
LINE
8
BLACK
6
CONTINUOUS
10
6.8442725984251966
20
-3.8491553149606297
11
6.8444299606299213
21
-3.849260433070866
0
LINE
8
BLACK
6
CONTINUOUS
10
6.8444299606299213
20
-3.849260433070866
11
6.844777283464567
21
-3.8496077559055117
0
LINE
8
BLACK
6
CONTINUOUS
10
6.844777283464567
20
-3.8496077559055117
11
6.844858661417323
21
-3.8494859055118109
0
LINE
8
BLACK
6
CONTINUOUS
10
6.844858661417323
20
-3.8494859055118109
11
6.8449522834645666
21
-3.8493217322834643
0
LINE
8
BLACK
6
CONTINUOUS
10
6.8449522834645666
20
-3.8493217322834643
11
6.8449764566929137
21
-3.8493096062992125
0
LINE
8
BLACK
6
CONTINUOUS
10
6.8449764566929137
20
-3.8493096062992125
11
6.8450093700787402
21
-3.8492603937007872
0
LINE
8
BLACK
6
CONTINUOUS
10
6.8450093700787402
20
-3.8492603937007872
11
6.8457592913385827
21
-3.8485105118110234
0
LINE
8
BLACK
6
CONTINUOUS
10
6.8457592913385827
20
-3.8485105118110234
11
6.845916732283464
21
-3.8484053149606297
0
LINE
8
BLACK
6
CONTINUOUS
10
6.845916732283464
20
-3.8484053149606297
11
6.8460662204724407
21
-3.8482892913385824
0
LINE
8
BLACK
6
CONTINUOUS
10
6.8460662204724407
20
-3.8482892913385824
11
6.8475660629921258
21
-3.8475393700787399
0
LINE
8
BLACK
6
CONTINUOUS
10
6.8475660629921258
20
-3.8475393700787399
11
6.8476230708661419
21
-3.8475237401574804
0
LINE
8
BLACK
6
CONTINUOUS
10
6.8476230708661419
20
-3.8475237401574804
11
6.8476422440944882
21
-3.8475046062992124
0
LINE
8
BLACK
6
CONTINUOUS
10
6.8476422440944882
20
-3.8475046062992124
11
6.8478277165354333
21
-3.8474676771653544
0
LINE
8
BLACK
6
CONTINUOUS
10
6.8478277165354333
20
-3.8474676771653544
11
6.848010551181102
21
-3.8474176377952753
0
LINE
8
BLACK
6
CONTINUOUS
10
6.848010551181102
20
-3.8474176377952753
11
6.8480362598425195
21
-3.847426181102362
0
LINE
8
BLACK
6
CONTINUOUS
10
6.8480362598425195
20
-3.847426181102362
11
6.8480942519685035
21
-3.8474146850393698
0
LINE
8
BLACK
6
CONTINUOUS
10
6.8480942519685035
20
-3.8474146850393698
11
6.8503439763779523
21
-3.8474146850393698
0
LINE
8
BLACK
6
CONTINUOUS
10
6.8503439763779523
20
-3.8474146850393698
11
6.850402007874016
21
-3.8474262204724408
0
LINE
8
BLACK
6
CONTINUOUS
10
6.8397950393700784
20
-3.8510662598425194
11
6.839316141732283
21
-3.8515451574803148
0
LINE
8
BLACK
6
CONTINUOUS
10
6.839316141732283
20
-3.8515451574803148
11
6.8387766535433068
21
-3.8526241732283464
0
LINE
8
BLACK
6
CONTINUOUS
10
6.8387766535433068
20
-3.8526241732283464
11
6.8387766535433068
21
-3.8564135433070867
0
LINE
8
BLACK
6
CONTINUOUS
10
6.8387766535433068
20
-3.8564135433070867
11
6.8439135039370074
21
-3.8564135433070867
0
LINE
8
BLACK
6
CONTINUOUS
10
6.8439135039370074
20
-3.8564135433070867
11
6.8439135039370074
21
-3.8526240944881889
0
LINE
8
BLACK
6
CONTINUOUS
10
6.8439135039370074
20
-3.8526240944881889
11
6.8433739763779524
21
-3.8515450787401573
0
LINE
8
BLACK
6
CONTINUOUS
10
6.8433739763779524
20
-3.8515450787401573
11
6.8428951968503933
21
-3.8510662992125981
0
LINE
8
BLACK
6
CONTINUOUS
10
6.8428951968503933
20
-3.8510662992125981
11
6.8418161811023621
21
-3.8505268110236219
0
LINE
8
BLACK
6
CONTINUOUS
10
6.8418161811023621
20
-3.8505268110236219
11
6.8408740157480317
21
-3.8505268110236219
0
LINE
8
BLACK
6
CONTINUOUS
10
6.8408740157480317
20
-3.8505268110236219
11
6.8397950393700784
21
-3.8510662598425194
0
LINE
8
BLACK
6
CONTINUOUS
10
6.8472940157480311
20
-3.8503164173228344
11
6.8468767716535428
21
-3.8507336614173227
0
LINE
8
BLACK
6
CONTINUOUS
10
6.8468767716535428
20
-3.8507336614173227
11
6.846275708661417
21
-3.852536929133858
0
LINE
8
BLACK
6
CONTINUOUS
10
6.846275708661417
20
-3.852536929133858
11
6.846275708661417
21
-3.8564135433070867
0
LINE
8
BLACK
6
CONTINUOUS
10
6.846275708661417
20
-3.8564135433070867
11
6.8521624803149601
21
-3.8564135433070867
0
LINE
8
BLACK
6
CONTINUOUS
10
6.8521624803149601
20
-3.8564135433070867
11
6.8521624803149601
21
-3.8518741732283464
0
LINE
8
BLACK
6
CONTINUOUS
10
6.8521624803149601
20
-3.8518741732283464
11
6.8516230314960627
21
-3.850795275590551
0
LINE
8
BLACK
6
CONTINUOUS
10
6.8516230314960627
20
-3.850795275590551
11
6.8511440944881885
21
-3.8503163779527556
0
LINE
8
BLACK
6
CONTINUOUS
10
6.8511440944881885
20
-3.8503163779527556
11
6.8500651181102361
21
-3.8497768897637794
0
LINE
8
BLACK
6
CONTINUOUS
10
6.8500651181102361
20
-3.8497768897637794
11
6.8483731102362206
21
-3.8497768897637794
0
LINE
8
BLACK
6
CONTINUOUS
10
6.8483731102362206
20
-3.8497768897637794
11
6.8472940157480311
21
-3.8503164173228344
0
LINE
8
BLACK
6
CONTINUOUS
10
6.8467657086614171
20
-3.8219519291338582
11
6.8468237007874011
21
-3.8219403543307084
0
LINE
8
BLACK
6
CONTINUOUS
10
6.8468237007874011
20
-3.8219403543307084
11
6.8468731102362206
21
-3.8219733070866142
0
LINE
8
BLACK
6
CONTINUOUS
10
6.8468731102362206
20
-3.8219733070866142
11
6.8470464566929135
21
-3.8220077952755904
0
LINE
8
BLACK
6
CONTINUOUS
10
6.8470464566929135
20
-3.8220077952755904
11
6.8472896062992126
21
-3.8222509448818895
0
LINE
8
BLACK
6
CONTINUOUS
10
6.8472896062992126
20
-3.8222509448818895
11
6.847575787401575
21
-3.8224417322834645
0
LINE
8
BLACK
6
CONTINUOUS
10
6.847575787401575
20
-3.8224417322834645
11
6.8476435433070861
21
-3.8226048818897636
0
LINE
8
BLACK
6
CONTINUOUS
10
6.8476435433070861
20
-3.8226048818897636
11
6.8476856299212594
21
-3.8226469685039368
0
LINE
8
BLACK
6
CONTINUOUS
10
6.8476856299212594
20
-3.8226469685039368
11
6.8476856299212594
21
-3.8227061417322834
0
LINE
8
BLACK
6
CONTINUOUS
10
6.8476856299212594
20
-3.8227061417322834
11
6.8477525984251963
21
-3.8228673622047245
0
LINE
8
BLACK
6
CONTINUOUS
10
6.8477525984251963
20
-3.8228673622047245
11
6.849062519685039
21
-3.829416929133858
0
LINE
8
BLACK
6
CONTINUOUS
10
6.849062519685039
20
-3.829416929133858
11
6.8508150393700786
21
-3.829416929133858
0
LINE
8
BLACK
6
CONTINUOUS
10
6.8508150393700786
20
-3.829416929133858
11
6.8517133464566928
21
-3.8289677559055115
0
LINE
8
BLACK
6
CONTINUOUS
10
6.8517133464566928
20
-3.8289677559055115
11
6.8521624803149601
21
-3.8280694881889761
0
LINE
8
BLACK
6
CONTINUOUS
10
6.8521624803149601
20
-3.8280694881889761
11
6.8521624803149601
21
-3.8256274803149606
0
LINE
8
BLACK
6
CONTINUOUS
10
6.8521624803149601
20
-3.8256274803149606
11
6.8515372834645669
21
-3.8243770472440946
0
LINE
8
BLACK
6
CONTINUOUS
10
6.8515372834645669
20
-3.8243770472440946
11
6.8514155905511807
21
-3.8239325196850391
0
LINE
8
BLACK
6
CONTINUOUS
10
6.8514155905511807
20
-3.8239325196850391
11
6.8517014566929131
21
-3.8230749999999998
0
LINE
8
BLACK
6
CONTINUOUS
10
6.8517014566929131
20
-3.8230749999999998
11
6.8525100393700784
21
-3.8226707480314959
0
LINE
8
BLACK
6
CONTINUOUS
10
6.8525100393700784
20
-3.8226707480314959
11
6.8533675590551182
21
-3.8229566141732283
0
LINE
8
BLACK
6
CONTINUOUS
10
6.8533675590551182
20
-3.8229566141732283
11
6.8536501181102363
21
-3.8233206692913386
0
LINE
8
BLACK
6
CONTINUOUS
10
6.8536501181102363
20
-3.8233206692913386
11
6.8544
21
-3.8248205118110237
0
LINE
8
BLACK
6
CONTINUOUS
10
6.8544
20
-3.8248205118110237
11
6.8544155905511808
21
-3.8248775196850393
0
LINE
8
BLACK
6
CONTINUOUS
10
6.8544155905511808
20
-3.8248775196850393
11
6.8544347637795271
21
-3.8248966929133856
0
LINE
8
BLACK
6
CONTINUOUS
10
6.8544347637795271
20
-3.8248966929133856
11
6.8544716929133855
21
-3.8250824803149603
0
LINE
8
BLACK
6
CONTINUOUS
10
6.8544716929133855
20
-3.8250824803149603
11
6.8545216929133854
21
-3.8252649999999999
0
LINE
8
BLACK
6
CONTINUOUS
10
6.8545216929133854
20
-3.8252649999999999
11
6.85451311023622
21
-3.8252906299212599
0
LINE
8
BLACK
6
CONTINUOUS
10
6.85451311023622
20
-3.8252906299212599
11
6.8545246850393697
21
-3.8253487007874014
0
LINE
8
BLACK
6
CONTINUOUS
10
6.8545246850393697
20
-3.8253487007874014
11
6.8545246850393697
21
-3.828348307086614
0
LINE
8
BLACK
6
CONTINUOUS
10
6.8545246850393697
20
-3.828348307086614
11
6.85451311023622
21
-3.8284063385826772
0
LINE
8
BLACK
6
CONTINUOUS
10
6.85451311023622
20
-3.8284063385826772
11
6.8545216929133854
21
-3.8284320078740155
0
LINE
8
BLACK
6
CONTINUOUS
10
6.8545216929133854
20
-3.8284320078740155
11
6.8544716929133855
21
-3.8286144881889763
0
LINE
8
BLACK
6
CONTINUOUS
10
6.8544716929133855
20
-3.8286144881889763
11
6.8544347637795271
21
-3.8288003149606298
0
LINE
8
BLACK
6
CONTINUOUS
10
6.8544347637795271
20
-3.8288003149606298
11
6.8544155905511808
21
-3.8288194488188974
0
LINE
8
BLACK
6
CONTINUOUS
10
6.8544155905511808
20
-3.8288194488188974
11
6.8544
21
-3.8288764960629922
0
LINE
8
BLACK
6
CONTINUOUS
10
6.8544
20
-3.8288764960629922
11
6.8536501181102363
21
-3.8303762992125985
0
LINE
8
BLACK
6
CONTINUOUS
10
6.8536501181102363
20
-3.8303762992125985
11
6.8535059055118106
21
-3.8305620866141732
0
LINE
8
BLACK
6
CONTINUOUS
10
6.8535059055118106
20
-3.8305620866141732
11
6.853485984251968
21
-3.8306219291338581
0
LINE
8
BLACK
6
CONTINUOUS
10
6.853485984251968
20
-3.8306219291338581
11
6.8534193307086611
21
-3.8306736220472439
0
LINE
8
BLACK
6
CONTINUOUS
10
6.8534193307086611
20
-3.8306736220472439
11
6.8533675590551182
21
-3.8307403937007871
0
LINE
8
BLACK
6
CONTINUOUS
10
6.8533675590551182
20
-3.8307403937007871
11
6.8533076377952753
21
-3.8307603543307085
0
LINE
8
BLACK
6
CONTINUOUS
10
6.8533076377952753
20
-3.8307603543307085
11
6.8531219291338585
21
-3.830904527559055
0
LINE
8
BLACK
6
CONTINUOUS
10
6.8531219291338585
20
-3.830904527559055
11
6.8516220472440947
21
-3.8316544488188975
0
LINE
8
BLACK
6
CONTINUOUS
10
6.8516220472440947
20
-3.8316544488188975
11
6.8515649999999999
21
-3.8316700393700787
0
LINE
8
BLACK
6
CONTINUOUS
10
6.8515649999999999
20
-3.8316700393700787
11
6.8515458661417323
21
-3.831689212598425
0
LINE
8
BLACK
6
CONTINUOUS
10
6.8515458661417323
20
-3.831689212598425
11
6.8513600393700784
21
-3.8317261417322834
0
LINE
8
BLACK
6
CONTINUOUS
10
6.8513600393700784
20
-3.8317261417322834
11
6.8511775590551176
21
-3.8317761417322833
0
LINE
8
BLACK
6
CONTINUOUS
10
6.8511775590551176
20
-3.8317761417322833
11
6.8511518897637798
21
-3.8317675590551179
0
LINE
8
BLACK
6
CONTINUOUS
10
6.8511518897637798
20
-3.8317675590551179
11
6.8510938582677161
21
-3.8317791338582676
0
LINE
8
BLACK
6
CONTINUOUS
10
6.8510938582677161
20
-3.8317791338582676
11
6.8450946062992122
21
-3.8317791338582676
0
LINE
8
BLACK
6
CONTINUOUS
10
6.8450946062992122
20
-3.8317791338582676
11
6.8450366141732282
21
-3.8317675984251967
0
LINE
8
BLACK
6
CONTINUOUS
10
6.8450366141732282
20
-3.8317675984251967
11
6.8450109055118107
21
-3.8317761811023621
0
LINE
8
BLACK
6
CONTINUOUS
10
6.8450109055118107
20
-3.8317761811023621
11
6.844828070866142
21
-3.8317261023622047
0
LINE
8
BLACK
6
CONTINUOUS
10
6.844828070866142
20
-3.8317261023622047
11
6.8446425984251968
21
-3.831689212598425
0
LINE
8
BLACK
6
CONTINUOUS
10
6.8446425984251968
20
-3.831689212598425
11
6.8446234251968505
21
-3.8316700393700787
0
LINE
8
BLACK
6
CONTINUOUS
10
6.8446234251968505
20
-3.8316700393700787
11
6.8445664173228344
21
-3.8316544488188975
0
LINE
8
BLACK
6
CONTINUOUS
10
6.8445664173228344
20
-3.8316544488188975
11
6.8430665748031494
21
-3.830904527559055
0
LINE
8
BLACK
6
CONTINUOUS
10
6.8430665748031494
20
-3.830904527559055
11
6.842880826771653
21
-3.8307603149606297
0
LINE
8
BLACK
6
CONTINUOUS
10
6.842880826771653
20
-3.8307603149606297
11
6.8428209842519685
21
-3.8307403937007871
0
LINE
8
BLACK
6
CONTINUOUS
10
6.8428209842519685
20
-3.8307403937007871
11
6.8427692125984247
21
-3.8306736614173227
0
LINE
8
BLACK
6
CONTINUOUS
10
6.8427692125984247
20
-3.8306736614173227
11
6.8427025196850391
21
-3.8306219291338581
0
LINE
8
BLACK
6
CONTINUOUS
10
6.8427025196850391
20
-3.8306219291338581
11
6.8426825590551177
21
-3.8305620866141732
0
LINE
8
BLACK
6
CONTINUOUS
10
6.8426825590551177
20
-3.8305620866141732
11
6.8425383858267717
21
-3.8303763385826772
0
LINE
8
BLACK
6
CONTINUOUS
10
6.8425383858267717
20
-3.8303763385826772
11
6.8417884645669291
21
-3.8288765354330709
0
LINE
8
BLACK
6
CONTINUOUS
10
6.8417884645669291
20
-3.8288765354330709
11
6.8417728346456688
21
-3.8288194488188974
0
LINE
8
BLACK
6
CONTINUOUS
10
6.8417728346456688
20
-3.8288194488188974
11
6.8417537007874012
21
-3.8288003149606298
0
LINE
8
BLACK
6
CONTINUOUS
10
6.8417537007874012
20
-3.8288003149606298
11
6.841716732283464
21
-3.8286145275590551
0
LINE
8
BLACK
6
CONTINUOUS
10
6.841716732283464
20
-3.8286145275590551
11
6.8416667716535429
21
-3.8284320078740155
0
LINE
8
BLACK
6
CONTINUOUS
10
6.8416667716535429
20
-3.8284320078740155
11
6.8416753149606295
21
-3.8284063385826772
0
LINE
8
BLACK
6
CONTINUOUS
10
6.8416753149606295
20
-3.8284063385826772
11
6.8416637795275586
21
-3.828348307086614
0
LINE
8
BLACK
6
CONTINUOUS
10
6.8416637795275586
20
-3.828348307086614
11
6.8416637795275586
21
-3.8253487007874014
0
LINE
8
BLACK
6
CONTINUOUS
10
6.8416637795275586
20
-3.8253487007874014
11
6.8416753149606295
21
-3.8252906299212599
0
LINE
8
BLACK
6
CONTINUOUS
10
6.8416753149606295
20
-3.8252906299212599
11
6.8416667716535429
21
-3.8252649999999999
0
LINE
8
BLACK
6
CONTINUOUS
10
6.8416667716535429
20
-3.8252649999999999
11
6.841716732283464
21
-3.8250824803149603
0
LINE
8
BLACK
6
CONTINUOUS
10
6.841716732283464
20
-3.8250824803149603
11
6.8417537007874012
21
-3.8248966929133856
0
LINE
8
BLACK
6
CONTINUOUS
10
6.8417537007874012
20
-3.8248966929133856
11
6.8417728346456688
21
-3.8248775196850393
0
LINE
8
BLACK
6
CONTINUOUS
10
6.8417728346456688
20
-3.8248775196850393
11
6.8417884645669291
21
-3.8248205118110237
0
LINE
8
BLACK
6
CONTINUOUS
10
6.8417884645669291
20
-3.8248205118110237
11
6.8425383858267717
21
-3.8233206299212599
0
LINE
8
BLACK
6
CONTINUOUS
10
6.8425383858267717
20
-3.8233206299212599
11
6.8426825196850389
21
-3.8231348818897639
0
LINE
8
BLACK
6
CONTINUOUS
10
6.8426825196850389
20
-3.8231348818897639
11
6.8427025196850391
21
-3.8230749999999998
0
LINE
8
BLACK
6
CONTINUOUS
10
6.8427025196850391
20
-3.8230749999999998
11
6.8427692519685035
21
-3.8230231889763777
0
LINE
8
BLACK
6
CONTINUOUS
10
6.8427692519685035
20
-3.8230231889763777
11
6.8428209842519685
21
-3.8229565748031495
0
LINE
8
BLACK
6
CONTINUOUS
10
6.8428209842519685
20
-3.8229565748031495
11
6.8428807874015742
21
-3.8229366141732282
0
LINE
8
BLACK
6
CONTINUOUS
10
6.8428807874015742
20
-3.8229366141732282
11
6.8430666141732281
21
-3.8227924409448817
0
LINE
8
BLACK
6
CONTINUOUS
10
6.8430666141732281
20
-3.8227924409448817
11
6.8445664173228344
21
-3.8220425590551179
0
LINE
8
BLACK
6
CONTINUOUS
10
6.8445664173228344
20
-3.8220425590551179
11
6.8446234251968505
21
-3.822026929133858
0
LINE
8
BLACK
6
CONTINUOUS
10
6.8446234251968505
20
-3.822026929133858
11
6.8446425984251968
21
-3.8220077952755904
0
LINE
8
BLACK
6
CONTINUOUS
10
6.8446425984251968
20
-3.8220077952755904
11
6.8448283858267711
21
-3.8219708267716537
0
LINE
8
BLACK
6
CONTINUOUS
10
6.8448283858267711
20
-3.8219708267716537
11
6.8450109055118107
21
-3.8219208661417321
0
LINE
8
BLACK
6
CONTINUOUS
10
6.8450109055118107
20
-3.8219208661417321
11
6.8450365354330707
21
-3.8219294094488188
0
LINE
8
BLACK
6
CONTINUOUS
10
6.8450365354330707
20
-3.8219294094488188
11
6.8450946062992122
21
-3.8219178740157478
0
LINE
8
BLACK
6
CONTINUOUS
10
6.8450946062992122
20
-3.8219178740157478
11
6.8465944488188972
21
-3.8219178740157478
0
LINE
8
BLACK
6
CONTINUOUS
10
6.8465944488188972
20
-3.8219178740157478
11
6.8467657086614171
21
-3.8219519291338582
0
LINE
8
BLACK
6
CONTINUOUS
10
6.8444751181102363
20
-3.8247291732283464
11
6.8440259842519682
21
-3.8256275196850393
0
LINE
8
BLACK
6
CONTINUOUS
10
6.8440259842519682
20
-3.8256275196850393
11
6.8440259842519682
21
-3.8280694488188978
0
LINE
8
BLACK
6
CONTINUOUS
10
6.8440259842519682
20
-3.8280694488188978
11
6.8444751181102363
21
-3.8289677165354328
0
LINE
8
BLACK
6
CONTINUOUS
10
6.8444751181102363
20
-3.8289677165354328
11
6.8453734645669293
21
-3.829416929133858
0
LINE
8
BLACK
6
CONTINUOUS
10
6.8453734645669293
20
-3.829416929133858
11
6.8466535433070863
21
-3.829416929133858
0
LINE
8
BLACK
6
CONTINUOUS
10
6.8466535433070863
20
-3.829416929133858
11
6.8456261811023618
21
-3.8242800787401574
0
LINE
8
BLACK
6
CONTINUOUS
10
6.8456261811023618
20
-3.8242800787401574
11
6.8453734251968505
21
-3.8242800787401574
0
LINE
8
BLACK
6
CONTINUOUS
10
6.8453734251968505
20
-3.8242800787401574
11
6.8444751181102363
21
-3.8247291732283464
0
LINE
8
BLACK
6
CONTINUOUS
10
6.8537955905511811
20
-3.8085094881889763
11
6.8544347637795271
21
-3.8091486614173227
0
LINE
8
BLACK
6
CONTINUOUS
10
6.8544347637795271
20
-3.8091486614173227
11
6.8544347637795271
21
-3.8100526771653542
0
LINE
8
BLACK
6
CONTINUOUS
10
6.8544347637795271
20
-3.8100526771653542
11
6.8542383858267719
21
-3.8102490157480315
0
LINE
8
BLACK
6
CONTINUOUS
10
6.8542383858267719
20
-3.8102490157480315
11
6.8544
21
-3.810572283464567
0
LINE
8
BLACK
6
CONTINUOUS
10
6.8544
20
-3.810572283464567
11
6.8544155905511808
21
-3.8106292913385826
0
LINE
8
BLACK
6
CONTINUOUS
10
6.8544155905511808
20
-3.8106292913385826
11
6.8544347637795271
21
-3.810648464566929
0
LINE
8
BLACK
6
CONTINUOUS
10
6.8544347637795271
20
-3.810648464566929
11
6.8544716929133855
21
-3.8108342519685037
0
LINE
8
BLACK
6
CONTINUOUS
10
6.8544716929133855
20
-3.8108342519685037
11
6.8545216929133854
21
-3.8110167716535432
0
LINE
8
BLACK
6
CONTINUOUS
10
6.8545216929133854
20
-3.8110167716535432
11
6.85451311023622
21
-3.8110424015748032
0
LINE
8
BLACK
6
CONTINUOUS
10
6.85451311023622
20
-3.8110424015748032
11
6.8545246850393697
21
-3.8111004724409447
0
LINE
8
BLACK
6
CONTINUOUS
10
6.8545246850393697
20
-3.8111004724409447
11
6.8545246850393697
21
-3.8141001181102361
0
LINE
8
BLACK
6
CONTINUOUS
10
6.8545246850393697
20
-3.8141001181102361
11
6.85451311023622
21
-3.8141581496062993
0
LINE
8
BLACK
6
CONTINUOUS
10
6.85451311023622
20
-3.8141581496062993
11
6.8545216929133854
21
-3.8141838188976376
0
LINE
8
BLACK
6
CONTINUOUS
10
6.8545216929133854
20
-3.8141838188976376
11
6.8544716929133855
21
-3.8143662992125984
0
LINE
8
BLACK
6
CONTINUOUS
10
6.8544716929133855
20
-3.8143662992125984
11
6.8544347637795271
21
-3.8145521259842519
0
LINE
8
BLACK
6
CONTINUOUS
10
6.8544347637795271
20
-3.8145521259842519
11
6.8544155905511808
21
-3.8145712598425194
0
LINE
8
BLACK
6
CONTINUOUS
10
6.8544155905511808
20
-3.8145712598425194
11
6.8544
21
-3.8146283070866143
0
LINE
8
BLACK
6
CONTINUOUS
10
6.8544
20
-3.8146283070866143
11
6.8536501181102363
21
-3.8161281102362206
0
LINE
8
BLACK
6
CONTINUOUS
10
6.8536501181102363
20
-3.8161281102362206
11
6.8535338976377949
21
-3.8162778346456694
0
LINE
8
BLACK
6
CONTINUOUS
10
6.8535338976377949
20
-3.8162778346456694
11
6.8534288188976378
21
-3.8164351181102361
0
LINE
8
BLACK
6
CONTINUOUS
10
6.8534288188976378
20
-3.8164351181102361
11
6.852678937007874
21
-3.8171849999999998
0
LINE
8
BLACK
6
CONTINUOUS
10
6.852678937007874
20
-3.8171849999999998
11
6.8525214566929131
21
-3.8172901574803149
0
LINE
8
BLACK
6
CONTINUOUS
10
6.8525214566929131
20
-3.8172901574803149
11
6.852372007874016
21
-3.8174062204724408
0
LINE
8
BLACK
6
CONTINUOUS
10
6.852372007874016
20
-3.8174062204724408
11
6.8508722047244097
21
-3.8181561417322833
0
LINE
8
BLACK
6
CONTINUOUS
10
6.8508722047244097
20
-3.8181561417322833
11
6.8508151181102361
21
-3.8181717322834645
0
LINE
8
BLACK
6
CONTINUOUS
10
6.8508151181102361
20
-3.8181717322834645
11
6.8507959842519686
21
-3.8181909055118108
0
LINE
8
BLACK
6
CONTINUOUS
10
6.8507959842519686
20
-3.8181909055118108
11
6.8506101968503934
21
-3.8182278346456693
0
LINE
8
BLACK
6
CONTINUOUS
10
6.8506101968503934
20
-3.8182278346456693
11
6.8504276771653538
21
-3.8182778346456692
0
LINE
8
BLACK
6
CONTINUOUS
10
6.8504276771653538
20
-3.8182778346456692
11
6.850402007874016
21
-3.8182692519685038
0
LINE
8
BLACK
6
CONTINUOUS
10
6.850402007874016
20
-3.8182692519685038
11
6.8503439763779523
21
-3.8182808267716535
0
LINE
8
BLACK
6
CONTINUOUS
10
6.8503439763779523
20
-3.8182808267716535
11
6.8458445275590547
21
-3.8182808267716535
0
LINE
8
BLACK
6
CONTINUOUS
10
6.8458445275590547
20
-3.8182808267716535
11
6.8457865354330707
21
-3.8182692913385825
0
LINE
8
BLACK
6
CONTINUOUS
10
6.8457865354330707
20
-3.8182692913385825
11
6.8457608267716532
21
-3.8182778740157479
0
LINE
8
BLACK
6
CONTINUOUS
10
6.8457608267716532
20
-3.8182778740157479
11
6.8455779921259845
21
-3.8182277952755905
0
LINE
8
BLACK
6
CONTINUOUS
10
6.8455779921259845
20
-3.8182277952755905
11
6.8453925196850394
21
-3.8181909055118108
0
LINE
8
BLACK
6
CONTINUOUS
10
6.8453925196850394
20
-3.8181909055118108
11
6.845373346456693
21
-3.8181717322834645
0
LINE
8
BLACK
6
CONTINUOUS
10
6.845373346456693
20
-3.8181717322834645
11
6.845316338582677
21
-3.8181561417322833
0
LINE
8
BLACK
6
CONTINUOUS
10
6.845316338582677
20
-3.8181561417322833
11
6.8438164960629919
21
-3.8174062204724408
0
LINE
8
BLACK
6
CONTINUOUS
10
6.8438164960629919
20
-3.8174062204724408
11
6.8436670078740152
21
-3.8172901574803149
0
LINE
8
BLACK
6
CONTINUOUS
10
6.8436670078740152
20
-3.8172901574803149
11
6.8435095669291339
21
-3.8171849999999998
0
LINE
8
BLACK
6
CONTINUOUS
10
6.8435095669291339
20
-3.8171849999999998
11
6.8427596456692914
21
-3.8164351181102361
0
LINE
8
BLACK
6
CONTINUOUS
10
6.8427596456692914
20
-3.8164351181102361
11
6.8426544094488184
21
-3.8162776377952756
0
LINE
8
BLACK
6
CONTINUOUS
10
6.8426544094488184
20
-3.8162776377952756
11
6.8425383858267717
21
-3.8161281496062993
0
LINE
8
BLACK
6
CONTINUOUS
10
6.8425383858267717
20
-3.8161281496062993
11
6.8417884645669291
21
-3.814628346456693
0
LINE
8
BLACK
6
CONTINUOUS
10
6.8417884645669291
20
-3.814628346456693
11
6.8417728346456688
21
-3.8145712598425194
0
LINE
8
BLACK
6
CONTINUOUS
10
6.8417728346456688
20
-3.8145712598425194
11
6.8417537007874012
21
-3.8145521259842519
0
LINE
8
BLACK
6
CONTINUOUS
10
6.8417537007874012
20
-3.8145521259842519
11
6.841716732283464
21
-3.8143663385826772
0
LINE
8
BLACK
6
CONTINUOUS
10
6.841716732283464
20
-3.8143663385826772
11
6.8416667716535429
21
-3.8141838188976376
0
LINE
8
BLACK
6
CONTINUOUS
10
6.8416667716535429
20
-3.8141838188976376
11
6.8416753149606295
21
-3.8141581496062993
0
LINE
8
BLACK
6
CONTINUOUS
10
6.8416753149606295
20
-3.8141581496062993
11
6.8416637795275586
21
-3.8141001181102361
0
LINE
8
BLACK
6
CONTINUOUS
10
6.8416637795275586
20
-3.8141001181102361
11
6.8416637795275586
21
-3.8111004724409447
0
LINE
8
BLACK
6
CONTINUOUS
10
6.8416637795275586
20
-3.8111004724409447
11
6.8416753149606295
21
-3.8110424015748032
0
LINE
8
BLACK
6
CONTINUOUS
10
6.8416753149606295
20
-3.8110424015748032
11
6.8416667716535429
21
-3.8110167716535432
0
LINE
8
BLACK
6
CONTINUOUS
10
6.8416667716535429
20
-3.8110167716535432
11
6.841716732283464
21
-3.8108342125984249
0
LINE
8
BLACK
6
CONTINUOUS
10
6.841716732283464
20
-3.8108342125984249
11
6.8417271653543308
21
-3.8107817716535433
0
LINE
8
BLACK
6
CONTINUOUS
10
6.8417271653543308
20
-3.8107817716535433
11
6.837595551181102
21
-3.8107817716535433
0
LINE
8
BLACK
6
CONTINUOUS
10
6.837595551181102
20
-3.8107817716535433
11
6.8371435433070866
21
-3.8106918503937006
0
LINE
8
BLACK
6
CONTINUOUS
10
6.8371435433070866
20
-3.8106918503937006
11
6.8365043700787398
21
-3.8100526771653542
0
LINE
8
BLACK
6
CONTINUOUS
10
6.8365043700787398
20
-3.8100526771653542
11
6.8365043700787398
21
-3.8091486614173227
0
LINE
8
BLACK
6
CONTINUOUS
10
6.8365043700787398
20
-3.8091486614173227
11
6.8371435433070866
21
-3.8085094881889763
0
LINE
8
BLACK
6
CONTINUOUS
10
6.8371435433070866
20
-3.8085094881889763
11
6.837595551181102
21
-3.8084195669291336
0
LINE
8
BLACK
6
CONTINUOUS
10
6.837595551181102
20
-3.8084195669291336
11
6.8533435826771649
21
-3.8084195669291336
0
LINE
8
BLACK
6
CONTINUOUS
10
6.8533435826771649
20
-3.8084195669291336
11
6.8537955905511811
21
-3.8085094881889763
0
LINE
8
BLACK
6
CONTINUOUS
10
6.8440259842519682
20
-3.8113793307086614
11
6.8440259842519682
21
-3.8138212598425194
0
LINE
8
BLACK
6
CONTINUOUS
10
6.8440259842519682
20
-3.8138212598425194
11
6.8445654724409444
21
-3.8149002362204723
0
LINE
8
BLACK
6
CONTINUOUS
10
6.8445654724409444
20
-3.8149002362204723
11
6.8450442913385823
21
-3.8153790551181102
0
LINE
8
BLACK
6
CONTINUOUS
10
6.8450442913385823
20
-3.8153790551181102
11
6.8461233858267718
21
-3.8159186220472439
0
LINE
8
BLACK
6
CONTINUOUS
10
6.8461233858267718
20
-3.8159186220472439
11
6.8500651181102361
21
-3.8159186220472439
0
LINE
8
BLACK
6
CONTINUOUS
10
6.8500651181102361
20
-3.8159186220472439
11
6.8511440944881885
21
-3.8153790944881889
0
LINE
8
BLACK
6
CONTINUOUS
10
6.8511440944881885
20
-3.8153790944881889
11
6.8516230314960627
21
-3.8149001968503935
0
LINE
8
BLACK
6
CONTINUOUS
10
6.8516230314960627
20
-3.8149001968503935
11
6.8521624803149601
21
-3.8138212992125982
0
LINE
8
BLACK
6
CONTINUOUS
10
6.8521624803149601
20
-3.8138212992125982
11
6.8521624803149601
21
-3.8113792519685039
0
LINE
8
BLACK
6
CONTINUOUS
10
6.8521624803149601
20
-3.8113792519685039
11
6.85186374015748
21
-3.8107817716535433
0
LINE
8
BLACK
6
CONTINUOUS
10
6.85186374015748
20
-3.8107817716535433
11
6.844324763779527
21
-3.8107817716535433
0
LINE
8
BLACK
6
CONTINUOUS
10
6.844324763779527
20
-3.8107817716535433
11
6.8440259842519682
21
-3.8113793307086614
0
LINE
8
BLACK
6
CONTINUOUS
10
6.8556513385826774
20
-3.7941828740157479
11
6.8556770078740152
21
-3.7941743307086613
0
LINE
8
BLACK
6
CONTINUOUS
10
6.8556770078740152
20
-3.7941743307086613
11
6.8558594881889761
21
-3.7942242913385824
0
LINE
8
BLACK
6
CONTINUOUS
10
6.8558594881889761
20
-3.7942242913385824
11
6.85604531496063
21
-3.7942612598425196
0
LINE
8
BLACK
6
CONTINUOUS
10
6.85604531496063
20
-3.7942612598425196
11
6.8560644488188975
21
-3.7942803937007872
0
LINE
8
BLACK
6
CONTINUOUS
10
6.8560644488188975
20
-3.7942803937007872
11
6.8561214960629924
21
-3.7942960236220471
0
LINE
8
BLACK
6
CONTINUOUS
10
6.8561214960629924
20
-3.7942960236220471
11
6.8576212992125987
21
-3.7950459055118109
0
LINE
8
BLACK
6
CONTINUOUS
10
6.8576212992125987
20
-3.7950459055118109
11
6.8577709055118108
21
-3.7951620472440943
0
LINE
8
BLACK
6
CONTINUOUS
10
6.8577709055118108
20
-3.7951620472440943
11
6.8579282677165354
21
-3.7952671653543306
0
LINE
8
BLACK
6
CONTINUOUS
10
6.8579282677165354
20
-3.7952671653543306
11
6.8586781889763779
21
-3.7960170866141731
0
LINE
8
BLACK
6
CONTINUOUS
10
6.8586781889763779
20
-3.7960170866141731
11
6.8587833070866138
21
-3.796174409448819
0
LINE
8
BLACK
6
CONTINUOUS
10
6.8587833070866138
20
-3.796174409448819
11
6.8588994488188977
21
-3.7963240551181103
0
LINE
8
BLACK
6
CONTINUOUS
10
6.8588994488188977
20
-3.7963240551181103
11
6.8596493307086615
21
-3.7978238582677166
0
LINE
8
BLACK
6
CONTINUOUS
10
6.8596493307086615
20
-3.7978238582677166
11
6.8596649212598422
21
-3.7978808661417323
0
LINE
8
BLACK
6
CONTINUOUS
10
6.8596649212598422
20
-3.7978808661417323
11
6.8596840944881885
21
-3.7979000393700786
0
LINE
8
BLACK
6
CONTINUOUS
10
6.8596840944881885
20
-3.7979000393700786
11
6.8597210236220469
21
-3.7980858267716533
0
LINE
8
BLACK
6
CONTINUOUS
10
6.8597210236220469
20
-3.7980858267716533
11
6.8597710236220468
21
-3.7982683464566929
0
LINE
8
BLACK
6
CONTINUOUS
10
6.8597710236220468
20
-3.7982683464566929
11
6.8597624409448814
21
-3.7982939763779529
0
LINE
8
BLACK
6
CONTINUOUS
10
6.8597624409448814
20
-3.7982939763779529
11
6.8597740157480311
21
-3.7983520472440944
0
LINE
8
BLACK
6
CONTINUOUS
10
6.8597740157480311
20
-3.7983520472440944
11
6.8597740157480311
21
-3.8006017716535432
0
LINE
8
BLACK
6
CONTINUOUS
10
6.8597740157480311
20
-3.8006017716535432
11
6.8597624409448814
21
-3.8006598031496064
0
LINE
8
BLACK
6
CONTINUOUS
10
6.8597624409448814
20
-3.8006598031496064
11
6.8597710236220468
21
-3.8006854724409447
0
LINE
8
BLACK
6
CONTINUOUS
10
6.8597710236220468
20
-3.8006854724409447
11
6.8597210236220469
21
-3.8008679527559055
0
LINE
8
BLACK
6
CONTINUOUS
10
6.8597210236220469
20
-3.8008679527559055
11
6.8596840944881885
21
-3.801053779527559
0
LINE
8
BLACK
6
CONTINUOUS
10
6.8596840944881885
20
-3.801053779527559
11
6.8596649212598422
21
-3.8010729133858265
0
LINE
8
BLACK
6
CONTINUOUS
10
6.8596649212598422
20
-3.8010729133858265
11
6.8596493307086615
21
-3.8011299606299214
0
LINE
8
BLACK
6
CONTINUOUS
10
6.8596493307086615
20
-3.8011299606299214
11
6.8588994488188977
21
-3.8026297637795277
0
LINE
8
BLACK
6
CONTINUOUS
10
6.8588994488188977
20
-3.8026297637795277
11
6.8586168897637796
21
-3.8029938582677163
0
LINE
8
BLACK
6
CONTINUOUS
10
6.8586168897637796
20
-3.8029938582677163
11
6.8577593307086611
21
-3.80327968503937
0
LINE
8
BLACK
6
CONTINUOUS
10
6.8577593307086611
20
-3.80327968503937
11
6.8569507480314957
21
-3.8028754330708661
0
LINE
8
BLACK
6
CONTINUOUS
10
6.8569507480314957
20
-3.8028754330708661
11
6.8566649212598421
21
-3.802017874015748
0
LINE
8
BLACK
6
CONTINUOUS
10
6.8566649212598421
20
-3.802017874015748
11
6.8567866141732283
21
-3.8015733858267717
0
LINE
8
BLACK
6
CONTINUOUS
10
6.8567866141732283
20
-3.8015733858267717
11
6.8574118110236215
21
-3.8003229527559053
0
LINE
8
BLACK
6
CONTINUOUS
10
6.8574118110236215
20
-3.8003229527559053
11
6.8574118110236215
21
-3.7986308267716535
0
LINE
8
BLACK
6
CONTINUOUS
10
6.8574118110236215
20
-3.7986308267716535
11
6.8568722834645666
21
-3.7975518110236219
0
LINE
8
BLACK
6
CONTINUOUS
10
6.8568722834645666
20
-3.7975518110236219
11
6.8563935039370074
21
-3.7970730314960628
0
LINE
8
BLACK
6
CONTINUOUS
10
6.8563935039370074
20
-3.7970730314960628
11
6.8553144881889763
21
-3.7965335433070866
0
LINE
8
BLACK
6
CONTINUOUS
10
6.8553144881889763
20
-3.7965335433070866
11
6.8544612992125984
21
-3.7965335433070866
0
LINE
8
BLACK
6
CONTINUOUS
10
6.8544612992125984
20
-3.7965335433070866
11
6.8544716929133855
21
-3.796586023622047
0
LINE
8
BLACK
6
CONTINUOUS
10
6.8544716929133855
20
-3.796586023622047
11
6.8545216929133854
21
-3.7967685433070866
0
LINE
8
BLACK
6
CONTINUOUS
10
6.8545216929133854
20
-3.7967685433070866
11
6.85451311023622
21
-3.7967941732283466
0
LINE
8
BLACK
6
CONTINUOUS
10
6.85451311023622
20
-3.7967941732283466
11
6.8545246850393697
21
-3.7968522440944881
0
LINE
8
BLACK
6
CONTINUOUS
10
6.8545246850393697
20
-3.7968522440944881
11
6.8545246850393697
21
-3.7998518897637794
0
LINE
8
BLACK
6
CONTINUOUS
10
6.8545246850393697
20
-3.7998518897637794
11
6.85451311023622
21
-3.7999099212598426
0
LINE
8
BLACK
6
CONTINUOUS
10
6.85451311023622
20
-3.7999099212598426
11
6.8545216929133854
21
-3.7999355905511809
0
LINE
8
BLACK
6
CONTINUOUS
10
6.8545216929133854
20
-3.7999355905511809
11
6.8544716929133855
21
-3.8001180708661417
0
LINE
8
BLACK
6
CONTINUOUS
10
6.8544716929133855
20
-3.8001180708661417
11
6.8544347637795271
21
-3.8003038976377952
0
LINE
8
BLACK
6
CONTINUOUS
10
6.8544347637795271
20
-3.8003038976377952
11
6.8544155905511808
21
-3.8003230314960628
0
LINE
8
BLACK
6
CONTINUOUS
10
6.8544155905511808
20
-3.8003230314960628
11
6.8544
21
-3.8003800787401576
0
LINE
8
BLACK
6
CONTINUOUS
10
6.8544
20
-3.8003800787401576
11
6.8536501181102363
21
-3.8018798818897639
0
LINE
8
BLACK
6
CONTINUOUS
10
6.8536501181102363
20
-3.8018798818897639
11
6.8535338976377949
21
-3.8020296062992127
0
LINE
8
BLACK
6
CONTINUOUS
10
6.8535338976377949
20
-3.8020296062992127
11
6.8534288188976378
21
-3.8021868897637794
0
LINE
8
BLACK
6
CONTINUOUS
10
6.8534288188976378
20
-3.8021868897637794
11
6.852678937007874
21
-3.8029367716535432
0
LINE
8
BLACK
6
CONTINUOUS
10
6.852678937007874
20
-3.8029367716535432
11
6.8525214566929131
21
-3.8030419291338582
0
LINE
8
BLACK
6
CONTINUOUS
10
6.8525214566929131
20
-3.8030419291338582
11
6.852372007874016
21
-3.8031579921259842
0
LINE
8
BLACK
6
CONTINUOUS
10
6.852372007874016
20
-3.8031579921259842
11
6.8508722047244097
21
-3.8039079133858267
0
LINE
8
BLACK
6
CONTINUOUS
10
6.8508722047244097
20
-3.8039079133858267
11
6.8508151181102361
21
-3.8039235039370078
0
LINE
8
BLACK
6
CONTINUOUS
10
6.8508151181102361
20
-3.8039235039370078
11
6.8507959842519686
21
-3.8039426771653542
0
LINE
8
BLACK
6
CONTINUOUS
10
6.8507959842519686
20
-3.8039426771653542
11
6.8506101968503934
21
-3.8039796062992126
0
LINE
8
BLACK
6
CONTINUOUS
10
6.8506101968503934
20
-3.8039796062992126
11
6.8504276771653538
21
-3.8040296062992125
0
LINE
8
BLACK
6
CONTINUOUS
10
6.8504276771653538
20
-3.8040296062992125
11
6.850402007874016
21
-3.8040210236220471
0
LINE
8
BLACK
6
CONTINUOUS
10
6.850402007874016
20
-3.8040210236220471
11
6.8503439763779523
21
-3.8040325984251968
0
LINE
8
BLACK
6
CONTINUOUS
10
6.8503439763779523
20
-3.8040325984251968
11
6.8458445275590547
21
-3.8040325984251968
0
LINE
8
BLACK
6
CONTINUOUS
10
6.8458445275590547
20
-3.8040325984251968
11
6.8457865354330707
21
-3.8040210629921258
0
LINE
8
BLACK
6
CONTINUOUS
10
6.8457865354330707
20
-3.8040210629921258
11
6.8457608267716532
21
-3.8040296456692912
0
LINE
8
BLACK
6
CONTINUOUS
10
6.8457608267716532
20
-3.8040296456692912
11
6.8455779921259845
21
-3.8039795669291339
0
LINE
8
BLACK
6
CONTINUOUS
10
6.8455779921259845
20
-3.8039795669291339
11
6.8453925196850394
21
-3.8039426771653542
0
LINE
8
BLACK
6
CONTINUOUS
10
6.8453925196850394
20
-3.8039426771653542
11
6.845373346456693
21
-3.8039235039370078
0
LINE
8
BLACK
6
CONTINUOUS
10
6.845373346456693
20
-3.8039235039370078
11
6.845316338582677
21
-3.8039079133858267
0
LINE
8
BLACK
6
CONTINUOUS
10
6.845316338582677
20
-3.8039079133858267
11
6.8438164960629919
21
-3.8031579921259842
0
LINE
8
BLACK
6
CONTINUOUS
10
6.8438164960629919
20
-3.8031579921259842
11
6.8436670078740152
21
-3.8030419291338582
0
LINE
8
BLACK
6
CONTINUOUS
10
6.8436670078740152
20
-3.8030419291338582
11
6.8435095669291339
21
-3.8029367716535432
0
LINE
8
BLACK
6
CONTINUOUS
10
6.8435095669291339
20
-3.8029367716535432
11
6.8427596456692914
21
-3.8021868897637794
0
LINE
8
BLACK
6
CONTINUOUS
10
6.8427596456692914
20
-3.8021868897637794
11
6.8426544094488184
21
-3.802029409448819
0
LINE
8
BLACK
6
CONTINUOUS
10
6.8426544094488184
20
-3.802029409448819
11
6.8425383858267717
21
-3.8018799212598426
0
LINE
8
BLACK
6
CONTINUOUS
10
6.8425383858267717
20
-3.8018799212598426
11
6.8417884645669291
21
-3.8003801181102363
0
LINE
8
BLACK
6
CONTINUOUS
10
6.8417884645669291
20
-3.8003801181102363
11
6.8417728346456688
21
-3.8003230314960628
0
LINE
8
BLACK
6
CONTINUOUS
10
6.8417728346456688
20
-3.8003230314960628
11
6.8417537007874012
21
-3.8003038976377952
0
LINE
8
BLACK
6
CONTINUOUS
10
6.8417537007874012
20
-3.8003038976377952
11
6.841716732283464
21
-3.8001181102362205
0
LINE
8
BLACK
6
CONTINUOUS
10
6.841716732283464
20
-3.8001181102362205
11
6.8416667716535429
21
-3.7999355905511809
0
LINE
8
BLACK
6
CONTINUOUS
10
6.8416667716535429
20
-3.7999355905511809
11
6.8416753149606295
21
-3.7999099212598426
0
LINE
8
BLACK
6
CONTINUOUS
10
6.8416753149606295
20
-3.7999099212598426
11
6.8416637795275586
21
-3.7998518897637794
0
LINE
8
BLACK
6
CONTINUOUS
10
6.8416637795275586
20
-3.7998518897637794
11
6.8416637795275586
21
-3.7968522440944881
0
LINE
8
BLACK
6
CONTINUOUS
10
6.8416637795275586
20
-3.7968522440944881
11
6.8416753149606295
21
-3.7967941732283466
0
LINE
8
BLACK
6
CONTINUOUS
10
6.8416753149606295
20
-3.7967941732283466
11
6.8416667716535429
21
-3.7967685433070866
0
LINE
8
BLACK
6
CONTINUOUS
10
6.8416667716535429
20
-3.7967685433070866
11
6.841716732283464
21
-3.7965859842519682
0
LINE
8
BLACK
6
CONTINUOUS
10
6.841716732283464
20
-3.7965859842519682
11
6.8417537007874012
21
-3.7964002362204723
0
LINE
8
BLACK
6
CONTINUOUS
10
6.8417537007874012
20
-3.7964002362204723
11
6.8417728346456688
21
-3.796381062992126
0
LINE
8
BLACK
6
CONTINUOUS
10
6.8417728346456688
20
-3.796381062992126
11
6.8417884645669291
21
-3.7963240157480316
0
LINE
8
BLACK
6
CONTINUOUS
10
6.8417884645669291
20
-3.7963240157480316
11
6.8419500393700785
21
-3.7960007874015749
0
LINE
8
BLACK
6
CONTINUOUS
10
6.8419500393700785
20
-3.7960007874015749
11
6.8417537007874012
21
-3.7958044488188976
0
LINE
8
BLACK
6
CONTINUOUS
10
6.8417537007874012
20
-3.7958044488188976
11
6.8417537007874012
21
-3.794900433070866
0
LINE
8
BLACK
6
CONTINUOUS
10
6.8417537007874012
20
-3.794900433070866
11
6.842392874015748
21
-3.7942612598425196
0
LINE
8
BLACK
6
CONTINUOUS
10
6.842392874015748
20
-3.7942612598425196
11
6.8428448818897634
21
-3.794171338582677
0
LINE
8
BLACK
6
CONTINUOUS
10
6.8428448818897634
20
-3.794171338582677
11
6.8555933070866137
21
-3.794171338582677
0
LINE
8
BLACK
6
CONTINUOUS
10
6.8555933070866137
20
-3.794171338582677
11
6.8556513385826774
21
-3.7941828740157479
0
LINE
8
BLACK
6
CONTINUOUS
10
6.8440259842519682
20
-3.7971311023622047
11
6.8440259842519682
21
-3.7995730314960627
0
LINE
8
BLACK
6
CONTINUOUS
10
6.8440259842519682
20
-3.7995730314960627
11
6.8445654724409444
21
-3.8006520078740156
0
LINE
8
BLACK
6
CONTINUOUS
10
6.8445654724409444
20
-3.8006520078740156
11
6.8450442913385823
21
-3.8011308267716535
0
LINE
8
BLACK
6
CONTINUOUS
10
6.8450442913385823
20
-3.8011308267716535
11
6.8461233858267718
21
-3.8016703937007872
0
LINE
8
BLACK
6
CONTINUOUS
10
6.8461233858267718
20
-3.8016703937007872
11
6.8500651181102361
21
-3.8016703937007872
0
LINE
8
BLACK
6
CONTINUOUS
10
6.8500651181102361
20
-3.8016703937007872
11
6.8511440944881885
21
-3.8011308661417322
0
LINE
8
BLACK
6
CONTINUOUS
10
6.8511440944881885
20
-3.8011308661417322
11
6.8516230314960627
21
-3.8006519685039368
0
LINE
8
BLACK
6
CONTINUOUS
10
6.8516230314960627
20
-3.8006519685039368
11
6.8521624803149601
21
-3.7995730708661415
0
LINE
8
BLACK
6
CONTINUOUS
10
6.8521624803149601
20
-3.7995730708661415
11
6.8521624803149601
21
-3.7971310236220472
0
LINE
8
BLACK
6
CONTINUOUS
10
6.8521624803149601
20
-3.7971310236220472
11
6.85186374015748
21
-3.7965335433070866
0
LINE
8
BLACK
6
CONTINUOUS
10
6.85186374015748
20
-3.7965335433070866
11
6.844324763779527
21
-3.7965335433070866
0
LINE
8
BLACK
6
CONTINUOUS
10
6.844324763779527
20
-3.7965335433070866
11
6.8440259842519682
21
-3.7971311023622047
0
LINE
8
BLACK
6
CONTINUOUS
10
6.8467657086614171
20
-3.7799571653543307
11
6.8468237007874011
21
-3.779945590551181
0
LINE
8
BLACK
6
CONTINUOUS
10
6.8468237007874011
20
-3.779945590551181
11
6.8468731102362206
21
-3.7799785433070867
0
LINE
8
BLACK
6
CONTINUOUS
10
6.8468731102362206
20
-3.7799785433070867
11
6.8470464566929135
21
-3.7800130314960629
0
LINE
8
BLACK
6
CONTINUOUS
10
6.8470464566929135
20
-3.7800130314960629
11
6.8472896062992126
21
-3.7802561811023621
0
LINE
8
BLACK
6
CONTINUOUS
10
6.8472896062992126
20
-3.7802561811023621
11
6.847575787401575
21
-3.780446968503937
0
LINE
8
BLACK
6
CONTINUOUS
10
6.847575787401575
20
-3.780446968503937
11
6.8476435433070861
21
-3.7806101181102361
0
LINE
8
BLACK
6
CONTINUOUS
10
6.8476435433070861
20
-3.7806101181102361
11
6.8476856299212594
21
-3.7806522047244093
0
LINE
8
BLACK
6
CONTINUOUS
10
6.8476856299212594
20
-3.7806522047244093
11
6.8476856299212594
21
-3.7807113779527559
0
LINE
8
BLACK
6
CONTINUOUS
10
6.8476856299212594
20
-3.7807113779527559
11
6.8477525984251963
21
-3.780872598425197
0
LINE
8
BLACK
6
CONTINUOUS
10
6.8477525984251963
20
-3.780872598425197
11
6.849062519685039
21
-3.7874221653543305
0
LINE
8
BLACK
6
CONTINUOUS
10
6.849062519685039
20
-3.7874221653543305
11
6.8508150393700786
21
-3.7874221653543305
0
LINE
8
BLACK
6
CONTINUOUS
10
6.8508150393700786
20
-3.7874221653543305
11
6.8517133464566928
21
-3.786972992125984
0
LINE
8
BLACK
6
CONTINUOUS
10
6.8517133464566928
20
-3.786972992125984
11
6.8521624803149601
21
-3.7860747244094486
0
LINE
8
BLACK
6
CONTINUOUS
10
6.8521624803149601
20
-3.7860747244094486
11
6.8521624803149601
21
-3.7836327165354331
0
LINE
8
BLACK
6
CONTINUOUS
10
6.8521624803149601
20
-3.7836327165354331
11
6.8515372834645669
21
-3.7823822834645671
0
LINE
8
BLACK
6
CONTINUOUS
10
6.8515372834645669
20
-3.7823822834645671
11
6.8514155905511807
21
-3.7819377559055116
0
LINE
8
BLACK
6
CONTINUOUS
10
6.8514155905511807
20
-3.7819377559055116
11
6.8517014566929131
21
-3.7810802362204723
0
LINE
8
BLACK
6
CONTINUOUS
10
6.8517014566929131
20
-3.7810802362204723
11
6.8525100393700784
21
-3.7806759842519684
0
LINE
8
BLACK
6
CONTINUOUS
10
6.8525100393700784
20
-3.7806759842519684
11
6.8533675590551182
21
-3.7809618503937008
0
LINE
8
BLACK
6
CONTINUOUS
10
6.8533675590551182
20
-3.7809618503937008
11
6.8536501181102363
21
-3.7813259055118111
0
LINE
8
BLACK
6
CONTINUOUS
10
6.8536501181102363
20
-3.7813259055118111
11
6.8544
21
-3.7828257480314962
0
LINE
8
BLACK
6
CONTINUOUS
10
6.8544
20
-3.7828257480314962
11
6.8544155905511808
21
-3.7828827559055118
0
LINE
8
BLACK
6
CONTINUOUS
10
6.8544155905511808
20
-3.7828827559055118
11
6.8544347637795271
21
-3.7829019291338581
0
LINE
8
BLACK
6
CONTINUOUS
10
6.8544347637795271
20
-3.7829019291338581
11
6.8544716929133855
21
-3.7830877165354329
0
LINE
8
BLACK
6
CONTINUOUS
10
6.8544716929133855
20
-3.7830877165354329
11
6.8545216929133854
21
-3.7832702362204724
0
LINE
8
BLACK
6
CONTINUOUS
10
6.8545216929133854
20
-3.7832702362204724
11
6.85451311023622
21
-3.7832958661417324
0
LINE
8
BLACK
6
CONTINUOUS
10
6.85451311023622
20
-3.7832958661417324
11
6.8545246850393697
21
-3.7833539370078739
0
LINE
8
BLACK
6
CONTINUOUS
10
6.8545246850393697
20
-3.7833539370078739
11
6.8545246850393697
21
-3.7863535433070865
0
LINE
8
BLACK
6
CONTINUOUS
10
6.8545246850393697
20
-3.7863535433070865
11
6.85451311023622
21
-3.7864115748031497
0
LINE
8
BLACK
6
CONTINUOUS
10
6.85451311023622
20
-3.7864115748031497
11
6.8545216929133854
21
-3.786437244094488
0
LINE
8
BLACK
6
CONTINUOUS
10
6.8545216929133854
20
-3.786437244094488
11
6.8544716929133855
21
-3.7866197244094488
0
LINE
8
BLACK
6
CONTINUOUS
10
6.8544716929133855
20
-3.7866197244094488
11
6.8544347637795271
21
-3.7868055511811023
0
LINE
8
BLACK
6
CONTINUOUS
10
6.8544347637795271
20
-3.7868055511811023
11
6.8544155905511808
21
-3.7868246850393699
0
LINE
8
BLACK
6
CONTINUOUS
10
6.8544155905511808
20
-3.7868246850393699
11
6.8544
21
-3.7868817322834647
0
LINE
8
BLACK
6
CONTINUOUS
10
6.8544
20
-3.7868817322834647
11
6.8536501181102363
21
-3.788381535433071
0
LINE
8
BLACK
6
CONTINUOUS
10
6.8536501181102363
20
-3.788381535433071
11
6.8535059055118106
21
-3.7885673228346457
0
LINE
8
BLACK
6
CONTINUOUS
10
6.8535059055118106
20
-3.7885673228346457
11
6.853485984251968
21
-3.7886271653543306
0
LINE
8
BLACK
6
CONTINUOUS
10
6.853485984251968
20
-3.7886271653543306
11
6.8534193307086611
21
-3.7886788582677164
0
LINE
8
BLACK
6
CONTINUOUS
10
6.8534193307086611
20
-3.7886788582677164
11
6.8533675590551182
21
-3.7887456299212596
0
LINE
8
BLACK
6
CONTINUOUS
10
6.8533675590551182
20
-3.7887456299212596
11
6.8533076377952753
21
-3.788765590551181
0
LINE
8
BLACK
6
CONTINUOUS
10
6.8533076377952753
20
-3.788765590551181
11
6.8531219291338585
21
-3.7889097637795275
0
LINE
8
BLACK
6
CONTINUOUS
10
6.8531219291338585
20
-3.7889097637795275
11
6.8516220472440947
21
-3.78965968503937
0
LINE
8
BLACK
6
CONTINUOUS
10
6.8516220472440947
20
-3.78965968503937
11
6.8515649999999999
21
-3.7896752755905512
0
LINE
8
BLACK
6
CONTINUOUS
10
6.8515649999999999
20
-3.7896752755905512
11
6.8515458661417323
21
-3.7896944488188975
0
LINE
8
BLACK
6
CONTINUOUS
10
6.8515458661417323
20
-3.7896944488188975
11
6.8513600393700784
21
-3.7897313779527559
0
LINE
8
BLACK
6
CONTINUOUS
10
6.8513600393700784
20
-3.7897313779527559
11
6.8511775590551176
21
-3.7897813779527558
0
LINE
8
BLACK
6
CONTINUOUS
10
6.8511775590551176
20
-3.7897813779527558
11
6.8511518897637798
21
-3.7897727952755904
0
LINE
8
BLACK
6
CONTINUOUS
10
6.8511518897637798
20
-3.7897727952755904
11
6.8510938582677161
21
-3.7897843700787401
0
LINE
8
BLACK
6
CONTINUOUS
10
6.8510938582677161
20
-3.7897843700787401
11
6.8450946062992122
21
-3.7897843700787401
0
LINE
8
BLACK
6
CONTINUOUS
10
6.8450946062992122
20
-3.7897843700787401
11
6.8450366141732282
21
-3.7897728346456692
0
LINE
8
BLACK
6
CONTINUOUS
10
6.8450366141732282
20
-3.7897728346456692
11
6.8450109055118107
21
-3.7897814173228346
0
LINE
8
BLACK
6
CONTINUOUS
10
6.8450109055118107
20
-3.7897814173228346
11
6.844828070866142
21
-3.7897313385826772
0
LINE
8
BLACK
6
CONTINUOUS
10
6.844828070866142
20
-3.7897313385826772
11
6.8446425984251968
21
-3.7896944488188975
0
LINE
8
BLACK
6
CONTINUOUS
10
6.8446425984251968
20
-3.7896944488188975
11
6.8446234251968505
21
-3.7896752755905512
0
LINE
8
BLACK
6
CONTINUOUS
10
6.8446234251968505
20
-3.7896752755905512
11
6.8445664173228344
21
-3.78965968503937
0
LINE
8
BLACK
6
CONTINUOUS
10
6.8445664173228344
20
-3.78965968503937
11
6.8430665748031494
21
-3.7889097637795275
0
LINE
8
BLACK
6
CONTINUOUS
10
6.8430665748031494
20
-3.7889097637795275
11
6.842880826771653
21
-3.7887655511811023
0
LINE
8
BLACK
6
CONTINUOUS
10
6.842880826771653
20
-3.7887655511811023
11
6.8428209842519685
21
-3.7887456299212596
0
LINE
8
BLACK
6
CONTINUOUS
10
6.8428209842519685
20
-3.7887456299212596
11
6.8427692125984247
21
-3.7886788976377952
0
LINE
8
BLACK
6
CONTINUOUS
10
6.8427692125984247
20
-3.7886788976377952
11
6.8427025196850391
21
-3.7886271653543306
0
LINE
8
BLACK
6
CONTINUOUS
10
6.8427025196850391
20
-3.7886271653543306
11
6.8426825590551177
21
-3.7885673228346457
0
LINE
8
BLACK
6
CONTINUOUS
10
6.8426825590551177
20
-3.7885673228346457
11
6.8425383858267717
21
-3.7883815748031493
0
LINE
8
BLACK
6
CONTINUOUS
10
6.8425383858267717
20
-3.7883815748031493
11
6.8417884645669291
21
-3.786881771653543
0
LINE
8
BLACK
6
CONTINUOUS
10
6.8417884645669291
20
-3.786881771653543
11
6.8417728346456688
21
-3.7868246850393699
0
LINE
8
BLACK
6
CONTINUOUS
10
6.8417728346456688
20
-3.7868246850393699
11
6.8417537007874012
21
-3.7868055511811023
0
LINE
8
BLACK
6
CONTINUOUS
10
6.8417537007874012
20
-3.7868055511811023
11
6.841716732283464
21
-3.7866197637795276
0
LINE
8
BLACK
6
CONTINUOUS
10
6.841716732283464
20
-3.7866197637795276
11
6.8416667716535429
21
-3.786437244094488
0
LINE
8
BLACK
6
CONTINUOUS
10
6.8416667716535429
20
-3.786437244094488
11
6.8416753149606295
21
-3.7864115748031497
0
LINE
8
BLACK
6
CONTINUOUS
10
6.8416753149606295
20
-3.7864115748031497
11
6.8416637795275586
21
-3.7863535433070865
0
LINE
8
BLACK
6
CONTINUOUS
10
6.8416637795275586
20
-3.7863535433070865
11
6.8416637795275586
21
-3.7833539370078739
0
LINE
8
BLACK
6
CONTINUOUS
10
6.8416637795275586
20
-3.7833539370078739
11
6.8416753149606295
21
-3.7832958661417324
0
LINE
8
BLACK
6
CONTINUOUS
10
6.8416753149606295
20
-3.7832958661417324
11
6.8416667716535429
21
-3.7832702362204724
0
LINE
8
BLACK
6
CONTINUOUS
10
6.8416667716535429
20
-3.7832702362204724
11
6.841716732283464
21
-3.7830877165354329
0
LINE
8
BLACK
6
CONTINUOUS
10
6.841716732283464
20
-3.7830877165354329
11
6.8417537007874012
21
-3.7829019291338581
0
LINE
8
BLACK
6
CONTINUOUS
10
6.8417537007874012
20
-3.7829019291338581
11
6.8417728346456688
21
-3.7828827559055118
0
LINE
8
BLACK
6
CONTINUOUS
10
6.8417728346456688
20
-3.7828827559055118
11
6.8417884645669291
21
-3.7828257480314962
0
LINE
8
BLACK
6
CONTINUOUS
10
6.8417884645669291
20
-3.7828257480314962
11
6.8425383858267717
21
-3.7813258661417324
0
LINE
8
BLACK
6
CONTINUOUS
10
6.8425383858267717
20
-3.7813258661417324
11
6.8426825196850389
21
-3.781140118110236
0
LINE
8
BLACK
6
CONTINUOUS
10
6.8426825196850389
20
-3.781140118110236
11
6.8427025196850391
21
-3.7810802362204723
0
LINE
8
BLACK
6
CONTINUOUS
10
6.8427025196850391
20
-3.7810802362204723
11
6.8427692519685035
21
-3.7810284251968502
0
LINE
8
BLACK
6
CONTINUOUS
10
6.8427692519685035
20
-3.7810284251968502
11
6.8428209842519685
21
-3.7809618110236221
0
LINE
8
BLACK
6
CONTINUOUS
10
6.8428209842519685
20
-3.7809618110236221
11
6.8428807874015742
21
-3.7809418503937007
0
LINE
8
BLACK
6
CONTINUOUS
10
6.8428807874015742
20
-3.7809418503937007
11
6.8430666141732281
21
-3.7807976771653542
0
LINE
8
BLACK
6
CONTINUOUS
10
6.8430666141732281
20
-3.7807976771653542
11
6.8445664173228344
21
-3.7800477952755904
0
LINE
8
BLACK
6
CONTINUOUS
10
6.8445664173228344
20
-3.7800477952755904
11
6.8446234251968505
21
-3.7800321653543305
0
LINE
8
BLACK
6
CONTINUOUS
10
6.8446234251968505
20
-3.7800321653543305
11
6.8446425984251968
21
-3.7800130314960629
0
LINE
8
BLACK
6
CONTINUOUS
10
6.8446425984251968
20
-3.7800130314960629
11
6.8448283858267711
21
-3.7799760629921257
0
LINE
8
BLACK
6
CONTINUOUS
10
6.8448283858267711
20
-3.7799760629921257
11
6.8450109055118107
21
-3.7799261023622046
0
LINE
8
BLACK
6
CONTINUOUS
10
6.8450109055118107
20
-3.7799261023622046
11
6.8450365354330707
21
-3.7799346456692913
0
LINE
8
BLACK
6
CONTINUOUS
10
6.8450365354330707
20
-3.7799346456692913
11
6.8450946062992122
21
-3.7799231102362203
0
LINE
8
BLACK
6
CONTINUOUS
10
6.8450946062992122
20
-3.7799231102362203
11
6.8465944488188972
21
-3.7799231102362203
0
LINE
8
BLACK
6
CONTINUOUS
10
6.8465944488188972
20
-3.7799231102362203
11
6.8467657086614171
21
-3.7799571653543307
0
LINE
8
BLACK
6
CONTINUOUS
10
6.8444751181102363
20
-3.7827344094488189
11
6.8440259842519682
21
-3.7836327559055118
0
LINE
8
BLACK
6
CONTINUOUS
10
6.8440259842519682
20
-3.7836327559055118
11
6.8440259842519682
21
-3.7860746850393698
0
LINE
8
BLACK
6
CONTINUOUS
10
6.8440259842519682
20
-3.7860746850393698
11
6.8444751181102363
21
-3.7869729527559053
0
LINE
8
BLACK
6
CONTINUOUS
10
6.8444751181102363
20
-3.7869729527559053
11
6.8453734645669293
21
-3.7874221653543305
0
LINE
8
BLACK
6
CONTINUOUS
10
6.8453734645669293
20
-3.7874221653543305
11
6.8466535433070863
21
-3.7874221653543305
0
LINE
8
BLACK
6
CONTINUOUS
10
6.8466535433070863
20
-3.7874221653543305
11
6.8456261811023618
21
-3.7822853149606299
0
LINE
8
BLACK
6
CONTINUOUS
10
6.8456261811023618
20
-3.7822853149606299
11
6.8453734251968505
21
-3.7822853149606299
0
LINE
8
BLACK
6
CONTINUOUS
10
6.8453734251968505
20
-3.7822853149606299
11
6.8444751181102363
21
-3.7827344094488189
0
LINE
8
BLACK
6
CONTINUOUS
10
6.9090233858267718
20
-3.1014514173228345
11
6.9091732283464564
21
-3.1022047244094488
0
LINE
8
BLACK
6
CONTINUOUS
10
6.9091732283464564
20
-3.1022047244094488
11
6.9091732283464564
21
-3.3876377952755905
0
LINE
8
BLACK
6
CONTINUOUS
10
6.9091732283464564
20
-3.3876377952755905
11
6.9090233858267718
21
-3.3883911023622049
0
LINE
8
BLACK
6
CONTINUOUS
10
6.9090233858267718
20
-3.3883911023622049
11
6.9079580314960625
21
-3.3894564566929133
0
LINE
8
BLACK
6
CONTINUOUS
10
6.9079580314960625
20
-3.3894564566929133
11
6.9064514173228346
21
-3.3894564566929133
0
LINE
8
BLACK
6
CONTINUOUS
10
6.9064514173228346
20
-3.3894564566929133
11
6.9053860629921262
21
-3.3883911023622049
0
LINE
8
BLACK
6
CONTINUOUS
10
6.9053860629921262
20
-3.3883911023622049
11
6.9052362204724407
21
-3.3876377952755905
0
LINE
8
BLACK
6
CONTINUOUS
10
6.9052362204724407
20
-3.3876377952755905
11
6.9052362204724407
21
-3.1022047244094488
0
LINE
8
BLACK
6
CONTINUOUS
10
6.9052362204724407
20
-3.1022047244094488
11
6.9053860629921262
21
-3.1014514173228345
0
LINE
8
BLACK
6
CONTINUOUS
10
6.9053860629921262
20
-3.1014514173228345
11
6.9064514173228346
21
-3.100386062992126
0
LINE
8
BLACK
6
CONTINUOUS
10
6.9064514173228346
20
-3.100386062992126
11
6.9079580314960625
21
-3.100386062992126
0
LINE
8
BLACK
6
CONTINUOUS
10
6.9079580314960625
20
-3.100386062992126
11
6.9090233858267718
21
-3.1014514173228345
0
LINE
8
BLACK
6
CONTINUOUS
10
6.842902913385827
20
-3.2883711023622046
11
6.8429285826771649
21
-3.288362559055118
0
LINE
8
BLACK
6
CONTINUOUS
10
6.8429285826771649
20
-3.288362559055118
11
6.8431110629921257
21
-3.2884125196850391
0
LINE
8
BLACK
6
CONTINUOUS
10
6.8431110629921257
20
-3.2884125196850391
11
6.8432968897637796
21
-3.2884494881889763
0
LINE
8
BLACK
6
CONTINUOUS
10
6.8432968897637796
20
-3.2884494881889763
11
6.8433160236220472
21
-3.2884686220472439
0
LINE
8
BLACK
6
CONTINUOUS
10
6.8433160236220472
20
-3.2884686220472439
11
6.843373070866142
21
-3.2884842519685038
0
LINE
8
BLACK
6
CONTINUOUS
10
6.843373070866142
20
-3.2884842519685038
11
6.8448729527559058
21
-3.2892341732283463
0
LINE
8
BLACK
6
CONTINUOUS
10
6.8448729527559058
20
-3.2892341732283463
11
6.8450226771653542
21
-3.2893503937007873
0
LINE
8
BLACK
6
CONTINUOUS
10
6.8450226771653542
20
-3.2893503937007873
11
6.8451798818897638
21
-3.2894554330708661
0
LINE
8
BLACK
6
CONTINUOUS
10
6.8451798818897638
20
-3.2894554330708661
11
6.8459298031496063
21
-3.2902053149606298
0
LINE
8
BLACK
6
CONTINUOUS
10
6.8459298031496063
20
-3.2902053149606298
11
6.8460350393700784
21
-3.290362834645669
0
LINE
8
BLACK
6
CONTINUOUS
10
6.8460350393700784
20
-3.290362834645669
11
6.8461510236220473
21
-3.2905122440944883
0
LINE
8
BLACK
6
CONTINUOUS
10
6.8461510236220473
20
-3.2905122440944883
11
6.8469009448818898
21
-3.2920120866141733
0
LINE
8
BLACK
6
CONTINUOUS
10
6.8469009448818898
20
-3.2920120866141733
11
6.8469165354330705
21
-3.292069094488189
0
LINE
8
BLACK
6
CONTINUOUS
10
6.8469165354330705
20
-3.292069094488189
11
6.8469357086614169
21
-3.2920882677165353
0
LINE
8
BLACK
6
CONTINUOUS
10
6.8469357086614169
20
-3.2920882677165353
11
6.8469725984251966
21
-3.2922737401574804
0
LINE
8
BLACK
6
CONTINUOUS
10
6.8469725984251966
20
-3.2922737401574804
11
6.847022677165354
21
-3.2924565748031496
0
LINE
8
BLACK
6
CONTINUOUS
10
6.847022677165354
20
-3.2924565748031496
11
6.8470140944881885
21
-3.2924822834645671
0
LINE
8
BLACK
6
CONTINUOUS
10
6.8470140944881885
20
-3.2924822834645671
11
6.8470256299212595
21
-3.2925402755905511
0
LINE
8
BLACK
6
CONTINUOUS
10
6.8470256299212595
20
-3.2925402755905511
11
6.8470256299212595
21
-3.2973584251968502
0
LINE
8
BLACK
6
CONTINUOUS
10
6.8470256299212595
20
-3.2973584251968502
11
6.8533435826771649
21
-3.2973584251968502
0
LINE
8
BLACK
6
CONTINUOUS
10
6.8533435826771649
20
-3.2973584251968502
11
6.8537955905511811
21
-3.2974483464566928
0
LINE
8
BLACK
6
CONTINUOUS
10
6.8537955905511811
20
-3.2974483464566928
11
6.8544347637795271
21
-3.2980875196850392
0
LINE
8
BLACK
6
CONTINUOUS
10
6.8544347637795271
20
-3.2980875196850392
11
6.8544347637795271
21
-3.2989915354330708
0
LINE
8
BLACK
6
CONTINUOUS
10
6.8544347637795271
20
-3.2989915354330708
11
6.8537955905511811
21
-3.2996307086614172
0
LINE
8
BLACK
6
CONTINUOUS
10
6.8537955905511811
20
-3.2996307086614172
11
6.8533435826771649
21
-3.2997206299212598
0
LINE
8
BLACK
6
CONTINUOUS
10
6.8533435826771649
20
-3.2997206299212598
11
6.837595551181102
21
-3.2997206299212598
0
LINE
8
BLACK
6
CONTINUOUS
10
6.837595551181102
20
-3.2997206299212598
11
6.8371435433070866
21
-3.2996307086614172
0
LINE
8
BLACK
6
CONTINUOUS
10
6.8371435433070866
20
-3.2996307086614172
11
6.8365043700787398
21
-3.2989915354330708
0
LINE
8
BLACK
6
CONTINUOUS
10
6.8365043700787398
20
-3.2989915354330708
11
6.8364144488188971
21
-3.298539527559055
0
LINE
8
BLACK
6
CONTINUOUS
10
6.8364144488188971
20
-3.298539527559055
11
6.8364144488188971
21
-3.2925402755905511
0
LINE
8
BLACK
6
CONTINUOUS
10
6.8364144488188971
20
-3.2925402755905511
11
6.8364259842519681
21
-3.2924822047244096
0
LINE
8
BLACK
6
CONTINUOUS
10
6.8364259842519681
20
-3.2924822047244096
11
6.8364174409448815
21
-3.2924565748031496
0
LINE
8
BLACK
6
CONTINUOUS
10
6.8364174409448815
20
-3.2924565748031496
11
6.8364674015748026
21
-3.2922740157480312
0
LINE
8
BLACK
6
CONTINUOUS
10
6.8364674015748026
20
-3.2922740157480312
11
6.8365043700787398
21
-3.2920882677165353
0
LINE
8
BLACK
6
CONTINUOUS
10
6.8365043700787398
20
-3.2920882677165353
11
6.8365235039370074
21
-3.292069094488189
0
LINE
8
BLACK
6
CONTINUOUS
10
6.8365235039370074
20
-3.292069094488189
11
6.8365391338582677
21
-3.2920120472440946
0
LINE
8
BLACK
6
CONTINUOUS
10
6.8365391338582677
20
-3.2920120472440946
11
6.8372890551181102
21
-3.2905122440944883
0
LINE
8
BLACK
6
CONTINUOUS
10
6.8372890551181102
20
-3.2905122440944883
11
6.8374052755905508
21
-3.2903624803149607
0
LINE
8
BLACK
6
CONTINUOUS
10
6.8374052755905508
20
-3.2903624803149607
11
6.83751031496063
21
-3.2902053149606298
0
LINE
8
BLACK
6
CONTINUOUS
10
6.83751031496063
20
-3.2902053149606298
11
6.8382601968503938
21
-3.2894553937007873
0
LINE
8
BLACK
6
CONTINUOUS
10
6.8382601968503938
20
-3.2894553937007873
11
6.8384179133858263
21
-3.2893499999999998
0
LINE
8
BLACK
6
CONTINUOUS
10
6.8384179133858263
20
-3.2893499999999998
11
6.8385671653543305
21
-3.2892341732283463
0
LINE
8
BLACK
6
CONTINUOUS
10
6.8385671653543305
20
-3.2892341732283463
11
6.8400670078740156
21
-3.2884842519685038
0
LINE
8
BLACK
6
CONTINUOUS
10
6.8400670078740156
20
-3.2884842519685038
11
6.8401240157480316
21
-3.2884686220472439
0
LINE
8
BLACK
6
CONTINUOUS
10
6.8401240157480316
20
-3.2884686220472439
11
6.840143188976378
21
-3.2884494881889763
0
LINE
8
BLACK
6
CONTINUOUS
10
6.840143188976378
20
-3.2884494881889763
11
6.8403286614173231
21
-3.2884125590551179
0
LINE
8
BLACK
6
CONTINUOUS
10
6.8403286614173231
20
-3.2884125590551179
11
6.8405114960629918
21
-3.2883625196850392
0
LINE
8
BLACK
6
CONTINUOUS
10
6.8405114960629918
20
-3.2883625196850392
11
6.8405372047244093
21
-3.2883710629921259
0
LINE
8
BLACK
6
CONTINUOUS
10
6.8405372047244093
20
-3.2883710629921259
11
6.8405951968503933
21
-3.2883595669291337
0
LINE
8
BLACK
6
CONTINUOUS
10
6.8405951968503933
20
-3.2883595669291337
11
6.8428448818897634
21
-3.2883595669291337
0
LINE
8
BLACK
6
CONTINUOUS
10
6.8428448818897634
20
-3.2883595669291337
11
6.842902913385827
21
-3.2883711023622046
0
LINE
8
BLACK
6
CONTINUOUS
10
6.8397949999999996
20
-3.2912612598425195
11
6.839316141732283
21
-3.2917400787401574
0
LINE
8
BLACK
6
CONTINUOUS
10
6.839316141732283
20
-3.2917400787401574
11
6.8387766535433068
21
-3.2928191338582677
0
LINE
8
BLACK
6
CONTINUOUS
10
6.8387766535433068
20
-3.2928191338582677
11
6.8387766535433068
21
-3.2973584251968502
0
LINE
8
BLACK
6
CONTINUOUS
10
6.8387766535433068
20
-3.2973584251968502
11
6.8446634251968499
21
-3.2973584251968502
0
LINE
8
BLACK
6
CONTINUOUS
10
6.8446634251968499
20
-3.2973584251968502
11
6.8446634251968499
21
-3.2928191338582677
0
LINE
8
BLACK
6
CONTINUOUS
10
6.8446634251968499
20
-3.2928191338582677
11
6.8441238582677162
21
-3.2917400787401574
0
LINE
8
BLACK
6
CONTINUOUS
10
6.8441238582677162
20
-3.2917400787401574
11
6.843645078740157
21
-3.2912612598425195
0
LINE
8
BLACK
6
CONTINUOUS
10
6.843645078740157
20
-3.2912612598425195
11
6.8425660629921259
21
-3.2907217716535433
0
LINE
8
BLACK
6
CONTINUOUS
10
6.8425660629921259
20
-3.2907217716535433
11
6.8408740551181104
21
-3.2907217716535433
0
LINE
8
BLACK
6
CONTINUOUS
10
6.8408740551181104
20
-3.2907217716535433
11
6.8397949999999996
21
-3.2912612598425195
0
LINE
8
BLACK
6
CONTINUOUS
10
6.8401865354330704
20
-3.2733406692913385
11
6.8401865748031492
21
-3.2742445669291338
0
LINE
8
BLACK
6
CONTINUOUS
10
6.8401865748031492
20
-3.2742445669291338
11
6.8399305511811024
21
-3.2746277952755904
0
LINE
8
BLACK
6
CONTINUOUS
10
6.8399305511811024
20
-3.2746277952755904
11
6.8393777559055113
21
-3.275180590551181
0
LINE
8
BLACK
6
CONTINUOUS
10
6.8393777559055113
20
-3.275180590551181
11
6.8387766535433068
21
-3.2769838582677164
0
LINE
8
BLACK
6
CONTINUOUS
10
6.8387766535433068
20
-3.2769838582677164
11
6.8387766535433068
21
-3.2781004330708661
0
LINE
8
BLACK
6
CONTINUOUS
10
6.8387766535433068
20
-3.2781004330708661
11
6.8393777559055113
21
-3.279903779527559
0
LINE
8
BLACK
6
CONTINUOUS
10
6.8393777559055113
20
-3.279903779527559
11
6.8405449212598421
21
-3.281070905511811
0
LINE
8
BLACK
6
CONTINUOUS
10
6.8405449212598421
20
-3.281070905511811
11
6.8417573228346455
21
-3.2816770866141733
0
LINE
8
BLACK
6
CONTINUOUS
10
6.8417573228346455
20
-3.2816770866141733
11
6.844490078740157
21
-3.2823603149606297
0
LINE
8
BLACK
6
CONTINUOUS
10
6.844490078740157
20
-3.2823603149606297
11
6.8464490944881886
21
-3.2823603149606297
0
LINE
8
BLACK
6
CONTINUOUS
10
6.8464490944881886
20
-3.2823603149606297
11
6.8491817716535435
21
-3.2816771259842521
0
LINE
8
BLACK
6
CONTINUOUS
10
6.8491817716535435
20
-3.2816771259842521
11
6.8503942519685035
21
-3.2810708661417323
0
LINE
8
BLACK
6
CONTINUOUS
10
6.8503942519685035
20
-3.2810708661417323
11
6.851561299212598
21
-3.2799038188976377
0
LINE
8
BLACK
6
CONTINUOUS
10
6.851561299212598
20
-3.2799038188976377
11
6.8521624803149601
21
-3.2781003543307086
0
LINE
8
BLACK
6
CONTINUOUS
10
6.8521624803149601
20
-3.2781003543307086
11
6.8521624803149601
21
-3.2769839370078739
0
LINE
8
BLACK
6
CONTINUOUS
10
6.8521624803149601
20
-3.2769839370078739
11
6.851561299212598
21
-3.2751804724409448
0
LINE
8
BLACK
6
CONTINUOUS
10
6.851561299212598
20
-3.2751804724409448
11
6.8510086220472441
21
-3.2746277952755904
0
LINE
8
BLACK
6
CONTINUOUS
10
6.8510086220472441
20
-3.2746277952755904
11
6.8507525984251965
21
-3.2742446062992125
0
LINE
8
BLACK
6
CONTINUOUS
10
6.8507525984251965
20
-3.2742446062992125
11
6.8507525984251965
21
-3.2733406692913385
0
LINE
8
BLACK
6
CONTINUOUS
10
6.8507525984251965
20
-3.2733406692913385
11
6.851391811023622
21
-3.2727014566929133
0
LINE
8
BLACK
6
CONTINUOUS
10
6.851391811023622
20
-3.2727014566929133
11
6.8522957480314961
21
-3.2727014566929133
0
LINE
8
BLACK
6
CONTINUOUS
10
6.8522957480314961
20
-3.2727014566929133
11
6.852678937007874
21
-3.2729574803149606
0
LINE
8
BLACK
6
CONTINUOUS
10
6.852678937007874
20
-3.2729574803149606
11
6.8534288582677165
21
-3.2737074015748031
0
LINE
8
BLACK
6
CONTINUOUS
10
6.8534288582677165
20
-3.2737074015748031
11
6.8534616929133856
21
-3.2737565748031496
0
LINE
8
BLACK
6
CONTINUOUS
10
6.8534616929133856
20
-3.2737565748031496
11
6.8534859448818892
21
-3.2737687007874015
0
LINE
8
BLACK
6
CONTINUOUS
10
6.8534859448818892
20
-3.2737687007874015
11
6.8535796456692912
21
-3.2739330708661418
0
LINE
8
BLACK
6
CONTINUOUS
10
6.8535796456692912
20
-3.2739330708661418
11
6.8536849212598421
21
-3.274090590551181
0
LINE
8
BLACK
6
CONTINUOUS
10
6.8536849212598421
20
-3.274090590551181
11
6.8536849212598421
21
-3.2741176771653544
0
LINE
8
BLACK
6
CONTINUOUS
10
6.8536849212598421
20
-3.2741176771653544
11
6.8537142125984252
21
-3.2741690551181102
0
LINE
8
BLACK
6
CONTINUOUS
10
6.8537142125984252
20
-3.2741690551181102
11
6.8544640944881889
21
-3.2764187401574802
0
LINE
8
BLACK
6
CONTINUOUS
10
6.8544640944881889
20
-3.2764187401574802
11
6.8544877559055113
21
-3.2766066141732284
0
LINE
8
BLACK
6
CONTINUOUS
10
6.8544877559055113
20
-3.2766066141732284
11
6.8545246850393697
21
-3.2767922440944881
0
LINE
8
BLACK
6
CONTINUOUS
10
6.8545246850393697
20
-3.2767922440944881
11
6.8545246850393697
21
-3.2782920866141732
0
LINE
8
BLACK
6
CONTINUOUS
10
6.8545246850393697
20
-3.2782920866141732
11
6.8544877165354325
21
-3.2784777165354329
0
LINE
8
BLACK
6
CONTINUOUS
10
6.8544877165354325
20
-3.2784777165354329
11
6.8544640944881889
21
-3.2786655511811023
0
LINE
8
BLACK
6
CONTINUOUS
10
6.8544640944881889
20
-3.2786655511811023
11
6.8537142125984252
21
-3.2809153149606298
0
LINE
8
BLACK
6
CONTINUOUS
10
6.8537142125984252
20
-3.2809153149606298
11
6.8536848818897633
21
-3.2809667322834644
0
LINE
8
BLACK
6
CONTINUOUS
10
6.8536848818897633
20
-3.2809667322834644
11
6.8536848818897633
21
-3.280993779527559
0
LINE
8
BLACK
6
CONTINUOUS
10
6.8536848818897633
20
-3.280993779527559
11
6.8535797244094487
21
-3.2811511417322832
0
LINE
8
BLACK
6
CONTINUOUS
10
6.8535797244094487
20
-3.2811511417322832
11
6.8534859448818892
21
-3.2813156692913386
0
LINE
8
BLACK
6
CONTINUOUS
10
6.8534859448818892
20
-3.2813156692913386
11
6.8534617322834643
21
-3.2813277559055116
0
LINE
8
BLACK
6
CONTINUOUS
10
6.8534617322834643
20
-3.2813277559055116
11
6.8534288582677165
21
-3.2813770078740156
0
LINE
8
BLACK
6
CONTINUOUS
10
6.8534288582677165
20
-3.2813770078740156
11
6.8519290157480315
21
-3.2828767716535432
0
LINE
8
BLACK
6
CONTINUOUS
10
6.8519290157480315
20
-3.2828767716535432
11
6.8517715354330706
21
-3.282981968503937
0
LINE
8
BLACK
6
CONTINUOUS
10
6.8517715354330706
20
-3.282981968503937
11
6.8516220472440947
21
-3.2830980314960629
0
LINE
8
BLACK
6
CONTINUOUS
10
6.8516220472440947
20
-3.2830980314960629
11
6.8501222440944884
21
-3.2838479133858267
0
LINE
8
BLACK
6
CONTINUOUS
10
6.8501222440944884
20
-3.2838479133858267
11
6.8499974409448816
21
-3.2838820472440946
0
LINE
8
BLACK
6
CONTINUOUS
10
6.8499974409448816
20
-3.2838820472440946
11
6.8498805118110235
21
-3.2839373228346456
0
LINE
8
BLACK
6
CONTINUOUS
10
6.8498805118110235
20
-3.2839373228346456
11
6.8468809055118109
21
-3.2846872440944881
0
LINE
8
BLACK
6
CONTINUOUS
10
6.8468809055118109
20
-3.2846872440944881
11
6.8467364173228349
21
-3.2846942519685038
0
LINE
8
BLACK
6
CONTINUOUS
10
6.8467364173228349
20
-3.2846942519685038
11
6.8465944488188972
21
-3.2847225196850394
0
LINE
8
BLACK
6
CONTINUOUS
10
6.8465944488188972
20
-3.2847225196850394
11
6.8443447244094484
21
-3.2847225196850394
0
LINE
8
BLACK
6
CONTINUOUS
10
6.8443447244094484
20
-3.2847225196850394
11
6.8442027165354329
21
-3.2846942519685038
0
LINE
8
BLACK
6
CONTINUOUS
10
6.8442027165354329
20
-3.2846942519685038
11
6.8440582677165356
21
-3.2846872440944881
0
LINE
8
BLACK
6
CONTINUOUS
10
6.8440582677165356
20
-3.2846872440944881
11
6.8410586220472442
21
-3.2839373228346456
0
LINE
8
BLACK
6
CONTINUOUS
10
6.8410586220472442
20
-3.2839373228346456
11
6.8409416535433065
21
-3.2838820472440946
0
LINE
8
BLACK
6
CONTINUOUS
10
6.8409416535433065
20
-3.2838820472440946
11
6.8408168897637793
21
-3.2838479133858267
0
LINE
8
BLACK
6
CONTINUOUS
10
6.8408168897637793
20
-3.2838479133858267
11
6.839317086614173
21
-3.2830980314960629
0
LINE
8
BLACK
6
CONTINUOUS
10
6.839317086614173
20
-3.2830980314960629
11
6.8391674409448822
21
-3.2829818897637795
0
LINE
8
BLACK
6
CONTINUOUS
10
6.8391674409448822
20
-3.2829818897637795
11
6.8390100787401575
21
-3.2828767716535432
0
LINE
8
BLACK
6
CONTINUOUS
10
6.8390100787401575
20
-3.2828767716535432
11
6.83751031496063
21
-3.2813769685039369
0
LINE
8
BLACK
6
CONTINUOUS
10
6.83751031496063
20
-3.2813769685039369
11
6.8374774409448813
21
-3.2813277559055116
0
LINE
8
BLACK
6
CONTINUOUS
10
6.8374774409448813
20
-3.2813277559055116
11
6.8374532283464564
21
-3.2813156692913386
0
LINE
8
BLACK
6
CONTINUOUS
10
6.8374532283464564
20
-3.2813156692913386
11
6.8373594488188978
21
-3.2811511811023619
0
LINE
8
BLACK
6
CONTINUOUS
10
6.8373594488188978
20
-3.2811511811023619
11
6.8372542913385823
21
-3.280993779527559
0
LINE
8
BLACK
6
CONTINUOUS
10
6.8372542913385823
20
-3.280993779527559
11
6.8372542913385823
21
-3.2809666929133856
0
LINE
8
BLACK
6
CONTINUOUS
10
6.8372542913385823
20
-3.2809666929133856
11
6.8372250000000001
21
-3.2809153149606298
0
LINE
8
BLACK
6
CONTINUOUS
10
6.8372250000000001
20
-3.2809153149606298
11
6.8364750787401576
21
-3.278665590551181
0
LINE
8
BLACK
6
CONTINUOUS
10
6.8364750787401576
20
-3.278665590551181
11
6.8364514173228343
21
-3.2784779527559054
0
LINE
8
BLACK
6
CONTINUOUS
10
6.8364514173228343
20
-3.2784779527559054
11
6.8364144488188971
21
-3.2782920866141732
0
LINE
8
BLACK
6
CONTINUOUS
10
6.8364144488188971
20
-3.2782920866141732
11
6.8364144488188971
21
-3.2767922440944881
0
LINE
8
BLACK
6
CONTINUOUS
10
6.8364144488188971
20
-3.2767922440944881
11
6.8364514173228343
21
-3.2766063385826771
0
LINE
8
BLACK
6
CONTINUOUS
10
6.8364514173228343
20
-3.2766063385826771
11
6.8364750787401576
21
-3.2764187401574802
0
LINE
8
BLACK
6
CONTINUOUS
10
6.8364750787401576
20
-3.2764187401574802
11
6.8372250000000001
21
-3.2741690551181102
0
LINE
8
BLACK
6
CONTINUOUS
10
6.8372250000000001
20
-3.2741690551181102
11
6.8372542519685036
21
-3.2741177165354332
0
LINE
8
BLACK
6
CONTINUOUS
10
6.8372542519685036
20
-3.2741177165354332
11
6.8372542519685036
21
-3.2740906299212598
0
LINE
8
BLACK
6
CONTINUOUS
10
6.8372542519685036
20
-3.2740906299212598
11
6.8373596062992128
21
-3.2739329133858268
0
LINE
8
BLACK
6
CONTINUOUS
10
6.8373596062992128
20
-3.2739329133858268
11
6.8374532283464564
21
-3.2737687007874015
0
LINE
8
BLACK
6
CONTINUOUS
10
6.8374532283464564
20
-3.2737687007874015
11
6.8374773622047247
21
-3.2737566141732284
0
LINE
8
BLACK
6
CONTINUOUS
10
6.8374773622047247
20
-3.2737566141732284
11
6.8375102755905512
21
-3.2737074015748031
0
LINE
8
BLACK
6
CONTINUOUS
10
6.8375102755905512
20
-3.2737074015748031
11
6.838260157480315
21
-3.2729575196850393
0
LINE
8
BLACK
6
CONTINUOUS
10
6.838260157480315
20
-3.2729575196850393
11
6.8386433464566929
21
-3.2727014566929133
0
LINE
8
BLACK
6
CONTINUOUS
10
6.8386433464566929
20
-3.2727014566929133
11
6.839547283464567
21
-3.2727014173228346
0
LINE
8
BLACK
6
CONTINUOUS
10
6.839547283464567
20
-3.2727014173228346
11
6.8401865354330704
21
-3.2733406692913385
0
LINE
8
BLACK
6
CONTINUOUS
10
6.850402007874016
20
-3.2568750393700787
11
6.8504276771653538
21
-3.2568664960629921
0
LINE
8
BLACK
6
CONTINUOUS
10
6.8504276771653538
20
-3.2568664960629921
11
6.8506101968503934
21
-3.2569164566929132
0
LINE
8
BLACK
6
CONTINUOUS
10
6.8506101968503934
20
-3.2569164566929132
11
6.8507959842519686
21
-3.2569534251968504
0
LINE
8
BLACK
6
CONTINUOUS
10
6.8507959842519686
20
-3.2569534251968504
11
6.8508151181102361
21
-3.256972559055118
0
LINE
8
BLACK
6
CONTINUOUS
10
6.8508151181102361
20
-3.256972559055118
11
6.8508722047244097
21
-3.2569881889763779
0
LINE
8
BLACK
6
CONTINUOUS
10
6.8508722047244097
20
-3.2569881889763779
11
6.852372007874016
21
-3.2577381102362204
0
LINE
8
BLACK
6
CONTINUOUS
10
6.852372007874016
20
-3.2577381102362204
11
6.8525214566929131
21
-3.2578541338582676
0
LINE
8
BLACK
6
CONTINUOUS
10
6.8525214566929131
20
-3.2578541338582676
11
6.852678937007874
21
-3.2579593307086614
0
LINE
8
BLACK
6
CONTINUOUS
10
6.852678937007874
20
-3.2579593307086614
11
6.8534288188976378
21
-3.2587092125984252
0
LINE
8
BLACK
6
CONTINUOUS
10
6.8534288188976378
20
-3.2587092125984252
11
6.8535338976377949
21
-3.2588664566929135
0
LINE
8
BLACK
6
CONTINUOUS
10
6.8535338976377949
20
-3.2588664566929135
11
6.8536501181102363
21
-3.2590162204724407
0
LINE
8
BLACK
6
CONTINUOUS
10
6.8536501181102363
20
-3.2590162204724407
11
6.8544
21
-3.260516023622047
0
LINE
8
BLACK
6
CONTINUOUS
10
6.8544
20
-3.260516023622047
11
6.8544155905511808
21
-3.260573031496063
0
LINE
8
BLACK
6
CONTINUOUS
10
6.8544155905511808
20
-3.260573031496063
11
6.8544347637795271
21
-3.2605922047244094
0
LINE
8
BLACK
6
CONTINUOUS
10
6.8544347637795271
20
-3.2605922047244094
11
6.8544716929133855
21
-3.2607779921259841
0
LINE
8
BLACK
6
CONTINUOUS
10
6.8544716929133855
20
-3.2607779921259841
11
6.8545216929133854
21
-3.2609605118110236
0
LINE
8
BLACK
6
CONTINUOUS
10
6.8545216929133854
20
-3.2609605118110236
11
6.85451311023622
21
-3.2609861417322832
0
LINE
8
BLACK
6
CONTINUOUS
10
6.85451311023622
20
-3.2609861417322832
11
6.8545246850393697
21
-3.2610442125984251
0
LINE
8
BLACK
6
CONTINUOUS
10
6.8545246850393697
20
-3.2610442125984251
11
6.8545246850393697
21
-3.2670434645669291
0
LINE
8
BLACK
6
CONTINUOUS
10
6.8545246850393697
20
-3.2670434645669291
11
6.8544347637795271
21
-3.2674954724409448
0
LINE
8
BLACK
6
CONTINUOUS
10
6.8544347637795271
20
-3.2674954724409448
11
6.8537955905511811
21
-3.2681346456692912
0
LINE
8
BLACK
6
CONTINUOUS
10
6.8537955905511811
20
-3.2681346456692912
11
6.8533435826771649
21
-3.2682245669291339
0
LINE
8
BLACK
6
CONTINUOUS
10
6.8533435826771649
20
-3.2682245669291339
11
6.837595551181102
21
-3.2682245669291339
0
LINE
8
BLACK
6
CONTINUOUS
10
6.837595551181102
20
-3.2682245669291339
11
6.8371435433070866
21
-3.2681346456692912
0
LINE
8
BLACK
6
CONTINUOUS
10
6.8371435433070866
20
-3.2681346456692912
11
6.8365043700787398
21
-3.2674954724409448
0
LINE
8
BLACK
6
CONTINUOUS
10
6.8365043700787398
20
-3.2674954724409448
11
6.8364144488188971
21
-3.2670434645669291
0
LINE
8
BLACK
6
CONTINUOUS
10
6.8364144488188971
20
-3.2670434645669291
11
6.8364144488188971
21
-3.2617941338582677
0
LINE
8
BLACK
6
CONTINUOUS
10
6.8364144488188971
20
-3.2617941338582677
11
6.8364259842519681
21
-3.2617360629921257
0
LINE
8
BLACK
6
CONTINUOUS
10
6.8364259842519681
20
-3.2617360629921257
11
6.8364174409448815
21
-3.2617104330708662
0
LINE
8
BLACK
6
CONTINUOUS
10
6.8364174409448815
20
-3.2617104330708662
11
6.8364674015748026
21
-3.2615278740157478
0
LINE
8
BLACK
6
CONTINUOUS
10
6.8364674015748026
20
-3.2615278740157478
11
6.8365043700787398
21
-3.2613421259842519
0
LINE
8
BLACK
6
CONTINUOUS
10
6.8365043700787398
20
-3.2613421259842519
11
6.8365235039370074
21
-3.2613229527559056
0
LINE
8
BLACK
6
CONTINUOUS
10
6.8365235039370074
20
-3.2613229527559056
11
6.8365391338582677
21
-3.2612659055118112
0
LINE
8
BLACK
6
CONTINUOUS
10
6.8365391338582677
20
-3.2612659055118112
11
6.8372890551181102
21
-3.2597661023622044
0
LINE
8
BLACK
6
CONTINUOUS
10
6.8372890551181102
20
-3.2597661023622044
11
6.837405078740157
21
-3.2596166141732281
0
LINE
8
BLACK
6
CONTINUOUS
10
6.837405078740157
20
-3.2596166141732281
11
6.8375102755905512
21
-3.2594591732283464
0
LINE
8
BLACK
6
CONTINUOUS
10
6.8375102755905512
20
-3.2594591732283464
11
6.838260157480315
21
-3.2587092913385827
0
LINE
8
BLACK
6
CONTINUOUS
10
6.838260157480315
20
-3.2587092913385827
11
6.8384175196850396
21
-3.2586040944881889
0
LINE
8
BLACK
6
CONTINUOUS
10
6.8384175196850396
20
-3.2586040944881889
11
6.8385671653543305
21
-3.2584879921259842
0
LINE
8
BLACK
6
CONTINUOUS
10
6.8385671653543305
20
-3.2584879921259842
11
6.8400670078740156
21
-3.2577381102362204
0
LINE
8
BLACK
6
CONTINUOUS
10
6.8400670078740156
20
-3.2577381102362204
11
6.8401240157480316
21
-3.2577224803149605
0
LINE
8
BLACK
6
CONTINUOUS
10
6.8401240157480316
20
-3.2577224803149605
11
6.840143188976378
21
-3.2577033464566929
0
LINE
8
BLACK
6
CONTINUOUS
10
6.840143188976378
20
-3.2577033464566929
11
6.8403289763779522
21
-3.2576663779527557
0
LINE
8
BLACK
6
CONTINUOUS
10
6.8403289763779522
20
-3.2576663779527557
11
6.8405114960629918
21
-3.2576164173228346
0
LINE
8
BLACK
6
CONTINUOUS
10
6.8405114960629918
20
-3.2576164173228346
11
6.8405371259842518
21
-3.2576249606299212
0
LINE
8
BLACK
6
CONTINUOUS
10
6.8405371259842518
20
-3.2576249606299212
11
6.8405951968503933
21
-3.2576134251968503
0
LINE
8
BLACK
6
CONTINUOUS
10
6.8405951968503933
20
-3.2576134251968503
11
6.8420949999999996
21
-3.2576134251968503
0
LINE
8
BLACK
6
CONTINUOUS
10
6.8420949999999996
20
-3.2576134251968503
11
6.8421530314960632
21
-3.2576249606299212
0
LINE
8
BLACK
6
CONTINUOUS
10
6.8421530314960632
20
-3.2576249606299212
11
6.8421787007874011
21
-3.2576164173228346
0
LINE
8
BLACK
6
CONTINUOUS
10
6.8421787007874011
20
-3.2576164173228346
11
6.8423611811023619
21
-3.2576663779527557
0
LINE
8
BLACK
6
CONTINUOUS
10
6.8423611811023619
20
-3.2576663779527557
11
6.8425470078740158
21
-3.2577033464566929
0
LINE
8
BLACK
6
CONTINUOUS
10
6.8425470078740158
20
-3.2577033464566929
11
6.8425661417322834
21
-3.2577224803149605
0
LINE
8
BLACK
6
CONTINUOUS
10
6.8425661417322834
20
-3.2577224803149605
11
6.8426231889763782
21
-3.2577381102362204
0
LINE
8
BLACK
6
CONTINUOUS
10
6.8426231889763782
20
-3.2577381102362204
11
6.8441229921259845
21
-3.2584879921259842
0
LINE
8
BLACK
6
CONTINUOUS
10
6.8441229921259845
20
-3.2584879921259842
11
6.8442725984251966
21
-3.2586041338582676
0
LINE
8
BLACK
6
CONTINUOUS
10
6.8442725984251966
20
-3.2586041338582676
11
6.8444299606299213
21
-3.2587092519685039
0
LINE
8
BLACK
6
CONTINUOUS
10
6.8444299606299213
20
-3.2587092519685039
11
6.844777283464567
21
-3.2590565748031497
0
LINE
8
BLACK
6
CONTINUOUS
10
6.844777283464567
20
-3.2590565748031497
11
6.844858661417323
21
-3.2589347244094489
0
LINE
8
BLACK
6
CONTINUOUS
10
6.844858661417323
20
-3.2589347244094489
11
6.8449522834645666
21
-3.2587705511811023
0
LINE
8
BLACK
6
CONTINUOUS
10
6.8449522834645666
20
-3.2587705511811023
11
6.8449764566929137
21
-3.2587584251968504
0
LINE
8
BLACK
6
CONTINUOUS
10
6.8449764566929137
20
-3.2587584251968504
11
6.8450093700787402
21
-3.2587092125984252
0
LINE
8
BLACK
6
CONTINUOUS
10
6.8450093700787402
20
-3.2587092125984252
11
6.8457592913385827
21
-3.2579593307086614
0
LINE
8
BLACK
6
CONTINUOUS
10
6.8457592913385827
20
-3.2579593307086614
11
6.845916732283464
21
-3.2578541338582676
0
LINE
8
BLACK
6
CONTINUOUS
10
6.845916732283464
20
-3.2578541338582676
11
6.8460662204724407
21
-3.2577381102362204
0
LINE
8
BLACK
6
CONTINUOUS
10
6.8460662204724407
20
-3.2577381102362204
11
6.8475660629921258
21
-3.2569881889763779
0
LINE
8
BLACK
6
CONTINUOUS
10
6.8475660629921258
20
-3.2569881889763779
11
6.8476230708661419
21
-3.256972559055118
0
LINE
8
BLACK
6
CONTINUOUS
10
6.8476230708661419
20
-3.256972559055118
11
6.8476422440944882
21
-3.2569534251968504
0
LINE
8
BLACK
6
CONTINUOUS
10
6.8476422440944882
20
-3.2569534251968504
11
6.8478277165354333
21
-3.2569164960629919
0
LINE
8
BLACK
6
CONTINUOUS
10
6.8478277165354333
20
-3.2569164960629919
11
6.848010551181102
21
-3.2568664566929133
0
LINE
8
BLACK
6
CONTINUOUS
10
6.848010551181102
20
-3.2568664566929133
11
6.8480362598425195
21
-3.256875
0
LINE
8
BLACK
6
CONTINUOUS
10
6.8480362598425195
20
-3.256875
11
6.8480942519685035
21
-3.2568635039370077
0
LINE
8
BLACK
6
CONTINUOUS
10
6.8480942519685035
20
-3.2568635039370077
11
6.8503439763779523
21
-3.2568635039370077
0
LINE
8
BLACK
6
CONTINUOUS
10
6.8503439763779523
20
-3.2568635039370077
11
6.850402007874016
21
-3.2568750393700787
0
LINE
8
BLACK
6
CONTINUOUS
10
6.8397950393700784
20
-3.2605150787401573
11
6.839316141732283
21
-3.2609939763779527
0
LINE
8
BLACK
6
CONTINUOUS
10
6.839316141732283
20
-3.2609939763779527
11
6.8387766535433068
21
-3.2620729921259843
0
LINE
8
BLACK
6
CONTINUOUS
10
6.8387766535433068
20
-3.2620729921259843
11
6.8387766535433068
21
-3.2658623622047243
0
LINE
8
BLACK
6
CONTINUOUS
10
6.8387766535433068
20
-3.2658623622047243
11
6.8439135039370074
21
-3.2658623622047243
0
LINE
8
BLACK
6
CONTINUOUS
10
6.8439135039370074
20
-3.2658623622047243
11
6.8439135039370074
21
-3.2620729133858268
0
LINE
8
BLACK
6
CONTINUOUS
10
6.8439135039370074
20
-3.2620729133858268
11
6.8433739763779524
21
-3.2609938976377952
0
LINE
8
BLACK
6
CONTINUOUS
10
6.8433739763779524
20
-3.2609938976377952
11
6.8428951968503933
21
-3.2605151181102361
0
LINE
8
BLACK
6
CONTINUOUS
10
6.8428951968503933
20
-3.2605151181102361
11
6.8418161811023621
21
-3.2599756299212599
0
LINE
8
BLACK
6
CONTINUOUS
10
6.8418161811023621
20
-3.2599756299212599
11
6.8408740157480317
21
-3.2599756299212599
0
LINE
8
BLACK
6
CONTINUOUS
10
6.8408740157480317
20
-3.2599756299212599
11
6.8397950393700784
21
-3.2605150787401573
0
LINE
8
BLACK
6
CONTINUOUS
10
6.8472940157480311
20
-3.2597652362204723
11
6.8468767716535428
21
-3.2601824803149606
0
LINE
8
BLACK
6
CONTINUOUS
10
6.8468767716535428
20
-3.2601824803149606
11
6.846275708661417
21
-3.261985748031496
0
LINE
8
BLACK
6
CONTINUOUS
10
6.846275708661417
20
-3.261985748031496
11
6.846275708661417
21
-3.2658623622047243
0
LINE
8
BLACK
6
CONTINUOUS
10
6.846275708661417
20
-3.2658623622047243
11
6.8521624803149601
21
-3.2658623622047243
0
LINE
8
BLACK
6
CONTINUOUS
10
6.8521624803149601
20
-3.2658623622047243
11
6.8521624803149601
21
-3.2613229921259843
0
LINE
8
BLACK
6
CONTINUOUS
10
6.8521624803149601
20
-3.2613229921259843
11
6.8516230314960627
21
-3.260244094488189
0
LINE
8
BLACK
6
CONTINUOUS
10
6.8516230314960627
20
-3.260244094488189
11
6.8511440944881885
21
-3.2597651968503936
0
LINE
8
BLACK
6
CONTINUOUS
10
6.8511440944881885
20
-3.2597651968503936
11
6.8500651181102361
21
-3.2592257086614174
0
LINE
8
BLACK
6
CONTINUOUS
10
6.8500651181102361
20
-3.2592257086614174
11
6.8483731102362206
21
-3.2592257086614174
0
LINE
8
BLACK
6
CONTINUOUS
10
6.8483731102362206
20
-3.2592257086614174
11
6.8472940157480311
21
-3.2597652362204723
0
LINE
8
BLACK
6
CONTINUOUS
10
6.8467657086614171
20
-3.2314007480314961
11
6.8468237007874011
21
-3.2313891732283464
0
LINE
8
BLACK
6
CONTINUOUS
10
6.8468237007874011
20
-3.2313891732283464
11
6.8468731102362206
21
-3.2314221259842517
0
LINE
8
BLACK
6
CONTINUOUS
10
6.8468731102362206
20
-3.2314221259842517
11
6.8470464566929135
21
-3.2314566141732284
0
LINE
8
BLACK
6
CONTINUOUS
10
6.8470464566929135
20
-3.2314566141732284
11
6.8472896062992126
21
-3.2316997637795275
0
LINE
8
BLACK
6
CONTINUOUS
10
6.8472896062992126
20
-3.2316997637795275
11
6.847575787401575
21
-3.2318905511811025
0
LINE
8
BLACK
6
CONTINUOUS
10
6.847575787401575
20
-3.2318905511811025
11
6.8476435433070861
21
-3.2320537007874015
0
LINE
8
BLACK
6
CONTINUOUS
10
6.8476435433070861
20
-3.2320537007874015
11
6.8476856299212594
21
-3.2320957874015748
0
LINE
8
BLACK
6
CONTINUOUS
10
6.8476856299212594
20
-3.2320957874015748
11
6.8476856299212594
21
-3.2321549606299214
0
LINE
8
BLACK
6
CONTINUOUS
10
6.8476856299212594
20
-3.2321549606299214
11
6.8477525984251963
21
-3.232316181102362
0
LINE
8
BLACK
6
CONTINUOUS
10
6.8477525984251963
20
-3.232316181102362
11
6.849062519685039
21
-3.238865748031496
0
LINE
8
BLACK
6
CONTINUOUS
10
6.849062519685039
20
-3.238865748031496
11
6.8508150393700786
21
-3.238865748031496
0
LINE
8
BLACK
6
CONTINUOUS
10
6.8508150393700786
20
-3.238865748031496
11
6.8517133464566928
21
-3.2384165748031495
0
LINE
8
BLACK
6
CONTINUOUS
10
6.8517133464566928
20
-3.2384165748031495
11
6.8521624803149601
21
-3.237518307086614
0
LINE
8
BLACK
6
CONTINUOUS
10
6.8521624803149601
20
-3.237518307086614
11
6.8521624803149601
21
-3.2350762992125985
0
LINE
8
BLACK
6
CONTINUOUS
10
6.8521624803149601
20
-3.2350762992125985
11
6.8515372834645669
21
-3.2338258661417321
0
LINE
8
BLACK
6
CONTINUOUS
10
6.8515372834645669
20
-3.2338258661417321
11
6.8514155905511807
21
-3.2333813385826771
0
LINE
8
BLACK
6
CONTINUOUS
10
6.8514155905511807
20
-3.2333813385826771
11
6.8517014566929131
21
-3.2325238188976377
0
LINE
8
BLACK
6
CONTINUOUS
10
6.8517014566929131
20
-3.2325238188976377
11
6.8525100393700784
21
-3.2321195669291338
0
LINE
8
BLACK
6
CONTINUOUS
10
6.8525100393700784
20
-3.2321195669291338
11
6.8533675590551182
21
-3.2324054330708663
0
LINE
8
BLACK
6
CONTINUOUS
10
6.8533675590551182
20
-3.2324054330708663
11
6.8536501181102363
21
-3.2327694881889761
0
LINE
8
BLACK
6
CONTINUOUS
10
6.8536501181102363
20
-3.2327694881889761
11
6.8544
21
-3.2342693307086612
0
LINE
8
BLACK
6
CONTINUOUS
10
6.8544
20
-3.2342693307086612
11
6.8544155905511808
21
-3.2343263385826773
0
LINE
8
BLACK
6
CONTINUOUS
10
6.8544155905511808
20
-3.2343263385826773
11
6.8544347637795271
21
-3.2343455118110236
0
LINE
8
BLACK
6
CONTINUOUS
10
6.8544347637795271
20
-3.2343455118110236
11
6.8544716929133855
21
-3.2345312992125983
0
LINE
8
BLACK
6
CONTINUOUS
10
6.8544716929133855
20
-3.2345312992125983
11
6.8545216929133854
21
-3.2347138188976379
0
LINE
8
BLACK
6
CONTINUOUS
10
6.8545216929133854
20
-3.2347138188976379
11
6.85451311023622
21
-3.2347394488188974
0
LINE
8
BLACK
6
CONTINUOUS
10
6.85451311023622
20
-3.2347394488188974
11
6.8545246850393697
21
-3.2347975196850394
0
LINE
8
BLACK
6
CONTINUOUS
10
6.8545246850393697
20
-3.2347975196850394
11
6.8545246850393697
21
-3.237797125984252
0
LINE
8
BLACK
6
CONTINUOUS
10
6.8545246850393697
20
-3.237797125984252
11
6.85451311023622
21
-3.2378551574803147
0
LINE
8
BLACK
6
CONTINUOUS
10
6.85451311023622
20
-3.2378551574803147
11
6.8545216929133854
21
-3.2378808267716535
0
LINE
8
BLACK
6
CONTINUOUS
10
6.8545216929133854
20
-3.2378808267716535
11
6.8544716929133855
21
-3.2380633070866143
0
LINE
8
BLACK
6
CONTINUOUS
10
6.8544716929133855
20
-3.2380633070866143
11
6.8544347637795271
21
-3.2382491338582677
0
LINE
8
BLACK
6
CONTINUOUS
10
6.8544347637795271
20
-3.2382491338582677
11
6.8544155905511808
21
-3.2382682677165353
0
LINE
8
BLACK
6
CONTINUOUS
10
6.8544155905511808
20
-3.2382682677165353
11
6.8544
21
-3.2383253149606297
0
LINE
8
BLACK
6
CONTINUOUS
10
6.8544
20
-3.2383253149606297
11
6.8536501181102363
21
-3.239825118110236
0
LINE
8
BLACK
6
CONTINUOUS
10
6.8536501181102363
20
-3.239825118110236
11
6.8535059055118106
21
-3.2400109055118111
0
LINE
8
BLACK
6
CONTINUOUS
10
6.8535059055118106
20
-3.2400109055118111
11
6.853485984251968
21
-3.2400707480314961
0
LINE
8
BLACK
6
CONTINUOUS
10
6.853485984251968
20
-3.2400707480314961
11
6.8534193307086611
21
-3.2401224409448819
0
LINE
8
BLACK
6
CONTINUOUS
10
6.8534193307086611
20
-3.2401224409448819
11
6.8533675590551182
21
-3.2401892125984251
0
LINE
8
BLACK
6
CONTINUOUS
10
6.8533675590551182
20
-3.2401892125984251
11
6.8533076377952753
21
-3.2402091732283465
0
LINE
8
BLACK
6
CONTINUOUS
10
6.8533076377952753
20
-3.2402091732283465
11
6.8531219291338585
21
-3.2403533464566929
0
LINE
8
BLACK
6
CONTINUOUS
10
6.8531219291338585
20
-3.2403533464566929
11
6.8516220472440947
21
-3.2411032677165355
0
LINE
8
BLACK
6
CONTINUOUS
10
6.8516220472440947
20
-3.2411032677165355
11
6.8515649999999999
21
-3.2411188582677166
0
LINE
8
BLACK
6
CONTINUOUS
10
6.8515649999999999
20
-3.2411188582677166
11
6.8515458661417323
21
-3.2411380314960629
0
LINE
8
BLACK
6
CONTINUOUS
10
6.8515458661417323
20
-3.2411380314960629
11
6.8513600393700784
21
-3.2411749606299214
0
LINE
8
BLACK
6
CONTINUOUS
10
6.8513600393700784
20
-3.2411749606299214
11
6.8511775590551176
21
-3.2412249606299213
0
LINE
8
BLACK
6
CONTINUOUS
10
6.8511775590551176
20
-3.2412249606299213
11
6.8511518897637798
21
-3.2412163779527559
0
LINE
8
BLACK
6
CONTINUOUS
10
6.8511518897637798
20
-3.2412163779527559
11
6.8510938582677161
21
-3.2412279527559056
0
LINE
8
BLACK
6
CONTINUOUS
10
6.8510938582677161
20
-3.2412279527559056
11
6.8450946062992122
21
-3.2412279527559056
0
LINE
8
BLACK
6
CONTINUOUS
10
6.8450946062992122
20
-3.2412279527559056
11
6.8450366141732282
21
-3.2412164173228346
0
LINE
8
BLACK
6
CONTINUOUS
10
6.8450366141732282
20
-3.2412164173228346
11
6.8450109055118107
21
-3.241225
0
LINE
8
BLACK
6
CONTINUOUS
10
6.8450109055118107
20
-3.241225
11
6.844828070866142
21
-3.2411749212598426
0
LINE
8
BLACK
6
CONTINUOUS
10
6.844828070866142
20
-3.2411749212598426
11
6.8446425984251968
21
-3.2411380314960629
0
LINE
8
BLACK
6
CONTINUOUS
10
6.8446425984251968
20
-3.2411380314960629
11
6.8446234251968505
21
-3.2411188582677166
0
LINE
8
BLACK
6
CONTINUOUS
10
6.8446234251968505
20
-3.2411188582677166
11
6.8445664173228344
21
-3.2411032677165355
0
LINE
8
BLACK
6
CONTINUOUS
10
6.8445664173228344
20
-3.2411032677165355
11
6.8430665748031494
21
-3.2403533464566929
0
LINE
8
BLACK
6
CONTINUOUS
10
6.8430665748031494
20
-3.2403533464566929
11
6.842880826771653
21
-3.2402091338582677
0
LINE
8
BLACK
6
CONTINUOUS
10
6.842880826771653
20
-3.2402091338582677
11
6.8428209842519685
21
-3.2401892125984251
0
LINE
8
BLACK
6
CONTINUOUS
10
6.8428209842519685
20
-3.2401892125984251
11
6.8427692125984247
21
-3.2401224803149606
0
LINE
8
BLACK
6
CONTINUOUS
10
6.8427692125984247
20
-3.2401224803149606
11
6.8427025196850391
21
-3.2400707480314961
0
LINE
8
BLACK
6
CONTINUOUS
10
6.8427025196850391
20
-3.2400707480314961
11
6.8426825590551177
21
-3.2400109055118111
0
LINE
8
BLACK
6
CONTINUOUS
10
6.8426825590551177
20
-3.2400109055118111
11
6.8425383858267717
21
-3.2398251574803147
0
LINE
8
BLACK
6
CONTINUOUS
10
6.8425383858267717
20
-3.2398251574803147
11
6.8417884645669291
21
-3.2383253543307084
0
LINE
8
BLACK
6
CONTINUOUS
10
6.8417884645669291
20
-3.2383253543307084
11
6.8417728346456688
21
-3.2382682677165353
0
LINE
8
BLACK
6
CONTINUOUS
10
6.8417728346456688
20
-3.2382682677165353
11
6.8417537007874012
21
-3.2382491338582677
0
LINE
8
BLACK
6
CONTINUOUS
10
6.8417537007874012
20
-3.2382491338582677
11
6.841716732283464
21
-3.238063346456693
0
LINE
8
BLACK
6
CONTINUOUS
10
6.841716732283464
20
-3.238063346456693
11
6.8416667716535429
21
-3.2378808267716535
0
LINE
8
BLACK
6
CONTINUOUS
10
6.8416667716535429
20
-3.2378808267716535
11
6.8416753149606295
21
-3.2378551574803147
0
LINE
8
BLACK
6
CONTINUOUS
10
6.8416753149606295
20
-3.2378551574803147
11
6.8416637795275586
21
-3.237797125984252
0
LINE
8
BLACK
6
CONTINUOUS
10
6.8416637795275586
20
-3.237797125984252
11
6.8416637795275586
21
-3.2347975196850394
0
LINE
8
BLACK
6
CONTINUOUS
10
6.8416637795275586
20
-3.2347975196850394
11
6.8416753149606295
21
-3.2347394488188974
0
LINE
8
BLACK
6
CONTINUOUS
10
6.8416753149606295
20
-3.2347394488188974
11
6.8416667716535429
21
-3.2347138188976379
0
LINE
8
BLACK
6
CONTINUOUS
10
6.8416667716535429
20
-3.2347138188976379
11
6.841716732283464
21
-3.2345312992125983
0
LINE
8
BLACK
6
CONTINUOUS
10
6.841716732283464
20
-3.2345312992125983
11
6.8417537007874012
21
-3.2343455118110236
0
LINE
8
BLACK
6
CONTINUOUS
10
6.8417537007874012
20
-3.2343455118110236
11
6.8417728346456688
21
-3.2343263385826773
0
LINE
8
BLACK
6
CONTINUOUS
10
6.8417728346456688
20
-3.2343263385826773
11
6.8417884645669291
21
-3.2342693307086612
0
LINE
8
BLACK
6
CONTINUOUS
10
6.8417884645669291
20
-3.2342693307086612
11
6.8425383858267717
21
-3.2327694488188974
0
LINE
8
BLACK
6
CONTINUOUS
10
6.8425383858267717
20
-3.2327694488188974
11
6.8426825196850389
21
-3.2325837007874014
0
LINE
8
BLACK
6
CONTINUOUS
10
6.8426825196850389
20
-3.2325837007874014
11
6.8427025196850391
21
-3.2325238188976377
0
LINE
8
BLACK
6
CONTINUOUS
10
6.8427025196850391
20
-3.2325238188976377
11
6.8427692519685035
21
-3.2324720078740157
0
LINE
8
BLACK
6
CONTINUOUS
10
6.8427692519685035
20
-3.2324720078740157
11
6.8428209842519685
21
-3.2324053937007875
0
LINE
8
BLACK
6
CONTINUOUS
10
6.8428209842519685
20
-3.2324053937007875
11
6.8428807874015742
21
-3.2323854330708661
0
LINE
8
BLACK
6
CONTINUOUS
10
6.8428807874015742
20
-3.2323854330708661
11
6.8430666141732281
21
-3.2322412598425196
0
LINE
8
BLACK
6
CONTINUOUS
10
6.8430666141732281
20
-3.2322412598425196
11
6.8445664173228344
21
-3.2314913779527559
0
LINE
8
BLACK
6
CONTINUOUS
10
6.8445664173228344
20
-3.2314913779527559
11
6.8446234251968505
21
-3.231475748031496
0
LINE
8
BLACK
6
CONTINUOUS
10
6.8446234251968505
20
-3.231475748031496
11
6.8446425984251968
21
-3.2314566141732284
0
LINE
8
BLACK
6
CONTINUOUS
10
6.8446425984251968
20
-3.2314566141732284
11
6.8448283858267711
21
-3.2314196456692912
0
LINE
8
BLACK
6
CONTINUOUS
10
6.8448283858267711
20
-3.2314196456692912
11
6.8450109055118107
21
-3.2313696850393701
0
LINE
8
BLACK
6
CONTINUOUS
10
6.8450109055118107
20
-3.2313696850393701
11
6.8450365354330707
21
-3.2313782283464567
0
LINE
8
BLACK
6
CONTINUOUS
10
6.8450365354330707
20
-3.2313782283464567
11
6.8450946062992122
21
-3.2313666929133857
0
LINE
8
BLACK
6
CONTINUOUS
10
6.8450946062992122
20
-3.2313666929133857
11
6.8465944488188972
21
-3.2313666929133857
0
LINE
8
BLACK
6
CONTINUOUS
10
6.8465944488188972
20
-3.2313666929133857
11
6.8467657086614171
21
-3.2314007480314961
0
LINE
8
BLACK
6
CONTINUOUS
10
6.8444751181102363
20
-3.2341779921259843
11
6.8440259842519682
21
-3.2350763385826773
0
LINE
8
BLACK
6
CONTINUOUS
10
6.8440259842519682
20
-3.2350763385826773
11
6.8440259842519682
21
-3.2375182677165353
0
LINE
8
BLACK
6
CONTINUOUS
10
6.8440259842519682
20
-3.2375182677165353
11
6.8444751181102363
21
-3.2384165354330707
0
LINE
8
BLACK
6
CONTINUOUS
10
6.8444751181102363
20
-3.2384165354330707
11
6.8453734645669293
21
-3.238865748031496
0
LINE
8
BLACK
6
CONTINUOUS
10
6.8453734645669293
20
-3.238865748031496
11
6.8466535433070863
21
-3.238865748031496
0
LINE
8
BLACK
6
CONTINUOUS
10
6.8466535433070863
20
-3.238865748031496
11
6.8456261811023618
21
-3.2337288976377954
0
LINE
8
BLACK
6
CONTINUOUS
10
6.8456261811023618
20
-3.2337288976377954
11
6.8453734251968505
21
-3.2337288976377954
0
LINE
8
BLACK
6
CONTINUOUS
10
6.8453734251968505
20
-3.2337288976377954
11
6.8444751181102363
21
-3.2341779921259843
0
LINE
8
BLACK
6
CONTINUOUS
10
6.8537955905511811
20
-3.2179583070866142
11
6.8544347637795271
21
-3.2185974803149606
0
LINE
8
BLACK
6
CONTINUOUS
10
6.8544347637795271
20
-3.2185974803149606
11
6.8544347637795271
21
-3.2195014960629922
0
LINE
8
BLACK
6
CONTINUOUS
10
6.8544347637795271
20
-3.2195014960629922
11
6.8542383858267719
21
-3.2196978346456691
0
LINE
8
BLACK
6
CONTINUOUS
10
6.8542383858267719
20
-3.2196978346456691
11
6.8544
21
-3.2200211023622045
0
LINE
8
BLACK
6
CONTINUOUS
10
6.8544
20
-3.2200211023622045
11
6.8544155905511808
21
-3.2200781102362206
0
LINE
8
BLACK
6
CONTINUOUS
10
6.8544155905511808
20
-3.2200781102362206
11
6.8544347637795271
21
-3.2200972834645669
0
LINE
8
BLACK
6
CONTINUOUS
10
6.8544347637795271
20
-3.2200972834645669
11
6.8544716929133855
21
-3.2202830708661416
0
LINE
8
BLACK
6
CONTINUOUS
10
6.8544716929133855
20
-3.2202830708661416
11
6.8545216929133854
21
-3.2204655905511812
0
LINE
8
BLACK
6
CONTINUOUS
10
6.8545216929133854
20
-3.2204655905511812
11
6.85451311023622
21
-3.2204912204724407
0
LINE
8
BLACK
6
CONTINUOUS
10
6.85451311023622
20
-3.2204912204724407
11
6.8545246850393697
21
-3.2205492913385827
0
LINE
8
BLACK
6
CONTINUOUS
10
6.8545246850393697
20
-3.2205492913385827
11
6.8545246850393697
21
-3.223548937007874
0
LINE
8
BLACK
6
CONTINUOUS
10
6.8545246850393697
20
-3.223548937007874
11
6.85451311023622
21
-3.2236069685039368
0
LINE
8
BLACK
6
CONTINUOUS
10
6.85451311023622
20
-3.2236069685039368
11
6.8545216929133854
21
-3.2236326377952755
0
LINE
8
BLACK
6
CONTINUOUS
10
6.8545216929133854
20
-3.2236326377952755
11
6.8544716929133855
21
-3.2238151181102364
0
LINE
8
BLACK
6
CONTINUOUS
10
6.8544716929133855
20
-3.2238151181102364
11
6.8544347637795271
21
-3.2240009448818898
0
LINE
8
BLACK
6
CONTINUOUS
10
6.8544347637795271
20
-3.2240009448818898
11
6.8544155905511808
21
-3.2240200787401574
0
LINE
8
BLACK
6
CONTINUOUS
10
6.8544155905511808
20
-3.2240200787401574
11
6.8544
21
-3.2240771259842518
0
LINE
8
BLACK
6
CONTINUOUS
10
6.8544
20
-3.2240771259842518
11
6.8536501181102363
21
-3.2255769291338581
0
LINE
8
BLACK
6
CONTINUOUS
10
6.8536501181102363
20
-3.2255769291338581
11
6.8535338976377949
21
-3.2257266535433069
0
LINE
8
BLACK
6
CONTINUOUS
10
6.8535338976377949
20
-3.2257266535433069
11
6.8534288188976378
21
-3.225883937007874
0
LINE
8
BLACK
6
CONTINUOUS
10
6.8534288188976378
20
-3.225883937007874
11
6.852678937007874
21
-3.2266338188976378
0
LINE
8
BLACK
6
CONTINUOUS
10
6.852678937007874
20
-3.2266338188976378
11
6.8525214566929131
21
-3.2267389763779528
0
LINE
8
BLACK
6
CONTINUOUS
10
6.8525214566929131
20
-3.2267389763779528
11
6.852372007874016
21
-3.2268550393700788
0
LINE
8
BLACK
6
CONTINUOUS
10
6.852372007874016
20
-3.2268550393700788
11
6.8508722047244097
21
-3.2276049606299213
0
LINE
8
BLACK
6
CONTINUOUS
10
6.8508722047244097
20
-3.2276049606299213
11
6.8508151181102361
21
-3.2276205511811025
0
LINE
8
BLACK
6
CONTINUOUS
10
6.8508151181102361
20
-3.2276205511811025
11
6.8507959842519686
21
-3.2276397244094488
0
LINE
8
BLACK
6
CONTINUOUS
10
6.8507959842519686
20
-3.2276397244094488
11
6.8506101968503934
21
-3.2276766535433068
0
LINE
8
BLACK
6
CONTINUOUS
10
6.8506101968503934
20
-3.2276766535433068
11
6.8504276771653538
21
-3.2277266535433071
0
LINE
8
BLACK
6
CONTINUOUS
10
6.8504276771653538
20
-3.2277266535433071
11
6.850402007874016
21
-3.2277180708661417
0
LINE
8
BLACK
6
CONTINUOUS
10
6.850402007874016
20
-3.2277180708661417
11
6.8503439763779523
21
-3.2277296456692914
0
LINE
8
BLACK
6
CONTINUOUS
10
6.8503439763779523
20
-3.2277296456692914
11
6.8458445275590547
21
-3.2277296456692914
0
LINE
8
BLACK
6
CONTINUOUS
10
6.8458445275590547
20
-3.2277296456692914
11
6.8457865354330707
21
-3.2277181102362205
0
LINE
8
BLACK
6
CONTINUOUS
10
6.8457865354330707
20
-3.2277181102362205
11
6.8457608267716532
21
-3.2277266929133859
0
LINE
8
BLACK
6
CONTINUOUS
10
6.8457608267716532
20
-3.2277266929133859
11
6.8455779921259845
21
-3.2276766141732285
0
LINE
8
BLACK
6
CONTINUOUS
10
6.8455779921259845
20
-3.2276766141732285
11
6.8453925196850394
21
-3.2276397244094488
0
LINE
8
BLACK
6
CONTINUOUS
10
6.8453925196850394
20
-3.2276397244094488
11
6.845373346456693
21
-3.2276205511811025
0
LINE
8
BLACK
6
CONTINUOUS
10
6.845373346456693
20
-3.2276205511811025
11
6.845316338582677
21
-3.2276049606299213
0
LINE
8
BLACK
6
CONTINUOUS
10
6.845316338582677
20
-3.2276049606299213
11
6.8438164960629919
21
-3.2268550393700788
0
LINE
8
BLACK
6
CONTINUOUS
10
6.8438164960629919
20
-3.2268550393700788
11
6.8436670078740152
21
-3.2267389763779528
0
LINE
8
BLACK
6
CONTINUOUS
10
6.8436670078740152
20
-3.2267389763779528
11
6.8435095669291339
21
-3.2266338188976378
0
LINE
8
BLACK
6
CONTINUOUS
10
6.8435095669291339
20
-3.2266338188976378
11
6.8427596456692914
21
-3.225883937007874
0
LINE
8
BLACK
6
CONTINUOUS
10
6.8427596456692914
20
-3.225883937007874
11
6.8426544094488184
21
-3.2257264566929131
0
LINE
8
BLACK
6
CONTINUOUS
10
6.8426544094488184
20
-3.2257264566929131
11
6.8425383858267717
21
-3.2255769685039368
0
LINE
8
BLACK
6
CONTINUOUS
10
6.8425383858267717
20
-3.2255769685039368
11
6.8417884645669291
21
-3.2240771653543305
0
LINE
8
BLACK
6
CONTINUOUS
10
6.8417884645669291
20
-3.2240771653543305
11
6.8417728346456688
21
-3.2240200787401574
0
LINE
8
BLACK
6
CONTINUOUS
10
6.8417728346456688
20
-3.2240200787401574
11
6.8417537007874012
21
-3.2240009448818898
0
LINE
8
BLACK
6
CONTINUOUS
10
6.8417537007874012
20
-3.2240009448818898
11
6.841716732283464
21
-3.2238151574803151
0
LINE
8
BLACK
6
CONTINUOUS
10
6.841716732283464
20
-3.2238151574803151
11
6.8416667716535429
21
-3.2236326377952755
0
LINE
8
BLACK
6
CONTINUOUS
10
6.8416667716535429
20
-3.2236326377952755
11
6.8416753149606295
21
-3.2236069685039368
0
LINE
8
BLACK
6
CONTINUOUS
10
6.8416753149606295
20
-3.2236069685039368
11
6.8416637795275586
21
-3.223548937007874
0
LINE
8
BLACK
6
CONTINUOUS
10
6.8416637795275586
20
-3.223548937007874
11
6.8416637795275586
21
-3.2205492913385827
0
LINE
8
BLACK
6
CONTINUOUS
10
6.8416637795275586
20
-3.2205492913385827
11
6.8416753149606295
21
-3.2204912204724407
0
LINE
8
BLACK
6
CONTINUOUS
10
6.8416753149606295
20
-3.2204912204724407
11
6.8416667716535429
21
-3.2204655905511812
0
LINE
8
BLACK
6
CONTINUOUS
10
6.8416667716535429
20
-3.2204655905511812
11
6.841716732283464
21
-3.2202830314960629
0
LINE
8
BLACK
6
CONTINUOUS
10
6.841716732283464
20
-3.2202830314960629
11
6.8417271653543308
21
-3.2202305905511812
0
LINE
8
BLACK
6
CONTINUOUS
10
6.8417271653543308
20
-3.2202305905511812
11
6.837595551181102
21
-3.2202305905511812
0
LINE
8
BLACK
6
CONTINUOUS
10
6.837595551181102
20
-3.2202305905511812
11
6.8371435433070866
21
-3.2201406692913386
0
LINE
8
BLACK
6
CONTINUOUS
10
6.8371435433070866
20
-3.2201406692913386
11
6.8365043700787398
21
-3.2195014960629922
0
LINE
8
BLACK
6
CONTINUOUS
10
6.8365043700787398
20
-3.2195014960629922
11
6.8365043700787398
21
-3.2185974803149606
0
LINE
8
BLACK
6
CONTINUOUS
10
6.8365043700787398
20
-3.2185974803149606
11
6.8371435433070866
21
-3.2179583070866142
0
LINE
8
BLACK
6
CONTINUOUS
10
6.8371435433070866
20
-3.2179583070866142
11
6.837595551181102
21
-3.2178683858267716
0
LINE
8
BLACK
6
CONTINUOUS
10
6.837595551181102
20
-3.2178683858267716
11
6.8533435826771649
21
-3.2178683858267716
0
LINE
8
BLACK
6
CONTINUOUS
10
6.8533435826771649
20
-3.2178683858267716
11
6.8537955905511811
21
-3.2179583070866142
0
LINE
8
BLACK
6
CONTINUOUS
10
6.8440259842519682
20
-3.2208281496062989
11
6.8440259842519682
21
-3.2232700787401574
0
LINE
8
BLACK
6
CONTINUOUS
10
6.8440259842519682
20
-3.2232700787401574
11
6.8445654724409444
21
-3.2243490551181102
0
LINE
8
BLACK
6
CONTINUOUS
10
6.8445654724409444
20
-3.2243490551181102
11
6.8450442913385823
21
-3.2248278740157481
0
LINE
8
BLACK
6
CONTINUOUS
10
6.8450442913385823
20
-3.2248278740157481
11
6.8461233858267718
21
-3.2253674409448818
0
LINE
8
BLACK
6
CONTINUOUS
10
6.8461233858267718
20
-3.2253674409448818
11
6.8500651181102361
21
-3.2253674409448818
0
LINE
8
BLACK
6
CONTINUOUS
10
6.8500651181102361
20
-3.2253674409448818
11
6.8511440944881885
21
-3.2248279133858269
0
LINE
8
BLACK
6
CONTINUOUS
10
6.8511440944881885
20
-3.2248279133858269
11
6.8516230314960627
21
-3.2243490157480315
0
LINE
8
BLACK
6
CONTINUOUS
10
6.8516230314960627
20
-3.2243490157480315
11
6.8521624803149601
21
-3.2232701181102361
0
LINE
8
BLACK
6
CONTINUOUS
10
6.8521624803149601
20
-3.2232701181102361
11
6.8521624803149601
21
-3.2208280708661419
0
LINE
8
BLACK
6
CONTINUOUS
10
6.8521624803149601
20
-3.2208280708661419
11
6.85186374015748
21
-3.2202305905511812
0
LINE
8
BLACK
6
CONTINUOUS
10
6.85186374015748
20
-3.2202305905511812
11
6.844324763779527
21
-3.2202305905511812
0
LINE
8
BLACK
6
CONTINUOUS
10
6.844324763779527
20
-3.2202305905511812
11
6.8440259842519682
21
-3.2208281496062989
0
LINE
8
BLACK
6
CONTINUOUS
10
6.8556513385826774
20
-3.2036316929133859
11
6.8556770078740152
21
-3.2036231496062992
0
LINE
8
BLACK
6
CONTINUOUS
10
6.8556770078740152
20
-3.2036231496062992
11
6.8558594881889761
21
-3.2036731102362204
0
LINE
8
BLACK
6
CONTINUOUS
10
6.8558594881889761
20
-3.2036731102362204
11
6.85604531496063
21
-3.2037100787401576
0
LINE
8
BLACK
6
CONTINUOUS
10
6.85604531496063
20
-3.2037100787401576
11
6.8560644488188975
21
-3.2037292125984251
0
LINE
8
BLACK
6
CONTINUOUS
10
6.8560644488188975
20
-3.2037292125984251
11
6.8561214960629924
21
-3.2037448425196851
0
LINE
8
BLACK
6
CONTINUOUS
10
6.8561214960629924
20
-3.2037448425196851
11
6.8576212992125987
21
-3.2044947244094488
0
LINE
8
BLACK
6
CONTINUOUS
10
6.8576212992125987
20
-3.2044947244094488
11
6.8577709055118108
21
-3.2046108661417323
0
LINE
8
BLACK
6
CONTINUOUS
10
6.8577709055118108
20
-3.2046108661417323
11
6.8579282677165354
21
-3.2047159842519686
0
LINE
8
BLACK
6
CONTINUOUS
10
6.8579282677165354
20
-3.2047159842519686
11
6.8586781889763779
21
-3.2054659055118111
0
LINE
8
BLACK
6
CONTINUOUS
10
6.8586781889763779
20
-3.2054659055118111
11
6.8587833070866138
21
-3.2056232283464565
0
LINE
8
BLACK
6
CONTINUOUS
10
6.8587833070866138
20
-3.2056232283464565
11
6.8588994488188977
21
-3.2057728740157478
0
LINE
8
BLACK
6
CONTINUOUS
10
6.8588994488188977
20
-3.2057728740157478
11
6.8596493307086615
21
-3.2072726771653541
0
LINE
8
BLACK
6
CONTINUOUS
10
6.8596493307086615
20
-3.2072726771653541
11
6.8596649212598422
21
-3.2073296850393702
0
LINE
8
BLACK
6
CONTINUOUS
10
6.8596649212598422
20
-3.2073296850393702
11
6.8596840944881885
21
-3.2073488582677165
0
LINE
8
BLACK
6
CONTINUOUS
10
6.8596840944881885
20
-3.2073488582677165
11
6.8597210236220469
21
-3.2075346456692913
0
LINE
8
BLACK
6
CONTINUOUS
10
6.8597210236220469
20
-3.2075346456692913
11
6.8597710236220468
21
-3.2077171653543308
0
LINE
8
BLACK
6
CONTINUOUS
10
6.8597710236220468
20
-3.2077171653543308
11
6.8597624409448814
21
-3.2077427952755904
0
LINE
8
BLACK
6
CONTINUOUS
10
6.8597624409448814
20
-3.2077427952755904
11
6.8597740157480311
21
-3.2078008661417323
0
LINE
8
BLACK
6
CONTINUOUS
10
6.8597740157480311
20
-3.2078008661417323
11
6.8597740157480311
21
-3.2100505905511811
0
LINE
8
BLACK
6
CONTINUOUS
10
6.8597740157480311
20
-3.2100505905511811
11
6.8597624409448814
21
-3.2101086220472439
0
LINE
8
BLACK
6
CONTINUOUS
10
6.8597624409448814
20
-3.2101086220472439
11
6.8597710236220468
21
-3.2101342913385826
0
LINE
8
BLACK
6
CONTINUOUS
10
6.8597710236220468
20
-3.2101342913385826
11
6.8597210236220469
21
-3.2103167716535435
0
LINE
8
BLACK
6
CONTINUOUS
10
6.8597210236220469
20
-3.2103167716535435
11
6.8596840944881885
21
-3.2105025984251969
0
LINE
8
BLACK
6
CONTINUOUS
10
6.8596840944881885
20
-3.2105025984251969
11
6.8596649212598422
21
-3.2105217322834645
0
LINE
8
BLACK
6
CONTINUOUS
10
6.8596649212598422
20
-3.2105217322834645
11
6.8596493307086615
21
-3.2105787795275589
0
LINE
8
BLACK
6
CONTINUOUS
10
6.8596493307086615
20
-3.2105787795275589
11
6.8588994488188977
21
-3.2120785826771652
0
LINE
8
BLACK
6
CONTINUOUS
10
6.8588994488188977
20
-3.2120785826771652
11
6.8586168897637796
21
-3.2124426771653543
0
LINE
8
BLACK
6
CONTINUOUS
10
6.8586168897637796
20
-3.2124426771653543
11
6.8577593307086611
21
-3.2127285039370079
0
LINE
8
BLACK
6
CONTINUOUS
10
6.8577593307086611
20
-3.2127285039370079
11
6.8569507480314957
21
-3.212324251968504
0
LINE
8
BLACK
6
CONTINUOUS
10
6.8569507480314957
20
-3.212324251968504
11
6.8566649212598421
21
-3.2114666929133859
0
LINE
8
BLACK
6
CONTINUOUS
10
6.8566649212598421
20
-3.2114666929133859
11
6.8567866141732283
21
-3.2110222047244092
0
LINE
8
BLACK
6
CONTINUOUS
10
6.8567866141732283
20
-3.2110222047244092
11
6.8574118110236215
21
-3.2097717716535432
0
LINE
8
BLACK
6
CONTINUOUS
10
6.8574118110236215
20
-3.2097717716535432
11
6.8574118110236215
21
-3.208079645669291
0
LINE
8
BLACK
6
CONTINUOUS
10
6.8574118110236215
20
-3.208079645669291
11
6.8568722834645666
21
-3.2070006299212599
0
LINE
8
BLACK
6
CONTINUOUS
10
6.8568722834645666
20
-3.2070006299212599
11
6.8563935039370074
21
-3.2065218503937007
0
LINE
8
BLACK
6
CONTINUOUS
10
6.8563935039370074
20
-3.2065218503937007
11
6.8553144881889763
21
-3.2059823622047245
0
LINE
8
BLACK
6
CONTINUOUS
10
6.8553144881889763
20
-3.2059823622047245
11
6.8544612992125984
21
-3.2059823622047245
0
LINE
8
BLACK
6
CONTINUOUS
10
6.8544612992125984
20
-3.2059823622047245
11
6.8544716929133855
21
-3.206034842519685
0
LINE
8
BLACK
6
CONTINUOUS
10
6.8544716929133855
20
-3.206034842519685
11
6.8545216929133854
21
-3.2062173622047245
0
LINE
8
BLACK
6
CONTINUOUS
10
6.8545216929133854
20
-3.2062173622047245
11
6.85451311023622
21
-3.2062429921259841
0
LINE
8
BLACK
6
CONTINUOUS
10
6.85451311023622
20
-3.2062429921259841
11
6.8545246850393697
21
-3.206301062992126
0
LINE
8
BLACK
6
CONTINUOUS
10
6.8545246850393697
20
-3.206301062992126
11
6.8545246850393697
21
-3.2093007086614174
0
LINE
8
BLACK
6
CONTINUOUS
10
6.8545246850393697
20
-3.2093007086614174
11
6.85451311023622
21
-3.2093587401574801
0
LINE
8
BLACK
6
CONTINUOUS
10
6.85451311023622
20
-3.2093587401574801
11
6.8545216929133854
21
-3.2093844094488189
0
LINE
8
BLACK
6
CONTINUOUS
10
6.8545216929133854
20
-3.2093844094488189
11
6.8544716929133855
21
-3.2095668897637792
0
LINE
8
BLACK
6
CONTINUOUS
10
6.8544716929133855
20
-3.2095668897637792
11
6.8544347637795271
21
-3.2097527165354331
0
LINE
8
BLACK
6
CONTINUOUS
10
6.8544347637795271
20
-3.2097527165354331
11
6.8544155905511808
21
-3.2097718503937007
0
LINE
8
BLACK
6
CONTINUOUS
10
6.8544155905511808
20
-3.2097718503937007
11
6.8544
21
-3.2098288976377951
0
LINE
8
BLACK
6
CONTINUOUS
10
6.8544
20
-3.2098288976377951
11
6.8536501181102363
21
-3.2113287007874014
0
LINE
8
BLACK
6
CONTINUOUS
10
6.8536501181102363
20
-3.2113287007874014
11
6.8535338976377949
21
-3.2114784251968502
0
LINE
8
BLACK
6
CONTINUOUS
10
6.8535338976377949
20
-3.2114784251968502
11
6.8534288188976378
21
-3.2116357086614173
0
LINE
8
BLACK
6
CONTINUOUS
10
6.8534288188976378
20
-3.2116357086614173
11
6.852678937007874
21
-3.2123855905511811
0
LINE
8
BLACK
6
CONTINUOUS
10
6.852678937007874
20
-3.2123855905511811
11
6.8525214566929131
21
-3.2124907480314961
0
LINE
8
BLACK
6
CONTINUOUS
10
6.8525214566929131
20
-3.2124907480314961
11
6.852372007874016
21
-3.2126068110236221
0
LINE
8
BLACK
6
CONTINUOUS
10
6.852372007874016
20
-3.2126068110236221
11
6.8508722047244097
21
-3.2133567322834646
0
LINE
8
BLACK
6
CONTINUOUS
10
6.8508722047244097
20
-3.2133567322834646
11
6.8508151181102361
21
-3.2133723228346458
0
LINE
8
BLACK
6
CONTINUOUS
10
6.8508151181102361
20
-3.2133723228346458
11
6.8507959842519686
21
-3.2133914960629921
0
LINE
8
BLACK
6
CONTINUOUS
10
6.8507959842519686
20
-3.2133914960629921
11
6.8506101968503934
21
-3.2134284251968501
0
LINE
8
BLACK
6
CONTINUOUS
10
6.8506101968503934
20
-3.2134284251968501
11
6.8504276771653538
21
-3.2134784251968505
0
LINE
8
BLACK
6
CONTINUOUS
10
6.8504276771653538
20
-3.2134784251968505
11
6.850402007874016
21
-3.213469842519685
0
LINE
8
BLACK
6
CONTINUOUS
10
6.850402007874016
20
-3.213469842519685
11
6.8503439763779523
21
-3.2134814173228348
0
LINE
8
BLACK
6
CONTINUOUS
10
6.8503439763779523
20
-3.2134814173228348
11
6.8458445275590547
21
-3.2134814173228348
0
LINE
8
BLACK
6
CONTINUOUS
10
6.8458445275590547
20
-3.2134814173228348
11
6.8457865354330707
21
-3.2134698818897638
0
LINE
8
BLACK
6
CONTINUOUS
10
6.8457865354330707
20
-3.2134698818897638
11
6.8457608267716532
21
-3.2134784645669292
0
LINE
8
BLACK
6
CONTINUOUS
10
6.8457608267716532
20
-3.2134784645669292
11
6.8455779921259845
21
-3.2134283858267714
0
LINE
8
BLACK
6
CONTINUOUS
10
6.8455779921259845
20
-3.2134283858267714
11
6.8453925196850394
21
-3.2133914960629921
0
LINE
8
BLACK
6
CONTINUOUS
10
6.8453925196850394
20
-3.2133914960629921
11
6.845373346456693
21
-3.2133723228346458
0
LINE
8
BLACK
6
CONTINUOUS
10
6.845373346456693
20
-3.2133723228346458
11
6.845316338582677
21
-3.2133567322834646
0
LINE
8
BLACK
6
CONTINUOUS
10
6.845316338582677
20
-3.2133567322834646
11
6.8438164960629919
21
-3.2126068110236221
0
LINE
8
BLACK
6
CONTINUOUS
10
6.8438164960629919
20
-3.2126068110236221
11
6.8436670078740152
21
-3.2124907480314961
0
LINE
8
BLACK
6
CONTINUOUS
10
6.8436670078740152
20
-3.2124907480314961
11
6.8435095669291339
21
-3.2123855905511811
0
LINE
8
BLACK
6
CONTINUOUS
10
6.8435095669291339
20
-3.2123855905511811
11
6.8427596456692914
21
-3.2116357086614173
0
LINE
8
BLACK
6
CONTINUOUS
10
6.8427596456692914
20
-3.2116357086614173
11
6.8426544094488184
21
-3.2114782283464565
0
LINE
8
BLACK
6
CONTINUOUS
10
6.8426544094488184
20
-3.2114782283464565
11
6.8425383858267717
21
-3.2113287401574802
0
LINE
8
BLACK
6
CONTINUOUS
10
6.8425383858267717
20
-3.2113287401574802
11
6.8417884645669291
21
-3.2098289370078739
0
LINE
8
BLACK
6
CONTINUOUS
10
6.8417884645669291
20
-3.2098289370078739
11
6.8417728346456688
21
-3.2097718503937007
0
LINE
8
BLACK
6
CONTINUOUS
10
6.8417728346456688
20
-3.2097718503937007
11
6.8417537007874012
21
-3.2097527165354331
0
LINE
8
BLACK
6
CONTINUOUS
10
6.8417537007874012
20
-3.2097527165354331
11
6.841716732283464
21
-3.209566929133858
0
LINE
8
BLACK
6
CONTINUOUS
10
6.841716732283464
20
-3.209566929133858
11
6.8416667716535429
21
-3.2093844094488189
0
LINE
8
BLACK
6
CONTINUOUS
10
6.8416667716535429
20
-3.2093844094488189
11
6.8416753149606295
21
-3.2093587401574801
0
LINE
8
BLACK
6
CONTINUOUS
10
6.8416753149606295
20
-3.2093587401574801
11
6.8416637795275586
21
-3.2093007086614174
0
LINE
8
BLACK
6
CONTINUOUS
10
6.8416637795275586
20
-3.2093007086614174
11
6.8416637795275586
21
-3.206301062992126
0
LINE
8
BLACK
6
CONTINUOUS
10
6.8416637795275586
20
-3.206301062992126
11
6.8416753149606295
21
-3.2062429921259841
0
LINE
8
BLACK
6
CONTINUOUS
10
6.8416753149606295
20
-3.2062429921259841
11
6.8416667716535429
21
-3.2062173622047245
0
LINE
8
BLACK
6
CONTINUOUS
10
6.8416667716535429
20
-3.2062173622047245
11
6.841716732283464
21
-3.2060348031496062
0
LINE
8
BLACK
6
CONTINUOUS
10
6.841716732283464
20
-3.2060348031496062
11
6.8417537007874012
21
-3.2058490551181102
0
LINE
8
BLACK
6
CONTINUOUS
10
6.8417537007874012
20
-3.2058490551181102
11
6.8417728346456688
21
-3.2058298818897639
0
LINE
8
BLACK
6
CONTINUOUS
10
6.8417728346456688
20
-3.2058298818897639
11
6.8417884645669291
21
-3.2057728346456691
0
LINE
8
BLACK
6
CONTINUOUS
10
6.8417884645669291
20
-3.2057728346456691
11
6.8419500393700785
21
-3.2054496062992124
0
LINE
8
BLACK
6
CONTINUOUS
10
6.8419500393700785
20
-3.2054496062992124
11
6.8417537007874012
21
-3.2052532677165355
0
LINE
8
BLACK
6
CONTINUOUS
10
6.8417537007874012
20
-3.2052532677165355
11
6.8417537007874012
21
-3.204349251968504
0
LINE
8
BLACK
6
CONTINUOUS
10
6.8417537007874012
20
-3.204349251968504
11
6.842392874015748
21
-3.2037100787401576
0
LINE
8
BLACK
6
CONTINUOUS
10
6.842392874015748
20
-3.2037100787401576
11
6.8428448818897634
21
-3.2036201574803149
0
LINE
8
BLACK
6
CONTINUOUS
10
6.8428448818897634
20
-3.2036201574803149
11
6.8555933070866137
21
-3.2036201574803149
0
LINE
8
BLACK
6
CONTINUOUS
10
6.8555933070866137
20
-3.2036201574803149
11
6.8556513385826774
21
-3.2036316929133859
0
LINE
8
BLACK
6
CONTINUOUS
10
6.8440259842519682
20
-3.2065799212598423
11
6.8440259842519682
21
-3.2090218503937007
0
LINE
8
BLACK
6
CONTINUOUS
10
6.8440259842519682
20
-3.2090218503937007
11
6.8445654724409444
21
-3.2101008267716535
0
LINE
8
BLACK
6
CONTINUOUS
10
6.8445654724409444
20
-3.2101008267716535
11
6.8450442913385823
21
-3.2105796456692914
0
LINE
8
BLACK
6
CONTINUOUS
10
6.8450442913385823
20
-3.2105796456692914
11
6.8461233858267718
21
-3.2111192125984251
0
LINE
8
BLACK
6
CONTINUOUS
10
6.8461233858267718
20
-3.2111192125984251
11
6.8500651181102361
21
-3.2111192125984251
0
LINE
8
BLACK
6
CONTINUOUS
10
6.8500651181102361
20
-3.2111192125984251
11
6.8511440944881885
21
-3.2105796850393702
0
LINE
8
BLACK
6
CONTINUOUS
10
6.8511440944881885
20
-3.2105796850393702
11
6.8516230314960627
21
-3.2101007874015748
0
LINE
8
BLACK
6
CONTINUOUS
10
6.8516230314960627
20
-3.2101007874015748
11
6.8521624803149601
21
-3.2090218897637794
0
LINE
8
BLACK
6
CONTINUOUS
10
6.8521624803149601
20
-3.2090218897637794
11
6.8521624803149601
21
-3.2065798425196848
0
LINE
8
BLACK
6
CONTINUOUS
10
6.8521624803149601
20
-3.2065798425196848
11
6.85186374015748
21
-3.2059823622047245
0
LINE
8
BLACK
6
CONTINUOUS
10
6.85186374015748
20
-3.2059823622047245
11
6.844324763779527
21
-3.2059823622047245
0
LINE
8
BLACK
6
CONTINUOUS
10
6.844324763779527
20
-3.2059823622047245
11
6.8440259842519682
21
-3.2065799212598423
0
LINE
8
BLACK
6
CONTINUOUS
10
6.8467657086614171
20
-3.1894059842519686
11
6.8468237007874011
21
-3.1893944094488189
0
LINE
8
BLACK
6
CONTINUOUS
10
6.8468237007874011
20
-3.1893944094488189
11
6.8468731102362206
21
-3.1894273622047242
0
LINE
8
BLACK
6
CONTINUOUS
10
6.8468731102362206
20
-3.1894273622047242
11
6.8470464566929135
21
-3.1894618503937009
0
LINE
8
BLACK
6
CONTINUOUS
10
6.8470464566929135
20
-3.1894618503937009
11
6.8472896062992126
21
-3.189705
0
LINE
8
BLACK
6
CONTINUOUS
10
6.8472896062992126
20
-3.189705
11
6.847575787401575
21
-3.1898957874015745
0
LINE
8
BLACK
6
CONTINUOUS
10
6.847575787401575
20
-3.1898957874015745
11
6.8476435433070861
21
-3.190058937007874
0
LINE
8
BLACK
6
CONTINUOUS
10
6.8476435433070861
20
-3.190058937007874
11
6.8476856299212594
21
-3.1901010236220473
0
LINE
8
BLACK
6
CONTINUOUS
10
6.8476856299212594
20
-3.1901010236220473
11
6.8476856299212594
21
-3.1901601968503934
0
LINE
8
BLACK
6
CONTINUOUS
10
6.8476856299212594
20
-3.1901601968503934
11
6.8477525984251963
21
-3.1903214173228345
0
LINE
8
BLACK
6
CONTINUOUS
10
6.8477525984251963
20
-3.1903214173228345
11
6.849062519685039
21
-3.1968709842519685
0
LINE
8
BLACK
6
CONTINUOUS
10
6.849062519685039
20
-3.1968709842519685
11
6.8508150393700786
21
-3.1968709842519685
0
LINE
8
BLACK
6
CONTINUOUS
10
6.8508150393700786
20
-3.1968709842519685
11
6.8517133464566928
21
-3.196421811023622
0
LINE
8
BLACK
6
CONTINUOUS
10
6.8517133464566928
20
-3.196421811023622
11
6.8521624803149601
21
-3.1955235433070865
0
LINE
8
BLACK
6
CONTINUOUS
10
6.8521624803149601
20
-3.1955235433070865
11
6.8521624803149601
21
-3.1930815354330706
0
LINE
8
BLACK
6
CONTINUOUS
10
6.8521624803149601
20
-3.1930815354330706
11
6.8515372834645669
21
-3.1918311023622046
0
LINE
8
BLACK
6
CONTINUOUS
10
6.8515372834645669
20
-3.1918311023622046
11
6.8514155905511807
21
-3.1913865748031496
0
LINE
8
BLACK
6
CONTINUOUS
10
6.8514155905511807
20
-3.1913865748031496
11
6.8517014566929131
21
-3.1905290551181102
0
LINE
8
BLACK
6
CONTINUOUS
10
6.8517014566929131
20
-3.1905290551181102
11
6.8525100393700784
21
-3.1901248031496063
0
LINE
8
BLACK
6
CONTINUOUS
10
6.8525100393700784
20
-3.1901248031496063
11
6.8533675590551182
21
-3.1904106692913383
0
LINE
8
BLACK
6
CONTINUOUS
10
6.8533675590551182
20
-3.1904106692913383
11
6.8536501181102363
21
-3.1907747244094486
0
LINE
8
BLACK
6
CONTINUOUS
10
6.8536501181102363
20
-3.1907747244094486
11
6.8544
21
-3.1922745669291337
0
LINE
8
BLACK
6
CONTINUOUS
10
6.8544
20
-3.1922745669291337
11
6.8544155905511808
21
-3.1923315748031493
0
LINE
8
BLACK
6
CONTINUOUS
10
6.8544155905511808
20
-3.1923315748031493
11
6.8544347637795271
21
-3.1923507480314961
0
LINE
8
BLACK
6
CONTINUOUS
10
6.8544347637795271
20
-3.1923507480314961
11
6.8544716929133855
21
-3.1925365354330708
0
LINE
8
BLACK
6
CONTINUOUS
10
6.8544716929133855
20
-3.1925365354330708
11
6.8545216929133854
21
-3.1927190551181104
0
LINE
8
BLACK
6
CONTINUOUS
10
6.8545216929133854
20
-3.1927190551181104
11
6.85451311023622
21
-3.1927446850393699
0
LINE
8
BLACK
6
CONTINUOUS
10
6.85451311023622
20
-3.1927446850393699
11
6.8545246850393697
21
-3.1928027559055119
0
LINE
8
BLACK
6
CONTINUOUS
10
6.8545246850393697
20
-3.1928027559055119
11
6.8545246850393697
21
-3.1958023622047245
0
LINE
8
BLACK
6
CONTINUOUS
10
6.8545246850393697
20
-3.1958023622047245
11
6.85451311023622
21
-3.1958603937007872
0
LINE
8
BLACK
6
CONTINUOUS
10
6.85451311023622
20
-3.1958603937007872
11
6.8545216929133854
21
-3.195886062992126
0
LINE
8
BLACK
6
CONTINUOUS
10
6.8545216929133854
20
-3.195886062992126
11
6.8544716929133855
21
-3.1960685433070863
0
LINE
8
BLACK
6
CONTINUOUS
10
6.8544716929133855
20
-3.1960685433070863
11
6.8544347637795271
21
-3.1962543700787402
0
LINE
8
BLACK
6
CONTINUOUS
10
6.8544347637795271
20
-3.1962543700787402
11
6.8544155905511808
21
-3.1962735039370078
0
LINE
8
BLACK
6
CONTINUOUS
10
6.8544155905511808
20
-3.1962735039370078
11
6.8544
21
-3.1963305511811022
0
LINE
8
BLACK
6
CONTINUOUS
10
6.8544
20
-3.1963305511811022
11
6.8536501181102363
21
-3.1978303543307085
0
LINE
8
BLACK
6
CONTINUOUS
10
6.8536501181102363
20
-3.1978303543307085
11
6.8535059055118106
21
-3.1980161417322832
0
LINE
8
BLACK
6
CONTINUOUS
10
6.8535059055118106
20
-3.1980161417322832
11
6.853485984251968
21
-3.1980759842519686
0
LINE
8
BLACK
6
CONTINUOUS
10
6.853485984251968
20
-3.1980759842519686
11
6.8534193307086611
21
-3.1981276771653544
0
LINE
8
BLACK
6
CONTINUOUS
10
6.8534193307086611
20
-3.1981276771653544
11
6.8533675590551182
21
-3.1981944488188976
0
LINE
8
BLACK
6
CONTINUOUS
10
6.8533675590551182
20
-3.1981944488188976
11
6.8533076377952753
21
-3.198214409448819
0
LINE
8
BLACK
6
CONTINUOUS
10
6.8533076377952753
20
-3.198214409448819
11
6.8531219291338585
21
-3.1983585826771654
0
LINE
8
BLACK
6
CONTINUOUS
10
6.8531219291338585
20
-3.1983585826771654
11
6.8516220472440947
21
-3.199108503937008
0
LINE
8
BLACK
6
CONTINUOUS
10
6.8516220472440947
20
-3.199108503937008
11
6.8515649999999999
21
-3.1991240944881887
0
LINE
8
BLACK
6
CONTINUOUS
10
6.8515649999999999
20
-3.1991240944881887
11
6.8515458661417323
21
-3.1991432677165355
0
LINE
8
BLACK
6
CONTINUOUS
10
6.8515458661417323
20
-3.1991432677165355
11
6.8513600393700784
21
-3.1991801968503935
0
LINE
8
BLACK
6
CONTINUOUS
10
6.8513600393700784
20
-3.1991801968503935
11
6.8511775590551176
21
-3.1992301968503938
0
LINE
8
BLACK
6
CONTINUOUS
10
6.8511775590551176
20
-3.1992301968503938
11
6.8511518897637798
21
-3.1992216141732284
0
LINE
8
BLACK
6
CONTINUOUS
10
6.8511518897637798
20
-3.1992216141732284
11
6.8510938582677161
21
-3.1992331889763781
0
LINE
8
BLACK
6
CONTINUOUS
10
6.8510938582677161
20
-3.1992331889763781
11
6.8450946062992122
21
-3.1992331889763781
0
LINE
8
BLACK
6
CONTINUOUS
10
6.8450946062992122
20
-3.1992331889763781
11
6.8450366141732282
21
-3.1992216535433071
0
LINE
8
BLACK
6
CONTINUOUS
10
6.8450366141732282
20
-3.1992216535433071
11
6.8450109055118107
21
-3.1992302362204725
0
LINE
8
BLACK
6
CONTINUOUS
10
6.8450109055118107
20
-3.1992302362204725
11
6.844828070866142
21
-3.1991801574803147
0
LINE
8
BLACK
6
CONTINUOUS
10
6.844828070866142
20
-3.1991801574803147
11
6.8446425984251968
21
-3.1991432677165355
0
LINE
8
BLACK
6
CONTINUOUS
10
6.8446425984251968
20
-3.1991432677165355
11
6.8446234251968505
21
-3.1991240944881887
0
LINE
8
BLACK
6
CONTINUOUS
10
6.8446234251968505
20
-3.1991240944881887
11
6.8445664173228344
21
-3.199108503937008
0
LINE
8
BLACK
6
CONTINUOUS
10
6.8445664173228344
20
-3.199108503937008
11
6.8430665748031494
21
-3.1983585826771654
0
LINE
8
BLACK
6
CONTINUOUS
10
6.8430665748031494
20
-3.1983585826771654
11
6.842880826771653
21
-3.1982143700787402
0
LINE
8
BLACK
6
CONTINUOUS
10
6.842880826771653
20
-3.1982143700787402
11
6.8428209842519685
21
-3.1981944488188976
0
LINE
8
BLACK
6
CONTINUOUS
10
6.8428209842519685
20
-3.1981944488188976
11
6.8427692125984247
21
-3.1981277165354332
0
LINE
8
BLACK
6
CONTINUOUS
10
6.8427692125984247
20
-3.1981277165354332
11
6.8427025196850391
21
-3.1980759842519686
0
LINE
8
BLACK
6
CONTINUOUS
10
6.8427025196850391
20
-3.1980759842519686
11
6.8426825590551177
21
-3.1980161417322832
0
LINE
8
BLACK
6
CONTINUOUS
10
6.8426825590551177
20
-3.1980161417322832
11
6.8425383858267717
21
-3.1978303937007873
0
LINE
8
BLACK
6
CONTINUOUS
10
6.8425383858267717
20
-3.1978303937007873
11
6.8417884645669291
21
-3.196330590551181
0
LINE
8
BLACK
6
CONTINUOUS
10
6.8417884645669291
20
-3.196330590551181
11
6.8417728346456688
21
-3.1962735039370078
0
LINE
8
BLACK
6
CONTINUOUS
10
6.8417728346456688
20
-3.1962735039370078
11
6.8417537007874012
21
-3.1962543700787402
0
LINE
8
BLACK
6
CONTINUOUS
10
6.8417537007874012
20
-3.1962543700787402
11
6.841716732283464
21
-3.1960685826771651
0
LINE
8
BLACK
6
CONTINUOUS
10
6.841716732283464
20
-3.1960685826771651
11
6.8416667716535429
21
-3.195886062992126
0
LINE
8
BLACK
6
CONTINUOUS
10
6.8416667716535429
20
-3.195886062992126
11
6.8416753149606295
21
-3.1958603937007872
0
LINE
8
BLACK
6
CONTINUOUS
10
6.8416753149606295
20
-3.1958603937007872
11
6.8416637795275586
21
-3.1958023622047245
0
LINE
8
BLACK
6
CONTINUOUS
10
6.8416637795275586
20
-3.1958023622047245
11
6.8416637795275586
21
-3.1928027559055119
0
LINE
8
BLACK
6
CONTINUOUS
10
6.8416637795275586
20
-3.1928027559055119
11
6.8416753149606295
21
-3.1927446850393699
0
LINE
8
BLACK
6
CONTINUOUS
10
6.8416753149606295
20
-3.1927446850393699
11
6.8416667716535429
21
-3.1927190551181104
0
LINE
8
BLACK
6
CONTINUOUS
10
6.8416667716535429
20
-3.1927190551181104
11
6.841716732283464
21
-3.1925365354330708
0
LINE
8
BLACK
6
CONTINUOUS
10
6.841716732283464
20
-3.1925365354330708
11
6.8417537007874012
21
-3.1923507480314961
0
LINE
8
BLACK
6
CONTINUOUS
10
6.8417537007874012
20
-3.1923507480314961
11
6.8417728346456688
21
-3.1923315748031493
0
LINE
8
BLACK
6
CONTINUOUS
10
6.8417728346456688
20
-3.1923315748031493
11
6.8417884645669291
21
-3.1922745669291337
0
LINE
8
BLACK
6
CONTINUOUS
10
6.8417884645669291
20
-3.1922745669291337
11
6.8425383858267717
21
-3.1907746850393699
0
LINE
8
BLACK
6
CONTINUOUS
10
6.8425383858267717
20
-3.1907746850393699
11
6.8426825196850389
21
-3.1905889370078739
0
LINE
8
BLACK
6
CONTINUOUS
10
6.8426825196850389
20
-3.1905889370078739
11
6.8427025196850391
21
-3.1905290551181102
0
LINE
8
BLACK
6
CONTINUOUS
10
6.8427025196850391
20
-3.1905290551181102
11
6.8427692519685035
21
-3.1904772440944882
0
LINE
8
BLACK
6
CONTINUOUS
10
6.8427692519685035
20
-3.1904772440944882
11
6.8428209842519685
21
-3.1904106299212596
0
LINE
8
BLACK
6
CONTINUOUS
10
6.8428209842519685
20
-3.1904106299212596
11
6.8428807874015742
21
-3.1903906692913386
0
LINE
8
BLACK
6
CONTINUOUS
10
6.8428807874015742
20
-3.1903906692913386
11
6.8430666141732281
21
-3.1902464960629922
0
LINE
8
BLACK
6
CONTINUOUS
10
6.8430666141732281
20
-3.1902464960629922
11
6.8445664173228344
21
-3.1894966141732284
0
LINE
8
BLACK
6
CONTINUOUS
10
6.8445664173228344
20
-3.1894966141732284
11
6.8446234251968505
21
-3.1894809842519685
0
LINE
8
BLACK
6
CONTINUOUS
10
6.8446234251968505
20
-3.1894809842519685
11
6.8446425984251968
21
-3.1894618503937009
0
LINE
8
BLACK
6
CONTINUOUS
10
6.8446425984251968
20
-3.1894618503937009
11
6.8448283858267711
21
-3.1894248818897637
0
LINE
8
BLACK
6
CONTINUOUS
10
6.8448283858267711
20
-3.1894248818897637
11
6.8450109055118107
21
-3.1893749212598426
0
LINE
8
BLACK
6
CONTINUOUS
10
6.8450109055118107
20
-3.1893749212598426
11
6.8450365354330707
21
-3.1893834645669292
0
LINE
8
BLACK
6
CONTINUOUS
10
6.8450365354330707
20
-3.1893834645669292
11
6.8450946062992122
21
-3.1893719291338583
0
LINE
8
BLACK
6
CONTINUOUS
10
6.8450946062992122
20
-3.1893719291338583
11
6.8465944488188972
21
-3.1893719291338583
0
LINE
8
BLACK
6
CONTINUOUS
10
6.8465944488188972
20
-3.1893719291338583
11
6.8467657086614171
21
-3.1894059842519686
0
LINE
8
BLACK
6
CONTINUOUS
10
6.8444751181102363
20
-3.1921832283464564
11
6.8440259842519682
21
-3.1930815748031494
0
LINE
8
BLACK
6
CONTINUOUS
10
6.8440259842519682
20
-3.1930815748031494
11
6.8440259842519682
21
-3.1955235039370078
0
LINE
8
BLACK
6
CONTINUOUS
10
6.8440259842519682
20
-3.1955235039370078
11
6.8444751181102363
21
-3.1964217716535432
0
LINE
8
BLACK
6
CONTINUOUS
10
6.8444751181102363
20
-3.1964217716535432
11
6.8453734645669293
21
-3.1968709842519685
0
LINE
8
BLACK
6
CONTINUOUS
10
6.8453734645669293
20
-3.1968709842519685
11
6.8466535433070863
21
-3.1968709842519685
0
LINE
8
BLACK
6
CONTINUOUS
10
6.8466535433070863
20
-3.1968709842519685
11
6.8456261811023618
21
-3.1917341338582674
0
LINE
8
BLACK
6
CONTINUOUS
10
6.8456261811023618
20
-3.1917341338582674
11
6.8453734251968505
21
-3.1917341338582674
0
LINE
8
BLACK
6
CONTINUOUS
10
6.8453734251968505
20
-3.1917341338582674
11
6.8444751181102363
21
-3.1921832283464564
0
CIRCLE
8
BLACK
10
5.8245275590551175
20
-2.9496456692913386
40
0.0068897637795276
0
CIRCLE
8
BLACK
10
5.0371259842519684
20
-2.9496456692913386
40
0.0068897637795276
0
CIRCLE
8
BLACK
10
5.4308267716535434
20
-2.9496456692913386
40
0.0068897637795276
0
CIRCLE
8
BLACK
10
6.6119291338582675
20
-4.1307480314960632
40
0.0068897637795276
0
CIRCLE
8
BLACK
10
6.2182283464566925
20
-4.1307480314960632
40
0.0068897637795276
0
CIRCLE
8
BLACK
10
5.8245275590551175
20
-4.1307480314960632
40
0.0068897637795276
0
CIRCLE
8
BLACK
10
5.0371259842519684
20
-4.1307480314960632
40
0.0068897637795276
0
CIRCLE
8
BLACK
10
6.6119291338582675
20
-2.9496456692913386
40
0.0068897637795276
0
CIRCLE
8
BLACK
10
6.2182283464566925
20
-2.9496456692913386
40
0.0068897637795276
0
CIRCLE
8
BLACK
10
5.4308267716535434
20
-4.1307480314960632
40
0.0068897637795276
0
CIRCLE
8
BLACK
10
5.5921653543307084
20
-3.2797244094488187
40
0.0039370078740157
0
CIRCLE
8
BLACK
10
5.5449212598425195
20
-3.2797244094488187
40
0.0039370078740157
0
CIRCLE
8
BLACK
10
5.4976771653543306
20
-3.2797244094488187
40
0.0039370078740157
0
CIRCLE
8
BLACK
10
5.4504330708661417
20
-3.2797244094488187
40
0.0039370078740157
0
CIRCLE
8
BLACK
10
5.5921653543307084
20
-3.3407480314960627
40
0.0039370078740157
0
CIRCLE
8
BLACK
10
5.5449212598425195
20
-3.3407480314960627
40
0.0039370078740157
0
CIRCLE
8
BLACK
10
5.4976771653543306
20
-3.3407480314960627
40
0.0039370078740157
0
CIRCLE
8
BLACK
10
5.4504330708661417
20
-3.3407480314960627
40
0.0039370078740157
0
CIRCLE
8
BLACK
10
5.5921653543307084
20
-3.4017716535433071
40
0.0039370078740157
0
CIRCLE
8
BLACK
10
5.5449212598425195
20
-3.4017716535433071
40
0.0039370078740157
0
CIRCLE
8
BLACK
10
5.4976771653543306
20
-3.4017716535433071
40
0.0039370078740157
0
CIRCLE
8
BLACK
10
5.4504330708661417
20
-3.4017716535433071
40
0.0039370078740157
0
CIRCLE
8
BLACK
10
6.0181496062992128
20
-3.6763779527559053
40
0.0039370078740157
0
CIRCLE
8
BLACK
10
6.0417716535433073
20
-3.6763779527559053
40
0.0039370078740157
0
CIRCLE
8
BLACK
10
6.0653937007874017
20
-3.6763779527559053
40
0.0039370078740157
0
CIRCLE
8
BLACK
10
6.5892913385826768
20
-3.3581102362204724
40
0.0059055118110236
0
CIRCLE
8
BLACK
10
6.5892913385826768
20
-3.1317322834645669
40
0.0059055118110236
0
CIRCLE
8
BLACK
10
6.5892913385826768
20
-3.9486614173228345
40
0.0059055118110236
0
CIRCLE
8
BLACK
10
6.5892913385826768
20
-3.7222834645669289
40
0.0059055118110236
  0
ENDSEC
  0
EOF
