  0
SECTION
  2
HEADER
  9
$ANGBASE
  50
0.0
  9
$ANGDIR
  70
1
  9
$MEASUREMENT
  70
0
  0
ENDSEC
  0
SECTION
  2
TABLES
  0
TABLE
  2
LTYPE
  70
4
  0
LTYPE
  5
40F
  2
CONTINUOUS
  70
0
  3
Solid line
  72
65
  73
0
  40
0.0
  0
LTYPE
  5
410
  2
DASHDOT
 70
0
  3
Dash Dot ____ _ ____ _
 72
65
 73
4
 40
2.0
 49
1.25
 49
-0.25
 49
0.25
 49
-0.25
  0
LTYPE
  5
411
  2
DASHED
 70
0
  3
Dashed __ __ __ __ __
 72
65
 73
2
 40
0.75
 49
0.5
 49
-0.25
  0
LTYPE
  5
43B
  2
DOTTED
 70
0
  3
Dotted .  .  .  .
 72
65
 73
2
 40
0.2
 49
0.0
 49
-0.2
  0
ENDTAB
  0
TABLE
  2
STYLE
  70
4
  0
STYLE
  2
KICAD
  70
0
  40
0
  41
1
  42
1
  50
0
  71
0
  3
isocp.shx
  0
STYLE
  2
KICADB
  70
0
  40
0
  41
1
  42
1
  50
0
  71
0
  3
isocp.shx
  0
STYLE
  2
KICADI
  70
0
  40
0
  41
1
  42
1
  50
15
  71
0
  3
isocp.shx
  0
STYLE
  2
KICADBI
  70
0
  40
0
  41
1
  42
1
  50
15
  71
0
  3
isocp.shx
  0
ENDTAB
  0
TABLE
  2
LAYER
  70
1
  0
LAYER
  2
BLACK
  70
0
  62
7
  6
CONTINUOUS
  0
ENDTAB
  0
ENDSEC
  0
SECTION
  2
ENTITIES
0
LINE
8
BLACK
6
CONTINUOUS
10
6.9086
20
-3.69136
11
6.90917
21
-3.69276
0
LINE
8
BLACK
6
CONTINUOUS
10
6.90917
20
-3.69276
11
6.90917
21
-3.97819
0
LINE
8
BLACK
6
CONTINUOUS
10
6.90917
20
-3.97819
11
6.9086
21
-3.97958
0
LINE
8
BLACK
6
CONTINUOUS
10
6.9086
20
-3.97958
11
6.9072
21
-3.98016
0
LINE
8
BLACK
6
CONTINUOUS
10
6.9072
20
-3.98016
11
6.90581
21
-3.97958
0
LINE
8
BLACK
6
CONTINUOUS
10
6.90581
20
-3.97958
11
6.90524
21
-3.97819
0
LINE
8
BLACK
6
CONTINUOUS
10
6.90524
20
-3.97819
11
6.90524
21
-3.69276
0
LINE
8
BLACK
6
CONTINUOUS
10
6.90524
20
-3.69276
11
6.90581
21
-3.69136
0
LINE
8
BLACK
6
CONTINUOUS
10
6.90581
20
-3.69136
11
6.9072
21
-3.69079
0
LINE
8
BLACK
6
CONTINUOUS
10
6.9072
20
-3.69079
11
6.9086
21
-3.69136
0
LINE
8
BLACK
6
CONTINUOUS
10
6.83672
20
-3.88993
11
6.83638
21
-3.88909
0
LINE
8
BLACK
6
CONTINUOUS
10
6.83638
20
-3.88909
11
6.83638
21
-3.88309
0
LINE
8
BLACK
6
CONTINUOUS
10
6.83638
20
-3.88309
11
6.83648
21
-3.88284
0
LINE
8
BLACK
6
CONTINUOUS
10
6.83648
20
-3.88284
11
6.8365
21
-3.88256
0
LINE
8
BLACK
6
CONTINUOUS
10
6.8365
20
-3.88256
11
6.83725
21
-3.88106
0
LINE
8
BLACK
6
CONTINUOUS
10
6.83725
20
-3.88106
11
6.8374
21
-3.88094
0
LINE
8
BLACK
6
CONTINUOUS
10
6.8374
20
-3.88094
11
6.83747
21
-3.88076
0
LINE
8
BLACK
6
CONTINUOUS
10
6.83747
20
-3.88076
11
6.83822
21
-3.88001
0
LINE
8
BLACK
6
CONTINUOUS
10
6.83822
20
-3.88001
11
6.8384
21
-3.87993
0
LINE
8
BLACK
6
CONTINUOUS
10
6.8384
20
-3.87993
11
6.83853
21
-3.87979
0
LINE
8
BLACK
6
CONTINUOUS
10
6.83853
20
-3.87979
11
6.84003
21
-3.87904
0
LINE
8
BLACK
6
CONTINUOUS
10
6.84003
20
-3.87904
11
6.8403
21
-3.87902
0
LINE
8
BLACK
6
CONTINUOUS
10
6.8403
20
-3.87902
11
6.84056
21
-3.87891
0
LINE
8
BLACK
6
CONTINUOUS
10
6.84056
20
-3.87891
11
6.84281
21
-3.87891
0
LINE
8
BLACK
6
CONTINUOUS
10
6.84281
20
-3.87891
11
6.84306
21
-3.87902
0
LINE
8
BLACK
6
CONTINUOUS
10
6.84306
20
-3.87902
11
6.84333
21
-3.87904
0
LINE
8
BLACK
6
CONTINUOUS
10
6.84333
20
-3.87904
11
6.84483
21
-3.87979
0
LINE
8
BLACK
6
CONTINUOUS
10
6.84483
20
-3.87979
11
6.84496
21
-3.87993
0
LINE
8
BLACK
6
CONTINUOUS
10
6.84496
20
-3.87993
11
6.84514
21
-3.88001
0
LINE
8
BLACK
6
CONTINUOUS
10
6.84514
20
-3.88001
11
6.84589
21
-3.88076
0
LINE
8
BLACK
6
CONTINUOUS
10
6.84589
20
-3.88076
11
6.84597
21
-3.88094
0
LINE
8
BLACK
6
CONTINUOUS
10
6.84597
20
-3.88094
11
6.84611
21
-3.88106
0
LINE
8
BLACK
6
CONTINUOUS
10
6.84611
20
-3.88106
11
6.84686
21
-3.88256
0
LINE
8
BLACK
6
CONTINUOUS
10
6.84686
20
-3.88256
11
6.84688
21
-3.88284
0
LINE
8
BLACK
6
CONTINUOUS
10
6.84688
20
-3.88284
11
6.84699
21
-3.88309
0
LINE
8
BLACK
6
CONTINUOUS
10
6.84699
20
-3.88309
11
6.84699
21
-3.88791
0
LINE
8
BLACK
6
CONTINUOUS
10
6.84699
20
-3.88791
11
6.85331
21
-3.88791
0
LINE
8
BLACK
6
CONTINUOUS
10
6.85331
20
-3.88791
11
6.85414
21
-3.88826
0
LINE
8
BLACK
6
CONTINUOUS
10
6.85414
20
-3.88826
11
6.85449
21
-3.88909
0
LINE
8
BLACK
6
CONTINUOUS
10
6.85449
20
-3.88909
11
6.85414
21
-3.88993
0
LINE
8
BLACK
6
CONTINUOUS
10
6.85414
20
-3.88993
11
6.85331
21
-3.89027
0
LINE
8
BLACK
6
CONTINUOUS
10
6.85331
20
-3.89027
11
6.83756
21
-3.89027
0
LINE
8
BLACK
6
CONTINUOUS
10
6.83756
20
-3.89027
11
6.83672
21
-3.88993
0
LINE
8
BLACK
6
CONTINUOUS
10
6.84084
20
-3.88127
11
6.83976
21
-3.88181
0
LINE
8
BLACK
6
CONTINUOUS
10
6.83976
20
-3.88181
11
6.83928
21
-3.88229
0
LINE
8
BLACK
6
CONTINUOUS
10
6.83928
20
-3.88229
11
6.83874
21
-3.88337
0
LINE
8
BLACK
6
CONTINUOUS
10
6.83874
20
-3.88337
11
6.83874
21
-3.88791
0
LINE
8
BLACK
6
CONTINUOUS
10
6.83874
20
-3.88791
11
6.84463
21
-3.88791
0
LINE
8
BLACK
6
CONTINUOUS
10
6.84463
20
-3.88791
11
6.84463
21
-3.88337
0
LINE
8
BLACK
6
CONTINUOUS
10
6.84463
20
-3.88337
11
6.84409
21
-3.88229
0
LINE
8
BLACK
6
CONTINUOUS
10
6.84409
20
-3.88229
11
6.84361
21
-3.88181
0
LINE
8
BLACK
6
CONTINUOUS
10
6.84361
20
-3.88181
11
6.84253
21
-3.88127
0
LINE
8
BLACK
6
CONTINUOUS
10
6.84253
20
-3.88127
11
6.84084
21
-3.88127
0
LINE
8
BLACK
6
CONTINUOUS
10
6.85264
20
-3.86351
11
6.85339
21
-3.86426
0
LINE
8
BLACK
6
CONTINUOUS
10
6.85339
20
-3.86426
11
6.8535
21
-3.86451
0
LINE
8
BLACK
6
CONTINUOUS
10
6.8535
20
-3.86451
11
6.85368
21
-3.86472
0
LINE
8
BLACK
6
CONTINUOUS
10
6.85368
20
-3.86472
11
6.85443
21
-3.86697
0
LINE
8
BLACK
6
CONTINUOUS
10
6.85443
20
-3.86697
11
6.85441
21
-3.86716
0
LINE
8
BLACK
6
CONTINUOUS
10
6.85441
20
-3.86716
11
6.85449
21
-3.86734
0
LINE
8
BLACK
6
CONTINUOUS
10
6.85449
20
-3.86734
11
6.85449
21
-3.86884
0
LINE
8
BLACK
6
CONTINUOUS
10
6.85449
20
-3.86884
11
6.85441
21
-3.86902
0
LINE
8
BLACK
6
CONTINUOUS
10
6.85441
20
-3.86902
11
6.85443
21
-3.86922
0
LINE
8
BLACK
6
CONTINUOUS
10
6.85443
20
-3.86922
11
6.85368
21
-3.87147
0
LINE
8
BLACK
6
CONTINUOUS
10
6.85368
20
-3.87147
11
6.8535
21
-3.87167
0
LINE
8
BLACK
6
CONTINUOUS
10
6.8535
20
-3.87167
11
6.85339
21
-3.87193
0
LINE
8
BLACK
6
CONTINUOUS
10
6.85339
20
-3.87193
11
6.85189
21
-3.87343
0
LINE
8
BLACK
6
CONTINUOUS
10
6.85189
20
-3.87343
11
6.85171
21
-3.8735
0
LINE
8
BLACK
6
CONTINUOUS
10
6.85171
20
-3.8735
11
6.85158
21
-3.87365
0
LINE
8
BLACK
6
CONTINUOUS
10
6.85158
20
-3.87365
11
6.85008
21
-3.8744
0
LINE
8
BLACK
6
CONTINUOUS
10
6.85008
20
-3.8744
11
6.84995
21
-3.87441
0
LINE
8
BLACK
6
CONTINUOUS
10
6.84995
20
-3.87441
11
6.84984
21
-3.87449
0
LINE
8
BLACK
6
CONTINUOUS
10
6.84984
20
-3.87449
11
6.84684
21
-3.87524
0
LINE
8
BLACK
6
CONTINUOUS
10
6.84684
20
-3.87524
11
6.84669
21
-3.87522
0
LINE
8
BLACK
6
CONTINUOUS
10
6.84669
20
-3.87522
11
6.84656
21
-3.87527
0
LINE
8
BLACK
6
CONTINUOUS
10
6.84656
20
-3.87527
11
6.84431
21
-3.87527
0
LINE
8
BLACK
6
CONTINUOUS
10
6.84431
20
-3.87527
11
6.84417
21
-3.87522
0
LINE
8
BLACK
6
CONTINUOUS
10
6.84417
20
-3.87522
11
6.84402
21
-3.87524
0
LINE
8
BLACK
6
CONTINUOUS
10
6.84402
20
-3.87524
11
6.84102
21
-3.87449
0
LINE
8
BLACK
6
CONTINUOUS
10
6.84102
20
-3.87449
11
6.84091
21
-3.87441
0
LINE
8
BLACK
6
CONTINUOUS
10
6.84091
20
-3.87441
11
6.84078
21
-3.8744
0
LINE
8
BLACK
6
CONTINUOUS
10
6.84078
20
-3.8744
11
6.83928
21
-3.87365
0
LINE
8
BLACK
6
CONTINUOUS
10
6.83928
20
-3.87365
11
6.83915
21
-3.8735
0
LINE
8
BLACK
6
CONTINUOUS
10
6.83915
20
-3.8735
11
6.83897
21
-3.87343
0
LINE
8
BLACK
6
CONTINUOUS
10
6.83897
20
-3.87343
11
6.83747
21
-3.87193
0
LINE
8
BLACK
6
CONTINUOUS
10
6.83747
20
-3.87193
11
6.83737
21
-3.87167
0
LINE
8
BLACK
6
CONTINUOUS
10
6.83737
20
-3.87167
11
6.83719
21
-3.87147
0
LINE
8
BLACK
6
CONTINUOUS
10
6.83719
20
-3.87147
11
6.83644
21
-3.86922
0
LINE
8
BLACK
6
CONTINUOUS
10
6.83644
20
-3.86922
11
6.83645
21
-3.86902
0
LINE
8
BLACK
6
CONTINUOUS
10
6.83645
20
-3.86902
11
6.83638
21
-3.86884
0
LINE
8
BLACK
6
CONTINUOUS
10
6.83638
20
-3.86884
11
6.83638
21
-3.86734
0
LINE
8
BLACK
6
CONTINUOUS
10
6.83638
20
-3.86734
11
6.83645
21
-3.86716
0
LINE
8
BLACK
6
CONTINUOUS
10
6.83645
20
-3.86716
11
6.83644
21
-3.86697
0
LINE
8
BLACK
6
CONTINUOUS
10
6.83644
20
-3.86697
11
6.83719
21
-3.86472
0
LINE
8
BLACK
6
CONTINUOUS
10
6.83719
20
-3.86472
11
6.83737
21
-3.86451
0
LINE
8
BLACK
6
CONTINUOUS
10
6.83737
20
-3.86451
11
6.83747
21
-3.86426
0
LINE
8
BLACK
6
CONTINUOUS
10
6.83747
20
-3.86426
11
6.83822
21
-3.86351
0
LINE
8
BLACK
6
CONTINUOUS
10
6.83822
20
-3.86351
11
6.83906
21
-3.86316
0
LINE
8
BLACK
6
CONTINUOUS
10
6.83906
20
-3.86316
11
6.83989
21
-3.86351
0
LINE
8
BLACK
6
CONTINUOUS
10
6.83989
20
-3.86351
11
6.84024
21
-3.86434
0
LINE
8
BLACK
6
CONTINUOUS
10
6.84024
20
-3.86434
11
6.83989
21
-3.86518
0
LINE
8
BLACK
6
CONTINUOUS
10
6.83989
20
-3.86518
11
6.83934
21
-3.86573
0
LINE
8
BLACK
6
CONTINUOUS
10
6.83934
20
-3.86573
11
6.83874
21
-3.86754
0
LINE
8
BLACK
6
CONTINUOUS
10
6.83874
20
-3.86754
11
6.83874
21
-3.86865
0
LINE
8
BLACK
6
CONTINUOUS
10
6.83874
20
-3.86865
11
6.83934
21
-3.87045
0
LINE
8
BLACK
6
CONTINUOUS
10
6.83934
20
-3.87045
11
6.84051
21
-3.87162
0
LINE
8
BLACK
6
CONTINUOUS
10
6.84051
20
-3.87162
11
6.84172
21
-3.87223
0
LINE
8
BLACK
6
CONTINUOUS
10
6.84172
20
-3.87223
11
6.84445
21
-3.87291
0
LINE
8
BLACK
6
CONTINUOUS
10
6.84445
20
-3.87291
11
6.84641
21
-3.87291
0
LINE
8
BLACK
6
CONTINUOUS
10
6.84641
20
-3.87291
11
6.84914
21
-3.87223
0
LINE
8
BLACK
6
CONTINUOUS
10
6.84914
20
-3.87223
11
6.85036
21
-3.87162
0
LINE
8
BLACK
6
CONTINUOUS
10
6.85036
20
-3.87162
11
6.85152
21
-3.87045
0
LINE
8
BLACK
6
CONTINUOUS
10
6.85152
20
-3.87045
11
6.85212
21
-3.86865
0
LINE
8
BLACK
6
CONTINUOUS
10
6.85212
20
-3.86865
11
6.85212
21
-3.86754
0
LINE
8
BLACK
6
CONTINUOUS
10
6.85212
20
-3.86754
11
6.85152
21
-3.86573
0
LINE
8
BLACK
6
CONTINUOUS
10
6.85152
20
-3.86573
11
6.85097
21
-3.86518
0
LINE
8
BLACK
6
CONTINUOUS
10
6.85097
20
-3.86518
11
6.85062
21
-3.86434
0
LINE
8
BLACK
6
CONTINUOUS
10
6.85062
20
-3.86434
11
6.85097
21
-3.86351
0
LINE
8
BLACK
6
CONTINUOUS
10
6.85097
20
-3.86351
11
6.85181
21
-3.86316
0
LINE
8
BLACK
6
CONTINUOUS
10
6.85181
20
-3.86316
11
6.85264
21
-3.86351
0
LINE
8
BLACK
6
CONTINUOUS
10
6.83672
20
-3.85843
11
6.83638
21
-3.85759
0
LINE
8
BLACK
6
CONTINUOUS
10
6.83638
20
-3.85759
11
6.83638
21
-3.85235
0
LINE
8
BLACK
6
CONTINUOUS
10
6.83638
20
-3.85235
11
6.83648
21
-3.85209
0
LINE
8
BLACK
6
CONTINUOUS
10
6.83648
20
-3.85209
11
6.8365
21
-3.85182
0
LINE
8
BLACK
6
CONTINUOUS
10
6.8365
20
-3.85182
11
6.83725
21
-3.85032
0
LINE
8
BLACK
6
CONTINUOUS
10
6.83725
20
-3.85032
11
6.8374
21
-3.85019
0
LINE
8
BLACK
6
CONTINUOUS
10
6.8374
20
-3.85019
11
6.83747
21
-3.85001
0
LINE
8
BLACK
6
CONTINUOUS
10
6.83747
20
-3.85001
11
6.83822
21
-3.84926
0
LINE
8
BLACK
6
CONTINUOUS
10
6.83822
20
-3.84926
11
6.8384
21
-3.84919
0
LINE
8
BLACK
6
CONTINUOUS
10
6.8384
20
-3.84919
11
6.83853
21
-3.84904
0
LINE
8
BLACK
6
CONTINUOUS
10
6.83853
20
-3.84904
11
6.84003
21
-3.84829
0
LINE
8
BLACK
6
CONTINUOUS
10
6.84003
20
-3.84829
11
6.8403
21
-3.84827
0
LINE
8
BLACK
6
CONTINUOUS
10
6.8403
20
-3.84827
11
6.84056
21
-3.84816
0
LINE
8
BLACK
6
CONTINUOUS
10
6.84056
20
-3.84816
11
6.84206
21
-3.84816
0
LINE
8
BLACK
6
CONTINUOUS
10
6.84206
20
-3.84816
11
6.84231
21
-3.84827
0
LINE
8
BLACK
6
CONTINUOUS
10
6.84231
20
-3.84827
11
6.84258
21
-3.84829
0
LINE
8
BLACK
6
CONTINUOUS
10
6.84258
20
-3.84829
11
6.84408
21
-3.84904
0
LINE
8
BLACK
6
CONTINUOUS
10
6.84408
20
-3.84904
11
6.84421
21
-3.84919
0
LINE
8
BLACK
6
CONTINUOUS
10
6.84421
20
-3.84919
11
6.84439
21
-3.84926
0
LINE
8
BLACK
6
CONTINUOUS
10
6.84439
20
-3.84926
11
6.84476
21
-3.84963
0
LINE
8
BLACK
6
CONTINUOUS
10
6.84476
20
-3.84963
11
6.84487
21
-3.84951
0
LINE
8
BLACK
6
CONTINUOUS
10
6.84487
20
-3.84951
11
6.84497
21
-3.84926
0
LINE
8
BLACK
6
CONTINUOUS
10
6.84497
20
-3.84926
11
6.84572
21
-3.84851
0
LINE
8
BLACK
6
CONTINUOUS
10
6.84572
20
-3.84851
11
6.8459
21
-3.84844
0
LINE
8
BLACK
6
CONTINUOUS
10
6.8459
20
-3.84844
11
6.84603
21
-3.84829
0
LINE
8
BLACK
6
CONTINUOUS
10
6.84603
20
-3.84829
11
6.84753
21
-3.84754
0
LINE
8
BLACK
6
CONTINUOUS
10
6.84753
20
-3.84754
11
6.8478
21
-3.84752
0
LINE
8
BLACK
6
CONTINUOUS
10
6.8478
20
-3.84752
11
6.84806
21
-3.84741
0
LINE
8
BLACK
6
CONTINUOUS
10
6.84806
20
-3.84741
11
6.85031
21
-3.84741
0
LINE
8
BLACK
6
CONTINUOUS
10
6.85031
20
-3.84741
11
6.85056
21
-3.84752
0
LINE
8
BLACK
6
CONTINUOUS
10
6.85056
20
-3.84752
11
6.85083
21
-3.84754
0
LINE
8
BLACK
6
CONTINUOUS
10
6.85083
20
-3.84754
11
6.85233
21
-3.84829
0
LINE
8
BLACK
6
CONTINUOUS
10
6.85233
20
-3.84829
11
6.85246
21
-3.84844
0
LINE
8
BLACK
6
CONTINUOUS
10
6.85246
20
-3.84844
11
6.85264
21
-3.84851
0
LINE
8
BLACK
6
CONTINUOUS
10
6.85264
20
-3.84851
11
6.85339
21
-3.84926
0
LINE
8
BLACK
6
CONTINUOUS
10
6.85339
20
-3.84926
11
6.85346
21
-3.84944
0
LINE
8
BLACK
6
CONTINUOUS
10
6.85346
20
-3.84944
11
6.85361
21
-3.84957
0
LINE
8
BLACK
6
CONTINUOUS
10
6.85361
20
-3.84957
11
6.85436
21
-3.85107
0
LINE
8
BLACK
6
CONTINUOUS
10
6.85436
20
-3.85107
11
6.85438
21
-3.85134
0
LINE
8
BLACK
6
CONTINUOUS
10
6.85438
20
-3.85134
11
6.85449
21
-3.8516
0
LINE
8
BLACK
6
CONTINUOUS
10
6.85449
20
-3.8516
11
6.85449
21
-3.85759
0
LINE
8
BLACK
6
CONTINUOUS
10
6.85449
20
-3.85759
11
6.85414
21
-3.85843
0
LINE
8
BLACK
6
CONTINUOUS
10
6.85414
20
-3.85843
11
6.85331
21
-3.85878
0
LINE
8
BLACK
6
CONTINUOUS
10
6.85331
20
-3.85878
11
6.83756
21
-3.85878
0
LINE
8
BLACK
6
CONTINUOUS
10
6.83756
20
-3.85878
11
6.83672
21
-3.85843
0
LINE
8
BLACK
6
CONTINUOUS
10
6.84084
20
-3.85053
11
6.83976
21
-3.85107
0
LINE
8
BLACK
6
CONTINUOUS
10
6.83976
20
-3.85107
11
6.83928
21
-3.85155
0
LINE
8
BLACK
6
CONTINUOUS
10
6.83928
20
-3.85155
11
6.83874
21
-3.85262
0
LINE
8
BLACK
6
CONTINUOUS
10
6.83874
20
-3.85262
11
6.83874
21
-3.85641
0
LINE
8
BLACK
6
CONTINUOUS
10
6.83874
20
-3.85641
11
6.84388
21
-3.85641
0
LINE
8
BLACK
6
CONTINUOUS
10
6.84388
20
-3.85641
11
6.84388
21
-3.85262
0
LINE
8
BLACK
6
CONTINUOUS
10
6.84388
20
-3.85262
11
6.84334
21
-3.85155
0
LINE
8
BLACK
6
CONTINUOUS
10
6.84334
20
-3.85155
11
6.84286
21
-3.85107
0
LINE
8
BLACK
6
CONTINUOUS
10
6.84286
20
-3.85107
11
6.84178
21
-3.85053
0
LINE
8
BLACK
6
CONTINUOUS
10
6.84178
20
-3.85053
11
6.84084
21
-3.85053
0
LINE
8
BLACK
6
CONTINUOUS
10
6.84833
20
-3.84978
11
6.84726
21
-3.85032
0
LINE
8
BLACK
6
CONTINUOUS
10
6.84726
20
-3.85032
11
6.84684
21
-3.85073
0
LINE
8
BLACK
6
CONTINUOUS
10
6.84684
20
-3.85073
11
6.84624
21
-3.85254
0
LINE
8
BLACK
6
CONTINUOUS
10
6.84624
20
-3.85254
11
6.84624
21
-3.85641
0
LINE
8
BLACK
6
CONTINUOUS
10
6.84624
20
-3.85641
11
6.85212
21
-3.85641
0
LINE
8
BLACK
6
CONTINUOUS
10
6.85212
20
-3.85641
11
6.85212
21
-3.85187
0
LINE
8
BLACK
6
CONTINUOUS
10
6.85212
20
-3.85187
11
6.85158
21
-3.8508
0
LINE
8
BLACK
6
CONTINUOUS
10
6.85158
20
-3.8508
11
6.85111
21
-3.85032
0
LINE
8
BLACK
6
CONTINUOUS
10
6.85111
20
-3.85032
11
6.85003
21
-3.84978
0
LINE
8
BLACK
6
CONTINUOUS
10
6.85003
20
-3.84978
11
6.84833
21
-3.84978
0
LINE
8
BLACK
6
CONTINUOUS
10
6.84687
20
-3.82205
11
6.84721
21
-3.82212
0
LINE
8
BLACK
6
CONTINUOUS
10
6.84721
20
-3.82212
11
6.84728
21
-3.82222
0
LINE
8
BLACK
6
CONTINUOUS
10
6.84728
20
-3.82222
11
6.84739
21
-3.82226
0
LINE
8
BLACK
6
CONTINUOUS
10
6.84739
20
-3.82226
11
6.84752
21
-3.82258
0
LINE
8
BLACK
6
CONTINUOUS
10
6.84752
20
-3.82258
11
6.84771
21
-3.82287
0
LINE
8
BLACK
6
CONTINUOUS
10
6.84771
20
-3.82287
11
6.84902
21
-3.82942
0
LINE
8
BLACK
6
CONTINUOUS
10
6.84902
20
-3.82942
11
6.85078
21
-3.82942
0
LINE
8
BLACK
6
CONTINUOUS
10
6.85078
20
-3.82942
11
6.85167
21
-3.82897
0
LINE
8
BLACK
6
CONTINUOUS
10
6.85167
20
-3.82897
11
6.85212
21
-3.82807
0
LINE
8
BLACK
6
CONTINUOUS
10
6.85212
20
-3.82807
11
6.85212
21
-3.82563
0
LINE
8
BLACK
6
CONTINUOUS
10
6.85212
20
-3.82563
11
6.8515
21
-3.82438
0
LINE
8
BLACK
6
CONTINUOUS
10
6.8515
20
-3.82438
11
6.85143
21
-3.82348
0
LINE
8
BLACK
6
CONTINUOUS
10
6.85143
20
-3.82348
11
6.85203
21
-3.82279
0
LINE
8
BLACK
6
CONTINUOUS
10
6.85203
20
-3.82279
11
6.85293
21
-3.82273
0
LINE
8
BLACK
6
CONTINUOUS
10
6.85293
20
-3.82273
11
6.85361
21
-3.82332
0
LINE
8
BLACK
6
CONTINUOUS
10
6.85361
20
-3.82332
11
6.85436
21
-3.82482
0
LINE
8
BLACK
6
CONTINUOUS
10
6.85436
20
-3.82482
11
6.85438
21
-3.82509
0
LINE
8
BLACK
6
CONTINUOUS
10
6.85438
20
-3.82509
11
6.85449
21
-3.82535
0
LINE
8
BLACK
6
CONTINUOUS
10
6.85449
20
-3.82535
11
6.85449
21
-3.82835
0
LINE
8
BLACK
6
CONTINUOUS
10
6.85449
20
-3.82835
11
6.85438
21
-3.8286
0
LINE
8
BLACK
6
CONTINUOUS
10
6.85438
20
-3.8286
11
6.85436
21
-3.82888
0
LINE
8
BLACK
6
CONTINUOUS
10
6.85436
20
-3.82888
11
6.85361
21
-3.83038
0
LINE
8
BLACK
6
CONTINUOUS
10
6.85361
20
-3.83038
11
6.85333
21
-3.83062
0
LINE
8
BLACK
6
CONTINUOUS
10
6.85333
20
-3.83062
11
6.85308
21
-3.8309
0
LINE
8
BLACK
6
CONTINUOUS
10
6.85308
20
-3.8309
11
6.85158
21
-3.83165
0
LINE
8
BLACK
6
CONTINUOUS
10
6.85158
20
-3.83165
11
6.85131
21
-3.83167
0
LINE
8
BLACK
6
CONTINUOUS
10
6.85131
20
-3.83167
11
6.85106
21
-3.83178
0
LINE
8
BLACK
6
CONTINUOUS
10
6.85106
20
-3.83178
11
6.84506
21
-3.83178
0
LINE
8
BLACK
6
CONTINUOUS
10
6.84506
20
-3.83178
11
6.8448
21
-3.83167
0
LINE
8
BLACK
6
CONTINUOUS
10
6.8448
20
-3.83167
11
6.84453
21
-3.83165
0
LINE
8
BLACK
6
CONTINUOUS
10
6.84453
20
-3.83165
11
6.84303
21
-3.8309
0
LINE
8
BLACK
6
CONTINUOUS
10
6.84303
20
-3.8309
11
6.84278
21
-3.83062
0
LINE
8
BLACK
6
CONTINUOUS
10
6.84278
20
-3.83062
11
6.8425
21
-3.83038
0
LINE
8
BLACK
6
CONTINUOUS
10
6.8425
20
-3.83038
11
6.84175
21
-3.82888
0
LINE
8
BLACK
6
CONTINUOUS
10
6.84175
20
-3.82888
11
6.84173
21
-3.8286
0
LINE
8
BLACK
6
CONTINUOUS
10
6.84173
20
-3.8286
11
6.84163
21
-3.82835
0
LINE
8
BLACK
6
CONTINUOUS
10
6.84163
20
-3.82835
11
6.84163
21
-3.82535
0
LINE
8
BLACK
6
CONTINUOUS
10
6.84163
20
-3.82535
11
6.84173
21
-3.82509
0
LINE
8
BLACK
6
CONTINUOUS
10
6.84173
20
-3.82509
11
6.84175
21
-3.82482
0
LINE
8
BLACK
6
CONTINUOUS
10
6.84175
20
-3.82482
11
6.8425
21
-3.82332
0
LINE
8
BLACK
6
CONTINUOUS
10
6.8425
20
-3.82332
11
6.84278
21
-3.82308
0
LINE
8
BLACK
6
CONTINUOUS
10
6.84278
20
-3.82308
11
6.84303
21
-3.82279
0
LINE
8
BLACK
6
CONTINUOUS
10
6.84303
20
-3.82279
11
6.84453
21
-3.82204
0
LINE
8
BLACK
6
CONTINUOUS
10
6.84453
20
-3.82204
11
6.8448
21
-3.82202
0
LINE
8
BLACK
6
CONTINUOUS
10
6.8448
20
-3.82202
11
6.84506
21
-3.82192
0
LINE
8
BLACK
6
CONTINUOUS
10
6.84506
20
-3.82192
11
6.84656
21
-3.82192
0
LINE
8
BLACK
6
CONTINUOUS
10
6.84656
20
-3.82192
11
6.84687
21
-3.82205
0
LINE
8
BLACK
6
CONTINUOUS
10
6.84534
20
-3.82428
11
6.84444
21
-3.82473
0
LINE
8
BLACK
6
CONTINUOUS
10
6.84444
20
-3.82473
11
6.84399
21
-3.82563
0
LINE
8
BLACK
6
CONTINUOUS
10
6.84399
20
-3.82563
11
6.84399
21
-3.82807
0
LINE
8
BLACK
6
CONTINUOUS
10
6.84399
20
-3.82807
11
6.84444
21
-3.82897
0
LINE
8
BLACK
6
CONTINUOUS
10
6.84444
20
-3.82897
11
6.84534
21
-3.82942
0
LINE
8
BLACK
6
CONTINUOUS
10
6.84534
20
-3.82942
11
6.84662
21
-3.82942
0
LINE
8
BLACK
6
CONTINUOUS
10
6.84662
20
-3.82942
11
6.84559
21
-3.82428
0
LINE
8
BLACK
6
CONTINUOUS
10
6.84559
20
-3.82428
11
6.84534
21
-3.82428
0
LINE
8
BLACK
6
CONTINUOUS
10
6.85414
20
-3.80877
11
6.85449
21
-3.8096
0
LINE
8
BLACK
6
CONTINUOUS
10
6.85449
20
-3.8096
11
6.85421
21
-3.81027
0
LINE
8
BLACK
6
CONTINUOUS
10
6.85421
20
-3.81027
11
6.85436
21
-3.81057
0
LINE
8
BLACK
6
CONTINUOUS
10
6.85436
20
-3.81057
11
6.85438
21
-3.81085
0
LINE
8
BLACK
6
CONTINUOUS
10
6.85438
20
-3.81085
11
6.85449
21
-3.8111
0
LINE
8
BLACK
6
CONTINUOUS
10
6.85449
20
-3.8111
11
6.85449
21
-3.8141
0
LINE
8
BLACK
6
CONTINUOUS
10
6.85449
20
-3.8141
11
6.85438
21
-3.81435
0
LINE
8
BLACK
6
CONTINUOUS
10
6.85438
20
-3.81435
11
6.85436
21
-3.81463
0
LINE
8
BLACK
6
CONTINUOUS
10
6.85436
20
-3.81463
11
6.85361
21
-3.81613
0
LINE
8
BLACK
6
CONTINUOUS
10
6.85361
20
-3.81613
11
6.85346
21
-3.81626
0
LINE
8
BLACK
6
CONTINUOUS
10
6.85346
20
-3.81626
11
6.85339
21
-3.81644
0
LINE
8
BLACK
6
CONTINUOUS
10
6.85339
20
-3.81644
11
6.85264
21
-3.81718
0
LINE
8
BLACK
6
CONTINUOUS
10
6.85264
20
-3.81718
11
6.85246
21
-3.81726
0
LINE
8
BLACK
6
CONTINUOUS
10
6.85246
20
-3.81726
11
6.85233
21
-3.81741
0
LINE
8
BLACK
6
CONTINUOUS
10
6.85233
20
-3.81741
11
6.85083
21
-3.81816
0
LINE
8
BLACK
6
CONTINUOUS
10
6.85083
20
-3.81816
11
6.85056
21
-3.81818
0
LINE
8
BLACK
6
CONTINUOUS
10
6.85056
20
-3.81818
11
6.85031
21
-3.81828
0
LINE
8
BLACK
6
CONTINUOUS
10
6.85031
20
-3.81828
11
6.84581
21
-3.81828
0
LINE
8
BLACK
6
CONTINUOUS
10
6.84581
20
-3.81828
11
6.84555
21
-3.81818
0
LINE
8
BLACK
6
CONTINUOUS
10
6.84555
20
-3.81818
11
6.84528
21
-3.81816
0
LINE
8
BLACK
6
CONTINUOUS
10
6.84528
20
-3.81816
11
6.84378
21
-3.81741
0
LINE
8
BLACK
6
CONTINUOUS
10
6.84378
20
-3.81741
11
6.84365
21
-3.81726
0
LINE
8
BLACK
6
CONTINUOUS
10
6.84365
20
-3.81726
11
6.84347
21
-3.81718
0
LINE
8
BLACK
6
CONTINUOUS
10
6.84347
20
-3.81718
11
6.84272
21
-3.81644
0
LINE
8
BLACK
6
CONTINUOUS
10
6.84272
20
-3.81644
11
6.84265
21
-3.81626
0
LINE
8
BLACK
6
CONTINUOUS
10
6.84265
20
-3.81626
11
6.8425
21
-3.81613
0
LINE
8
BLACK
6
CONTINUOUS
10
6.8425
20
-3.81613
11
6.84175
21
-3.81463
0
LINE
8
BLACK
6
CONTINUOUS
10
6.84175
20
-3.81463
11
6.84173
21
-3.81435
0
LINE
8
BLACK
6
CONTINUOUS
10
6.84173
20
-3.81435
11
6.84163
21
-3.8141
0
LINE
8
BLACK
6
CONTINUOUS
10
6.84163
20
-3.8141
11
6.84163
21
-3.8111
0
LINE
8
BLACK
6
CONTINUOUS
10
6.84163
20
-3.8111
11
6.84173
21
-3.81085
0
LINE
8
BLACK
6
CONTINUOUS
10
6.84173
20
-3.81085
11
6.84174
21
-3.81078
0
LINE
8
BLACK
6
CONTINUOUS
10
6.84174
20
-3.81078
11
6.83756
21
-3.81078
0
LINE
8
BLACK
6
CONTINUOUS
10
6.83756
20
-3.81078
11
6.83672
21
-3.81044
0
LINE
8
BLACK
6
CONTINUOUS
10
6.83672
20
-3.81044
11
6.83638
21
-3.8096
0
LINE
8
BLACK
6
CONTINUOUS
10
6.83638
20
-3.8096
11
6.83672
21
-3.80877
0
LINE
8
BLACK
6
CONTINUOUS
10
6.83672
20
-3.80877
11
6.83756
21
-3.80842
0
LINE
8
BLACK
6
CONTINUOUS
10
6.83756
20
-3.80842
11
6.85331
21
-3.80842
0
LINE
8
BLACK
6
CONTINUOUS
10
6.85331
20
-3.80842
11
6.85414
21
-3.80877
0
LINE
8
BLACK
6
CONTINUOUS
10
6.84429
20
-3.81078
11
6.84399
21
-3.81138
0
LINE
8
BLACK
6
CONTINUOUS
10
6.84399
20
-3.81138
11
6.84399
21
-3.81382
0
LINE
8
BLACK
6
CONTINUOUS
10
6.84399
20
-3.81382
11
6.84453
21
-3.8149
0
LINE
8
BLACK
6
CONTINUOUS
10
6.84453
20
-3.8149
11
6.84501
21
-3.81538
0
LINE
8
BLACK
6
CONTINUOUS
10
6.84501
20
-3.81538
11
6.84608
21
-3.81592
0
LINE
8
BLACK
6
CONTINUOUS
10
6.84608
20
-3.81592
11
6.85003
21
-3.81592
0
LINE
8
BLACK
6
CONTINUOUS
10
6.85003
20
-3.81592
11
6.85111
21
-3.81538
0
LINE
8
BLACK
6
CONTINUOUS
10
6.85111
20
-3.81538
11
6.85158
21
-3.8149
0
LINE
8
BLACK
6
CONTINUOUS
10
6.85158
20
-3.8149
11
6.85212
21
-3.81382
0
LINE
8
BLACK
6
CONTINUOUS
10
6.85212
20
-3.81382
11
6.85212
21
-3.81138
0
LINE
8
BLACK
6
CONTINUOUS
10
6.85212
20
-3.81138
11
6.85183
21
-3.81078
0
LINE
8
BLACK
6
CONTINUOUS
10
6.85183
20
-3.81078
11
6.84429
21
-3.81078
0
LINE
8
BLACK
6
CONTINUOUS
10
6.85581
20
-3.79428
11
6.85608
21
-3.7943
0
LINE
8
BLACK
6
CONTINUOUS
10
6.85608
20
-3.7943
11
6.85758
21
-3.79505
0
LINE
8
BLACK
6
CONTINUOUS
10
6.85758
20
-3.79505
11
6.85771
21
-3.79519
0
LINE
8
BLACK
6
CONTINUOUS
10
6.85771
20
-3.79519
11
6.85789
21
-3.79527
0
LINE
8
BLACK
6
CONTINUOUS
10
6.85789
20
-3.79527
11
6.85864
21
-3.79602
0
LINE
8
BLACK
6
CONTINUOUS
10
6.85864
20
-3.79602
11
6.85871
21
-3.7962
0
LINE
8
BLACK
6
CONTINUOUS
10
6.85871
20
-3.7962
11
6.85886
21
-3.79632
0
LINE
8
BLACK
6
CONTINUOUS
10
6.85886
20
-3.79632
11
6.85961
21
-3.79782
0
LINE
8
BLACK
6
CONTINUOUS
10
6.85961
20
-3.79782
11
6.85963
21
-3.7981
0
LINE
8
BLACK
6
CONTINUOUS
10
6.85963
20
-3.7981
11
6.85974
21
-3.79835
0
LINE
8
BLACK
6
CONTINUOUS
10
6.85974
20
-3.79835
11
6.85974
21
-3.8006
0
LINE
8
BLACK
6
CONTINUOUS
10
6.85974
20
-3.8006
11
6.85963
21
-3.80086
0
LINE
8
BLACK
6
CONTINUOUS
10
6.85963
20
-3.80086
11
6.85961
21
-3.80113
0
LINE
8
BLACK
6
CONTINUOUS
10
6.85961
20
-3.80113
11
6.85886
21
-3.80263
0
LINE
8
BLACK
6
CONTINUOUS
10
6.85886
20
-3.80263
11
6.85818
21
-3.80322
0
LINE
8
BLACK
6
CONTINUOUS
10
6.85818
20
-3.80322
11
6.85728
21
-3.80316
0
LINE
8
BLACK
6
CONTINUOUS
10
6.85728
20
-3.80316
11
6.85668
21
-3.80248
0
LINE
8
BLACK
6
CONTINUOUS
10
6.85668
20
-3.80248
11
6.85675
21
-3.80157
0
LINE
8
BLACK
6
CONTINUOUS
10
6.85675
20
-3.80157
11
6.85737
21
-3.80032
0
LINE
8
BLACK
6
CONTINUOUS
10
6.85737
20
-3.80032
11
6.85737
21
-3.79863
0
LINE
8
BLACK
6
CONTINUOUS
10
6.85737
20
-3.79863
11
6.85683
21
-3.79755
0
LINE
8
BLACK
6
CONTINUOUS
10
6.85683
20
-3.79755
11
6.85636
21
-3.79707
0
LINE
8
BLACK
6
CONTINUOUS
10
6.85636
20
-3.79707
11
6.85528
21
-3.79653
0
LINE
8
BLACK
6
CONTINUOUS
10
6.85528
20
-3.79653
11
6.85438
21
-3.79653
0
LINE
8
BLACK
6
CONTINUOUS
10
6.85438
20
-3.79653
11
6.85438
21
-3.7966
0
LINE
8
BLACK
6
CONTINUOUS
10
6.85438
20
-3.7966
11
6.85449
21
-3.79685
0
LINE
8
BLACK
6
CONTINUOUS
10
6.85449
20
-3.79685
11
6.85449
21
-3.79985
0
LINE
8
BLACK
6
CONTINUOUS
10
6.85449
20
-3.79985
11
6.85438
21
-3.80011
0
LINE
8
BLACK
6
CONTINUOUS
10
6.85438
20
-3.80011
11
6.85436
21
-3.80038
0
LINE
8
BLACK
6
CONTINUOUS
10
6.85436
20
-3.80038
11
6.85361
21
-3.80188
0
LINE
8
BLACK
6
CONTINUOUS
10
6.85361
20
-3.80188
11
6.85346
21
-3.80201
0
LINE
8
BLACK
6
CONTINUOUS
10
6.85346
20
-3.80201
11
6.85339
21
-3.80219
0
LINE
8
BLACK
6
CONTINUOUS
10
6.85339
20
-3.80219
11
6.85264
21
-3.80294
0
LINE
8
BLACK
6
CONTINUOUS
10
6.85264
20
-3.80294
11
6.85246
21
-3.80301
0
LINE
8
BLACK
6
CONTINUOUS
10
6.85246
20
-3.80301
11
6.85233
21
-3.80316
0
LINE
8
BLACK
6
CONTINUOUS
10
6.85233
20
-3.80316
11
6.85083
21
-3.80391
0
LINE
8
BLACK
6
CONTINUOUS
10
6.85083
20
-3.80391
11
6.85056
21
-3.80393
0
LINE
8
BLACK
6
CONTINUOUS
10
6.85056
20
-3.80393
11
6.85031
21
-3.80403
0
LINE
8
BLACK
6
CONTINUOUS
10
6.85031
20
-3.80403
11
6.84581
21
-3.80403
0
LINE
8
BLACK
6
CONTINUOUS
10
6.84581
20
-3.80403
11
6.84555
21
-3.80393
0
LINE
8
BLACK
6
CONTINUOUS
10
6.84555
20
-3.80393
11
6.84528
21
-3.80391
0
LINE
8
BLACK
6
CONTINUOUS
10
6.84528
20
-3.80391
11
6.84378
21
-3.80316
0
LINE
8
BLACK
6
CONTINUOUS
10
6.84378
20
-3.80316
11
6.84365
21
-3.80301
0
LINE
8
BLACK
6
CONTINUOUS
10
6.84365
20
-3.80301
11
6.84347
21
-3.80294
0
LINE
8
BLACK
6
CONTINUOUS
10
6.84347
20
-3.80294
11
6.84272
21
-3.80219
0
LINE
8
BLACK
6
CONTINUOUS
10
6.84272
20
-3.80219
11
6.84265
21
-3.80201
0
LINE
8
BLACK
6
CONTINUOUS
10
6.84265
20
-3.80201
11
6.8425
21
-3.80188
0
LINE
8
BLACK
6
CONTINUOUS
10
6.8425
20
-3.80188
11
6.84175
21
-3.80038
0
LINE
8
BLACK
6
CONTINUOUS
10
6.84175
20
-3.80038
11
6.84173
21
-3.80011
0
LINE
8
BLACK
6
CONTINUOUS
10
6.84173
20
-3.80011
11
6.84163
21
-3.79985
0
LINE
8
BLACK
6
CONTINUOUS
10
6.84163
20
-3.79985
11
6.84163
21
-3.79685
0
LINE
8
BLACK
6
CONTINUOUS
10
6.84163
20
-3.79685
11
6.84173
21
-3.7966
0
LINE
8
BLACK
6
CONTINUOUS
10
6.84173
20
-3.7966
11
6.84175
21
-3.79632
0
LINE
8
BLACK
6
CONTINUOUS
10
6.84175
20
-3.79632
11
6.8419
21
-3.79602
0
LINE
8
BLACK
6
CONTINUOUS
10
6.8419
20
-3.79602
11
6.84163
21
-3.79535
0
LINE
8
BLACK
6
CONTINUOUS
10
6.84163
20
-3.79535
11
6.84197
21
-3.79452
0
LINE
8
BLACK
6
CONTINUOUS
10
6.84197
20
-3.79452
11
6.84281
21
-3.79417
0
LINE
8
BLACK
6
CONTINUOUS
10
6.84281
20
-3.79417
11
6.85555
21
-3.79417
0
LINE
8
BLACK
6
CONTINUOUS
10
6.85555
20
-3.79417
11
6.85581
21
-3.79428
0
LINE
8
BLACK
6
CONTINUOUS
10
6.84429
20
-3.79653
11
6.84399
21
-3.79713
0
LINE
8
BLACK
6
CONTINUOUS
10
6.84399
20
-3.79713
11
6.84399
21
-3.79957
0
LINE
8
BLACK
6
CONTINUOUS
10
6.84399
20
-3.79957
11
6.84453
21
-3.80065
0
LINE
8
BLACK
6
CONTINUOUS
10
6.84453
20
-3.80065
11
6.84501
21
-3.80113
0
LINE
8
BLACK
6
CONTINUOUS
10
6.84501
20
-3.80113
11
6.84608
21
-3.80167
0
LINE
8
BLACK
6
CONTINUOUS
10
6.84608
20
-3.80167
11
6.85003
21
-3.80167
0
LINE
8
BLACK
6
CONTINUOUS
10
6.85003
20
-3.80167
11
6.85111
21
-3.80113
0
LINE
8
BLACK
6
CONTINUOUS
10
6.85111
20
-3.80113
11
6.85158
21
-3.80065
0
LINE
8
BLACK
6
CONTINUOUS
10
6.85158
20
-3.80065
11
6.85212
21
-3.79957
0
LINE
8
BLACK
6
CONTINUOUS
10
6.85212
20
-3.79957
11
6.85212
21
-3.79713
0
LINE
8
BLACK
6
CONTINUOUS
10
6.85212
20
-3.79713
11
6.85183
21
-3.79653
0
LINE
8
BLACK
6
CONTINUOUS
10
6.85183
20
-3.79653
11
6.84429
21
-3.79653
0
LINE
8
BLACK
6
CONTINUOUS
10
6.84687
20
-3.78005
11
6.84721
21
-3.78012
0
LINE
8
BLACK
6
CONTINUOUS
10
6.84721
20
-3.78012
11
6.84728
21
-3.78022
0
LINE
8
BLACK
6
CONTINUOUS
10
6.84728
20
-3.78022
11
6.84739
21
-3.78027
0
LINE
8
BLACK
6
CONTINUOUS
10
6.84739
20
-3.78027
11
6.84752
21
-3.78059
0
LINE
8
BLACK
6
CONTINUOUS
10
6.84752
20
-3.78059
11
6.84771
21
-3.78087
0
LINE
8
BLACK
6
CONTINUOUS
10
6.84771
20
-3.78087
11
6.84902
21
-3.78742
0
LINE
8
BLACK
6
CONTINUOUS
10
6.84902
20
-3.78742
11
6.85078
21
-3.78742
0
LINE
8
BLACK
6
CONTINUOUS
10
6.85078
20
-3.78742
11
6.85167
21
-3.78697
0
LINE
8
BLACK
6
CONTINUOUS
10
6.85167
20
-3.78697
11
6.85212
21
-3.78607
0
LINE
8
BLACK
6
CONTINUOUS
10
6.85212
20
-3.78607
11
6.85212
21
-3.78363
0
LINE
8
BLACK
6
CONTINUOUS
10
6.85212
20
-3.78363
11
6.8515
21
-3.78238
0
LINE
8
BLACK
6
CONTINUOUS
10
6.8515
20
-3.78238
11
6.85143
21
-3.78148
0
LINE
8
BLACK
6
CONTINUOUS
10
6.85143
20
-3.78148
11
6.85203
21
-3.7808
0
LINE
8
BLACK
6
CONTINUOUS
10
6.85203
20
-3.7808
11
6.85293
21
-3.78073
0
LINE
8
BLACK
6
CONTINUOUS
10
6.85293
20
-3.78073
11
6.85361
21
-3.78133
0
LINE
8
BLACK
6
CONTINUOUS
10
6.85361
20
-3.78133
11
6.85436
21
-3.78283
0
LINE
8
BLACK
6
CONTINUOUS
10
6.85436
20
-3.78283
11
6.85438
21
-3.7831
0
LINE
8
BLACK
6
CONTINUOUS
10
6.85438
20
-3.7831
11
6.85449
21
-3.78335
0
LINE
8
BLACK
6
CONTINUOUS
10
6.85449
20
-3.78335
11
6.85449
21
-3.78635
0
LINE
8
BLACK
6
CONTINUOUS
10
6.85449
20
-3.78635
11
6.85438
21
-3.78661
0
LINE
8
BLACK
6
CONTINUOUS
10
6.85438
20
-3.78661
11
6.85436
21
-3.78688
0
LINE
8
BLACK
6
CONTINUOUS
10
6.85436
20
-3.78688
11
6.85361
21
-3.78838
0
LINE
8
BLACK
6
CONTINUOUS
10
6.85361
20
-3.78838
11
6.85333
21
-3.78863
0
LINE
8
BLACK
6
CONTINUOUS
10
6.85333
20
-3.78863
11
6.85308
21
-3.78891
0
LINE
8
BLACK
6
CONTINUOUS
10
6.85308
20
-3.78891
11
6.85158
21
-3.78966
0
LINE
8
BLACK
6
CONTINUOUS
10
6.85158
20
-3.78966
11
6.85131
21
-3.78968
0
LINE
8
BLACK
6
CONTINUOUS
10
6.85131
20
-3.78968
11
6.85106
21
-3.78978
0
LINE
8
BLACK
6
CONTINUOUS
10
6.85106
20
-3.78978
11
6.84506
21
-3.78978
0
LINE
8
BLACK
6
CONTINUOUS
10
6.84506
20
-3.78978
11
6.8448
21
-3.78968
0
LINE
8
BLACK
6
CONTINUOUS
10
6.8448
20
-3.78968
11
6.84453
21
-3.78966
0
LINE
8
BLACK
6
CONTINUOUS
10
6.84453
20
-3.78966
11
6.84303
21
-3.78891
0
LINE
8
BLACK
6
CONTINUOUS
10
6.84303
20
-3.78891
11
6.84278
21
-3.78863
0
LINE
8
BLACK
6
CONTINUOUS
10
6.84278
20
-3.78863
11
6.8425
21
-3.78838
0
LINE
8
BLACK
6
CONTINUOUS
10
6.8425
20
-3.78838
11
6.84175
21
-3.78688
0
LINE
8
BLACK
6
CONTINUOUS
10
6.84175
20
-3.78688
11
6.84173
21
-3.78661
0
LINE
8
BLACK
6
CONTINUOUS
10
6.84173
20
-3.78661
11
6.84163
21
-3.78635
0
LINE
8
BLACK
6
CONTINUOUS
10
6.84163
20
-3.78635
11
6.84163
21
-3.78335
0
LINE
8
BLACK
6
CONTINUOUS
10
6.84163
20
-3.78335
11
6.84173
21
-3.7831
0
LINE
8
BLACK
6
CONTINUOUS
10
6.84173
20
-3.7831
11
6.84175
21
-3.78283
0
LINE
8
BLACK
6
CONTINUOUS
10
6.84175
20
-3.78283
11
6.8425
21
-3.78133
0
LINE
8
BLACK
6
CONTINUOUS
10
6.8425
20
-3.78133
11
6.84278
21
-3.78108
0
LINE
8
BLACK
6
CONTINUOUS
10
6.84278
20
-3.78108
11
6.84303
21
-3.7808
0
LINE
8
BLACK
6
CONTINUOUS
10
6.84303
20
-3.7808
11
6.84453
21
-3.78005
0
LINE
8
BLACK
6
CONTINUOUS
10
6.84453
20
-3.78005
11
6.8448
21
-3.78003
0
LINE
8
BLACK
6
CONTINUOUS
10
6.8448
20
-3.78003
11
6.84506
21
-3.77992
0
LINE
8
BLACK
6
CONTINUOUS
10
6.84506
20
-3.77992
11
6.84656
21
-3.77992
0
LINE
8
BLACK
6
CONTINUOUS
10
6.84656
20
-3.77992
11
6.84687
21
-3.78005
0
LINE
8
BLACK
6
CONTINUOUS
10
6.84534
20
-3.78229
11
6.84444
21
-3.78273
0
LINE
8
BLACK
6
CONTINUOUS
10
6.84444
20
-3.78273
11
6.84399
21
-3.78363
0
LINE
8
BLACK
6
CONTINUOUS
10
6.84399
20
-3.78363
11
6.84399
21
-3.78607
0
LINE
8
BLACK
6
CONTINUOUS
10
6.84399
20
-3.78607
11
6.84444
21
-3.78697
0
LINE
8
BLACK
6
CONTINUOUS
10
6.84444
20
-3.78697
11
6.84534
21
-3.78742
0
LINE
8
BLACK
6
CONTINUOUS
10
6.84534
20
-3.78742
11
6.84662
21
-3.78742
0
LINE
8
BLACK
6
CONTINUOUS
10
6.84662
20
-3.78742
11
6.84559
21
-3.78229
0
LINE
8
BLACK
6
CONTINUOUS
10
6.84559
20
-3.78229
11
6.84534
21
-3.78229
0
LINE
8
BLACK
6
CONTINUOUS
10
6.9086
20
-3.10081
11
6.90917
21
-3.1022
0
LINE
8
BLACK
6
CONTINUOUS
10
6.90917
20
-3.1022
11
6.90917
21
-3.38764
0
LINE
8
BLACK
6
CONTINUOUS
10
6.90917
20
-3.38764
11
6.9086
21
-3.38903
0
LINE
8
BLACK
6
CONTINUOUS
10
6.9086
20
-3.38903
11
6.9072
21
-3.38961
0
LINE
8
BLACK
6
CONTINUOUS
10
6.9072
20
-3.38961
11
6.90581
21
-3.38903
0
LINE
8
BLACK
6
CONTINUOUS
10
6.90581
20
-3.38903
11
6.90524
21
-3.38764
0
LINE
8
BLACK
6
CONTINUOUS
10
6.90524
20
-3.38764
11
6.90524
21
-3.1022
0
LINE
8
BLACK
6
CONTINUOUS
10
6.90524
20
-3.1022
11
6.90581
21
-3.10081
0
LINE
8
BLACK
6
CONTINUOUS
10
6.90581
20
-3.10081
11
6.9072
21
-3.10024
0
LINE
8
BLACK
6
CONTINUOUS
10
6.9072
20
-3.10024
11
6.9086
21
-3.10081
0
LINE
8
BLACK
6
CONTINUOUS
10
6.83672
20
-3.29937
11
6.83638
21
-3.29854
0
LINE
8
BLACK
6
CONTINUOUS
10
6.83638
20
-3.29854
11
6.83638
21
-3.29254
0
LINE
8
BLACK
6
CONTINUOUS
10
6.83638
20
-3.29254
11
6.83648
21
-3.29229
0
LINE
8
BLACK
6
CONTINUOUS
10
6.83648
20
-3.29229
11
6.8365
21
-3.29201
0
LINE
8
BLACK
6
CONTINUOUS
10
6.8365
20
-3.29201
11
6.83725
21
-3.29051
0
LINE
8
BLACK
6
CONTINUOUS
10
6.83725
20
-3.29051
11
6.8374
21
-3.29038
0
LINE
8
BLACK
6
CONTINUOUS
10
6.8374
20
-3.29038
11
6.83747
21
-3.29021
0
LINE
8
BLACK
6
CONTINUOUS
10
6.83747
20
-3.29021
11
6.83822
21
-3.28946
0
LINE
8
BLACK
6
CONTINUOUS
10
6.83822
20
-3.28946
11
6.8384
21
-3.28938
0
LINE
8
BLACK
6
CONTINUOUS
10
6.8384
20
-3.28938
11
6.83853
21
-3.28923
0
LINE
8
BLACK
6
CONTINUOUS
10
6.83853
20
-3.28923
11
6.84003
21
-3.28848
0
LINE
8
BLACK
6
CONTINUOUS
10
6.84003
20
-3.28848
11
6.8403
21
-3.28846
0
LINE
8
BLACK
6
CONTINUOUS
10
6.8403
20
-3.28846
11
6.84056
21
-3.28836
0
LINE
8
BLACK
6
CONTINUOUS
10
6.84056
20
-3.28836
11
6.84281
21
-3.28836
0
LINE
8
BLACK
6
CONTINUOUS
10
6.84281
20
-3.28836
11
6.84306
21
-3.28846
0
LINE
8
BLACK
6
CONTINUOUS
10
6.84306
20
-3.28846
11
6.84333
21
-3.28848
0
LINE
8
BLACK
6
CONTINUOUS
10
6.84333
20
-3.28848
11
6.84483
21
-3.28923
0
LINE
8
BLACK
6
CONTINUOUS
10
6.84483
20
-3.28923
11
6.84496
21
-3.28938
0
LINE
8
BLACK
6
CONTINUOUS
10
6.84496
20
-3.28938
11
6.84514
21
-3.28946
0
LINE
8
BLACK
6
CONTINUOUS
10
6.84514
20
-3.28946
11
6.84589
21
-3.29021
0
LINE
8
BLACK
6
CONTINUOUS
10
6.84589
20
-3.29021
11
6.84597
21
-3.29038
0
LINE
8
BLACK
6
CONTINUOUS
10
6.84597
20
-3.29038
11
6.84611
21
-3.29051
0
LINE
8
BLACK
6
CONTINUOUS
10
6.84611
20
-3.29051
11
6.84686
21
-3.29201
0
LINE
8
BLACK
6
CONTINUOUS
10
6.84686
20
-3.29201
11
6.84688
21
-3.29229
0
LINE
8
BLACK
6
CONTINUOUS
10
6.84688
20
-3.29229
11
6.84699
21
-3.29254
0
LINE
8
BLACK
6
CONTINUOUS
10
6.84699
20
-3.29254
11
6.84699
21
-3.29736
0
LINE
8
BLACK
6
CONTINUOUS
10
6.84699
20
-3.29736
11
6.85331
21
-3.29736
0
LINE
8
BLACK
6
CONTINUOUS
10
6.85331
20
-3.29736
11
6.85414
21
-3.2977
0
LINE
8
BLACK
6
CONTINUOUS
10
6.85414
20
-3.2977
11
6.85449
21
-3.29854
0
LINE
8
BLACK
6
CONTINUOUS
10
6.85449
20
-3.29854
11
6.85414
21
-3.29937
0
LINE
8
BLACK
6
CONTINUOUS
10
6.85414
20
-3.29937
11
6.85331
21
-3.29972
0
LINE
8
BLACK
6
CONTINUOUS
10
6.85331
20
-3.29972
11
6.83756
21
-3.29972
0
LINE
8
BLACK
6
CONTINUOUS
10
6.83756
20
-3.29972
11
6.83672
21
-3.29937
0
LINE
8
BLACK
6
CONTINUOUS
10
6.84084
20
-3.29072
11
6.83976
21
-3.29126
0
LINE
8
BLACK
6
CONTINUOUS
10
6.83976
20
-3.29126
11
6.83928
21
-3.29174
0
LINE
8
BLACK
6
CONTINUOUS
10
6.83928
20
-3.29174
11
6.83874
21
-3.29282
0
LINE
8
BLACK
6
CONTINUOUS
10
6.83874
20
-3.29282
11
6.83874
21
-3.29736
0
LINE
8
BLACK
6
CONTINUOUS
10
6.83874
20
-3.29736
11
6.84463
21
-3.29736
0
LINE
8
BLACK
6
CONTINUOUS
10
6.84463
20
-3.29736
11
6.84463
21
-3.29282
0
LINE
8
BLACK
6
CONTINUOUS
10
6.84463
20
-3.29282
11
6.84409
21
-3.29174
0
LINE
8
BLACK
6
CONTINUOUS
10
6.84409
20
-3.29174
11
6.84361
21
-3.29126
0
LINE
8
BLACK
6
CONTINUOUS
10
6.84361
20
-3.29126
11
6.84253
21
-3.29072
0
LINE
8
BLACK
6
CONTINUOUS
10
6.84253
20
-3.29072
11
6.84084
21
-3.29072
0
LINE
8
BLACK
6
CONTINUOUS
10
6.85264
20
-3.27296
11
6.85339
21
-3.27371
0
LINE
8
BLACK
6
CONTINUOUS
10
6.85339
20
-3.27371
11
6.8535
21
-3.27396
0
LINE
8
BLACK
6
CONTINUOUS
10
6.8535
20
-3.27396
11
6.85368
21
-3.27417
0
LINE
8
BLACK
6
CONTINUOUS
10
6.85368
20
-3.27417
11
6.85443
21
-3.27642
0
LINE
8
BLACK
6
CONTINUOUS
10
6.85443
20
-3.27642
11
6.85441
21
-3.27661
0
LINE
8
BLACK
6
CONTINUOUS
10
6.85441
20
-3.27661
11
6.85449
21
-3.27679
0
LINE
8
BLACK
6
CONTINUOUS
10
6.85449
20
-3.27679
11
6.85449
21
-3.27829
0
LINE
8
BLACK
6
CONTINUOUS
10
6.85449
20
-3.27829
11
6.85441
21
-3.27847
0
LINE
8
BLACK
6
CONTINUOUS
10
6.85441
20
-3.27847
11
6.85443
21
-3.27867
0
LINE
8
BLACK
6
CONTINUOUS
10
6.85443
20
-3.27867
11
6.85368
21
-3.28092
0
LINE
8
BLACK
6
CONTINUOUS
10
6.85368
20
-3.28092
11
6.8535
21
-3.28112
0
LINE
8
BLACK
6
CONTINUOUS
10
6.8535
20
-3.28112
11
6.85339
21
-3.28138
0
LINE
8
BLACK
6
CONTINUOUS
10
6.85339
20
-3.28138
11
6.85189
21
-3.28288
0
LINE
8
BLACK
6
CONTINUOUS
10
6.85189
20
-3.28288
11
6.85171
21
-3.28295
0
LINE
8
BLACK
6
CONTINUOUS
10
6.85171
20
-3.28295
11
6.85158
21
-3.2831
0
LINE
8
BLACK
6
CONTINUOUS
10
6.85158
20
-3.2831
11
6.85008
21
-3.28385
0
LINE
8
BLACK
6
CONTINUOUS
10
6.85008
20
-3.28385
11
6.84995
21
-3.28386
0
LINE
8
BLACK
6
CONTINUOUS
10
6.84995
20
-3.28386
11
6.84984
21
-3.28394
0
LINE
8
BLACK
6
CONTINUOUS
10
6.84984
20
-3.28394
11
6.84684
21
-3.28469
0
LINE
8
BLACK
6
CONTINUOUS
10
6.84684
20
-3.28469
11
6.84669
21
-3.28467
0
LINE
8
BLACK
6
CONTINUOUS
10
6.84669
20
-3.28467
11
6.84656
21
-3.28472
0
LINE
8
BLACK
6
CONTINUOUS
10
6.84656
20
-3.28472
11
6.84431
21
-3.28472
0
LINE
8
BLACK
6
CONTINUOUS
10
6.84431
20
-3.28472
11
6.84417
21
-3.28467
0
LINE
8
BLACK
6
CONTINUOUS
10
6.84417
20
-3.28467
11
6.84402
21
-3.28469
0
LINE
8
BLACK
6
CONTINUOUS
10
6.84402
20
-3.28469
11
6.84102
21
-3.28394
0
LINE
8
BLACK
6
CONTINUOUS
10
6.84102
20
-3.28394
11
6.84091
21
-3.28386
0
LINE
8
BLACK
6
CONTINUOUS
10
6.84091
20
-3.28386
11
6.84078
21
-3.28385
0
LINE
8
BLACK
6
CONTINUOUS
10
6.84078
20
-3.28385
11
6.83928
21
-3.2831
0
LINE
8
BLACK
6
CONTINUOUS
10
6.83928
20
-3.2831
11
6.83915
21
-3.28295
0
LINE
8
BLACK
6
CONTINUOUS
10
6.83915
20
-3.28295
11
6.83897
21
-3.28288
0
LINE
8
BLACK
6
CONTINUOUS
10
6.83897
20
-3.28288
11
6.83747
21
-3.28138
0
LINE
8
BLACK
6
CONTINUOUS
10
6.83747
20
-3.28138
11
6.83737
21
-3.28112
0
LINE
8
BLACK
6
CONTINUOUS
10
6.83737
20
-3.28112
11
6.83719
21
-3.28092
0
LINE
8
BLACK
6
CONTINUOUS
10
6.83719
20
-3.28092
11
6.83644
21
-3.27867
0
LINE
8
BLACK
6
CONTINUOUS
10
6.83644
20
-3.27867
11
6.83645
21
-3.27847
0
LINE
8
BLACK
6
CONTINUOUS
10
6.83645
20
-3.27847
11
6.83638
21
-3.27829
0
LINE
8
BLACK
6
CONTINUOUS
10
6.83638
20
-3.27829
11
6.83638
21
-3.27679
0
LINE
8
BLACK
6
CONTINUOUS
10
6.83638
20
-3.27679
11
6.83645
21
-3.27661
0
LINE
8
BLACK
6
CONTINUOUS
10
6.83645
20
-3.27661
11
6.83644
21
-3.27642
0
LINE
8
BLACK
6
CONTINUOUS
10
6.83644
20
-3.27642
11
6.83719
21
-3.27417
0
LINE
8
BLACK
6
CONTINUOUS
10
6.83719
20
-3.27417
11
6.83737
21
-3.27396
0
LINE
8
BLACK
6
CONTINUOUS
10
6.83737
20
-3.27396
11
6.83747
21
-3.27371
0
LINE
8
BLACK
6
CONTINUOUS
10
6.83747
20
-3.27371
11
6.83822
21
-3.27296
0
LINE
8
BLACK
6
CONTINUOUS
10
6.83822
20
-3.27296
11
6.83906
21
-3.27261
0
LINE
8
BLACK
6
CONTINUOUS
10
6.83906
20
-3.27261
11
6.83989
21
-3.27296
0
LINE
8
BLACK
6
CONTINUOUS
10
6.83989
20
-3.27296
11
6.84024
21
-3.27379
0
LINE
8
BLACK
6
CONTINUOUS
10
6.84024
20
-3.27379
11
6.83989
21
-3.27463
0
LINE
8
BLACK
6
CONTINUOUS
10
6.83989
20
-3.27463
11
6.83934
21
-3.27518
0
LINE
8
BLACK
6
CONTINUOUS
10
6.83934
20
-3.27518
11
6.83874
21
-3.27698
0
LINE
8
BLACK
6
CONTINUOUS
10
6.83874
20
-3.27698
11
6.83874
21
-3.2781
0
LINE
8
BLACK
6
CONTINUOUS
10
6.83874
20
-3.2781
11
6.83934
21
-3.2799
0
LINE
8
BLACK
6
CONTINUOUS
10
6.83934
20
-3.2799
11
6.84051
21
-3.28107
0
LINE
8
BLACK
6
CONTINUOUS
10
6.84051
20
-3.28107
11
6.84172
21
-3.28168
0
LINE
8
BLACK
6
CONTINUOUS
10
6.84172
20
-3.28168
11
6.84445
21
-3.28236
0
LINE
8
BLACK
6
CONTINUOUS
10
6.84445
20
-3.28236
11
6.84641
21
-3.28236
0
LINE
8
BLACK
6
CONTINUOUS
10
6.84641
20
-3.28236
11
6.84914
21
-3.28168
0
LINE
8
BLACK
6
CONTINUOUS
10
6.84914
20
-3.28168
11
6.85036
21
-3.28107
0
LINE
8
BLACK
6
CONTINUOUS
10
6.85036
20
-3.28107
11
6.85152
21
-3.2799
0
LINE
8
BLACK
6
CONTINUOUS
10
6.85152
20
-3.2799
11
6.85212
21
-3.2781
0
LINE
8
BLACK
6
CONTINUOUS
10
6.85212
20
-3.2781
11
6.85212
21
-3.27698
0
LINE
8
BLACK
6
CONTINUOUS
10
6.85212
20
-3.27698
11
6.85152
21
-3.27518
0
LINE
8
BLACK
6
CONTINUOUS
10
6.85152
20
-3.27518
11
6.85097
21
-3.27463
0
LINE
8
BLACK
6
CONTINUOUS
10
6.85097
20
-3.27463
11
6.85062
21
-3.27379
0
LINE
8
BLACK
6
CONTINUOUS
10
6.85062
20
-3.27379
11
6.85097
21
-3.27296
0
LINE
8
BLACK
6
CONTINUOUS
10
6.85097
20
-3.27296
11
6.85181
21
-3.27261
0
LINE
8
BLACK
6
CONTINUOUS
10
6.85181
20
-3.27261
11
6.85264
21
-3.27296
0
LINE
8
BLACK
6
CONTINUOUS
10
6.83672
20
-3.26788
11
6.83638
21
-3.26704
0
LINE
8
BLACK
6
CONTINUOUS
10
6.83638
20
-3.26704
11
6.83638
21
-3.26179
0
LINE
8
BLACK
6
CONTINUOUS
10
6.83638
20
-3.26179
11
6.83648
21
-3.26154
0
LINE
8
BLACK
6
CONTINUOUS
10
6.83648
20
-3.26154
11
6.8365
21
-3.26127
0
LINE
8
BLACK
6
CONTINUOUS
10
6.8365
20
-3.26127
11
6.83725
21
-3.25977
0
LINE
8
BLACK
6
CONTINUOUS
10
6.83725
20
-3.25977
11
6.8374
21
-3.25964
0
LINE
8
BLACK
6
CONTINUOUS
10
6.8374
20
-3.25964
11
6.83747
21
-3.25946
0
LINE
8
BLACK
6
CONTINUOUS
10
6.83747
20
-3.25946
11
6.83822
21
-3.25871
0
LINE
8
BLACK
6
CONTINUOUS
10
6.83822
20
-3.25871
11
6.8384
21
-3.25863
0
LINE
8
BLACK
6
CONTINUOUS
10
6.8384
20
-3.25863
11
6.83853
21
-3.25849
0
LINE
8
BLACK
6
CONTINUOUS
10
6.83853
20
-3.25849
11
6.84003
21
-3.25774
0
LINE
8
BLACK
6
CONTINUOUS
10
6.84003
20
-3.25774
11
6.8403
21
-3.25772
0
LINE
8
BLACK
6
CONTINUOUS
10
6.8403
20
-3.25772
11
6.84056
21
-3.25761
0
LINE
8
BLACK
6
CONTINUOUS
10
6.84056
20
-3.25761
11
6.84206
21
-3.25761
0
LINE
8
BLACK
6
CONTINUOUS
10
6.84206
20
-3.25761
11
6.84231
21
-3.25772
0
LINE
8
BLACK
6
CONTINUOUS
10
6.84231
20
-3.25772
11
6.84258
21
-3.25774
0
LINE
8
BLACK
6
CONTINUOUS
10
6.84258
20
-3.25774
11
6.84408
21
-3.25849
0
LINE
8
BLACK
6
CONTINUOUS
10
6.84408
20
-3.25849
11
6.84421
21
-3.25863
0
LINE
8
BLACK
6
CONTINUOUS
10
6.84421
20
-3.25863
11
6.84439
21
-3.25871
0
LINE
8
BLACK
6
CONTINUOUS
10
6.84439
20
-3.25871
11
6.84476
21
-3.25908
0
LINE
8
BLACK
6
CONTINUOUS
10
6.84476
20
-3.25908
11
6.84487
21
-3.25896
0
LINE
8
BLACK
6
CONTINUOUS
10
6.84487
20
-3.25896
11
6.84497
21
-3.25871
0
LINE
8
BLACK
6
CONTINUOUS
10
6.84497
20
-3.25871
11
6.84572
21
-3.25796
0
LINE
8
BLACK
6
CONTINUOUS
10
6.84572
20
-3.25796
11
6.8459
21
-3.25788
0
LINE
8
BLACK
6
CONTINUOUS
10
6.8459
20
-3.25788
11
6.84603
21
-3.25774
0
LINE
8
BLACK
6
CONTINUOUS
10
6.84603
20
-3.25774
11
6.84753
21
-3.25699
0
LINE
8
BLACK
6
CONTINUOUS
10
6.84753
20
-3.25699
11
6.8478
21
-3.25697
0
LINE
8
BLACK
6
CONTINUOUS
10
6.8478
20
-3.25697
11
6.84806
21
-3.25686
0
LINE
8
BLACK
6
CONTINUOUS
10
6.84806
20
-3.25686
11
6.85031
21
-3.25686
0
LINE
8
BLACK
6
CONTINUOUS
10
6.85031
20
-3.25686
11
6.85056
21
-3.25697
0
LINE
8
BLACK
6
CONTINUOUS
10
6.85056
20
-3.25697
11
6.85083
21
-3.25699
0
LINE
8
BLACK
6
CONTINUOUS
10
6.85083
20
-3.25699
11
6.85233
21
-3.25774
0
LINE
8
BLACK
6
CONTINUOUS
10
6.85233
20
-3.25774
11
6.85246
21
-3.25788
0
LINE
8
BLACK
6
CONTINUOUS
10
6.85246
20
-3.25788
11
6.85264
21
-3.25796
0
LINE
8
BLACK
6
CONTINUOUS
10
6.85264
20
-3.25796
11
6.85339
21
-3.25871
0
LINE
8
BLACK
6
CONTINUOUS
10
6.85339
20
-3.25871
11
6.85346
21
-3.25889
0
LINE
8
BLACK
6
CONTINUOUS
10
6.85346
20
-3.25889
11
6.85361
21
-3.25902
0
LINE
8
BLACK
6
CONTINUOUS
10
6.85361
20
-3.25902
11
6.85436
21
-3.26052
0
LINE
8
BLACK
6
CONTINUOUS
10
6.85436
20
-3.26052
11
6.85438
21
-3.26079
0
LINE
8
BLACK
6
CONTINUOUS
10
6.85438
20
-3.26079
11
6.85449
21
-3.26104
0
LINE
8
BLACK
6
CONTINUOUS
10
6.85449
20
-3.26104
11
6.85449
21
-3.26704
0
LINE
8
BLACK
6
CONTINUOUS
10
6.85449
20
-3.26704
11
6.85414
21
-3.26788
0
LINE
8
BLACK
6
CONTINUOUS
10
6.85414
20
-3.26788
11
6.85331
21
-3.26822
0
LINE
8
BLACK
6
CONTINUOUS
10
6.85331
20
-3.26822
11
6.83756
21
-3.26822
0
LINE
8
BLACK
6
CONTINUOUS
10
6.83756
20
-3.26822
11
6.83672
21
-3.26788
0
LINE
8
BLACK
6
CONTINUOUS
10
6.84084
20
-3.25998
11
6.83976
21
-3.26052
0
LINE
8
BLACK
6
CONTINUOUS
10
6.83976
20
-3.26052
11
6.83928
21
-3.26099
0
LINE
8
BLACK
6
CONTINUOUS
10
6.83928
20
-3.26099
11
6.83874
21
-3.26207
0
LINE
8
BLACK
6
CONTINUOUS
10
6.83874
20
-3.26207
11
6.83874
21
-3.26586
0
LINE
8
BLACK
6
CONTINUOUS
10
6.83874
20
-3.26586
11
6.84388
21
-3.26586
0
LINE
8
BLACK
6
CONTINUOUS
10
6.84388
20
-3.26586
11
6.84388
21
-3.26207
0
LINE
8
BLACK
6
CONTINUOUS
10
6.84388
20
-3.26207
11
6.84334
21
-3.26099
0
LINE
8
BLACK
6
CONTINUOUS
10
6.84334
20
-3.26099
11
6.84286
21
-3.26052
0
LINE
8
BLACK
6
CONTINUOUS
10
6.84286
20
-3.26052
11
6.84178
21
-3.25998
0
LINE
8
BLACK
6
CONTINUOUS
10
6.84178
20
-3.25998
11
6.84084
21
-3.25998
0
LINE
8
BLACK
6
CONTINUOUS
10
6.84833
20
-3.25923
11
6.84726
21
-3.25977
0
LINE
8
BLACK
6
CONTINUOUS
10
6.84726
20
-3.25977
11
6.84684
21
-3.26018
0
LINE
8
BLACK
6
CONTINUOUS
10
6.84684
20
-3.26018
11
6.84624
21
-3.26199
0
LINE
8
BLACK
6
CONTINUOUS
10
6.84624
20
-3.26199
11
6.84624
21
-3.26586
0
LINE
8
BLACK
6
CONTINUOUS
10
6.84624
20
-3.26586
11
6.85212
21
-3.26586
0
LINE
8
BLACK
6
CONTINUOUS
10
6.85212
20
-3.26586
11
6.85212
21
-3.26132
0
LINE
8
BLACK
6
CONTINUOUS
10
6.85212
20
-3.26132
11
6.85158
21
-3.26024
0
LINE
8
BLACK
6
CONTINUOUS
10
6.85158
20
-3.26024
11
6.85111
21
-3.25977
0
LINE
8
BLACK
6
CONTINUOUS
10
6.85111
20
-3.25977
11
6.85003
21
-3.25923
0
LINE
8
BLACK
6
CONTINUOUS
10
6.85003
20
-3.25923
11
6.84833
21
-3.25923
0
LINE
8
BLACK
6
CONTINUOUS
10
6.84687
20
-3.2315
11
6.84721
21
-3.23157
0
LINE
8
BLACK
6
CONTINUOUS
10
6.84721
20
-3.23157
11
6.84728
21
-3.23167
0
LINE
8
BLACK
6
CONTINUOUS
10
6.84728
20
-3.23167
11
6.84739
21
-3.23171
0
LINE
8
BLACK
6
CONTINUOUS
10
6.84739
20
-3.23171
11
6.84752
21
-3.23203
0
LINE
8
BLACK
6
CONTINUOUS
10
6.84752
20
-3.23203
11
6.84771
21
-3.23232
0
LINE
8
BLACK
6
CONTINUOUS
10
6.84771
20
-3.23232
11
6.84902
21
-3.23887
0
LINE
8
BLACK
6
CONTINUOUS
10
6.84902
20
-3.23887
11
6.85078
21
-3.23887
0
LINE
8
BLACK
6
CONTINUOUS
10
6.85078
20
-3.23887
11
6.85167
21
-3.23842
0
LINE
8
BLACK
6
CONTINUOUS
10
6.85167
20
-3.23842
11
6.85212
21
-3.23752
0
LINE
8
BLACK
6
CONTINUOUS
10
6.85212
20
-3.23752
11
6.85212
21
-3.23508
0
LINE
8
BLACK
6
CONTINUOUS
10
6.85212
20
-3.23508
11
6.8515
21
-3.23383
0
LINE
8
BLACK
6
CONTINUOUS
10
6.8515
20
-3.23383
11
6.85143
21
-3.23292
0
LINE
8
BLACK
6
CONTINUOUS
10
6.85143
20
-3.23292
11
6.85203
21
-3.23224
0
LINE
8
BLACK
6
CONTINUOUS
10
6.85203
20
-3.23224
11
6.85293
21
-3.23218
0
LINE
8
BLACK
6
CONTINUOUS
10
6.85293
20
-3.23218
11
6.85361
21
-3.23277
0
LINE
8
BLACK
6
CONTINUOUS
10
6.85361
20
-3.23277
11
6.85436
21
-3.23427
0
LINE
8
BLACK
6
CONTINUOUS
10
6.85436
20
-3.23427
11
6.85438
21
-3.23454
0
LINE
8
BLACK
6
CONTINUOUS
10
6.85438
20
-3.23454
11
6.85449
21
-3.2348
0
LINE
8
BLACK
6
CONTINUOUS
10
6.85449
20
-3.2348
11
6.85449
21
-3.2378
0
LINE
8
BLACK
6
CONTINUOUS
10
6.85449
20
-3.2378
11
6.85438
21
-3.23805
0
LINE
8
BLACK
6
CONTINUOUS
10
6.85438
20
-3.23805
11
6.85436
21
-3.23833
0
LINE
8
BLACK
6
CONTINUOUS
10
6.85436
20
-3.23833
11
6.85361
21
-3.23983
0
LINE
8
BLACK
6
CONTINUOUS
10
6.85361
20
-3.23983
11
6.85333
21
-3.24007
0
LINE
8
BLACK
6
CONTINUOUS
10
6.85333
20
-3.24007
11
6.85308
21
-3.24035
0
LINE
8
BLACK
6
CONTINUOUS
10
6.85308
20
-3.24035
11
6.85158
21
-3.2411
0
LINE
8
BLACK
6
CONTINUOUS
10
6.85158
20
-3.2411
11
6.85131
21
-3.24112
0
LINE
8
BLACK
6
CONTINUOUS
10
6.85131
20
-3.24112
11
6.85106
21
-3.24123
0
LINE
8
BLACK
6
CONTINUOUS
10
6.85106
20
-3.24123
11
6.84506
21
-3.24123
0
LINE
8
BLACK
6
CONTINUOUS
10
6.84506
20
-3.24123
11
6.8448
21
-3.24112
0
LINE
8
BLACK
6
CONTINUOUS
10
6.8448
20
-3.24112
11
6.84453
21
-3.2411
0
LINE
8
BLACK
6
CONTINUOUS
10
6.84453
20
-3.2411
11
6.84303
21
-3.24035
0
LINE
8
BLACK
6
CONTINUOUS
10
6.84303
20
-3.24035
11
6.84278
21
-3.24007
0
LINE
8
BLACK
6
CONTINUOUS
10
6.84278
20
-3.24007
11
6.8425
21
-3.23983
0
LINE
8
BLACK
6
CONTINUOUS
10
6.8425
20
-3.23983
11
6.84175
21
-3.23833
0
LINE
8
BLACK
6
CONTINUOUS
10
6.84175
20
-3.23833
11
6.84173
21
-3.23805
0
LINE
8
BLACK
6
CONTINUOUS
10
6.84173
20
-3.23805
11
6.84163
21
-3.2378
0
LINE
8
BLACK
6
CONTINUOUS
10
6.84163
20
-3.2378
11
6.84163
21
-3.2348
0
LINE
8
BLACK
6
CONTINUOUS
10
6.84163
20
-3.2348
11
6.84173
21
-3.23454
0
LINE
8
BLACK
6
CONTINUOUS
10
6.84173
20
-3.23454
11
6.84175
21
-3.23427
0
LINE
8
BLACK
6
CONTINUOUS
10
6.84175
20
-3.23427
11
6.8425
21
-3.23277
0
LINE
8
BLACK
6
CONTINUOUS
10
6.8425
20
-3.23277
11
6.84278
21
-3.23252
0
LINE
8
BLACK
6
CONTINUOUS
10
6.84278
20
-3.23252
11
6.84303
21
-3.23224
0
LINE
8
BLACK
6
CONTINUOUS
10
6.84303
20
-3.23224
11
6.84453
21
-3.23149
0
LINE
8
BLACK
6
CONTINUOUS
10
6.84453
20
-3.23149
11
6.8448
21
-3.23147
0
LINE
8
BLACK
6
CONTINUOUS
10
6.8448
20
-3.23147
11
6.84506
21
-3.23137
0
LINE
8
BLACK
6
CONTINUOUS
10
6.84506
20
-3.23137
11
6.84656
21
-3.23137
0
LINE
8
BLACK
6
CONTINUOUS
10
6.84656
20
-3.23137
11
6.84687
21
-3.2315
0
LINE
8
BLACK
6
CONTINUOUS
10
6.84534
20
-3.23373
11
6.84444
21
-3.23418
0
LINE
8
BLACK
6
CONTINUOUS
10
6.84444
20
-3.23418
11
6.84399
21
-3.23508
0
LINE
8
BLACK
6
CONTINUOUS
10
6.84399
20
-3.23508
11
6.84399
21
-3.23752
0
LINE
8
BLACK
6
CONTINUOUS
10
6.84399
20
-3.23752
11
6.84444
21
-3.23842
0
LINE
8
BLACK
6
CONTINUOUS
10
6.84444
20
-3.23842
11
6.84534
21
-3.23887
0
LINE
8
BLACK
6
CONTINUOUS
10
6.84534
20
-3.23887
11
6.84662
21
-3.23887
0
LINE
8
BLACK
6
CONTINUOUS
10
6.84662
20
-3.23887
11
6.84559
21
-3.23373
0
LINE
8
BLACK
6
CONTINUOUS
10
6.84559
20
-3.23373
11
6.84534
21
-3.23373
0
LINE
8
BLACK
6
CONTINUOUS
10
6.85414
20
-3.21821
11
6.85449
21
-3.21905
0
LINE
8
BLACK
6
CONTINUOUS
10
6.85449
20
-3.21905
11
6.85421
21
-3.21972
0
LINE
8
BLACK
6
CONTINUOUS
10
6.85421
20
-3.21972
11
6.85436
21
-3.22002
0
LINE
8
BLACK
6
CONTINUOUS
10
6.85436
20
-3.22002
11
6.85438
21
-3.2203
0
LINE
8
BLACK
6
CONTINUOUS
10
6.85438
20
-3.2203
11
6.85449
21
-3.22055
0
LINE
8
BLACK
6
CONTINUOUS
10
6.85449
20
-3.22055
11
6.85449
21
-3.22355
0
LINE
8
BLACK
6
CONTINUOUS
10
6.85449
20
-3.22355
11
6.85438
21
-3.2238
0
LINE
8
BLACK
6
CONTINUOUS
10
6.85438
20
-3.2238
11
6.85436
21
-3.22408
0
LINE
8
BLACK
6
CONTINUOUS
10
6.85436
20
-3.22408
11
6.85361
21
-3.22558
0
LINE
8
BLACK
6
CONTINUOUS
10
6.85361
20
-3.22558
11
6.85346
21
-3.2257
0
LINE
8
BLACK
6
CONTINUOUS
10
6.85346
20
-3.2257
11
6.85339
21
-3.22588
0
LINE
8
BLACK
6
CONTINUOUS
10
6.85339
20
-3.22588
11
6.85264
21
-3.22663
0
LINE
8
BLACK
6
CONTINUOUS
10
6.85264
20
-3.22663
11
6.85246
21
-3.22671
0
LINE
8
BLACK
6
CONTINUOUS
10
6.85246
20
-3.22671
11
6.85233
21
-3.22686
0
LINE
8
BLACK
6
CONTINUOUS
10
6.85233
20
-3.22686
11
6.85083
21
-3.2276
0
LINE
8
BLACK
6
CONTINUOUS
10
6.85083
20
-3.2276
11
6.85056
21
-3.22762
0
LINE
8
BLACK
6
CONTINUOUS
10
6.85056
20
-3.22762
11
6.85031
21
-3.22773
0
LINE
8
BLACK
6
CONTINUOUS
10
6.85031
20
-3.22773
11
6.84581
21
-3.22773
0
LINE
8
BLACK
6
CONTINUOUS
10
6.84581
20
-3.22773
11
6.84555
21
-3.22762
0
LINE
8
BLACK
6
CONTINUOUS
10
6.84555
20
-3.22762
11
6.84528
21
-3.2276
0
LINE
8
BLACK
6
CONTINUOUS
10
6.84528
20
-3.2276
11
6.84378
21
-3.22686
0
LINE
8
BLACK
6
CONTINUOUS
10
6.84378
20
-3.22686
11
6.84365
21
-3.22671
0
LINE
8
BLACK
6
CONTINUOUS
10
6.84365
20
-3.22671
11
6.84347
21
-3.22663
0
LINE
8
BLACK
6
CONTINUOUS
10
6.84347
20
-3.22663
11
6.84272
21
-3.22588
0
LINE
8
BLACK
6
CONTINUOUS
10
6.84272
20
-3.22588
11
6.84265
21
-3.2257
0
LINE
8
BLACK
6
CONTINUOUS
10
6.84265
20
-3.2257
11
6.8425
21
-3.22558
0
LINE
8
BLACK
6
CONTINUOUS
10
6.8425
20
-3.22558
11
6.84175
21
-3.22408
0
LINE
8
BLACK
6
CONTINUOUS
10
6.84175
20
-3.22408
11
6.84173
21
-3.2238
0
LINE
8
BLACK
6
CONTINUOUS
10
6.84173
20
-3.2238
11
6.84163
21
-3.22355
0
LINE
8
BLACK
6
CONTINUOUS
10
6.84163
20
-3.22355
11
6.84163
21
-3.22055
0
LINE
8
BLACK
6
CONTINUOUS
10
6.84163
20
-3.22055
11
6.84173
21
-3.2203
0
LINE
8
BLACK
6
CONTINUOUS
10
6.84173
20
-3.2203
11
6.84174
21
-3.22023
0
LINE
8
BLACK
6
CONTINUOUS
10
6.84174
20
-3.22023
11
6.83756
21
-3.22023
0
LINE
8
BLACK
6
CONTINUOUS
10
6.83756
20
-3.22023
11
6.83672
21
-3.21988
0
LINE
8
BLACK
6
CONTINUOUS
10
6.83672
20
-3.21988
11
6.83638
21
-3.21905
0
LINE
8
BLACK
6
CONTINUOUS
10
6.83638
20
-3.21905
11
6.83672
21
-3.21821
0
LINE
8
BLACK
6
CONTINUOUS
10
6.83672
20
-3.21821
11
6.83756
21
-3.21787
0
LINE
8
BLACK
6
CONTINUOUS
10
6.83756
20
-3.21787
11
6.85331
21
-3.21787
0
LINE
8
BLACK
6
CONTINUOUS
10
6.85331
20
-3.21787
11
6.85414
21
-3.21821
0
LINE
8
BLACK
6
CONTINUOUS
10
6.84429
20
-3.22023
11
6.84399
21
-3.22083
0
LINE
8
BLACK
6
CONTINUOUS
10
6.84399
20
-3.22083
11
6.84399
21
-3.22327
0
LINE
8
BLACK
6
CONTINUOUS
10
6.84399
20
-3.22327
11
6.84453
21
-3.22435
0
LINE
8
BLACK
6
CONTINUOUS
10
6.84453
20
-3.22435
11
6.84501
21
-3.22483
0
LINE
8
BLACK
6
CONTINUOUS
10
6.84501
20
-3.22483
11
6.84608
21
-3.22537
0
LINE
8
BLACK
6
CONTINUOUS
10
6.84608
20
-3.22537
11
6.85003
21
-3.22537
0
LINE
8
BLACK
6
CONTINUOUS
10
6.85003
20
-3.22537
11
6.85111
21
-3.22483
0
LINE
8
BLACK
6
CONTINUOUS
10
6.85111
20
-3.22483
11
6.85158
21
-3.22435
0
LINE
8
BLACK
6
CONTINUOUS
10
6.85158
20
-3.22435
11
6.85212
21
-3.22327
0
LINE
8
BLACK
6
CONTINUOUS
10
6.85212
20
-3.22327
11
6.85212
21
-3.22083
0
LINE
8
BLACK
6
CONTINUOUS
10
6.85212
20
-3.22083
11
6.85183
21
-3.22023
0
LINE
8
BLACK
6
CONTINUOUS
10
6.85183
20
-3.22023
11
6.84429
21
-3.22023
0
LINE
8
BLACK
6
CONTINUOUS
10
6.85581
20
-3.20373
11
6.85608
21
-3.20374
0
LINE
8
BLACK
6
CONTINUOUS
10
6.85608
20
-3.20374
11
6.85758
21
-3.20449
0
LINE
8
BLACK
6
CONTINUOUS
10
6.85758
20
-3.20449
11
6.85771
21
-3.20464
0
LINE
8
BLACK
6
CONTINUOUS
10
6.85771
20
-3.20464
11
6.85789
21
-3.20472
0
LINE
8
BLACK
6
CONTINUOUS
10
6.85789
20
-3.20472
11
6.85864
21
-3.20547
0
LINE
8
BLACK
6
CONTINUOUS
10
6.85864
20
-3.20547
11
6.85871
21
-3.20565
0
LINE
8
BLACK
6
CONTINUOUS
10
6.85871
20
-3.20565
11
6.85886
21
-3.20577
0
LINE
8
BLACK
6
CONTINUOUS
10
6.85886
20
-3.20577
11
6.85961
21
-3.20727
0
LINE
8
BLACK
6
CONTINUOUS
10
6.85961
20
-3.20727
11
6.85963
21
-3.20755
0
LINE
8
BLACK
6
CONTINUOUS
10
6.85963
20
-3.20755
11
6.85974
21
-3.2078
0
LINE
8
BLACK
6
CONTINUOUS
10
6.85974
20
-3.2078
11
6.85974
21
-3.21005
0
LINE
8
BLACK
6
CONTINUOUS
10
6.85974
20
-3.21005
11
6.85963
21
-3.2103
0
LINE
8
BLACK
6
CONTINUOUS
10
6.85963
20
-3.2103
11
6.85961
21
-3.21058
0
LINE
8
BLACK
6
CONTINUOUS
10
6.85961
20
-3.21058
11
6.85886
21
-3.21208
0
LINE
8
BLACK
6
CONTINUOUS
10
6.85886
20
-3.21208
11
6.85818
21
-3.21267
0
LINE
8
BLACK
6
CONTINUOUS
10
6.85818
20
-3.21267
11
6.85728
21
-3.21261
0
LINE
8
BLACK
6
CONTINUOUS
10
6.85728
20
-3.21261
11
6.85668
21
-3.21192
0
LINE
8
BLACK
6
CONTINUOUS
10
6.85668
20
-3.21192
11
6.85675
21
-3.21102
0
LINE
8
BLACK
6
CONTINUOUS
10
6.85675
20
-3.21102
11
6.85737
21
-3.20977
0
LINE
8
BLACK
6
CONTINUOUS
10
6.85737
20
-3.20977
11
6.85737
21
-3.20808
0
LINE
8
BLACK
6
CONTINUOUS
10
6.85737
20
-3.20808
11
6.85683
21
-3.207
0
LINE
8
BLACK
6
CONTINUOUS
10
6.85683
20
-3.207
11
6.85636
21
-3.20652
0
LINE
8
BLACK
6
CONTINUOUS
10
6.85636
20
-3.20652
11
6.85528
21
-3.20598
0
LINE
8
BLACK
6
CONTINUOUS
10
6.85528
20
-3.20598
11
6.85438
21
-3.20598
0
LINE
8
BLACK
6
CONTINUOUS
10
6.85438
20
-3.20598
11
6.85438
21
-3.20605
0
LINE
8
BLACK
6
CONTINUOUS
10
6.85438
20
-3.20605
11
6.85449
21
-3.2063
0
LINE
8
BLACK
6
CONTINUOUS
10
6.85449
20
-3.2063
11
6.85449
21
-3.2093
0
LINE
8
BLACK
6
CONTINUOUS
10
6.85449
20
-3.2093
11
6.85438
21
-3.20955
0
LINE
8
BLACK
6
CONTINUOUS
10
6.85438
20
-3.20955
11
6.85436
21
-3.20983
0
LINE
8
BLACK
6
CONTINUOUS
10
6.85436
20
-3.20983
11
6.85361
21
-3.21133
0
LINE
8
BLACK
6
CONTINUOUS
10
6.85361
20
-3.21133
11
6.85346
21
-3.21146
0
LINE
8
BLACK
6
CONTINUOUS
10
6.85346
20
-3.21146
11
6.85339
21
-3.21164
0
LINE
8
BLACK
6
CONTINUOUS
10
6.85339
20
-3.21164
11
6.85264
21
-3.21239
0
LINE
8
BLACK
6
CONTINUOUS
10
6.85264
20
-3.21239
11
6.85246
21
-3.21246
0
LINE
8
BLACK
6
CONTINUOUS
10
6.85246
20
-3.21246
11
6.85233
21
-3.21261
0
LINE
8
BLACK
6
CONTINUOUS
10
6.85233
20
-3.21261
11
6.85083
21
-3.21336
0
LINE
8
BLACK
6
CONTINUOUS
10
6.85083
20
-3.21336
11
6.85056
21
-3.21338
0
LINE
8
BLACK
6
CONTINUOUS
10
6.85056
20
-3.21338
11
6.85031
21
-3.21348
0
LINE
8
BLACK
6
CONTINUOUS
10
6.85031
20
-3.21348
11
6.84581
21
-3.21348
0
LINE
8
BLACK
6
CONTINUOUS
10
6.84581
20
-3.21348
11
6.84555
21
-3.21338
0
LINE
8
BLACK
6
CONTINUOUS
10
6.84555
20
-3.21338
11
6.84528
21
-3.21336
0
LINE
8
BLACK
6
CONTINUOUS
10
6.84528
20
-3.21336
11
6.84378
21
-3.21261
0
LINE
8
BLACK
6
CONTINUOUS
10
6.84378
20
-3.21261
11
6.84365
21
-3.21246
0
LINE
8
BLACK
6
CONTINUOUS
10
6.84365
20
-3.21246
11
6.84347
21
-3.21239
0
LINE
8
BLACK
6
CONTINUOUS
10
6.84347
20
-3.21239
11
6.84272
21
-3.21164
0
LINE
8
BLACK
6
CONTINUOUS
10
6.84272
20
-3.21164
11
6.84265
21
-3.21146
0
LINE
8
BLACK
6
CONTINUOUS
10
6.84265
20
-3.21146
11
6.8425
21
-3.21133
0
LINE
8
BLACK
6
CONTINUOUS
10
6.8425
20
-3.21133
11
6.84175
21
-3.20983
0
LINE
8
BLACK
6
CONTINUOUS
10
6.84175
20
-3.20983
11
6.84173
21
-3.20955
0
LINE
8
BLACK
6
CONTINUOUS
10
6.84173
20
-3.20955
11
6.84163
21
-3.2093
0
LINE
8
BLACK
6
CONTINUOUS
10
6.84163
20
-3.2093
11
6.84163
21
-3.2063
0
LINE
8
BLACK
6
CONTINUOUS
10
6.84163
20
-3.2063
11
6.84173
21
-3.20605
0
LINE
8
BLACK
6
CONTINUOUS
10
6.84173
20
-3.20605
11
6.84175
21
-3.20577
0
LINE
8
BLACK
6
CONTINUOUS
10
6.84175
20
-3.20577
11
6.8419
21
-3.20547
0
LINE
8
BLACK
6
CONTINUOUS
10
6.8419
20
-3.20547
11
6.84163
21
-3.2048
0
LINE
8
BLACK
6
CONTINUOUS
10
6.84163
20
-3.2048
11
6.84197
21
-3.20397
0
LINE
8
BLACK
6
CONTINUOUS
10
6.84197
20
-3.20397
11
6.84281
21
-3.20362
0
LINE
8
BLACK
6
CONTINUOUS
10
6.84281
20
-3.20362
11
6.85555
21
-3.20362
0
LINE
8
BLACK
6
CONTINUOUS
10
6.85555
20
-3.20362
11
6.85581
21
-3.20373
0
LINE
8
BLACK
6
CONTINUOUS
10
6.84429
20
-3.20598
11
6.84399
21
-3.20658
0
LINE
8
BLACK
6
CONTINUOUS
10
6.84399
20
-3.20658
11
6.84399
21
-3.20902
0
LINE
8
BLACK
6
CONTINUOUS
10
6.84399
20
-3.20902
11
6.84453
21
-3.2101
0
LINE
8
BLACK
6
CONTINUOUS
10
6.84453
20
-3.2101
11
6.84501
21
-3.21058
0
LINE
8
BLACK
6
CONTINUOUS
10
6.84501
20
-3.21058
11
6.84608
21
-3.21112
0
LINE
8
BLACK
6
CONTINUOUS
10
6.84608
20
-3.21112
11
6.85003
21
-3.21112
0
LINE
8
BLACK
6
CONTINUOUS
10
6.85003
20
-3.21112
11
6.85111
21
-3.21058
0
LINE
8
BLACK
6
CONTINUOUS
10
6.85111
20
-3.21058
11
6.85158
21
-3.2101
0
LINE
8
BLACK
6
CONTINUOUS
10
6.85158
20
-3.2101
11
6.85212
21
-3.20902
0
LINE
8
BLACK
6
CONTINUOUS
10
6.85212
20
-3.20902
11
6.85212
21
-3.20658
0
LINE
8
BLACK
6
CONTINUOUS
10
6.85212
20
-3.20658
11
6.85183
21
-3.20598
0
LINE
8
BLACK
6
CONTINUOUS
10
6.85183
20
-3.20598
11
6.84429
21
-3.20598
0
LINE
8
BLACK
6
CONTINUOUS
10
6.84687
20
-3.1895
11
6.84721
21
-3.18957
0
LINE
8
BLACK
6
CONTINUOUS
10
6.84721
20
-3.18957
11
6.84728
21
-3.18967
0
LINE
8
BLACK
6
CONTINUOUS
10
6.84728
20
-3.18967
11
6.84739
21
-3.18972
0
LINE
8
BLACK
6
CONTINUOUS
10
6.84739
20
-3.18972
11
6.84752
21
-3.19004
0
LINE
8
BLACK
6
CONTINUOUS
10
6.84752
20
-3.19004
11
6.84771
21
-3.19032
0
LINE
8
BLACK
6
CONTINUOUS
10
6.84771
20
-3.19032
11
6.84902
21
-3.19687
0
LINE
8
BLACK
6
CONTINUOUS
10
6.84902
20
-3.19687
11
6.85078
21
-3.19687
0
LINE
8
BLACK
6
CONTINUOUS
10
6.85078
20
-3.19687
11
6.85167
21
-3.19642
0
LINE
8
BLACK
6
CONTINUOUS
10
6.85167
20
-3.19642
11
6.85212
21
-3.19552
0
LINE
8
BLACK
6
CONTINUOUS
10
6.85212
20
-3.19552
11
6.85212
21
-3.19308
0
LINE
8
BLACK
6
CONTINUOUS
10
6.85212
20
-3.19308
11
6.8515
21
-3.19183
0
LINE
8
BLACK
6
CONTINUOUS
10
6.8515
20
-3.19183
11
6.85143
21
-3.19093
0
LINE
8
BLACK
6
CONTINUOUS
10
6.85143
20
-3.19093
11
6.85203
21
-3.19025
0
LINE
8
BLACK
6
CONTINUOUS
10
6.85203
20
-3.19025
11
6.85293
21
-3.19018
0
LINE
8
BLACK
6
CONTINUOUS
10
6.85293
20
-3.19018
11
6.85361
21
-3.19077
0
LINE
8
BLACK
6
CONTINUOUS
10
6.85361
20
-3.19077
11
6.85436
21
-3.19227
0
LINE
8
BLACK
6
CONTINUOUS
10
6.85436
20
-3.19227
11
6.85438
21
-3.19255
0
LINE
8
BLACK
6
CONTINUOUS
10
6.85438
20
-3.19255
11
6.85449
21
-3.1928
0
LINE
8
BLACK
6
CONTINUOUS
10
6.85449
20
-3.1928
11
6.85449
21
-3.1958
0
LINE
8
BLACK
6
CONTINUOUS
10
6.85449
20
-3.1958
11
6.85438
21
-3.19606
0
LINE
8
BLACK
6
CONTINUOUS
10
6.85438
20
-3.19606
11
6.85436
21
-3.19633
0
LINE
8
BLACK
6
CONTINUOUS
10
6.85436
20
-3.19633
11
6.85361
21
-3.19783
0
LINE
8
BLACK
6
CONTINUOUS
10
6.85361
20
-3.19783
11
6.85333
21
-3.19808
0
LINE
8
BLACK
6
CONTINUOUS
10
6.85333
20
-3.19808
11
6.85308
21
-3.19836
0
LINE
8
BLACK
6
CONTINUOUS
10
6.85308
20
-3.19836
11
6.85158
21
-3.19911
0
LINE
8
BLACK
6
CONTINUOUS
10
6.85158
20
-3.19911
11
6.85131
21
-3.19913
0
LINE
8
BLACK
6
CONTINUOUS
10
6.85131
20
-3.19913
11
6.85106
21
-3.19923
0
LINE
8
BLACK
6
CONTINUOUS
10
6.85106
20
-3.19923
11
6.84506
21
-3.19923
0
LINE
8
BLACK
6
CONTINUOUS
10
6.84506
20
-3.19923
11
6.8448
21
-3.19913
0
LINE
8
BLACK
6
CONTINUOUS
10
6.8448
20
-3.19913
11
6.84453
21
-3.19911
0
LINE
8
BLACK
6
CONTINUOUS
10
6.84453
20
-3.19911
11
6.84303
21
-3.19836
0
LINE
8
BLACK
6
CONTINUOUS
10
6.84303
20
-3.19836
11
6.84278
21
-3.19808
0
LINE
8
BLACK
6
CONTINUOUS
10
6.84278
20
-3.19808
11
6.8425
21
-3.19783
0
LINE
8
BLACK
6
CONTINUOUS
10
6.8425
20
-3.19783
11
6.84175
21
-3.19633
0
LINE
8
BLACK
6
CONTINUOUS
10
6.84175
20
-3.19633
11
6.84173
21
-3.19606
0
LINE
8
BLACK
6
CONTINUOUS
10
6.84173
20
-3.19606
11
6.84163
21
-3.1958
0
LINE
8
BLACK
6
CONTINUOUS
10
6.84163
20
-3.1958
11
6.84163
21
-3.1928
0
LINE
8
BLACK
6
CONTINUOUS
10
6.84163
20
-3.1928
11
6.84173
21
-3.19255
0
LINE
8
BLACK
6
CONTINUOUS
10
6.84173
20
-3.19255
11
6.84175
21
-3.19227
0
LINE
8
BLACK
6
CONTINUOUS
10
6.84175
20
-3.19227
11
6.8425
21
-3.19077
0
LINE
8
BLACK
6
CONTINUOUS
10
6.8425
20
-3.19077
11
6.84278
21
-3.19053
0
LINE
8
BLACK
6
CONTINUOUS
10
6.84278
20
-3.19053
11
6.84303
21
-3.19025
0
LINE
8
BLACK
6
CONTINUOUS
10
6.84303
20
-3.19025
11
6.84453
21
-3.1895
0
LINE
8
BLACK
6
CONTINUOUS
10
6.84453
20
-3.1895
11
6.8448
21
-3.18948
0
LINE
8
BLACK
6
CONTINUOUS
10
6.8448
20
-3.18948
11
6.84506
21
-3.18937
0
LINE
8
BLACK
6
CONTINUOUS
10
6.84506
20
-3.18937
11
6.84656
21
-3.18937
0
LINE
8
BLACK
6
CONTINUOUS
10
6.84656
20
-3.18937
11
6.84687
21
-3.1895
0
LINE
8
BLACK
6
CONTINUOUS
10
6.84534
20
-3.19173
11
6.84444
21
-3.19218
0
LINE
8
BLACK
6
CONTINUOUS
10
6.84444
20
-3.19218
11
6.84399
21
-3.19308
0
LINE
8
BLACK
6
CONTINUOUS
10
6.84399
20
-3.19308
11
6.84399
21
-3.19552
0
LINE
8
BLACK
6
CONTINUOUS
10
6.84399
20
-3.19552
11
6.84444
21
-3.19642
0
LINE
8
BLACK
6
CONTINUOUS
10
6.84444
20
-3.19642
11
6.84534
21
-3.19687
0
LINE
8
BLACK
6
CONTINUOUS
10
6.84534
20
-3.19687
11
6.84662
21
-3.19687
0
LINE
8
BLACK
6
CONTINUOUS
10
6.84662
20
-3.19687
11
6.84559
21
-3.19173
0
LINE
8
BLACK
6
CONTINUOUS
10
6.84559
20
-3.19173
11
6.84534
21
-3.19173
  0
ENDSEC
  0
EOF
