  0
SECTION
  2
HEADER
  9
$ANGBASE
  50
0.0
  9
$ANGDIR
  70
1
  9
$MEASUREMENT
  70
0
  0
ENDSEC
  0
SECTION
  2
TABLES
  0
TABLE
  2
LTYPE
  70
4
  0
LTYPE
  5
40F
  2
CONTINUOUS
  70
0
  3
Solid line
  72
65
  73
0
  40
0.0
  0
LTYPE
  5
410
  2
DASHDOT
 70
0
  3
Dash Dot ____ _ ____ _
 72
65
 73
4
 40
2.0
 49
1.25
 49
-0.25
 49
0.25
 49
-0.25
  0
LTYPE
  5
411
  2
DASHED
 70
0
  3
Dashed __ __ __ __ __
 72
65
 73
2
 40
0.75
 49
0.5
 49
-0.25
  0
LTYPE
  5
43B
  2
DOTTED
 70
0
  3
Dotted .  .  .  .
 72
65
 73
2
 40
0.2
 49
0.0
 49
-0.2
  0
ENDTAB
  0
TABLE
  2
STYLE
  70
4
  0
STYLE
  2
KICAD
  70
0
  40
0
  41
1
  42
1
  50
0
  71
0
  3
isocp.shx
  0
STYLE
  2
KICADB
  70
0
  40
0
  41
1
  42
1
  50
0
  71
0
  3
isocp.shx
  0
STYLE
  2
KICADI
  70
0
  40
0
  41
1
  42
1
  50
15
  71
0
  3
isocp.shx
  0
STYLE
  2
KICADBI
  70
0
  40
0
  41
1
  42
1
  50
15
  71
0
  3
isocp.shx
  0
ENDTAB
  0
TABLE
  2
LAYER
  70
1
  0
LAYER
  2
BLACK
  70
0
  62
7
  6
CONTINUOUS
  0
ENDTAB
  0
ENDSEC
  0
SECTION
  2
ENTITIES
0
LINE
8
BLACK
6
CONTINUOUS
10
6.9086
20
-4.14904
11
6.90917
21
-4.15043
0
LINE
8
BLACK
6
CONTINUOUS
10
6.90917
20
-4.15043
11
6.90917
21
-4.40884
0
LINE
8
BLACK
6
CONTINUOUS
10
6.90917
20
-4.40884
11
6.9086
21
-4.41023
0
LINE
8
BLACK
6
CONTINUOUS
10
6.9086
20
-4.41023
11
6.9072
21
-4.4108
0
LINE
8
BLACK
6
CONTINUOUS
10
6.9072
20
-4.4108
11
6.90581
21
-4.41023
0
LINE
8
BLACK
6
CONTINUOUS
10
6.90581
20
-4.41023
11
6.90524
21
-4.40884
0
LINE
8
BLACK
6
CONTINUOUS
10
6.90524
20
-4.40884
11
6.90524
21
-4.38899
0
LINE
8
BLACK
6
CONTINUOUS
10
6.90524
20
-4.38899
11
6.86376
21
-4.41058
0
LINE
8
BLACK
6
CONTINUOUS
10
6.86376
20
-4.41058
11
6.86226
21
-4.41071
0
LINE
8
BLACK
6
CONTINUOUS
10
6.86226
20
-4.41071
11
6.86111
21
-4.40974
0
LINE
8
BLACK
6
CONTINUOUS
10
6.86111
20
-4.40974
11
6.86098
21
-4.40824
0
LINE
8
BLACK
6
CONTINUOUS
10
6.86098
20
-4.40824
11
6.86195
21
-4.40709
0
LINE
8
BLACK
6
CONTINUOUS
10
6.86195
20
-4.40709
11
6.89916
21
-4.38772
0
LINE
8
BLACK
6
CONTINUOUS
10
6.89916
20
-4.38772
11
4.94675
21
-4.38772
0
LINE
8
BLACK
6
CONTINUOUS
10
4.94675
20
-4.38772
11
4.98396
21
-4.40709
0
LINE
8
BLACK
6
CONTINUOUS
10
4.98396
20
-4.40709
11
4.98493
21
-4.40824
0
LINE
8
BLACK
6
CONTINUOUS
10
4.98493
20
-4.40824
11
4.9848
21
-4.40974
0
LINE
8
BLACK
6
CONTINUOUS
10
4.9848
20
-4.40974
11
4.98364
21
-4.41071
0
LINE
8
BLACK
6
CONTINUOUS
10
4.98364
20
-4.41071
11
4.98214
21
-4.41058
0
LINE
8
BLACK
6
CONTINUOUS
10
4.98214
20
-4.41058
11
4.94067
21
-4.38899
0
LINE
8
BLACK
6
CONTINUOUS
10
4.94067
20
-4.38899
11
4.94067
21
-4.40884
0
LINE
8
BLACK
6
CONTINUOUS
10
4.94067
20
-4.40884
11
4.94009
21
-4.41023
0
LINE
8
BLACK
6
CONTINUOUS
10
4.94009
20
-4.41023
11
4.9387
21
-4.4108
0
LINE
8
BLACK
6
CONTINUOUS
10
4.9387
20
-4.4108
11
4.93731
21
-4.41023
0
LINE
8
BLACK
6
CONTINUOUS
10
4.93731
20
-4.41023
11
4.93673
21
-4.40884
0
LINE
8
BLACK
6
CONTINUOUS
10
4.93673
20
-4.40884
11
4.93673
21
-4.15043
0
LINE
8
BLACK
6
CONTINUOUS
10
4.93673
20
-4.15043
11
4.93731
21
-4.14904
0
LINE
8
BLACK
6
CONTINUOUS
10
4.93731
20
-4.14904
11
4.9387
21
-4.14846
0
LINE
8
BLACK
6
CONTINUOUS
10
4.9387
20
-4.14846
11
4.94009
21
-4.14904
0
LINE
8
BLACK
6
CONTINUOUS
10
4.94009
20
-4.14904
11
4.94067
21
-4.15043
0
LINE
8
BLACK
6
CONTINUOUS
10
4.94067
20
-4.15043
11
4.94067
21
-4.3825
0
LINE
8
BLACK
6
CONTINUOUS
10
4.94067
20
-4.3825
11
4.98214
21
-4.36091
0
LINE
8
BLACK
6
CONTINUOUS
10
4.98214
20
-4.36091
11
4.98364
21
-4.36078
0
LINE
8
BLACK
6
CONTINUOUS
10
4.98364
20
-4.36078
11
4.9848
21
-4.36175
0
LINE
8
BLACK
6
CONTINUOUS
10
4.9848
20
-4.36175
11
4.98493
21
-4.36325
0
LINE
8
BLACK
6
CONTINUOUS
10
4.98493
20
-4.36325
11
4.98396
21
-4.36441
0
LINE
8
BLACK
6
CONTINUOUS
10
4.98396
20
-4.36441
11
4.94675
21
-4.38378
0
LINE
8
BLACK
6
CONTINUOUS
10
4.94675
20
-4.38378
11
6.89916
21
-4.38378
0
LINE
8
BLACK
6
CONTINUOUS
10
6.89916
20
-4.38378
11
6.86195
21
-4.36441
0
LINE
8
BLACK
6
CONTINUOUS
10
6.86195
20
-4.36441
11
6.86098
21
-4.36325
0
LINE
8
BLACK
6
CONTINUOUS
10
6.86098
20
-4.36325
11
6.86111
21
-4.36175
0
LINE
8
BLACK
6
CONTINUOUS
10
6.86111
20
-4.36175
11
6.86226
21
-4.36078
0
LINE
8
BLACK
6
CONTINUOUS
10
6.86226
20
-4.36078
11
6.86376
21
-4.36091
0
LINE
8
BLACK
6
CONTINUOUS
10
6.86376
20
-4.36091
11
6.90524
21
-4.3825
0
LINE
8
BLACK
6
CONTINUOUS
10
6.90524
20
-4.3825
11
6.90524
21
-4.15043
0
LINE
8
BLACK
6
CONTINUOUS
10
6.90524
20
-4.15043
11
6.90581
21
-4.14904
0
LINE
8
BLACK
6
CONTINUOUS
10
6.90581
20
-4.14904
11
6.9072
21
-4.14846
0
LINE
8
BLACK
6
CONTINUOUS
10
6.9072
20
-4.14846
11
6.9086
21
-4.14904
0
LINE
8
BLACK
6
CONTINUOUS
10
5.81898
20
-4.31623
11
5.82052
21
-4.31753
0
LINE
8
BLACK
6
CONTINUOUS
10
5.82052
20
-4.31753
11
5.82087
21
-4.31952
0
LINE
8
BLACK
6
CONTINUOUS
10
5.82087
20
-4.31952
11
5.81986
21
-4.32127
0
LINE
8
BLACK
6
CONTINUOUS
10
5.81986
20
-4.32127
11
5.81797
21
-4.32196
0
LINE
8
BLACK
6
CONTINUOUS
10
5.81797
20
-4.32196
11
5.80189
21
-4.32196
0
LINE
8
BLACK
6
CONTINUOUS
10
5.80189
20
-4.32196
11
5.80091
21
-4.33173
0
LINE
8
BLACK
6
CONTINUOUS
10
5.80091
20
-4.33173
11
5.80165
21
-4.33137
0
LINE
8
BLACK
6
CONTINUOUS
10
5.80165
20
-4.33137
11
5.80263
21
-4.33107
0
LINE
8
BLACK
6
CONTINUOUS
10
5.80263
20
-4.33107
11
5.8028
21
-4.33111
0
LINE
8
BLACK
6
CONTINUOUS
10
5.8028
20
-4.33111
11
5.80297
21
-4.33105
0
LINE
8
BLACK
6
CONTINUOUS
10
5.80297
20
-4.33105
11
5.81234
21
-4.33105
0
LINE
8
BLACK
6
CONTINUOUS
10
5.81234
20
-4.33105
11
5.81335
21
-4.33123
0
LINE
8
BLACK
6
CONTINUOUS
10
5.81335
20
-4.33123
11
5.81349
21
-4.33135
0
LINE
8
BLACK
6
CONTINUOUS
10
5.81349
20
-4.33135
11
5.81366
21
-4.33137
0
LINE
8
BLACK
6
CONTINUOUS
10
5.81366
20
-4.33137
11
5.81741
21
-4.33324
0
LINE
8
BLACK
6
CONTINUOUS
10
5.81741
20
-4.33324
11
5.81812
21
-4.33377
0
LINE
8
BLACK
6
CONTINUOUS
10
5.81812
20
-4.33377
11
5.81818
21
-4.33379
0
LINE
8
BLACK
6
CONTINUOUS
10
5.81818
20
-4.33379
11
5.82005
21
-4.33567
0
LINE
8
BLACK
6
CONTINUOUS
10
5.82005
20
-4.33567
11
5.82056
21
-4.33639
0
LINE
8
BLACK
6
CONTINUOUS
10
5.82056
20
-4.33639
11
5.82061
21
-4.33644
0
LINE
8
BLACK
6
CONTINUOUS
10
5.82061
20
-4.33644
11
5.82248
21
-4.34019
0
LINE
8
BLACK
6
CONTINUOUS
10
5.82248
20
-4.34019
11
5.82277
21
-4.34117
0
LINE
8
BLACK
6
CONTINUOUS
10
5.82277
20
-4.34117
11
5.82273
21
-4.34134
0
LINE
8
BLACK
6
CONTINUOUS
10
5.82273
20
-4.34134
11
5.82279
21
-4.34151
0
LINE
8
BLACK
6
CONTINUOUS
10
5.82279
20
-4.34151
11
5.82279
21
-4.35088
0
LINE
8
BLACK
6
CONTINUOUS
10
5.82279
20
-4.35088
11
5.82262
21
-4.35189
0
LINE
8
BLACK
6
CONTINUOUS
10
5.82262
20
-4.35189
11
5.8225
21
-4.35202
0
LINE
8
BLACK
6
CONTINUOUS
10
5.8225
20
-4.35202
11
5.82248
21
-4.3522
0
LINE
8
BLACK
6
CONTINUOUS
10
5.82248
20
-4.3522
11
5.82061
21
-4.35595
0
LINE
8
BLACK
6
CONTINUOUS
10
5.82061
20
-4.35595
11
5.82008
21
-4.35666
0
LINE
8
BLACK
6
CONTINUOUS
10
5.82008
20
-4.35666
11
5.82005
21
-4.35672
0
LINE
8
BLACK
6
CONTINUOUS
10
5.82005
20
-4.35672
11
5.81818
21
-4.35859
0
LINE
8
BLACK
6
CONTINUOUS
10
5.81818
20
-4.35859
11
5.81746
21
-4.3591
0
LINE
8
BLACK
6
CONTINUOUS
10
5.81746
20
-4.3591
11
5.81741
21
-4.35914
0
LINE
8
BLACK
6
CONTINUOUS
10
5.81741
20
-4.35914
11
5.81366
21
-4.36102
0
LINE
8
BLACK
6
CONTINUOUS
10
5.81366
20
-4.36102
11
5.81268
21
-4.36131
0
LINE
8
BLACK
6
CONTINUOUS
10
5.81268
20
-4.36131
11
5.81251
21
-4.36127
0
LINE
8
BLACK
6
CONTINUOUS
10
5.81251
20
-4.36127
11
5.81234
21
-4.36133
0
LINE
8
BLACK
6
CONTINUOUS
10
5.81234
20
-4.36133
11
5.80297
21
-4.36133
0
LINE
8
BLACK
6
CONTINUOUS
10
5.80297
20
-4.36133
11
5.80196
21
-4.36115
0
LINE
8
BLACK
6
CONTINUOUS
10
5.80196
20
-4.36115
11
5.80182
21
-4.36104
0
LINE
8
BLACK
6
CONTINUOUS
10
5.80182
20
-4.36104
11
5.80165
21
-4.36102
0
LINE
8
BLACK
6
CONTINUOUS
10
5.80165
20
-4.36102
11
5.7979
21
-4.35914
0
LINE
8
BLACK
6
CONTINUOUS
10
5.7979
20
-4.35914
11
5.79719
21
-4.35862
0
LINE
8
BLACK
6
CONTINUOUS
10
5.79719
20
-4.35862
11
5.79713
21
-4.35859
0
LINE
8
BLACK
6
CONTINUOUS
10
5.79713
20
-4.35859
11
5.79526
21
-4.35672
0
LINE
8
BLACK
6
CONTINUOUS
10
5.79526
20
-4.35672
11
5.79467
21
-4.35588
0
LINE
8
BLACK
6
CONTINUOUS
10
5.79467
20
-4.35588
11
5.79449
21
-4.35386
0
LINE
8
BLACK
6
CONTINUOUS
10
5.79449
20
-4.35386
11
5.79565
21
-4.35221
0
LINE
8
BLACK
6
CONTINUOUS
10
5.79565
20
-4.35221
11
5.7976
21
-4.35169
0
LINE
8
BLACK
6
CONTINUOUS
10
5.7976
20
-4.35169
11
5.79943
21
-4.35254
0
LINE
8
BLACK
6
CONTINUOUS
10
5.79943
20
-4.35254
11
5.80097
21
-4.35408
0
LINE
8
BLACK
6
CONTINUOUS
10
5.80097
20
-4.35408
11
5.80366
21
-4.35543
0
LINE
8
BLACK
6
CONTINUOUS
10
5.80366
20
-4.35543
11
5.81164
21
-4.35543
0
LINE
8
BLACK
6
CONTINUOUS
10
5.81164
20
-4.35543
11
5.81434
21
-4.35408
0
LINE
8
BLACK
6
CONTINUOUS
10
5.81434
20
-4.35408
11
5.81554
21
-4.35288
0
LINE
8
BLACK
6
CONTINUOUS
10
5.81554
20
-4.35288
11
5.81689
21
-4.35018
0
LINE
8
BLACK
6
CONTINUOUS
10
5.81689
20
-4.35018
11
5.81689
21
-4.3422
0
LINE
8
BLACK
6
CONTINUOUS
10
5.81689
20
-4.3422
11
5.81554
21
-4.33951
0
LINE
8
BLACK
6
CONTINUOUS
10
5.81554
20
-4.33951
11
5.81434
21
-4.33831
0
LINE
8
BLACK
6
CONTINUOUS
10
5.81434
20
-4.33831
11
5.81164
21
-4.33696
0
LINE
8
BLACK
6
CONTINUOUS
10
5.81164
20
-4.33696
11
5.80366
21
-4.33696
0
LINE
8
BLACK
6
CONTINUOUS
10
5.80366
20
-4.33696
11
5.80097
21
-4.33831
0
LINE
8
BLACK
6
CONTINUOUS
10
5.80097
20
-4.33831
11
5.79943
21
-4.33984
0
LINE
8
BLACK
6
CONTINUOUS
10
5.79943
20
-4.33984
11
5.79859
21
-4.34043
0
LINE
8
BLACK
6
CONTINUOUS
10
5.79859
20
-4.34043
11
5.79857
21
-4.34043
0
LINE
8
BLACK
6
CONTINUOUS
10
5.79857
20
-4.34043
11
5.79856
21
-4.34045
0
LINE
8
BLACK
6
CONTINUOUS
10
5.79856
20
-4.34045
11
5.79757
21
-4.34052
0
LINE
8
BLACK
6
CONTINUOUS
10
5.79757
20
-4.34052
11
5.79658
21
-4.34061
0
LINE
8
BLACK
6
CONTINUOUS
10
5.79658
20
-4.34061
11
5.79656
21
-4.3406
0
LINE
8
BLACK
6
CONTINUOUS
10
5.79656
20
-4.3406
11
5.79654
21
-4.3406
0
LINE
8
BLACK
6
CONTINUOUS
10
5.79654
20
-4.3406
11
5.79574
21
-4.34002
0
LINE
8
BLACK
6
CONTINUOUS
10
5.79574
20
-4.34002
11
5.79492
21
-4.33945
0
LINE
8
BLACK
6
CONTINUOUS
10
5.79492
20
-4.33945
11
5.79492
21
-4.33943
0
LINE
8
BLACK
6
CONTINUOUS
10
5.79492
20
-4.33943
11
5.7949
21
-4.33942
0
LINE
8
BLACK
6
CONTINUOUS
10
5.7949
20
-4.33942
11
5.79466
21
-4.33846
0
LINE
8
BLACK
6
CONTINUOUS
10
5.79466
20
-4.33846
11
5.7944
21
-4.3375
0
LINE
8
BLACK
6
CONTINUOUS
10
5.7944
20
-4.3375
11
5.79441
21
-4.33748
0
LINE
8
BLACK
6
CONTINUOUS
10
5.79441
20
-4.33748
11
5.79441
21
-4.33746
0
LINE
8
BLACK
6
CONTINUOUS
10
5.79441
20
-4.33746
11
5.79628
21
-4.31871
0
LINE
8
BLACK
6
CONTINUOUS
10
5.79628
20
-4.31871
11
5.79632
21
-4.31856
0
LINE
8
BLACK
6
CONTINUOUS
10
5.79632
20
-4.31856
11
5.79631
21
-4.3185
0
LINE
8
BLACK
6
CONTINUOUS
10
5.79631
20
-4.3185
11
5.79637
21
-4.31839
0
LINE
8
BLACK
6
CONTINUOUS
10
5.79637
20
-4.31839
11
5.79656
21
-4.31773
0
LINE
8
BLACK
6
CONTINUOUS
10
5.79656
20
-4.31773
11
5.79701
21
-4.31729
0
LINE
8
BLACK
6
CONTINUOUS
10
5.79701
20
-4.31729
11
5.79732
21
-4.31675
0
LINE
8
BLACK
6
CONTINUOUS
10
5.79732
20
-4.31675
11
5.79771
21
-4.31661
0
LINE
8
BLACK
6
CONTINUOUS
10
5.79771
20
-4.31661
11
5.798
21
-4.31632
0
LINE
8
BLACK
6
CONTINUOUS
10
5.798
20
-4.31632
11
5.79863
21
-4.31627
0
LINE
8
BLACK
6
CONTINUOUS
10
5.79863
20
-4.31627
11
5.79922
21
-4.31606
0
LINE
8
BLACK
6
CONTINUOUS
10
5.79922
20
-4.31606
11
5.81797
21
-4.31606
0
LINE
8
BLACK
6
CONTINUOUS
10
5.81797
20
-4.31606
11
5.81898
21
-4.31623
0
LINE
8
BLACK
6
CONTINUOUS
10
5.84897
20
-4.31623
11
5.84911
21
-4.31635
0
LINE
8
BLACK
6
CONTINUOUS
10
5.84911
20
-4.31635
11
5.84928
21
-4.31637
0
LINE
8
BLACK
6
CONTINUOUS
10
5.84928
20
-4.31637
11
5.85303
21
-4.31824
0
LINE
8
BLACK
6
CONTINUOUS
10
5.85303
20
-4.31824
11
5.85374
21
-4.31877
0
LINE
8
BLACK
6
CONTINUOUS
10
5.85374
20
-4.31877
11
5.8538
21
-4.3188
0
LINE
8
BLACK
6
CONTINUOUS
10
5.8538
20
-4.3188
11
5.85567
21
-4.32067
0
LINE
8
BLACK
6
CONTINUOUS
10
5.85567
20
-4.32067
11
5.85618
21
-4.32139
0
LINE
8
BLACK
6
CONTINUOUS
10
5.85618
20
-4.32139
11
5.85623
21
-4.32144
0
LINE
8
BLACK
6
CONTINUOUS
10
5.85623
20
-4.32144
11
5.8581
21
-4.32519
0
LINE
8
BLACK
6
CONTINUOUS
10
5.8581
20
-4.32519
11
5.85825
21
-4.32568
0
LINE
8
BLACK
6
CONTINUOUS
10
5.85825
20
-4.32568
11
5.85833
21
-4.32579
0
LINE
8
BLACK
6
CONTINUOUS
10
5.85833
20
-4.32579
11
5.8602
21
-4.33329
0
LINE
8
BLACK
6
CONTINUOUS
10
5.8602
20
-4.33329
11
5.86024
21
-4.33388
0
LINE
8
BLACK
6
CONTINUOUS
10
5.86024
20
-4.33388
11
5.86029
21
-4.33401
0
LINE
8
BLACK
6
CONTINUOUS
10
5.86029
20
-4.33401
11
5.86029
21
-4.34338
0
LINE
8
BLACK
6
CONTINUOUS
10
5.86029
20
-4.34338
11
5.86019
21
-4.34396
0
LINE
8
BLACK
6
CONTINUOUS
10
5.86019
20
-4.34396
11
5.8602
21
-4.3441
0
LINE
8
BLACK
6
CONTINUOUS
10
5.8602
20
-4.3441
11
5.85833
21
-4.3516
0
LINE
8
BLACK
6
CONTINUOUS
10
5.85833
20
-4.3516
11
5.85812
21
-4.35206
0
LINE
8
BLACK
6
CONTINUOUS
10
5.85812
20
-4.35206
11
5.8581
21
-4.3522
0
LINE
8
BLACK
6
CONTINUOUS
10
5.8581
20
-4.3522
11
5.85623
21
-4.35595
0
LINE
8
BLACK
6
CONTINUOUS
10
5.85623
20
-4.35595
11
5.8557
21
-4.35666
0
LINE
8
BLACK
6
CONTINUOUS
10
5.8557
20
-4.35666
11
5.85567
21
-4.35672
0
LINE
8
BLACK
6
CONTINUOUS
10
5.85567
20
-4.35672
11
5.8538
21
-4.35859
0
LINE
8
BLACK
6
CONTINUOUS
10
5.8538
20
-4.35859
11
5.85308
21
-4.3591
0
LINE
8
BLACK
6
CONTINUOUS
10
5.85308
20
-4.3591
11
5.85303
21
-4.35914
0
LINE
8
BLACK
6
CONTINUOUS
10
5.85303
20
-4.35914
11
5.84928
21
-4.36102
0
LINE
8
BLACK
6
CONTINUOUS
10
5.84928
20
-4.36102
11
5.8483
21
-4.36131
0
LINE
8
BLACK
6
CONTINUOUS
10
5.8483
20
-4.36131
11
5.84813
21
-4.36127
0
LINE
8
BLACK
6
CONTINUOUS
10
5.84813
20
-4.36127
11
5.84796
21
-4.36133
0
LINE
8
BLACK
6
CONTINUOUS
10
5.84796
20
-4.36133
11
5.84421
21
-4.36133
0
LINE
8
BLACK
6
CONTINUOUS
10
5.84421
20
-4.36133
11
5.8432
21
-4.36115
0
LINE
8
BLACK
6
CONTINUOUS
10
5.8432
20
-4.36115
11
5.84307
21
-4.36104
0
LINE
8
BLACK
6
CONTINUOUS
10
5.84307
20
-4.36104
11
5.84289
21
-4.36102
0
LINE
8
BLACK
6
CONTINUOUS
10
5.84289
20
-4.36102
11
5.83914
21
-4.35914
0
LINE
8
BLACK
6
CONTINUOUS
10
5.83914
20
-4.35914
11
5.83843
21
-4.35862
0
LINE
8
BLACK
6
CONTINUOUS
10
5.83843
20
-4.35862
11
5.83838
21
-4.35859
0
LINE
8
BLACK
6
CONTINUOUS
10
5.83838
20
-4.35859
11
5.8365
21
-4.35672
0
LINE
8
BLACK
6
CONTINUOUS
10
5.8365
20
-4.35672
11
5.83599
21
-4.35599
0
LINE
8
BLACK
6
CONTINUOUS
10
5.83599
20
-4.35599
11
5.83595
21
-4.35595
0
LINE
8
BLACK
6
CONTINUOUS
10
5.83595
20
-4.35595
11
5.83407
21
-4.3522
0
LINE
8
BLACK
6
CONTINUOUS
10
5.83407
20
-4.3522
11
5.83393
21
-4.35171
0
LINE
8
BLACK
6
CONTINUOUS
10
5.83393
20
-4.35171
11
5.83385
21
-4.3516
0
LINE
8
BLACK
6
CONTINUOUS
10
5.83385
20
-4.3516
11
5.83197
21
-4.3441
0
LINE
8
BLACK
6
CONTINUOUS
10
5.83197
20
-4.3441
11
5.83193
21
-4.34351
0
LINE
8
BLACK
6
CONTINUOUS
10
5.83193
20
-4.34351
11
5.83189
21
-4.34338
0
LINE
8
BLACK
6
CONTINUOUS
10
5.83189
20
-4.34338
11
5.83189
21
-4.33401
0
LINE
8
BLACK
6
CONTINUOUS
10
5.83189
20
-4.33401
11
5.83199
21
-4.33343
0
LINE
8
BLACK
6
CONTINUOUS
10
5.83199
20
-4.33343
11
5.83197
21
-4.33329
0
LINE
8
BLACK
6
CONTINUOUS
10
5.83197
20
-4.33329
11
5.83385
21
-4.32579
0
LINE
8
BLACK
6
CONTINUOUS
10
5.83385
20
-4.32579
11
5.83406
21
-4.32533
0
LINE
8
BLACK
6
CONTINUOUS
10
5.83406
20
-4.32533
11
5.83407
21
-4.32519
0
LINE
8
BLACK
6
CONTINUOUS
10
5.83407
20
-4.32519
11
5.83595
21
-4.32144
0
LINE
8
BLACK
6
CONTINUOUS
10
5.83595
20
-4.32144
11
5.83647
21
-4.32073
0
LINE
8
BLACK
6
CONTINUOUS
10
5.83647
20
-4.32073
11
5.8365
21
-4.32067
0
LINE
8
BLACK
6
CONTINUOUS
10
5.8365
20
-4.32067
11
5.83838
21
-4.3188
0
LINE
8
BLACK
6
CONTINUOUS
10
5.83838
20
-4.3188
11
5.8391
21
-4.31829
0
LINE
8
BLACK
6
CONTINUOUS
10
5.8391
20
-4.31829
11
5.83914
21
-4.31824
0
LINE
8
BLACK
6
CONTINUOUS
10
5.83914
20
-4.31824
11
5.84289
21
-4.31637
0
LINE
8
BLACK
6
CONTINUOUS
10
5.84289
20
-4.31637
11
5.84387
21
-4.31608
0
LINE
8
BLACK
6
CONTINUOUS
10
5.84387
20
-4.31608
11
5.84405
21
-4.31612
0
LINE
8
BLACK
6
CONTINUOUS
10
5.84405
20
-4.31612
11
5.84421
21
-4.31606
0
LINE
8
BLACK
6
CONTINUOUS
10
5.84421
20
-4.31606
11
5.84796
21
-4.31606
0
LINE
8
BLACK
6
CONTINUOUS
10
5.84796
20
-4.31606
11
5.84897
21
-4.31623
0
LINE
8
BLACK
6
CONTINUOUS
10
5.84221
20
-4.32331
11
5.84102
21
-4.32451
0
LINE
8
BLACK
6
CONTINUOUS
10
5.84102
20
-4.32451
11
5.8395
21
-4.32754
0
LINE
8
BLACK
6
CONTINUOUS
10
5.8395
20
-4.32754
11
5.83779
21
-4.33437
0
LINE
8
BLACK
6
CONTINUOUS
10
5.83779
20
-4.33437
11
5.83779
21
-4.34302
0
LINE
8
BLACK
6
CONTINUOUS
10
5.83779
20
-4.34302
11
5.8395
21
-4.34985
0
LINE
8
BLACK
6
CONTINUOUS
10
5.8395
20
-4.34985
11
5.84102
21
-4.35288
0
LINE
8
BLACK
6
CONTINUOUS
10
5.84102
20
-4.35288
11
5.84221
21
-4.35408
0
LINE
8
BLACK
6
CONTINUOUS
10
5.84221
20
-4.35408
11
5.84491
21
-4.35543
0
LINE
8
BLACK
6
CONTINUOUS
10
5.84491
20
-4.35543
11
5.84727
21
-4.35543
0
LINE
8
BLACK
6
CONTINUOUS
10
5.84727
20
-4.35543
11
5.84996
21
-4.35408
0
LINE
8
BLACK
6
CONTINUOUS
10
5.84996
20
-4.35408
11
5.85116
21
-4.35288
0
LINE
8
BLACK
6
CONTINUOUS
10
5.85116
20
-4.35288
11
5.85268
21
-4.34985
0
LINE
8
BLACK
6
CONTINUOUS
10
5.85268
20
-4.34985
11
5.85438
21
-4.34302
0
LINE
8
BLACK
6
CONTINUOUS
10
5.85438
20
-4.34302
11
5.85438
21
-4.33437
0
LINE
8
BLACK
6
CONTINUOUS
10
5.85438
20
-4.33437
11
5.85268
21
-4.32754
0
LINE
8
BLACK
6
CONTINUOUS
10
5.85268
20
-4.32754
11
5.85116
21
-4.32451
0
LINE
8
BLACK
6
CONTINUOUS
10
5.85116
20
-4.32451
11
5.84996
21
-4.32331
0
LINE
8
BLACK
6
CONTINUOUS
10
5.84996
20
-4.32331
11
5.84727
21
-4.32196
0
LINE
8
BLACK
6
CONTINUOUS
10
5.84727
20
-4.32196
11
5.84491
21
-4.32196
0
LINE
8
BLACK
6
CONTINUOUS
10
5.84491
20
-4.32196
11
5.84221
21
-4.32331
0
LINE
8
BLACK
6
CONTINUOUS
10
5.90522
20
-4.31623
11
5.90535
21
-4.31635
0
LINE
8
BLACK
6
CONTINUOUS
10
5.90535
20
-4.31635
11
5.90553
21
-4.31637
0
LINE
8
BLACK
6
CONTINUOUS
10
5.90553
20
-4.31637
11
5.90928
21
-4.31824
0
LINE
8
BLACK
6
CONTINUOUS
10
5.90928
20
-4.31824
11
5.90998
21
-4.31877
0
LINE
8
BLACK
6
CONTINUOUS
10
5.90998
20
-4.31877
11
5.91004
21
-4.3188
0
LINE
8
BLACK
6
CONTINUOUS
10
5.91004
20
-4.3188
11
5.91192
21
-4.32067
0
LINE
8
BLACK
6
CONTINUOUS
10
5.91192
20
-4.32067
11
5.91242
21
-4.32139
0
LINE
8
BLACK
6
CONTINUOUS
10
5.91242
20
-4.32139
11
5.91247
21
-4.32144
0
LINE
8
BLACK
6
CONTINUOUS
10
5.91247
20
-4.32144
11
5.91435
21
-4.32519
0
LINE
8
BLACK
6
CONTINUOUS
10
5.91435
20
-4.32519
11
5.91449
21
-4.32568
0
LINE
8
BLACK
6
CONTINUOUS
10
5.91449
20
-4.32568
11
5.91457
21
-4.32579
0
LINE
8
BLACK
6
CONTINUOUS
10
5.91457
20
-4.32579
11
5.91644
21
-4.33329
0
LINE
8
BLACK
6
CONTINUOUS
10
5.91644
20
-4.33329
11
5.91648
21
-4.33388
0
LINE
8
BLACK
6
CONTINUOUS
10
5.91648
20
-4.33388
11
5.91653
21
-4.33401
0
LINE
8
BLACK
6
CONTINUOUS
10
5.91653
20
-4.33401
11
5.91653
21
-4.34338
0
LINE
8
BLACK
6
CONTINUOUS
10
5.91653
20
-4.34338
11
5.91643
21
-4.34396
0
LINE
8
BLACK
6
CONTINUOUS
10
5.91643
20
-4.34396
11
5.91644
21
-4.3441
0
LINE
8
BLACK
6
CONTINUOUS
10
5.91644
20
-4.3441
11
5.91457
21
-4.3516
0
LINE
8
BLACK
6
CONTINUOUS
10
5.91457
20
-4.3516
11
5.91436
21
-4.35206
0
LINE
8
BLACK
6
CONTINUOUS
10
5.91436
20
-4.35206
11
5.91435
21
-4.3522
0
LINE
8
BLACK
6
CONTINUOUS
10
5.91435
20
-4.3522
11
5.91247
21
-4.35595
0
LINE
8
BLACK
6
CONTINUOUS
10
5.91247
20
-4.35595
11
5.91194
21
-4.35666
0
LINE
8
BLACK
6
CONTINUOUS
10
5.91194
20
-4.35666
11
5.91192
21
-4.35672
0
LINE
8
BLACK
6
CONTINUOUS
10
5.91192
20
-4.35672
11
5.91004
21
-4.35859
0
LINE
8
BLACK
6
CONTINUOUS
10
5.91004
20
-4.35859
11
5.90932
21
-4.3591
0
LINE
8
BLACK
6
CONTINUOUS
10
5.90932
20
-4.3591
11
5.90928
21
-4.35914
0
LINE
8
BLACK
6
CONTINUOUS
10
5.90928
20
-4.35914
11
5.90553
21
-4.36102
0
LINE
8
BLACK
6
CONTINUOUS
10
5.90553
20
-4.36102
11
5.90454
21
-4.36131
0
LINE
8
BLACK
6
CONTINUOUS
10
5.90454
20
-4.36131
11
5.90437
21
-4.36127
0
LINE
8
BLACK
6
CONTINUOUS
10
5.90437
20
-4.36127
11
5.90421
21
-4.36133
0
LINE
8
BLACK
6
CONTINUOUS
10
5.90421
20
-4.36133
11
5.90046
21
-4.36133
0
LINE
8
BLACK
6
CONTINUOUS
10
5.90046
20
-4.36133
11
5.89945
21
-4.36115
0
LINE
8
BLACK
6
CONTINUOUS
10
5.89945
20
-4.36115
11
5.89931
21
-4.36104
0
LINE
8
BLACK
6
CONTINUOUS
10
5.89931
20
-4.36104
11
5.89914
21
-4.36102
0
LINE
8
BLACK
6
CONTINUOUS
10
5.89914
20
-4.36102
11
5.89539
21
-4.35914
0
LINE
8
BLACK
6
CONTINUOUS
10
5.89539
20
-4.35914
11
5.89468
21
-4.35862
0
LINE
8
BLACK
6
CONTINUOUS
10
5.89468
20
-4.35862
11
5.89462
21
-4.35859
0
LINE
8
BLACK
6
CONTINUOUS
10
5.89462
20
-4.35859
11
5.89274
21
-4.35672
0
LINE
8
BLACK
6
CONTINUOUS
10
5.89274
20
-4.35672
11
5.89224
21
-4.35599
0
LINE
8
BLACK
6
CONTINUOUS
10
5.89224
20
-4.35599
11
5.89219
21
-4.35595
0
LINE
8
BLACK
6
CONTINUOUS
10
5.89219
20
-4.35595
11
5.89032
21
-4.3522
0
LINE
8
BLACK
6
CONTINUOUS
10
5.89032
20
-4.3522
11
5.89017
21
-4.35171
0
LINE
8
BLACK
6
CONTINUOUS
10
5.89017
20
-4.35171
11
5.89009
21
-4.3516
0
LINE
8
BLACK
6
CONTINUOUS
10
5.89009
20
-4.3516
11
5.88822
21
-4.3441
0
LINE
8
BLACK
6
CONTINUOUS
10
5.88822
20
-4.3441
11
5.88818
21
-4.34351
0
LINE
8
BLACK
6
CONTINUOUS
10
5.88818
20
-4.34351
11
5.88813
21
-4.34338
0
LINE
8
BLACK
6
CONTINUOUS
10
5.88813
20
-4.34338
11
5.88813
21
-4.33401
0
LINE
8
BLACK
6
CONTINUOUS
10
5.88813
20
-4.33401
11
5.88823
21
-4.33343
0
LINE
8
BLACK
6
CONTINUOUS
10
5.88823
20
-4.33343
11
5.88822
21
-4.33329
0
LINE
8
BLACK
6
CONTINUOUS
10
5.88822
20
-4.33329
11
5.89009
21
-4.32579
0
LINE
8
BLACK
6
CONTINUOUS
10
5.89009
20
-4.32579
11
5.8903
21
-4.32533
0
LINE
8
BLACK
6
CONTINUOUS
10
5.8903
20
-4.32533
11
5.89032
21
-4.32519
0
LINE
8
BLACK
6
CONTINUOUS
10
5.89032
20
-4.32519
11
5.89219
21
-4.32144
0
LINE
8
BLACK
6
CONTINUOUS
10
5.89219
20
-4.32144
11
5.89272
21
-4.32073
0
LINE
8
BLACK
6
CONTINUOUS
10
5.89272
20
-4.32073
11
5.89274
21
-4.32067
0
LINE
8
BLACK
6
CONTINUOUS
10
5.89274
20
-4.32067
11
5.89462
21
-4.3188
0
LINE
8
BLACK
6
CONTINUOUS
10
5.89462
20
-4.3188
11
5.89534
21
-4.31829
0
LINE
8
BLACK
6
CONTINUOUS
10
5.89534
20
-4.31829
11
5.89539
21
-4.31824
0
LINE
8
BLACK
6
CONTINUOUS
10
5.89539
20
-4.31824
11
5.89914
21
-4.31637
0
LINE
8
BLACK
6
CONTINUOUS
10
5.89914
20
-4.31637
11
5.90012
21
-4.31608
0
LINE
8
BLACK
6
CONTINUOUS
10
5.90012
20
-4.31608
11
5.90029
21
-4.31612
0
LINE
8
BLACK
6
CONTINUOUS
10
5.90029
20
-4.31612
11
5.90046
21
-4.31606
0
LINE
8
BLACK
6
CONTINUOUS
10
5.90046
20
-4.31606
11
5.90421
21
-4.31606
0
LINE
8
BLACK
6
CONTINUOUS
10
5.90421
20
-4.31606
11
5.90522
21
-4.31623
0
LINE
8
BLACK
6
CONTINUOUS
10
5.89846
20
-4.32331
11
5.89726
21
-4.32451
0
LINE
8
BLACK
6
CONTINUOUS
10
5.89726
20
-4.32451
11
5.89574
21
-4.32754
0
LINE
8
BLACK
6
CONTINUOUS
10
5.89574
20
-4.32754
11
5.89403
21
-4.33437
0
LINE
8
BLACK
6
CONTINUOUS
10
5.89403
20
-4.33437
11
5.89403
21
-4.34302
0
LINE
8
BLACK
6
CONTINUOUS
10
5.89403
20
-4.34302
11
5.89574
21
-4.34985
0
LINE
8
BLACK
6
CONTINUOUS
10
5.89574
20
-4.34985
11
5.89726
21
-4.35288
0
LINE
8
BLACK
6
CONTINUOUS
10
5.89726
20
-4.35288
11
5.89846
21
-4.35408
0
LINE
8
BLACK
6
CONTINUOUS
10
5.89846
20
-4.35408
11
5.90115
21
-4.35543
0
LINE
8
BLACK
6
CONTINUOUS
10
5.90115
20
-4.35543
11
5.90351
21
-4.35543
0
LINE
8
BLACK
6
CONTINUOUS
10
5.90351
20
-4.35543
11
5.90621
21
-4.35408
0
LINE
8
BLACK
6
CONTINUOUS
10
5.90621
20
-4.35408
11
5.9074
21
-4.35288
0
LINE
8
BLACK
6
CONTINUOUS
10
5.9074
20
-4.35288
11
5.90892
21
-4.34985
0
LINE
8
BLACK
6
CONTINUOUS
10
5.90892
20
-4.34985
11
5.91063
21
-4.34302
0
LINE
8
BLACK
6
CONTINUOUS
10
5.91063
20
-4.34302
11
5.91063
21
-4.33437
0
LINE
8
BLACK
6
CONTINUOUS
10
5.91063
20
-4.33437
11
5.90892
21
-4.32754
0
LINE
8
BLACK
6
CONTINUOUS
10
5.90892
20
-4.32754
11
5.9074
21
-4.32451
0
LINE
8
BLACK
6
CONTINUOUS
10
5.9074
20
-4.32451
11
5.90621
21
-4.32331
0
LINE
8
BLACK
6
CONTINUOUS
10
5.90621
20
-4.32331
11
5.90351
21
-4.32196
0
LINE
8
BLACK
6
CONTINUOUS
10
5.90351
20
-4.32196
11
5.90115
21
-4.32196
0
LINE
8
BLACK
6
CONTINUOUS
10
5.90115
20
-4.32196
11
5.89846
21
-4.32331
0
LINE
8
BLACK
6
CONTINUOUS
10
5.87459
20
-4.35174
11
5.87472
21
-4.35172
0
LINE
8
BLACK
6
CONTINUOUS
10
5.87472
20
-4.35172
11
5.87484
21
-4.35179
0
LINE
8
BLACK
6
CONTINUOUS
10
5.87484
20
-4.35179
11
5.87497
21
-4.35178
0
LINE
8
BLACK
6
CONTINUOUS
10
5.87497
20
-4.35178
11
5.8756
21
-4.35222
0
LINE
8
BLACK
6
CONTINUOUS
10
5.8756
20
-4.35222
11
5.8763
21
-4.35254
0
LINE
8
BLACK
6
CONTINUOUS
10
5.8763
20
-4.35254
11
5.87817
21
-4.35442
0
LINE
8
BLACK
6
CONTINUOUS
10
5.87817
20
-4.35442
11
5.87839
21
-4.35474
0
LINE
8
BLACK
6
CONTINUOUS
10
5.87839
20
-4.35474
11
5.8785
21
-4.35481
0
LINE
8
BLACK
6
CONTINUOUS
10
5.8785
20
-4.35481
11
5.87854
21
-4.35494
0
LINE
8
BLACK
6
CONTINUOUS
10
5.87854
20
-4.35494
11
5.87876
21
-4.35526
0
LINE
8
BLACK
6
CONTINUOUS
10
5.87876
20
-4.35526
11
5.87883
21
-4.35602
0
LINE
8
BLACK
6
CONTINUOUS
10
5.87883
20
-4.35602
11
5.87903
21
-4.35676
0
LINE
8
BLACK
6
CONTINUOUS
10
5.87903
20
-4.35676
11
5.87891
21
-4.357
0
LINE
8
BLACK
6
CONTINUOUS
10
5.87891
20
-4.357
11
5.87894
21
-4.35727
0
LINE
8
BLACK
6
CONTINUOUS
10
5.87894
20
-4.35727
11
5.8785
21
-4.3579
0
LINE
8
BLACK
6
CONTINUOUS
10
5.8785
20
-4.3579
11
5.87817
21
-4.35859
0
LINE
8
BLACK
6
CONTINUOUS
10
5.87817
20
-4.35859
11
5.8763
21
-4.36047
0
LINE
8
BLACK
6
CONTINUOUS
10
5.8763
20
-4.36047
11
5.87598
21
-4.36069
0
LINE
8
BLACK
6
CONTINUOUS
10
5.87598
20
-4.36069
11
5.8759
21
-4.3608
0
LINE
8
BLACK
6
CONTINUOUS
10
5.8759
20
-4.3608
11
5.87578
21
-4.36083
0
LINE
8
BLACK
6
CONTINUOUS
10
5.87578
20
-4.36083
11
5.87577
21
-4.36084
0
LINE
8
BLACK
6
CONTINUOUS
10
5.87577
20
-4.36084
11
5.87569
21
-4.36094
0
LINE
8
BLACK
6
CONTINUOUS
10
5.87569
20
-4.36094
11
5.87561
21
-4.36095
0
LINE
8
BLACK
6
CONTINUOUS
10
5.87561
20
-4.36095
11
5.87546
21
-4.36105
0
LINE
8
BLACK
6
CONTINUOUS
10
5.87546
20
-4.36105
11
5.87469
21
-4.36112
0
LINE
8
BLACK
6
CONTINUOUS
10
5.87469
20
-4.36112
11
5.87395
21
-4.36132
0
LINE
8
BLACK
6
CONTINUOUS
10
5.87395
20
-4.36132
11
5.87383
21
-4.36126
0
LINE
8
BLACK
6
CONTINUOUS
10
5.87383
20
-4.36126
11
5.8737
21
-4.36129
0
LINE
8
BLACK
6
CONTINUOUS
10
5.8737
20
-4.36129
11
5.87358
21
-4.36122
0
LINE
8
BLACK
6
CONTINUOUS
10
5.87358
20
-4.36122
11
5.87344
21
-4.36123
0
LINE
8
BLACK
6
CONTINUOUS
10
5.87344
20
-4.36123
11
5.87282
21
-4.36079
0
LINE
8
BLACK
6
CONTINUOUS
10
5.87282
20
-4.36079
11
5.87212
21
-4.36047
0
LINE
8
BLACK
6
CONTINUOUS
10
5.87212
20
-4.36047
11
5.87025
21
-4.35859
0
LINE
8
BLACK
6
CONTINUOUS
10
5.87025
20
-4.35859
11
5.87002
21
-4.35827
0
LINE
8
BLACK
6
CONTINUOUS
10
5.87002
20
-4.35827
11
5.86992
21
-4.3582
0
LINE
8
BLACK
6
CONTINUOUS
10
5.86992
20
-4.3582
11
5.86988
21
-4.35807
0
LINE
8
BLACK
6
CONTINUOUS
10
5.86988
20
-4.35807
11
5.86966
21
-4.35775
0
LINE
8
BLACK
6
CONTINUOUS
10
5.86966
20
-4.35775
11
5.86959
21
-4.35699
0
LINE
8
BLACK
6
CONTINUOUS
10
5.86959
20
-4.35699
11
5.86939
21
-4.35625
0
LINE
8
BLACK
6
CONTINUOUS
10
5.86939
20
-4.35625
11
5.86951
21
-4.35601
0
LINE
8
BLACK
6
CONTINUOUS
10
5.86951
20
-4.35601
11
5.86948
21
-4.35574
0
LINE
8
BLACK
6
CONTINUOUS
10
5.86948
20
-4.35574
11
5.86992
21
-4.35511
0
LINE
8
BLACK
6
CONTINUOUS
10
5.86992
20
-4.35511
11
5.87025
21
-4.35442
0
LINE
8
BLACK
6
CONTINUOUS
10
5.87025
20
-4.35442
11
5.87212
21
-4.35254
0
LINE
8
BLACK
6
CONTINUOUS
10
5.87212
20
-4.35254
11
5.87244
21
-4.35232
0
LINE
8
BLACK
6
CONTINUOUS
10
5.87244
20
-4.35232
11
5.87252
21
-4.35221
0
LINE
8
BLACK
6
CONTINUOUS
10
5.87252
20
-4.35221
11
5.87264
21
-4.35218
0
LINE
8
BLACK
6
CONTINUOUS
10
5.87264
20
-4.35218
11
5.87265
21
-4.35217
0
LINE
8
BLACK
6
CONTINUOUS
10
5.87265
20
-4.35217
11
5.87273
21
-4.35207
0
LINE
8
BLACK
6
CONTINUOUS
10
5.87273
20
-4.35207
11
5.87281
21
-4.35206
0
LINE
8
BLACK
6
CONTINUOUS
10
5.87281
20
-4.35206
11
5.87296
21
-4.35195
0
LINE
8
BLACK
6
CONTINUOUS
10
5.87296
20
-4.35195
11
5.87373
21
-4.35189
0
LINE
8
BLACK
6
CONTINUOUS
10
5.87373
20
-4.35189
11
5.87447
21
-4.35169
0
LINE
8
BLACK
6
CONTINUOUS
10
5.87447
20
-4.35169
11
5.87459
21
-4.35174
0
LINE
8
BLACK
6
CONTINUOUS
10
5.97271
20
-4.32936
11
5.97284
21
-4.32947
0
LINE
8
BLACK
6
CONTINUOUS
10
5.97284
20
-4.32947
11
5.97302
21
-4.32949
0
LINE
8
BLACK
6
CONTINUOUS
10
5.97302
20
-4.32949
11
5.97677
21
-4.33137
0
LINE
8
BLACK
6
CONTINUOUS
10
5.97677
20
-4.33137
11
5.97734
21
-4.33179
0
LINE
8
BLACK
6
CONTINUOUS
10
5.97734
20
-4.33179
11
5.97757
21
-4.33169
0
LINE
8
BLACK
6
CONTINUOUS
10
5.97757
20
-4.33169
11
5.97788
21
-4.33137
0
LINE
8
BLACK
6
CONTINUOUS
10
5.97788
20
-4.33137
11
5.98162
21
-4.32949
0
LINE
8
BLACK
6
CONTINUOUS
10
5.98162
20
-4.32949
11
5.98261
21
-4.3292
0
LINE
8
BLACK
6
CONTINUOUS
10
5.98261
20
-4.3292
11
5.98278
21
-4.32924
0
LINE
8
BLACK
6
CONTINUOUS
10
5.98278
20
-4.32924
11
5.98295
21
-4.32918
0
LINE
8
BLACK
6
CONTINUOUS
10
5.98295
20
-4.32918
11
5.98857
21
-4.32918
0
LINE
8
BLACK
6
CONTINUOUS
10
5.98857
20
-4.32918
11
5.98958
21
-4.32936
0
LINE
8
BLACK
6
CONTINUOUS
10
5.98958
20
-4.32936
11
5.98971
21
-4.32947
0
LINE
8
BLACK
6
CONTINUOUS
10
5.98971
20
-4.32947
11
5.98989
21
-4.32949
0
LINE
8
BLACK
6
CONTINUOUS
10
5.98989
20
-4.32949
11
5.99364
21
-4.33137
0
LINE
8
BLACK
6
CONTINUOUS
10
5.99364
20
-4.33137
11
5.99446
21
-4.33198
0
LINE
8
BLACK
6
CONTINUOUS
10
5.99446
20
-4.33198
11
5.99464
21
-4.33238
0
LINE
8
BLACK
6
CONTINUOUS
10
5.99464
20
-4.33238
11
5.99496
21
-4.33269
0
LINE
8
BLACK
6
CONTINUOUS
10
5.99496
20
-4.33269
11
5.99683
21
-4.33644
0
LINE
8
BLACK
6
CONTINUOUS
10
5.99683
20
-4.33644
11
5.99713
21
-4.33742
0
LINE
8
BLACK
6
CONTINUOUS
10
5.99713
20
-4.33742
11
5.99709
21
-4.33759
0
LINE
8
BLACK
6
CONTINUOUS
10
5.99709
20
-4.33759
11
5.99715
21
-4.33776
0
LINE
8
BLACK
6
CONTINUOUS
10
5.99715
20
-4.33776
11
5.99715
21
-4.35838
0
LINE
8
BLACK
6
CONTINUOUS
10
5.99715
20
-4.35838
11
5.99697
21
-4.35939
0
LINE
8
BLACK
6
CONTINUOUS
10
5.99697
20
-4.35939
11
5.99567
21
-4.36094
0
LINE
8
BLACK
6
CONTINUOUS
10
5.99567
20
-4.36094
11
5.99368
21
-4.36129
0
LINE
8
BLACK
6
CONTINUOUS
10
5.99368
20
-4.36129
11
5.99193
21
-4.36028
0
LINE
8
BLACK
6
CONTINUOUS
10
5.99193
20
-4.36028
11
5.99124
21
-4.35838
0
LINE
8
BLACK
6
CONTINUOUS
10
5.99124
20
-4.35838
11
5.99124
21
-4.33845
0
LINE
8
BLACK
6
CONTINUOUS
10
5.99124
20
-4.33845
11
5.99012
21
-4.33621
0
LINE
8
BLACK
6
CONTINUOUS
10
5.99012
20
-4.33621
11
5.98787
21
-4.33508
0
LINE
8
BLACK
6
CONTINUOUS
10
5.98787
20
-4.33508
11
5.98364
21
-4.33508
0
LINE
8
BLACK
6
CONTINUOUS
10
5.98364
20
-4.33508
11
5.9814
21
-4.33621
0
LINE
8
BLACK
6
CONTINUOUS
10
5.9814
20
-4.33621
11
5.98027
21
-4.33845
0
LINE
8
BLACK
6
CONTINUOUS
10
5.98027
20
-4.33845
11
5.98027
21
-4.35838
0
LINE
8
BLACK
6
CONTINUOUS
10
5.98027
20
-4.35838
11
5.9801
21
-4.35939
0
LINE
8
BLACK
6
CONTINUOUS
10
5.9801
20
-4.35939
11
5.9788
21
-4.36094
0
LINE
8
BLACK
6
CONTINUOUS
10
5.9788
20
-4.36094
11
5.97681
21
-4.36129
0
LINE
8
BLACK
6
CONTINUOUS
10
5.97681
20
-4.36129
11
5.97506
21
-4.36028
0
LINE
8
BLACK
6
CONTINUOUS
10
5.97506
20
-4.36028
11
5.97437
21
-4.35838
0
LINE
8
BLACK
6
CONTINUOUS
10
5.97437
20
-4.35838
11
5.97437
21
-4.33845
0
LINE
8
BLACK
6
CONTINUOUS
10
5.97437
20
-4.33845
11
5.97325
21
-4.33621
0
LINE
8
BLACK
6
CONTINUOUS
10
5.97325
20
-4.33621
11
5.971
21
-4.33508
0
LINE
8
BLACK
6
CONTINUOUS
10
5.971
20
-4.33508
11
5.96677
21
-4.33508
0
LINE
8
BLACK
6
CONTINUOUS
10
5.96677
20
-4.33508
11
5.96407
21
-4.33643
0
LINE
8
BLACK
6
CONTINUOUS
10
5.96407
20
-4.33643
11
5.9634
21
-4.3371
0
LINE
8
BLACK
6
CONTINUOUS
10
5.9634
20
-4.3371
11
5.9634
21
-4.35838
0
LINE
8
BLACK
6
CONTINUOUS
10
5.9634
20
-4.35838
11
5.96322
21
-4.35939
0
LINE
8
BLACK
6
CONTINUOUS
10
5.96322
20
-4.35939
11
5.96192
21
-4.36094
0
LINE
8
BLACK
6
CONTINUOUS
10
5.96192
20
-4.36094
11
5.95994
21
-4.36129
0
LINE
8
BLACK
6
CONTINUOUS
10
5.95994
20
-4.36129
11
5.95819
21
-4.36028
0
LINE
8
BLACK
6
CONTINUOUS
10
5.95819
20
-4.36028
11
5.9575
21
-4.35838
0
LINE
8
BLACK
6
CONTINUOUS
10
5.9575
20
-4.35838
11
5.9575
21
-4.33213
0
LINE
8
BLACK
6
CONTINUOUS
10
5.9575
20
-4.33213
11
5.95767
21
-4.33112
0
LINE
8
BLACK
6
CONTINUOUS
10
5.95767
20
-4.33112
11
5.95897
21
-4.32957
0
LINE
8
BLACK
6
CONTINUOUS
10
5.95897
20
-4.32957
11
5.96096
21
-4.32922
0
LINE
8
BLACK
6
CONTINUOUS
10
5.96096
20
-4.32922
11
5.96271
21
-4.33023
0
LINE
8
BLACK
6
CONTINUOUS
10
5.96271
20
-4.33023
11
5.9628
21
-4.33047
0
LINE
8
BLACK
6
CONTINUOUS
10
5.9628
20
-4.33047
11
5.96475
21
-4.32949
0
LINE
8
BLACK
6
CONTINUOUS
10
5.96475
20
-4.32949
11
5.96573
21
-4.3292
0
LINE
8
BLACK
6
CONTINUOUS
10
5.96573
20
-4.3292
11
5.96591
21
-4.32924
0
LINE
8
BLACK
6
CONTINUOUS
10
5.96591
20
-4.32924
11
5.96607
21
-4.32918
0
LINE
8
BLACK
6
CONTINUOUS
10
5.96607
20
-4.32918
11
5.9717
21
-4.32918
0
LINE
8
BLACK
6
CONTINUOUS
10
5.9717
20
-4.32918
11
5.97271
21
-4.32936
0
LINE
8
BLACK
6
CONTINUOUS
10
6.0252
20
-4.32936
11
6.02534
21
-4.32947
0
LINE
8
BLACK
6
CONTINUOUS
10
6.02534
20
-4.32947
11
6.02551
21
-4.32949
0
LINE
8
BLACK
6
CONTINUOUS
10
6.02551
20
-4.32949
11
6.02926
21
-4.33137
0
LINE
8
BLACK
6
CONTINUOUS
10
6.02926
20
-4.33137
11
6.02983
21
-4.33179
0
LINE
8
BLACK
6
CONTINUOUS
10
6.02983
20
-4.33179
11
6.03006
21
-4.33169
0
LINE
8
BLACK
6
CONTINUOUS
10
6.03006
20
-4.33169
11
6.03037
21
-4.33137
0
LINE
8
BLACK
6
CONTINUOUS
10
6.03037
20
-4.33137
11
6.03412
21
-4.32949
0
LINE
8
BLACK
6
CONTINUOUS
10
6.03412
20
-4.32949
11
6.0351
21
-4.3292
0
LINE
8
BLACK
6
CONTINUOUS
10
6.0351
20
-4.3292
11
6.03527
21
-4.32924
0
LINE
8
BLACK
6
CONTINUOUS
10
6.03527
20
-4.32924
11
6.03544
21
-4.32918
0
LINE
8
BLACK
6
CONTINUOUS
10
6.03544
20
-4.32918
11
6.04106
21
-4.32918
0
LINE
8
BLACK
6
CONTINUOUS
10
6.04106
20
-4.32918
11
6.04207
21
-4.32936
0
LINE
8
BLACK
6
CONTINUOUS
10
6.04207
20
-4.32936
11
6.04221
21
-4.32947
0
LINE
8
BLACK
6
CONTINUOUS
10
6.04221
20
-4.32947
11
6.04238
21
-4.32949
0
LINE
8
BLACK
6
CONTINUOUS
10
6.04238
20
-4.32949
11
6.04613
21
-4.33137
0
LINE
8
BLACK
6
CONTINUOUS
10
6.04613
20
-4.33137
11
6.04696
21
-4.33198
0
LINE
8
BLACK
6
CONTINUOUS
10
6.04696
20
-4.33198
11
6.04713
21
-4.33238
0
LINE
8
BLACK
6
CONTINUOUS
10
6.04713
20
-4.33238
11
6.04745
21
-4.33269
0
LINE
8
BLACK
6
CONTINUOUS
10
6.04745
20
-4.33269
11
6.04933
21
-4.33644
0
LINE
8
BLACK
6
CONTINUOUS
10
6.04933
20
-4.33644
11
6.04962
21
-4.33742
0
LINE
8
BLACK
6
CONTINUOUS
10
6.04962
20
-4.33742
11
6.04958
21
-4.33759
0
LINE
8
BLACK
6
CONTINUOUS
10
6.04958
20
-4.33759
11
6.04964
21
-4.33776
0
LINE
8
BLACK
6
CONTINUOUS
10
6.04964
20
-4.33776
11
6.04964
21
-4.35838
0
LINE
8
BLACK
6
CONTINUOUS
10
6.04964
20
-4.35838
11
6.04946
21
-4.35939
0
LINE
8
BLACK
6
CONTINUOUS
10
6.04946
20
-4.35939
11
6.04816
21
-4.36094
0
LINE
8
BLACK
6
CONTINUOUS
10
6.04816
20
-4.36094
11
6.04617
21
-4.36129
0
LINE
8
BLACK
6
CONTINUOUS
10
6.04617
20
-4.36129
11
6.04443
21
-4.36028
0
LINE
8
BLACK
6
CONTINUOUS
10
6.04443
20
-4.36028
11
6.04373
21
-4.35838
0
LINE
8
BLACK
6
CONTINUOUS
10
6.04373
20
-4.35838
11
6.04373
21
-4.33845
0
LINE
8
BLACK
6
CONTINUOUS
10
6.04373
20
-4.33845
11
6.04261
21
-4.33621
0
LINE
8
BLACK
6
CONTINUOUS
10
6.04261
20
-4.33621
11
6.04037
21
-4.33508
0
LINE
8
BLACK
6
CONTINUOUS
10
6.04037
20
-4.33508
11
6.03614
21
-4.33508
0
LINE
8
BLACK
6
CONTINUOUS
10
6.03614
20
-4.33508
11
6.03389
21
-4.33621
0
LINE
8
BLACK
6
CONTINUOUS
10
6.03389
20
-4.33621
11
6.03277
21
-4.33845
0
LINE
8
BLACK
6
CONTINUOUS
10
6.03277
20
-4.33845
11
6.03277
21
-4.35838
0
LINE
8
BLACK
6
CONTINUOUS
10
6.03277
20
-4.35838
11
6.03259
21
-4.35939
0
LINE
8
BLACK
6
CONTINUOUS
10
6.03259
20
-4.35939
11
6.03129
21
-4.36094
0
LINE
8
BLACK
6
CONTINUOUS
10
6.03129
20
-4.36094
11
6.0293
21
-4.36129
0
LINE
8
BLACK
6
CONTINUOUS
10
6.0293
20
-4.36129
11
6.02755
21
-4.36028
0
LINE
8
BLACK
6
CONTINUOUS
10
6.02755
20
-4.36028
11
6.02686
21
-4.35838
0
LINE
8
BLACK
6
CONTINUOUS
10
6.02686
20
-4.35838
11
6.02686
21
-4.33845
0
LINE
8
BLACK
6
CONTINUOUS
10
6.02686
20
-4.33845
11
6.02574
21
-4.33621
0
LINE
8
BLACK
6
CONTINUOUS
10
6.02574
20
-4.33621
11
6.02349
21
-4.33508
0
LINE
8
BLACK
6
CONTINUOUS
10
6.02349
20
-4.33508
11
6.01926
21
-4.33508
0
LINE
8
BLACK
6
CONTINUOUS
10
6.01926
20
-4.33508
11
6.01657
21
-4.33643
0
LINE
8
BLACK
6
CONTINUOUS
10
6.01657
20
-4.33643
11
6.01589
21
-4.3371
0
LINE
8
BLACK
6
CONTINUOUS
10
6.01589
20
-4.3371
11
6.01589
21
-4.35838
0
LINE
8
BLACK
6
CONTINUOUS
10
6.01589
20
-4.35838
11
6.01572
21
-4.35939
0
LINE
8
BLACK
6
CONTINUOUS
10
6.01572
20
-4.35939
11
6.01442
21
-4.36094
0
LINE
8
BLACK
6
CONTINUOUS
10
6.01442
20
-4.36094
11
6.01243
21
-4.36129
0
LINE
8
BLACK
6
CONTINUOUS
10
6.01243
20
-4.36129
11
6.01068
21
-4.36028
0
LINE
8
BLACK
6
CONTINUOUS
10
6.01068
20
-4.36028
11
6.00999
21
-4.35838
0
LINE
8
BLACK
6
CONTINUOUS
10
6.00999
20
-4.35838
11
6.00999
21
-4.33213
0
LINE
8
BLACK
6
CONTINUOUS
10
6.00999
20
-4.33213
11
6.01017
21
-4.33112
0
LINE
8
BLACK
6
CONTINUOUS
10
6.01017
20
-4.33112
11
6.01147
21
-4.32957
0
LINE
8
BLACK
6
CONTINUOUS
10
6.01147
20
-4.32957
11
6.01345
21
-4.32922
0
LINE
8
BLACK
6
CONTINUOUS
10
6.01345
20
-4.32922
11
6.0152
21
-4.33023
0
LINE
8
BLACK
6
CONTINUOUS
10
6.0152
20
-4.33023
11
6.01529
21
-4.33047
0
LINE
8
BLACK
6
CONTINUOUS
10
6.01529
20
-4.33047
11
6.01725
21
-4.32949
0
LINE
8
BLACK
6
CONTINUOUS
10
6.01725
20
-4.32949
11
6.01823
21
-4.3292
0
LINE
8
BLACK
6
CONTINUOUS
10
6.01823
20
-4.3292
11
6.0184
21
-4.32924
0
LINE
8
BLACK
6
CONTINUOUS
10
6.0184
20
-4.32924
11
6.01857
21
-4.32918
0
LINE
8
BLACK
6
CONTINUOUS
10
6.01857
20
-4.32918
11
6.02419
21
-4.32918
0
LINE
8
BLACK
6
CONTINUOUS
10
6.02419
20
-4.32918
11
6.0252
21
-4.32936
0
LINE
8
BLACK
6
CONTINUOUS
10
7.12278
20
-2.94825
11
7.12336
21
-2.94965
0
LINE
8
BLACK
6
CONTINUOUS
10
7.12336
20
-2.94965
11
7.12278
21
-2.95104
0
LINE
8
BLACK
6
CONTINUOUS
10
7.12278
20
-2.95104
11
7.12139
21
-2.95161
0
LINE
8
BLACK
6
CONTINUOUS
10
7.12139
20
-2.95161
11
7.10154
21
-2.95161
0
LINE
8
BLACK
6
CONTINUOUS
10
7.10154
20
-2.95161
11
7.12313
21
-2.99309
0
LINE
8
BLACK
6
CONTINUOUS
10
7.12313
20
-2.99309
11
7.12326
21
-2.99459
0
LINE
8
BLACK
6
CONTINUOUS
10
7.12326
20
-2.99459
11
7.1223
21
-2.99574
0
LINE
8
BLACK
6
CONTINUOUS
10
7.1223
20
-2.99574
11
7.12079
21
-2.99587
0
LINE
8
BLACK
6
CONTINUOUS
10
7.12079
20
-2.99587
11
7.11964
21
-2.99491
0
LINE
8
BLACK
6
CONTINUOUS
10
7.11964
20
-2.99491
11
7.10027
21
-2.95769
0
LINE
8
BLACK
6
CONTINUOUS
10
7.10027
20
-2.95769
11
7.10027
21
-4.1227
0
LINE
8
BLACK
6
CONTINUOUS
10
7.10027
20
-4.1227
11
7.11964
21
-4.08549
0
LINE
8
BLACK
6
CONTINUOUS
10
7.11964
20
-4.08549
11
7.12079
21
-4.08452
0
LINE
8
BLACK
6
CONTINUOUS
10
7.12079
20
-4.08452
11
7.1223
21
-4.08465
0
LINE
8
BLACK
6
CONTINUOUS
10
7.1223
20
-4.08465
11
7.12326
21
-4.08581
0
LINE
8
BLACK
6
CONTINUOUS
10
7.12326
20
-4.08581
11
7.12313
21
-4.08731
0
LINE
8
BLACK
6
CONTINUOUS
10
7.12313
20
-4.08731
11
7.10154
21
-4.12878
0
LINE
8
BLACK
6
CONTINUOUS
10
7.10154
20
-4.12878
11
7.12139
21
-4.12878
0
LINE
8
BLACK
6
CONTINUOUS
10
7.12139
20
-4.12878
11
7.12278
21
-4.12936
0
LINE
8
BLACK
6
CONTINUOUS
10
7.12278
20
-4.12936
11
7.12336
21
-4.13075
0
LINE
8
BLACK
6
CONTINUOUS
10
7.12336
20
-4.13075
11
7.12278
21
-4.13214
0
LINE
8
BLACK
6
CONTINUOUS
10
7.12278
20
-4.13214
11
7.12139
21
-4.13272
0
LINE
8
BLACK
6
CONTINUOUS
10
7.12139
20
-4.13272
11
7.0983
21
-4.13272
0
LINE
8
BLACK
6
CONTINUOUS
10
7.0983
20
-4.13272
11
6.92689
21
-4.13272
0
LINE
8
BLACK
6
CONTINUOUS
10
6.92689
20
-4.13272
11
6.9255
21
-4.13214
0
LINE
8
BLACK
6
CONTINUOUS
10
6.9255
20
-4.13214
11
6.92492
21
-4.13075
0
LINE
8
BLACK
6
CONTINUOUS
10
6.92492
20
-4.13075
11
6.9255
21
-4.12936
0
LINE
8
BLACK
6
CONTINUOUS
10
6.9255
20
-4.12936
11
6.92689
21
-4.12878
0
LINE
8
BLACK
6
CONTINUOUS
10
6.92689
20
-4.12878
11
7.09506
21
-4.12878
0
LINE
8
BLACK
6
CONTINUOUS
10
7.09506
20
-4.12878
11
7.07347
21
-4.08731
0
LINE
8
BLACK
6
CONTINUOUS
10
7.07347
20
-4.08731
11
7.07333
21
-4.08581
0
LINE
8
BLACK
6
CONTINUOUS
10
7.07333
20
-4.08581
11
7.0743
21
-4.08465
0
LINE
8
BLACK
6
CONTINUOUS
10
7.0743
20
-4.08465
11
7.0758
21
-4.08452
0
LINE
8
BLACK
6
CONTINUOUS
10
7.0758
20
-4.08452
11
7.07696
21
-4.08549
0
LINE
8
BLACK
6
CONTINUOUS
10
7.07696
20
-4.08549
11
7.09633
21
-4.1227
0
LINE
8
BLACK
6
CONTINUOUS
10
7.09633
20
-4.1227
11
7.09633
21
-2.95769
0
LINE
8
BLACK
6
CONTINUOUS
10
7.09633
20
-2.95769
11
7.07696
21
-2.99491
0
LINE
8
BLACK
6
CONTINUOUS
10
7.07696
20
-2.99491
11
7.0758
21
-2.99587
0
LINE
8
BLACK
6
CONTINUOUS
10
7.0758
20
-2.99587
11
7.0743
21
-2.99574
0
LINE
8
BLACK
6
CONTINUOUS
10
7.0743
20
-2.99574
11
7.07333
21
-2.99459
0
LINE
8
BLACK
6
CONTINUOUS
10
7.07333
20
-2.99459
11
7.07347
21
-2.99309
0
LINE
8
BLACK
6
CONTINUOUS
10
7.07347
20
-2.99309
11
7.09506
21
-2.95161
0
LINE
8
BLACK
6
CONTINUOUS
10
7.09506
20
-2.95161
11
6.92689
21
-2.95161
0
LINE
8
BLACK
6
CONTINUOUS
10
6.92689
20
-2.95161
11
6.9255
21
-2.95104
0
LINE
8
BLACK
6
CONTINUOUS
10
6.9255
20
-2.95104
11
6.92492
21
-2.94965
0
LINE
8
BLACK
6
CONTINUOUS
10
6.92492
20
-2.94965
11
6.9255
21
-2.94825
0
LINE
8
BLACK
6
CONTINUOUS
10
6.9255
20
-2.94825
11
6.92689
21
-2.94768
0
LINE
8
BLACK
6
CONTINUOUS
10
6.92689
20
-2.94768
11
7.12139
21
-2.94768
0
LINE
8
BLACK
6
CONTINUOUS
10
7.12139
20
-2.94768
11
7.12278
21
-2.94825
0
LINE
8
BLACK
6
CONTINUOUS
10
6.9086
20
-3.69136
11
6.90917
21
-3.69276
0
LINE
8
BLACK
6
CONTINUOUS
10
6.90917
20
-3.69276
11
6.90917
21
-3.97819
0
LINE
8
BLACK
6
CONTINUOUS
10
6.90917
20
-3.97819
11
6.9086
21
-3.97958
0
LINE
8
BLACK
6
CONTINUOUS
10
6.9086
20
-3.97958
11
6.9072
21
-3.98016
0
LINE
8
BLACK
6
CONTINUOUS
10
6.9072
20
-3.98016
11
6.90581
21
-3.97958
0
LINE
8
BLACK
6
CONTINUOUS
10
6.90581
20
-3.97958
11
6.90524
21
-3.97819
0
LINE
8
BLACK
6
CONTINUOUS
10
6.90524
20
-3.97819
11
6.90524
21
-3.69276
0
LINE
8
BLACK
6
CONTINUOUS
10
6.90524
20
-3.69276
11
6.90581
21
-3.69136
0
LINE
8
BLACK
6
CONTINUOUS
10
6.90581
20
-3.69136
11
6.9072
21
-3.69079
0
LINE
8
BLACK
6
CONTINUOUS
10
6.9072
20
-3.69079
11
6.9086
21
-3.69136
0
LINE
8
BLACK
6
CONTINUOUS
10
6.8431
20
-3.87902
11
6.84337
21
-3.87904
0
LINE
8
BLACK
6
CONTINUOUS
10
6.84337
20
-3.87904
11
6.84487
21
-3.87979
0
LINE
8
BLACK
6
CONTINUOUS
10
6.84487
20
-3.87979
11
6.845
21
-3.87993
0
LINE
8
BLACK
6
CONTINUOUS
10
6.845
20
-3.87993
11
6.84518
21
-3.88001
0
LINE
8
BLACK
6
CONTINUOUS
10
6.84518
20
-3.88001
11
6.84593
21
-3.88076
0
LINE
8
BLACK
6
CONTINUOUS
10
6.84593
20
-3.88076
11
6.846
21
-3.88094
0
LINE
8
BLACK
6
CONTINUOUS
10
6.846
20
-3.88094
11
6.84615
21
-3.88106
0
LINE
8
BLACK
6
CONTINUOUS
10
6.84615
20
-3.88106
11
6.8469
21
-3.88256
0
LINE
8
BLACK
6
CONTINUOUS
10
6.8469
20
-3.88256
11
6.84692
21
-3.88284
0
LINE
8
BLACK
6
CONTINUOUS
10
6.84692
20
-3.88284
11
6.84703
21
-3.88309
0
LINE
8
BLACK
6
CONTINUOUS
10
6.84703
20
-3.88309
11
6.84703
21
-3.88791
0
LINE
8
BLACK
6
CONTINUOUS
10
6.84703
20
-3.88791
11
6.85334
21
-3.88791
0
LINE
8
BLACK
6
CONTINUOUS
10
6.85334
20
-3.88791
11
6.85418
21
-3.88826
0
LINE
8
BLACK
6
CONTINUOUS
10
6.85418
20
-3.88826
11
6.85452
21
-3.88909
0
LINE
8
BLACK
6
CONTINUOUS
10
6.85452
20
-3.88909
11
6.85418
21
-3.88993
0
LINE
8
BLACK
6
CONTINUOUS
10
6.85418
20
-3.88993
11
6.85334
21
-3.89027
0
LINE
8
BLACK
6
CONTINUOUS
10
6.85334
20
-3.89027
11
6.84584
21
-3.89027
0
LINE
8
BLACK
6
CONTINUOUS
10
6.84584
20
-3.89027
11
6.8376
21
-3.89027
0
LINE
8
BLACK
6
CONTINUOUS
10
6.8376
20
-3.89027
11
6.83676
21
-3.88993
0
LINE
8
BLACK
6
CONTINUOUS
10
6.83676
20
-3.88993
11
6.83641
21
-3.88909
0
LINE
8
BLACK
6
CONTINUOUS
10
6.83641
20
-3.88909
11
6.83641
21
-3.88309
0
LINE
8
BLACK
6
CONTINUOUS
10
6.83641
20
-3.88309
11
6.83652
21
-3.88284
0
LINE
8
BLACK
6
CONTINUOUS
10
6.83652
20
-3.88284
11
6.83654
21
-3.88256
0
LINE
8
BLACK
6
CONTINUOUS
10
6.83654
20
-3.88256
11
6.83729
21
-3.88106
0
LINE
8
BLACK
6
CONTINUOUS
10
6.83729
20
-3.88106
11
6.83744
21
-3.88094
0
LINE
8
BLACK
6
CONTINUOUS
10
6.83744
20
-3.88094
11
6.83751
21
-3.88076
0
LINE
8
BLACK
6
CONTINUOUS
10
6.83751
20
-3.88076
11
6.83826
21
-3.88001
0
LINE
8
BLACK
6
CONTINUOUS
10
6.83826
20
-3.88001
11
6.83844
21
-3.87993
0
LINE
8
BLACK
6
CONTINUOUS
10
6.83844
20
-3.87993
11
6.83857
21
-3.87979
0
LINE
8
BLACK
6
CONTINUOUS
10
6.83857
20
-3.87979
11
6.84007
21
-3.87904
0
LINE
8
BLACK
6
CONTINUOUS
10
6.84007
20
-3.87904
11
6.84034
21
-3.87902
0
LINE
8
BLACK
6
CONTINUOUS
10
6.84034
20
-3.87902
11
6.8406
21
-3.87891
0
LINE
8
BLACK
6
CONTINUOUS
10
6.8406
20
-3.87891
11
6.84284
21
-3.87891
0
LINE
8
BLACK
6
CONTINUOUS
10
6.84284
20
-3.87891
11
6.8431
21
-3.87902
0
LINE
8
BLACK
6
CONTINUOUS
10
6.83979
20
-3.88181
11
6.83932
21
-3.88229
0
LINE
8
BLACK
6
CONTINUOUS
10
6.83932
20
-3.88229
11
6.83878
21
-3.88337
0
LINE
8
BLACK
6
CONTINUOUS
10
6.83878
20
-3.88337
11
6.83878
21
-3.88791
0
LINE
8
BLACK
6
CONTINUOUS
10
6.83878
20
-3.88791
11
6.84466
21
-3.88791
0
LINE
8
BLACK
6
CONTINUOUS
10
6.84466
20
-3.88791
11
6.84466
21
-3.88337
0
LINE
8
BLACK
6
CONTINUOUS
10
6.84466
20
-3.88337
11
6.84412
21
-3.88229
0
LINE
8
BLACK
6
CONTINUOUS
10
6.84412
20
-3.88229
11
6.84365
21
-3.88181
0
LINE
8
BLACK
6
CONTINUOUS
10
6.84365
20
-3.88181
11
6.84257
21
-3.88127
0
LINE
8
BLACK
6
CONTINUOUS
10
6.84257
20
-3.88127
11
6.84087
21
-3.88127
0
LINE
8
BLACK
6
CONTINUOUS
10
6.84087
20
-3.88127
11
6.83979
21
-3.88181
0
LINE
8
BLACK
6
CONTINUOUS
10
6.85268
20
-3.86351
11
6.85343
21
-3.86426
0
LINE
8
BLACK
6
CONTINUOUS
10
6.85343
20
-3.86426
11
6.85353
21
-3.86451
0
LINE
8
BLACK
6
CONTINUOUS
10
6.85353
20
-3.86451
11
6.85371
21
-3.86472
0
LINE
8
BLACK
6
CONTINUOUS
10
6.85371
20
-3.86472
11
6.85446
21
-3.86697
0
LINE
8
BLACK
6
CONTINUOUS
10
6.85446
20
-3.86697
11
6.85445
21
-3.86716
0
LINE
8
BLACK
6
CONTINUOUS
10
6.85445
20
-3.86716
11
6.85452
21
-3.86734
0
LINE
8
BLACK
6
CONTINUOUS
10
6.85452
20
-3.86734
11
6.85452
21
-3.86884
0
LINE
8
BLACK
6
CONTINUOUS
10
6.85452
20
-3.86884
11
6.85445
21
-3.86902
0
LINE
8
BLACK
6
CONTINUOUS
10
6.85445
20
-3.86902
11
6.85446
21
-3.86922
0
LINE
8
BLACK
6
CONTINUOUS
10
6.85446
20
-3.86922
11
6.85371
21
-3.87147
0
LINE
8
BLACK
6
CONTINUOUS
10
6.85371
20
-3.87147
11
6.85353
21
-3.87167
0
LINE
8
BLACK
6
CONTINUOUS
10
6.85353
20
-3.87167
11
6.85343
21
-3.87193
0
LINE
8
BLACK
6
CONTINUOUS
10
6.85343
20
-3.87193
11
6.85193
21
-3.87343
0
LINE
8
BLACK
6
CONTINUOUS
10
6.85193
20
-3.87343
11
6.85175
21
-3.8735
0
LINE
8
BLACK
6
CONTINUOUS
10
6.85175
20
-3.8735
11
6.85162
21
-3.87365
0
LINE
8
BLACK
6
CONTINUOUS
10
6.85162
20
-3.87365
11
6.85012
21
-3.8744
0
LINE
8
BLACK
6
CONTINUOUS
10
6.85012
20
-3.8744
11
6.84999
21
-3.87441
0
LINE
8
BLACK
6
CONTINUOUS
10
6.84999
20
-3.87441
11
6.84988
21
-3.87449
0
LINE
8
BLACK
6
CONTINUOUS
10
6.84988
20
-3.87449
11
6.84688
21
-3.87524
0
LINE
8
BLACK
6
CONTINUOUS
10
6.84688
20
-3.87524
11
6.84673
21
-3.87522
0
LINE
8
BLACK
6
CONTINUOUS
10
6.84673
20
-3.87522
11
6.84659
21
-3.87527
0
LINE
8
BLACK
6
CONTINUOUS
10
6.84659
20
-3.87527
11
6.84434
21
-3.87527
0
LINE
8
BLACK
6
CONTINUOUS
10
6.84434
20
-3.87527
11
6.84421
21
-3.87522
0
LINE
8
BLACK
6
CONTINUOUS
10
6.84421
20
-3.87522
11
6.84406
21
-3.87524
0
LINE
8
BLACK
6
CONTINUOUS
10
6.84406
20
-3.87524
11
6.84106
21
-3.87449
0
LINE
8
BLACK
6
CONTINUOUS
10
6.84106
20
-3.87449
11
6.84095
21
-3.87441
0
LINE
8
BLACK
6
CONTINUOUS
10
6.84095
20
-3.87441
11
6.84082
21
-3.8744
0
LINE
8
BLACK
6
CONTINUOUS
10
6.84082
20
-3.8744
11
6.83932
21
-3.87365
0
LINE
8
BLACK
6
CONTINUOUS
10
6.83932
20
-3.87365
11
6.83919
21
-3.8735
0
LINE
8
BLACK
6
CONTINUOUS
10
6.83919
20
-3.8735
11
6.83901
21
-3.87343
0
LINE
8
BLACK
6
CONTINUOUS
10
6.83901
20
-3.87343
11
6.83751
21
-3.87193
0
LINE
8
BLACK
6
CONTINUOUS
10
6.83751
20
-3.87193
11
6.83741
21
-3.87167
0
LINE
8
BLACK
6
CONTINUOUS
10
6.83741
20
-3.87167
11
6.83723
21
-3.87147
0
LINE
8
BLACK
6
CONTINUOUS
10
6.83723
20
-3.87147
11
6.83648
21
-3.86922
0
LINE
8
BLACK
6
CONTINUOUS
10
6.83648
20
-3.86922
11
6.83649
21
-3.86902
0
LINE
8
BLACK
6
CONTINUOUS
10
6.83649
20
-3.86902
11
6.83641
21
-3.86884
0
LINE
8
BLACK
6
CONTINUOUS
10
6.83641
20
-3.86884
11
6.83641
21
-3.86734
0
LINE
8
BLACK
6
CONTINUOUS
10
6.83641
20
-3.86734
11
6.83649
21
-3.86716
0
LINE
8
BLACK
6
CONTINUOUS
10
6.83649
20
-3.86716
11
6.83648
21
-3.86697
0
LINE
8
BLACK
6
CONTINUOUS
10
6.83648
20
-3.86697
11
6.83723
21
-3.86472
0
LINE
8
BLACK
6
CONTINUOUS
10
6.83723
20
-3.86472
11
6.83741
21
-3.86451
0
LINE
8
BLACK
6
CONTINUOUS
10
6.83741
20
-3.86451
11
6.83751
21
-3.86426
0
LINE
8
BLACK
6
CONTINUOUS
10
6.83751
20
-3.86426
11
6.83826
21
-3.86351
0
LINE
8
BLACK
6
CONTINUOUS
10
6.83826
20
-3.86351
11
6.8391
21
-3.86316
0
LINE
8
BLACK
6
CONTINUOUS
10
6.8391
20
-3.86316
11
6.83993
21
-3.86351
0
LINE
8
BLACK
6
CONTINUOUS
10
6.83993
20
-3.86351
11
6.84028
21
-3.86434
0
LINE
8
BLACK
6
CONTINUOUS
10
6.84028
20
-3.86434
11
6.83993
21
-3.86518
0
LINE
8
BLACK
6
CONTINUOUS
10
6.83993
20
-3.86518
11
6.83938
21
-3.86573
0
LINE
8
BLACK
6
CONTINUOUS
10
6.83938
20
-3.86573
11
6.83878
21
-3.86754
0
LINE
8
BLACK
6
CONTINUOUS
10
6.83878
20
-3.86754
11
6.83878
21
-3.86865
0
LINE
8
BLACK
6
CONTINUOUS
10
6.83878
20
-3.86865
11
6.83938
21
-3.87045
0
LINE
8
BLACK
6
CONTINUOUS
10
6.83938
20
-3.87045
11
6.84054
21
-3.87162
0
LINE
8
BLACK
6
CONTINUOUS
10
6.84054
20
-3.87162
11
6.84176
21
-3.87223
0
LINE
8
BLACK
6
CONTINUOUS
10
6.84176
20
-3.87223
11
6.84449
21
-3.87291
0
LINE
8
BLACK
6
CONTINUOUS
10
6.84449
20
-3.87291
11
6.84645
21
-3.87291
0
LINE
8
BLACK
6
CONTINUOUS
10
6.84645
20
-3.87291
11
6.84918
21
-3.87223
0
LINE
8
BLACK
6
CONTINUOUS
10
6.84918
20
-3.87223
11
6.85039
21
-3.87162
0
LINE
8
BLACK
6
CONTINUOUS
10
6.85039
20
-3.87162
11
6.85156
21
-3.87045
0
LINE
8
BLACK
6
CONTINUOUS
10
6.85156
20
-3.87045
11
6.85216
21
-3.86865
0
LINE
8
BLACK
6
CONTINUOUS
10
6.85216
20
-3.86865
11
6.85216
21
-3.86754
0
LINE
8
BLACK
6
CONTINUOUS
10
6.85216
20
-3.86754
11
6.85156
21
-3.86573
0
LINE
8
BLACK
6
CONTINUOUS
10
6.85156
20
-3.86573
11
6.85101
21
-3.86518
0
LINE
8
BLACK
6
CONTINUOUS
10
6.85101
20
-3.86518
11
6.85066
21
-3.86434
0
LINE
8
BLACK
6
CONTINUOUS
10
6.85066
20
-3.86434
11
6.85101
21
-3.86351
0
LINE
8
BLACK
6
CONTINUOUS
10
6.85101
20
-3.86351
11
6.85184
21
-3.86316
0
LINE
8
BLACK
6
CONTINUOUS
10
6.85184
20
-3.86316
11
6.85268
21
-3.86351
0
LINE
8
BLACK
6
CONTINUOUS
10
6.8506
20
-3.84752
11
6.85087
21
-3.84754
0
LINE
8
BLACK
6
CONTINUOUS
10
6.85087
20
-3.84754
11
6.85237
21
-3.84829
0
LINE
8
BLACK
6
CONTINUOUS
10
6.85237
20
-3.84829
11
6.8525
21
-3.84844
0
LINE
8
BLACK
6
CONTINUOUS
10
6.8525
20
-3.84844
11
6.85268
21
-3.84851
0
LINE
8
BLACK
6
CONTINUOUS
10
6.85268
20
-3.84851
11
6.85343
21
-3.84926
0
LINE
8
BLACK
6
CONTINUOUS
10
6.85343
20
-3.84926
11
6.8535
21
-3.84944
0
LINE
8
BLACK
6
CONTINUOUS
10
6.8535
20
-3.84944
11
6.85365
21
-3.84957
0
LINE
8
BLACK
6
CONTINUOUS
10
6.85365
20
-3.84957
11
6.8544
21
-3.85107
0
LINE
8
BLACK
6
CONTINUOUS
10
6.8544
20
-3.85107
11
6.85442
21
-3.85134
0
LINE
8
BLACK
6
CONTINUOUS
10
6.85442
20
-3.85134
11
6.85452
21
-3.8516
0
LINE
8
BLACK
6
CONTINUOUS
10
6.85452
20
-3.8516
11
6.85452
21
-3.85759
0
LINE
8
BLACK
6
CONTINUOUS
10
6.85452
20
-3.85759
11
6.85418
21
-3.85843
0
LINE
8
BLACK
6
CONTINUOUS
10
6.85418
20
-3.85843
11
6.85334
21
-3.85878
0
LINE
8
BLACK
6
CONTINUOUS
10
6.85334
20
-3.85878
11
6.84509
21
-3.85878
0
LINE
8
BLACK
6
CONTINUOUS
10
6.84509
20
-3.85878
11
6.8376
21
-3.85878
0
LINE
8
BLACK
6
CONTINUOUS
10
6.8376
20
-3.85878
11
6.83676
21
-3.85843
0
LINE
8
BLACK
6
CONTINUOUS
10
6.83676
20
-3.85843
11
6.83641
21
-3.85759
0
LINE
8
BLACK
6
CONTINUOUS
10
6.83641
20
-3.85759
11
6.83641
21
-3.85235
0
LINE
8
BLACK
6
CONTINUOUS
10
6.83641
20
-3.85235
11
6.83652
21
-3.85209
0
LINE
8
BLACK
6
CONTINUOUS
10
6.83652
20
-3.85209
11
6.83654
21
-3.85182
0
LINE
8
BLACK
6
CONTINUOUS
10
6.83654
20
-3.85182
11
6.83729
21
-3.85032
0
LINE
8
BLACK
6
CONTINUOUS
10
6.83729
20
-3.85032
11
6.83744
21
-3.85019
0
LINE
8
BLACK
6
CONTINUOUS
10
6.83744
20
-3.85019
11
6.83751
21
-3.85001
0
LINE
8
BLACK
6
CONTINUOUS
10
6.83751
20
-3.85001
11
6.83826
21
-3.84926
0
LINE
8
BLACK
6
CONTINUOUS
10
6.83826
20
-3.84926
11
6.83844
21
-3.84919
0
LINE
8
BLACK
6
CONTINUOUS
10
6.83844
20
-3.84919
11
6.83857
21
-3.84904
0
LINE
8
BLACK
6
CONTINUOUS
10
6.83857
20
-3.84904
11
6.84007
21
-3.84829
0
LINE
8
BLACK
6
CONTINUOUS
10
6.84007
20
-3.84829
11
6.84034
21
-3.84827
0
LINE
8
BLACK
6
CONTINUOUS
10
6.84034
20
-3.84827
11
6.8406
21
-3.84816
0
LINE
8
BLACK
6
CONTINUOUS
10
6.8406
20
-3.84816
11
6.84209
21
-3.84816
0
LINE
8
BLACK
6
CONTINUOUS
10
6.84209
20
-3.84816
11
6.84235
21
-3.84827
0
LINE
8
BLACK
6
CONTINUOUS
10
6.84235
20
-3.84827
11
6.84262
21
-3.84829
0
LINE
8
BLACK
6
CONTINUOUS
10
6.84262
20
-3.84829
11
6.84412
21
-3.84904
0
LINE
8
BLACK
6
CONTINUOUS
10
6.84412
20
-3.84904
11
6.84425
21
-3.84919
0
LINE
8
BLACK
6
CONTINUOUS
10
6.84425
20
-3.84919
11
6.84443
21
-3.84926
0
LINE
8
BLACK
6
CONTINUOUS
10
6.84443
20
-3.84926
11
6.8448
21
-3.84963
0
LINE
8
BLACK
6
CONTINUOUS
10
6.8448
20
-3.84963
11
6.8449
21
-3.84951
0
LINE
8
BLACK
6
CONTINUOUS
10
6.8449
20
-3.84951
11
6.84501
21
-3.84926
0
LINE
8
BLACK
6
CONTINUOUS
10
6.84501
20
-3.84926
11
6.84576
21
-3.84851
0
LINE
8
BLACK
6
CONTINUOUS
10
6.84576
20
-3.84851
11
6.84594
21
-3.84844
0
LINE
8
BLACK
6
CONTINUOUS
10
6.84594
20
-3.84844
11
6.84607
21
-3.84829
0
LINE
8
BLACK
6
CONTINUOUS
10
6.84607
20
-3.84829
11
6.84757
21
-3.84754
0
LINE
8
BLACK
6
CONTINUOUS
10
6.84757
20
-3.84754
11
6.84784
21
-3.84752
0
LINE
8
BLACK
6
CONTINUOUS
10
6.84784
20
-3.84752
11
6.84809
21
-3.84741
0
LINE
8
BLACK
6
CONTINUOUS
10
6.84809
20
-3.84741
11
6.85034
21
-3.84741
0
LINE
8
BLACK
6
CONTINUOUS
10
6.85034
20
-3.84741
11
6.8506
21
-3.84752
0
LINE
8
BLACK
6
CONTINUOUS
10
6.8398
20
-3.85107
11
6.83932
21
-3.85155
0
LINE
8
BLACK
6
CONTINUOUS
10
6.83932
20
-3.85155
11
6.83878
21
-3.85262
0
LINE
8
BLACK
6
CONTINUOUS
10
6.83878
20
-3.85262
11
6.83878
21
-3.85641
0
LINE
8
BLACK
6
CONTINUOUS
10
6.83878
20
-3.85641
11
6.84391
21
-3.85641
0
LINE
8
BLACK
6
CONTINUOUS
10
6.84391
20
-3.85641
11
6.84391
21
-3.85262
0
LINE
8
BLACK
6
CONTINUOUS
10
6.84391
20
-3.85262
11
6.84337
21
-3.85155
0
LINE
8
BLACK
6
CONTINUOUS
10
6.84337
20
-3.85155
11
6.8429
21
-3.85107
0
LINE
8
BLACK
6
CONTINUOUS
10
6.8429
20
-3.85107
11
6.84182
21
-3.85053
0
LINE
8
BLACK
6
CONTINUOUS
10
6.84182
20
-3.85053
11
6.84087
21
-3.85053
0
LINE
8
BLACK
6
CONTINUOUS
10
6.84087
20
-3.85053
11
6.8398
21
-3.85107
0
LINE
8
BLACK
6
CONTINUOUS
10
6.84729
20
-3.85032
11
6.84688
21
-3.85073
0
LINE
8
BLACK
6
CONTINUOUS
10
6.84688
20
-3.85073
11
6.84628
21
-3.85254
0
LINE
8
BLACK
6
CONTINUOUS
10
6.84628
20
-3.85254
11
6.84628
21
-3.85641
0
LINE
8
BLACK
6
CONTINUOUS
10
6.84628
20
-3.85641
11
6.85216
21
-3.85641
0
LINE
8
BLACK
6
CONTINUOUS
10
6.85216
20
-3.85641
11
6.85216
21
-3.85187
0
LINE
8
BLACK
6
CONTINUOUS
10
6.85216
20
-3.85187
11
6.85162
21
-3.8508
0
LINE
8
BLACK
6
CONTINUOUS
10
6.85162
20
-3.8508
11
6.85114
21
-3.85032
0
LINE
8
BLACK
6
CONTINUOUS
10
6.85114
20
-3.85032
11
6.85007
21
-3.84978
0
LINE
8
BLACK
6
CONTINUOUS
10
6.85007
20
-3.84978
11
6.84837
21
-3.84978
0
LINE
8
BLACK
6
CONTINUOUS
10
6.84837
20
-3.84978
11
6.84729
21
-3.85032
0
LINE
8
BLACK
6
CONTINUOUS
10
6.84691
20
-3.82205
11
6.84725
21
-3.82212
0
LINE
8
BLACK
6
CONTINUOUS
10
6.84725
20
-3.82212
11
6.84732
21
-3.82222
0
LINE
8
BLACK
6
CONTINUOUS
10
6.84732
20
-3.82222
11
6.84743
21
-3.82226
0
LINE
8
BLACK
6
CONTINUOUS
10
6.84743
20
-3.82226
11
6.84756
21
-3.82258
0
LINE
8
BLACK
6
CONTINUOUS
10
6.84756
20
-3.82258
11
6.84775
21
-3.82287
0
LINE
8
BLACK
6
CONTINUOUS
10
6.84775
20
-3.82287
11
6.84906
21
-3.82942
0
LINE
8
BLACK
6
CONTINUOUS
10
6.84906
20
-3.82942
11
6.85082
21
-3.82942
0
LINE
8
BLACK
6
CONTINUOUS
10
6.85082
20
-3.82942
11
6.85171
21
-3.82897
0
LINE
8
BLACK
6
CONTINUOUS
10
6.85171
20
-3.82897
11
6.85216
21
-3.82807
0
LINE
8
BLACK
6
CONTINUOUS
10
6.85216
20
-3.82807
11
6.85216
21
-3.82563
0
LINE
8
BLACK
6
CONTINUOUS
10
6.85216
20
-3.82563
11
6.85154
21
-3.82438
0
LINE
8
BLACK
6
CONTINUOUS
10
6.85154
20
-3.82438
11
6.85147
21
-3.82348
0
LINE
8
BLACK
6
CONTINUOUS
10
6.85147
20
-3.82348
11
6.85207
21
-3.82279
0
LINE
8
BLACK
6
CONTINUOUS
10
6.85207
20
-3.82279
11
6.85297
21
-3.82273
0
LINE
8
BLACK
6
CONTINUOUS
10
6.85297
20
-3.82273
11
6.85365
21
-3.82332
0
LINE
8
BLACK
6
CONTINUOUS
10
6.85365
20
-3.82332
11
6.8544
21
-3.82482
0
LINE
8
BLACK
6
CONTINUOUS
10
6.8544
20
-3.82482
11
6.85442
21
-3.82509
0
LINE
8
BLACK
6
CONTINUOUS
10
6.85442
20
-3.82509
11
6.85452
21
-3.82535
0
LINE
8
BLACK
6
CONTINUOUS
10
6.85452
20
-3.82535
11
6.85452
21
-3.82835
0
LINE
8
BLACK
6
CONTINUOUS
10
6.85452
20
-3.82835
11
6.85442
21
-3.8286
0
LINE
8
BLACK
6
CONTINUOUS
10
6.85442
20
-3.8286
11
6.8544
21
-3.82888
0
LINE
8
BLACK
6
CONTINUOUS
10
6.8544
20
-3.82888
11
6.85365
21
-3.83038
0
LINE
8
BLACK
6
CONTINUOUS
10
6.85365
20
-3.83038
11
6.85337
21
-3.83062
0
LINE
8
BLACK
6
CONTINUOUS
10
6.85337
20
-3.83062
11
6.85312
21
-3.8309
0
LINE
8
BLACK
6
CONTINUOUS
10
6.85312
20
-3.8309
11
6.85162
21
-3.83165
0
LINE
8
BLACK
6
CONTINUOUS
10
6.85162
20
-3.83165
11
6.85135
21
-3.83167
0
LINE
8
BLACK
6
CONTINUOUS
10
6.85135
20
-3.83167
11
6.85109
21
-3.83178
0
LINE
8
BLACK
6
CONTINUOUS
10
6.85109
20
-3.83178
11
6.84509
21
-3.83178
0
LINE
8
BLACK
6
CONTINUOUS
10
6.84509
20
-3.83178
11
6.84484
21
-3.83167
0
LINE
8
BLACK
6
CONTINUOUS
10
6.84484
20
-3.83167
11
6.84457
21
-3.83165
0
LINE
8
BLACK
6
CONTINUOUS
10
6.84457
20
-3.83165
11
6.84307
21
-3.8309
0
LINE
8
BLACK
6
CONTINUOUS
10
6.84307
20
-3.8309
11
6.84282
21
-3.83062
0
LINE
8
BLACK
6
CONTINUOUS
10
6.84282
20
-3.83062
11
6.84254
21
-3.83038
0
LINE
8
BLACK
6
CONTINUOUS
10
6.84254
20
-3.83038
11
6.84179
21
-3.82888
0
LINE
8
BLACK
6
CONTINUOUS
10
6.84179
20
-3.82888
11
6.84177
21
-3.8286
0
LINE
8
BLACK
6
CONTINUOUS
10
6.84177
20
-3.8286
11
6.84166
21
-3.82835
0
LINE
8
BLACK
6
CONTINUOUS
10
6.84166
20
-3.82835
11
6.84166
21
-3.82535
0
LINE
8
BLACK
6
CONTINUOUS
10
6.84166
20
-3.82535
11
6.84177
21
-3.82509
0
LINE
8
BLACK
6
CONTINUOUS
10
6.84177
20
-3.82509
11
6.84179
21
-3.82482
0
LINE
8
BLACK
6
CONTINUOUS
10
6.84179
20
-3.82482
11
6.84254
21
-3.82332
0
LINE
8
BLACK
6
CONTINUOUS
10
6.84254
20
-3.82332
11
6.84282
21
-3.82308
0
LINE
8
BLACK
6
CONTINUOUS
10
6.84282
20
-3.82308
11
6.84307
21
-3.82279
0
LINE
8
BLACK
6
CONTINUOUS
10
6.84307
20
-3.82279
11
6.84457
21
-3.82204
0
LINE
8
BLACK
6
CONTINUOUS
10
6.84457
20
-3.82204
11
6.84484
21
-3.82202
0
LINE
8
BLACK
6
CONTINUOUS
10
6.84484
20
-3.82202
11
6.84509
21
-3.82192
0
LINE
8
BLACK
6
CONTINUOUS
10
6.84509
20
-3.82192
11
6.84659
21
-3.82192
0
LINE
8
BLACK
6
CONTINUOUS
10
6.84659
20
-3.82192
11
6.84691
21
-3.82205
0
LINE
8
BLACK
6
CONTINUOUS
10
6.84448
20
-3.82473
11
6.84403
21
-3.82563
0
LINE
8
BLACK
6
CONTINUOUS
10
6.84403
20
-3.82563
11
6.84403
21
-3.82807
0
LINE
8
BLACK
6
CONTINUOUS
10
6.84403
20
-3.82807
11
6.84448
21
-3.82897
0
LINE
8
BLACK
6
CONTINUOUS
10
6.84448
20
-3.82897
11
6.84537
21
-3.82942
0
LINE
8
BLACK
6
CONTINUOUS
10
6.84537
20
-3.82942
11
6.84665
21
-3.82942
0
LINE
8
BLACK
6
CONTINUOUS
10
6.84665
20
-3.82942
11
6.84563
21
-3.82428
0
LINE
8
BLACK
6
CONTINUOUS
10
6.84563
20
-3.82428
11
6.84537
21
-3.82428
0
LINE
8
BLACK
6
CONTINUOUS
10
6.84537
20
-3.82428
11
6.84448
21
-3.82473
0
LINE
8
BLACK
6
CONTINUOUS
10
6.85418
20
-3.80877
11
6.85452
21
-3.8096
0
LINE
8
BLACK
6
CONTINUOUS
10
6.85452
20
-3.8096
11
6.85425
21
-3.81027
0
LINE
8
BLACK
6
CONTINUOUS
10
6.85425
20
-3.81027
11
6.8544
21
-3.81057
0
LINE
8
BLACK
6
CONTINUOUS
10
6.8544
20
-3.81057
11
6.85442
21
-3.81085
0
LINE
8
BLACK
6
CONTINUOUS
10
6.85442
20
-3.81085
11
6.85452
21
-3.8111
0
LINE
8
BLACK
6
CONTINUOUS
10
6.85452
20
-3.8111
11
6.85452
21
-3.8141
0
LINE
8
BLACK
6
CONTINUOUS
10
6.85452
20
-3.8141
11
6.85442
21
-3.81435
0
LINE
8
BLACK
6
CONTINUOUS
10
6.85442
20
-3.81435
11
6.8544
21
-3.81463
0
LINE
8
BLACK
6
CONTINUOUS
10
6.8544
20
-3.81463
11
6.85365
21
-3.81613
0
LINE
8
BLACK
6
CONTINUOUS
10
6.85365
20
-3.81613
11
6.8535
21
-3.81626
0
LINE
8
BLACK
6
CONTINUOUS
10
6.8535
20
-3.81626
11
6.85343
21
-3.81644
0
LINE
8
BLACK
6
CONTINUOUS
10
6.85343
20
-3.81644
11
6.85268
21
-3.81718
0
LINE
8
BLACK
6
CONTINUOUS
10
6.85268
20
-3.81718
11
6.8525
21
-3.81726
0
LINE
8
BLACK
6
CONTINUOUS
10
6.8525
20
-3.81726
11
6.85237
21
-3.81741
0
LINE
8
BLACK
6
CONTINUOUS
10
6.85237
20
-3.81741
11
6.85087
21
-3.81816
0
LINE
8
BLACK
6
CONTINUOUS
10
6.85087
20
-3.81816
11
6.8506
21
-3.81818
0
LINE
8
BLACK
6
CONTINUOUS
10
6.8506
20
-3.81818
11
6.85034
21
-3.81828
0
LINE
8
BLACK
6
CONTINUOUS
10
6.85034
20
-3.81828
11
6.84584
21
-3.81828
0
LINE
8
BLACK
6
CONTINUOUS
10
6.84584
20
-3.81828
11
6.84559
21
-3.81818
0
LINE
8
BLACK
6
CONTINUOUS
10
6.84559
20
-3.81818
11
6.84532
21
-3.81816
0
LINE
8
BLACK
6
CONTINUOUS
10
6.84532
20
-3.81816
11
6.84382
21
-3.81741
0
LINE
8
BLACK
6
CONTINUOUS
10
6.84382
20
-3.81741
11
6.84369
21
-3.81726
0
LINE
8
BLACK
6
CONTINUOUS
10
6.84369
20
-3.81726
11
6.84351
21
-3.81718
0
LINE
8
BLACK
6
CONTINUOUS
10
6.84351
20
-3.81718
11
6.84276
21
-3.81644
0
LINE
8
BLACK
6
CONTINUOUS
10
6.84276
20
-3.81644
11
6.84269
21
-3.81626
0
LINE
8
BLACK
6
CONTINUOUS
10
6.84269
20
-3.81626
11
6.84254
21
-3.81613
0
LINE
8
BLACK
6
CONTINUOUS
10
6.84254
20
-3.81613
11
6.84179
21
-3.81463
0
LINE
8
BLACK
6
CONTINUOUS
10
6.84179
20
-3.81463
11
6.84177
21
-3.81435
0
LINE
8
BLACK
6
CONTINUOUS
10
6.84177
20
-3.81435
11
6.84166
21
-3.8141
0
LINE
8
BLACK
6
CONTINUOUS
10
6.84166
20
-3.8141
11
6.84166
21
-3.8111
0
LINE
8
BLACK
6
CONTINUOUS
10
6.84166
20
-3.8111
11
6.84177
21
-3.81085
0
LINE
8
BLACK
6
CONTINUOUS
10
6.84177
20
-3.81085
11
6.84177
21
-3.81078
0
LINE
8
BLACK
6
CONTINUOUS
10
6.84177
20
-3.81078
11
6.8376
21
-3.81078
0
LINE
8
BLACK
6
CONTINUOUS
10
6.8376
20
-3.81078
11
6.83676
21
-3.81044
0
LINE
8
BLACK
6
CONTINUOUS
10
6.83676
20
-3.81044
11
6.83641
21
-3.8096
0
LINE
8
BLACK
6
CONTINUOUS
10
6.83641
20
-3.8096
11
6.83676
21
-3.80877
0
LINE
8
BLACK
6
CONTINUOUS
10
6.83676
20
-3.80877
11
6.8376
21
-3.80842
0
LINE
8
BLACK
6
CONTINUOUS
10
6.8376
20
-3.80842
11
6.85334
21
-3.80842
0
LINE
8
BLACK
6
CONTINUOUS
10
6.85334
20
-3.80842
11
6.85418
21
-3.80877
0
LINE
8
BLACK
6
CONTINUOUS
10
6.84403
20
-3.81138
11
6.84403
21
-3.81382
0
LINE
8
BLACK
6
CONTINUOUS
10
6.84403
20
-3.81382
11
6.84457
21
-3.8149
0
LINE
8
BLACK
6
CONTINUOUS
10
6.84457
20
-3.8149
11
6.84504
21
-3.81538
0
LINE
8
BLACK
6
CONTINUOUS
10
6.84504
20
-3.81538
11
6.84612
21
-3.81592
0
LINE
8
BLACK
6
CONTINUOUS
10
6.84612
20
-3.81592
11
6.85007
21
-3.81592
0
LINE
8
BLACK
6
CONTINUOUS
10
6.85007
20
-3.81592
11
6.85114
21
-3.81538
0
LINE
8
BLACK
6
CONTINUOUS
10
6.85114
20
-3.81538
11
6.85162
21
-3.8149
0
LINE
8
BLACK
6
CONTINUOUS
10
6.85162
20
-3.8149
11
6.85216
21
-3.81382
0
LINE
8
BLACK
6
CONTINUOUS
10
6.85216
20
-3.81382
11
6.85216
21
-3.81138
0
LINE
8
BLACK
6
CONTINUOUS
10
6.85216
20
-3.81138
11
6.85186
21
-3.81078
0
LINE
8
BLACK
6
CONTINUOUS
10
6.85186
20
-3.81078
11
6.84432
21
-3.81078
0
LINE
8
BLACK
6
CONTINUOUS
10
6.84432
20
-3.81078
11
6.84403
21
-3.81138
0
LINE
8
BLACK
6
CONTINUOUS
10
6.85585
20
-3.79428
11
6.85612
21
-3.7943
0
LINE
8
BLACK
6
CONTINUOUS
10
6.85612
20
-3.7943
11
6.85762
21
-3.79505
0
LINE
8
BLACK
6
CONTINUOUS
10
6.85762
20
-3.79505
11
6.85775
21
-3.79519
0
LINE
8
BLACK
6
CONTINUOUS
10
6.85775
20
-3.79519
11
6.85793
21
-3.79527
0
LINE
8
BLACK
6
CONTINUOUS
10
6.85793
20
-3.79527
11
6.85868
21
-3.79602
0
LINE
8
BLACK
6
CONTINUOUS
10
6.85868
20
-3.79602
11
6.85875
21
-3.7962
0
LINE
8
BLACK
6
CONTINUOUS
10
6.85875
20
-3.7962
11
6.8589
21
-3.79632
0
LINE
8
BLACK
6
CONTINUOUS
10
6.8589
20
-3.79632
11
6.85965
21
-3.79782
0
LINE
8
BLACK
6
CONTINUOUS
10
6.85965
20
-3.79782
11
6.85967
21
-3.7981
0
LINE
8
BLACK
6
CONTINUOUS
10
6.85967
20
-3.7981
11
6.85977
21
-3.79835
0
LINE
8
BLACK
6
CONTINUOUS
10
6.85977
20
-3.79835
11
6.85977
21
-3.8006
0
LINE
8
BLACK
6
CONTINUOUS
10
6.85977
20
-3.8006
11
6.85967
21
-3.80086
0
LINE
8
BLACK
6
CONTINUOUS
10
6.85967
20
-3.80086
11
6.85965
21
-3.80113
0
LINE
8
BLACK
6
CONTINUOUS
10
6.85965
20
-3.80113
11
6.8589
21
-3.80263
0
LINE
8
BLACK
6
CONTINUOUS
10
6.8589
20
-3.80263
11
6.85822
21
-3.80322
0
LINE
8
BLACK
6
CONTINUOUS
10
6.85822
20
-3.80322
11
6.85731
21
-3.80316
0
LINE
8
BLACK
6
CONTINUOUS
10
6.85731
20
-3.80316
11
6.85672
21
-3.80248
0
LINE
8
BLACK
6
CONTINUOUS
10
6.85672
20
-3.80248
11
6.85679
21
-3.80157
0
LINE
8
BLACK
6
CONTINUOUS
10
6.85679
20
-3.80157
11
6.85741
21
-3.80032
0
LINE
8
BLACK
6
CONTINUOUS
10
6.85741
20
-3.80032
11
6.85741
21
-3.79863
0
LINE
8
BLACK
6
CONTINUOUS
10
6.85741
20
-3.79863
11
6.85687
21
-3.79755
0
LINE
8
BLACK
6
CONTINUOUS
10
6.85687
20
-3.79755
11
6.85639
21
-3.79707
0
LINE
8
BLACK
6
CONTINUOUS
10
6.85639
20
-3.79707
11
6.85531
21
-3.79653
0
LINE
8
BLACK
6
CONTINUOUS
10
6.85531
20
-3.79653
11
6.85441
21
-3.79653
0
LINE
8
BLACK
6
CONTINUOUS
10
6.85441
20
-3.79653
11
6.85442
21
-3.7966
0
LINE
8
BLACK
6
CONTINUOUS
10
6.85442
20
-3.7966
11
6.85452
21
-3.79685
0
LINE
8
BLACK
6
CONTINUOUS
10
6.85452
20
-3.79685
11
6.85452
21
-3.79985
0
LINE
8
BLACK
6
CONTINUOUS
10
6.85452
20
-3.79985
11
6.85442
21
-3.80011
0
LINE
8
BLACK
6
CONTINUOUS
10
6.85442
20
-3.80011
11
6.8544
21
-3.80038
0
LINE
8
BLACK
6
CONTINUOUS
10
6.8544
20
-3.80038
11
6.85365
21
-3.80188
0
LINE
8
BLACK
6
CONTINUOUS
10
6.85365
20
-3.80188
11
6.8535
21
-3.80201
0
LINE
8
BLACK
6
CONTINUOUS
10
6.8535
20
-3.80201
11
6.85343
21
-3.80219
0
LINE
8
BLACK
6
CONTINUOUS
10
6.85343
20
-3.80219
11
6.85268
21
-3.80294
0
LINE
8
BLACK
6
CONTINUOUS
10
6.85268
20
-3.80294
11
6.8525
21
-3.80301
0
LINE
8
BLACK
6
CONTINUOUS
10
6.8525
20
-3.80301
11
6.85237
21
-3.80316
0
LINE
8
BLACK
6
CONTINUOUS
10
6.85237
20
-3.80316
11
6.85087
21
-3.80391
0
LINE
8
BLACK
6
CONTINUOUS
10
6.85087
20
-3.80391
11
6.8506
21
-3.80393
0
LINE
8
BLACK
6
CONTINUOUS
10
6.8506
20
-3.80393
11
6.85034
21
-3.80403
0
LINE
8
BLACK
6
CONTINUOUS
10
6.85034
20
-3.80403
11
6.84584
21
-3.80403
0
LINE
8
BLACK
6
CONTINUOUS
10
6.84584
20
-3.80403
11
6.84559
21
-3.80393
0
LINE
8
BLACK
6
CONTINUOUS
10
6.84559
20
-3.80393
11
6.84532
21
-3.80391
0
LINE
8
BLACK
6
CONTINUOUS
10
6.84532
20
-3.80391
11
6.84382
21
-3.80316
0
LINE
8
BLACK
6
CONTINUOUS
10
6.84382
20
-3.80316
11
6.84369
21
-3.80301
0
LINE
8
BLACK
6
CONTINUOUS
10
6.84369
20
-3.80301
11
6.84351
21
-3.80294
0
LINE
8
BLACK
6
CONTINUOUS
10
6.84351
20
-3.80294
11
6.84276
21
-3.80219
0
LINE
8
BLACK
6
CONTINUOUS
10
6.84276
20
-3.80219
11
6.84269
21
-3.80201
0
LINE
8
BLACK
6
CONTINUOUS
10
6.84269
20
-3.80201
11
6.84254
21
-3.80188
0
LINE
8
BLACK
6
CONTINUOUS
10
6.84254
20
-3.80188
11
6.84179
21
-3.80038
0
LINE
8
BLACK
6
CONTINUOUS
10
6.84179
20
-3.80038
11
6.84177
21
-3.80011
0
LINE
8
BLACK
6
CONTINUOUS
10
6.84177
20
-3.80011
11
6.84166
21
-3.79985
0
LINE
8
BLACK
6
CONTINUOUS
10
6.84166
20
-3.79985
11
6.84166
21
-3.79685
0
LINE
8
BLACK
6
CONTINUOUS
10
6.84166
20
-3.79685
11
6.84177
21
-3.7966
0
LINE
8
BLACK
6
CONTINUOUS
10
6.84177
20
-3.7966
11
6.84179
21
-3.79632
0
LINE
8
BLACK
6
CONTINUOUS
10
6.84179
20
-3.79632
11
6.84194
21
-3.79602
0
LINE
8
BLACK
6
CONTINUOUS
10
6.84194
20
-3.79602
11
6.84166
21
-3.79535
0
LINE
8
BLACK
6
CONTINUOUS
10
6.84166
20
-3.79535
11
6.84201
21
-3.79452
0
LINE
8
BLACK
6
CONTINUOUS
10
6.84201
20
-3.79452
11
6.84284
21
-3.79417
0
LINE
8
BLACK
6
CONTINUOUS
10
6.84284
20
-3.79417
11
6.85559
21
-3.79417
0
LINE
8
BLACK
6
CONTINUOUS
10
6.85559
20
-3.79417
11
6.85585
21
-3.79428
0
LINE
8
BLACK
6
CONTINUOUS
10
6.84403
20
-3.79713
11
6.84403
21
-3.79957
0
LINE
8
BLACK
6
CONTINUOUS
10
6.84403
20
-3.79957
11
6.84457
21
-3.80065
0
LINE
8
BLACK
6
CONTINUOUS
10
6.84457
20
-3.80065
11
6.84504
21
-3.80113
0
LINE
8
BLACK
6
CONTINUOUS
10
6.84504
20
-3.80113
11
6.84612
21
-3.80167
0
LINE
8
BLACK
6
CONTINUOUS
10
6.84612
20
-3.80167
11
6.85007
21
-3.80167
0
LINE
8
BLACK
6
CONTINUOUS
10
6.85007
20
-3.80167
11
6.85114
21
-3.80113
0
LINE
8
BLACK
6
CONTINUOUS
10
6.85114
20
-3.80113
11
6.85162
21
-3.80065
0
LINE
8
BLACK
6
CONTINUOUS
10
6.85162
20
-3.80065
11
6.85216
21
-3.79957
0
LINE
8
BLACK
6
CONTINUOUS
10
6.85216
20
-3.79957
11
6.85216
21
-3.79713
0
LINE
8
BLACK
6
CONTINUOUS
10
6.85216
20
-3.79713
11
6.85186
21
-3.79653
0
LINE
8
BLACK
6
CONTINUOUS
10
6.85186
20
-3.79653
11
6.84432
21
-3.79653
0
LINE
8
BLACK
6
CONTINUOUS
10
6.84432
20
-3.79653
11
6.84403
21
-3.79713
0
LINE
8
BLACK
6
CONTINUOUS
10
6.84691
20
-3.78005
11
6.84725
21
-3.78012
0
LINE
8
BLACK
6
CONTINUOUS
10
6.84725
20
-3.78012
11
6.84732
21
-3.78022
0
LINE
8
BLACK
6
CONTINUOUS
10
6.84732
20
-3.78022
11
6.84743
21
-3.78027
0
LINE
8
BLACK
6
CONTINUOUS
10
6.84743
20
-3.78027
11
6.84756
21
-3.78059
0
LINE
8
BLACK
6
CONTINUOUS
10
6.84756
20
-3.78059
11
6.84775
21
-3.78087
0
LINE
8
BLACK
6
CONTINUOUS
10
6.84775
20
-3.78087
11
6.84906
21
-3.78742
0
LINE
8
BLACK
6
CONTINUOUS
10
6.84906
20
-3.78742
11
6.85082
21
-3.78742
0
LINE
8
BLACK
6
CONTINUOUS
10
6.85082
20
-3.78742
11
6.85171
21
-3.78697
0
LINE
8
BLACK
6
CONTINUOUS
10
6.85171
20
-3.78697
11
6.85216
21
-3.78607
0
LINE
8
BLACK
6
CONTINUOUS
10
6.85216
20
-3.78607
11
6.85216
21
-3.78363
0
LINE
8
BLACK
6
CONTINUOUS
10
6.85216
20
-3.78363
11
6.85154
21
-3.78238
0
LINE
8
BLACK
6
CONTINUOUS
10
6.85154
20
-3.78238
11
6.85147
21
-3.78148
0
LINE
8
BLACK
6
CONTINUOUS
10
6.85147
20
-3.78148
11
6.85207
21
-3.7808
0
LINE
8
BLACK
6
CONTINUOUS
10
6.85207
20
-3.7808
11
6.85297
21
-3.78073
0
LINE
8
BLACK
6
CONTINUOUS
10
6.85297
20
-3.78073
11
6.85365
21
-3.78133
0
LINE
8
BLACK
6
CONTINUOUS
10
6.85365
20
-3.78133
11
6.8544
21
-3.78283
0
LINE
8
BLACK
6
CONTINUOUS
10
6.8544
20
-3.78283
11
6.85442
21
-3.7831
0
LINE
8
BLACK
6
CONTINUOUS
10
6.85442
20
-3.7831
11
6.85452
21
-3.78335
0
LINE
8
BLACK
6
CONTINUOUS
10
6.85452
20
-3.78335
11
6.85452
21
-3.78635
0
LINE
8
BLACK
6
CONTINUOUS
10
6.85452
20
-3.78635
11
6.85442
21
-3.78661
0
LINE
8
BLACK
6
CONTINUOUS
10
6.85442
20
-3.78661
11
6.8544
21
-3.78688
0
LINE
8
BLACK
6
CONTINUOUS
10
6.8544
20
-3.78688
11
6.85365
21
-3.78838
0
LINE
8
BLACK
6
CONTINUOUS
10
6.85365
20
-3.78838
11
6.85337
21
-3.78863
0
LINE
8
BLACK
6
CONTINUOUS
10
6.85337
20
-3.78863
11
6.85312
21
-3.78891
0
LINE
8
BLACK
6
CONTINUOUS
10
6.85312
20
-3.78891
11
6.85162
21
-3.78966
0
LINE
8
BLACK
6
CONTINUOUS
10
6.85162
20
-3.78966
11
6.85135
21
-3.78968
0
LINE
8
BLACK
6
CONTINUOUS
10
6.85135
20
-3.78968
11
6.85109
21
-3.78978
0
LINE
8
BLACK
6
CONTINUOUS
10
6.85109
20
-3.78978
11
6.84509
21
-3.78978
0
LINE
8
BLACK
6
CONTINUOUS
10
6.84509
20
-3.78978
11
6.84484
21
-3.78968
0
LINE
8
BLACK
6
CONTINUOUS
10
6.84484
20
-3.78968
11
6.84457
21
-3.78966
0
LINE
8
BLACK
6
CONTINUOUS
10
6.84457
20
-3.78966
11
6.84307
21
-3.78891
0
LINE
8
BLACK
6
CONTINUOUS
10
6.84307
20
-3.78891
11
6.84282
21
-3.78863
0
LINE
8
BLACK
6
CONTINUOUS
10
6.84282
20
-3.78863
11
6.84254
21
-3.78838
0
LINE
8
BLACK
6
CONTINUOUS
10
6.84254
20
-3.78838
11
6.84179
21
-3.78688
0
LINE
8
BLACK
6
CONTINUOUS
10
6.84179
20
-3.78688
11
6.84177
21
-3.78661
0
LINE
8
BLACK
6
CONTINUOUS
10
6.84177
20
-3.78661
11
6.84166
21
-3.78635
0
LINE
8
BLACK
6
CONTINUOUS
10
6.84166
20
-3.78635
11
6.84166
21
-3.78335
0
LINE
8
BLACK
6
CONTINUOUS
10
6.84166
20
-3.78335
11
6.84177
21
-3.7831
0
LINE
8
BLACK
6
CONTINUOUS
10
6.84177
20
-3.7831
11
6.84179
21
-3.78283
0
LINE
8
BLACK
6
CONTINUOUS
10
6.84179
20
-3.78283
11
6.84254
21
-3.78133
0
LINE
8
BLACK
6
CONTINUOUS
10
6.84254
20
-3.78133
11
6.84282
21
-3.78108
0
LINE
8
BLACK
6
CONTINUOUS
10
6.84282
20
-3.78108
11
6.84307
21
-3.7808
0
LINE
8
BLACK
6
CONTINUOUS
10
6.84307
20
-3.7808
11
6.84457
21
-3.78005
0
LINE
8
BLACK
6
CONTINUOUS
10
6.84457
20
-3.78005
11
6.84484
21
-3.78003
0
LINE
8
BLACK
6
CONTINUOUS
10
6.84484
20
-3.78003
11
6.84509
21
-3.77992
0
LINE
8
BLACK
6
CONTINUOUS
10
6.84509
20
-3.77992
11
6.84659
21
-3.77992
0
LINE
8
BLACK
6
CONTINUOUS
10
6.84659
20
-3.77992
11
6.84691
21
-3.78005
0
LINE
8
BLACK
6
CONTINUOUS
10
6.84448
20
-3.78273
11
6.84403
21
-3.78363
0
LINE
8
BLACK
6
CONTINUOUS
10
6.84403
20
-3.78363
11
6.84403
21
-3.78607
0
LINE
8
BLACK
6
CONTINUOUS
10
6.84403
20
-3.78607
11
6.84448
21
-3.78697
0
LINE
8
BLACK
6
CONTINUOUS
10
6.84448
20
-3.78697
11
6.84537
21
-3.78742
0
LINE
8
BLACK
6
CONTINUOUS
10
6.84537
20
-3.78742
11
6.84665
21
-3.78742
0
LINE
8
BLACK
6
CONTINUOUS
10
6.84665
20
-3.78742
11
6.84563
21
-3.78229
0
LINE
8
BLACK
6
CONTINUOUS
10
6.84563
20
-3.78229
11
6.84537
21
-3.78229
0
LINE
8
BLACK
6
CONTINUOUS
10
6.84537
20
-3.78229
11
6.84448
21
-3.78273
0
LINE
8
BLACK
6
CONTINUOUS
10
7.06444
20
-3.64053
11
7.06458
21
-3.64065
0
LINE
8
BLACK
6
CONTINUOUS
10
7.06458
20
-3.64065
11
7.06475
21
-3.64067
0
LINE
8
BLACK
6
CONTINUOUS
10
7.06475
20
-3.64067
11
7.0685
21
-3.64254
0
LINE
8
BLACK
6
CONTINUOUS
10
7.0685
20
-3.64254
11
7.06921
21
-3.64307
0
LINE
8
BLACK
6
CONTINUOUS
10
7.06921
20
-3.64307
11
7.06927
21
-3.6431
0
LINE
8
BLACK
6
CONTINUOUS
10
7.06927
20
-3.6431
11
7.07114
21
-3.64497
0
LINE
8
BLACK
6
CONTINUOUS
10
7.07114
20
-3.64497
11
7.07165
21
-3.64569
0
LINE
8
BLACK
6
CONTINUOUS
10
7.07165
20
-3.64569
11
7.0717
21
-3.64574
0
LINE
8
BLACK
6
CONTINUOUS
10
7.0717
20
-3.64574
11
7.07357
21
-3.64949
0
LINE
8
BLACK
6
CONTINUOUS
10
7.07357
20
-3.64949
11
7.07386
21
-3.65047
0
LINE
8
BLACK
6
CONTINUOUS
10
7.07386
20
-3.65047
11
7.07382
21
-3.65064
0
LINE
8
BLACK
6
CONTINUOUS
10
7.07382
20
-3.65064
11
7.07388
21
-3.65081
0
LINE
8
BLACK
6
CONTINUOUS
10
7.07388
20
-3.65081
11
7.07388
21
-3.66206
0
LINE
8
BLACK
6
CONTINUOUS
10
7.07388
20
-3.66206
11
7.0737
21
-3.66307
0
LINE
8
BLACK
6
CONTINUOUS
10
7.0737
20
-3.66307
11
7.07359
21
-3.6632
0
LINE
8
BLACK
6
CONTINUOUS
10
7.07359
20
-3.6632
11
7.07357
21
-3.66338
0
LINE
8
BLACK
6
CONTINUOUS
10
7.07357
20
-3.66338
11
7.0717
21
-3.66713
0
LINE
8
BLACK
6
CONTINUOUS
10
7.0717
20
-3.66713
11
7.07117
21
-3.66784
0
LINE
8
BLACK
6
CONTINUOUS
10
7.07117
20
-3.66784
11
7.07114
21
-3.66789
0
LINE
8
BLACK
6
CONTINUOUS
10
7.07114
20
-3.66789
11
7.06927
21
-3.66977
0
LINE
8
BLACK
6
CONTINUOUS
10
7.06927
20
-3.66977
11
7.06843
21
-3.67036
0
LINE
8
BLACK
6
CONTINUOUS
10
7.06843
20
-3.67036
11
7.06642
21
-3.67053
0
LINE
8
BLACK
6
CONTINUOUS
10
7.06642
20
-3.67053
11
7.06476
21
-3.66937
0
LINE
8
BLACK
6
CONTINUOUS
10
7.06476
20
-3.66937
11
7.06424
21
-3.66742
0
LINE
8
BLACK
6
CONTINUOUS
10
7.06424
20
-3.66742
11
7.06509
21
-3.66559
0
LINE
8
BLACK
6
CONTINUOUS
10
7.06509
20
-3.66559
11
7.06663
21
-3.66406
0
LINE
8
BLACK
6
CONTINUOUS
10
7.06663
20
-3.66406
11
7.06798
21
-3.66136
0
LINE
8
BLACK
6
CONTINUOUS
10
7.06798
20
-3.66136
11
7.06798
21
-3.65151
0
LINE
8
BLACK
6
CONTINUOUS
10
7.06798
20
-3.65151
11
7.06663
21
-3.64881
0
LINE
8
BLACK
6
CONTINUOUS
10
7.06663
20
-3.64881
11
7.06543
21
-3.64761
0
LINE
8
BLACK
6
CONTINUOUS
10
7.06543
20
-3.64761
11
7.06273
21
-3.64626
0
LINE
8
BLACK
6
CONTINUOUS
10
7.06273
20
-3.64626
11
7.05475
21
-3.64626
0
LINE
8
BLACK
6
CONTINUOUS
10
7.05475
20
-3.64626
11
7.05206
21
-3.64761
0
LINE
8
BLACK
6
CONTINUOUS
10
7.05206
20
-3.64761
11
7.05086
21
-3.64881
0
LINE
8
BLACK
6
CONTINUOUS
10
7.05086
20
-3.64881
11
7.04951
21
-3.65151
0
LINE
8
BLACK
6
CONTINUOUS
10
7.04951
20
-3.65151
11
7.04951
21
-3.65643
0
LINE
8
BLACK
6
CONTINUOUS
10
7.04951
20
-3.65643
11
7.04943
21
-3.65687
0
LINE
8
BLACK
6
CONTINUOUS
10
7.04943
20
-3.65687
11
7.04945
21
-3.65701
0
LINE
8
BLACK
6
CONTINUOUS
10
7.04945
20
-3.65701
11
7.04939
21
-3.65711
0
LINE
8
BLACK
6
CONTINUOUS
10
7.04939
20
-3.65711
11
7.04933
21
-3.65744
0
LINE
8
BLACK
6
CONTINUOUS
10
7.04933
20
-3.65744
11
7.04882
21
-3.65805
0
LINE
8
BLACK
6
CONTINUOUS
10
7.04882
20
-3.65805
11
7.04841
21
-3.65873
0
LINE
8
BLACK
6
CONTINUOUS
10
7.04841
20
-3.65873
11
7.04819
21
-3.65881
0
LINE
8
BLACK
6
CONTINUOUS
10
7.04819
20
-3.65881
11
7.04803
21
-3.65899
0
LINE
8
BLACK
6
CONTINUOUS
10
7.04803
20
-3.65899
11
7.04725
21
-3.65913
0
LINE
8
BLACK
6
CONTINUOUS
10
7.04725
20
-3.65913
11
7.0465
21
-3.65938
0
LINE
8
BLACK
6
CONTINUOUS
10
7.0465
20
-3.65938
11
7.04628
21
-3.6593
0
LINE
8
BLACK
6
CONTINUOUS
10
7.04628
20
-3.6593
11
7.04605
21
-3.65934
0
LINE
8
BLACK
6
CONTINUOUS
10
7.04605
20
-3.65934
11
7.04536
21
-3.65894
0
LINE
8
BLACK
6
CONTINUOUS
10
7.04536
20
-3.65894
11
7.04461
21
-3.65865
0
LINE
8
BLACK
6
CONTINUOUS
10
7.04461
20
-3.65865
11
7.03451
21
-3.64982
0
LINE
8
BLACK
6
CONTINUOUS
10
7.03451
20
-3.64982
11
7.03451
21
-3.66768
0
LINE
8
BLACK
6
CONTINUOUS
10
7.03451
20
-3.66768
11
7.03433
21
-3.66869
0
LINE
8
BLACK
6
CONTINUOUS
10
7.03433
20
-3.66869
11
7.03304
21
-3.67024
0
LINE
8
BLACK
6
CONTINUOUS
10
7.03304
20
-3.67024
11
7.03105
21
-3.67059
0
LINE
8
BLACK
6
CONTINUOUS
10
7.03105
20
-3.67059
11
7.0293
21
-3.66958
0
LINE
8
BLACK
6
CONTINUOUS
10
7.0293
20
-3.66958
11
7.02861
21
-3.66768
0
LINE
8
BLACK
6
CONTINUOUS
10
7.02861
20
-3.66768
11
7.02861
21
-3.64331
0
LINE
8
BLACK
6
CONTINUOUS
10
7.02861
20
-3.64331
11
7.02868
21
-3.64287
0
LINE
8
BLACK
6
CONTINUOUS
10
7.02868
20
-3.64287
11
7.02866
21
-3.64274
0
LINE
8
BLACK
6
CONTINUOUS
10
7.02866
20
-3.64274
11
7.02873
21
-3.64263
0
LINE
8
BLACK
6
CONTINUOUS
10
7.02873
20
-3.64263
11
7.02879
21
-3.6423
0
LINE
8
BLACK
6
CONTINUOUS
10
7.02879
20
-3.6423
11
7.0293
21
-3.64169
0
LINE
8
BLACK
6
CONTINUOUS
10
7.0293
20
-3.64169
11
7.02971
21
-3.64101
0
LINE
8
BLACK
6
CONTINUOUS
10
7.02971
20
-3.64101
11
7.02993
21
-3.64093
0
LINE
8
BLACK
6
CONTINUOUS
10
7.02993
20
-3.64093
11
7.03008
21
-3.64075
0
LINE
8
BLACK
6
CONTINUOUS
10
7.03008
20
-3.64075
11
7.03087
21
-3.64061
0
LINE
8
BLACK
6
CONTINUOUS
10
7.03087
20
-3.64061
11
7.03162
21
-3.64036
0
LINE
8
BLACK
6
CONTINUOUS
10
7.03162
20
-3.64036
11
7.03184
21
-3.64044
0
LINE
8
BLACK
6
CONTINUOUS
10
7.03184
20
-3.64044
11
7.03207
21
-3.6404
0
LINE
8
BLACK
6
CONTINUOUS
10
7.03207
20
-3.6404
11
7.03276
21
-3.6408
0
LINE
8
BLACK
6
CONTINUOUS
10
7.03276
20
-3.6408
11
7.0335
21
-3.64109
0
LINE
8
BLACK
6
CONTINUOUS
10
7.0335
20
-3.64109
11
7.04374
21
-3.65004
0
LINE
8
BLACK
6
CONTINUOUS
10
7.04374
20
-3.65004
11
7.04378
21
-3.6498
0
LINE
8
BLACK
6
CONTINUOUS
10
7.04378
20
-3.6498
11
7.0439
21
-3.64966
0
LINE
8
BLACK
6
CONTINUOUS
10
7.0439
20
-3.64966
11
7.04392
21
-3.64949
0
LINE
8
BLACK
6
CONTINUOUS
10
7.04392
20
-3.64949
11
7.04579
21
-3.64574
0
LINE
8
BLACK
6
CONTINUOUS
10
7.04579
20
-3.64574
11
7.04632
21
-3.64503
0
LINE
8
BLACK
6
CONTINUOUS
10
7.04632
20
-3.64503
11
7.04634
21
-3.64497
0
LINE
8
BLACK
6
CONTINUOUS
10
7.04634
20
-3.64497
11
7.04822
21
-3.6431
0
LINE
8
BLACK
6
CONTINUOUS
10
7.04822
20
-3.6431
11
7.04894
21
-3.64259
0
LINE
8
BLACK
6
CONTINUOUS
10
7.04894
20
-3.64259
11
7.04899
21
-3.64254
0
LINE
8
BLACK
6
CONTINUOUS
10
7.04899
20
-3.64254
11
7.05274
21
-3.64067
0
LINE
8
BLACK
6
CONTINUOUS
10
7.05274
20
-3.64067
11
7.05372
21
-3.64038
0
LINE
8
BLACK
6
CONTINUOUS
10
7.05372
20
-3.64038
11
7.05389
21
-3.64042
0
LINE
8
BLACK
6
CONTINUOUS
10
7.05389
20
-3.64042
11
7.05406
21
-3.64036
0
LINE
8
BLACK
6
CONTINUOUS
10
7.05406
20
-3.64036
11
7.06343
21
-3.64036
0
LINE
8
BLACK
6
CONTINUOUS
10
7.06343
20
-3.64036
11
7.06444
21
-3.64053
0
LINE
8
BLACK
6
CONTINUOUS
10
7.05651
20
-3.60296
11
7.05665
21
-3.60295
0
LINE
8
BLACK
6
CONTINUOUS
10
7.05665
20
-3.60295
11
7.06415
21
-3.60482
0
LINE
8
BLACK
6
CONTINUOUS
10
7.06415
20
-3.60482
11
7.06461
21
-3.60503
0
LINE
8
BLACK
6
CONTINUOUS
10
7.06461
20
-3.60503
11
7.06475
21
-3.60505
0
LINE
8
BLACK
6
CONTINUOUS
10
7.06475
20
-3.60505
11
7.0685
21
-3.60692
0
LINE
8
BLACK
6
CONTINUOUS
10
7.0685
20
-3.60692
11
7.06921
21
-3.60745
0
LINE
8
BLACK
6
CONTINUOUS
10
7.06921
20
-3.60745
11
7.06927
21
-3.60748
0
LINE
8
BLACK
6
CONTINUOUS
10
7.06927
20
-3.60748
11
7.07114
21
-3.60935
0
LINE
8
BLACK
6
CONTINUOUS
10
7.07114
20
-3.60935
11
7.07165
21
-3.61007
0
LINE
8
BLACK
6
CONTINUOUS
10
7.07165
20
-3.61007
11
7.0717
21
-3.61012
0
LINE
8
BLACK
6
CONTINUOUS
10
7.0717
20
-3.61012
11
7.07357
21
-3.61387
0
LINE
8
BLACK
6
CONTINUOUS
10
7.07357
20
-3.61387
11
7.07386
21
-3.61485
0
LINE
8
BLACK
6
CONTINUOUS
10
7.07386
20
-3.61485
11
7.07382
21
-3.61502
0
LINE
8
BLACK
6
CONTINUOUS
10
7.07382
20
-3.61502
11
7.07388
21
-3.61519
0
LINE
8
BLACK
6
CONTINUOUS
10
7.07388
20
-3.61519
11
7.07388
21
-3.61894
0
LINE
8
BLACK
6
CONTINUOUS
10
7.07388
20
-3.61894
11
7.0737
21
-3.61995
0
LINE
8
BLACK
6
CONTINUOUS
10
7.0737
20
-3.61995
11
7.07359
21
-3.62008
0
LINE
8
BLACK
6
CONTINUOUS
10
7.07359
20
-3.62008
11
7.07357
21
-3.62026
0
LINE
8
BLACK
6
CONTINUOUS
10
7.07357
20
-3.62026
11
7.0717
21
-3.62401
0
LINE
8
BLACK
6
CONTINUOUS
10
7.0717
20
-3.62401
11
7.07117
21
-3.62472
0
LINE
8
BLACK
6
CONTINUOUS
10
7.07117
20
-3.62472
11
7.07114
21
-3.62477
0
LINE
8
BLACK
6
CONTINUOUS
10
7.07114
20
-3.62477
11
7.06927
21
-3.62665
0
LINE
8
BLACK
6
CONTINUOUS
10
7.06927
20
-3.62665
11
7.06855
21
-3.62716
0
LINE
8
BLACK
6
CONTINUOUS
10
7.06855
20
-3.62716
11
7.0685
21
-3.6272
0
LINE
8
BLACK
6
CONTINUOUS
10
7.0685
20
-3.6272
11
7.06475
21
-3.62908
0
LINE
8
BLACK
6
CONTINUOUS
10
7.06475
20
-3.62908
11
7.06426
21
-3.62922
0
LINE
8
BLACK
6
CONTINUOUS
10
7.06426
20
-3.62922
11
7.06415
21
-3.6293
0
LINE
8
BLACK
6
CONTINUOUS
10
7.06415
20
-3.6293
11
7.05665
21
-3.63118
0
LINE
8
BLACK
6
CONTINUOUS
10
7.05665
20
-3.63118
11
7.05606
21
-3.63122
0
LINE
8
BLACK
6
CONTINUOUS
10
7.05606
20
-3.63122
11
7.05593
21
-3.63126
0
LINE
8
BLACK
6
CONTINUOUS
10
7.05593
20
-3.63126
11
7.04656
21
-3.63126
0
LINE
8
BLACK
6
CONTINUOUS
10
7.04656
20
-3.63126
11
7.04598
21
-3.63116
0
LINE
8
BLACK
6
CONTINUOUS
10
7.04598
20
-3.63116
11
7.04584
21
-3.63118
0
LINE
8
BLACK
6
CONTINUOUS
10
7.04584
20
-3.63118
11
7.03834
21
-3.6293
0
LINE
8
BLACK
6
CONTINUOUS
10
7.03834
20
-3.6293
11
7.03788
21
-3.62909
0
LINE
8
BLACK
6
CONTINUOUS
10
7.03788
20
-3.62909
11
7.03774
21
-3.62908
0
LINE
8
BLACK
6
CONTINUOUS
10
7.03774
20
-3.62908
11
7.03399
21
-3.6272
0
LINE
8
BLACK
6
CONTINUOUS
10
7.03399
20
-3.6272
11
7.03328
21
-3.62668
0
LINE
8
BLACK
6
CONTINUOUS
10
7.03328
20
-3.62668
11
7.03322
21
-3.62665
0
LINE
8
BLACK
6
CONTINUOUS
10
7.03322
20
-3.62665
11
7.03135
21
-3.62477
0
LINE
8
BLACK
6
CONTINUOUS
10
7.03135
20
-3.62477
11
7.03084
21
-3.62405
0
LINE
8
BLACK
6
CONTINUOUS
10
7.03084
20
-3.62405
11
7.03079
21
-3.62401
0
LINE
8
BLACK
6
CONTINUOUS
10
7.03079
20
-3.62401
11
7.02892
21
-3.62026
0
LINE
8
BLACK
6
CONTINUOUS
10
7.02892
20
-3.62026
11
7.02863
21
-3.61927
0
LINE
8
BLACK
6
CONTINUOUS
10
7.02863
20
-3.61927
11
7.02867
21
-3.6191
0
LINE
8
BLACK
6
CONTINUOUS
10
7.02867
20
-3.6191
11
7.02861
21
-3.61894
0
LINE
8
BLACK
6
CONTINUOUS
10
7.02861
20
-3.61894
11
7.02861
21
-3.61519
0
LINE
8
BLACK
6
CONTINUOUS
10
7.02861
20
-3.61519
11
7.02879
21
-3.61418
0
LINE
8
BLACK
6
CONTINUOUS
10
7.02879
20
-3.61418
11
7.0289
21
-3.61404
0
LINE
8
BLACK
6
CONTINUOUS
10
7.0289
20
-3.61404
11
7.02892
21
-3.61387
0
LINE
8
BLACK
6
CONTINUOUS
10
7.02892
20
-3.61387
11
7.03079
21
-3.61012
0
LINE
8
BLACK
6
CONTINUOUS
10
7.03079
20
-3.61012
11
7.03132
21
-3.60941
0
LINE
8
BLACK
6
CONTINUOUS
10
7.03132
20
-3.60941
11
7.03135
21
-3.60935
0
LINE
8
BLACK
6
CONTINUOUS
10
7.03135
20
-3.60935
11
7.03322
21
-3.60748
0
LINE
8
BLACK
6
CONTINUOUS
10
7.03322
20
-3.60748
11
7.03394
21
-3.60697
0
LINE
8
BLACK
6
CONTINUOUS
10
7.03394
20
-3.60697
11
7.03399
21
-3.60692
0
LINE
8
BLACK
6
CONTINUOUS
10
7.03399
20
-3.60692
11
7.03774
21
-3.60505
0
LINE
8
BLACK
6
CONTINUOUS
10
7.03774
20
-3.60505
11
7.03823
21
-3.6049
0
LINE
8
BLACK
6
CONTINUOUS
10
7.03823
20
-3.6049
11
7.03834
21
-3.60482
0
LINE
8
BLACK
6
CONTINUOUS
10
7.03834
20
-3.60482
11
7.04584
21
-3.60295
0
LINE
8
BLACK
6
CONTINUOUS
10
7.04584
20
-3.60295
11
7.04643
21
-3.60291
0
LINE
8
BLACK
6
CONTINUOUS
10
7.04643
20
-3.60291
11
7.04656
21
-3.60286
0
LINE
8
BLACK
6
CONTINUOUS
10
7.04656
20
-3.60286
11
7.05593
21
-3.60286
0
LINE
8
BLACK
6
CONTINUOUS
10
7.05593
20
-3.60286
11
7.05651
21
-3.60296
0
LINE
8
BLACK
6
CONTINUOUS
10
7.04009
20
-3.61047
11
7.03706
21
-3.61199
0
LINE
8
BLACK
6
CONTINUOUS
10
7.03706
20
-3.61199
11
7.03586
21
-3.61319
0
LINE
8
BLACK
6
CONTINUOUS
10
7.03586
20
-3.61319
11
7.03451
21
-3.61588
0
LINE
8
BLACK
6
CONTINUOUS
10
7.03451
20
-3.61588
11
7.03451
21
-3.61824
0
LINE
8
BLACK
6
CONTINUOUS
10
7.03451
20
-3.61824
11
7.03586
21
-3.62094
0
LINE
8
BLACK
6
CONTINUOUS
10
7.03586
20
-3.62094
11
7.03706
21
-3.62213
0
LINE
8
BLACK
6
CONTINUOUS
10
7.03706
20
-3.62213
11
7.04009
21
-3.62365
0
LINE
8
BLACK
6
CONTINUOUS
10
7.04009
20
-3.62365
11
7.04692
21
-3.62536
0
LINE
8
BLACK
6
CONTINUOUS
10
7.04692
20
-3.62536
11
7.05557
21
-3.62536
0
LINE
8
BLACK
6
CONTINUOUS
10
7.05557
20
-3.62536
11
7.0624
21
-3.62365
0
LINE
8
BLACK
6
CONTINUOUS
10
7.0624
20
-3.62365
11
7.06543
21
-3.62213
0
LINE
8
BLACK
6
CONTINUOUS
10
7.06543
20
-3.62213
11
7.06663
21
-3.62094
0
LINE
8
BLACK
6
CONTINUOUS
10
7.06663
20
-3.62094
11
7.06798
21
-3.61824
0
LINE
8
BLACK
6
CONTINUOUS
10
7.06798
20
-3.61824
11
7.06798
21
-3.61588
0
LINE
8
BLACK
6
CONTINUOUS
10
7.06798
20
-3.61588
11
7.06663
21
-3.61319
0
LINE
8
BLACK
6
CONTINUOUS
10
7.06663
20
-3.61319
11
7.06543
21
-3.61199
0
LINE
8
BLACK
6
CONTINUOUS
10
7.06543
20
-3.61199
11
7.0624
21
-3.61047
0
LINE
8
BLACK
6
CONTINUOUS
10
7.0624
20
-3.61047
11
7.05557
21
-3.60877
0
LINE
8
BLACK
6
CONTINUOUS
10
7.05557
20
-3.60877
11
7.04692
21
-3.60877
0
LINE
8
BLACK
6
CONTINUOUS
10
7.04692
20
-3.60877
11
7.04009
21
-3.61047
0
LINE
8
BLACK
6
CONTINUOUS
10
7.06955
20
-3.58424
11
7.06982
21
-3.58421
0
LINE
8
BLACK
6
CONTINUOUS
10
7.06982
20
-3.58421
11
7.07045
21
-3.58465
0
LINE
8
BLACK
6
CONTINUOUS
10
7.07045
20
-3.58465
11
7.07114
21
-3.58498
0
LINE
8
BLACK
6
CONTINUOUS
10
7.07114
20
-3.58498
11
7.07302
21
-3.58685
0
LINE
8
BLACK
6
CONTINUOUS
10
7.07302
20
-3.58685
11
7.07324
21
-3.58717
0
LINE
8
BLACK
6
CONTINUOUS
10
7.07324
20
-3.58717
11
7.07335
21
-3.58725
0
LINE
8
BLACK
6
CONTINUOUS
10
7.07335
20
-3.58725
11
7.07338
21
-3.58737
0
LINE
8
BLACK
6
CONTINUOUS
10
7.07338
20
-3.58737
11
7.07339
21
-3.58738
0
LINE
8
BLACK
6
CONTINUOUS
10
7.07339
20
-3.58738
11
7.07349
21
-3.58746
0
LINE
8
BLACK
6
CONTINUOUS
10
7.07349
20
-3.58746
11
7.0735
21
-3.58754
0
LINE
8
BLACK
6
CONTINUOUS
10
7.0735
20
-3.58754
11
7.07361
21
-3.58769
0
LINE
8
BLACK
6
CONTINUOUS
10
7.07361
20
-3.58769
11
7.07367
21
-3.58846
0
LINE
8
BLACK
6
CONTINUOUS
10
7.07367
20
-3.58846
11
7.07387
21
-3.5892
0
LINE
8
BLACK
6
CONTINUOUS
10
7.07387
20
-3.5892
11
7.07381
21
-3.58932
0
LINE
8
BLACK
6
CONTINUOUS
10
7.07381
20
-3.58932
11
7.07384
21
-3.58945
0
LINE
8
BLACK
6
CONTINUOUS
10
7.07384
20
-3.58945
11
7.07377
21
-3.58957
0
LINE
8
BLACK
6
CONTINUOUS
10
7.07377
20
-3.58957
11
7.07378
21
-3.5897
0
LINE
8
BLACK
6
CONTINUOUS
10
7.07378
20
-3.5897
11
7.07334
21
-3.59033
0
LINE
8
BLACK
6
CONTINUOUS
10
7.07334
20
-3.59033
11
7.07302
21
-3.59103
0
LINE
8
BLACK
6
CONTINUOUS
10
7.07302
20
-3.59103
11
7.07114
21
-3.5929
0
LINE
8
BLACK
6
CONTINUOUS
10
7.07114
20
-3.5929
11
7.07082
21
-3.59313
0
LINE
8
BLACK
6
CONTINUOUS
10
7.07082
20
-3.59313
11
7.07075
21
-3.59323
0
LINE
8
BLACK
6
CONTINUOUS
10
7.07075
20
-3.59323
11
7.07062
21
-3.59327
0
LINE
8
BLACK
6
CONTINUOUS
10
7.07062
20
-3.59327
11
7.0703
21
-3.59349
0
LINE
8
BLACK
6
CONTINUOUS
10
7.0703
20
-3.59349
11
7.06954
21
-3.59356
0
LINE
8
BLACK
6
CONTINUOUS
10
7.06954
20
-3.59356
11
7.0688
21
-3.59376
0
LINE
8
BLACK
6
CONTINUOUS
10
7.0688
20
-3.59376
11
7.06856
21
-3.59364
0
LINE
8
BLACK
6
CONTINUOUS
10
7.06856
20
-3.59364
11
7.06829
21
-3.59367
0
LINE
8
BLACK
6
CONTINUOUS
10
7.06829
20
-3.59367
11
7.06766
21
-3.59323
0
LINE
8
BLACK
6
CONTINUOUS
10
7.06766
20
-3.59323
11
7.06697
21
-3.5929
0
LINE
8
BLACK
6
CONTINUOUS
10
7.06697
20
-3.5929
11
7.06509
21
-3.59103
0
LINE
8
BLACK
6
CONTINUOUS
10
7.06509
20
-3.59103
11
7.06487
21
-3.59071
0
LINE
8
BLACK
6
CONTINUOUS
10
7.06487
20
-3.59071
11
7.06476
21
-3.59063
0
LINE
8
BLACK
6
CONTINUOUS
10
7.06476
20
-3.59063
11
7.06473
21
-3.59051
0
LINE
8
BLACK
6
CONTINUOUS
10
7.06473
20
-3.59051
11
7.06472
21
-3.5905
0
LINE
8
BLACK
6
CONTINUOUS
10
7.06472
20
-3.5905
11
7.06462
21
-3.59042
0
LINE
8
BLACK
6
CONTINUOUS
10
7.06462
20
-3.59042
11
7.06461
21
-3.59034
0
LINE
8
BLACK
6
CONTINUOUS
10
7.06461
20
-3.59034
11
7.0645
21
-3.59019
0
LINE
8
BLACK
6
CONTINUOUS
10
7.0645
20
-3.59019
11
7.06444
21
-3.58942
0
LINE
8
BLACK
6
CONTINUOUS
10
7.06444
20
-3.58942
11
7.06424
21
-3.58868
0
LINE
8
BLACK
6
CONTINUOUS
10
7.06424
20
-3.58868
11
7.0643
21
-3.58856
0
LINE
8
BLACK
6
CONTINUOUS
10
7.0643
20
-3.58856
11
7.06427
21
-3.58843
0
LINE
8
BLACK
6
CONTINUOUS
10
7.06427
20
-3.58843
11
7.06434
21
-3.58831
0
LINE
8
BLACK
6
CONTINUOUS
10
7.06434
20
-3.58831
11
7.06433
21
-3.58818
0
LINE
8
BLACK
6
CONTINUOUS
10
7.06433
20
-3.58818
11
7.06477
21
-3.58755
0
LINE
8
BLACK
6
CONTINUOUS
10
7.06477
20
-3.58755
11
7.06509
21
-3.58685
0
LINE
8
BLACK
6
CONTINUOUS
10
7.06509
20
-3.58685
11
7.06697
21
-3.58498
0
LINE
8
BLACK
6
CONTINUOUS
10
7.06697
20
-3.58498
11
7.06729
21
-3.58475
0
LINE
8
BLACK
6
CONTINUOUS
10
7.06729
20
-3.58475
11
7.06736
21
-3.58465
0
LINE
8
BLACK
6
CONTINUOUS
10
7.06736
20
-3.58465
11
7.06749
21
-3.58461
0
LINE
8
BLACK
6
CONTINUOUS
10
7.06749
20
-3.58461
11
7.06781
21
-3.58439
0
LINE
8
BLACK
6
CONTINUOUS
10
7.06781
20
-3.58439
11
7.06857
21
-3.58432
0
LINE
8
BLACK
6
CONTINUOUS
10
7.06857
20
-3.58432
11
7.06931
21
-3.58412
0
LINE
8
BLACK
6
CONTINUOUS
10
7.06931
20
-3.58412
11
7.06955
21
-3.58424
0
LINE
8
BLACK
6
CONTINUOUS
10
7.05651
20
-3.54672
11
7.05665
21
-3.54671
0
LINE
8
BLACK
6
CONTINUOUS
10
7.05665
20
-3.54671
11
7.06415
21
-3.54858
0
LINE
8
BLACK
6
CONTINUOUS
10
7.06415
20
-3.54858
11
7.06461
21
-3.54879
0
LINE
8
BLACK
6
CONTINUOUS
10
7.06461
20
-3.54879
11
7.06475
21
-3.5488
0
LINE
8
BLACK
6
CONTINUOUS
10
7.06475
20
-3.5488
11
7.0685
21
-3.55068
0
LINE
8
BLACK
6
CONTINUOUS
10
7.0685
20
-3.55068
11
7.06921
21
-3.5512
0
LINE
8
BLACK
6
CONTINUOUS
10
7.06921
20
-3.5512
11
7.06927
21
-3.55123
0
LINE
8
BLACK
6
CONTINUOUS
10
7.06927
20
-3.55123
11
7.07114
21
-3.55311
0
LINE
8
BLACK
6
CONTINUOUS
10
7.07114
20
-3.55311
11
7.07165
21
-3.55383
0
LINE
8
BLACK
6
CONTINUOUS
10
7.07165
20
-3.55383
11
7.0717
21
-3.55387
0
LINE
8
BLACK
6
CONTINUOUS
10
7.0717
20
-3.55387
11
7.07357
21
-3.55762
0
LINE
8
BLACK
6
CONTINUOUS
10
7.07357
20
-3.55762
11
7.07386
21
-3.55861
0
LINE
8
BLACK
6
CONTINUOUS
10
7.07386
20
-3.55861
11
7.07382
21
-3.55878
0
LINE
8
BLACK
6
CONTINUOUS
10
7.07382
20
-3.55878
11
7.07388
21
-3.55894
0
LINE
8
BLACK
6
CONTINUOUS
10
7.07388
20
-3.55894
11
7.07388
21
-3.56269
0
LINE
8
BLACK
6
CONTINUOUS
10
7.07388
20
-3.56269
11
7.0737
21
-3.5637
0
LINE
8
BLACK
6
CONTINUOUS
10
7.0737
20
-3.5637
11
7.07359
21
-3.56384
0
LINE
8
BLACK
6
CONTINUOUS
10
7.07359
20
-3.56384
11
7.07357
21
-3.56401
0
LINE
8
BLACK
6
CONTINUOUS
10
7.07357
20
-3.56401
11
7.0717
21
-3.56776
0
LINE
8
BLACK
6
CONTINUOUS
10
7.0717
20
-3.56776
11
7.07117
21
-3.56847
0
LINE
8
BLACK
6
CONTINUOUS
10
7.07117
20
-3.56847
11
7.07114
21
-3.56853
0
LINE
8
BLACK
6
CONTINUOUS
10
7.07114
20
-3.56853
11
7.06927
21
-3.57041
0
LINE
8
BLACK
6
CONTINUOUS
10
7.06927
20
-3.57041
11
7.06855
21
-3.57091
0
LINE
8
BLACK
6
CONTINUOUS
10
7.06855
20
-3.57091
11
7.0685
21
-3.57096
0
LINE
8
BLACK
6
CONTINUOUS
10
7.0685
20
-3.57096
11
7.06475
21
-3.57283
0
LINE
8
BLACK
6
CONTINUOUS
10
7.06475
20
-3.57283
11
7.06426
21
-3.57298
0
LINE
8
BLACK
6
CONTINUOUS
10
7.06426
20
-3.57298
11
7.06415
21
-3.57306
0
LINE
8
BLACK
6
CONTINUOUS
10
7.06415
20
-3.57306
11
7.05665
21
-3.57493
0
LINE
8
BLACK
6
CONTINUOUS
10
7.05665
20
-3.57493
11
7.05606
21
-3.57497
0
LINE
8
BLACK
6
CONTINUOUS
10
7.05606
20
-3.57497
11
7.05593
21
-3.57502
0
LINE
8
BLACK
6
CONTINUOUS
10
7.05593
20
-3.57502
11
7.04656
21
-3.57502
0
LINE
8
BLACK
6
CONTINUOUS
10
7.04656
20
-3.57502
11
7.04598
21
-3.57492
0
LINE
8
BLACK
6
CONTINUOUS
10
7.04598
20
-3.57492
11
7.04584
21
-3.57493
0
LINE
8
BLACK
6
CONTINUOUS
10
7.04584
20
-3.57493
11
7.03834
21
-3.57306
0
LINE
8
BLACK
6
CONTINUOUS
10
7.03834
20
-3.57306
11
7.03788
21
-3.57285
0
LINE
8
BLACK
6
CONTINUOUS
10
7.03788
20
-3.57285
11
7.03774
21
-3.57283
0
LINE
8
BLACK
6
CONTINUOUS
10
7.03774
20
-3.57283
11
7.03399
21
-3.57096
0
LINE
8
BLACK
6
CONTINUOUS
10
7.03399
20
-3.57096
11
7.03328
21
-3.57043
0
LINE
8
BLACK
6
CONTINUOUS
10
7.03328
20
-3.57043
11
7.03322
21
-3.57041
0
LINE
8
BLACK
6
CONTINUOUS
10
7.03322
20
-3.57041
11
7.03135
21
-3.56853
0
LINE
8
BLACK
6
CONTINUOUS
10
7.03135
20
-3.56853
11
7.03084
21
-3.56781
0
LINE
8
BLACK
6
CONTINUOUS
10
7.03084
20
-3.56781
11
7.03079
21
-3.56776
0
LINE
8
BLACK
6
CONTINUOUS
10
7.03079
20
-3.56776
11
7.02892
21
-3.56401
0
LINE
8
BLACK
6
CONTINUOUS
10
7.02892
20
-3.56401
11
7.02863
21
-3.56303
0
LINE
8
BLACK
6
CONTINUOUS
10
7.02863
20
-3.56303
11
7.02867
21
-3.56286
0
LINE
8
BLACK
6
CONTINUOUS
10
7.02867
20
-3.56286
11
7.02861
21
-3.56269
0
LINE
8
BLACK
6
CONTINUOUS
10
7.02861
20
-3.56269
11
7.02861
21
-3.55894
0
LINE
8
BLACK
6
CONTINUOUS
10
7.02861
20
-3.55894
11
7.02879
21
-3.55793
0
LINE
8
BLACK
6
CONTINUOUS
10
7.02879
20
-3.55793
11
7.0289
21
-3.5578
0
LINE
8
BLACK
6
CONTINUOUS
10
7.0289
20
-3.5578
11
7.02892
21
-3.55762
0
LINE
8
BLACK
6
CONTINUOUS
10
7.02892
20
-3.55762
11
7.03079
21
-3.55387
0
LINE
8
BLACK
6
CONTINUOUS
10
7.03079
20
-3.55387
11
7.03132
21
-3.55317
0
LINE
8
BLACK
6
CONTINUOUS
10
7.03132
20
-3.55317
11
7.03135
21
-3.55311
0
LINE
8
BLACK
6
CONTINUOUS
10
7.03135
20
-3.55311
11
7.03322
21
-3.55123
0
LINE
8
BLACK
6
CONTINUOUS
10
7.03322
20
-3.55123
11
7.03394
21
-3.55073
0
LINE
8
BLACK
6
CONTINUOUS
10
7.03394
20
-3.55073
11
7.03399
21
-3.55068
0
LINE
8
BLACK
6
CONTINUOUS
10
7.03399
20
-3.55068
11
7.03774
21
-3.5488
0
LINE
8
BLACK
6
CONTINUOUS
10
7.03774
20
-3.5488
11
7.03823
21
-3.54866
0
LINE
8
BLACK
6
CONTINUOUS
10
7.03823
20
-3.54866
11
7.03834
21
-3.54858
0
LINE
8
BLACK
6
CONTINUOUS
10
7.03834
20
-3.54858
11
7.04584
21
-3.54671
0
LINE
8
BLACK
6
CONTINUOUS
10
7.04584
20
-3.54671
11
7.04643
21
-3.54666
0
LINE
8
BLACK
6
CONTINUOUS
10
7.04643
20
-3.54666
11
7.04656
21
-3.54662
0
LINE
8
BLACK
6
CONTINUOUS
10
7.04656
20
-3.54662
11
7.05593
21
-3.54662
0
LINE
8
BLACK
6
CONTINUOUS
10
7.05593
20
-3.54662
11
7.05651
21
-3.54672
0
LINE
8
BLACK
6
CONTINUOUS
10
7.04009
20
-3.55423
11
7.03706
21
-3.55575
0
LINE
8
BLACK
6
CONTINUOUS
10
7.03706
20
-3.55575
11
7.03586
21
-3.55694
0
LINE
8
BLACK
6
CONTINUOUS
10
7.03586
20
-3.55694
11
7.03451
21
-3.55964
0
LINE
8
BLACK
6
CONTINUOUS
10
7.03451
20
-3.55964
11
7.03451
21
-3.562
0
LINE
8
BLACK
6
CONTINUOUS
10
7.03451
20
-3.562
11
7.03586
21
-3.56469
0
LINE
8
BLACK
6
CONTINUOUS
10
7.03586
20
-3.56469
11
7.03706
21
-3.56589
0
LINE
8
BLACK
6
CONTINUOUS
10
7.03706
20
-3.56589
11
7.04009
21
-3.56741
0
LINE
8
BLACK
6
CONTINUOUS
10
7.04009
20
-3.56741
11
7.04692
21
-3.56912
0
LINE
8
BLACK
6
CONTINUOUS
10
7.04692
20
-3.56912
11
7.05557
21
-3.56912
0
LINE
8
BLACK
6
CONTINUOUS
10
7.05557
20
-3.56912
11
7.0624
21
-3.56741
0
LINE
8
BLACK
6
CONTINUOUS
10
7.0624
20
-3.56741
11
7.06543
21
-3.56589
0
LINE
8
BLACK
6
CONTINUOUS
10
7.06543
20
-3.56589
11
7.06663
21
-3.56469
0
LINE
8
BLACK
6
CONTINUOUS
10
7.06663
20
-3.56469
11
7.06798
21
-3.562
0
LINE
8
BLACK
6
CONTINUOUS
10
7.06798
20
-3.562
11
7.06798
21
-3.55964
0
LINE
8
BLACK
6
CONTINUOUS
10
7.06798
20
-3.55964
11
7.06663
21
-3.55694
0
LINE
8
BLACK
6
CONTINUOUS
10
7.06663
20
-3.55694
11
7.06543
21
-3.55575
0
LINE
8
BLACK
6
CONTINUOUS
10
7.06543
20
-3.55575
11
7.0624
21
-3.55423
0
LINE
8
BLACK
6
CONTINUOUS
10
7.0624
20
-3.55423
11
7.05557
21
-3.55252
0
LINE
8
BLACK
6
CONTINUOUS
10
7.05557
20
-3.55252
11
7.04692
21
-3.55252
0
LINE
8
BLACK
6
CONTINUOUS
10
7.04692
20
-3.55252
11
7.04009
21
-3.55423
0
LINE
8
BLACK
6
CONTINUOUS
10
7.07194
20
-3.46618
11
7.07349
21
-3.46748
0
LINE
8
BLACK
6
CONTINUOUS
10
7.07349
20
-3.46748
11
7.07384
21
-3.46947
0
LINE
8
BLACK
6
CONTINUOUS
10
7.07384
20
-3.46947
11
7.07283
21
-3.47122
0
LINE
8
BLACK
6
CONTINUOUS
10
7.07283
20
-3.47122
11
7.07093
21
-3.47191
0
LINE
8
BLACK
6
CONTINUOUS
10
7.07093
20
-3.47191
11
7.051
21
-3.47191
0
LINE
8
BLACK
6
CONTINUOUS
10
7.051
20
-3.47191
11
7.04876
21
-3.47303
0
LINE
8
BLACK
6
CONTINUOUS
10
7.04876
20
-3.47303
11
7.04764
21
-3.47528
0
LINE
8
BLACK
6
CONTINUOUS
10
7.04764
20
-3.47528
11
7.04764
21
-3.47951
0
LINE
8
BLACK
6
CONTINUOUS
10
7.04764
20
-3.47951
11
7.04876
21
-3.48175
0
LINE
8
BLACK
6
CONTINUOUS
10
7.04876
20
-3.48175
11
7.051
21
-3.48288
0
LINE
8
BLACK
6
CONTINUOUS
10
7.051
20
-3.48288
11
7.07093
21
-3.48288
0
LINE
8
BLACK
6
CONTINUOUS
10
7.07093
20
-3.48288
11
7.07194
21
-3.48305
0
LINE
8
BLACK
6
CONTINUOUS
10
7.07194
20
-3.48305
11
7.07349
21
-3.48435
0
LINE
8
BLACK
6
CONTINUOUS
10
7.07349
20
-3.48435
11
7.07384
21
-3.48634
0
LINE
8
BLACK
6
CONTINUOUS
10
7.07384
20
-3.48634
11
7.07283
21
-3.48809
0
LINE
8
BLACK
6
CONTINUOUS
10
7.07283
20
-3.48809
11
7.07093
21
-3.48878
0
LINE
8
BLACK
6
CONTINUOUS
10
7.07093
20
-3.48878
11
7.051
21
-3.48878
0
LINE
8
BLACK
6
CONTINUOUS
10
7.051
20
-3.48878
11
7.04876
21
-3.4899
0
LINE
8
BLACK
6
CONTINUOUS
10
7.04876
20
-3.4899
11
7.04764
21
-3.49215
0
LINE
8
BLACK
6
CONTINUOUS
10
7.04764
20
-3.49215
11
7.04764
21
-3.49638
0
LINE
8
BLACK
6
CONTINUOUS
10
7.04764
20
-3.49638
11
7.04898
21
-3.49908
0
LINE
8
BLACK
6
CONTINUOUS
10
7.04898
20
-3.49908
11
7.04966
21
-3.49975
0
LINE
8
BLACK
6
CONTINUOUS
10
7.04966
20
-3.49975
11
7.07093
21
-3.49975
0
LINE
8
BLACK
6
CONTINUOUS
10
7.07093
20
-3.49975
11
7.07194
21
-3.49993
0
LINE
8
BLACK
6
CONTINUOUS
10
7.07194
20
-3.49993
11
7.07349
21
-3.50123
0
LINE
8
BLACK
6
CONTINUOUS
10
7.07349
20
-3.50123
11
7.07384
21
-3.50321
0
LINE
8
BLACK
6
CONTINUOUS
10
7.07384
20
-3.50321
11
7.07283
21
-3.50496
0
LINE
8
BLACK
6
CONTINUOUS
10
7.07283
20
-3.50496
11
7.07093
21
-3.50565
0
LINE
8
BLACK
6
CONTINUOUS
10
7.07093
20
-3.50565
11
7.04468
21
-3.50565
0
LINE
8
BLACK
6
CONTINUOUS
10
7.04468
20
-3.50565
11
7.04367
21
-3.50548
0
LINE
8
BLACK
6
CONTINUOUS
10
7.04367
20
-3.50548
11
7.04213
21
-3.50418
0
LINE
8
BLACK
6
CONTINUOUS
10
7.04213
20
-3.50418
11
7.04178
21
-3.50219
0
LINE
8
BLACK
6
CONTINUOUS
10
7.04178
20
-3.50219
11
7.04279
21
-3.50044
0
LINE
8
BLACK
6
CONTINUOUS
10
7.04279
20
-3.50044
11
7.04302
21
-3.50035
0
LINE
8
BLACK
6
CONTINUOUS
10
7.04302
20
-3.50035
11
7.04204
21
-3.4984
0
LINE
8
BLACK
6
CONTINUOUS
10
7.04204
20
-3.4984
11
7.04175
21
-3.49741
0
LINE
8
BLACK
6
CONTINUOUS
10
7.04175
20
-3.49741
11
7.04179
21
-3.49724
0
LINE
8
BLACK
6
CONTINUOUS
10
7.04179
20
-3.49724
11
7.04173
21
-3.49708
0
LINE
8
BLACK
6
CONTINUOUS
10
7.04173
20
-3.49708
11
7.04173
21
-3.49145
0
LINE
8
BLACK
6
CONTINUOUS
10
7.04173
20
-3.49145
11
7.04191
21
-3.49044
0
LINE
8
BLACK
6
CONTINUOUS
10
7.04191
20
-3.49044
11
7.04202
21
-3.49031
0
LINE
8
BLACK
6
CONTINUOUS
10
7.04202
20
-3.49031
11
7.04204
21
-3.49013
0
LINE
8
BLACK
6
CONTINUOUS
10
7.04204
20
-3.49013
11
7.04392
21
-3.48638
0
LINE
8
BLACK
6
CONTINUOUS
10
7.04392
20
-3.48638
11
7.04434
21
-3.48581
0
LINE
8
BLACK
6
CONTINUOUS
10
7.04434
20
-3.48581
11
7.04424
21
-3.48558
0
LINE
8
BLACK
6
CONTINUOUS
10
7.04424
20
-3.48558
11
7.04392
21
-3.48527
0
LINE
8
BLACK
6
CONTINUOUS
10
7.04392
20
-3.48527
11
7.04204
21
-3.48152
0
LINE
8
BLACK
6
CONTINUOUS
10
7.04204
20
-3.48152
11
7.04175
21
-3.48054
0
LINE
8
BLACK
6
CONTINUOUS
10
7.04175
20
-3.48054
11
7.04179
21
-3.48037
0
LINE
8
BLACK
6
CONTINUOUS
10
7.04179
20
-3.48037
11
7.04173
21
-3.4802
0
LINE
8
BLACK
6
CONTINUOUS
10
7.04173
20
-3.4802
11
7.04173
21
-3.47458
0
LINE
8
BLACK
6
CONTINUOUS
10
7.04173
20
-3.47458
11
7.04191
21
-3.47357
0
LINE
8
BLACK
6
CONTINUOUS
10
7.04191
20
-3.47357
11
7.04202
21
-3.47343
0
LINE
8
BLACK
6
CONTINUOUS
10
7.04202
20
-3.47343
11
7.04204
21
-3.47326
0
LINE
8
BLACK
6
CONTINUOUS
10
7.04204
20
-3.47326
11
7.04392
21
-3.46951
0
LINE
8
BLACK
6
CONTINUOUS
10
7.04392
20
-3.46951
11
7.04453
21
-3.46869
0
LINE
8
BLACK
6
CONTINUOUS
10
7.04453
20
-3.46869
11
7.04493
21
-3.46851
0
LINE
8
BLACK
6
CONTINUOUS
10
7.04493
20
-3.46851
11
7.04524
21
-3.46819
0
LINE
8
BLACK
6
CONTINUOUS
10
7.04524
20
-3.46819
11
7.04899
21
-3.46631
0
LINE
8
BLACK
6
CONTINUOUS
10
7.04899
20
-3.46631
11
7.04997
21
-3.46602
0
LINE
8
BLACK
6
CONTINUOUS
10
7.04997
20
-3.46602
11
7.05014
21
-3.46606
0
LINE
8
BLACK
6
CONTINUOUS
10
7.05014
20
-3.46606
11
7.05031
21
-3.466
0
LINE
8
BLACK
6
CONTINUOUS
10
7.05031
20
-3.466
11
7.07093
21
-3.466
0
LINE
8
BLACK
6
CONTINUOUS
10
7.07093
20
-3.466
11
7.07194
21
-3.46618
0
LINE
8
BLACK
6
CONTINUOUS
10
7.07194
20
-3.41369
11
7.07349
21
-3.41499
0
LINE
8
BLACK
6
CONTINUOUS
10
7.07349
20
-3.41499
11
7.07384
21
-3.41698
0
LINE
8
BLACK
6
CONTINUOUS
10
7.07384
20
-3.41698
11
7.07283
21
-3.41872
0
LINE
8
BLACK
6
CONTINUOUS
10
7.07283
20
-3.41872
11
7.07093
21
-3.41942
0
LINE
8
BLACK
6
CONTINUOUS
10
7.07093
20
-3.41942
11
7.051
21
-3.41942
0
LINE
8
BLACK
6
CONTINUOUS
10
7.051
20
-3.41942
11
7.04876
21
-3.42054
0
LINE
8
BLACK
6
CONTINUOUS
10
7.04876
20
-3.42054
11
7.04764
21
-3.42278
0
LINE
8
BLACK
6
CONTINUOUS
10
7.04764
20
-3.42278
11
7.04764
21
-3.42701
0
LINE
8
BLACK
6
CONTINUOUS
10
7.04764
20
-3.42701
11
7.04876
21
-3.42926
0
LINE
8
BLACK
6
CONTINUOUS
10
7.04876
20
-3.42926
11
7.051
21
-3.43038
0
LINE
8
BLACK
6
CONTINUOUS
10
7.051
20
-3.43038
11
7.07093
21
-3.43038
0
LINE
8
BLACK
6
CONTINUOUS
10
7.07093
20
-3.43038
11
7.07194
21
-3.43056
0
LINE
8
BLACK
6
CONTINUOUS
10
7.07194
20
-3.43056
11
7.07349
21
-3.43186
0
LINE
8
BLACK
6
CONTINUOUS
10
7.07349
20
-3.43186
11
7.07384
21
-3.43385
0
LINE
8
BLACK
6
CONTINUOUS
10
7.07384
20
-3.43385
11
7.07283
21
-3.4356
0
LINE
8
BLACK
6
CONTINUOUS
10
7.07283
20
-3.4356
11
7.07093
21
-3.43629
0
LINE
8
BLACK
6
CONTINUOUS
10
7.07093
20
-3.43629
11
7.051
21
-3.43629
0
LINE
8
BLACK
6
CONTINUOUS
10
7.051
20
-3.43629
11
7.04876
21
-3.43741
0
LINE
8
BLACK
6
CONTINUOUS
10
7.04876
20
-3.43741
11
7.04764
21
-3.43966
0
LINE
8
BLACK
6
CONTINUOUS
10
7.04764
20
-3.43966
11
7.04764
21
-3.44389
0
LINE
8
BLACK
6
CONTINUOUS
10
7.04764
20
-3.44389
11
7.04898
21
-3.44658
0
LINE
8
BLACK
6
CONTINUOUS
10
7.04898
20
-3.44658
11
7.04966
21
-3.44726
0
LINE
8
BLACK
6
CONTINUOUS
10
7.04966
20
-3.44726
11
7.07093
21
-3.44726
0
LINE
8
BLACK
6
CONTINUOUS
10
7.07093
20
-3.44726
11
7.07194
21
-3.44743
0
LINE
8
BLACK
6
CONTINUOUS
10
7.07194
20
-3.44743
11
7.07349
21
-3.44873
0
LINE
8
BLACK
6
CONTINUOUS
10
7.07349
20
-3.44873
11
7.07384
21
-3.45072
0
LINE
8
BLACK
6
CONTINUOUS
10
7.07384
20
-3.45072
11
7.07283
21
-3.45247
0
LINE
8
BLACK
6
CONTINUOUS
10
7.07283
20
-3.45247
11
7.07093
21
-3.45316
0
LINE
8
BLACK
6
CONTINUOUS
10
7.07093
20
-3.45316
11
7.04468
21
-3.45316
0
LINE
8
BLACK
6
CONTINUOUS
10
7.04468
20
-3.45316
11
7.04367
21
-3.45298
0
LINE
8
BLACK
6
CONTINUOUS
10
7.04367
20
-3.45298
11
7.04213
21
-3.45168
0
LINE
8
BLACK
6
CONTINUOUS
10
7.04213
20
-3.45168
11
7.04178
21
-3.4497
0
LINE
8
BLACK
6
CONTINUOUS
10
7.04178
20
-3.4497
11
7.04279
21
-3.44795
0
LINE
8
BLACK
6
CONTINUOUS
10
7.04279
20
-3.44795
11
7.04302
21
-3.44786
0
LINE
8
BLACK
6
CONTINUOUS
10
7.04302
20
-3.44786
11
7.04204
21
-3.4459
0
LINE
8
BLACK
6
CONTINUOUS
10
7.04204
20
-3.4459
11
7.04175
21
-3.44492
0
LINE
8
BLACK
6
CONTINUOUS
10
7.04175
20
-3.44492
11
7.04179
21
-3.44475
0
LINE
8
BLACK
6
CONTINUOUS
10
7.04179
20
-3.44475
11
7.04173
21
-3.44458
0
LINE
8
BLACK
6
CONTINUOUS
10
7.04173
20
-3.44458
11
7.04173
21
-3.43896
0
LINE
8
BLACK
6
CONTINUOUS
10
7.04173
20
-3.43896
11
7.04191
21
-3.43795
0
LINE
8
BLACK
6
CONTINUOUS
10
7.04191
20
-3.43795
11
7.04202
21
-3.43781
0
LINE
8
BLACK
6
CONTINUOUS
10
7.04202
20
-3.43781
11
7.04204
21
-3.43764
0
LINE
8
BLACK
6
CONTINUOUS
10
7.04204
20
-3.43764
11
7.04392
21
-3.43389
0
LINE
8
BLACK
6
CONTINUOUS
10
7.04392
20
-3.43389
11
7.04434
21
-3.43332
0
LINE
8
BLACK
6
CONTINUOUS
10
7.04434
20
-3.43332
11
7.04424
21
-3.43308
0
LINE
8
BLACK
6
CONTINUOUS
10
7.04424
20
-3.43308
11
7.04392
21
-3.43278
0
LINE
8
BLACK
6
CONTINUOUS
10
7.04392
20
-3.43278
11
7.04204
21
-3.42903
0
LINE
8
BLACK
6
CONTINUOUS
10
7.04204
20
-3.42903
11
7.04175
21
-3.42805
0
LINE
8
BLACK
6
CONTINUOUS
10
7.04175
20
-3.42805
11
7.04179
21
-3.42788
0
LINE
8
BLACK
6
CONTINUOUS
10
7.04179
20
-3.42788
11
7.04173
21
-3.42771
0
LINE
8
BLACK
6
CONTINUOUS
10
7.04173
20
-3.42771
11
7.04173
21
-3.42209
0
LINE
8
BLACK
6
CONTINUOUS
10
7.04173
20
-3.42209
11
7.04191
21
-3.42108
0
LINE
8
BLACK
6
CONTINUOUS
10
7.04191
20
-3.42108
11
7.04202
21
-3.42094
0
LINE
8
BLACK
6
CONTINUOUS
10
7.04202
20
-3.42094
11
7.04204
21
-3.42077
0
LINE
8
BLACK
6
CONTINUOUS
10
7.04204
20
-3.42077
11
7.04392
21
-3.41702
0
LINE
8
BLACK
6
CONTINUOUS
10
7.04392
20
-3.41702
11
7.04453
21
-3.41619
0
LINE
8
BLACK
6
CONTINUOUS
10
7.04453
20
-3.41619
11
7.04493
21
-3.41602
0
LINE
8
BLACK
6
CONTINUOUS
10
7.04493
20
-3.41602
11
7.04524
21
-3.4157
0
LINE
8
BLACK
6
CONTINUOUS
10
7.04524
20
-3.4157
11
7.04899
21
-3.41382
0
LINE
8
BLACK
6
CONTINUOUS
10
7.04899
20
-3.41382
11
7.04997
21
-3.41353
0
LINE
8
BLACK
6
CONTINUOUS
10
7.04997
20
-3.41353
11
7.05014
21
-3.41357
0
LINE
8
BLACK
6
CONTINUOUS
10
7.05014
20
-3.41357
11
7.05031
21
-3.41351
0
LINE
8
BLACK
6
CONTINUOUS
10
7.05031
20
-3.41351
11
7.07093
21
-3.41351
0
LINE
8
BLACK
6
CONTINUOUS
10
7.07093
20
-3.41351
11
7.07194
21
-3.41369
0
LINE
8
BLACK
6
CONTINUOUS
10
6.9086
20
-3.10081
11
6.90917
21
-3.1022
0
LINE
8
BLACK
6
CONTINUOUS
10
6.90917
20
-3.1022
11
6.90917
21
-3.38764
0
LINE
8
BLACK
6
CONTINUOUS
10
6.90917
20
-3.38764
11
6.9086
21
-3.38903
0
LINE
8
BLACK
6
CONTINUOUS
10
6.9086
20
-3.38903
11
6.9072
21
-3.38961
0
LINE
8
BLACK
6
CONTINUOUS
10
6.9072
20
-3.38961
11
6.90581
21
-3.38903
0
LINE
8
BLACK
6
CONTINUOUS
10
6.90581
20
-3.38903
11
6.90524
21
-3.38764
0
LINE
8
BLACK
6
CONTINUOUS
10
6.90524
20
-3.38764
11
6.90524
21
-3.1022
0
LINE
8
BLACK
6
CONTINUOUS
10
6.90524
20
-3.1022
11
6.90581
21
-3.10081
0
LINE
8
BLACK
6
CONTINUOUS
10
6.90581
20
-3.10081
11
6.9072
21
-3.10024
0
LINE
8
BLACK
6
CONTINUOUS
10
6.9072
20
-3.10024
11
6.9086
21
-3.10081
0
LINE
8
BLACK
6
CONTINUOUS
10
6.8431
20
-3.28846
11
6.84337
21
-3.28848
0
LINE
8
BLACK
6
CONTINUOUS
10
6.84337
20
-3.28848
11
6.84487
21
-3.28923
0
LINE
8
BLACK
6
CONTINUOUS
10
6.84487
20
-3.28923
11
6.845
21
-3.28938
0
LINE
8
BLACK
6
CONTINUOUS
10
6.845
20
-3.28938
11
6.84518
21
-3.28946
0
LINE
8
BLACK
6
CONTINUOUS
10
6.84518
20
-3.28946
11
6.84593
21
-3.29021
0
LINE
8
BLACK
6
CONTINUOUS
10
6.84593
20
-3.29021
11
6.846
21
-3.29038
0
LINE
8
BLACK
6
CONTINUOUS
10
6.846
20
-3.29038
11
6.84615
21
-3.29051
0
LINE
8
BLACK
6
CONTINUOUS
10
6.84615
20
-3.29051
11
6.8469
21
-3.29201
0
LINE
8
BLACK
6
CONTINUOUS
10
6.8469
20
-3.29201
11
6.84692
21
-3.29229
0
LINE
8
BLACK
6
CONTINUOUS
10
6.84692
20
-3.29229
11
6.84703
21
-3.29254
0
LINE
8
BLACK
6
CONTINUOUS
10
6.84703
20
-3.29254
11
6.84703
21
-3.29736
0
LINE
8
BLACK
6
CONTINUOUS
10
6.84703
20
-3.29736
11
6.85334
21
-3.29736
0
LINE
8
BLACK
6
CONTINUOUS
10
6.85334
20
-3.29736
11
6.85418
21
-3.2977
0
LINE
8
BLACK
6
CONTINUOUS
10
6.85418
20
-3.2977
11
6.85452
21
-3.29854
0
LINE
8
BLACK
6
CONTINUOUS
10
6.85452
20
-3.29854
11
6.85418
21
-3.29937
0
LINE
8
BLACK
6
CONTINUOUS
10
6.85418
20
-3.29937
11
6.85334
21
-3.29972
0
LINE
8
BLACK
6
CONTINUOUS
10
6.85334
20
-3.29972
11
6.84584
21
-3.29972
0
LINE
8
BLACK
6
CONTINUOUS
10
6.84584
20
-3.29972
11
6.8376
21
-3.29972
0
LINE
8
BLACK
6
CONTINUOUS
10
6.8376
20
-3.29972
11
6.83676
21
-3.29937
0
LINE
8
BLACK
6
CONTINUOUS
10
6.83676
20
-3.29937
11
6.83641
21
-3.29854
0
LINE
8
BLACK
6
CONTINUOUS
10
6.83641
20
-3.29854
11
6.83641
21
-3.29254
0
LINE
8
BLACK
6
CONTINUOUS
10
6.83641
20
-3.29254
11
6.83652
21
-3.29229
0
LINE
8
BLACK
6
CONTINUOUS
10
6.83652
20
-3.29229
11
6.83654
21
-3.29201
0
LINE
8
BLACK
6
CONTINUOUS
10
6.83654
20
-3.29201
11
6.83729
21
-3.29051
0
LINE
8
BLACK
6
CONTINUOUS
10
6.83729
20
-3.29051
11
6.83744
21
-3.29038
0
LINE
8
BLACK
6
CONTINUOUS
10
6.83744
20
-3.29038
11
6.83751
21
-3.29021
0
LINE
8
BLACK
6
CONTINUOUS
10
6.83751
20
-3.29021
11
6.83826
21
-3.28946
0
LINE
8
BLACK
6
CONTINUOUS
10
6.83826
20
-3.28946
11
6.83844
21
-3.28938
0
LINE
8
BLACK
6
CONTINUOUS
10
6.83844
20
-3.28938
11
6.83857
21
-3.28923
0
LINE
8
BLACK
6
CONTINUOUS
10
6.83857
20
-3.28923
11
6.84007
21
-3.28848
0
LINE
8
BLACK
6
CONTINUOUS
10
6.84007
20
-3.28848
11
6.84034
21
-3.28846
0
LINE
8
BLACK
6
CONTINUOUS
10
6.84034
20
-3.28846
11
6.8406
21
-3.28836
0
LINE
8
BLACK
6
CONTINUOUS
10
6.8406
20
-3.28836
11
6.84284
21
-3.28836
0
LINE
8
BLACK
6
CONTINUOUS
10
6.84284
20
-3.28836
11
6.8431
21
-3.28846
0
LINE
8
BLACK
6
CONTINUOUS
10
6.83979
20
-3.29126
11
6.83932
21
-3.29174
0
LINE
8
BLACK
6
CONTINUOUS
10
6.83932
20
-3.29174
11
6.83878
21
-3.29282
0
LINE
8
BLACK
6
CONTINUOUS
10
6.83878
20
-3.29282
11
6.83878
21
-3.29736
0
LINE
8
BLACK
6
CONTINUOUS
10
6.83878
20
-3.29736
11
6.84466
21
-3.29736
0
LINE
8
BLACK
6
CONTINUOUS
10
6.84466
20
-3.29736
11
6.84466
21
-3.29282
0
LINE
8
BLACK
6
CONTINUOUS
10
6.84466
20
-3.29282
11
6.84412
21
-3.29174
0
LINE
8
BLACK
6
CONTINUOUS
10
6.84412
20
-3.29174
11
6.84365
21
-3.29126
0
LINE
8
BLACK
6
CONTINUOUS
10
6.84365
20
-3.29126
11
6.84257
21
-3.29072
0
LINE
8
BLACK
6
CONTINUOUS
10
6.84257
20
-3.29072
11
6.84087
21
-3.29072
0
LINE
8
BLACK
6
CONTINUOUS
10
6.84087
20
-3.29072
11
6.83979
21
-3.29126
0
LINE
8
BLACK
6
CONTINUOUS
10
6.85268
20
-3.27296
11
6.85343
21
-3.27371
0
LINE
8
BLACK
6
CONTINUOUS
10
6.85343
20
-3.27371
11
6.85353
21
-3.27396
0
LINE
8
BLACK
6
CONTINUOUS
10
6.85353
20
-3.27396
11
6.85371
21
-3.27417
0
LINE
8
BLACK
6
CONTINUOUS
10
6.85371
20
-3.27417
11
6.85446
21
-3.27642
0
LINE
8
BLACK
6
CONTINUOUS
10
6.85446
20
-3.27642
11
6.85445
21
-3.27661
0
LINE
8
BLACK
6
CONTINUOUS
10
6.85445
20
-3.27661
11
6.85452
21
-3.27679
0
LINE
8
BLACK
6
CONTINUOUS
10
6.85452
20
-3.27679
11
6.85452
21
-3.27829
0
LINE
8
BLACK
6
CONTINUOUS
10
6.85452
20
-3.27829
11
6.85445
21
-3.27847
0
LINE
8
BLACK
6
CONTINUOUS
10
6.85445
20
-3.27847
11
6.85446
21
-3.27867
0
LINE
8
BLACK
6
CONTINUOUS
10
6.85446
20
-3.27867
11
6.85371
21
-3.28092
0
LINE
8
BLACK
6
CONTINUOUS
10
6.85371
20
-3.28092
11
6.85353
21
-3.28112
0
LINE
8
BLACK
6
CONTINUOUS
10
6.85353
20
-3.28112
11
6.85343
21
-3.28138
0
LINE
8
BLACK
6
CONTINUOUS
10
6.85343
20
-3.28138
11
6.85193
21
-3.28288
0
LINE
8
BLACK
6
CONTINUOUS
10
6.85193
20
-3.28288
11
6.85175
21
-3.28295
0
LINE
8
BLACK
6
CONTINUOUS
10
6.85175
20
-3.28295
11
6.85162
21
-3.2831
0
LINE
8
BLACK
6
CONTINUOUS
10
6.85162
20
-3.2831
11
6.85012
21
-3.28385
0
LINE
8
BLACK
6
CONTINUOUS
10
6.85012
20
-3.28385
11
6.84999
21
-3.28386
0
LINE
8
BLACK
6
CONTINUOUS
10
6.84999
20
-3.28386
11
6.84988
21
-3.28394
0
LINE
8
BLACK
6
CONTINUOUS
10
6.84988
20
-3.28394
11
6.84688
21
-3.28469
0
LINE
8
BLACK
6
CONTINUOUS
10
6.84688
20
-3.28469
11
6.84673
21
-3.28467
0
LINE
8
BLACK
6
CONTINUOUS
10
6.84673
20
-3.28467
11
6.84659
21
-3.28472
0
LINE
8
BLACK
6
CONTINUOUS
10
6.84659
20
-3.28472
11
6.84434
21
-3.28472
0
LINE
8
BLACK
6
CONTINUOUS
10
6.84434
20
-3.28472
11
6.84421
21
-3.28467
0
LINE
8
BLACK
6
CONTINUOUS
10
6.84421
20
-3.28467
11
6.84406
21
-3.28469
0
LINE
8
BLACK
6
CONTINUOUS
10
6.84406
20
-3.28469
11
6.84106
21
-3.28394
0
LINE
8
BLACK
6
CONTINUOUS
10
6.84106
20
-3.28394
11
6.84095
21
-3.28386
0
LINE
8
BLACK
6
CONTINUOUS
10
6.84095
20
-3.28386
11
6.84082
21
-3.28385
0
LINE
8
BLACK
6
CONTINUOUS
10
6.84082
20
-3.28385
11
6.83932
21
-3.2831
0
LINE
8
BLACK
6
CONTINUOUS
10
6.83932
20
-3.2831
11
6.83919
21
-3.28295
0
LINE
8
BLACK
6
CONTINUOUS
10
6.83919
20
-3.28295
11
6.83901
21
-3.28288
0
LINE
8
BLACK
6
CONTINUOUS
10
6.83901
20
-3.28288
11
6.83751
21
-3.28138
0
LINE
8
BLACK
6
CONTINUOUS
10
6.83751
20
-3.28138
11
6.83741
21
-3.28112
0
LINE
8
BLACK
6
CONTINUOUS
10
6.83741
20
-3.28112
11
6.83723
21
-3.28092
0
LINE
8
BLACK
6
CONTINUOUS
10
6.83723
20
-3.28092
11
6.83648
21
-3.27867
0
LINE
8
BLACK
6
CONTINUOUS
10
6.83648
20
-3.27867
11
6.83649
21
-3.27847
0
LINE
8
BLACK
6
CONTINUOUS
10
6.83649
20
-3.27847
11
6.83641
21
-3.27829
0
LINE
8
BLACK
6
CONTINUOUS
10
6.83641
20
-3.27829
11
6.83641
21
-3.27679
0
LINE
8
BLACK
6
CONTINUOUS
10
6.83641
20
-3.27679
11
6.83649
21
-3.27661
0
LINE
8
BLACK
6
CONTINUOUS
10
6.83649
20
-3.27661
11
6.83648
21
-3.27642
0
LINE
8
BLACK
6
CONTINUOUS
10
6.83648
20
-3.27642
11
6.83723
21
-3.27417
0
LINE
8
BLACK
6
CONTINUOUS
10
6.83723
20
-3.27417
11
6.83741
21
-3.27396
0
LINE
8
BLACK
6
CONTINUOUS
10
6.83741
20
-3.27396
11
6.83751
21
-3.27371
0
LINE
8
BLACK
6
CONTINUOUS
10
6.83751
20
-3.27371
11
6.83826
21
-3.27296
0
LINE
8
BLACK
6
CONTINUOUS
10
6.83826
20
-3.27296
11
6.8391
21
-3.27261
0
LINE
8
BLACK
6
CONTINUOUS
10
6.8391
20
-3.27261
11
6.83993
21
-3.27296
0
LINE
8
BLACK
6
CONTINUOUS
10
6.83993
20
-3.27296
11
6.84028
21
-3.27379
0
LINE
8
BLACK
6
CONTINUOUS
10
6.84028
20
-3.27379
11
6.83993
21
-3.27463
0
LINE
8
BLACK
6
CONTINUOUS
10
6.83993
20
-3.27463
11
6.83938
21
-3.27518
0
LINE
8
BLACK
6
CONTINUOUS
10
6.83938
20
-3.27518
11
6.83878
21
-3.27698
0
LINE
8
BLACK
6
CONTINUOUS
10
6.83878
20
-3.27698
11
6.83878
21
-3.2781
0
LINE
8
BLACK
6
CONTINUOUS
10
6.83878
20
-3.2781
11
6.83938
21
-3.2799
0
LINE
8
BLACK
6
CONTINUOUS
10
6.83938
20
-3.2799
11
6.84054
21
-3.28107
0
LINE
8
BLACK
6
CONTINUOUS
10
6.84054
20
-3.28107
11
6.84176
21
-3.28168
0
LINE
8
BLACK
6
CONTINUOUS
10
6.84176
20
-3.28168
11
6.84449
21
-3.28236
0
LINE
8
BLACK
6
CONTINUOUS
10
6.84449
20
-3.28236
11
6.84645
21
-3.28236
0
LINE
8
BLACK
6
CONTINUOUS
10
6.84645
20
-3.28236
11
6.84918
21
-3.28168
0
LINE
8
BLACK
6
CONTINUOUS
10
6.84918
20
-3.28168
11
6.85039
21
-3.28107
0
LINE
8
BLACK
6
CONTINUOUS
10
6.85039
20
-3.28107
11
6.85156
21
-3.2799
0
LINE
8
BLACK
6
CONTINUOUS
10
6.85156
20
-3.2799
11
6.85216
21
-3.2781
0
LINE
8
BLACK
6
CONTINUOUS
10
6.85216
20
-3.2781
11
6.85216
21
-3.27698
0
LINE
8
BLACK
6
CONTINUOUS
10
6.85216
20
-3.27698
11
6.85156
21
-3.27518
0
LINE
8
BLACK
6
CONTINUOUS
10
6.85156
20
-3.27518
11
6.85101
21
-3.27463
0
LINE
8
BLACK
6
CONTINUOUS
10
6.85101
20
-3.27463
11
6.85066
21
-3.27379
0
LINE
8
BLACK
6
CONTINUOUS
10
6.85066
20
-3.27379
11
6.85101
21
-3.27296
0
LINE
8
BLACK
6
CONTINUOUS
10
6.85101
20
-3.27296
11
6.85184
21
-3.27261
0
LINE
8
BLACK
6
CONTINUOUS
10
6.85184
20
-3.27261
11
6.85268
21
-3.27296
0
LINE
8
BLACK
6
CONTINUOUS
10
6.8506
20
-3.25697
11
6.85087
21
-3.25699
0
LINE
8
BLACK
6
CONTINUOUS
10
6.85087
20
-3.25699
11
6.85237
21
-3.25774
0
LINE
8
BLACK
6
CONTINUOUS
10
6.85237
20
-3.25774
11
6.8525
21
-3.25788
0
LINE
8
BLACK
6
CONTINUOUS
10
6.8525
20
-3.25788
11
6.85268
21
-3.25796
0
LINE
8
BLACK
6
CONTINUOUS
10
6.85268
20
-3.25796
11
6.85343
21
-3.25871
0
LINE
8
BLACK
6
CONTINUOUS
10
6.85343
20
-3.25871
11
6.8535
21
-3.25889
0
LINE
8
BLACK
6
CONTINUOUS
10
6.8535
20
-3.25889
11
6.85365
21
-3.25902
0
LINE
8
BLACK
6
CONTINUOUS
10
6.85365
20
-3.25902
11
6.8544
21
-3.26052
0
LINE
8
BLACK
6
CONTINUOUS
10
6.8544
20
-3.26052
11
6.85442
21
-3.26079
0
LINE
8
BLACK
6
CONTINUOUS
10
6.85442
20
-3.26079
11
6.85452
21
-3.26104
0
LINE
8
BLACK
6
CONTINUOUS
10
6.85452
20
-3.26104
11
6.85452
21
-3.26704
0
LINE
8
BLACK
6
CONTINUOUS
10
6.85452
20
-3.26704
11
6.85418
21
-3.26788
0
LINE
8
BLACK
6
CONTINUOUS
10
6.85418
20
-3.26788
11
6.85334
21
-3.26822
0
LINE
8
BLACK
6
CONTINUOUS
10
6.85334
20
-3.26822
11
6.84509
21
-3.26822
0
LINE
8
BLACK
6
CONTINUOUS
10
6.84509
20
-3.26822
11
6.8376
21
-3.26822
0
LINE
8
BLACK
6
CONTINUOUS
10
6.8376
20
-3.26822
11
6.83676
21
-3.26788
0
LINE
8
BLACK
6
CONTINUOUS
10
6.83676
20
-3.26788
11
6.83641
21
-3.26704
0
LINE
8
BLACK
6
CONTINUOUS
10
6.83641
20
-3.26704
11
6.83641
21
-3.26179
0
LINE
8
BLACK
6
CONTINUOUS
10
6.83641
20
-3.26179
11
6.83652
21
-3.26154
0
LINE
8
BLACK
6
CONTINUOUS
10
6.83652
20
-3.26154
11
6.83654
21
-3.26127
0
LINE
8
BLACK
6
CONTINUOUS
10
6.83654
20
-3.26127
11
6.83729
21
-3.25977
0
LINE
8
BLACK
6
CONTINUOUS
10
6.83729
20
-3.25977
11
6.83744
21
-3.25964
0
LINE
8
BLACK
6
CONTINUOUS
10
6.83744
20
-3.25964
11
6.83751
21
-3.25946
0
LINE
8
BLACK
6
CONTINUOUS
10
6.83751
20
-3.25946
11
6.83826
21
-3.25871
0
LINE
8
BLACK
6
CONTINUOUS
10
6.83826
20
-3.25871
11
6.83844
21
-3.25863
0
LINE
8
BLACK
6
CONTINUOUS
10
6.83844
20
-3.25863
11
6.83857
21
-3.25849
0
LINE
8
BLACK
6
CONTINUOUS
10
6.83857
20
-3.25849
11
6.84007
21
-3.25774
0
LINE
8
BLACK
6
CONTINUOUS
10
6.84007
20
-3.25774
11
6.84034
21
-3.25772
0
LINE
8
BLACK
6
CONTINUOUS
10
6.84034
20
-3.25772
11
6.8406
21
-3.25761
0
LINE
8
BLACK
6
CONTINUOUS
10
6.8406
20
-3.25761
11
6.84209
21
-3.25761
0
LINE
8
BLACK
6
CONTINUOUS
10
6.84209
20
-3.25761
11
6.84235
21
-3.25772
0
LINE
8
BLACK
6
CONTINUOUS
10
6.84235
20
-3.25772
11
6.84262
21
-3.25774
0
LINE
8
BLACK
6
CONTINUOUS
10
6.84262
20
-3.25774
11
6.84412
21
-3.25849
0
LINE
8
BLACK
6
CONTINUOUS
10
6.84412
20
-3.25849
11
6.84425
21
-3.25863
0
LINE
8
BLACK
6
CONTINUOUS
10
6.84425
20
-3.25863
11
6.84443
21
-3.25871
0
LINE
8
BLACK
6
CONTINUOUS
10
6.84443
20
-3.25871
11
6.8448
21
-3.25908
0
LINE
8
BLACK
6
CONTINUOUS
10
6.8448
20
-3.25908
11
6.8449
21
-3.25896
0
LINE
8
BLACK
6
CONTINUOUS
10
6.8449
20
-3.25896
11
6.84501
21
-3.25871
0
LINE
8
BLACK
6
CONTINUOUS
10
6.84501
20
-3.25871
11
6.84576
21
-3.25796
0
LINE
8
BLACK
6
CONTINUOUS
10
6.84576
20
-3.25796
11
6.84594
21
-3.25788
0
LINE
8
BLACK
6
CONTINUOUS
10
6.84594
20
-3.25788
11
6.84607
21
-3.25774
0
LINE
8
BLACK
6
CONTINUOUS
10
6.84607
20
-3.25774
11
6.84757
21
-3.25699
0
LINE
8
BLACK
6
CONTINUOUS
10
6.84757
20
-3.25699
11
6.84784
21
-3.25697
0
LINE
8
BLACK
6
CONTINUOUS
10
6.84784
20
-3.25697
11
6.84809
21
-3.25686
0
LINE
8
BLACK
6
CONTINUOUS
10
6.84809
20
-3.25686
11
6.85034
21
-3.25686
0
LINE
8
BLACK
6
CONTINUOUS
10
6.85034
20
-3.25686
11
6.8506
21
-3.25697
0
LINE
8
BLACK
6
CONTINUOUS
10
6.8398
20
-3.26052
11
6.83932
21
-3.26099
0
LINE
8
BLACK
6
CONTINUOUS
10
6.83932
20
-3.26099
11
6.83878
21
-3.26207
0
LINE
8
BLACK
6
CONTINUOUS
10
6.83878
20
-3.26207
11
6.83878
21
-3.26586
0
LINE
8
BLACK
6
CONTINUOUS
10
6.83878
20
-3.26586
11
6.84391
21
-3.26586
0
LINE
8
BLACK
6
CONTINUOUS
10
6.84391
20
-3.26586
11
6.84391
21
-3.26207
0
LINE
8
BLACK
6
CONTINUOUS
10
6.84391
20
-3.26207
11
6.84337
21
-3.26099
0
LINE
8
BLACK
6
CONTINUOUS
10
6.84337
20
-3.26099
11
6.8429
21
-3.26052
0
LINE
8
BLACK
6
CONTINUOUS
10
6.8429
20
-3.26052
11
6.84182
21
-3.25998
0
LINE
8
BLACK
6
CONTINUOUS
10
6.84182
20
-3.25998
11
6.84087
21
-3.25998
0
LINE
8
BLACK
6
CONTINUOUS
10
6.84087
20
-3.25998
11
6.8398
21
-3.26052
0
LINE
8
BLACK
6
CONTINUOUS
10
6.84729
20
-3.25977
11
6.84688
21
-3.26018
0
LINE
8
BLACK
6
CONTINUOUS
10
6.84688
20
-3.26018
11
6.84628
21
-3.26199
0
LINE
8
BLACK
6
CONTINUOUS
10
6.84628
20
-3.26199
11
6.84628
21
-3.26586
0
LINE
8
BLACK
6
CONTINUOUS
10
6.84628
20
-3.26586
11
6.85216
21
-3.26586
0
LINE
8
BLACK
6
CONTINUOUS
10
6.85216
20
-3.26586
11
6.85216
21
-3.26132
0
LINE
8
BLACK
6
CONTINUOUS
10
6.85216
20
-3.26132
11
6.85162
21
-3.26024
0
LINE
8
BLACK
6
CONTINUOUS
10
6.85162
20
-3.26024
11
6.85114
21
-3.25977
0
LINE
8
BLACK
6
CONTINUOUS
10
6.85114
20
-3.25977
11
6.85007
21
-3.25923
0
LINE
8
BLACK
6
CONTINUOUS
10
6.85007
20
-3.25923
11
6.84837
21
-3.25923
0
LINE
8
BLACK
6
CONTINUOUS
10
6.84837
20
-3.25923
11
6.84729
21
-3.25977
0
LINE
8
BLACK
6
CONTINUOUS
10
6.84691
20
-3.2315
11
6.84725
21
-3.23157
0
LINE
8
BLACK
6
CONTINUOUS
10
6.84725
20
-3.23157
11
6.84732
21
-3.23167
0
LINE
8
BLACK
6
CONTINUOUS
10
6.84732
20
-3.23167
11
6.84743
21
-3.23171
0
LINE
8
BLACK
6
CONTINUOUS
10
6.84743
20
-3.23171
11
6.84756
21
-3.23203
0
LINE
8
BLACK
6
CONTINUOUS
10
6.84756
20
-3.23203
11
6.84775
21
-3.23232
0
LINE
8
BLACK
6
CONTINUOUS
10
6.84775
20
-3.23232
11
6.84906
21
-3.23887
0
LINE
8
BLACK
6
CONTINUOUS
10
6.84906
20
-3.23887
11
6.85082
21
-3.23887
0
LINE
8
BLACK
6
CONTINUOUS
10
6.85082
20
-3.23887
11
6.85171
21
-3.23842
0
LINE
8
BLACK
6
CONTINUOUS
10
6.85171
20
-3.23842
11
6.85216
21
-3.23752
0
LINE
8
BLACK
6
CONTINUOUS
10
6.85216
20
-3.23752
11
6.85216
21
-3.23508
0
LINE
8
BLACK
6
CONTINUOUS
10
6.85216
20
-3.23508
11
6.85154
21
-3.23383
0
LINE
8
BLACK
6
CONTINUOUS
10
6.85154
20
-3.23383
11
6.85147
21
-3.23292
0
LINE
8
BLACK
6
CONTINUOUS
10
6.85147
20
-3.23292
11
6.85207
21
-3.23224
0
LINE
8
BLACK
6
CONTINUOUS
10
6.85207
20
-3.23224
11
6.85297
21
-3.23218
0
LINE
8
BLACK
6
CONTINUOUS
10
6.85297
20
-3.23218
11
6.85365
21
-3.23277
0
LINE
8
BLACK
6
CONTINUOUS
10
6.85365
20
-3.23277
11
6.8544
21
-3.23427
0
LINE
8
BLACK
6
CONTINUOUS
10
6.8544
20
-3.23427
11
6.85442
21
-3.23454
0
LINE
8
BLACK
6
CONTINUOUS
10
6.85442
20
-3.23454
11
6.85452
21
-3.2348
0
LINE
8
BLACK
6
CONTINUOUS
10
6.85452
20
-3.2348
11
6.85452
21
-3.2378
0
LINE
8
BLACK
6
CONTINUOUS
10
6.85452
20
-3.2378
11
6.85442
21
-3.23805
0
LINE
8
BLACK
6
CONTINUOUS
10
6.85442
20
-3.23805
11
6.8544
21
-3.23833
0
LINE
8
BLACK
6
CONTINUOUS
10
6.8544
20
-3.23833
11
6.85365
21
-3.23983
0
LINE
8
BLACK
6
CONTINUOUS
10
6.85365
20
-3.23983
11
6.85337
21
-3.24007
0
LINE
8
BLACK
6
CONTINUOUS
10
6.85337
20
-3.24007
11
6.85312
21
-3.24035
0
LINE
8
BLACK
6
CONTINUOUS
10
6.85312
20
-3.24035
11
6.85162
21
-3.2411
0
LINE
8
BLACK
6
CONTINUOUS
10
6.85162
20
-3.2411
11
6.85135
21
-3.24112
0
LINE
8
BLACK
6
CONTINUOUS
10
6.85135
20
-3.24112
11
6.85109
21
-3.24123
0
LINE
8
BLACK
6
CONTINUOUS
10
6.85109
20
-3.24123
11
6.84509
21
-3.24123
0
LINE
8
BLACK
6
CONTINUOUS
10
6.84509
20
-3.24123
11
6.84484
21
-3.24112
0
LINE
8
BLACK
6
CONTINUOUS
10
6.84484
20
-3.24112
11
6.84457
21
-3.2411
0
LINE
8
BLACK
6
CONTINUOUS
10
6.84457
20
-3.2411
11
6.84307
21
-3.24035
0
LINE
8
BLACK
6
CONTINUOUS
10
6.84307
20
-3.24035
11
6.84282
21
-3.24007
0
LINE
8
BLACK
6
CONTINUOUS
10
6.84282
20
-3.24007
11
6.84254
21
-3.23983
0
LINE
8
BLACK
6
CONTINUOUS
10
6.84254
20
-3.23983
11
6.84179
21
-3.23833
0
LINE
8
BLACK
6
CONTINUOUS
10
6.84179
20
-3.23833
11
6.84177
21
-3.23805
0
LINE
8
BLACK
6
CONTINUOUS
10
6.84177
20
-3.23805
11
6.84166
21
-3.2378
0
LINE
8
BLACK
6
CONTINUOUS
10
6.84166
20
-3.2378
11
6.84166
21
-3.2348
0
LINE
8
BLACK
6
CONTINUOUS
10
6.84166
20
-3.2348
11
6.84177
21
-3.23454
0
LINE
8
BLACK
6
CONTINUOUS
10
6.84177
20
-3.23454
11
6.84179
21
-3.23427
0
LINE
8
BLACK
6
CONTINUOUS
10
6.84179
20
-3.23427
11
6.84254
21
-3.23277
0
LINE
8
BLACK
6
CONTINUOUS
10
6.84254
20
-3.23277
11
6.84282
21
-3.23252
0
LINE
8
BLACK
6
CONTINUOUS
10
6.84282
20
-3.23252
11
6.84307
21
-3.23224
0
LINE
8
BLACK
6
CONTINUOUS
10
6.84307
20
-3.23224
11
6.84457
21
-3.23149
0
LINE
8
BLACK
6
CONTINUOUS
10
6.84457
20
-3.23149
11
6.84484
21
-3.23147
0
LINE
8
BLACK
6
CONTINUOUS
10
6.84484
20
-3.23147
11
6.84509
21
-3.23137
0
LINE
8
BLACK
6
CONTINUOUS
10
6.84509
20
-3.23137
11
6.84659
21
-3.23137
0
LINE
8
BLACK
6
CONTINUOUS
10
6.84659
20
-3.23137
11
6.84691
21
-3.2315
0
LINE
8
BLACK
6
CONTINUOUS
10
6.84448
20
-3.23418
11
6.84403
21
-3.23508
0
LINE
8
BLACK
6
CONTINUOUS
10
6.84403
20
-3.23508
11
6.84403
21
-3.23752
0
LINE
8
BLACK
6
CONTINUOUS
10
6.84403
20
-3.23752
11
6.84448
21
-3.23842
0
LINE
8
BLACK
6
CONTINUOUS
10
6.84448
20
-3.23842
11
6.84537
21
-3.23887
0
LINE
8
BLACK
6
CONTINUOUS
10
6.84537
20
-3.23887
11
6.84665
21
-3.23887
0
LINE
8
BLACK
6
CONTINUOUS
10
6.84665
20
-3.23887
11
6.84563
21
-3.23373
0
LINE
8
BLACK
6
CONTINUOUS
10
6.84563
20
-3.23373
11
6.84537
21
-3.23373
0
LINE
8
BLACK
6
CONTINUOUS
10
6.84537
20
-3.23373
11
6.84448
21
-3.23418
0
LINE
8
BLACK
6
CONTINUOUS
10
6.85418
20
-3.21821
11
6.85452
21
-3.21905
0
LINE
8
BLACK
6
CONTINUOUS
10
6.85452
20
-3.21905
11
6.85425
21
-3.21972
0
LINE
8
BLACK
6
CONTINUOUS
10
6.85425
20
-3.21972
11
6.8544
21
-3.22002
0
LINE
8
BLACK
6
CONTINUOUS
10
6.8544
20
-3.22002
11
6.85442
21
-3.2203
0
LINE
8
BLACK
6
CONTINUOUS
10
6.85442
20
-3.2203
11
6.85452
21
-3.22055
0
LINE
8
BLACK
6
CONTINUOUS
10
6.85452
20
-3.22055
11
6.85452
21
-3.22355
0
LINE
8
BLACK
6
CONTINUOUS
10
6.85452
20
-3.22355
11
6.85442
21
-3.2238
0
LINE
8
BLACK
6
CONTINUOUS
10
6.85442
20
-3.2238
11
6.8544
21
-3.22408
0
LINE
8
BLACK
6
CONTINUOUS
10
6.8544
20
-3.22408
11
6.85365
21
-3.22558
0
LINE
8
BLACK
6
CONTINUOUS
10
6.85365
20
-3.22558
11
6.8535
21
-3.2257
0
LINE
8
BLACK
6
CONTINUOUS
10
6.8535
20
-3.2257
11
6.85343
21
-3.22588
0
LINE
8
BLACK
6
CONTINUOUS
10
6.85343
20
-3.22588
11
6.85268
21
-3.22663
0
LINE
8
BLACK
6
CONTINUOUS
10
6.85268
20
-3.22663
11
6.8525
21
-3.22671
0
LINE
8
BLACK
6
CONTINUOUS
10
6.8525
20
-3.22671
11
6.85237
21
-3.22686
0
LINE
8
BLACK
6
CONTINUOUS
10
6.85237
20
-3.22686
11
6.85087
21
-3.2276
0
LINE
8
BLACK
6
CONTINUOUS
10
6.85087
20
-3.2276
11
6.8506
21
-3.22762
0
LINE
8
BLACK
6
CONTINUOUS
10
6.8506
20
-3.22762
11
6.85034
21
-3.22773
0
LINE
8
BLACK
6
CONTINUOUS
10
6.85034
20
-3.22773
11
6.84584
21
-3.22773
0
LINE
8
BLACK
6
CONTINUOUS
10
6.84584
20
-3.22773
11
6.84559
21
-3.22762
0
LINE
8
BLACK
6
CONTINUOUS
10
6.84559
20
-3.22762
11
6.84532
21
-3.2276
0
LINE
8
BLACK
6
CONTINUOUS
10
6.84532
20
-3.2276
11
6.84382
21
-3.22686
0
LINE
8
BLACK
6
CONTINUOUS
10
6.84382
20
-3.22686
11
6.84369
21
-3.22671
0
LINE
8
BLACK
6
CONTINUOUS
10
6.84369
20
-3.22671
11
6.84351
21
-3.22663
0
LINE
8
BLACK
6
CONTINUOUS
10
6.84351
20
-3.22663
11
6.84276
21
-3.22588
0
LINE
8
BLACK
6
CONTINUOUS
10
6.84276
20
-3.22588
11
6.84269
21
-3.2257
0
LINE
8
BLACK
6
CONTINUOUS
10
6.84269
20
-3.2257
11
6.84254
21
-3.22558
0
LINE
8
BLACK
6
CONTINUOUS
10
6.84254
20
-3.22558
11
6.84179
21
-3.22408
0
LINE
8
BLACK
6
CONTINUOUS
10
6.84179
20
-3.22408
11
6.84177
21
-3.2238
0
LINE
8
BLACK
6
CONTINUOUS
10
6.84177
20
-3.2238
11
6.84166
21
-3.22355
0
LINE
8
BLACK
6
CONTINUOUS
10
6.84166
20
-3.22355
11
6.84166
21
-3.22055
0
LINE
8
BLACK
6
CONTINUOUS
10
6.84166
20
-3.22055
11
6.84177
21
-3.2203
0
LINE
8
BLACK
6
CONTINUOUS
10
6.84177
20
-3.2203
11
6.84177
21
-3.22023
0
LINE
8
BLACK
6
CONTINUOUS
10
6.84177
20
-3.22023
11
6.8376
21
-3.22023
0
LINE
8
BLACK
6
CONTINUOUS
10
6.8376
20
-3.22023
11
6.83676
21
-3.21988
0
LINE
8
BLACK
6
CONTINUOUS
10
6.83676
20
-3.21988
11
6.83641
21
-3.21905
0
LINE
8
BLACK
6
CONTINUOUS
10
6.83641
20
-3.21905
11
6.83676
21
-3.21821
0
LINE
8
BLACK
6
CONTINUOUS
10
6.83676
20
-3.21821
11
6.8376
21
-3.21787
0
LINE
8
BLACK
6
CONTINUOUS
10
6.8376
20
-3.21787
11
6.85334
21
-3.21787
0
LINE
8
BLACK
6
CONTINUOUS
10
6.85334
20
-3.21787
11
6.85418
21
-3.21821
0
LINE
8
BLACK
6
CONTINUOUS
10
6.84403
20
-3.22083
11
6.84403
21
-3.22327
0
LINE
8
BLACK
6
CONTINUOUS
10
6.84403
20
-3.22327
11
6.84457
21
-3.22435
0
LINE
8
BLACK
6
CONTINUOUS
10
6.84457
20
-3.22435
11
6.84504
21
-3.22483
0
LINE
8
BLACK
6
CONTINUOUS
10
6.84504
20
-3.22483
11
6.84612
21
-3.22537
0
LINE
8
BLACK
6
CONTINUOUS
10
6.84612
20
-3.22537
11
6.85007
21
-3.22537
0
LINE
8
BLACK
6
CONTINUOUS
10
6.85007
20
-3.22537
11
6.85114
21
-3.22483
0
LINE
8
BLACK
6
CONTINUOUS
10
6.85114
20
-3.22483
11
6.85162
21
-3.22435
0
LINE
8
BLACK
6
CONTINUOUS
10
6.85162
20
-3.22435
11
6.85216
21
-3.22327
0
LINE
8
BLACK
6
CONTINUOUS
10
6.85216
20
-3.22327
11
6.85216
21
-3.22083
0
LINE
8
BLACK
6
CONTINUOUS
10
6.85216
20
-3.22083
11
6.85186
21
-3.22023
0
LINE
8
BLACK
6
CONTINUOUS
10
6.85186
20
-3.22023
11
6.84432
21
-3.22023
0
LINE
8
BLACK
6
CONTINUOUS
10
6.84432
20
-3.22023
11
6.84403
21
-3.22083
0
LINE
8
BLACK
6
CONTINUOUS
10
6.85585
20
-3.20373
11
6.85612
21
-3.20374
0
LINE
8
BLACK
6
CONTINUOUS
10
6.85612
20
-3.20374
11
6.85762
21
-3.20449
0
LINE
8
BLACK
6
CONTINUOUS
10
6.85762
20
-3.20449
11
6.85775
21
-3.20464
0
LINE
8
BLACK
6
CONTINUOUS
10
6.85775
20
-3.20464
11
6.85793
21
-3.20472
0
LINE
8
BLACK
6
CONTINUOUS
10
6.85793
20
-3.20472
11
6.85868
21
-3.20547
0
LINE
8
BLACK
6
CONTINUOUS
10
6.85868
20
-3.20547
11
6.85875
21
-3.20565
0
LINE
8
BLACK
6
CONTINUOUS
10
6.85875
20
-3.20565
11
6.8589
21
-3.20577
0
LINE
8
BLACK
6
CONTINUOUS
10
6.8589
20
-3.20577
11
6.85965
21
-3.20727
0
LINE
8
BLACK
6
CONTINUOUS
10
6.85965
20
-3.20727
11
6.85967
21
-3.20755
0
LINE
8
BLACK
6
CONTINUOUS
10
6.85967
20
-3.20755
11
6.85977
21
-3.2078
0
LINE
8
BLACK
6
CONTINUOUS
10
6.85977
20
-3.2078
11
6.85977
21
-3.21005
0
LINE
8
BLACK
6
CONTINUOUS
10
6.85977
20
-3.21005
11
6.85967
21
-3.2103
0
LINE
8
BLACK
6
CONTINUOUS
10
6.85967
20
-3.2103
11
6.85965
21
-3.21058
0
LINE
8
BLACK
6
CONTINUOUS
10
6.85965
20
-3.21058
11
6.8589
21
-3.21208
0
LINE
8
BLACK
6
CONTINUOUS
10
6.8589
20
-3.21208
11
6.85822
21
-3.21267
0
LINE
8
BLACK
6
CONTINUOUS
10
6.85822
20
-3.21267
11
6.85731
21
-3.21261
0
LINE
8
BLACK
6
CONTINUOUS
10
6.85731
20
-3.21261
11
6.85672
21
-3.21192
0
LINE
8
BLACK
6
CONTINUOUS
10
6.85672
20
-3.21192
11
6.85679
21
-3.21102
0
LINE
8
BLACK
6
CONTINUOUS
10
6.85679
20
-3.21102
11
6.85741
21
-3.20977
0
LINE
8
BLACK
6
CONTINUOUS
10
6.85741
20
-3.20977
11
6.85741
21
-3.20808
0
LINE
8
BLACK
6
CONTINUOUS
10
6.85741
20
-3.20808
11
6.85687
21
-3.207
0
LINE
8
BLACK
6
CONTINUOUS
10
6.85687
20
-3.207
11
6.85639
21
-3.20652
0
LINE
8
BLACK
6
CONTINUOUS
10
6.85639
20
-3.20652
11
6.85531
21
-3.20598
0
LINE
8
BLACK
6
CONTINUOUS
10
6.85531
20
-3.20598
11
6.85441
21
-3.20598
0
LINE
8
BLACK
6
CONTINUOUS
10
6.85441
20
-3.20598
11
6.85442
21
-3.20605
0
LINE
8
BLACK
6
CONTINUOUS
10
6.85442
20
-3.20605
11
6.85452
21
-3.2063
0
LINE
8
BLACK
6
CONTINUOUS
10
6.85452
20
-3.2063
11
6.85452
21
-3.2093
0
LINE
8
BLACK
6
CONTINUOUS
10
6.85452
20
-3.2093
11
6.85442
21
-3.20955
0
LINE
8
BLACK
6
CONTINUOUS
10
6.85442
20
-3.20955
11
6.8544
21
-3.20983
0
LINE
8
BLACK
6
CONTINUOUS
10
6.8544
20
-3.20983
11
6.85365
21
-3.21133
0
LINE
8
BLACK
6
CONTINUOUS
10
6.85365
20
-3.21133
11
6.8535
21
-3.21146
0
LINE
8
BLACK
6
CONTINUOUS
10
6.8535
20
-3.21146
11
6.85343
21
-3.21164
0
LINE
8
BLACK
6
CONTINUOUS
10
6.85343
20
-3.21164
11
6.85268
21
-3.21239
0
LINE
8
BLACK
6
CONTINUOUS
10
6.85268
20
-3.21239
11
6.8525
21
-3.21246
0
LINE
8
BLACK
6
CONTINUOUS
10
6.8525
20
-3.21246
11
6.85237
21
-3.21261
0
LINE
8
BLACK
6
CONTINUOUS
10
6.85237
20
-3.21261
11
6.85087
21
-3.21336
0
LINE
8
BLACK
6
CONTINUOUS
10
6.85087
20
-3.21336
11
6.8506
21
-3.21338
0
LINE
8
BLACK
6
CONTINUOUS
10
6.8506
20
-3.21338
11
6.85034
21
-3.21348
0
LINE
8
BLACK
6
CONTINUOUS
10
6.85034
20
-3.21348
11
6.84584
21
-3.21348
0
LINE
8
BLACK
6
CONTINUOUS
10
6.84584
20
-3.21348
11
6.84559
21
-3.21338
0
LINE
8
BLACK
6
CONTINUOUS
10
6.84559
20
-3.21338
11
6.84532
21
-3.21336
0
LINE
8
BLACK
6
CONTINUOUS
10
6.84532
20
-3.21336
11
6.84382
21
-3.21261
0
LINE
8
BLACK
6
CONTINUOUS
10
6.84382
20
-3.21261
11
6.84369
21
-3.21246
0
LINE
8
BLACK
6
CONTINUOUS
10
6.84369
20
-3.21246
11
6.84351
21
-3.21239
0
LINE
8
BLACK
6
CONTINUOUS
10
6.84351
20
-3.21239
11
6.84276
21
-3.21164
0
LINE
8
BLACK
6
CONTINUOUS
10
6.84276
20
-3.21164
11
6.84269
21
-3.21146
0
LINE
8
BLACK
6
CONTINUOUS
10
6.84269
20
-3.21146
11
6.84254
21
-3.21133
0
LINE
8
BLACK
6
CONTINUOUS
10
6.84254
20
-3.21133
11
6.84179
21
-3.20983
0
LINE
8
BLACK
6
CONTINUOUS
10
6.84179
20
-3.20983
11
6.84177
21
-3.20955
0
LINE
8
BLACK
6
CONTINUOUS
10
6.84177
20
-3.20955
11
6.84166
21
-3.2093
0
LINE
8
BLACK
6
CONTINUOUS
10
6.84166
20
-3.2093
11
6.84166
21
-3.2063
0
LINE
8
BLACK
6
CONTINUOUS
10
6.84166
20
-3.2063
11
6.84177
21
-3.20605
0
LINE
8
BLACK
6
CONTINUOUS
10
6.84177
20
-3.20605
11
6.84179
21
-3.20577
0
LINE
8
BLACK
6
CONTINUOUS
10
6.84179
20
-3.20577
11
6.84194
21
-3.20547
0
LINE
8
BLACK
6
CONTINUOUS
10
6.84194
20
-3.20547
11
6.84166
21
-3.2048
0
LINE
8
BLACK
6
CONTINUOUS
10
6.84166
20
-3.2048
11
6.84201
21
-3.20397
0
LINE
8
BLACK
6
CONTINUOUS
10
6.84201
20
-3.20397
11
6.84284
21
-3.20362
0
LINE
8
BLACK
6
CONTINUOUS
10
6.84284
20
-3.20362
11
6.85559
21
-3.20362
0
LINE
8
BLACK
6
CONTINUOUS
10
6.85559
20
-3.20362
11
6.85585
21
-3.20373
0
LINE
8
BLACK
6
CONTINUOUS
10
6.84403
20
-3.20658
11
6.84403
21
-3.20902
0
LINE
8
BLACK
6
CONTINUOUS
10
6.84403
20
-3.20902
11
6.84457
21
-3.2101
0
LINE
8
BLACK
6
CONTINUOUS
10
6.84457
20
-3.2101
11
6.84504
21
-3.21058
0
LINE
8
BLACK
6
CONTINUOUS
10
6.84504
20
-3.21058
11
6.84612
21
-3.21112
0
LINE
8
BLACK
6
CONTINUOUS
10
6.84612
20
-3.21112
11
6.85007
21
-3.21112
0
LINE
8
BLACK
6
CONTINUOUS
10
6.85007
20
-3.21112
11
6.85114
21
-3.21058
0
LINE
8
BLACK
6
CONTINUOUS
10
6.85114
20
-3.21058
11
6.85162
21
-3.2101
0
LINE
8
BLACK
6
CONTINUOUS
10
6.85162
20
-3.2101
11
6.85216
21
-3.20902
0
LINE
8
BLACK
6
CONTINUOUS
10
6.85216
20
-3.20902
11
6.85216
21
-3.20658
0
LINE
8
BLACK
6
CONTINUOUS
10
6.85216
20
-3.20658
11
6.85186
21
-3.20598
0
LINE
8
BLACK
6
CONTINUOUS
10
6.85186
20
-3.20598
11
6.84432
21
-3.20598
0
LINE
8
BLACK
6
CONTINUOUS
10
6.84432
20
-3.20598
11
6.84403
21
-3.20658
0
LINE
8
BLACK
6
CONTINUOUS
10
6.84691
20
-3.1895
11
6.84725
21
-3.18957
0
LINE
8
BLACK
6
CONTINUOUS
10
6.84725
20
-3.18957
11
6.84732
21
-3.18967
0
LINE
8
BLACK
6
CONTINUOUS
10
6.84732
20
-3.18967
11
6.84743
21
-3.18972
0
LINE
8
BLACK
6
CONTINUOUS
10
6.84743
20
-3.18972
11
6.84756
21
-3.19004
0
LINE
8
BLACK
6
CONTINUOUS
10
6.84756
20
-3.19004
11
6.84775
21
-3.19032
0
LINE
8
BLACK
6
CONTINUOUS
10
6.84775
20
-3.19032
11
6.84906
21
-3.19687
0
LINE
8
BLACK
6
CONTINUOUS
10
6.84906
20
-3.19687
11
6.85082
21
-3.19687
0
LINE
8
BLACK
6
CONTINUOUS
10
6.85082
20
-3.19687
11
6.85171
21
-3.19642
0
LINE
8
BLACK
6
CONTINUOUS
10
6.85171
20
-3.19642
11
6.85216
21
-3.19552
0
LINE
8
BLACK
6
CONTINUOUS
10
6.85216
20
-3.19552
11
6.85216
21
-3.19308
0
LINE
8
BLACK
6
CONTINUOUS
10
6.85216
20
-3.19308
11
6.85154
21
-3.19183
0
LINE
8
BLACK
6
CONTINUOUS
10
6.85154
20
-3.19183
11
6.85147
21
-3.19093
0
LINE
8
BLACK
6
CONTINUOUS
10
6.85147
20
-3.19093
11
6.85207
21
-3.19025
0
LINE
8
BLACK
6
CONTINUOUS
10
6.85207
20
-3.19025
11
6.85297
21
-3.19018
0
LINE
8
BLACK
6
CONTINUOUS
10
6.85297
20
-3.19018
11
6.85365
21
-3.19077
0
LINE
8
BLACK
6
CONTINUOUS
10
6.85365
20
-3.19077
11
6.8544
21
-3.19227
0
LINE
8
BLACK
6
CONTINUOUS
10
6.8544
20
-3.19227
11
6.85442
21
-3.19255
0
LINE
8
BLACK
6
CONTINUOUS
10
6.85442
20
-3.19255
11
6.85452
21
-3.1928
0
LINE
8
BLACK
6
CONTINUOUS
10
6.85452
20
-3.1928
11
6.85452
21
-3.1958
0
LINE
8
BLACK
6
CONTINUOUS
10
6.85452
20
-3.1958
11
6.85442
21
-3.19606
0
LINE
8
BLACK
6
CONTINUOUS
10
6.85442
20
-3.19606
11
6.8544
21
-3.19633
0
LINE
8
BLACK
6
CONTINUOUS
10
6.8544
20
-3.19633
11
6.85365
21
-3.19783
0
LINE
8
BLACK
6
CONTINUOUS
10
6.85365
20
-3.19783
11
6.85337
21
-3.19808
0
LINE
8
BLACK
6
CONTINUOUS
10
6.85337
20
-3.19808
11
6.85312
21
-3.19836
0
LINE
8
BLACK
6
CONTINUOUS
10
6.85312
20
-3.19836
11
6.85162
21
-3.19911
0
LINE
8
BLACK
6
CONTINUOUS
10
6.85162
20
-3.19911
11
6.85135
21
-3.19913
0
LINE
8
BLACK
6
CONTINUOUS
10
6.85135
20
-3.19913
11
6.85109
21
-3.19923
0
LINE
8
BLACK
6
CONTINUOUS
10
6.85109
20
-3.19923
11
6.84509
21
-3.19923
0
LINE
8
BLACK
6
CONTINUOUS
10
6.84509
20
-3.19923
11
6.84484
21
-3.19913
0
LINE
8
BLACK
6
CONTINUOUS
10
6.84484
20
-3.19913
11
6.84457
21
-3.19911
0
LINE
8
BLACK
6
CONTINUOUS
10
6.84457
20
-3.19911
11
6.84307
21
-3.19836
0
LINE
8
BLACK
6
CONTINUOUS
10
6.84307
20
-3.19836
11
6.84282
21
-3.19808
0
LINE
8
BLACK
6
CONTINUOUS
10
6.84282
20
-3.19808
11
6.84254
21
-3.19783
0
LINE
8
BLACK
6
CONTINUOUS
10
6.84254
20
-3.19783
11
6.84179
21
-3.19633
0
LINE
8
BLACK
6
CONTINUOUS
10
6.84179
20
-3.19633
11
6.84177
21
-3.19606
0
LINE
8
BLACK
6
CONTINUOUS
10
6.84177
20
-3.19606
11
6.84166
21
-3.1958
0
LINE
8
BLACK
6
CONTINUOUS
10
6.84166
20
-3.1958
11
6.84166
21
-3.1928
0
LINE
8
BLACK
6
CONTINUOUS
10
6.84166
20
-3.1928
11
6.84177
21
-3.19255
0
LINE
8
BLACK
6
CONTINUOUS
10
6.84177
20
-3.19255
11
6.84179
21
-3.19227
0
LINE
8
BLACK
6
CONTINUOUS
10
6.84179
20
-3.19227
11
6.84254
21
-3.19077
0
LINE
8
BLACK
6
CONTINUOUS
10
6.84254
20
-3.19077
11
6.84282
21
-3.19053
0
LINE
8
BLACK
6
CONTINUOUS
10
6.84282
20
-3.19053
11
6.84307
21
-3.19025
0
LINE
8
BLACK
6
CONTINUOUS
10
6.84307
20
-3.19025
11
6.84457
21
-3.1895
0
LINE
8
BLACK
6
CONTINUOUS
10
6.84457
20
-3.1895
11
6.84484
21
-3.18948
0
LINE
8
BLACK
6
CONTINUOUS
10
6.84484
20
-3.18948
11
6.84509
21
-3.18937
0
LINE
8
BLACK
6
CONTINUOUS
10
6.84509
20
-3.18937
11
6.84659
21
-3.18937
0
LINE
8
BLACK
6
CONTINUOUS
10
6.84659
20
-3.18937
11
6.84691
21
-3.1895
0
LINE
8
BLACK
6
CONTINUOUS
10
6.84448
20
-3.19218
11
6.84403
21
-3.19308
0
LINE
8
BLACK
6
CONTINUOUS
10
6.84403
20
-3.19308
11
6.84403
21
-3.19552
0
LINE
8
BLACK
6
CONTINUOUS
10
6.84403
20
-3.19552
11
6.84448
21
-3.19642
0
LINE
8
BLACK
6
CONTINUOUS
10
6.84448
20
-3.19642
11
6.84537
21
-3.19687
0
LINE
8
BLACK
6
CONTINUOUS
10
6.84537
20
-3.19687
11
6.84665
21
-3.19687
0
LINE
8
BLACK
6
CONTINUOUS
10
6.84665
20
-3.19687
11
6.84563
21
-3.19173
0
LINE
8
BLACK
6
CONTINUOUS
10
6.84563
20
-3.19173
11
6.84537
21
-3.19173
0
LINE
8
BLACK
6
CONTINUOUS
10
6.84537
20
-3.19173
11
6.84448
21
-3.19218
  0
ENDSEC
  0
EOF
