  0
SECTION
  2
HEADER
  9
$ANGBASE
  50
0.0
  9
$ANGDIR
  70
1
  9
$MEASUREMENT
  70
0
  0
ENDSEC
  0
SECTION
  2
TABLES
  0
TABLE
  2
LTYPE
  70
4
  0
LTYPE
  5
40F
  2
CONTINUOUS
  70
0
  3
Solid line
  72
65
  73
0
  40
0.0
  0
LTYPE
  5
410
  2
DASHDOT
 70
0
  3
Dash Dot ____ _ ____ _
 72
65
 73
4
 40
2.0
 49
1.25
 49
-0.25
 49
0.25
 49
-0.25
  0
LTYPE
  5
411
  2
DASHED
 70
0
  3
Dashed __ __ __ __ __
 72
65
 73
2
 40
0.75
 49
0.5
 49
-0.25
  0
LTYPE
  5
43B
  2
DOTTED
 70
0
  3
Dotted .  .  .  .
 72
65
 73
2
 40
0.2
 49
0.0
 49
-0.2
  0
ENDTAB
  0
TABLE
  2
STYLE
  70
4
  0
STYLE
  2
KICAD
  70
0
  40
0
  41
1
  42
1
  50
0
  71
0
  3
isocp.shx
  0
STYLE
  2
KICADB
  70
0
  40
0
  41
1
  42
1
  50
0
  71
0
  3
isocp.shx
  0
STYLE
  2
KICADI
  70
0
  40
0
  41
1
  42
1
  50
15
  71
0
  3
isocp.shx
  0
STYLE
  2
KICADBI
  70
0
  40
0
  41
1
  42
1
  50
15
  71
0
  3
isocp.shx
  0
ENDTAB
  0
TABLE
  2
LAYER
  70
1
  0
LAYER
  2
BLACK
  70
0
  62
7
  6
CONTINUOUS
  0
ENDTAB
  0
ENDSEC
  0
SECTION
  2
ENTITIES
0
LINE
8
BLACK
6
CONTINUOUS
10
2.45563
20
0.237827
11
2.45732
21
0.235276
0
LINE
8
BLACK
6
CONTINUOUS
10
2.45732
20
0.235276
11
2.4575
21
0.232224
0
LINE
8
BLACK
6
CONTINUOUS
10
2.4575
20
0.232224
11
2.45613
21
0.22949
0
LINE
8
BLACK
6
CONTINUOUS
10
2.45613
20
0.22949
11
2.45358
21
0.227806
0
LINE
8
BLACK
6
CONTINUOUS
10
2.45358
20
0.227806
11
2.44075
21
0.223528
0
LINE
8
BLACK
6
CONTINUOUS
10
2.44075
20
0.223528
11
2.44075
21
0.203919
0
LINE
8
BLACK
6
CONTINUOUS
10
2.44075
20
0.203919
11
2.45358
21
0.199641
0
LINE
8
BLACK
6
CONTINUOUS
10
2.45358
20
0.199641
11
2.45613
21
0.197956
0
LINE
8
BLACK
6
CONTINUOUS
10
2.45613
20
0.197956
11
2.4575
21
0.195222
0
LINE
8
BLACK
6
CONTINUOUS
10
2.4575
20
0.195222
11
2.45732
21
0.192171
0
LINE
8
BLACK
6
CONTINUOUS
10
2.45732
20
0.192171
11
2.45563
21
0.18962
0
LINE
8
BLACK
6
CONTINUOUS
10
2.45563
20
0.18962
11
2.4529
21
0.188253
0
LINE
8
BLACK
6
CONTINUOUS
10
2.4529
20
0.188253
11
2.44985
21
0.188436
0
LINE
8
BLACK
6
CONTINUOUS
10
2.44985
20
0.188436
11
2.39079
21
0.208121
0
LINE
8
BLACK
6
CONTINUOUS
10
2.39079
20
0.208121
11
2.3898
21
0.208774
0
LINE
8
BLACK
6
CONTINUOUS
10
2.3898
20
0.208774
11
2.38874
21
0.209305
0
LINE
8
BLACK
6
CONTINUOUS
10
2.38874
20
0.209305
11
2.38854
21
0.209606
0
LINE
8
BLACK
6
CONTINUOUS
10
2.38854
20
0.209606
11
2.38824
21
0.209805
0
LINE
8
BLACK
6
CONTINUOUS
10
2.38824
20
0.209805
11
2.38771
21
0.210866
0
LINE
8
BLACK
6
CONTINUOUS
10
2.38771
20
0.210866
11
2.38706
21
0.211856
0
LINE
8
BLACK
6
CONTINUOUS
10
2.38706
20
0.211856
11
2.38704
21
0.212216
0
LINE
8
BLACK
6
CONTINUOUS
10
2.38704
20
0.212216
11
2.38687
21
0.212539
0
LINE
8
BLACK
6
CONTINUOUS
10
2.38687
20
0.212539
11
2.38695
21
0.213723
0
LINE
8
BLACK
6
CONTINUOUS
10
2.38695
20
0.213723
11
2.38687
21
0.214907
0
LINE
8
BLACK
6
CONTINUOUS
10
2.38687
20
0.214907
11
2.38704
21
0.21523
0
LINE
8
BLACK
6
CONTINUOUS
10
2.38704
20
0.21523
11
2.38706
21
0.215591
0
LINE
8
BLACK
6
CONTINUOUS
10
2.38706
20
0.215591
11
2.38771
21
0.21658
0
LINE
8
BLACK
6
CONTINUOUS
10
2.38771
20
0.21658
11
2.38824
21
0.217641
0
LINE
8
BLACK
6
CONTINUOUS
10
2.38824
20
0.217641
11
2.38854
21
0.21784
0
LINE
8
BLACK
6
CONTINUOUS
10
2.38854
20
0.21784
11
2.38874
21
0.218142
0
LINE
8
BLACK
6
CONTINUOUS
10
2.38874
20
0.218142
11
2.3898
21
0.218672
0
LINE
8
BLACK
6
CONTINUOUS
10
2.3898
20
0.218672
11
2.39079
21
0.219326
0
LINE
8
BLACK
6
CONTINUOUS
10
2.39079
20
0.219326
11
2.44985
21
0.239011
0
LINE
8
BLACK
6
CONTINUOUS
10
2.44985
20
0.239011
11
2.4529
21
0.239194
0
LINE
8
BLACK
6
CONTINUOUS
10
2.4529
20
0.239194
11
2.45563
21
0.237827
0
LINE
8
BLACK
6
CONTINUOUS
10
2.41134
20
0.213723
11
2.42894
21
0.207856
0
LINE
8
BLACK
6
CONTINUOUS
10
2.42894
20
0.207856
11
2.42894
21
0.219591
0
LINE
8
BLACK
6
CONTINUOUS
10
2.42894
20
0.219591
11
2.41134
21
0.213723
0
LINE
8
BLACK
6
CONTINUOUS
10
2.04521
20
0.282894
11
2.04654
21
0.282622
0
LINE
8
BLACK
6
CONTINUOUS
10
2.04654
20
0.282622
11
2.05216
21
0.27981
0
LINE
8
BLACK
6
CONTINUOUS
10
2.05216
20
0.27981
11
2.05287
21
0.279179
0
LINE
8
BLACK
6
CONTINUOUS
10
2.05287
20
0.279179
11
2.0537
21
0.278703
0
LINE
8
BLACK
6
CONTINUOUS
10
2.0537
20
0.278703
11
2.05651
21
0.275891
0
LINE
8
BLACK
6
CONTINUOUS
10
2.05651
20
0.275891
11
2.05699
21
0.275068
0
LINE
8
BLACK
6
CONTINUOUS
10
2.05699
20
0.275068
11
2.05762
21
0.274356
0
LINE
8
BLACK
6
CONTINUOUS
10
2.05762
20
0.274356
11
2.06043
21
0.268732
0
LINE
8
BLACK
6
CONTINUOUS
10
2.06043
20
0.268732
11
2.06056
21
0.268093
0
LINE
8
BLACK
6
CONTINUOUS
10
2.06056
20
0.268093
11
2.06088
21
0.267523
0
LINE
8
BLACK
6
CONTINUOUS
10
2.06088
20
0.267523
11
2.06369
21
0.256275
0
LINE
8
BLACK
6
CONTINUOUS
10
2.06369
20
0.256275
11
2.06368
21
0.255546
0
LINE
8
BLACK
6
CONTINUOUS
10
2.06368
20
0.255546
11
2.06386
21
0.254843
0
LINE
8
BLACK
6
CONTINUOUS
10
2.06386
20
0.254843
11
2.06386
21
0.240782
0
LINE
8
BLACK
6
CONTINUOUS
10
2.06386
20
0.240782
11
2.06368
21
0.240078
0
LINE
8
BLACK
6
CONTINUOUS
10
2.06368
20
0.240078
11
2.06369
21
0.239349
0
LINE
8
BLACK
6
CONTINUOUS
10
2.06369
20
0.239349
11
2.06088
21
0.228101
0
LINE
8
BLACK
6
CONTINUOUS
10
2.06088
20
0.228101
11
2.06056
21
0.227531
0
LINE
8
BLACK
6
CONTINUOUS
10
2.06056
20
0.227531
11
2.06043
21
0.226892
0
LINE
8
BLACK
6
CONTINUOUS
10
2.06043
20
0.226892
11
2.05762
21
0.221268
0
LINE
8
BLACK
6
CONTINUOUS
10
2.05762
20
0.221268
11
2.05699
21
0.220556
0
LINE
8
BLACK
6
CONTINUOUS
10
2.05699
20
0.220556
11
2.05651
21
0.219733
0
LINE
8
BLACK
6
CONTINUOUS
10
2.05651
20
0.219733
11
2.0537
21
0.216921
0
LINE
8
BLACK
6
CONTINUOUS
10
2.0537
20
0.216921
11
2.05287
21
0.216445
0
LINE
8
BLACK
6
CONTINUOUS
10
2.05287
20
0.216445
11
2.05216
21
0.215815
0
LINE
8
BLACK
6
CONTINUOUS
10
2.05216
20
0.215815
11
2.04654
21
0.213003
0
LINE
8
BLACK
6
CONTINUOUS
10
2.04654
20
0.213003
11
2.04521
21
0.21273
0
LINE
8
BLACK
6
CONTINUOUS
10
2.04521
20
0.21273
11
2.0439
21
0.212379
0
LINE
8
BLACK
6
CONTINUOUS
10
2.0439
20
0.212379
11
2.03827
21
0.212379
0
LINE
8
BLACK
6
CONTINUOUS
10
2.03827
20
0.212379
11
2.03696
21
0.21273
0
LINE
8
BLACK
6
CONTINUOUS
10
2.03696
20
0.21273
11
2.03563
21
0.213003
0
LINE
8
BLACK
6
CONTINUOUS
10
2.03563
20
0.213003
11
2.03001
21
0.215815
0
LINE
8
BLACK
6
CONTINUOUS
10
2.03001
20
0.215815
11
2.0293
21
0.216445
0
LINE
8
BLACK
6
CONTINUOUS
10
2.0293
20
0.216445
11
2.02847
21
0.216921
0
LINE
8
BLACK
6
CONTINUOUS
10
2.02847
20
0.216921
11
2.02566
21
0.219733
0
LINE
8
BLACK
6
CONTINUOUS
10
2.02566
20
0.219733
11
2.02519
21
0.220556
0
LINE
8
BLACK
6
CONTINUOUS
10
2.02519
20
0.220556
11
2.02455
21
0.221268
0
LINE
8
BLACK
6
CONTINUOUS
10
2.02455
20
0.221268
11
2.02174
21
0.226892
0
LINE
8
BLACK
6
CONTINUOUS
10
2.02174
20
0.226892
11
2.02161
21
0.227531
0
LINE
8
BLACK
6
CONTINUOUS
10
2.02161
20
0.227531
11
2.0213
21
0.228101
0
LINE
8
BLACK
6
CONTINUOUS
10
2.0213
20
0.228101
11
2.01848
21
0.239349
0
LINE
8
BLACK
6
CONTINUOUS
10
2.01848
20
0.239349
11
2.0185
21
0.240078
0
LINE
8
BLACK
6
CONTINUOUS
10
2.0185
20
0.240078
11
2.01831
21
0.240782
0
LINE
8
BLACK
6
CONTINUOUS
10
2.01831
20
0.240782
11
2.01831
21
0.254843
0
LINE
8
BLACK
6
CONTINUOUS
10
2.01831
20
0.254843
11
2.0185
21
0.255546
0
LINE
8
BLACK
6
CONTINUOUS
10
2.0185
20
0.255546
11
2.01848
21
0.256275
0
LINE
8
BLACK
6
CONTINUOUS
10
2.01848
20
0.256275
11
2.0213
21
0.267523
0
LINE
8
BLACK
6
CONTINUOUS
10
2.0213
20
0.267523
11
2.02161
21
0.268093
0
LINE
8
BLACK
6
CONTINUOUS
10
2.02161
20
0.268093
11
2.02174
21
0.268732
0
LINE
8
BLACK
6
CONTINUOUS
10
2.02174
20
0.268732
11
2.02455
21
0.274356
0
LINE
8
BLACK
6
CONTINUOUS
10
2.02455
20
0.274356
11
2.02519
21
0.275068
0
LINE
8
BLACK
6
CONTINUOUS
10
2.02519
20
0.275068
11
2.02566
21
0.275891
0
LINE
8
BLACK
6
CONTINUOUS
10
2.02566
20
0.275891
11
2.02847
21
0.278703
0
LINE
8
BLACK
6
CONTINUOUS
10
2.02847
20
0.278703
11
2.0293
21
0.279179
0
LINE
8
BLACK
6
CONTINUOUS
10
2.0293
20
0.279179
11
2.03001
21
0.27981
0
LINE
8
BLACK
6
CONTINUOUS
10
2.03001
20
0.27981
11
2.03563
21
0.282622
0
LINE
8
BLACK
6
CONTINUOUS
10
2.03563
20
0.282622
11
2.03696
21
0.282894
0
LINE
8
BLACK
6
CONTINUOUS
10
2.03696
20
0.282894
11
2.03827
21
0.283245
0
LINE
8
BLACK
6
CONTINUOUS
10
2.03827
20
0.283245
11
2.0439
21
0.283245
0
LINE
8
BLACK
6
CONTINUOUS
10
2.0439
20
0.283245
11
2.04521
21
0.282894
0
LINE
8
BLACK
6
CONTINUOUS
10
2.03967
20
0.271434
11
2.03615
21
0.269674
0
LINE
8
BLACK
6
CONTINUOUS
10
2.03615
20
0.269674
11
2.03469
21
0.268217
0
LINE
8
BLACK
6
CONTINUOUS
10
2.03469
20
0.268217
11
2.0326
21
0.26403
0
LINE
8
BLACK
6
CONTINUOUS
10
2.0326
20
0.26403
11
2.03012
21
0.254116
0
LINE
8
BLACK
6
CONTINUOUS
10
2.03012
20
0.254116
11
2.03012
21
0.241509
0
LINE
8
BLACK
6
CONTINUOUS
10
2.03012
20
0.241509
11
2.0326
21
0.231594
0
LINE
8
BLACK
6
CONTINUOUS
10
2.0326
20
0.231594
11
2.03469
21
0.227407
0
LINE
8
BLACK
6
CONTINUOUS
10
2.03469
20
0.227407
11
2.03615
21
0.22595
0
LINE
8
BLACK
6
CONTINUOUS
10
2.03615
20
0.22595
11
2.03967
21
0.22419
0
LINE
8
BLACK
6
CONTINUOUS
10
2.03967
20
0.22419
11
2.0425
21
0.22419
0
LINE
8
BLACK
6
CONTINUOUS
10
2.0425
20
0.22419
11
2.04602
21
0.22595
0
LINE
8
BLACK
6
CONTINUOUS
10
2.04602
20
0.22595
11
2.04748
21
0.227407
0
LINE
8
BLACK
6
CONTINUOUS
10
2.04748
20
0.227407
11
2.04957
21
0.231594
0
LINE
8
BLACK
6
CONTINUOUS
10
2.04957
20
0.231594
11
2.05205
21
0.241509
0
LINE
8
BLACK
6
CONTINUOUS
10
2.05205
20
0.241509
11
2.05205
21
0.254116
0
LINE
8
BLACK
6
CONTINUOUS
10
2.05205
20
0.254116
11
2.04957
21
0.26403
0
LINE
8
BLACK
6
CONTINUOUS
10
2.04957
20
0.26403
11
2.04748
21
0.268217
0
LINE
8
BLACK
6
CONTINUOUS
10
2.04748
20
0.268217
11
2.04602
21
0.269674
0
LINE
8
BLACK
6
CONTINUOUS
10
2.04602
20
0.269674
11
2.0425
21
0.271434
0
LINE
8
BLACK
6
CONTINUOUS
10
2.0425
20
0.271434
11
2.03967
21
0.271434
0
LINE
8
BLACK
6
CONTINUOUS
10
1.81625
20
0.282454
11
1.81842
21
0.280292
0
LINE
8
BLACK
6
CONTINUOUS
10
1.81842
20
0.280292
11
1.81921
21
0.27734
0
LINE
8
BLACK
6
CONTINUOUS
10
1.81921
20
0.27734
11
1.81842
21
0.274387
0
LINE
8
BLACK
6
CONTINUOUS
10
1.81842
20
0.274387
11
1.81625
21
0.272225
0
LINE
8
BLACK
6
CONTINUOUS
10
1.81625
20
0.272225
11
1.8133
21
0.271434
0
LINE
8
BLACK
6
CONTINUOUS
10
1.8133
20
0.271434
11
1.80233
21
0.271434
0
LINE
8
BLACK
6
CONTINUOUS
10
1.80233
20
0.271434
11
1.80233
21
0.218285
0
LINE
8
BLACK
6
CONTINUOUS
10
1.80233
20
0.218285
11
1.80154
21
0.215332
0
LINE
8
BLACK
6
CONTINUOUS
10
1.80154
20
0.215332
11
1.79938
21
0.21317
0
LINE
8
BLACK
6
CONTINUOUS
10
1.79938
20
0.21317
11
1.79643
21
0.212379
0
LINE
8
BLACK
6
CONTINUOUS
10
1.79643
20
0.212379
11
1.79348
21
0.21317
0
LINE
8
BLACK
6
CONTINUOUS
10
1.79348
20
0.21317
11
1.79131
21
0.215332
0
LINE
8
BLACK
6
CONTINUOUS
10
1.79131
20
0.215332
11
1.79052
21
0.218285
0
LINE
8
BLACK
6
CONTINUOUS
10
1.79052
20
0.218285
11
1.79052
21
0.271434
0
LINE
8
BLACK
6
CONTINUOUS
10
1.79052
20
0.271434
11
1.77956
21
0.271434
0
LINE
8
BLACK
6
CONTINUOUS
10
1.77956
20
0.271434
11
1.7766
21
0.272225
0
LINE
8
BLACK
6
CONTINUOUS
10
1.7766
20
0.272225
11
1.77444
21
0.274387
0
LINE
8
BLACK
6
CONTINUOUS
10
1.77444
20
0.274387
11
1.77365
21
0.27734
0
LINE
8
BLACK
6
CONTINUOUS
10
1.77365
20
0.27734
11
1.77444
21
0.280292
0
LINE
8
BLACK
6
CONTINUOUS
10
1.77444
20
0.280292
11
1.7766
21
0.282454
0
LINE
8
BLACK
6
CONTINUOUS
10
1.7766
20
0.282454
11
1.77956
21
0.283245
0
LINE
8
BLACK
6
CONTINUOUS
10
1.77956
20
0.283245
11
1.8133
21
0.283245
0
LINE
8
BLACK
6
CONTINUOUS
10
1.8133
20
0.283245
11
1.81625
21
0.282454
0
LINE
8
BLACK
6
CONTINUOUS
10
2.0775
20
0.21317
11
2.07534
21
0.215332
0
LINE
8
BLACK
6
CONTINUOUS
10
2.07534
20
0.215332
11
2.07455
21
0.218285
0
LINE
8
BLACK
6
CONTINUOUS
10
2.07455
20
0.218285
11
2.07534
21
0.221237
0
LINE
8
BLACK
6
CONTINUOUS
10
2.07534
20
0.221237
11
2.0775
21
0.223399
0
LINE
8
BLACK
6
CONTINUOUS
10
2.0775
20
0.223399
11
2.08046
21
0.22419
0
LINE
8
BLACK
6
CONTINUOUS
10
2.08046
20
0.22419
11
2.09142
21
0.22419
0
LINE
8
BLACK
6
CONTINUOUS
10
2.09142
20
0.22419
11
2.09142
21
0.26027
0
LINE
8
BLACK
6
CONTINUOUS
10
2.09142
20
0.26027
11
2.09026
21
0.259103
0
LINE
8
BLACK
6
CONTINUOUS
10
2.09026
20
0.259103
11
2.08943
21
0.258628
0
LINE
8
BLACK
6
CONTINUOUS
10
2.08943
20
0.258628
11
2.08872
21
0.257997
0
LINE
8
BLACK
6
CONTINUOUS
10
2.08872
20
0.257997
11
2.0831
21
0.255185
0
LINE
8
BLACK
6
CONTINUOUS
10
2.0831
20
0.255185
11
2.0801
21
0.254572
0
LINE
8
BLACK
6
CONTINUOUS
10
2.0801
20
0.254572
11
2.0772
21
0.255539
0
LINE
8
BLACK
6
CONTINUOUS
10
2.0772
20
0.255539
11
2.07517
21
0.257826
0
LINE
8
BLACK
6
CONTINUOUS
10
2.07517
20
0.257826
11
2.07456
21
0.260821
0
LINE
8
BLACK
6
CONTINUOUS
10
2.07456
20
0.260821
11
2.07553
21
0.263721
0
LINE
8
BLACK
6
CONTINUOUS
10
2.07553
20
0.263721
11
2.07781
21
0.265749
0
LINE
8
BLACK
6
CONTINUOUS
10
2.07781
20
0.265749
11
2.08258
21
0.268132
0
LINE
8
BLACK
6
CONTINUOUS
10
2.08258
20
0.268132
11
2.08711
21
0.272666
0
LINE
8
BLACK
6
CONTINUOUS
10
2.08711
20
0.272666
11
2.09241
21
0.280615
0
LINE
8
BLACK
6
CONTINUOUS
10
2.09241
20
0.280615
11
2.09342
21
0.281503
0
LINE
8
BLACK
6
CONTINUOUS
10
2.09342
20
0.281503
11
2.09438
21
0.282454
0
LINE
8
BLACK
6
CONTINUOUS
10
2.09438
20
0.282454
11
2.09456
21
0.282505
0
LINE
8
BLACK
6
CONTINUOUS
10
2.09456
20
0.282505
11
2.09471
21
0.282633
0
LINE
8
BLACK
6
CONTINUOUS
10
2.09471
20
0.282633
11
2.09603
21
0.282897
0
LINE
8
BLACK
6
CONTINUOUS
10
2.09603
20
0.282897
11
2.09733
21
0.283245
0
LINE
8
BLACK
6
CONTINUOUS
10
2.09733
20
0.283245
11
2.09752
21
0.283195
0
LINE
8
BLACK
6
CONTINUOUS
10
2.09752
20
0.283195
11
2.09771
21
0.283233
0
LINE
8
BLACK
6
CONTINUOUS
10
2.09771
20
0.283233
11
2.09898
21
0.282802
0
LINE
8
BLACK
6
CONTINUOUS
10
2.09898
20
0.282802
11
2.10028
21
0.282454
0
LINE
8
BLACK
6
CONTINUOUS
10
2.10028
20
0.282454
11
2.10042
21
0.282316
0
LINE
8
BLACK
6
CONTINUOUS
10
2.10042
20
0.282316
11
2.1006
21
0.282253
0
LINE
8
BLACK
6
CONTINUOUS
10
2.1006
20
0.282253
11
2.10149
21
0.281243
0
LINE
8
BLACK
6
CONTINUOUS
10
2.10149
20
0.281243
11
2.10244
21
0.280292
0
LINE
8
BLACK
6
CONTINUOUS
10
2.10244
20
0.280292
11
2.10249
21
0.280104
0
LINE
8
BLACK
6
CONTINUOUS
10
2.10249
20
0.280104
11
2.10262
21
0.279957
0
LINE
8
BLACK
6
CONTINUOUS
10
2.10262
20
0.279957
11
2.10289
21
0.278638
0
LINE
8
BLACK
6
CONTINUOUS
10
2.10289
20
0.278638
11
2.10323
21
0.27734
0
LINE
8
BLACK
6
CONTINUOUS
10
2.10323
20
0.27734
11
2.10323
21
0.22419
0
LINE
8
BLACK
6
CONTINUOUS
10
2.10323
20
0.22419
11
2.1142
21
0.22419
0
LINE
8
BLACK
6
CONTINUOUS
10
2.1142
20
0.22419
11
2.11715
21
0.223399
0
LINE
8
BLACK
6
CONTINUOUS
10
2.11715
20
0.223399
11
2.11932
21
0.221237
0
LINE
8
BLACK
6
CONTINUOUS
10
2.11932
20
0.221237
11
2.12011
21
0.218285
0
LINE
8
BLACK
6
CONTINUOUS
10
2.12011
20
0.218285
11
2.11932
21
0.215332
0
LINE
8
BLACK
6
CONTINUOUS
10
2.11932
20
0.215332
11
2.11715
21
0.21317
0
LINE
8
BLACK
6
CONTINUOUS
10
2.11715
20
0.21317
11
2.1142
21
0.212379
0
LINE
8
BLACK
6
CONTINUOUS
10
2.1142
20
0.212379
11
2.08046
21
0.212379
0
LINE
8
BLACK
6
CONTINUOUS
10
2.08046
20
0.212379
11
2.0775
21
0.21317
0
LINE
8
BLACK
6
CONTINUOUS
10
1.9428
20
0.282454
11
1.94496
21
0.280292
0
LINE
8
BLACK
6
CONTINUOUS
10
1.94496
20
0.280292
11
1.94575
21
0.27734
0
LINE
8
BLACK
6
CONTINUOUS
10
1.94575
20
0.27734
11
1.94575
21
0.218285
0
LINE
8
BLACK
6
CONTINUOUS
10
1.94575
20
0.218285
11
1.94496
21
0.215332
0
LINE
8
BLACK
6
CONTINUOUS
10
1.94496
20
0.215332
11
1.9428
21
0.21317
0
LINE
8
BLACK
6
CONTINUOUS
10
1.9428
20
0.21317
11
1.93985
21
0.212379
0
LINE
8
BLACK
6
CONTINUOUS
10
1.93985
20
0.212379
11
1.9369
21
0.21317
0
LINE
8
BLACK
6
CONTINUOUS
10
1.9369
20
0.21317
11
1.93473
21
0.215332
0
LINE
8
BLACK
6
CONTINUOUS
10
1.93473
20
0.215332
11
1.93394
21
0.218285
0
LINE
8
BLACK
6
CONTINUOUS
10
1.93394
20
0.218285
11
1.93394
21
0.27734
0
LINE
8
BLACK
6
CONTINUOUS
10
1.93394
20
0.27734
11
1.93473
21
0.280292
0
LINE
8
BLACK
6
CONTINUOUS
10
1.93473
20
0.280292
11
1.9369
21
0.282454
0
LINE
8
BLACK
6
CONTINUOUS
10
1.9369
20
0.282454
11
1.93985
21
0.283245
0
LINE
8
BLACK
6
CONTINUOUS
10
1.93985
20
0.283245
11
1.9428
21
0.282454
0
LINE
8
BLACK
6
CONTINUOUS
10
1.97092
20
0.282454
11
1.97308
21
0.280292
0
LINE
8
BLACK
6
CONTINUOUS
10
1.97308
20
0.280292
11
1.97388
21
0.27734
0
LINE
8
BLACK
6
CONTINUOUS
10
1.97388
20
0.27734
11
1.97388
21
0.257851
0
LINE
8
BLACK
6
CONTINUOUS
10
1.97388
20
0.257851
11
1.99754
21
0.281516
0
LINE
8
BLACK
6
CONTINUOUS
10
1.99754
20
0.281516
11
2.00019
21
0.283044
0
LINE
8
BLACK
6
CONTINUOUS
10
2.00019
20
0.283044
11
2.00324
21
0.283044
0
LINE
8
BLACK
6
CONTINUOUS
10
2.00324
20
0.283044
11
2.00589
21
0.281516
0
LINE
8
BLACK
6
CONTINUOUS
10
2.00589
20
0.281516
11
2.00742
21
0.278868
0
LINE
8
BLACK
6
CONTINUOUS
10
2.00742
20
0.278868
11
2.00742
21
0.275811
0
LINE
8
BLACK
6
CONTINUOUS
10
2.00742
20
0.275811
11
2.00589
21
0.273164
0
LINE
8
BLACK
6
CONTINUOUS
10
2.00589
20
0.273164
11
1.9842
21
0.251476
0
LINE
8
BLACK
6
CONTINUOUS
10
1.9842
20
0.251476
11
2.00644
21
0.221828
0
LINE
8
BLACK
6
CONTINUOUS
10
2.00644
20
0.221828
11
2.00758
21
0.218991
0
LINE
8
BLACK
6
CONTINUOUS
10
2.00758
20
0.218991
11
2.00715
21
0.215965
0
LINE
8
BLACK
6
CONTINUOUS
10
2.00715
20
0.215965
11
2.00526
21
0.21356
0
LINE
8
BLACK
6
CONTINUOUS
10
2.00526
20
0.21356
11
2.00242
21
0.212421
0
LINE
8
BLACK
6
CONTINUOUS
10
2.00242
20
0.212421
11
1.9994
21
0.212854
0
LINE
8
BLACK
6
CONTINUOUS
10
1.9994
20
0.212854
11
1.99699
21
0.214741
0
LINE
8
BLACK
6
CONTINUOUS
10
1.99699
20
0.214741
11
1.97577
21
0.24304
0
LINE
8
BLACK
6
CONTINUOUS
10
1.97577
20
0.24304
11
1.97388
21
0.241148
0
LINE
8
BLACK
6
CONTINUOUS
10
1.97388
20
0.241148
11
1.97388
21
0.218285
0
LINE
8
BLACK
6
CONTINUOUS
10
1.97388
20
0.218285
11
1.97308
21
0.215332
0
LINE
8
BLACK
6
CONTINUOUS
10
1.97308
20
0.215332
11
1.97092
21
0.21317
0
LINE
8
BLACK
6
CONTINUOUS
10
1.97092
20
0.21317
11
1.96797
21
0.212379
0
LINE
8
BLACK
6
CONTINUOUS
10
1.96797
20
0.212379
11
1.96502
21
0.21317
0
LINE
8
BLACK
6
CONTINUOUS
10
1.96502
20
0.21317
11
1.96286
21
0.215332
0
LINE
8
BLACK
6
CONTINUOUS
10
1.96286
20
0.215332
11
1.96206
21
0.218285
0
LINE
8
BLACK
6
CONTINUOUS
10
1.96206
20
0.218285
11
1.96206
21
0.27734
0
LINE
8
BLACK
6
CONTINUOUS
10
1.96206
20
0.27734
11
1.96286
21
0.280292
0
LINE
8
BLACK
6
CONTINUOUS
10
1.96286
20
0.280292
11
1.96502
21
0.282454
0
LINE
8
BLACK
6
CONTINUOUS
10
1.96502
20
0.282454
11
1.96797
21
0.283245
0
LINE
8
BLACK
6
CONTINUOUS
10
1.96797
20
0.283245
11
1.97092
21
0.282454
0
LINE
8
BLACK
6
CONTINUOUS
10
1.86406
20
0.282454
11
1.86622
21
0.280292
0
LINE
8
BLACK
6
CONTINUOUS
10
1.86622
20
0.280292
11
1.86701
21
0.27734
0
LINE
8
BLACK
6
CONTINUOUS
10
1.86701
20
0.27734
11
1.86622
21
0.274387
0
LINE
8
BLACK
6
CONTINUOUS
10
1.86622
20
0.274387
11
1.86406
21
0.272225
0
LINE
8
BLACK
6
CONTINUOUS
10
1.86406
20
0.272225
11
1.86111
21
0.271434
0
LINE
8
BLACK
6
CONTINUOUS
10
1.86111
20
0.271434
11
1.83889
21
0.271434
0
LINE
8
BLACK
6
CONTINUOUS
10
1.83889
20
0.271434
11
1.83889
21
0.255124
0
LINE
8
BLACK
6
CONTINUOUS
10
1.83889
20
0.255124
11
1.85267
21
0.255124
0
LINE
8
BLACK
6
CONTINUOUS
10
1.85267
20
0.255124
11
1.85562
21
0.254333
0
LINE
8
BLACK
6
CONTINUOUS
10
1.85562
20
0.254333
11
1.85779
21
0.252171
0
LINE
8
BLACK
6
CONTINUOUS
10
1.85779
20
0.252171
11
1.85858
21
0.249218
0
LINE
8
BLACK
6
CONTINUOUS
10
1.85858
20
0.249218
11
1.85779
21
0.246265
0
LINE
8
BLACK
6
CONTINUOUS
10
1.85779
20
0.246265
11
1.85562
21
0.244104
0
LINE
8
BLACK
6
CONTINUOUS
10
1.85562
20
0.244104
11
1.85267
21
0.243313
0
LINE
8
BLACK
6
CONTINUOUS
10
1.85267
20
0.243313
11
1.83889
21
0.243313
0
LINE
8
BLACK
6
CONTINUOUS
10
1.83889
20
0.243313
11
1.83889
21
0.218285
0
LINE
8
BLACK
6
CONTINUOUS
10
1.83889
20
0.218285
11
1.8381
21
0.215332
0
LINE
8
BLACK
6
CONTINUOUS
10
1.8381
20
0.215332
11
1.83594
21
0.21317
0
LINE
8
BLACK
6
CONTINUOUS
10
1.83594
20
0.21317
11
1.83299
21
0.212379
0
LINE
8
BLACK
6
CONTINUOUS
10
1.83299
20
0.212379
11
1.83003
21
0.21317
0
LINE
8
BLACK
6
CONTINUOUS
10
1.83003
20
0.21317
11
1.82787
21
0.215332
0
LINE
8
BLACK
6
CONTINUOUS
10
1.82787
20
0.215332
11
1.82708
21
0.218285
0
LINE
8
BLACK
6
CONTINUOUS
10
1.82708
20
0.218285
11
1.82708
21
0.27734
0
LINE
8
BLACK
6
CONTINUOUS
10
1.82708
20
0.27734
11
1.82787
21
0.280292
0
LINE
8
BLACK
6
CONTINUOUS
10
1.82787
20
0.280292
11
1.83003
21
0.282454
0
LINE
8
BLACK
6
CONTINUOUS
10
1.83003
20
0.282454
11
1.83299
21
0.283245
0
LINE
8
BLACK
6
CONTINUOUS
10
1.83299
20
0.283245
11
1.86111
21
0.283245
0
LINE
8
BLACK
6
CONTINUOUS
10
1.86111
20
0.283245
11
1.86406
21
0.282454
0
LINE
8
BLACK
6
CONTINUOUS
10
1.90702
20
0.282999
11
1.90797
21
0.282942
0
LINE
8
BLACK
6
CONTINUOUS
10
1.90797
20
0.282942
11
1.91641
21
0.28013
0
LINE
8
BLACK
6
CONTINUOUS
10
1.91641
20
0.28013
11
1.91896
21
0.278446
0
LINE
8
BLACK
6
CONTINUOUS
10
1.91896
20
0.278446
11
1.92032
21
0.275711
0
LINE
8
BLACK
6
CONTINUOUS
10
1.92032
20
0.275711
11
1.92014
21
0.27266
0
LINE
8
BLACK
6
CONTINUOUS
10
1.92014
20
0.27266
11
1.91846
21
0.270109
0
LINE
8
BLACK
6
CONTINUOUS
10
1.91846
20
0.270109
11
1.91572
21
0.268742
0
LINE
8
BLACK
6
CONTINUOUS
10
1.91572
20
0.268742
11
1.91267
21
0.268925
0
LINE
8
BLACK
6
CONTINUOUS
10
1.91267
20
0.268925
11
1.90514
21
0.271434
0
LINE
8
BLACK
6
CONTINUOUS
10
1.90514
20
0.271434
11
1.89344
21
0.271434
0
LINE
8
BLACK
6
CONTINUOUS
10
1.89344
20
0.271434
11
1.88992
21
0.269674
0
LINE
8
BLACK
6
CONTINUOUS
10
1.88992
20
0.269674
11
1.88846
21
0.268217
0
LINE
8
BLACK
6
CONTINUOUS
10
1.88846
20
0.268217
11
1.8867
21
0.264697
0
LINE
8
BLACK
6
CONTINUOUS
10
1.8867
20
0.264697
11
1.8867
21
0.261861
0
LINE
8
BLACK
6
CONTINUOUS
10
1.8867
20
0.261861
11
1.88846
21
0.258341
0
LINE
8
BLACK
6
CONTINUOUS
10
1.88846
20
0.258341
11
1.88992
21
0.256884
0
LINE
8
BLACK
6
CONTINUOUS
10
1.88992
20
0.256884
11
1.8941
21
0.25479
0
LINE
8
BLACK
6
CONTINUOUS
10
1.8941
20
0.25479
11
1.90472
21
0.252135
0
LINE
8
BLACK
6
CONTINUOUS
10
1.90472
20
0.252135
11
1.90529
21
0.251819
0
LINE
8
BLACK
6
CONTINUOUS
10
1.90529
20
0.251819
11
1.90593
21
0.251688
0
LINE
8
BLACK
6
CONTINUOUS
10
1.90593
20
0.251688
11
1.91156
21
0.248876
0
LINE
8
BLACK
6
CONTINUOUS
10
1.91156
20
0.248876
11
1.91227
21
0.248245
0
LINE
8
BLACK
6
CONTINUOUS
10
1.91227
20
0.248245
11
1.91309
21
0.24777
0
LINE
8
BLACK
6
CONTINUOUS
10
1.91309
20
0.24777
11
1.9159
21
0.244958
0
LINE
8
BLACK
6
CONTINUOUS
10
1.9159
20
0.244958
11
1.91638
21
0.244134
0
LINE
8
BLACK
6
CONTINUOUS
10
1.91638
20
0.244134
11
1.91701
21
0.243423
0
LINE
8
BLACK
6
CONTINUOUS
10
1.91701
20
0.243423
11
1.91982
21
0.237798
0
LINE
8
BLACK
6
CONTINUOUS
10
1.91982
20
0.237798
11
1.92009
21
0.236469
0
LINE
8
BLACK
6
CONTINUOUS
10
1.92009
20
0.236469
11
1.92044
21
0.235157
0
LINE
8
BLACK
6
CONTINUOUS
10
1.92044
20
0.235157
11
1.92044
21
0.229533
0
LINE
8
BLACK
6
CONTINUOUS
10
1.92044
20
0.229533
11
1.92009
21
0.228222
0
LINE
8
BLACK
6
CONTINUOUS
10
1.92009
20
0.228222
11
1.91982
21
0.226892
0
LINE
8
BLACK
6
CONTINUOUS
10
1.91982
20
0.226892
11
1.91701
21
0.221268
0
LINE
8
BLACK
6
CONTINUOUS
10
1.91701
20
0.221268
11
1.91638
21
0.220556
0
LINE
8
BLACK
6
CONTINUOUS
10
1.91638
20
0.220556
11
1.9159
21
0.219733
0
LINE
8
BLACK
6
CONTINUOUS
10
1.9159
20
0.219733
11
1.91309
21
0.216921
0
LINE
8
BLACK
6
CONTINUOUS
10
1.91309
20
0.216921
11
1.91227
21
0.216445
0
LINE
8
BLACK
6
CONTINUOUS
10
1.91227
20
0.216445
11
1.91156
21
0.215815
0
LINE
8
BLACK
6
CONTINUOUS
10
1.91156
20
0.215815
11
1.90593
21
0.213003
0
LINE
8
BLACK
6
CONTINUOUS
10
1.90593
20
0.213003
11
1.9046
21
0.21273
0
LINE
8
BLACK
6
CONTINUOUS
10
1.9046
20
0.21273
11
1.90329
21
0.212379
0
LINE
8
BLACK
6
CONTINUOUS
10
1.90329
20
0.212379
11
1.88923
21
0.212379
0
LINE
8
BLACK
6
CONTINUOUS
10
1.88923
20
0.212379
11
1.88831
21
0.212625
0
LINE
8
BLACK
6
CONTINUOUS
10
1.88831
20
0.212625
11
1.88736
21
0.212682
0
LINE
8
BLACK
6
CONTINUOUS
10
1.88736
20
0.212682
11
1.87893
21
0.215494
0
LINE
8
BLACK
6
CONTINUOUS
10
1.87893
20
0.215494
11
1.87637
21
0.217179
0
LINE
8
BLACK
6
CONTINUOUS
10
1.87637
20
0.217179
11
1.87501
21
0.219913
0
LINE
8
BLACK
6
CONTINUOUS
10
1.87501
20
0.219913
11
1.87519
21
0.222964
0
LINE
8
BLACK
6
CONTINUOUS
10
1.87519
20
0.222964
11
1.87687
21
0.225515
0
LINE
8
BLACK
6
CONTINUOUS
10
1.87687
20
0.225515
11
1.87961
21
0.226882
0
LINE
8
BLACK
6
CONTINUOUS
10
1.87961
20
0.226882
11
1.88266
21
0.226699
0
LINE
8
BLACK
6
CONTINUOUS
10
1.88266
20
0.226699
11
1.89019
21
0.22419
0
LINE
8
BLACK
6
CONTINUOUS
10
1.89019
20
0.22419
11
1.9019
21
0.22419
0
LINE
8
BLACK
6
CONTINUOUS
10
1.9019
20
0.22419
11
1.90542
21
0.22595
0
LINE
8
BLACK
6
CONTINUOUS
10
1.90542
20
0.22595
11
1.90687
21
0.227407
0
LINE
8
BLACK
6
CONTINUOUS
10
1.90687
20
0.227407
11
1.90863
21
0.230927
0
LINE
8
BLACK
6
CONTINUOUS
10
1.90863
20
0.230927
11
1.90863
21
0.233763
0
LINE
8
BLACK
6
CONTINUOUS
10
1.90863
20
0.233763
11
1.90687
21
0.237284
0
LINE
8
BLACK
6
CONTINUOUS
10
1.90687
20
0.237284
11
1.90542
21
0.23874
0
LINE
8
BLACK
6
CONTINUOUS
10
1.90542
20
0.23874
11
1.90123
21
0.240834
0
LINE
8
BLACK
6
CONTINUOUS
10
1.90123
20
0.240834
11
1.89061
21
0.243489
0
LINE
8
BLACK
6
CONTINUOUS
10
1.89061
20
0.243489
11
1.89004
21
0.243805
0
LINE
8
BLACK
6
CONTINUOUS
10
1.89004
20
0.243805
11
1.8894
21
0.243936
0
LINE
8
BLACK
6
CONTINUOUS
10
1.8894
20
0.243936
11
1.88378
21
0.246748
0
LINE
8
BLACK
6
CONTINUOUS
10
1.88378
20
0.246748
11
1.88306
21
0.247379
0
LINE
8
BLACK
6
CONTINUOUS
10
1.88306
20
0.247379
11
1.88224
21
0.247855
0
LINE
8
BLACK
6
CONTINUOUS
10
1.88224
20
0.247855
11
1.87943
21
0.250667
0
LINE
8
BLACK
6
CONTINUOUS
10
1.87943
20
0.250667
11
1.87895
21
0.25149
0
LINE
8
BLACK
6
CONTINUOUS
10
1.87895
20
0.25149
11
1.87832
21
0.252201
0
LINE
8
BLACK
6
CONTINUOUS
10
1.87832
20
0.252201
11
1.87551
21
0.257826
0
LINE
8
BLACK
6
CONTINUOUS
10
1.87551
20
0.257826
11
1.87524
21
0.259156
0
LINE
8
BLACK
6
CONTINUOUS
10
1.87524
20
0.259156
11
1.87489
21
0.260467
0
LINE
8
BLACK
6
CONTINUOUS
10
1.87489
20
0.260467
11
1.87489
21
0.266091
0
LINE
8
BLACK
6
CONTINUOUS
10
1.87489
20
0.266091
11
1.87524
21
0.267402
0
LINE
8
BLACK
6
CONTINUOUS
10
1.87524
20
0.267402
11
1.87551
21
0.268732
0
LINE
8
BLACK
6
CONTINUOUS
10
1.87551
20
0.268732
11
1.87832
21
0.274356
0
LINE
8
BLACK
6
CONTINUOUS
10
1.87832
20
0.274356
11
1.87895
21
0.275068
0
LINE
8
BLACK
6
CONTINUOUS
10
1.87895
20
0.275068
11
1.87943
21
0.275891
0
LINE
8
BLACK
6
CONTINUOUS
10
1.87943
20
0.275891
11
1.88224
21
0.278703
0
LINE
8
BLACK
6
CONTINUOUS
10
1.88224
20
0.278703
11
1.88306
21
0.279179
0
LINE
8
BLACK
6
CONTINUOUS
10
1.88306
20
0.279179
11
1.88378
21
0.27981
0
LINE
8
BLACK
6
CONTINUOUS
10
1.88378
20
0.27981
11
1.8894
21
0.282622
0
LINE
8
BLACK
6
CONTINUOUS
10
1.8894
20
0.282622
11
1.89073
21
0.282894
0
LINE
8
BLACK
6
CONTINUOUS
10
1.89073
20
0.282894
11
1.89204
21
0.283245
0
LINE
8
BLACK
6
CONTINUOUS
10
1.89204
20
0.283245
11
1.9061
21
0.283245
0
LINE
8
BLACK
6
CONTINUOUS
10
1.9061
20
0.283245
11
1.90702
21
0.282999
0
LINE
8
BLACK
6
CONTINUOUS
10
2.15227
20
0.282964
11
2.15263
21
0.282942
0
LINE
8
BLACK
6
CONTINUOUS
10
2.15263
20
0.282942
11
2.15362
21
0.282289
0
LINE
8
BLACK
6
CONTINUOUS
10
2.15362
20
0.282289
11
2.15468
21
0.281758
0
LINE
8
BLACK
6
CONTINUOUS
10
2.15468
20
0.281758
11
2.15488
21
0.281457
0
LINE
8
BLACK
6
CONTINUOUS
10
2.15488
20
0.281457
11
2.15518
21
0.281258
0
LINE
8
BLACK
6
CONTINUOUS
10
2.15518
20
0.281258
11
2.15571
21
0.280197
0
LINE
8
BLACK
6
CONTINUOUS
10
2.15571
20
0.280197
11
2.15636
21
0.279207
0
LINE
8
BLACK
6
CONTINUOUS
10
2.15636
20
0.279207
11
2.17605
21
0.220152
0
LINE
8
BLACK
6
CONTINUOUS
10
2.17605
20
0.220152
11
2.17623
21
0.217101
0
LINE
8
BLACK
6
CONTINUOUS
10
2.17623
20
0.217101
11
2.17486
21
0.214366
0
LINE
8
BLACK
6
CONTINUOUS
10
2.17486
20
0.214366
11
2.17231
21
0.212682
0
LINE
8
BLACK
6
CONTINUOUS
10
2.17231
20
0.212682
11
2.16926
21
0.212499
0
LINE
8
BLACK
6
CONTINUOUS
10
2.16926
20
0.212499
11
2.16653
21
0.213866
0
LINE
8
BLACK
6
CONTINUOUS
10
2.16653
20
0.213866
11
2.16484
21
0.216417
0
LINE
8
BLACK
6
CONTINUOUS
10
2.16484
20
0.216417
11
2.16056
21
0.229252
0
LINE
8
BLACK
6
CONTINUOUS
10
2.16056
20
0.229252
11
2.14095
21
0.229252
0
LINE
8
BLACK
6
CONTINUOUS
10
2.14095
20
0.229252
11
2.13668
21
0.216417
0
LINE
8
BLACK
6
CONTINUOUS
10
2.13668
20
0.216417
11
2.13499
21
0.213866
0
LINE
8
BLACK
6
CONTINUOUS
10
2.13499
20
0.213866
11
2.13226
21
0.212499
0
LINE
8
BLACK
6
CONTINUOUS
10
2.13226
20
0.212499
11
2.12921
21
0.212682
0
LINE
8
BLACK
6
CONTINUOUS
10
2.12921
20
0.212682
11
2.12666
21
0.214366
0
LINE
8
BLACK
6
CONTINUOUS
10
2.12666
20
0.214366
11
2.12529
21
0.217101
0
LINE
8
BLACK
6
CONTINUOUS
10
2.12529
20
0.217101
11
2.12547
21
0.220152
0
LINE
8
BLACK
6
CONTINUOUS
10
2.12547
20
0.220152
11
2.14516
21
0.279207
0
LINE
8
BLACK
6
CONTINUOUS
10
2.14516
20
0.279207
11
2.14581
21
0.280197
0
LINE
8
BLACK
6
CONTINUOUS
10
2.14581
20
0.280197
11
2.14634
21
0.281258
0
LINE
8
BLACK
6
CONTINUOUS
10
2.14634
20
0.281258
11
2.14664
21
0.281457
0
LINE
8
BLACK
6
CONTINUOUS
10
2.14664
20
0.281457
11
2.14684
21
0.281758
0
LINE
8
BLACK
6
CONTINUOUS
10
2.14684
20
0.281758
11
2.1479
21
0.282289
0
LINE
8
BLACK
6
CONTINUOUS
10
2.1479
20
0.282289
11
2.14889
21
0.282942
0
LINE
8
BLACK
6
CONTINUOUS
10
2.14889
20
0.282942
11
2.14925
21
0.282964
0
LINE
8
BLACK
6
CONTINUOUS
10
2.14925
20
0.282964
11
2.14958
21
0.283125
0
LINE
8
BLACK
6
CONTINUOUS
10
2.14958
20
0.283125
11
2.15076
21
0.283054
0
LINE
8
BLACK
6
CONTINUOUS
10
2.15076
20
0.283054
11
2.15194
21
0.283125
0
LINE
8
BLACK
6
CONTINUOUS
10
2.15194
20
0.283125
11
2.15227
21
0.282964
0
LINE
8
BLACK
6
CONTINUOUS
10
2.14489
20
0.241063
11
2.15663
21
0.241063
0
LINE
8
BLACK
6
CONTINUOUS
10
2.15663
20
0.241063
11
2.15076
21
0.258665
0
LINE
8
BLACK
6
CONTINUOUS
10
2.15076
20
0.258665
11
2.14489
21
0.241063
0
LINE
8
BLACK
6
CONTINUOUS
10
2.45173
20
0.292741
11
2.45174
21
0.292745
0
LINE
8
BLACK
6
CONTINUOUS
10
2.45174
20
0.292745
11
2.45321
21
0.292345
0
LINE
8
BLACK
6
CONTINUOUS
10
2.45321
20
0.292345
11
2.45467
21
0.291953
0
LINE
8
BLACK
6
CONTINUOUS
10
2.45467
20
0.291953
11
2.45468
21
0.291944
0
LINE
8
BLACK
6
CONTINUOUS
10
2.45468
20
0.291944
11
2.45469
21
0.29194
0
LINE
8
BLACK
6
CONTINUOUS
10
2.45469
20
0.29194
11
2.45576
21
0.290861
0
LINE
8
BLACK
6
CONTINUOUS
10
2.45576
20
0.290861
11
2.45683
21
0.289792
0
LINE
8
BLACK
6
CONTINUOUS
10
2.45683
20
0.289792
11
2.45683
21
0.289779
0
LINE
8
BLACK
6
CONTINUOUS
10
2.45683
20
0.289779
11
2.45684
21
0.289769
0
LINE
8
BLACK
6
CONTINUOUS
10
2.45684
20
0.289769
11
2.45723
21
0.2883
0
LINE
8
BLACK
6
CONTINUOUS
10
2.45723
20
0.2883
11
2.45762
21
0.286839
0
LINE
8
BLACK
6
CONTINUOUS
10
2.45762
20
0.286839
11
2.45762
21
0.286826
0
LINE
8
BLACK
6
CONTINUOUS
10
2.45762
20
0.286826
11
2.45762
21
0.286813
0
LINE
8
BLACK
6
CONTINUOUS
10
2.45762
20
0.286813
11
2.45722
21
0.285347
0
LINE
8
BLACK
6
CONTINUOUS
10
2.45722
20
0.285347
11
2.45683
21
0.283886
0
LINE
8
BLACK
6
CONTINUOUS
10
2.45683
20
0.283886
11
2.45682
21
0.283877
0
LINE
8
BLACK
6
CONTINUOUS
10
2.45682
20
0.283877
11
2.45682
21
0.283864
0
LINE
8
BLACK
6
CONTINUOUS
10
2.45682
20
0.283864
11
2.45574
21
0.282796
0
LINE
8
BLACK
6
CONTINUOUS
10
2.45574
20
0.282796
11
2.45467
21
0.281725
0
LINE
8
BLACK
6
CONTINUOUS
10
2.45467
20
0.281725
11
2.45465
21
0.281721
0
LINE
8
BLACK
6
CONTINUOUS
10
2.45465
20
0.281721
11
2.45465
21
0.281712
0
LINE
8
BLACK
6
CONTINUOUS
10
2.45465
20
0.281712
11
2.4149
21
0.258999
0
LINE
8
BLACK
6
CONTINUOUS
10
2.4149
20
0.258999
11
2.45172
21
0.258999
0
LINE
8
BLACK
6
CONTINUOUS
10
2.45172
20
0.258999
11
2.45467
21
0.258208
0
LINE
8
BLACK
6
CONTINUOUS
10
2.45467
20
0.258208
11
2.45683
21
0.256046
0
LINE
8
BLACK
6
CONTINUOUS
10
2.45683
20
0.256046
11
2.45762
21
0.253093
0
LINE
8
BLACK
6
CONTINUOUS
10
2.45762
20
0.253093
11
2.45683
21
0.250141
0
LINE
8
BLACK
6
CONTINUOUS
10
2.45683
20
0.250141
11
2.45467
21
0.247979
0
LINE
8
BLACK
6
CONTINUOUS
10
2.45467
20
0.247979
11
2.45172
21
0.247188
0
LINE
8
BLACK
6
CONTINUOUS
10
2.45172
20
0.247188
11
2.39266
21
0.247188
0
LINE
8
BLACK
6
CONTINUOUS
10
2.39266
20
0.247188
11
2.39265
21
0.247191
0
LINE
8
BLACK
6
CONTINUOUS
10
2.39265
20
0.247191
11
2.39263
21
0.247188
0
LINE
8
BLACK
6
CONTINUOUS
10
2.39263
20
0.247188
11
2.39117
21
0.247588
0
LINE
8
BLACK
6
CONTINUOUS
10
2.39117
20
0.247588
11
2.38971
21
0.247979
0
LINE
8
BLACK
6
CONTINUOUS
10
2.38971
20
0.247979
11
2.3897
21
0.247989
0
LINE
8
BLACK
6
CONTINUOUS
10
2.3897
20
0.247989
11
2.38968
21
0.247992
0
LINE
8
BLACK
6
CONTINUOUS
10
2.38968
20
0.247992
11
2.38862
21
0.249069
0
LINE
8
BLACK
6
CONTINUOUS
10
2.38862
20
0.249069
11
2.38755
21
0.250141
0
LINE
8
BLACK
6
CONTINUOUS
10
2.38755
20
0.250141
11
2.38754
21
0.250154
0
LINE
8
BLACK
6
CONTINUOUS
10
2.38754
20
0.250154
11
2.38753
21
0.250163
0
LINE
8
BLACK
6
CONTINUOUS
10
2.38753
20
0.250163
11
2.38715
21
0.251629
0
LINE
8
BLACK
6
CONTINUOUS
10
2.38715
20
0.251629
11
2.38675
21
0.253093
0
LINE
8
BLACK
6
CONTINUOUS
10
2.38675
20
0.253093
11
2.38676
21
0.253106
0
LINE
8
BLACK
6
CONTINUOUS
10
2.38676
20
0.253106
11
2.38675
21
0.25312
0
LINE
8
BLACK
6
CONTINUOUS
10
2.38675
20
0.25312
11
2.38715
21
0.254585
0
LINE
8
BLACK
6
CONTINUOUS
10
2.38715
20
0.254585
11
2.38755
21
0.256046
0
LINE
8
BLACK
6
CONTINUOUS
10
2.38755
20
0.256046
11
2.38756
21
0.256056
0
LINE
8
BLACK
6
CONTINUOUS
10
2.38756
20
0.256056
11
2.38756
21
0.256069
0
LINE
8
BLACK
6
CONTINUOUS
10
2.38756
20
0.256069
11
2.38864
21
0.257136
0
LINE
8
BLACK
6
CONTINUOUS
10
2.38864
20
0.257136
11
2.38971
21
0.258208
0
LINE
8
BLACK
6
CONTINUOUS
10
2.38971
20
0.258208
11
2.38972
21
0.258211
0
LINE
8
BLACK
6
CONTINUOUS
10
2.38972
20
0.258211
11
2.38973
21
0.258221
0
LINE
8
BLACK
6
CONTINUOUS
10
2.38973
20
0.258221
11
2.42948
21
0.280934
0
LINE
8
BLACK
6
CONTINUOUS
10
2.42948
20
0.280934
11
2.39266
21
0.280934
0
LINE
8
BLACK
6
CONTINUOUS
10
2.39266
20
0.280934
11
2.38971
21
0.281725
0
LINE
8
BLACK
6
CONTINUOUS
10
2.38971
20
0.281725
11
2.38755
21
0.283886
0
LINE
8
BLACK
6
CONTINUOUS
10
2.38755
20
0.283886
11
2.38675
21
0.286839
0
LINE
8
BLACK
6
CONTINUOUS
10
2.38675
20
0.286839
11
2.38755
21
0.289792
0
LINE
8
BLACK
6
CONTINUOUS
10
2.38755
20
0.289792
11
2.38971
21
0.291953
0
LINE
8
BLACK
6
CONTINUOUS
10
2.38971
20
0.291953
11
2.39266
21
0.292745
0
LINE
8
BLACK
6
CONTINUOUS
10
2.39266
20
0.292745
11
2.45172
21
0.292745
0
LINE
8
BLACK
6
CONTINUOUS
10
2.45172
20
0.292745
11
2.45173
21
0.292741
0
LINE
8
BLACK
6
CONTINUOUS
10
2.39561
20
0.345384
11
2.39777
21
0.343223
0
LINE
8
BLACK
6
CONTINUOUS
10
2.39777
20
0.343223
11
2.39857
21
0.34027
0
LINE
8
BLACK
6
CONTINUOUS
10
2.39857
20
0.34027
11
2.39857
21
0.329303
0
LINE
8
BLACK
6
CONTINUOUS
10
2.39857
20
0.329303
11
2.45172
21
0.329303
0
LINE
8
BLACK
6
CONTINUOUS
10
2.45172
20
0.329303
11
2.45467
21
0.328511
0
LINE
8
BLACK
6
CONTINUOUS
10
2.45467
20
0.328511
11
2.45683
21
0.32635
0
LINE
8
BLACK
6
CONTINUOUS
10
2.45683
20
0.32635
11
2.45762
21
0.323397
0
LINE
8
BLACK
6
CONTINUOUS
10
2.45762
20
0.323397
11
2.45683
21
0.320444
0
LINE
8
BLACK
6
CONTINUOUS
10
2.45683
20
0.320444
11
2.45467
21
0.318283
0
LINE
8
BLACK
6
CONTINUOUS
10
2.45467
20
0.318283
11
2.45172
21
0.317492
0
LINE
8
BLACK
6
CONTINUOUS
10
2.45172
20
0.317492
11
2.39857
21
0.317492
0
LINE
8
BLACK
6
CONTINUOUS
10
2.39857
20
0.317492
11
2.39857
21
0.306524
0
LINE
8
BLACK
6
CONTINUOUS
10
2.39857
20
0.306524
11
2.39777
21
0.303571
0
LINE
8
BLACK
6
CONTINUOUS
10
2.39777
20
0.303571
11
2.39561
21
0.30141
0
LINE
8
BLACK
6
CONTINUOUS
10
2.39561
20
0.30141
11
2.39266
21
0.300619
0
LINE
8
BLACK
6
CONTINUOUS
10
2.39266
20
0.300619
11
2.38971
21
0.30141
0
LINE
8
BLACK
6
CONTINUOUS
10
2.38971
20
0.30141
11
2.38755
21
0.303571
0
LINE
8
BLACK
6
CONTINUOUS
10
2.38755
20
0.303571
11
2.38675
21
0.306524
0
LINE
8
BLACK
6
CONTINUOUS
10
2.38675
20
0.306524
11
2.38675
21
0.34027
0
LINE
8
BLACK
6
CONTINUOUS
10
2.38675
20
0.34027
11
2.38755
21
0.343223
0
LINE
8
BLACK
6
CONTINUOUS
10
2.38755
20
0.343223
11
2.38971
21
0.345384
0
LINE
8
BLACK
6
CONTINUOUS
10
2.38971
20
0.345384
11
2.39266
21
0.346175
0
LINE
8
BLACK
6
CONTINUOUS
10
2.39266
20
0.346175
11
2.39561
21
0.345384
0
LINE
8
BLACK
6
CONTINUOUS
10
2.06965
20
0.404036
11
2.07098
21
0.403763
0
LINE
8
BLACK
6
CONTINUOUS
10
2.07098
20
0.403763
11
2.0766
21
0.400951
0
LINE
8
BLACK
6
CONTINUOUS
10
2.0766
20
0.400951
11
2.07731
21
0.400321
0
LINE
8
BLACK
6
CONTINUOUS
10
2.07731
20
0.400321
11
2.07814
21
0.399845
0
LINE
8
BLACK
6
CONTINUOUS
10
2.07814
20
0.399845
11
2.08095
21
0.397033
0
LINE
8
BLACK
6
CONTINUOUS
10
2.08095
20
0.397033
11
2.08142
21
0.39621
0
LINE
8
BLACK
6
CONTINUOUS
10
2.08142
20
0.39621
11
2.08205
21
0.395498
0
LINE
8
BLACK
6
CONTINUOUS
10
2.08205
20
0.395498
11
2.08487
21
0.389874
0
LINE
8
BLACK
6
CONTINUOUS
10
2.08487
20
0.389874
11
2.08514
21
0.388544
0
LINE
8
BLACK
6
CONTINUOUS
10
2.08514
20
0.388544
11
2.08549
21
0.387233
0
LINE
8
BLACK
6
CONTINUOUS
10
2.08549
20
0.387233
11
2.08549
21
0.381609
0
LINE
8
BLACK
6
CONTINUOUS
10
2.08549
20
0.381609
11
2.08524
21
0.38069
0
LINE
8
BLACK
6
CONTINUOUS
10
2.08524
20
0.38069
11
2.08519
21
0.379741
0
LINE
8
BLACK
6
CONTINUOUS
10
2.08519
20
0.379741
11
2.08237
21
0.371305
0
LINE
8
BLACK
6
CONTINUOUS
10
2.08237
20
0.371305
11
2.08163
21
0.370172
0
LINE
8
BLACK
6
CONTINUOUS
10
2.08163
20
0.370172
11
2.08095
21
0.368996
0
LINE
8
BLACK
6
CONTINUOUS
10
2.08095
20
0.368996
11
2.05728
21
0.345332
0
LINE
8
BLACK
6
CONTINUOUS
10
2.05728
20
0.345332
11
2.07958
21
0.345332
0
LINE
8
BLACK
6
CONTINUOUS
10
2.07958
20
0.345332
11
2.08254
21
0.344541
0
LINE
8
BLACK
6
CONTINUOUS
10
2.08254
20
0.344541
11
2.0847
21
0.342379
0
LINE
8
BLACK
6
CONTINUOUS
10
2.0847
20
0.342379
11
2.08549
21
0.339426
0
LINE
8
BLACK
6
CONTINUOUS
10
2.08549
20
0.339426
11
2.0847
21
0.336474
0
LINE
8
BLACK
6
CONTINUOUS
10
2.0847
20
0.336474
11
2.08254
21
0.334312
0
LINE
8
BLACK
6
CONTINUOUS
10
2.08254
20
0.334312
11
2.07958
21
0.333521
0
LINE
8
BLACK
6
CONTINUOUS
10
2.07958
20
0.333521
11
2.04303
21
0.333521
0
LINE
8
BLACK
6
CONTINUOUS
10
2.04303
20
0.333521
11
2.04227
21
0.333722
0
LINE
8
BLACK
6
CONTINUOUS
10
2.04227
20
0.333722
11
2.0415
21
0.333722
0
LINE
8
BLACK
6
CONTINUOUS
10
2.0415
20
0.333722
11
2.04082
21
0.334111
0
LINE
8
BLACK
6
CONTINUOUS
10
2.04082
20
0.334111
11
2.04007
21
0.334312
0
LINE
8
BLACK
6
CONTINUOUS
10
2.04007
20
0.334312
11
2.03952
21
0.334862
0
LINE
8
BLACK
6
CONTINUOUS
10
2.03952
20
0.334862
11
2.03885
21
0.33525
0
LINE
8
BLACK
6
CONTINUOUS
10
2.03885
20
0.33525
11
2.03846
21
0.335924
0
LINE
8
BLACK
6
CONTINUOUS
10
2.03846
20
0.335924
11
2.03791
21
0.336474
0
LINE
8
BLACK
6
CONTINUOUS
10
2.03791
20
0.336474
11
2.03771
21
0.337225
0
LINE
8
BLACK
6
CONTINUOUS
10
2.03771
20
0.337225
11
2.03732
21
0.337898
0
LINE
8
BLACK
6
CONTINUOUS
10
2.03732
20
0.337898
11
2.03732
21
0.338675
0
LINE
8
BLACK
6
CONTINUOUS
10
2.03732
20
0.338675
11
2.03712
21
0.339426
0
LINE
8
BLACK
6
CONTINUOUS
10
2.03712
20
0.339426
11
2.03732
21
0.340177
0
LINE
8
BLACK
6
CONTINUOUS
10
2.03732
20
0.340177
11
2.03732
21
0.340955
0
LINE
8
BLACK
6
CONTINUOUS
10
2.03732
20
0.340955
11
2.03771
21
0.341628
0
LINE
8
BLACK
6
CONTINUOUS
10
2.03771
20
0.341628
11
2.03791
21
0.342379
0
LINE
8
BLACK
6
CONTINUOUS
10
2.03791
20
0.342379
11
2.03846
21
0.342929
0
LINE
8
BLACK
6
CONTINUOUS
10
2.03846
20
0.342929
11
2.03885
21
0.343602
0
LINE
8
BLACK
6
CONTINUOUS
10
2.03885
20
0.343602
11
2.07161
21
0.376362
0
LINE
8
BLACK
6
CONTINUOUS
10
2.07161
20
0.376362
11
2.07368
21
0.382567
0
LINE
8
BLACK
6
CONTINUOUS
10
2.07368
20
0.382567
11
2.07368
21
0.385839
0
LINE
8
BLACK
6
CONTINUOUS
10
2.07368
20
0.385839
11
2.07192
21
0.389359
0
LINE
8
BLACK
6
CONTINUOUS
10
2.07192
20
0.389359
11
2.07046
21
0.390816
0
LINE
8
BLACK
6
CONTINUOUS
10
2.07046
20
0.390816
11
2.06694
21
0.392576
0
LINE
8
BLACK
6
CONTINUOUS
10
2.06694
20
0.392576
11
2.05567
21
0.392576
0
LINE
8
BLACK
6
CONTINUOUS
10
2.05567
20
0.392576
11
2.05215
21
0.390816
0
LINE
8
BLACK
6
CONTINUOUS
10
2.05215
20
0.390816
11
2.05001
21
0.388681
0
LINE
8
BLACK
6
CONTINUOUS
10
2.05001
20
0.388681
11
2.04737
21
0.387153
0
LINE
8
BLACK
6
CONTINUOUS
10
2.04737
20
0.387153
11
2.04431
21
0.387153
0
LINE
8
BLACK
6
CONTINUOUS
10
2.04431
20
0.387153
11
2.04166
21
0.388681
0
LINE
8
BLACK
6
CONTINUOUS
10
2.04166
20
0.388681
11
2.04013
21
0.391329
0
LINE
8
BLACK
6
CONTINUOUS
10
2.04013
20
0.391329
11
2.04013
21
0.394386
0
LINE
8
BLACK
6
CONTINUOUS
10
2.04013
20
0.394386
11
2.04166
21
0.397033
0
LINE
8
BLACK
6
CONTINUOUS
10
2.04166
20
0.397033
11
2.04447
21
0.399845
0
LINE
8
BLACK
6
CONTINUOUS
10
2.04447
20
0.399845
11
2.0453
21
0.400321
0
LINE
8
BLACK
6
CONTINUOUS
10
2.0453
20
0.400321
11
2.04601
21
0.400951
0
LINE
8
BLACK
6
CONTINUOUS
10
2.04601
20
0.400951
11
2.05163
21
0.403763
0
LINE
8
BLACK
6
CONTINUOUS
10
2.05163
20
0.403763
11
2.05296
21
0.404036
0
LINE
8
BLACK
6
CONTINUOUS
10
2.05296
20
0.404036
11
2.05427
21
0.404387
0
LINE
8
BLACK
6
CONTINUOUS
10
2.05427
20
0.404387
11
2.06834
21
0.404387
0
LINE
8
BLACK
6
CONTINUOUS
10
2.06834
20
0.404387
11
2.06965
21
0.404036
0
LINE
8
BLACK
6
CONTINUOUS
10
1.90092
20
0.404036
11
1.90225
21
0.403763
0
LINE
8
BLACK
6
CONTINUOUS
10
1.90225
20
0.403763
11
1.90787
21
0.400951
0
LINE
8
BLACK
6
CONTINUOUS
10
1.90787
20
0.400951
11
1.90858
21
0.400321
0
LINE
8
BLACK
6
CONTINUOUS
10
1.90858
20
0.400321
11
1.90941
21
0.399845
0
LINE
8
BLACK
6
CONTINUOUS
10
1.90941
20
0.399845
11
1.91222
21
0.397033
0
LINE
8
BLACK
6
CONTINUOUS
10
1.91222
20
0.397033
11
1.91269
21
0.396209
0
LINE
8
BLACK
6
CONTINUOUS
10
1.91269
20
0.396209
11
1.91332
21
0.395498
0
LINE
8
BLACK
6
CONTINUOUS
10
1.91332
20
0.395498
11
1.91614
21
0.389874
0
LINE
8
BLACK
6
CONTINUOUS
10
1.91614
20
0.389874
11
1.91641
21
0.388544
0
LINE
8
BLACK
6
CONTINUOUS
10
1.91641
20
0.388544
11
1.91676
21
0.387233
0
LINE
8
BLACK
6
CONTINUOUS
10
1.91676
20
0.387233
11
1.91676
21
0.381609
0
LINE
8
BLACK
6
CONTINUOUS
10
1.91676
20
0.381609
11
1.91651
21
0.38069
0
LINE
8
BLACK
6
CONTINUOUS
10
1.91651
20
0.38069
11
1.91646
21
0.379741
0
LINE
8
BLACK
6
CONTINUOUS
10
1.91646
20
0.379741
11
1.91365
21
0.371305
0
LINE
8
BLACK
6
CONTINUOUS
10
1.91365
20
0.371305
11
1.9129
21
0.370172
0
LINE
8
BLACK
6
CONTINUOUS
10
1.9129
20
0.370172
11
1.91222
21
0.368996
0
LINE
8
BLACK
6
CONTINUOUS
10
1.91222
20
0.368996
11
1.88855
21
0.345332
0
LINE
8
BLACK
6
CONTINUOUS
10
1.88855
20
0.345332
11
1.91085
21
0.345332
0
LINE
8
BLACK
6
CONTINUOUS
10
1.91085
20
0.345332
11
1.91381
21
0.344541
0
LINE
8
BLACK
6
CONTINUOUS
10
1.91381
20
0.344541
11
1.91597
21
0.342379
0
LINE
8
BLACK
6
CONTINUOUS
10
1.91597
20
0.342379
11
1.91676
21
0.339426
0
LINE
8
BLACK
6
CONTINUOUS
10
1.91676
20
0.339426
11
1.91597
21
0.336474
0
LINE
8
BLACK
6
CONTINUOUS
10
1.91597
20
0.336474
11
1.91381
21
0.334312
0
LINE
8
BLACK
6
CONTINUOUS
10
1.91381
20
0.334312
11
1.91085
21
0.333521
0
LINE
8
BLACK
6
CONTINUOUS
10
1.91085
20
0.333521
11
1.8743
21
0.333521
0
LINE
8
BLACK
6
CONTINUOUS
10
1.8743
20
0.333521
11
1.87355
21
0.333722
0
LINE
8
BLACK
6
CONTINUOUS
10
1.87355
20
0.333722
11
1.87277
21
0.333722
0
LINE
8
BLACK
6
CONTINUOUS
10
1.87277
20
0.333722
11
1.8721
21
0.334111
0
LINE
8
BLACK
6
CONTINUOUS
10
1.8721
20
0.334111
11
1.87134
21
0.334312
0
LINE
8
BLACK
6
CONTINUOUS
10
1.87134
20
0.334312
11
1.87079
21
0.334862
0
LINE
8
BLACK
6
CONTINUOUS
10
1.87079
20
0.334862
11
1.87012
21
0.33525
0
LINE
8
BLACK
6
CONTINUOUS
10
1.87012
20
0.33525
11
1.86973
21
0.335924
0
LINE
8
BLACK
6
CONTINUOUS
10
1.86973
20
0.335924
11
1.86918
21
0.336474
0
LINE
8
BLACK
6
CONTINUOUS
10
1.86918
20
0.336474
11
1.86898
21
0.337225
0
LINE
8
BLACK
6
CONTINUOUS
10
1.86898
20
0.337225
11
1.86859
21
0.337898
0
LINE
8
BLACK
6
CONTINUOUS
10
1.86859
20
0.337898
11
1.86859
21
0.338675
0
LINE
8
BLACK
6
CONTINUOUS
10
1.86859
20
0.338675
11
1.86839
21
0.339426
0
LINE
8
BLACK
6
CONTINUOUS
10
1.86839
20
0.339426
11
1.86859
21
0.340177
0
LINE
8
BLACK
6
CONTINUOUS
10
1.86859
20
0.340177
11
1.86859
21
0.340955
0
LINE
8
BLACK
6
CONTINUOUS
10
1.86859
20
0.340955
11
1.86898
21
0.341628
0
LINE
8
BLACK
6
CONTINUOUS
10
1.86898
20
0.341628
11
1.86918
21
0.342379
0
LINE
8
BLACK
6
CONTINUOUS
10
1.86918
20
0.342379
11
1.86973
21
0.342929
0
LINE
8
BLACK
6
CONTINUOUS
10
1.86973
20
0.342929
11
1.87012
21
0.343602
0
LINE
8
BLACK
6
CONTINUOUS
10
1.87012
20
0.343602
11
1.90288
21
0.376362
0
LINE
8
BLACK
6
CONTINUOUS
10
1.90288
20
0.376362
11
1.90495
21
0.382567
0
LINE
8
BLACK
6
CONTINUOUS
10
1.90495
20
0.382567
11
1.90495
21
0.385839
0
LINE
8
BLACK
6
CONTINUOUS
10
1.90495
20
0.385839
11
1.90319
21
0.389359
0
LINE
8
BLACK
6
CONTINUOUS
10
1.90319
20
0.389359
11
1.90173
21
0.390816
0
LINE
8
BLACK
6
CONTINUOUS
10
1.90173
20
0.390816
11
1.89821
21
0.392576
0
LINE
8
BLACK
6
CONTINUOUS
10
1.89821
20
0.392576
11
1.88694
21
0.392576
0
LINE
8
BLACK
6
CONTINUOUS
10
1.88694
20
0.392576
11
1.88342
21
0.390816
0
LINE
8
BLACK
6
CONTINUOUS
10
1.88342
20
0.390816
11
1.88128
21
0.388681
0
LINE
8
BLACK
6
CONTINUOUS
10
1.88128
20
0.388681
11
1.87864
21
0.387153
0
LINE
8
BLACK
6
CONTINUOUS
10
1.87864
20
0.387153
11
1.87558
21
0.387153
0
LINE
8
BLACK
6
CONTINUOUS
10
1.87558
20
0.387153
11
1.87293
21
0.388681
0
LINE
8
BLACK
6
CONTINUOUS
10
1.87293
20
0.388681
11
1.8714
21
0.391329
0
LINE
8
BLACK
6
CONTINUOUS
10
1.8714
20
0.391329
11
1.8714
21
0.394386
0
LINE
8
BLACK
6
CONTINUOUS
10
1.8714
20
0.394386
11
1.87293
21
0.397033
0
LINE
8
BLACK
6
CONTINUOUS
10
1.87293
20
0.397033
11
1.87575
21
0.399845
0
LINE
8
BLACK
6
CONTINUOUS
10
1.87575
20
0.399845
11
1.87657
21
0.400321
0
LINE
8
BLACK
6
CONTINUOUS
10
1.87657
20
0.400321
11
1.87728
21
0.400951
0
LINE
8
BLACK
6
CONTINUOUS
10
1.87728
20
0.400951
11
1.8829
21
0.403763
0
LINE
8
BLACK
6
CONTINUOUS
10
1.8829
20
0.403763
11
1.88423
21
0.404036
0
LINE
8
BLACK
6
CONTINUOUS
10
1.88423
20
0.404036
11
1.88555
21
0.404387
0
LINE
8
BLACK
6
CONTINUOUS
10
1.88555
20
0.404387
11
1.89961
21
0.404387
0
LINE
8
BLACK
6
CONTINUOUS
10
1.89961
20
0.404387
11
1.90092
21
0.404036
0
LINE
8
BLACK
6
CONTINUOUS
10
2.0134
20
0.404036
11
2.01473
21
0.403763
0
LINE
8
BLACK
6
CONTINUOUS
10
2.01473
20
0.403763
11
2.02036
21
0.400951
0
LINE
8
BLACK
6
CONTINUOUS
10
2.02036
20
0.400951
11
2.02107
21
0.400321
0
LINE
8
BLACK
6
CONTINUOUS
10
2.02107
20
0.400321
11
2.02189
21
0.399845
0
LINE
8
BLACK
6
CONTINUOUS
10
2.02189
20
0.399845
11
2.0247
21
0.397033
0
LINE
8
BLACK
6
CONTINUOUS
10
2.0247
20
0.397033
11
2.02518
21
0.396209
0
LINE
8
BLACK
6
CONTINUOUS
10
2.02518
20
0.396209
11
2.02581
21
0.395498
0
LINE
8
BLACK
6
CONTINUOUS
10
2.02581
20
0.395498
11
2.02862
21
0.389874
0
LINE
8
BLACK
6
CONTINUOUS
10
2.02862
20
0.389874
11
2.0289
21
0.388544
0
LINE
8
BLACK
6
CONTINUOUS
10
2.0289
20
0.388544
11
2.02925
21
0.387233
0
LINE
8
BLACK
6
CONTINUOUS
10
2.02925
20
0.387233
11
2.02925
21
0.381609
0
LINE
8
BLACK
6
CONTINUOUS
10
2.02925
20
0.381609
11
2.029
21
0.38069
0
LINE
8
BLACK
6
CONTINUOUS
10
2.029
20
0.38069
11
2.02894
21
0.379741
0
LINE
8
BLACK
6
CONTINUOUS
10
2.02894
20
0.379741
11
2.02613
21
0.371305
0
LINE
8
BLACK
6
CONTINUOUS
10
2.02613
20
0.371305
11
2.02538
21
0.370172
0
LINE
8
BLACK
6
CONTINUOUS
10
2.02538
20
0.370172
11
2.0247
21
0.368996
0
LINE
8
BLACK
6
CONTINUOUS
10
2.0247
20
0.368996
11
2.00104
21
0.345332
0
LINE
8
BLACK
6
CONTINUOUS
10
2.00104
20
0.345332
11
2.02334
21
0.345332
0
LINE
8
BLACK
6
CONTINUOUS
10
2.02334
20
0.345332
11
2.02629
21
0.344541
0
LINE
8
BLACK
6
CONTINUOUS
10
2.02629
20
0.344541
11
2.02846
21
0.342379
0
LINE
8
BLACK
6
CONTINUOUS
10
2.02846
20
0.342379
11
2.02925
21
0.339426
0
LINE
8
BLACK
6
CONTINUOUS
10
2.02925
20
0.339426
11
2.02846
21
0.336474
0
LINE
8
BLACK
6
CONTINUOUS
10
2.02846
20
0.336474
11
2.02629
21
0.334312
0
LINE
8
BLACK
6
CONTINUOUS
10
2.02629
20
0.334312
11
2.02334
21
0.333521
0
LINE
8
BLACK
6
CONTINUOUS
10
2.02334
20
0.333521
11
1.98678
21
0.333521
0
LINE
8
BLACK
6
CONTINUOUS
10
1.98678
20
0.333521
11
1.98603
21
0.333722
0
LINE
8
BLACK
6
CONTINUOUS
10
1.98603
20
0.333722
11
1.98525
21
0.333722
0
LINE
8
BLACK
6
CONTINUOUS
10
1.98525
20
0.333722
11
1.98458
21
0.334111
0
LINE
8
BLACK
6
CONTINUOUS
10
1.98458
20
0.334111
11
1.98383
21
0.334312
0
LINE
8
BLACK
6
CONTINUOUS
10
1.98383
20
0.334312
11
1.98328
21
0.334862
0
LINE
8
BLACK
6
CONTINUOUS
10
1.98328
20
0.334862
11
1.98261
21
0.33525
0
LINE
8
BLACK
6
CONTINUOUS
10
1.98261
20
0.33525
11
1.98222
21
0.335924
0
LINE
8
BLACK
6
CONTINUOUS
10
1.98222
20
0.335924
11
1.98167
21
0.336474
0
LINE
8
BLACK
6
CONTINUOUS
10
1.98167
20
0.336474
11
1.98147
21
0.337225
0
LINE
8
BLACK
6
CONTINUOUS
10
1.98147
20
0.337225
11
1.98108
21
0.337898
0
LINE
8
BLACK
6
CONTINUOUS
10
1.98108
20
0.337898
11
1.98108
21
0.338675
0
LINE
8
BLACK
6
CONTINUOUS
10
1.98108
20
0.338675
11
1.98088
21
0.339426
0
LINE
8
BLACK
6
CONTINUOUS
10
1.98088
20
0.339426
11
1.98108
21
0.340177
0
LINE
8
BLACK
6
CONTINUOUS
10
1.98108
20
0.340177
11
1.98108
21
0.340955
0
LINE
8
BLACK
6
CONTINUOUS
10
1.98108
20
0.340955
11
1.98147
21
0.341628
0
LINE
8
BLACK
6
CONTINUOUS
10
1.98147
20
0.341628
11
1.98167
21
0.342379
0
LINE
8
BLACK
6
CONTINUOUS
10
1.98167
20
0.342379
11
1.98222
21
0.342929
0
LINE
8
BLACK
6
CONTINUOUS
10
1.98222
20
0.342929
11
1.98261
21
0.343602
0
LINE
8
BLACK
6
CONTINUOUS
10
1.98261
20
0.343602
11
2.01537
21
0.376362
0
LINE
8
BLACK
6
CONTINUOUS
10
2.01537
20
0.376362
11
2.01744
21
0.382567
0
LINE
8
BLACK
6
CONTINUOUS
10
2.01744
20
0.382567
11
2.01744
21
0.385839
0
LINE
8
BLACK
6
CONTINUOUS
10
2.01744
20
0.385839
11
2.01568
21
0.389359
0
LINE
8
BLACK
6
CONTINUOUS
10
2.01568
20
0.389359
11
2.01422
21
0.390816
0
LINE
8
BLACK
6
CONTINUOUS
10
2.01422
20
0.390816
11
2.0107
21
0.392576
0
LINE
8
BLACK
6
CONTINUOUS
10
2.0107
20
0.392576
11
1.99943
21
0.392576
0
LINE
8
BLACK
6
CONTINUOUS
10
1.99943
20
0.392576
11
1.99591
21
0.390816
0
LINE
8
BLACK
6
CONTINUOUS
10
1.99591
20
0.390816
11
1.99377
21
0.388681
0
LINE
8
BLACK
6
CONTINUOUS
10
1.99377
20
0.388681
11
1.99112
21
0.387153
0
LINE
8
BLACK
6
CONTINUOUS
10
1.99112
20
0.387153
11
1.98807
21
0.387153
0
LINE
8
BLACK
6
CONTINUOUS
10
1.98807
20
0.387153
11
1.98542
21
0.388681
0
LINE
8
BLACK
6
CONTINUOUS
10
1.98542
20
0.388681
11
1.98389
21
0.391329
0
LINE
8
BLACK
6
CONTINUOUS
10
1.98389
20
0.391329
11
1.98389
21
0.394386
0
LINE
8
BLACK
6
CONTINUOUS
10
1.98389
20
0.394386
11
1.98542
21
0.397033
0
LINE
8
BLACK
6
CONTINUOUS
10
1.98542
20
0.397033
11
1.98823
21
0.399845
0
LINE
8
BLACK
6
CONTINUOUS
10
1.98823
20
0.399845
11
1.98905
21
0.400321
0
LINE
8
BLACK
6
CONTINUOUS
10
1.98905
20
0.400321
11
1.98977
21
0.400951
0
LINE
8
BLACK
6
CONTINUOUS
10
1.98977
20
0.400951
11
1.99539
21
0.403764
0
LINE
8
BLACK
6
CONTINUOUS
10
1.99539
20
0.403764
11
1.99672
21
0.404036
0
LINE
8
BLACK
6
CONTINUOUS
10
1.99672
20
0.404036
11
1.99803
21
0.404387
0
LINE
8
BLACK
6
CONTINUOUS
10
1.99803
20
0.404387
11
2.01209
21
0.404387
0
LINE
8
BLACK
6
CONTINUOUS
10
2.01209
20
0.404387
11
2.0134
21
0.404036
0
LINE
8
BLACK
6
CONTINUOUS
10
1.95435
20
0.404036
11
1.95568
21
0.403763
0
LINE
8
BLACK
6
CONTINUOUS
10
1.95568
20
0.403763
11
1.9613
21
0.400951
0
LINE
8
BLACK
6
CONTINUOUS
10
1.9613
20
0.400951
11
1.96201
21
0.400321
0
LINE
8
BLACK
6
CONTINUOUS
10
1.96201
20
0.400321
11
1.96284
21
0.399845
0
LINE
8
BLACK
6
CONTINUOUS
10
1.96284
20
0.399845
11
1.96565
21
0.397033
0
LINE
8
BLACK
6
CONTINUOUS
10
1.96565
20
0.397033
11
1.96612
21
0.396209
0
LINE
8
BLACK
6
CONTINUOUS
10
1.96612
20
0.396209
11
1.96676
21
0.395498
0
LINE
8
BLACK
6
CONTINUOUS
10
1.96676
20
0.395498
11
1.96957
21
0.389874
0
LINE
8
BLACK
6
CONTINUOUS
10
1.96957
20
0.389874
11
1.9697
21
0.389235
0
LINE
8
BLACK
6
CONTINUOUS
10
1.9697
20
0.389235
11
1.97001
21
0.388665
0
LINE
8
BLACK
6
CONTINUOUS
10
1.97001
20
0.388665
11
1.97283
21
0.377417
0
LINE
8
BLACK
6
CONTINUOUS
10
1.97283
20
0.377417
11
1.97281
21
0.376688
0
LINE
8
BLACK
6
CONTINUOUS
10
1.97281
20
0.376688
11
1.973
21
0.375984
0
LINE
8
BLACK
6
CONTINUOUS
10
1.973
20
0.375984
11
1.973
21
0.361924
0
LINE
8
BLACK
6
CONTINUOUS
10
1.973
20
0.361924
11
1.97281
21
0.36122
0
LINE
8
BLACK
6
CONTINUOUS
10
1.97281
20
0.36122
11
1.97283
21
0.360491
0
LINE
8
BLACK
6
CONTINUOUS
10
1.97283
20
0.360491
11
1.97001
21
0.349243
0
LINE
8
BLACK
6
CONTINUOUS
10
1.97001
20
0.349243
11
1.9697
21
0.348673
0
LINE
8
BLACK
6
CONTINUOUS
10
1.9697
20
0.348673
11
1.96957
21
0.348034
0
LINE
8
BLACK
6
CONTINUOUS
10
1.96957
20
0.348034
11
1.96676
21
0.34241
0
LINE
8
BLACK
6
CONTINUOUS
10
1.96676
20
0.34241
11
1.96612
21
0.341698
0
LINE
8
BLACK
6
CONTINUOUS
10
1.96612
20
0.341698
11
1.96565
21
0.340875
0
LINE
8
BLACK
6
CONTINUOUS
10
1.96565
20
0.340875
11
1.96284
21
0.338063
0
LINE
8
BLACK
6
CONTINUOUS
10
1.96284
20
0.338063
11
1.96201
21
0.337587
0
LINE
8
BLACK
6
CONTINUOUS
10
1.96201
20
0.337587
11
1.9613
21
0.336956
0
LINE
8
BLACK
6
CONTINUOUS
10
1.9613
20
0.336956
11
1.95568
21
0.334144
0
LINE
8
BLACK
6
CONTINUOUS
10
1.95568
20
0.334144
11
1.95435
21
0.333872
0
LINE
8
BLACK
6
CONTINUOUS
10
1.95435
20
0.333872
11
1.95304
21
0.333521
0
LINE
8
BLACK
6
CONTINUOUS
10
1.95304
20
0.333521
11
1.94741
21
0.333521
0
LINE
8
BLACK
6
CONTINUOUS
10
1.94741
20
0.333521
11
1.9461
21
0.333872
0
LINE
8
BLACK
6
CONTINUOUS
10
1.9461
20
0.333872
11
1.94477
21
0.334144
0
LINE
8
BLACK
6
CONTINUOUS
10
1.94477
20
0.334144
11
1.93915
21
0.336956
0
LINE
8
BLACK
6
CONTINUOUS
10
1.93915
20
0.336956
11
1.93844
21
0.337587
0
LINE
8
BLACK
6
CONTINUOUS
10
1.93844
20
0.337587
11
1.93761
21
0.338063
0
LINE
8
BLACK
6
CONTINUOUS
10
1.93761
20
0.338063
11
1.9348
21
0.340875
0
LINE
8
BLACK
6
CONTINUOUS
10
1.9348
20
0.340875
11
1.93433
21
0.341698
0
LINE
8
BLACK
6
CONTINUOUS
10
1.93433
20
0.341698
11
1.93369
21
0.34241
0
LINE
8
BLACK
6
CONTINUOUS
10
1.93369
20
0.34241
11
1.93088
21
0.348034
0
LINE
8
BLACK
6
CONTINUOUS
10
1.93088
20
0.348034
11
1.93075
21
0.348673
0
LINE
8
BLACK
6
CONTINUOUS
10
1.93075
20
0.348673
11
1.93044
21
0.349243
0
LINE
8
BLACK
6
CONTINUOUS
10
1.93044
20
0.349243
11
1.92762
21
0.360491
0
LINE
8
BLACK
6
CONTINUOUS
10
1.92762
20
0.360491
11
1.92764
21
0.36122
0
LINE
8
BLACK
6
CONTINUOUS
10
1.92764
20
0.36122
11
1.92745
21
0.361924
0
LINE
8
BLACK
6
CONTINUOUS
10
1.92745
20
0.361924
11
1.92745
21
0.375984
0
LINE
8
BLACK
6
CONTINUOUS
10
1.92745
20
0.375984
11
1.92764
21
0.376688
0
LINE
8
BLACK
6
CONTINUOUS
10
1.92764
20
0.376688
11
1.92762
21
0.377417
0
LINE
8
BLACK
6
CONTINUOUS
10
1.92762
20
0.377417
11
1.93044
21
0.388665
0
LINE
8
BLACK
6
CONTINUOUS
10
1.93044
20
0.388665
11
1.93075
21
0.389235
0
LINE
8
BLACK
6
CONTINUOUS
10
1.93075
20
0.389235
11
1.93088
21
0.389874
0
LINE
8
BLACK
6
CONTINUOUS
10
1.93088
20
0.389874
11
1.93369
21
0.395498
0
LINE
8
BLACK
6
CONTINUOUS
10
1.93369
20
0.395498
11
1.93433
21
0.396209
0
LINE
8
BLACK
6
CONTINUOUS
10
1.93433
20
0.396209
11
1.9348
21
0.397033
0
LINE
8
BLACK
6
CONTINUOUS
10
1.9348
20
0.397033
11
1.93761
21
0.399845
0
LINE
8
BLACK
6
CONTINUOUS
10
1.93761
20
0.399845
11
1.93844
21
0.400321
0
LINE
8
BLACK
6
CONTINUOUS
10
1.93844
20
0.400321
11
1.93915
21
0.400951
0
LINE
8
BLACK
6
CONTINUOUS
10
1.93915
20
0.400951
11
1.94477
21
0.403763
0
LINE
8
BLACK
6
CONTINUOUS
10
1.94477
20
0.403763
11
1.9461
21
0.404036
0
LINE
8
BLACK
6
CONTINUOUS
10
1.9461
20
0.404036
11
1.94741
21
0.404387
0
LINE
8
BLACK
6
CONTINUOUS
10
1.94741
20
0.404387
11
1.95304
21
0.404387
0
LINE
8
BLACK
6
CONTINUOUS
10
1.95304
20
0.404387
11
1.95435
21
0.404036
0
LINE
8
BLACK
6
CONTINUOUS
10
1.94881
20
0.392576
11
1.94529
21
0.390816
0
LINE
8
BLACK
6
CONTINUOUS
10
1.94529
20
0.390816
11
1.94383
21
0.389359
0
LINE
8
BLACK
6
CONTINUOUS
10
1.94383
20
0.389359
11
1.94174
21
0.385172
0
LINE
8
BLACK
6
CONTINUOUS
10
1.94174
20
0.385172
11
1.93926
21
0.375257
0
LINE
8
BLACK
6
CONTINUOUS
10
1.93926
20
0.375257
11
1.93926
21
0.36265
0
LINE
8
BLACK
6
CONTINUOUS
10
1.93926
20
0.36265
11
1.94174
21
0.352736
0
LINE
8
BLACK
6
CONTINUOUS
10
1.94174
20
0.352736
11
1.94383
21
0.348549
0
LINE
8
BLACK
6
CONTINUOUS
10
1.94383
20
0.348549
11
1.94529
21
0.347092
0
LINE
8
BLACK
6
CONTINUOUS
10
1.94529
20
0.347092
11
1.94881
21
0.345332
0
LINE
8
BLACK
6
CONTINUOUS
10
1.94881
20
0.345332
11
1.95164
21
0.345332
0
LINE
8
BLACK
6
CONTINUOUS
10
1.95164
20
0.345332
11
1.95516
21
0.347092
0
LINE
8
BLACK
6
CONTINUOUS
10
1.95516
20
0.347092
11
1.95662
21
0.348549
0
LINE
8
BLACK
6
CONTINUOUS
10
1.95662
20
0.348549
11
1.95871
21
0.352736
0
LINE
8
BLACK
6
CONTINUOUS
10
1.95871
20
0.352736
11
1.96119
21
0.36265
0
LINE
8
BLACK
6
CONTINUOUS
10
1.96119
20
0.36265
11
1.96119
21
0.375257
0
LINE
8
BLACK
6
CONTINUOUS
10
1.96119
20
0.375257
11
1.95871
21
0.385172
0
LINE
8
BLACK
6
CONTINUOUS
10
1.95871
20
0.385172
11
1.95662
21
0.389359
0
LINE
8
BLACK
6
CONTINUOUS
10
1.95662
20
0.389359
11
1.95516
21
0.390816
0
LINE
8
BLACK
6
CONTINUOUS
10
1.95516
20
0.390816
11
1.95164
21
0.392576
0
LINE
8
BLACK
6
CONTINUOUS
10
1.95164
20
0.392576
11
1.94881
21
0.392576
0
LINE
8
BLACK
6
CONTINUOUS
10
2.41045
20
0.396548
11
2.4114
21
0.396491
0
LINE
8
BLACK
6
CONTINUOUS
10
2.4114
20
0.396491
11
2.41984
21
0.393679
0
LINE
8
BLACK
6
CONTINUOUS
10
2.41984
20
0.393679
11
2.42097
21
0.392931
0
LINE
8
BLACK
6
CONTINUOUS
10
2.42097
20
0.392931
11
2.42215
21
0.392252
0
LINE
8
BLACK
6
CONTINUOUS
10
2.42215
20
0.392252
11
2.44581
21
0.368588
0
LINE
8
BLACK
6
CONTINUOUS
10
2.44581
20
0.368588
11
2.44581
21
0.390889
0
LINE
8
BLACK
6
CONTINUOUS
10
2.44581
20
0.390889
11
2.4466
21
0.393841
0
LINE
8
BLACK
6
CONTINUOUS
10
2.4466
20
0.393841
11
2.44876
21
0.396003
0
LINE
8
BLACK
6
CONTINUOUS
10
2.44876
20
0.396003
11
2.45172
21
0.396794
0
LINE
8
BLACK
6
CONTINUOUS
10
2.45172
20
0.396794
11
2.45467
21
0.396003
0
LINE
8
BLACK
6
CONTINUOUS
10
2.45467
20
0.396003
11
2.45683
21
0.393841
0
LINE
8
BLACK
6
CONTINUOUS
10
2.45683
20
0.393841
11
2.45762
21
0.390889
0
LINE
8
BLACK
6
CONTINUOUS
10
2.45762
20
0.390889
11
2.45762
21
0.354331
0
LINE
8
BLACK
6
CONTINUOUS
10
2.45762
20
0.354331
11
2.45742
21
0.35358
0
LINE
8
BLACK
6
CONTINUOUS
10
2.45742
20
0.35358
11
2.45742
21
0.352802
0
LINE
8
BLACK
6
CONTINUOUS
10
2.45742
20
0.352802
11
2.45703
21
0.352129
0
LINE
8
BLACK
6
CONTINUOUS
10
2.45703
20
0.352129
11
2.45683
21
0.351378
0
LINE
8
BLACK
6
CONTINUOUS
10
2.45683
20
0.351378
11
2.45628
21
0.350828
0
LINE
8
BLACK
6
CONTINUOUS
10
2.45628
20
0.350828
11
2.45589
21
0.350155
0
LINE
8
BLACK
6
CONTINUOUS
10
2.45589
20
0.350155
11
2.45522
21
0.349766
0
LINE
8
BLACK
6
CONTINUOUS
10
2.45522
20
0.349766
11
2.45467
21
0.349216
0
LINE
8
BLACK
6
CONTINUOUS
10
2.45467
20
0.349216
11
2.45392
21
0.349015
0
LINE
8
BLACK
6
CONTINUOUS
10
2.45392
20
0.349015
11
2.45324
21
0.348626
0
LINE
8
BLACK
6
CONTINUOUS
10
2.45324
20
0.348626
11
2.45247
21
0.348626
0
LINE
8
BLACK
6
CONTINUOUS
10
2.45247
20
0.348626
11
2.45172
21
0.348425
0
LINE
8
BLACK
6
CONTINUOUS
10
2.45172
20
0.348425
11
2.45096
21
0.348626
0
LINE
8
BLACK
6
CONTINUOUS
10
2.45096
20
0.348626
11
2.45019
21
0.348626
0
LINE
8
BLACK
6
CONTINUOUS
10
2.45019
20
0.348626
11
2.44951
21
0.349015
0
LINE
8
BLACK
6
CONTINUOUS
10
2.44951
20
0.349015
11
2.44876
21
0.349216
0
LINE
8
BLACK
6
CONTINUOUS
10
2.44876
20
0.349216
11
2.44821
21
0.349766
0
LINE
8
BLACK
6
CONTINUOUS
10
2.44821
20
0.349766
11
2.44754
21
0.350155
0
LINE
8
BLACK
6
CONTINUOUS
10
2.44754
20
0.350155
11
2.41478
21
0.382915
0
LINE
8
BLACK
6
CONTINUOUS
10
2.41478
20
0.382915
11
2.40857
21
0.384983
0
LINE
8
BLACK
6
CONTINUOUS
10
2.40857
20
0.384983
11
2.4053
21
0.384983
0
LINE
8
BLACK
6
CONTINUOUS
10
2.4053
20
0.384983
11
2.40178
21
0.383223
0
LINE
8
BLACK
6
CONTINUOUS
10
2.40178
20
0.383223
11
2.40033
21
0.381766
0
LINE
8
BLACK
6
CONTINUOUS
10
2.40033
20
0.381766
11
2.39857
21
0.378246
0
LINE
8
BLACK
6
CONTINUOUS
10
2.39857
20
0.378246
11
2.39857
21
0.366973
0
LINE
8
BLACK
6
CONTINUOUS
10
2.39857
20
0.366973
11
2.40033
21
0.363453
0
LINE
8
BLACK
6
CONTINUOUS
10
2.40033
20
0.363453
11
2.40246
21
0.361319
0
LINE
8
BLACK
6
CONTINUOUS
10
2.40246
20
0.361319
11
2.40399
21
0.358671
0
LINE
8
BLACK
6
CONTINUOUS
10
2.40399
20
0.358671
11
2.40399
21
0.355614
0
LINE
8
BLACK
6
CONTINUOUS
10
2.40399
20
0.355614
11
2.40246
21
0.352967
0
LINE
8
BLACK
6
CONTINUOUS
10
2.40246
20
0.352967
11
2.39981
21
0.351439
0
LINE
8
BLACK
6
CONTINUOUS
10
2.39981
20
0.351439
11
2.39676
21
0.351439
0
LINE
8
BLACK
6
CONTINUOUS
10
2.39676
20
0.351439
11
2.39411
21
0.352967
0
LINE
8
BLACK
6
CONTINUOUS
10
2.39411
20
0.352967
11
2.3913
21
0.355779
0
LINE
8
BLACK
6
CONTINUOUS
10
2.3913
20
0.355779
11
2.39082
21
0.356603
0
LINE
8
BLACK
6
CONTINUOUS
10
2.39082
20
0.356603
11
2.39019
21
0.357314
0
LINE
8
BLACK
6
CONTINUOUS
10
2.39019
20
0.357314
11
2.38738
21
0.362938
0
LINE
8
BLACK
6
CONTINUOUS
10
2.38738
20
0.362938
11
2.38711
21
0.364268
0
LINE
8
BLACK
6
CONTINUOUS
10
2.38711
20
0.364268
11
2.38675
21
0.365579
0
LINE
8
BLACK
6
CONTINUOUS
10
2.38675
20
0.365579
11
2.38675
21
0.37964
0
LINE
8
BLACK
6
CONTINUOUS
10
2.38675
20
0.37964
11
2.38711
21
0.380951
0
LINE
8
BLACK
6
CONTINUOUS
10
2.38711
20
0.380951
11
2.38738
21
0.382281
0
LINE
8
BLACK
6
CONTINUOUS
10
2.38738
20
0.382281
11
2.39019
21
0.387905
0
LINE
8
BLACK
6
CONTINUOUS
10
2.39019
20
0.387905
11
2.39082
21
0.388617
0
LINE
8
BLACK
6
CONTINUOUS
10
2.39082
20
0.388617
11
2.3913
21
0.38944
0
LINE
8
BLACK
6
CONTINUOUS
10
2.3913
20
0.38944
11
2.39411
21
0.392252
0
LINE
8
BLACK
6
CONTINUOUS
10
2.39411
20
0.392252
11
2.39493
21
0.392728
0
LINE
8
BLACK
6
CONTINUOUS
10
2.39493
20
0.392728
11
2.39564
21
0.393359
0
LINE
8
BLACK
6
CONTINUOUS
10
2.39564
20
0.393359
11
2.40127
21
0.396171
0
LINE
8
BLACK
6
CONTINUOUS
10
2.40127
20
0.396171
11
2.4026
21
0.396443
0
LINE
8
BLACK
6
CONTINUOUS
10
2.4026
20
0.396443
11
2.40391
21
0.396794
0
LINE
8
BLACK
6
CONTINUOUS
10
2.40391
20
0.396794
11
2.40953
21
0.396794
0
LINE
8
BLACK
6
CONTINUOUS
10
2.40953
20
0.396794
11
2.41045
21
0.396548
0
LINE
8
BLACK
6
CONTINUOUS
10
0.900384
20
1.08789
11
0.900513
21
1.08791
0
LINE
8
BLACK
6
CONTINUOUS
10
0.900513
20
1.08791
11
0.900626
21
1.08784
0
LINE
8
BLACK
6
CONTINUOUS
10
0.900626
20
1.08784
11
0.90101
21
1.08777
0
LINE
8
BLACK
6
CONTINUOUS
10
0.90101
20
1.08777
11
0.901598
21
1.08728
0
LINE
8
BLACK
6
CONTINUOUS
10
0.901598
20
1.08728
11
0.902262
21
1.0869
0
LINE
8
BLACK
6
CONTINUOUS
10
0.902262
20
1.0869
11
0.902353
21
1.08665
0
LINE
8
BLACK
6
CONTINUOUS
10
0.902353
20
1.08665
11
0.902557
21
1.08648
0
LINE
8
BLACK
6
CONTINUOUS
10
0.902557
20
1.08648
11
0.90269
21
1.08572
0
LINE
8
BLACK
6
CONTINUOUS
10
0.90269
20
1.08572
11
0.902953
21
1.085
0
LINE
8
BLACK
6
CONTINUOUS
10
0.902953
20
1.085
11
0.902953
21
0.685
0
LINE
8
BLACK
6
CONTINUOUS
10
0.902953
20
0.685
11
0.902885
21
0.684616
0
LINE
8
BLACK
6
CONTINUOUS
10
0.902885
20
0.684616
11
0.902908
21
0.684487
0
LINE
8
BLACK
6
CONTINUOUS
10
0.902908
20
0.684487
11
0.902842
21
0.684374
0
LINE
8
BLACK
6
CONTINUOUS
10
0.902842
20
0.684374
11
0.902775
21
0.68399
0
LINE
8
BLACK
6
CONTINUOUS
10
0.902775
20
0.68399
11
0.902282
21
0.683402
0
LINE
8
BLACK
6
CONTINUOUS
10
0.902282
20
0.683402
11
0.901898
21
0.682738
0
LINE
8
BLACK
6
CONTINUOUS
10
0.901898
20
0.682738
11
0.901648
21
0.682647
0
LINE
8
BLACK
6
CONTINUOUS
10
0.901648
20
0.682647
11
0.901476
21
0.682443
0
LINE
8
BLACK
6
CONTINUOUS
10
0.901476
20
0.682443
11
0.900721
21
0.68231
0
LINE
8
BLACK
6
CONTINUOUS
10
0.900721
20
0.68231
11
0.9
21
0.682047
0
LINE
8
BLACK
6
CONTINUOUS
10
0.9
20
0.682047
11
0.8
21
0.682047
0
LINE
8
BLACK
6
CONTINUOUS
10
0.8
20
0.682047
11
0.799616
21
0.682115
0
LINE
8
BLACK
6
CONTINUOUS
10
0.799616
20
0.682115
11
0.799487
21
0.682092
0
LINE
8
BLACK
6
CONTINUOUS
10
0.799487
20
0.682092
11
0.799374
21
0.682158
0
LINE
8
BLACK
6
CONTINUOUS
10
0.799374
20
0.682158
11
0.79899
21
0.682225
0
LINE
8
BLACK
6
CONTINUOUS
10
0.79899
20
0.682225
11
0.798402
21
0.682718
0
LINE
8
BLACK
6
CONTINUOUS
10
0.798402
20
0.682718
11
0.797738
21
0.683102
0
LINE
8
BLACK
6
CONTINUOUS
10
0.797738
20
0.683102
11
0.797647
21
0.683352
0
LINE
8
BLACK
6
CONTINUOUS
10
0.797647
20
0.683352
11
0.797443
21
0.683524
0
LINE
8
BLACK
6
CONTINUOUS
10
0.797443
20
0.683524
11
0.79731
21
0.684279
0
LINE
8
BLACK
6
CONTINUOUS
10
0.79731
20
0.684279
11
0.797047
21
0.685
0
LINE
8
BLACK
6
CONTINUOUS
10
0.797047
20
0.685
11
0.797047
21
1.085
0
LINE
8
BLACK
6
CONTINUOUS
10
0.797047
20
1.085
11
0.797115
21
1.08538
0
LINE
8
BLACK
6
CONTINUOUS
10
0.797115
20
1.08538
11
0.797092
21
1.08551
0
LINE
8
BLACK
6
CONTINUOUS
10
0.797092
20
1.08551
11
0.797158
21
1.08563
0
LINE
8
BLACK
6
CONTINUOUS
10
0.797158
20
1.08563
11
0.797225
21
1.08601
0
LINE
8
BLACK
6
CONTINUOUS
10
0.797225
20
1.08601
11
0.797718
21
1.0866
0
LINE
8
BLACK
6
CONTINUOUS
10
0.797718
20
1.0866
11
0.798102
21
1.08726
0
LINE
8
BLACK
6
CONTINUOUS
10
0.798102
20
1.08726
11
0.798352
21
1.08735
0
LINE
8
BLACK
6
CONTINUOUS
10
0.798352
20
1.08735
11
0.798524
21
1.08756
0
LINE
8
BLACK
6
CONTINUOUS
10
0.798524
20
1.08756
11
0.799279
21
1.08769
0
LINE
8
BLACK
6
CONTINUOUS
10
0.799279
20
1.08769
11
0.8
21
1.08795
0
LINE
8
BLACK
6
CONTINUOUS
10
0.8
20
1.08795
11
0.9
21
1.08795
0
LINE
8
BLACK
6
CONTINUOUS
10
0.9
20
1.08795
11
0.900384
21
1.08789
0
LINE
8
BLACK
6
CONTINUOUS
10
0.802953
20
1.08205
11
0.802953
21
0.687953
0
LINE
8
BLACK
6
CONTINUOUS
10
0.802953
20
0.687953
11
0.897047
21
0.687953
0
LINE
8
BLACK
6
CONTINUOUS
10
0.897047
20
0.687953
11
0.897047
21
1.08205
0
LINE
8
BLACK
6
CONTINUOUS
10
0.897047
20
1.08205
11
0.802953
21
1.08205
0
LINE
8
BLACK
6
CONTINUOUS
10
0.88
20
0.705
11
0.82
21
0.705
0
LINE
8
BLACK
6
CONTINUOUS
10
0.82
20
0.705
11
0.82
21
0.765
0
LINE
8
BLACK
6
CONTINUOUS
10
0.82
20
0.765
11
0.88
21
0.765
0
LINE
8
BLACK
6
CONTINUOUS
10
0.88
20
0.765
11
0.88
21
0.705
0
LINE
8
BLACK
6
CONTINUOUS
10
0.88
20
0.805
11
0.82
21
0.805
0
LINE
8
BLACK
6
CONTINUOUS
10
0.82
20
0.805
11
0.82
21
0.865
0
LINE
8
BLACK
6
CONTINUOUS
10
0.82
20
0.865
11
0.88
21
0.865
0
LINE
8
BLACK
6
CONTINUOUS
10
0.88
20
0.865
11
0.88
21
0.805
0
LINE
8
BLACK
6
CONTINUOUS
10
0.88
20
0.905
11
0.82
21
0.905
0
LINE
8
BLACK
6
CONTINUOUS
10
0.82
20
0.905
11
0.82
21
0.965
0
LINE
8
BLACK
6
CONTINUOUS
10
0.82
20
0.965
11
0.88
21
0.965
0
LINE
8
BLACK
6
CONTINUOUS
10
0.88
20
0.965
11
0.88
21
0.905
0
LINE
8
BLACK
6
CONTINUOUS
10
0.88
20
1.005
11
0.82
21
1.005
0
LINE
8
BLACK
6
CONTINUOUS
10
0.82
20
1.005
11
0.82
21
1.065
0
LINE
8
BLACK
6
CONTINUOUS
10
0.82
20
1.065
11
0.88
21
1.065
0
LINE
8
BLACK
6
CONTINUOUS
10
0.88
20
1.065
11
0.88
21
1.005
0
LINE
8
BLACK
6
CONTINUOUS
10
0.973826
20
0.736547
11
0.974618
21
0.733594
0
LINE
8
BLACK
6
CONTINUOUS
10
0.974618
20
0.733594
11
0.974618
21
0.713909
0
LINE
8
BLACK
6
CONTINUOUS
10
0.974618
20
0.713909
11
0.974416
21
0.713158
0
LINE
8
BLACK
6
CONTINUOUS
10
0.974416
20
0.713158
11
0.974416
21
0.71238
0
LINE
8
BLACK
6
CONTINUOUS
10
0.974416
20
0.71238
11
0.974028
21
0.711707
0
LINE
8
BLACK
6
CONTINUOUS
10
0.974028
20
0.711707
11
0.973826
21
0.710956
0
LINE
8
BLACK
6
CONTINUOUS
10
0.973826
20
0.710956
11
0.973277
21
0.710406
0
LINE
8
BLACK
6
CONTINUOUS
10
0.973277
20
0.710406
11
0.972888
21
0.709733
0
LINE
8
BLACK
6
CONTINUOUS
10
0.972888
20
0.709733
11
0.970076
21
0.706921
0
LINE
8
BLACK
6
CONTINUOUS
10
0.970076
20
0.706921
11
0.9689
21
0.706242
0
LINE
8
BLACK
6
CONTINUOUS
10
0.9689
20
0.706242
11
0.967767
21
0.705494
0
LINE
8
BLACK
6
CONTINUOUS
10
0.967767
20
0.705494
11
0.959331
21
0.702682
0
LINE
8
BLACK
6
CONTINUOUS
10
0.959331
20
0.702682
11
0.958382
21
0.702625
0
LINE
8
BLACK
6
CONTINUOUS
10
0.958382
20
0.702625
11
0.957463
21
0.702379
0
LINE
8
BLACK
6
CONTINUOUS
10
0.957463
20
0.702379
11
0.951839
21
0.702379
0
LINE
8
BLACK
6
CONTINUOUS
10
0.951839
20
0.702379
11
0.950921
21
0.702625
0
LINE
8
BLACK
6
CONTINUOUS
10
0.950921
20
0.702625
11
0.949972
21
0.702682
0
LINE
8
BLACK
6
CONTINUOUS
10
0.949972
20
0.702682
11
0.941535
21
0.705494
0
LINE
8
BLACK
6
CONTINUOUS
10
0.941535
20
0.705494
11
0.940402
21
0.706242
0
LINE
8
BLACK
6
CONTINUOUS
10
0.940402
20
0.706242
11
0.939227
21
0.706921
0
LINE
8
BLACK
6
CONTINUOUS
10
0.939227
20
0.706921
11
0.933603
21
0.712545
0
LINE
8
BLACK
6
CONTINUOUS
10
0.933603
20
0.712545
11
0.933127
21
0.713369
0
LINE
8
BLACK
6
CONTINUOUS
10
0.933127
20
0.713369
11
0.932496
21
0.71408
0
LINE
8
BLACK
6
CONTINUOUS
10
0.932496
20
0.71408
11
0.929684
21
0.719704
0
LINE
8
BLACK
6
CONTINUOUS
10
0.929684
20
0.719704
11
0.929553
21
0.720343
0
LINE
8
BLACK
6
CONTINUOUS
10
0.929553
20
0.720343
11
0.929237
21
0.720913
0
LINE
8
BLACK
6
CONTINUOUS
10
0.929237
20
0.720913
11
0.926425
21
0.732162
0
LINE
8
BLACK
6
CONTINUOUS
10
0.926425
20
0.732162
11
0.926437
21
0.73289
0
LINE
8
BLACK
6
CONTINUOUS
10
0.926437
20
0.73289
11
0.926249
21
0.733594
0
LINE
8
BLACK
6
CONTINUOUS
10
0.926249
20
0.733594
11
0.926249
21
0.74203
0
LINE
8
BLACK
6
CONTINUOUS
10
0.926249
20
0.74203
11
0.926437
21
0.742734
0
LINE
8
BLACK
6
CONTINUOUS
10
0.926437
20
0.742734
11
0.926425
21
0.743463
0
LINE
8
BLACK
6
CONTINUOUS
10
0.926425
20
0.743463
11
0.929237
21
0.754711
0
LINE
8
BLACK
6
CONTINUOUS
10
0.929237
20
0.754711
11
0.929553
21
0.755281
0
LINE
8
BLACK
6
CONTINUOUS
10
0.929553
20
0.755281
11
0.929684
21
0.75592
0
LINE
8
BLACK
6
CONTINUOUS
10
0.929684
20
0.75592
11
0.932496
21
0.761544
0
LINE
8
BLACK
6
CONTINUOUS
10
0.932496
20
0.761544
11
0.933127
21
0.762256
0
LINE
8
BLACK
6
CONTINUOUS
10
0.933127
20
0.762256
11
0.933603
21
0.763079
0
LINE
8
BLACK
6
CONTINUOUS
10
0.933603
20
0.763079
11
0.939227
21
0.768703
0
LINE
8
BLACK
6
CONTINUOUS
10
0.939227
20
0.768703
11
0.940402
21
0.769382
0
LINE
8
BLACK
6
CONTINUOUS
10
0.940402
20
0.769382
11
0.941535
21
0.77013
0
LINE
8
BLACK
6
CONTINUOUS
10
0.941535
20
0.77013
11
0.949972
21
0.772942
0
LINE
8
BLACK
6
CONTINUOUS
10
0.949972
20
0.772942
11
0.950921
21
0.772999
0
LINE
8
BLACK
6
CONTINUOUS
10
0.950921
20
0.772999
11
0.951839
21
0.773245
0
LINE
8
BLACK
6
CONTINUOUS
10
0.951839
20
0.773245
11
0.960276
21
0.773245
0
LINE
8
BLACK
6
CONTINUOUS
10
0.960276
20
0.773245
11
0.961587
21
0.772894
0
LINE
8
BLACK
6
CONTINUOUS
10
0.961587
20
0.772894
11
0.962917
21
0.772622
0
LINE
8
BLACK
6
CONTINUOUS
10
0.962917
20
0.772622
11
0.968541
21
0.76981
0
LINE
8
BLACK
6
CONTINUOUS
10
0.968541
20
0.76981
11
0.970828
21
0.767781
0
LINE
8
BLACK
6
CONTINUOUS
10
0.970828
20
0.767781
11
0.971795
21
0.764881
0
LINE
8
BLACK
6
CONTINUOUS
10
0.971795
20
0.764881
11
0.971182
21
0.761887
0
LINE
8
BLACK
6
CONTINUOUS
10
0.971182
20
0.761887
11
0.969154
21
0.759599
0
LINE
8
BLACK
6
CONTINUOUS
10
0.969154
20
0.759599
11
0.966254
21
0.758633
0
LINE
8
BLACK
6
CONTINUOUS
10
0.966254
20
0.758633
11
0.963259
21
0.759246
0
LINE
8
BLACK
6
CONTINUOUS
10
0.963259
20
0.759246
11
0.958881
21
0.761434
0
LINE
8
BLACK
6
CONTINUOUS
10
0.958881
20
0.761434
11
0.952798
21
0.761434
0
LINE
8
BLACK
6
CONTINUOUS
10
0.952798
20
0.761434
11
0.946593
21
0.759366
0
LINE
8
BLACK
6
CONTINUOUS
10
0.946593
20
0.759366
11
0.942632
21
0.755405
0
LINE
8
BLACK
6
CONTINUOUS
10
0.942632
20
0.755405
11
0.940538
21
0.751218
0
LINE
8
BLACK
6
CONTINUOUS
10
0.940538
20
0.751218
11
0.93806
21
0.741303
0
LINE
8
BLACK
6
CONTINUOUS
10
0.93806
20
0.741303
11
0.93806
21
0.734321
0
LINE
8
BLACK
6
CONTINUOUS
10
0.93806
20
0.734321
11
0.940538
21
0.724407
0
LINE
8
BLACK
6
CONTINUOUS
10
0.940538
20
0.724407
11
0.942632
21
0.720219
0
LINE
8
BLACK
6
CONTINUOUS
10
0.942632
20
0.720219
11
0.946593
21
0.716258
0
LINE
8
BLACK
6
CONTINUOUS
10
0.946593
20
0.716258
11
0.952798
21
0.71419
0
LINE
8
BLACK
6
CONTINUOUS
10
0.952798
20
0.71419
11
0.956505
21
0.71419
0
LINE
8
BLACK
6
CONTINUOUS
10
0.956505
20
0.71419
11
0.96271
21
0.716258
0
LINE
8
BLACK
6
CONTINUOUS
10
0.96271
20
0.716258
11
0.962806
21
0.716355
0
LINE
8
BLACK
6
CONTINUOUS
10
0.962806
20
0.716355
11
0.962806
21
0.727688
0
LINE
8
BLACK
6
CONTINUOUS
10
0.962806
20
0.727688
11
0.957463
21
0.727688
0
LINE
8
BLACK
6
CONTINUOUS
10
0.957463
20
0.727688
11
0.954511
21
0.72848
0
LINE
8
BLACK
6
CONTINUOUS
10
0.954511
20
0.72848
11
0.952349
21
0.730641
0
LINE
8
BLACK
6
CONTINUOUS
10
0.952349
20
0.730641
11
0.951558
21
0.733594
0
LINE
8
BLACK
6
CONTINUOUS
10
0.951558
20
0.733594
11
0.952349
21
0.736547
0
LINE
8
BLACK
6
CONTINUOUS
10
0.952349
20
0.736547
11
0.954511
21
0.738708
0
LINE
8
BLACK
6
CONTINUOUS
10
0.954511
20
0.738708
11
0.957463
21
0.739499
0
LINE
8
BLACK
6
CONTINUOUS
10
0.957463
20
0.739499
11
0.968712
21
0.739499
0
LINE
8
BLACK
6
CONTINUOUS
10
0.968712
20
0.739499
11
0.971665
21
0.738708
0
LINE
8
BLACK
6
CONTINUOUS
10
0.971665
20
0.738708
11
0.973826
21
0.736547
0
LINE
8
BLACK
6
CONTINUOUS
10
1.03072
20
0.772454
11
1.03288
21
0.770292
0
LINE
8
BLACK
6
CONTINUOUS
10
1.03288
20
0.770292
11
1.03367
21
0.76734
0
LINE
8
BLACK
6
CONTINUOUS
10
1.03367
20
0.76734
11
1.03367
21
0.708285
0
LINE
8
BLACK
6
CONTINUOUS
10
1.03367
20
0.708285
11
1.03367
21
0.708271
0
LINE
8
BLACK
6
CONTINUOUS
10
1.03367
20
0.708271
11
1.03367
21
0.708258
0
LINE
8
BLACK
6
CONTINUOUS
10
1.03367
20
0.708258
11
1.03327
21
0.706792
0
LINE
8
BLACK
6
CONTINUOUS
10
1.03327
20
0.706792
11
1.03288
21
0.705332
0
LINE
8
BLACK
6
CONTINUOUS
10
1.03288
20
0.705332
11
1.03287
21
0.705322
0
LINE
8
BLACK
6
CONTINUOUS
10
1.03287
20
0.705322
11
1.03287
21
0.705309
0
LINE
8
BLACK
6
CONTINUOUS
10
1.03287
20
0.705309
11
1.03179
21
0.70424
0
LINE
8
BLACK
6
CONTINUOUS
10
1.03179
20
0.70424
11
1.03072
21
0.70317
0
LINE
8
BLACK
6
CONTINUOUS
10
1.03072
20
0.70317
11
1.03071
21
0.703167
0
LINE
8
BLACK
6
CONTINUOUS
10
1.03071
20
0.703167
11
1.0307
21
0.703157
0
LINE
8
BLACK
6
CONTINUOUS
10
1.0307
20
0.703157
11
1.02923
21
0.70277
0
LINE
8
BLACK
6
CONTINUOUS
10
1.02923
20
0.70277
11
1.02777
21
0.702379
0
LINE
8
BLACK
6
CONTINUOUS
10
1.02777
20
0.702379
11
1.02775
21
0.702383
0
LINE
8
BLACK
6
CONTINUOUS
10
1.02775
20
0.702383
11
1.02774
21
0.702379
0
LINE
8
BLACK
6
CONTINUOUS
10
1.02774
20
0.702379
11
1.02628
21
0.702779
0
LINE
8
BLACK
6
CONTINUOUS
10
1.02628
20
0.702779
11
1.02481
21
0.70317
0
LINE
8
BLACK
6
CONTINUOUS
10
1.02481
20
0.70317
11
1.0248
21
0.70318
0
LINE
8
BLACK
6
CONTINUOUS
10
1.0248
20
0.70318
11
1.02479
21
0.703183
0
LINE
8
BLACK
6
CONTINUOUS
10
1.02479
20
0.703183
11
1.02372
21
0.70426
0
LINE
8
BLACK
6
CONTINUOUS
10
1.02372
20
0.70426
11
1.02265
21
0.705332
0
LINE
8
BLACK
6
CONTINUOUS
10
1.02265
20
0.705332
11
1.02265
21
0.705345
0
LINE
8
BLACK
6
CONTINUOUS
10
1.02265
20
0.705345
11
1.02264
21
0.705355
0
LINE
8
BLACK
6
CONTINUOUS
10
1.02264
20
0.705355
11
0.999927
21
0.745102
0
LINE
8
BLACK
6
CONTINUOUS
10
0.999927
20
0.745102
11
0.999927
21
0.708285
0
LINE
8
BLACK
6
CONTINUOUS
10
0.999927
20
0.708285
11
0.999136
21
0.705332
0
LINE
8
BLACK
6
CONTINUOUS
10
0.999136
20
0.705332
11
0.996974
21
0.70317
0
LINE
8
BLACK
6
CONTINUOUS
10
0.996974
20
0.70317
11
0.994021
21
0.702379
0
LINE
8
BLACK
6
CONTINUOUS
10
0.994021
20
0.702379
11
0.991069
21
0.70317
0
LINE
8
BLACK
6
CONTINUOUS
10
0.991069
20
0.70317
11
0.988907
21
0.705332
0
LINE
8
BLACK
6
CONTINUOUS
10
0.988907
20
0.705332
11
0.988116
21
0.708285
0
LINE
8
BLACK
6
CONTINUOUS
10
0.988116
20
0.708285
11
0.988116
21
0.76734
0
LINE
8
BLACK
6
CONTINUOUS
10
0.988116
20
0.76734
11
0.988119
21
0.767353
0
LINE
8
BLACK
6
CONTINUOUS
10
0.988119
20
0.767353
11
0.988116
21
0.767366
0
LINE
8
BLACK
6
CONTINUOUS
10
0.988116
20
0.767366
11
0.988516
21
0.768832
0
LINE
8
BLACK
6
CONTINUOUS
10
0.988516
20
0.768832
11
0.988907
21
0.770292
0
LINE
8
BLACK
6
CONTINUOUS
10
0.988907
20
0.770292
11
0.988917
21
0.770302
0
LINE
8
BLACK
6
CONTINUOUS
10
0.988917
20
0.770302
11
0.98892
21
0.770315
0
LINE
8
BLACK
6
CONTINUOUS
10
0.98892
20
0.770315
11
0.989997
21
0.771382
0
LINE
8
BLACK
6
CONTINUOUS
10
0.989997
20
0.771382
11
0.991069
21
0.772454
0
LINE
8
BLACK
6
CONTINUOUS
10
0.991069
20
0.772454
11
0.991082
21
0.772458
0
LINE
8
BLACK
6
CONTINUOUS
10
0.991082
20
0.772458
11
0.991091
21
0.772467
0
LINE
8
BLACK
6
CONTINUOUS
10
0.991091
20
0.772467
11
0.992557
21
0.772853
0
LINE
8
BLACK
6
CONTINUOUS
10
0.992557
20
0.772853
11
0.994021
21
0.773245
0
LINE
8
BLACK
6
CONTINUOUS
10
0.994021
20
0.773245
11
0.994034
21
0.773242
0
LINE
8
BLACK
6
CONTINUOUS
10
0.994034
20
0.773242
11
0.994048
21
0.773245
0
LINE
8
BLACK
6
CONTINUOUS
10
0.994048
20
0.773245
11
0.995513
21
0.772845
0
LINE
8
BLACK
6
CONTINUOUS
10
0.995513
20
0.772845
11
0.996974
21
0.772454
0
LINE
8
BLACK
6
CONTINUOUS
10
0.996974
20
0.772454
11
0.996984
21
0.772444
0
LINE
8
BLACK
6
CONTINUOUS
10
0.996984
20
0.772444
11
0.996997
21
0.772441
0
LINE
8
BLACK
6
CONTINUOUS
10
0.996997
20
0.772441
11
0.998064
21
0.771364
0
LINE
8
BLACK
6
CONTINUOUS
10
0.998064
20
0.771364
11
0.999136
21
0.770292
0
LINE
8
BLACK
6
CONTINUOUS
10
0.999136
20
0.770292
11
0.999139
21
0.770279
0
LINE
8
BLACK
6
CONTINUOUS
10
0.999139
20
0.770279
11
0.999149
21
0.77027
0
LINE
8
BLACK
6
CONTINUOUS
10
0.999149
20
0.77027
11
1.02186
21
0.730522
0
LINE
8
BLACK
6
CONTINUOUS
10
1.02186
20
0.730522
11
1.02186
21
0.76734
0
LINE
8
BLACK
6
CONTINUOUS
10
1.02186
20
0.76734
11
1.02265
21
0.770292
0
LINE
8
BLACK
6
CONTINUOUS
10
1.02265
20
0.770292
11
1.02481
21
0.772454
0
LINE
8
BLACK
6
CONTINUOUS
10
1.02481
20
0.772454
11
1.02777
21
0.773245
0
LINE
8
BLACK
6
CONTINUOUS
10
1.02777
20
0.773245
11
1.03072
21
0.772454
0
LINE
8
BLACK
6
CONTINUOUS
10
1.07087
20
0.772999
11
1.07182
21
0.772942
0
LINE
8
BLACK
6
CONTINUOUS
10
1.07182
20
0.772942
11
1.08025
21
0.77013
0
LINE
8
BLACK
6
CONTINUOUS
10
1.08025
20
0.77013
11
1.08139
21
0.769382
0
LINE
8
BLACK
6
CONTINUOUS
10
1.08139
20
0.769382
11
1.08256
21
0.768703
0
LINE
8
BLACK
6
CONTINUOUS
10
1.08256
20
0.768703
11
1.08819
21
0.763079
0
LINE
8
BLACK
6
CONTINUOUS
10
1.08819
20
0.763079
11
1.08866
21
0.762256
0
LINE
8
BLACK
6
CONTINUOUS
10
1.08866
20
0.762256
11
1.08929
21
0.761544
0
LINE
8
BLACK
6
CONTINUOUS
10
1.08929
20
0.761544
11
1.0921
21
0.75592
0
LINE
8
BLACK
6
CONTINUOUS
10
1.0921
20
0.75592
11
1.09224
21
0.755281
0
LINE
8
BLACK
6
CONTINUOUS
10
1.09224
20
0.755281
11
1.09255
21
0.754711
0
LINE
8
BLACK
6
CONTINUOUS
10
1.09255
20
0.754711
11
1.09536
21
0.743463
0
LINE
8
BLACK
6
CONTINUOUS
10
1.09536
20
0.743463
11
1.09535
21
0.742734
0
LINE
8
BLACK
6
CONTINUOUS
10
1.09535
20
0.742734
11
1.09554
21
0.74203
0
LINE
8
BLACK
6
CONTINUOUS
10
1.09554
20
0.74203
11
1.09554
21
0.733594
0
LINE
8
BLACK
6
CONTINUOUS
10
1.09554
20
0.733594
11
1.09535
21
0.73289
0
LINE
8
BLACK
6
CONTINUOUS
10
1.09535
20
0.73289
11
1.09536
21
0.732162
0
LINE
8
BLACK
6
CONTINUOUS
10
1.09536
20
0.732162
11
1.09255
21
0.720913
0
LINE
8
BLACK
6
CONTINUOUS
10
1.09255
20
0.720913
11
1.09224
21
0.720343
0
LINE
8
BLACK
6
CONTINUOUS
10
1.09224
20
0.720343
11
1.0921
21
0.719704
0
LINE
8
BLACK
6
CONTINUOUS
10
1.0921
20
0.719704
11
1.08929
21
0.71408
0
LINE
8
BLACK
6
CONTINUOUS
10
1.08929
20
0.71408
11
1.08866
21
0.713369
0
LINE
8
BLACK
6
CONTINUOUS
10
1.08866
20
0.713369
11
1.08819
21
0.712545
0
LINE
8
BLACK
6
CONTINUOUS
10
1.08819
20
0.712545
11
1.08256
21
0.706921
0
LINE
8
BLACK
6
CONTINUOUS
10
1.08256
20
0.706921
11
1.08139
21
0.706242
0
LINE
8
BLACK
6
CONTINUOUS
10
1.08139
20
0.706242
11
1.08025
21
0.705494
0
LINE
8
BLACK
6
CONTINUOUS
10
1.08025
20
0.705494
11
1.07182
21
0.702682
0
LINE
8
BLACK
6
CONTINUOUS
10
1.07182
20
0.702682
11
1.07087
21
0.702625
0
LINE
8
BLACK
6
CONTINUOUS
10
1.07087
20
0.702625
11
1.06995
21
0.702379
0
LINE
8
BLACK
6
CONTINUOUS
10
1.06995
20
0.702379
11
1.05589
21
0.702379
0
LINE
8
BLACK
6
CONTINUOUS
10
1.05589
20
0.702379
11
1.05294
21
0.70317
0
LINE
8
BLACK
6
CONTINUOUS
10
1.05294
20
0.70317
11
1.05077
21
0.705332
0
LINE
8
BLACK
6
CONTINUOUS
10
1.05077
20
0.705332
11
1.04998
21
0.708285
0
LINE
8
BLACK
6
CONTINUOUS
10
1.04998
20
0.708285
11
1.04998
21
0.76734
0
LINE
8
BLACK
6
CONTINUOUS
10
1.04998
20
0.76734
11
1.05077
21
0.770292
0
LINE
8
BLACK
6
CONTINUOUS
10
1.05077
20
0.770292
11
1.05294
21
0.772454
0
LINE
8
BLACK
6
CONTINUOUS
10
1.05294
20
0.772454
11
1.05589
21
0.773245
0
LINE
8
BLACK
6
CONTINUOUS
10
1.05589
20
0.773245
11
1.06995
21
0.773245
0
LINE
8
BLACK
6
CONTINUOUS
10
1.06995
20
0.773245
11
1.07087
21
0.772999
0
LINE
8
BLACK
6
CONTINUOUS
10
1.06179
20
0.761434
11
1.06179
21
0.71419
0
LINE
8
BLACK
6
CONTINUOUS
10
1.06179
20
0.71419
11
1.06899
21
0.71419
0
LINE
8
BLACK
6
CONTINUOUS
10
1.06899
20
0.71419
11
1.0752
21
0.716258
0
LINE
8
BLACK
6
CONTINUOUS
10
1.0752
20
0.716258
11
1.07916
21
0.720219
0
LINE
8
BLACK
6
CONTINUOUS
10
1.07916
20
0.720219
11
1.08125
21
0.724407
0
LINE
8
BLACK
6
CONTINUOUS
10
1.08125
20
0.724407
11
1.08373
21
0.734321
0
LINE
8
BLACK
6
CONTINUOUS
10
1.08373
20
0.734321
11
1.08373
21
0.741303
0
LINE
8
BLACK
6
CONTINUOUS
10
1.08373
20
0.741303
11
1.08125
21
0.751218
0
LINE
8
BLACK
6
CONTINUOUS
10
1.08125
20
0.751218
11
1.07916
21
0.755405
0
LINE
8
BLACK
6
CONTINUOUS
10
1.07916
20
0.755405
11
1.0752
21
0.759366
0
LINE
8
BLACK
6
CONTINUOUS
10
1.0752
20
0.759366
11
1.06899
21
0.761434
0
LINE
8
BLACK
6
CONTINUOUS
10
1.06899
20
0.761434
11
1.06179
21
0.761434
0
LINE
8
BLACK
6
CONTINUOUS
10
2.45563
20
0.828378
11
2.45732
21
0.825827
0
LINE
8
BLACK
6
CONTINUOUS
10
2.45732
20
0.825827
11
2.4575
21
0.822776
0
LINE
8
BLACK
6
CONTINUOUS
10
2.4575
20
0.822776
11
2.45613
21
0.820041
0
LINE
8
BLACK
6
CONTINUOUS
10
2.45613
20
0.820041
11
2.45358
21
0.818357
0
LINE
8
BLACK
6
CONTINUOUS
10
2.45358
20
0.818357
11
2.44075
21
0.814079
0
LINE
8
BLACK
6
CONTINUOUS
10
2.44075
20
0.814079
11
2.44075
21
0.79447
0
LINE
8
BLACK
6
CONTINUOUS
10
2.44075
20
0.79447
11
2.45358
21
0.790192
0
LINE
8
BLACK
6
CONTINUOUS
10
2.45358
20
0.790192
11
2.45613
21
0.788508
0
LINE
8
BLACK
6
CONTINUOUS
10
2.45613
20
0.788508
11
2.4575
21
0.785773
0
LINE
8
BLACK
6
CONTINUOUS
10
2.4575
20
0.785773
11
2.45732
21
0.782722
0
LINE
8
BLACK
6
CONTINUOUS
10
2.45732
20
0.782722
11
2.45563
21
0.780171
0
LINE
8
BLACK
6
CONTINUOUS
10
2.45563
20
0.780171
11
2.4529
21
0.778804
0
LINE
8
BLACK
6
CONTINUOUS
10
2.4529
20
0.778804
11
2.44985
21
0.778987
0
LINE
8
BLACK
6
CONTINUOUS
10
2.44985
20
0.778987
11
2.39079
21
0.798672
0
LINE
8
BLACK
6
CONTINUOUS
10
2.39079
20
0.798672
11
2.3898
21
0.799325
0
LINE
8
BLACK
6
CONTINUOUS
10
2.3898
20
0.799325
11
2.38874
21
0.799856
0
LINE
8
BLACK
6
CONTINUOUS
10
2.38874
20
0.799856
11
2.38854
21
0.800157
0
LINE
8
BLACK
6
CONTINUOUS
10
2.38854
20
0.800157
11
2.38824
21
0.800356
0
LINE
8
BLACK
6
CONTINUOUS
10
2.38824
20
0.800356
11
2.38771
21
0.801417
0
LINE
8
BLACK
6
CONTINUOUS
10
2.38771
20
0.801417
11
2.38706
21
0.802407
0
LINE
8
BLACK
6
CONTINUOUS
10
2.38706
20
0.802407
11
2.38704
21
0.802767
0
LINE
8
BLACK
6
CONTINUOUS
10
2.38704
20
0.802767
11
2.38687
21
0.803091
0
LINE
8
BLACK
6
CONTINUOUS
10
2.38687
20
0.803091
11
2.38695
21
0.804274
0
LINE
8
BLACK
6
CONTINUOUS
10
2.38695
20
0.804274
11
2.38687
21
0.805458
0
LINE
8
BLACK
6
CONTINUOUS
10
2.38687
20
0.805458
11
2.38704
21
0.805781
0
LINE
8
BLACK
6
CONTINUOUS
10
2.38704
20
0.805781
11
2.38706
21
0.806142
0
LINE
8
BLACK
6
CONTINUOUS
10
2.38706
20
0.806142
11
2.38771
21
0.807132
0
LINE
8
BLACK
6
CONTINUOUS
10
2.38771
20
0.807132
11
2.38824
21
0.808193
0
LINE
8
BLACK
6
CONTINUOUS
10
2.38824
20
0.808193
11
2.38854
21
0.808392
0
LINE
8
BLACK
6
CONTINUOUS
10
2.38854
20
0.808392
11
2.38874
21
0.808693
0
LINE
8
BLACK
6
CONTINUOUS
10
2.38874
20
0.808693
11
2.3898
21
0.809223
0
LINE
8
BLACK
6
CONTINUOUS
10
2.3898
20
0.809223
11
2.39079
21
0.809877
0
LINE
8
BLACK
6
CONTINUOUS
10
2.39079
20
0.809877
11
2.44985
21
0.829562
0
LINE
8
BLACK
6
CONTINUOUS
10
2.44985
20
0.829562
11
2.4529
21
0.829745
0
LINE
8
BLACK
6
CONTINUOUS
10
2.4529
20
0.829745
11
2.45563
21
0.828378
0
LINE
8
BLACK
6
CONTINUOUS
10
2.41134
20
0.804274
11
2.42894
21
0.798407
0
LINE
8
BLACK
6
CONTINUOUS
10
2.42894
20
0.798407
11
2.42894
21
0.810142
0
LINE
8
BLACK
6
CONTINUOUS
10
2.42894
20
0.810142
11
2.41134
21
0.804274
0
LINE
8
BLACK
6
CONTINUOUS
10
1.06524
20
0.872999
11
1.06619
21
0.872942
0
LINE
8
BLACK
6
CONTINUOUS
10
1.06619
20
0.872942
11
1.07463
21
0.87013
0
LINE
8
BLACK
6
CONTINUOUS
10
1.07463
20
0.87013
11
1.07576
21
0.869382
0
LINE
8
BLACK
6
CONTINUOUS
10
1.07576
20
0.869382
11
1.07694
21
0.868703
0
LINE
8
BLACK
6
CONTINUOUS
10
1.07694
20
0.868703
11
1.08256
21
0.863079
0
LINE
8
BLACK
6
CONTINUOUS
10
1.08256
20
0.863079
11
1.08304
21
0.862256
0
LINE
8
BLACK
6
CONTINUOUS
10
1.08304
20
0.862256
11
1.08367
21
0.861544
0
LINE
8
BLACK
6
CONTINUOUS
10
1.08367
20
0.861544
11
1.08648
21
0.85592
0
LINE
8
BLACK
6
CONTINUOUS
10
1.08648
20
0.85592
11
1.08661
21
0.855281
0
LINE
8
BLACK
6
CONTINUOUS
10
1.08661
20
0.855281
11
1.08693
21
0.854711
0
LINE
8
BLACK
6
CONTINUOUS
10
1.08693
20
0.854711
11
1.08974
21
0.843463
0
LINE
8
BLACK
6
CONTINUOUS
10
1.08974
20
0.843463
11
1.08973
21
0.842734
0
LINE
8
BLACK
6
CONTINUOUS
10
1.08973
20
0.842734
11
1.08992
21
0.84203
0
LINE
8
BLACK
6
CONTINUOUS
10
1.08992
20
0.84203
11
1.08992
21
0.833594
0
LINE
8
BLACK
6
CONTINUOUS
10
1.08992
20
0.833594
11
1.08973
21
0.83289
0
LINE
8
BLACK
6
CONTINUOUS
10
1.08973
20
0.83289
11
1.08974
21
0.832162
0
LINE
8
BLACK
6
CONTINUOUS
10
1.08974
20
0.832162
11
1.08693
21
0.820913
0
LINE
8
BLACK
6
CONTINUOUS
10
1.08693
20
0.820913
11
1.08661
21
0.820343
0
LINE
8
BLACK
6
CONTINUOUS
10
1.08661
20
0.820343
11
1.08648
21
0.819704
0
LINE
8
BLACK
6
CONTINUOUS
10
1.08648
20
0.819704
11
1.08367
21
0.81408
0
LINE
8
BLACK
6
CONTINUOUS
10
1.08367
20
0.81408
11
1.08304
21
0.813369
0
LINE
8
BLACK
6
CONTINUOUS
10
1.08304
20
0.813369
11
1.08256
21
0.812545
0
LINE
8
BLACK
6
CONTINUOUS
10
1.08256
20
0.812545
11
1.07694
21
0.806921
0
LINE
8
BLACK
6
CONTINUOUS
10
1.07694
20
0.806921
11
1.07576
21
0.806242
0
LINE
8
BLACK
6
CONTINUOUS
10
1.07576
20
0.806242
11
1.07463
21
0.805494
0
LINE
8
BLACK
6
CONTINUOUS
10
1.07463
20
0.805494
11
1.06619
21
0.802682
0
LINE
8
BLACK
6
CONTINUOUS
10
1.06619
20
0.802682
11
1.06524
21
0.802625
0
LINE
8
BLACK
6
CONTINUOUS
10
1.06524
20
0.802625
11
1.06433
21
0.802379
0
LINE
8
BLACK
6
CONTINUOUS
10
1.06433
20
0.802379
11
1.05026
21
0.802379
0
LINE
8
BLACK
6
CONTINUOUS
10
1.05026
20
0.802379
11
1.04731
21
0.80317
0
LINE
8
BLACK
6
CONTINUOUS
10
1.04731
20
0.80317
11
1.04515
21
0.805332
0
LINE
8
BLACK
6
CONTINUOUS
10
1.04515
20
0.805332
11
1.04436
21
0.808285
0
LINE
8
BLACK
6
CONTINUOUS
10
1.04436
20
0.808285
11
1.04436
21
0.86734
0
LINE
8
BLACK
6
CONTINUOUS
10
1.04436
20
0.86734
11
1.04515
21
0.870292
0
LINE
8
BLACK
6
CONTINUOUS
10
1.04515
20
0.870292
11
1.04731
21
0.872454
0
LINE
8
BLACK
6
CONTINUOUS
10
1.04731
20
0.872454
11
1.05026
21
0.873245
0
LINE
8
BLACK
6
CONTINUOUS
10
1.05026
20
0.873245
11
1.06433
21
0.873245
0
LINE
8
BLACK
6
CONTINUOUS
10
1.06433
20
0.873245
11
1.06524
21
0.872999
0
LINE
8
BLACK
6
CONTINUOUS
10
1.05617
20
0.861434
11
1.05617
21
0.81419
0
LINE
8
BLACK
6
CONTINUOUS
10
1.05617
20
0.81419
11
1.06337
21
0.81419
0
LINE
8
BLACK
6
CONTINUOUS
10
1.06337
20
0.81419
11
1.06957
21
0.816258
0
LINE
8
BLACK
6
CONTINUOUS
10
1.06957
20
0.816258
11
1.07353
21
0.820219
0
LINE
8
BLACK
6
CONTINUOUS
10
1.07353
20
0.820219
11
1.07563
21
0.824407
0
LINE
8
BLACK
6
CONTINUOUS
10
1.07563
20
0.824407
11
1.0781
21
0.834321
0
LINE
8
BLACK
6
CONTINUOUS
10
1.0781
20
0.834321
11
1.0781
21
0.841303
0
LINE
8
BLACK
6
CONTINUOUS
10
1.0781
20
0.841303
11
1.07563
21
0.851218
0
LINE
8
BLACK
6
CONTINUOUS
10
1.07563
20
0.851218
11
1.07353
21
0.855405
0
LINE
8
BLACK
6
CONTINUOUS
10
1.07353
20
0.855405
11
1.06957
21
0.859366
0
LINE
8
BLACK
6
CONTINUOUS
10
1.06957
20
0.859366
11
1.06337
21
0.861434
0
LINE
8
BLACK
6
CONTINUOUS
10
1.06337
20
0.861434
11
1.05617
21
0.861434
0
LINE
8
BLACK
6
CONTINUOUS
10
1.01502
20
0.872894
11
1.01635
21
0.872622
0
LINE
8
BLACK
6
CONTINUOUS
10
1.01635
20
0.872622
11
1.02197
21
0.86981
0
LINE
8
BLACK
6
CONTINUOUS
10
1.02197
20
0.86981
11
1.02268
21
0.869179
0
LINE
8
BLACK
6
CONTINUOUS
10
1.02268
20
0.869179
11
1.02351
21
0.868703
0
LINE
8
BLACK
6
CONTINUOUS
10
1.02351
20
0.868703
11
1.02632
21
0.865891
0
LINE
8
BLACK
6
CONTINUOUS
10
1.02632
20
0.865891
11
1.02679
21
0.865068
0
LINE
8
BLACK
6
CONTINUOUS
10
1.02679
20
0.865068
11
1.02742
21
0.864356
0
LINE
8
BLACK
6
CONTINUOUS
10
1.02742
20
0.864356
11
1.03024
21
0.858732
0
LINE
8
BLACK
6
CONTINUOUS
10
1.03024
20
0.858732
11
1.03051
21
0.857402
0
LINE
8
BLACK
6
CONTINUOUS
10
1.03051
20
0.857402
11
1.03086
21
0.856091
0
LINE
8
BLACK
6
CONTINUOUS
10
1.03086
20
0.856091
11
1.03086
21
0.850467
0
LINE
8
BLACK
6
CONTINUOUS
10
1.03086
20
0.850467
11
1.03061
21
0.849548
0
LINE
8
BLACK
6
CONTINUOUS
10
1.03061
20
0.849548
11
1.03056
21
0.848599
0
LINE
8
BLACK
6
CONTINUOUS
10
1.03056
20
0.848599
11
1.02775
21
0.840163
0
LINE
8
BLACK
6
CONTINUOUS
10
1.02775
20
0.840163
11
1.027
21
0.83903
0
LINE
8
BLACK
6
CONTINUOUS
10
1.027
20
0.83903
11
1.02632
21
0.837855
0
LINE
8
BLACK
6
CONTINUOUS
10
1.02632
20
0.837855
11
1.00265
21
0.81419
0
LINE
8
BLACK
6
CONTINUOUS
10
1.00265
20
0.81419
11
1.02496
21
0.81419
0
LINE
8
BLACK
6
CONTINUOUS
10
1.02496
20
0.81419
11
1.02791
21
0.813399
0
LINE
8
BLACK
6
CONTINUOUS
10
1.02791
20
0.813399
11
1.03007
21
0.811237
0
LINE
8
BLACK
6
CONTINUOUS
10
1.03007
20
0.811237
11
1.03086
21
0.808285
0
LINE
8
BLACK
6
CONTINUOUS
10
1.03086
20
0.808285
11
1.03007
21
0.805332
0
LINE
8
BLACK
6
CONTINUOUS
10
1.03007
20
0.805332
11
1.02791
21
0.80317
0
LINE
8
BLACK
6
CONTINUOUS
10
1.02791
20
0.80317
11
1.02496
21
0.802379
0
LINE
8
BLACK
6
CONTINUOUS
10
1.02496
20
0.802379
11
0.988397
21
0.802379
0
LINE
8
BLACK
6
CONTINUOUS
10
0.988397
20
0.802379
11
0.987646
21
0.80258
0
LINE
8
BLACK
6
CONTINUOUS
10
0.987646
20
0.80258
11
0.986869
21
0.80258
0
LINE
8
BLACK
6
CONTINUOUS
10
0.986869
20
0.80258
11
0.986195
21
0.802969
0
LINE
8
BLACK
6
CONTINUOUS
10
0.986195
20
0.802969
11
0.985444
21
0.80317
0
LINE
8
BLACK
6
CONTINUOUS
10
0.985444
20
0.80317
11
0.984895
21
0.80372
0
LINE
8
BLACK
6
CONTINUOUS
10
0.984895
20
0.80372
11
0.984221
21
0.804109
0
LINE
8
BLACK
6
CONTINUOUS
10
0.984221
20
0.804109
11
0.983832
21
0.804782
0
LINE
8
BLACK
6
CONTINUOUS
10
0.983832
20
0.804782
11
0.983283
21
0.805332
0
LINE
8
BLACK
6
CONTINUOUS
10
0.983283
20
0.805332
11
0.983081
21
0.806083
0
LINE
8
BLACK
6
CONTINUOUS
10
0.983081
20
0.806083
11
0.982693
21
0.806756
0
LINE
8
BLACK
6
CONTINUOUS
10
0.982693
20
0.806756
11
0.982693
21
0.807534
0
LINE
8
BLACK
6
CONTINUOUS
10
0.982693
20
0.807534
11
0.982492
21
0.808285
0
LINE
8
BLACK
6
CONTINUOUS
10
0.982492
20
0.808285
11
0.982693
21
0.809036
0
LINE
8
BLACK
6
CONTINUOUS
10
0.982693
20
0.809036
11
0.982693
21
0.809813
0
LINE
8
BLACK
6
CONTINUOUS
10
0.982693
20
0.809813
11
0.983081
21
0.810486
0
LINE
8
BLACK
6
CONTINUOUS
10
0.983081
20
0.810486
11
0.983283
21
0.811237
0
LINE
8
BLACK
6
CONTINUOUS
10
0.983283
20
0.811237
11
0.983832
21
0.811787
0
LINE
8
BLACK
6
CONTINUOUS
10
0.983832
20
0.811787
11
0.984221
21
0.81246
0
LINE
8
BLACK
6
CONTINUOUS
10
0.984221
20
0.81246
11
1.01698
21
0.84522
0
LINE
8
BLACK
6
CONTINUOUS
10
1.01698
20
0.84522
11
1.01905
21
0.851425
0
LINE
8
BLACK
6
CONTINUOUS
10
1.01905
20
0.851425
11
1.01905
21
0.854697
0
LINE
8
BLACK
6
CONTINUOUS
10
1.01905
20
0.854697
11
1.01729
21
0.858217
0
LINE
8
BLACK
6
CONTINUOUS
10
1.01729
20
0.858217
11
1.01583
21
0.859674
0
LINE
8
BLACK
6
CONTINUOUS
10
1.01583
20
0.859674
11
1.01231
21
0.861434
0
LINE
8
BLACK
6
CONTINUOUS
10
1.01231
20
0.861434
11
1.00104
21
0.861434
0
LINE
8
BLACK
6
CONTINUOUS
10
1.00104
20
0.861434
11
0.99752
21
0.859674
0
LINE
8
BLACK
6
CONTINUOUS
10
0.99752
20
0.859674
11
0.995385
21
0.85754
0
LINE
8
BLACK
6
CONTINUOUS
10
0.995385
20
0.85754
11
0.992738
21
0.856011
0
LINE
8
BLACK
6
CONTINUOUS
10
0.992738
20
0.856011
11
0.989681
21
0.856011
0
LINE
8
BLACK
6
CONTINUOUS
10
0.989681
20
0.856011
11
0.987033
21
0.85754
0
LINE
8
BLACK
6
CONTINUOUS
10
0.987033
20
0.85754
11
0.985505
21
0.860187
0
LINE
8
BLACK
6
CONTINUOUS
10
0.985505
20
0.860187
11
0.985505
21
0.863244
0
LINE
8
BLACK
6
CONTINUOUS
10
0.985505
20
0.863244
11
0.987033
21
0.865891
0
LINE
8
BLACK
6
CONTINUOUS
10
0.987033
20
0.865891
11
0.989845
21
0.868703
0
LINE
8
BLACK
6
CONTINUOUS
10
0.989845
20
0.868703
11
0.990669
21
0.869179
0
LINE
8
BLACK
6
CONTINUOUS
10
0.990669
20
0.869179
11
0.99138
21
0.86981
0
LINE
8
BLACK
6
CONTINUOUS
10
0.99138
20
0.86981
11
0.997005
21
0.872622
0
LINE
8
BLACK
6
CONTINUOUS
10
0.997005
20
0.872622
11
0.998335
21
0.872894
0
LINE
8
BLACK
6
CONTINUOUS
10
0.998335
20
0.872894
11
0.999646
21
0.873245
0
LINE
8
BLACK
6
CONTINUOUS
10
0.999646
20
0.873245
11
1.01371
21
0.873245
0
LINE
8
BLACK
6
CONTINUOUS
10
1.01371
20
0.873245
11
1.01502
21
0.872894
0
LINE
8
BLACK
6
CONTINUOUS
10
0.958382
20
0.872999
11
0.959331
21
0.872942
0
LINE
8
BLACK
6
CONTINUOUS
10
0.959331
20
0.872942
11
0.967767
21
0.87013
0
LINE
8
BLACK
6
CONTINUOUS
10
0.967767
20
0.87013
11
0.9689
21
0.869382
0
LINE
8
BLACK
6
CONTINUOUS
10
0.9689
20
0.869382
11
0.970076
21
0.868703
0
LINE
8
BLACK
6
CONTINUOUS
10
0.970076
20
0.868703
11
0.972888
21
0.865891
0
LINE
8
BLACK
6
CONTINUOUS
10
0.972888
20
0.865891
11
0.974416
21
0.863244
0
LINE
8
BLACK
6
CONTINUOUS
10
0.974416
20
0.863244
11
0.974416
21
0.860187
0
LINE
8
BLACK
6
CONTINUOUS
10
0.974416
20
0.860187
11
0.972888
21
0.85754
0
LINE
8
BLACK
6
CONTINUOUS
10
0.972888
20
0.85754
11
0.97024
21
0.856011
0
LINE
8
BLACK
6
CONTINUOUS
10
0.97024
20
0.856011
11
0.967184
21
0.856011
0
LINE
8
BLACK
6
CONTINUOUS
10
0.967184
20
0.856011
11
0.964536
21
0.85754
0
LINE
8
BLACK
6
CONTINUOUS
10
0.964536
20
0.85754
11
0.96271
21
0.859366
0
LINE
8
BLACK
6
CONTINUOUS
10
0.96271
20
0.859366
11
0.956505
21
0.861434
0
LINE
8
BLACK
6
CONTINUOUS
10
0.956505
20
0.861434
11
0.952798
21
0.861434
0
LINE
8
BLACK
6
CONTINUOUS
10
0.952798
20
0.861434
11
0.946593
21
0.859366
0
LINE
8
BLACK
6
CONTINUOUS
10
0.946593
20
0.859366
11
0.942632
21
0.855405
0
LINE
8
BLACK
6
CONTINUOUS
10
0.942632
20
0.855405
11
0.940538
21
0.851218
0
LINE
8
BLACK
6
CONTINUOUS
10
0.940538
20
0.851218
11
0.93806
21
0.841303
0
LINE
8
BLACK
6
CONTINUOUS
10
0.93806
20
0.841303
11
0.93806
21
0.834321
0
LINE
8
BLACK
6
CONTINUOUS
10
0.93806
20
0.834321
11
0.940538
21
0.824407
0
LINE
8
BLACK
6
CONTINUOUS
10
0.940538
20
0.824407
11
0.942632
21
0.820219
0
LINE
8
BLACK
6
CONTINUOUS
10
0.942632
20
0.820219
11
0.946593
21
0.816258
0
LINE
8
BLACK
6
CONTINUOUS
10
0.946593
20
0.816258
11
0.952798
21
0.81419
0
LINE
8
BLACK
6
CONTINUOUS
10
0.952798
20
0.81419
11
0.956505
21
0.81419
0
LINE
8
BLACK
6
CONTINUOUS
10
0.956505
20
0.81419
11
0.96271
21
0.816258
0
LINE
8
BLACK
6
CONTINUOUS
10
0.96271
20
0.816258
11
0.964536
21
0.818085
0
LINE
8
BLACK
6
CONTINUOUS
10
0.964536
20
0.818085
11
0.967184
21
0.819613
0
LINE
8
BLACK
6
CONTINUOUS
10
0.967184
20
0.819613
11
0.97024
21
0.819613
0
LINE
8
BLACK
6
CONTINUOUS
10
0.97024
20
0.819613
11
0.972888
21
0.818085
0
LINE
8
BLACK
6
CONTINUOUS
10
0.972888
20
0.818085
11
0.974416
21
0.815437
0
LINE
8
BLACK
6
CONTINUOUS
10
0.974416
20
0.815437
11
0.974416
21
0.81238
0
LINE
8
BLACK
6
CONTINUOUS
10
0.974416
20
0.81238
11
0.972888
21
0.809733
0
LINE
8
BLACK
6
CONTINUOUS
10
0.972888
20
0.809733
11
0.970076
21
0.806921
0
LINE
8
BLACK
6
CONTINUOUS
10
0.970076
20
0.806921
11
0.9689
21
0.806242
0
LINE
8
BLACK
6
CONTINUOUS
10
0.9689
20
0.806242
11
0.967767
21
0.805494
0
LINE
8
BLACK
6
CONTINUOUS
10
0.967767
20
0.805494
11
0.959331
21
0.802682
0
LINE
8
BLACK
6
CONTINUOUS
10
0.959331
20
0.802682
11
0.958382
21
0.802625
0
LINE
8
BLACK
6
CONTINUOUS
10
0.958382
20
0.802625
11
0.957463
21
0.802379
0
LINE
8
BLACK
6
CONTINUOUS
10
0.957463
20
0.802379
11
0.951839
21
0.802379
0
LINE
8
BLACK
6
CONTINUOUS
10
0.951839
20
0.802379
11
0.950921
21
0.802625
0
LINE
8
BLACK
6
CONTINUOUS
10
0.950921
20
0.802625
11
0.949972
21
0.802682
0
LINE
8
BLACK
6
CONTINUOUS
10
0.949972
20
0.802682
11
0.941535
21
0.805494
0
LINE
8
BLACK
6
CONTINUOUS
10
0.941535
20
0.805494
11
0.940402
21
0.806242
0
LINE
8
BLACK
6
CONTINUOUS
10
0.940402
20
0.806242
11
0.939227
21
0.806921
0
LINE
8
BLACK
6
CONTINUOUS
10
0.939227
20
0.806921
11
0.933603
21
0.812545
0
LINE
8
BLACK
6
CONTINUOUS
10
0.933603
20
0.812545
11
0.933127
21
0.813369
0
LINE
8
BLACK
6
CONTINUOUS
10
0.933127
20
0.813369
11
0.932496
21
0.81408
0
LINE
8
BLACK
6
CONTINUOUS
10
0.932496
20
0.81408
11
0.929684
21
0.819704
0
LINE
8
BLACK
6
CONTINUOUS
10
0.929684
20
0.819704
11
0.929553
21
0.820343
0
LINE
8
BLACK
6
CONTINUOUS
10
0.929553
20
0.820343
11
0.929237
21
0.820913
0
LINE
8
BLACK
6
CONTINUOUS
10
0.929237
20
0.820913
11
0.926425
21
0.832162
0
LINE
8
BLACK
6
CONTINUOUS
10
0.926425
20
0.832162
11
0.926437
21
0.83289
0
LINE
8
BLACK
6
CONTINUOUS
10
0.926437
20
0.83289
11
0.926249
21
0.833594
0
LINE
8
BLACK
6
CONTINUOUS
10
0.926249
20
0.833594
11
0.926249
21
0.84203
0
LINE
8
BLACK
6
CONTINUOUS
10
0.926249
20
0.84203
11
0.926437
21
0.842734
0
LINE
8
BLACK
6
CONTINUOUS
10
0.926437
20
0.842734
11
0.926425
21
0.843463
0
LINE
8
BLACK
6
CONTINUOUS
10
0.926425
20
0.843463
11
0.929237
21
0.854711
0
LINE
8
BLACK
6
CONTINUOUS
10
0.929237
20
0.854711
11
0.929553
21
0.855281
0
LINE
8
BLACK
6
CONTINUOUS
10
0.929553
20
0.855281
11
0.929684
21
0.85592
0
LINE
8
BLACK
6
CONTINUOUS
10
0.929684
20
0.85592
11
0.932496
21
0.861544
0
LINE
8
BLACK
6
CONTINUOUS
10
0.932496
20
0.861544
11
0.933127
21
0.862256
0
LINE
8
BLACK
6
CONTINUOUS
10
0.933127
20
0.862256
11
0.933603
21
0.863079
0
LINE
8
BLACK
6
CONTINUOUS
10
0.933603
20
0.863079
11
0.939227
21
0.868703
0
LINE
8
BLACK
6
CONTINUOUS
10
0.939227
20
0.868703
11
0.940402
21
0.869382
0
LINE
8
BLACK
6
CONTINUOUS
10
0.940402
20
0.869382
11
0.941535
21
0.87013
0
LINE
8
BLACK
6
CONTINUOUS
10
0.941535
20
0.87013
11
0.949972
21
0.872942
0
LINE
8
BLACK
6
CONTINUOUS
10
0.949972
20
0.872942
11
0.950921
21
0.872999
0
LINE
8
BLACK
6
CONTINUOUS
10
0.950921
20
0.872999
11
0.951839
21
0.873245
0
LINE
8
BLACK
6
CONTINUOUS
10
0.951839
20
0.873245
11
0.957463
21
0.873245
0
LINE
8
BLACK
6
CONTINUOUS
10
0.957463
20
0.873245
11
0.958382
21
0.872999
0
LINE
8
BLACK
6
CONTINUOUS
10
2.45173
20
0.883292
11
2.45174
21
0.883296
0
LINE
8
BLACK
6
CONTINUOUS
10
2.45174
20
0.883296
11
2.45321
21
0.882896
0
LINE
8
BLACK
6
CONTINUOUS
10
2.45321
20
0.882896
11
2.45467
21
0.882505
0
LINE
8
BLACK
6
CONTINUOUS
10
2.45467
20
0.882505
11
2.45468
21
0.882495
0
LINE
8
BLACK
6
CONTINUOUS
10
2.45468
20
0.882495
11
2.45469
21
0.882491
0
LINE
8
BLACK
6
CONTINUOUS
10
2.45469
20
0.882491
11
2.45576
21
0.881413
0
LINE
8
BLACK
6
CONTINUOUS
10
2.45576
20
0.881413
11
2.45683
21
0.880343
0
LINE
8
BLACK
6
CONTINUOUS
10
2.45683
20
0.880343
11
2.45683
21
0.88033
0
LINE
8
BLACK
6
CONTINUOUS
10
2.45683
20
0.88033
11
2.45684
21
0.88032
0
LINE
8
BLACK
6
CONTINUOUS
10
2.45684
20
0.88032
11
2.45723
21
0.878851
0
LINE
8
BLACK
6
CONTINUOUS
10
2.45723
20
0.878851
11
2.45762
21
0.87739
0
LINE
8
BLACK
6
CONTINUOUS
10
2.45762
20
0.87739
11
2.45762
21
0.877377
0
LINE
8
BLACK
6
CONTINUOUS
10
2.45762
20
0.877377
11
2.45762
21
0.877364
0
LINE
8
BLACK
6
CONTINUOUS
10
2.45762
20
0.877364
11
2.45722
21
0.875898
0
LINE
8
BLACK
6
CONTINUOUS
10
2.45722
20
0.875898
11
2.45683
21
0.874438
0
LINE
8
BLACK
6
CONTINUOUS
10
2.45683
20
0.874438
11
2.45682
21
0.874428
0
LINE
8
BLACK
6
CONTINUOUS
10
2.45682
20
0.874428
11
2.45682
21
0.874415
0
LINE
8
BLACK
6
CONTINUOUS
10
2.45682
20
0.874415
11
2.45574
21
0.873348
0
LINE
8
BLACK
6
CONTINUOUS
10
2.45574
20
0.873348
11
2.45467
21
0.872276
0
LINE
8
BLACK
6
CONTINUOUS
10
2.45467
20
0.872276
11
2.45465
21
0.872272
0
LINE
8
BLACK
6
CONTINUOUS
10
2.45465
20
0.872272
11
2.45465
21
0.872263
0
LINE
8
BLACK
6
CONTINUOUS
10
2.45465
20
0.872263
11
2.4149
21
0.84955
0
LINE
8
BLACK
6
CONTINUOUS
10
2.4149
20
0.84955
11
2.45172
21
0.84955
0
LINE
8
BLACK
6
CONTINUOUS
10
2.45172
20
0.84955
11
2.45467
21
0.848759
0
LINE
8
BLACK
6
CONTINUOUS
10
2.45467
20
0.848759
11
2.45683
21
0.846597
0
LINE
8
BLACK
6
CONTINUOUS
10
2.45683
20
0.846597
11
2.45762
21
0.843645
0
LINE
8
BLACK
6
CONTINUOUS
10
2.45762
20
0.843645
11
2.45683
21
0.840692
0
LINE
8
BLACK
6
CONTINUOUS
10
2.45683
20
0.840692
11
2.45467
21
0.83853
0
LINE
8
BLACK
6
CONTINUOUS
10
2.45467
20
0.83853
11
2.45172
21
0.837739
0
LINE
8
BLACK
6
CONTINUOUS
10
2.45172
20
0.837739
11
2.39266
21
0.837739
0
LINE
8
BLACK
6
CONTINUOUS
10
2.39266
20
0.837739
11
2.39265
21
0.837743
0
LINE
8
BLACK
6
CONTINUOUS
10
2.39265
20
0.837743
11
2.39263
21
0.837739
0
LINE
8
BLACK
6
CONTINUOUS
10
2.39263
20
0.837739
11
2.39117
21
0.838139
0
LINE
8
BLACK
6
CONTINUOUS
10
2.39117
20
0.838139
11
2.38971
21
0.83853
0
LINE
8
BLACK
6
CONTINUOUS
10
2.38971
20
0.83853
11
2.3897
21
0.83854
0
LINE
8
BLACK
6
CONTINUOUS
10
2.3897
20
0.83854
11
2.38968
21
0.838543
0
LINE
8
BLACK
6
CONTINUOUS
10
2.38968
20
0.838543
11
2.38862
21
0.83962
0
LINE
8
BLACK
6
CONTINUOUS
10
2.38862
20
0.83962
11
2.38755
21
0.840692
0
LINE
8
BLACK
6
CONTINUOUS
10
2.38755
20
0.840692
11
2.38754
21
0.840705
0
LINE
8
BLACK
6
CONTINUOUS
10
2.38754
20
0.840705
11
2.38753
21
0.840715
0
LINE
8
BLACK
6
CONTINUOUS
10
2.38753
20
0.840715
11
2.38715
21
0.84218
0
LINE
8
BLACK
6
CONTINUOUS
10
2.38715
20
0.84218
11
2.38675
21
0.843645
0
LINE
8
BLACK
6
CONTINUOUS
10
2.38675
20
0.843645
11
2.38676
21
0.843658
0
LINE
8
BLACK
6
CONTINUOUS
10
2.38676
20
0.843658
11
2.38675
21
0.843671
0
LINE
8
BLACK
6
CONTINUOUS
10
2.38675
20
0.843671
11
2.38715
21
0.845137
0
LINE
8
BLACK
6
CONTINUOUS
10
2.38715
20
0.845137
11
2.38755
21
0.846597
0
LINE
8
BLACK
6
CONTINUOUS
10
2.38755
20
0.846597
11
2.38756
21
0.846607
0
LINE
8
BLACK
6
CONTINUOUS
10
2.38756
20
0.846607
11
2.38756
21
0.84662
0
LINE
8
BLACK
6
CONTINUOUS
10
2.38756
20
0.84662
11
2.38864
21
0.847687
0
LINE
8
BLACK
6
CONTINUOUS
10
2.38864
20
0.847687
11
2.38971
21
0.848759
0
LINE
8
BLACK
6
CONTINUOUS
10
2.38971
20
0.848759
11
2.38972
21
0.848762
0
LINE
8
BLACK
6
CONTINUOUS
10
2.38972
20
0.848762
11
2.38973
21
0.848772
0
LINE
8
BLACK
6
CONTINUOUS
10
2.38973
20
0.848772
11
2.42948
21
0.871485
0
LINE
8
BLACK
6
CONTINUOUS
10
2.42948
20
0.871485
11
2.39266
21
0.871485
0
LINE
8
BLACK
6
CONTINUOUS
10
2.39266
20
0.871485
11
2.38971
21
0.872276
0
LINE
8
BLACK
6
CONTINUOUS
10
2.38971
20
0.872276
11
2.38755
21
0.874438
0
LINE
8
BLACK
6
CONTINUOUS
10
2.38755
20
0.874438
11
2.38675
21
0.87739
0
LINE
8
BLACK
6
CONTINUOUS
10
2.38675
20
0.87739
11
2.38755
21
0.880343
0
LINE
8
BLACK
6
CONTINUOUS
10
2.38755
20
0.880343
11
2.38971
21
0.882505
0
LINE
8
BLACK
6
CONTINUOUS
10
2.38971
20
0.882505
11
2.39266
21
0.883296
0
LINE
8
BLACK
6
CONTINUOUS
10
2.39266
20
0.883296
11
2.45172
21
0.883296
0
LINE
8
BLACK
6
CONTINUOUS
10
2.45172
20
0.883296
11
2.45173
21
0.883292
0
LINE
8
BLACK
6
CONTINUOUS
10
2.39561
20
0.935935
11
2.39777
21
0.933774
0
LINE
8
BLACK
6
CONTINUOUS
10
2.39777
20
0.933774
11
2.39857
21
0.930821
0
LINE
8
BLACK
6
CONTINUOUS
10
2.39857
20
0.930821
11
2.39857
21
0.919854
0
LINE
8
BLACK
6
CONTINUOUS
10
2.39857
20
0.919854
11
2.45172
21
0.919854
0
LINE
8
BLACK
6
CONTINUOUS
10
2.45172
20
0.919854
11
2.45467
21
0.919063
0
LINE
8
BLACK
6
CONTINUOUS
10
2.45467
20
0.919063
11
2.45683
21
0.916901
0
LINE
8
BLACK
6
CONTINUOUS
10
2.45683
20
0.916901
11
2.45762
21
0.913948
0
LINE
8
BLACK
6
CONTINUOUS
10
2.45762
20
0.913948
11
2.45683
21
0.910995
0
LINE
8
BLACK
6
CONTINUOUS
10
2.45683
20
0.910995
11
2.45467
21
0.908834
0
LINE
8
BLACK
6
CONTINUOUS
10
2.45467
20
0.908834
11
2.45172
21
0.908043
0
LINE
8
BLACK
6
CONTINUOUS
10
2.45172
20
0.908043
11
2.39857
21
0.908043
0
LINE
8
BLACK
6
CONTINUOUS
10
2.39857
20
0.908043
11
2.39857
21
0.897075
0
LINE
8
BLACK
6
CONTINUOUS
10
2.39857
20
0.897075
11
2.39777
21
0.894123
0
LINE
8
BLACK
6
CONTINUOUS
10
2.39777
20
0.894123
11
2.39561
21
0.891961
0
LINE
8
BLACK
6
CONTINUOUS
10
2.39561
20
0.891961
11
2.39266
21
0.89117
0
LINE
8
BLACK
6
CONTINUOUS
10
2.39266
20
0.89117
11
2.38971
21
0.891961
0
LINE
8
BLACK
6
CONTINUOUS
10
2.38971
20
0.891961
11
2.38755
21
0.894123
0
LINE
8
BLACK
6
CONTINUOUS
10
2.38755
20
0.894123
11
2.38675
21
0.897075
0
LINE
8
BLACK
6
CONTINUOUS
10
2.38675
20
0.897075
11
2.38675
21
0.930821
0
LINE
8
BLACK
6
CONTINUOUS
10
2.38675
20
0.930821
11
2.38755
21
0.933774
0
LINE
8
BLACK
6
CONTINUOUS
10
2.38755
20
0.933774
11
2.38971
21
0.935935
0
LINE
8
BLACK
6
CONTINUOUS
10
2.38971
20
0.935935
11
2.39266
21
0.936727
0
LINE
8
BLACK
6
CONTINUOUS
10
2.39266
20
0.936727
11
2.39561
21
0.935935
0
LINE
8
BLACK
6
CONTINUOUS
10
0.972704
20
0.977316
11
0.974345
21
0.974737
0
LINE
8
BLACK
6
CONTINUOUS
10
0.974345
20
0.974737
11
0.974477
21
0.971683
0
LINE
8
BLACK
6
CONTINUOUS
10
0.974477
20
0.971683
11
0.97045
21
0.95356
0
LINE
8
BLACK
6
CONTINUOUS
10
0.97045
20
0.95356
11
0.974336
21
0.95356
0
LINE
8
BLACK
6
CONTINUOUS
10
0.974336
20
0.95356
11
0.977289
21
0.952769
0
LINE
8
BLACK
6
CONTINUOUS
10
0.977289
20
0.952769
11
0.979451
21
0.950607
0
LINE
8
BLACK
6
CONTINUOUS
10
0.979451
20
0.950607
11
0.980242
21
0.947655
0
LINE
8
BLACK
6
CONTINUOUS
10
0.980242
20
0.947655
11
0.979451
21
0.944702
0
LINE
8
BLACK
6
CONTINUOUS
10
0.979451
20
0.944702
11
0.977289
21
0.94254
0
LINE
8
BLACK
6
CONTINUOUS
10
0.977289
20
0.94254
11
0.974336
21
0.941749
0
LINE
8
BLACK
6
CONTINUOUS
10
0.974336
20
0.941749
11
0.967825
21
0.941749
0
LINE
8
BLACK
6
CONTINUOUS
10
0.967825
20
0.941749
11
0.964825
21
0.928251
0
LINE
8
BLACK
6
CONTINUOUS
10
0.964825
20
0.928251
11
0.968712
21
0.928251
0
LINE
8
BLACK
6
CONTINUOUS
10
0.968712
20
0.928251
11
0.971665
21
0.92746
0
LINE
8
BLACK
6
CONTINUOUS
10
0.971665
20
0.92746
11
0.973826
21
0.925298
0
LINE
8
BLACK
6
CONTINUOUS
10
0.973826
20
0.925298
11
0.974618
21
0.922345
0
LINE
8
BLACK
6
CONTINUOUS
10
0.974618
20
0.922345
11
0.973826
21
0.919393
0
LINE
8
BLACK
6
CONTINUOUS
10
0.973826
20
0.919393
11
0.971665
21
0.917231
0
LINE
8
BLACK
6
CONTINUOUS
10
0.971665
20
0.917231
11
0.968712
21
0.91644
0
LINE
8
BLACK
6
CONTINUOUS
10
0.968712
20
0.91644
11
0.962201
21
0.91644
0
LINE
8
BLACK
6
CONTINUOUS
10
0.962201
20
0.91644
11
0.957604
21
0.895755
0
LINE
8
BLACK
6
CONTINUOUS
10
0.957604
20
0.895755
11
0.956191
21
0.893044
0
LINE
8
BLACK
6
CONTINUOUS
10
0.956191
20
0.893044
11
0.953612
21
0.891403
0
LINE
8
BLACK
6
CONTINUOUS
10
0.953612
20
0.891403
11
0.950558
21
0.891271
0
LINE
8
BLACK
6
CONTINUOUS
10
0.950558
20
0.891271
11
0.947847
21
0.892684
0
LINE
8
BLACK
6
CONTINUOUS
10
0.947847
20
0.892684
11
0.946206
21
0.895263
0
LINE
8
BLACK
6
CONTINUOUS
10
0.946206
20
0.895263
11
0.946074
21
0.898317
0
LINE
8
BLACK
6
CONTINUOUS
10
0.946074
20
0.898317
11
0.950102
21
0.91644
0
LINE
8
BLACK
6
CONTINUOUS
10
0.950102
20
0.91644
11
0.942516
21
0.91644
0
LINE
8
BLACK
6
CONTINUOUS
10
0.942516
20
0.91644
11
0.937919
21
0.895755
0
LINE
8
BLACK
6
CONTINUOUS
10
0.937919
20
0.895755
11
0.936506
21
0.893044
0
LINE
8
BLACK
6
CONTINUOUS
10
0.936506
20
0.893044
11
0.933927
21
0.891403
0
LINE
8
BLACK
6
CONTINUOUS
10
0.933927
20
0.891403
11
0.930873
21
0.891271
0
LINE
8
BLACK
6
CONTINUOUS
10
0.930873
20
0.891271
11
0.928162
21
0.892684
0
LINE
8
BLACK
6
CONTINUOUS
10
0.928162
20
0.892684
11
0.926521
21
0.895263
0
LINE
8
BLACK
6
CONTINUOUS
10
0.926521
20
0.895263
11
0.926389
21
0.898317
0
LINE
8
BLACK
6
CONTINUOUS
10
0.926389
20
0.898317
11
0.930416
21
0.91644
0
LINE
8
BLACK
6
CONTINUOUS
10
0.930416
20
0.91644
11
0.92653
21
0.91644
0
LINE
8
BLACK
6
CONTINUOUS
10
0.92653
20
0.91644
11
0.923577
21
0.917231
0
LINE
8
BLACK
6
CONTINUOUS
10
0.923577
20
0.917231
11
0.921415
21
0.919393
0
LINE
8
BLACK
6
CONTINUOUS
10
0.921415
20
0.919393
11
0.920624
21
0.922345
0
LINE
8
BLACK
6
CONTINUOUS
10
0.920624
20
0.922345
11
0.921415
21
0.925298
0
LINE
8
BLACK
6
CONTINUOUS
10
0.921415
20
0.925298
11
0.923577
21
0.92746
0
LINE
8
BLACK
6
CONTINUOUS
10
0.923577
20
0.92746
11
0.92653
21
0.928251
0
LINE
8
BLACK
6
CONTINUOUS
10
0.92653
20
0.928251
11
0.933041
21
0.928251
0
LINE
8
BLACK
6
CONTINUOUS
10
0.933041
20
0.928251
11
0.936041
21
0.941749
0
LINE
8
BLACK
6
CONTINUOUS
10
0.936041
20
0.941749
11
0.932154
21
0.941749
0
LINE
8
BLACK
6
CONTINUOUS
10
0.932154
20
0.941749
11
0.929201
21
0.94254
0
LINE
8
BLACK
6
CONTINUOUS
10
0.929201
20
0.94254
11
0.92704
21
0.944702
0
LINE
8
BLACK
6
CONTINUOUS
10
0.92704
20
0.944702
11
0.926249
21
0.947655
0
LINE
8
BLACK
6
CONTINUOUS
10
0.926249
20
0.947655
11
0.92704
21
0.950607
0
LINE
8
BLACK
6
CONTINUOUS
10
0.92704
20
0.950607
11
0.929201
21
0.952769
0
LINE
8
BLACK
6
CONTINUOUS
10
0.929201
20
0.952769
11
0.932154
21
0.95356
0
LINE
8
BLACK
6
CONTINUOUS
10
0.932154
20
0.95356
11
0.938665
21
0.95356
0
LINE
8
BLACK
6
CONTINUOUS
10
0.938665
20
0.95356
11
0.943262
21
0.974245
0
LINE
8
BLACK
6
CONTINUOUS
10
0.943262
20
0.974245
11
0.944675
21
0.976956
0
LINE
8
BLACK
6
CONTINUOUS
10
0.944675
20
0.976956
11
0.947254
21
0.978597
0
LINE
8
BLACK
6
CONTINUOUS
10
0.947254
20
0.978597
11
0.950308
21
0.978729
0
LINE
8
BLACK
6
CONTINUOUS
10
0.950308
20
0.978729
11
0.953019
21
0.977316
0
LINE
8
BLACK
6
CONTINUOUS
10
0.953019
20
0.977316
11
0.95466
21
0.974737
0
LINE
8
BLACK
6
CONTINUOUS
10
0.95466
20
0.974737
11
0.954792
21
0.971683
0
LINE
8
BLACK
6
CONTINUOUS
10
0.954792
20
0.971683
11
0.950765
21
0.95356
0
LINE
8
BLACK
6
CONTINUOUS
10
0.950765
20
0.95356
11
0.95835
21
0.95356
0
LINE
8
BLACK
6
CONTINUOUS
10
0.95835
20
0.95356
11
0.962947
21
0.974245
0
LINE
8
BLACK
6
CONTINUOUS
10
0.962947
20
0.974245
11
0.96436
21
0.976956
0
LINE
8
BLACK
6
CONTINUOUS
10
0.96436
20
0.976956
11
0.966939
21
0.978597
0
LINE
8
BLACK
6
CONTINUOUS
10
0.966939
20
0.978597
11
0.969993
21
0.978729
0
LINE
8
BLACK
6
CONTINUOUS
10
0.969993
20
0.978729
11
0.972704
21
0.977316
0
LINE
8
BLACK
6
CONTINUOUS
10
0.94814
20
0.941749
11
0.94514
21
0.928251
0
LINE
8
BLACK
6
CONTINUOUS
10
0.94514
20
0.928251
11
0.952726
21
0.928251
0
LINE
8
BLACK
6
CONTINUOUS
10
0.952726
20
0.928251
11
0.955726
21
0.941749
0
LINE
8
BLACK
6
CONTINUOUS
10
0.955726
20
0.941749
11
0.94814
21
0.941749
0
LINE
8
BLACK
6
CONTINUOUS
10
1.01783
20
0.972894
11
1.01916
21
0.972622
0
LINE
8
BLACK
6
CONTINUOUS
10
1.01916
20
0.972622
11
1.02478
21
0.96981
0
LINE
8
BLACK
6
CONTINUOUS
10
1.02478
20
0.96981
11
1.0255
21
0.969179
0
LINE
8
BLACK
6
CONTINUOUS
10
1.0255
20
0.969179
11
1.02632
21
0.968703
0
LINE
8
BLACK
6
CONTINUOUS
10
1.02632
20
0.968703
11
1.02913
21
0.965891
0
LINE
8
BLACK
6
CONTINUOUS
10
1.02913
20
0.965891
11
1.02961
21
0.965068
0
LINE
8
BLACK
6
CONTINUOUS
10
1.02961
20
0.965068
11
1.03024
21
0.964356
0
LINE
8
BLACK
6
CONTINUOUS
10
1.03024
20
0.964356
11
1.03305
21
0.958732
0
LINE
8
BLACK
6
CONTINUOUS
10
1.03305
20
0.958732
11
1.03332
21
0.957402
0
LINE
8
BLACK
6
CONTINUOUS
10
1.03332
20
0.957402
11
1.03367
21
0.956091
0
LINE
8
BLACK
6
CONTINUOUS
10
1.03367
20
0.956091
11
1.03367
21
0.947655
0
LINE
8
BLACK
6
CONTINUOUS
10
1.03367
20
0.947655
11
1.03332
21
0.946343
0
LINE
8
BLACK
6
CONTINUOUS
10
1.03332
20
0.946343
11
1.03305
21
0.945014
0
LINE
8
BLACK
6
CONTINUOUS
10
1.03305
20
0.945014
11
1.03024
21
0.939389
0
LINE
8
BLACK
6
CONTINUOUS
10
1.03024
20
0.939389
11
1.02961
21
0.938678
0
LINE
8
BLACK
6
CONTINUOUS
10
1.02961
20
0.938678
11
1.02913
21
0.937855
0
LINE
8
BLACK
6
CONTINUOUS
10
1.02913
20
0.937855
11
1.02632
21
0.935042
0
LINE
8
BLACK
6
CONTINUOUS
10
1.02632
20
0.935042
11
1.0255
21
0.934567
0
LINE
8
BLACK
6
CONTINUOUS
10
1.0255
20
0.934567
11
1.02478
21
0.933936
0
LINE
8
BLACK
6
CONTINUOUS
10
1.02478
20
0.933936
11
1.01916
21
0.931124
0
LINE
8
BLACK
6
CONTINUOUS
10
1.01916
20
0.931124
11
1.01901
21
0.931093
0
LINE
8
BLACK
6
CONTINUOUS
10
1.01901
20
0.931093
11
1.03261
21
0.911671
0
LINE
8
BLACK
6
CONTINUOUS
10
1.03261
20
0.911671
11
1.03365
21
0.908798
0
LINE
8
BLACK
6
CONTINUOUS
10
1.03365
20
0.908798
11
1.03312
21
0.905788
0
LINE
8
BLACK
6
CONTINUOUS
10
1.03312
20
0.905788
11
1.03115
21
0.903447
0
LINE
8
BLACK
6
CONTINUOUS
10
1.03115
20
0.903447
11
1.02828
21
0.902401
0
LINE
8
BLACK
6
CONTINUOUS
10
1.02828
20
0.902401
11
1.02527
21
0.902933
0
LINE
8
BLACK
6
CONTINUOUS
10
1.02527
20
0.902933
11
1.02293
21
0.904898
0
LINE
8
BLACK
6
CONTINUOUS
10
1.02293
20
0.904898
11
1.00501
21
0.930501
0
LINE
8
BLACK
6
CONTINUOUS
10
1.00501
20
0.930501
11
0.999927
21
0.930501
0
LINE
8
BLACK
6
CONTINUOUS
10
0.999927
20
0.930501
11
0.999927
21
0.908285
0
LINE
8
BLACK
6
CONTINUOUS
10
0.999927
20
0.908285
11
0.999136
21
0.905332
0
LINE
8
BLACK
6
CONTINUOUS
10
0.999136
20
0.905332
11
0.996974
21
0.90317
0
LINE
8
BLACK
6
CONTINUOUS
10
0.996974
20
0.90317
11
0.994021
21
0.902379
0
LINE
8
BLACK
6
CONTINUOUS
10
0.994021
20
0.902379
11
0.991069
21
0.90317
0
LINE
8
BLACK
6
CONTINUOUS
10
0.991069
20
0.90317
11
0.988907
21
0.905332
0
LINE
8
BLACK
6
CONTINUOUS
10
0.988907
20
0.905332
11
0.988116
21
0.908285
0
LINE
8
BLACK
6
CONTINUOUS
10
0.988116
20
0.908285
11
0.988116
21
0.96734
0
LINE
8
BLACK
6
CONTINUOUS
10
0.988116
20
0.96734
11
0.988907
21
0.970292
0
LINE
8
BLACK
6
CONTINUOUS
10
0.988907
20
0.970292
11
0.991069
21
0.972454
0
LINE
8
BLACK
6
CONTINUOUS
10
0.991069
20
0.972454
11
0.994021
21
0.973245
0
LINE
8
BLACK
6
CONTINUOUS
10
0.994021
20
0.973245
11
1.01652
21
0.973245
0
LINE
8
BLACK
6
CONTINUOUS
10
1.01652
20
0.973245
11
1.01783
21
0.972894
0
LINE
8
BLACK
6
CONTINUOUS
10
0.999927
20
0.961434
11
0.999927
21
0.942312
0
LINE
8
BLACK
6
CONTINUOUS
10
0.999927
20
0.942312
11
1.01512
21
0.942312
0
LINE
8
BLACK
6
CONTINUOUS
10
1.01512
20
0.942312
11
1.01864
21
0.944072
0
LINE
8
BLACK
6
CONTINUOUS
10
1.01864
20
0.944072
11
1.0201
21
0.945529
0
LINE
8
BLACK
6
CONTINUOUS
10
1.0201
20
0.945529
11
1.02186
21
0.949049
0
LINE
8
BLACK
6
CONTINUOUS
10
1.02186
20
0.949049
11
1.02186
21
0.954697
0
LINE
8
BLACK
6
CONTINUOUS
10
1.02186
20
0.954697
11
1.0201
21
0.958217
0
LINE
8
BLACK
6
CONTINUOUS
10
1.0201
20
0.958217
11
1.01864
21
0.959674
0
LINE
8
BLACK
6
CONTINUOUS
10
1.01864
20
0.959674
11
1.01512
21
0.961434
0
LINE
8
BLACK
6
CONTINUOUS
10
1.01512
20
0.961434
11
0.999927
21
0.961434
0
LINE
8
BLACK
6
CONTINUOUS
10
1.07649
20
0.972999
11
1.07744
21
0.972942
0
LINE
8
BLACK
6
CONTINUOUS
10
1.07744
20
0.972942
11
1.08588
21
0.97013
0
LINE
8
BLACK
6
CONTINUOUS
10
1.08588
20
0.97013
11
1.08843
21
0.968446
0
LINE
8
BLACK
6
CONTINUOUS
10
1.08843
20
0.968446
11
1.0898
21
0.965711
0
LINE
8
BLACK
6
CONTINUOUS
10
1.0898
20
0.965711
11
1.08961
21
0.96266
0
LINE
8
BLACK
6
CONTINUOUS
10
1.08961
20
0.96266
11
1.08793
21
0.960109
0
LINE
8
BLACK
6
CONTINUOUS
10
1.08793
20
0.960109
11
1.08519
21
0.958742
0
LINE
8
BLACK
6
CONTINUOUS
10
1.08519
20
0.958742
11
1.08214
21
0.958925
0
LINE
8
BLACK
6
CONTINUOUS
10
1.08214
20
0.958925
11
1.07462
21
0.961434
0
LINE
8
BLACK
6
CONTINUOUS
10
1.07462
20
0.961434
11
1.06291
21
0.961434
0
LINE
8
BLACK
6
CONTINUOUS
10
1.06291
20
0.961434
11
1.05939
21
0.959674
0
LINE
8
BLACK
6
CONTINUOUS
10
1.05939
20
0.959674
11
1.05793
21
0.958217
0
LINE
8
BLACK
6
CONTINUOUS
10
1.05793
20
0.958217
11
1.05617
21
0.954697
0
LINE
8
BLACK
6
CONTINUOUS
10
1.05617
20
0.954697
11
1.05617
21
0.951861
0
LINE
8
BLACK
6
CONTINUOUS
10
1.05617
20
0.951861
11
1.05793
21
0.948341
0
LINE
8
BLACK
6
CONTINUOUS
10
1.05793
20
0.948341
11
1.05939
21
0.946884
0
LINE
8
BLACK
6
CONTINUOUS
10
1.05939
20
0.946884
11
1.06357
21
0.94479
0
LINE
8
BLACK
6
CONTINUOUS
10
1.06357
20
0.94479
11
1.07419
21
0.942135
0
LINE
8
BLACK
6
CONTINUOUS
10
1.07419
20
0.942135
11
1.07476
21
0.941819
0
LINE
8
BLACK
6
CONTINUOUS
10
1.07476
20
0.941819
11
1.0754
21
0.941688
0
LINE
8
BLACK
6
CONTINUOUS
10
1.0754
20
0.941688
11
1.08103
21
0.938876
0
LINE
8
BLACK
6
CONTINUOUS
10
1.08103
20
0.938876
11
1.08174
21
0.938245
0
LINE
8
BLACK
6
CONTINUOUS
10
1.08174
20
0.938245
11
1.08256
21
0.93777
0
LINE
8
BLACK
6
CONTINUOUS
10
1.08256
20
0.93777
11
1.08537
21
0.934958
0
LINE
8
BLACK
6
CONTINUOUS
10
1.08537
20
0.934958
11
1.08585
21
0.934134
0
LINE
8
BLACK
6
CONTINUOUS
10
1.08585
20
0.934134
11
1.08648
21
0.933423
0
LINE
8
BLACK
6
CONTINUOUS
10
1.08648
20
0.933423
11
1.08929
21
0.927799
0
LINE
8
BLACK
6
CONTINUOUS
10
1.08929
20
0.927799
11
1.08956
21
0.926469
0
LINE
8
BLACK
6
CONTINUOUS
10
1.08956
20
0.926469
11
1.08992
21
0.925157
0
LINE
8
BLACK
6
CONTINUOUS
10
1.08992
20
0.925157
11
1.08992
21
0.919533
0
LINE
8
BLACK
6
CONTINUOUS
10
1.08992
20
0.919533
11
1.08956
21
0.918222
0
LINE
8
BLACK
6
CONTINUOUS
10
1.08956
20
0.918222
11
1.08929
21
0.916892
0
LINE
8
BLACK
6
CONTINUOUS
10
1.08929
20
0.916892
11
1.08648
21
0.911268
0
LINE
8
BLACK
6
CONTINUOUS
10
1.08648
20
0.911268
11
1.08585
21
0.910556
0
LINE
8
BLACK
6
CONTINUOUS
10
1.08585
20
0.910556
11
1.08537
21
0.909733
0
LINE
8
BLACK
6
CONTINUOUS
10
1.08537
20
0.909733
11
1.08256
21
0.906921
0
LINE
8
BLACK
6
CONTINUOUS
10
1.08256
20
0.906921
11
1.08174
21
0.906446
0
LINE
8
BLACK
6
CONTINUOUS
10
1.08174
20
0.906446
11
1.08103
21
0.905815
0
LINE
8
BLACK
6
CONTINUOUS
10
1.08103
20
0.905815
11
1.0754
21
0.903003
0
LINE
8
BLACK
6
CONTINUOUS
10
1.0754
20
0.903003
11
1.07407
21
0.90273
0
LINE
8
BLACK
6
CONTINUOUS
10
1.07407
20
0.90273
11
1.07276
21
0.902379
0
LINE
8
BLACK
6
CONTINUOUS
10
1.07276
20
0.902379
11
1.0587
21
0.902379
0
LINE
8
BLACK
6
CONTINUOUS
10
1.0587
20
0.902379
11
1.05778
21
0.902625
0
LINE
8
BLACK
6
CONTINUOUS
10
1.05778
20
0.902625
11
1.05683
21
0.902682
0
LINE
8
BLACK
6
CONTINUOUS
10
1.05683
20
0.902682
11
1.0484
21
0.905494
0
LINE
8
BLACK
6
CONTINUOUS
10
1.0484
20
0.905494
11
1.04585
21
0.907179
0
LINE
8
BLACK
6
CONTINUOUS
10
1.04585
20
0.907179
11
1.04448
21
0.909913
0
LINE
8
BLACK
6
CONTINUOUS
10
1.04448
20
0.909913
11
1.04466
21
0.912964
0
LINE
8
BLACK
6
CONTINUOUS
10
1.04466
20
0.912964
11
1.04635
21
0.915515
0
LINE
8
BLACK
6
CONTINUOUS
10
1.04635
20
0.915515
11
1.04908
21
0.916882
0
LINE
8
BLACK
6
CONTINUOUS
10
1.04908
20
0.916882
11
1.05213
21
0.916699
0
LINE
8
BLACK
6
CONTINUOUS
10
1.05213
20
0.916699
11
1.05966
21
0.91419
0
LINE
8
BLACK
6
CONTINUOUS
10
1.05966
20
0.91419
11
1.07137
21
0.91419
0
LINE
8
BLACK
6
CONTINUOUS
10
1.07137
20
0.91419
11
1.07489
21
0.91595
0
LINE
8
BLACK
6
CONTINUOUS
10
1.07489
20
0.91595
11
1.07634
21
0.917407
0
LINE
8
BLACK
6
CONTINUOUS
10
1.07634
20
0.917407
11
1.0781
21
0.920927
0
LINE
8
BLACK
6
CONTINUOUS
10
1.0781
20
0.920927
11
1.0781
21
0.923763
0
LINE
8
BLACK
6
CONTINUOUS
10
1.0781
20
0.923763
11
1.07634
21
0.927284
0
LINE
8
BLACK
6
CONTINUOUS
10
1.07634
20
0.927284
11
1.07489
21
0.92874
0
LINE
8
BLACK
6
CONTINUOUS
10
1.07489
20
0.92874
11
1.0707
21
0.930834
0
LINE
8
BLACK
6
CONTINUOUS
10
1.0707
20
0.930834
11
1.06008
21
0.933489
0
LINE
8
BLACK
6
CONTINUOUS
10
1.06008
20
0.933489
11
1.05951
21
0.933805
0
LINE
8
BLACK
6
CONTINUOUS
10
1.05951
20
0.933805
11
1.05887
21
0.933936
0
LINE
8
BLACK
6
CONTINUOUS
10
1.05887
20
0.933936
11
1.05325
21
0.936748
0
LINE
8
BLACK
6
CONTINUOUS
10
1.05325
20
0.936748
11
1.05254
21
0.937379
0
LINE
8
BLACK
6
CONTINUOUS
10
1.05254
20
0.937379
11
1.05171
21
0.937855
0
LINE
8
BLACK
6
CONTINUOUS
10
1.05171
20
0.937855
11
1.0489
21
0.940667
0
LINE
8
BLACK
6
CONTINUOUS
10
1.0489
20
0.940667
11
1.04843
21
0.94149
0
LINE
8
BLACK
6
CONTINUOUS
10
1.04843
20
0.94149
11
1.04779
21
0.942201
0
LINE
8
BLACK
6
CONTINUOUS
10
1.04779
20
0.942201
11
1.04498
21
0.947826
0
LINE
8
BLACK
6
CONTINUOUS
10
1.04498
20
0.947826
11
1.04471
21
0.949156
0
LINE
8
BLACK
6
CONTINUOUS
10
1.04471
20
0.949156
11
1.04436
21
0.950467
0
LINE
8
BLACK
6
CONTINUOUS
10
1.04436
20
0.950467
11
1.04436
21
0.956091
0
LINE
8
BLACK
6
CONTINUOUS
10
1.04436
20
0.956091
11
1.04471
21
0.957402
0
LINE
8
BLACK
6
CONTINUOUS
10
1.04471
20
0.957402
11
1.04498
21
0.958732
0
LINE
8
BLACK
6
CONTINUOUS
10
1.04498
20
0.958732
11
1.04779
21
0.964356
0
LINE
8
BLACK
6
CONTINUOUS
10
1.04779
20
0.964356
11
1.04843
21
0.965068
0
LINE
8
BLACK
6
CONTINUOUS
10
1.04843
20
0.965068
11
1.0489
21
0.965891
0
LINE
8
BLACK
6
CONTINUOUS
10
1.0489
20
0.965891
11
1.05171
21
0.968703
0
LINE
8
BLACK
6
CONTINUOUS
10
1.05171
20
0.968703
11
1.05254
21
0.969179
0
LINE
8
BLACK
6
CONTINUOUS
10
1.05254
20
0.969179
11
1.05325
21
0.96981
0
LINE
8
BLACK
6
CONTINUOUS
10
1.05325
20
0.96981
11
1.05887
21
0.972622
0
LINE
8
BLACK
6
CONTINUOUS
10
1.05887
20
0.972622
11
1.0602
21
0.972894
0
LINE
8
BLACK
6
CONTINUOUS
10
1.0602
20
0.972894
11
1.06151
21
0.973245
0
LINE
8
BLACK
6
CONTINUOUS
10
1.06151
20
0.973245
11
1.07557
21
0.973245
0
LINE
8
BLACK
6
CONTINUOUS
10
1.07557
20
0.973245
11
1.07649
21
0.972999
0
LINE
8
BLACK
6
CONTINUOUS
10
1.13758
20
0.972454
11
1.13974
21
0.970292
0
LINE
8
BLACK
6
CONTINUOUS
10
1.13974
20
0.970292
11
1.14053
21
0.96734
0
LINE
8
BLACK
6
CONTINUOUS
10
1.14053
20
0.96734
11
1.13974
21
0.964387
0
LINE
8
BLACK
6
CONTINUOUS
10
1.13974
20
0.964387
11
1.13758
21
0.962225
0
LINE
8
BLACK
6
CONTINUOUS
10
1.13758
20
0.962225
11
1.13463
21
0.961434
0
LINE
8
BLACK
6
CONTINUOUS
10
1.13463
20
0.961434
11
1.12366
21
0.961434
0
LINE
8
BLACK
6
CONTINUOUS
10
1.12366
20
0.961434
11
1.12366
21
0.908285
0
LINE
8
BLACK
6
CONTINUOUS
10
1.12366
20
0.908285
11
1.12287
21
0.905332
0
LINE
8
BLACK
6
CONTINUOUS
10
1.12287
20
0.905332
11
1.12071
21
0.90317
0
LINE
8
BLACK
6
CONTINUOUS
10
1.12071
20
0.90317
11
1.11776
21
0.902379
0
LINE
8
BLACK
6
CONTINUOUS
10
1.11776
20
0.902379
11
1.1148
21
0.90317
0
LINE
8
BLACK
6
CONTINUOUS
10
1.1148
20
0.90317
11
1.11264
21
0.905332
0
LINE
8
BLACK
6
CONTINUOUS
10
1.11264
20
0.905332
11
1.11185
21
0.908285
0
LINE
8
BLACK
6
CONTINUOUS
10
1.11185
20
0.908285
11
1.11185
21
0.961434
0
LINE
8
BLACK
6
CONTINUOUS
10
1.11185
20
0.961434
11
1.10088
21
0.961434
0
LINE
8
BLACK
6
CONTINUOUS
10
1.10088
20
0.961434
11
1.09793
21
0.962225
0
LINE
8
BLACK
6
CONTINUOUS
10
1.09793
20
0.962225
11
1.09577
21
0.964387
0
LINE
8
BLACK
6
CONTINUOUS
10
1.09577
20
0.964387
11
1.09498
21
0.96734
0
LINE
8
BLACK
6
CONTINUOUS
10
1.09498
20
0.96734
11
1.09577
21
0.970292
0
LINE
8
BLACK
6
CONTINUOUS
10
1.09577
20
0.970292
11
1.09793
21
0.972454
0
LINE
8
BLACK
6
CONTINUOUS
10
1.09793
20
0.972454
11
1.10088
21
0.973245
0
LINE
8
BLACK
6
CONTINUOUS
10
1.10088
20
0.973245
11
1.13463
21
0.973245
0
LINE
8
BLACK
6
CONTINUOUS
10
1.13463
20
0.973245
11
1.13758
21
0.972454
0
LINE
8
BLACK
6
CONTINUOUS
10
2.45467
20
0.986554
11
2.45683
21
0.984393
0
LINE
8
BLACK
6
CONTINUOUS
10
2.45683
20
0.984393
11
2.45762
21
0.98144
0
LINE
8
BLACK
6
CONTINUOUS
10
2.45762
20
0.98144
11
2.45762
21
0.947694
0
LINE
8
BLACK
6
CONTINUOUS
10
2.45762
20
0.947694
11
2.45683
21
0.944741
0
LINE
8
BLACK
6
CONTINUOUS
10
2.45683
20
0.944741
11
2.45467
21
0.94258
0
LINE
8
BLACK
6
CONTINUOUS
10
2.45467
20
0.94258
11
2.45172
21
0.941789
0
LINE
8
BLACK
6
CONTINUOUS
10
2.45172
20
0.941789
11
2.44876
21
0.94258
0
LINE
8
BLACK
6
CONTINUOUS
10
2.44876
20
0.94258
11
2.4466
21
0.944741
0
LINE
8
BLACK
6
CONTINUOUS
10
2.4466
20
0.944741
11
2.44581
21
0.947694
0
LINE
8
BLACK
6
CONTINUOUS
10
2.44581
20
0.947694
11
2.44581
21
0.958661
0
LINE
8
BLACK
6
CONTINUOUS
10
2.44581
20
0.958661
11
2.40973
21
0.958661
0
LINE
8
BLACK
6
CONTINUOUS
10
2.40973
20
0.958661
11
2.4109
21
0.957494
0
LINE
8
BLACK
6
CONTINUOUS
10
2.4109
20
0.957494
11
2.41137
21
0.956671
0
LINE
8
BLACK
6
CONTINUOUS
10
2.41137
20
0.956671
11
2.412
21
0.955959
0
LINE
8
BLACK
6
CONTINUOUS
10
2.412
20
0.955959
11
2.41482
21
0.950335
0
LINE
8
BLACK
6
CONTINUOUS
10
2.41482
20
0.950335
11
2.41543
21
0.94734
0
LINE
8
BLACK
6
CONTINUOUS
10
2.41543
20
0.94734
11
2.41446
21
0.94444
0
LINE
8
BLACK
6
CONTINUOUS
10
2.41446
20
0.94444
11
2.41217
21
0.942412
0
LINE
8
BLACK
6
CONTINUOUS
10
2.41217
20
0.942412
11
2.40918
21
0.941799
0
LINE
8
BLACK
6
CONTINUOUS
10
2.40918
20
0.941799
11
2.40628
21
0.942766
0
LINE
8
BLACK
6
CONTINUOUS
10
2.40628
20
0.942766
11
2.40425
21
0.945053
0
LINE
8
BLACK
6
CONTINUOUS
10
2.40425
20
0.945053
11
2.40187
21
0.94982
0
LINE
8
BLACK
6
CONTINUOUS
10
2.40187
20
0.94982
11
2.39733
21
0.954353
0
LINE
8
BLACK
6
CONTINUOUS
10
2.39733
20
0.954353
11
2.38938
21
0.959653
0
LINE
8
BLACK
6
CONTINUOUS
10
2.38938
20
0.959653
11
2.3885
21
0.960663
0
LINE
8
BLACK
6
CONTINUOUS
10
2.3885
20
0.960663
11
2.38755
21
0.961614
0
LINE
8
BLACK
6
CONTINUOUS
10
2.38755
20
0.961614
11
2.3875
21
0.961803
0
LINE
8
BLACK
6
CONTINUOUS
10
2.3875
20
0.961803
11
2.38737
21
0.961949
0
LINE
8
BLACK
6
CONTINUOUS
10
2.38737
20
0.961949
11
2.3871
21
0.963268
0
LINE
8
BLACK
6
CONTINUOUS
10
2.3871
20
0.963268
11
2.38675
21
0.964567
0
LINE
8
BLACK
6
CONTINUOUS
10
2.38675
20
0.964567
11
2.38681
21
0.964756
0
LINE
8
BLACK
6
CONTINUOUS
10
2.38681
20
0.964756
11
2.38677
21
0.964947
0
LINE
8
BLACK
6
CONTINUOUS
10
2.38677
20
0.964947
11
2.3872
21
0.966221
0
LINE
8
BLACK
6
CONTINUOUS
10
2.3872
20
0.966221
11
2.38755
21
0.96752
0
LINE
8
BLACK
6
CONTINUOUS
10
2.38755
20
0.96752
11
2.38768
21
0.967658
0
LINE
8
BLACK
6
CONTINUOUS
10
2.38768
20
0.967658
11
2.38775
21
0.967843
0
LINE
8
BLACK
6
CONTINUOUS
10
2.38775
20
0.967843
11
2.38876
21
0.96873
0
LINE
8
BLACK
6
CONTINUOUS
10
2.38876
20
0.96873
11
2.38971
21
0.969681
0
LINE
8
BLACK
6
CONTINUOUS
10
2.38971
20
0.969681
11
2.3899
21
0.969732
0
LINE
8
BLACK
6
CONTINUOUS
10
2.3899
20
0.969732
11
2.39004
21
0.969861
0
LINE
8
BLACK
6
CONTINUOUS
10
2.39004
20
0.969861
11
2.39136
21
0.970124
0
LINE
8
BLACK
6
CONTINUOUS
10
2.39136
20
0.970124
11
2.39266
21
0.970472
0
LINE
8
BLACK
6
CONTINUOUS
10
2.39266
20
0.970472
11
2.44581
21
0.970472
0
LINE
8
BLACK
6
CONTINUOUS
10
2.44581
20
0.970472
11
2.44581
21
0.98144
0
LINE
8
BLACK
6
CONTINUOUS
10
2.44581
20
0.98144
11
2.4466
21
0.984393
0
LINE
8
BLACK
6
CONTINUOUS
10
2.4466
20
0.984393
11
2.44876
21
0.986554
0
LINE
8
BLACK
6
CONTINUOUS
10
2.44876
20
0.986554
11
2.45172
21
0.987345
0
LINE
8
BLACK
6
CONTINUOUS
10
2.45172
20
0.987345
11
2.45467
21
0.986554
0
LINE
8
BLACK
6
CONTINUOUS
10
0.96604
20
1.07245
11
0.968202
21
1.07029
0
LINE
8
BLACK
6
CONTINUOUS
10
0.968202
20
1.07029
11
0.968993
21
1.06734
0
LINE
8
BLACK
6
CONTINUOUS
10
0.968993
20
1.06734
11
0.968202
21
1.06439
0
LINE
8
BLACK
6
CONTINUOUS
10
0.968202
20
1.06439
11
0.96604
21
1.06223
0
LINE
8
BLACK
6
CONTINUOUS
10
0.96604
20
1.06223
11
0.963088
21
1.06143
0
LINE
8
BLACK
6
CONTINUOUS
10
0.963088
20
1.06143
11
0.940311
21
1.06143
0
LINE
8
BLACK
6
CONTINUOUS
10
0.940311
20
1.06143
11
0.939205
21
1.05038
0
LINE
8
BLACK
6
CONTINUOUS
10
0.939205
20
1.05038
11
0.939279
21
1.0504
0
LINE
8
BLACK
6
CONTINUOUS
10
0.939279
20
1.0504
11
0.940591
21
1.05075
0
LINE
8
BLACK
6
CONTINUOUS
10
0.940591
20
1.05075
11
0.954651
21
1.05075
0
LINE
8
BLACK
6
CONTINUOUS
10
0.954651
20
1.05075
11
0.955962
21
1.0504
0
LINE
8
BLACK
6
CONTINUOUS
10
0.955962
20
1.0504
11
0.957292
21
1.05012
0
LINE
8
BLACK
6
CONTINUOUS
10
0.957292
20
1.05012
11
0.962917
21
1.04731
0
LINE
8
BLACK
6
CONTINUOUS
10
0.962917
20
1.04731
11
0.963628
21
1.04668
0
LINE
8
BLACK
6
CONTINUOUS
10
0.963628
20
1.04668
11
0.964451
21
1.04621
0
LINE
8
BLACK
6
CONTINUOUS
10
0.964451
20
1.04621
11
0.967264
21
1.04339
0
LINE
8
BLACK
6
CONTINUOUS
10
0.967264
20
1.04339
11
0.967739
21
1.04257
0
LINE
8
BLACK
6
CONTINUOUS
10
0.967739
20
1.04257
11
0.96837
21
1.04186
0
LINE
8
BLACK
6
CONTINUOUS
10
0.96837
20
1.04186
11
0.971182
21
1.03623
0
LINE
8
BLACK
6
CONTINUOUS
10
0.971182
20
1.03623
11
0.971454
21
1.0349
0
LINE
8
BLACK
6
CONTINUOUS
10
0.971454
20
1.0349
11
0.971805
21
1.03359
0
LINE
8
BLACK
6
CONTINUOUS
10
0.971805
20
1.03359
11
0.971805
21
1.01953
0
LINE
8
BLACK
6
CONTINUOUS
10
0.971805
20
1.01953
11
0.971454
21
1.01822
0
LINE
8
BLACK
6
CONTINUOUS
10
0.971454
20
1.01822
11
0.971182
21
1.01689
0
LINE
8
BLACK
6
CONTINUOUS
10
0.971182
20
1.01689
11
0.96837
21
1.01127
0
LINE
8
BLACK
6
CONTINUOUS
10
0.96837
20
1.01127
11
0.967739
21
1.01056
0
LINE
8
BLACK
6
CONTINUOUS
10
0.967739
20
1.01056
11
0.967264
21
1.00973
0
LINE
8
BLACK
6
CONTINUOUS
10
0.967264
20
1.00973
11
0.964451
21
1.00692
0
LINE
8
BLACK
6
CONTINUOUS
10
0.964451
20
1.00692
11
0.963628
21
1.00645
0
LINE
8
BLACK
6
CONTINUOUS
10
0.963628
20
1.00645
11
0.962917
21
1.00581
0
LINE
8
BLACK
6
CONTINUOUS
10
0.962917
20
1.00581
11
0.957292
21
1.003
0
LINE
8
BLACK
6
CONTINUOUS
10
0.957292
20
1.003
11
0.955962
21
1.00273
0
LINE
8
BLACK
6
CONTINUOUS
10
0.955962
20
1.00273
11
0.954651
21
1.00238
0
LINE
8
BLACK
6
CONTINUOUS
10
0.954651
20
1.00238
11
0.940591
21
1.00238
0
LINE
8
BLACK
6
CONTINUOUS
10
0.940591
20
1.00238
11
0.939279
21
1.00273
0
LINE
8
BLACK
6
CONTINUOUS
10
0.939279
20
1.00273
11
0.93795
21
1.003
0
LINE
8
BLACK
6
CONTINUOUS
10
0.93795
20
1.003
11
0.932325
21
1.00581
0
LINE
8
BLACK
6
CONTINUOUS
10
0.932325
20
1.00581
11
0.931614
21
1.00645
0
LINE
8
BLACK
6
CONTINUOUS
10
0.931614
20
1.00645
11
0.93079
21
1.00692
0
LINE
8
BLACK
6
CONTINUOUS
10
0.93079
20
1.00692
11
0.927978
21
1.00973
0
LINE
8
BLACK
6
CONTINUOUS
10
0.927978
20
1.00973
11
0.92645
21
1.01238
0
LINE
8
BLACK
6
CONTINUOUS
10
0.92645
20
1.01238
11
0.92645
21
1.01544
0
LINE
8
BLACK
6
CONTINUOUS
10
0.92645
20
1.01544
11
0.927978
21
1.01808
0
LINE
8
BLACK
6
CONTINUOUS
10
0.927978
20
1.01808
11
0.930626
21
1.01961
0
LINE
8
BLACK
6
CONTINUOUS
10
0.930626
20
1.01961
11
0.933683
21
1.01961
0
LINE
8
BLACK
6
CONTINUOUS
10
0.933683
20
1.01961
11
0.93633
21
1.01808
0
LINE
8
BLACK
6
CONTINUOUS
10
0.93633
20
1.01808
11
0.938464
21
1.01595
0
LINE
8
BLACK
6
CONTINUOUS
10
0.938464
20
1.01595
11
0.941985
21
1.01419
0
LINE
8
BLACK
6
CONTINUOUS
10
0.941985
20
1.01419
11
0.953257
21
1.01419
0
LINE
8
BLACK
6
CONTINUOUS
10
0.953257
20
1.01419
11
0.956777
21
1.01595
0
LINE
8
BLACK
6
CONTINUOUS
10
0.956777
20
1.01595
11
0.958234
21
1.01741
0
LINE
8
BLACK
6
CONTINUOUS
10
0.958234
20
1.01741
11
0.959994
21
1.02093
0
LINE
8
BLACK
6
CONTINUOUS
10
0.959994
20
1.02093
11
0.959994
21
1.0322
0
LINE
8
BLACK
6
CONTINUOUS
10
0.959994
20
1.0322
11
0.958234
21
1.03572
0
LINE
8
BLACK
6
CONTINUOUS
10
0.958234
20
1.03572
11
0.956777
21
1.03718
0
LINE
8
BLACK
6
CONTINUOUS
10
0.956777
20
1.03718
11
0.953257
21
1.03894
0
LINE
8
BLACK
6
CONTINUOUS
10
0.953257
20
1.03894
11
0.941985
21
1.03894
0
LINE
8
BLACK
6
CONTINUOUS
10
0.941985
20
1.03894
11
0.938464
21
1.03718
0
LINE
8
BLACK
6
CONTINUOUS
10
0.938464
20
1.03718
11
0.93633
21
1.03504
0
LINE
8
BLACK
6
CONTINUOUS
10
0.93633
20
1.03504
11
0.935408
21
1.03451
0
LINE
8
BLACK
6
CONTINUOUS
10
0.935408
20
1.03451
11
0.934583
21
1.03384
0
LINE
8
BLACK
6
CONTINUOUS
10
0.934583
20
1.03384
11
0.934104
21
1.03376
0
LINE
8
BLACK
6
CONTINUOUS
10
0.934104
20
1.03376
11
0.933683
21
1.03351
0
LINE
8
BLACK
6
CONTINUOUS
10
0.933683
20
1.03351
11
0.932618
21
1.03351
0
LINE
8
BLACK
6
CONTINUOUS
10
0.932618
20
1.03351
11
0.931566
21
1.03334
0
LINE
8
BLACK
6
CONTINUOUS
10
0.931566
20
1.03334
11
0.931112
21
1.03351
0
LINE
8
BLACK
6
CONTINUOUS
10
0.931112
20
1.03351
11
0.930626
21
1.03351
0
LINE
8
BLACK
6
CONTINUOUS
10
0.930626
20
1.03351
11
0.929703
21
1.03405
0
LINE
8
BLACK
6
CONTINUOUS
10
0.929703
20
1.03405
11
0.928707
21
1.03442
0
LINE
8
BLACK
6
CONTINUOUS
10
0.928707
20
1.03442
11
0.928399
21
1.0348
0
LINE
8
BLACK
6
CONTINUOUS
10
0.928399
20
1.0348
11
0.927978
21
1.03504
0
LINE
8
BLACK
6
CONTINUOUS
10
0.927978
20
1.03504
11
0.927446
21
1.03596
0
LINE
8
BLACK
6
CONTINUOUS
10
0.927446
20
1.03596
11
0.926771
21
1.03679
0
LINE
8
BLACK
6
CONTINUOUS
10
0.926771
20
1.03679
11
0.926693
21
1.03727
0
LINE
8
BLACK
6
CONTINUOUS
10
0.926693
20
1.03727
11
0.92645
21
1.03769
0
LINE
8
BLACK
6
CONTINUOUS
10
0.92645
20
1.03769
11
0.92645
21
1.03875
0
LINE
8
BLACK
6
CONTINUOUS
10
0.92645
20
1.03875
11
0.926278
21
1.03981
0
LINE
8
BLACK
6
CONTINUOUS
10
0.926278
20
1.03981
11
0.92909
21
1.06793
0
LINE
8
BLACK
6
CONTINUOUS
10
0.92909
20
1.06793
11
0.92953
21
1.06909
0
LINE
8
BLACK
6
CONTINUOUS
10
0.92953
20
1.06909
11
0.929852
21
1.07029
0
LINE
8
BLACK
6
CONTINUOUS
10
0.929852
20
1.07029
11
0.930065
21
1.07051
0
LINE
8
BLACK
6
CONTINUOUS
10
0.930065
20
1.07051
11
0.930171
21
1.07079
0
LINE
8
BLACK
6
CONTINUOUS
10
0.930171
20
1.07079
11
0.931134
21
1.07157
0
LINE
8
BLACK
6
CONTINUOUS
10
0.931134
20
1.07157
11
0.932013
21
1.07245
0
LINE
8
BLACK
6
CONTINUOUS
10
0.932013
20
1.07245
11
0.932304
21
1.07253
0
LINE
8
BLACK
6
CONTINUOUS
10
0.932304
20
1.07253
11
0.932537
21
1.07272
0
LINE
8
BLACK
6
CONTINUOUS
10
0.932537
20
1.07272
11
0.933765
21
1.07292
0
LINE
8
BLACK
6
CONTINUOUS
10
0.933765
20
1.07292
11
0.934966
21
1.07325
0
LINE
8
BLACK
6
CONTINUOUS
10
0.934966
20
1.07325
11
0.963088
21
1.07325
0
LINE
8
BLACK
6
CONTINUOUS
10
0.963088
20
1.07325
11
0.96604
21
1.07245
0
LINE
8
BLACK
6
CONTINUOUS
10
1.02401
20
1.07294
11
1.02656
21
1.07126
0
LINE
8
BLACK
6
CONTINUOUS
10
1.02656
20
1.07126
11
1.02793
21
1.06852
0
LINE
8
BLACK
6
CONTINUOUS
10
1.02793
20
1.06852
11
1.02775
21
1.06547
0
LINE
8
BLACK
6
CONTINUOUS
10
1.02775
20
1.06547
11
1.00806
21
1.00642
0
LINE
8
BLACK
6
CONTINUOUS
10
1.00806
20
1.00642
11
1.00741
21
1.00543
0
LINE
8
BLACK
6
CONTINUOUS
10
1.00741
20
1.00543
11
1.00688
21
1.00437
0
LINE
8
BLACK
6
CONTINUOUS
10
1.00688
20
1.00437
11
1.00657
21
1.00417
0
LINE
8
BLACK
6
CONTINUOUS
10
1.00657
20
1.00417
11
1.00638
21
1.00387
0
LINE
8
BLACK
6
CONTINUOUS
10
1.00638
20
1.00387
11
1.00532
21
1.00334
0
LINE
8
BLACK
6
CONTINUOUS
10
1.00532
20
1.00334
11
1.00433
21
1.00268
0
LINE
8
BLACK
6
CONTINUOUS
10
1.00433
20
1.00268
11
1.00396
21
1.00266
0
LINE
8
BLACK
6
CONTINUOUS
10
1.00396
20
1.00266
11
1.00364
21
1.0025
0
LINE
8
BLACK
6
CONTINUOUS
10
1.00364
20
1.0025
11
1.00246
21
1.00257
0
LINE
8
BLACK
6
CONTINUOUS
10
1.00246
20
1.00257
11
1.00127
21
1.0025
0
LINE
8
BLACK
6
CONTINUOUS
10
1.00127
20
1.0025
11
1.00095
21
1.00266
0
LINE
8
BLACK
6
CONTINUOUS
10
1.00095
20
1.00266
11
1.00059
21
1.00268
0
LINE
8
BLACK
6
CONTINUOUS
10
1.00059
20
1.00268
11
0.999601
21
1.00334
0
LINE
8
BLACK
6
CONTINUOUS
10
0.999601
20
1.00334
11
0.99854
21
1.00387
0
LINE
8
BLACK
6
CONTINUOUS
10
0.99854
20
1.00387
11
0.998341
21
1.00417
0
LINE
8
BLACK
6
CONTINUOUS
10
0.998341
20
1.00417
11
0.998039
21
1.00437
0
LINE
8
BLACK
6
CONTINUOUS
10
0.998039
20
1.00437
11
0.997509
21
1.00543
0
LINE
8
BLACK
6
CONTINUOUS
10
0.997509
20
1.00543
11
0.996855
21
1.00642
0
LINE
8
BLACK
6
CONTINUOUS
10
0.996855
20
1.00642
11
0.97717
21
1.06547
0
LINE
8
BLACK
6
CONTINUOUS
10
0.97717
20
1.06547
11
0.976987
21
1.06852
0
LINE
8
BLACK
6
CONTINUOUS
10
0.976987
20
1.06852
11
0.978354
21
1.07126
0
LINE
8
BLACK
6
CONTINUOUS
10
0.978354
20
1.07126
11
0.980905
21
1.07294
0
LINE
8
BLACK
6
CONTINUOUS
10
0.980905
20
1.07294
11
0.983957
21
1.07313
0
LINE
8
BLACK
6
CONTINUOUS
10
0.983957
20
1.07313
11
0.986691
21
1.07176
0
LINE
8
BLACK
6
CONTINUOUS
10
0.986691
20
1.07176
11
0.988375
21
1.06921
0
LINE
8
BLACK
6
CONTINUOUS
10
0.988375
20
1.06921
11
1.00246
21
1.02696
0
LINE
8
BLACK
6
CONTINUOUS
10
1.00246
20
1.02696
11
1.01654
21
1.06921
0
LINE
8
BLACK
6
CONTINUOUS
10
1.01654
20
1.06921
11
1.01822
21
1.07176
0
LINE
8
BLACK
6
CONTINUOUS
10
1.01822
20
1.07176
11
1.02096
21
1.07313
0
LINE
8
BLACK
6
CONTINUOUS
10
1.02096
20
1.07313
11
1.02401
21
1.07294
  0
ENDSEC
  0
EOF
