  0
SECTION
  2
HEADER
  9
$ANGBASE
  50
0.0
  9
$ANGDIR
  70
1
  9
$MEASUREMENT
  70
0
  0
ENDSEC
  0
SECTION
  2
TABLES
  0
TABLE
  2
LTYPE
  70
4
  0
LTYPE
  5
40F
  2
CONTINUOUS
  70
0
  3
Solid line
  72
65
  73
0
  40
0.0
  0
LTYPE
  5
410
  2
DASHDOT
 70
0
  3
Dash Dot ____ _ ____ _
 72
65
 73
4
 40
2.0
 49
1.25
 49
-0.25
 49
0.25
 49
-0.25
  0
LTYPE
  5
411
  2
DASHED
 70
0
  3
Dashed __ __ __ __ __
 72
65
 73
2
 40
0.75
 49
0.5
 49
-0.25
  0
LTYPE
  5
43B
  2
DOTTED
 70
0
  3
Dotted .  .  .  .
 72
65
 73
2
 40
0.2
 49
0.0
 49
-0.2
  0
ENDTAB
  0
TABLE
  2
STYLE
  70
4
  0
STYLE
  2
KICAD
  70
0
  40
0
  41
1
  42
1
  50
0
  71
0
  3
isocp.shx
  0
STYLE
  2
KICADB
  70
0
  40
0
  41
1
  42
1
  50
0
  71
0
  3
isocp.shx
  0
STYLE
  2
KICADI
  70
0
  40
0
  41
1
  42
1
  50
15
  71
0
  3
isocp.shx
  0
STYLE
  2
KICADBI
  70
0
  40
0
  41
1
  42
1
  50
15
  71
0
  3
isocp.shx
  0
ENDTAB
  0
TABLE
  2
LAYER
  70
1
  0
LAYER
  2
BLACK
  70
0
  62
7
  6
CONTINUOUS
  0
ENDTAB
  0
ENDSEC
  0
SECTION
  2
ENTITIES
0
LINE
8
BLACK
6
CONTINUOUS
10
1.53394
20
0.0987346
11
1.53505
21
0.097049
0
LINE
8
BLACK
6
CONTINUOUS
10
1.53505
20
0.097049
11
1.53482
21
0.0950424
0
LINE
8
BLACK
6
CONTINUOUS
10
1.53482
20
0.0950424
11
1.53244
21
0.0902805
0
LINE
8
BLACK
6
CONTINUOUS
10
1.53244
20
0.0902805
11
1.53191
21
0.0895715
0
LINE
8
BLACK
6
CONTINUOUS
10
1.53191
20
0.0895715
11
1.53189
21
0.0895131
0
LINE
8
BLACK
6
CONTINUOUS
10
1.53189
20
0.0895131
11
1.5274
21
0.08503
0
LINE
8
BLACK
6
CONTINUOUS
10
1.5274
20
0.08503
11
1.56494
21
0.08503
0
LINE
8
BLACK
6
CONTINUOUS
10
1.56494
20
0.08503
11
1.56494
21
0.096363
0
LINE
8
BLACK
6
CONTINUOUS
10
1.56494
20
0.096363
11
1.56512
21
0.0973729
0
LINE
8
BLACK
6
CONTINUOUS
10
1.56512
20
0.0973729
11
1.56642
21
0.0989201
0
LINE
8
BLACK
6
CONTINUOUS
10
1.56642
20
0.0989201
11
1.56841
21
0.0992709
0
LINE
8
BLACK
6
CONTINUOUS
10
1.56841
20
0.0992709
11
1.57016
21
0.0982609
0
LINE
8
BLACK
6
CONTINUOUS
10
1.57016
20
0.0982609
11
1.57085
21
0.096363
0
LINE
8
BLACK
6
CONTINUOUS
10
1.57085
20
0.096363
11
1.57085
21
0.0677915
0
LINE
8
BLACK
6
CONTINUOUS
10
1.57085
20
0.0677915
11
1.57067
21
0.0667816
0
LINE
8
BLACK
6
CONTINUOUS
10
1.57067
20
0.0667816
11
1.56937
21
0.0652343
0
LINE
8
BLACK
6
CONTINUOUS
10
1.56937
20
0.0652343
11
1.56738
21
0.0648836
0
LINE
8
BLACK
6
CONTINUOUS
10
1.56738
20
0.0648836
11
1.56563
21
0.0658935
0
LINE
8
BLACK
6
CONTINUOUS
10
1.56563
20
0.0658935
11
1.56494
21
0.0677915
0
LINE
8
BLACK
6
CONTINUOUS
10
1.56494
20
0.0677915
11
1.56494
21
0.0791244
0
LINE
8
BLACK
6
CONTINUOUS
10
1.56494
20
0.0791244
11
1.51789
21
0.0791244
0
LINE
8
BLACK
6
CONTINUOUS
10
1.51789
20
0.0791244
11
1.51688
21
0.0793025
0
LINE
8
BLACK
6
CONTINUOUS
10
1.51688
20
0.0793025
11
1.51675
21
0.0794117
0
LINE
8
BLACK
6
CONTINUOUS
10
1.51675
20
0.0794117
11
1.51659
21
0.0794303
0
LINE
8
BLACK
6
CONTINUOUS
10
1.51659
20
0.0794303
11
1.51599
21
0.08005
0
LINE
8
BLACK
6
CONTINUOUS
10
1.51599
20
0.08005
11
1.51534
21
0.0806008
0
LINE
8
BLACK
6
CONTINUOUS
10
1.51534
20
0.0806008
11
1.51531
21
0.0807681
0
LINE
8
BLACK
6
CONTINUOUS
10
1.51531
20
0.0807681
11
1.51519
21
0.0808908
0
LINE
8
BLACK
6
CONTINUOUS
10
1.51519
20
0.0808908
11
1.51514
21
0.081746
0
LINE
8
BLACK
6
CONTINUOUS
10
1.51514
20
0.081746
11
1.51499
21
0.08259
0
LINE
8
BLACK
6
CONTINUOUS
10
1.51499
20
0.08259
11
1.51507
21
0.082737
0
LINE
8
BLACK
6
CONTINUOUS
10
1.51507
20
0.082737
11
1.51506
21
0.0829064
0
LINE
8
BLACK
6
CONTINUOUS
10
1.51506
20
0.0829064
11
1.51557
21
0.083597
0
LINE
8
BLACK
6
CONTINUOUS
10
1.51557
20
0.083597
11
1.516
21
0.0843391
0
LINE
8
BLACK
6
CONTINUOUS
10
1.516
20
0.0843391
11
1.51616
21
0.0843972
0
LINE
8
BLACK
6
CONTINUOUS
10
1.51616
20
0.0843972
11
1.51626
21
0.0845341
0
LINE
8
BLACK
6
CONTINUOUS
10
1.51626
20
0.0845341
11
1.52316
21
0.0891338
0
LINE
8
BLACK
6
CONTINUOUS
10
1.52316
20
0.0891338
11
1.52737
21
0.0933501
0
LINE
8
BLACK
6
CONTINUOUS
10
1.52737
20
0.0933501
11
1.52954
21
0.0976834
0
LINE
8
BLACK
6
CONTINUOUS
10
1.52954
20
0.0976834
11
1.53015
21
0.0985071
0
LINE
8
BLACK
6
CONTINUOUS
10
1.53015
20
0.0985071
11
1.532
21
0.0993104
0
LINE
8
BLACK
6
CONTINUOUS
10
1.532
20
0.0993104
11
1.53394
21
0.0987346
0
LINE
8
BLACK
6
CONTINUOUS
10
0.923566
20
0.0776604
11
0.922874
21
0.0793307
0
LINE
8
BLACK
6
CONTINUOUS
10
0.922874
20
0.0793307
11
0.923566
21
0.081001
0
LINE
8
BLACK
6
CONTINUOUS
10
0.923566
20
0.081001
11
0.925236
21
0.0816929
0
LINE
8
BLACK
6
CONTINUOUS
10
0.925236
20
0.0816929
11
0.979961
21
0.0816929
0
LINE
8
BLACK
6
CONTINUOUS
10
0.979961
20
0.0816929
11
0.979961
21
0.150197
0
LINE
8
BLACK
6
CONTINUOUS
10
0.979961
20
0.150197
11
0.980653
21
0.151867
0
LINE
8
BLACK
6
CONTINUOUS
10
0.980653
20
0.151867
11
0.982323
21
0.152559
0
LINE
8
BLACK
6
CONTINUOUS
10
0.982323
20
0.152559
11
1.0213
21
0.152559
0
LINE
8
BLACK
6
CONTINUOUS
10
1.0213
20
0.152559
11
1.02297
21
0.151867
0
LINE
8
BLACK
6
CONTINUOUS
10
1.02297
20
0.151867
11
1.02366
21
0.150197
0
LINE
8
BLACK
6
CONTINUOUS
10
1.02366
20
0.150197
11
1.02297
21
0.148527
0
LINE
8
BLACK
6
CONTINUOUS
10
1.02297
20
0.148527
11
1.0213
21
0.147835
0
LINE
8
BLACK
6
CONTINUOUS
10
1.0213
20
0.147835
11
0.984685
21
0.147835
0
LINE
8
BLACK
6
CONTINUOUS
10
0.984685
20
0.147835
11
0.984685
21
0.0793307
0
LINE
8
BLACK
6
CONTINUOUS
10
0.984685
20
0.0793307
11
0.983993
21
0.0776604
0
LINE
8
BLACK
6
CONTINUOUS
10
0.983993
20
0.0776604
11
0.982323
21
0.0769685
0
LINE
8
BLACK
6
CONTINUOUS
10
0.982323
20
0.0769685
11
0.925236
21
0.0769685
0
LINE
8
BLACK
6
CONTINUOUS
10
0.925236
20
0.0769685
11
0.923566
21
0.0776604
0
LINE
8
BLACK
6
CONTINUOUS
10
1.50726
20
0.201898
11
1.50795
21
0.2
0
LINE
8
BLACK
6
CONTINUOUS
10
1.50795
20
0.2
11
1.50795
21
0.08
0
LINE
8
BLACK
6
CONTINUOUS
10
1.50795
20
0.08
11
1.50789
21
0.0796165
0
LINE
8
BLACK
6
CONTINUOUS
10
1.50789
20
0.0796165
11
1.50791
21
0.0794872
0
LINE
8
BLACK
6
CONTINUOUS
10
1.50791
20
0.0794872
11
1.50784
21
0.0793736
0
LINE
8
BLACK
6
CONTINUOUS
10
1.50784
20
0.0793736
11
1.50777
21
0.0789901
0
LINE
8
BLACK
6
CONTINUOUS
10
1.50777
20
0.0789901
11
1.50728
21
0.0784024
0
LINE
8
BLACK
6
CONTINUOUS
10
1.50728
20
0.0784024
11
1.5069
21
0.0777381
0
LINE
8
BLACK
6
CONTINUOUS
10
1.5069
20
0.0777381
11
1.50665
21
0.077647
0
LINE
8
BLACK
6
CONTINUOUS
10
1.50665
20
0.077647
11
1.50648
21
0.0774428
0
LINE
8
BLACK
6
CONTINUOUS
10
1.50648
20
0.0774428
11
1.50572
21
0.0773096
0
LINE
8
BLACK
6
CONTINUOUS
10
1.50572
20
0.0773096
11
1.505
21
0.0770472
0
LINE
8
BLACK
6
CONTINUOUS
10
1.505
20
0.0770472
11
1.225
21
0.0770472
0
LINE
8
BLACK
6
CONTINUOUS
10
1.225
20
0.0770472
11
1.22462
21
0.0771149
0
LINE
8
BLACK
6
CONTINUOUS
10
1.22462
20
0.0771149
11
1.22449
21
0.0770921
0
LINE
8
BLACK
6
CONTINUOUS
10
1.22449
20
0.0770921
11
1.22437
21
0.0771577
0
LINE
8
BLACK
6
CONTINUOUS
10
1.22437
20
0.0771577
11
1.22399
21
0.0772253
0
LINE
8
BLACK
6
CONTINUOUS
10
1.22399
20
0.0772253
11
1.2234
21
0.0777185
0
LINE
8
BLACK
6
CONTINUOUS
10
1.2234
20
0.0777185
11
1.22274
21
0.078102
0
LINE
8
BLACK
6
CONTINUOUS
10
1.22274
20
0.078102
11
1.22265
21
0.0783524
0
LINE
8
BLACK
6
CONTINUOUS
10
1.22265
20
0.0783524
11
1.22244
21
0.0785236
0
LINE
8
BLACK
6
CONTINUOUS
10
1.22244
20
0.0785236
11
1.22231
21
0.0792792
0
LINE
8
BLACK
6
CONTINUOUS
10
1.22231
20
0.0792792
11
1.22205
21
0.08
0
LINE
8
BLACK
6
CONTINUOUS
10
1.22205
20
0.08
11
1.22205
21
0.2
0
LINE
8
BLACK
6
CONTINUOUS
10
1.22205
20
0.2
11
1.22223
21
0.20101
0
LINE
8
BLACK
6
CONTINUOUS
10
1.22223
20
0.20101
11
1.22352
21
0.202557
0
LINE
8
BLACK
6
CONTINUOUS
10
1.22352
20
0.202557
11
1.22551
21
0.202908
0
LINE
8
BLACK
6
CONTINUOUS
10
1.22551
20
0.202908
11
1.22726
21
0.201898
0
LINE
8
BLACK
6
CONTINUOUS
10
1.22726
20
0.201898
11
1.22795
21
0.2
0
LINE
8
BLACK
6
CONTINUOUS
10
1.22795
20
0.2
11
1.22795
21
0.0829528
0
LINE
8
BLACK
6
CONTINUOUS
10
1.22795
20
0.0829528
11
1.50205
21
0.0829528
0
LINE
8
BLACK
6
CONTINUOUS
10
1.50205
20
0.0829528
11
1.50205
21
0.2
0
LINE
8
BLACK
6
CONTINUOUS
10
1.50205
20
0.2
11
1.50223
21
0.20101
0
LINE
8
BLACK
6
CONTINUOUS
10
1.50223
20
0.20101
11
1.50352
21
0.202557
0
LINE
8
BLACK
6
CONTINUOUS
10
1.50352
20
0.202557
11
1.50551
21
0.202908
0
LINE
8
BLACK
6
CONTINUOUS
10
1.50551
20
0.202908
11
1.50726
21
0.201898
0
LINE
8
BLACK
6
CONTINUOUS
10
1.13496
20
0.0857333
11
1.13565
21
0.084063
0
LINE
8
BLACK
6
CONTINUOUS
10
1.13565
20
0.084063
11
1.13496
21
0.0823927
0
LINE
8
BLACK
6
CONTINUOUS
10
1.13496
20
0.0823927
11
1.13329
21
0.0817008
0
LINE
8
BLACK
6
CONTINUOUS
10
1.13329
20
0.0817008
11
1.11271
21
0.0817008
0
LINE
8
BLACK
6
CONTINUOUS
10
1.11271
20
0.0817008
11
1.11104
21
0.0823927
0
LINE
8
BLACK
6
CONTINUOUS
10
1.11104
20
0.0823927
11
1.11035
21
0.084063
0
LINE
8
BLACK
6
CONTINUOUS
10
1.11035
20
0.084063
11
1.11104
21
0.0857333
0
LINE
8
BLACK
6
CONTINUOUS
10
1.11104
20
0.0857333
11
1.11271
21
0.0864252
0
LINE
8
BLACK
6
CONTINUOUS
10
1.11271
20
0.0864252
11
1.13329
21
0.0864252
0
LINE
8
BLACK
6
CONTINUOUS
10
1.13329
20
0.0864252
11
1.13496
21
0.0857333
0
LINE
8
BLACK
6
CONTINUOUS
10
1.55938
20
0.149138
11
1.55952
21
0.149024
0
LINE
8
BLACK
6
CONTINUOUS
10
1.55952
20
0.149024
11
1.55969
21
0.149004
0
LINE
8
BLACK
6
CONTINUOUS
10
1.55969
20
0.149004
11
1.56445
21
0.146623
0
LINE
8
BLACK
6
CONTINUOUS
10
1.56445
20
0.146623
11
1.56516
21
0.146097
0
LINE
8
BLACK
6
CONTINUOUS
10
1.56516
20
0.146097
11
1.56522
21
0.14607
0
LINE
8
BLACK
6
CONTINUOUS
10
1.56522
20
0.14607
11
1.5676
21
0.143689
0
LINE
8
BLACK
6
CONTINUOUS
10
1.5676
20
0.143689
11
1.56811
21
0.142966
0
LINE
8
BLACK
6
CONTINUOUS
10
1.56811
20
0.142966
11
1.56815
21
0.142922
0
LINE
8
BLACK
6
CONTINUOUS
10
1.56815
20
0.142922
11
1.57054
21
0.13816
0
LINE
8
BLACK
6
CONTINUOUS
10
1.57054
20
0.13816
11
1.57083
21
0.137177
0
LINE
8
BLACK
6
CONTINUOUS
10
1.57083
20
0.137177
11
1.57079
21
0.137005
0
LINE
8
BLACK
6
CONTINUOUS
10
1.57079
20
0.137005
11
1.57085
21
0.136839
0
LINE
8
BLACK
6
CONTINUOUS
10
1.57085
20
0.136839
11
1.57085
21
0.127315
0
LINE
8
BLACK
6
CONTINUOUS
10
1.57085
20
0.127315
11
1.57067
21
0.126305
0
LINE
8
BLACK
6
CONTINUOUS
10
1.57067
20
0.126305
11
1.57056
21
0.12617
0
LINE
8
BLACK
6
CONTINUOUS
10
1.57056
20
0.12617
11
1.57054
21
0.125995
0
LINE
8
BLACK
6
CONTINUOUS
10
1.57054
20
0.125995
11
1.56815
21
0.121233
0
LINE
8
BLACK
6
CONTINUOUS
10
1.56815
20
0.121233
11
1.56763
21
0.120524
0
LINE
8
BLACK
6
CONTINUOUS
10
1.56763
20
0.120524
11
1.5676
21
0.120466
0
LINE
8
BLACK
6
CONTINUOUS
10
1.5676
20
0.120466
11
1.56522
21
0.118085
0
LINE
8
BLACK
6
CONTINUOUS
10
1.56522
20
0.118085
11
1.5645
21
0.117578
0
LINE
8
BLACK
6
CONTINUOUS
10
1.5645
20
0.117578
11
1.56445
21
0.117531
0
LINE
8
BLACK
6
CONTINUOUS
10
1.56445
20
0.117531
11
1.55969
21
0.11515
0
LINE
8
BLACK
6
CONTINUOUS
10
1.55969
20
0.11515
11
1.55871
21
0.114858
0
LINE
8
BLACK
6
CONTINUOUS
10
1.55871
20
0.114858
11
1.55854
21
0.114899
0
LINE
8
BLACK
6
CONTINUOUS
10
1.55854
20
0.114899
11
1.55837
21
0.114839
0
LINE
8
BLACK
6
CONTINUOUS
10
1.55837
20
0.114839
11
1.51789
21
0.114839
0
LINE
8
BLACK
6
CONTINUOUS
10
1.51789
20
0.114839
11
1.51688
21
0.115017
0
LINE
8
BLACK
6
CONTINUOUS
10
1.51688
20
0.115017
11
1.51534
21
0.116315
0
LINE
8
BLACK
6
CONTINUOUS
10
1.51534
20
0.116315
11
1.51499
21
0.118304
0
LINE
8
BLACK
6
CONTINUOUS
10
1.51499
20
0.118304
11
1.516
21
0.120053
0
LINE
8
BLACK
6
CONTINUOUS
10
1.516
20
0.120053
11
1.51789
21
0.120744
0
LINE
8
BLACK
6
CONTINUOUS
10
1.51789
20
0.120744
11
1.55767
21
0.120744
0
LINE
8
BLACK
6
CONTINUOUS
10
1.55767
20
0.120744
11
1.56138
21
0.122599
0
LINE
8
BLACK
6
CONTINUOUS
10
1.56138
20
0.122599
11
1.56309
21
0.124303
0
LINE
8
BLACK
6
CONTINUOUS
10
1.56309
20
0.124303
11
1.56494
21
0.128012
0
LINE
8
BLACK
6
CONTINUOUS
10
1.56494
20
0.128012
11
1.56494
21
0.136142
0
LINE
8
BLACK
6
CONTINUOUS
10
1.56494
20
0.136142
11
1.56309
21
0.139852
0
LINE
8
BLACK
6
CONTINUOUS
10
1.56309
20
0.139852
11
1.56138
21
0.141555
0
LINE
8
BLACK
6
CONTINUOUS
10
1.56138
20
0.141555
11
1.55767
21
0.14341
0
LINE
8
BLACK
6
CONTINUOUS
10
1.55767
20
0.14341
11
1.51789
21
0.14341
0
LINE
8
BLACK
6
CONTINUOUS
10
1.51789
20
0.14341
11
1.51688
21
0.143588
0
LINE
8
BLACK
6
CONTINUOUS
10
1.51688
20
0.143588
11
1.51534
21
0.144887
0
LINE
8
BLACK
6
CONTINUOUS
10
1.51534
20
0.144887
11
1.51499
21
0.146876
0
LINE
8
BLACK
6
CONTINUOUS
10
1.51499
20
0.146876
11
1.516
21
0.148625
0
LINE
8
BLACK
6
CONTINUOUS
10
1.516
20
0.148625
11
1.51789
21
0.149316
0
LINE
8
BLACK
6
CONTINUOUS
10
1.51789
20
0.149316
11
1.55837
21
0.149316
0
LINE
8
BLACK
6
CONTINUOUS
10
1.55837
20
0.149316
11
1.55938
21
0.149138
0
LINE
8
BLACK
6
CONTINUOUS
10
0.815883
20
0.462891
11
0.816575
21
0.46122
0
LINE
8
BLACK
6
CONTINUOUS
10
0.816575
20
0.46122
11
0.816575
21
0.129331
0
LINE
8
BLACK
6
CONTINUOUS
10
0.816575
20
0.129331
11
0.815883
21
0.12766
0
LINE
8
BLACK
6
CONTINUOUS
10
0.815883
20
0.12766
11
0.814213
21
0.126969
0
LINE
8
BLACK
6
CONTINUOUS
10
0.814213
20
0.126969
11
0.812542
21
0.12766
0
LINE
8
BLACK
6
CONTINUOUS
10
0.812542
20
0.12766
11
0.81185
21
0.129331
0
LINE
8
BLACK
6
CONTINUOUS
10
0.81185
20
0.129331
11
0.81185
21
0.46122
0
LINE
8
BLACK
6
CONTINUOUS
10
0.81185
20
0.46122
11
0.812542
21
0.462891
0
LINE
8
BLACK
6
CONTINUOUS
10
0.812542
20
0.462891
11
0.814213
21
0.463583
0
LINE
8
BLACK
6
CONTINUOUS
10
0.814213
20
0.463583
11
0.815883
21
0.462891
0
LINE
8
BLACK
6
CONTINUOUS
10
1.13496
20
0.143607
11
1.13565
21
0.141937
0
LINE
8
BLACK
6
CONTINUOUS
10
1.13565
20
0.141937
11
1.13496
21
0.140267
0
LINE
8
BLACK
6
CONTINUOUS
10
1.13496
20
0.140267
11
1.13329
21
0.139575
0
LINE
8
BLACK
6
CONTINUOUS
10
1.13329
20
0.139575
11
1.11271
21
0.139575
0
LINE
8
BLACK
6
CONTINUOUS
10
1.11271
20
0.139575
11
1.11104
21
0.140267
0
LINE
8
BLACK
6
CONTINUOUS
10
1.11104
20
0.140267
11
1.11035
21
0.141937
0
LINE
8
BLACK
6
CONTINUOUS
10
1.11035
20
0.141937
11
1.11104
21
0.143607
0
LINE
8
BLACK
6
CONTINUOUS
10
1.11104
20
0.143607
11
1.11271
21
0.144299
0
LINE
8
BLACK
6
CONTINUOUS
10
1.11271
20
0.144299
11
1.13329
21
0.144299
0
LINE
8
BLACK
6
CONTINUOUS
10
1.13329
20
0.144299
11
1.13496
21
0.143607
0
LINE
8
BLACK
6
CONTINUOUS
10
2.75758
20
0.439662
11
2.75827
21
0.437992
0
LINE
8
BLACK
6
CONTINUOUS
10
2.75827
20
0.437992
11
2.75758
21
0.436322
0
LINE
8
BLACK
6
CONTINUOUS
10
2.75758
20
0.436322
11
2.75591
21
0.43563
0
LINE
8
BLACK
6
CONTINUOUS
10
2.75591
20
0.43563
11
2.37244
21
0.43563
0
LINE
8
BLACK
6
CONTINUOUS
10
2.37244
20
0.43563
11
2.37244
21
0.154921
0
LINE
8
BLACK
6
CONTINUOUS
10
2.37244
20
0.154921
11
2.75591
21
0.154921
0
LINE
8
BLACK
6
CONTINUOUS
10
2.75591
20
0.154921
11
2.75758
21
0.154229
0
LINE
8
BLACK
6
CONTINUOUS
10
2.75758
20
0.154229
11
2.75827
21
0.152559
0
LINE
8
BLACK
6
CONTINUOUS
10
2.75827
20
0.152559
11
2.75758
21
0.150889
0
LINE
8
BLACK
6
CONTINUOUS
10
2.75758
20
0.150889
11
2.75591
21
0.150197
0
LINE
8
BLACK
6
CONTINUOUS
10
2.75591
20
0.150197
11
2.37008
21
0.150197
0
LINE
8
BLACK
6
CONTINUOUS
10
2.37008
20
0.150197
11
2.36841
21
0.150889
0
LINE
8
BLACK
6
CONTINUOUS
10
2.36841
20
0.150889
11
2.36772
21
0.152559
0
LINE
8
BLACK
6
CONTINUOUS
10
2.36772
20
0.152559
11
2.36772
21
0.437992
0
LINE
8
BLACK
6
CONTINUOUS
10
2.36772
20
0.437992
11
2.36841
21
0.439662
0
LINE
8
BLACK
6
CONTINUOUS
10
2.36841
20
0.439662
11
2.37008
21
0.440354
0
LINE
8
BLACK
6
CONTINUOUS
10
2.37008
20
0.440354
11
2.75591
21
0.440354
0
LINE
8
BLACK
6
CONTINUOUS
10
2.75591
20
0.440354
11
2.75758
21
0.439662
0
LINE
8
BLACK
6
CONTINUOUS
10
1.13101
20
0.206099
11
1.1317
21
0.204429
0
LINE
8
BLACK
6
CONTINUOUS
10
1.1317
20
0.204429
11
1.13101
21
0.202759
0
LINE
8
BLACK
6
CONTINUOUS
10
1.13101
20
0.202759
11
1.12934
21
0.202067
0
LINE
8
BLACK
6
CONTINUOUS
10
1.12934
20
0.202067
11
1.11066
21
0.202067
0
LINE
8
BLACK
6
CONTINUOUS
10
1.11066
20
0.202067
11
1.10899
21
0.202759
0
LINE
8
BLACK
6
CONTINUOUS
10
1.10899
20
0.202759
11
1.1083
21
0.204429
0
LINE
8
BLACK
6
CONTINUOUS
10
1.1083
20
0.204429
11
1.10899
21
0.206099
0
LINE
8
BLACK
6
CONTINUOUS
10
1.10899
20
0.206099
11
1.11066
21
0.206791
0
LINE
8
BLACK
6
CONTINUOUS
10
1.11066
20
0.206791
11
1.12934
21
0.206791
0
LINE
8
BLACK
6
CONTINUOUS
10
1.12934
20
0.206791
11
1.13101
21
0.206099
0
LINE
8
BLACK
6
CONTINUOUS
10
1.81659
20
0.221693
11
1.81728
21
0.220023
0
LINE
8
BLACK
6
CONTINUOUS
10
1.81728
20
0.220023
11
1.81728
21
0.208954
0
LINE
8
BLACK
6
CONTINUOUS
10
1.81728
20
0.208954
11
1.81659
21
0.207283
0
LINE
8
BLACK
6
CONTINUOUS
10
1.81659
20
0.207283
11
1.81492
21
0.206591
0
LINE
8
BLACK
6
CONTINUOUS
10
1.81492
20
0.206591
11
1.81325
21
0.207283
0
LINE
8
BLACK
6
CONTINUOUS
10
1.81325
20
0.207283
11
1.81256
21
0.208954
0
LINE
8
BLACK
6
CONTINUOUS
10
1.81256
20
0.208954
11
1.81256
21
0.220023
0
LINE
8
BLACK
6
CONTINUOUS
10
1.81256
20
0.220023
11
1.81325
21
0.221693
0
LINE
8
BLACK
6
CONTINUOUS
10
1.81325
20
0.221693
11
1.81492
21
0.222385
0
LINE
8
BLACK
6
CONTINUOUS
10
1.81492
20
0.222385
11
1.81659
21
0.221693
0
LINE
8
BLACK
6
CONTINUOUS
10
1.85675
20
0.221693
11
1.85744
21
0.220023
0
LINE
8
BLACK
6
CONTINUOUS
10
1.85744
20
0.220023
11
1.85744
21
0.208954
0
LINE
8
BLACK
6
CONTINUOUS
10
1.85744
20
0.208954
11
1.85675
21
0.207283
0
LINE
8
BLACK
6
CONTINUOUS
10
1.85675
20
0.207283
11
1.85508
21
0.206591
0
LINE
8
BLACK
6
CONTINUOUS
10
1.85508
20
0.206591
11
1.85341
21
0.207283
0
LINE
8
BLACK
6
CONTINUOUS
10
1.85341
20
0.207283
11
1.85272
21
0.208954
0
LINE
8
BLACK
6
CONTINUOUS
10
1.85272
20
0.208954
11
1.85272
21
0.220023
0
LINE
8
BLACK
6
CONTINUOUS
10
1.85272
20
0.220023
11
1.85341
21
0.221693
0
LINE
8
BLACK
6
CONTINUOUS
10
1.85341
20
0.221693
11
1.85508
21
0.222385
0
LINE
8
BLACK
6
CONTINUOUS
10
1.85508
20
0.222385
11
1.85675
21
0.221693
0
LINE
8
BLACK
6
CONTINUOUS
10
1.96013
20
0.218718
11
1.96082
21
0.217047
0
LINE
8
BLACK
6
CONTINUOUS
10
1.96082
20
0.217047
11
1.96013
21
0.215377
0
LINE
8
BLACK
6
CONTINUOUS
10
1.96013
20
0.215377
11
1.95845
21
0.214685
0
LINE
8
BLACK
6
CONTINUOUS
10
1.95845
20
0.214685
11
1.93788
21
0.214685
0
LINE
8
BLACK
6
CONTINUOUS
10
1.93788
20
0.214685
11
1.93621
21
0.215377
0
LINE
8
BLACK
6
CONTINUOUS
10
1.93621
20
0.215377
11
1.93552
21
0.217047
0
LINE
8
BLACK
6
CONTINUOUS
10
1.93552
20
0.217047
11
1.93621
21
0.218718
0
LINE
8
BLACK
6
CONTINUOUS
10
1.93621
20
0.218718
11
1.93788
21
0.219409
0
LINE
8
BLACK
6
CONTINUOUS
10
1.93788
20
0.219409
11
1.95845
21
0.219409
0
LINE
8
BLACK
6
CONTINUOUS
10
1.95845
20
0.219409
11
1.96013
21
0.218718
0
LINE
8
BLACK
6
CONTINUOUS
10
2.10669
20
0.226592
11
2.10739
21
0.224921
0
LINE
8
BLACK
6
CONTINUOUS
10
2.10739
20
0.224921
11
2.10669
21
0.223251
0
LINE
8
BLACK
6
CONTINUOUS
10
2.10669
20
0.223251
11
2.10502
21
0.222559
0
LINE
8
BLACK
6
CONTINUOUS
10
2.10502
20
0.222559
11
2.09395
21
0.222559
0
LINE
8
BLACK
6
CONTINUOUS
10
2.09395
20
0.222559
11
2.09228
21
0.223251
0
LINE
8
BLACK
6
CONTINUOUS
10
2.09228
20
0.223251
11
2.09159
21
0.224921
0
LINE
8
BLACK
6
CONTINUOUS
10
2.09159
20
0.224921
11
2.09228
21
0.226592
0
LINE
8
BLACK
6
CONTINUOUS
10
2.09228
20
0.226592
11
2.09395
21
0.227283
0
LINE
8
BLACK
6
CONTINUOUS
10
2.09395
20
0.227283
11
2.10502
21
0.227283
0
LINE
8
BLACK
6
CONTINUOUS
10
2.10502
20
0.227283
11
2.10669
21
0.226592
0
LINE
8
BLACK
6
CONTINUOUS
10
2.25872
20
0.265125
11
2.25941
21
0.263455
0
LINE
8
BLACK
6
CONTINUOUS
10
2.25941
20
0.263455
11
2.25941
21
0.242884
0
LINE
8
BLACK
6
CONTINUOUS
10
2.25941
20
0.242884
11
2.25872
21
0.241213
0
LINE
8
BLACK
6
CONTINUOUS
10
2.25872
20
0.241213
11
2.25705
21
0.240522
0
LINE
8
BLACK
6
CONTINUOUS
10
2.25705
20
0.240522
11
2.25538
21
0.241213
0
LINE
8
BLACK
6
CONTINUOUS
10
2.25538
20
0.241213
11
2.25469
21
0.242884
0
LINE
8
BLACK
6
CONTINUOUS
10
2.25469
20
0.242884
11
2.25469
21
0.263455
0
LINE
8
BLACK
6
CONTINUOUS
10
2.25469
20
0.263455
11
2.25538
21
0.265125
0
LINE
8
BLACK
6
CONTINUOUS
10
2.25538
20
0.265125
11
2.25705
21
0.265817
0
LINE
8
BLACK
6
CONTINUOUS
10
2.25705
20
0.265817
11
2.25872
21
0.265125
0
LINE
8
BLACK
6
CONTINUOUS
10
2.31462
20
0.265125
11
2.31531
21
0.263455
0
LINE
8
BLACK
6
CONTINUOUS
10
2.31531
20
0.263455
11
2.31531
21
0.242884
0
LINE
8
BLACK
6
CONTINUOUS
10
2.31531
20
0.242884
11
2.31462
21
0.241213
0
LINE
8
BLACK
6
CONTINUOUS
10
2.31462
20
0.241213
11
2.31295
21
0.240522
0
LINE
8
BLACK
6
CONTINUOUS
10
2.31295
20
0.240522
11
2.31128
21
0.241213
0
LINE
8
BLACK
6
CONTINUOUS
10
2.31128
20
0.241213
11
2.31059
21
0.242884
0
LINE
8
BLACK
6
CONTINUOUS
10
2.31059
20
0.242884
11
2.31059
21
0.263455
0
LINE
8
BLACK
6
CONTINUOUS
10
2.31059
20
0.263455
11
2.31128
21
0.265125
0
LINE
8
BLACK
6
CONTINUOUS
10
2.31128
20
0.265125
11
2.31295
21
0.265817
0
LINE
8
BLACK
6
CONTINUOUS
10
2.31295
20
0.265817
11
2.31462
21
0.265125
0
LINE
8
BLACK
6
CONTINUOUS
10
1.13101
20
0.247241
11
1.1317
21
0.245571
0
LINE
8
BLACK
6
CONTINUOUS
10
1.1317
20
0.245571
11
1.13101
21
0.243901
0
LINE
8
BLACK
6
CONTINUOUS
10
1.13101
20
0.243901
11
1.12934
21
0.243209
0
LINE
8
BLACK
6
CONTINUOUS
10
1.12934
20
0.243209
11
1.11066
21
0.243209
0
LINE
8
BLACK
6
CONTINUOUS
10
1.11066
20
0.243209
11
1.10899
21
0.243901
0
LINE
8
BLACK
6
CONTINUOUS
10
1.10899
20
0.243901
11
1.1083
21
0.245571
0
LINE
8
BLACK
6
CONTINUOUS
10
1.1083
20
0.245571
11
1.10899
21
0.247241
0
LINE
8
BLACK
6
CONTINUOUS
10
1.10899
20
0.247241
11
1.11066
21
0.247933
0
LINE
8
BLACK
6
CONTINUOUS
10
1.11066
20
0.247933
11
1.12934
21
0.247933
0
LINE
8
BLACK
6
CONTINUOUS
10
1.12934
20
0.247933
11
1.13101
21
0.247241
0
LINE
8
BLACK
6
CONTINUOUS
10
1.58161
20
0.284554
11
1.5823
21
0.282884
0
LINE
8
BLACK
6
CONTINUOUS
10
1.5823
20
0.282884
11
1.5823
21
0.262313
0
LINE
8
BLACK
6
CONTINUOUS
10
1.5823
20
0.262313
11
1.58161
21
0.260643
0
LINE
8
BLACK
6
CONTINUOUS
10
1.58161
20
0.260643
11
1.57994
21
0.259951
0
LINE
8
BLACK
6
CONTINUOUS
10
1.57994
20
0.259951
11
1.57827
21
0.260643
0
LINE
8
BLACK
6
CONTINUOUS
10
1.57827
20
0.260643
11
1.57757
21
0.262313
0
LINE
8
BLACK
6
CONTINUOUS
10
1.57757
20
0.262313
11
1.57757
21
0.282884
0
LINE
8
BLACK
6
CONTINUOUS
10
1.57757
20
0.282884
11
1.57827
21
0.284554
0
LINE
8
BLACK
6
CONTINUOUS
10
1.57827
20
0.284554
11
1.57994
21
0.285246
0
LINE
8
BLACK
6
CONTINUOUS
10
1.57994
20
0.285246
11
1.58161
21
0.284554
0
LINE
8
BLACK
6
CONTINUOUS
10
1.52373
20
0.284554
11
1.52443
21
0.282884
0
LINE
8
BLACK
6
CONTINUOUS
10
1.52443
20
0.282884
11
1.52443
21
0.262313
0
LINE
8
BLACK
6
CONTINUOUS
10
1.52443
20
0.262313
11
1.52373
21
0.260643
0
LINE
8
BLACK
6
CONTINUOUS
10
1.52373
20
0.260643
11
1.52206
21
0.259951
0
LINE
8
BLACK
6
CONTINUOUS
10
1.52206
20
0.259951
11
1.52039
21
0.260643
0
LINE
8
BLACK
6
CONTINUOUS
10
1.52039
20
0.260643
11
1.5197
21
0.262313
0
LINE
8
BLACK
6
CONTINUOUS
10
1.5197
20
0.262313
11
1.5197
21
0.282884
0
LINE
8
BLACK
6
CONTINUOUS
10
1.5197
20
0.282884
11
1.52039
21
0.284554
0
LINE
8
BLACK
6
CONTINUOUS
10
1.52039
20
0.284554
11
1.52206
21
0.285246
0
LINE
8
BLACK
6
CONTINUOUS
10
1.52206
20
0.285246
11
1.52373
21
0.284554
0
LINE
8
BLACK
6
CONTINUOUS
10
2.10669
20
0.266749
11
2.10739
21
0.265079
0
LINE
8
BLACK
6
CONTINUOUS
10
2.10739
20
0.265079
11
2.10669
21
0.263408
0
LINE
8
BLACK
6
CONTINUOUS
10
2.10669
20
0.263408
11
2.10502
21
0.262717
0
LINE
8
BLACK
6
CONTINUOUS
10
2.10502
20
0.262717
11
2.09395
21
0.262717
0
LINE
8
BLACK
6
CONTINUOUS
10
2.09395
20
0.262717
11
2.09228
21
0.263408
0
LINE
8
BLACK
6
CONTINUOUS
10
2.09228
20
0.263408
11
2.09159
21
0.265079
0
LINE
8
BLACK
6
CONTINUOUS
10
2.09159
20
0.265079
11
2.09228
21
0.266749
0
LINE
8
BLACK
6
CONTINUOUS
10
2.09228
20
0.266749
11
2.09395
21
0.267441
0
LINE
8
BLACK
6
CONTINUOUS
10
2.09395
20
0.267441
11
2.10502
21
0.267441
0
LINE
8
BLACK
6
CONTINUOUS
10
2.10502
20
0.267441
11
2.10669
21
0.266749
0
LINE
8
BLACK
6
CONTINUOUS
10
1.96013
20
0.274623
11
1.96082
21
0.272953
0
LINE
8
BLACK
6
CONTINUOUS
10
1.96082
20
0.272953
11
1.96013
21
0.271282
0
LINE
8
BLACK
6
CONTINUOUS
10
1.96013
20
0.271282
11
1.95845
21
0.270591
0
LINE
8
BLACK
6
CONTINUOUS
10
1.95845
20
0.270591
11
1.93788
21
0.270591
0
LINE
8
BLACK
6
CONTINUOUS
10
1.93788
20
0.270591
11
1.93621
21
0.271282
0
LINE
8
BLACK
6
CONTINUOUS
10
1.93621
20
0.271282
11
1.93552
21
0.272953
0
LINE
8
BLACK
6
CONTINUOUS
10
1.93552
20
0.272953
11
1.93621
21
0.274623
0
LINE
8
BLACK
6
CONTINUOUS
10
1.93621
20
0.274623
11
1.93788
21
0.275315
0
LINE
8
BLACK
6
CONTINUOUS
10
1.93788
20
0.275315
11
1.95845
21
0.275315
0
LINE
8
BLACK
6
CONTINUOUS
10
1.95845
20
0.275315
11
1.96013
21
0.274623
0
LINE
8
BLACK
6
CONTINUOUS
10
2.356
20
0.318599
11
2.35669
21
0.316929
0
LINE
8
BLACK
6
CONTINUOUS
10
2.35669
20
0.316929
11
2.35669
21
0.273622
0
LINE
8
BLACK
6
CONTINUOUS
10
2.35669
20
0.273622
11
2.356
21
0.271952
0
LINE
8
BLACK
6
CONTINUOUS
10
2.356
20
0.271952
11
2.35433
21
0.27126
0
LINE
8
BLACK
6
CONTINUOUS
10
2.35433
20
0.27126
11
2.35266
21
0.271952
0
LINE
8
BLACK
6
CONTINUOUS
10
2.35266
20
0.271952
11
2.35197
21
0.273622
0
LINE
8
BLACK
6
CONTINUOUS
10
2.35197
20
0.273622
11
2.35197
21
0.316929
0
LINE
8
BLACK
6
CONTINUOUS
10
2.35197
20
0.316929
11
2.35266
21
0.318599
0
LINE
8
BLACK
6
CONTINUOUS
10
2.35266
20
0.318599
11
2.35433
21
0.319291
0
LINE
8
BLACK
6
CONTINUOUS
10
2.35433
20
0.319291
11
2.356
21
0.318599
0
LINE
8
BLACK
6
CONTINUOUS
10
1.13353
20
0.281099
11
1.13422
21
0.279429
0
LINE
8
BLACK
6
CONTINUOUS
10
1.13422
20
0.279429
11
1.13353
21
0.277759
0
LINE
8
BLACK
6
CONTINUOUS
10
1.13353
20
0.277759
11
1.13186
21
0.277067
0
LINE
8
BLACK
6
CONTINUOUS
10
1.13186
20
0.277067
11
1.11318
21
0.277067
0
LINE
8
BLACK
6
CONTINUOUS
10
1.11318
20
0.277067
11
1.11151
21
0.277759
0
LINE
8
BLACK
6
CONTINUOUS
10
1.11151
20
0.277759
11
1.11082
21
0.279429
0
LINE
8
BLACK
6
CONTINUOUS
10
1.11082
20
0.279429
11
1.11151
21
0.281099
0
LINE
8
BLACK
6
CONTINUOUS
10
1.11151
20
0.281099
11
1.11318
21
0.281791
0
LINE
8
BLACK
6
CONTINUOUS
10
1.11318
20
0.281791
11
1.13186
21
0.281791
0
LINE
8
BLACK
6
CONTINUOUS
10
1.13186
20
0.281791
11
1.13353
21
0.281099
0
LINE
8
BLACK
6
CONTINUOUS
10
1.94637
20
0.334295
11
1.94791
21
0.332997
0
LINE
8
BLACK
6
CONTINUOUS
10
1.94791
20
0.332997
11
1.94827
21
0.331008
0
LINE
8
BLACK
6
CONTINUOUS
10
1.94827
20
0.331008
11
1.94726
21
0.329259
0
LINE
8
BLACK
6
CONTINUOUS
10
1.94726
20
0.329259
11
1.94536
21
0.328568
0
LINE
8
BLACK
6
CONTINUOUS
10
1.94536
20
0.328568
11
1.92749
21
0.328568
0
LINE
8
BLACK
6
CONTINUOUS
10
1.92749
20
0.328568
11
1.93633
21
0.318467
0
LINE
8
BLACK
6
CONTINUOUS
10
1.93633
20
0.318467
11
1.93656
21
0.318087
0
LINE
8
BLACK
6
CONTINUOUS
10
1.93656
20
0.318087
11
1.93667
21
0.317999
0
LINE
8
BLACK
6
CONTINUOUS
10
1.93667
20
0.317999
11
1.93669
21
0.317878
0
LINE
8
BLACK
6
CONTINUOUS
10
1.93669
20
0.317878
11
1.93686
21
0.317589
0
LINE
8
BLACK
6
CONTINUOUS
10
1.93686
20
0.317589
11
1.93688
21
0.316794
0
LINE
8
BLACK
6
CONTINUOUS
10
1.93688
20
0.316794
11
1.93702
21
0.31601
0
LINE
8
BLACK
6
CONTINUOUS
10
1.93702
20
0.31601
11
1.9369
21
0.315806
0
LINE
8
BLACK
6
CONTINUOUS
10
1.9369
20
0.315806
11
1.9369
21
0.31557
0
LINE
8
BLACK
6
CONTINUOUS
10
1.9369
20
0.31557
11
1.9364
21
0.31495
0
LINE
8
BLACK
6
CONTINUOUS
10
1.9364
20
0.31495
11
1.93601
21
0.31426
0
LINE
8
BLACK
6
CONTINUOUS
10
1.93601
20
0.31426
11
1.93579
21
0.31418
0
LINE
8
BLACK
6
CONTINUOUS
10
1.93579
20
0.31418
11
1.93564
21
0.313996
0
LINE
8
BLACK
6
CONTINUOUS
10
1.93564
20
0.313996
11
1.93486
21
0.313842
0
LINE
8
BLACK
6
CONTINUOUS
10
1.93486
20
0.313842
11
1.93411
21
0.31357
0
LINE
8
BLACK
6
CONTINUOUS
10
1.93411
20
0.31357
11
1.92918
21
0.31357
0
LINE
8
BLACK
6
CONTINUOUS
10
1.92918
20
0.31357
11
1.92648
21
0.312221
0
LINE
8
BLACK
6
CONTINUOUS
10
1.92648
20
0.312221
11
1.92529
21
0.311024
0
LINE
8
BLACK
6
CONTINUOUS
10
1.92529
20
0.311024
11
1.92394
21
0.308326
0
LINE
8
BLACK
6
CONTINUOUS
10
1.92394
20
0.308326
11
1.92394
21
0.300346
0
LINE
8
BLACK
6
CONTINUOUS
10
1.92394
20
0.300346
11
1.92529
21
0.297649
0
LINE
8
BLACK
6
CONTINUOUS
10
1.92529
20
0.297649
11
1.92648
21
0.296452
0
LINE
8
BLACK
6
CONTINUOUS
10
1.92648
20
0.296452
11
1.92918
21
0.295103
0
LINE
8
BLACK
6
CONTINUOUS
10
1.92918
20
0.295103
11
1.93904
21
0.295103
0
LINE
8
BLACK
6
CONTINUOUS
10
1.93904
20
0.295103
11
1.94173
21
0.296452
0
LINE
8
BLACK
6
CONTINUOUS
10
1.94173
20
0.296452
11
1.94327
21
0.297988
0
LINE
8
BLACK
6
CONTINUOUS
10
1.94327
20
0.297988
11
1.94411
21
0.298576
0
LINE
8
BLACK
6
CONTINUOUS
10
1.94411
20
0.298576
11
1.94612
21
0.298752
0
LINE
8
BLACK
6
CONTINUOUS
10
1.94612
20
0.298752
11
1.94778
21
0.297594
0
LINE
8
BLACK
6
CONTINUOUS
10
1.94778
20
0.297594
11
1.9483
21
0.295643
0
LINE
8
BLACK
6
CONTINUOUS
10
1.9483
20
0.295643
11
1.94745
21
0.293812
0
LINE
8
BLACK
6
CONTINUOUS
10
1.94745
20
0.293812
11
1.94557
21
0.291937
0
LINE
8
BLACK
6
CONTINUOUS
10
1.94557
20
0.291937
11
1.94485
21
0.291431
0
LINE
8
BLACK
6
CONTINUOUS
10
1.94485
20
0.291431
11
1.9448
21
0.291384
0
LINE
8
BLACK
6
CONTINUOUS
10
1.9448
20
0.291384
11
1.94105
21
0.289509
0
LINE
8
BLACK
6
CONTINUOUS
10
1.94105
20
0.289509
11
1.94007
21
0.289217
0
LINE
8
BLACK
6
CONTINUOUS
10
1.94007
20
0.289217
11
1.9399
21
0.289258
0
LINE
8
BLACK
6
CONTINUOUS
10
1.9399
20
0.289258
11
1.93973
21
0.289198
0
LINE
8
BLACK
6
CONTINUOUS
10
1.93973
20
0.289198
11
1.92848
21
0.289198
0
LINE
8
BLACK
6
CONTINUOUS
10
1.92848
20
0.289198
11
1.92747
21
0.289376
0
LINE
8
BLACK
6
CONTINUOUS
10
1.92747
20
0.289376
11
1.92734
21
0.289489
0
LINE
8
BLACK
6
CONTINUOUS
10
1.92734
20
0.289489
11
1.92716
21
0.289509
0
LINE
8
BLACK
6
CONTINUOUS
10
1.92716
20
0.289509
11
1.92341
21
0.291384
0
LINE
8
BLACK
6
CONTINUOUS
10
1.92341
20
0.291384
11
1.92271
21
0.29191
0
LINE
8
BLACK
6
CONTINUOUS
10
1.92271
20
0.29191
11
1.92265
21
0.291937
0
LINE
8
BLACK
6
CONTINUOUS
10
1.92265
20
0.291937
11
1.92077
21
0.293812
0
LINE
8
BLACK
6
CONTINUOUS
10
1.92077
20
0.293812
11
1.92027
21
0.294535
0
LINE
8
BLACK
6
CONTINUOUS
10
1.92027
20
0.294535
11
1.92022
21
0.294579
0
LINE
8
BLACK
6
CONTINUOUS
10
1.92022
20
0.294579
11
1.91834
21
0.298329
0
LINE
8
BLACK
6
CONTINUOUS
10
1.91834
20
0.298329
11
1.91805
21
0.299312
0
LINE
8
BLACK
6
CONTINUOUS
10
1.91805
20
0.299312
11
1.91809
21
0.299484
0
LINE
8
BLACK
6
CONTINUOUS
10
1.91809
20
0.299484
11
1.91803
21
0.299649
0
LINE
8
BLACK
6
CONTINUOUS
10
1.91803
20
0.299649
11
1.91803
21
0.309023
0
LINE
8
BLACK
6
CONTINUOUS
10
1.91803
20
0.309023
11
1.91821
21
0.310033
0
LINE
8
BLACK
6
CONTINUOUS
10
1.91821
20
0.310033
11
1.91832
21
0.310168
0
LINE
8
BLACK
6
CONTINUOUS
10
1.91832
20
0.310168
11
1.91834
21
0.310344
0
LINE
8
BLACK
6
CONTINUOUS
10
1.91834
20
0.310344
11
1.92022
21
0.314093
0
LINE
8
BLACK
6
CONTINUOUS
10
1.92022
20
0.314093
11
1.92074
21
0.314802
0
LINE
8
BLACK
6
CONTINUOUS
10
1.92074
20
0.314802
11
1.92077
21
0.314861
0
LINE
8
BLACK
6
CONTINUOUS
10
1.92077
20
0.314861
11
1.92265
21
0.316735
0
LINE
8
BLACK
6
CONTINUOUS
10
1.92265
20
0.316735
11
1.92337
21
0.317242
0
LINE
8
BLACK
6
CONTINUOUS
10
1.92337
20
0.317242
11
1.92341
21
0.317289
0
LINE
8
BLACK
6
CONTINUOUS
10
1.92341
20
0.317289
11
1.92716
21
0.319163
0
LINE
8
BLACK
6
CONTINUOUS
10
1.92716
20
0.319163
11
1.92773
21
0.319331
0
LINE
8
BLACK
6
CONTINUOUS
10
1.92773
20
0.319331
11
1.91876
21
0.329576
0
LINE
8
BLACK
6
CONTINUOUS
10
1.91876
20
0.329576
11
1.91853
21
0.329956
0
LINE
8
BLACK
6
CONTINUOUS
10
1.91853
20
0.329956
11
1.91843
21
0.330044
0
LINE
8
BLACK
6
CONTINUOUS
10
1.91843
20
0.330044
11
1.91841
21
0.330165
0
LINE
8
BLACK
6
CONTINUOUS
10
1.91841
20
0.330165
11
1.91823
21
0.330453
0
LINE
8
BLACK
6
CONTINUOUS
10
1.91823
20
0.330453
11
1.91822
21
0.331249
0
LINE
8
BLACK
6
CONTINUOUS
10
1.91822
20
0.331249
11
1.91808
21
0.332033
0
LINE
8
BLACK
6
CONTINUOUS
10
1.91808
20
0.332033
11
1.9182
21
0.332237
0
LINE
8
BLACK
6
CONTINUOUS
10
1.9182
20
0.332237
11
1.91819
21
0.332473
0
LINE
8
BLACK
6
CONTINUOUS
10
1.91819
20
0.332473
11
1.91869
21
0.333093
0
LINE
8
BLACK
6
CONTINUOUS
10
1.91869
20
0.333093
11
1.91909
21
0.333782
0
LINE
8
BLACK
6
CONTINUOUS
10
1.91909
20
0.333782
11
1.91931
21
0.333863
0
LINE
8
BLACK
6
CONTINUOUS
10
1.91931
20
0.333863
11
1.91946
21
0.334046
0
LINE
8
BLACK
6
CONTINUOUS
10
1.91946
20
0.334046
11
1.92024
21
0.334201
0
LINE
8
BLACK
6
CONTINUOUS
10
1.92024
20
0.334201
11
1.92099
21
0.334473
0
LINE
8
BLACK
6
CONTINUOUS
10
1.92099
20
0.334473
11
1.94536
21
0.334473
0
LINE
8
BLACK
6
CONTINUOUS
10
1.94536
20
0.334473
11
1.94637
21
0.334295
0
LINE
8
BLACK
6
CONTINUOUS
10
1.97574
20
0.333418
11
1.97643
21
0.33152
0
LINE
8
BLACK
6
CONTINUOUS
10
1.97643
20
0.33152
11
1.97643
21
0.29215
0
LINE
8
BLACK
6
CONTINUOUS
10
1.97643
20
0.29215
11
1.97636
21
0.291767
0
LINE
8
BLACK
6
CONTINUOUS
10
1.97636
20
0.291767
11
1.97639
21
0.291638
0
LINE
8
BLACK
6
CONTINUOUS
10
1.97639
20
0.291638
11
1.97632
21
0.291524
0
LINE
8
BLACK
6
CONTINUOUS
10
1.97632
20
0.291524
11
1.97625
21
0.29114
0
LINE
8
BLACK
6
CONTINUOUS
10
1.97625
20
0.29114
11
1.97576
21
0.290553
0
LINE
8
BLACK
6
CONTINUOUS
10
1.97576
20
0.290553
11
1.97538
21
0.289888
0
LINE
8
BLACK
6
CONTINUOUS
10
1.97538
20
0.289888
11
1.97513
21
0.289797
0
LINE
8
BLACK
6
CONTINUOUS
10
1.97513
20
0.289797
11
1.97496
21
0.289593
0
LINE
8
BLACK
6
CONTINUOUS
10
1.97496
20
0.289593
11
1.9742
21
0.28946
0
LINE
8
BLACK
6
CONTINUOUS
10
1.9742
20
0.28946
11
1.97348
21
0.289198
0
LINE
8
BLACK
6
CONTINUOUS
10
1.97348
20
0.289198
11
1.95473
21
0.289198
0
LINE
8
BLACK
6
CONTINUOUS
10
1.95473
20
0.289198
11
1.95372
21
0.289376
0
LINE
8
BLACK
6
CONTINUOUS
10
1.95372
20
0.289376
11
1.95217
21
0.290674
0
LINE
8
BLACK
6
CONTINUOUS
10
1.95217
20
0.290674
11
1.95182
21
0.292663
0
LINE
8
BLACK
6
CONTINUOUS
10
1.95182
20
0.292663
11
1.95283
21
0.294412
0
LINE
8
BLACK
6
CONTINUOUS
10
1.95283
20
0.294412
11
1.95473
21
0.295103
0
LINE
8
BLACK
6
CONTINUOUS
10
1.95473
20
0.295103
11
1.97053
21
0.295103
0
LINE
8
BLACK
6
CONTINUOUS
10
1.97053
20
0.295103
11
1.97053
21
0.33152
0
LINE
8
BLACK
6
CONTINUOUS
10
1.97053
20
0.33152
11
1.9707
21
0.33253
0
LINE
8
BLACK
6
CONTINUOUS
10
1.9707
20
0.33253
11
1.972
21
0.334078
0
LINE
8
BLACK
6
CONTINUOUS
10
1.972
20
0.334078
11
1.97399
21
0.334428
0
LINE
8
BLACK
6
CONTINUOUS
10
1.97399
20
0.334428
11
1.97574
21
0.333418
0
LINE
8
BLACK
6
CONTINUOUS
10
1.84111
20
0.32557
11
1.84298
21
0.323696
0
LINE
8
BLACK
6
CONTINUOUS
10
1.84298
20
0.323696
11
1.84349
21
0.322972
0
LINE
8
BLACK
6
CONTINUOUS
10
1.84349
20
0.322972
11
1.84354
21
0.322928
0
LINE
8
BLACK
6
CONTINUOUS
10
1.84354
20
0.322928
11
1.84541
21
0.319179
0
LINE
8
BLACK
6
CONTINUOUS
10
1.84541
20
0.319179
11
1.8457
21
0.318196
0
LINE
8
BLACK
6
CONTINUOUS
10
1.8457
20
0.318196
11
1.84566
21
0.318024
0
LINE
8
BLACK
6
CONTINUOUS
10
1.84566
20
0.318024
11
1.84572
21
0.317858
0
LINE
8
BLACK
6
CONTINUOUS
10
1.84572
20
0.317858
11
1.84572
21
0.308484
0
LINE
8
BLACK
6
CONTINUOUS
10
1.84572
20
0.308484
11
1.84555
21
0.307474
0
LINE
8
BLACK
6
CONTINUOUS
10
1.84555
20
0.307474
11
1.84543
21
0.307339
0
LINE
8
BLACK
6
CONTINUOUS
10
1.84543
20
0.307339
11
1.84541
21
0.307164
0
LINE
8
BLACK
6
CONTINUOUS
10
1.84541
20
0.307164
11
1.84354
21
0.303414
0
LINE
8
BLACK
6
CONTINUOUS
10
1.84354
20
0.303414
11
1.84301
21
0.302705
0
LINE
8
BLACK
6
CONTINUOUS
10
1.84301
20
0.302705
11
1.84298
21
0.302647
0
LINE
8
BLACK
6
CONTINUOUS
10
1.84298
20
0.302647
11
1.84111
21
0.300772
0
LINE
8
BLACK
6
CONTINUOUS
10
1.84111
20
0.300772
11
1.84039
21
0.300266
0
LINE
8
BLACK
6
CONTINUOUS
10
1.84039
20
0.300266
11
1.84034
21
0.300219
0
LINE
8
BLACK
6
CONTINUOUS
10
1.84034
20
0.300219
11
1.83659
21
0.298344
0
LINE
8
BLACK
6
CONTINUOUS
10
1.83659
20
0.298344
11
1.83561
21
0.298052
0
LINE
8
BLACK
6
CONTINUOUS
10
1.83561
20
0.298052
11
1.83544
21
0.298093
0
LINE
8
BLACK
6
CONTINUOUS
10
1.83544
20
0.298093
11
1.83527
21
0.298032
0
LINE
8
BLACK
6
CONTINUOUS
10
1.83527
20
0.298032
11
1.8259
21
0.298032
0
LINE
8
BLACK
6
CONTINUOUS
10
1.8259
20
0.298032
11
1.82489
21
0.29821
0
LINE
8
BLACK
6
CONTINUOUS
10
1.82489
20
0.29821
11
1.82475
21
0.298324
0
LINE
8
BLACK
6
CONTINUOUS
10
1.82475
20
0.298324
11
1.82458
21
0.298344
0
LINE
8
BLACK
6
CONTINUOUS
10
1.82458
20
0.298344
11
1.82083
21
0.300219
0
LINE
8
BLACK
6
CONTINUOUS
10
1.82083
20
0.300219
11
1.82012
21
0.300745
0
LINE
8
BLACK
6
CONTINUOUS
10
1.82012
20
0.300745
11
1.82006
21
0.300772
0
LINE
8
BLACK
6
CONTINUOUS
10
1.82006
20
0.300772
11
1.81819
21
0.302647
0
LINE
8
BLACK
6
CONTINUOUS
10
1.81819
20
0.302647
11
1.81768
21
0.30337
0
LINE
8
BLACK
6
CONTINUOUS
10
1.81768
20
0.30337
11
1.81763
21
0.303414
0
LINE
8
BLACK
6
CONTINUOUS
10
1.81763
20
0.303414
11
1.81576
21
0.307164
0
LINE
8
BLACK
6
CONTINUOUS
10
1.81576
20
0.307164
11
1.81547
21
0.308147
0
LINE
8
BLACK
6
CONTINUOUS
10
1.81547
20
0.308147
11
1.81551
21
0.308318
0
LINE
8
BLACK
6
CONTINUOUS
10
1.81551
20
0.308318
11
1.81545
21
0.308484
0
LINE
8
BLACK
6
CONTINUOUS
10
1.81545
20
0.308484
11
1.81545
21
0.317858
0
LINE
8
BLACK
6
CONTINUOUS
10
1.81545
20
0.317858
11
1.81562
21
0.318868
0
LINE
8
BLACK
6
CONTINUOUS
10
1.81562
20
0.318868
11
1.81574
21
0.319003
0
LINE
8
BLACK
6
CONTINUOUS
10
1.81574
20
0.319003
11
1.81576
21
0.319179
0
LINE
8
BLACK
6
CONTINUOUS
10
1.81576
20
0.319179
11
1.81612
21
0.319913
0
LINE
8
BLACK
6
CONTINUOUS
10
1.81612
20
0.319913
11
1.80635
21
0.318935
0
LINE
8
BLACK
6
CONTINUOUS
10
1.80635
20
0.318935
11
1.80635
21
0.30286
0
LINE
8
BLACK
6
CONTINUOUS
10
1.80635
20
0.30286
11
1.80618
21
0.30185
0
LINE
8
BLACK
6
CONTINUOUS
10
1.80618
20
0.30185
11
1.80488
21
0.300303
0
LINE
8
BLACK
6
CONTINUOUS
10
1.80488
20
0.300303
11
1.80289
21
0.299952
0
LINE
8
BLACK
6
CONTINUOUS
10
1.80289
20
0.299952
11
1.80114
21
0.300962
0
LINE
8
BLACK
6
CONTINUOUS
10
1.80114
20
0.300962
11
1.80045
21
0.30286
0
LINE
8
BLACK
6
CONTINUOUS
10
1.80045
20
0.30286
11
1.80045
21
0.321608
0
LINE
8
BLACK
6
CONTINUOUS
10
1.80045
20
0.321608
11
1.80048
21
0.321761
0
LINE
8
BLACK
6
CONTINUOUS
10
1.80048
20
0.321761
11
1.80046
21
0.321828
0
LINE
8
BLACK
6
CONTINUOUS
10
1.80046
20
0.321828
11
1.80051
21
0.32194
0
LINE
8
BLACK
6
CONTINUOUS
10
1.80051
20
0.32194
11
1.80063
21
0.322618
0
LINE
8
BLACK
6
CONTINUOUS
10
1.80063
20
0.322618
11
1.80103
21
0.323098
0
LINE
8
BLACK
6
CONTINUOUS
10
1.80103
20
0.323098
11
1.80129
21
0.323669
0
LINE
8
BLACK
6
CONTINUOUS
10
1.80129
20
0.323669
11
1.80166
21
0.323849
0
LINE
8
BLACK
6
CONTINUOUS
10
1.80166
20
0.323849
11
1.80192
21
0.324165
0
LINE
8
BLACK
6
CONTINUOUS
10
1.80192
20
0.324165
11
1.80254
21
0.324274
0
LINE
8
BLACK
6
CONTINUOUS
10
1.80254
20
0.324274
11
1.80311
21
0.324546
0
LINE
8
BLACK
6
CONTINUOUS
10
1.80311
20
0.324546
11
1.82185
21
0.32642
0
LINE
8
BLACK
6
CONTINUOUS
10
1.82185
20
0.32642
11
1.82288
21
0.326344
0
LINE
8
BLACK
6
CONTINUOUS
10
1.82288
20
0.326344
11
1.82289
21
0.326333
0
LINE
8
BLACK
6
CONTINUOUS
10
1.82289
20
0.326333
11
1.82291
21
0.326334
0
LINE
8
BLACK
6
CONTINUOUS
10
1.82291
20
0.326334
11
1.82372
21
0.325766
0
LINE
8
BLACK
6
CONTINUOUS
10
1.82372
20
0.325766
11
1.82455
21
0.325206
0
LINE
8
BLACK
6
CONTINUOUS
10
1.82455
20
0.325206
11
1.82455
21
0.325187
0
LINE
8
BLACK
6
CONTINUOUS
10
1.82455
20
0.325187
11
1.82457
21
0.325176
0
LINE
8
BLACK
6
CONTINUOUS
10
1.82457
20
0.325176
11
1.82482
21
0.324217
0
LINE
8
BLACK
6
CONTINUOUS
10
1.82482
20
0.324217
11
1.82509
21
0.323261
0
LINE
8
BLACK
6
CONTINUOUS
10
1.82509
20
0.323261
11
1.82508
21
0.323244
0
LINE
8
BLACK
6
CONTINUOUS
10
1.82508
20
0.323244
11
1.82509
21
0.323225
0
LINE
8
BLACK
6
CONTINUOUS
10
1.82509
20
0.323225
11
1.82467
21
0.322327
0
LINE
8
BLACK
6
CONTINUOUS
10
1.82467
20
0.322327
11
1.82426
21
0.321421
0
LINE
8
BLACK
6
CONTINUOUS
10
1.82426
20
0.321421
11
1.82424
21
0.321412
0
LINE
8
BLACK
6
CONTINUOUS
10
1.82424
20
0.321412
11
1.82424
21
0.321394
0
LINE
8
BLACK
6
CONTINUOUS
10
1.82424
20
0.321394
11
1.8227
21
0.319859
0
LINE
8
BLACK
6
CONTINUOUS
10
1.8227
20
0.319859
11
1.82135
21
0.317161
0
LINE
8
BLACK
6
CONTINUOUS
10
1.82135
20
0.317161
11
1.82135
21
0.309181
0
LINE
8
BLACK
6
CONTINUOUS
10
1.82135
20
0.309181
11
1.8227
21
0.306484
0
LINE
8
BLACK
6
CONTINUOUS
10
1.8227
20
0.306484
11
1.8239
21
0.305287
0
LINE
8
BLACK
6
CONTINUOUS
10
1.8239
20
0.305287
11
1.8266
21
0.303938
0
LINE
8
BLACK
6
CONTINUOUS
10
1.8266
20
0.303938
11
1.83457
21
0.303938
0
LINE
8
BLACK
6
CONTINUOUS
10
1.83457
20
0.303938
11
1.83727
21
0.305287
0
LINE
8
BLACK
6
CONTINUOUS
10
1.83727
20
0.305287
11
1.83847
21
0.306484
0
LINE
8
BLACK
6
CONTINUOUS
10
1.83847
20
0.306484
11
1.83982
21
0.309181
0
LINE
8
BLACK
6
CONTINUOUS
10
1.83982
20
0.309181
11
1.83982
21
0.317161
0
LINE
8
BLACK
6
CONTINUOUS
10
1.83982
20
0.317161
11
1.83847
21
0.319859
0
LINE
8
BLACK
6
CONTINUOUS
10
1.83847
20
0.319859
11
1.83693
21
0.321394
0
LINE
8
BLACK
6
CONTINUOUS
10
1.83693
20
0.321394
11
1.83635
21
0.322234
0
LINE
8
BLACK
6
CONTINUOUS
10
1.83635
20
0.322234
11
1.83617
21
0.324247
0
LINE
8
BLACK
6
CONTINUOUS
10
1.83617
20
0.324247
11
1.83733
21
0.325901
0
LINE
8
BLACK
6
CONTINUOUS
10
1.83733
20
0.325901
11
1.83928
21
0.326424
0
LINE
8
BLACK
6
CONTINUOUS
10
1.83928
20
0.326424
11
1.84111
21
0.32557
0
LINE
8
BLACK
6
CONTINUOUS
10
1.73372
20
0.340125
11
1.73441
21
0.338455
0
LINE
8
BLACK
6
CONTINUOUS
10
1.73441
20
0.338455
11
1.73441
21
0.317884
0
LINE
8
BLACK
6
CONTINUOUS
10
1.73441
20
0.317884
11
1.73372
21
0.316213
0
LINE
8
BLACK
6
CONTINUOUS
10
1.73372
20
0.316213
11
1.73205
21
0.315522
0
LINE
8
BLACK
6
CONTINUOUS
10
1.73205
20
0.315522
11
1.73038
21
0.316213
0
LINE
8
BLACK
6
CONTINUOUS
10
1.73038
20
0.316213
11
1.72969
21
0.317884
0
LINE
8
BLACK
6
CONTINUOUS
10
1.72969
20
0.317884
11
1.72969
21
0.338455
0
LINE
8
BLACK
6
CONTINUOUS
10
1.72969
20
0.338455
11
1.73038
21
0.340125
0
LINE
8
BLACK
6
CONTINUOUS
10
1.73038
20
0.340125
11
1.73205
21
0.340817
0
LINE
8
BLACK
6
CONTINUOUS
10
1.73205
20
0.340817
11
1.73372
21
0.340125
0
LINE
8
BLACK
6
CONTINUOUS
10
1.78962
20
0.340125
11
1.79031
21
0.338455
0
LINE
8
BLACK
6
CONTINUOUS
10
1.79031
20
0.338455
11
1.79031
21
0.317884
0
LINE
8
BLACK
6
CONTINUOUS
10
1.79031
20
0.317884
11
1.78962
21
0.316213
0
LINE
8
BLACK
6
CONTINUOUS
10
1.78962
20
0.316213
11
1.78795
21
0.315522
0
LINE
8
BLACK
6
CONTINUOUS
10
1.78795
20
0.315522
11
1.78628
21
0.316213
0
LINE
8
BLACK
6
CONTINUOUS
10
1.78628
20
0.316213
11
1.78559
21
0.317884
0
LINE
8
BLACK
6
CONTINUOUS
10
1.78559
20
0.317884
11
1.78559
21
0.338455
0
LINE
8
BLACK
6
CONTINUOUS
10
1.78559
20
0.338455
11
1.78628
21
0.340125
0
LINE
8
BLACK
6
CONTINUOUS
10
1.78628
20
0.340125
11
1.78795
21
0.340817
0
LINE
8
BLACK
6
CONTINUOUS
10
1.78795
20
0.340817
11
1.78962
21
0.340125
0
LINE
8
BLACK
6
CONTINUOUS
10
1.28704
20
0.442135
11
1.28713
21
0.441953
0
LINE
8
BLACK
6
CONTINUOUS
10
1.28713
20
0.441953
11
1.44303
21
0.441953
0
LINE
8
BLACK
6
CONTINUOUS
10
1.44303
20
0.441953
11
1.44381
21
0.442704
0
LINE
8
BLACK
6
CONTINUOUS
10
1.44381
20
0.442704
11
1.44583
21
0.442834
0
LINE
8
BLACK
6
CONTINUOUS
10
1.44583
20
0.442834
11
1.44746
21
0.441638
0
LINE
8
BLACK
6
CONTINUOUS
10
1.44746
20
0.441638
11
1.50746
21
0.351638
0
LINE
8
BLACK
6
CONTINUOUS
10
1.50746
20
0.351638
11
1.50787
21
0.350699
0
LINE
8
BLACK
6
CONTINUOUS
10
1.50787
20
0.350699
11
1.50783
21
0.35034
0
LINE
8
BLACK
6
CONTINUOUS
10
1.50783
20
0.35034
11
1.50795
21
0.35
0
LINE
8
BLACK
6
CONTINUOUS
10
1.50795
20
0.35
11
1.50795
21
0.32
0
LINE
8
BLACK
6
CONTINUOUS
10
1.50795
20
0.32
11
1.50777
21
0.31899
0
LINE
8
BLACK
6
CONTINUOUS
10
1.50777
20
0.31899
11
1.50648
21
0.317443
0
LINE
8
BLACK
6
CONTINUOUS
10
1.50648
20
0.317443
11
1.50449
21
0.317092
0
LINE
8
BLACK
6
CONTINUOUS
10
1.50449
20
0.317092
11
1.50274
21
0.318102
0
LINE
8
BLACK
6
CONTINUOUS
10
1.50274
20
0.318102
11
1.50205
21
0.32
0
LINE
8
BLACK
6
CONTINUOUS
10
1.50205
20
0.32
11
1.50205
21
0.349106
0
LINE
8
BLACK
6
CONTINUOUS
10
1.50205
20
0.349106
11
1.44407
21
0.436073
0
LINE
8
BLACK
6
CONTINUOUS
10
1.44407
20
0.436073
11
1.444
21
0.436047
0
LINE
8
BLACK
6
CONTINUOUS
10
1.444
20
0.436047
11
1.28591
21
0.436047
0
LINE
8
BLACK
6
CONTINUOUS
10
1.28591
20
0.436047
11
1.22795
21
0.349106
0
LINE
8
BLACK
6
CONTINUOUS
10
1.22795
20
0.349106
11
1.22795
21
0.32
0
LINE
8
BLACK
6
CONTINUOUS
10
1.22795
20
0.32
11
1.22777
21
0.31899
0
LINE
8
BLACK
6
CONTINUOUS
10
1.22777
20
0.31899
11
1.22648
21
0.317443
0
LINE
8
BLACK
6
CONTINUOUS
10
1.22648
20
0.317443
11
1.22449
21
0.317092
0
LINE
8
BLACK
6
CONTINUOUS
10
1.22449
20
0.317092
11
1.22274
21
0.318102
0
LINE
8
BLACK
6
CONTINUOUS
10
1.22274
20
0.318102
11
1.22205
21
0.32
0
LINE
8
BLACK
6
CONTINUOUS
10
1.22205
20
0.32
11
1.22205
21
0.35
0
LINE
8
BLACK
6
CONTINUOUS
10
1.22205
20
0.35
11
1.22223
21
0.35101
0
LINE
8
BLACK
6
CONTINUOUS
10
1.22223
20
0.35101
11
1.22246
21
0.351287
0
LINE
8
BLACK
6
CONTINUOUS
10
1.22246
20
0.351287
11
1.22254
21
0.351638
0
LINE
8
BLACK
6
CONTINUOUS
10
1.22254
20
0.351638
11
1.2811
21
0.439472
0
LINE
8
BLACK
6
CONTINUOUS
10
1.2811
20
0.439472
11
1.28109
21
0.439513
0
LINE
8
BLACK
6
CONTINUOUS
10
1.28109
20
0.439513
11
1.2821
21
0.441262
0
LINE
8
BLACK
6
CONTINUOUS
10
1.2821
20
0.441262
11
1.28235
21
0.441354
0
LINE
8
BLACK
6
CONTINUOUS
10
1.28235
20
0.441354
11
1.28254
21
0.441638
0
LINE
8
BLACK
6
CONTINUOUS
10
1.28254
20
0.441638
11
1.28325
21
0.442379
0
LINE
8
BLACK
6
CONTINUOUS
10
1.28325
20
0.442379
11
1.28519
21
0.442947
0
LINE
8
BLACK
6
CONTINUOUS
10
1.28519
20
0.442947
11
1.28704
21
0.442135
0
LINE
8
BLACK
6
CONTINUOUS
10
1.13353
20
0.322241
11
1.13422
21
0.320571
0
LINE
8
BLACK
6
CONTINUOUS
10
1.13422
20
0.320571
11
1.13353
21
0.318901
0
LINE
8
BLACK
6
CONTINUOUS
10
1.13353
20
0.318901
11
1.13186
21
0.318209
0
LINE
8
BLACK
6
CONTINUOUS
10
1.13186
20
0.318209
11
1.11318
21
0.318209
0
LINE
8
BLACK
6
CONTINUOUS
10
1.11318
20
0.318209
11
1.11151
21
0.318901
0
LINE
8
BLACK
6
CONTINUOUS
10
1.11151
20
0.318901
11
1.11082
21
0.320571
0
LINE
8
BLACK
6
CONTINUOUS
10
1.11082
20
0.320571
11
1.11151
21
0.322241
0
LINE
8
BLACK
6
CONTINUOUS
10
1.11151
20
0.322241
11
1.11318
21
0.322933
0
LINE
8
BLACK
6
CONTINUOUS
10
1.11318
20
0.322933
11
1.13186
21
0.322933
0
LINE
8
BLACK
6
CONTINUOUS
10
1.13186
20
0.322933
11
1.13353
21
0.322241
0
LINE
8
BLACK
6
CONTINUOUS
10
1.84315
20
0.356364
11
1.84328
21
0.356387
0
LINE
8
BLACK
6
CONTINUOUS
10
1.84328
20
0.356387
11
1.8434
21
0.356321
0
LINE
8
BLACK
6
CONTINUOUS
10
1.8434
20
0.356321
11
1.84378
21
0.356253
0
LINE
8
BLACK
6
CONTINUOUS
10
1.84378
20
0.356253
11
1.84437
21
0.35576
0
LINE
8
BLACK
6
CONTINUOUS
10
1.84437
20
0.35576
11
1.84503
21
0.355377
0
LINE
8
BLACK
6
CONTINUOUS
10
1.84503
20
0.355377
11
1.84512
21
0.355126
0
LINE
8
BLACK
6
CONTINUOUS
10
1.84512
20
0.355126
11
1.84533
21
0.354955
0
LINE
8
BLACK
6
CONTINUOUS
10
1.84533
20
0.354955
11
1.84546
21
0.354199
0
LINE
8
BLACK
6
CONTINUOUS
10
1.84546
20
0.354199
11
1.84572
21
0.353479
0
LINE
8
BLACK
6
CONTINUOUS
10
1.84572
20
0.353479
11
1.84572
21
0.334731
0
LINE
8
BLACK
6
CONTINUOUS
10
1.84572
20
0.334731
11
1.84555
21
0.333721
0
LINE
8
BLACK
6
CONTINUOUS
10
1.84555
20
0.333721
11
1.84425
21
0.332174
0
LINE
8
BLACK
6
CONTINUOUS
10
1.84425
20
0.332174
11
1.84226
21
0.331823
0
LINE
8
BLACK
6
CONTINUOUS
10
1.84226
20
0.331823
11
1.84051
21
0.332833
0
LINE
8
BLACK
6
CONTINUOUS
10
1.84051
20
0.332833
11
1.83982
21
0.334731
0
LINE
8
BLACK
6
CONTINUOUS
10
1.83982
20
0.334731
11
1.83982
21
0.350526
0
LINE
8
BLACK
6
CONTINUOUS
10
1.83982
20
0.350526
11
1.8034
21
0.350526
0
LINE
8
BLACK
6
CONTINUOUS
10
1.8034
20
0.350526
11
1.80239
21
0.350704
0
LINE
8
BLACK
6
CONTINUOUS
10
1.80239
20
0.350704
11
1.80084
21
0.352002
0
LINE
8
BLACK
6
CONTINUOUS
10
1.80084
20
0.352002
11
1.80049
21
0.353991
0
LINE
8
BLACK
6
CONTINUOUS
10
1.80049
20
0.353991
11
1.8015
21
0.355741
0
LINE
8
BLACK
6
CONTINUOUS
10
1.8015
20
0.355741
11
1.8034
21
0.356431
0
LINE
8
BLACK
6
CONTINUOUS
10
1.8034
20
0.356431
11
1.84277
21
0.356431
0
LINE
8
BLACK
6
CONTINUOUS
10
1.84277
20
0.356431
11
1.84315
21
0.356364
0
LINE
8
BLACK
6
CONTINUOUS
10
2.04669
20
0.336592
11
2.04739
21
0.334921
0
LINE
8
BLACK
6
CONTINUOUS
10
2.04739
20
0.334921
11
2.04669
21
0.333251
0
LINE
8
BLACK
6
CONTINUOUS
10
2.04669
20
0.333251
11
2.04502
21
0.332559
0
LINE
8
BLACK
6
CONTINUOUS
10
2.04502
20
0.332559
11
2.03395
21
0.332559
0
LINE
8
BLACK
6
CONTINUOUS
10
2.03395
20
0.332559
11
2.03228
21
0.333251
0
LINE
8
BLACK
6
CONTINUOUS
10
2.03228
20
0.333251
11
2.03159
21
0.334921
0
LINE
8
BLACK
6
CONTINUOUS
10
2.03159
20
0.334921
11
2.03228
21
0.336592
0
LINE
8
BLACK
6
CONTINUOUS
10
2.03228
20
0.336592
11
2.03395
21
0.337283
0
LINE
8
BLACK
6
CONTINUOUS
10
2.03395
20
0.337283
11
2.04502
21
0.337283
0
LINE
8
BLACK
6
CONTINUOUS
10
2.04502
20
0.337283
11
2.04669
21
0.336592
0
LINE
8
BLACK
6
CONTINUOUS
10
2.33175
20
0.365261
11
2.33197
21
0.3653
0
LINE
8
BLACK
6
CONTINUOUS
10
2.33197
20
0.3653
11
2.33267
21
0.364897
0
LINE
8
BLACK
6
CONTINUOUS
10
2.33267
20
0.364897
11
2.33342
21
0.364601
0
LINE
8
BLACK
6
CONTINUOUS
10
2.33342
20
0.364601
11
2.33353
21
0.364403
0
LINE
8
BLACK
6
CONTINUOUS
10
2.33353
20
0.364403
11
2.33372
21
0.36429
0
LINE
8
BLACK
6
CONTINUOUS
10
2.33372
20
0.36429
11
2.334
21
0.363533
0
LINE
8
BLACK
6
CONTINUOUS
10
2.334
20
0.363533
11
2.33438
21
0.362825
0
LINE
8
BLACK
6
CONTINUOUS
10
2.33438
20
0.362825
11
2.33433
21
0.362604
0
LINE
8
BLACK
6
CONTINUOUS
10
2.33433
20
0.362604
11
2.33441
21
0.362392
0
LINE
8
BLACK
6
CONTINUOUS
10
2.33441
20
0.362392
11
2.33441
21
0.346597
0
LINE
8
BLACK
6
CONTINUOUS
10
2.33441
20
0.346597
11
2.34458
21
0.346597
0
LINE
8
BLACK
6
CONTINUOUS
10
2.34458
20
0.346597
11
2.34559
21
0.346419
0
LINE
8
BLACK
6
CONTINUOUS
10
2.34559
20
0.346419
11
2.34714
21
0.345121
0
LINE
8
BLACK
6
CONTINUOUS
10
2.34714
20
0.345121
11
2.34749
21
0.343132
0
LINE
8
BLACK
6
CONTINUOUS
10
2.34749
20
0.343132
11
2.34648
21
0.341383
0
LINE
8
BLACK
6
CONTINUOUS
10
2.34648
20
0.341383
11
2.34458
21
0.340692
0
LINE
8
BLACK
6
CONTINUOUS
10
2.34458
20
0.340692
11
2.33441
21
0.340692
0
LINE
8
BLACK
6
CONTINUOUS
10
2.33441
20
0.340692
11
2.33441
21
0.33802
0
LINE
8
BLACK
6
CONTINUOUS
10
2.33441
20
0.33802
11
2.33423
21
0.33701
0
LINE
8
BLACK
6
CONTINUOUS
10
2.33423
20
0.33701
11
2.33293
21
0.335463
0
LINE
8
BLACK
6
CONTINUOUS
10
2.33293
20
0.335463
11
2.33095
21
0.335112
0
LINE
8
BLACK
6
CONTINUOUS
10
2.33095
20
0.335112
11
2.3292
21
0.336122
0
LINE
8
BLACK
6
CONTINUOUS
10
2.3292
20
0.336122
11
2.32851
21
0.33802
0
LINE
8
BLACK
6
CONTINUOUS
10
2.32851
20
0.33802
11
2.32851
21
0.340692
0
LINE
8
BLACK
6
CONTINUOUS
10
2.32851
20
0.340692
11
2.31834
21
0.340692
0
LINE
8
BLACK
6
CONTINUOUS
10
2.31834
20
0.340692
11
2.31733
21
0.34087
0
LINE
8
BLACK
6
CONTINUOUS
10
2.31733
20
0.34087
11
2.31578
21
0.342168
0
LINE
8
BLACK
6
CONTINUOUS
10
2.31578
20
0.342168
11
2.31543
21
0.344157
0
LINE
8
BLACK
6
CONTINUOUS
10
2.31543
20
0.344157
11
2.31644
21
0.345906
0
LINE
8
BLACK
6
CONTINUOUS
10
2.31644
20
0.345906
11
2.31834
21
0.346597
0
LINE
8
BLACK
6
CONTINUOUS
10
2.31834
20
0.346597
11
2.32851
21
0.346597
0
LINE
8
BLACK
6
CONTINUOUS
10
2.32851
20
0.346597
11
2.32851
21
0.358295
0
LINE
8
BLACK
6
CONTINUOUS
10
2.32851
20
0.358295
11
2.30427
21
0.350217
0
LINE
8
BLACK
6
CONTINUOUS
10
2.30427
20
0.350217
11
2.30326
21
0.350067
0
LINE
8
BLACK
6
CONTINUOUS
10
2.30326
20
0.350067
11
2.30138
21
0.350809
0
LINE
8
BLACK
6
CONTINUOUS
10
2.30138
20
0.350809
11
2.30042
21
0.352585
0
LINE
8
BLACK
6
CONTINUOUS
10
2.30042
20
0.352585
11
2.30082
21
0.354564
0
LINE
8
BLACK
6
CONTINUOUS
10
2.30082
20
0.354564
11
2.3024
21
0.35582
0
LINE
8
BLACK
6
CONTINUOUS
10
2.3024
20
0.35582
11
2.33052
21
0.365193
0
LINE
8
BLACK
6
CONTINUOUS
10
2.33052
20
0.365193
11
2.33154
21
0.365344
0
LINE
8
BLACK
6
CONTINUOUS
10
2.33154
20
0.365344
11
2.33175
21
0.365261
0
LINE
8
BLACK
6
CONTINUOUS
10
2.23234
20
0.424229
11
2.23303
21
0.422559
0
LINE
8
BLACK
6
CONTINUOUS
10
2.23303
20
0.422559
11
2.23303
21
0.347756
0
LINE
8
BLACK
6
CONTINUOUS
10
2.23303
20
0.347756
11
2.23234
21
0.346086
0
LINE
8
BLACK
6
CONTINUOUS
10
2.23234
20
0.346086
11
2.23067
21
0.345394
0
LINE
8
BLACK
6
CONTINUOUS
10
2.23067
20
0.345394
11
2.229
21
0.346086
0
LINE
8
BLACK
6
CONTINUOUS
10
2.229
20
0.346086
11
2.22831
21
0.347756
0
LINE
8
BLACK
6
CONTINUOUS
10
2.22831
20
0.347756
11
2.22831
21
0.422559
0
LINE
8
BLACK
6
CONTINUOUS
10
2.22831
20
0.422559
11
2.229
21
0.424229
0
LINE
8
BLACK
6
CONTINUOUS
10
2.229
20
0.424229
11
2.23067
21
0.424921
0
LINE
8
BLACK
6
CONTINUOUS
10
2.23067
20
0.424921
11
2.23234
21
0.424229
0
LINE
8
BLACK
6
CONTINUOUS
10
1.13353
20
0.356099
11
1.13422
21
0.354429
0
LINE
8
BLACK
6
CONTINUOUS
10
1.13422
20
0.354429
11
1.13353
21
0.352759
0
LINE
8
BLACK
6
CONTINUOUS
10
1.13353
20
0.352759
11
1.13186
21
0.352067
0
LINE
8
BLACK
6
CONTINUOUS
10
1.13186
20
0.352067
11
1.11318
21
0.352067
0
LINE
8
BLACK
6
CONTINUOUS
10
1.11318
20
0.352067
11
1.11151
21
0.352759
0
LINE
8
BLACK
6
CONTINUOUS
10
1.11151
20
0.352759
11
1.11082
21
0.354429
0
LINE
8
BLACK
6
CONTINUOUS
10
1.11082
20
0.354429
11
1.11151
21
0.356099
0
LINE
8
BLACK
6
CONTINUOUS
10
1.11151
20
0.356099
11
1.11318
21
0.356791
0
LINE
8
BLACK
6
CONTINUOUS
10
1.11318
20
0.356791
11
1.13186
21
0.356791
0
LINE
8
BLACK
6
CONTINUOUS
10
1.13186
20
0.356791
11
1.13353
21
0.356099
0
LINE
8
BLACK
6
CONTINUOUS
10
2.141
20
0.424229
11
2.14169
21
0.422559
0
LINE
8
BLACK
6
CONTINUOUS
10
2.14169
20
0.422559
11
2.14169
21
0.367441
0
LINE
8
BLACK
6
CONTINUOUS
10
2.14169
20
0.367441
11
2.141
21
0.365771
0
LINE
8
BLACK
6
CONTINUOUS
10
2.141
20
0.365771
11
2.13933
21
0.365079
0
LINE
8
BLACK
6
CONTINUOUS
10
2.13933
20
0.365079
11
2.13766
21
0.365771
0
LINE
8
BLACK
6
CONTINUOUS
10
2.13766
20
0.365771
11
2.13697
21
0.367441
0
LINE
8
BLACK
6
CONTINUOUS
10
2.13697
20
0.367441
11
2.13697
21
0.422559
0
LINE
8
BLACK
6
CONTINUOUS
10
2.13697
20
0.422559
11
2.13766
21
0.424229
0
LINE
8
BLACK
6
CONTINUOUS
10
2.13766
20
0.424229
11
2.13933
21
0.424921
0
LINE
8
BLACK
6
CONTINUOUS
10
2.13933
20
0.424921
11
2.141
21
0.424229
0
LINE
8
BLACK
6
CONTINUOUS
10
2.04669
20
0.376749
11
2.04739
21
0.375079
0
LINE
8
BLACK
6
CONTINUOUS
10
2.04739
20
0.375079
11
2.04669
21
0.373408
0
LINE
8
BLACK
6
CONTINUOUS
10
2.04669
20
0.373408
11
2.04502
21
0.372717
0
LINE
8
BLACK
6
CONTINUOUS
10
2.04502
20
0.372717
11
2.03395
21
0.372717
0
LINE
8
BLACK
6
CONTINUOUS
10
2.03395
20
0.372717
11
2.03228
21
0.373408
0
LINE
8
BLACK
6
CONTINUOUS
10
2.03228
20
0.373408
11
2.03159
21
0.375079
0
LINE
8
BLACK
6
CONTINUOUS
10
2.03159
20
0.375079
11
2.03228
21
0.376749
0
LINE
8
BLACK
6
CONTINUOUS
10
2.03228
20
0.376749
11
2.03395
21
0.377441
0
LINE
8
BLACK
6
CONTINUOUS
10
2.03395
20
0.377441
11
2.04502
21
0.377441
0
LINE
8
BLACK
6
CONTINUOUS
10
2.04502
20
0.377441
11
2.04669
21
0.376749
0
LINE
8
BLACK
6
CONTINUOUS
10
2.34684
20
0.396161
11
2.34753
21
0.394263
0
LINE
8
BLACK
6
CONTINUOUS
10
2.34753
20
0.394263
11
2.34753
21
0.390514
0
LINE
8
BLACK
6
CONTINUOUS
10
2.34753
20
0.390514
11
2.34738
21
0.389644
0
LINE
8
BLACK
6
CONTINUOUS
10
2.34738
20
0.389644
11
2.34738
21
0.38958
0
LINE
8
BLACK
6
CONTINUOUS
10
2.34738
20
0.38958
11
2.34551
21
0.383956
0
LINE
8
BLACK
6
CONTINUOUS
10
2.34551
20
0.383956
11
2.34502
21
0.383054
0
LINE
8
BLACK
6
CONTINUOUS
10
2.34502
20
0.383054
11
2.34487
21
0.382961
0
LINE
8
BLACK
6
CONTINUOUS
10
2.34487
20
0.382961
11
2.3448
21
0.382801
0
LINE
8
BLACK
6
CONTINUOUS
10
2.3448
20
0.382801
11
2.34105
21
0.379052
0
LINE
8
BLACK
6
CONTINUOUS
10
2.34105
20
0.379052
11
2.34021
21
0.378464
0
LINE
8
BLACK
6
CONTINUOUS
10
2.34021
20
0.378464
11
2.34003
21
0.378448
0
LINE
8
BLACK
6
CONTINUOUS
10
2.34003
20
0.378448
11
2.33989
21
0.378339
0
LINE
8
BLACK
6
CONTINUOUS
10
2.33989
20
0.378339
11
2.33427
21
0.376464
0
LINE
8
BLACK
6
CONTINUOUS
10
2.33427
20
0.376464
11
2.33339
21
0.376334
0
LINE
8
BLACK
6
CONTINUOUS
10
2.33339
20
0.376334
11
2.33333
21
0.376312
0
LINE
8
BLACK
6
CONTINUOUS
10
2.33333
20
0.376312
11
2.30521
21
0.376312
0
LINE
8
BLACK
6
CONTINUOUS
10
2.30521
20
0.376312
11
2.3042
21
0.37649
0
LINE
8
BLACK
6
CONTINUOUS
10
2.3042
20
0.37649
11
2.30265
21
0.377789
0
LINE
8
BLACK
6
CONTINUOUS
10
2.30265
20
0.377789
11
2.3023
21
0.379778
0
LINE
8
BLACK
6
CONTINUOUS
10
2.3023
20
0.379778
11
2.30331
21
0.381527
0
LINE
8
BLACK
6
CONTINUOUS
10
2.30331
20
0.381527
11
2.30521
21
0.382218
0
LINE
8
BLACK
6
CONTINUOUS
10
2.30521
20
0.382218
11
2.33285
21
0.382218
0
LINE
8
BLACK
6
CONTINUOUS
10
2.33285
20
0.382218
11
2.33736
21
0.383721
0
LINE
8
BLACK
6
CONTINUOUS
10
2.33736
20
0.383721
11
2.34013
21
0.386484
0
LINE
8
BLACK
6
CONTINUOUS
10
2.34013
20
0.386484
11
2.34163
21
0.390993
0
LINE
8
BLACK
6
CONTINUOUS
10
2.34163
20
0.390993
11
2.34163
21
0.394263
0
LINE
8
BLACK
6
CONTINUOUS
10
2.34163
20
0.394263
11
2.34181
21
0.395273
0
LINE
8
BLACK
6
CONTINUOUS
10
2.34181
20
0.395273
11
2.34311
21
0.39682
0
LINE
8
BLACK
6
CONTINUOUS
10
2.34311
20
0.39682
11
2.34509
21
0.397171
0
LINE
8
BLACK
6
CONTINUOUS
10
2.34509
20
0.397171
11
2.34684
21
0.396161
0
LINE
8
BLACK
6
CONTINUOUS
10
1.94936
20
0.40933
11
1.95255
21
0.407196
0
LINE
8
BLACK
6
CONTINUOUS
10
1.95255
20
0.407196
11
1.95468
21
0.404003
0
LINE
8
BLACK
6
CONTINUOUS
10
1.95468
20
0.404003
11
1.95543
21
0.400236
0
LINE
8
BLACK
6
CONTINUOUS
10
1.95543
20
0.400236
11
1.95468
21
0.39647
0
LINE
8
BLACK
6
CONTINUOUS
10
1.95468
20
0.39647
11
1.95255
21
0.393276
0
LINE
8
BLACK
6
CONTINUOUS
10
1.95255
20
0.393276
11
1.94936
21
0.391143
0
LINE
8
BLACK
6
CONTINUOUS
10
1.94936
20
0.391143
11
1.94559
21
0.390394
0
LINE
8
BLACK
6
CONTINUOUS
10
1.94559
20
0.390394
11
1.94182
21
0.391143
0
LINE
8
BLACK
6
CONTINUOUS
10
1.94182
20
0.391143
11
1.93863
21
0.393276
0
LINE
8
BLACK
6
CONTINUOUS
10
1.93863
20
0.393276
11
1.9365
21
0.39647
0
LINE
8
BLACK
6
CONTINUOUS
10
1.9365
20
0.39647
11
1.93575
21
0.400236
0
LINE
8
BLACK
6
CONTINUOUS
10
1.93575
20
0.400236
11
1.9365
21
0.404003
0
LINE
8
BLACK
6
CONTINUOUS
10
1.9365
20
0.404003
11
1.93863
21
0.407196
0
LINE
8
BLACK
6
CONTINUOUS
10
1.93863
20
0.407196
11
1.94182
21
0.40933
0
LINE
8
BLACK
6
CONTINUOUS
10
1.94182
20
0.40933
11
1.94559
21
0.410079
0
LINE
8
BLACK
6
CONTINUOUS
10
1.94559
20
0.410079
11
1.94936
21
0.40933
0
LINE
8
BLACK
6
CONTINUOUS
10
1.13353
20
0.397241
11
1.13422
21
0.395571
0
LINE
8
BLACK
6
CONTINUOUS
10
1.13422
20
0.395571
11
1.13353
21
0.393901
0
LINE
8
BLACK
6
CONTINUOUS
10
1.13353
20
0.393901
11
1.13186
21
0.393209
0
LINE
8
BLACK
6
CONTINUOUS
10
1.13186
20
0.393209
11
1.11318
21
0.393209
0
LINE
8
BLACK
6
CONTINUOUS
10
1.11318
20
0.393209
11
1.11151
21
0.393901
0
LINE
8
BLACK
6
CONTINUOUS
10
1.11151
20
0.393901
11
1.11082
21
0.395571
0
LINE
8
BLACK
6
CONTINUOUS
10
1.11082
20
0.395571
11
1.11151
21
0.397241
0
LINE
8
BLACK
6
CONTINUOUS
10
1.11151
20
0.397241
11
1.11318
21
0.397933
0
LINE
8
BLACK
6
CONTINUOUS
10
1.11318
20
0.397933
11
1.13186
21
0.397933
0
LINE
8
BLACK
6
CONTINUOUS
10
1.13186
20
0.397933
11
1.13353
21
0.397241
0
LINE
8
BLACK
6
CONTINUOUS
10
1.52373
20
0.432956
11
1.52443
21
0.431286
0
LINE
8
BLACK
6
CONTINUOUS
10
1.52443
20
0.431286
11
1.52443
21
0.410714
0
LINE
8
BLACK
6
CONTINUOUS
10
1.52443
20
0.410714
11
1.52373
21
0.409044
0
LINE
8
BLACK
6
CONTINUOUS
10
1.52373
20
0.409044
11
1.52206
21
0.408352
0
LINE
8
BLACK
6
CONTINUOUS
10
1.52206
20
0.408352
11
1.52039
21
0.409044
0
LINE
8
BLACK
6
CONTINUOUS
10
1.52039
20
0.409044
11
1.5197
21
0.410714
0
LINE
8
BLACK
6
CONTINUOUS
10
1.5197
20
0.410714
11
1.5197
21
0.431286
0
LINE
8
BLACK
6
CONTINUOUS
10
1.5197
20
0.431286
11
1.52039
21
0.432956
0
LINE
8
BLACK
6
CONTINUOUS
10
1.52039
20
0.432956
11
1.52206
21
0.433648
0
LINE
8
BLACK
6
CONTINUOUS
10
1.52206
20
0.433648
11
1.52373
21
0.432956
0
LINE
8
BLACK
6
CONTINUOUS
10
1.58161
20
0.432956
11
1.5823
21
0.431286
0
LINE
8
BLACK
6
CONTINUOUS
10
1.5823
20
0.431286
11
1.5823
21
0.410714
0
LINE
8
BLACK
6
CONTINUOUS
10
1.5823
20
0.410714
11
1.58161
21
0.409044
0
LINE
8
BLACK
6
CONTINUOUS
10
1.58161
20
0.409044
11
1.57994
21
0.408352
0
LINE
8
BLACK
6
CONTINUOUS
10
1.57994
20
0.408352
11
1.57827
21
0.409044
0
LINE
8
BLACK
6
CONTINUOUS
10
1.57827
20
0.409044
11
1.57757
21
0.410714
0
LINE
8
BLACK
6
CONTINUOUS
10
1.57757
20
0.410714
11
1.57757
21
0.431286
0
LINE
8
BLACK
6
CONTINUOUS
10
1.57757
20
0.431286
11
1.57827
21
0.432956
0
LINE
8
BLACK
6
CONTINUOUS
10
1.57827
20
0.432956
11
1.57994
21
0.433648
0
LINE
8
BLACK
6
CONTINUOUS
10
1.57994
20
0.433648
11
1.58161
21
0.432956
0
LINE
8
BLACK
6
CONTINUOUS
10
1.85249
20
0.495132
11
1.85307
21
0.49374
0
LINE
8
BLACK
6
CONTINUOUS
10
1.85307
20
0.49374
11
1.85307
21
0.415
0
LINE
8
BLACK
6
CONTINUOUS
10
1.85307
20
0.415
11
1.85249
21
0.413608
0
LINE
8
BLACK
6
CONTINUOUS
10
1.85249
20
0.413608
11
1.8511
21
0.413031
0
LINE
8
BLACK
6
CONTINUOUS
10
1.8511
20
0.413031
11
1.84971
21
0.413608
0
LINE
8
BLACK
6
CONTINUOUS
10
1.84971
20
0.413608
11
1.84913
21
0.415
0
LINE
8
BLACK
6
CONTINUOUS
10
1.84913
20
0.415
11
1.84913
21
0.49374
0
LINE
8
BLACK
6
CONTINUOUS
10
1.84913
20
0.49374
11
1.84971
21
0.495132
0
LINE
8
BLACK
6
CONTINUOUS
10
1.84971
20
0.495132
11
1.8511
21
0.495709
0
LINE
8
BLACK
6
CONTINUOUS
10
1.8511
20
0.495709
11
1.85249
21
0.495132
0
LINE
8
BLACK
6
CONTINUOUS
10
1.93123
20
0.495132
11
1.93181
21
0.49374
0
LINE
8
BLACK
6
CONTINUOUS
10
1.93181
20
0.49374
11
1.93181
21
0.415
0
LINE
8
BLACK
6
CONTINUOUS
10
1.93181
20
0.415
11
1.93123
21
0.413608
0
LINE
8
BLACK
6
CONTINUOUS
10
1.93123
20
0.413608
11
1.92984
21
0.413031
0
LINE
8
BLACK
6
CONTINUOUS
10
1.92984
20
0.413031
11
1.92845
21
0.413608
0
LINE
8
BLACK
6
CONTINUOUS
10
1.92845
20
0.413608
11
1.92787
21
0.415
0
LINE
8
BLACK
6
CONTINUOUS
10
1.92787
20
0.415
11
1.92787
21
0.49374
0
LINE
8
BLACK
6
CONTINUOUS
10
1.92787
20
0.49374
11
1.92845
21
0.495132
0
LINE
8
BLACK
6
CONTINUOUS
10
1.92845
20
0.495132
11
1.92984
21
0.495709
0
LINE
8
BLACK
6
CONTINUOUS
10
1.92984
20
0.495709
11
1.93123
21
0.495132
0
LINE
8
BLACK
6
CONTINUOUS
10
1.73669
20
0.421592
11
1.73739
21
0.419921
0
LINE
8
BLACK
6
CONTINUOUS
10
1.73739
20
0.419921
11
1.73669
21
0.418251
0
LINE
8
BLACK
6
CONTINUOUS
10
1.73669
20
0.418251
11
1.73502
21
0.417559
0
LINE
8
BLACK
6
CONTINUOUS
10
1.73502
20
0.417559
11
1.72395
21
0.417559
0
LINE
8
BLACK
6
CONTINUOUS
10
1.72395
20
0.417559
11
1.72228
21
0.418251
0
LINE
8
BLACK
6
CONTINUOUS
10
1.72228
20
0.418251
11
1.72159
21
0.419921
0
LINE
8
BLACK
6
CONTINUOUS
10
1.72159
20
0.419921
11
1.72228
21
0.421592
0
LINE
8
BLACK
6
CONTINUOUS
10
1.72228
20
0.421592
11
1.72395
21
0.422283
0
LINE
8
BLACK
6
CONTINUOUS
10
1.72395
20
0.422283
11
1.73502
21
0.422283
0
LINE
8
BLACK
6
CONTINUOUS
10
1.73502
20
0.422283
11
1.73669
21
0.421592
0
LINE
8
BLACK
6
CONTINUOUS
10
1.13353
20
0.426099
11
1.13422
21
0.424429
0
LINE
8
BLACK
6
CONTINUOUS
10
1.13422
20
0.424429
11
1.13353
21
0.422759
0
LINE
8
BLACK
6
CONTINUOUS
10
1.13353
20
0.422759
11
1.13186
21
0.422067
0
LINE
8
BLACK
6
CONTINUOUS
10
1.13186
20
0.422067
11
1.11318
21
0.422067
0
LINE
8
BLACK
6
CONTINUOUS
10
1.11318
20
0.422067
11
1.11151
21
0.422759
0
LINE
8
BLACK
6
CONTINUOUS
10
1.11151
20
0.422759
11
1.11082
21
0.424429
0
LINE
8
BLACK
6
CONTINUOUS
10
1.11082
20
0.424429
11
1.11151
21
0.426099
0
LINE
8
BLACK
6
CONTINUOUS
10
1.11151
20
0.426099
11
1.11318
21
0.426791
0
LINE
8
BLACK
6
CONTINUOUS
10
1.11318
20
0.426791
11
1.13186
21
0.426791
0
LINE
8
BLACK
6
CONTINUOUS
10
1.13186
20
0.426791
11
1.13353
21
0.426099
0
LINE
8
BLACK
6
CONTINUOUS
10
0.983993
20
0.512891
11
0.984685
21
0.51122
0
LINE
8
BLACK
6
CONTINUOUS
10
0.984685
20
0.51122
11
0.984685
21
0.440354
0
LINE
8
BLACK
6
CONTINUOUS
10
0.984685
20
0.440354
11
0.983993
21
0.438684
0
LINE
8
BLACK
6
CONTINUOUS
10
0.983993
20
0.438684
11
0.982323
21
0.437992
0
LINE
8
BLACK
6
CONTINUOUS
10
0.982323
20
0.437992
11
0.980653
21
0.438684
0
LINE
8
BLACK
6
CONTINUOUS
10
0.980653
20
0.438684
11
0.979961
21
0.440354
0
LINE
8
BLACK
6
CONTINUOUS
10
0.979961
20
0.440354
11
0.979961
21
0.508858
0
LINE
8
BLACK
6
CONTINUOUS
10
0.979961
20
0.508858
11
0.925236
21
0.508858
0
LINE
8
BLACK
6
CONTINUOUS
10
0.925236
20
0.508858
11
0.923566
21
0.50955
0
LINE
8
BLACK
6
CONTINUOUS
10
0.923566
20
0.50955
11
0.922874
21
0.51122
0
LINE
8
BLACK
6
CONTINUOUS
10
0.922874
20
0.51122
11
0.923566
21
0.512891
0
LINE
8
BLACK
6
CONTINUOUS
10
0.923566
20
0.512891
11
0.925236
21
0.513583
0
LINE
8
BLACK
6
CONTINUOUS
10
0.925236
20
0.513583
11
0.982323
21
0.513583
0
LINE
8
BLACK
6
CONTINUOUS
10
0.982323
20
0.513583
11
0.983993
21
0.512891
0
LINE
8
BLACK
6
CONTINUOUS
10
2.00224
20
0.468491
11
2.00293
21
0.466821
0
LINE
8
BLACK
6
CONTINUOUS
10
2.00293
20
0.466821
11
2.00293
21
0.448139
0
LINE
8
BLACK
6
CONTINUOUS
10
2.00293
20
0.448139
11
2.00224
21
0.446469
0
LINE
8
BLACK
6
CONTINUOUS
10
2.00224
20
0.446469
11
2.00057
21
0.445777
0
LINE
8
BLACK
6
CONTINUOUS
10
2.00057
20
0.445777
11
1.9989
21
0.446469
0
LINE
8
BLACK
6
CONTINUOUS
10
1.9989
20
0.446469
11
1.99821
21
0.448139
0
LINE
8
BLACK
6
CONTINUOUS
10
1.99821
20
0.448139
11
1.99821
21
0.466821
0
LINE
8
BLACK
6
CONTINUOUS
10
1.99821
20
0.466821
11
1.9989
21
0.468491
0
LINE
8
BLACK
6
CONTINUOUS
10
1.9989
20
0.468491
11
2.00057
21
0.469183
0
LINE
8
BLACK
6
CONTINUOUS
10
2.00057
20
0.469183
11
2.00224
21
0.468491
0
LINE
8
BLACK
6
CONTINUOUS
10
1.9611
20
0.468491
11
1.96179
21
0.466821
0
LINE
8
BLACK
6
CONTINUOUS
10
1.96179
20
0.466821
11
1.96179
21
0.448139
0
LINE
8
BLACK
6
CONTINUOUS
10
1.96179
20
0.448139
11
1.9611
21
0.446469
0
LINE
8
BLACK
6
CONTINUOUS
10
1.9611
20
0.446469
11
1.95943
21
0.445777
0
LINE
8
BLACK
6
CONTINUOUS
10
1.95943
20
0.445777
11
1.95776
21
0.446469
0
LINE
8
BLACK
6
CONTINUOUS
10
1.95776
20
0.446469
11
1.95707
21
0.448139
0
LINE
8
BLACK
6
CONTINUOUS
10
1.95707
20
0.448139
11
1.95707
21
0.466821
0
LINE
8
BLACK
6
CONTINUOUS
10
1.95707
20
0.466821
11
1.95776
21
0.468491
0
LINE
8
BLACK
6
CONTINUOUS
10
1.95776
20
0.468491
11
1.95943
21
0.469183
0
LINE
8
BLACK
6
CONTINUOUS
10
1.95943
20
0.469183
11
1.9611
21
0.468491
0
LINE
8
BLACK
6
CONTINUOUS
10
2.30675
20
0.466693
11
2.30744
21
0.465023
0
LINE
8
BLACK
6
CONTINUOUS
10
2.30744
20
0.465023
11
2.30744
21
0.453954
0
LINE
8
BLACK
6
CONTINUOUS
10
2.30744
20
0.453954
11
2.30675
21
0.452283
0
LINE
8
BLACK
6
CONTINUOUS
10
2.30675
20
0.452283
11
2.30508
21
0.451591
0
LINE
8
BLACK
6
CONTINUOUS
10
2.30508
20
0.451591
11
2.30341
21
0.452283
0
LINE
8
BLACK
6
CONTINUOUS
10
2.30341
20
0.452283
11
2.30272
21
0.453954
0
LINE
8
BLACK
6
CONTINUOUS
10
2.30272
20
0.453954
11
2.30272
21
0.465023
0
LINE
8
BLACK
6
CONTINUOUS
10
2.30272
20
0.465023
11
2.30341
21
0.466693
0
LINE
8
BLACK
6
CONTINUOUS
10
2.30341
20
0.466693
11
2.30508
21
0.467385
0
LINE
8
BLACK
6
CONTINUOUS
10
2.30508
20
0.467385
11
2.30675
21
0.466693
0
LINE
8
BLACK
6
CONTINUOUS
10
2.26659
20
0.466693
11
2.26728
21
0.465023
0
LINE
8
BLACK
6
CONTINUOUS
10
2.26728
20
0.465023
11
2.26728
21
0.453954
0
LINE
8
BLACK
6
CONTINUOUS
10
2.26728
20
0.453954
11
2.26659
21
0.452283
0
LINE
8
BLACK
6
CONTINUOUS
10
2.26659
20
0.452283
11
2.26492
21
0.451591
0
LINE
8
BLACK
6
CONTINUOUS
10
2.26492
20
0.451591
11
2.26325
21
0.452283
0
LINE
8
BLACK
6
CONTINUOUS
10
2.26325
20
0.452283
11
2.26256
21
0.453954
0
LINE
8
BLACK
6
CONTINUOUS
10
2.26256
20
0.453954
11
2.26256
21
0.465023
0
LINE
8
BLACK
6
CONTINUOUS
10
2.26256
20
0.465023
11
2.26325
21
0.466693
0
LINE
8
BLACK
6
CONTINUOUS
10
2.26325
20
0.466693
11
2.26492
21
0.467385
0
LINE
8
BLACK
6
CONTINUOUS
10
2.26492
20
0.467385
11
2.26659
21
0.466693
0
LINE
8
BLACK
6
CONTINUOUS
10
1.73669
20
0.461749
11
1.73739
21
0.460079
0
LINE
8
BLACK
6
CONTINUOUS
10
1.73739
20
0.460079
11
1.73669
21
0.458408
0
LINE
8
BLACK
6
CONTINUOUS
10
1.73669
20
0.458408
11
1.73502
21
0.457717
0
LINE
8
BLACK
6
CONTINUOUS
10
1.73502
20
0.457717
11
1.72395
21
0.457717
0
LINE
8
BLACK
6
CONTINUOUS
10
1.72395
20
0.457717
11
1.72228
21
0.458408
0
LINE
8
BLACK
6
CONTINUOUS
10
1.72228
20
0.458408
11
1.72159
21
0.460079
0
LINE
8
BLACK
6
CONTINUOUS
10
1.72159
20
0.460079
11
1.72228
21
0.461749
0
LINE
8
BLACK
6
CONTINUOUS
10
1.72228
20
0.461749
11
1.72395
21
0.462441
0
LINE
8
BLACK
6
CONTINUOUS
10
1.72395
20
0.462441
11
1.73502
21
0.462441
0
LINE
8
BLACK
6
CONTINUOUS
10
1.73502
20
0.462441
11
1.73669
21
0.461749
0
LINE
8
BLACK
6
CONTINUOUS
10
1.13353
20
0.467241
11
1.13422
21
0.465571
0
LINE
8
BLACK
6
CONTINUOUS
10
1.13422
20
0.465571
11
1.13353
21
0.463901
0
LINE
8
BLACK
6
CONTINUOUS
10
1.13353
20
0.463901
11
1.13186
21
0.463209
0
LINE
8
BLACK
6
CONTINUOUS
10
1.13186
20
0.463209
11
1.11318
21
0.463209
0
LINE
8
BLACK
6
CONTINUOUS
10
1.11318
20
0.463209
11
1.11151
21
0.463901
0
LINE
8
BLACK
6
CONTINUOUS
10
1.11151
20
0.463901
11
1.11082
21
0.465571
0
LINE
8
BLACK
6
CONTINUOUS
10
1.11082
20
0.465571
11
1.11151
21
0.467241
0
LINE
8
BLACK
6
CONTINUOUS
10
1.11151
20
0.467241
11
1.11318
21
0.467933
0
LINE
8
BLACK
6
CONTINUOUS
10
1.11318
20
0.467933
11
1.13186
21
0.467933
0
LINE
8
BLACK
6
CONTINUOUS
10
1.13186
20
0.467933
11
1.13353
21
0.467241
0
LINE
8
BLACK
6
CONTINUOUS
10
1.38188
20
0.56635
11
1.38201
21
0.566372
0
LINE
8
BLACK
6
CONTINUOUS
10
1.38201
20
0.566372
11
1.38212
21
0.566307
0
LINE
8
BLACK
6
CONTINUOUS
10
1.38212
20
0.566307
11
1.38251
21
0.566239
0
LINE
8
BLACK
6
CONTINUOUS
10
1.38251
20
0.566239
11
1.38309
21
0.565746
0
LINE
8
BLACK
6
CONTINUOUS
10
1.38309
20
0.565746
11
1.38376
21
0.565363
0
LINE
8
BLACK
6
CONTINUOUS
10
1.38376
20
0.565363
11
1.38385
21
0.565112
0
LINE
8
BLACK
6
CONTINUOUS
10
1.38385
20
0.565112
11
1.38405
21
0.564941
0
LINE
8
BLACK
6
CONTINUOUS
10
1.38405
20
0.564941
11
1.38419
21
0.564185
0
LINE
8
BLACK
6
CONTINUOUS
10
1.38419
20
0.564185
11
1.38445
21
0.563465
0
LINE
8
BLACK
6
CONTINUOUS
10
1.38445
20
0.563465
11
1.38445
21
0.496535
0
LINE
8
BLACK
6
CONTINUOUS
10
1.38445
20
0.496535
11
1.38438
21
0.496152
0
LINE
8
BLACK
6
CONTINUOUS
10
1.38438
20
0.496152
11
1.3844
21
0.496023
0
LINE
8
BLACK
6
CONTINUOUS
10
1.3844
20
0.496023
11
1.38434
21
0.495909
0
LINE
8
BLACK
6
CONTINUOUS
10
1.38434
20
0.495909
11
1.38427
21
0.495526
0
LINE
8
BLACK
6
CONTINUOUS
10
1.38427
20
0.495526
11
1.38378
21
0.494938
0
LINE
8
BLACK
6
CONTINUOUS
10
1.38378
20
0.494938
11
1.38339
21
0.494274
0
LINE
8
BLACK
6
CONTINUOUS
10
1.38339
20
0.494274
11
1.38314
21
0.494182
0
LINE
8
BLACK
6
CONTINUOUS
10
1.38314
20
0.494182
11
1.38297
21
0.493978
0
LINE
8
BLACK
6
CONTINUOUS
10
1.38297
20
0.493978
11
1.38222
21
0.493845
0
LINE
8
BLACK
6
CONTINUOUS
10
1.38222
20
0.493845
11
1.3815
21
0.493583
0
LINE
8
BLACK
6
CONTINUOUS
10
1.3815
20
0.493583
11
1.31654
21
0.493583
0
LINE
8
BLACK
6
CONTINUOUS
10
1.31654
20
0.493583
11
1.31553
21
0.493761
0
LINE
8
BLACK
6
CONTINUOUS
10
1.31553
20
0.493761
11
1.31398
21
0.495059
0
LINE
8
BLACK
6
CONTINUOUS
10
1.31398
20
0.495059
11
1.31363
21
0.497048
0
LINE
8
BLACK
6
CONTINUOUS
10
1.31363
20
0.497048
11
1.31464
21
0.498797
0
LINE
8
BLACK
6
CONTINUOUS
10
1.31464
20
0.498797
11
1.31654
21
0.499488
0
LINE
8
BLACK
6
CONTINUOUS
10
1.31654
20
0.499488
11
1.37854
21
0.499488
0
LINE
8
BLACK
6
CONTINUOUS
10
1.37854
20
0.499488
11
1.37854
21
0.560512
0
LINE
8
BLACK
6
CONTINUOUS
10
1.37854
20
0.560512
11
1.31654
21
0.560512
0
LINE
8
BLACK
6
CONTINUOUS
10
1.31654
20
0.560512
11
1.31553
21
0.56069
0
LINE
8
BLACK
6
CONTINUOUS
10
1.31553
20
0.56069
11
1.31398
21
0.561988
0
LINE
8
BLACK
6
CONTINUOUS
10
1.31398
20
0.561988
11
1.31363
21
0.563977
0
LINE
8
BLACK
6
CONTINUOUS
10
1.31363
20
0.563977
11
1.31464
21
0.565726
0
LINE
8
BLACK
6
CONTINUOUS
10
1.31464
20
0.565726
11
1.31654
21
0.566417
0
LINE
8
BLACK
6
CONTINUOUS
10
1.31654
20
0.566417
11
1.3815
21
0.566417
0
LINE
8
BLACK
6
CONTINUOUS
10
1.3815
20
0.566417
11
1.38188
21
0.56635
0
LINE
8
BLACK
6
CONTINUOUS
10
1.27818
20
0.566239
11
1.27972
21
0.564941
0
LINE
8
BLACK
6
CONTINUOUS
10
1.27972
20
0.564941
11
1.28007
21
0.562952
0
LINE
8
BLACK
6
CONTINUOUS
10
1.28007
20
0.562952
11
1.27906
21
0.561203
0
LINE
8
BLACK
6
CONTINUOUS
10
1.27906
20
0.561203
11
1.27717
21
0.560512
0
LINE
8
BLACK
6
CONTINUOUS
10
1.27717
20
0.560512
11
1.21516
21
0.560512
0
LINE
8
BLACK
6
CONTINUOUS
10
1.21516
20
0.560512
11
1.21516
21
0.499488
0
LINE
8
BLACK
6
CONTINUOUS
10
1.21516
20
0.499488
11
1.27717
21
0.499488
0
LINE
8
BLACK
6
CONTINUOUS
10
1.27717
20
0.499488
11
1.27818
21
0.49931
0
LINE
8
BLACK
6
CONTINUOUS
10
1.27818
20
0.49931
11
1.27972
21
0.498012
0
LINE
8
BLACK
6
CONTINUOUS
10
1.27972
20
0.498012
11
1.28007
21
0.496023
0
LINE
8
BLACK
6
CONTINUOUS
10
1.28007
20
0.496023
11
1.27906
21
0.494274
0
LINE
8
BLACK
6
CONTINUOUS
10
1.27906
20
0.494274
11
1.27717
21
0.493583
0
LINE
8
BLACK
6
CONTINUOUS
10
1.27717
20
0.493583
11
1.2122
21
0.493583
0
LINE
8
BLACK
6
CONTINUOUS
10
1.2122
20
0.493583
11
1.21182
21
0.49365
0
LINE
8
BLACK
6
CONTINUOUS
10
1.21182
20
0.49365
11
1.21169
21
0.493628
0
LINE
8
BLACK
6
CONTINUOUS
10
1.21169
20
0.493628
11
1.21158
21
0.493693
0
LINE
8
BLACK
6
CONTINUOUS
10
1.21158
20
0.493693
11
1.21119
21
0.493761
0
LINE
8
BLACK
6
CONTINUOUS
10
1.21119
20
0.493761
11
1.21061
21
0.494254
0
LINE
8
BLACK
6
CONTINUOUS
10
1.21061
20
0.494254
11
1.20994
21
0.494637
0
LINE
8
BLACK
6
CONTINUOUS
10
1.20994
20
0.494637
11
1.20985
21
0.494888
0
LINE
8
BLACK
6
CONTINUOUS
10
1.20985
20
0.494888
11
1.20965
21
0.495059
0
LINE
8
BLACK
6
CONTINUOUS
10
1.20965
20
0.495059
11
1.20951
21
0.495815
0
LINE
8
BLACK
6
CONTINUOUS
10
1.20951
20
0.495815
11
1.20925
21
0.496535
0
LINE
8
BLACK
6
CONTINUOUS
10
1.20925
20
0.496535
11
1.20925
21
0.563465
0
LINE
8
BLACK
6
CONTINUOUS
10
1.20925
20
0.563465
11
1.20932
21
0.563848
0
LINE
8
BLACK
6
CONTINUOUS
10
1.20932
20
0.563848
11
1.2093
21
0.563977
0
LINE
8
BLACK
6
CONTINUOUS
10
1.2093
20
0.563977
11
1.20936
21
0.564091
0
LINE
8
BLACK
6
CONTINUOUS
10
1.20936
20
0.564091
11
1.20943
21
0.564474
0
LINE
8
BLACK
6
CONTINUOUS
10
1.20943
20
0.564474
11
1.20992
21
0.565062
0
LINE
8
BLACK
6
CONTINUOUS
10
1.20992
20
0.565062
11
1.21031
21
0.565726
0
LINE
8
BLACK
6
CONTINUOUS
10
1.21031
20
0.565726
11
1.21056
21
0.565818
0
LINE
8
BLACK
6
CONTINUOUS
10
1.21056
20
0.565818
11
1.21073
21
0.566022
0
LINE
8
BLACK
6
CONTINUOUS
10
1.21073
20
0.566022
11
1.21148
21
0.566155
0
LINE
8
BLACK
6
CONTINUOUS
10
1.21148
20
0.566155
11
1.2122
21
0.566417
0
LINE
8
BLACK
6
CONTINUOUS
10
1.2122
20
0.566417
11
1.27717
21
0.566417
0
LINE
8
BLACK
6
CONTINUOUS
10
1.27717
20
0.566417
11
1.27818
21
0.566239
0
LINE
8
BLACK
6
CONTINUOUS
10
2.10562
20
0.529956
11
2.10631
21
0.528286
0
LINE
8
BLACK
6
CONTINUOUS
10
2.10631
20
0.528286
11
2.10631
21
0.507714
0
LINE
8
BLACK
6
CONTINUOUS
10
2.10631
20
0.507714
11
2.10562
21
0.506044
0
LINE
8
BLACK
6
CONTINUOUS
10
2.10562
20
0.506044
11
2.10395
21
0.505352
0
LINE
8
BLACK
6
CONTINUOUS
10
2.10395
20
0.505352
11
2.10228
21
0.506044
0
LINE
8
BLACK
6
CONTINUOUS
10
2.10228
20
0.506044
11
2.10159
21
0.507714
0
LINE
8
BLACK
6
CONTINUOUS
10
2.10159
20
0.507714
11
2.10159
21
0.528286
0
LINE
8
BLACK
6
CONTINUOUS
10
2.10159
20
0.528286
11
2.10228
21
0.529956
0
LINE
8
BLACK
6
CONTINUOUS
10
2.10228
20
0.529956
11
2.10395
21
0.530648
0
LINE
8
BLACK
6
CONTINUOUS
10
2.10395
20
0.530648
11
2.10562
21
0.529956
0
LINE
8
BLACK
6
CONTINUOUS
10
2.04972
20
0.529956
11
2.05041
21
0.528286
0
LINE
8
BLACK
6
CONTINUOUS
10
2.05041
20
0.528286
11
2.05041
21
0.507714
0
LINE
8
BLACK
6
CONTINUOUS
10
2.05041
20
0.507714
11
2.04972
21
0.506044
0
LINE
8
BLACK
6
CONTINUOUS
10
2.04972
20
0.506044
11
2.04805
21
0.505352
0
LINE
8
BLACK
6
CONTINUOUS
10
2.04805
20
0.505352
11
2.04638
21
0.506044
0
LINE
8
BLACK
6
CONTINUOUS
10
2.04638
20
0.506044
11
2.04569
21
0.507714
0
LINE
8
BLACK
6
CONTINUOUS
10
2.04569
20
0.507714
11
2.04569
21
0.528286
0
LINE
8
BLACK
6
CONTINUOUS
10
2.04569
20
0.528286
11
2.04638
21
0.529956
0
LINE
8
BLACK
6
CONTINUOUS
10
2.04638
20
0.529956
11
2.04805
21
0.530648
0
LINE
8
BLACK
6
CONTINUOUS
10
2.04805
20
0.530648
11
2.04972
21
0.529956
0
LINE
8
BLACK
6
CONTINUOUS
10
2.17075
20
0.531205
11
2.17144
21
0.529535
0
LINE
8
BLACK
6
CONTINUOUS
10
2.17144
20
0.529535
11
2.17144
21
0.518465
0
LINE
8
BLACK
6
CONTINUOUS
10
2.17144
20
0.518465
11
2.17075
21
0.516795
0
LINE
8
BLACK
6
CONTINUOUS
10
2.17075
20
0.516795
11
2.16908
21
0.516103
0
LINE
8
BLACK
6
CONTINUOUS
10
2.16908
20
0.516103
11
2.16741
21
0.516795
0
LINE
8
BLACK
6
CONTINUOUS
10
2.16741
20
0.516795
11
2.16672
21
0.518465
0
LINE
8
BLACK
6
CONTINUOUS
10
2.16672
20
0.518465
11
2.16672
21
0.529535
0
LINE
8
BLACK
6
CONTINUOUS
10
2.16672
20
0.529535
11
2.16741
21
0.531205
0
LINE
8
BLACK
6
CONTINUOUS
10
2.16741
20
0.531205
11
2.16908
21
0.531897
0
LINE
8
BLACK
6
CONTINUOUS
10
2.16908
20
0.531897
11
2.17075
21
0.531205
0
LINE
8
BLACK
6
CONTINUOUS
10
2.13059
20
0.531205
11
2.13128
21
0.529535
0
LINE
8
BLACK
6
CONTINUOUS
10
2.13128
20
0.529535
11
2.13128
21
0.518465
0
LINE
8
BLACK
6
CONTINUOUS
10
2.13128
20
0.518465
11
2.13059
21
0.516795
0
LINE
8
BLACK
6
CONTINUOUS
10
2.13059
20
0.516795
11
2.12892
21
0.516103
0
LINE
8
BLACK
6
CONTINUOUS
10
2.12892
20
0.516103
11
2.12725
21
0.516795
0
LINE
8
BLACK
6
CONTINUOUS
10
2.12725
20
0.516795
11
2.12656
21
0.518465
0
LINE
8
BLACK
6
CONTINUOUS
10
2.12656
20
0.518465
11
2.12656
21
0.529535
0
LINE
8
BLACK
6
CONTINUOUS
10
2.12656
20
0.529535
11
2.12725
21
0.531205
0
LINE
8
BLACK
6
CONTINUOUS
10
2.12725
20
0.531205
11
2.12892
21
0.531897
0
LINE
8
BLACK
6
CONTINUOUS
10
2.12892
20
0.531897
11
2.13059
21
0.531205
0
LINE
8
BLACK
6
CONTINUOUS
10
1.80566
20
0.552255
11
1.80635
21
0.550357
0
LINE
8
BLACK
6
CONTINUOUS
10
1.80635
20
0.550357
11
1.80635
21
0.528588
0
LINE
8
BLACK
6
CONTINUOUS
10
1.80635
20
0.528588
11
1.84161
21
0.543697
0
LINE
8
BLACK
6
CONTINUOUS
10
1.84161
20
0.543697
11
1.84261
21
0.543931
0
LINE
8
BLACK
6
CONTINUOUS
10
1.84261
20
0.543931
11
1.84454
21
0.543348
0
LINE
8
BLACK
6
CONTINUOUS
10
1.84454
20
0.543348
11
1.84565
21
0.541657
0
LINE
8
BLACK
6
CONTINUOUS
10
1.84565
20
0.541657
11
1.84541
21
0.539652
0
LINE
8
BLACK
6
CONTINUOUS
10
1.84541
20
0.539652
11
1.84393
21
0.538269
0
LINE
8
BLACK
6
CONTINUOUS
10
1.84393
20
0.538269
11
1.80456
21
0.521396
0
LINE
8
BLACK
6
CONTINUOUS
10
1.80456
20
0.521396
11
1.80357
21
0.521162
0
LINE
8
BLACK
6
CONTINUOUS
10
1.80357
20
0.521162
11
1.80323
21
0.521263
0
LINE
8
BLACK
6
CONTINUOUS
10
1.80323
20
0.521263
11
1.80289
21
0.521202
0
LINE
8
BLACK
6
CONTINUOUS
10
1.80289
20
0.521202
11
1.80229
21
0.521547
0
LINE
8
BLACK
6
CONTINUOUS
10
1.80229
20
0.521547
11
1.80163
21
0.521746
0
LINE
8
BLACK
6
CONTINUOUS
10
1.80163
20
0.521746
11
1.80144
21
0.522038
0
LINE
8
BLACK
6
CONTINUOUS
10
1.80144
20
0.522038
11
1.80114
21
0.522212
0
LINE
8
BLACK
6
CONTINUOUS
10
1.80114
20
0.522212
11
1.8009
21
0.52286
0
LINE
8
BLACK
6
CONTINUOUS
10
1.8009
20
0.52286
11
1.80053
21
0.523436
0
LINE
8
BLACK
6
CONTINUOUS
10
1.80053
20
0.523436
11
1.80057
21
0.523783
0
LINE
8
BLACK
6
CONTINUOUS
10
1.80057
20
0.523783
11
1.80045
21
0.52411
0
LINE
8
BLACK
6
CONTINUOUS
10
1.80045
20
0.52411
11
1.80045
21
0.550357
0
LINE
8
BLACK
6
CONTINUOUS
10
1.80045
20
0.550357
11
1.80063
21
0.551367
0
LINE
8
BLACK
6
CONTINUOUS
10
1.80063
20
0.551367
11
1.80192
21
0.552914
0
LINE
8
BLACK
6
CONTINUOUS
10
1.80192
20
0.552914
11
1.80391
21
0.553265
0
LINE
8
BLACK
6
CONTINUOUS
10
1.80391
20
0.553265
11
1.80566
21
0.552255
0
LINE
8
BLACK
6
CONTINUOUS
10
1.95513
20
0.538718
11
1.95582
21
0.537047
0
LINE
8
BLACK
6
CONTINUOUS
10
1.95582
20
0.537047
11
1.95513
21
0.535377
0
LINE
8
BLACK
6
CONTINUOUS
10
1.95513
20
0.535377
11
1.95345
21
0.534685
0
LINE
8
BLACK
6
CONTINUOUS
10
1.95345
20
0.534685
11
1.93288
21
0.534685
0
LINE
8
BLACK
6
CONTINUOUS
10
1.93288
20
0.534685
11
1.93121
21
0.535377
0
LINE
8
BLACK
6
CONTINUOUS
10
1.93121
20
0.535377
11
1.93052
21
0.537047
0
LINE
8
BLACK
6
CONTINUOUS
10
1.93052
20
0.537047
11
1.93121
21
0.538718
0
LINE
8
BLACK
6
CONTINUOUS
10
1.93121
20
0.538718
11
1.93288
21
0.539409
0
LINE
8
BLACK
6
CONTINUOUS
10
1.93288
20
0.539409
11
1.95345
21
0.539409
0
LINE
8
BLACK
6
CONTINUOUS
10
1.95345
20
0.539409
11
1.95513
21
0.538718
0
LINE
8
BLACK
6
CONTINUOUS
10
0.91696
20
0.580544
11
0.917651
21
0.578646
0
LINE
8
BLACK
6
CONTINUOUS
10
0.917651
20
0.578646
11
0.917651
21
0.551004
0
LINE
8
BLACK
6
CONTINUOUS
10
0.917651
20
0.551004
11
0.919154
21
0.546496
0
LINE
8
BLACK
6
CONTINUOUS
10
0.919154
20
0.546496
11
0.921917
21
0.543732
0
LINE
8
BLACK
6
CONTINUOUS
10
0.921917
20
0.543732
11
0.926426
21
0.542229
0
LINE
8
BLACK
6
CONTINUOUS
10
0.926426
20
0.542229
11
0.929696
21
0.542229
0
LINE
8
BLACK
6
CONTINUOUS
10
0.929696
20
0.542229
11
0.930706
21
0.542051
0
LINE
8
BLACK
6
CONTINUOUS
10
0.930706
20
0.542051
11
0.932253
21
0.540753
0
LINE
8
BLACK
6
CONTINUOUS
10
0.932253
20
0.540753
11
0.932604
21
0.538764
0
LINE
8
BLACK
6
CONTINUOUS
10
0.932604
20
0.538764
11
0.931594
21
0.537014
0
LINE
8
BLACK
6
CONTINUOUS
10
0.931594
20
0.537014
11
0.929696
21
0.536324
0
LINE
8
BLACK
6
CONTINUOUS
10
0.929696
20
0.536324
11
0.925947
21
0.536324
0
LINE
8
BLACK
6
CONTINUOUS
10
0.925947
20
0.536324
11
0.925077
21
0.536477
0
LINE
8
BLACK
6
CONTINUOUS
10
0.925077
20
0.536477
11
0.925013
21
0.536475
0
LINE
8
BLACK
6
CONTINUOUS
10
0.925013
20
0.536475
11
0.919389
21
0.53835
0
LINE
8
BLACK
6
CONTINUOUS
10
0.919389
20
0.53835
11
0.918487
21
0.538838
0
LINE
8
BLACK
6
CONTINUOUS
10
0.918487
20
0.538838
11
0.918395
21
0.538989
0
LINE
8
BLACK
6
CONTINUOUS
10
0.918395
20
0.538989
11
0.918235
21
0.539063
0
LINE
8
BLACK
6
CONTINUOUS
10
0.918235
20
0.539063
11
0.914485
21
0.542813
0
LINE
8
BLACK
6
CONTINUOUS
10
0.914485
20
0.542813
11
0.913897
21
0.543653
0
LINE
8
BLACK
6
CONTINUOUS
10
0.913897
20
0.543653
11
0.913881
21
0.543829
0
LINE
8
BLACK
6
CONTINUOUS
10
0.913881
20
0.543829
11
0.913772
21
0.543967
0
LINE
8
BLACK
6
CONTINUOUS
10
0.913772
20
0.543967
11
0.911897
21
0.549591
0
LINE
8
BLACK
6
CONTINUOUS
10
0.911897
20
0.549591
11
0.911767
21
0.550464
0
LINE
8
BLACK
6
CONTINUOUS
10
0.911767
20
0.550464
11
0.911745
21
0.550525
0
LINE
8
BLACK
6
CONTINUOUS
10
0.911745
20
0.550525
11
0.911745
21
0.578646
0
LINE
8
BLACK
6
CONTINUOUS
10
0.911745
20
0.578646
11
0.911923
21
0.579656
0
LINE
8
BLACK
6
CONTINUOUS
10
0.911923
20
0.579656
11
0.913222
21
0.581204
0
LINE
8
BLACK
6
CONTINUOUS
10
0.913222
20
0.581204
11
0.915211
21
0.581554
0
LINE
8
BLACK
6
CONTINUOUS
10
0.915211
20
0.581554
11
0.91696
21
0.580544
0
LINE
8
BLACK
6
CONTINUOUS
10
0.887236
20
0.581469
11
0.887406
21
0.58148
0
LINE
8
BLACK
6
CONTINUOUS
10
0.887406
20
0.58148
11
0.888096
21
0.580973
0
LINE
8
BLACK
6
CONTINUOUS
10
0.888096
20
0.580973
11
0.888839
21
0.580544
0
LINE
8
BLACK
6
CONTINUOUS
10
0.888839
20
0.580544
11
0.888897
21
0.580385
0
LINE
8
BLACK
6
CONTINUOUS
10
0.888897
20
0.580385
11
0.889034
21
0.580284
0
LINE
8
BLACK
6
CONTINUOUS
10
0.889034
20
0.580284
11
0.892621
21
0.574903
0
LINE
8
BLACK
6
CONTINUOUS
10
0.892621
20
0.574903
11
0.895825
21
0.571699
0
LINE
8
BLACK
6
CONTINUOUS
10
0.895825
20
0.571699
11
0.899146
21
0.570039
0
LINE
8
BLACK
6
CONTINUOUS
10
0.899146
20
0.570039
11
0.899969
21
0.569428
0
LINE
8
BLACK
6
CONTINUOUS
10
0.899969
20
0.569428
11
0.900773
21
0.567575
0
LINE
8
BLACK
6
CONTINUOUS
10
0.900773
20
0.567575
11
0.900197
21
0.565639
0
LINE
8
BLACK
6
CONTINUOUS
10
0.900197
20
0.565639
11
0.898511
21
0.564526
0
LINE
8
BLACK
6
CONTINUOUS
10
0.898511
20
0.564526
11
0.896505
21
0.564757
0
LINE
8
BLACK
6
CONTINUOUS
10
0.896505
20
0.564757
11
0.892755
21
0.566632
0
LINE
8
BLACK
6
CONTINUOUS
10
0.892755
20
0.566632
11
0.892046
21
0.567157
0
LINE
8
BLACK
6
CONTINUOUS
10
0.892046
20
0.567157
11
0.891988
21
0.567185
0
LINE
8
BLACK
6
CONTINUOUS
10
0.891988
20
0.567185
11
0.889529
21
0.569643
0
LINE
8
BLACK
6
CONTINUOUS
10
0.889529
20
0.569643
11
0.889529
21
0.542229
0
LINE
8
BLACK
6
CONTINUOUS
10
0.889529
20
0.542229
11
0.897825
21
0.542229
0
LINE
8
BLACK
6
CONTINUOUS
10
0.897825
20
0.542229
11
0.898835
21
0.542051
0
LINE
8
BLACK
6
CONTINUOUS
10
0.898835
20
0.542051
11
0.900382
21
0.540753
0
LINE
8
BLACK
6
CONTINUOUS
10
0.900382
20
0.540753
11
0.900733
21
0.538764
0
LINE
8
BLACK
6
CONTINUOUS
10
0.900733
20
0.538764
11
0.899723
21
0.537014
0
LINE
8
BLACK
6
CONTINUOUS
10
0.899723
20
0.537014
11
0.897825
21
0.536324
0
LINE
8
BLACK
6
CONTINUOUS
10
0.897825
20
0.536324
11
0.875328
21
0.536324
0
LINE
8
BLACK
6
CONTINUOUS
10
0.875328
20
0.536324
11
0.874318
21
0.536502
0
LINE
8
BLACK
6
CONTINUOUS
10
0.874318
20
0.536502
11
0.872771
21
0.5378
0
LINE
8
BLACK
6
CONTINUOUS
10
0.872771
20
0.5378
11
0.87242
21
0.539789
0
LINE
8
BLACK
6
CONTINUOUS
10
0.87242
20
0.539789
11
0.87343
21
0.541538
0
LINE
8
BLACK
6
CONTINUOUS
10
0.87343
20
0.541538
11
0.875328
21
0.542229
0
LINE
8
BLACK
6
CONTINUOUS
10
0.875328
20
0.542229
11
0.883624
21
0.542229
0
LINE
8
BLACK
6
CONTINUOUS
10
0.883624
20
0.542229
11
0.883624
21
0.578646
0
LINE
8
BLACK
6
CONTINUOUS
10
0.883624
20
0.578646
11
0.883802
21
0.579656
0
LINE
8
BLACK
6
CONTINUOUS
10
0.883802
20
0.579656
11
0.883911
21
0.579786
0
LINE
8
BLACK
6
CONTINUOUS
10
0.883911
20
0.579786
11
0.88393
21
0.579955
0
LINE
8
BLACK
6
CONTINUOUS
10
0.88393
20
0.579955
11
0.884549
21
0.580547
0
LINE
8
BLACK
6
CONTINUOUS
10
0.884549
20
0.580547
11
0.8851
21
0.581204
0
LINE
8
BLACK
6
CONTINUOUS
10
0.8851
20
0.581204
11
0.885267
21
0.581233
0
LINE
8
BLACK
6
CONTINUOUS
10
0.885267
20
0.581233
11
0.88539
21
0.58135
0
LINE
8
BLACK
6
CONTINUOUS
10
0.88539
20
0.58135
11
0.886245
21
0.581406
0
LINE
8
BLACK
6
CONTINUOUS
10
0.886245
20
0.581406
11
0.887089
21
0.581554
0
LINE
8
BLACK
6
CONTINUOUS
10
0.887089
20
0.581554
11
0.887236
21
0.581469
0
LINE
8
BLACK
6
CONTINUOUS
10
1.14455
20
0.542733
11
1.14525
21
0.541063
0
LINE
8
BLACK
6
CONTINUOUS
10
1.14525
20
0.541063
11
1.14455
21
0.539393
0
LINE
8
BLACK
6
CONTINUOUS
10
1.14455
20
0.539393
11
1.14288
21
0.538701
0
LINE
8
BLACK
6
CONTINUOUS
10
1.14288
20
0.538701
11
1.12231
21
0.538701
0
LINE
8
BLACK
6
CONTINUOUS
10
1.12231
20
0.538701
11
1.12064
21
0.539393
0
LINE
8
BLACK
6
CONTINUOUS
10
1.12064
20
0.539393
11
1.11995
21
0.541063
0
LINE
8
BLACK
6
CONTINUOUS
10
1.11995
20
0.541063
11
1.12064
21
0.542733
0
LINE
8
BLACK
6
CONTINUOUS
10
1.12064
20
0.542733
11
1.12231
21
0.543425
0
LINE
8
BLACK
6
CONTINUOUS
10
1.12231
20
0.543425
11
1.14288
21
0.543425
0
LINE
8
BLACK
6
CONTINUOUS
10
1.14288
20
0.543425
11
1.14455
21
0.542733
0
LINE
8
BLACK
6
CONTINUOUS
10
1.78962
20
0.565125
11
1.79031
21
0.563455
0
LINE
8
BLACK
6
CONTINUOUS
10
1.79031
20
0.563455
11
1.79031
21
0.542884
0
LINE
8
BLACK
6
CONTINUOUS
10
1.79031
20
0.542884
11
1.78962
21
0.541213
0
LINE
8
BLACK
6
CONTINUOUS
10
1.78962
20
0.541213
11
1.78795
21
0.540522
0
LINE
8
BLACK
6
CONTINUOUS
10
1.78795
20
0.540522
11
1.78628
21
0.541213
0
LINE
8
BLACK
6
CONTINUOUS
10
1.78628
20
0.541213
11
1.78559
21
0.542884
0
LINE
8
BLACK
6
CONTINUOUS
10
1.78559
20
0.542884
11
1.78559
21
0.563455
0
LINE
8
BLACK
6
CONTINUOUS
10
1.78559
20
0.563455
11
1.78628
21
0.565125
0
LINE
8
BLACK
6
CONTINUOUS
10
1.78628
20
0.565125
11
1.78795
21
0.565817
0
LINE
8
BLACK
6
CONTINUOUS
10
1.78795
20
0.565817
11
1.78962
21
0.565125
0
LINE
8
BLACK
6
CONTINUOUS
10
1.73372
20
0.565125
11
1.73441
21
0.563455
0
LINE
8
BLACK
6
CONTINUOUS
10
1.73441
20
0.563455
11
1.73441
21
0.542884
0
LINE
8
BLACK
6
CONTINUOUS
10
1.73441
20
0.542884
11
1.73372
21
0.541213
0
LINE
8
BLACK
6
CONTINUOUS
10
1.73372
20
0.541213
11
1.73205
21
0.540522
0
LINE
8
BLACK
6
CONTINUOUS
10
1.73205
20
0.540522
11
1.73038
21
0.541213
0
LINE
8
BLACK
6
CONTINUOUS
10
1.73038
20
0.541213
11
1.72969
21
0.542884
0
LINE
8
BLACK
6
CONTINUOUS
10
1.72969
20
0.542884
11
1.72969
21
0.563455
0
LINE
8
BLACK
6
CONTINUOUS
10
1.72969
20
0.563455
11
1.73038
21
0.565125
0
LINE
8
BLACK
6
CONTINUOUS
10
1.73038
20
0.565125
11
1.73205
21
0.565817
0
LINE
8
BLACK
6
CONTINUOUS
10
1.73205
20
0.565817
11
1.73372
21
0.565125
0
LINE
8
BLACK
6
CONTINUOUS
10
1.61773
20
0.569554
11
1.61843
21
0.567884
0
LINE
8
BLACK
6
CONTINUOUS
10
1.61843
20
0.567884
11
1.61843
21
0.547313
0
LINE
8
BLACK
6
CONTINUOUS
10
1.61843
20
0.547313
11
1.61773
21
0.545643
0
LINE
8
BLACK
6
CONTINUOUS
10
1.61773
20
0.545643
11
1.61606
21
0.544951
0
LINE
8
BLACK
6
CONTINUOUS
10
1.61606
20
0.544951
11
1.61439
21
0.545643
0
LINE
8
BLACK
6
CONTINUOUS
10
1.61439
20
0.545643
11
1.6137
21
0.547313
0
LINE
8
BLACK
6
CONTINUOUS
10
1.6137
20
0.547313
11
1.6137
21
0.567884
0
LINE
8
BLACK
6
CONTINUOUS
10
1.6137
20
0.567884
11
1.61439
21
0.569554
0
LINE
8
BLACK
6
CONTINUOUS
10
1.61439
20
0.569554
11
1.61606
21
0.570246
0
LINE
8
BLACK
6
CONTINUOUS
10
1.61606
20
0.570246
11
1.61773
21
0.569554
0
LINE
8
BLACK
6
CONTINUOUS
10
1.67561
20
0.569554
11
1.6763
21
0.567884
0
LINE
8
BLACK
6
CONTINUOUS
10
1.6763
20
0.567884
11
1.6763
21
0.547313
0
LINE
8
BLACK
6
CONTINUOUS
10
1.6763
20
0.547313
11
1.67561
21
0.545643
0
LINE
8
BLACK
6
CONTINUOUS
10
1.67561
20
0.545643
11
1.67394
21
0.544951
0
LINE
8
BLACK
6
CONTINUOUS
10
1.67394
20
0.544951
11
1.67227
21
0.545643
0
LINE
8
BLACK
6
CONTINUOUS
10
1.67227
20
0.545643
11
1.67157
21
0.547313
0
LINE
8
BLACK
6
CONTINUOUS
10
1.67157
20
0.547313
11
1.67157
21
0.567884
0
LINE
8
BLACK
6
CONTINUOUS
10
1.67157
20
0.567884
11
1.67227
21
0.569554
0
LINE
8
BLACK
6
CONTINUOUS
10
1.67227
20
0.569554
11
1.67394
21
0.570246
0
LINE
8
BLACK
6
CONTINUOUS
10
1.67394
20
0.570246
11
1.67561
21
0.569554
0
LINE
8
BLACK
6
CONTINUOUS
10
2.29183
20
0.55041
11
2.29252
21
0.54874
0
LINE
8
BLACK
6
CONTINUOUS
10
2.29252
20
0.54874
11
2.29183
21
0.54707
0
LINE
8
BLACK
6
CONTINUOUS
10
2.29183
20
0.54707
11
2.29016
21
0.546378
0
LINE
8
BLACK
6
CONTINUOUS
10
2.29016
20
0.546378
11
2.23504
21
0.546378
0
LINE
8
BLACK
6
CONTINUOUS
10
2.23504
20
0.546378
11
2.23337
21
0.54707
0
LINE
8
BLACK
6
CONTINUOUS
10
2.23337
20
0.54707
11
2.23268
21
0.54874
0
LINE
8
BLACK
6
CONTINUOUS
10
2.23268
20
0.54874
11
2.23337
21
0.55041
0
LINE
8
BLACK
6
CONTINUOUS
10
2.23337
20
0.55041
11
2.23504
21
0.551102
0
LINE
8
BLACK
6
CONTINUOUS
10
2.23504
20
0.551102
11
2.29016
21
0.551102
0
LINE
8
BLACK
6
CONTINUOUS
10
2.29016
20
0.551102
11
2.29183
21
0.55041
0
LINE
8
BLACK
6
CONTINUOUS
10
1.44675
20
0.562205
11
1.44744
21
0.560535
0
LINE
8
BLACK
6
CONTINUOUS
10
1.44744
20
0.560535
11
1.44744
21
0.549465
0
LINE
8
BLACK
6
CONTINUOUS
10
1.44744
20
0.549465
11
1.44675
21
0.547795
0
LINE
8
BLACK
6
CONTINUOUS
10
1.44675
20
0.547795
11
1.44508
21
0.547103
0
LINE
8
BLACK
6
CONTINUOUS
10
1.44508
20
0.547103
11
1.44341
21
0.547795
0
LINE
8
BLACK
6
CONTINUOUS
10
1.44341
20
0.547795
11
1.44272
21
0.549465
0
LINE
8
BLACK
6
CONTINUOUS
10
1.44272
20
0.549465
11
1.44272
21
0.560535
0
LINE
8
BLACK
6
CONTINUOUS
10
1.44272
20
0.560535
11
1.44341
21
0.562205
0
LINE
8
BLACK
6
CONTINUOUS
10
1.44341
20
0.562205
11
1.44508
21
0.562897
0
LINE
8
BLACK
6
CONTINUOUS
10
1.44508
20
0.562897
11
1.44675
21
0.562205
0
LINE
8
BLACK
6
CONTINUOUS
10
1.40659
20
0.562205
11
1.40728
21
0.560535
0
LINE
8
BLACK
6
CONTINUOUS
10
1.40728
20
0.560535
11
1.40728
21
0.549465
0
LINE
8
BLACK
6
CONTINUOUS
10
1.40728
20
0.549465
11
1.40659
21
0.547795
0
LINE
8
BLACK
6
CONTINUOUS
10
1.40659
20
0.547795
11
1.40492
21
0.547103
0
LINE
8
BLACK
6
CONTINUOUS
10
1.40492
20
0.547103
11
1.40325
21
0.547795
0
LINE
8
BLACK
6
CONTINUOUS
10
1.40325
20
0.547795
11
1.40256
21
0.549465
0
LINE
8
BLACK
6
CONTINUOUS
10
1.40256
20
0.549465
11
1.40256
21
0.560535
0
LINE
8
BLACK
6
CONTINUOUS
10
1.40256
20
0.560535
11
1.40325
21
0.562205
0
LINE
8
BLACK
6
CONTINUOUS
10
1.40325
20
0.562205
11
1.40492
21
0.562897
0
LINE
8
BLACK
6
CONTINUOUS
10
1.40492
20
0.562897
11
1.40659
21
0.562205
0
LINE
8
BLACK
6
CONTINUOUS
10
1.84315
20
0.581364
11
1.84328
21
0.581387
0
LINE
8
BLACK
6
CONTINUOUS
10
1.84328
20
0.581387
11
1.8434
21
0.581321
0
LINE
8
BLACK
6
CONTINUOUS
10
1.8434
20
0.581321
11
1.84378
21
0.581253
0
LINE
8
BLACK
6
CONTINUOUS
10
1.84378
20
0.581253
11
1.84437
21
0.58076
0
LINE
8
BLACK
6
CONTINUOUS
10
1.84437
20
0.58076
11
1.84503
21
0.580377
0
LINE
8
BLACK
6
CONTINUOUS
10
1.84503
20
0.580377
11
1.84512
21
0.580126
0
LINE
8
BLACK
6
CONTINUOUS
10
1.84512
20
0.580126
11
1.84533
21
0.579955
0
LINE
8
BLACK
6
CONTINUOUS
10
1.84533
20
0.579955
11
1.84546
21
0.579199
0
LINE
8
BLACK
6
CONTINUOUS
10
1.84546
20
0.579199
11
1.84572
21
0.578479
0
LINE
8
BLACK
6
CONTINUOUS
10
1.84572
20
0.578479
11
1.84572
21
0.559731
0
LINE
8
BLACK
6
CONTINUOUS
10
1.84572
20
0.559731
11
1.84555
21
0.558721
0
LINE
8
BLACK
6
CONTINUOUS
10
1.84555
20
0.558721
11
1.84425
21
0.557174
0
LINE
8
BLACK
6
CONTINUOUS
10
1.84425
20
0.557174
11
1.84226
21
0.556823
0
LINE
8
BLACK
6
CONTINUOUS
10
1.84226
20
0.556823
11
1.84051
21
0.557833
0
LINE
8
BLACK
6
CONTINUOUS
10
1.84051
20
0.557833
11
1.83982
21
0.559731
0
LINE
8
BLACK
6
CONTINUOUS
10
1.83982
20
0.559731
11
1.83982
21
0.575526
0
LINE
8
BLACK
6
CONTINUOUS
10
1.83982
20
0.575526
11
1.8034
21
0.575526
0
LINE
8
BLACK
6
CONTINUOUS
10
1.8034
20
0.575526
11
1.80239
21
0.575704
0
LINE
8
BLACK
6
CONTINUOUS
10
1.80239
20
0.575704
11
1.80084
21
0.577002
0
LINE
8
BLACK
6
CONTINUOUS
10
1.80084
20
0.577002
11
1.80049
21
0.578991
0
LINE
8
BLACK
6
CONTINUOUS
10
1.80049
20
0.578991
11
1.8015
21
0.580741
0
LINE
8
BLACK
6
CONTINUOUS
10
1.8015
20
0.580741
11
1.8034
21
0.581431
0
LINE
8
BLACK
6
CONTINUOUS
10
1.8034
20
0.581431
11
1.84277
21
0.581431
0
LINE
8
BLACK
6
CONTINUOUS
10
1.84277
20
0.581431
11
1.84315
21
0.581364
0
LINE
8
BLACK
6
CONTINUOUS
10
1.48159
20
0.572205
11
1.48228
21
0.570535
0
LINE
8
BLACK
6
CONTINUOUS
10
1.48228
20
0.570535
11
1.48228
21
0.559465
0
LINE
8
BLACK
6
CONTINUOUS
10
1.48228
20
0.559465
11
1.48159
21
0.557795
0
LINE
8
BLACK
6
CONTINUOUS
10
1.48159
20
0.557795
11
1.47992
21
0.557103
0
LINE
8
BLACK
6
CONTINUOUS
10
1.47992
20
0.557103
11
1.47825
21
0.557795
0
LINE
8
BLACK
6
CONTINUOUS
10
1.47825
20
0.557795
11
1.47756
21
0.559465
0
LINE
8
BLACK
6
CONTINUOUS
10
1.47756
20
0.559465
11
1.47756
21
0.570535
0
LINE
8
BLACK
6
CONTINUOUS
10
1.47756
20
0.570535
11
1.47825
21
0.572205
0
LINE
8
BLACK
6
CONTINUOUS
10
1.47825
20
0.572205
11
1.47992
21
0.572897
0
LINE
8
BLACK
6
CONTINUOUS
10
1.47992
20
0.572897
11
1.48159
21
0.572205
0
LINE
8
BLACK
6
CONTINUOUS
10
1.52175
20
0.572205
11
1.52244
21
0.570535
0
LINE
8
BLACK
6
CONTINUOUS
10
1.52244
20
0.570535
11
1.52244
21
0.559465
0
LINE
8
BLACK
6
CONTINUOUS
10
1.52244
20
0.559465
11
1.52175
21
0.557795
0
LINE
8
BLACK
6
CONTINUOUS
10
1.52175
20
0.557795
11
1.52008
21
0.557103
0
LINE
8
BLACK
6
CONTINUOUS
10
1.52008
20
0.557103
11
1.51841
21
0.557795
0
LINE
8
BLACK
6
CONTINUOUS
10
1.51841
20
0.557795
11
1.51772
21
0.559465
0
LINE
8
BLACK
6
CONTINUOUS
10
1.51772
20
0.559465
11
1.51772
21
0.570535
0
LINE
8
BLACK
6
CONTINUOUS
10
1.51772
20
0.570535
11
1.51841
21
0.572205
0
LINE
8
BLACK
6
CONTINUOUS
10
1.51841
20
0.572205
11
1.52008
21
0.572897
0
LINE
8
BLACK
6
CONTINUOUS
10
1.52008
20
0.572897
11
1.52175
21
0.572205
0
LINE
8
BLACK
6
CONTINUOUS
10
1.55159
20
0.572717
11
1.55228
21
0.571046
0
LINE
8
BLACK
6
CONTINUOUS
10
1.55228
20
0.571046
11
1.55228
21
0.559977
0
LINE
8
BLACK
6
CONTINUOUS
10
1.55228
20
0.559977
11
1.55159
21
0.558307
0
LINE
8
BLACK
6
CONTINUOUS
10
1.55159
20
0.558307
11
1.54992
21
0.557615
0
LINE
8
BLACK
6
CONTINUOUS
10
1.54992
20
0.557615
11
1.54825
21
0.558307
0
LINE
8
BLACK
6
CONTINUOUS
10
1.54825
20
0.558307
11
1.54756
21
0.559977
0
LINE
8
BLACK
6
CONTINUOUS
10
1.54756
20
0.559977
11
1.54756
21
0.571046
0
LINE
8
BLACK
6
CONTINUOUS
10
1.54756
20
0.571046
11
1.54825
21
0.572717
0
LINE
8
BLACK
6
CONTINUOUS
10
1.54825
20
0.572717
11
1.54992
21
0.573409
0
LINE
8
BLACK
6
CONTINUOUS
10
1.54992
20
0.573409
11
1.55159
21
0.572717
0
LINE
8
BLACK
6
CONTINUOUS
10
1.59175
20
0.572717
11
1.59244
21
0.571046
0
LINE
8
BLACK
6
CONTINUOUS
10
1.59244
20
0.571046
11
1.59244
21
0.559977
0
LINE
8
BLACK
6
CONTINUOUS
10
1.59244
20
0.559977
11
1.59175
21
0.558307
0
LINE
8
BLACK
6
CONTINUOUS
10
1.59175
20
0.558307
11
1.59008
21
0.557615
0
LINE
8
BLACK
6
CONTINUOUS
10
1.59008
20
0.557615
11
1.58841
21
0.558307
0
LINE
8
BLACK
6
CONTINUOUS
10
1.58841
20
0.558307
11
1.58772
21
0.559977
0
LINE
8
BLACK
6
CONTINUOUS
10
1.58772
20
0.559977
11
1.58772
21
0.571046
0
LINE
8
BLACK
6
CONTINUOUS
10
1.58772
20
0.571046
11
1.58841
21
0.572717
0
LINE
8
BLACK
6
CONTINUOUS
10
1.58841
20
0.572717
11
1.59008
21
0.573409
0
LINE
8
BLACK
6
CONTINUOUS
10
1.59008
20
0.573409
11
1.59175
21
0.572717
0
LINE
8
BLACK
6
CONTINUOUS
10
1.95513
20
0.594623
11
1.95582
21
0.592953
0
LINE
8
BLACK
6
CONTINUOUS
10
1.95582
20
0.592953
11
1.95513
21
0.591282
0
LINE
8
BLACK
6
CONTINUOUS
10
1.95513
20
0.591282
11
1.95345
21
0.590591
0
LINE
8
BLACK
6
CONTINUOUS
10
1.95345
20
0.590591
11
1.93288
21
0.590591
0
LINE
8
BLACK
6
CONTINUOUS
10
1.93288
20
0.590591
11
1.93121
21
0.591282
0
LINE
8
BLACK
6
CONTINUOUS
10
1.93121
20
0.591282
11
1.93052
21
0.592953
0
LINE
8
BLACK
6
CONTINUOUS
10
1.93052
20
0.592953
11
1.93121
21
0.594623
0
LINE
8
BLACK
6
CONTINUOUS
10
1.93121
20
0.594623
11
1.93288
21
0.595315
0
LINE
8
BLACK
6
CONTINUOUS
10
1.93288
20
0.595315
11
1.95345
21
0.595315
0
LINE
8
BLACK
6
CONTINUOUS
10
1.95345
20
0.595315
11
1.95513
21
0.594623
0
LINE
8
BLACK
6
CONTINUOUS
10
1.14455
20
0.600607
11
1.14525
21
0.598937
0
LINE
8
BLACK
6
CONTINUOUS
10
1.14525
20
0.598937
11
1.14455
21
0.597267
0
LINE
8
BLACK
6
CONTINUOUS
10
1.14455
20
0.597267
11
1.14288
21
0.596575
0
LINE
8
BLACK
6
CONTINUOUS
10
1.14288
20
0.596575
11
1.12231
21
0.596575
0
LINE
8
BLACK
6
CONTINUOUS
10
1.12231
20
0.596575
11
1.12064
21
0.597267
0
LINE
8
BLACK
6
CONTINUOUS
10
1.12064
20
0.597267
11
1.11995
21
0.598937
0
LINE
8
BLACK
6
CONTINUOUS
10
1.11995
20
0.598937
11
1.12064
21
0.600607
0
LINE
8
BLACK
6
CONTINUOUS
10
1.12064
20
0.600607
11
1.12231
21
0.601299
0
LINE
8
BLACK
6
CONTINUOUS
10
1.12231
20
0.601299
11
1.14288
21
0.601299
0
LINE
8
BLACK
6
CONTINUOUS
10
1.14288
20
0.601299
11
1.14455
21
0.600607
0
LINE
8
BLACK
6
CONTINUOUS
10
2.03169
20
0.616592
11
2.03239
21
0.614921
0
LINE
8
BLACK
6
CONTINUOUS
10
2.03239
20
0.614921
11
2.03169
21
0.613251
0
LINE
8
BLACK
6
CONTINUOUS
10
2.03169
20
0.613251
11
2.03002
21
0.612559
0
LINE
8
BLACK
6
CONTINUOUS
10
2.03002
20
0.612559
11
2.01895
21
0.612559
0
LINE
8
BLACK
6
CONTINUOUS
10
2.01895
20
0.612559
11
2.01728
21
0.613251
0
LINE
8
BLACK
6
CONTINUOUS
10
2.01728
20
0.613251
11
2.01659
21
0.614921
0
LINE
8
BLACK
6
CONTINUOUS
10
2.01659
20
0.614921
11
2.01728
21
0.616592
0
LINE
8
BLACK
6
CONTINUOUS
10
2.01728
20
0.616592
11
2.01895
21
0.617283
0
LINE
8
BLACK
6
CONTINUOUS
10
2.01895
20
0.617283
11
2.03002
21
0.617283
0
LINE
8
BLACK
6
CONTINUOUS
10
2.03002
20
0.617283
11
2.03169
21
0.616592
0
LINE
8
BLACK
6
CONTINUOUS
10
1.12669
20
0.641592
11
1.12739
21
0.639921
0
LINE
8
BLACK
6
CONTINUOUS
10
1.12739
20
0.639921
11
1.12669
21
0.638251
0
LINE
8
BLACK
6
CONTINUOUS
10
1.12669
20
0.638251
11
1.12502
21
0.637559
0
LINE
8
BLACK
6
CONTINUOUS
10
1.12502
20
0.637559
11
1.11395
21
0.637559
0
LINE
8
BLACK
6
CONTINUOUS
10
1.11395
20
0.637559
11
1.11228
21
0.638251
0
LINE
8
BLACK
6
CONTINUOUS
10
1.11228
20
0.638251
11
1.11159
21
0.639921
0
LINE
8
BLACK
6
CONTINUOUS
10
1.11159
20
0.639921
11
1.11228
21
0.641592
0
LINE
8
BLACK
6
CONTINUOUS
10
1.11228
20
0.641592
11
1.11395
21
0.642283
0
LINE
8
BLACK
6
CONTINUOUS
10
1.11395
20
0.642283
11
1.12502
21
0.642283
0
LINE
8
BLACK
6
CONTINUOUS
10
1.12502
20
0.642283
11
1.12669
21
0.641592
0
LINE
8
BLACK
6
CONTINUOUS
10
2.31151
20
0.641749
11
2.3122
21
0.640079
0
LINE
8
BLACK
6
CONTINUOUS
10
2.3122
20
0.640079
11
2.31151
21
0.638408
0
LINE
8
BLACK
6
CONTINUOUS
10
2.31151
20
0.638408
11
2.30984
21
0.637717
0
LINE
8
BLACK
6
CONTINUOUS
10
2.30984
20
0.637717
11
2.23504
21
0.637717
0
LINE
8
BLACK
6
CONTINUOUS
10
2.23504
20
0.637717
11
2.23337
21
0.638408
0
LINE
8
BLACK
6
CONTINUOUS
10
2.23337
20
0.638408
11
2.23268
21
0.640079
0
LINE
8
BLACK
6
CONTINUOUS
10
2.23268
20
0.640079
11
2.23337
21
0.641749
0
LINE
8
BLACK
6
CONTINUOUS
10
2.23337
20
0.641749
11
2.23504
21
0.642441
0
LINE
8
BLACK
6
CONTINUOUS
10
2.23504
20
0.642441
11
2.30984
21
0.642441
0
LINE
8
BLACK
6
CONTINUOUS
10
2.30984
20
0.642441
11
2.31151
21
0.641749
0
LINE
8
BLACK
6
CONTINUOUS
10
2.12659
20
0.655205
11
2.12728
21
0.653535
0
LINE
8
BLACK
6
CONTINUOUS
10
2.12728
20
0.653535
11
2.12728
21
0.642465
0
LINE
8
BLACK
6
CONTINUOUS
10
2.12728
20
0.642465
11
2.12659
21
0.640795
0
LINE
8
BLACK
6
CONTINUOUS
10
2.12659
20
0.640795
11
2.12492
21
0.640103
0
LINE
8
BLACK
6
CONTINUOUS
10
2.12492
20
0.640103
11
2.12325
21
0.640795
0
LINE
8
BLACK
6
CONTINUOUS
10
2.12325
20
0.640795
11
2.12256
21
0.642465
0
LINE
8
BLACK
6
CONTINUOUS
10
2.12256
20
0.642465
11
2.12256
21
0.653535
0
LINE
8
BLACK
6
CONTINUOUS
10
2.12256
20
0.653535
11
2.12325
21
0.655205
0
LINE
8
BLACK
6
CONTINUOUS
10
2.12325
20
0.655205
11
2.12492
21
0.655897
0
LINE
8
BLACK
6
CONTINUOUS
10
2.12492
20
0.655897
11
2.12659
21
0.655205
0
LINE
8
BLACK
6
CONTINUOUS
10
2.16675
20
0.655205
11
2.16744
21
0.653535
0
LINE
8
BLACK
6
CONTINUOUS
10
2.16744
20
0.653535
11
2.16744
21
0.642465
0
LINE
8
BLACK
6
CONTINUOUS
10
2.16744
20
0.642465
11
2.16675
21
0.640795
0
LINE
8
BLACK
6
CONTINUOUS
10
2.16675
20
0.640795
11
2.16508
21
0.640103
0
LINE
8
BLACK
6
CONTINUOUS
10
2.16508
20
0.640103
11
2.16341
21
0.640795
0
LINE
8
BLACK
6
CONTINUOUS
10
2.16341
20
0.640795
11
2.16272
21
0.642465
0
LINE
8
BLACK
6
CONTINUOUS
10
2.16272
20
0.642465
11
2.16272
21
0.653535
0
LINE
8
BLACK
6
CONTINUOUS
10
2.16272
20
0.653535
11
2.16341
21
0.655205
0
LINE
8
BLACK
6
CONTINUOUS
10
2.16341
20
0.655205
11
2.16508
21
0.655897
0
LINE
8
BLACK
6
CONTINUOUS
10
2.16508
20
0.655897
11
2.16675
21
0.655205
0
LINE
8
BLACK
6
CONTINUOUS
10
2.03169
20
0.656749
11
2.03239
21
0.655079
0
LINE
8
BLACK
6
CONTINUOUS
10
2.03239
20
0.655079
11
2.03169
21
0.653408
0
LINE
8
BLACK
6
CONTINUOUS
10
2.03169
20
0.653408
11
2.03002
21
0.652717
0
LINE
8
BLACK
6
CONTINUOUS
10
2.03002
20
0.652717
11
2.01895
21
0.652717
0
LINE
8
BLACK
6
CONTINUOUS
10
2.01895
20
0.652717
11
2.01728
21
0.653408
0
LINE
8
BLACK
6
CONTINUOUS
10
2.01728
20
0.653408
11
2.01659
21
0.655079
0
LINE
8
BLACK
6
CONTINUOUS
10
2.01659
20
0.655079
11
2.01728
21
0.656749
0
LINE
8
BLACK
6
CONTINUOUS
10
2.01728
20
0.656749
11
2.01895
21
0.657441
0
LINE
8
BLACK
6
CONTINUOUS
10
2.01895
20
0.657441
11
2.03002
21
0.657441
0
LINE
8
BLACK
6
CONTINUOUS
10
2.03002
20
0.657441
11
2.03169
21
0.656749
0
LINE
8
BLACK
6
CONTINUOUS
10
1.92175
20
0.677205
11
1.92244
21
0.675535
0
LINE
8
BLACK
6
CONTINUOUS
10
1.92244
20
0.675535
11
1.92244
21
0.664465
0
LINE
8
BLACK
6
CONTINUOUS
10
1.92244
20
0.664465
11
1.92175
21
0.662795
0
LINE
8
BLACK
6
CONTINUOUS
10
1.92175
20
0.662795
11
1.92008
21
0.662103
0
LINE
8
BLACK
6
CONTINUOUS
10
1.92008
20
0.662103
11
1.91841
21
0.662795
0
LINE
8
BLACK
6
CONTINUOUS
10
1.91841
20
0.662795
11
1.91772
21
0.664465
0
LINE
8
BLACK
6
CONTINUOUS
10
1.91772
20
0.664465
11
1.91772
21
0.675535
0
LINE
8
BLACK
6
CONTINUOUS
10
1.91772
20
0.675535
11
1.91841
21
0.677205
0
LINE
8
BLACK
6
CONTINUOUS
10
1.91841
20
0.677205
11
1.92008
21
0.677897
0
LINE
8
BLACK
6
CONTINUOUS
10
1.92008
20
0.677897
11
1.92175
21
0.677205
0
LINE
8
BLACK
6
CONTINUOUS
10
1.88159
20
0.677205
11
1.88228
21
0.675535
0
LINE
8
BLACK
6
CONTINUOUS
10
1.88228
20
0.675535
11
1.88228
21
0.664465
0
LINE
8
BLACK
6
CONTINUOUS
10
1.88228
20
0.664465
11
1.88159
21
0.662795
0
LINE
8
BLACK
6
CONTINUOUS
10
1.88159
20
0.662795
11
1.87992
21
0.662103
0
LINE
8
BLACK
6
CONTINUOUS
10
1.87992
20
0.662103
11
1.87825
21
0.662795
0
LINE
8
BLACK
6
CONTINUOUS
10
1.87825
20
0.662795
11
1.87756
21
0.664465
0
LINE
8
BLACK
6
CONTINUOUS
10
1.87756
20
0.664465
11
1.87756
21
0.675535
0
LINE
8
BLACK
6
CONTINUOUS
10
1.87756
20
0.675535
11
1.87825
21
0.677205
0
LINE
8
BLACK
6
CONTINUOUS
10
1.87825
20
0.677205
11
1.87992
21
0.677897
0
LINE
8
BLACK
6
CONTINUOUS
10
1.87992
20
0.677897
11
1.88159
21
0.677205
0
LINE
8
BLACK
6
CONTINUOUS
10
2.03169
20
0.681592
11
2.03239
21
0.679921
0
LINE
8
BLACK
6
CONTINUOUS
10
2.03239
20
0.679921
11
2.03169
21
0.678251
0
LINE
8
BLACK
6
CONTINUOUS
10
2.03169
20
0.678251
11
2.03002
21
0.677559
0
LINE
8
BLACK
6
CONTINUOUS
10
2.03002
20
0.677559
11
2.01895
21
0.677559
0
LINE
8
BLACK
6
CONTINUOUS
10
2.01895
20
0.677559
11
2.01728
21
0.678251
0
LINE
8
BLACK
6
CONTINUOUS
10
2.01728
20
0.678251
11
2.01659
21
0.679921
0
LINE
8
BLACK
6
CONTINUOUS
10
2.01659
20
0.679921
11
2.01728
21
0.681592
0
LINE
8
BLACK
6
CONTINUOUS
10
2.01728
20
0.681592
11
2.01895
21
0.682283
0
LINE
8
BLACK
6
CONTINUOUS
10
2.01895
20
0.682283
11
2.03002
21
0.682283
0
LINE
8
BLACK
6
CONTINUOUS
10
2.03002
20
0.682283
11
2.03169
21
0.681592
0
LINE
8
BLACK
6
CONTINUOUS
10
1.12669
20
0.681749
11
1.12739
21
0.680079
0
LINE
8
BLACK
6
CONTINUOUS
10
1.12739
20
0.680079
11
1.12669
21
0.678408
0
LINE
8
BLACK
6
CONTINUOUS
10
1.12669
20
0.678408
11
1.12502
21
0.677717
0
LINE
8
BLACK
6
CONTINUOUS
10
1.12502
20
0.677717
11
1.11395
21
0.677717
0
LINE
8
BLACK
6
CONTINUOUS
10
1.11395
20
0.677717
11
1.11228
21
0.678408
0
LINE
8
BLACK
6
CONTINUOUS
10
1.11228
20
0.678408
11
1.11159
21
0.680079
0
LINE
8
BLACK
6
CONTINUOUS
10
1.11159
20
0.680079
11
1.11228
21
0.681749
0
LINE
8
BLACK
6
CONTINUOUS
10
1.11228
20
0.681749
11
1.11395
21
0.682441
0
LINE
8
BLACK
6
CONTINUOUS
10
1.11395
20
0.682441
11
1.12502
21
0.682441
0
LINE
8
BLACK
6
CONTINUOUS
10
1.12502
20
0.682441
11
1.12669
21
0.681749
0
LINE
8
BLACK
6
CONTINUOUS
10
1.24923
20
0.707615
11
1.24992
21
0.705945
0
LINE
8
BLACK
6
CONTINUOUS
10
1.24992
20
0.705945
11
1.24992
21
0.689606
0
LINE
8
BLACK
6
CONTINUOUS
10
1.24992
20
0.689606
11
1.26626
21
0.689606
0
LINE
8
BLACK
6
CONTINUOUS
10
1.26626
20
0.689606
11
1.26793
21
0.688914
0
LINE
8
BLACK
6
CONTINUOUS
10
1.26793
20
0.688914
11
1.26862
21
0.687244
0
LINE
8
BLACK
6
CONTINUOUS
10
1.26862
20
0.687244
11
1.26793
21
0.685574
0
LINE
8
BLACK
6
CONTINUOUS
10
1.26793
20
0.685574
11
1.26626
21
0.684882
0
LINE
8
BLACK
6
CONTINUOUS
10
1.26626
20
0.684882
11
1.24756
21
0.684882
0
LINE
8
BLACK
6
CONTINUOUS
10
1.24756
20
0.684882
11
1.24589
21
0.685574
0
LINE
8
BLACK
6
CONTINUOUS
10
1.24589
20
0.685574
11
1.2452
21
0.687244
0
LINE
8
BLACK
6
CONTINUOUS
10
1.2452
20
0.687244
11
1.2452
21
0.705945
0
LINE
8
BLACK
6
CONTINUOUS
10
1.2452
20
0.705945
11
1.24589
21
0.707615
0
LINE
8
BLACK
6
CONTINUOUS
10
1.24589
20
0.707615
11
1.24756
21
0.708307
0
LINE
8
BLACK
6
CONTINUOUS
10
1.24756
20
0.708307
11
1.24923
21
0.707615
0
LINE
8
BLACK
6
CONTINUOUS
10
1.47207
20
0.685574
11
1.47138
21
0.687244
0
LINE
8
BLACK
6
CONTINUOUS
10
1.47138
20
0.687244
11
1.47207
21
0.688914
0
LINE
8
BLACK
6
CONTINUOUS
10
1.47207
20
0.688914
11
1.47374
21
0.689606
0
LINE
8
BLACK
6
CONTINUOUS
10
1.47374
20
0.689606
11
1.49008
21
0.689606
0
LINE
8
BLACK
6
CONTINUOUS
10
1.49008
20
0.689606
11
1.49008
21
0.705945
0
LINE
8
BLACK
6
CONTINUOUS
10
1.49008
20
0.705945
11
1.49077
21
0.707615
0
LINE
8
BLACK
6
CONTINUOUS
10
1.49077
20
0.707615
11
1.49244
21
0.708307
0
LINE
8
BLACK
6
CONTINUOUS
10
1.49244
20
0.708307
11
1.49411
21
0.707615
0
LINE
8
BLACK
6
CONTINUOUS
10
1.49411
20
0.707615
11
1.4948
21
0.705945
0
LINE
8
BLACK
6
CONTINUOUS
10
1.4948
20
0.705945
11
1.4948
21
0.687244
0
LINE
8
BLACK
6
CONTINUOUS
10
1.4948
20
0.687244
11
1.49411
21
0.685574
0
LINE
8
BLACK
6
CONTINUOUS
10
1.49411
20
0.685574
11
1.49244
21
0.684882
0
LINE
8
BLACK
6
CONTINUOUS
10
1.49244
20
0.684882
11
1.47374
21
0.684882
0
LINE
8
BLACK
6
CONTINUOUS
10
1.47374
20
0.684882
11
1.47207
21
0.685574
0
LINE
8
BLACK
6
CONTINUOUS
10
1.71356
20
0.701386
11
1.72139
21
0.693559
0
LINE
8
BLACK
6
CONTINUOUS
10
1.72139
20
0.693559
11
1.72208
21
0.691889
0
LINE
8
BLACK
6
CONTINUOUS
10
1.72208
20
0.691889
11
1.72139
21
0.690218
0
LINE
8
BLACK
6
CONTINUOUS
10
1.72139
20
0.690218
11
1.71972
21
0.689526
0
LINE
8
BLACK
6
CONTINUOUS
10
1.71972
20
0.689526
11
1.71805
21
0.690218
0
LINE
8
BLACK
6
CONTINUOUS
10
1.71805
20
0.690218
11
1.71022
21
0.698045
0
LINE
8
BLACK
6
CONTINUOUS
10
1.71022
20
0.698045
11
1.70953
21
0.699716
0
LINE
8
BLACK
6
CONTINUOUS
10
1.70953
20
0.699716
11
1.71022
21
0.701386
0
LINE
8
BLACK
6
CONTINUOUS
10
1.71022
20
0.701386
11
1.71189
21
0.702078
0
LINE
8
BLACK
6
CONTINUOUS
10
1.71189
20
0.702078
11
1.71356
21
0.701386
0
LINE
8
BLACK
6
CONTINUOUS
10
1.64562
20
0.719956
11
1.64631
21
0.718286
0
LINE
8
BLACK
6
CONTINUOUS
10
1.64631
20
0.718286
11
1.64631
21
0.697714
0
LINE
8
BLACK
6
CONTINUOUS
10
1.64631
20
0.697714
11
1.64562
21
0.696044
0
LINE
8
BLACK
6
CONTINUOUS
10
1.64562
20
0.696044
11
1.64395
21
0.695352
0
LINE
8
BLACK
6
CONTINUOUS
10
1.64395
20
0.695352
11
1.64228
21
0.696044
0
LINE
8
BLACK
6
CONTINUOUS
10
1.64228
20
0.696044
11
1.64159
21
0.697714
0
LINE
8
BLACK
6
CONTINUOUS
10
1.64159
20
0.697714
11
1.64159
21
0.718286
0
LINE
8
BLACK
6
CONTINUOUS
10
1.64159
20
0.718286
11
1.64228
21
0.719956
0
LINE
8
BLACK
6
CONTINUOUS
10
1.64228
20
0.719956
11
1.64395
21
0.720648
0
LINE
8
BLACK
6
CONTINUOUS
10
1.64395
20
0.720648
11
1.64562
21
0.719956
0
LINE
8
BLACK
6
CONTINUOUS
10
1.58972
20
0.719956
11
1.59041
21
0.718286
0
LINE
8
BLACK
6
CONTINUOUS
10
1.59041
20
0.718286
11
1.59041
21
0.697714
0
LINE
8
BLACK
6
CONTINUOUS
10
1.59041
20
0.697714
11
1.58972
21
0.696044
0
LINE
8
BLACK
6
CONTINUOUS
10
1.58972
20
0.696044
11
1.58805
21
0.695352
0
LINE
8
BLACK
6
CONTINUOUS
10
1.58805
20
0.695352
11
1.58638
21
0.696044
0
LINE
8
BLACK
6
CONTINUOUS
10
1.58638
20
0.696044
11
1.58569
21
0.697714
0
LINE
8
BLACK
6
CONTINUOUS
10
1.58569
20
0.697714
11
1.58569
21
0.718286
0
LINE
8
BLACK
6
CONTINUOUS
10
1.58569
20
0.718286
11
1.58638
21
0.719956
0
LINE
8
BLACK
6
CONTINUOUS
10
1.58638
20
0.719956
11
1.58805
21
0.720648
0
LINE
8
BLACK
6
CONTINUOUS
10
1.58805
20
0.720648
11
1.58972
21
0.719956
0
LINE
8
BLACK
6
CONTINUOUS
10
1.12669
20
0.711592
11
1.12739
21
0.709921
0
LINE
8
BLACK
6
CONTINUOUS
10
1.12739
20
0.709921
11
1.12669
21
0.708251
0
LINE
8
BLACK
6
CONTINUOUS
10
1.12669
20
0.708251
11
1.12502
21
0.707559
0
LINE
8
BLACK
6
CONTINUOUS
10
1.12502
20
0.707559
11
1.11395
21
0.707559
0
LINE
8
BLACK
6
CONTINUOUS
10
1.11395
20
0.707559
11
1.11228
21
0.708251
0
LINE
8
BLACK
6
CONTINUOUS
10
1.11228
20
0.708251
11
1.11159
21
0.709921
0
LINE
8
BLACK
6
CONTINUOUS
10
1.11159
20
0.709921
11
1.11228
21
0.711592
0
LINE
8
BLACK
6
CONTINUOUS
10
1.11228
20
0.711592
11
1.11395
21
0.712283
0
LINE
8
BLACK
6
CONTINUOUS
10
1.11395
20
0.712283
11
1.12502
21
0.712283
0
LINE
8
BLACK
6
CONTINUOUS
10
1.12502
20
0.712283
11
1.12669
21
0.711592
0
LINE
8
BLACK
6
CONTINUOUS
10
2.03169
20
0.721749
11
2.03239
21
0.720079
0
LINE
8
BLACK
6
CONTINUOUS
10
2.03239
20
0.720079
11
2.03169
21
0.718408
0
LINE
8
BLACK
6
CONTINUOUS
10
2.03169
20
0.718408
11
2.03002
21
0.717717
0
LINE
8
BLACK
6
CONTINUOUS
10
2.03002
20
0.717717
11
2.01895
21
0.717717
0
LINE
8
BLACK
6
CONTINUOUS
10
2.01895
20
0.717717
11
2.01728
21
0.718408
0
LINE
8
BLACK
6
CONTINUOUS
10
2.01728
20
0.718408
11
2.01659
21
0.720079
0
LINE
8
BLACK
6
CONTINUOUS
10
2.01659
20
0.720079
11
2.01728
21
0.721749
0
LINE
8
BLACK
6
CONTINUOUS
10
2.01728
20
0.721749
11
2.01895
21
0.722441
0
LINE
8
BLACK
6
CONTINUOUS
10
2.01895
20
0.722441
11
2.03002
21
0.722441
0
LINE
8
BLACK
6
CONTINUOUS
10
2.03002
20
0.722441
11
2.03169
21
0.721749
0
LINE
8
BLACK
6
CONTINUOUS
10
1.74195
20
0.729782
11
1.74978
21
0.721955
0
LINE
8
BLACK
6
CONTINUOUS
10
1.74978
20
0.721955
11
1.75047
21
0.720284
0
LINE
8
BLACK
6
CONTINUOUS
10
1.75047
20
0.720284
11
1.74978
21
0.718614
0
LINE
8
BLACK
6
CONTINUOUS
10
1.74978
20
0.718614
11
1.74811
21
0.717922
0
LINE
8
BLACK
6
CONTINUOUS
10
1.74811
20
0.717922
11
1.74644
21
0.718614
0
LINE
8
BLACK
6
CONTINUOUS
10
1.74644
20
0.718614
11
1.73861
21
0.726441
0
LINE
8
BLACK
6
CONTINUOUS
10
1.73861
20
0.726441
11
1.73792
21
0.728111
0
LINE
8
BLACK
6
CONTINUOUS
10
1.73792
20
0.728111
11
1.73861
21
0.729782
0
LINE
8
BLACK
6
CONTINUOUS
10
1.73861
20
0.729782
11
1.74028
21
0.730474
0
LINE
8
BLACK
6
CONTINUOUS
10
1.74028
20
0.730474
11
1.74195
21
0.729782
0
LINE
8
BLACK
6
CONTINUOUS
10
2.26659
20
0.741693
11
2.26728
21
0.740023
0
LINE
8
BLACK
6
CONTINUOUS
10
2.26728
20
0.740023
11
2.26728
21
0.728954
0
LINE
8
BLACK
6
CONTINUOUS
10
2.26728
20
0.728954
11
2.26659
21
0.727283
0
LINE
8
BLACK
6
CONTINUOUS
10
2.26659
20
0.727283
11
2.26492
21
0.726591
0
LINE
8
BLACK
6
CONTINUOUS
10
2.26492
20
0.726591
11
2.26325
21
0.727283
0
LINE
8
BLACK
6
CONTINUOUS
10
2.26325
20
0.727283
11
2.26256
21
0.728954
0
LINE
8
BLACK
6
CONTINUOUS
10
2.26256
20
0.728954
11
2.26256
21
0.740023
0
LINE
8
BLACK
6
CONTINUOUS
10
2.26256
20
0.740023
11
2.26325
21
0.741693
0
LINE
8
BLACK
6
CONTINUOUS
10
2.26325
20
0.741693
11
2.26492
21
0.742385
0
LINE
8
BLACK
6
CONTINUOUS
10
2.26492
20
0.742385
11
2.26659
21
0.741693
0
LINE
8
BLACK
6
CONTINUOUS
10
2.30675
20
0.741693
11
2.30744
21
0.740023
0
LINE
8
BLACK
6
CONTINUOUS
10
2.30744
20
0.740023
11
2.30744
21
0.728954
0
LINE
8
BLACK
6
CONTINUOUS
10
2.30744
20
0.728954
11
2.30675
21
0.727283
0
LINE
8
BLACK
6
CONTINUOUS
10
2.30675
20
0.727283
11
2.30508
21
0.726591
0
LINE
8
BLACK
6
CONTINUOUS
10
2.30508
20
0.726591
11
2.30341
21
0.727283
0
LINE
8
BLACK
6
CONTINUOUS
10
2.30341
20
0.727283
11
2.30272
21
0.728954
0
LINE
8
BLACK
6
CONTINUOUS
10
2.30272
20
0.728954
11
2.30272
21
0.740023
0
LINE
8
BLACK
6
CONTINUOUS
10
2.30272
20
0.740023
11
2.30341
21
0.741693
0
LINE
8
BLACK
6
CONTINUOUS
10
2.30341
20
0.741693
11
2.30508
21
0.742385
0
LINE
8
BLACK
6
CONTINUOUS
10
2.30508
20
0.742385
11
2.30675
21
0.741693
0
LINE
8
BLACK
6
CONTINUOUS
10
2.75758
20
1.03021
11
2.75827
21
1.02854
0
LINE
8
BLACK
6
CONTINUOUS
10
2.75827
20
1.02854
11
2.75758
21
1.02687
0
LINE
8
BLACK
6
CONTINUOUS
10
2.75758
20
1.02687
11
2.75591
21
1.02618
0
LINE
8
BLACK
6
CONTINUOUS
10
2.75591
20
1.02618
11
2.37244
21
1.02618
0
LINE
8
BLACK
6
CONTINUOUS
10
2.37244
20
1.02618
11
2.37244
21
0.745472
0
LINE
8
BLACK
6
CONTINUOUS
10
2.37244
20
0.745472
11
2.75591
21
0.745472
0
LINE
8
BLACK
6
CONTINUOUS
10
2.75591
20
0.745472
11
2.75758
21
0.744781
0
LINE
8
BLACK
6
CONTINUOUS
10
2.75758
20
0.744781
11
2.75827
21
0.74311
0
LINE
8
BLACK
6
CONTINUOUS
10
2.75827
20
0.74311
11
2.75758
21
0.74144
0
LINE
8
BLACK
6
CONTINUOUS
10
2.75758
20
0.74144
11
2.75591
21
0.740748
0
LINE
8
BLACK
6
CONTINUOUS
10
2.75591
20
0.740748
11
2.37008
21
0.740748
0
LINE
8
BLACK
6
CONTINUOUS
10
2.37008
20
0.740748
11
2.36841
21
0.74144
0
LINE
8
BLACK
6
CONTINUOUS
10
2.36841
20
0.74144
11
2.36772
21
0.74311
0
LINE
8
BLACK
6
CONTINUOUS
10
2.36772
20
0.74311
11
2.36772
21
1.02854
0
LINE
8
BLACK
6
CONTINUOUS
10
2.36772
20
1.02854
11
2.36841
21
1.03021
0
LINE
8
BLACK
6
CONTINUOUS
10
2.36841
20
1.03021
11
2.37008
21
1.03091
0
LINE
8
BLACK
6
CONTINUOUS
10
2.37008
20
1.03091
11
2.75591
21
1.03091
0
LINE
8
BLACK
6
CONTINUOUS
10
2.75591
20
1.03091
11
2.75758
21
1.03021
0
LINE
8
BLACK
6
CONTINUOUS
10
1.98535
20
0.763848
11
1.98841
21
0.761799
0
LINE
8
BLACK
6
CONTINUOUS
10
1.98841
20
0.761799
11
1.99046
21
0.758734
0
LINE
8
BLACK
6
CONTINUOUS
10
1.99046
20
0.758734
11
1.99118
21
0.755118
0
LINE
8
BLACK
6
CONTINUOUS
10
1.99118
20
0.755118
11
1.99046
21
0.751502
0
LINE
8
BLACK
6
CONTINUOUS
10
1.99046
20
0.751502
11
1.98841
21
0.748437
0
LINE
8
BLACK
6
CONTINUOUS
10
1.98841
20
0.748437
11
1.98535
21
0.746389
0
LINE
8
BLACK
6
CONTINUOUS
10
1.98535
20
0.746389
11
1.98173
21
0.745669
0
LINE
8
BLACK
6
CONTINUOUS
10
1.98173
20
0.745669
11
1.97812
21
0.746389
0
LINE
8
BLACK
6
CONTINUOUS
10
1.97812
20
0.746389
11
1.97505
21
0.748437
0
LINE
8
BLACK
6
CONTINUOUS
10
1.97505
20
0.748437
11
1.973
21
0.751502
0
LINE
8
BLACK
6
CONTINUOUS
10
1.973
20
0.751502
11
1.97228
21
0.755118
0
LINE
8
BLACK
6
CONTINUOUS
10
1.97228
20
0.755118
11
1.973
21
0.758734
0
LINE
8
BLACK
6
CONTINUOUS
10
1.973
20
0.758734
11
1.97505
21
0.761799
0
LINE
8
BLACK
6
CONTINUOUS
10
1.97505
20
0.761799
11
1.97812
21
0.763848
0
LINE
8
BLACK
6
CONTINUOUS
10
1.97812
20
0.763848
11
1.98173
21
0.764567
0
LINE
8
BLACK
6
CONTINUOUS
10
1.98173
20
0.764567
11
1.98535
21
0.763848
0
LINE
8
BLACK
6
CONTINUOUS
10
1.12669
20
0.751749
11
1.12739
21
0.750079
0
LINE
8
BLACK
6
CONTINUOUS
10
1.12739
20
0.750079
11
1.12669
21
0.748408
0
LINE
8
BLACK
6
CONTINUOUS
10
1.12669
20
0.748408
11
1.12502
21
0.747717
0
LINE
8
BLACK
6
CONTINUOUS
10
1.12502
20
0.747717
11
1.11395
21
0.747717
0
LINE
8
BLACK
6
CONTINUOUS
10
1.11395
20
0.747717
11
1.11228
21
0.748408
0
LINE
8
BLACK
6
CONTINUOUS
10
1.11228
20
0.748408
11
1.11159
21
0.750079
0
LINE
8
BLACK
6
CONTINUOUS
10
1.11159
20
0.750079
11
1.11228
21
0.751749
0
LINE
8
BLACK
6
CONTINUOUS
10
1.11228
20
0.751749
11
1.11395
21
0.752441
0
LINE
8
BLACK
6
CONTINUOUS
10
1.11395
20
0.752441
11
1.12502
21
0.752441
0
LINE
8
BLACK
6
CONTINUOUS
10
1.12502
20
0.752441
11
1.12669
21
0.751749
0
LINE
8
BLACK
6
CONTINUOUS
10
1.97657
20
0.92161
11
1.9773
21
0.919843
0
LINE
8
BLACK
6
CONTINUOUS
10
1.9773
20
0.919843
11
1.9773
21
0.770236
0
LINE
8
BLACK
6
CONTINUOUS
10
1.9773
20
0.770236
11
1.97657
21
0.768468
0
LINE
8
BLACK
6
CONTINUOUS
10
1.97657
20
0.768468
11
1.9748
21
0.767736
0
LINE
8
BLACK
6
CONTINUOUS
10
1.9748
20
0.767736
11
1.97304
21
0.768468
0
LINE
8
BLACK
6
CONTINUOUS
10
1.97304
20
0.768468
11
1.9723
21
0.770236
0
LINE
8
BLACK
6
CONTINUOUS
10
1.9723
20
0.770236
11
1.9723
21
0.919843
0
LINE
8
BLACK
6
CONTINUOUS
10
1.9723
20
0.919843
11
1.97304
21
0.92161
0
LINE
8
BLACK
6
CONTINUOUS
10
1.97304
20
0.92161
11
1.9748
21
0.922343
0
LINE
8
BLACK
6
CONTINUOUS
10
1.9748
20
0.922343
11
1.97657
21
0.92161
0
LINE
8
BLACK
6
CONTINUOUS
10
1.82696
20
0.92161
11
1.8277
21
0.919843
0
LINE
8
BLACK
6
CONTINUOUS
10
1.8277
20
0.919843
11
1.8277
21
0.770236
0
LINE
8
BLACK
6
CONTINUOUS
10
1.8277
20
0.770236
11
1.82696
21
0.768468
0
LINE
8
BLACK
6
CONTINUOUS
10
1.82696
20
0.768468
11
1.8252
21
0.767736
0
LINE
8
BLACK
6
CONTINUOUS
10
1.8252
20
0.767736
11
1.82343
21
0.768468
0
LINE
8
BLACK
6
CONTINUOUS
10
1.82343
20
0.768468
11
1.8227
21
0.770236
0
LINE
8
BLACK
6
CONTINUOUS
10
1.8227
20
0.770236
11
1.8227
21
0.919843
0
LINE
8
BLACK
6
CONTINUOUS
10
1.8227
20
0.919843
11
1.82343
21
0.92161
0
LINE
8
BLACK
6
CONTINUOUS
10
1.82343
20
0.92161
11
1.8252
21
0.922343
0
LINE
8
BLACK
6
CONTINUOUS
10
1.8252
20
0.922343
11
1.82696
21
0.92161
0
LINE
8
BLACK
6
CONTINUOUS
10
2.3567
20
0.825016
11
2.35857
21
0.823141
0
LINE
8
BLACK
6
CONTINUOUS
10
2.35857
20
0.823141
11
2.35908
21
0.822418
0
LINE
8
BLACK
6
CONTINUOUS
10
2.35908
20
0.822418
11
2.35913
21
0.822374
0
LINE
8
BLACK
6
CONTINUOUS
10
2.35913
20
0.822374
11
2.361
21
0.818625
0
LINE
8
BLACK
6
CONTINUOUS
10
2.361
20
0.818625
11
2.36129
21
0.817642
0
LINE
8
BLACK
6
CONTINUOUS
10
2.36129
20
0.817642
11
2.36125
21
0.81747
0
LINE
8
BLACK
6
CONTINUOUS
10
2.36125
20
0.81747
11
2.36131
21
0.817304
0
LINE
8
BLACK
6
CONTINUOUS
10
2.36131
20
0.817304
11
2.36131
21
0.806055
0
LINE
8
BLACK
6
CONTINUOUS
10
2.36131
20
0.806055
11
2.36114
21
0.805046
0
LINE
8
BLACK
6
CONTINUOUS
10
2.36114
20
0.805046
11
2.36102
21
0.80491
0
LINE
8
BLACK
6
CONTINUOUS
10
2.36102
20
0.80491
11
2.361
21
0.804735
0
LINE
8
BLACK
6
CONTINUOUS
10
2.361
20
0.804735
11
2.35913
21
0.800985
0
LINE
8
BLACK
6
CONTINUOUS
10
2.35913
20
0.800985
11
2.3586
21
0.800276
0
LINE
8
BLACK
6
CONTINUOUS
10
2.3586
20
0.800276
11
2.35857
21
0.800218
0
LINE
8
BLACK
6
CONTINUOUS
10
2.35857
20
0.800218
11
2.3567
21
0.798343
0
LINE
8
BLACK
6
CONTINUOUS
10
2.3567
20
0.798343
11
2.35598
21
0.797837
0
LINE
8
BLACK
6
CONTINUOUS
10
2.35598
20
0.797837
11
2.35593
21
0.79779
0
LINE
8
BLACK
6
CONTINUOUS
10
2.35593
20
0.79779
11
2.35218
21
0.795915
0
LINE
8
BLACK
6
CONTINUOUS
10
2.35218
20
0.795915
11
2.3512
21
0.795623
0
LINE
8
BLACK
6
CONTINUOUS
10
2.3512
20
0.795623
11
2.35103
21
0.795664
0
LINE
8
BLACK
6
CONTINUOUS
10
2.35103
20
0.795664
11
2.35086
21
0.795604
0
LINE
8
BLACK
6
CONTINUOUS
10
2.35086
20
0.795604
11
2.34149
21
0.795604
0
LINE
8
BLACK
6
CONTINUOUS
10
2.34149
20
0.795604
11
2.34048
21
0.795782
0
LINE
8
BLACK
6
CONTINUOUS
10
2.34048
20
0.795782
11
2.34034
21
0.795895
0
LINE
8
BLACK
6
CONTINUOUS
10
2.34034
20
0.795895
11
2.34017
21
0.795915
0
LINE
8
BLACK
6
CONTINUOUS
10
2.34017
20
0.795915
11
2.33642
21
0.79779
0
LINE
8
BLACK
6
CONTINUOUS
10
2.33642
20
0.79779
11
2.33571
21
0.798316
0
LINE
8
BLACK
6
CONTINUOUS
10
2.33571
20
0.798316
11
2.33565
21
0.798343
0
LINE
8
BLACK
6
CONTINUOUS
10
2.33565
20
0.798343
11
2.33378
21
0.800218
0
LINE
8
BLACK
6
CONTINUOUS
10
2.33378
20
0.800218
11
2.33327
21
0.800941
0
LINE
8
BLACK
6
CONTINUOUS
10
2.33327
20
0.800941
11
2.33322
21
0.800985
0
LINE
8
BLACK
6
CONTINUOUS
10
2.33322
20
0.800985
11
2.33135
21
0.804735
0
LINE
8
BLACK
6
CONTINUOUS
10
2.33135
20
0.804735
11
2.33118
21
0.805299
0
LINE
8
BLACK
6
CONTINUOUS
10
2.33118
20
0.805299
11
2.32094
21
0.796334
0
LINE
8
BLACK
6
CONTINUOUS
10
2.32094
20
0.796334
11
2.32056
21
0.796104
0
LINE
8
BLACK
6
CONTINUOUS
10
2.32056
20
0.796104
11
2.32047
21
0.795999
0
LINE
8
BLACK
6
CONTINUOUS
10
2.32047
20
0.795999
11
2.32035
21
0.795978
0
LINE
8
BLACK
6
CONTINUOUS
10
2.32035
20
0.795978
11
2.32006
21
0.795803
0
LINE
8
BLACK
6
CONTINUOUS
10
2.32006
20
0.795803
11
2.31926
21
0.795787
0
LINE
8
BLACK
6
CONTINUOUS
10
2.31926
20
0.795787
11
2.31848
21
0.795649
0
LINE
8
BLACK
6
CONTINUOUS
10
2.31848
20
0.795649
11
2.31827
21
0.795766
0
LINE
8
BLACK
6
CONTINUOUS
10
2.31827
20
0.795766
11
2.31804
21
0.795761
0
LINE
8
BLACK
6
CONTINUOUS
10
2.31804
20
0.795761
11
2.31742
21
0.79626
0
LINE
8
BLACK
6
CONTINUOUS
10
2.31742
20
0.79626
11
2.31673
21
0.796658
0
LINE
8
BLACK
6
CONTINUOUS
10
2.31673
20
0.796658
11
2.31665
21
0.79688
0
LINE
8
BLACK
6
CONTINUOUS
10
2.31665
20
0.79688
11
2.31647
21
0.797027
0
LINE
8
BLACK
6
CONTINUOUS
10
2.31647
20
0.797027
11
2.31631
21
0.797808
0
LINE
8
BLACK
6
CONTINUOUS
10
2.31631
20
0.797808
11
2.31604
21
0.798556
0
LINE
8
BLACK
6
CONTINUOUS
10
2.31604
20
0.798556
11
2.31604
21
0.822928
0
LINE
8
BLACK
6
CONTINUOUS
10
2.31604
20
0.822928
11
2.31622
21
0.823938
0
LINE
8
BLACK
6
CONTINUOUS
10
2.31622
20
0.823938
11
2.31751
21
0.825486
0
LINE
8
BLACK
6
CONTINUOUS
10
2.31751
20
0.825486
11
2.3195
21
0.825836
0
LINE
8
BLACK
6
CONTINUOUS
10
2.3195
20
0.825836
11
2.32125
21
0.824826
0
LINE
8
BLACK
6
CONTINUOUS
10
2.32125
20
0.824826
11
2.32194
21
0.822928
0
LINE
8
BLACK
6
CONTINUOUS
10
2.32194
20
0.822928
11
2.32194
21
0.805064
0
LINE
8
BLACK
6
CONTINUOUS
10
2.32194
20
0.805064
11
2.33205
21
0.813902
0
LINE
8
BLACK
6
CONTINUOUS
10
2.33205
20
0.813902
11
2.33242
21
0.814132
0
LINE
8
BLACK
6
CONTINUOUS
10
2.33242
20
0.814132
11
2.33251
21
0.814237
0
LINE
8
BLACK
6
CONTINUOUS
10
2.33251
20
0.814237
11
2.33263
21
0.814258
0
LINE
8
BLACK
6
CONTINUOUS
10
2.33263
20
0.814258
11
2.33292
21
0.814433
0
LINE
8
BLACK
6
CONTINUOUS
10
2.33292
20
0.814433
11
2.33372
21
0.814449
0
LINE
8
BLACK
6
CONTINUOUS
10
2.33372
20
0.814449
11
2.3345
21
0.814588
0
LINE
8
BLACK
6
CONTINUOUS
10
2.3345
20
0.814588
11
2.33471
21
0.81447
0
LINE
8
BLACK
6
CONTINUOUS
10
2.33471
20
0.81447
11
2.33494
21
0.814475
0
LINE
8
BLACK
6
CONTINUOUS
10
2.33494
20
0.814475
11
2.33556
21
0.813976
0
LINE
8
BLACK
6
CONTINUOUS
10
2.33556
20
0.813976
11
2.33625
21
0.813578
0
LINE
8
BLACK
6
CONTINUOUS
10
2.33625
20
0.813578
11
2.33633
21
0.813356
0
LINE
8
BLACK
6
CONTINUOUS
10
2.33633
20
0.813356
11
2.33652
21
0.813209
0
LINE
8
BLACK
6
CONTINUOUS
10
2.33652
20
0.813209
11
2.33667
21
0.812428
0
LINE
8
BLACK
6
CONTINUOUS
10
2.33667
20
0.812428
11
2.33694
21
0.81168
0
LINE
8
BLACK
6
CONTINUOUS
10
2.33694
20
0.81168
11
2.33694
21
0.806753
0
LINE
8
BLACK
6
CONTINUOUS
10
2.33694
20
0.806753
11
2.33829
21
0.804055
0
LINE
8
BLACK
6
CONTINUOUS
10
2.33829
20
0.804055
11
2.33949
21
0.802858
0
LINE
8
BLACK
6
CONTINUOUS
10
2.33949
20
0.802858
11
2.34219
21
0.801509
0
LINE
8
BLACK
6
CONTINUOUS
10
2.34219
20
0.801509
11
2.35017
21
0.801509
0
LINE
8
BLACK
6
CONTINUOUS
10
2.35017
20
0.801509
11
2.35286
21
0.802858
0
LINE
8
BLACK
6
CONTINUOUS
10
2.35286
20
0.802858
11
2.35406
21
0.804055
0
LINE
8
BLACK
6
CONTINUOUS
10
2.35406
20
0.804055
11
2.35541
21
0.806753
0
LINE
8
BLACK
6
CONTINUOUS
10
2.35541
20
0.806753
11
2.35541
21
0.816607
0
LINE
8
BLACK
6
CONTINUOUS
10
2.35541
20
0.816607
11
2.35406
21
0.819304
0
LINE
8
BLACK
6
CONTINUOUS
10
2.35406
20
0.819304
11
2.35252
21
0.82084
0
LINE
8
BLACK
6
CONTINUOUS
10
2.35252
20
0.82084
11
2.35194
21
0.82168
0
LINE
8
BLACK
6
CONTINUOUS
10
2.35194
20
0.82168
11
2.35176
21
0.823693
0
LINE
8
BLACK
6
CONTINUOUS
10
2.35176
20
0.823693
11
2.35292
21
0.825347
0
LINE
8
BLACK
6
CONTINUOUS
10
2.35292
20
0.825347
11
2.35487
21
0.82587
0
LINE
8
BLACK
6
CONTINUOUS
10
2.35487
20
0.82587
11
2.3567
21
0.825016
0
LINE
8
BLACK
6
CONTINUOUS
10
1.7172
20
0.811592
11
1.7179
21
0.809921
0
LINE
8
BLACK
6
CONTINUOUS
10
1.7179
20
0.809921
11
1.7172
21
0.808251
0
LINE
8
BLACK
6
CONTINUOUS
10
1.7172
20
0.808251
11
1.71553
21
0.807559
0
LINE
8
BLACK
6
CONTINUOUS
10
1.71553
20
0.807559
11
1.70447
21
0.807559
0
LINE
8
BLACK
6
CONTINUOUS
10
1.70447
20
0.807559
11
1.7028
21
0.808251
0
LINE
8
BLACK
6
CONTINUOUS
10
1.7028
20
0.808251
11
1.7021
21
0.809921
0
LINE
8
BLACK
6
CONTINUOUS
10
1.7021
20
0.809921
11
1.7028
21
0.811592
0
LINE
8
BLACK
6
CONTINUOUS
10
1.7028
20
0.811592
11
1.70447
21
0.812283
0
LINE
8
BLACK
6
CONTINUOUS
10
1.70447
20
0.812283
11
1.71553
21
0.812283
0
LINE
8
BLACK
6
CONTINUOUS
10
1.71553
20
0.812283
11
1.7172
21
0.811592
0
LINE
8
BLACK
6
CONTINUOUS
10
2.36062
20
0.854823
11
2.36131
21
0.852925
0
LINE
8
BLACK
6
CONTINUOUS
10
2.36131
20
0.852925
11
2.36131
21
0.849175
0
LINE
8
BLACK
6
CONTINUOUS
10
2.36131
20
0.849175
11
2.36116
21
0.848306
0
LINE
8
BLACK
6
CONTINUOUS
10
2.36116
20
0.848306
11
2.36116
21
0.848241
0
LINE
8
BLACK
6
CONTINUOUS
10
2.36116
20
0.848241
11
2.35929
21
0.842617
0
LINE
8
BLACK
6
CONTINUOUS
10
2.35929
20
0.842617
11
2.3588
21
0.841715
0
LINE
8
BLACK
6
CONTINUOUS
10
2.3588
20
0.841715
11
2.35865
21
0.841623
0
LINE
8
BLACK
6
CONTINUOUS
10
2.35865
20
0.841623
11
2.35857
21
0.841463
0
LINE
8
BLACK
6
CONTINUOUS
10
2.35857
20
0.841463
11
2.35483
21
0.837713
0
LINE
8
BLACK
6
CONTINUOUS
10
2.35483
20
0.837713
11
2.35398
21
0.837125
0
LINE
8
BLACK
6
CONTINUOUS
10
2.35398
20
0.837125
11
2.35381
21
0.83711
0
LINE
8
BLACK
6
CONTINUOUS
10
2.35381
20
0.83711
11
2.35367
21
0.837
0
LINE
8
BLACK
6
CONTINUOUS
10
2.35367
20
0.837
11
2.34805
21
0.835125
0
LINE
8
BLACK
6
CONTINUOUS
10
2.34805
20
0.835125
11
2.34717
21
0.834996
0
LINE
8
BLACK
6
CONTINUOUS
10
2.34717
20
0.834996
11
2.34711
21
0.834974
0
LINE
8
BLACK
6
CONTINUOUS
10
2.34711
20
0.834974
11
2.31899
21
0.834974
0
LINE
8
BLACK
6
CONTINUOUS
10
2.31899
20
0.834974
11
2.31798
21
0.835152
0
LINE
8
BLACK
6
CONTINUOUS
10
2.31798
20
0.835152
11
2.31643
21
0.83645
0
LINE
8
BLACK
6
CONTINUOUS
10
2.31643
20
0.83645
11
2.31608
21
0.838439
0
LINE
8
BLACK
6
CONTINUOUS
10
2.31608
20
0.838439
11
2.31709
21
0.840188
0
LINE
8
BLACK
6
CONTINUOUS
10
2.31709
20
0.840188
11
2.31899
21
0.840879
0
LINE
8
BLACK
6
CONTINUOUS
10
2.31899
20
0.840879
11
2.34663
21
0.840879
0
LINE
8
BLACK
6
CONTINUOUS
10
2.34663
20
0.840879
11
2.35114
21
0.842382
0
LINE
8
BLACK
6
CONTINUOUS
10
2.35114
20
0.842382
11
2.35391
21
0.845146
0
LINE
8
BLACK
6
CONTINUOUS
10
2.35391
20
0.845146
11
2.35541
21
0.849654
0
LINE
8
BLACK
6
CONTINUOUS
10
2.35541
20
0.849654
11
2.35541
21
0.852925
0
LINE
8
BLACK
6
CONTINUOUS
10
2.35541
20
0.852925
11
2.35559
21
0.853935
0
LINE
8
BLACK
6
CONTINUOUS
10
2.35559
20
0.853935
11
2.35689
21
0.855482
0
LINE
8
BLACK
6
CONTINUOUS
10
2.35689
20
0.855482
11
2.35887
21
0.855833
0
LINE
8
BLACK
6
CONTINUOUS
10
2.35887
20
0.855833
11
2.36062
21
0.854823
0
LINE
8
BLACK
6
CONTINUOUS
10
1.1411
20
0.863491
11
1.14179
21
0.861821
0
LINE
8
BLACK
6
CONTINUOUS
10
1.14179
20
0.861821
11
1.14179
21
0.843139
0
LINE
8
BLACK
6
CONTINUOUS
10
1.14179
20
0.843139
11
1.1411
21
0.841469
0
LINE
8
BLACK
6
CONTINUOUS
10
1.1411
20
0.841469
11
1.13943
21
0.840777
0
LINE
8
BLACK
6
CONTINUOUS
10
1.13943
20
0.840777
11
1.13776
21
0.841469
0
LINE
8
BLACK
6
CONTINUOUS
10
1.13776
20
0.841469
11
1.13707
21
0.843139
0
LINE
8
BLACK
6
CONTINUOUS
10
1.13707
20
0.843139
11
1.13707
21
0.861821
0
LINE
8
BLACK
6
CONTINUOUS
10
1.13707
20
0.861821
11
1.13776
21
0.863491
0
LINE
8
BLACK
6
CONTINUOUS
10
1.13776
20
0.863491
11
1.13943
21
0.864183
0
LINE
8
BLACK
6
CONTINUOUS
10
1.13943
20
0.864183
11
1.1411
21
0.863491
0
LINE
8
BLACK
6
CONTINUOUS
10
1.18224
20
0.863491
11
1.18293
21
0.861821
0
LINE
8
BLACK
6
CONTINUOUS
10
1.18293
20
0.861821
11
1.18293
21
0.843139
0
LINE
8
BLACK
6
CONTINUOUS
10
1.18293
20
0.843139
11
1.18224
21
0.841469
0
LINE
8
BLACK
6
CONTINUOUS
10
1.18224
20
0.841469
11
1.18057
21
0.840777
0
LINE
8
BLACK
6
CONTINUOUS
10
1.18057
20
0.840777
11
1.1789
21
0.841469
0
LINE
8
BLACK
6
CONTINUOUS
10
1.1789
20
0.841469
11
1.17821
21
0.843139
0
LINE
8
BLACK
6
CONTINUOUS
10
1.17821
20
0.843139
11
1.17821
21
0.861821
0
LINE
8
BLACK
6
CONTINUOUS
10
1.17821
20
0.861821
11
1.1789
21
0.863491
0
LINE
8
BLACK
6
CONTINUOUS
10
1.1789
20
0.863491
11
1.18057
21
0.864183
0
LINE
8
BLACK
6
CONTINUOUS
10
1.18057
20
0.864183
11
1.18224
21
0.863491
0
LINE
8
BLACK
6
CONTINUOUS
10
1.55572
20
0.869956
11
1.55641
21
0.868286
0
LINE
8
BLACK
6
CONTINUOUS
10
1.55641
20
0.868286
11
1.55641
21
0.847714
0
LINE
8
BLACK
6
CONTINUOUS
10
1.55641
20
0.847714
11
1.55572
21
0.846044
0
LINE
8
BLACK
6
CONTINUOUS
10
1.55572
20
0.846044
11
1.55405
21
0.845352
0
LINE
8
BLACK
6
CONTINUOUS
10
1.55405
20
0.845352
11
1.55238
21
0.846044
0
LINE
8
BLACK
6
CONTINUOUS
10
1.55238
20
0.846044
11
1.55169
21
0.847714
0
LINE
8
BLACK
6
CONTINUOUS
10
1.55169
20
0.847714
11
1.55169
21
0.868286
0
LINE
8
BLACK
6
CONTINUOUS
10
1.55169
20
0.868286
11
1.55238
21
0.869956
0
LINE
8
BLACK
6
CONTINUOUS
10
1.55238
20
0.869956
11
1.55405
21
0.870648
0
LINE
8
BLACK
6
CONTINUOUS
10
1.55405
20
0.870648
11
1.55572
21
0.869956
0
LINE
8
BLACK
6
CONTINUOUS
10
1.61162
20
0.869956
11
1.61231
21
0.868286
0
LINE
8
BLACK
6
CONTINUOUS
10
1.61231
20
0.868286
11
1.61231
21
0.847714
0
LINE
8
BLACK
6
CONTINUOUS
10
1.61231
20
0.847714
11
1.61162
21
0.846044
0
LINE
8
BLACK
6
CONTINUOUS
10
1.61162
20
0.846044
11
1.60995
21
0.845352
0
LINE
8
BLACK
6
CONTINUOUS
10
1.60995
20
0.845352
11
1.60828
21
0.846044
0
LINE
8
BLACK
6
CONTINUOUS
10
1.60828
20
0.846044
11
1.60759
21
0.847714
0
LINE
8
BLACK
6
CONTINUOUS
10
1.60759
20
0.847714
11
1.60759
21
0.868286
0
LINE
8
BLACK
6
CONTINUOUS
10
1.60759
20
0.868286
11
1.60828
21
0.869956
0
LINE
8
BLACK
6
CONTINUOUS
10
1.60828
20
0.869956
11
1.60995
21
0.870648
0
LINE
8
BLACK
6
CONTINUOUS
10
1.60995
20
0.870648
11
1.61162
21
0.869956
0
LINE
8
BLACK
6
CONTINUOUS
10
1.7172
20
0.851749
11
1.7179
21
0.850079
0
LINE
8
BLACK
6
CONTINUOUS
10
1.7179
20
0.850079
11
1.7172
21
0.848408
0
LINE
8
BLACK
6
CONTINUOUS
10
1.7172
20
0.848408
11
1.71553
21
0.847717
0
LINE
8
BLACK
6
CONTINUOUS
10
1.71553
20
0.847717
11
1.70447
21
0.847717
0
LINE
8
BLACK
6
CONTINUOUS
10
1.70447
20
0.847717
11
1.7028
21
0.848408
0
LINE
8
BLACK
6
CONTINUOUS
10
1.7028
20
0.848408
11
1.7021
21
0.850079
0
LINE
8
BLACK
6
CONTINUOUS
10
1.7021
20
0.850079
11
1.7028
21
0.851749
0
LINE
8
BLACK
6
CONTINUOUS
10
1.7028
20
0.851749
11
1.70447
21
0.852441
0
LINE
8
BLACK
6
CONTINUOUS
10
1.70447
20
0.852441
11
1.71553
21
0.852441
0
LINE
8
BLACK
6
CONTINUOUS
10
1.71553
20
0.852441
11
1.7172
21
0.851749
0
LINE
8
BLACK
6
CONTINUOUS
10
2.356
20
0.909151
11
2.35669
21
0.90748
0
LINE
8
BLACK
6
CONTINUOUS
10
2.35669
20
0.90748
11
2.35669
21
0.864173
0
LINE
8
BLACK
6
CONTINUOUS
10
2.35669
20
0.864173
11
2.356
21
0.862503
0
LINE
8
BLACK
6
CONTINUOUS
10
2.356
20
0.862503
11
2.35433
21
0.861811
0
LINE
8
BLACK
6
CONTINUOUS
10
2.35433
20
0.861811
11
2.35266
21
0.862503
0
LINE
8
BLACK
6
CONTINUOUS
10
2.35266
20
0.862503
11
2.35197
21
0.864173
0
LINE
8
BLACK
6
CONTINUOUS
10
2.35197
20
0.864173
11
2.35197
21
0.90748
0
LINE
8
BLACK
6
CONTINUOUS
10
2.35197
20
0.90748
11
2.35266
21
0.909151
0
LINE
8
BLACK
6
CONTINUOUS
10
2.35266
20
0.909151
11
2.35433
21
0.909843
0
LINE
8
BLACK
6
CONTINUOUS
10
2.35433
20
0.909843
11
2.356
21
0.909151
0
LINE
8
BLACK
6
CONTINUOUS
10
1.24923
20
0.894426
11
1.24992
21
0.892756
0
LINE
8
BLACK
6
CONTINUOUS
10
1.24992
20
0.892756
11
1.24992
21
0.874055
0
LINE
8
BLACK
6
CONTINUOUS
10
1.24992
20
0.874055
11
1.24923
21
0.872385
0
LINE
8
BLACK
6
CONTINUOUS
10
1.24923
20
0.872385
11
1.24756
21
0.871693
0
LINE
8
BLACK
6
CONTINUOUS
10
1.24756
20
0.871693
11
1.24589
21
0.872385
0
LINE
8
BLACK
6
CONTINUOUS
10
1.24589
20
0.872385
11
1.2452
21
0.874055
0
LINE
8
BLACK
6
CONTINUOUS
10
1.2452
20
0.874055
11
1.2452
21
0.892756
0
LINE
8
BLACK
6
CONTINUOUS
10
1.2452
20
0.892756
11
1.24589
21
0.894426
0
LINE
8
BLACK
6
CONTINUOUS
10
1.24589
20
0.894426
11
1.24756
21
0.895118
0
LINE
8
BLACK
6
CONTINUOUS
10
1.24756
20
0.895118
11
1.24923
21
0.894426
0
LINE
8
BLACK
6
CONTINUOUS
10
1.49411
20
0.894426
11
1.4948
21
0.892756
0
LINE
8
BLACK
6
CONTINUOUS
10
1.4948
20
0.892756
11
1.4948
21
0.874055
0
LINE
8
BLACK
6
CONTINUOUS
10
1.4948
20
0.874055
11
1.49411
21
0.872385
0
LINE
8
BLACK
6
CONTINUOUS
10
1.49411
20
0.872385
11
1.49244
21
0.871693
0
LINE
8
BLACK
6
CONTINUOUS
10
1.49244
20
0.871693
11
1.49077
21
0.872385
0
LINE
8
BLACK
6
CONTINUOUS
10
1.49077
20
0.872385
11
1.49008
21
0.874055
0
LINE
8
BLACK
6
CONTINUOUS
10
1.49008
20
0.874055
11
1.49008
21
0.890394
0
LINE
8
BLACK
6
CONTINUOUS
10
1.49008
20
0.890394
11
1.47374
21
0.890394
0
LINE
8
BLACK
6
CONTINUOUS
10
1.47374
20
0.890394
11
1.47207
21
0.891086
0
LINE
8
BLACK
6
CONTINUOUS
10
1.47207
20
0.891086
11
1.47138
21
0.892756
0
LINE
8
BLACK
6
CONTINUOUS
10
1.47138
20
0.892756
11
1.47207
21
0.894426
0
LINE
8
BLACK
6
CONTINUOUS
10
1.47207
20
0.894426
11
1.47374
21
0.895118
0
LINE
8
BLACK
6
CONTINUOUS
10
1.47374
20
0.895118
11
1.49244
21
0.895118
0
LINE
8
BLACK
6
CONTINUOUS
10
1.49244
20
0.895118
11
1.49411
21
0.894426
0
LINE
8
BLACK
6
CONTINUOUS
10
2.21149
20
0.905768
11
2.2126
21
0.904082
0
LINE
8
BLACK
6
CONTINUOUS
10
2.2126
20
0.904082
11
2.21237
21
0.902076
0
LINE
8
BLACK
6
CONTINUOUS
10
2.21237
20
0.902076
11
2.21049
21
0.898326
0
LINE
8
BLACK
6
CONTINUOUS
10
2.21049
20
0.898326
11
2.20997
21
0.897617
0
LINE
8
BLACK
6
CONTINUOUS
10
2.20997
20
0.897617
11
2.20994
21
0.897559
0
LINE
8
BLACK
6
CONTINUOUS
10
2.20994
20
0.897559
11
2.20748
21
0.8951
0
LINE
8
BLACK
6
CONTINUOUS
10
2.20748
20
0.8951
11
2.2349
21
0.8951
0
LINE
8
BLACK
6
CONTINUOUS
10
2.2349
20
0.8951
11
2.2349
21
0.903396
0
LINE
8
BLACK
6
CONTINUOUS
10
2.2349
20
0.903396
11
2.23507
21
0.904406
0
LINE
8
BLACK
6
CONTINUOUS
10
2.23507
20
0.904406
11
2.23637
21
0.905953
0
LINE
8
BLACK
6
CONTINUOUS
10
2.23637
20
0.905953
11
2.23836
21
0.906304
0
LINE
8
BLACK
6
CONTINUOUS
10
2.23836
20
0.906304
11
2.24011
21
0.905294
0
LINE
8
BLACK
6
CONTINUOUS
10
2.24011
20
0.905294
11
2.2408
21
0.903396
0
LINE
8
BLACK
6
CONTINUOUS
10
2.2408
20
0.903396
11
2.2408
21
0.880899
0
LINE
8
BLACK
6
CONTINUOUS
10
2.2408
20
0.880899
11
2.24062
21
0.879889
0
LINE
8
BLACK
6
CONTINUOUS
10
2.24062
20
0.879889
11
2.23933
21
0.878342
0
LINE
8
BLACK
6
CONTINUOUS
10
2.23933
20
0.878342
11
2.23734
21
0.877991
0
LINE
8
BLACK
6
CONTINUOUS
10
2.23734
20
0.877991
11
2.23559
21
0.879001
0
LINE
8
BLACK
6
CONTINUOUS
10
2.23559
20
0.879001
11
2.2349
21
0.880899
0
LINE
8
BLACK
6
CONTINUOUS
10
2.2349
20
0.880899
11
2.2349
21
0.889195
0
LINE
8
BLACK
6
CONTINUOUS
10
2.2349
20
0.889195
11
2.19848
21
0.889195
0
LINE
8
BLACK
6
CONTINUOUS
10
2.19848
20
0.889195
11
2.19747
21
0.889373
0
LINE
8
BLACK
6
CONTINUOUS
10
2.19747
20
0.889373
11
2.19734
21
0.889482
0
LINE
8
BLACK
6
CONTINUOUS
10
2.19734
20
0.889482
11
2.19717
21
0.889501
0
LINE
8
BLACK
6
CONTINUOUS
10
2.19717
20
0.889501
11
2.19658
21
0.89012
0
LINE
8
BLACK
6
CONTINUOUS
10
2.19658
20
0.89012
11
2.19592
21
0.890671
0
LINE
8
BLACK
6
CONTINUOUS
10
2.19592
20
0.890671
11
2.19589
21
0.890838
0
LINE
8
BLACK
6
CONTINUOUS
10
2.19589
20
0.890838
11
2.19578
21
0.890961
0
LINE
8
BLACK
6
CONTINUOUS
10
2.19578
20
0.890961
11
2.19572
21
0.891816
0
LINE
8
BLACK
6
CONTINUOUS
10
2.19572
20
0.891816
11
2.19557
21
0.89266
0
LINE
8
BLACK
6
CONTINUOUS
10
2.19557
20
0.89266
11
2.19566
21
0.892807
0
LINE
8
BLACK
6
CONTINUOUS
10
2.19566
20
0.892807
11
2.19565
21
0.892977
0
LINE
8
BLACK
6
CONTINUOUS
10
2.19565
20
0.892977
11
2.19615
21
0.893667
0
LINE
8
BLACK
6
CONTINUOUS
10
2.19615
20
0.893667
11
2.19658
21
0.894409
0
LINE
8
BLACK
6
CONTINUOUS
10
2.19658
20
0.894409
11
2.19674
21
0.894468
0
LINE
8
BLACK
6
CONTINUOUS
10
2.19674
20
0.894468
11
2.19684
21
0.894604
0
LINE
8
BLACK
6
CONTINUOUS
10
2.19684
20
0.894604
11
2.20222
21
0.898192
0
LINE
8
BLACK
6
CONTINUOUS
10
2.20222
20
0.898192
11
2.20543
21
0.901396
0
LINE
8
BLACK
6
CONTINUOUS
10
2.20543
20
0.901396
11
2.20709
21
0.904717
0
LINE
8
BLACK
6
CONTINUOUS
10
2.20709
20
0.904717
11
2.2077
21
0.90554
0
LINE
8
BLACK
6
CONTINUOUS
10
2.2077
20
0.90554
11
2.20955
21
0.906344
0
LINE
8
BLACK
6
CONTINUOUS
10
2.20955
20
0.906344
11
2.21149
21
0.905768
0
LINE
8
BLACK
6
CONTINUOUS
10
1.07724
20
0.916011
11
1.07793
21
0.914341
0
LINE
8
BLACK
6
CONTINUOUS
10
1.07793
20
0.914341
11
1.07793
21
0.895659
0
LINE
8
BLACK
6
CONTINUOUS
10
1.07793
20
0.895659
11
1.07724
21
0.893989
0
LINE
8
BLACK
6
CONTINUOUS
10
1.07724
20
0.893989
11
1.07557
21
0.893297
0
LINE
8
BLACK
6
CONTINUOUS
10
1.07557
20
0.893297
11
1.0739
21
0.893989
0
LINE
8
BLACK
6
CONTINUOUS
10
1.0739
20
0.893989
11
1.07321
21
0.895659
0
LINE
8
BLACK
6
CONTINUOUS
10
1.07321
20
0.895659
11
1.07321
21
0.914341
0
LINE
8
BLACK
6
CONTINUOUS
10
1.07321
20
0.914341
11
1.0739
21
0.916011
0
LINE
8
BLACK
6
CONTINUOUS
10
1.0739
20
0.916011
11
1.07557
21
0.916703
0
LINE
8
BLACK
6
CONTINUOUS
10
1.07557
20
0.916703
11
1.07724
21
0.916011
0
LINE
8
BLACK
6
CONTINUOUS
10
1.0361
20
0.916011
11
1.03679
21
0.914341
0
LINE
8
BLACK
6
CONTINUOUS
10
1.03679
20
0.914341
11
1.03679
21
0.895659
0
LINE
8
BLACK
6
CONTINUOUS
10
1.03679
20
0.895659
11
1.0361
21
0.893989
0
LINE
8
BLACK
6
CONTINUOUS
10
1.0361
20
0.893989
11
1.03443
21
0.893297
0
LINE
8
BLACK
6
CONTINUOUS
10
1.03443
20
0.893297
11
1.03276
21
0.893989
0
LINE
8
BLACK
6
CONTINUOUS
10
1.03276
20
0.893989
11
1.03207
21
0.895659
0
LINE
8
BLACK
6
CONTINUOUS
10
1.03207
20
0.895659
11
1.03207
21
0.914341
0
LINE
8
BLACK
6
CONTINUOUS
10
1.03207
20
0.914341
11
1.03276
21
0.916011
0
LINE
8
BLACK
6
CONTINUOUS
10
1.03276
20
0.916011
11
1.03443
21
0.916703
0
LINE
8
BLACK
6
CONTINUOUS
10
1.03443
20
0.916703
11
1.0361
21
0.916011
0
LINE
8
BLACK
6
CONTINUOUS
10
0.956099
20
0.918491
11
0.956791
21
0.916821
0
LINE
8
BLACK
6
CONTINUOUS
10
0.956791
20
0.916821
11
0.956791
21
0.898139
0
LINE
8
BLACK
6
CONTINUOUS
10
0.956791
20
0.898139
11
0.956099
21
0.896469
0
LINE
8
BLACK
6
CONTINUOUS
10
0.956099
20
0.896469
11
0.954429
21
0.895777
0
LINE
8
BLACK
6
CONTINUOUS
10
0.954429
20
0.895777
11
0.952759
21
0.896469
0
LINE
8
BLACK
6
CONTINUOUS
10
0.952759
20
0.896469
11
0.952067
21
0.898139
0
LINE
8
BLACK
6
CONTINUOUS
10
0.952067
20
0.898139
11
0.952067
21
0.916821
0
LINE
8
BLACK
6
CONTINUOUS
10
0.952067
20
0.916821
11
0.952759
21
0.918491
0
LINE
8
BLACK
6
CONTINUOUS
10
0.952759
20
0.918491
11
0.954429
21
0.919183
0
LINE
8
BLACK
6
CONTINUOUS
10
0.954429
20
0.919183
11
0.956099
21
0.918491
0
LINE
8
BLACK
6
CONTINUOUS
10
0.997241
20
0.918491
11
0.997933
21
0.916821
0
LINE
8
BLACK
6
CONTINUOUS
10
0.997933
20
0.916821
11
0.997933
21
0.898139
0
LINE
8
BLACK
6
CONTINUOUS
10
0.997933
20
0.898139
11
0.997241
21
0.896469
0
LINE
8
BLACK
6
CONTINUOUS
10
0.997241
20
0.896469
11
0.995571
21
0.895777
0
LINE
8
BLACK
6
CONTINUOUS
10
0.995571
20
0.895777
11
0.993901
21
0.896469
0
LINE
8
BLACK
6
CONTINUOUS
10
0.993901
20
0.896469
11
0.993209
21
0.898139
0
LINE
8
BLACK
6
CONTINUOUS
10
0.993209
20
0.898139
11
0.993209
21
0.916821
0
LINE
8
BLACK
6
CONTINUOUS
10
0.993209
20
0.916821
11
0.993901
21
0.918491
0
LINE
8
BLACK
6
CONTINUOUS
10
0.993901
20
0.918491
11
0.995571
21
0.919183
0
LINE
8
BLACK
6
CONTINUOUS
10
0.995571
20
0.919183
11
0.997241
21
0.918491
0
LINE
8
BLACK
6
CONTINUOUS
10
2.25872
20
0.938787
11
2.25941
21
0.937116
0
LINE
8
BLACK
6
CONTINUOUS
10
2.25941
20
0.937116
11
2.25941
21
0.916545
0
LINE
8
BLACK
6
CONTINUOUS
10
2.25941
20
0.916545
11
2.25872
21
0.914875
0
LINE
8
BLACK
6
CONTINUOUS
10
2.25872
20
0.914875
11
2.25705
21
0.914183
0
LINE
8
BLACK
6
CONTINUOUS
10
2.25705
20
0.914183
11
2.25538
21
0.914875
0
LINE
8
BLACK
6
CONTINUOUS
10
2.25538
20
0.914875
11
2.25469
21
0.916545
0
LINE
8
BLACK
6
CONTINUOUS
10
2.25469
20
0.916545
11
2.25469
21
0.937116
0
LINE
8
BLACK
6
CONTINUOUS
10
2.25469
20
0.937116
11
2.25538
21
0.938787
0
LINE
8
BLACK
6
CONTINUOUS
10
2.25538
20
0.938787
11
2.25705
21
0.939478
0
LINE
8
BLACK
6
CONTINUOUS
10
2.25705
20
0.939478
11
2.25872
21
0.938787
0
LINE
8
BLACK
6
CONTINUOUS
10
2.31462
20
0.938787
11
2.31531
21
0.937116
0
LINE
8
BLACK
6
CONTINUOUS
10
2.31531
20
0.937116
11
2.31531
21
0.916545
0
LINE
8
BLACK
6
CONTINUOUS
10
2.31531
20
0.916545
11
2.31462
21
0.914875
0
LINE
8
BLACK
6
CONTINUOUS
10
2.31462
20
0.914875
11
2.31295
21
0.914183
0
LINE
8
BLACK
6
CONTINUOUS
10
2.31295
20
0.914183
11
2.31128
21
0.914875
0
LINE
8
BLACK
6
CONTINUOUS
10
2.31128
20
0.914875
11
2.31059
21
0.916545
0
LINE
8
BLACK
6
CONTINUOUS
10
2.31059
20
0.916545
11
2.31059
21
0.937116
0
LINE
8
BLACK
6
CONTINUOUS
10
2.31059
20
0.937116
11
2.31128
21
0.938787
0
LINE
8
BLACK
6
CONTINUOUS
10
2.31128
20
0.938787
11
2.31295
21
0.939478
0
LINE
8
BLACK
6
CONTINUOUS
10
2.31295
20
0.939478
11
2.31462
21
0.938787
0
LINE
8
BLACK
6
CONTINUOUS
10
2.21149
20
0.943263
11
2.2126
21
0.941577
0
LINE
8
BLACK
6
CONTINUOUS
10
2.2126
20
0.941577
11
2.21237
21
0.939571
0
LINE
8
BLACK
6
CONTINUOUS
10
2.21237
20
0.939571
11
2.21049
21
0.935821
0
LINE
8
BLACK
6
CONTINUOUS
10
2.21049
20
0.935821
11
2.20997
21
0.935112
0
LINE
8
BLACK
6
CONTINUOUS
10
2.20997
20
0.935112
11
2.20994
21
0.935054
0
LINE
8
BLACK
6
CONTINUOUS
10
2.20994
20
0.935054
11
2.20748
21
0.932596
0
LINE
8
BLACK
6
CONTINUOUS
10
2.20748
20
0.932596
11
2.2349
21
0.932596
0
LINE
8
BLACK
6
CONTINUOUS
10
2.2349
20
0.932596
11
2.2349
21
0.940891
0
LINE
8
BLACK
6
CONTINUOUS
10
2.2349
20
0.940891
11
2.23507
21
0.941901
0
LINE
8
BLACK
6
CONTINUOUS
10
2.23507
20
0.941901
11
2.23637
21
0.943449
0
LINE
8
BLACK
6
CONTINUOUS
10
2.23637
20
0.943449
11
2.23836
21
0.943799
0
LINE
8
BLACK
6
CONTINUOUS
10
2.23836
20
0.943799
11
2.24011
21
0.942789
0
LINE
8
BLACK
6
CONTINUOUS
10
2.24011
20
0.942789
11
2.2408
21
0.940891
0
LINE
8
BLACK
6
CONTINUOUS
10
2.2408
20
0.940891
11
2.2408
21
0.918394
0
LINE
8
BLACK
6
CONTINUOUS
10
2.2408
20
0.918394
11
2.24062
21
0.917384
0
LINE
8
BLACK
6
CONTINUOUS
10
2.24062
20
0.917384
11
2.23933
21
0.915837
0
LINE
8
BLACK
6
CONTINUOUS
10
2.23933
20
0.915837
11
2.23734
21
0.915486
0
LINE
8
BLACK
6
CONTINUOUS
10
2.23734
20
0.915486
11
2.23559
21
0.916496
0
LINE
8
BLACK
6
CONTINUOUS
10
2.23559
20
0.916496
11
2.2349
21
0.918394
0
LINE
8
BLACK
6
CONTINUOUS
10
2.2349
20
0.918394
11
2.2349
21
0.92669
0
LINE
8
BLACK
6
CONTINUOUS
10
2.2349
20
0.92669
11
2.19848
21
0.92669
0
LINE
8
BLACK
6
CONTINUOUS
10
2.19848
20
0.92669
11
2.19747
21
0.926868
0
LINE
8
BLACK
6
CONTINUOUS
10
2.19747
20
0.926868
11
2.19734
21
0.926977
0
LINE
8
BLACK
6
CONTINUOUS
10
2.19734
20
0.926977
11
2.19717
21
0.926996
0
LINE
8
BLACK
6
CONTINUOUS
10
2.19717
20
0.926996
11
2.19658
21
0.927616
0
LINE
8
BLACK
6
CONTINUOUS
10
2.19658
20
0.927616
11
2.19592
21
0.928166
0
LINE
8
BLACK
6
CONTINUOUS
10
2.19592
20
0.928166
11
2.19589
21
0.928334
0
LINE
8
BLACK
6
CONTINUOUS
10
2.19589
20
0.928334
11
2.19578
21
0.928456
0
LINE
8
BLACK
6
CONTINUOUS
10
2.19578
20
0.928456
11
2.19572
21
0.929312
0
LINE
8
BLACK
6
CONTINUOUS
10
2.19572
20
0.929312
11
2.19557
21
0.930156
0
LINE
8
BLACK
6
CONTINUOUS
10
2.19557
20
0.930156
11
2.19566
21
0.930303
0
LINE
8
BLACK
6
CONTINUOUS
10
2.19566
20
0.930303
11
2.19565
21
0.930472
0
LINE
8
BLACK
6
CONTINUOUS
10
2.19565
20
0.930472
11
2.19615
21
0.931162
0
LINE
8
BLACK
6
CONTINUOUS
10
2.19615
20
0.931162
11
2.19658
21
0.931905
0
LINE
8
BLACK
6
CONTINUOUS
10
2.19658
20
0.931905
11
2.19674
21
0.931963
0
LINE
8
BLACK
6
CONTINUOUS
10
2.19674
20
0.931963
11
2.19684
21
0.9321
0
LINE
8
BLACK
6
CONTINUOUS
10
2.19684
20
0.9321
11
2.20222
21
0.935687
0
LINE
8
BLACK
6
CONTINUOUS
10
2.20222
20
0.935687
11
2.20543
21
0.938891
0
LINE
8
BLACK
6
CONTINUOUS
10
2.20543
20
0.938891
11
2.20709
21
0.942212
0
LINE
8
BLACK
6
CONTINUOUS
10
2.20709
20
0.942212
11
2.2077
21
0.943036
0
LINE
8
BLACK
6
CONTINUOUS
10
2.2077
20
0.943036
11
2.20955
21
0.943839
0
LINE
8
BLACK
6
CONTINUOUS
10
2.20955
20
0.943839
11
2.21149
21
0.943263
0
LINE
8
BLACK
6
CONTINUOUS
10
1.78871
20
0.939178
11
1.7894
21
0.937507
0
LINE
8
BLACK
6
CONTINUOUS
10
1.7894
20
0.937507
11
1.78871
21
0.935837
0
LINE
8
BLACK
6
CONTINUOUS
10
1.78871
20
0.935837
11
1.77416
21
0.921291
0
LINE
8
BLACK
6
CONTINUOUS
10
1.77416
20
0.921291
11
1.77249
21
0.920599
0
LINE
8
BLACK
6
CONTINUOUS
10
1.77249
20
0.920599
11
1.77082
21
0.921291
0
LINE
8
BLACK
6
CONTINUOUS
10
1.77082
20
0.921291
11
1.77013
21
0.922961
0
LINE
8
BLACK
6
CONTINUOUS
10
1.77013
20
0.922961
11
1.77082
21
0.924632
0
LINE
8
BLACK
6
CONTINUOUS
10
1.77082
20
0.924632
11
1.78537
21
0.939178
0
LINE
8
BLACK
6
CONTINUOUS
10
1.78537
20
0.939178
11
1.78704
21
0.93987
0
LINE
8
BLACK
6
CONTINUOUS
10
1.78704
20
0.93987
11
1.78871
21
0.939178
0
LINE
8
BLACK
6
CONTINUOUS
10
1.67275
20
0.948205
11
1.67344
21
0.946535
0
LINE
8
BLACK
6
CONTINUOUS
10
1.67344
20
0.946535
11
1.67344
21
0.935465
0
LINE
8
BLACK
6
CONTINUOUS
10
1.67344
20
0.935465
11
1.67275
21
0.933795
0
LINE
8
BLACK
6
CONTINUOUS
10
1.67275
20
0.933795
11
1.67108
21
0.933103
0
LINE
8
BLACK
6
CONTINUOUS
10
1.67108
20
0.933103
11
1.66941
21
0.933795
0
LINE
8
BLACK
6
CONTINUOUS
10
1.66941
20
0.933795
11
1.66872
21
0.935465
0
LINE
8
BLACK
6
CONTINUOUS
10
1.66872
20
0.935465
11
1.66872
21
0.946535
0
LINE
8
BLACK
6
CONTINUOUS
10
1.66872
20
0.946535
11
1.66941
21
0.948205
0
LINE
8
BLACK
6
CONTINUOUS
10
1.66941
20
0.948205
11
1.67108
21
0.948897
0
LINE
8
BLACK
6
CONTINUOUS
10
1.67108
20
0.948897
11
1.67275
21
0.948205
0
LINE
8
BLACK
6
CONTINUOUS
10
1.63259
20
0.948205
11
1.63328
21
0.946535
0
LINE
8
BLACK
6
CONTINUOUS
10
1.63328
20
0.946535
11
1.63328
21
0.935465
0
LINE
8
BLACK
6
CONTINUOUS
10
1.63328
20
0.935465
11
1.63259
21
0.933795
0
LINE
8
BLACK
6
CONTINUOUS
10
1.63259
20
0.933795
11
1.63092
21
0.933103
0
LINE
8
BLACK
6
CONTINUOUS
10
1.63092
20
0.933103
11
1.62925
21
0.933795
0
LINE
8
BLACK
6
CONTINUOUS
10
1.62925
20
0.933795
11
1.62856
21
0.935465
0
LINE
8
BLACK
6
CONTINUOUS
10
1.62856
20
0.935465
11
1.62856
21
0.946535
0
LINE
8
BLACK
6
CONTINUOUS
10
1.62856
20
0.946535
11
1.62925
21
0.948205
0
LINE
8
BLACK
6
CONTINUOUS
10
1.62925
20
0.948205
11
1.63092
21
0.948897
0
LINE
8
BLACK
6
CONTINUOUS
10
1.63092
20
0.948897
11
1.63259
21
0.948205
0
LINE
8
BLACK
6
CONTINUOUS
10
2.23823
20
0.973773
11
2.23836
21
0.973796
0
LINE
8
BLACK
6
CONTINUOUS
10
2.23836
20
0.973796
11
2.23848
21
0.97373
0
LINE
8
BLACK
6
CONTINUOUS
10
2.23848
20
0.97373
11
2.23886
21
0.973662
0
LINE
8
BLACK
6
CONTINUOUS
10
2.23886
20
0.973662
11
2.23945
21
0.973169
0
LINE
8
BLACK
6
CONTINUOUS
10
2.23945
20
0.973169
11
2.24011
21
0.972786
0
LINE
8
BLACK
6
CONTINUOUS
10
2.24011
20
0.972786
11
2.2402
21
0.972535
0
LINE
8
BLACK
6
CONTINUOUS
10
2.2402
20
0.972535
11
2.24041
21
0.972364
0
LINE
8
BLACK
6
CONTINUOUS
10
2.24041
20
0.972364
11
2.24054
21
0.971609
0
LINE
8
BLACK
6
CONTINUOUS
10
2.24054
20
0.971609
11
2.2408
21
0.970888
0
LINE
8
BLACK
6
CONTINUOUS
10
2.2408
20
0.970888
11
2.2408
21
0.95214
0
LINE
8
BLACK
6
CONTINUOUS
10
2.2408
20
0.95214
11
2.24062
21
0.95113
0
LINE
8
BLACK
6
CONTINUOUS
10
2.24062
20
0.95113
11
2.23933
21
0.949583
0
LINE
8
BLACK
6
CONTINUOUS
10
2.23933
20
0.949583
11
2.23734
21
0.949232
0
LINE
8
BLACK
6
CONTINUOUS
10
2.23734
20
0.949232
11
2.23559
21
0.950242
0
LINE
8
BLACK
6
CONTINUOUS
10
2.23559
20
0.950242
11
2.2349
21
0.95214
0
LINE
8
BLACK
6
CONTINUOUS
10
2.2349
20
0.95214
11
2.2349
21
0.967935
0
LINE
8
BLACK
6
CONTINUOUS
10
2.2349
20
0.967935
11
2.19848
21
0.967935
0
LINE
8
BLACK
6
CONTINUOUS
10
2.19848
20
0.967935
11
2.19747
21
0.968113
0
LINE
8
BLACK
6
CONTINUOUS
10
2.19747
20
0.968113
11
2.19592
21
0.969411
0
LINE
8
BLACK
6
CONTINUOUS
10
2.19592
20
0.969411
11
2.19557
21
0.9714
0
LINE
8
BLACK
6
CONTINUOUS
10
2.19557
20
0.9714
11
2.19658
21
0.97315
0
LINE
8
BLACK
6
CONTINUOUS
10
2.19658
20
0.97315
11
2.19848
21
0.97384
0
LINE
8
BLACK
6
CONTINUOUS
10
2.19848
20
0.97384
11
2.23785
21
0.97384
0
LINE
8
BLACK
6
CONTINUOUS
10
2.23785
20
0.97384
11
2.23823
21
0.973773
0
LINE
8
BLACK
6
CONTINUOUS
10
1.4961
20
0.965804
11
1.4968
21
0.964134
0
LINE
8
BLACK
6
CONTINUOUS
10
1.4968
20
0.964134
11
1.4968
21
0.954685
0
LINE
8
BLACK
6
CONTINUOUS
10
1.4968
20
0.954685
11
1.4961
21
0.953015
0
LINE
8
BLACK
6
CONTINUOUS
10
1.4961
20
0.953015
11
1.49443
21
0.952323
0
LINE
8
BLACK
6
CONTINUOUS
10
1.49443
20
0.952323
11
1.49276
21
0.953015
0
LINE
8
BLACK
6
CONTINUOUS
10
1.49276
20
0.953015
11
1.49207
21
0.954685
0
LINE
8
BLACK
6
CONTINUOUS
10
1.49207
20
0.954685
11
1.49207
21
0.961772
0
LINE
8
BLACK
6
CONTINUOUS
10
1.49207
20
0.961772
11
1.42357
21
0.961772
0
LINE
8
BLACK
6
CONTINUOUS
10
1.42357
20
0.961772
11
1.4219
21
0.962464
0
LINE
8
BLACK
6
CONTINUOUS
10
1.4219
20
0.962464
11
1.4212
21
0.964134
0
LINE
8
BLACK
6
CONTINUOUS
10
1.4212
20
0.964134
11
1.4219
21
0.965804
0
LINE
8
BLACK
6
CONTINUOUS
10
1.4219
20
0.965804
11
1.42357
21
0.966496
0
LINE
8
BLACK
6
CONTINUOUS
10
1.42357
20
0.966496
11
1.49443
21
0.966496
0
LINE
8
BLACK
6
CONTINUOUS
10
1.49443
20
0.966496
11
1.4961
21
0.965804
0
LINE
8
BLACK
6
CONTINUOUS
10
1.74918
20
0.978709
11
1.74987
21
0.977039
0
LINE
8
BLACK
6
CONTINUOUS
10
1.74987
20
0.977039
11
1.74918
21
0.975368
0
LINE
8
BLACK
6
CONTINUOUS
10
1.74918
20
0.975368
11
1.73463
21
0.960822
0
LINE
8
BLACK
6
CONTINUOUS
10
1.73463
20
0.960822
11
1.73296
21
0.96013
0
LINE
8
BLACK
6
CONTINUOUS
10
1.73296
20
0.96013
11
1.73129
21
0.960822
0
LINE
8
BLACK
6
CONTINUOUS
10
1.73129
20
0.960822
11
1.7306
21
0.962493
0
LINE
8
BLACK
6
CONTINUOUS
10
1.7306
20
0.962493
11
1.73129
21
0.964163
0
LINE
8
BLACK
6
CONTINUOUS
10
1.73129
20
0.964163
11
1.74584
21
0.978709
0
LINE
8
BLACK
6
CONTINUOUS
10
1.74584
20
0.978709
11
1.74751
21
0.979401
0
LINE
8
BLACK
6
CONTINUOUS
10
1.74751
20
0.979401
11
1.74918
21
0.978709
0
LINE
8
BLACK
6
CONTINUOUS
10
1.9092
20
0.976592
11
1.9099
21
0.974921
0
LINE
8
BLACK
6
CONTINUOUS
10
1.9099
20
0.974921
11
1.9092
21
0.973251
0
LINE
8
BLACK
6
CONTINUOUS
10
1.9092
20
0.973251
11
1.90753
21
0.972559
0
LINE
8
BLACK
6
CONTINUOUS
10
1.90753
20
0.972559
11
1.89647
21
0.972559
0
LINE
8
BLACK
6
CONTINUOUS
10
1.89647
20
0.972559
11
1.8948
21
0.973251
0
LINE
8
BLACK
6
CONTINUOUS
10
1.8948
20
0.973251
11
1.8941
21
0.974921
0
LINE
8
BLACK
6
CONTINUOUS
10
1.8941
20
0.974921
11
1.8948
21
0.976592
0
LINE
8
BLACK
6
CONTINUOUS
10
1.8948
20
0.976592
11
1.89647
21
0.977283
0
LINE
8
BLACK
6
CONTINUOUS
10
1.89647
20
0.977283
11
1.90753
21
0.977283
0
LINE
8
BLACK
6
CONTINUOUS
10
1.90753
20
0.977283
11
1.9092
21
0.976592
0
LINE
8
BLACK
6
CONTINUOUS
10
0.945393
20
0.974975
11
0.944701
21
0.976646
0
LINE
8
BLACK
6
CONTINUOUS
10
0.944701
20
0.976646
11
0.944701
21
1.0735
0
LINE
8
BLACK
6
CONTINUOUS
10
0.944701
20
1.0735
11
0.945393
21
1.07517
0
LINE
8
BLACK
6
CONTINUOUS
10
0.945393
20
1.07517
11
0.947063
21
1.07586
0
LINE
8
BLACK
6
CONTINUOUS
10
0.947063
20
1.07586
11
0.948733
21
1.07517
0
LINE
8
BLACK
6
CONTINUOUS
10
0.948733
20
1.07517
11
0.949425
21
1.0735
0
LINE
8
BLACK
6
CONTINUOUS
10
0.949425
20
1.0735
11
0.949425
21
0.979008
0
LINE
8
BLACK
6
CONTINUOUS
10
0.949425
20
0.979008
11
1.00257
21
0.979008
0
LINE
8
BLACK
6
CONTINUOUS
10
1.00257
20
0.979008
11
1.00257
21
1.0735
0
LINE
8
BLACK
6
CONTINUOUS
10
1.00257
20
1.0735
11
1.00327
21
1.07517
0
LINE
8
BLACK
6
CONTINUOUS
10
1.00327
20
1.07517
11
1.00494
21
1.07586
0
LINE
8
BLACK
6
CONTINUOUS
10
1.00494
20
1.07586
11
1.00661
21
1.07517
0
LINE
8
BLACK
6
CONTINUOUS
10
1.00661
20
1.07517
11
1.0073
21
1.0735
0
LINE
8
BLACK
6
CONTINUOUS
10
1.0073
20
1.0735
11
1.0073
21
0.976646
0
LINE
8
BLACK
6
CONTINUOUS
10
1.0073
20
0.976646
11
1.00661
21
0.974975
0
LINE
8
BLACK
6
CONTINUOUS
10
1.00661
20
0.974975
11
1.00494
21
0.974283
0
LINE
8
BLACK
6
CONTINUOUS
10
1.00494
20
0.974283
11
0.947063
21
0.974283
0
LINE
8
BLACK
6
CONTINUOUS
10
0.947063
20
0.974283
11
0.945393
21
0.974975
0
LINE
8
BLACK
6
CONTINUOUS
10
1.02639
20
0.974975
11
1.0257
21
0.976646
0
LINE
8
BLACK
6
CONTINUOUS
10
1.0257
20
0.976646
11
1.0257
21
1.0735
0
LINE
8
BLACK
6
CONTINUOUS
10
1.0257
20
1.0735
11
1.02639
21
1.07517
0
LINE
8
BLACK
6
CONTINUOUS
10
1.02639
20
1.07517
11
1.02806
21
1.07586
0
LINE
8
BLACK
6
CONTINUOUS
10
1.02806
20
1.07586
11
1.02973
21
1.07517
0
LINE
8
BLACK
6
CONTINUOUS
10
1.02973
20
1.07517
11
1.03043
21
1.0735
0
LINE
8
BLACK
6
CONTINUOUS
10
1.03043
20
1.0735
11
1.03043
21
0.979008
0
LINE
8
BLACK
6
CONTINUOUS
10
1.03043
20
0.979008
11
1.08357
21
0.979008
0
LINE
8
BLACK
6
CONTINUOUS
10
1.08357
20
0.979008
11
1.08357
21
1.0735
0
LINE
8
BLACK
6
CONTINUOUS
10
1.08357
20
1.0735
11
1.08427
21
1.07517
0
LINE
8
BLACK
6
CONTINUOUS
10
1.08427
20
1.07517
11
1.08594
21
1.07586
0
LINE
8
BLACK
6
CONTINUOUS
10
1.08594
20
1.07586
11
1.08761
21
1.07517
0
LINE
8
BLACK
6
CONTINUOUS
10
1.08761
20
1.07517
11
1.0883
21
1.0735
0
LINE
8
BLACK
6
CONTINUOUS
10
1.0883
20
1.0735
11
1.0883
21
0.976646
0
LINE
8
BLACK
6
CONTINUOUS
10
1.0883
20
0.976646
11
1.08761
21
0.974975
0
LINE
8
BLACK
6
CONTINUOUS
10
1.08761
20
0.974975
11
1.08594
21
0.974283
0
LINE
8
BLACK
6
CONTINUOUS
10
1.08594
20
0.974283
11
1.02806
21
0.974283
0
LINE
8
BLACK
6
CONTINUOUS
10
1.02806
20
0.974283
11
1.02639
21
0.974975
0
LINE
8
BLACK
6
CONTINUOUS
10
0.934149
20
1.00753
11
0.936023
21
1.00565
0
LINE
8
BLACK
6
CONTINUOUS
10
0.936023
20
1.00565
11
0.93653
21
1.00493
0
LINE
8
BLACK
6
CONTINUOUS
10
0.93653
20
1.00493
11
0.936576
21
1.00488
0
LINE
8
BLACK
6
CONTINUOUS
10
0.936576
20
1.00488
11
0.938451
21
1.00113
0
LINE
8
BLACK
6
CONTINUOUS
10
0.938451
20
1.00113
11
0.938744
21
1.00015
0
LINE
8
BLACK
6
CONTINUOUS
10
0.938744
20
1.00015
11
0.938703
21
0.99998
0
LINE
8
BLACK
6
CONTINUOUS
10
0.938703
20
0.99998
11
0.938763
21
0.999814
0
LINE
8
BLACK
6
CONTINUOUS
10
0.938763
20
0.999814
11
0.938763
21
0.988565
0
LINE
8
BLACK
6
CONTINUOUS
10
0.938763
20
0.988565
11
0.938585
21
0.987555
0
LINE
8
BLACK
6
CONTINUOUS
10
0.938585
20
0.987555
11
0.938471
21
0.98742
0
LINE
8
BLACK
6
CONTINUOUS
10
0.938471
20
0.98742
11
0.938451
21
0.987245
0
LINE
8
BLACK
6
CONTINUOUS
10
0.938451
20
0.987245
11
0.936576
21
0.983495
0
LINE
8
BLACK
6
CONTINUOUS
10
0.936576
20
0.983495
11
0.936051
21
0.982786
0
LINE
8
BLACK
6
CONTINUOUS
10
0.936051
20
0.982786
11
0.936023
21
0.982728
0
LINE
8
BLACK
6
CONTINUOUS
10
0.936023
20
0.982728
11
0.934149
21
0.980853
0
LINE
8
BLACK
6
CONTINUOUS
10
0.934149
20
0.980853
11
0.933426
21
0.980347
0
LINE
8
BLACK
6
CONTINUOUS
10
0.933426
20
0.980347
11
0.933381
21
0.9803
0
LINE
8
BLACK
6
CONTINUOUS
10
0.933381
20
0.9803
11
0.929632
21
0.978425
0
LINE
8
BLACK
6
CONTINUOUS
10
0.929632
20
0.978425
11
0.928649
21
0.978133
0
LINE
8
BLACK
6
CONTINUOUS
10
0.928649
20
0.978133
11
0.928477
21
0.978174
0
LINE
8
BLACK
6
CONTINUOUS
10
0.928477
20
0.978174
11
0.928311
21
0.978114
0
LINE
8
BLACK
6
CONTINUOUS
10
0.928311
20
0.978114
11
0.918937
21
0.978114
0
LINE
8
BLACK
6
CONTINUOUS
10
0.918937
20
0.978114
11
0.917927
21
0.978292
0
LINE
8
BLACK
6
CONTINUOUS
10
0.917927
20
0.978292
11
0.917792
21
0.978405
0
LINE
8
BLACK
6
CONTINUOUS
10
0.917792
20
0.978405
11
0.917617
21
0.978425
0
LINE
8
BLACK
6
CONTINUOUS
10
0.917617
20
0.978425
11
0.913867
21
0.9803
0
LINE
8
BLACK
6
CONTINUOUS
10
0.913867
20
0.9803
11
0.913158
21
0.980826
0
LINE
8
BLACK
6
CONTINUOUS
10
0.913158
20
0.980826
11
0.9131
21
0.980853
0
LINE
8
BLACK
6
CONTINUOUS
10
0.9131
20
0.980853
11
0.911225
21
0.982728
0
LINE
8
BLACK
6
CONTINUOUS
10
0.911225
20
0.982728
11
0.910719
21
0.983451
0
LINE
8
BLACK
6
CONTINUOUS
10
0.910719
20
0.983451
11
0.910672
21
0.983495
0
LINE
8
BLACK
6
CONTINUOUS
10
0.910672
20
0.983495
11
0.908797
21
0.987245
0
LINE
8
BLACK
6
CONTINUOUS
10
0.908797
20
0.987245
11
0.90863
21
0.987809
0
LINE
8
BLACK
6
CONTINUOUS
10
0.90863
20
0.987809
11
0.898385
21
0.978844
0
LINE
8
BLACK
6
CONTINUOUS
10
0.898385
20
0.978844
11
0.898005
21
0.978614
0
LINE
8
BLACK
6
CONTINUOUS
10
0.898005
20
0.978614
11
0.897917
21
0.978509
0
LINE
8
BLACK
6
CONTINUOUS
10
0.897917
20
0.978509
11
0.897796
21
0.978488
0
LINE
8
BLACK
6
CONTINUOUS
10
0.897796
20
0.978488
11
0.897507
21
0.978313
0
LINE
8
BLACK
6
CONTINUOUS
10
0.897507
20
0.978313
11
0.896711
21
0.978297
0
LINE
8
BLACK
6
CONTINUOUS
10
0.896711
20
0.978297
11
0.895927
21
0.978158
0
LINE
8
BLACK
6
CONTINUOUS
10
0.895927
20
0.978158
11
0.895723
21
0.978276
0
LINE
8
BLACK
6
CONTINUOUS
10
0.895723
20
0.978276
11
0.895488
21
0.978271
0
LINE
8
BLACK
6
CONTINUOUS
10
0.895488
20
0.978271
11
0.894868
21
0.97877
0
LINE
8
BLACK
6
CONTINUOUS
10
0.894868
20
0.97877
11
0.894178
21
0.979168
0
LINE
8
BLACK
6
CONTINUOUS
10
0.894178
20
0.979168
11
0.894098
21
0.97939
0
LINE
8
BLACK
6
CONTINUOUS
10
0.894098
20
0.97939
11
0.893914
21
0.979537
0
LINE
8
BLACK
6
CONTINUOUS
10
0.893914
20
0.979537
11
0.89376
21
0.980318
0
LINE
8
BLACK
6
CONTINUOUS
10
0.89376
20
0.980318
11
0.893487
21
0.981066
0
LINE
8
BLACK
6
CONTINUOUS
10
0.893487
20
0.981066
11
0.893487
21
1.00544
0
LINE
8
BLACK
6
CONTINUOUS
10
0.893487
20
1.00544
11
0.893665
21
1.00645
0
LINE
8
BLACK
6
CONTINUOUS
10
0.893665
20
1.00645
11
0.894964
21
1.008
0
LINE
8
BLACK
6
CONTINUOUS
10
0.894964
20
1.008
11
0.896953
21
1.00835
0
LINE
8
BLACK
6
CONTINUOUS
10
0.896953
20
1.00835
11
0.898702
21
1.00734
0
LINE
8
BLACK
6
CONTINUOUS
10
0.898702
20
1.00734
11
0.899393
21
1.00544
0
LINE
8
BLACK
6
CONTINUOUS
10
0.899393
20
1.00544
11
0.899393
21
0.987574
0
LINE
8
BLACK
6
CONTINUOUS
10
0.899393
20
0.987574
11
0.909494
21
0.996412
0
LINE
8
BLACK
6
CONTINUOUS
10
0.909494
20
0.996412
11
0.909874
21
0.996642
0
LINE
8
BLACK
6
CONTINUOUS
10
0.909874
20
0.996642
11
0.909962
21
0.996747
0
LINE
8
BLACK
6
CONTINUOUS
10
0.909962
20
0.996747
11
0.910082
21
0.996768
0
LINE
8
BLACK
6
CONTINUOUS
10
0.910082
20
0.996768
11
0.910371
21
0.996943
0
LINE
8
BLACK
6
CONTINUOUS
10
0.910371
20
0.996943
11
0.911167
21
0.996959
0
LINE
8
BLACK
6
CONTINUOUS
10
0.911167
20
0.996959
11
0.911951
21
0.997098
0
LINE
8
BLACK
6
CONTINUOUS
10
0.911951
20
0.997098
11
0.912155
21
0.99698
0
LINE
8
BLACK
6
CONTINUOUS
10
0.912155
20
0.99698
11
0.912391
21
0.996985
0
LINE
8
BLACK
6
CONTINUOUS
10
0.912391
20
0.996985
11
0.913011
21
0.996486
0
LINE
8
BLACK
6
CONTINUOUS
10
0.913011
20
0.996486
11
0.9137
21
0.996088
0
LINE
8
BLACK
6
CONTINUOUS
10
0.9137
20
0.996088
11
0.913781
21
0.995866
0
LINE
8
BLACK
6
CONTINUOUS
10
0.913781
20
0.995866
11
0.913964
21
0.995719
0
LINE
8
BLACK
6
CONTINUOUS
10
0.913964
20
0.995719
11
0.914119
21
0.994938
0
LINE
8
BLACK
6
CONTINUOUS
10
0.914119
20
0.994938
11
0.914391
21
0.99419
0
LINE
8
BLACK
6
CONTINUOUS
10
0.914391
20
0.99419
11
0.914391
21
0.989262
0
LINE
8
BLACK
6
CONTINUOUS
10
0.914391
20
0.989262
11
0.91574
21
0.986565
0
LINE
8
BLACK
6
CONTINUOUS
10
0.91574
20
0.986565
11
0.916937
21
0.985368
0
LINE
8
BLACK
6
CONTINUOUS
10
0.916937
20
0.985368
11
0.919634
21
0.984019
0
LINE
8
BLACK
6
CONTINUOUS
10
0.919634
20
0.984019
11
0.927614
21
0.984019
0
LINE
8
BLACK
6
CONTINUOUS
10
0.927614
20
0.984019
11
0.930312
21
0.985368
0
LINE
8
BLACK
6
CONTINUOUS
10
0.930312
20
0.985368
11
0.931509
21
0.986565
0
LINE
8
BLACK
6
CONTINUOUS
10
0.931509
20
0.986565
11
0.932857
21
0.989262
0
LINE
8
BLACK
6
CONTINUOUS
10
0.932857
20
0.989262
11
0.932857
21
0.999117
0
LINE
8
BLACK
6
CONTINUOUS
10
0.932857
20
0.999117
11
0.931509
21
1.00181
0
LINE
8
BLACK
6
CONTINUOUS
10
0.931509
20
1.00181
11
0.929973
21
1.00335
0
LINE
8
BLACK
6
CONTINUOUS
10
0.929973
20
1.00335
11
0.929385
21
1.00419
0
LINE
8
BLACK
6
CONTINUOUS
10
0.929385
20
1.00419
11
0.929209
21
1.0062
0
LINE
8
BLACK
6
CONTINUOUS
10
0.929209
20
1.0062
11
0.930367
21
1.00786
0
LINE
8
BLACK
6
CONTINUOUS
10
0.930367
20
1.00786
11
0.932318
21
1.00838
0
LINE
8
BLACK
6
CONTINUOUS
10
0.932318
20
1.00838
11
0.934149
21
1.00753
0
LINE
8
BLACK
6
CONTINUOUS
10
1.9092
20
1.01675
11
1.9099
21
1.01508
0
LINE
8
BLACK
6
CONTINUOUS
10
1.9099
20
1.01508
11
1.9092
21
1.01341
0
LINE
8
BLACK
6
CONTINUOUS
10
1.9092
20
1.01341
11
1.90753
21
1.01272
0
LINE
8
BLACK
6
CONTINUOUS
10
1.90753
20
1.01272
11
1.89647
21
1.01272
0
LINE
8
BLACK
6
CONTINUOUS
10
1.89647
20
1.01272
11
1.8948
21
1.01341
0
LINE
8
BLACK
6
CONTINUOUS
10
1.8948
20
1.01341
11
1.8941
21
1.01508
0
LINE
8
BLACK
6
CONTINUOUS
10
1.8941
20
1.01508
11
1.8948
21
1.01675
0
LINE
8
BLACK
6
CONTINUOUS
10
1.8948
20
1.01675
11
1.89647
21
1.01744
0
LINE
8
BLACK
6
CONTINUOUS
10
1.89647
20
1.01744
11
1.90753
21
1.01744
0
LINE
8
BLACK
6
CONTINUOUS
10
1.90753
20
1.01744
11
1.9092
21
1.01675
0
LINE
8
BLACK
6
CONTINUOUS
10
0.936194
20
1.04394
11
0.936323
21
1.04397
0
LINE
8
BLACK
6
CONTINUOUS
10
0.936323
20
1.04397
11
0.936437
21
1.0439
0
LINE
8
BLACK
6
CONTINUOUS
10
0.936437
20
1.0439
11
0.93682
21
1.04383
0
LINE
8
BLACK
6
CONTINUOUS
10
0.93682
20
1.04383
11
0.937408
21
1.04334
0
LINE
8
BLACK
6
CONTINUOUS
10
0.937408
20
1.04334
11
0.938072
21
1.04296
0
LINE
8
BLACK
6
CONTINUOUS
10
0.938072
20
1.04296
11
0.938163
21
1.04271
0
LINE
8
BLACK
6
CONTINUOUS
10
0.938163
20
1.04271
11
0.938367
21
1.04254
0
LINE
8
BLACK
6
CONTINUOUS
10
0.938367
20
1.04254
11
0.938501
21
1.04178
0
LINE
8
BLACK
6
CONTINUOUS
10
0.938501
20
1.04178
11
0.938763
21
1.04106
0
LINE
8
BLACK
6
CONTINUOUS
10
0.938763
20
1.04106
11
0.938763
21
1.03169
0
LINE
8
BLACK
6
CONTINUOUS
10
0.938763
20
1.03169
11
0.93861
21
1.03082
0
LINE
8
BLACK
6
CONTINUOUS
10
0.93861
20
1.03082
11
0.938611
21
1.03075
0
LINE
8
BLACK
6
CONTINUOUS
10
0.938611
20
1.03075
11
0.936737
21
1.02513
0
LINE
8
BLACK
6
CONTINUOUS
10
0.936737
20
1.02513
11
0.936248
21
1.02423
0
LINE
8
BLACK
6
CONTINUOUS
10
0.936248
20
1.02423
11
0.936098
21
1.02413
0
LINE
8
BLACK
6
CONTINUOUS
10
0.936098
20
1.02413
11
0.936023
21
1.02397
0
LINE
8
BLACK
6
CONTINUOUS
10
0.936023
20
1.02397
11
0.932274
21
1.02022
0
LINE
8
BLACK
6
CONTINUOUS
10
0.932274
20
1.02022
11
0.931551
21
1.01972
0
LINE
8
BLACK
6
CONTINUOUS
10
0.931551
20
1.01972
11
0.931506
21
1.01967
0
LINE
8
BLACK
6
CONTINUOUS
10
0.931506
20
1.01967
11
0.927757
21
1.0178
0
LINE
8
BLACK
6
CONTINUOUS
10
0.927757
20
1.0178
11
0.927269
21
1.01765
0
LINE
8
BLACK
6
CONTINUOUS
10
0.927269
20
1.01765
11
0.927153
21
1.01757
0
LINE
8
BLACK
6
CONTINUOUS
10
0.927153
20
1.01757
11
0.919654
21
1.0157
0
LINE
8
BLACK
6
CONTINUOUS
10
0.919654
20
1.0157
11
0.919066
21
1.01566
0
LINE
8
BLACK
6
CONTINUOUS
10
0.919066
20
1.01566
11
0.918937
21
1.01561
0
LINE
8
BLACK
6
CONTINUOUS
10
0.918937
20
1.01561
11
0.913313
21
1.01561
0
LINE
8
BLACK
6
CONTINUOUS
10
0.913313
20
1.01561
11
0.912733
21
1.01571
0
LINE
8
BLACK
6
CONTINUOUS
10
0.912733
20
1.01571
11
0.912597
21
1.0157
0
LINE
8
BLACK
6
CONTINUOUS
10
0.912597
20
1.0157
11
0.905098
21
1.01757
0
LINE
8
BLACK
6
CONTINUOUS
10
0.905098
20
1.01757
11
0.904632
21
1.01778
0
LINE
8
BLACK
6
CONTINUOUS
10
0.904632
20
1.01778
11
0.904494
21
1.0178
0
LINE
8
BLACK
6
CONTINUOUS
10
0.904494
20
1.0178
11
0.900744
21
1.01967
0
LINE
8
BLACK
6
CONTINUOUS
10
0.900744
20
1.01967
11
0.900035
21
1.0202
0
LINE
8
BLACK
6
CONTINUOUS
10
0.900035
20
1.0202
11
0.899977
21
1.02022
0
LINE
8
BLACK
6
CONTINUOUS
10
0.899977
20
1.02022
11
0.896227
21
1.02397
0
LINE
8
BLACK
6
CONTINUOUS
10
0.896227
20
1.02397
11
0.895639
21
1.02481
0
LINE
8
BLACK
6
CONTINUOUS
10
0.895639
20
1.02481
11
0.895623
21
1.02499
0
LINE
8
BLACK
6
CONTINUOUS
10
0.895623
20
1.02499
11
0.895514
21
1.02513
0
LINE
8
BLACK
6
CONTINUOUS
10
0.895514
20
1.02513
11
0.893639
21
1.03075
0
LINE
8
BLACK
6
CONTINUOUS
10
0.893639
20
1.03075
11
0.893509
21
1.03162
0
LINE
8
BLACK
6
CONTINUOUS
10
0.893509
20
1.03162
11
0.893487
21
1.03169
0
LINE
8
BLACK
6
CONTINUOUS
10
0.893487
20
1.03169
11
0.893487
21
1.04106
0
LINE
8
BLACK
6
CONTINUOUS
10
0.893487
20
1.04106
11
0.893555
21
1.04144
0
LINE
8
BLACK
6
CONTINUOUS
10
0.893555
20
1.04144
11
0.893532
21
1.04157
0
LINE
8
BLACK
6
CONTINUOUS
10
0.893532
20
1.04157
11
0.893598
21
1.04169
0
LINE
8
BLACK
6
CONTINUOUS
10
0.893598
20
1.04169
11
0.893665
21
1.04207
0
LINE
8
BLACK
6
CONTINUOUS
10
0.893665
20
1.04207
11
0.894159
21
1.04266
0
LINE
8
BLACK
6
CONTINUOUS
10
0.894159
20
1.04266
11
0.894542
21
1.04332
0
LINE
8
BLACK
6
CONTINUOUS
10
0.894542
20
1.04332
11
0.894793
21
1.04341
0
LINE
8
BLACK
6
CONTINUOUS
10
0.894793
20
1.04341
11
0.894964
21
1.04362
0
LINE
8
BLACK
6
CONTINUOUS
10
0.894964
20
1.04362
11
0.895719
21
1.04375
0
LINE
8
BLACK
6
CONTINUOUS
10
0.895719
20
1.04375
11
0.89644
21
1.04401
0
LINE
8
BLACK
6
CONTINUOUS
10
0.89644
20
1.04401
11
0.93581
21
1.04401
0
LINE
8
BLACK
6
CONTINUOUS
10
0.93581
20
1.04401
11
0.936194
21
1.04394
0
LINE
8
BLACK
6
CONTINUOUS
10
0.899393
20
1.03811
11
0.899393
21
1.03216
0
LINE
8
BLACK
6
CONTINUOUS
10
0.899393
20
1.03216
11
0.900896
21
1.02766
0
LINE
8
BLACK
6
CONTINUOUS
10
0.900896
20
1.02766
11
0.903814
21
1.02474
0
LINE
8
BLACK
6
CONTINUOUS
10
0.903814
20
1.02474
11
0.906845
21
1.02322
0
LINE
8
BLACK
6
CONTINUOUS
10
0.906845
20
1.02322
11
0.913677
21
1.02151
0
LINE
8
BLACK
6
CONTINUOUS
10
0.913677
20
1.02151
11
0.918574
21
1.02151
0
LINE
8
BLACK
6
CONTINUOUS
10
0.918574
20
1.02151
11
0.925406
21
1.02322
0
LINE
8
BLACK
6
CONTINUOUS
10
0.925406
20
1.02322
11
0.928437
21
1.02474
0
LINE
8
BLACK
6
CONTINUOUS
10
0.928437
20
1.02474
11
0.931355
21
1.02766
0
LINE
8
BLACK
6
CONTINUOUS
10
0.931355
20
1.02766
11
0.932857
21
1.03216
0
LINE
8
BLACK
6
CONTINUOUS
10
0.932857
20
1.03216
11
0.932857
21
1.03811
0
LINE
8
BLACK
6
CONTINUOUS
10
0.932857
20
1.03811
11
0.899393
21
1.03811
0
LINE
8
BLACK
6
CONTINUOUS
10
1.35437
20
1.05242
11
1.35506
21
1.05075
0
LINE
8
BLACK
6
CONTINUOUS
10
1.35506
20
1.05075
11
1.35506
21
1.01925
0
LINE
8
BLACK
6
CONTINUOUS
10
1.35506
20
1.01925
11
1.35437
21
1.01758
0
LINE
8
BLACK
6
CONTINUOUS
10
1.35437
20
1.01758
11
1.3527
21
1.01689
0
LINE
8
BLACK
6
CONTINUOUS
10
1.3527
20
1.01689
11
1.35103
21
1.01758
0
LINE
8
BLACK
6
CONTINUOUS
10
1.35103
20
1.01758
11
1.35034
21
1.01925
0
LINE
8
BLACK
6
CONTINUOUS
10
1.35034
20
1.01925
11
1.35034
21
1.05075
0
LINE
8
BLACK
6
CONTINUOUS
10
1.35034
20
1.05075
11
1.35103
21
1.05242
0
LINE
8
BLACK
6
CONTINUOUS
10
1.35103
20
1.05242
11
1.3527
21
1.05311
0
LINE
8
BLACK
6
CONTINUOUS
10
1.3527
20
1.05311
11
1.35437
21
1.05242
0
LINE
8
BLACK
6
CONTINUOUS
10
1.56697
20
1.05242
11
1.56766
21
1.05075
0
LINE
8
BLACK
6
CONTINUOUS
10
1.56766
20
1.05075
11
1.56766
21
1.02161
0
LINE
8
BLACK
6
CONTINUOUS
10
1.56766
20
1.02161
11
1.58105
21
1.02161
0
LINE
8
BLACK
6
CONTINUOUS
10
1.58105
20
1.02161
11
1.58272
21
1.02092
0
LINE
8
BLACK
6
CONTINUOUS
10
1.58272
20
1.02092
11
1.58341
21
1.01925
0
LINE
8
BLACK
6
CONTINUOUS
10
1.58341
20
1.01925
11
1.58272
21
1.01758
0
LINE
8
BLACK
6
CONTINUOUS
10
1.58272
20
1.01758
11
1.58105
21
1.01689
0
LINE
8
BLACK
6
CONTINUOUS
10
1.58105
20
1.01689
11
1.5653
21
1.01689
0
LINE
8
BLACK
6
CONTINUOUS
10
1.5653
20
1.01689
11
1.56363
21
1.01758
0
LINE
8
BLACK
6
CONTINUOUS
10
1.56363
20
1.01758
11
1.56294
21
1.01925
0
LINE
8
BLACK
6
CONTINUOUS
10
1.56294
20
1.01925
11
1.56294
21
1.05075
0
LINE
8
BLACK
6
CONTINUOUS
10
1.56294
20
1.05075
11
1.56363
21
1.05242
0
LINE
8
BLACK
6
CONTINUOUS
10
1.56363
20
1.05242
11
1.5653
21
1.05311
0
LINE
8
BLACK
6
CONTINUOUS
10
1.5653
20
1.05311
11
1.56697
21
1.05242
0
LINE
8
BLACK
6
CONTINUOUS
10
1.17044
20
1.07028
11
1.17057
21
1.07029
0
LINE
8
BLACK
6
CONTINUOUS
10
1.17057
20
1.07029
11
1.1713
21
1.06978
0
LINE
8
BLACK
6
CONTINUOUS
10
1.1713
20
1.06978
11
1.17207
21
1.06934
0
LINE
8
BLACK
6
CONTINUOUS
10
1.17207
20
1.06934
11
1.17212
21
1.06921
0
LINE
8
BLACK
6
CONTINUOUS
10
1.17212
20
1.06921
11
1.17223
21
1.06913
0
LINE
8
BLACK
6
CONTINUOUS
10
1.17223
20
1.06913
11
1.17246
21
1.06827
0
LINE
8
BLACK
6
CONTINUOUS
10
1.17246
20
1.06827
11
1.17276
21
1.06744
0
LINE
8
BLACK
6
CONTINUOUS
10
1.17276
20
1.06744
11
1.17276
21
1.04307
0
LINE
8
BLACK
6
CONTINUOUS
10
1.17276
20
1.04307
11
1.17258
21
1.04206
0
LINE
8
BLACK
6
CONTINUOUS
10
1.17258
20
1.04206
11
1.17129
21
1.04051
0
LINE
8
BLACK
6
CONTINUOUS
10
1.17129
20
1.04051
11
1.1693
21
1.04016
0
LINE
8
BLACK
6
CONTINUOUS
10
1.1693
20
1.04016
11
1.16755
21
1.04117
0
LINE
8
BLACK
6
CONTINUOUS
10
1.16755
20
1.04117
11
1.16686
21
1.04307
0
LINE
8
BLACK
6
CONTINUOUS
10
1.16686
20
1.04307
11
1.16686
21
1.06031
0
LINE
8
BLACK
6
CONTINUOUS
10
1.16686
20
1.06031
11
1.1494
21
1.04285
0
LINE
8
BLACK
6
CONTINUOUS
10
1.1494
20
1.04285
11
1.14856
21
1.04226
0
LINE
8
BLACK
6
CONTINUOUS
10
1.14856
20
1.04226
11
1.14839
21
1.04225
0
LINE
8
BLACK
6
CONTINUOUS
10
1.14839
20
1.04225
11
1.14825
21
1.04214
0
LINE
8
BLACK
6
CONTINUOUS
10
1.14825
20
1.04214
11
1.14262
21
1.04027
0
LINE
8
BLACK
6
CONTINUOUS
10
1.14262
20
1.04027
11
1.14175
21
1.04014
0
LINE
8
BLACK
6
CONTINUOUS
10
1.14175
20
1.04014
11
1.14169
21
1.04011
0
LINE
8
BLACK
6
CONTINUOUS
10
1.14169
20
1.04011
11
1.13794
21
1.04011
0
LINE
8
BLACK
6
CONTINUOUS
10
1.13794
20
1.04011
11
1.13693
21
1.04029
0
LINE
8
BLACK
6
CONTINUOUS
10
1.13693
20
1.04029
11
1.13679
21
1.04041
0
LINE
8
BLACK
6
CONTINUOUS
10
1.13679
20
1.04041
11
1.13662
21
1.04043
0
LINE
8
BLACK
6
CONTINUOUS
10
1.13662
20
1.04043
11
1.13287
21
1.0423
0
LINE
8
BLACK
6
CONTINUOUS
10
1.13287
20
1.0423
11
1.13216
21
1.04283
0
LINE
8
BLACK
6
CONTINUOUS
10
1.13216
20
1.04283
11
1.1321
21
1.04285
0
LINE
8
BLACK
6
CONTINUOUS
10
1.1321
20
1.04285
11
1.13023
21
1.04473
0
LINE
8
BLACK
6
CONTINUOUS
10
1.13023
20
1.04473
11
1.12972
21
1.04545
0
LINE
8
BLACK
6
CONTINUOUS
10
1.12972
20
1.04545
11
1.12967
21
1.0455
0
LINE
8
BLACK
6
CONTINUOUS
10
1.12967
20
1.0455
11
1.1278
21
1.04924
0
LINE
8
BLACK
6
CONTINUOUS
10
1.1278
20
1.04924
11
1.12751
21
1.05023
0
LINE
8
BLACK
6
CONTINUOUS
10
1.12751
20
1.05023
11
1.12755
21
1.0504
0
LINE
8
BLACK
6
CONTINUOUS
10
1.12755
20
1.0504
11
1.12749
21
1.05057
0
LINE
8
BLACK
6
CONTINUOUS
10
1.12749
20
1.05057
11
1.12749
21
1.05994
0
LINE
8
BLACK
6
CONTINUOUS
10
1.12749
20
1.05994
11
1.12767
21
1.06095
0
LINE
8
BLACK
6
CONTINUOUS
10
1.12767
20
1.06095
11
1.12778
21
1.06108
0
LINE
8
BLACK
6
CONTINUOUS
10
1.12778
20
1.06108
11
1.1278
21
1.06126
0
LINE
8
BLACK
6
CONTINUOUS
10
1.1278
20
1.06126
11
1.12967
21
1.06501
0
LINE
8
BLACK
6
CONTINUOUS
10
1.12967
20
1.06501
11
1.1302
21
1.06572
0
LINE
8
BLACK
6
CONTINUOUS
10
1.1302
20
1.06572
11
1.13023
21
1.06578
0
LINE
8
BLACK
6
CONTINUOUS
10
1.13023
20
1.06578
11
1.1321
21
1.06765
0
LINE
8
BLACK
6
CONTINUOUS
10
1.1321
20
1.06765
11
1.13294
21
1.06824
0
LINE
8
BLACK
6
CONTINUOUS
10
1.13294
20
1.06824
11
1.13495
21
1.06842
0
LINE
8
BLACK
6
CONTINUOUS
10
1.13495
20
1.06842
11
1.13661
21
1.06726
0
LINE
8
BLACK
6
CONTINUOUS
10
1.13661
20
1.06726
11
1.13713
21
1.06531
0
LINE
8
BLACK
6
CONTINUOUS
10
1.13713
20
1.06531
11
1.13628
21
1.06348
0
LINE
8
BLACK
6
CONTINUOUS
10
1.13628
20
1.06348
11
1.13474
21
1.06194
0
LINE
8
BLACK
6
CONTINUOUS
10
1.13474
20
1.06194
11
1.13339
21
1.05924
0
LINE
8
BLACK
6
CONTINUOUS
10
1.13339
20
1.05924
11
1.13339
21
1.05126
0
LINE
8
BLACK
6
CONTINUOUS
10
1.13339
20
1.05126
11
1.13474
21
1.04856
0
LINE
8
BLACK
6
CONTINUOUS
10
1.13474
20
1.04856
11
1.13594
21
1.04737
0
LINE
8
BLACK
6
CONTINUOUS
10
1.13594
20
1.04737
11
1.13864
21
1.04602
0
LINE
8
BLACK
6
CONTINUOUS
10
1.13864
20
1.04602
11
1.14121
21
1.04602
0
LINE
8
BLACK
6
CONTINUOUS
10
1.14121
20
1.04602
11
1.14572
21
1.04752
0
LINE
8
BLACK
6
CONTINUOUS
10
1.14572
20
1.04752
11
1.16772
21
1.06953
0
LINE
8
BLACK
6
CONTINUOUS
10
1.16772
20
1.06953
11
1.16825
21
1.0699
0
LINE
8
BLACK
6
CONTINUOUS
10
1.16825
20
1.0699
11
1.16833
21
1.07
0
LINE
8
BLACK
6
CONTINUOUS
10
1.16833
20
1.07
11
1.16841
21
1.07001
0
LINE
8
BLACK
6
CONTINUOUS
10
1.16841
20
1.07001
11
1.16856
21
1.07011
0
LINE
8
BLACK
6
CONTINUOUS
10
1.16856
20
1.07011
11
1.16945
21
1.07019
0
LINE
8
BLACK
6
CONTINUOUS
10
1.16945
20
1.07019
11
1.17032
21
1.07035
0
LINE
8
BLACK
6
CONTINUOUS
10
1.17032
20
1.07035
11
1.17044
21
1.07028
0
LINE
8
BLACK
6
CONTINUOUS
10
1.17019
20
1.10594
11
1.17032
21
1.10597
0
LINE
8
BLACK
6
CONTINUOUS
10
1.17032
20
1.10597
11
1.17044
21
1.1059
0
LINE
8
BLACK
6
CONTINUOUS
10
1.17044
20
1.1059
11
1.17082
21
1.10583
0
LINE
8
BLACK
6
CONTINUOUS
10
1.17082
20
1.10583
11
1.17141
21
1.10534
0
LINE
8
BLACK
6
CONTINUOUS
10
1.17141
20
1.10534
11
1.17207
21
1.10496
0
LINE
8
BLACK
6
CONTINUOUS
10
1.17207
20
1.10496
11
1.17216
21
1.10471
0
LINE
8
BLACK
6
CONTINUOUS
10
1.17216
20
1.10471
11
1.17237
21
1.10454
0
LINE
8
BLACK
6
CONTINUOUS
10
1.17237
20
1.10454
11
1.1725
21
1.10378
0
LINE
8
BLACK
6
CONTINUOUS
10
1.1725
20
1.10378
11
1.17276
21
1.10306
0
LINE
8
BLACK
6
CONTINUOUS
10
1.17276
20
1.10306
11
1.17276
21
1.09369
0
LINE
8
BLACK
6
CONTINUOUS
10
1.17276
20
1.09369
11
1.17261
21
1.09282
0
LINE
8
BLACK
6
CONTINUOUS
10
1.17261
20
1.09282
11
1.17261
21
1.09275
0
LINE
8
BLACK
6
CONTINUOUS
10
1.17261
20
1.09275
11
1.17074
21
1.08713
0
LINE
8
BLACK
6
CONTINUOUS
10
1.17074
20
1.08713
11
1.17025
21
1.08623
0
LINE
8
BLACK
6
CONTINUOUS
10
1.17025
20
1.08623
11
1.1701
21
1.08613
0
LINE
8
BLACK
6
CONTINUOUS
10
1.1701
20
1.08613
11
1.17002
21
1.08597
0
LINE
8
BLACK
6
CONTINUOUS
10
1.17002
20
1.08597
11
1.16627
21
1.08222
0
LINE
8
BLACK
6
CONTINUOUS
10
1.16627
20
1.08222
11
1.16555
21
1.08172
0
LINE
8
BLACK
6
CONTINUOUS
10
1.16555
20
1.08172
11
1.16551
21
1.08167
0
LINE
8
BLACK
6
CONTINUOUS
10
1.16551
20
1.08167
11
1.16176
21
1.0798
0
LINE
8
BLACK
6
CONTINUOUS
10
1.16176
20
1.0798
11
1.16127
21
1.07965
0
LINE
8
BLACK
6
CONTINUOUS
10
1.16127
20
1.07965
11
1.16115
21
1.07957
0
LINE
8
BLACK
6
CONTINUOUS
10
1.16115
20
1.07957
11
1.15365
21
1.0777
0
LINE
8
BLACK
6
CONTINUOUS
10
1.15365
20
1.0777
11
1.15307
21
1.07766
0
LINE
8
BLACK
6
CONTINUOUS
10
1.15307
20
1.07766
11
1.15294
21
1.07761
0
LINE
8
BLACK
6
CONTINUOUS
10
1.15294
20
1.07761
11
1.14731
21
1.07761
0
LINE
8
BLACK
6
CONTINUOUS
10
1.14731
20
1.07761
11
1.14673
21
1.07771
0
LINE
8
BLACK
6
CONTINUOUS
10
1.14673
20
1.07771
11
1.1466
21
1.0777
0
LINE
8
BLACK
6
CONTINUOUS
10
1.1466
20
1.0777
11
1.1391
21
1.07957
0
LINE
8
BLACK
6
CONTINUOUS
10
1.1391
20
1.07957
11
1.13863
21
1.07978
0
LINE
8
BLACK
6
CONTINUOUS
10
1.13863
20
1.07978
11
1.13849
21
1.0798
0
LINE
8
BLACK
6
CONTINUOUS
10
1.13849
20
1.0798
11
1.13474
21
1.08167
0
LINE
8
BLACK
6
CONTINUOUS
10
1.13474
20
1.08167
11
1.13403
21
1.0822
0
LINE
8
BLACK
6
CONTINUOUS
10
1.13403
20
1.0822
11
1.13398
21
1.08222
0
LINE
8
BLACK
6
CONTINUOUS
10
1.13398
20
1.08222
11
1.13023
21
1.08597
0
LINE
8
BLACK
6
CONTINUOUS
10
1.13023
20
1.08597
11
1.12964
21
1.08681
0
LINE
8
BLACK
6
CONTINUOUS
10
1.12964
20
1.08681
11
1.12962
21
1.08699
0
LINE
8
BLACK
6
CONTINUOUS
10
1.12962
20
1.08699
11
1.12951
21
1.08713
0
LINE
8
BLACK
6
CONTINUOUS
10
1.12951
20
1.08713
11
1.12764
21
1.09275
0
LINE
8
BLACK
6
CONTINUOUS
10
1.12764
20
1.09275
11
1.12751
21
1.09362
0
LINE
8
BLACK
6
CONTINUOUS
10
1.12751
20
1.09362
11
1.12749
21
1.09369
0
LINE
8
BLACK
6
CONTINUOUS
10
1.12749
20
1.09369
11
1.12749
21
1.10306
0
LINE
8
BLACK
6
CONTINUOUS
10
1.12749
20
1.10306
11
1.12756
21
1.10344
0
LINE
8
BLACK
6
CONTINUOUS
10
1.12756
20
1.10344
11
1.12753
21
1.10357
0
LINE
8
BLACK
6
CONTINUOUS
10
1.12753
20
1.10357
11
1.1276
21
1.10369
0
LINE
8
BLACK
6
CONTINUOUS
10
1.1276
20
1.10369
11
1.12767
21
1.10407
0
LINE
8
BLACK
6
CONTINUOUS
10
1.12767
20
1.10407
11
1.12816
21
1.10466
0
LINE
8
BLACK
6
CONTINUOUS
10
1.12816
20
1.10466
11
1.12854
21
1.10532
0
LINE
8
BLACK
6
CONTINUOUS
10
1.12854
20
1.10532
11
1.12879
21
1.10541
0
LINE
8
BLACK
6
CONTINUOUS
10
1.12879
20
1.10541
11
1.12896
21
1.10562
0
LINE
8
BLACK
6
CONTINUOUS
10
1.12896
20
1.10562
11
1.12972
21
1.10575
0
LINE
8
BLACK
6
CONTINUOUS
10
1.12972
20
1.10575
11
1.13044
21
1.10601
0
LINE
8
BLACK
6
CONTINUOUS
10
1.13044
20
1.10601
11
1.16981
21
1.10601
0
LINE
8
BLACK
6
CONTINUOUS
10
1.16981
20
1.10601
11
1.17019
21
1.10594
0
LINE
8
BLACK
6
CONTINUOUS
10
1.13339
20
1.10011
11
1.13339
21
1.09416
0
LINE
8
BLACK
6
CONTINUOUS
10
1.13339
20
1.09416
11
1.1349
21
1.08966
0
LINE
8
BLACK
6
CONTINUOUS
10
1.1349
20
1.08966
11
1.13781
21
1.08674
0
LINE
8
BLACK
6
CONTINUOUS
10
1.13781
20
1.08674
11
1.14084
21
1.08522
0
LINE
8
BLACK
6
CONTINUOUS
10
1.14084
20
1.08522
11
1.14768
21
1.08351
0
LINE
8
BLACK
6
CONTINUOUS
10
1.14768
20
1.08351
11
1.15257
21
1.08351
0
LINE
8
BLACK
6
CONTINUOUS
10
1.15257
20
1.08351
11
1.15941
21
1.08522
0
LINE
8
BLACK
6
CONTINUOUS
10
1.15941
20
1.08522
11
1.16244
21
1.08674
0
LINE
8
BLACK
6
CONTINUOUS
10
1.16244
20
1.08674
11
1.16535
21
1.08966
0
LINE
8
BLACK
6
CONTINUOUS
10
1.16535
20
1.08966
11
1.16686
21
1.09416
0
LINE
8
BLACK
6
CONTINUOUS
10
1.16686
20
1.09416
11
1.16686
21
1.10011
0
LINE
8
BLACK
6
CONTINUOUS
10
1.16686
20
1.10011
11
1.13339
21
1.10011
0
LINE
8
BLACK
6
CONTINUOUS
10
1.4961
20
1.10754
11
1.4968
21
1.10587
0
LINE
8
BLACK
6
CONTINUOUS
10
1.4968
20
1.10587
11
1.4961
21
1.1042
0
LINE
8
BLACK
6
CONTINUOUS
10
1.4961
20
1.1042
11
1.49443
21
1.1035
0
LINE
8
BLACK
6
CONTINUOUS
10
1.49443
20
1.1035
11
1.42357
21
1.1035
0
LINE
8
BLACK
6
CONTINUOUS
10
1.42357
20
1.1035
11
1.4219
21
1.1042
0
LINE
8
BLACK
6
CONTINUOUS
10
1.4219
20
1.1042
11
1.4212
21
1.10587
0
LINE
8
BLACK
6
CONTINUOUS
10
1.4212
20
1.10587
11
1.4219
21
1.10754
0
LINE
8
BLACK
6
CONTINUOUS
10
1.4219
20
1.10754
11
1.42357
21
1.10823
0
LINE
8
BLACK
6
CONTINUOUS
10
1.42357
20
1.10823
11
1.49443
21
1.10823
0
LINE
8
BLACK
6
CONTINUOUS
10
1.49443
20
1.10823
11
1.4961
21
1.10754
0
LINE
8
BLACK
6
CONTINUOUS
10
1.43267
20
1.16607
11
1.43281
21
1.16595
0
LINE
8
BLACK
6
CONTINUOUS
10
1.43281
20
1.16595
11
1.43299
21
1.16593
0
LINE
8
BLACK
6
CONTINUOUS
10
1.43299
20
1.16593
11
1.43673
21
1.16406
0
LINE
8
BLACK
6
CONTINUOUS
10
1.43673
20
1.16406
11
1.43744
21
1.16353
0
LINE
8
BLACK
6
CONTINUOUS
10
1.43744
20
1.16353
11
1.4375
21
1.16351
0
LINE
8
BLACK
6
CONTINUOUS
10
1.4375
20
1.16351
11
1.43938
21
1.16163
0
LINE
8
BLACK
6
CONTINUOUS
10
1.43938
20
1.16163
11
1.43997
21
1.16079
0
LINE
8
BLACK
6
CONTINUOUS
10
1.43997
20
1.16079
11
1.44014
21
1.15878
0
LINE
8
BLACK
6
CONTINUOUS
10
1.44014
20
1.15878
11
1.43898
21
1.15712
0
LINE
8
BLACK
6
CONTINUOUS
10
1.43898
20
1.15712
11
1.43703
21
1.1566
0
LINE
8
BLACK
6
CONTINUOUS
10
1.43703
20
1.1566
11
1.4352
21
1.15745
0
LINE
8
BLACK
6
CONTINUOUS
10
1.4352
20
1.15745
11
1.43367
21
1.15899
0
LINE
8
BLACK
6
CONTINUOUS
10
1.43367
20
1.15899
11
1.43097
21
1.16034
0
LINE
8
BLACK
6
CONTINUOUS
10
1.43097
20
1.16034
11
1.42299
21
1.16034
0
LINE
8
BLACK
6
CONTINUOUS
10
1.42299
20
1.16034
11
1.42029
21
1.15899
0
LINE
8
BLACK
6
CONTINUOUS
10
1.42029
20
1.15899
11
1.41909
21
1.15779
0
LINE
8
BLACK
6
CONTINUOUS
10
1.41909
20
1.15779
11
1.41774
21
1.1551
0
LINE
8
BLACK
6
CONTINUOUS
10
1.41774
20
1.1551
11
1.41774
21
1.15252
0
LINE
8
BLACK
6
CONTINUOUS
10
1.41774
20
1.15252
11
1.41925
21
1.14801
0
LINE
8
BLACK
6
CONTINUOUS
10
1.41925
20
1.14801
11
1.44125
21
1.12601
0
LINE
8
BLACK
6
CONTINUOUS
10
1.44125
20
1.12601
11
1.44162
21
1.12548
0
LINE
8
BLACK
6
CONTINUOUS
10
1.44162
20
1.12548
11
1.44172
21
1.1254
0
LINE
8
BLACK
6
CONTINUOUS
10
1.44172
20
1.1254
11
1.44173
21
1.12532
0
LINE
8
BLACK
6
CONTINUOUS
10
1.44173
20
1.12532
11
1.44184
21
1.12517
0
LINE
8
BLACK
6
CONTINUOUS
10
1.44184
20
1.12517
11
1.44192
21
1.12428
0
LINE
8
BLACK
6
CONTINUOUS
10
1.44192
20
1.12428
11
1.44207
21
1.12341
0
LINE
8
BLACK
6
CONTINUOUS
10
1.44207
20
1.12341
11
1.442
21
1.12329
0
LINE
8
BLACK
6
CONTINUOUS
10
1.442
20
1.12329
11
1.44202
21
1.12316
0
LINE
8
BLACK
6
CONTINUOUS
10
1.44202
20
1.12316
11
1.44151
21
1.12243
0
LINE
8
BLACK
6
CONTINUOUS
10
1.44151
20
1.12243
11
1.44106
21
1.12166
0
LINE
8
BLACK
6
CONTINUOUS
10
1.44106
20
1.12166
11
1.44093
21
1.12161
0
LINE
8
BLACK
6
CONTINUOUS
10
1.44093
20
1.12161
11
1.44086
21
1.1215
0
LINE
8
BLACK
6
CONTINUOUS
10
1.44086
20
1.1215
11
1.44
21
1.12127
0
LINE
8
BLACK
6
CONTINUOUS
10
1.44
20
1.12127
11
1.43916
21
1.12097
0
LINE
8
BLACK
6
CONTINUOUS
10
1.43916
20
1.12097
11
1.41479
21
1.12097
0
LINE
8
BLACK
6
CONTINUOUS
10
1.41479
20
1.12097
11
1.41378
21
1.12115
0
LINE
8
BLACK
6
CONTINUOUS
10
1.41378
20
1.12115
11
1.41223
21
1.12245
0
LINE
8
BLACK
6
CONTINUOUS
10
1.41223
20
1.12245
11
1.41188
21
1.12443
0
LINE
8
BLACK
6
CONTINUOUS
10
1.41188
20
1.12443
11
1.41289
21
1.12618
0
LINE
8
BLACK
6
CONTINUOUS
10
1.41289
20
1.12618
11
1.41479
21
1.12687
0
LINE
8
BLACK
6
CONTINUOUS
10
1.41479
20
1.12687
11
1.43204
21
1.12687
0
LINE
8
BLACK
6
CONTINUOUS
10
1.43204
20
1.12687
11
1.41458
21
1.14433
0
LINE
8
BLACK
6
CONTINUOUS
10
1.41458
20
1.14433
11
1.41399
21
1.14517
0
LINE
8
BLACK
6
CONTINUOUS
10
1.41399
20
1.14517
11
1.41398
21
1.14535
0
LINE
8
BLACK
6
CONTINUOUS
10
1.41398
20
1.14535
11
1.41387
21
1.14549
0
LINE
8
BLACK
6
CONTINUOUS
10
1.41387
20
1.14549
11
1.41199
21
1.15111
0
LINE
8
BLACK
6
CONTINUOUS
10
1.41199
20
1.15111
11
1.41186
21
1.15198
0
LINE
8
BLACK
6
CONTINUOUS
10
1.41186
20
1.15198
11
1.41184
21
1.15204
0
LINE
8
BLACK
6
CONTINUOUS
10
1.41184
20
1.15204
11
1.41184
21
1.15579
0
LINE
8
BLACK
6
CONTINUOUS
10
1.41184
20
1.15579
11
1.41202
21
1.1568
0
LINE
8
BLACK
6
CONTINUOUS
10
1.41202
20
1.1568
11
1.41213
21
1.15694
0
LINE
8
BLACK
6
CONTINUOUS
10
1.41213
20
1.15694
11
1.41215
21
1.15711
0
LINE
8
BLACK
6
CONTINUOUS
10
1.41215
20
1.15711
11
1.41403
21
1.16086
0
LINE
8
BLACK
6
CONTINUOUS
10
1.41403
20
1.16086
11
1.41455
21
1.16157
0
LINE
8
BLACK
6
CONTINUOUS
10
1.41455
20
1.16157
11
1.41458
21
1.16163
0
LINE
8
BLACK
6
CONTINUOUS
10
1.41458
20
1.16163
11
1.41645
21
1.16351
0
LINE
8
BLACK
6
CONTINUOUS
10
1.41645
20
1.16351
11
1.41718
21
1.16401
0
LINE
8
BLACK
6
CONTINUOUS
10
1.41718
20
1.16401
11
1.41722
21
1.16406
0
LINE
8
BLACK
6
CONTINUOUS
10
1.41722
20
1.16406
11
1.42097
21
1.16593
0
LINE
8
BLACK
6
CONTINUOUS
10
1.42097
20
1.16593
11
1.42195
21
1.16623
0
LINE
8
BLACK
6
CONTINUOUS
10
1.42195
20
1.16623
11
1.42213
21
1.16618
0
LINE
8
BLACK
6
CONTINUOUS
10
1.42213
20
1.16618
11
1.42229
21
1.16624
0
LINE
8
BLACK
6
CONTINUOUS
10
1.42229
20
1.16624
11
1.43166
21
1.16624
0
LINE
8
BLACK
6
CONTINUOUS
10
1.43166
20
1.16624
11
1.43267
21
1.16607
0
LINE
8
BLACK
6
CONTINUOUS
10
1.47678
20
1.16547
11
1.47771
21
1.16368
0
LINE
8
BLACK
6
CONTINUOUS
10
1.47771
20
1.16368
11
1.47728
21
1.16171
0
LINE
8
BLACK
6
CONTINUOUS
10
1.47728
20
1.16171
11
1.46461
21
1.14181
0
LINE
8
BLACK
6
CONTINUOUS
10
1.46461
20
1.14181
11
1.46461
21
1.12392
0
LINE
8
BLACK
6
CONTINUOUS
10
1.46461
20
1.12392
11
1.46444
21
1.12291
0
LINE
8
BLACK
6
CONTINUOUS
10
1.46444
20
1.12291
11
1.46314
21
1.12136
0
LINE
8
BLACK
6
CONTINUOUS
10
1.46314
20
1.12136
11
1.46115
21
1.12101
0
LINE
8
BLACK
6
CONTINUOUS
10
1.46115
20
1.12101
11
1.4594
21
1.12202
0
LINE
8
BLACK
6
CONTINUOUS
10
1.4594
20
1.12202
11
1.45871
21
1.12392
0
LINE
8
BLACK
6
CONTINUOUS
10
1.45871
20
1.12392
11
1.45871
21
1.14181
0
LINE
8
BLACK
6
CONTINUOUS
10
1.45871
20
1.14181
11
1.44605
21
1.16171
0
LINE
8
BLACK
6
CONTINUOUS
10
1.44605
20
1.16171
11
1.44565
21
1.16265
0
LINE
8
BLACK
6
CONTINUOUS
10
1.44565
20
1.16265
11
1.44592
21
1.16466
0
LINE
8
BLACK
6
CONTINUOUS
10
1.44592
20
1.16466
11
1.44741
21
1.16602
0
LINE
8
BLACK
6
CONTINUOUS
10
1.44741
20
1.16602
11
1.44943
21
1.16611
0
LINE
8
BLACK
6
CONTINUOUS
10
1.44943
20
1.16611
11
1.45103
21
1.16488
0
LINE
8
BLACK
6
CONTINUOUS
10
1.45103
20
1.16488
11
1.46166
21
1.14817
0
LINE
8
BLACK
6
CONTINUOUS
10
1.46166
20
1.14817
11
1.47229
21
1.16488
0
LINE
8
BLACK
6
CONTINUOUS
10
1.47229
20
1.16488
11
1.47299
21
1.16563
0
LINE
8
BLACK
6
CONTINUOUS
10
1.47299
20
1.16563
11
1.47491
21
1.16624
0
LINE
8
BLACK
6
CONTINUOUS
10
1.47491
20
1.16624
11
1.47678
21
1.16547
  0
ENDSEC
  0
EOF
