  0
SECTION
  2
HEADER
  9
$ANGBASE
  50
0.0
  9
$ANGDIR
  70
1
  9
$MEASUREMENT
  70
0
  0
ENDSEC
  0
SECTION
  2
TABLES
  0
TABLE
  2
LTYPE
  70
4
  0
LTYPE
  5
40F
  2
CONTINUOUS
  70
0
  3
Solid line
  72
65
  73
0
  40
0.0
  0
LTYPE
  5
410
  2
DASHDOT
 70
0
  3
Dash Dot ____ _ ____ _
 72
65
 73
4
 40
2.0
 49
1.25
 49
-0.25
 49
0.25
 49
-0.25
  0
LTYPE
  5
411
  2
DASHED
 70
0
  3
Dashed __ __ __ __ __
 72
65
 73
2
 40
0.75
 49
0.5
 49
-0.25
  0
LTYPE
  5
43B
  2
DOTTED
 70
0
  3
Dotted .  .  .  .
 72
65
 73
2
 40
0.2
 49
0.0
 49
-0.2
  0
ENDTAB
  0
TABLE
  2
STYLE
  70
4
  0
STYLE
  2
KICAD
  70
0
  40
0
  41
1
  42
1
  50
0
  71
0
  3
isocp.shx
  0
STYLE
  2
KICADB
  70
0
  40
0
  41
1
  42
1
  50
0
  71
0
  3
isocp.shx
  0
STYLE
  2
KICADI
  70
0
  40
0
  41
1
  42
1
  50
15
  71
0
  3
isocp.shx
  0
STYLE
  2
KICADBI
  70
0
  40
0
  41
1
  42
1
  50
15
  71
0
  3
isocp.shx
  0
ENDTAB
  0
TABLE
  2
LAYER
  70
1
  0
LAYER
  2
BLACK
  70
0
  62
7
  6
CONTINUOUS
  0
ENDTAB
  0
ENDSEC
  0
SECTION
  2
ENTITIES
0
LINE
8
BLACK
6
CONTINUOUS
10
5.19228
20
-3.59906
11
5.19298
21
-3.59934
0
LINE
8
BLACK
6
CONTINUOUS
10
5.19298
20
-3.59934
11
5.19327
21
-3.60004
0
LINE
8
BLACK
6
CONTINUOUS
10
5.19327
20
-3.60004
11
5.19327
21
-4.07091
0
LINE
8
BLACK
6
CONTINUOUS
10
5.19327
20
-4.07091
11
5.19298
21
-4.0716
0
LINE
8
BLACK
6
CONTINUOUS
10
5.19298
20
-4.0716
11
5.19228
21
-4.07189
0
LINE
8
BLACK
6
CONTINUOUS
10
5.19228
20
-4.07189
11
4.94031
21
-4.07189
0
LINE
8
BLACK
6
CONTINUOUS
10
4.94031
20
-4.07189
11
4.93962
21
-4.0716
0
LINE
8
BLACK
6
CONTINUOUS
10
4.93962
20
-4.0716
11
4.93933
21
-4.07091
0
LINE
8
BLACK
6
CONTINUOUS
10
4.93933
20
-4.07091
11
4.93933
21
-4.07091
0
LINE
8
BLACK
6
CONTINUOUS
10
4.93933
20
-4.07091
11
4.93933
21
-3.60004
0
LINE
8
BLACK
6
CONTINUOUS
10
4.93933
20
-3.60004
11
4.93962
21
-3.59934
0
LINE
8
BLACK
6
CONTINUOUS
10
4.93962
20
-3.59934
11
4.94031
21
-3.59906
0
LINE
8
BLACK
6
CONTINUOUS
10
4.94031
20
-3.59906
11
5.19228
21
-3.59906
0
LINE
8
BLACK
6
CONTINUOUS
10
4.9413
20
-3.60102
11
4.9413
21
-4.06992
0
LINE
8
BLACK
6
CONTINUOUS
10
4.9413
20
-4.06992
11
5.1913
21
-4.06992
0
LINE
8
BLACK
6
CONTINUOUS
10
5.1913
20
-4.06992
11
5.1913
21
-3.60102
0
LINE
8
BLACK
6
CONTINUOUS
10
5.1913
20
-3.60102
11
4.9413
21
-3.60102
0
LINE
8
BLACK
6
CONTINUOUS
10
5.34123
20
-3.97818
11
5.34192
21
-3.97847
0
LINE
8
BLACK
6
CONTINUOUS
10
5.34192
20
-3.97847
11
5.34221
21
-3.97917
0
LINE
8
BLACK
6
CONTINUOUS
10
5.34221
20
-3.97917
11
5.34221
21
-4.05633
0
LINE
8
BLACK
6
CONTINUOUS
10
5.34221
20
-4.05633
11
5.34192
21
-4.05703
0
LINE
8
BLACK
6
CONTINUOUS
10
5.34192
20
-4.05703
11
5.34123
21
-4.05731
0
LINE
8
BLACK
6
CONTINUOUS
10
5.34123
20
-4.05731
11
5.20737
21
-4.05731
0
LINE
8
BLACK
6
CONTINUOUS
10
5.20737
20
-4.05731
11
5.20667
21
-4.05703
0
LINE
8
BLACK
6
CONTINUOUS
10
5.20667
20
-4.05703
11
5.20639
21
-4.05633
0
LINE
8
BLACK
6
CONTINUOUS
10
5.20639
20
-4.05633
11
5.20639
21
-3.97917
0
LINE
8
BLACK
6
CONTINUOUS
10
5.20639
20
-3.97917
11
5.20667
21
-3.97847
0
LINE
8
BLACK
6
CONTINUOUS
10
5.20667
20
-3.97847
11
5.20737
21
-3.97818
0
LINE
8
BLACK
6
CONTINUOUS
10
5.20737
20
-3.97818
11
5.34123
21
-3.97818
0
LINE
8
BLACK
6
CONTINUOUS
10
5.20835
20
-3.98015
11
5.20835
21
-4.05535
0
LINE
8
BLACK
6
CONTINUOUS
10
5.20835
20
-4.05535
11
5.34024
21
-4.05535
0
LINE
8
BLACK
6
CONTINUOUS
10
5.34024
20
-4.05535
11
5.34024
21
-3.98015
0
LINE
8
BLACK
6
CONTINUOUS
10
5.34024
20
-3.98015
11
5.20835
21
-3.98015
0
LINE
8
BLACK
6
CONTINUOUS
10
6.91429
20
-3.67449
11
6.91499
21
-3.67478
0
LINE
8
BLACK
6
CONTINUOUS
10
6.91499
20
-3.67478
11
6.91528
21
-3.67547
0
LINE
8
BLACK
6
CONTINUOUS
10
6.91528
20
-3.67547
11
6.91528
21
-3.99547
0
LINE
8
BLACK
6
CONTINUOUS
10
6.91528
20
-3.99547
11
6.91499
21
-3.99617
0
LINE
8
BLACK
6
CONTINUOUS
10
6.91499
20
-3.99617
11
6.91429
21
-3.99646
0
LINE
8
BLACK
6
CONTINUOUS
10
6.91429
20
-3.99646
11
6.49429
21
-3.99646
0
LINE
8
BLACK
6
CONTINUOUS
10
6.49429
20
-3.99646
11
6.4936
21
-3.99617
0
LINE
8
BLACK
6
CONTINUOUS
10
6.4936
20
-3.99617
11
6.49331
21
-3.99547
0
LINE
8
BLACK
6
CONTINUOUS
10
6.49331
20
-3.99547
11
6.49331
21
-3.67547
0
LINE
8
BLACK
6
CONTINUOUS
10
6.49331
20
-3.67547
11
6.4936
21
-3.67478
0
LINE
8
BLACK
6
CONTINUOUS
10
6.4936
20
-3.67478
11
6.49429
21
-3.67449
0
LINE
8
BLACK
6
CONTINUOUS
10
6.49429
20
-3.67449
11
6.91429
21
-3.67449
0
LINE
8
BLACK
6
CONTINUOUS
10
6.49528
20
-3.67646
11
6.49528
21
-3.99449
0
LINE
8
BLACK
6
CONTINUOUS
10
6.49528
20
-3.99449
11
6.91331
21
-3.99449
0
LINE
8
BLACK
6
CONTINUOUS
10
6.91331
20
-3.99449
11
6.91331
21
-3.67646
0
LINE
8
BLACK
6
CONTINUOUS
10
6.91331
20
-3.67646
11
6.49528
21
-3.67646
0
LINE
8
BLACK
6
CONTINUOUS
10
6.01504
20
-3.85701
11
6.01574
21
-3.8573
0
LINE
8
BLACK
6
CONTINUOUS
10
6.01574
20
-3.8573
11
6.01602
21
-3.85799
0
LINE
8
BLACK
6
CONTINUOUS
10
6.01602
20
-3.85799
11
6.01602
21
-3.97453
0
LINE
8
BLACK
6
CONTINUOUS
10
6.01602
20
-3.97453
11
6.01574
21
-3.97522
0
LINE
8
BLACK
6
CONTINUOUS
10
6.01574
20
-3.97522
11
6.01504
21
-3.97551
0
LINE
8
BLACK
6
CONTINUOUS
10
6.01504
20
-3.97551
11
5.95756
21
-3.97551
0
LINE
8
BLACK
6
CONTINUOUS
10
5.95756
20
-3.97551
11
5.95686
21
-3.97522
0
LINE
8
BLACK
6
CONTINUOUS
10
5.95686
20
-3.97522
11
5.95657
21
-3.97453
0
LINE
8
BLACK
6
CONTINUOUS
10
5.95657
20
-3.97453
11
5.95657
21
-3.85799
0
LINE
8
BLACK
6
CONTINUOUS
10
5.95657
20
-3.85799
11
5.95686
21
-3.8573
0
LINE
8
BLACK
6
CONTINUOUS
10
5.95686
20
-3.8573
11
5.95756
21
-3.85701
0
LINE
8
BLACK
6
CONTINUOUS
10
5.95756
20
-3.85701
11
6.01504
21
-3.85701
0
LINE
8
BLACK
6
CONTINUOUS
10
5.95854
20
-3.85898
11
5.95854
21
-3.97354
0
LINE
8
BLACK
6
CONTINUOUS
10
5.95854
20
-3.97354
11
6.01406
21
-3.97354
0
LINE
8
BLACK
6
CONTINUOUS
10
6.01406
20
-3.97354
11
6.01406
21
-3.85898
0
LINE
8
BLACK
6
CONTINUOUS
10
6.01406
20
-3.85898
11
5.95854
21
-3.85898
0
LINE
8
BLACK
6
CONTINUOUS
10
6.4737
20
-3.80376
11
6.4744
21
-3.80405
0
LINE
8
BLACK
6
CONTINUOUS
10
6.4744
20
-3.80405
11
6.47469
21
-3.80474
0
LINE
8
BLACK
6
CONTINUOUS
10
6.47469
20
-3.80474
11
6.47469
21
-3.95041
0
LINE
8
BLACK
6
CONTINUOUS
10
6.47469
20
-3.95041
11
6.4744
21
-3.95111
0
LINE
8
BLACK
6
CONTINUOUS
10
6.4744
20
-3.95111
11
6.4737
21
-3.9514
0
LINE
8
BLACK
6
CONTINUOUS
10
6.4737
20
-3.9514
11
6.3989
21
-3.9514
0
LINE
8
BLACK
6
CONTINUOUS
10
6.3989
20
-3.9514
11
6.3982
21
-3.95111
0
LINE
8
BLACK
6
CONTINUOUS
10
6.3982
20
-3.95111
11
6.39791
21
-3.95041
0
LINE
8
BLACK
6
CONTINUOUS
10
6.39791
20
-3.95041
11
6.39791
21
-3.95041
0
LINE
8
BLACK
6
CONTINUOUS
10
6.39791
20
-3.95041
11
6.39791
21
-3.80474
0
LINE
8
BLACK
6
CONTINUOUS
10
6.39791
20
-3.80474
11
6.3982
21
-3.80405
0
LINE
8
BLACK
6
CONTINUOUS
10
6.3982
20
-3.80405
11
6.3989
21
-3.80376
0
LINE
8
BLACK
6
CONTINUOUS
10
6.3989
20
-3.80376
11
6.4737
21
-3.80376
0
LINE
8
BLACK
6
CONTINUOUS
10
6.39988
20
-3.80573
11
6.39988
21
-3.94943
0
LINE
8
BLACK
6
CONTINUOUS
10
6.39988
20
-3.94943
11
6.47272
21
-3.94943
0
LINE
8
BLACK
6
CONTINUOUS
10
6.47272
20
-3.94943
11
6.47272
21
-3.80573
0
LINE
8
BLACK
6
CONTINUOUS
10
6.47272
20
-3.80573
11
6.39988
21
-3.80573
0
LINE
8
BLACK
6
CONTINUOUS
10
5.32957
20
-3.87602
11
5.33026
21
-3.87631
0
LINE
8
BLACK
6
CONTINUOUS
10
5.33026
20
-3.87631
11
5.33055
21
-3.87701
0
LINE
8
BLACK
6
CONTINUOUS
10
5.33055
20
-3.87701
11
5.33055
21
-3.93449
0
LINE
8
BLACK
6
CONTINUOUS
10
5.33055
20
-3.93449
11
5.33026
21
-3.93518
0
LINE
8
BLACK
6
CONTINUOUS
10
5.33026
20
-3.93518
11
5.32957
21
-3.93547
0
LINE
8
BLACK
6
CONTINUOUS
10
5.32957
20
-3.93547
11
5.21303
21
-3.93547
0
LINE
8
BLACK
6
CONTINUOUS
10
5.21303
20
-3.93547
11
5.21234
21
-3.93518
0
LINE
8
BLACK
6
CONTINUOUS
10
5.21234
20
-3.93518
11
5.21205
21
-3.93449
0
LINE
8
BLACK
6
CONTINUOUS
10
5.21205
20
-3.93449
11
5.21205
21
-3.87701
0
LINE
8
BLACK
6
CONTINUOUS
10
5.21205
20
-3.87701
11
5.21234
21
-3.87631
0
LINE
8
BLACK
6
CONTINUOUS
10
5.21234
20
-3.87631
11
5.21303
21
-3.87602
0
LINE
8
BLACK
6
CONTINUOUS
10
5.21303
20
-3.87602
11
5.32957
21
-3.87602
0
LINE
8
BLACK
6
CONTINUOUS
10
5.21402
20
-3.87799
11
5.21402
21
-3.9335
0
LINE
8
BLACK
6
CONTINUOUS
10
5.21402
20
-3.9335
11
5.32858
21
-3.9335
0
LINE
8
BLACK
6
CONTINUOUS
10
5.32858
20
-3.9335
11
5.32858
21
-3.87799
0
LINE
8
BLACK
6
CONTINUOUS
10
5.32858
20
-3.87799
11
5.21402
21
-3.87799
0
LINE
8
BLACK
6
CONTINUOUS
10
5.74088
20
-3.79024
11
5.74158
21
-3.79052
0
LINE
8
BLACK
6
CONTINUOUS
10
5.74158
20
-3.79052
11
5.74187
21
-3.79122
0
LINE
8
BLACK
6
CONTINUOUS
10
5.74187
20
-3.79122
11
5.74187
21
-3.92508
0
LINE
8
BLACK
6
CONTINUOUS
10
5.74187
20
-3.92508
11
5.74158
21
-3.92577
0
LINE
8
BLACK
6
CONTINUOUS
10
5.74158
20
-3.92577
11
5.74088
21
-3.92606
0
LINE
8
BLACK
6
CONTINUOUS
10
5.74088
20
-3.92606
11
5.66372
21
-3.92606
0
LINE
8
BLACK
6
CONTINUOUS
10
5.66372
20
-3.92606
11
5.66302
21
-3.92577
0
LINE
8
BLACK
6
CONTINUOUS
10
5.66302
20
-3.92577
11
5.66273
21
-3.92508
0
LINE
8
BLACK
6
CONTINUOUS
10
5.66273
20
-3.92508
11
5.66273
21
-3.79122
0
LINE
8
BLACK
6
CONTINUOUS
10
5.66273
20
-3.79122
11
5.66302
21
-3.79052
0
LINE
8
BLACK
6
CONTINUOUS
10
5.66302
20
-3.79052
11
5.66372
21
-3.79024
0
LINE
8
BLACK
6
CONTINUOUS
10
5.66372
20
-3.79024
11
5.74088
21
-3.79024
0
LINE
8
BLACK
6
CONTINUOUS
10
5.6647
20
-3.7922
11
5.6647
21
-3.92409
0
LINE
8
BLACK
6
CONTINUOUS
10
5.6647
20
-3.92409
11
5.7399
21
-3.92409
0
LINE
8
BLACK
6
CONTINUOUS
10
5.7399
20
-3.92409
11
5.7399
21
-3.7922
0
LINE
8
BLACK
6
CONTINUOUS
10
5.7399
20
-3.7922
11
5.6647
21
-3.7922
0
LINE
8
BLACK
6
CONTINUOUS
10
6.1723
20
-3.84736
11
6.173
21
-3.84765
0
LINE
8
BLACK
6
CONTINUOUS
10
6.173
20
-3.84765
11
6.17329
21
-3.84835
0
LINE
8
BLACK
6
CONTINUOUS
10
6.17329
20
-3.84835
11
6.17329
21
-3.92315
0
LINE
8
BLACK
6
CONTINUOUS
10
6.17329
20
-3.92315
11
6.173
21
-3.92385
0
LINE
8
BLACK
6
CONTINUOUS
10
6.173
20
-3.92385
11
6.1723
21
-3.92413
0
LINE
8
BLACK
6
CONTINUOUS
10
6.1723
20
-3.92413
11
6.02663
21
-3.92413
0
LINE
8
BLACK
6
CONTINUOUS
10
6.02663
20
-3.92413
11
6.02594
21
-3.92385
0
LINE
8
BLACK
6
CONTINUOUS
10
6.02594
20
-3.92385
11
6.02565
21
-3.92315
0
LINE
8
BLACK
6
CONTINUOUS
10
6.02565
20
-3.92315
11
6.02565
21
-3.84835
0
LINE
8
BLACK
6
CONTINUOUS
10
6.02565
20
-3.84835
11
6.02594
21
-3.84765
0
LINE
8
BLACK
6
CONTINUOUS
10
6.02594
20
-3.84765
11
6.02663
21
-3.84736
0
LINE
8
BLACK
6
CONTINUOUS
10
6.02663
20
-3.84736
11
6.1723
21
-3.84736
0
LINE
8
BLACK
6
CONTINUOUS
10
6.02762
20
-3.84933
11
6.02762
21
-3.92217
0
LINE
8
BLACK
6
CONTINUOUS
10
6.02762
20
-3.92217
11
6.17132
21
-3.92217
0
LINE
8
BLACK
6
CONTINUOUS
10
6.17132
20
-3.92217
11
6.17132
21
-3.84933
0
LINE
8
BLACK
6
CONTINUOUS
10
6.17132
20
-3.84933
11
6.02762
21
-3.84933
0
LINE
8
BLACK
6
CONTINUOUS
10
6.30906
20
-3.85602
11
6.30975
21
-3.85631
0
LINE
8
BLACK
6
CONTINUOUS
10
6.30975
20
-3.85631
11
6.31004
21
-3.85701
0
LINE
8
BLACK
6
CONTINUOUS
10
6.31004
20
-3.85701
11
6.31004
21
-3.91449
0
LINE
8
BLACK
6
CONTINUOUS
10
6.31004
20
-3.91449
11
6.30975
21
-3.91518
0
LINE
8
BLACK
6
CONTINUOUS
10
6.30975
20
-3.91518
11
6.30906
21
-3.91547
0
LINE
8
BLACK
6
CONTINUOUS
10
6.30906
20
-3.91547
11
6.19252
21
-3.91547
0
LINE
8
BLACK
6
CONTINUOUS
10
6.19252
20
-3.91547
11
6.19182
21
-3.91518
0
LINE
8
BLACK
6
CONTINUOUS
10
6.19182
20
-3.91518
11
6.19154
21
-3.91449
0
LINE
8
BLACK
6
CONTINUOUS
10
6.19154
20
-3.91449
11
6.19154
21
-3.85701
0
LINE
8
BLACK
6
CONTINUOUS
10
6.19154
20
-3.85701
11
6.19182
21
-3.85631
0
LINE
8
BLACK
6
CONTINUOUS
10
6.19182
20
-3.85631
11
6.19252
21
-3.85602
0
LINE
8
BLACK
6
CONTINUOUS
10
6.19252
20
-3.85602
11
6.30906
21
-3.85602
0
LINE
8
BLACK
6
CONTINUOUS
10
6.1935
20
-3.85799
11
6.1935
21
-3.9135
0
LINE
8
BLACK
6
CONTINUOUS
10
6.1935
20
-3.9135
11
6.30807
21
-3.9135
0
LINE
8
BLACK
6
CONTINUOUS
10
6.30807
20
-3.9135
11
6.30807
21
-3.85799
0
LINE
8
BLACK
6
CONTINUOUS
10
6.30807
20
-3.85799
11
6.1935
21
-3.85799
0
LINE
8
BLACK
6
CONTINUOUS
10
5.9487
20
-3.72876
11
5.9494
21
-3.72905
0
LINE
8
BLACK
6
CONTINUOUS
10
5.9494
20
-3.72905
11
5.94969
21
-3.72974
0
LINE
8
BLACK
6
CONTINUOUS
10
5.94969
20
-3.72974
11
5.94969
21
-3.87541
0
LINE
8
BLACK
6
CONTINUOUS
10
5.94969
20
-3.87541
11
5.9494
21
-3.87611
0
LINE
8
BLACK
6
CONTINUOUS
10
5.9494
20
-3.87611
11
5.9487
21
-3.8764
0
LINE
8
BLACK
6
CONTINUOUS
10
5.9487
20
-3.8764
11
5.8739
21
-3.8764
0
LINE
8
BLACK
6
CONTINUOUS
10
5.8739
20
-3.8764
11
5.8732
21
-3.87611
0
LINE
8
BLACK
6
CONTINUOUS
10
5.8732
20
-3.87611
11
5.87291
21
-3.87541
0
LINE
8
BLACK
6
CONTINUOUS
10
5.87291
20
-3.87541
11
5.87291
21
-3.72974
0
LINE
8
BLACK
6
CONTINUOUS
10
5.87291
20
-3.72974
11
5.8732
21
-3.72905
0
LINE
8
BLACK
6
CONTINUOUS
10
5.8732
20
-3.72905
11
5.8739
21
-3.72876
0
LINE
8
BLACK
6
CONTINUOUS
10
5.8739
20
-3.72876
11
5.9487
21
-3.72876
0
LINE
8
BLACK
6
CONTINUOUS
10
5.87488
20
-3.73073
11
5.87488
21
-3.87443
0
LINE
8
BLACK
6
CONTINUOUS
10
5.87488
20
-3.87443
11
5.94772
21
-3.87443
0
LINE
8
BLACK
6
CONTINUOUS
10
5.94772
20
-3.87443
11
5.94772
21
-3.73073
0
LINE
8
BLACK
6
CONTINUOUS
10
5.94772
20
-3.73073
11
5.87488
21
-3.73073
0
LINE
8
BLACK
6
CONTINUOUS
10
5.33209
20
-3.80102
11
5.33278
21
-3.80131
0
LINE
8
BLACK
6
CONTINUOUS
10
5.33278
20
-3.80131
11
5.33307
21
-3.80201
0
LINE
8
BLACK
6
CONTINUOUS
10
5.33307
20
-3.80201
11
5.33307
21
-3.85949
0
LINE
8
BLACK
6
CONTINUOUS
10
5.33307
20
-3.85949
11
5.33278
21
-3.86018
0
LINE
8
BLACK
6
CONTINUOUS
10
5.33278
20
-3.86018
11
5.33209
21
-3.86047
0
LINE
8
BLACK
6
CONTINUOUS
10
5.33209
20
-3.86047
11
5.21555
21
-3.86047
0
LINE
8
BLACK
6
CONTINUOUS
10
5.21555
20
-3.86047
11
5.21486
21
-3.86018
0
LINE
8
BLACK
6
CONTINUOUS
10
5.21486
20
-3.86018
11
5.21457
21
-3.85949
0
LINE
8
BLACK
6
CONTINUOUS
10
5.21457
20
-3.85949
11
5.21457
21
-3.80201
0
LINE
8
BLACK
6
CONTINUOUS
10
5.21457
20
-3.80201
11
5.21486
21
-3.80131
0
LINE
8
BLACK
6
CONTINUOUS
10
5.21486
20
-3.80131
11
5.21555
21
-3.80102
0
LINE
8
BLACK
6
CONTINUOUS
10
5.21555
20
-3.80102
11
5.33209
21
-3.80102
0
LINE
8
BLACK
6
CONTINUOUS
10
5.21654
20
-3.80299
11
5.21654
21
-3.8585
0
LINE
8
BLACK
6
CONTINUOUS
10
5.21654
20
-3.8585
11
5.3311
21
-3.8585
0
LINE
8
BLACK
6
CONTINUOUS
10
5.3311
20
-3.8585
11
5.3311
21
-3.80299
0
LINE
8
BLACK
6
CONTINUOUS
10
5.3311
20
-3.80299
11
5.21654
21
-3.80299
0
LINE
8
BLACK
6
CONTINUOUS
10
6.24906
20
-3.74602
11
6.24975
21
-3.74631
0
LINE
8
BLACK
6
CONTINUOUS
10
6.24975
20
-3.74631
11
6.25004
21
-3.74701
0
LINE
8
BLACK
6
CONTINUOUS
10
6.25004
20
-3.74701
11
6.25004
21
-3.80449
0
LINE
8
BLACK
6
CONTINUOUS
10
6.25004
20
-3.80449
11
6.24975
21
-3.80518
0
LINE
8
BLACK
6
CONTINUOUS
10
6.24975
20
-3.80518
11
6.24906
21
-3.80547
0
LINE
8
BLACK
6
CONTINUOUS
10
6.24906
20
-3.80547
11
6.13252
21
-3.80547
0
LINE
8
BLACK
6
CONTINUOUS
10
6.13252
20
-3.80547
11
6.13182
21
-3.80518
0
LINE
8
BLACK
6
CONTINUOUS
10
6.13182
20
-3.80518
11
6.13154
21
-3.80449
0
LINE
8
BLACK
6
CONTINUOUS
10
6.13154
20
-3.80449
11
6.13154
21
-3.80449
0
LINE
8
BLACK
6
CONTINUOUS
10
6.13154
20
-3.80449
11
6.13154
21
-3.74701
0
LINE
8
BLACK
6
CONTINUOUS
10
6.13154
20
-3.74701
11
6.13182
21
-3.74631
0
LINE
8
BLACK
6
CONTINUOUS
10
6.13182
20
-3.74631
11
6.13252
21
-3.74602
0
LINE
8
BLACK
6
CONTINUOUS
10
6.13252
20
-3.74602
11
6.24906
21
-3.74602
0
LINE
8
BLACK
6
CONTINUOUS
10
6.1335
20
-3.74799
11
6.1335
21
-3.8035
0
LINE
8
BLACK
6
CONTINUOUS
10
6.1335
20
-3.8035
11
6.24807
21
-3.8035
0
LINE
8
BLACK
6
CONTINUOUS
10
6.24807
20
-3.8035
11
6.24807
21
-3.74799
0
LINE
8
BLACK
6
CONTINUOUS
10
6.24807
20
-3.74799
11
6.1335
21
-3.74799
0
LINE
8
BLACK
6
CONTINUOUS
10
6.32904
20
-3.55492
11
6.32974
21
-3.55521
0
LINE
8
BLACK
6
CONTINUOUS
10
6.32974
20
-3.55521
11
6.33002
21
-3.55591
0
LINE
8
BLACK
6
CONTINUOUS
10
6.33002
20
-3.55591
11
6.33002
21
-3.67177
0
LINE
8
BLACK
6
CONTINUOUS
10
6.33002
20
-3.67177
11
6.39142
21
-3.67177
0
LINE
8
BLACK
6
CONTINUOUS
10
6.39142
20
-3.67177
11
6.39211
21
-3.67206
0
LINE
8
BLACK
6
CONTINUOUS
10
6.39211
20
-3.67206
11
6.3924
21
-3.67276
0
LINE
8
BLACK
6
CONTINUOUS
10
6.3924
20
-3.67276
11
6.3924
21
-3.79874
0
LINE
8
BLACK
6
CONTINUOUS
10
6.3924
20
-3.79874
11
6.39211
21
-3.79944
0
LINE
8
BLACK
6
CONTINUOUS
10
6.39211
20
-3.79944
11
6.39142
21
-3.79972
0
LINE
8
BLACK
6
CONTINUOUS
10
6.39142
20
-3.79972
11
6.28118
21
-3.79972
0
LINE
8
BLACK
6
CONTINUOUS
10
6.28118
20
-3.79972
11
6.28049
21
-3.79944
0
LINE
8
BLACK
6
CONTINUOUS
10
6.28049
20
-3.79944
11
6.2802
21
-3.79874
0
LINE
8
BLACK
6
CONTINUOUS
10
6.2802
20
-3.79874
11
6.2802
21
-3.67343
0
LINE
8
BLACK
6
CONTINUOUS
10
6.2802
20
-3.67343
11
6.27156
21
-3.67343
0
LINE
8
BLACK
6
CONTINUOUS
10
6.27156
20
-3.67343
11
6.27086
21
-3.67314
0
LINE
8
BLACK
6
CONTINUOUS
10
6.27086
20
-3.67314
11
6.27057
21
-3.67244
0
LINE
8
BLACK
6
CONTINUOUS
10
6.27057
20
-3.67244
11
6.27057
21
-3.55591
0
LINE
8
BLACK
6
CONTINUOUS
10
6.27057
20
-3.55591
11
6.27086
21
-3.55521
0
LINE
8
BLACK
6
CONTINUOUS
10
6.27086
20
-3.55521
11
6.27156
21
-3.55492
0
LINE
8
BLACK
6
CONTINUOUS
10
6.27156
20
-3.55492
11
6.32904
21
-3.55492
0
LINE
8
BLACK
6
CONTINUOUS
10
6.28217
20
-3.67374
11
6.28217
21
-3.79776
0
LINE
8
BLACK
6
CONTINUOUS
10
6.28217
20
-3.79776
11
6.39043
21
-3.79776
0
LINE
8
BLACK
6
CONTINUOUS
10
6.39043
20
-3.79776
11
6.39043
21
-3.67374
0
LINE
8
BLACK
6
CONTINUOUS
10
6.39043
20
-3.67374
11
6.28217
21
-3.67374
0
LINE
8
BLACK
6
CONTINUOUS
10
6.27254
20
-3.55689
11
6.27254
21
-3.67146
0
LINE
8
BLACK
6
CONTINUOUS
10
6.27254
20
-3.67146
11
6.32806
21
-3.67146
0
LINE
8
BLACK
6
CONTINUOUS
10
6.32806
20
-3.67146
11
6.32806
21
-3.55689
0
LINE
8
BLACK
6
CONTINUOUS
10
6.32806
20
-3.55689
11
6.27254
21
-3.55689
0
LINE
8
BLACK
6
CONTINUOUS
10
5.33209
20
-3.72602
11
5.33278
21
-3.72631
0
LINE
8
BLACK
6
CONTINUOUS
10
5.33278
20
-3.72631
11
5.33307
21
-3.72701
0
LINE
8
BLACK
6
CONTINUOUS
10
5.33307
20
-3.72701
11
5.33307
21
-3.78449
0
LINE
8
BLACK
6
CONTINUOUS
10
5.33307
20
-3.78449
11
5.33278
21
-3.78518
0
LINE
8
BLACK
6
CONTINUOUS
10
5.33278
20
-3.78518
11
5.33209
21
-3.78547
0
LINE
8
BLACK
6
CONTINUOUS
10
5.33209
20
-3.78547
11
5.21555
21
-3.78547
0
LINE
8
BLACK
6
CONTINUOUS
10
5.21555
20
-3.78547
11
5.21486
21
-3.78518
0
LINE
8
BLACK
6
CONTINUOUS
10
5.21486
20
-3.78518
11
5.21457
21
-3.78449
0
LINE
8
BLACK
6
CONTINUOUS
10
5.21457
20
-3.78449
11
5.21457
21
-3.72701
0
LINE
8
BLACK
6
CONTINUOUS
10
5.21457
20
-3.72701
11
5.21486
21
-3.72631
0
LINE
8
BLACK
6
CONTINUOUS
10
5.21486
20
-3.72631
11
5.21555
21
-3.72602
0
LINE
8
BLACK
6
CONTINUOUS
10
5.21555
20
-3.72602
11
5.33209
21
-3.72602
0
LINE
8
BLACK
6
CONTINUOUS
10
5.21654
20
-3.72799
11
5.21654
21
-3.7835
0
LINE
8
BLACK
6
CONTINUOUS
10
5.21654
20
-3.7835
11
5.3311
21
-3.7835
0
LINE
8
BLACK
6
CONTINUOUS
10
5.3311
20
-3.7835
11
5.3311
21
-3.72799
0
LINE
8
BLACK
6
CONTINUOUS
10
5.3311
20
-3.72799
11
5.21654
21
-3.72799
0
LINE
8
BLACK
6
CONTINUOUS
10
5.74088
20
-3.64183
11
5.74158
21
-3.64212
0
LINE
8
BLACK
6
CONTINUOUS
10
5.74158
20
-3.64212
11
5.74187
21
-3.64282
0
LINE
8
BLACK
6
CONTINUOUS
10
5.74187
20
-3.64282
11
5.74187
21
-3.77668
0
LINE
8
BLACK
6
CONTINUOUS
10
5.74187
20
-3.77668
11
5.74158
21
-3.77737
0
LINE
8
BLACK
6
CONTINUOUS
10
5.74158
20
-3.77737
11
5.74088
21
-3.77766
0
LINE
8
BLACK
6
CONTINUOUS
10
5.74088
20
-3.77766
11
5.66372
21
-3.77766
0
LINE
8
BLACK
6
CONTINUOUS
10
5.66372
20
-3.77766
11
5.66302
21
-3.77737
0
LINE
8
BLACK
6
CONTINUOUS
10
5.66302
20
-3.77737
11
5.66273
21
-3.77668
0
LINE
8
BLACK
6
CONTINUOUS
10
5.66273
20
-3.77668
11
5.66273
21
-3.64282
0
LINE
8
BLACK
6
CONTINUOUS
10
5.66273
20
-3.64282
11
5.66302
21
-3.64212
0
LINE
8
BLACK
6
CONTINUOUS
10
5.66302
20
-3.64212
11
5.66372
21
-3.64183
0
LINE
8
BLACK
6
CONTINUOUS
10
5.66372
20
-3.64183
11
5.74088
21
-3.64183
0
LINE
8
BLACK
6
CONTINUOUS
10
5.6647
20
-3.6438
11
5.6647
21
-3.77569
0
LINE
8
BLACK
6
CONTINUOUS
10
5.6647
20
-3.77569
11
5.7399
21
-3.77569
0
LINE
8
BLACK
6
CONTINUOUS
10
5.7399
20
-3.77569
11
5.7399
21
-3.6438
0
LINE
8
BLACK
6
CONTINUOUS
10
5.7399
20
-3.6438
11
5.6647
21
-3.6438
0
LINE
8
BLACK
6
CONTINUOUS
10
6.09197
20
-3.61142
11
6.09266
21
-3.61171
0
LINE
8
BLACK
6
CONTINUOUS
10
6.09266
20
-3.61171
11
6.09295
21
-3.6124
0
LINE
8
BLACK
6
CONTINUOUS
10
6.09295
20
-3.6124
11
6.09295
21
-3.74035
0
LINE
8
BLACK
6
CONTINUOUS
10
6.09295
20
-3.74035
11
6.09266
21
-3.74105
0
LINE
8
BLACK
6
CONTINUOUS
10
6.09266
20
-3.74105
11
6.09197
21
-3.74134
0
LINE
8
BLACK
6
CONTINUOUS
10
6.09197
20
-3.74134
11
5.99157
21
-3.74134
0
LINE
8
BLACK
6
CONTINUOUS
10
5.99157
20
-3.74134
11
5.99088
21
-3.74105
0
LINE
8
BLACK
6
CONTINUOUS
10
5.99088
20
-3.74105
11
5.99059
21
-3.74035
0
LINE
8
BLACK
6
CONTINUOUS
10
5.99059
20
-3.74035
11
5.99059
21
-3.74035
0
LINE
8
BLACK
6
CONTINUOUS
10
5.99059
20
-3.74035
11
5.99059
21
-3.6124
0
LINE
8
BLACK
6
CONTINUOUS
10
5.99059
20
-3.6124
11
5.99088
21
-3.61171
0
LINE
8
BLACK
6
CONTINUOUS
10
5.99088
20
-3.61171
11
5.99157
21
-3.61142
0
LINE
8
BLACK
6
CONTINUOUS
10
5.99157
20
-3.61142
11
6.09197
21
-3.61142
0
LINE
8
BLACK
6
CONTINUOUS
10
5.99256
20
-3.61339
11
5.99256
21
-3.73937
0
LINE
8
BLACK
6
CONTINUOUS
10
5.99256
20
-3.73937
11
6.09098
21
-3.73937
0
LINE
8
BLACK
6
CONTINUOUS
10
6.09098
20
-3.73937
11
6.09098
21
-3.61339
0
LINE
8
BLACK
6
CONTINUOUS
10
6.09098
20
-3.61339
11
5.99256
21
-3.61339
0
LINE
8
BLACK
6
CONTINUOUS
10
6.16004
20
-3.61402
11
6.16074
21
-3.6143
0
LINE
8
BLACK
6
CONTINUOUS
10
6.16074
20
-3.6143
11
6.16102
21
-3.615
0
LINE
8
BLACK
6
CONTINUOUS
10
6.16102
20
-3.615
11
6.16102
21
-3.73154
0
LINE
8
BLACK
6
CONTINUOUS
10
6.16102
20
-3.73154
11
6.16074
21
-3.73223
0
LINE
8
BLACK
6
CONTINUOUS
10
6.16074
20
-3.73223
11
6.16004
21
-3.73252
0
LINE
8
BLACK
6
CONTINUOUS
10
6.16004
20
-3.73252
11
6.10256
21
-3.73252
0
LINE
8
BLACK
6
CONTINUOUS
10
6.10256
20
-3.73252
11
6.10186
21
-3.73223
0
LINE
8
BLACK
6
CONTINUOUS
10
6.10186
20
-3.73223
11
6.10157
21
-3.73154
0
LINE
8
BLACK
6
CONTINUOUS
10
6.10157
20
-3.73154
11
6.10157
21
-3.615
0
LINE
8
BLACK
6
CONTINUOUS
10
6.10157
20
-3.615
11
6.10186
21
-3.6143
0
LINE
8
BLACK
6
CONTINUOUS
10
6.10186
20
-3.6143
11
6.10256
21
-3.61402
0
LINE
8
BLACK
6
CONTINUOUS
10
6.10256
20
-3.61402
11
6.16004
21
-3.61402
0
LINE
8
BLACK
6
CONTINUOUS
10
6.10354
20
-3.61598
11
6.10354
21
-3.73055
0
LINE
8
BLACK
6
CONTINUOUS
10
6.10354
20
-3.73055
11
6.15906
21
-3.73055
0
LINE
8
BLACK
6
CONTINUOUS
10
6.15906
20
-3.73055
11
6.15906
21
-3.61598
0
LINE
8
BLACK
6
CONTINUOUS
10
6.15906
20
-3.61598
11
6.10354
21
-3.61598
0
LINE
8
BLACK
6
CONTINUOUS
10
6.46504
20
-3.61201
11
6.46574
21
-3.6123
0
LINE
8
BLACK
6
CONTINUOUS
10
6.46574
20
-3.6123
11
6.46602
21
-3.61299
0
LINE
8
BLACK
6
CONTINUOUS
10
6.46602
20
-3.61299
11
6.46602
21
-3.72953
0
LINE
8
BLACK
6
CONTINUOUS
10
6.46602
20
-3.72953
11
6.46574
21
-3.73022
0
LINE
8
BLACK
6
CONTINUOUS
10
6.46574
20
-3.73022
11
6.46504
21
-3.73051
0
LINE
8
BLACK
6
CONTINUOUS
10
6.46504
20
-3.73051
11
6.40756
21
-3.73051
0
LINE
8
BLACK
6
CONTINUOUS
10
6.40756
20
-3.73051
11
6.40686
21
-3.73022
0
LINE
8
BLACK
6
CONTINUOUS
10
6.40686
20
-3.73022
11
6.40657
21
-3.72953
0
LINE
8
BLACK
6
CONTINUOUS
10
6.40657
20
-3.72953
11
6.40657
21
-3.61299
0
LINE
8
BLACK
6
CONTINUOUS
10
6.40657
20
-3.61299
11
6.40686
21
-3.6123
0
LINE
8
BLACK
6
CONTINUOUS
10
6.40686
20
-3.6123
11
6.40756
21
-3.61201
0
LINE
8
BLACK
6
CONTINUOUS
10
6.40756
20
-3.61201
11
6.46504
21
-3.61201
0
LINE
8
BLACK
6
CONTINUOUS
10
6.40854
20
-3.61398
11
6.40854
21
-3.72854
0
LINE
8
BLACK
6
CONTINUOUS
10
6.40854
20
-3.72854
11
6.46406
21
-3.72854
0
LINE
8
BLACK
6
CONTINUOUS
10
6.46406
20
-3.72854
11
6.46406
21
-3.61398
0
LINE
8
BLACK
6
CONTINUOUS
10
6.46406
20
-3.61398
11
6.40854
21
-3.61398
0
LINE
8
BLACK
6
CONTINUOUS
10
5.93906
20
-3.66102
11
5.93975
21
-3.66131
0
LINE
8
BLACK
6
CONTINUOUS
10
5.93975
20
-3.66131
11
5.94004
21
-3.66201
0
LINE
8
BLACK
6
CONTINUOUS
10
5.94004
20
-3.66201
11
5.94004
21
-3.71949
0
LINE
8
BLACK
6
CONTINUOUS
10
5.94004
20
-3.71949
11
5.93975
21
-3.72018
0
LINE
8
BLACK
6
CONTINUOUS
10
5.93975
20
-3.72018
11
5.93906
21
-3.72047
0
LINE
8
BLACK
6
CONTINUOUS
10
5.93906
20
-3.72047
11
5.82252
21
-3.72047
0
LINE
8
BLACK
6
CONTINUOUS
10
5.82252
20
-3.72047
11
5.82182
21
-3.72018
0
LINE
8
BLACK
6
CONTINUOUS
10
5.82182
20
-3.72018
11
5.82154
21
-3.71949
0
LINE
8
BLACK
6
CONTINUOUS
10
5.82154
20
-3.71949
11
5.82154
21
-3.66201
0
LINE
8
BLACK
6
CONTINUOUS
10
5.82154
20
-3.66201
11
5.82182
21
-3.66131
0
LINE
8
BLACK
6
CONTINUOUS
10
5.82182
20
-3.66131
11
5.82252
21
-3.66102
0
LINE
8
BLACK
6
CONTINUOUS
10
5.82252
20
-3.66102
11
5.93906
21
-3.66102
0
LINE
8
BLACK
6
CONTINUOUS
10
5.8235
20
-3.66299
11
5.8235
21
-3.7185
0
LINE
8
BLACK
6
CONTINUOUS
10
5.8235
20
-3.7185
11
5.93807
21
-3.7185
0
LINE
8
BLACK
6
CONTINUOUS
10
5.93807
20
-3.7185
11
5.93807
21
-3.66299
0
LINE
8
BLACK
6
CONTINUOUS
10
5.93807
20
-3.66299
11
5.8235
21
-3.66299
0
LINE
8
BLACK
6
CONTINUOUS
10
5.33209
20
-3.65602
11
5.33278
21
-3.65631
0
LINE
8
BLACK
6
CONTINUOUS
10
5.33278
20
-3.65631
11
5.33307
21
-3.65701
0
LINE
8
BLACK
6
CONTINUOUS
10
5.33307
20
-3.65701
11
5.33307
21
-3.71449
0
LINE
8
BLACK
6
CONTINUOUS
10
5.33307
20
-3.71449
11
5.33278
21
-3.71518
0
LINE
8
BLACK
6
CONTINUOUS
10
5.33278
20
-3.71518
11
5.33209
21
-3.71547
0
LINE
8
BLACK
6
CONTINUOUS
10
5.33209
20
-3.71547
11
5.21555
21
-3.71547
0
LINE
8
BLACK
6
CONTINUOUS
10
5.21555
20
-3.71547
11
5.21486
21
-3.71518
0
LINE
8
BLACK
6
CONTINUOUS
10
5.21486
20
-3.71518
11
5.21457
21
-3.71449
0
LINE
8
BLACK
6
CONTINUOUS
10
5.21457
20
-3.71449
11
5.21457
21
-3.65701
0
LINE
8
BLACK
6
CONTINUOUS
10
5.21457
20
-3.65701
11
5.21486
21
-3.65631
0
LINE
8
BLACK
6
CONTINUOUS
10
5.21486
20
-3.65631
11
5.21555
21
-3.65602
0
LINE
8
BLACK
6
CONTINUOUS
10
5.21555
20
-3.65602
11
5.33209
21
-3.65602
0
LINE
8
BLACK
6
CONTINUOUS
10
5.21654
20
-3.65799
11
5.21654
21
-3.7135
0
LINE
8
BLACK
6
CONTINUOUS
10
5.21654
20
-3.7135
11
5.3311
21
-3.7135
0
LINE
8
BLACK
6
CONTINUOUS
10
5.3311
20
-3.7135
11
5.3311
21
-3.65799
0
LINE
8
BLACK
6
CONTINUOUS
10
5.3311
20
-3.65799
11
5.21654
21
-3.65799
0
LINE
8
BLACK
6
CONTINUOUS
10
6.2647
20
-3.55217
11
6.2654
21
-3.55245
0
LINE
8
BLACK
6
CONTINUOUS
10
6.2654
20
-3.55245
11
6.26569
21
-3.55315
0
LINE
8
BLACK
6
CONTINUOUS
10
6.26569
20
-3.55315
11
6.26569
21
-3.69882
0
LINE
8
BLACK
6
CONTINUOUS
10
6.26569
20
-3.69882
11
6.2654
21
-3.69951
0
LINE
8
BLACK
6
CONTINUOUS
10
6.2654
20
-3.69951
11
6.2647
21
-3.6998
0
LINE
8
BLACK
6
CONTINUOUS
10
6.2647
20
-3.6998
11
6.1899
21
-3.6998
0
LINE
8
BLACK
6
CONTINUOUS
10
6.1899
20
-3.6998
11
6.1892
21
-3.69951
0
LINE
8
BLACK
6
CONTINUOUS
10
6.1892
20
-3.69951
11
6.18891
21
-3.69882
0
LINE
8
BLACK
6
CONTINUOUS
10
6.18891
20
-3.69882
11
6.18891
21
-3.55315
0
LINE
8
BLACK
6
CONTINUOUS
10
6.18891
20
-3.55315
11
6.1892
21
-3.55245
0
LINE
8
BLACK
6
CONTINUOUS
10
6.1892
20
-3.55245
11
6.1899
21
-3.55217
0
LINE
8
BLACK
6
CONTINUOUS
10
6.1899
20
-3.55217
11
6.2647
21
-3.55217
0
LINE
8
BLACK
6
CONTINUOUS
10
6.19088
20
-3.55413
11
6.19088
21
-3.69783
0
LINE
8
BLACK
6
CONTINUOUS
10
6.19088
20
-3.69783
11
6.26372
21
-3.69783
0
LINE
8
BLACK
6
CONTINUOUS
10
6.26372
20
-3.69783
11
6.26372
21
-3.55413
0
LINE
8
BLACK
6
CONTINUOUS
10
6.26372
20
-3.55413
11
6.19088
21
-3.55413
0
LINE
8
BLACK
6
CONTINUOUS
10
5.87598
20
-3.4624
11
5.87668
21
-3.46269
0
LINE
8
BLACK
6
CONTINUOUS
10
5.87668
20
-3.46269
11
5.87697
21
-3.46339
0
LINE
8
BLACK
6
CONTINUOUS
10
5.87697
20
-3.46339
11
5.87697
21
-3.50591
0
LINE
8
BLACK
6
CONTINUOUS
10
5.87697
20
-3.50591
11
5.87726
21
-3.50521
0
LINE
8
BLACK
6
CONTINUOUS
10
5.87726
20
-3.50521
11
5.87795
21
-3.50492
0
LINE
8
BLACK
6
CONTINUOUS
10
5.87795
20
-3.50492
11
5.95276
21
-3.50492
0
LINE
8
BLACK
6
CONTINUOUS
10
5.95276
20
-3.50492
11
5.95345
21
-3.50521
0
LINE
8
BLACK
6
CONTINUOUS
10
5.95345
20
-3.50521
11
5.95374
21
-3.50591
0
LINE
8
BLACK
6
CONTINUOUS
10
5.95374
20
-3.50591
11
5.95374
21
-3.65157
0
LINE
8
BLACK
6
CONTINUOUS
10
5.95374
20
-3.65157
11
5.95345
21
-3.65227
0
LINE
8
BLACK
6
CONTINUOUS
10
5.95345
20
-3.65227
11
5.95276
21
-3.65256
0
LINE
8
BLACK
6
CONTINUOUS
10
5.95276
20
-3.65256
11
5.87795
21
-3.65256
0
LINE
8
BLACK
6
CONTINUOUS
10
5.87795
20
-3.65256
11
5.87726
21
-3.65227
0
LINE
8
BLACK
6
CONTINUOUS
10
5.87726
20
-3.65227
11
5.87697
21
-3.65157
0
LINE
8
BLACK
6
CONTINUOUS
10
5.87697
20
-3.65157
11
5.87697
21
-3.59567
0
LINE
8
BLACK
6
CONTINUOUS
10
5.87697
20
-3.59567
11
5.87668
21
-3.59637
0
LINE
8
BLACK
6
CONTINUOUS
10
5.87668
20
-3.59637
11
5.87598
21
-3.59665
0
LINE
8
BLACK
6
CONTINUOUS
10
5.87598
20
-3.59665
11
5.80118
21
-3.59665
0
LINE
8
BLACK
6
CONTINUOUS
10
5.80118
20
-3.59665
11
5.80049
21
-3.59637
0
LINE
8
BLACK
6
CONTINUOUS
10
5.80049
20
-3.59637
11
5.8002
21
-3.59567
0
LINE
8
BLACK
6
CONTINUOUS
10
5.8002
20
-3.59567
11
5.8002
21
-3.46339
0
LINE
8
BLACK
6
CONTINUOUS
10
5.8002
20
-3.46339
11
5.80049
21
-3.46269
0
LINE
8
BLACK
6
CONTINUOUS
10
5.80049
20
-3.46269
11
5.80118
21
-3.4624
0
LINE
8
BLACK
6
CONTINUOUS
10
5.80118
20
-3.4624
11
5.87598
21
-3.4624
0
LINE
8
BLACK
6
CONTINUOUS
10
5.87894
20
-3.50689
11
5.87894
21
-3.65059
0
LINE
8
BLACK
6
CONTINUOUS
10
5.87894
20
-3.65059
11
5.95177
21
-3.65059
0
LINE
8
BLACK
6
CONTINUOUS
10
5.95177
20
-3.65059
11
5.95177
21
-3.50689
0
LINE
8
BLACK
6
CONTINUOUS
10
5.95177
20
-3.50689
11
5.87894
21
-3.50689
0
LINE
8
BLACK
6
CONTINUOUS
10
5.80217
20
-3.46437
11
5.80217
21
-3.59469
0
LINE
8
BLACK
6
CONTINUOUS
10
5.80217
20
-3.59469
11
5.875
21
-3.59469
0
LINE
8
BLACK
6
CONTINUOUS
10
5.875
20
-3.59469
11
5.875
21
-3.46437
0
LINE
8
BLACK
6
CONTINUOUS
10
5.875
20
-3.46437
11
5.80217
21
-3.46437
0
LINE
8
BLACK
6
CONTINUOUS
10
5.79843
20
-3.50098
11
5.79912
21
-3.50127
0
LINE
8
BLACK
6
CONTINUOUS
10
5.79912
20
-3.50127
11
5.79941
21
-3.50197
0
LINE
8
BLACK
6
CONTINUOUS
10
5.79941
20
-3.50197
11
5.79941
21
-3.63583
0
LINE
8
BLACK
6
CONTINUOUS
10
5.79941
20
-3.63583
11
5.79912
21
-3.63652
0
LINE
8
BLACK
6
CONTINUOUS
10
5.79912
20
-3.63652
11
5.79843
21
-3.63681
0
LINE
8
BLACK
6
CONTINUOUS
10
5.79843
20
-3.63681
11
5.72126
21
-3.63681
0
LINE
8
BLACK
6
CONTINUOUS
10
5.72126
20
-3.63681
11
5.72056
21
-3.63652
0
LINE
8
BLACK
6
CONTINUOUS
10
5.72056
20
-3.63652
11
5.72028
21
-3.63583
0
LINE
8
BLACK
6
CONTINUOUS
10
5.72028
20
-3.63583
11
5.72028
21
-3.50197
0
LINE
8
BLACK
6
CONTINUOUS
10
5.72028
20
-3.50197
11
5.72056
21
-3.50127
0
LINE
8
BLACK
6
CONTINUOUS
10
5.72056
20
-3.50127
11
5.72126
21
-3.50098
0
LINE
8
BLACK
6
CONTINUOUS
10
5.72126
20
-3.50098
11
5.79843
21
-3.50098
0
LINE
8
BLACK
6
CONTINUOUS
10
5.72224
20
-3.50295
11
5.72224
21
-3.63484
0
LINE
8
BLACK
6
CONTINUOUS
10
5.72224
20
-3.63484
11
5.79744
21
-3.63484
0
LINE
8
BLACK
6
CONTINUOUS
10
5.79744
20
-3.63484
11
5.79744
21
-3.50295
0
LINE
8
BLACK
6
CONTINUOUS
10
5.79744
20
-3.50295
11
5.72224
21
-3.50295
0
LINE
8
BLACK
6
CONTINUOUS
10
5.59173
20
-3.51654
11
5.59243
21
-3.51682
0
LINE
8
BLACK
6
CONTINUOUS
10
5.59243
20
-3.51682
11
5.59272
21
-3.51752
0
LINE
8
BLACK
6
CONTINUOUS
10
5.59272
20
-3.51752
11
5.59272
21
-3.63406
0
LINE
8
BLACK
6
CONTINUOUS
10
5.59272
20
-3.63406
11
5.59243
21
-3.63475
0
LINE
8
BLACK
6
CONTINUOUS
10
5.59243
20
-3.63475
11
5.59173
21
-3.63504
0
LINE
8
BLACK
6
CONTINUOUS
10
5.59173
20
-3.63504
11
5.53425
21
-3.63504
0
LINE
8
BLACK
6
CONTINUOUS
10
5.53425
20
-3.63504
11
5.53356
21
-3.63475
0
LINE
8
BLACK
6
CONTINUOUS
10
5.53356
20
-3.63475
11
5.53327
21
-3.63406
0
LINE
8
BLACK
6
CONTINUOUS
10
5.53327
20
-3.63406
11
5.53327
21
-3.51752
0
LINE
8
BLACK
6
CONTINUOUS
10
5.53327
20
-3.51752
11
5.53356
21
-3.51682
0
LINE
8
BLACK
6
CONTINUOUS
10
5.53356
20
-3.51682
11
5.53425
21
-3.51654
0
LINE
8
BLACK
6
CONTINUOUS
10
5.53425
20
-3.51654
11
5.59173
21
-3.51654
0
LINE
8
BLACK
6
CONTINUOUS
10
5.53524
20
-3.5185
11
5.53524
21
-3.63307
0
LINE
8
BLACK
6
CONTINUOUS
10
5.53524
20
-3.63307
11
5.59075
21
-3.63307
0
LINE
8
BLACK
6
CONTINUOUS
10
5.59075
20
-3.63307
11
5.59075
21
-3.5185
0
LINE
8
BLACK
6
CONTINUOUS
10
5.59075
20
-3.5185
11
5.53524
21
-3.5185
0
LINE
8
BLACK
6
CONTINUOUS
10
5.65472
20
-3.50768
11
5.65542
21
-3.50797
0
LINE
8
BLACK
6
CONTINUOUS
10
5.65542
20
-3.50797
11
5.65571
21
-3.50866
0
LINE
8
BLACK
6
CONTINUOUS
10
5.65571
20
-3.50866
11
5.65571
21
-3.6252
0
LINE
8
BLACK
6
CONTINUOUS
10
5.65571
20
-3.6252
11
5.65542
21
-3.62589
0
LINE
8
BLACK
6
CONTINUOUS
10
5.65542
20
-3.62589
11
5.65472
21
-3.62618
0
LINE
8
BLACK
6
CONTINUOUS
10
5.65472
20
-3.62618
11
5.59724
21
-3.62618
0
LINE
8
BLACK
6
CONTINUOUS
10
5.59724
20
-3.62618
11
5.59655
21
-3.62589
0
LINE
8
BLACK
6
CONTINUOUS
10
5.59655
20
-3.62589
11
5.59626
21
-3.6252
0
LINE
8
BLACK
6
CONTINUOUS
10
5.59626
20
-3.6252
11
5.59626
21
-3.50866
0
LINE
8
BLACK
6
CONTINUOUS
10
5.59626
20
-3.50866
11
5.59655
21
-3.50797
0
LINE
8
BLACK
6
CONTINUOUS
10
5.59655
20
-3.50797
11
5.59724
21
-3.50768
0
LINE
8
BLACK
6
CONTINUOUS
10
5.59724
20
-3.50768
11
5.65472
21
-3.50768
0
LINE
8
BLACK
6
CONTINUOUS
10
5.59823
20
-3.50965
11
5.59823
21
-3.62421
0
LINE
8
BLACK
6
CONTINUOUS
10
5.59823
20
-3.62421
11
5.65374
21
-3.62421
0
LINE
8
BLACK
6
CONTINUOUS
10
5.65374
20
-3.62421
11
5.65374
21
-3.50965
0
LINE
8
BLACK
6
CONTINUOUS
10
5.65374
20
-3.50965
11
5.59823
21
-3.50965
0
LINE
8
BLACK
6
CONTINUOUS
10
5.71772
20
-3.50768
11
5.71841
21
-3.50797
0
LINE
8
BLACK
6
CONTINUOUS
10
5.71841
20
-3.50797
11
5.7187
21
-3.50866
0
LINE
8
BLACK
6
CONTINUOUS
10
5.7187
20
-3.50866
11
5.7187
21
-3.6252
0
LINE
8
BLACK
6
CONTINUOUS
10
5.7187
20
-3.6252
11
5.71841
21
-3.62589
0
LINE
8
BLACK
6
CONTINUOUS
10
5.71841
20
-3.62589
11
5.71772
21
-3.62618
0
LINE
8
BLACK
6
CONTINUOUS
10
5.71772
20
-3.62618
11
5.66024
21
-3.62618
0
LINE
8
BLACK
6
CONTINUOUS
10
5.66024
20
-3.62618
11
5.65954
21
-3.62589
0
LINE
8
BLACK
6
CONTINUOUS
10
5.65954
20
-3.62589
11
5.65925
21
-3.6252
0
LINE
8
BLACK
6
CONTINUOUS
10
5.65925
20
-3.6252
11
5.65925
21
-3.50866
0
LINE
8
BLACK
6
CONTINUOUS
10
5.65925
20
-3.50866
11
5.65954
21
-3.50797
0
LINE
8
BLACK
6
CONTINUOUS
10
5.65954
20
-3.50797
11
5.66024
21
-3.50768
0
LINE
8
BLACK
6
CONTINUOUS
10
5.66024
20
-3.50768
11
5.71772
21
-3.50768
0
LINE
8
BLACK
6
CONTINUOUS
10
5.66122
20
-3.50965
11
5.66122
21
-3.62421
0
LINE
8
BLACK
6
CONTINUOUS
10
5.66122
20
-3.62421
11
5.71673
21
-3.62421
0
LINE
8
BLACK
6
CONTINUOUS
10
5.71673
20
-3.62421
11
5.71673
21
-3.50965
0
LINE
8
BLACK
6
CONTINUOUS
10
5.71673
20
-3.50965
11
5.66122
21
-3.50965
0
LINE
8
BLACK
6
CONTINUOUS
10
6.1673
20
-3.52736
11
6.168
21
-3.52765
0
LINE
8
BLACK
6
CONTINUOUS
10
6.168
20
-3.52765
11
6.16829
21
-3.52835
0
LINE
8
BLACK
6
CONTINUOUS
10
6.16829
20
-3.52835
11
6.16829
21
-3.60315
0
LINE
8
BLACK
6
CONTINUOUS
10
6.16829
20
-3.60315
11
6.168
21
-3.60385
0
LINE
8
BLACK
6
CONTINUOUS
10
6.168
20
-3.60385
11
6.1673
21
-3.60413
0
LINE
8
BLACK
6
CONTINUOUS
10
6.1673
20
-3.60413
11
6.02163
21
-3.60413
0
LINE
8
BLACK
6
CONTINUOUS
10
6.02163
20
-3.60413
11
6.02094
21
-3.60385
0
LINE
8
BLACK
6
CONTINUOUS
10
6.02094
20
-3.60385
11
6.02065
21
-3.60315
0
LINE
8
BLACK
6
CONTINUOUS
10
6.02065
20
-3.60315
11
6.02065
21
-3.52835
0
LINE
8
BLACK
6
CONTINUOUS
10
6.02065
20
-3.52835
11
6.02094
21
-3.52765
0
LINE
8
BLACK
6
CONTINUOUS
10
6.02094
20
-3.52765
11
6.02163
21
-3.52736
0
LINE
8
BLACK
6
CONTINUOUS
10
6.02163
20
-3.52736
11
6.1673
21
-3.52736
0
LINE
8
BLACK
6
CONTINUOUS
10
6.02262
20
-3.52933
11
6.02262
21
-3.60217
0
LINE
8
BLACK
6
CONTINUOUS
10
6.02262
20
-3.60217
11
6.16632
21
-3.60217
0
LINE
8
BLACK
6
CONTINUOUS
10
6.16632
20
-3.60217
11
6.16632
21
-3.52933
0
LINE
8
BLACK
6
CONTINUOUS
10
6.16632
20
-3.52933
11
6.02262
21
-3.52933
0
LINE
8
BLACK
6
CONTINUOUS
10
5.34449
20
-3.52118
11
5.34518
21
-3.52147
0
LINE
8
BLACK
6
CONTINUOUS
10
5.34518
20
-3.52147
11
5.34547
21
-3.52217
0
LINE
8
BLACK
6
CONTINUOUS
10
5.34547
20
-3.52217
11
5.34547
21
-3.59933
0
LINE
8
BLACK
6
CONTINUOUS
10
5.34547
20
-3.59933
11
5.34518
21
-3.60003
0
LINE
8
BLACK
6
CONTINUOUS
10
5.34518
20
-3.60003
11
5.34449
21
-3.60031
0
LINE
8
BLACK
6
CONTINUOUS
10
5.34449
20
-3.60031
11
5.21063
21
-3.60031
0
LINE
8
BLACK
6
CONTINUOUS
10
5.21063
20
-3.60031
11
5.20993
21
-3.60003
0
LINE
8
BLACK
6
CONTINUOUS
10
5.20993
20
-3.60003
11
5.20965
21
-3.59933
0
LINE
8
BLACK
6
CONTINUOUS
10
5.20965
20
-3.59933
11
5.20965
21
-3.52217
0
LINE
8
BLACK
6
CONTINUOUS
10
5.20965
20
-3.52217
11
5.20993
21
-3.52147
0
LINE
8
BLACK
6
CONTINUOUS
10
5.20993
20
-3.52147
11
5.21063
21
-3.52118
0
LINE
8
BLACK
6
CONTINUOUS
10
5.21063
20
-3.52118
11
5.34449
21
-3.52118
0
LINE
8
BLACK
6
CONTINUOUS
10
5.21161
20
-3.52315
11
5.21161
21
-3.59835
0
LINE
8
BLACK
6
CONTINUOUS
10
5.21161
20
-3.59835
11
5.3435
21
-3.59835
0
LINE
8
BLACK
6
CONTINUOUS
10
5.3435
20
-3.59835
11
5.3435
21
-3.52315
0
LINE
8
BLACK
6
CONTINUOUS
10
5.3435
20
-3.52315
11
5.21161
21
-3.52315
0
LINE
8
BLACK
6
CONTINUOUS
10
6.47689
20
-3.48024
11
6.47759
21
-3.48052
0
LINE
8
BLACK
6
CONTINUOUS
10
6.47759
20
-3.48052
11
6.47787
21
-3.48122
0
LINE
8
BLACK
6
CONTINUOUS
10
6.47787
20
-3.48122
11
6.47787
21
-3.59146
0
LINE
8
BLACK
6
CONTINUOUS
10
6.47787
20
-3.59146
11
6.47759
21
-3.59215
0
LINE
8
BLACK
6
CONTINUOUS
10
6.47759
20
-3.59215
11
6.47689
21
-3.59244
0
LINE
8
BLACK
6
CONTINUOUS
10
6.47689
20
-3.59244
11
6.35091
21
-3.59244
0
LINE
8
BLACK
6
CONTINUOUS
10
6.35091
20
-3.59244
11
6.35021
21
-3.59215
0
LINE
8
BLACK
6
CONTINUOUS
10
6.35021
20
-3.59215
11
6.34992
21
-3.59146
0
LINE
8
BLACK
6
CONTINUOUS
10
6.34992
20
-3.59146
11
6.34992
21
-3.48122
0
LINE
8
BLACK
6
CONTINUOUS
10
6.34992
20
-3.48122
11
6.35021
21
-3.48052
0
LINE
8
BLACK
6
CONTINUOUS
10
6.35021
20
-3.48052
11
6.35091
21
-3.48024
0
LINE
8
BLACK
6
CONTINUOUS
10
6.35091
20
-3.48024
11
6.47689
21
-3.48024
0
LINE
8
BLACK
6
CONTINUOUS
10
6.35189
20
-3.4822
11
6.35189
21
-3.59047
0
LINE
8
BLACK
6
CONTINUOUS
10
6.35189
20
-3.59047
11
6.47591
21
-3.59047
0
LINE
8
BLACK
6
CONTINUOUS
10
6.47591
20
-3.59047
11
6.47591
21
-3.4822
0
LINE
8
BLACK
6
CONTINUOUS
10
6.47591
20
-3.4822
11
6.35189
21
-3.4822
0
LINE
8
BLACK
6
CONTINUOUS
10
6.32504
20
-3.4235
11
6.32574
21
-3.42378
0
LINE
8
BLACK
6
CONTINUOUS
10
6.32574
20
-3.42378
11
6.32602
21
-3.42448
0
LINE
8
BLACK
6
CONTINUOUS
10
6.32602
20
-3.42448
11
6.32602
21
-3.54102
0
LINE
8
BLACK
6
CONTINUOUS
10
6.32602
20
-3.54102
11
6.32574
21
-3.54171
0
LINE
8
BLACK
6
CONTINUOUS
10
6.32574
20
-3.54171
11
6.32504
21
-3.542
0
LINE
8
BLACK
6
CONTINUOUS
10
6.32504
20
-3.542
11
6.26756
21
-3.542
0
LINE
8
BLACK
6
CONTINUOUS
10
6.26756
20
-3.542
11
6.26686
21
-3.54171
0
LINE
8
BLACK
6
CONTINUOUS
10
6.26686
20
-3.54171
11
6.26657
21
-3.54102
0
LINE
8
BLACK
6
CONTINUOUS
10
6.26657
20
-3.54102
11
6.26657
21
-3.42448
0
LINE
8
BLACK
6
CONTINUOUS
10
6.26657
20
-3.42448
11
6.26686
21
-3.42378
0
LINE
8
BLACK
6
CONTINUOUS
10
6.26686
20
-3.42378
11
6.26756
21
-3.4235
0
LINE
8
BLACK
6
CONTINUOUS
10
6.26756
20
-3.4235
11
6.32504
21
-3.4235
0
LINE
8
BLACK
6
CONTINUOUS
10
6.26854
20
-3.42546
11
6.26854
21
-3.54003
0
LINE
8
BLACK
6
CONTINUOUS
10
6.26854
20
-3.54003
11
6.32406
21
-3.54003
0
LINE
8
BLACK
6
CONTINUOUS
10
6.32406
20
-3.54003
11
6.32406
21
-3.42546
0
LINE
8
BLACK
6
CONTINUOUS
10
6.32406
20
-3.42546
11
6.26854
21
-3.42546
0
LINE
8
BLACK
6
CONTINUOUS
10
6.23406
20
-3.46602
11
6.23475
21
-3.46631
0
LINE
8
BLACK
6
CONTINUOUS
10
6.23475
20
-3.46631
11
6.23504
21
-3.46701
0
LINE
8
BLACK
6
CONTINUOUS
10
6.23504
20
-3.46701
11
6.23504
21
-3.52449
0
LINE
8
BLACK
6
CONTINUOUS
10
6.23504
20
-3.52449
11
6.23475
21
-3.52518
0
LINE
8
BLACK
6
CONTINUOUS
10
6.23475
20
-3.52518
11
6.23406
21
-3.52547
0
LINE
8
BLACK
6
CONTINUOUS
10
6.23406
20
-3.52547
11
6.11752
21
-3.52547
0
LINE
8
BLACK
6
CONTINUOUS
10
6.11752
20
-3.52547
11
6.11682
21
-3.52518
0
LINE
8
BLACK
6
CONTINUOUS
10
6.11682
20
-3.52518
11
6.11654
21
-3.52449
0
LINE
8
BLACK
6
CONTINUOUS
10
6.11654
20
-3.52449
11
6.11654
21
-3.46701
0
LINE
8
BLACK
6
CONTINUOUS
10
6.11654
20
-3.46701
11
6.11682
21
-3.46631
0
LINE
8
BLACK
6
CONTINUOUS
10
6.11682
20
-3.46631
11
6.11752
21
-3.46602
0
LINE
8
BLACK
6
CONTINUOUS
10
6.11752
20
-3.46602
11
6.23406
21
-3.46602
0
LINE
8
BLACK
6
CONTINUOUS
10
6.1185
20
-3.46799
11
6.1185
21
-3.5235
0
LINE
8
BLACK
6
CONTINUOUS
10
6.1185
20
-3.5235
11
6.23307
21
-3.5235
0
LINE
8
BLACK
6
CONTINUOUS
10
6.23307
20
-3.5235
11
6.23307
21
-3.46799
0
LINE
8
BLACK
6
CONTINUOUS
10
6.23307
20
-3.46799
11
6.1185
21
-3.46799
0
LINE
8
BLACK
6
CONTINUOUS
10
6.08004
20
-3.4015
11
6.08074
21
-3.40178
0
LINE
8
BLACK
6
CONTINUOUS
10
6.08074
20
-3.40178
11
6.08102
21
-3.40248
0
LINE
8
BLACK
6
CONTINUOUS
10
6.08102
20
-3.40248
11
6.08102
21
-3.51902
0
LINE
8
BLACK
6
CONTINUOUS
10
6.08102
20
-3.51902
11
6.08074
21
-3.51971
0
LINE
8
BLACK
6
CONTINUOUS
10
6.08074
20
-3.51971
11
6.08004
21
-3.52
0
LINE
8
BLACK
6
CONTINUOUS
10
6.08004
20
-3.52
11
6.02256
21
-3.52
0
LINE
8
BLACK
6
CONTINUOUS
10
6.02256
20
-3.52
11
6.02186
21
-3.51971
0
LINE
8
BLACK
6
CONTINUOUS
10
6.02186
20
-3.51971
11
6.02157
21
-3.51902
0
LINE
8
BLACK
6
CONTINUOUS
10
6.02157
20
-3.51902
11
6.02157
21
-3.40248
0
LINE
8
BLACK
6
CONTINUOUS
10
6.02157
20
-3.40248
11
6.02186
21
-3.40178
0
LINE
8
BLACK
6
CONTINUOUS
10
6.02186
20
-3.40178
11
6.02256
21
-3.4015
0
LINE
8
BLACK
6
CONTINUOUS
10
6.02256
20
-3.4015
11
6.08004
21
-3.4015
0
LINE
8
BLACK
6
CONTINUOUS
10
6.02354
20
-3.40346
11
6.02354
21
-3.51803
0
LINE
8
BLACK
6
CONTINUOUS
10
6.02354
20
-3.51803
11
6.07906
21
-3.51803
0
LINE
8
BLACK
6
CONTINUOUS
10
6.07906
20
-3.51803
11
6.07906
21
-3.40346
0
LINE
8
BLACK
6
CONTINUOUS
10
6.07906
20
-3.40346
11
6.02354
21
-3.40346
0
LINE
8
BLACK
6
CONTINUOUS
10
5.32906
20
-3.44102
11
5.32975
21
-3.44131
0
LINE
8
BLACK
6
CONTINUOUS
10
5.32975
20
-3.44131
11
5.33004
21
-3.44201
0
LINE
8
BLACK
6
CONTINUOUS
10
5.33004
20
-3.44201
11
5.33004
21
-3.49949
0
LINE
8
BLACK
6
CONTINUOUS
10
5.33004
20
-3.49949
11
5.32975
21
-3.50018
0
LINE
8
BLACK
6
CONTINUOUS
10
5.32975
20
-3.50018
11
5.32906
21
-3.50047
0
LINE
8
BLACK
6
CONTINUOUS
10
5.32906
20
-3.50047
11
5.21252
21
-3.50047
0
LINE
8
BLACK
6
CONTINUOUS
10
5.21252
20
-3.50047
11
5.21182
21
-3.50018
0
LINE
8
BLACK
6
CONTINUOUS
10
5.21182
20
-3.50018
11
5.21154
21
-3.49949
0
LINE
8
BLACK
6
CONTINUOUS
10
5.21154
20
-3.49949
11
5.21154
21
-3.44201
0
LINE
8
BLACK
6
CONTINUOUS
10
5.21154
20
-3.44201
11
5.21182
21
-3.44131
0
LINE
8
BLACK
6
CONTINUOUS
10
5.21182
20
-3.44131
11
5.21252
21
-3.44102
0
LINE
8
BLACK
6
CONTINUOUS
10
5.21252
20
-3.44102
11
5.32906
21
-3.44102
0
LINE
8
BLACK
6
CONTINUOUS
10
5.2135
20
-3.44299
11
5.2135
21
-3.4985
0
LINE
8
BLACK
6
CONTINUOUS
10
5.2135
20
-3.4985
11
5.32807
21
-3.4985
0
LINE
8
BLACK
6
CONTINUOUS
10
5.32807
20
-3.4985
11
5.32807
21
-3.44299
0
LINE
8
BLACK
6
CONTINUOUS
10
5.32807
20
-3.44299
11
5.2135
21
-3.44299
0
LINE
8
BLACK
6
CONTINUOUS
10
5.79724
20
-3.35236
11
5.79794
21
-3.35265
0
LINE
8
BLACK
6
CONTINUOUS
10
5.79794
20
-3.35265
11
5.79823
21
-3.35335
0
LINE
8
BLACK
6
CONTINUOUS
10
5.79823
20
-3.35335
11
5.79823
21
-3.49902
0
LINE
8
BLACK
6
CONTINUOUS
10
5.79823
20
-3.49902
11
5.79794
21
-3.49971
0
LINE
8
BLACK
6
CONTINUOUS
10
5.79794
20
-3.49971
11
5.79724
21
-3.5
0
LINE
8
BLACK
6
CONTINUOUS
10
5.79724
20
-3.5
11
5.72244
21
-3.5
0
LINE
8
BLACK
6
CONTINUOUS
10
5.72244
20
-3.5
11
5.72174
21
-3.49971
0
LINE
8
BLACK
6
CONTINUOUS
10
5.72174
20
-3.49971
11
5.72146
21
-3.49902
0
LINE
8
BLACK
6
CONTINUOUS
10
5.72146
20
-3.49902
11
5.72146
21
-3.49902
0
LINE
8
BLACK
6
CONTINUOUS
10
5.72146
20
-3.49902
11
5.72146
21
-3.35335
0
LINE
8
BLACK
6
CONTINUOUS
10
5.72146
20
-3.35335
11
5.72174
21
-3.35265
0
LINE
8
BLACK
6
CONTINUOUS
10
5.72174
20
-3.35265
11
5.72244
21
-3.35236
0
LINE
8
BLACK
6
CONTINUOUS
10
5.72244
20
-3.35236
11
5.79724
21
-3.35236
0
LINE
8
BLACK
6
CONTINUOUS
10
5.72343
20
-3.35433
11
5.72343
21
-3.49803
0
LINE
8
BLACK
6
CONTINUOUS
10
5.72343
20
-3.49803
11
5.79626
21
-3.49803
0
LINE
8
BLACK
6
CONTINUOUS
10
5.79626
20
-3.49803
11
5.79626
21
-3.35433
0
LINE
8
BLACK
6
CONTINUOUS
10
5.79626
20
-3.35433
11
5.72343
21
-3.35433
0
LINE
8
BLACK
6
CONTINUOUS
10
5.86112
20
-3.35853
11
5.94352
21
-3.44093
0
LINE
8
BLACK
6
CONTINUOUS
10
5.94352
20
-3.44093
11
5.94381
21
-3.44163
0
LINE
8
BLACK
6
CONTINUOUS
10
5.94381
20
-3.44163
11
5.94365
21
-3.44201
0
LINE
8
BLACK
6
CONTINUOUS
10
5.94365
20
-3.44201
11
5.94352
21
-3.44232
0
LINE
8
BLACK
6
CONTINUOUS
10
5.94352
20
-3.44232
11
5.90287
21
-3.48297
0
LINE
8
BLACK
6
CONTINUOUS
10
5.90287
20
-3.48297
11
5.90287
21
-3.48297
0
LINE
8
BLACK
6
CONTINUOUS
10
5.90287
20
-3.48297
11
5.90218
21
-3.48326
0
LINE
8
BLACK
6
CONTINUOUS
10
5.90218
20
-3.48326
11
5.90148
21
-3.48297
0
LINE
8
BLACK
6
CONTINUOUS
10
5.90148
20
-3.48297
11
5.81908
21
-3.40056
0
LINE
8
BLACK
6
CONTINUOUS
10
5.81908
20
-3.40056
11
5.81879
21
-3.39987
0
LINE
8
BLACK
6
CONTINUOUS
10
5.81879
20
-3.39987
11
5.81908
21
-3.39917
0
LINE
8
BLACK
6
CONTINUOUS
10
5.81908
20
-3.39917
11
5.85972
21
-3.35853
0
LINE
8
BLACK
6
CONTINUOUS
10
5.85972
20
-3.35853
11
5.86042
21
-3.35824
0
LINE
8
BLACK
6
CONTINUOUS
10
5.86042
20
-3.35824
11
5.86112
21
-3.35853
0
LINE
8
BLACK
6
CONTINUOUS
10
5.82117
20
-3.39987
11
5.90218
21
-3.48088
0
LINE
8
BLACK
6
CONTINUOUS
10
5.90218
20
-3.48088
11
5.94143
21
-3.44163
0
LINE
8
BLACK
6
CONTINUOUS
10
5.94143
20
-3.44163
11
5.86042
21
-3.36062
0
LINE
8
BLACK
6
CONTINUOUS
10
5.86042
20
-3.36062
11
5.82117
21
-3.39987
0
LINE
8
BLACK
6
CONTINUOUS
10
5.66382
20
-3.21693
11
5.66451
21
-3.21722
0
LINE
8
BLACK
6
CONTINUOUS
10
5.66451
20
-3.21722
11
5.6648
21
-3.21791
0
LINE
8
BLACK
6
CONTINUOUS
10
5.6648
20
-3.21791
11
5.6648
21
-3.46358
0
LINE
8
BLACK
6
CONTINUOUS
10
5.6648
20
-3.46358
11
5.66451
21
-3.46428
0
LINE
8
BLACK
6
CONTINUOUS
10
5.66451
20
-3.46428
11
5.66382
21
-3.46457
0
LINE
8
BLACK
6
CONTINUOUS
10
5.66382
20
-3.46457
11
5.37878
21
-3.46457
0
LINE
8
BLACK
6
CONTINUOUS
10
5.37878
20
-3.46457
11
5.37808
21
-3.46428
0
LINE
8
BLACK
6
CONTINUOUS
10
5.37808
20
-3.46428
11
5.3778
21
-3.46358
0
LINE
8
BLACK
6
CONTINUOUS
10
5.3778
20
-3.46358
11
5.3778
21
-3.21791
0
LINE
8
BLACK
6
CONTINUOUS
10
5.3778
20
-3.21791
11
5.37808
21
-3.21722
0
LINE
8
BLACK
6
CONTINUOUS
10
5.37808
20
-3.21722
11
5.37878
21
-3.21693
0
LINE
8
BLACK
6
CONTINUOUS
10
5.37878
20
-3.21693
11
5.66382
21
-3.21693
0
LINE
8
BLACK
6
CONTINUOUS
10
5.37976
20
-3.2189
11
5.37976
21
-3.4626
0
LINE
8
BLACK
6
CONTINUOUS
10
5.37976
20
-3.4626
11
5.66283
21
-3.4626
0
LINE
8
BLACK
6
CONTINUOUS
10
5.66283
20
-3.4626
11
5.66283
21
-3.2189
0
LINE
8
BLACK
6
CONTINUOUS
10
5.66283
20
-3.2189
11
5.37976
21
-3.2189
0
LINE
8
BLACK
6
CONTINUOUS
10
6.23406
20
-3.40102
11
6.23475
21
-3.40131
0
LINE
8
BLACK
6
CONTINUOUS
10
6.23475
20
-3.40131
11
6.23504
21
-3.40201
0
LINE
8
BLACK
6
CONTINUOUS
10
6.23504
20
-3.40201
11
6.23504
21
-3.45949
0
LINE
8
BLACK
6
CONTINUOUS
10
6.23504
20
-3.45949
11
6.23475
21
-3.46018
0
LINE
8
BLACK
6
CONTINUOUS
10
6.23475
20
-3.46018
11
6.23406
21
-3.46047
0
LINE
8
BLACK
6
CONTINUOUS
10
6.23406
20
-3.46047
11
6.11752
21
-3.46047
0
LINE
8
BLACK
6
CONTINUOUS
10
6.11752
20
-3.46047
11
6.11682
21
-3.46018
0
LINE
8
BLACK
6
CONTINUOUS
10
6.11682
20
-3.46018
11
6.11654
21
-3.45949
0
LINE
8
BLACK
6
CONTINUOUS
10
6.11654
20
-3.45949
11
6.11654
21
-3.40201
0
LINE
8
BLACK
6
CONTINUOUS
10
6.11654
20
-3.40201
11
6.11682
21
-3.40131
0
LINE
8
BLACK
6
CONTINUOUS
10
6.11682
20
-3.40131
11
6.11752
21
-3.40102
0
LINE
8
BLACK
6
CONTINUOUS
10
6.11752
20
-3.40102
11
6.23406
21
-3.40102
0
LINE
8
BLACK
6
CONTINUOUS
10
6.1185
20
-3.40299
11
6.1185
21
-3.4585
0
LINE
8
BLACK
6
CONTINUOUS
10
6.1185
20
-3.4585
11
6.23307
21
-3.4585
0
LINE
8
BLACK
6
CONTINUOUS
10
6.23307
20
-3.4585
11
6.23307
21
-3.40299
0
LINE
8
BLACK
6
CONTINUOUS
10
6.23307
20
-3.40299
11
6.1185
21
-3.40299
0
LINE
8
BLACK
6
CONTINUOUS
10
6.46504
20
-3.33701
11
6.46574
21
-3.3373
0
LINE
8
BLACK
6
CONTINUOUS
10
6.46574
20
-3.3373
11
6.46602
21
-3.33799
0
LINE
8
BLACK
6
CONTINUOUS
10
6.46602
20
-3.33799
11
6.46602
21
-3.45453
0
LINE
8
BLACK
6
CONTINUOUS
10
6.46602
20
-3.45453
11
6.46574
21
-3.45522
0
LINE
8
BLACK
6
CONTINUOUS
10
6.46574
20
-3.45522
11
6.46504
21
-3.45551
0
LINE
8
BLACK
6
CONTINUOUS
10
6.46504
20
-3.45551
11
6.40756
21
-3.45551
0
LINE
8
BLACK
6
CONTINUOUS
10
6.40756
20
-3.45551
11
6.40686
21
-3.45522
0
LINE
8
BLACK
6
CONTINUOUS
10
6.40686
20
-3.45522
11
6.40657
21
-3.45453
0
LINE
8
BLACK
6
CONTINUOUS
10
6.40657
20
-3.45453
11
6.40657
21
-3.33799
0
LINE
8
BLACK
6
CONTINUOUS
10
6.40657
20
-3.33799
11
6.40686
21
-3.3373
0
LINE
8
BLACK
6
CONTINUOUS
10
6.40686
20
-3.3373
11
6.40756
21
-3.33701
0
LINE
8
BLACK
6
CONTINUOUS
10
6.40756
20
-3.33701
11
6.46504
21
-3.33701
0
LINE
8
BLACK
6
CONTINUOUS
10
6.40854
20
-3.33898
11
6.40854
21
-3.45354
0
LINE
8
BLACK
6
CONTINUOUS
10
6.40854
20
-3.45354
11
6.46406
21
-3.45354
0
LINE
8
BLACK
6
CONTINUOUS
10
6.46406
20
-3.45354
11
6.46406
21
-3.33898
0
LINE
8
BLACK
6
CONTINUOUS
10
6.46406
20
-3.33898
11
6.40854
21
-3.33898
0
LINE
8
BLACK
6
CONTINUOUS
10
5.32906
20
-3.37102
11
5.32975
21
-3.37131
0
LINE
8
BLACK
6
CONTINUOUS
10
5.32975
20
-3.37131
11
5.33004
21
-3.37201
0
LINE
8
BLACK
6
CONTINUOUS
10
5.33004
20
-3.37201
11
5.33004
21
-3.42949
0
LINE
8
BLACK
6
CONTINUOUS
10
5.33004
20
-3.42949
11
5.32975
21
-3.43018
0
LINE
8
BLACK
6
CONTINUOUS
10
5.32975
20
-3.43018
11
5.32906
21
-3.43047
0
LINE
8
BLACK
6
CONTINUOUS
10
5.32906
20
-3.43047
11
5.21252
21
-3.43047
0
LINE
8
BLACK
6
CONTINUOUS
10
5.21252
20
-3.43047
11
5.21182
21
-3.43018
0
LINE
8
BLACK
6
CONTINUOUS
10
5.21182
20
-3.43018
11
5.21154
21
-3.42949
0
LINE
8
BLACK
6
CONTINUOUS
10
5.21154
20
-3.42949
11
5.21154
21
-3.37201
0
LINE
8
BLACK
6
CONTINUOUS
10
5.21154
20
-3.37201
11
5.21182
21
-3.37131
0
LINE
8
BLACK
6
CONTINUOUS
10
5.21182
20
-3.37131
11
5.21252
21
-3.37102
0
LINE
8
BLACK
6
CONTINUOUS
10
5.21252
20
-3.37102
11
5.32906
21
-3.37102
0
LINE
8
BLACK
6
CONTINUOUS
10
5.2135
20
-3.37299
11
5.2135
21
-3.4285
0
LINE
8
BLACK
6
CONTINUOUS
10
5.2135
20
-3.4285
11
5.32807
21
-3.4285
0
LINE
8
BLACK
6
CONTINUOUS
10
5.32807
20
-3.4285
11
5.32807
21
-3.37299
0
LINE
8
BLACK
6
CONTINUOUS
10
5.32807
20
-3.37299
11
5.2135
21
-3.37299
0
LINE
8
BLACK
6
CONTINUOUS
10
6.91429
20
-3.08394
11
6.91499
21
-3.08423
0
LINE
8
BLACK
6
CONTINUOUS
10
6.91499
20
-3.08423
11
6.91528
21
-3.08492
0
LINE
8
BLACK
6
CONTINUOUS
10
6.91528
20
-3.08492
11
6.91528
21
-3.40492
0
LINE
8
BLACK
6
CONTINUOUS
10
6.91528
20
-3.40492
11
6.91499
21
-3.40562
0
LINE
8
BLACK
6
CONTINUOUS
10
6.91499
20
-3.40562
11
6.91429
21
-3.40591
0
LINE
8
BLACK
6
CONTINUOUS
10
6.91429
20
-3.40591
11
6.49429
21
-3.40591
0
LINE
8
BLACK
6
CONTINUOUS
10
6.49429
20
-3.40591
11
6.4936
21
-3.40562
0
LINE
8
BLACK
6
CONTINUOUS
10
6.4936
20
-3.40562
11
6.49331
21
-3.40492
0
LINE
8
BLACK
6
CONTINUOUS
10
6.49331
20
-3.40492
11
6.49331
21
-3.08492
0
LINE
8
BLACK
6
CONTINUOUS
10
6.49331
20
-3.08492
11
6.4936
21
-3.08423
0
LINE
8
BLACK
6
CONTINUOUS
10
6.4936
20
-3.08423
11
6.49429
21
-3.08394
0
LINE
8
BLACK
6
CONTINUOUS
10
6.49429
20
-3.08394
11
6.91429
21
-3.08394
0
LINE
8
BLACK
6
CONTINUOUS
10
6.49528
20
-3.08591
11
6.49528
21
-3.40394
0
LINE
8
BLACK
6
CONTINUOUS
10
6.49528
20
-3.40394
11
6.91331
21
-3.40394
0
LINE
8
BLACK
6
CONTINUOUS
10
6.91331
20
-3.40394
11
6.91331
21
-3.08591
0
LINE
8
BLACK
6
CONTINUOUS
10
6.91331
20
-3.08591
11
6.49528
21
-3.08591
0
LINE
8
BLACK
6
CONTINUOUS
10
6.1313
20
-3.18472
11
6.132
21
-3.18501
0
LINE
8
BLACK
6
CONTINUOUS
10
6.132
20
-3.18501
11
6.13228
21
-3.18571
0
LINE
8
BLACK
6
CONTINUOUS
10
6.13228
20
-3.18571
11
6.13228
21
-3.38571
0
LINE
8
BLACK
6
CONTINUOUS
10
6.13228
20
-3.38571
11
6.132
21
-3.3864
0
LINE
8
BLACK
6
CONTINUOUS
10
6.132
20
-3.3864
11
6.1313
21
-3.38669
0
LINE
8
BLACK
6
CONTINUOUS
10
6.1313
20
-3.38669
11
5.9713
21
-3.38669
0
LINE
8
BLACK
6
CONTINUOUS
10
5.9713
20
-3.38669
11
5.9706
21
-3.3864
0
LINE
8
BLACK
6
CONTINUOUS
10
5.9706
20
-3.3864
11
5.97031
21
-3.38571
0
LINE
8
BLACK
6
CONTINUOUS
10
5.97031
20
-3.38571
11
5.97031
21
-3.38571
0
LINE
8
BLACK
6
CONTINUOUS
10
5.97031
20
-3.38571
11
5.97031
21
-3.18571
0
LINE
8
BLACK
6
CONTINUOUS
10
5.97031
20
-3.18571
11
5.9706
21
-3.18501
0
LINE
8
BLACK
6
CONTINUOUS
10
5.9706
20
-3.18501
11
5.9713
21
-3.18472
0
LINE
8
BLACK
6
CONTINUOUS
10
5.9713
20
-3.18472
11
6.1313
21
-3.18472
0
LINE
8
BLACK
6
CONTINUOUS
10
5.97228
20
-3.18669
11
5.97228
21
-3.38472
0
LINE
8
BLACK
6
CONTINUOUS
10
5.97228
20
-3.38472
11
6.13031
21
-3.38472
0
LINE
8
BLACK
6
CONTINUOUS
10
6.13031
20
-3.38472
11
6.13031
21
-3.18669
0
LINE
8
BLACK
6
CONTINUOUS
10
6.13031
20
-3.18669
11
5.97228
21
-3.18669
0
LINE
8
BLACK
6
CONTINUOUS
10
5.7707
20
-3.19291
11
5.7714
21
-3.1932
0
LINE
8
BLACK
6
CONTINUOUS
10
5.7714
20
-3.1932
11
5.77169
21
-3.1939
0
LINE
8
BLACK
6
CONTINUOUS
10
5.77169
20
-3.1939
11
5.77169
21
-3.33957
0
LINE
8
BLACK
6
CONTINUOUS
10
5.77169
20
-3.33957
11
5.7714
21
-3.34026
0
LINE
8
BLACK
6
CONTINUOUS
10
5.7714
20
-3.34026
11
5.7707
21
-3.34055
0
LINE
8
BLACK
6
CONTINUOUS
10
5.7707
20
-3.34055
11
5.6959
21
-3.34055
0
LINE
8
BLACK
6
CONTINUOUS
10
5.6959
20
-3.34055
11
5.6952
21
-3.34026
0
LINE
8
BLACK
6
CONTINUOUS
10
5.6952
20
-3.34026
11
5.69491
21
-3.33957
0
LINE
8
BLACK
6
CONTINUOUS
10
5.69491
20
-3.33957
11
5.69491
21
-3.1939
0
LINE
8
BLACK
6
CONTINUOUS
10
5.69491
20
-3.1939
11
5.6952
21
-3.1932
0
LINE
8
BLACK
6
CONTINUOUS
10
5.6952
20
-3.1932
11
5.6959
21
-3.19291
0
LINE
8
BLACK
6
CONTINUOUS
10
5.6959
20
-3.19291
11
5.7707
21
-3.19291
0
LINE
8
BLACK
6
CONTINUOUS
10
5.69688
20
-3.19488
11
5.69688
21
-3.33858
0
LINE
8
BLACK
6
CONTINUOUS
10
5.69688
20
-3.33858
11
5.76972
21
-3.33858
0
LINE
8
BLACK
6
CONTINUOUS
10
5.76972
20
-3.33858
11
5.76972
21
-3.19488
0
LINE
8
BLACK
6
CONTINUOUS
10
5.76972
20
-3.19488
11
5.69688
21
-3.19488
0
LINE
8
BLACK
6
CONTINUOUS
10
5.34004
20
-3.21902
11
5.34074
21
-3.2193
0
LINE
8
BLACK
6
CONTINUOUS
10
5.34074
20
-3.2193
11
5.34102
21
-3.22
0
LINE
8
BLACK
6
CONTINUOUS
10
5.34102
20
-3.22
11
5.34102
21
-3.33654
0
LINE
8
BLACK
6
CONTINUOUS
10
5.34102
20
-3.33654
11
5.34074
21
-3.33723
0
LINE
8
BLACK
6
CONTINUOUS
10
5.34074
20
-3.33723
11
5.34004
21
-3.33752
0
LINE
8
BLACK
6
CONTINUOUS
10
5.34004
20
-3.33752
11
5.28256
21
-3.33752
0
LINE
8
BLACK
6
CONTINUOUS
10
5.28256
20
-3.33752
11
5.28186
21
-3.33723
0
LINE
8
BLACK
6
CONTINUOUS
10
5.28186
20
-3.33723
11
5.28157
21
-3.33654
0
LINE
8
BLACK
6
CONTINUOUS
10
5.28157
20
-3.33654
11
5.28157
21
-3.22
0
LINE
8
BLACK
6
CONTINUOUS
10
5.28157
20
-3.22
11
5.28186
21
-3.2193
0
LINE
8
BLACK
6
CONTINUOUS
10
5.28186
20
-3.2193
11
5.28256
21
-3.21902
0
LINE
8
BLACK
6
CONTINUOUS
10
5.28256
20
-3.21902
11
5.34004
21
-3.21902
0
LINE
8
BLACK
6
CONTINUOUS
10
5.28354
20
-3.22098
11
5.28354
21
-3.33555
0
LINE
8
BLACK
6
CONTINUOUS
10
5.28354
20
-3.33555
11
5.33906
21
-3.33555
0
LINE
8
BLACK
6
CONTINUOUS
10
5.33906
20
-3.33555
11
5.33906
21
-3.22098
0
LINE
8
BLACK
6
CONTINUOUS
10
5.33906
20
-3.22098
11
5.28354
21
-3.22098
0
LINE
8
BLACK
6
CONTINUOUS
10
5.91957
20
-3.27102
11
5.92026
21
-3.27131
0
LINE
8
BLACK
6
CONTINUOUS
10
5.92026
20
-3.27131
11
5.92055
21
-3.27201
0
LINE
8
BLACK
6
CONTINUOUS
10
5.92055
20
-3.27201
11
5.92055
21
-3.32949
0
LINE
8
BLACK
6
CONTINUOUS
10
5.92055
20
-3.32949
11
5.92026
21
-3.33018
0
LINE
8
BLACK
6
CONTINUOUS
10
5.92026
20
-3.33018
11
5.91957
21
-3.33047
0
LINE
8
BLACK
6
CONTINUOUS
10
5.91957
20
-3.33047
11
5.80303
21
-3.33047
0
LINE
8
BLACK
6
CONTINUOUS
10
5.80303
20
-3.33047
11
5.80234
21
-3.33018
0
LINE
8
BLACK
6
CONTINUOUS
10
5.80234
20
-3.33018
11
5.80205
21
-3.32949
0
LINE
8
BLACK
6
CONTINUOUS
10
5.80205
20
-3.32949
11
5.80205
21
-3.32949
0
LINE
8
BLACK
6
CONTINUOUS
10
5.80205
20
-3.32949
11
5.80205
21
-3.27201
0
LINE
8
BLACK
6
CONTINUOUS
10
5.80205
20
-3.27201
11
5.80234
21
-3.27131
0
LINE
8
BLACK
6
CONTINUOUS
10
5.80234
20
-3.27131
11
5.80303
21
-3.27102
0
LINE
8
BLACK
6
CONTINUOUS
10
5.80303
20
-3.27102
11
5.91957
21
-3.27102
0
LINE
8
BLACK
6
CONTINUOUS
10
5.80402
20
-3.27299
11
5.80402
21
-3.3285
0
LINE
8
BLACK
6
CONTINUOUS
10
5.80402
20
-3.3285
11
5.91858
21
-3.3285
0
LINE
8
BLACK
6
CONTINUOUS
10
5.91858
20
-3.3285
11
5.91858
21
-3.27299
0
LINE
8
BLACK
6
CONTINUOUS
10
5.91858
20
-3.27299
11
5.80402
21
-3.27299
0
LINE
8
BLACK
6
CONTINUOUS
10
5.23504
20
-3.1665
11
5.23574
21
-3.16678
0
LINE
8
BLACK
6
CONTINUOUS
10
5.23574
20
-3.16678
11
5.23602
21
-3.16748
0
LINE
8
BLACK
6
CONTINUOUS
10
5.23602
20
-3.16748
11
5.23602
21
-3.28402
0
LINE
8
BLACK
6
CONTINUOUS
10
5.23602
20
-3.28402
11
5.23574
21
-3.28471
0
LINE
8
BLACK
6
CONTINUOUS
10
5.23574
20
-3.28471
11
5.23504
21
-3.285
0
LINE
8
BLACK
6
CONTINUOUS
10
5.23504
20
-3.285
11
5.17756
21
-3.285
0
LINE
8
BLACK
6
CONTINUOUS
10
5.17756
20
-3.285
11
5.17686
21
-3.28471
0
LINE
8
BLACK
6
CONTINUOUS
10
5.17686
20
-3.28471
11
5.17657
21
-3.28402
0
LINE
8
BLACK
6
CONTINUOUS
10
5.17657
20
-3.28402
11
5.17657
21
-3.16748
0
LINE
8
BLACK
6
CONTINUOUS
10
5.17657
20
-3.16748
11
5.17686
21
-3.16678
0
LINE
8
BLACK
6
CONTINUOUS
10
5.17686
20
-3.16678
11
5.17756
21
-3.1665
0
LINE
8
BLACK
6
CONTINUOUS
10
5.17756
20
-3.1665
11
5.23504
21
-3.1665
0
LINE
8
BLACK
6
CONTINUOUS
10
5.17854
20
-3.16846
11
5.17854
21
-3.28303
0
LINE
8
BLACK
6
CONTINUOUS
10
5.17854
20
-3.28303
11
5.23406
21
-3.28303
0
LINE
8
BLACK
6
CONTINUOUS
10
5.23406
20
-3.28303
11
5.23406
21
-3.16846
0
LINE
8
BLACK
6
CONTINUOUS
10
5.23406
20
-3.16846
11
5.17854
21
-3.16846
0
LINE
8
BLACK
6
CONTINUOUS
10
5.03465
20
-3.16417
11
5.03534
21
-3.16446
0
LINE
8
BLACK
6
CONTINUOUS
10
5.03534
20
-3.16446
11
5.03563
21
-3.16516
0
LINE
8
BLACK
6
CONTINUOUS
10
5.03563
20
-3.16516
11
5.03563
21
-3.28169
0
LINE
8
BLACK
6
CONTINUOUS
10
5.03563
20
-3.28169
11
5.03534
21
-3.28239
0
LINE
8
BLACK
6
CONTINUOUS
10
5.03534
20
-3.28239
11
5.03465
21
-3.28268
0
LINE
8
BLACK
6
CONTINUOUS
10
5.03465
20
-3.28268
11
4.97717
21
-3.28268
0
LINE
8
BLACK
6
CONTINUOUS
10
4.97717
20
-3.28268
11
4.97647
21
-3.28239
0
LINE
8
BLACK
6
CONTINUOUS
10
4.97647
20
-3.28239
11
4.97618
21
-3.28169
0
LINE
8
BLACK
6
CONTINUOUS
10
4.97618
20
-3.28169
11
4.97618
21
-3.16516
0
LINE
8
BLACK
6
CONTINUOUS
10
4.97618
20
-3.16516
11
4.97647
21
-3.16446
0
LINE
8
BLACK
6
CONTINUOUS
10
4.97647
20
-3.16446
11
4.97717
21
-3.16417
0
LINE
8
BLACK
6
CONTINUOUS
10
4.97717
20
-3.16417
11
5.03465
21
-3.16417
0
LINE
8
BLACK
6
CONTINUOUS
10
4.97815
20
-3.16614
11
4.97815
21
-3.28071
0
LINE
8
BLACK
6
CONTINUOUS
10
4.97815
20
-3.28071
11
5.03366
21
-3.28071
0
LINE
8
BLACK
6
CONTINUOUS
10
5.03366
20
-3.28071
11
5.03366
21
-3.16614
0
LINE
8
BLACK
6
CONTINUOUS
10
5.03366
20
-3.16614
11
4.97815
21
-3.16614
0
LINE
8
BLACK
6
CONTINUOUS
10
5.15866
20
-3.16402
11
5.15936
21
-3.1643
0
LINE
8
BLACK
6
CONTINUOUS
10
5.15936
20
-3.1643
11
5.15965
21
-3.165
0
LINE
8
BLACK
6
CONTINUOUS
10
5.15965
20
-3.165
11
5.15965
21
-3.28154
0
LINE
8
BLACK
6
CONTINUOUS
10
5.15965
20
-3.28154
11
5.15936
21
-3.28223
0
LINE
8
BLACK
6
CONTINUOUS
10
5.15936
20
-3.28223
11
5.15866
21
-3.28252
0
LINE
8
BLACK
6
CONTINUOUS
10
5.15866
20
-3.28252
11
5.10118
21
-3.28252
0
LINE
8
BLACK
6
CONTINUOUS
10
5.10118
20
-3.28252
11
5.10049
21
-3.28223
0
LINE
8
BLACK
6
CONTINUOUS
10
5.10049
20
-3.28223
11
5.1002
21
-3.28154
0
LINE
8
BLACK
6
CONTINUOUS
10
5.1002
20
-3.28154
11
5.1002
21
-3.165
0
LINE
8
BLACK
6
CONTINUOUS
10
5.1002
20
-3.165
11
5.10049
21
-3.1643
0
LINE
8
BLACK
6
CONTINUOUS
10
5.10049
20
-3.1643
11
5.10118
21
-3.16402
0
LINE
8
BLACK
6
CONTINUOUS
10
5.10118
20
-3.16402
11
5.15866
21
-3.16402
0
LINE
8
BLACK
6
CONTINUOUS
10
5.10217
20
-3.16598
11
5.10217
21
-3.28055
0
LINE
8
BLACK
6
CONTINUOUS
10
5.10217
20
-3.28055
11
5.15768
21
-3.28055
0
LINE
8
BLACK
6
CONTINUOUS
10
5.15768
20
-3.28055
11
5.15768
21
-3.16598
0
LINE
8
BLACK
6
CONTINUOUS
10
5.15768
20
-3.16598
11
5.10217
21
-3.16598
0
LINE
8
BLACK
6
CONTINUOUS
10
5.09764
20
-3.16398
11
5.09833
21
-3.16426
0
LINE
8
BLACK
6
CONTINUOUS
10
5.09833
20
-3.16426
11
5.09862
21
-3.16496
0
LINE
8
BLACK
6
CONTINUOUS
10
5.09862
20
-3.16496
11
5.09862
21
-3.2815
0
LINE
8
BLACK
6
CONTINUOUS
10
5.09862
20
-3.2815
11
5.09833
21
-3.28219
0
LINE
8
BLACK
6
CONTINUOUS
10
5.09833
20
-3.28219
11
5.09764
21
-3.28248
0
LINE
8
BLACK
6
CONTINUOUS
10
5.09764
20
-3.28248
11
5.04016
21
-3.28248
0
LINE
8
BLACK
6
CONTINUOUS
10
5.04016
20
-3.28248
11
5.03946
21
-3.28219
0
LINE
8
BLACK
6
CONTINUOUS
10
5.03946
20
-3.28219
11
5.03917
21
-3.2815
0
LINE
8
BLACK
6
CONTINUOUS
10
5.03917
20
-3.2815
11
5.03917
21
-3.16496
0
LINE
8
BLACK
6
CONTINUOUS
10
5.03917
20
-3.16496
11
5.03946
21
-3.16426
0
LINE
8
BLACK
6
CONTINUOUS
10
5.03946
20
-3.16426
11
5.04016
21
-3.16398
0
LINE
8
BLACK
6
CONTINUOUS
10
5.04016
20
-3.16398
11
5.09764
21
-3.16398
0
LINE
8
BLACK
6
CONTINUOUS
10
5.04114
20
-3.16594
11
5.04114
21
-3.28051
0
LINE
8
BLACK
6
CONTINUOUS
10
5.04114
20
-3.28051
11
5.09665
21
-3.28051
0
LINE
8
BLACK
6
CONTINUOUS
10
5.09665
20
-3.28051
11
5.09665
21
-3.16594
0
LINE
8
BLACK
6
CONTINUOUS
10
5.09665
20
-3.16594
11
5.04114
21
-3.16594
0
LINE
8
BLACK
6
CONTINUOUS
10
6.4737
20
-3.1301
11
6.4744
21
-3.13039
0
LINE
8
BLACK
6
CONTINUOUS
10
6.4744
20
-3.13039
11
6.47469
21
-3.13108
0
LINE
8
BLACK
6
CONTINUOUS
10
6.47469
20
-3.13108
11
6.47469
21
-3.27675
0
LINE
8
BLACK
6
CONTINUOUS
10
6.47469
20
-3.27675
11
6.4744
21
-3.27745
0
LINE
8
BLACK
6
CONTINUOUS
10
6.4744
20
-3.27745
11
6.4737
21
-3.27774
0
LINE
8
BLACK
6
CONTINUOUS
10
6.4737
20
-3.27774
11
6.3989
21
-3.27774
0
LINE
8
BLACK
6
CONTINUOUS
10
6.3989
20
-3.27774
11
6.3982
21
-3.27745
0
LINE
8
BLACK
6
CONTINUOUS
10
6.3982
20
-3.27745
11
6.39791
21
-3.27675
0
LINE
8
BLACK
6
CONTINUOUS
10
6.39791
20
-3.27675
11
6.39791
21
-3.13108
0
LINE
8
BLACK
6
CONTINUOUS
10
6.39791
20
-3.13108
11
6.3982
21
-3.13039
0
LINE
8
BLACK
6
CONTINUOUS
10
6.3982
20
-3.13039
11
6.3989
21
-3.1301
0
LINE
8
BLACK
6
CONTINUOUS
10
6.3989
20
-3.1301
11
6.4737
21
-3.1301
0
LINE
8
BLACK
6
CONTINUOUS
10
6.39988
20
-3.13207
11
6.39988
21
-3.27577
0
LINE
8
BLACK
6
CONTINUOUS
10
6.39988
20
-3.27577
11
6.47272
21
-3.27577
0
LINE
8
BLACK
6
CONTINUOUS
10
6.47272
20
-3.27577
11
6.47272
21
-3.13207
0
LINE
8
BLACK
6
CONTINUOUS
10
6.47272
20
-3.13207
11
6.39988
21
-3.13207
0
LINE
8
BLACK
6
CONTINUOUS
10
5.93705
20
-3.1021
11
5.98994
21
-3.155
0
LINE
8
BLACK
6
CONTINUOUS
10
5.98994
20
-3.155
11
5.99023
21
-3.15569
0
LINE
8
BLACK
6
CONTINUOUS
10
5.99023
20
-3.15569
11
5.98994
21
-3.15639
0
LINE
8
BLACK
6
CONTINUOUS
10
5.98994
20
-3.15639
11
5.88694
21
-3.25939
0
LINE
8
BLACK
6
CONTINUOUS
10
5.88694
20
-3.25939
11
5.88624
21
-3.25968
0
LINE
8
BLACK
6
CONTINUOUS
10
5.88624
20
-3.25968
11
5.88555
21
-3.25939
0
LINE
8
BLACK
6
CONTINUOUS
10
5.88555
20
-3.25939
11
5.83265
21
-3.2065
0
LINE
8
BLACK
6
CONTINUOUS
10
5.83265
20
-3.2065
11
5.83237
21
-3.2058
0
LINE
8
BLACK
6
CONTINUOUS
10
5.83237
20
-3.2058
11
5.83265
21
-3.20511
0
LINE
8
BLACK
6
CONTINUOUS
10
5.83265
20
-3.20511
11
5.83265
21
-3.20511
0
LINE
8
BLACK
6
CONTINUOUS
10
5.83265
20
-3.20511
11
5.93566
21
-3.1021
0
LINE
8
BLACK
6
CONTINUOUS
10
5.93566
20
-3.1021
11
5.93635
21
-3.10181
0
LINE
8
BLACK
6
CONTINUOUS
10
5.93635
20
-3.10181
11
5.93705
21
-3.1021
0
LINE
8
BLACK
6
CONTINUOUS
10
5.83474
20
-3.2058
11
5.88624
21
-3.2573
0
LINE
8
BLACK
6
CONTINUOUS
10
5.88624
20
-3.2573
11
5.98786
21
-3.15569
0
LINE
8
BLACK
6
CONTINUOUS
10
5.98786
20
-3.15569
11
5.93635
21
-3.10419
0
LINE
8
BLACK
6
CONTINUOUS
10
5.93635
20
-3.10419
11
5.83474
21
-3.2058
0
LINE
8
BLACK
6
CONTINUOUS
10
5.83104
20
-3.1305
11
5.83174
21
-3.13078
0
LINE
8
BLACK
6
CONTINUOUS
10
5.83174
20
-3.13078
11
5.83202
21
-3.13148
0
LINE
8
BLACK
6
CONTINUOUS
10
5.83202
20
-3.13148
11
5.83202
21
-3.24802
0
LINE
8
BLACK
6
CONTINUOUS
10
5.83202
20
-3.24802
11
5.83174
21
-3.24871
0
LINE
8
BLACK
6
CONTINUOUS
10
5.83174
20
-3.24871
11
5.83104
21
-3.249
0
LINE
8
BLACK
6
CONTINUOUS
10
5.83104
20
-3.249
11
5.77356
21
-3.249
0
LINE
8
BLACK
6
CONTINUOUS
10
5.77356
20
-3.249
11
5.77286
21
-3.24871
0
LINE
8
BLACK
6
CONTINUOUS
10
5.77286
20
-3.24871
11
5.77257
21
-3.24802
0
LINE
8
BLACK
6
CONTINUOUS
10
5.77257
20
-3.24802
11
5.77257
21
-3.13148
0
LINE
8
BLACK
6
CONTINUOUS
10
5.77257
20
-3.13148
11
5.77286
21
-3.13078
0
LINE
8
BLACK
6
CONTINUOUS
10
5.77286
20
-3.13078
11
5.77356
21
-3.1305
0
LINE
8
BLACK
6
CONTINUOUS
10
5.77356
20
-3.1305
11
5.83104
21
-3.1305
0
LINE
8
BLACK
6
CONTINUOUS
10
5.77454
20
-3.13246
11
5.77454
21
-3.24703
0
LINE
8
BLACK
6
CONTINUOUS
10
5.77454
20
-3.24703
11
5.83006
21
-3.24703
0
LINE
8
BLACK
6
CONTINUOUS
10
5.83006
20
-3.24703
11
5.83006
21
-3.13246
0
LINE
8
BLACK
6
CONTINUOUS
10
5.83006
20
-3.13246
11
5.77454
21
-3.13246
0
LINE
8
BLACK
6
CONTINUOUS
10
5.73628
20
-3.00909
11
5.73698
21
-3.00937
0
LINE
8
BLACK
6
CONTINUOUS
10
5.73698
20
-3.00937
11
5.73727
21
-3.01007
0
LINE
8
BLACK
6
CONTINUOUS
10
5.73727
20
-3.01007
11
5.73727
21
-3.17543
0
LINE
8
BLACK
6
CONTINUOUS
10
5.73727
20
-3.17543
11
5.73698
21
-3.17612
0
LINE
8
BLACK
6
CONTINUOUS
10
5.73698
20
-3.17612
11
5.73628
21
-3.17641
0
LINE
8
BLACK
6
CONTINUOUS
10
5.73628
20
-3.17641
11
5.48431
21
-3.17641
0
LINE
8
BLACK
6
CONTINUOUS
10
5.48431
20
-3.17641
11
5.48362
21
-3.17612
0
LINE
8
BLACK
6
CONTINUOUS
10
5.48362
20
-3.17612
11
5.48333
21
-3.17543
0
LINE
8
BLACK
6
CONTINUOUS
10
5.48333
20
-3.17543
11
5.48333
21
-3.01007
0
LINE
8
BLACK
6
CONTINUOUS
10
5.48333
20
-3.01007
11
5.48362
21
-3.00937
0
LINE
8
BLACK
6
CONTINUOUS
10
5.48362
20
-3.00937
11
5.48431
21
-3.00909
0
LINE
8
BLACK
6
CONTINUOUS
10
5.48431
20
-3.00909
11
5.73628
21
-3.00909
0
LINE
8
BLACK
6
CONTINUOUS
10
5.4853
20
-3.01106
11
5.4853
21
-3.17444
0
LINE
8
BLACK
6
CONTINUOUS
10
5.4853
20
-3.17444
11
5.7353
21
-3.17444
0
LINE
8
BLACK
6
CONTINUOUS
10
5.7353
20
-3.17444
11
5.7353
21
-3.01106
0
LINE
8
BLACK
6
CONTINUOUS
10
5.7353
20
-3.01106
11
5.4853
21
-3.01106
0
LINE
8
BLACK
6
CONTINUOUS
10
6.11157
20
-3.10602
11
6.11226
21
-3.10631
0
LINE
8
BLACK
6
CONTINUOUS
10
6.11226
20
-3.10631
11
6.11255
21
-3.10701
0
LINE
8
BLACK
6
CONTINUOUS
10
6.11255
20
-3.10701
11
6.11255
21
-3.16449
0
LINE
8
BLACK
6
CONTINUOUS
10
6.11255
20
-3.16449
11
6.11226
21
-3.16518
0
LINE
8
BLACK
6
CONTINUOUS
10
6.11226
20
-3.16518
11
6.11157
21
-3.16547
0
LINE
8
BLACK
6
CONTINUOUS
10
6.11157
20
-3.16547
11
5.99503
21
-3.16547
0
LINE
8
BLACK
6
CONTINUOUS
10
5.99503
20
-3.16547
11
5.99434
21
-3.16518
0
LINE
8
BLACK
6
CONTINUOUS
10
5.99434
20
-3.16518
11
5.99405
21
-3.16449
0
LINE
8
BLACK
6
CONTINUOUS
10
5.99405
20
-3.16449
11
5.99405
21
-3.10701
0
LINE
8
BLACK
6
CONTINUOUS
10
5.99405
20
-3.10701
11
5.99434
21
-3.10631
0
LINE
8
BLACK
6
CONTINUOUS
10
5.99434
20
-3.10631
11
5.99503
21
-3.10602
0
LINE
8
BLACK
6
CONTINUOUS
10
5.99503
20
-3.10602
11
6.11157
21
-3.10602
0
LINE
8
BLACK
6
CONTINUOUS
10
5.99602
20
-3.10799
11
5.99602
21
-3.1635
0
LINE
8
BLACK
6
CONTINUOUS
10
5.99602
20
-3.1635
11
6.11058
21
-3.1635
0
LINE
8
BLACK
6
CONTINUOUS
10
6.11058
20
-3.1635
11
6.11058
21
-3.10799
0
LINE
8
BLACK
6
CONTINUOUS
10
6.11058
20
-3.10799
11
5.99602
21
-3.10799
0
LINE
8
BLACK
6
CONTINUOUS
10
5.15642
20
-3.0228
11
5.15711
21
-3.02309
0
LINE
8
BLACK
6
CONTINUOUS
10
5.15711
20
-3.02309
11
5.1574
21
-3.02379
0
LINE
8
BLACK
6
CONTINUOUS
10
5.1574
20
-3.02379
11
5.1574
21
-3.15371
0
LINE
8
BLACK
6
CONTINUOUS
10
5.1574
20
-3.15371
11
5.15711
21
-3.1544
0
LINE
8
BLACK
6
CONTINUOUS
10
5.15711
20
-3.1544
11
5.15642
21
-3.15469
0
LINE
8
BLACK
6
CONTINUOUS
10
5.15642
20
-3.15469
11
5.09894
21
-3.15469
0
LINE
8
BLACK
6
CONTINUOUS
10
5.09894
20
-3.15469
11
5.09824
21
-3.1544
0
LINE
8
BLACK
6
CONTINUOUS
10
5.09824
20
-3.1544
11
5.09795
21
-3.15371
0
LINE
8
BLACK
6
CONTINUOUS
10
5.09795
20
-3.15371
11
5.09795
21
-3.15371
0
LINE
8
BLACK
6
CONTINUOUS
10
5.09795
20
-3.15371
11
5.09795
21
-3.02379
0
LINE
8
BLACK
6
CONTINUOUS
10
5.09795
20
-3.02379
11
5.09824
21
-3.02309
0
LINE
8
BLACK
6
CONTINUOUS
10
5.09824
20
-3.02309
11
5.09894
21
-3.0228
0
LINE
8
BLACK
6
CONTINUOUS
10
5.09894
20
-3.0228
11
5.15642
21
-3.0228
0
LINE
8
BLACK
6
CONTINUOUS
10
5.09992
20
-3.02477
11
5.09992
21
-3.15272
0
LINE
8
BLACK
6
CONTINUOUS
10
5.09992
20
-3.15272
11
5.15543
21
-3.15272
0
LINE
8
BLACK
6
CONTINUOUS
10
5.15543
20
-3.15272
11
5.15543
21
-3.02477
0
LINE
8
BLACK
6
CONTINUOUS
10
5.15543
20
-3.02477
11
5.09992
21
-3.02477
0
LINE
8
BLACK
6
CONTINUOUS
10
5.23516
20
-3.0228
11
5.23585
21
-3.02309
0
LINE
8
BLACK
6
CONTINUOUS
10
5.23585
20
-3.02309
11
5.23614
21
-3.02379
0
LINE
8
BLACK
6
CONTINUOUS
10
5.23614
20
-3.02379
11
5.23614
21
-3.15371
0
LINE
8
BLACK
6
CONTINUOUS
10
5.23614
20
-3.15371
11
5.23585
21
-3.1544
0
LINE
8
BLACK
6
CONTINUOUS
10
5.23585
20
-3.1544
11
5.23516
21
-3.15469
0
LINE
8
BLACK
6
CONTINUOUS
10
5.23516
20
-3.15469
11
5.17768
21
-3.15469
0
LINE
8
BLACK
6
CONTINUOUS
10
5.17768
20
-3.15469
11
5.17698
21
-3.1544
0
LINE
8
BLACK
6
CONTINUOUS
10
5.17698
20
-3.1544
11
5.17669
21
-3.15371
0
LINE
8
BLACK
6
CONTINUOUS
10
5.17669
20
-3.15371
11
5.17669
21
-3.15371
0
LINE
8
BLACK
6
CONTINUOUS
10
5.17669
20
-3.15371
11
5.17669
21
-3.02379
0
LINE
8
BLACK
6
CONTINUOUS
10
5.17669
20
-3.02379
11
5.17698
21
-3.02309
0
LINE
8
BLACK
6
CONTINUOUS
10
5.17698
20
-3.02309
11
5.17768
21
-3.0228
0
LINE
8
BLACK
6
CONTINUOUS
10
5.17768
20
-3.0228
11
5.23516
21
-3.0228
0
LINE
8
BLACK
6
CONTINUOUS
10
5.17866
20
-3.02477
11
5.17866
21
-3.15272
0
LINE
8
BLACK
6
CONTINUOUS
10
5.17866
20
-3.15272
11
5.23417
21
-3.15272
0
LINE
8
BLACK
6
CONTINUOUS
10
5.23417
20
-3.15272
11
5.23417
21
-3.02477
0
LINE
8
BLACK
6
CONTINUOUS
10
5.23417
20
-3.02477
11
5.17866
21
-3.02477
  0
ENDSEC
  0
EOF
