  0
SECTION
  2
HEADER
  9
$ANGBASE
  50
0.0
  9
$ANGDIR
  70
1
  9
$MEASUREMENT
  70
0
  0
ENDSEC
  0
SECTION
  2
TABLES
  0
TABLE
  2
LTYPE
  70
4
  0
LTYPE
  5
40F
  2
CONTINUOUS
  70
0
  3
Solid line
  72
65
  73
0
  40
0.0
  0
LTYPE
  5
410
  2
DASHDOT
 70
0
  3
Dash Dot ____ _ ____ _
 72
65
 73
4
 40
2.0
 49
1.25
 49
-0.25
 49
0.25
 49
-0.25
  0
LTYPE
  5
411
  2
DASHED
 70
0
  3
Dashed __ __ __ __ __
 72
65
 73
2
 40
0.75
 49
0.5
 49
-0.25
  0
LTYPE
  5
43B
  2
DOTTED
 70
0
  3
Dotted .  .  .  .
 72
65
 73
2
 40
0.2
 49
0.0
 49
-0.2
  0
ENDTAB
  0
TABLE
  2
STYLE
  70
4
  0
STYLE
  2
KICAD
  70
0
  40
0
  41
1
  42
1
  50
0
  71
0
  3
isocp.shx
  0
STYLE
  2
KICADB
  70
0
  40
0
  41
1
  42
1
  50
0
  71
0
  3
isocp.shx
  0
STYLE
  2
KICADI
  70
0
  40
0
  41
1
  42
1
  50
15
  71
0
  3
isocp.shx
  0
STYLE
  2
KICADBI
  70
0
  40
0
  41
1
  42
1
  50
15
  71
0
  3
isocp.shx
  0
ENDTAB
  0
TABLE
  2
LAYER
  70
1
  0
LAYER
  2
BLACK
  70
0
  62
7
  6
CONTINUOUS
  0
ENDTAB
  0
ENDSEC
  0
SECTION
  2
ENTITIES
0
LINE
8
BLACK
6
CONTINUOUS
10
2.7573
20
0.439384
11
2.75787
21
0.437992
0
LINE
8
BLACK
6
CONTINUOUS
10
2.75787
20
0.437992
11
2.75787
21
0.152559
0
LINE
8
BLACK
6
CONTINUOUS
10
2.75787
20
0.152559
11
2.7573
21
0.151167
0
LINE
8
BLACK
6
CONTINUOUS
10
2.7573
20
0.151167
11
2.75591
21
0.150591
0
LINE
8
BLACK
6
CONTINUOUS
10
2.75591
20
0.150591
11
2.75451
21
0.151167
0
LINE
8
BLACK
6
CONTINUOUS
10
2.75451
20
0.151167
11
2.75394
21
0.152559
0
LINE
8
BLACK
6
CONTINUOUS
10
2.75394
20
0.152559
11
2.75394
21
0.437992
0
LINE
8
BLACK
6
CONTINUOUS
10
2.75394
20
0.437992
11
2.75451
21
0.439384
0
LINE
8
BLACK
6
CONTINUOUS
10
2.75451
20
0.439384
11
2.75591
21
0.439961
0
LINE
8
BLACK
6
CONTINUOUS
10
2.75591
20
0.439961
11
2.7573
21
0.439384
0
LINE
8
BLACK
6
CONTINUOUS
10
2.68542
20
0.240822
11
2.68508
21
0.241657
0
LINE
8
BLACK
6
CONTINUOUS
10
2.68508
20
0.241657
11
2.68508
21
0.247657
0
LINE
8
BLACK
6
CONTINUOUS
10
2.68508
20
0.247657
11
2.68518
21
0.247911
0
LINE
8
BLACK
6
CONTINUOUS
10
2.68518
20
0.247911
11
2.6852
21
0.248185
0
LINE
8
BLACK
6
CONTINUOUS
10
2.6852
20
0.248185
11
2.68595
21
0.249685
0
LINE
8
BLACK
6
CONTINUOUS
10
2.68595
20
0.249685
11
2.6861
21
0.249812
0
LINE
8
BLACK
6
CONTINUOUS
10
2.6861
20
0.249812
11
2.68617
21
0.249991
0
LINE
8
BLACK
6
CONTINUOUS
10
2.68617
20
0.249991
11
2.68692
21
0.250741
0
LINE
8
BLACK
6
CONTINUOUS
10
2.68692
20
0.250741
11
2.6871
21
0.250816
0
LINE
8
BLACK
6
CONTINUOUS
10
2.6871
20
0.250816
11
2.68723
21
0.250963
0
LINE
8
BLACK
6
CONTINUOUS
10
2.68723
20
0.250963
11
2.68873
21
0.251713
0
LINE
8
BLACK
6
CONTINUOUS
10
2.68873
20
0.251713
11
2.689
21
0.251732
0
LINE
8
BLACK
6
CONTINUOUS
10
2.689
20
0.251732
11
2.68926
21
0.251837
0
LINE
8
BLACK
6
CONTINUOUS
10
2.68926
20
0.251837
11
2.69151
21
0.251837
0
LINE
8
BLACK
6
CONTINUOUS
10
2.69151
20
0.251837
11
2.69176
21
0.251732
0
LINE
8
BLACK
6
CONTINUOUS
10
2.69176
20
0.251732
11
2.69204
21
0.251713
0
LINE
8
BLACK
6
CONTINUOUS
10
2.69204
20
0.251713
11
2.69354
21
0.250963
0
LINE
8
BLACK
6
CONTINUOUS
10
2.69354
20
0.250963
11
2.69366
21
0.250816
0
LINE
8
BLACK
6
CONTINUOUS
10
2.69366
20
0.250816
11
2.69384
21
0.250741
0
LINE
8
BLACK
6
CONTINUOUS
10
2.69384
20
0.250741
11
2.69459
21
0.249991
0
LINE
8
BLACK
6
CONTINUOUS
10
2.69459
20
0.249991
11
2.69467
21
0.249812
0
LINE
8
BLACK
6
CONTINUOUS
10
2.69467
20
0.249812
11
2.69481
21
0.249685
0
LINE
8
BLACK
6
CONTINUOUS
10
2.69481
20
0.249685
11
2.69556
21
0.248185
0
LINE
8
BLACK
6
CONTINUOUS
10
2.69556
20
0.248185
11
2.69558
21
0.247911
0
LINE
8
BLACK
6
CONTINUOUS
10
2.69558
20
0.247911
11
2.69569
21
0.247657
0
LINE
8
BLACK
6
CONTINUOUS
10
2.69569
20
0.247657
11
2.69569
21
0.242838
0
LINE
8
BLACK
6
CONTINUOUS
10
2.69569
20
0.242838
11
2.70201
21
0.242838
0
LINE
8
BLACK
6
CONTINUOUS
10
2.70201
20
0.242838
11
2.70284
21
0.242492
0
LINE
8
BLACK
6
CONTINUOUS
10
2.70284
20
0.242492
11
2.70319
21
0.241657
0
LINE
8
BLACK
6
CONTINUOUS
10
2.70319
20
0.241657
11
2.70284
21
0.240822
0
LINE
8
BLACK
6
CONTINUOUS
10
2.70284
20
0.240822
11
2.70201
21
0.240476
0
LINE
8
BLACK
6
CONTINUOUS
10
2.70201
20
0.240476
11
2.68626
21
0.240476
0
LINE
8
BLACK
6
CONTINUOUS
10
2.68626
20
0.240476
11
2.68542
21
0.240822
0
LINE
8
BLACK
6
CONTINUOUS
10
2.68954
20
0.249475
11
2.68846
21
0.248936
0
LINE
8
BLACK
6
CONTINUOUS
10
2.68846
20
0.248936
11
2.68798
21
0.248457
0
LINE
8
BLACK
6
CONTINUOUS
10
2.68798
20
0.248457
11
2.68744
21
0.247378
0
LINE
8
BLACK
6
CONTINUOUS
10
2.68744
20
0.247378
11
2.68744
21
0.242838
0
LINE
8
BLACK
6
CONTINUOUS
10
2.68744
20
0.242838
11
2.69333
21
0.242838
0
LINE
8
BLACK
6
CONTINUOUS
10
2.69333
20
0.242838
11
2.69333
21
0.247378
0
LINE
8
BLACK
6
CONTINUOUS
10
2.69333
20
0.247378
11
2.69279
21
0.248457
0
LINE
8
BLACK
6
CONTINUOUS
10
2.69279
20
0.248457
11
2.69231
21
0.248936
0
LINE
8
BLACK
6
CONTINUOUS
10
2.69231
20
0.248936
11
2.69123
21
0.249475
0
LINE
8
BLACK
6
CONTINUOUS
10
2.69123
20
0.249475
11
2.68954
21
0.249475
0
LINE
8
BLACK
6
CONTINUOUS
10
2.70134
20
0.267239
11
2.70209
21
0.266489
0
LINE
8
BLACK
6
CONTINUOUS
10
2.70209
20
0.266489
11
2.7022
21
0.266235
0
LINE
8
BLACK
6
CONTINUOUS
10
2.7022
20
0.266235
11
2.70238
21
0.266028
0
LINE
8
BLACK
6
CONTINUOUS
10
2.70238
20
0.266028
11
2.70313
21
0.263778
0
LINE
8
BLACK
6
CONTINUOUS
10
2.70313
20
0.263778
11
2.70311
21
0.263584
0
LINE
8
BLACK
6
CONTINUOUS
10
2.70311
20
0.263584
11
2.70319
21
0.263405
0
LINE
8
BLACK
6
CONTINUOUS
10
2.70319
20
0.263405
11
2.70319
21
0.261905
0
LINE
8
BLACK
6
CONTINUOUS
10
2.70319
20
0.261905
11
2.70311
21
0.261725
0
LINE
8
BLACK
6
CONTINUOUS
10
2.70311
20
0.261725
11
2.70313
21
0.261531
0
LINE
8
BLACK
6
CONTINUOUS
10
2.70313
20
0.261531
11
2.70238
21
0.259282
0
LINE
8
BLACK
6
CONTINUOUS
10
2.70238
20
0.259282
11
2.7022
21
0.259074
0
LINE
8
BLACK
6
CONTINUOUS
10
2.7022
20
0.259074
11
2.70209
21
0.25882
0
LINE
8
BLACK
6
CONTINUOUS
10
2.70209
20
0.25882
11
2.70059
21
0.25732
0
LINE
8
BLACK
6
CONTINUOUS
10
2.70059
20
0.25732
11
2.70041
21
0.257246
0
LINE
8
BLACK
6
CONTINUOUS
10
2.70041
20
0.257246
11
2.70028
21
0.257099
0
LINE
8
BLACK
6
CONTINUOUS
10
2.70028
20
0.257099
11
2.69878
21
0.256349
0
LINE
8
BLACK
6
CONTINUOUS
10
2.69878
20
0.256349
11
2.69865
21
0.256339
0
LINE
8
BLACK
6
CONTINUOUS
10
2.69865
20
0.256339
11
2.69854
21
0.256259
0
LINE
8
BLACK
6
CONTINUOUS
10
2.69854
20
0.256259
11
2.69554
21
0.25551
0
LINE
8
BLACK
6
CONTINUOUS
10
2.69554
20
0.25551
11
2.6954
21
0.255532
0
LINE
8
BLACK
6
CONTINUOUS
10
2.6954
20
0.255532
11
2.69526
21
0.255474
0
LINE
8
BLACK
6
CONTINUOUS
10
2.69526
20
0.255474
11
2.69301
21
0.255474
0
LINE
8
BLACK
6
CONTINUOUS
10
2.69301
20
0.255474
11
2.69287
21
0.255532
0
LINE
8
BLACK
6
CONTINUOUS
10
2.69287
20
0.255532
11
2.69272
21
0.25551
0
LINE
8
BLACK
6
CONTINUOUS
10
2.69272
20
0.25551
11
2.68972
21
0.256259
0
LINE
8
BLACK
6
CONTINUOUS
10
2.68972
20
0.256259
11
2.68961
21
0.256339
0
LINE
8
BLACK
6
CONTINUOUS
10
2.68961
20
0.256339
11
2.68948
21
0.256349
0
LINE
8
BLACK
6
CONTINUOUS
10
2.68948
20
0.256349
11
2.68798
21
0.257099
0
LINE
8
BLACK
6
CONTINUOUS
10
2.68798
20
0.257099
11
2.68785
21
0.257246
0
LINE
8
BLACK
6
CONTINUOUS
10
2.68785
20
0.257246
11
2.68767
21
0.25732
0
LINE
8
BLACK
6
CONTINUOUS
10
2.68767
20
0.25732
11
2.68617
21
0.25882
0
LINE
8
BLACK
6
CONTINUOUS
10
2.68617
20
0.25882
11
2.68607
21
0.259074
0
LINE
8
BLACK
6
CONTINUOUS
10
2.68607
20
0.259074
11
2.68589
21
0.259282
0
LINE
8
BLACK
6
CONTINUOUS
10
2.68589
20
0.259282
11
2.68514
21
0.261531
0
LINE
8
BLACK
6
CONTINUOUS
10
2.68514
20
0.261531
11
2.68515
21
0.261725
0
LINE
8
BLACK
6
CONTINUOUS
10
2.68515
20
0.261725
11
2.68508
21
0.261905
0
LINE
8
BLACK
6
CONTINUOUS
10
2.68508
20
0.261905
11
2.68508
21
0.263405
0
LINE
8
BLACK
6
CONTINUOUS
10
2.68508
20
0.263405
11
2.68515
21
0.263584
0
LINE
8
BLACK
6
CONTINUOUS
10
2.68515
20
0.263584
11
2.68514
21
0.263778
0
LINE
8
BLACK
6
CONTINUOUS
10
2.68514
20
0.263778
11
2.68589
21
0.266028
0
LINE
8
BLACK
6
CONTINUOUS
10
2.68589
20
0.266028
11
2.68607
21
0.266235
0
LINE
8
BLACK
6
CONTINUOUS
10
2.68607
20
0.266235
11
2.68617
21
0.266489
0
LINE
8
BLACK
6
CONTINUOUS
10
2.68617
20
0.266489
11
2.68692
21
0.267239
0
LINE
8
BLACK
6
CONTINUOUS
10
2.68692
20
0.267239
11
2.68776
21
0.267585
0
LINE
8
BLACK
6
CONTINUOUS
10
2.68776
20
0.267585
11
2.68859
21
0.267239
0
LINE
8
BLACK
6
CONTINUOUS
10
2.68859
20
0.267239
11
2.68894
21
0.266404
0
LINE
8
BLACK
6
CONTINUOUS
10
2.68894
20
0.266404
11
2.68859
21
0.265569
0
LINE
8
BLACK
6
CONTINUOUS
10
2.68859
20
0.265569
11
2.68804
21
0.265016
0
LINE
8
BLACK
6
CONTINUOUS
10
2.68804
20
0.265016
11
2.68744
21
0.263213
0
LINE
8
BLACK
6
CONTINUOUS
10
2.68744
20
0.263213
11
2.68744
21
0.262096
0
LINE
8
BLACK
6
CONTINUOUS
10
2.68744
20
0.262096
11
2.68804
21
0.260293
0
LINE
8
BLACK
6
CONTINUOUS
10
2.68804
20
0.260293
11
2.68921
21
0.259126
0
LINE
8
BLACK
6
CONTINUOUS
10
2.68921
20
0.259126
11
2.69042
21
0.25852
0
LINE
8
BLACK
6
CONTINUOUS
10
2.69042
20
0.25852
11
2.69315
21
0.257836
0
LINE
8
BLACK
6
CONTINUOUS
10
2.69315
20
0.257836
11
2.69511
21
0.257836
0
LINE
8
BLACK
6
CONTINUOUS
10
2.69511
20
0.257836
11
2.69784
21
0.25852
0
LINE
8
BLACK
6
CONTINUOUS
10
2.69784
20
0.25852
11
2.69906
21
0.259126
0
LINE
8
BLACK
6
CONTINUOUS
10
2.69906
20
0.259126
11
2.70022
21
0.260293
0
LINE
8
BLACK
6
CONTINUOUS
10
2.70022
20
0.260293
11
2.70082
21
0.262096
0
LINE
8
BLACK
6
CONTINUOUS
10
2.70082
20
0.262096
11
2.70082
21
0.263213
0
LINE
8
BLACK
6
CONTINUOUS
10
2.70082
20
0.263213
11
2.70022
21
0.265016
0
LINE
8
BLACK
6
CONTINUOUS
10
2.70022
20
0.265016
11
2.69967
21
0.265569
0
LINE
8
BLACK
6
CONTINUOUS
10
2.69967
20
0.265569
11
2.69933
21
0.266404
0
LINE
8
BLACK
6
CONTINUOUS
10
2.69933
20
0.266404
11
2.69967
21
0.267239
0
LINE
8
BLACK
6
CONTINUOUS
10
2.69967
20
0.267239
11
2.70051
21
0.267585
0
LINE
8
BLACK
6
CONTINUOUS
10
2.70051
20
0.267585
11
2.70134
21
0.267239
0
LINE
8
BLACK
6
CONTINUOUS
10
2.68542
20
0.272318
11
2.68508
21
0.273153
0
LINE
8
BLACK
6
CONTINUOUS
10
2.68508
20
0.273153
11
2.68508
21
0.278403
0
LINE
8
BLACK
6
CONTINUOUS
10
2.68508
20
0.278403
11
2.68518
21
0.278657
0
LINE
8
BLACK
6
CONTINUOUS
10
2.68518
20
0.278657
11
2.6852
21
0.278931
0
LINE
8
BLACK
6
CONTINUOUS
10
2.6852
20
0.278931
11
2.68595
21
0.280431
0
LINE
8
BLACK
6
CONTINUOUS
10
2.68595
20
0.280431
11
2.6861
21
0.280558
0
LINE
8
BLACK
6
CONTINUOUS
10
2.6861
20
0.280558
11
2.68617
21
0.280738
0
LINE
8
BLACK
6
CONTINUOUS
10
2.68617
20
0.280738
11
2.68692
21
0.281488
0
LINE
8
BLACK
6
CONTINUOUS
10
2.68692
20
0.281488
11
2.6871
21
0.281562
0
LINE
8
BLACK
6
CONTINUOUS
10
2.6871
20
0.281562
11
2.68723
21
0.281709
0
LINE
8
BLACK
6
CONTINUOUS
10
2.68723
20
0.281709
11
2.68873
21
0.282459
0
LINE
8
BLACK
6
CONTINUOUS
10
2.68873
20
0.282459
11
2.689
21
0.282478
0
LINE
8
BLACK
6
CONTINUOUS
10
2.689
20
0.282478
11
2.68926
21
0.282583
0
LINE
8
BLACK
6
CONTINUOUS
10
2.68926
20
0.282583
11
2.69076
21
0.282583
0
LINE
8
BLACK
6
CONTINUOUS
10
2.69076
20
0.282583
11
2.69101
21
0.282478
0
LINE
8
BLACK
6
CONTINUOUS
10
2.69101
20
0.282478
11
2.69129
21
0.282459
0
LINE
8
BLACK
6
CONTINUOUS
10
2.69129
20
0.282459
11
2.69279
21
0.281709
0
LINE
8
BLACK
6
CONTINUOUS
10
2.69279
20
0.281709
11
2.69291
21
0.281562
0
LINE
8
BLACK
6
CONTINUOUS
10
2.69291
20
0.281562
11
2.69309
21
0.281488
0
LINE
8
BLACK
6
CONTINUOUS
10
2.69309
20
0.281488
11
2.69346
21
0.281116
0
LINE
8
BLACK
6
CONTINUOUS
10
2.69346
20
0.281116
11
2.69357
21
0.281234
0
LINE
8
BLACK
6
CONTINUOUS
10
2.69357
20
0.281234
11
2.69367
21
0.281488
0
LINE
8
BLACK
6
CONTINUOUS
10
2.69367
20
0.281488
11
2.69442
21
0.282237
0
LINE
8
BLACK
6
CONTINUOUS
10
2.69442
20
0.282237
11
2.6946
21
0.282312
0
LINE
8
BLACK
6
CONTINUOUS
10
2.6946
20
0.282312
11
2.69473
21
0.282459
0
LINE
8
BLACK
6
CONTINUOUS
10
2.69473
20
0.282459
11
2.69623
21
0.283209
0
LINE
8
BLACK
6
CONTINUOUS
10
2.69623
20
0.283209
11
2.6965
21
0.283228
0
LINE
8
BLACK
6
CONTINUOUS
10
2.6965
20
0.283228
11
2.69676
21
0.283333
0
LINE
8
BLACK
6
CONTINUOUS
10
2.69676
20
0.283333
11
2.69901
21
0.283333
0
LINE
8
BLACK
6
CONTINUOUS
10
2.69901
20
0.283333
11
2.69926
21
0.283228
0
LINE
8
BLACK
6
CONTINUOUS
10
2.69926
20
0.283228
11
2.69953
21
0.283209
0
LINE
8
BLACK
6
CONTINUOUS
10
2.69953
20
0.283209
11
2.70103
21
0.282459
0
LINE
8
BLACK
6
CONTINUOUS
10
2.70103
20
0.282459
11
2.70116
21
0.282312
0
LINE
8
BLACK
6
CONTINUOUS
10
2.70116
20
0.282312
11
2.70134
21
0.282237
0
LINE
8
BLACK
6
CONTINUOUS
10
2.70134
20
0.282237
11
2.70209
21
0.281488
0
LINE
8
BLACK
6
CONTINUOUS
10
2.70209
20
0.281488
11
2.70217
21
0.281308
0
LINE
8
BLACK
6
CONTINUOUS
10
2.70217
20
0.281308
11
2.70231
21
0.281181
0
LINE
8
BLACK
6
CONTINUOUS
10
2.70231
20
0.281181
11
2.70306
21
0.279681
0
LINE
8
BLACK
6
CONTINUOUS
10
2.70306
20
0.279681
11
2.70308
21
0.279407
0
LINE
8
BLACK
6
CONTINUOUS
10
2.70308
20
0.279407
11
2.70319
21
0.279153
0
LINE
8
BLACK
6
CONTINUOUS
10
2.70319
20
0.279153
11
2.70319
21
0.273153
0
LINE
8
BLACK
6
CONTINUOUS
10
2.70319
20
0.273153
11
2.70284
21
0.272318
0
LINE
8
BLACK
6
CONTINUOUS
10
2.70284
20
0.272318
11
2.70201
21
0.271972
0
LINE
8
BLACK
6
CONTINUOUS
10
2.70201
20
0.271972
11
2.68626
21
0.271972
0
LINE
8
BLACK
6
CONTINUOUS
10
2.68626
20
0.271972
11
2.68542
21
0.272318
0
LINE
8
BLACK
6
CONTINUOUS
10
2.68954
20
0.280221
11
2.68846
21
0.279682
0
LINE
8
BLACK
6
CONTINUOUS
10
2.68846
20
0.279682
11
2.68798
21
0.279203
0
LINE
8
BLACK
6
CONTINUOUS
10
2.68798
20
0.279203
11
2.68744
21
0.278124
0
LINE
8
BLACK
6
CONTINUOUS
10
2.68744
20
0.278124
11
2.68744
21
0.274334
0
LINE
8
BLACK
6
CONTINUOUS
10
2.68744
20
0.274334
11
2.69258
21
0.274334
0
LINE
8
BLACK
6
CONTINUOUS
10
2.69258
20
0.274334
11
2.69258
21
0.278124
0
LINE
8
BLACK
6
CONTINUOUS
10
2.69258
20
0.278124
11
2.69204
21
0.279203
0
LINE
8
BLACK
6
CONTINUOUS
10
2.69204
20
0.279203
11
2.69156
21
0.279682
0
LINE
8
BLACK
6
CONTINUOUS
10
2.69156
20
0.279682
11
2.69048
21
0.280221
0
LINE
8
BLACK
6
CONTINUOUS
10
2.69048
20
0.280221
11
2.68954
21
0.280221
0
LINE
8
BLACK
6
CONTINUOUS
10
2.69704
20
0.280971
11
2.69596
21
0.280432
0
LINE
8
BLACK
6
CONTINUOUS
10
2.69596
20
0.280432
11
2.69554
21
0.280014
0
LINE
8
BLACK
6
CONTINUOUS
10
2.69554
20
0.280014
11
2.69494
21
0.278211
0
LINE
8
BLACK
6
CONTINUOUS
10
2.69494
20
0.278211
11
2.69494
21
0.274334
0
LINE
8
BLACK
6
CONTINUOUS
10
2.69494
20
0.274334
11
2.70082
21
0.274334
0
LINE
8
BLACK
6
CONTINUOUS
10
2.70082
20
0.274334
11
2.70082
21
0.278874
0
LINE
8
BLACK
6
CONTINUOUS
10
2.70082
20
0.278874
11
2.70029
21
0.279953
0
LINE
8
BLACK
6
CONTINUOUS
10
2.70029
20
0.279953
11
2.69981
21
0.280432
0
LINE
8
BLACK
6
CONTINUOUS
10
2.69981
20
0.280432
11
2.69873
21
0.280971
0
LINE
8
BLACK
6
CONTINUOUS
10
2.69873
20
0.280971
11
2.69704
21
0.280971
0
LINE
8
BLACK
6
CONTINUOUS
10
2.69557
20
0.308698
11
2.69591
21
0.308632
0
LINE
8
BLACK
6
CONTINUOUS
10
2.69591
20
0.308632
11
2.69598
21
0.308531
0
LINE
8
BLACK
6
CONTINUOUS
10
2.69598
20
0.308531
11
2.69609
21
0.308484
0
LINE
8
BLACK
6
CONTINUOUS
10
2.69609
20
0.308484
11
2.69622
21
0.308166
0
LINE
8
BLACK
6
CONTINUOUS
10
2.69622
20
0.308166
11
2.69641
21
0.307881
0
LINE
8
BLACK
6
CONTINUOUS
10
2.69641
20
0.307881
11
2.69772
21
0.301331
0
LINE
8
BLACK
6
CONTINUOUS
10
2.69772
20
0.301331
11
2.69948
21
0.301331
0
LINE
8
BLACK
6
CONTINUOUS
10
2.69948
20
0.301331
11
2.70038
21
0.30178
0
LINE
8
BLACK
6
CONTINUOUS
10
2.70038
20
0.30178
11
2.70082
21
0.302679
0
LINE
8
BLACK
6
CONTINUOUS
10
2.70082
20
0.302679
11
2.70082
21
0.30512
0
LINE
8
BLACK
6
CONTINUOUS
10
2.70082
20
0.30512
11
2.7002
21
0.306371
0
LINE
8
BLACK
6
CONTINUOUS
10
2.7002
20
0.306371
11
2.70014
21
0.307273
0
LINE
8
BLACK
6
CONTINUOUS
10
2.70014
20
0.307273
11
2.70073
21
0.307956
0
LINE
8
BLACK
6
CONTINUOUS
10
2.70073
20
0.307956
11
2.70163
21
0.30802
0
LINE
8
BLACK
6
CONTINUOUS
10
2.70163
20
0.30802
11
2.70231
21
0.307427
0
LINE
8
BLACK
6
CONTINUOUS
10
2.70231
20
0.307427
11
2.70306
21
0.305927
0
LINE
8
BLACK
6
CONTINUOUS
10
2.70306
20
0.305927
11
2.70308
21
0.305653
0
LINE
8
BLACK
6
CONTINUOUS
10
2.70308
20
0.305653
11
2.70319
21
0.305399
0
LINE
8
BLACK
6
CONTINUOUS
10
2.70319
20
0.305399
11
2.70319
21
0.3024
0
LINE
8
BLACK
6
CONTINUOUS
10
2.70319
20
0.3024
11
2.70308
21
0.302146
0
LINE
8
BLACK
6
CONTINUOUS
10
2.70308
20
0.302146
11
2.70306
21
0.301871
0
LINE
8
BLACK
6
CONTINUOUS
10
2.70306
20
0.301871
11
2.70231
21
0.300372
0
LINE
8
BLACK
6
CONTINUOUS
10
2.70231
20
0.300372
11
2.70203
21
0.300126
0
LINE
8
BLACK
6
CONTINUOUS
10
2.70203
20
0.300126
11
2.70178
21
0.299843
0
LINE
8
BLACK
6
CONTINUOUS
10
2.70178
20
0.299843
11
2.70028
21
0.299094
0
LINE
8
BLACK
6
CONTINUOUS
10
2.70028
20
0.299094
11
2.70001
21
0.299074
0
LINE
8
BLACK
6
CONTINUOUS
10
2.70001
20
0.299074
11
2.69976
21
0.298969
0
LINE
8
BLACK
6
CONTINUOUS
10
2.69976
20
0.298969
11
2.69376
21
0.298969
0
LINE
8
BLACK
6
CONTINUOUS
10
2.69376
20
0.298969
11
2.6935
21
0.299074
0
LINE
8
BLACK
6
CONTINUOUS
10
2.6935
20
0.299074
11
2.69323
21
0.299094
0
LINE
8
BLACK
6
CONTINUOUS
10
2.69323
20
0.299094
11
2.69173
21
0.299843
0
LINE
8
BLACK
6
CONTINUOUS
10
2.69173
20
0.299843
11
2.69148
21
0.300126
0
LINE
8
BLACK
6
CONTINUOUS
10
2.69148
20
0.300126
11
2.6912
21
0.300372
0
LINE
8
BLACK
6
CONTINUOUS
10
2.6912
20
0.300372
11
2.69045
21
0.301871
0
LINE
8
BLACK
6
CONTINUOUS
10
2.69045
20
0.301871
11
2.69043
21
0.302146
0
LINE
8
BLACK
6
CONTINUOUS
10
2.69043
20
0.302146
11
2.69033
21
0.3024
0
LINE
8
BLACK
6
CONTINUOUS
10
2.69033
20
0.3024
11
2.69033
21
0.305399
0
LINE
8
BLACK
6
CONTINUOUS
10
2.69033
20
0.305399
11
2.69043
21
0.305653
0
LINE
8
BLACK
6
CONTINUOUS
10
2.69043
20
0.305653
11
2.69045
21
0.305927
0
LINE
8
BLACK
6
CONTINUOUS
10
2.69045
20
0.305927
11
2.6912
21
0.307427
0
LINE
8
BLACK
6
CONTINUOUS
10
2.6912
20
0.307427
11
2.69148
21
0.307673
0
LINE
8
BLACK
6
CONTINUOUS
10
2.69148
20
0.307673
11
2.69173
21
0.307956
0
LINE
8
BLACK
6
CONTINUOUS
10
2.69173
20
0.307956
11
2.69323
21
0.308705
0
LINE
8
BLACK
6
CONTINUOUS
10
2.69323
20
0.308705
11
2.6935
21
0.308725
0
LINE
8
BLACK
6
CONTINUOUS
10
2.6935
20
0.308725
11
2.69376
21
0.30883
0
LINE
8
BLACK
6
CONTINUOUS
10
2.69376
20
0.30883
11
2.69526
21
0.30883
0
LINE
8
BLACK
6
CONTINUOUS
10
2.69526
20
0.30883
11
2.69557
21
0.308698
0
LINE
8
BLACK
6
CONTINUOUS
10
2.69404
20
0.306468
11
2.69314
21
0.306019
0
LINE
8
BLACK
6
CONTINUOUS
10
2.69314
20
0.306019
11
2.69269
21
0.30512
0
LINE
8
BLACK
6
CONTINUOUS
10
2.69269
20
0.30512
11
2.69269
21
0.302679
0
LINE
8
BLACK
6
CONTINUOUS
10
2.69269
20
0.302679
11
2.69314
21
0.30178
0
LINE
8
BLACK
6
CONTINUOUS
10
2.69314
20
0.30178
11
2.69404
21
0.301331
0
LINE
8
BLACK
6
CONTINUOUS
10
2.69404
20
0.301331
11
2.69532
21
0.301331
0
LINE
8
BLACK
6
CONTINUOUS
10
2.69532
20
0.301331
11
2.69429
21
0.306468
0
LINE
8
BLACK
6
CONTINUOUS
10
2.69429
20
0.306468
11
2.69404
21
0.306468
0
LINE
8
BLACK
6
CONTINUOUS
10
2.70284
20
0.321982
11
2.70319
21
0.321147
0
LINE
8
BLACK
6
CONTINUOUS
10
2.70319
20
0.321147
11
2.70291
21
0.32048
0
LINE
8
BLACK
6
CONTINUOUS
10
2.70291
20
0.32048
11
2.70306
21
0.320176
0
LINE
8
BLACK
6
CONTINUOUS
10
2.70306
20
0.320176
11
2.70308
21
0.319901
0
LINE
8
BLACK
6
CONTINUOUS
10
2.70308
20
0.319901
11
2.70319
21
0.319648
0
LINE
8
BLACK
6
CONTINUOUS
10
2.70319
20
0.319648
11
2.70319
21
0.316648
0
LINE
8
BLACK
6
CONTINUOUS
10
2.70319
20
0.316648
11
2.70308
21
0.316394
0
LINE
8
BLACK
6
CONTINUOUS
10
2.70308
20
0.316394
11
2.70306
21
0.31612
0
LINE
8
BLACK
6
CONTINUOUS
10
2.70306
20
0.31612
11
2.70231
21
0.31462
0
LINE
8
BLACK
6
CONTINUOUS
10
2.70231
20
0.31462
11
2.70217
21
0.314493
0
LINE
8
BLACK
6
CONTINUOUS
10
2.70217
20
0.314493
11
2.70209
21
0.314313
0
LINE
8
BLACK
6
CONTINUOUS
10
2.70209
20
0.314313
11
2.70134
21
0.313563
0
LINE
8
BLACK
6
CONTINUOUS
10
2.70134
20
0.313563
11
2.70116
21
0.313489
0
LINE
8
BLACK
6
CONTINUOUS
10
2.70116
20
0.313489
11
2.70103
21
0.313342
0
LINE
8
BLACK
6
CONTINUOUS
10
2.70103
20
0.313342
11
2.69953
21
0.312592
0
LINE
8
BLACK
6
CONTINUOUS
10
2.69953
20
0.312592
11
2.69926
21
0.312572
0
LINE
8
BLACK
6
CONTINUOUS
10
2.69926
20
0.312572
11
2.69901
21
0.312467
0
LINE
8
BLACK
6
CONTINUOUS
10
2.69901
20
0.312467
11
2.69451
21
0.312467
0
LINE
8
BLACK
6
CONTINUOUS
10
2.69451
20
0.312467
11
2.69425
21
0.312572
0
LINE
8
BLACK
6
CONTINUOUS
10
2.69425
20
0.312572
11
2.69398
21
0.312592
0
LINE
8
BLACK
6
CONTINUOUS
10
2.69398
20
0.312592
11
2.69248
21
0.313342
0
LINE
8
BLACK
6
CONTINUOUS
10
2.69248
20
0.313342
11
2.69235
21
0.313489
0
LINE
8
BLACK
6
CONTINUOUS
10
2.69235
20
0.313489
11
2.69217
21
0.313563
0
LINE
8
BLACK
6
CONTINUOUS
10
2.69217
20
0.313563
11
2.69142
21
0.314313
0
LINE
8
BLACK
6
CONTINUOUS
10
2.69142
20
0.314313
11
2.69135
21
0.314492
0
LINE
8
BLACK
6
CONTINUOUS
10
2.69135
20
0.314492
11
2.6912
21
0.31462
0
LINE
8
BLACK
6
CONTINUOUS
10
2.6912
20
0.31462
11
2.69045
21
0.31612
0
LINE
8
BLACK
6
CONTINUOUS
10
2.69045
20
0.31612
11
2.69043
21
0.316394
0
LINE
8
BLACK
6
CONTINUOUS
10
2.69043
20
0.316394
11
2.69033
21
0.316648
0
LINE
8
BLACK
6
CONTINUOUS
10
2.69033
20
0.316648
11
2.69033
21
0.319648
0
LINE
8
BLACK
6
CONTINUOUS
10
2.69033
20
0.319648
11
2.69043
21
0.319901
0
LINE
8
BLACK
6
CONTINUOUS
10
2.69043
20
0.319901
11
2.69044
21
0.319966
0
LINE
8
BLACK
6
CONTINUOUS
10
2.69044
20
0.319966
11
2.68626
21
0.319966
0
LINE
8
BLACK
6
CONTINUOUS
10
2.68626
20
0.319966
11
2.68542
21
0.320312
0
LINE
8
BLACK
6
CONTINUOUS
10
2.68542
20
0.320312
11
2.68508
21
0.321147
0
LINE
8
BLACK
6
CONTINUOUS
10
2.68508
20
0.321147
11
2.68542
21
0.321982
0
LINE
8
BLACK
6
CONTINUOUS
10
2.68542
20
0.321982
11
2.68626
21
0.322328
0
LINE
8
BLACK
6
CONTINUOUS
10
2.68626
20
0.322328
11
2.70201
21
0.322328
0
LINE
8
BLACK
6
CONTINUOUS
10
2.70201
20
0.322328
11
2.70284
21
0.321982
0
LINE
8
BLACK
6
CONTINUOUS
10
2.69299
20
0.319966
11
2.69269
21
0.319369
0
LINE
8
BLACK
6
CONTINUOUS
10
2.69269
20
0.319369
11
2.69269
21
0.316927
0
LINE
8
BLACK
6
CONTINUOUS
10
2.69269
20
0.316927
11
2.69323
21
0.315848
0
LINE
8
BLACK
6
CONTINUOUS
10
2.69323
20
0.315848
11
2.69371
21
0.315369
0
LINE
8
BLACK
6
CONTINUOUS
10
2.69371
20
0.315369
11
2.69479
21
0.314829
0
LINE
8
BLACK
6
CONTINUOUS
10
2.69479
20
0.314829
11
2.69873
21
0.314829
0
LINE
8
BLACK
6
CONTINUOUS
10
2.69873
20
0.314829
11
2.69981
21
0.315369
0
LINE
8
BLACK
6
CONTINUOUS
10
2.69981
20
0.315369
11
2.70029
21
0.315848
0
LINE
8
BLACK
6
CONTINUOUS
10
2.70029
20
0.315848
11
2.70082
21
0.316927
0
LINE
8
BLACK
6
CONTINUOUS
10
2.70082
20
0.316927
11
2.70082
21
0.319369
0
LINE
8
BLACK
6
CONTINUOUS
10
2.70082
20
0.319369
11
2.70053
21
0.319966
0
LINE
8
BLACK
6
CONTINUOUS
10
2.70053
20
0.319966
11
2.69299
21
0.319966
0
LINE
8
BLACK
6
CONTINUOUS
10
2.70451
20
0.336471
11
2.70478
21
0.336452
0
LINE
8
BLACK
6
CONTINUOUS
10
2.70478
20
0.336452
11
2.70628
21
0.335702
0
LINE
8
BLACK
6
CONTINUOUS
10
2.70628
20
0.335702
11
2.70641
21
0.335555
0
LINE
8
BLACK
6
CONTINUOUS
10
2.70641
20
0.335555
11
2.70659
21
0.335481
0
LINE
8
BLACK
6
CONTINUOUS
10
2.70659
20
0.335481
11
2.70734
21
0.334731
0
LINE
8
BLACK
6
CONTINUOUS
10
2.70734
20
0.334731
11
2.70742
21
0.334551
0
LINE
8
BLACK
6
CONTINUOUS
10
2.70742
20
0.334551
11
2.70756
21
0.334424
0
LINE
8
BLACK
6
CONTINUOUS
10
2.70756
20
0.334424
11
2.70831
21
0.332924
0
LINE
8
BLACK
6
CONTINUOUS
10
2.70831
20
0.332924
11
2.70833
21
0.33265
0
LINE
8
BLACK
6
CONTINUOUS
10
2.70833
20
0.33265
11
2.70844
21
0.332396
0
LINE
8
BLACK
6
CONTINUOUS
10
2.70844
20
0.332396
11
2.70844
21
0.330146
0
LINE
8
BLACK
6
CONTINUOUS
10
2.70844
20
0.330146
11
2.70833
21
0.329892
0
LINE
8
BLACK
6
CONTINUOUS
10
2.70833
20
0.329892
11
2.70831
21
0.329618
0
LINE
8
BLACK
6
CONTINUOUS
10
2.70831
20
0.329618
11
2.70756
21
0.328118
0
LINE
8
BLACK
6
CONTINUOUS
10
2.70756
20
0.328118
11
2.70688
21
0.327526
0
LINE
8
BLACK
6
CONTINUOUS
10
2.70688
20
0.327526
11
2.70598
21
0.32759
0
LINE
8
BLACK
6
CONTINUOUS
10
2.70598
20
0.32759
11
2.70538
21
0.328273
0
LINE
8
BLACK
6
CONTINUOUS
10
2.70538
20
0.328273
11
2.70545
21
0.329175
0
LINE
8
BLACK
6
CONTINUOUS
10
2.70545
20
0.329175
11
2.70607
21
0.330425
0
LINE
8
BLACK
6
CONTINUOUS
10
2.70607
20
0.330425
11
2.70607
21
0.332117
0
LINE
8
BLACK
6
CONTINUOUS
10
2.70607
20
0.332117
11
2.70553
21
0.333196
0
LINE
8
BLACK
6
CONTINUOUS
10
2.70553
20
0.333196
11
2.70506
21
0.333675
0
LINE
8
BLACK
6
CONTINUOUS
10
2.70506
20
0.333675
11
2.70398
21
0.334214
0
LINE
8
BLACK
6
CONTINUOUS
10
2.70398
20
0.334214
11
2.70308
21
0.334214
0
LINE
8
BLACK
6
CONTINUOUS
10
2.70308
20
0.334214
11
2.70308
21
0.33415
0
LINE
8
BLACK
6
CONTINUOUS
10
2.70308
20
0.33415
11
2.70319
21
0.333896
0
LINE
8
BLACK
6
CONTINUOUS
10
2.70319
20
0.333896
11
2.70319
21
0.330896
0
LINE
8
BLACK
6
CONTINUOUS
10
2.70319
20
0.330896
11
2.70308
21
0.330642
0
LINE
8
BLACK
6
CONTINUOUS
10
2.70308
20
0.330642
11
2.70306
21
0.330368
0
LINE
8
BLACK
6
CONTINUOUS
10
2.70306
20
0.330368
11
2.70231
21
0.328868
0
LINE
8
BLACK
6
CONTINUOUS
10
2.70231
20
0.328868
11
2.70217
21
0.328741
0
LINE
8
BLACK
6
CONTINUOUS
10
2.70217
20
0.328741
11
2.70209
21
0.328561
0
LINE
8
BLACK
6
CONTINUOUS
10
2.70209
20
0.328561
11
2.70134
21
0.327811
0
LINE
8
BLACK
6
CONTINUOUS
10
2.70134
20
0.327811
11
2.70116
21
0.327737
0
LINE
8
BLACK
6
CONTINUOUS
10
2.70116
20
0.327737
11
2.70103
21
0.32759
0
LINE
8
BLACK
6
CONTINUOUS
10
2.70103
20
0.32759
11
2.69953
21
0.32684
0
LINE
8
BLACK
6
CONTINUOUS
10
2.69953
20
0.32684
11
2.69926
21
0.326821
0
LINE
8
BLACK
6
CONTINUOUS
10
2.69926
20
0.326821
11
2.69901
21
0.326715
0
LINE
8
BLACK
6
CONTINUOUS
10
2.69901
20
0.326715
11
2.69451
21
0.326715
0
LINE
8
BLACK
6
CONTINUOUS
10
2.69451
20
0.326715
11
2.69425
21
0.326821
0
LINE
8
BLACK
6
CONTINUOUS
10
2.69425
20
0.326821
11
2.69398
21
0.32684
0
LINE
8
BLACK
6
CONTINUOUS
10
2.69398
20
0.32684
11
2.69248
21
0.32759
0
LINE
8
BLACK
6
CONTINUOUS
10
2.69248
20
0.32759
11
2.69235
21
0.327737
0
LINE
8
BLACK
6
CONTINUOUS
10
2.69235
20
0.327737
11
2.69217
21
0.327811
0
LINE
8
BLACK
6
CONTINUOUS
10
2.69217
20
0.327811
11
2.69142
21
0.328561
0
LINE
8
BLACK
6
CONTINUOUS
10
2.69142
20
0.328561
11
2.69135
21
0.328741
0
LINE
8
BLACK
6
CONTINUOUS
10
2.69135
20
0.328741
11
2.6912
21
0.328868
0
LINE
8
BLACK
6
CONTINUOUS
10
2.6912
20
0.328868
11
2.69045
21
0.330368
0
LINE
8
BLACK
6
CONTINUOUS
10
2.69045
20
0.330368
11
2.69043
21
0.330642
0
LINE
8
BLACK
6
CONTINUOUS
10
2.69043
20
0.330642
11
2.69033
21
0.330896
0
LINE
8
BLACK
6
CONTINUOUS
10
2.69033
20
0.330896
11
2.69033
21
0.333896
0
LINE
8
BLACK
6
CONTINUOUS
10
2.69033
20
0.333896
11
2.69043
21
0.33415
0
LINE
8
BLACK
6
CONTINUOUS
10
2.69043
20
0.33415
11
2.69045
21
0.334424
0
LINE
8
BLACK
6
CONTINUOUS
10
2.69045
20
0.334424
11
2.6906
21
0.334728
0
LINE
8
BLACK
6
CONTINUOUS
10
2.6906
20
0.334728
11
2.69033
21
0.335396
0
LINE
8
BLACK
6
CONTINUOUS
10
2.69033
20
0.335396
11
2.69067
21
0.336231
0
LINE
8
BLACK
6
CONTINUOUS
10
2.69067
20
0.336231
11
2.69151
21
0.336577
0
LINE
8
BLACK
6
CONTINUOUS
10
2.69151
20
0.336577
11
2.70426
21
0.336577
0
LINE
8
BLACK
6
CONTINUOUS
10
2.70426
20
0.336577
11
2.70451
21
0.336471
0
LINE
8
BLACK
6
CONTINUOUS
10
2.69299
20
0.334214
11
2.69269
21
0.333617
0
LINE
8
BLACK
6
CONTINUOUS
10
2.69269
20
0.333617
11
2.69269
21
0.331175
0
LINE
8
BLACK
6
CONTINUOUS
10
2.69269
20
0.331175
11
2.69323
21
0.330096
0
LINE
8
BLACK
6
CONTINUOUS
10
2.69323
20
0.330096
11
2.69371
21
0.329617
0
LINE
8
BLACK
6
CONTINUOUS
10
2.69371
20
0.329617
11
2.69479
21
0.329078
0
LINE
8
BLACK
6
CONTINUOUS
10
2.69479
20
0.329078
11
2.69873
21
0.329078
0
LINE
8
BLACK
6
CONTINUOUS
10
2.69873
20
0.329078
11
2.69981
21
0.329617
0
LINE
8
BLACK
6
CONTINUOUS
10
2.69981
20
0.329617
11
2.70029
21
0.330096
0
LINE
8
BLACK
6
CONTINUOUS
10
2.70029
20
0.330096
11
2.70082
21
0.331175
0
LINE
8
BLACK
6
CONTINUOUS
10
2.70082
20
0.331175
11
2.70082
21
0.333617
0
LINE
8
BLACK
6
CONTINUOUS
10
2.70082
20
0.333617
11
2.70053
21
0.334214
0
LINE
8
BLACK
6
CONTINUOUS
10
2.70053
20
0.334214
11
2.69299
21
0.334214
0
LINE
8
BLACK
6
CONTINUOUS
10
2.69557
20
0.350693
11
2.69591
21
0.350626
0
LINE
8
BLACK
6
CONTINUOUS
10
2.69591
20
0.350626
11
2.69598
21
0.350525
0
LINE
8
BLACK
6
CONTINUOUS
10
2.69598
20
0.350525
11
2.69609
21
0.350479
0
LINE
8
BLACK
6
CONTINUOUS
10
2.69609
20
0.350479
11
2.69622
21
0.350161
0
LINE
8
BLACK
6
CONTINUOUS
10
2.69622
20
0.350161
11
2.69641
21
0.349875
0
LINE
8
BLACK
6
CONTINUOUS
10
2.69641
20
0.349875
11
2.69772
21
0.343326
0
LINE
8
BLACK
6
CONTINUOUS
10
2.69772
20
0.343326
11
2.69948
21
0.343326
0
LINE
8
BLACK
6
CONTINUOUS
10
2.69948
20
0.343326
11
2.70038
21
0.343775
0
LINE
8
BLACK
6
CONTINUOUS
10
2.70038
20
0.343775
11
2.70082
21
0.344673
0
LINE
8
BLACK
6
CONTINUOUS
10
2.70082
20
0.344673
11
2.70082
21
0.347115
0
LINE
8
BLACK
6
CONTINUOUS
10
2.70082
20
0.347115
11
2.7002
21
0.348366
0
LINE
8
BLACK
6
CONTINUOUS
10
2.7002
20
0.348366
11
2.70014
21
0.349267
0
LINE
8
BLACK
6
CONTINUOUS
10
2.70014
20
0.349267
11
2.70073
21
0.34995
0
LINE
8
BLACK
6
CONTINUOUS
10
2.70073
20
0.34995
11
2.70163
21
0.350014
0
LINE
8
BLACK
6
CONTINUOUS
10
2.70163
20
0.350014
11
2.70231
21
0.349422
0
LINE
8
BLACK
6
CONTINUOUS
10
2.70231
20
0.349422
11
2.70306
21
0.347922
0
LINE
8
BLACK
6
CONTINUOUS
10
2.70306
20
0.347922
11
2.70308
21
0.347648
0
LINE
8
BLACK
6
CONTINUOUS
10
2.70308
20
0.347648
11
2.70319
21
0.347394
0
LINE
8
BLACK
6
CONTINUOUS
10
2.70319
20
0.347394
11
2.70319
21
0.344394
0
LINE
8
BLACK
6
CONTINUOUS
10
2.70319
20
0.344394
11
2.70308
21
0.34414
0
LINE
8
BLACK
6
CONTINUOUS
10
2.70308
20
0.34414
11
2.70306
21
0.343866
0
LINE
8
BLACK
6
CONTINUOUS
10
2.70306
20
0.343866
11
2.70231
21
0.342366
0
LINE
8
BLACK
6
CONTINUOUS
10
2.70231
20
0.342366
11
2.70203
21
0.342121
0
LINE
8
BLACK
6
CONTINUOUS
10
2.70203
20
0.342121
11
2.70178
21
0.341838
0
LINE
8
BLACK
6
CONTINUOUS
10
2.70178
20
0.341838
11
2.70028
21
0.341088
0
LINE
8
BLACK
6
CONTINUOUS
10
2.70028
20
0.341088
11
2.70001
21
0.341069
0
LINE
8
BLACK
6
CONTINUOUS
10
2.70001
20
0.341069
11
2.69976
21
0.340964
0
LINE
8
BLACK
6
CONTINUOUS
10
2.69976
20
0.340964
11
2.69376
21
0.340964
0
LINE
8
BLACK
6
CONTINUOUS
10
2.69376
20
0.340964
11
2.6935
21
0.341069
0
LINE
8
BLACK
6
CONTINUOUS
10
2.6935
20
0.341069
11
2.69323
21
0.341088
0
LINE
8
BLACK
6
CONTINUOUS
10
2.69323
20
0.341088
11
2.69173
21
0.341838
0
LINE
8
BLACK
6
CONTINUOUS
10
2.69173
20
0.341838
11
2.69148
21
0.342121
0
LINE
8
BLACK
6
CONTINUOUS
10
2.69148
20
0.342121
11
2.6912
21
0.342366
0
LINE
8
BLACK
6
CONTINUOUS
10
2.6912
20
0.342366
11
2.69045
21
0.343866
0
LINE
8
BLACK
6
CONTINUOUS
10
2.69045
20
0.343866
11
2.69043
21
0.34414
0
LINE
8
BLACK
6
CONTINUOUS
10
2.69043
20
0.34414
11
2.69033
21
0.344394
0
LINE
8
BLACK
6
CONTINUOUS
10
2.69033
20
0.344394
11
2.69033
21
0.347394
0
LINE
8
BLACK
6
CONTINUOUS
10
2.69033
20
0.347394
11
2.69043
21
0.347648
0
LINE
8
BLACK
6
CONTINUOUS
10
2.69043
20
0.347648
11
2.69045
21
0.347922
0
LINE
8
BLACK
6
CONTINUOUS
10
2.69045
20
0.347922
11
2.6912
21
0.349422
0
LINE
8
BLACK
6
CONTINUOUS
10
2.6912
20
0.349422
11
2.69148
21
0.349667
0
LINE
8
BLACK
6
CONTINUOUS
10
2.69148
20
0.349667
11
2.69173
21
0.34995
0
LINE
8
BLACK
6
CONTINUOUS
10
2.69173
20
0.34995
11
2.69323
21
0.3507
0
LINE
8
BLACK
6
CONTINUOUS
10
2.69323
20
0.3507
11
2.6935
21
0.35072
0
LINE
8
BLACK
6
CONTINUOUS
10
2.6935
20
0.35072
11
2.69376
21
0.350825
0
LINE
8
BLACK
6
CONTINUOUS
10
2.69376
20
0.350825
11
2.69526
21
0.350825
0
LINE
8
BLACK
6
CONTINUOUS
10
2.69526
20
0.350825
11
2.69557
21
0.350693
0
LINE
8
BLACK
6
CONTINUOUS
10
2.69404
20
0.348463
11
2.69314
21
0.348014
0
LINE
8
BLACK
6
CONTINUOUS
10
2.69314
20
0.348014
11
2.69269
21
0.347115
0
LINE
8
BLACK
6
CONTINUOUS
10
2.69269
20
0.347115
11
2.69269
21
0.344673
0
LINE
8
BLACK
6
CONTINUOUS
10
2.69269
20
0.344673
11
2.69314
21
0.343775
0
LINE
8
BLACK
6
CONTINUOUS
10
2.69314
20
0.343775
11
2.69404
21
0.343326
0
LINE
8
BLACK
6
CONTINUOUS
10
2.69404
20
0.343326
11
2.69532
21
0.343326
0
LINE
8
BLACK
6
CONTINUOUS
10
2.69532
20
0.343326
11
2.69429
21
0.348463
0
LINE
8
BLACK
6
CONTINUOUS
10
2.69429
20
0.348463
11
2.69404
21
0.348463
0
LINE
8
BLACK
6
CONTINUOUS
10
2.7573
20
1.02994
11
2.75787
21
1.02854
0
LINE
8
BLACK
6
CONTINUOUS
10
2.75787
20
1.02854
11
2.75787
21
0.74311
0
LINE
8
BLACK
6
CONTINUOUS
10
2.75787
20
0.74311
11
2.7573
21
0.741718
0
LINE
8
BLACK
6
CONTINUOUS
10
2.7573
20
0.741718
11
2.75591
21
0.741142
0
LINE
8
BLACK
6
CONTINUOUS
10
2.75591
20
0.741142
11
2.75451
21
0.741718
0
LINE
8
BLACK
6
CONTINUOUS
10
2.75451
20
0.741718
11
2.75394
21
0.74311
0
LINE
8
BLACK
6
CONTINUOUS
10
2.75394
20
0.74311
11
2.75394
21
1.02854
0
LINE
8
BLACK
6
CONTINUOUS
10
2.75394
20
1.02854
11
2.75451
21
1.02994
0
LINE
8
BLACK
6
CONTINUOUS
10
2.75451
20
1.02994
11
2.75591
21
1.03051
0
LINE
8
BLACK
6
CONTINUOUS
10
2.75591
20
1.03051
11
2.7573
21
1.02994
0
LINE
8
BLACK
6
CONTINUOUS
10
2.68542
20
0.831373
11
2.68508
21
0.832208
0
LINE
8
BLACK
6
CONTINUOUS
10
2.68508
20
0.832208
11
2.68508
21
0.838208
0
LINE
8
BLACK
6
CONTINUOUS
10
2.68508
20
0.838208
11
2.68518
21
0.838462
0
LINE
8
BLACK
6
CONTINUOUS
10
2.68518
20
0.838462
11
2.6852
21
0.838736
0
LINE
8
BLACK
6
CONTINUOUS
10
2.6852
20
0.838736
11
2.68595
21
0.840236
0
LINE
8
BLACK
6
CONTINUOUS
10
2.68595
20
0.840236
11
2.6861
21
0.840363
0
LINE
8
BLACK
6
CONTINUOUS
10
2.6861
20
0.840363
11
2.68617
21
0.840543
0
LINE
8
BLACK
6
CONTINUOUS
10
2.68617
20
0.840543
11
2.68692
21
0.841293
0
LINE
8
BLACK
6
CONTINUOUS
10
2.68692
20
0.841293
11
2.6871
21
0.841367
0
LINE
8
BLACK
6
CONTINUOUS
10
2.6871
20
0.841367
11
2.68723
21
0.841514
0
LINE
8
BLACK
6
CONTINUOUS
10
2.68723
20
0.841514
11
2.68873
21
0.842264
0
LINE
8
BLACK
6
CONTINUOUS
10
2.68873
20
0.842264
11
2.689
21
0.842283
0
LINE
8
BLACK
6
CONTINUOUS
10
2.689
20
0.842283
11
2.68926
21
0.842388
0
LINE
8
BLACK
6
CONTINUOUS
10
2.68926
20
0.842388
11
2.69151
21
0.842388
0
LINE
8
BLACK
6
CONTINUOUS
10
2.69151
20
0.842388
11
2.69176
21
0.842283
0
LINE
8
BLACK
6
CONTINUOUS
10
2.69176
20
0.842283
11
2.69204
21
0.842264
0
LINE
8
BLACK
6
CONTINUOUS
10
2.69204
20
0.842264
11
2.69354
21
0.841514
0
LINE
8
BLACK
6
CONTINUOUS
10
2.69354
20
0.841514
11
2.69366
21
0.841367
0
LINE
8
BLACK
6
CONTINUOUS
10
2.69366
20
0.841367
11
2.69384
21
0.841293
0
LINE
8
BLACK
6
CONTINUOUS
10
2.69384
20
0.841293
11
2.69459
21
0.840543
0
LINE
8
BLACK
6
CONTINUOUS
10
2.69459
20
0.840543
11
2.69467
21
0.840363
0
LINE
8
BLACK
6
CONTINUOUS
10
2.69467
20
0.840363
11
2.69481
21
0.840236
0
LINE
8
BLACK
6
CONTINUOUS
10
2.69481
20
0.840236
11
2.69556
21
0.838736
0
LINE
8
BLACK
6
CONTINUOUS
10
2.69556
20
0.838736
11
2.69558
21
0.838462
0
LINE
8
BLACK
6
CONTINUOUS
10
2.69558
20
0.838462
11
2.69569
21
0.838208
0
LINE
8
BLACK
6
CONTINUOUS
10
2.69569
20
0.838208
11
2.69569
21
0.83339
0
LINE
8
BLACK
6
CONTINUOUS
10
2.69569
20
0.83339
11
2.70201
21
0.83339
0
LINE
8
BLACK
6
CONTINUOUS
10
2.70201
20
0.83339
11
2.70284
21
0.833044
0
LINE
8
BLACK
6
CONTINUOUS
10
2.70284
20
0.833044
11
2.70319
21
0.832208
0
LINE
8
BLACK
6
CONTINUOUS
10
2.70319
20
0.832208
11
2.70284
21
0.831373
0
LINE
8
BLACK
6
CONTINUOUS
10
2.70284
20
0.831373
11
2.70201
21
0.831027
0
LINE
8
BLACK
6
CONTINUOUS
10
2.70201
20
0.831027
11
2.68626
21
0.831027
0
LINE
8
BLACK
6
CONTINUOUS
10
2.68626
20
0.831027
11
2.68542
21
0.831373
0
LINE
8
BLACK
6
CONTINUOUS
10
2.68954
20
0.840026
11
2.68846
21
0.839487
0
LINE
8
BLACK
6
CONTINUOUS
10
2.68846
20
0.839487
11
2.68798
21
0.839008
0
LINE
8
BLACK
6
CONTINUOUS
10
2.68798
20
0.839008
11
2.68744
21
0.837929
0
LINE
8
BLACK
6
CONTINUOUS
10
2.68744
20
0.837929
11
2.68744
21
0.83339
0
LINE
8
BLACK
6
CONTINUOUS
10
2.68744
20
0.83339
11
2.69333
21
0.83339
0
LINE
8
BLACK
6
CONTINUOUS
10
2.69333
20
0.83339
11
2.69333
21
0.837929
0
LINE
8
BLACK
6
CONTINUOUS
10
2.69333
20
0.837929
11
2.69279
21
0.839008
0
LINE
8
BLACK
6
CONTINUOUS
10
2.69279
20
0.839008
11
2.69231
21
0.839487
0
LINE
8
BLACK
6
CONTINUOUS
10
2.69231
20
0.839487
11
2.69123
21
0.840026
0
LINE
8
BLACK
6
CONTINUOUS
10
2.69123
20
0.840026
11
2.68954
21
0.840026
0
LINE
8
BLACK
6
CONTINUOUS
10
2.70134
20
0.857791
11
2.70209
21
0.857041
0
LINE
8
BLACK
6
CONTINUOUS
10
2.70209
20
0.857041
11
2.7022
21
0.856787
0
LINE
8
BLACK
6
CONTINUOUS
10
2.7022
20
0.856787
11
2.70238
21
0.856579
0
LINE
8
BLACK
6
CONTINUOUS
10
2.70238
20
0.856579
11
2.70313
21
0.854329
0
LINE
8
BLACK
6
CONTINUOUS
10
2.70313
20
0.854329
11
2.70311
21
0.854135
0
LINE
8
BLACK
6
CONTINUOUS
10
2.70311
20
0.854135
11
2.70319
21
0.853956
0
LINE
8
BLACK
6
CONTINUOUS
10
2.70319
20
0.853956
11
2.70319
21
0.852456
0
LINE
8
BLACK
6
CONTINUOUS
10
2.70319
20
0.852456
11
2.70311
21
0.852276
0
LINE
8
BLACK
6
CONTINUOUS
10
2.70311
20
0.852276
11
2.70313
21
0.852082
0
LINE
8
BLACK
6
CONTINUOUS
10
2.70313
20
0.852082
11
2.70238
21
0.849833
0
LINE
8
BLACK
6
CONTINUOUS
10
2.70238
20
0.849833
11
2.7022
21
0.849625
0
LINE
8
BLACK
6
CONTINUOUS
10
2.7022
20
0.849625
11
2.70209
21
0.849371
0
LINE
8
BLACK
6
CONTINUOUS
10
2.70209
20
0.849371
11
2.70059
21
0.847871
0
LINE
8
BLACK
6
CONTINUOUS
10
2.70059
20
0.847871
11
2.70041
21
0.847797
0
LINE
8
BLACK
6
CONTINUOUS
10
2.70041
20
0.847797
11
2.70028
21
0.84765
0
LINE
8
BLACK
6
CONTINUOUS
10
2.70028
20
0.84765
11
2.69878
21
0.8469
0
LINE
8
BLACK
6
CONTINUOUS
10
2.69878
20
0.8469
11
2.69865
21
0.846891
0
LINE
8
BLACK
6
CONTINUOUS
10
2.69865
20
0.846891
11
2.69854
21
0.846811
0
LINE
8
BLACK
6
CONTINUOUS
10
2.69854
20
0.846811
11
2.69554
21
0.846061
0
LINE
8
BLACK
6
CONTINUOUS
10
2.69554
20
0.846061
11
2.6954
21
0.846083
0
LINE
8
BLACK
6
CONTINUOUS
10
2.6954
20
0.846083
11
2.69526
21
0.846025
0
LINE
8
BLACK
6
CONTINUOUS
10
2.69526
20
0.846025
11
2.69301
21
0.846025
0
LINE
8
BLACK
6
CONTINUOUS
10
2.69301
20
0.846025
11
2.69287
21
0.846083
0
LINE
8
BLACK
6
CONTINUOUS
10
2.69287
20
0.846083
11
2.69272
21
0.846061
0
LINE
8
BLACK
6
CONTINUOUS
10
2.69272
20
0.846061
11
2.68972
21
0.846811
0
LINE
8
BLACK
6
CONTINUOUS
10
2.68972
20
0.846811
11
2.68961
21
0.846891
0
LINE
8
BLACK
6
CONTINUOUS
10
2.68961
20
0.846891
11
2.68948
21
0.8469
0
LINE
8
BLACK
6
CONTINUOUS
10
2.68948
20
0.8469
11
2.68798
21
0.84765
0
LINE
8
BLACK
6
CONTINUOUS
10
2.68798
20
0.84765
11
2.68785
21
0.847797
0
LINE
8
BLACK
6
CONTINUOUS
10
2.68785
20
0.847797
11
2.68767
21
0.847871
0
LINE
8
BLACK
6
CONTINUOUS
10
2.68767
20
0.847871
11
2.68617
21
0.849371
0
LINE
8
BLACK
6
CONTINUOUS
10
2.68617
20
0.849371
11
2.68607
21
0.849625
0
LINE
8
BLACK
6
CONTINUOUS
10
2.68607
20
0.849625
11
2.68589
21
0.849833
0
LINE
8
BLACK
6
CONTINUOUS
10
2.68589
20
0.849833
11
2.68514
21
0.852082
0
LINE
8
BLACK
6
CONTINUOUS
10
2.68514
20
0.852082
11
2.68515
21
0.852276
0
LINE
8
BLACK
6
CONTINUOUS
10
2.68515
20
0.852276
11
2.68508
21
0.852456
0
LINE
8
BLACK
6
CONTINUOUS
10
2.68508
20
0.852456
11
2.68508
21
0.853956
0
LINE
8
BLACK
6
CONTINUOUS
10
2.68508
20
0.853956
11
2.68515
21
0.854135
0
LINE
8
BLACK
6
CONTINUOUS
10
2.68515
20
0.854135
11
2.68514
21
0.854329
0
LINE
8
BLACK
6
CONTINUOUS
10
2.68514
20
0.854329
11
2.68589
21
0.856579
0
LINE
8
BLACK
6
CONTINUOUS
10
2.68589
20
0.856579
11
2.68607
21
0.856787
0
LINE
8
BLACK
6
CONTINUOUS
10
2.68607
20
0.856787
11
2.68617
21
0.857041
0
LINE
8
BLACK
6
CONTINUOUS
10
2.68617
20
0.857041
11
2.68692
21
0.857791
0
LINE
8
BLACK
6
CONTINUOUS
10
2.68692
20
0.857791
11
2.68776
21
0.858136
0
LINE
8
BLACK
6
CONTINUOUS
10
2.68776
20
0.858136
11
2.68859
21
0.857791
0
LINE
8
BLACK
6
CONTINUOUS
10
2.68859
20
0.857791
11
2.68894
21
0.856955
0
LINE
8
BLACK
6
CONTINUOUS
10
2.68894
20
0.856955
11
2.68859
21
0.85612
0
LINE
8
BLACK
6
CONTINUOUS
10
2.68859
20
0.85612
11
2.68804
21
0.855567
0
LINE
8
BLACK
6
CONTINUOUS
10
2.68804
20
0.855567
11
2.68744
21
0.853764
0
LINE
8
BLACK
6
CONTINUOUS
10
2.68744
20
0.853764
11
2.68744
21
0.852648
0
LINE
8
BLACK
6
CONTINUOUS
10
2.68744
20
0.852648
11
2.68804
21
0.850844
0
LINE
8
BLACK
6
CONTINUOUS
10
2.68804
20
0.850844
11
2.68921
21
0.849677
0
LINE
8
BLACK
6
CONTINUOUS
10
2.68921
20
0.849677
11
2.69042
21
0.849071
0
LINE
8
BLACK
6
CONTINUOUS
10
2.69042
20
0.849071
11
2.69315
21
0.848388
0
LINE
8
BLACK
6
CONTINUOUS
10
2.69315
20
0.848388
11
2.69511
21
0.848388
0
LINE
8
BLACK
6
CONTINUOUS
10
2.69511
20
0.848388
11
2.69784
21
0.849071
0
LINE
8
BLACK
6
CONTINUOUS
10
2.69784
20
0.849071
11
2.69906
21
0.849677
0
LINE
8
BLACK
6
CONTINUOUS
10
2.69906
20
0.849677
11
2.70022
21
0.850844
0
LINE
8
BLACK
6
CONTINUOUS
10
2.70022
20
0.850844
11
2.70082
21
0.852648
0
LINE
8
BLACK
6
CONTINUOUS
10
2.70082
20
0.852648
11
2.70082
21
0.853764
0
LINE
8
BLACK
6
CONTINUOUS
10
2.70082
20
0.853764
11
2.70022
21
0.855567
0
LINE
8
BLACK
6
CONTINUOUS
10
2.70022
20
0.855567
11
2.69967
21
0.85612
0
LINE
8
BLACK
6
CONTINUOUS
10
2.69967
20
0.85612
11
2.69933
21
0.856955
0
LINE
8
BLACK
6
CONTINUOUS
10
2.69933
20
0.856955
11
2.69967
21
0.857791
0
LINE
8
BLACK
6
CONTINUOUS
10
2.69967
20
0.857791
11
2.70051
21
0.858136
0
LINE
8
BLACK
6
CONTINUOUS
10
2.70051
20
0.858136
11
2.70134
21
0.857791
0
LINE
8
BLACK
6
CONTINUOUS
10
2.68542
20
0.862869
11
2.68508
21
0.863705
0
LINE
8
BLACK
6
CONTINUOUS
10
2.68508
20
0.863705
11
2.68508
21
0.868954
0
LINE
8
BLACK
6
CONTINUOUS
10
2.68508
20
0.868954
11
2.68518
21
0.869208
0
LINE
8
BLACK
6
CONTINUOUS
10
2.68518
20
0.869208
11
2.6852
21
0.869482
0
LINE
8
BLACK
6
CONTINUOUS
10
2.6852
20
0.869482
11
2.68595
21
0.870982
0
LINE
8
BLACK
6
CONTINUOUS
10
2.68595
20
0.870982
11
2.6861
21
0.871109
0
LINE
8
BLACK
6
CONTINUOUS
10
2.6861
20
0.871109
11
2.68617
21
0.871289
0
LINE
8
BLACK
6
CONTINUOUS
10
2.68617
20
0.871289
11
2.68692
21
0.872039
0
LINE
8
BLACK
6
CONTINUOUS
10
2.68692
20
0.872039
11
2.6871
21
0.872113
0
LINE
8
BLACK
6
CONTINUOUS
10
2.6871
20
0.872113
11
2.68723
21
0.87226
0
LINE
8
BLACK
6
CONTINUOUS
10
2.68723
20
0.87226
11
2.68873
21
0.87301
0
LINE
8
BLACK
6
CONTINUOUS
10
2.68873
20
0.87301
11
2.689
21
0.873029
0
LINE
8
BLACK
6
CONTINUOUS
10
2.689
20
0.873029
11
2.68926
21
0.873135
0
LINE
8
BLACK
6
CONTINUOUS
10
2.68926
20
0.873135
11
2.69076
21
0.873135
0
LINE
8
BLACK
6
CONTINUOUS
10
2.69076
20
0.873135
11
2.69101
21
0.873029
0
LINE
8
BLACK
6
CONTINUOUS
10
2.69101
20
0.873029
11
2.69129
21
0.87301
0
LINE
8
BLACK
6
CONTINUOUS
10
2.69129
20
0.87301
11
2.69279
21
0.87226
0
LINE
8
BLACK
6
CONTINUOUS
10
2.69279
20
0.87226
11
2.69291
21
0.872113
0
LINE
8
BLACK
6
CONTINUOUS
10
2.69291
20
0.872113
11
2.69309
21
0.872039
0
LINE
8
BLACK
6
CONTINUOUS
10
2.69309
20
0.872039
11
2.69346
21
0.871667
0
LINE
8
BLACK
6
CONTINUOUS
10
2.69346
20
0.871667
11
2.69357
21
0.871785
0
LINE
8
BLACK
6
CONTINUOUS
10
2.69357
20
0.871785
11
2.69367
21
0.872039
0
LINE
8
BLACK
6
CONTINUOUS
10
2.69367
20
0.872039
11
2.69442
21
0.872789
0
LINE
8
BLACK
6
CONTINUOUS
10
2.69442
20
0.872789
11
2.6946
21
0.872863
0
LINE
8
BLACK
6
CONTINUOUS
10
2.6946
20
0.872863
11
2.69473
21
0.87301
0
LINE
8
BLACK
6
CONTINUOUS
10
2.69473
20
0.87301
11
2.69623
21
0.87376
0
LINE
8
BLACK
6
CONTINUOUS
10
2.69623
20
0.87376
11
2.6965
21
0.873779
0
LINE
8
BLACK
6
CONTINUOUS
10
2.6965
20
0.873779
11
2.69676
21
0.873884
0
LINE
8
BLACK
6
CONTINUOUS
10
2.69676
20
0.873884
11
2.69901
21
0.873884
0
LINE
8
BLACK
6
CONTINUOUS
10
2.69901
20
0.873884
11
2.69926
21
0.873779
0
LINE
8
BLACK
6
CONTINUOUS
10
2.69926
20
0.873779
11
2.69953
21
0.87376
0
LINE
8
BLACK
6
CONTINUOUS
10
2.69953
20
0.87376
11
2.70103
21
0.87301
0
LINE
8
BLACK
6
CONTINUOUS
10
2.70103
20
0.87301
11
2.70116
21
0.872863
0
LINE
8
BLACK
6
CONTINUOUS
10
2.70116
20
0.872863
11
2.70134
21
0.872789
0
LINE
8
BLACK
6
CONTINUOUS
10
2.70134
20
0.872789
11
2.70209
21
0.872039
0
LINE
8
BLACK
6
CONTINUOUS
10
2.70209
20
0.872039
11
2.70217
21
0.871859
0
LINE
8
BLACK
6
CONTINUOUS
10
2.70217
20
0.871859
11
2.70231
21
0.871732
0
LINE
8
BLACK
6
CONTINUOUS
10
2.70231
20
0.871732
11
2.70306
21
0.870232
0
LINE
8
BLACK
6
CONTINUOUS
10
2.70306
20
0.870232
11
2.70308
21
0.869958
0
LINE
8
BLACK
6
CONTINUOUS
10
2.70308
20
0.869958
11
2.70319
21
0.869704
0
LINE
8
BLACK
6
CONTINUOUS
10
2.70319
20
0.869704
11
2.70319
21
0.863705
0
LINE
8
BLACK
6
CONTINUOUS
10
2.70319
20
0.863705
11
2.70284
21
0.862869
0
LINE
8
BLACK
6
CONTINUOUS
10
2.70284
20
0.862869
11
2.70201
21
0.862523
0
LINE
8
BLACK
6
CONTINUOUS
10
2.70201
20
0.862523
11
2.68626
21
0.862523
0
LINE
8
BLACK
6
CONTINUOUS
10
2.68626
20
0.862523
11
2.68542
21
0.862869
0
LINE
8
BLACK
6
CONTINUOUS
10
2.68954
20
0.870772
11
2.68846
21
0.870233
0
LINE
8
BLACK
6
CONTINUOUS
10
2.68846
20
0.870233
11
2.68798
21
0.869754
0
LINE
8
BLACK
6
CONTINUOUS
10
2.68798
20
0.869754
11
2.68744
21
0.868675
0
LINE
8
BLACK
6
CONTINUOUS
10
2.68744
20
0.868675
11
2.68744
21
0.864886
0
LINE
8
BLACK
6
CONTINUOUS
10
2.68744
20
0.864886
11
2.69258
21
0.864886
0
LINE
8
BLACK
6
CONTINUOUS
10
2.69258
20
0.864886
11
2.69258
21
0.868675
0
LINE
8
BLACK
6
CONTINUOUS
10
2.69258
20
0.868675
11
2.69204
21
0.869754
0
LINE
8
BLACK
6
CONTINUOUS
10
2.69204
20
0.869754
11
2.69156
21
0.870233
0
LINE
8
BLACK
6
CONTINUOUS
10
2.69156
20
0.870233
11
2.69048
21
0.870772
0
LINE
8
BLACK
6
CONTINUOUS
10
2.69048
20
0.870772
11
2.68954
21
0.870772
0
LINE
8
BLACK
6
CONTINUOUS
10
2.69704
20
0.871522
11
2.69596
21
0.870983
0
LINE
8
BLACK
6
CONTINUOUS
10
2.69596
20
0.870983
11
2.69554
21
0.870566
0
LINE
8
BLACK
6
CONTINUOUS
10
2.69554
20
0.870566
11
2.69494
21
0.868762
0
LINE
8
BLACK
6
CONTINUOUS
10
2.69494
20
0.868762
11
2.69494
21
0.864886
0
LINE
8
BLACK
6
CONTINUOUS
10
2.69494
20
0.864886
11
2.70082
21
0.864886
0
LINE
8
BLACK
6
CONTINUOUS
10
2.70082
20
0.864886
11
2.70082
21
0.869425
0
LINE
8
BLACK
6
CONTINUOUS
10
2.70082
20
0.869425
11
2.70029
21
0.870504
0
LINE
8
BLACK
6
CONTINUOUS
10
2.70029
20
0.870504
11
2.69981
21
0.870983
0
LINE
8
BLACK
6
CONTINUOUS
10
2.69981
20
0.870983
11
2.69873
21
0.871522
0
LINE
8
BLACK
6
CONTINUOUS
10
2.69873
20
0.871522
11
2.69704
21
0.871522
0
LINE
8
BLACK
6
CONTINUOUS
10
2.69557
20
0.89925
11
2.69591
21
0.899183
0
LINE
8
BLACK
6
CONTINUOUS
10
2.69591
20
0.899183
11
2.69598
21
0.899082
0
LINE
8
BLACK
6
CONTINUOUS
10
2.69598
20
0.899082
11
2.69609
21
0.899035
0
LINE
8
BLACK
6
CONTINUOUS
10
2.69609
20
0.899035
11
2.69622
21
0.898718
0
LINE
8
BLACK
6
CONTINUOUS
10
2.69622
20
0.898718
11
2.69641
21
0.898432
0
LINE
8
BLACK
6
CONTINUOUS
10
2.69641
20
0.898432
11
2.69772
21
0.891882
0
LINE
8
BLACK
6
CONTINUOUS
10
2.69772
20
0.891882
11
2.69948
21
0.891882
0
LINE
8
BLACK
6
CONTINUOUS
10
2.69948
20
0.891882
11
2.70038
21
0.892331
0
LINE
8
BLACK
6
CONTINUOUS
10
2.70038
20
0.892331
11
2.70082
21
0.89323
0
LINE
8
BLACK
6
CONTINUOUS
10
2.70082
20
0.89323
11
2.70082
21
0.895672
0
LINE
8
BLACK
6
CONTINUOUS
10
2.70082
20
0.895672
11
2.7002
21
0.896922
0
LINE
8
BLACK
6
CONTINUOUS
10
2.7002
20
0.896922
11
2.70014
21
0.897824
0
LINE
8
BLACK
6
CONTINUOUS
10
2.70014
20
0.897824
11
2.70073
21
0.898507
0
LINE
8
BLACK
6
CONTINUOUS
10
2.70073
20
0.898507
11
2.70163
21
0.898571
0
LINE
8
BLACK
6
CONTINUOUS
10
2.70163
20
0.898571
11
2.70231
21
0.897979
0
LINE
8
BLACK
6
CONTINUOUS
10
2.70231
20
0.897979
11
2.70306
21
0.896479
0
LINE
8
BLACK
6
CONTINUOUS
10
2.70306
20
0.896479
11
2.70308
21
0.896204
0
LINE
8
BLACK
6
CONTINUOUS
10
2.70308
20
0.896204
11
2.70319
21
0.89595
0
LINE
8
BLACK
6
CONTINUOUS
10
2.70319
20
0.89595
11
2.70319
21
0.892951
0
LINE
8
BLACK
6
CONTINUOUS
10
2.70319
20
0.892951
11
2.70308
21
0.892697
0
LINE
8
BLACK
6
CONTINUOUS
10
2.70308
20
0.892697
11
2.70306
21
0.892423
0
LINE
8
BLACK
6
CONTINUOUS
10
2.70306
20
0.892423
11
2.70231
21
0.890923
0
LINE
8
BLACK
6
CONTINUOUS
10
2.70231
20
0.890923
11
2.70203
21
0.890678
0
LINE
8
BLACK
6
CONTINUOUS
10
2.70203
20
0.890678
11
2.70178
21
0.890395
0
LINE
8
BLACK
6
CONTINUOUS
10
2.70178
20
0.890395
11
2.70028
21
0.889645
0
LINE
8
BLACK
6
CONTINUOUS
10
2.70028
20
0.889645
11
2.70001
21
0.889625
0
LINE
8
BLACK
6
CONTINUOUS
10
2.70001
20
0.889625
11
2.69976
21
0.88952
0
LINE
8
BLACK
6
CONTINUOUS
10
2.69976
20
0.88952
11
2.69376
21
0.88952
0
LINE
8
BLACK
6
CONTINUOUS
10
2.69376
20
0.88952
11
2.6935
21
0.889625
0
LINE
8
BLACK
6
CONTINUOUS
10
2.6935
20
0.889625
11
2.69323
21
0.889645
0
LINE
8
BLACK
6
CONTINUOUS
10
2.69323
20
0.889645
11
2.69173
21
0.890395
0
LINE
8
BLACK
6
CONTINUOUS
10
2.69173
20
0.890395
11
2.69148
21
0.890677
0
LINE
8
BLACK
6
CONTINUOUS
10
2.69148
20
0.890677
11
2.6912
21
0.890923
0
LINE
8
BLACK
6
CONTINUOUS
10
2.6912
20
0.890923
11
2.69045
21
0.892423
0
LINE
8
BLACK
6
CONTINUOUS
10
2.69045
20
0.892423
11
2.69043
21
0.892697
0
LINE
8
BLACK
6
CONTINUOUS
10
2.69043
20
0.892697
11
2.69033
21
0.892951
0
LINE
8
BLACK
6
CONTINUOUS
10
2.69033
20
0.892951
11
2.69033
21
0.89595
0
LINE
8
BLACK
6
CONTINUOUS
10
2.69033
20
0.89595
11
2.69043
21
0.896204
0
LINE
8
BLACK
6
CONTINUOUS
10
2.69043
20
0.896204
11
2.69045
21
0.896479
0
LINE
8
BLACK
6
CONTINUOUS
10
2.69045
20
0.896479
11
2.6912
21
0.897979
0
LINE
8
BLACK
6
CONTINUOUS
10
2.6912
20
0.897979
11
2.69148
21
0.898224
0
LINE
8
BLACK
6
CONTINUOUS
10
2.69148
20
0.898224
11
2.69173
21
0.898507
0
LINE
8
BLACK
6
CONTINUOUS
10
2.69173
20
0.898507
11
2.69323
21
0.899257
0
LINE
8
BLACK
6
CONTINUOUS
10
2.69323
20
0.899257
11
2.6935
21
0.899276
0
LINE
8
BLACK
6
CONTINUOUS
10
2.6935
20
0.899276
11
2.69376
21
0.899381
0
LINE
8
BLACK
6
CONTINUOUS
10
2.69376
20
0.899381
11
2.69526
21
0.899381
0
LINE
8
BLACK
6
CONTINUOUS
10
2.69526
20
0.899381
11
2.69557
21
0.89925
0
LINE
8
BLACK
6
CONTINUOUS
10
2.69404
20
0.897019
11
2.69314
21
0.89657
0
LINE
8
BLACK
6
CONTINUOUS
10
2.69314
20
0.89657
11
2.69269
21
0.895672
0
LINE
8
BLACK
6
CONTINUOUS
10
2.69269
20
0.895672
11
2.69269
21
0.89323
0
LINE
8
BLACK
6
CONTINUOUS
10
2.69269
20
0.89323
11
2.69314
21
0.892331
0
LINE
8
BLACK
6
CONTINUOUS
10
2.69314
20
0.892331
11
2.69404
21
0.891882
0
LINE
8
BLACK
6
CONTINUOUS
10
2.69404
20
0.891882
11
2.69532
21
0.891882
0
LINE
8
BLACK
6
CONTINUOUS
10
2.69532
20
0.891882
11
2.69429
21
0.897019
0
LINE
8
BLACK
6
CONTINUOUS
10
2.69429
20
0.897019
11
2.69404
21
0.897019
0
LINE
8
BLACK
6
CONTINUOUS
10
2.70284
20
0.912534
11
2.70319
21
0.911699
0
LINE
8
BLACK
6
CONTINUOUS
10
2.70319
20
0.911699
11
2.70291
21
0.911031
0
LINE
8
BLACK
6
CONTINUOUS
10
2.70291
20
0.911031
11
2.70306
21
0.910727
0
LINE
8
BLACK
6
CONTINUOUS
10
2.70306
20
0.910727
11
2.70308
21
0.910453
0
LINE
8
BLACK
6
CONTINUOUS
10
2.70308
20
0.910453
11
2.70319
21
0.910199
0
LINE
8
BLACK
6
CONTINUOUS
10
2.70319
20
0.910199
11
2.70319
21
0.907199
0
LINE
8
BLACK
6
CONTINUOUS
10
2.70319
20
0.907199
11
2.70308
21
0.906945
0
LINE
8
BLACK
6
CONTINUOUS
10
2.70308
20
0.906945
11
2.70306
21
0.906671
0
LINE
8
BLACK
6
CONTINUOUS
10
2.70306
20
0.906671
11
2.70231
21
0.905171
0
LINE
8
BLACK
6
CONTINUOUS
10
2.70231
20
0.905171
11
2.70217
21
0.905044
0
LINE
8
BLACK
6
CONTINUOUS
10
2.70217
20
0.905044
11
2.70209
21
0.904864
0
LINE
8
BLACK
6
CONTINUOUS
10
2.70209
20
0.904864
11
2.70134
21
0.904114
0
LINE
8
BLACK
6
CONTINUOUS
10
2.70134
20
0.904114
11
2.70116
21
0.90404
0
LINE
8
BLACK
6
CONTINUOUS
10
2.70116
20
0.90404
11
2.70103
21
0.903893
0
LINE
8
BLACK
6
CONTINUOUS
10
2.70103
20
0.903893
11
2.69953
21
0.903143
0
LINE
8
BLACK
6
CONTINUOUS
10
2.69953
20
0.903143
11
2.69926
21
0.903124
0
LINE
8
BLACK
6
CONTINUOUS
10
2.69926
20
0.903124
11
2.69901
21
0.903018
0
LINE
8
BLACK
6
CONTINUOUS
10
2.69901
20
0.903018
11
2.69451
21
0.903018
0
LINE
8
BLACK
6
CONTINUOUS
10
2.69451
20
0.903018
11
2.69425
21
0.903124
0
LINE
8
BLACK
6
CONTINUOUS
10
2.69425
20
0.903124
11
2.69398
21
0.903143
0
LINE
8
BLACK
6
CONTINUOUS
10
2.69398
20
0.903143
11
2.69248
21
0.903893
0
LINE
8
BLACK
6
CONTINUOUS
10
2.69248
20
0.903893
11
2.69235
21
0.90404
0
LINE
8
BLACK
6
CONTINUOUS
10
2.69235
20
0.90404
11
2.69217
21
0.904114
0
LINE
8
BLACK
6
CONTINUOUS
10
2.69217
20
0.904114
11
2.69142
21
0.904864
0
LINE
8
BLACK
6
CONTINUOUS
10
2.69142
20
0.904864
11
2.69135
21
0.905044
0
LINE
8
BLACK
6
CONTINUOUS
10
2.69135
20
0.905044
11
2.6912
21
0.905171
0
LINE
8
BLACK
6
CONTINUOUS
10
2.6912
20
0.905171
11
2.69045
21
0.906671
0
LINE
8
BLACK
6
CONTINUOUS
10
2.69045
20
0.906671
11
2.69043
21
0.906945
0
LINE
8
BLACK
6
CONTINUOUS
10
2.69043
20
0.906945
11
2.69033
21
0.907199
0
LINE
8
BLACK
6
CONTINUOUS
10
2.69033
20
0.907199
11
2.69033
21
0.910199
0
LINE
8
BLACK
6
CONTINUOUS
10
2.69033
20
0.910199
11
2.69043
21
0.910453
0
LINE
8
BLACK
6
CONTINUOUS
10
2.69043
20
0.910453
11
2.69044
21
0.910517
0
LINE
8
BLACK
6
CONTINUOUS
10
2.69044
20
0.910517
11
2.68626
21
0.910517
0
LINE
8
BLACK
6
CONTINUOUS
10
2.68626
20
0.910517
11
2.68542
21
0.910863
0
LINE
8
BLACK
6
CONTINUOUS
10
2.68542
20
0.910863
11
2.68508
21
0.911699
0
LINE
8
BLACK
6
CONTINUOUS
10
2.68508
20
0.911699
11
2.68542
21
0.912534
0
LINE
8
BLACK
6
CONTINUOUS
10
2.68542
20
0.912534
11
2.68626
21
0.91288
0
LINE
8
BLACK
6
CONTINUOUS
10
2.68626
20
0.91288
11
2.70201
21
0.91288
0
LINE
8
BLACK
6
CONTINUOUS
10
2.70201
20
0.91288
11
2.70284
21
0.912534
0
LINE
8
BLACK
6
CONTINUOUS
10
2.69299
20
0.910517
11
2.69269
21
0.90992
0
LINE
8
BLACK
6
CONTINUOUS
10
2.69269
20
0.90992
11
2.69269
21
0.907478
0
LINE
8
BLACK
6
CONTINUOUS
10
2.69269
20
0.907478
11
2.69323
21
0.906399
0
LINE
8
BLACK
6
CONTINUOUS
10
2.69323
20
0.906399
11
2.69371
21
0.90592
0
LINE
8
BLACK
6
CONTINUOUS
10
2.69371
20
0.90592
11
2.69479
21
0.905381
0
LINE
8
BLACK
6
CONTINUOUS
10
2.69479
20
0.905381
11
2.69873
21
0.905381
0
LINE
8
BLACK
6
CONTINUOUS
10
2.69873
20
0.905381
11
2.69981
21
0.90592
0
LINE
8
BLACK
6
CONTINUOUS
10
2.69981
20
0.90592
11
2.70029
21
0.906399
0
LINE
8
BLACK
6
CONTINUOUS
10
2.70029
20
0.906399
11
2.70082
21
0.907478
0
LINE
8
BLACK
6
CONTINUOUS
10
2.70082
20
0.907478
11
2.70082
21
0.90992
0
LINE
8
BLACK
6
CONTINUOUS
10
2.70082
20
0.90992
11
2.70053
21
0.910517
0
LINE
8
BLACK
6
CONTINUOUS
10
2.70053
20
0.910517
11
2.69299
21
0.910517
0
LINE
8
BLACK
6
CONTINUOUS
10
2.70451
20
0.927023
11
2.70478
21
0.927003
0
LINE
8
BLACK
6
CONTINUOUS
10
2.70478
20
0.927003
11
2.70628
21
0.926253
0
LINE
8
BLACK
6
CONTINUOUS
10
2.70628
20
0.926253
11
2.70641
21
0.926106
0
LINE
8
BLACK
6
CONTINUOUS
10
2.70641
20
0.926106
11
2.70659
21
0.926032
0
LINE
8
BLACK
6
CONTINUOUS
10
2.70659
20
0.926032
11
2.70734
21
0.925282
0
LINE
8
BLACK
6
CONTINUOUS
10
2.70734
20
0.925282
11
2.70742
21
0.925102
0
LINE
8
BLACK
6
CONTINUOUS
10
2.70742
20
0.925102
11
2.70756
21
0.924975
0
LINE
8
BLACK
6
CONTINUOUS
10
2.70756
20
0.924975
11
2.70831
21
0.923475
0
LINE
8
BLACK
6
CONTINUOUS
10
2.70831
20
0.923475
11
2.70833
21
0.923201
0
LINE
8
BLACK
6
CONTINUOUS
10
2.70833
20
0.923201
11
2.70844
21
0.922947
0
LINE
8
BLACK
6
CONTINUOUS
10
2.70844
20
0.922947
11
2.70844
21
0.920697
0
LINE
8
BLACK
6
CONTINUOUS
10
2.70844
20
0.920697
11
2.70833
21
0.920443
0
LINE
8
BLACK
6
CONTINUOUS
10
2.70833
20
0.920443
11
2.70831
21
0.920169
0
LINE
8
BLACK
6
CONTINUOUS
10
2.70831
20
0.920169
11
2.70756
21
0.918669
0
LINE
8
BLACK
6
CONTINUOUS
10
2.70756
20
0.918669
11
2.70688
21
0.918077
0
LINE
8
BLACK
6
CONTINUOUS
10
2.70688
20
0.918077
11
2.70598
21
0.918141
0
LINE
8
BLACK
6
CONTINUOUS
10
2.70598
20
0.918141
11
2.70538
21
0.918824
0
LINE
8
BLACK
6
CONTINUOUS
10
2.70538
20
0.918824
11
2.70545
21
0.919726
0
LINE
8
BLACK
6
CONTINUOUS
10
2.70545
20
0.919726
11
2.70607
21
0.920976
0
LINE
8
BLACK
6
CONTINUOUS
10
2.70607
20
0.920976
11
2.70607
21
0.922668
0
LINE
8
BLACK
6
CONTINUOUS
10
2.70607
20
0.922668
11
2.70553
21
0.923747
0
LINE
8
BLACK
6
CONTINUOUS
10
2.70553
20
0.923747
11
2.70506
21
0.924226
0
LINE
8
BLACK
6
CONTINUOUS
10
2.70506
20
0.924226
11
2.70398
21
0.924766
0
LINE
8
BLACK
6
CONTINUOUS
10
2.70398
20
0.924766
11
2.70308
21
0.924766
0
LINE
8
BLACK
6
CONTINUOUS
10
2.70308
20
0.924766
11
2.70308
21
0.924701
0
LINE
8
BLACK
6
CONTINUOUS
10
2.70308
20
0.924701
11
2.70319
21
0.924447
0
LINE
8
BLACK
6
CONTINUOUS
10
2.70319
20
0.924447
11
2.70319
21
0.921447
0
LINE
8
BLACK
6
CONTINUOUS
10
2.70319
20
0.921447
11
2.70308
21
0.921193
0
LINE
8
BLACK
6
CONTINUOUS
10
2.70308
20
0.921193
11
2.70306
21
0.920919
0
LINE
8
BLACK
6
CONTINUOUS
10
2.70306
20
0.920919
11
2.70231
21
0.919419
0
LINE
8
BLACK
6
CONTINUOUS
10
2.70231
20
0.919419
11
2.70217
21
0.919292
0
LINE
8
BLACK
6
CONTINUOUS
10
2.70217
20
0.919292
11
2.70209
21
0.919112
0
LINE
8
BLACK
6
CONTINUOUS
10
2.70209
20
0.919112
11
2.70134
21
0.918362
0
LINE
8
BLACK
6
CONTINUOUS
10
2.70134
20
0.918362
11
2.70116
21
0.918288
0
LINE
8
BLACK
6
CONTINUOUS
10
2.70116
20
0.918288
11
2.70103
21
0.918141
0
LINE
8
BLACK
6
CONTINUOUS
10
2.70103
20
0.918141
11
2.69953
21
0.917391
0
LINE
8
BLACK
6
CONTINUOUS
10
2.69953
20
0.917391
11
2.69926
21
0.917372
0
LINE
8
BLACK
6
CONTINUOUS
10
2.69926
20
0.917372
11
2.69901
21
0.917267
0
LINE
8
BLACK
6
CONTINUOUS
10
2.69901
20
0.917267
11
2.69451
21
0.917267
0
LINE
8
BLACK
6
CONTINUOUS
10
2.69451
20
0.917267
11
2.69425
21
0.917372
0
LINE
8
BLACK
6
CONTINUOUS
10
2.69425
20
0.917372
11
2.69398
21
0.917391
0
LINE
8
BLACK
6
CONTINUOUS
10
2.69398
20
0.917391
11
2.69248
21
0.918141
0
LINE
8
BLACK
6
CONTINUOUS
10
2.69248
20
0.918141
11
2.69235
21
0.918288
0
LINE
8
BLACK
6
CONTINUOUS
10
2.69235
20
0.918288
11
2.69217
21
0.918362
0
LINE
8
BLACK
6
CONTINUOUS
10
2.69217
20
0.918362
11
2.69142
21
0.919112
0
LINE
8
BLACK
6
CONTINUOUS
10
2.69142
20
0.919112
11
2.69135
21
0.919292
0
LINE
8
BLACK
6
CONTINUOUS
10
2.69135
20
0.919292
11
2.6912
21
0.919419
0
LINE
8
BLACK
6
CONTINUOUS
10
2.6912
20
0.919419
11
2.69045
21
0.920919
0
LINE
8
BLACK
6
CONTINUOUS
10
2.69045
20
0.920919
11
2.69043
21
0.921193
0
LINE
8
BLACK
6
CONTINUOUS
10
2.69043
20
0.921193
11
2.69033
21
0.921447
0
LINE
8
BLACK
6
CONTINUOUS
10
2.69033
20
0.921447
11
2.69033
21
0.924447
0
LINE
8
BLACK
6
CONTINUOUS
10
2.69033
20
0.924447
11
2.69043
21
0.924701
0
LINE
8
BLACK
6
CONTINUOUS
10
2.69043
20
0.924701
11
2.69045
21
0.924975
0
LINE
8
BLACK
6
CONTINUOUS
10
2.69045
20
0.924975
11
2.6906
21
0.925279
0
LINE
8
BLACK
6
CONTINUOUS
10
2.6906
20
0.925279
11
2.69033
21
0.925947
0
LINE
8
BLACK
6
CONTINUOUS
10
2.69033
20
0.925947
11
2.69067
21
0.926782
0
LINE
8
BLACK
6
CONTINUOUS
10
2.69067
20
0.926782
11
2.69151
21
0.927128
0
LINE
8
BLACK
6
CONTINUOUS
10
2.69151
20
0.927128
11
2.70426
21
0.927128
0
LINE
8
BLACK
6
CONTINUOUS
10
2.70426
20
0.927128
11
2.70451
21
0.927023
0
LINE
8
BLACK
6
CONTINUOUS
10
2.69299
20
0.924766
11
2.69269
21
0.924168
0
LINE
8
BLACK
6
CONTINUOUS
10
2.69269
20
0.924168
11
2.69269
21
0.921726
0
LINE
8
BLACK
6
CONTINUOUS
10
2.69269
20
0.921726
11
2.69323
21
0.920647
0
LINE
8
BLACK
6
CONTINUOUS
10
2.69323
20
0.920647
11
2.69371
21
0.920168
0
LINE
8
BLACK
6
CONTINUOUS
10
2.69371
20
0.920168
11
2.69479
21
0.919629
0
LINE
8
BLACK
6
CONTINUOUS
10
2.69479
20
0.919629
11
2.69873
21
0.919629
0
LINE
8
BLACK
6
CONTINUOUS
10
2.69873
20
0.919629
11
2.69981
21
0.920168
0
LINE
8
BLACK
6
CONTINUOUS
10
2.69981
20
0.920168
11
2.70029
21
0.920647
0
LINE
8
BLACK
6
CONTINUOUS
10
2.70029
20
0.920647
11
2.70082
21
0.921726
0
LINE
8
BLACK
6
CONTINUOUS
10
2.70082
20
0.921726
11
2.70082
21
0.924168
0
LINE
8
BLACK
6
CONTINUOUS
10
2.70082
20
0.924168
11
2.70053
21
0.924766
0
LINE
8
BLACK
6
CONTINUOUS
10
2.70053
20
0.924766
11
2.69299
21
0.924766
0
LINE
8
BLACK
6
CONTINUOUS
10
2.69557
20
0.941244
11
2.69591
21
0.941178
0
LINE
8
BLACK
6
CONTINUOUS
10
2.69591
20
0.941178
11
2.69598
21
0.941077
0
LINE
8
BLACK
6
CONTINUOUS
10
2.69598
20
0.941077
11
2.69609
21
0.94103
0
LINE
8
BLACK
6
CONTINUOUS
10
2.69609
20
0.94103
11
2.69622
21
0.940712
0
LINE
8
BLACK
6
CONTINUOUS
10
2.69622
20
0.940712
11
2.69641
21
0.940427
0
LINE
8
BLACK
6
CONTINUOUS
10
2.69641
20
0.940427
11
2.69772
21
0.933877
0
LINE
8
BLACK
6
CONTINUOUS
10
2.69772
20
0.933877
11
2.69948
21
0.933877
0
LINE
8
BLACK
6
CONTINUOUS
10
2.69948
20
0.933877
11
2.70038
21
0.934326
0
LINE
8
BLACK
6
CONTINUOUS
10
2.70038
20
0.934326
11
2.70082
21
0.935224
0
LINE
8
BLACK
6
CONTINUOUS
10
2.70082
20
0.935224
11
2.70082
21
0.937666
0
LINE
8
BLACK
6
CONTINUOUS
10
2.70082
20
0.937666
11
2.7002
21
0.938917
0
LINE
8
BLACK
6
CONTINUOUS
10
2.7002
20
0.938917
11
2.70014
21
0.939819
0
LINE
8
BLACK
6
CONTINUOUS
10
2.70014
20
0.939819
11
2.70073
21
0.940501
0
LINE
8
BLACK
6
CONTINUOUS
10
2.70073
20
0.940501
11
2.70163
21
0.940566
0
LINE
8
BLACK
6
CONTINUOUS
10
2.70163
20
0.940566
11
2.70231
21
0.939973
0
LINE
8
BLACK
6
CONTINUOUS
10
2.70231
20
0.939973
11
2.70306
21
0.938473
0
LINE
8
BLACK
6
CONTINUOUS
10
2.70306
20
0.938473
11
2.70308
21
0.938199
0
LINE
8
BLACK
6
CONTINUOUS
10
2.70308
20
0.938199
11
2.70319
21
0.937945
0
LINE
8
BLACK
6
CONTINUOUS
10
2.70319
20
0.937945
11
2.70319
21
0.934946
0
LINE
8
BLACK
6
CONTINUOUS
10
2.70319
20
0.934946
11
2.70308
21
0.934692
0
LINE
8
BLACK
6
CONTINUOUS
10
2.70308
20
0.934692
11
2.70306
21
0.934417
0
LINE
8
BLACK
6
CONTINUOUS
10
2.70306
20
0.934417
11
2.70231
21
0.932918
0
LINE
8
BLACK
6
CONTINUOUS
10
2.70231
20
0.932918
11
2.70203
21
0.932672
0
LINE
8
BLACK
6
CONTINUOUS
10
2.70203
20
0.932672
11
2.70178
21
0.932389
0
LINE
8
BLACK
6
CONTINUOUS
10
2.70178
20
0.932389
11
2.70028
21
0.931639
0
LINE
8
BLACK
6
CONTINUOUS
10
2.70028
20
0.931639
11
2.70001
21
0.93162
0
LINE
8
BLACK
6
CONTINUOUS
10
2.70001
20
0.93162
11
2.69976
21
0.931515
0
LINE
8
BLACK
6
CONTINUOUS
10
2.69976
20
0.931515
11
2.69376
21
0.931515
0
LINE
8
BLACK
6
CONTINUOUS
10
2.69376
20
0.931515
11
2.6935
21
0.93162
0
LINE
8
BLACK
6
CONTINUOUS
10
2.6935
20
0.93162
11
2.69323
21
0.931639
0
LINE
8
BLACK
6
CONTINUOUS
10
2.69323
20
0.931639
11
2.69173
21
0.932389
0
LINE
8
BLACK
6
CONTINUOUS
10
2.69173
20
0.932389
11
2.69148
21
0.932672
0
LINE
8
BLACK
6
CONTINUOUS
10
2.69148
20
0.932672
11
2.6912
21
0.932918
0
LINE
8
BLACK
6
CONTINUOUS
10
2.6912
20
0.932918
11
2.69045
21
0.934417
0
LINE
8
BLACK
6
CONTINUOUS
10
2.69045
20
0.934417
11
2.69043
21
0.934692
0
LINE
8
BLACK
6
CONTINUOUS
10
2.69043
20
0.934692
11
2.69033
21
0.934946
0
LINE
8
BLACK
6
CONTINUOUS
10
2.69033
20
0.934946
11
2.69033
21
0.937945
0
LINE
8
BLACK
6
CONTINUOUS
10
2.69033
20
0.937945
11
2.69043
21
0.938199
0
LINE
8
BLACK
6
CONTINUOUS
10
2.69043
20
0.938199
11
2.69045
21
0.938473
0
LINE
8
BLACK
6
CONTINUOUS
10
2.69045
20
0.938473
11
2.6912
21
0.939973
0
LINE
8
BLACK
6
CONTINUOUS
10
2.6912
20
0.939973
11
2.69148
21
0.940219
0
LINE
8
BLACK
6
CONTINUOUS
10
2.69148
20
0.940219
11
2.69173
21
0.940501
0
LINE
8
BLACK
6
CONTINUOUS
10
2.69173
20
0.940501
11
2.69323
21
0.941251
0
LINE
8
BLACK
6
CONTINUOUS
10
2.69323
20
0.941251
11
2.6935
21
0.941271
0
LINE
8
BLACK
6
CONTINUOUS
10
2.6935
20
0.941271
11
2.69376
21
0.941376
0
LINE
8
BLACK
6
CONTINUOUS
10
2.69376
20
0.941376
11
2.69526
21
0.941376
0
LINE
8
BLACK
6
CONTINUOUS
10
2.69526
20
0.941376
11
2.69557
21
0.941244
0
LINE
8
BLACK
6
CONTINUOUS
10
2.69404
20
0.939014
11
2.69314
21
0.938565
0
LINE
8
BLACK
6
CONTINUOUS
10
2.69314
20
0.938565
11
2.69269
21
0.937666
0
LINE
8
BLACK
6
CONTINUOUS
10
2.69269
20
0.937666
11
2.69269
21
0.935224
0
LINE
8
BLACK
6
CONTINUOUS
10
2.69269
20
0.935224
11
2.69314
21
0.934326
0
LINE
8
BLACK
6
CONTINUOUS
10
2.69314
20
0.934326
11
2.69404
21
0.933877
0
LINE
8
BLACK
6
CONTINUOUS
10
2.69404
20
0.933877
11
2.69532
21
0.933877
0
LINE
8
BLACK
6
CONTINUOUS
10
2.69532
20
0.933877
11
2.69429
21
0.939014
0
LINE
8
BLACK
6
CONTINUOUS
10
2.69429
20
0.939014
11
2.69404
21
0.939014
  0
ENDSEC
  0
EOF
