  0
SECTION
  2
HEADER
  9
$ANGBASE
  50
0.0
  9
$ANGDIR
  70
1
  9
$MEASUREMENT
  70
0
  0
ENDSEC
  0
SECTION
  2
TABLES
  0
TABLE
  2
LTYPE
  70
4
  0
LTYPE
  5
40F
  2
CONTINUOUS
  70
0
  3
Solid line
  72
65
  73
0
  40
0.0
  0
LTYPE
  5
410
  2
DASHDOT
 70
0
  3
Dash Dot ____ _ ____ _
 72
65
 73
4
 40
2.0
 49
1.25
 49
-0.25
 49
0.25
 49
-0.25
  0
LTYPE
  5
411
  2
DASHED
 70
0
  3
Dashed __ __ __ __ __
 72
65
 73
2
 40
0.75
 49
0.5
 49
-0.25
  0
LTYPE
  5
43B
  2
DOTTED
 70
0
  3
Dotted .  .  .  .
 72
65
 73
2
 40
0.2
 49
0.0
 49
-0.2
  0
ENDTAB
  0
TABLE
  2
STYLE
  70
4
  0
STYLE
  2
KICAD
  70
0
  40
0
  41
1
  42
1
  50
0
  71
0
  3
isocp.shx
  0
STYLE
  2
KICADB
  70
0
  40
0
  41
1
  42
1
  50
0
  71
0
  3
isocp.shx
  0
STYLE
  2
KICADI
  70
0
  40
0
  41
1
  42
1
  50
15
  71
0
  3
isocp.shx
  0
STYLE
  2
KICADBI
  70
0
  40
0
  41
1
  42
1
  50
15
  71
0
  3
isocp.shx
  0
ENDTAB
  0
TABLE
  2
LAYER
  70
1
  0
LAYER
  2
BLACK
  70
0
  62
7
  6
CONTINUOUS
  0
ENDTAB
  0
ENDSEC
  0
SECTION
  2
ENTITIES
0
LINE
8
BLACK
6
CONTINUOUS
10
5.1926601181102363
20
-3.5991300393700785
11
5.1931927952755901
21
-3.5996627165354331
0
LINE
8
BLACK
6
CONTINUOUS
10
5.1931927952755901
20
-3.5996627165354331
11
5.1932677165354333
21
-3.6000393700787399
0
LINE
8
BLACK
6
CONTINUOUS
10
5.1932677165354333
20
-3.6000393700787399
11
5.1932677165354333
21
-4.0709055118110236
0
LINE
8
BLACK
6
CONTINUOUS
10
5.1932677165354333
20
-4.0709055118110236
11
5.1931927952755901
21
-4.0712821653543303
0
LINE
8
BLACK
6
CONTINUOUS
10
5.1931927952755901
20
-4.0712821653543303
11
5.1926601181102363
21
-4.071814842519685
0
LINE
8
BLACK
6
CONTINUOUS
10
5.1926601181102363
20
-4.071814842519685
11
5.1922834645669287
21
-4.0718897637795273
0
LINE
8
BLACK
6
CONTINUOUS
10
5.1922834645669287
20
-4.0718897637795273
11
4.9403149606299213
21
-4.0718897637795273
0
LINE
8
BLACK
6
CONTINUOUS
10
4.9403149606299213
20
-4.0718897637795273
11
4.9399383070866136
21
-4.071814842519685
0
LINE
8
BLACK
6
CONTINUOUS
10
4.9399383070866136
20
-4.071814842519685
11
4.9394056299212599
21
-4.0712821653543303
0
LINE
8
BLACK
6
CONTINUOUS
10
4.9394056299212599
20
-4.0712821653543303
11
4.9393307086614175
21
-4.0709055118110236
0
LINE
8
BLACK
6
CONTINUOUS
10
4.9393307086614175
20
-4.0709055118110236
11
4.9393307086614175
21
-3.6000393700787399
0
LINE
8
BLACK
6
CONTINUOUS
10
4.9393307086614175
20
-3.6000393700787399
11
4.9394056299212599
21
-3.5996627165354331
0
LINE
8
BLACK
6
CONTINUOUS
10
4.9394056299212599
20
-3.5996627165354331
11
4.9399383070866136
21
-3.5991300393700785
0
LINE
8
BLACK
6
CONTINUOUS
10
4.9399383070866136
20
-3.5991300393700785
11
4.9403149606299213
21
-3.5990551181102362
0
LINE
8
BLACK
6
CONTINUOUS
10
4.9403149606299213
20
-3.5990551181102362
11
5.1922834645669287
21
-3.5990551181102362
0
LINE
8
BLACK
6
CONTINUOUS
10
5.1922834645669287
20
-3.5990551181102362
11
5.1926601181102363
21
-3.5991300393700785
0
LINE
8
BLACK
6
CONTINUOUS
10
4.941299212598425
20
-3.601023622047244
11
4.941299212598425
21
-4.0699212598425198
0
LINE
8
BLACK
6
CONTINUOUS
10
4.941299212598425
20
-4.0699212598425198
11
5.191299212598425
21
-4.0699212598425198
0
LINE
8
BLACK
6
CONTINUOUS
10
5.191299212598425
20
-4.0699212598425198
11
5.191299212598425
21
-3.601023622047244
0
LINE
8
BLACK
6
CONTINUOUS
10
5.191299212598425
20
-3.601023622047244
11
4.941299212598425
21
-3.601023622047244
0
LINE
8
BLACK
6
CONTINUOUS
10
5.3416049999999995
20
-3.978256023622047
11
5.3421376771653541
21
-3.9787887007874017
0
LINE
8
BLACK
6
CONTINUOUS
10
5.3421376771653541
20
-3.9787887007874017
11
5.3422125984251965
21
-3.9791653543307084
0
LINE
8
BLACK
6
CONTINUOUS
10
5.3422125984251965
20
-3.9791653543307084
11
5.3422125984251965
21
-4.0563307086614175
0
LINE
8
BLACK
6
CONTINUOUS
10
5.3422125984251965
20
-4.0563307086614175
11
5.3421376771653541
21
-4.0567073622047243
0
LINE
8
BLACK
6
CONTINUOUS
10
5.3421376771653541
20
-4.0567073622047243
11
5.3416049999999995
21
-4.0572400393700789
0
LINE
8
BLACK
6
CONTINUOUS
10
5.3416049999999995
20
-4.0572400393700789
11
5.3412283464566928
21
-4.0573149606299213
0
LINE
8
BLACK
6
CONTINUOUS
10
5.3412283464566928
20
-4.0573149606299213
11
5.2073700787401576
21
-4.0573149606299213
0
LINE
8
BLACK
6
CONTINUOUS
10
5.2073700787401576
20
-4.0573149606299213
11
5.2069934251968499
21
-4.0572400393700789
0
LINE
8
BLACK
6
CONTINUOUS
10
5.2069934251968499
20
-4.0572400393700789
11
5.2064607480314962
21
-4.0567073622047243
0
LINE
8
BLACK
6
CONTINUOUS
10
5.2064607480314962
20
-4.0567073622047243
11
5.2063858267716538
21
-4.0563307086614175
0
LINE
8
BLACK
6
CONTINUOUS
10
5.2063858267716538
20
-4.0563307086614175
11
5.2063858267716538
21
-3.9791653543307084
0
LINE
8
BLACK
6
CONTINUOUS
10
5.2063858267716538
20
-3.9791653543307084
11
5.2064607480314962
21
-3.9787887007874017
0
LINE
8
BLACK
6
CONTINUOUS
10
5.2064607480314962
20
-3.9787887007874017
11
5.2069934251968499
21
-3.978256023622047
0
LINE
8
BLACK
6
CONTINUOUS
10
5.2069934251968499
20
-3.978256023622047
11
5.2073700787401576
21
-3.9781811023622047
0
LINE
8
BLACK
6
CONTINUOUS
10
5.2073700787401576
20
-3.9781811023622047
11
5.3412283464566928
21
-3.9781811023622047
0
LINE
8
BLACK
6
CONTINUOUS
10
5.3412283464566928
20
-3.9781811023622047
11
5.3416049999999995
21
-3.978256023622047
0
LINE
8
BLACK
6
CONTINUOUS
10
5.2083543307086613
20
-3.9801496062992126
11
5.2083543307086613
21
-4.0553464566929129
0
LINE
8
BLACK
6
CONTINUOUS
10
5.2083543307086613
20
-4.0553464566929129
11
5.340244094488189
21
-4.0553464566929129
0
LINE
8
BLACK
6
CONTINUOUS
10
5.340244094488189
20
-4.0553464566929129
11
5.340244094488189
21
-3.9801496062992126
0
LINE
8
BLACK
6
CONTINUOUS
10
5.340244094488189
20
-3.9801496062992126
11
5.2083543307086613
21
-3.9801496062992126
0
LINE
8
BLACK
6
CONTINUOUS
10
6.9146679921259837
20
-3.6745631102362202
11
6.9152006692913384
21
-3.6750957874015748
0
LINE
8
BLACK
6
CONTINUOUS
10
6.9152006692913384
20
-3.6750957874015748
11
6.9152755905511807
21
-3.675472440944882
0
LINE
8
BLACK
6
CONTINUOUS
10
6.9152755905511807
20
-3.675472440944882
11
6.9152755905511807
21
-3.9954724409448819
0
LINE
8
BLACK
6
CONTINUOUS
10
6.9152755905511807
20
-3.9954724409448819
11
6.9152006692913384
21
-3.995849094488189
0
LINE
8
BLACK
6
CONTINUOUS
10
6.9152006692913384
20
-3.995849094488189
11
6.9146679921259837
21
-3.9963817716535432
0
LINE
8
BLACK
6
CONTINUOUS
10
6.9146679921259837
20
-3.9963817716535432
11
6.914291338582677
21
-3.9964566929133856
0
LINE
8
BLACK
6
CONTINUOUS
10
6.914291338582677
20
-3.9964566929133856
11
6.494291338582677
21
-3.9964566929133856
0
LINE
8
BLACK
6
CONTINUOUS
10
6.494291338582677
20
-3.9964566929133856
11
6.4939146850393703
21
-3.9963817716535432
0
LINE
8
BLACK
6
CONTINUOUS
10
6.4939146850393703
20
-3.9963817716535432
11
6.4933820078740156
21
-3.995849094488189
0
LINE
8
BLACK
6
CONTINUOUS
10
6.4933820078740156
20
-3.995849094488189
11
6.4933070866141733
21
-3.9954724409448819
0
LINE
8
BLACK
6
CONTINUOUS
10
6.4933070866141733
20
-3.9954724409448819
11
6.4933070866141733
21
-3.675472440944882
0
LINE
8
BLACK
6
CONTINUOUS
10
6.4933070866141733
20
-3.675472440944882
11
6.4933820078740156
21
-3.6750957874015748
0
LINE
8
BLACK
6
CONTINUOUS
10
6.4933820078740156
20
-3.6750957874015748
11
6.4939146850393703
21
-3.6745631102362202
0
LINE
8
BLACK
6
CONTINUOUS
10
6.4939146850393703
20
-3.6745631102362202
11
6.494291338582677
21
-3.6744881889763779
0
LINE
8
BLACK
6
CONTINUOUS
10
6.494291338582677
20
-3.6744881889763779
11
6.914291338582677
21
-3.6744881889763779
0
LINE
8
BLACK
6
CONTINUOUS
10
6.914291338582677
20
-3.6744881889763779
11
6.9146679921259837
21
-3.6745631102362202
0
LINE
8
BLACK
6
CONTINUOUS
10
6.4952755905511808
20
-3.6764566929133857
11
6.4952755905511808
21
-3.9944881889763777
0
LINE
8
BLACK
6
CONTINUOUS
10
6.4952755905511808
20
-3.9944881889763777
11
6.9133070866141733
21
-3.9944881889763777
0
LINE
8
BLACK
6
CONTINUOUS
10
6.9133070866141733
20
-3.9944881889763777
11
6.9133070866141733
21
-3.6764566929133857
0
LINE
8
BLACK
6
CONTINUOUS
10
6.9133070866141733
20
-3.6764566929133857
11
6.4952755905511808
21
-3.6764566929133857
0
LINE
8
BLACK
6
CONTINUOUS
10
6.0154160236220475
20
-3.8570827952755904
11
6.0159487007874013
21
-3.8576154724409446
0
LINE
8
BLACK
6
CONTINUOUS
10
6.0159487007874013
20
-3.8576154724409446
11
6.0160236220472436
21
-3.8579921259842518
0
LINE
8
BLACK
6
CONTINUOUS
10
6.0160236220472436
20
-3.8579921259842518
11
6.0160236220472436
21
-3.9745275590551179
0
LINE
8
BLACK
6
CONTINUOUS
10
6.0160236220472436
20
-3.9745275590551179
11
6.0159487007874013
21
-3.9749042125984251
0
LINE
8
BLACK
6
CONTINUOUS
10
6.0159487007874013
20
-3.9749042125984251
11
6.0154160236220475
21
-3.9754368897637793
0
LINE
8
BLACK
6
CONTINUOUS
10
6.0154160236220475
20
-3.9754368897637793
11
6.0150393700787399
21
-3.9755118110236221
0
LINE
8
BLACK
6
CONTINUOUS
10
6.0150393700787399
20
-3.9755118110236221
11
5.9575590551181099
21
-3.9755118110236221
0
LINE
8
BLACK
6
CONTINUOUS
10
5.9575590551181099
20
-3.9755118110236221
11
5.9571824015748032
21
-3.9754368897637793
0
LINE
8
BLACK
6
CONTINUOUS
10
5.9571824015748032
20
-3.9754368897637793
11
5.9566497244094485
21
-3.9749042125984251
0
LINE
8
BLACK
6
CONTINUOUS
10
5.9566497244094485
20
-3.9749042125984251
11
5.9565748031496062
21
-3.9745275590551179
0
LINE
8
BLACK
6
CONTINUOUS
10
5.9565748031496062
20
-3.9745275590551179
11
5.9565748031496062
21
-3.8579921259842518
0
LINE
8
BLACK
6
CONTINUOUS
10
5.9565748031496062
20
-3.8579921259842518
11
5.9566497244094485
21
-3.8576154724409446
0
LINE
8
BLACK
6
CONTINUOUS
10
5.9566497244094485
20
-3.8576154724409446
11
5.9571824015748032
21
-3.8570827952755904
0
LINE
8
BLACK
6
CONTINUOUS
10
5.9571824015748032
20
-3.8570827952755904
11
5.9575590551181099
21
-3.8570078740157481
0
LINE
8
BLACK
6
CONTINUOUS
10
5.9575590551181099
20
-3.8570078740157481
11
6.0150393700787399
21
-3.8570078740157481
0
LINE
8
BLACK
6
CONTINUOUS
10
6.0150393700787399
20
-3.8570078740157481
11
6.0154160236220475
21
-3.8570827952755904
0
LINE
8
BLACK
6
CONTINUOUS
10
5.9585433070866136
20
-3.8589763779527559
11
5.9585433070866136
21
-3.9735433070866142
0
LINE
8
BLACK
6
CONTINUOUS
10
5.9585433070866136
20
-3.9735433070866142
11
6.0140551181102362
21
-3.9735433070866142
0
LINE
8
BLACK
6
CONTINUOUS
10
6.0140551181102362
20
-3.9735433070866142
11
6.0140551181102362
21
-3.8589763779527559
0
LINE
8
BLACK
6
CONTINUOUS
10
6.0140551181102362
20
-3.8589763779527559
11
5.9585433070866136
21
-3.8589763779527559
0
LINE
8
BLACK
6
CONTINUOUS
10
6.4740774409448818
20
-3.8038347637795273
11
6.4746101181102365
21
-3.804367440944882
0
LINE
8
BLACK
6
CONTINUOUS
10
6.4746101181102365
20
-3.804367440944882
11
6.4746850393700788
21
-3.8047440944881887
0
LINE
8
BLACK
6
CONTINUOUS
10
6.4746850393700788
20
-3.8047440944881887
11
6.4746850393700788
21
-3.9504133858267716
0
LINE
8
BLACK
6
CONTINUOUS
10
6.4746850393700788
20
-3.9504133858267716
11
6.4746101181102365
21
-3.9507900393700788
0
LINE
8
BLACK
6
CONTINUOUS
10
6.4746101181102365
20
-3.9507900393700788
11
6.4740774409448818
21
-3.951322716535433
0
LINE
8
BLACK
6
CONTINUOUS
10
6.4740774409448818
20
-3.951322716535433
11
6.4737007874015751
21
-3.9513976377952753
0
LINE
8
BLACK
6
CONTINUOUS
10
6.4737007874015751
20
-3.9513976377952753
11
6.3988976377952751
21
-3.9513976377952753
0
LINE
8
BLACK
6
CONTINUOUS
10
6.3988976377952751
20
-3.9513976377952753
11
6.3985209842519684
21
-3.951322716535433
0
LINE
8
BLACK
6
CONTINUOUS
10
6.3985209842519684
20
-3.951322716535433
11
6.3979883070866137
21
-3.9507900393700788
0
LINE
8
BLACK
6
CONTINUOUS
10
6.3979883070866137
20
-3.9507900393700788
11
6.3979133858267714
21
-3.9504133858267716
0
LINE
8
BLACK
6
CONTINUOUS
10
6.3979133858267714
20
-3.9504133858267716
11
6.3979133858267714
21
-3.8047440944881887
0
LINE
8
BLACK
6
CONTINUOUS
10
6.3979133858267714
20
-3.8047440944881887
11
6.3979883070866137
21
-3.804367440944882
0
LINE
8
BLACK
6
CONTINUOUS
10
6.3979883070866137
20
-3.804367440944882
11
6.3985209842519684
21
-3.8038347637795273
0
LINE
8
BLACK
6
CONTINUOUS
10
6.3985209842519684
20
-3.8038347637795273
11
6.3988976377952751
21
-3.803759842519685
0
LINE
8
BLACK
6
CONTINUOUS
10
6.3988976377952751
20
-3.803759842519685
11
6.4737007874015751
21
-3.803759842519685
0
LINE
8
BLACK
6
CONTINUOUS
10
6.4737007874015751
20
-3.803759842519685
11
6.4740774409448818
21
-3.8038347637795273
0
LINE
8
BLACK
6
CONTINUOUS
10
6.3998818897637797
20
-3.8057283464566929
11
6.3998818897637797
21
-3.9494291338582674
0
LINE
8
BLACK
6
CONTINUOUS
10
6.3998818897637797
20
-3.9494291338582674
11
6.4727165354330705
21
-3.9494291338582674
0
LINE
8
BLACK
6
CONTINUOUS
10
6.4727165354330705
20
-3.9494291338582674
11
6.4727165354330705
21
-3.8057283464566929
0
LINE
8
BLACK
6
CONTINUOUS
10
6.4727165354330705
20
-3.8057283464566929
11
6.3998818897637797
21
-3.8057283464566929
0
LINE
8
BLACK
6
CONTINUOUS
10
5.3299435826771653
20
-3.8760985433070867
11
5.3304762598425199
21
-3.8766312204724409
0
LINE
8
BLACK
6
CONTINUOUS
10
5.3304762598425199
20
-3.8766312204724409
11
5.3305511811023623
21
-3.8770078740157481
0
LINE
8
BLACK
6
CONTINUOUS
10
5.3305511811023623
20
-3.8770078740157481
11
5.3305511811023623
21
-3.9344881889763776
0
LINE
8
BLACK
6
CONTINUOUS
10
5.3305511811023623
20
-3.9344881889763776
11
5.3304762598425199
21
-3.9348648425196848
0
LINE
8
BLACK
6
CONTINUOUS
10
5.3304762598425199
20
-3.9348648425196848
11
5.3299435826771653
21
-3.9353975196850395
0
LINE
8
BLACK
6
CONTINUOUS
10
5.3299435826771653
20
-3.9353975196850395
11
5.3295669291338585
21
-3.9354724409448818
0
LINE
8
BLACK
6
CONTINUOUS
10
5.3295669291338585
20
-3.9354724409448818
11
5.2130314960629924
21
-3.9354724409448818
0
LINE
8
BLACK
6
CONTINUOUS
10
5.2130314960629924
20
-3.9354724409448818
11
5.2126548425196848
21
-3.9353975196850395
0
LINE
8
BLACK
6
CONTINUOUS
10
5.2126548425196848
20
-3.9353975196850395
11
5.2121221653543301
21
-3.9348648425196848
0
LINE
8
BLACK
6
CONTINUOUS
10
5.2121221653543301
20
-3.9348648425196848
11
5.2120472440944878
21
-3.9344881889763776
0
LINE
8
BLACK
6
CONTINUOUS
10
5.2120472440944878
20
-3.9344881889763776
11
5.2120472440944878
21
-3.8770078740157481
0
LINE
8
BLACK
6
CONTINUOUS
10
5.2120472440944878
20
-3.8770078740157481
11
5.2121221653543301
21
-3.8766312204724409
0
LINE
8
BLACK
6
CONTINUOUS
10
5.2121221653543301
20
-3.8766312204724409
11
5.2126548425196848
21
-3.8760985433070867
0
LINE
8
BLACK
6
CONTINUOUS
10
5.2126548425196848
20
-3.8760985433070867
11
5.2130314960629924
21
-3.8760236220472439
0
LINE
8
BLACK
6
CONTINUOUS
10
5.2130314960629924
20
-3.8760236220472439
11
5.3295669291338585
21
-3.8760236220472439
0
LINE
8
BLACK
6
CONTINUOUS
10
5.3295669291338585
20
-3.8760236220472439
11
5.3299435826771653
21
-3.8760985433070867
0
LINE
8
BLACK
6
CONTINUOUS
10
5.2140157480314961
20
-3.8779921259842518
11
5.2140157480314961
21
-3.9335039370078739
0
LINE
8
BLACK
6
CONTINUOUS
10
5.2140157480314961
20
-3.9335039370078739
11
5.3285826771653539
21
-3.9335039370078739
0
LINE
8
BLACK
6
CONTINUOUS
10
5.3285826771653539
20
-3.9335039370078739
11
5.3285826771653539
21
-3.8779921259842518
0
LINE
8
BLACK
6
CONTINUOUS
10
5.3285826771653539
20
-3.8779921259842518
11
5.2140157480314961
21
-3.8779921259842518
0
LINE
8
BLACK
6
CONTINUOUS
10
5.7412585433070866
20
-3.7903111417322832
11
5.7417912204724404
21
-3.7908438188976379
0
LINE
8
BLACK
6
CONTINUOUS
10
5.7417912204724404
20
-3.7908438188976379
11
5.7418661417322836
21
-3.7912204724409446
0
LINE
8
BLACK
6
CONTINUOUS
10
5.7418661417322836
20
-3.7912204724409446
11
5.7418661417322836
21
-3.9250787401574803
0
LINE
8
BLACK
6
CONTINUOUS
10
5.7418661417322836
20
-3.9250787401574803
11
5.7417912204724404
21
-3.9254553937007874
0
LINE
8
BLACK
6
CONTINUOUS
10
5.7417912204724404
20
-3.9254553937007874
11
5.7412585433070866
21
-3.9259880708661417
0
LINE
8
BLACK
6
CONTINUOUS
10
5.7412585433070866
20
-3.9259880708661417
11
5.740881889763779
21
-3.926062992125984
0
LINE
8
BLACK
6
CONTINUOUS
10
5.740881889763779
20
-3.926062992125984
11
5.6637165354330703
21
-3.926062992125984
0
LINE
8
BLACK
6
CONTINUOUS
10
5.6637165354330703
20
-3.926062992125984
11
5.6633398818897636
21
-3.9259880708661417
0
LINE
8
BLACK
6
CONTINUOUS
10
5.6633398818897636
20
-3.9259880708661417
11
5.6628072047244089
21
-3.9254553937007874
0
LINE
8
BLACK
6
CONTINUOUS
10
5.6628072047244089
20
-3.9254553937007874
11
5.6627322834645666
21
-3.9250787401574803
0
LINE
8
BLACK
6
CONTINUOUS
10
5.6627322834645666
20
-3.9250787401574803
11
5.6627322834645666
21
-3.7912204724409446
0
LINE
8
BLACK
6
CONTINUOUS
10
5.6627322834645666
20
-3.7912204724409446
11
5.6628072047244089
21
-3.7908438188976379
0
LINE
8
BLACK
6
CONTINUOUS
10
5.6628072047244089
20
-3.7908438188976379
11
5.6633398818897636
21
-3.7903111417322832
0
LINE
8
BLACK
6
CONTINUOUS
10
5.6633398818897636
20
-3.7903111417322832
11
5.6637165354330703
21
-3.7902362204724409
0
LINE
8
BLACK
6
CONTINUOUS
10
5.6637165354330703
20
-3.7902362204724409
11
5.740881889763779
21
-3.7902362204724409
0
LINE
8
BLACK
6
CONTINUOUS
10
5.740881889763779
20
-3.7902362204724409
11
5.7412585433070866
21
-3.7903111417322832
0
LINE
8
BLACK
6
CONTINUOUS
10
5.6647007874015749
20
-3.7922047244094488
11
5.6647007874015749
21
-3.9240944881889761
0
LINE
8
BLACK
6
CONTINUOUS
10
5.6647007874015749
20
-3.9240944881889761
11
5.7398976377952753
21
-3.9240944881889761
0
LINE
8
BLACK
6
CONTINUOUS
10
5.7398976377952753
20
-3.9240944881889761
11
5.7398976377952753
21
-3.7922047244094488
0
LINE
8
BLACK
6
CONTINUOUS
10
5.7398976377952753
20
-3.7922047244094488
11
5.6647007874015749
21
-3.7922047244094488
0
LINE
8
BLACK
6
CONTINUOUS
10
6.172679803149606
20
-3.8474371259842517
11
6.1732124803149606
21
-3.8479698031496063
0
LINE
8
BLACK
6
CONTINUOUS
10
6.1732124803149606
20
-3.8479698031496063
11
6.1732874015748029
21
-3.8483464566929131
0
LINE
8
BLACK
6
CONTINUOUS
10
6.1732874015748029
20
-3.8483464566929131
11
6.1732874015748029
21
-3.9231496062992126
0
LINE
8
BLACK
6
CONTINUOUS
10
6.1732874015748029
20
-3.9231496062992126
11
6.1732124803149606
21
-3.9235262598425198
0
LINE
8
BLACK
6
CONTINUOUS
10
6.1732124803149606
20
-3.9235262598425198
11
6.172679803149606
21
-3.924058937007874
0
LINE
8
BLACK
6
CONTINUOUS
10
6.172679803149606
20
-3.924058937007874
11
6.1723031496062992
21
-3.9241338582677163
0
LINE
8
BLACK
6
CONTINUOUS
10
6.1723031496062992
20
-3.9241338582677163
11
6.0266338582677168
21
-3.9241338582677163
0
LINE
8
BLACK
6
CONTINUOUS
10
6.0266338582677168
20
-3.9241338582677163
11
6.0262572047244092
21
-3.924058937007874
0
LINE
8
BLACK
6
CONTINUOUS
10
6.0262572047244092
20
-3.924058937007874
11
6.0257245275590554
21
-3.9235262598425198
0
LINE
8
BLACK
6
CONTINUOUS
10
6.0257245275590554
20
-3.9235262598425198
11
6.0256496062992122
21
-3.9231496062992126
0
LINE
8
BLACK
6
CONTINUOUS
10
6.0256496062992122
20
-3.9231496062992126
11
6.0256496062992122
21
-3.8483464566929131
0
LINE
8
BLACK
6
CONTINUOUS
10
6.0256496062992122
20
-3.8483464566929131
11
6.0257245275590554
21
-3.8479698031496063
0
LINE
8
BLACK
6
CONTINUOUS
10
6.0257245275590554
20
-3.8479698031496063
11
6.0262572047244092
21
-3.8474371259842517
0
LINE
8
BLACK
6
CONTINUOUS
10
6.0262572047244092
20
-3.8474371259842517
11
6.0266338582677168
21
-3.8473622047244094
0
LINE
8
BLACK
6
CONTINUOUS
10
6.0266338582677168
20
-3.8473622047244094
11
6.1723031496062992
21
-3.8473622047244094
0
LINE
8
BLACK
6
CONTINUOUS
10
6.1723031496062992
20
-3.8473622047244094
11
6.172679803149606
21
-3.8474371259842517
0
LINE
8
BLACK
6
CONTINUOUS
10
6.0276181102362205
20
-3.8493307086614172
11
6.0276181102362205
21
-3.9221653543307085
0
LINE
8
BLACK
6
CONTINUOUS
10
6.0276181102362205
20
-3.9221653543307085
11
6.1713188976377955
21
-3.9221653543307085
0
LINE
8
BLACK
6
CONTINUOUS
10
6.1713188976377955
20
-3.9221653543307085
11
6.1713188976377955
21
-3.8493307086614172
0
LINE
8
BLACK
6
CONTINUOUS
10
6.1713188976377955
20
-3.8493307086614172
11
6.0276181102362205
21
-3.8493307086614172
0
LINE
8
BLACK
6
CONTINUOUS
10
6.3094317716535429
20
-3.8560985433070867
11
6.3099644488188975
21
-3.8566312204724409
0
LINE
8
BLACK
6
CONTINUOUS
10
6.3099644488188975
20
-3.8566312204724409
11
6.3100393700787398
21
-3.8570078740157481
0
LINE
8
BLACK
6
CONTINUOUS
10
6.3100393700787398
20
-3.8570078740157481
11
6.3100393700787398
21
-3.9144881889763781
0
LINE
8
BLACK
6
CONTINUOUS
10
6.3100393700787398
20
-3.9144881889763781
11
6.3099644488188975
21
-3.9148648425196848
0
LINE
8
BLACK
6
CONTINUOUS
10
6.3099644488188975
20
-3.9148648425196848
11
6.3094317716535429
21
-3.9153975196850395
0
LINE
8
BLACK
6
CONTINUOUS
10
6.3094317716535429
20
-3.9153975196850395
11
6.3090551181102361
21
-3.9154724409448818
0
LINE
8
BLACK
6
CONTINUOUS
10
6.3090551181102361
20
-3.9154724409448818
11
6.19251968503937
21
-3.9154724409448818
0
LINE
8
BLACK
6
CONTINUOUS
10
6.19251968503937
20
-3.9154724409448818
11
6.1921430314960633
21
-3.9153975196850395
0
LINE
8
BLACK
6
CONTINUOUS
10
6.1921430314960633
20
-3.9153975196850395
11
6.1916103543307086
21
-3.9148648425196848
0
LINE
8
BLACK
6
CONTINUOUS
10
6.1916103543307086
20
-3.9148648425196848
11
6.1915354330708663
21
-3.9144881889763781
0
LINE
8
BLACK
6
CONTINUOUS
10
6.1915354330708663
20
-3.9144881889763781
11
6.1915354330708663
21
-3.8570078740157481
0
LINE
8
BLACK
6
CONTINUOUS
10
6.1915354330708663
20
-3.8570078740157481
11
6.1916103543307086
21
-3.8566312204724409
0
LINE
8
BLACK
6
CONTINUOUS
10
6.1916103543307086
20
-3.8566312204724409
11
6.1921430314960633
21
-3.8560985433070867
0
LINE
8
BLACK
6
CONTINUOUS
10
6.1921430314960633
20
-3.8560985433070867
11
6.19251968503937
21
-3.8560236220472439
0
LINE
8
BLACK
6
CONTINUOUS
10
6.19251968503937
20
-3.8560236220472439
11
6.3090551181102361
21
-3.8560236220472439
0
LINE
8
BLACK
6
CONTINUOUS
10
6.3090551181102361
20
-3.8560236220472439
11
6.3094317716535429
21
-3.8560985433070867
0
LINE
8
BLACK
6
CONTINUOUS
10
6.1935039370078737
20
-3.8579921259842518
11
6.1935039370078737
21
-3.9135039370078739
0
LINE
8
BLACK
6
CONTINUOUS
10
6.1935039370078737
20
-3.9135039370078739
11
6.3080708661417324
21
-3.9135039370078739
0
LINE
8
BLACK
6
CONTINUOUS
10
6.3080708661417324
20
-3.9135039370078739
11
6.3080708661417324
21
-3.8579921259842518
0
LINE
8
BLACK
6
CONTINUOUS
10
6.3080708661417324
20
-3.8579921259842518
11
6.1935039370078737
21
-3.8579921259842518
0
LINE
8
BLACK
6
CONTINUOUS
10
5.9490774409448814
20
-3.7288347637795276
11
5.9496101181102361
21
-3.7293674409448818
0
LINE
8
BLACK
6
CONTINUOUS
10
5.9496101181102361
20
-3.7293674409448818
11
5.9496850393700784
21
-3.729744094488189
0
LINE
8
BLACK
6
CONTINUOUS
10
5.9496850393700784
20
-3.729744094488189
11
5.9496850393700784
21
-3.8754133858267714
0
LINE
8
BLACK
6
CONTINUOUS
10
5.9496850393700784
20
-3.8754133858267714
11
5.9496101181102361
21
-3.8757900393700786
0
LINE
8
BLACK
6
CONTINUOUS
10
5.9496101181102361
20
-3.8757900393700786
11
5.9490774409448814
21
-3.8763227165354328
0
LINE
8
BLACK
6
CONTINUOUS
10
5.9490774409448814
20
-3.8763227165354328
11
5.9487007874015747
21
-3.8763976377952756
0
LINE
8
BLACK
6
CONTINUOUS
10
5.9487007874015747
20
-3.8763976377952756
11
5.8738976377952756
21
-3.8763976377952756
0
LINE
8
BLACK
6
CONTINUOUS
10
5.8738976377952756
20
-3.8763976377952756
11
5.873520984251968
21
-3.8763227165354328
0
LINE
8
BLACK
6
CONTINUOUS
10
5.873520984251968
20
-3.8763227165354328
11
5.8729883070866142
21
-3.8757900393700786
0
LINE
8
BLACK
6
CONTINUOUS
10
5.8729883070866142
20
-3.8757900393700786
11
5.8729133858267719
21
-3.8754133858267714
0
LINE
8
BLACK
6
CONTINUOUS
10
5.8729133858267719
20
-3.8754133858267714
11
5.8729133858267719
21
-3.729744094488189
0
LINE
8
BLACK
6
CONTINUOUS
10
5.8729133858267719
20
-3.729744094488189
11
5.8729883070866142
21
-3.7293674409448818
0
LINE
8
BLACK
6
CONTINUOUS
10
5.8729883070866142
20
-3.7293674409448818
11
5.873520984251968
21
-3.7288347637795276
0
LINE
8
BLACK
6
CONTINUOUS
10
5.873520984251968
20
-3.7288347637795276
11
5.8738976377952756
21
-3.7287598425196848
0
LINE
8
BLACK
6
CONTINUOUS
10
5.8738976377952756
20
-3.7287598425196848
11
5.9487007874015747
21
-3.7287598425196848
0
LINE
8
BLACK
6
CONTINUOUS
10
5.9487007874015747
20
-3.7287598425196848
11
5.9490774409448814
21
-3.7288347637795276
0
LINE
8
BLACK
6
CONTINUOUS
10
5.8748818897637793
20
-3.7307283464566927
11
5.8748818897637793
21
-3.8744291338582677
0
LINE
8
BLACK
6
CONTINUOUS
10
5.8748818897637793
20
-3.8744291338582677
11
5.947716535433071
21
-3.8744291338582677
0
LINE
8
BLACK
6
CONTINUOUS
10
5.947716535433071
20
-3.8744291338582677
11
5.947716535433071
21
-3.7307283464566927
0
LINE
8
BLACK
6
CONTINUOUS
10
5.947716535433071
20
-3.7307283464566927
11
5.8748818897637793
21
-3.7307283464566927
0
LINE
8
BLACK
6
CONTINUOUS
10
5.3324632677165349
20
-3.8010985433070865
11
5.3329959448818895
21
-3.8016312204724407
0
LINE
8
BLACK
6
CONTINUOUS
10
5.3329959448818895
20
-3.8016312204724407
11
5.3330708661417319
21
-3.8020078740157479
0
LINE
8
BLACK
6
CONTINUOUS
10
5.3330708661417319
20
-3.8020078740157479
11
5.3330708661417319
21
-3.8594881889763779
0
LINE
8
BLACK
6
CONTINUOUS
10
5.3330708661417319
20
-3.8594881889763779
11
5.3329959448818895
21
-3.8598648425196851
0
LINE
8
BLACK
6
CONTINUOUS
10
5.3329959448818895
20
-3.8598648425196851
11
5.3324632677165349
21
-3.8603975196850393
0
LINE
8
BLACK
6
CONTINUOUS
10
5.3324632677165349
20
-3.8603975196850393
11
5.3320866141732282
21
-3.8604724409448816
0
LINE
8
BLACK
6
CONTINUOUS
10
5.3320866141732282
20
-3.8604724409448816
11
5.215551181102362
21
-3.8604724409448816
0
LINE
8
BLACK
6
CONTINUOUS
10
5.215551181102362
20
-3.8604724409448816
11
5.2151745275590553
21
-3.8603975196850393
0
LINE
8
BLACK
6
CONTINUOUS
10
5.2151745275590553
20
-3.8603975196850393
11
5.2146418503937007
21
-3.8598648425196851
0
LINE
8
BLACK
6
CONTINUOUS
10
5.2146418503937007
20
-3.8598648425196851
11
5.2145669291338583
21
-3.8594881889763779
0
LINE
8
BLACK
6
CONTINUOUS
10
5.2145669291338583
20
-3.8594881889763779
11
5.2145669291338583
21
-3.8020078740157479
0
LINE
8
BLACK
6
CONTINUOUS
10
5.2145669291338583
20
-3.8020078740157479
11
5.2146418503937007
21
-3.8016312204724407
0
LINE
8
BLACK
6
CONTINUOUS
10
5.2146418503937007
20
-3.8016312204724407
11
5.2151745275590553
21
-3.8010985433070865
0
LINE
8
BLACK
6
CONTINUOUS
10
5.2151745275590553
20
-3.8010985433070865
11
5.215551181102362
21
-3.8010236220472442
0
LINE
8
BLACK
6
CONTINUOUS
10
5.215551181102362
20
-3.8010236220472442
11
5.3320866141732282
21
-3.8010236220472442
0
LINE
8
BLACK
6
CONTINUOUS
10
5.3320866141732282
20
-3.8010236220472442
11
5.3324632677165349
21
-3.8010985433070865
0
LINE
8
BLACK
6
CONTINUOUS
10
5.2165354330708658
20
-3.8029921259842521
11
5.2165354330708658
21
-3.8585039370078738
0
LINE
8
BLACK
6
CONTINUOUS
10
5.2165354330708658
20
-3.8585039370078738
11
5.3311023622047244
21
-3.8585039370078738
0
LINE
8
BLACK
6
CONTINUOUS
10
5.3311023622047244
20
-3.8585039370078738
11
5.3311023622047244
21
-3.8029921259842521
0
LINE
8
BLACK
6
CONTINUOUS
10
5.3311023622047244
20
-3.8029921259842521
11
5.2165354330708658
21
-3.8029921259842521
0
LINE
8
BLACK
6
CONTINUOUS
10
6.2494317716535432
20
-3.7460985433070864
11
6.2499644488188979
21
-3.746631220472441
0
LINE
8
BLACK
6
CONTINUOUS
10
6.2499644488188979
20
-3.746631220472441
11
6.2500393700787402
21
-3.7470078740157478
0
LINE
8
BLACK
6
CONTINUOUS
10
6.2500393700787402
20
-3.7470078740157478
11
6.2500393700787402
21
-3.8044881889763777
0
LINE
8
BLACK
6
CONTINUOUS
10
6.2500393700787402
20
-3.8044881889763777
11
6.2499644488188979
21
-3.8048648425196849
0
LINE
8
BLACK
6
CONTINUOUS
10
6.2499644488188979
20
-3.8048648425196849
11
6.2494317716535432
21
-3.8053975196850391
0
LINE
8
BLACK
6
CONTINUOUS
10
6.2494317716535432
20
-3.8053975196850391
11
6.2490551181102365
21
-3.8054724409448819
0
LINE
8
BLACK
6
CONTINUOUS
10
6.2490551181102365
20
-3.8054724409448819
11
6.1325196850393695
21
-3.8054724409448819
0
LINE
8
BLACK
6
CONTINUOUS
10
6.1325196850393695
20
-3.8054724409448819
11
6.1321430314960628
21
-3.8053975196850391
0
LINE
8
BLACK
6
CONTINUOUS
10
6.1321430314960628
20
-3.8053975196850391
11
6.1316103543307081
21
-3.8048648425196849
0
LINE
8
BLACK
6
CONTINUOUS
10
6.1316103543307081
20
-3.8048648425196849
11
6.1315354330708658
21
-3.8044881889763777
0
LINE
8
BLACK
6
CONTINUOUS
10
6.1315354330708658
20
-3.8044881889763777
11
6.1315354330708658
21
-3.7470078740157478
0
LINE
8
BLACK
6
CONTINUOUS
10
6.1315354330708658
20
-3.7470078740157478
11
6.1316103543307081
21
-3.746631220472441
0
LINE
8
BLACK
6
CONTINUOUS
10
6.1316103543307081
20
-3.746631220472441
11
6.1321430314960628
21
-3.7460985433070864
0
LINE
8
BLACK
6
CONTINUOUS
10
6.1321430314960628
20
-3.7460985433070864
11
6.1325196850393695
21
-3.746023622047244
0
LINE
8
BLACK
6
CONTINUOUS
10
6.1325196850393695
20
-3.746023622047244
11
6.2490551181102365
21
-3.746023622047244
0
LINE
8
BLACK
6
CONTINUOUS
10
6.2490551181102365
20
-3.746023622047244
11
6.2494317716535432
21
-3.7460985433070864
0
LINE
8
BLACK
6
CONTINUOUS
10
6.1335039370078741
20
-3.7479921259842519
11
6.1335039370078741
21
-3.803503937007874
0
LINE
8
BLACK
6
CONTINUOUS
10
6.1335039370078741
20
-3.803503937007874
11
6.2480708661417319
21
-3.803503937007874
0
LINE
8
BLACK
6
CONTINUOUS
10
6.2480708661417319
20
-3.803503937007874
11
6.2480708661417319
21
-3.7479921259842519
0
LINE
8
BLACK
6
CONTINUOUS
10
6.2480708661417319
20
-3.7479921259842519
11
6.1335039370078741
21
-3.7479921259842519
0
LINE
8
BLACK
6
CONTINUOUS
10
6.3294160236220467
20
-3.554996181102362
11
6.3299487007874013
21
-3.5555288582677163
0
LINE
8
BLACK
6
CONTINUOUS
10
6.3299487007874013
20
-3.5555288582677163
11
6.3300236220472437
21
-3.5559055118110234
0
LINE
8
BLACK
6
CONTINUOUS
10
6.3300236220472437
20
-3.5559055118110234
11
6.3300236220472437
21
-3.6717716535433071
0
LINE
8
BLACK
6
CONTINUOUS
10
6.3300236220472437
20
-3.6717716535433071
11
6.3914173228346458
21
-3.6717716535433071
0
LINE
8
BLACK
6
CONTINUOUS
10
6.3914173228346458
20
-3.6717716535433071
11
6.3917939763779525
21
-3.6718465748031495
0
LINE
8
BLACK
6
CONTINUOUS
10
6.3917939763779525
20
-3.6718465748031495
11
6.3923266535433072
21
-3.6723792519685037
0
LINE
8
BLACK
6
CONTINUOUS
10
6.3923266535433072
20
-3.6723792519685037
11
6.3924015748031495
21
-3.6727559055118109
0
LINE
8
BLACK
6
CONTINUOUS
10
6.3924015748031495
20
-3.6727559055118109
11
6.3924015748031495
21
-3.798740157480315
0
LINE
8
BLACK
6
CONTINUOUS
10
6.3924015748031495
20
-3.798740157480315
11
6.3923266535433072
21
-3.7991168110236218
0
LINE
8
BLACK
6
CONTINUOUS
10
6.3923266535433072
20
-3.7991168110236218
11
6.3917939763779525
21
-3.7996494881889764
0
LINE
8
BLACK
6
CONTINUOUS
10
6.3917939763779525
20
-3.7996494881889764
11
6.3914173228346458
21
-3.7997244094488187
0
LINE
8
BLACK
6
CONTINUOUS
10
6.3914173228346458
20
-3.7997244094488187
11
6.2811811023622042
21
-3.7997244094488187
0
LINE
8
BLACK
6
CONTINUOUS
10
6.2811811023622042
20
-3.7997244094488187
11
6.2808044488188974
21
-3.7996494881889764
0
LINE
8
BLACK
6
CONTINUOUS
10
6.2808044488188974
20
-3.7996494881889764
11
6.2802717716535428
21
-3.7991168110236218
0
LINE
8
BLACK
6
CONTINUOUS
10
6.2802717716535428
20
-3.7991168110236218
11
6.2801968503937005
21
-3.798740157480315
0
LINE
8
BLACK
6
CONTINUOUS
10
6.2801968503937005
20
-3.798740157480315
11
6.2801968503937005
21
-3.6734251968503937
0
LINE
8
BLACK
6
CONTINUOUS
10
6.2801968503937005
20
-3.6734251968503937
11
6.27155905511811
21
-3.6734251968503937
0
LINE
8
BLACK
6
CONTINUOUS
10
6.27155905511811
20
-3.6734251968503937
11
6.2711824015748032
21
-3.6733502755905509
0
LINE
8
BLACK
6
CONTINUOUS
10
6.2711824015748032
20
-3.6733502755905509
11
6.2706497244094486
21
-3.6728175984251967
0
LINE
8
BLACK
6
CONTINUOUS
10
6.2706497244094486
20
-3.6728175984251967
11
6.2705748031496062
21
-3.6724409448818895
0
LINE
8
BLACK
6
CONTINUOUS
10
6.2705748031496062
20
-3.6724409448818895
11
6.2705748031496062
21
-3.5559055118110234
0
LINE
8
BLACK
6
CONTINUOUS
10
6.2705748031496062
20
-3.5559055118110234
11
6.2706497244094486
21
-3.5555288582677163
0
LINE
8
BLACK
6
CONTINUOUS
10
6.2706497244094486
20
-3.5555288582677163
11
6.2711824015748032
21
-3.554996181102362
0
LINE
8
BLACK
6
CONTINUOUS
10
6.2711824015748032
20
-3.554996181102362
11
6.27155905511811
21
-3.5549212598425197
0
LINE
8
BLACK
6
CONTINUOUS
10
6.27155905511811
20
-3.5549212598425197
11
6.32903937007874
21
-3.5549212598425197
0
LINE
8
BLACK
6
CONTINUOUS
10
6.32903937007874
20
-3.5549212598425197
11
6.3294160236220467
21
-3.554996181102362
0
LINE
8
BLACK
6
CONTINUOUS
10
6.2821653543307088
20
-3.673740157480315
11
6.2821653543307088
21
-3.7977559055118109
0
LINE
8
BLACK
6
CONTINUOUS
10
6.2821653543307088
20
-3.7977559055118109
11
6.3904330708661412
21
-3.7977559055118109
0
LINE
8
BLACK
6
CONTINUOUS
10
6.3904330708661412
20
-3.7977559055118109
11
6.3904330708661412
21
-3.673740157480315
0
LINE
8
BLACK
6
CONTINUOUS
10
6.3904330708661412
20
-3.673740157480315
11
6.2821653543307088
21
-3.673740157480315
0
LINE
8
BLACK
6
CONTINUOUS
10
6.2725433070866137
20
-3.5568897637795276
11
6.2725433070866137
21
-3.6714566929133858
0
LINE
8
BLACK
6
CONTINUOUS
10
6.2725433070866137
20
-3.6714566929133858
11
6.3280551181102362
21
-3.6714566929133858
0
LINE
8
BLACK
6
CONTINUOUS
10
6.3280551181102362
20
-3.6714566929133858
11
6.3280551181102362
21
-3.5568897637795276
0
LINE
8
BLACK
6
CONTINUOUS
10
6.3280551181102362
20
-3.5568897637795276
11
6.2725433070866137
21
-3.5568897637795276
0
LINE
8
BLACK
6
CONTINUOUS
10
5.3324632677165349
20
-3.7260985433070863
11
5.3329959448818895
21
-3.726631220472441
0
LINE
8
BLACK
6
CONTINUOUS
10
5.3329959448818895
20
-3.726631220472441
11
5.3330708661417319
21
-3.7270078740157477
0
LINE
8
BLACK
6
CONTINUOUS
10
5.3330708661417319
20
-3.7270078740157477
11
5.3330708661417319
21
-3.7844881889763777
0
LINE
8
BLACK
6
CONTINUOUS
10
5.3330708661417319
20
-3.7844881889763777
11
5.3329959448818895
21
-3.7848648425196849
0
LINE
8
BLACK
6
CONTINUOUS
10
5.3329959448818895
20
-3.7848648425196849
11
5.3324632677165349
21
-3.7853975196850391
0
LINE
8
BLACK
6
CONTINUOUS
10
5.3324632677165349
20
-3.7853975196850391
11
5.3320866141732282
21
-3.7854724409448819
0
LINE
8
BLACK
6
CONTINUOUS
10
5.3320866141732282
20
-3.7854724409448819
11
5.215551181102362
21
-3.7854724409448819
0
LINE
8
BLACK
6
CONTINUOUS
10
5.215551181102362
20
-3.7854724409448819
11
5.2151745275590553
21
-3.7853975196850391
0
LINE
8
BLACK
6
CONTINUOUS
10
5.2151745275590553
20
-3.7853975196850391
11
5.2146418503937007
21
-3.7848648425196849
0
LINE
8
BLACK
6
CONTINUOUS
10
5.2146418503937007
20
-3.7848648425196849
11
5.2145669291338583
21
-3.7844881889763777
0
LINE
8
BLACK
6
CONTINUOUS
10
5.2145669291338583
20
-3.7844881889763777
11
5.2145669291338583
21
-3.7270078740157477
0
LINE
8
BLACK
6
CONTINUOUS
10
5.2145669291338583
20
-3.7270078740157477
11
5.2146418503937007
21
-3.726631220472441
0
LINE
8
BLACK
6
CONTINUOUS
10
5.2146418503937007
20
-3.726631220472441
11
5.2151745275590553
21
-3.7260985433070863
0
LINE
8
BLACK
6
CONTINUOUS
10
5.2151745275590553
20
-3.7260985433070863
11
5.215551181102362
21
-3.726023622047244
0
LINE
8
BLACK
6
CONTINUOUS
10
5.215551181102362
20
-3.726023622047244
11
5.3320866141732282
21
-3.726023622047244
0
LINE
8
BLACK
6
CONTINUOUS
10
5.3320866141732282
20
-3.726023622047244
11
5.3324632677165349
21
-3.7260985433070863
0
LINE
8
BLACK
6
CONTINUOUS
10
5.2165354330708658
20
-3.7279921259842519
11
5.2165354330708658
21
-3.783503937007874
0
LINE
8
BLACK
6
CONTINUOUS
10
5.2165354330708658
20
-3.783503937007874
11
5.3311023622047244
21
-3.783503937007874
0
LINE
8
BLACK
6
CONTINUOUS
10
5.3311023622047244
20
-3.783503937007874
11
5.3311023622047244
21
-3.7279921259842519
0
LINE
8
BLACK
6
CONTINUOUS
10
5.3311023622047244
20
-3.7279921259842519
11
5.2165354330708658
21
-3.7279921259842519
0
LINE
8
BLACK
6
CONTINUOUS
10
5.7412585433070866
20
-3.6419095669291339
11
5.7417912204724404
21
-3.6424422440944881
0
LINE
8
BLACK
6
CONTINUOUS
10
5.7417912204724404
20
-3.6424422440944881
11
5.7418661417322836
21
-3.6428188976377953
0
LINE
8
BLACK
6
CONTINUOUS
10
5.7418661417322836
20
-3.6428188976377953
11
5.7418661417322836
21
-3.7766771653543305
0
LINE
8
BLACK
6
CONTINUOUS
10
5.7418661417322836
20
-3.7766771653543305
11
5.7417912204724404
21
-3.7770538188976377
0
LINE
8
BLACK
6
CONTINUOUS
10
5.7417912204724404
20
-3.7770538188976377
11
5.7412585433070866
21
-3.7775864960629919
0
LINE
8
BLACK
6
CONTINUOUS
10
5.7412585433070866
20
-3.7775864960629919
11
5.740881889763779
21
-3.7776614173228347
0
LINE
8
BLACK
6
CONTINUOUS
10
5.740881889763779
20
-3.7776614173228347
11
5.6637165354330703
21
-3.7776614173228347
0
LINE
8
BLACK
6
CONTINUOUS
10
5.6637165354330703
20
-3.7776614173228347
11
5.6633398818897636
21
-3.7775864960629919
0
LINE
8
BLACK
6
CONTINUOUS
10
5.6633398818897636
20
-3.7775864960629919
11
5.6628072047244089
21
-3.7770538188976377
0
LINE
8
BLACK
6
CONTINUOUS
10
5.6628072047244089
20
-3.7770538188976377
11
5.6627322834645666
21
-3.7766771653543305
0
LINE
8
BLACK
6
CONTINUOUS
10
5.6627322834645666
20
-3.7766771653543305
11
5.6627322834645666
21
-3.6428188976377953
0
LINE
8
BLACK
6
CONTINUOUS
10
5.6627322834645666
20
-3.6428188976377953
11
5.6628072047244089
21
-3.6424422440944881
0
LINE
8
BLACK
6
CONTINUOUS
10
5.6628072047244089
20
-3.6424422440944881
11
5.6633398818897636
21
-3.6419095669291339
0
LINE
8
BLACK
6
CONTINUOUS
10
5.6633398818897636
20
-3.6419095669291339
11
5.6637165354330703
21
-3.6418346456692912
0
LINE
8
BLACK
6
CONTINUOUS
10
5.6637165354330703
20
-3.6418346456692912
11
5.740881889763779
21
-3.6418346456692912
0
LINE
8
BLACK
6
CONTINUOUS
10
5.740881889763779
20
-3.6418346456692912
11
5.7412585433070866
21
-3.6419095669291339
0
LINE
8
BLACK
6
CONTINUOUS
10
5.6647007874015749
20
-3.643803149606299
11
5.6647007874015749
21
-3.7756929133858268
0
LINE
8
BLACK
6
CONTINUOUS
10
5.6647007874015749
20
-3.7756929133858268
11
5.7398976377952753
21
-3.7756929133858268
0
LINE
8
BLACK
6
CONTINUOUS
10
5.7398976377952753
20
-3.7756929133858268
11
5.7398976377952753
21
-3.643803149606299
0
LINE
8
BLACK
6
CONTINUOUS
10
5.7398976377952753
20
-3.643803149606299
11
5.6647007874015749
21
-3.643803149606299
0
LINE
8
BLACK
6
CONTINUOUS
10
6.0923451574803149
20
-3.6114922440944883
11
6.0928778346456696
21
-3.6120249212598425
0
LINE
8
BLACK
6
CONTINUOUS
10
6.0928778346456696
20
-3.6120249212598425
11
6.0929527559055119
21
-3.6124015748031497
0
LINE
8
BLACK
6
CONTINUOUS
10
6.0929527559055119
20
-3.6124015748031497
11
6.0929527559055119
21
-3.7403543307086613
0
LINE
8
BLACK
6
CONTINUOUS
10
6.0929527559055119
20
-3.7403543307086613
11
6.0928778346456696
21
-3.7407309842519685
0
LINE
8
BLACK
6
CONTINUOUS
10
6.0928778346456696
20
-3.7407309842519685
11
6.0923451574803149
21
-3.7412636614173227
0
LINE
8
BLACK
6
CONTINUOUS
10
6.0923451574803149
20
-3.7412636614173227
11
6.0919685039370082
21
-3.7413385826771655
0
LINE
8
BLACK
6
CONTINUOUS
10
6.0919685039370082
20
-3.7413385826771655
11
5.9915748031496063
21
-3.7413385826771655
0
LINE
8
BLACK
6
CONTINUOUS
10
5.9915748031496063
20
-3.7413385826771655
11
5.9911981496062987
21
-3.7412636614173227
0
LINE
8
BLACK
6
CONTINUOUS
10
5.9911981496062987
20
-3.7412636614173227
11
5.9906654724409449
21
-3.7407309842519685
0
LINE
8
BLACK
6
CONTINUOUS
10
5.9906654724409449
20
-3.7407309842519685
11
5.9905905511811026
21
-3.7403543307086613
0
LINE
8
BLACK
6
CONTINUOUS
10
5.9905905511811026
20
-3.7403543307086613
11
5.9905905511811026
21
-3.6124015748031497
0
LINE
8
BLACK
6
CONTINUOUS
10
5.9905905511811026
20
-3.6124015748031497
11
5.9906654724409449
21
-3.6120249212598425
0
LINE
8
BLACK
6
CONTINUOUS
10
5.9906654724409449
20
-3.6120249212598425
11
5.9911981496062987
21
-3.6114922440944883
0
LINE
8
BLACK
6
CONTINUOUS
10
5.9911981496062987
20
-3.6114922440944883
11
5.9915748031496063
21
-3.6114173228346456
0
LINE
8
BLACK
6
CONTINUOUS
10
5.9915748031496063
20
-3.6114173228346456
11
6.0919685039370082
21
-3.6114173228346456
0
LINE
8
BLACK
6
CONTINUOUS
10
6.0919685039370082
20
-3.6114173228346456
11
6.0923451574803149
21
-3.6114922440944883
0
LINE
8
BLACK
6
CONTINUOUS
10
5.99255905511811
20
-3.6133858267716534
11
5.99255905511811
21
-3.7393700787401576
0
LINE
8
BLACK
6
CONTINUOUS
10
5.99255905511811
20
-3.7393700787401576
11
6.0909842519685036
21
-3.7393700787401576
0
LINE
8
BLACK
6
CONTINUOUS
10
6.0909842519685036
20
-3.7393700787401576
11
6.0909842519685036
21
-3.6133858267716534
0
LINE
8
BLACK
6
CONTINUOUS
10
6.0909842519685036
20
-3.6133858267716534
11
5.99255905511811
21
-3.6133858267716534
0
LINE
8
BLACK
6
CONTINUOUS
10
6.1604160236220471
20
-3.6140906692913384
11
6.1609487007874018
21
-3.614623346456693
0
LINE
8
BLACK
6
CONTINUOUS
10
6.1609487007874018
20
-3.614623346456693
11
6.1610236220472441
21
-3.6149999999999998
0
LINE
8
BLACK
6
CONTINUOUS
10
6.1610236220472441
20
-3.6149999999999998
11
6.1610236220472441
21
-3.7315354330708659
0
LINE
8
BLACK
6
CONTINUOUS
10
6.1610236220472441
20
-3.7315354330708659
11
6.1609487007874018
21
-3.7319120866141731
0
LINE
8
BLACK
6
CONTINUOUS
10
6.1609487007874018
20
-3.7319120866141731
11
6.1604160236220471
21
-3.7324447637795273
0
LINE
8
BLACK
6
CONTINUOUS
10
6.1604160236220471
20
-3.7324447637795273
11
6.1600393700787404
21
-3.73251968503937
0
LINE
8
BLACK
6
CONTINUOUS
10
6.1600393700787404
20
-3.73251968503937
11
6.1025590551181104
21
-3.73251968503937
0
LINE
8
BLACK
6
CONTINUOUS
10
6.1025590551181104
20
-3.73251968503937
11
6.1021824015748027
21
-3.7324447637795273
0
LINE
8
BLACK
6
CONTINUOUS
10
6.1021824015748027
20
-3.7324447637795273
11
6.101649724409449
21
-3.7319120866141731
0
LINE
8
BLACK
6
CONTINUOUS
10
6.101649724409449
20
-3.7319120866141731
11
6.1015748031496058
21
-3.7315354330708659
0
LINE
8
BLACK
6
CONTINUOUS
10
6.1015748031496058
20
-3.7315354330708659
11
6.1015748031496058
21
-3.6149999999999998
0
LINE
8
BLACK
6
CONTINUOUS
10
6.1015748031496058
20
-3.6149999999999998
11
6.101649724409449
21
-3.614623346456693
0
LINE
8
BLACK
6
CONTINUOUS
10
6.101649724409449
20
-3.614623346456693
11
6.1021824015748027
21
-3.6140906692913384
0
LINE
8
BLACK
6
CONTINUOUS
10
6.1021824015748027
20
-3.6140906692913384
11
6.1025590551181104
21
-3.6140157480314961
0
LINE
8
BLACK
6
CONTINUOUS
10
6.1025590551181104
20
-3.6140157480314961
11
6.1600393700787404
21
-3.6140157480314961
0
LINE
8
BLACK
6
CONTINUOUS
10
6.1600393700787404
20
-3.6140157480314961
11
6.1604160236220471
21
-3.6140906692913384
0
LINE
8
BLACK
6
CONTINUOUS
10
6.1035433070866141
20
-3.6159842519685039
11
6.1035433070866141
21
-3.7305511811023622
0
LINE
8
BLACK
6
CONTINUOUS
10
6.1035433070866141
20
-3.7305511811023622
11
6.1590551181102358
21
-3.7305511811023622
0
LINE
8
BLACK
6
CONTINUOUS
10
6.1590551181102358
20
-3.7305511811023622
11
6.1590551181102358
21
-3.6159842519685039
0
LINE
8
BLACK
6
CONTINUOUS
10
6.1590551181102358
20
-3.6159842519685039
11
6.1035433070866141
21
-3.6159842519685039
0
LINE
8
BLACK
6
CONTINUOUS
10
6.4654160236220468
20
-3.6120827952755903
11
6.4659487007874015
21
-3.6126154724409449
0
LINE
8
BLACK
6
CONTINUOUS
10
6.4659487007874015
20
-3.6126154724409449
11
6.4660236220472438
21
-3.6129921259842517
0
LINE
8
BLACK
6
CONTINUOUS
10
6.4660236220472438
20
-3.6129921259842517
11
6.4660236220472438
21
-3.7295275590551182
0
LINE
8
BLACK
6
CONTINUOUS
10
6.4660236220472438
20
-3.7295275590551182
11
6.4659487007874015
21
-3.729904212598425
0
LINE
8
BLACK
6
CONTINUOUS
10
6.4659487007874015
20
-3.729904212598425
11
6.4654160236220468
21
-3.7304368897637796
0
LINE
8
BLACK
6
CONTINUOUS
10
6.4654160236220468
20
-3.7304368897637796
11
6.4650393700787401
21
-3.7305118110236219
0
LINE
8
BLACK
6
CONTINUOUS
10
6.4650393700787401
20
-3.7305118110236219
11
6.4075590551181101
21
-3.7305118110236219
0
LINE
8
BLACK
6
CONTINUOUS
10
6.4075590551181101
20
-3.7305118110236219
11
6.4071824015748033
21
-3.7304368897637796
0
LINE
8
BLACK
6
CONTINUOUS
10
6.4071824015748033
20
-3.7304368897637796
11
6.4066497244094487
21
-3.729904212598425
0
LINE
8
BLACK
6
CONTINUOUS
10
6.4066497244094487
20
-3.729904212598425
11
6.4065748031496064
21
-3.7295275590551182
0
LINE
8
BLACK
6
CONTINUOUS
10
6.4065748031496064
20
-3.7295275590551182
11
6.4065748031496064
21
-3.6129921259842517
0
LINE
8
BLACK
6
CONTINUOUS
10
6.4065748031496064
20
-3.6129921259842517
11
6.4066497244094487
21
-3.6126154724409449
0
LINE
8
BLACK
6
CONTINUOUS
10
6.4066497244094487
20
-3.6126154724409449
11
6.4071824015748033
21
-3.6120827952755903
0
LINE
8
BLACK
6
CONTINUOUS
10
6.4071824015748033
20
-3.6120827952755903
11
6.4075590551181101
21
-3.612007874015748
0
LINE
8
BLACK
6
CONTINUOUS
10
6.4075590551181101
20
-3.612007874015748
11
6.4650393700787401
21
-3.612007874015748
0
LINE
8
BLACK
6
CONTINUOUS
10
6.4650393700787401
20
-3.612007874015748
11
6.4654160236220468
21
-3.6120827952755903
0
LINE
8
BLACK
6
CONTINUOUS
10
6.4085433070866138
20
-3.6139763779527558
11
6.4085433070866138
21
-3.7285433070866141
0
LINE
8
BLACK
6
CONTINUOUS
10
6.4085433070866138
20
-3.7285433070866141
11
6.4640551181102364
21
-3.7285433070866141
0
LINE
8
BLACK
6
CONTINUOUS
10
6.4640551181102364
20
-3.7285433070866141
11
6.4640551181102364
21
-3.6139763779527558
0
LINE
8
BLACK
6
CONTINUOUS
10
6.4640551181102364
20
-3.6139763779527558
11
6.4085433070866138
21
-3.6139763779527558
0
LINE
8
BLACK
6
CONTINUOUS
10
5.9394317716535427
20
-3.6610985433070864
11
5.9399644488188974
21
-3.6616312204724411
0
LINE
8
BLACK
6
CONTINUOUS
10
5.9399644488188974
20
-3.6616312204724411
11
5.9400393700787397
21
-3.6620078740157478
0
LINE
8
BLACK
6
CONTINUOUS
10
5.9400393700787397
20
-3.6620078740157478
11
5.9400393700787397
21
-3.7194881889763778
0
LINE
8
BLACK
6
CONTINUOUS
10
5.9400393700787397
20
-3.7194881889763778
11
5.9399644488188974
21
-3.719864842519685
0
LINE
8
BLACK
6
CONTINUOUS
10
5.9399644488188974
20
-3.719864842519685
11
5.9394317716535427
21
-3.7203975196850392
0
LINE
8
BLACK
6
CONTINUOUS
10
5.9394317716535427
20
-3.7203975196850392
11
5.939055118110236
21
-3.7204724409448819
0
LINE
8
BLACK
6
CONTINUOUS
10
5.939055118110236
20
-3.7204724409448819
11
5.8225196850393699
21
-3.7204724409448819
0
LINE
8
BLACK
6
CONTINUOUS
10
5.8225196850393699
20
-3.7204724409448819
11
5.8221430314960632
21
-3.7203975196850392
0
LINE
8
BLACK
6
CONTINUOUS
10
5.8221430314960632
20
-3.7203975196850392
11
5.8216103543307085
21
-3.719864842519685
0
LINE
8
BLACK
6
CONTINUOUS
10
5.8216103543307085
20
-3.719864842519685
11
5.8215354330708662
21
-3.7194881889763778
0
LINE
8
BLACK
6
CONTINUOUS
10
5.8215354330708662
20
-3.7194881889763778
11
5.8215354330708662
21
-3.6620078740157478
0
LINE
8
BLACK
6
CONTINUOUS
10
5.8215354330708662
20
-3.6620078740157478
11
5.8216103543307085
21
-3.6616312204724411
0
LINE
8
BLACK
6
CONTINUOUS
10
5.8216103543307085
20
-3.6616312204724411
11
5.8221430314960632
21
-3.6610985433070864
0
LINE
8
BLACK
6
CONTINUOUS
10
5.8221430314960632
20
-3.6610985433070864
11
5.8225196850393699
21
-3.6610236220472441
0
LINE
8
BLACK
6
CONTINUOUS
10
5.8225196850393699
20
-3.6610236220472441
11
5.939055118110236
21
-3.6610236220472441
0
LINE
8
BLACK
6
CONTINUOUS
10
5.939055118110236
20
-3.6610236220472441
11
5.9394317716535427
21
-3.6610985433070864
0
LINE
8
BLACK
6
CONTINUOUS
10
5.8235039370078736
20
-3.6629921259842519
11
5.8235039370078736
21
-3.7185039370078741
0
LINE
8
BLACK
6
CONTINUOUS
10
5.8235039370078736
20
-3.7185039370078741
11
5.9380708661417323
21
-3.7185039370078741
0
LINE
8
BLACK
6
CONTINUOUS
10
5.9380708661417323
20
-3.7185039370078741
11
5.9380708661417323
21
-3.6629921259842519
0
LINE
8
BLACK
6
CONTINUOUS
10
5.9380708661417323
20
-3.6629921259842519
11
5.8235039370078736
21
-3.6629921259842519
0
LINE
8
BLACK
6
CONTINUOUS
10
5.3324632677165349
20
-3.6560985433070865
11
5.3329959448818895
21
-3.6566312204724407
0
LINE
8
BLACK
6
CONTINUOUS
10
5.3329959448818895
20
-3.6566312204724407
11
5.3330708661417319
21
-3.6570078740157479
0
LINE
8
BLACK
6
CONTINUOUS
10
5.3330708661417319
20
-3.6570078740157479
11
5.3330708661417319
21
-3.7144881889763779
0
LINE
8
BLACK
6
CONTINUOUS
10
5.3330708661417319
20
-3.7144881889763779
11
5.3329959448818895
21
-3.7148648425196851
0
LINE
8
BLACK
6
CONTINUOUS
10
5.3329959448818895
20
-3.7148648425196851
11
5.3324632677165349
21
-3.7153975196850393
0
LINE
8
BLACK
6
CONTINUOUS
10
5.3324632677165349
20
-3.7153975196850393
11
5.3320866141732282
21
-3.7154724409448816
0
LINE
8
BLACK
6
CONTINUOUS
10
5.3320866141732282
20
-3.7154724409448816
11
5.215551181102362
21
-3.7154724409448816
0
LINE
8
BLACK
6
CONTINUOUS
10
5.215551181102362
20
-3.7154724409448816
11
5.2151745275590553
21
-3.7153975196850393
0
LINE
8
BLACK
6
CONTINUOUS
10
5.2151745275590553
20
-3.7153975196850393
11
5.2146418503937007
21
-3.7148648425196851
0
LINE
8
BLACK
6
CONTINUOUS
10
5.2146418503937007
20
-3.7148648425196851
11
5.2145669291338583
21
-3.7144881889763779
0
LINE
8
BLACK
6
CONTINUOUS
10
5.2145669291338583
20
-3.7144881889763779
11
5.2145669291338583
21
-3.6570078740157479
0
LINE
8
BLACK
6
CONTINUOUS
10
5.2145669291338583
20
-3.6570078740157479
11
5.2146418503937007
21
-3.6566312204724407
0
LINE
8
BLACK
6
CONTINUOUS
10
5.2146418503937007
20
-3.6566312204724407
11
5.2151745275590553
21
-3.6560985433070865
0
LINE
8
BLACK
6
CONTINUOUS
10
5.2151745275590553
20
-3.6560985433070865
11
5.215551181102362
21
-3.6560236220472442
0
LINE
8
BLACK
6
CONTINUOUS
10
5.215551181102362
20
-3.6560236220472442
11
5.3320866141732282
21
-3.6560236220472442
0
LINE
8
BLACK
6
CONTINUOUS
10
5.3320866141732282
20
-3.6560236220472442
11
5.3324632677165349
21
-3.6560985433070865
0
LINE
8
BLACK
6
CONTINUOUS
10
5.2165354330708658
20
-3.6579921259842521
11
5.2165354330708658
21
-3.7135039370078737
0
LINE
8
BLACK
6
CONTINUOUS
10
5.2165354330708658
20
-3.7135039370078737
11
5.3311023622047244
21
-3.7135039370078737
0
LINE
8
BLACK
6
CONTINUOUS
10
5.3311023622047244
20
-3.7135039370078737
11
5.3311023622047244
21
-3.6579921259842521
0
LINE
8
BLACK
6
CONTINUOUS
10
5.3311023622047244
20
-3.6579921259842521
11
5.2165354330708658
21
-3.6579921259842521
0
LINE
8
BLACK
6
CONTINUOUS
10
6.2650774409448822
20
-3.5522402755905511
11
6.2656101181102359
21
-3.5527729527559053
0
LINE
8
BLACK
6
CONTINUOUS
10
6.2656101181102359
20
-3.5527729527559053
11
6.2656850393700783
21
-3.5531496062992125
0
LINE
8
BLACK
6
CONTINUOUS
10
6.2656850393700783
20
-3.5531496062992125
11
6.2656850393700783
21
-3.6988188976377954
0
LINE
8
BLACK
6
CONTINUOUS
10
6.2656850393700783
20
-3.6988188976377954
11
6.2656101181102359
21
-3.6991955511811021
0
LINE
8
BLACK
6
CONTINUOUS
10
6.2656101181102359
20
-3.6991955511811021
11
6.2650774409448822
21
-3.6997282283464568
0
LINE
8
BLACK
6
CONTINUOUS
10
6.2650774409448822
20
-3.6997282283464568
11
6.2647007874015745
21
-3.6998031496062991
0
LINE
8
BLACK
6
CONTINUOUS
10
6.2647007874015745
20
-3.6998031496062991
11
6.1898976377952755
21
-3.6998031496062991
0
LINE
8
BLACK
6
CONTINUOUS
10
6.1898976377952755
20
-3.6998031496062991
11
6.1895209842519687
21
-3.6997282283464568
0
LINE
8
BLACK
6
CONTINUOUS
10
6.1895209842519687
20
-3.6997282283464568
11
6.1889883070866141
21
-3.6991955511811021
0
LINE
8
BLACK
6
CONTINUOUS
10
6.1889883070866141
20
-3.6991955511811021
11
6.1889133858267718
21
-3.6988188976377954
0
LINE
8
BLACK
6
CONTINUOUS
10
6.1889133858267718
20
-3.6988188976377954
11
6.1889133858267718
21
-3.5531496062992125
0
LINE
8
BLACK
6
CONTINUOUS
10
6.1889133858267718
20
-3.5531496062992125
11
6.1889883070866141
21
-3.5527729527559053
0
LINE
8
BLACK
6
CONTINUOUS
10
6.1889883070866141
20
-3.5527729527559053
11
6.1895209842519687
21
-3.5522402755905511
0
LINE
8
BLACK
6
CONTINUOUS
10
6.1895209842519687
20
-3.5522402755905511
11
6.1898976377952755
21
-3.5521653543307088
0
LINE
8
BLACK
6
CONTINUOUS
10
6.1898976377952755
20
-3.5521653543307088
11
6.2647007874015745
21
-3.5521653543307088
0
LINE
8
BLACK
6
CONTINUOUS
10
6.2647007874015745
20
-3.5521653543307088
11
6.2650774409448822
21
-3.5522402755905511
0
LINE
8
BLACK
6
CONTINUOUS
10
6.1908818897637792
20
-3.5541338582677167
11
6.1908818897637792
21
-3.6978346456692912
0
LINE
8
BLACK
6
CONTINUOUS
10
6.1908818897637792
20
-3.6978346456692912
11
6.2637165354330708
21
-3.6978346456692912
0
LINE
8
BLACK
6
CONTINUOUS
10
6.2637165354330708
20
-3.6978346456692912
11
6.2637165354330708
21
-3.5541338582677167
0
LINE
8
BLACK
6
CONTINUOUS
10
6.2637165354330708
20
-3.5541338582677167
11
6.1908818897637792
21
-3.5541338582677167
0
LINE
8
BLACK
6
CONTINUOUS
10
5.8763609055118105
20
-3.4624764960629921
11
5.8768935826771651
21
-3.4630091732283463
0
LINE
8
BLACK
6
CONTINUOUS
10
5.8768935826771651
20
-3.4630091732283463
11
5.8769685039370074
21
-3.4633858267716535
0
LINE
8
BLACK
6
CONTINUOUS
10
5.8769685039370074
20
-3.4633858267716535
11
5.8769685039370074
21
-3.5059055118110236
0
LINE
8
BLACK
6
CONTINUOUS
10
5.8769685039370074
20
-3.5059055118110236
11
5.8770434251968506
21
-3.5055288582677164
0
LINE
8
BLACK
6
CONTINUOUS
10
5.8770434251968506
20
-3.5055288582677164
11
5.8775761023622044
21
-3.5049961811023622
0
LINE
8
BLACK
6
CONTINUOUS
10
5.8775761023622044
20
-3.5049961811023622
11
5.877952755905512
21
-3.5049212598425195
0
LINE
8
BLACK
6
CONTINUOUS
10
5.877952755905512
20
-3.5049212598425195
11
5.9527559055118111
21
-3.5049212598425195
0
LINE
8
BLACK
6
CONTINUOUS
10
5.9527559055118111
20
-3.5049212598425195
11
5.9531325590551178
21
-3.5049961811023622
0
LINE
8
BLACK
6
CONTINUOUS
10
5.9531325590551178
20
-3.5049961811023622
11
5.9536652362204725
21
-3.5055288582677164
0
LINE
8
BLACK
6
CONTINUOUS
10
5.9536652362204725
20
-3.5055288582677164
11
5.9537401574803148
21
-3.5059055118110236
0
LINE
8
BLACK
6
CONTINUOUS
10
5.9537401574803148
20
-3.5059055118110236
11
5.9537401574803148
21
-3.651574803149606
0
LINE
8
BLACK
6
CONTINUOUS
10
5.9537401574803148
20
-3.651574803149606
11
5.9536652362204725
21
-3.6519514566929132
0
LINE
8
BLACK
6
CONTINUOUS
10
5.9536652362204725
20
-3.6519514566929132
11
5.9531325590551178
21
-3.6524841338582674
0
LINE
8
BLACK
6
CONTINUOUS
10
5.9531325590551178
20
-3.6524841338582674
11
5.9527559055118111
21
-3.6525590551181102
0
LINE
8
BLACK
6
CONTINUOUS
10
5.9527559055118111
20
-3.6525590551181102
11
5.877952755905512
21
-3.6525590551181102
0
LINE
8
BLACK
6
CONTINUOUS
10
5.877952755905512
20
-3.6525590551181102
11
5.8775761023622044
21
-3.6524841338582674
0
LINE
8
BLACK
6
CONTINUOUS
10
5.8775761023622044
20
-3.6524841338582674
11
5.8770434251968506
21
-3.6519514566929132
0
LINE
8
BLACK
6
CONTINUOUS
10
5.8770434251968506
20
-3.6519514566929132
11
5.8769685039370074
21
-3.651574803149606
0
LINE
8
BLACK
6
CONTINUOUS
10
5.8769685039370074
20
-3.651574803149606
11
5.8769685039370074
21
-3.5956692913385826
0
LINE
8
BLACK
6
CONTINUOUS
10
5.8769685039370074
20
-3.5956692913385826
11
5.8768935826771651
21
-3.5960459448818898
0
LINE
8
BLACK
6
CONTINUOUS
10
5.8768935826771651
20
-3.5960459448818898
11
5.8763609055118105
21
-3.596578622047244
0
LINE
8
BLACK
6
CONTINUOUS
10
5.8763609055118105
20
-3.596578622047244
11
5.8759842519685037
21
-3.5966535433070868
0
LINE
8
BLACK
6
CONTINUOUS
10
5.8759842519685037
20
-3.5966535433070868
11
5.8011811023622046
21
-3.5966535433070868
0
LINE
8
BLACK
6
CONTINUOUS
10
5.8011811023622046
20
-3.5966535433070868
11
5.8008044488188979
21
-3.596578622047244
0
LINE
8
BLACK
6
CONTINUOUS
10
5.8008044488188979
20
-3.596578622047244
11
5.8002717716535432
21
-3.5960459448818898
0
LINE
8
BLACK
6
CONTINUOUS
10
5.8002717716535432
20
-3.5960459448818898
11
5.8001968503937009
21
-3.5956692913385826
0
LINE
8
BLACK
6
CONTINUOUS
10
5.8001968503937009
20
-3.5956692913385826
11
5.8001968503937009
21
-3.4633858267716535
0
LINE
8
BLACK
6
CONTINUOUS
10
5.8001968503937009
20
-3.4633858267716535
11
5.8002717716535432
21
-3.4630091732283463
0
LINE
8
BLACK
6
CONTINUOUS
10
5.8002717716535432
20
-3.4630091732283463
11
5.8008044488188979
21
-3.4624764960629921
0
LINE
8
BLACK
6
CONTINUOUS
10
5.8008044488188979
20
-3.4624764960629921
11
5.8011811023622046
21
-3.4624015748031494
0
LINE
8
BLACK
6
CONTINUOUS
10
5.8011811023622046
20
-3.4624015748031494
11
5.8759842519685037
21
-3.4624015748031494
0
LINE
8
BLACK
6
CONTINUOUS
10
5.8759842519685037
20
-3.4624015748031494
11
5.8763609055118105
21
-3.4624764960629921
0
LINE
8
BLACK
6
CONTINUOUS
10
5.8789370078740157
20
-3.5068897637795273
11
5.8789370078740157
21
-3.6505905511811023
0
LINE
8
BLACK
6
CONTINUOUS
10
5.8789370078740157
20
-3.6505905511811023
11
5.9517716535433074
21
-3.6505905511811023
0
LINE
8
BLACK
6
CONTINUOUS
10
5.9517716535433074
20
-3.6505905511811023
11
5.9517716535433074
21
-3.5068897637795273
0
LINE
8
BLACK
6
CONTINUOUS
10
5.9517716535433074
20
-3.5068897637795273
11
5.8789370078740157
21
-3.5068897637795273
0
LINE
8
BLACK
6
CONTINUOUS
10
5.8021653543307083
20
-3.4643700787401572
11
5.8021653543307083
21
-3.5946850393700784
0
LINE
8
BLACK
6
CONTINUOUS
10
5.8021653543307083
20
-3.5946850393700784
11
5.875
21
-3.5946850393700784
0
LINE
8
BLACK
6
CONTINUOUS
10
5.875
20
-3.5946850393700784
11
5.875
21
-3.4643700787401572
0
LINE
8
BLACK
6
CONTINUOUS
10
5.875
20
-3.4643700787401572
11
5.8021653543307083
21
-3.4643700787401572
0
LINE
8
BLACK
6
CONTINUOUS
10
5.7988018503937004
20
-3.5010591732283465
11
5.7993345275590551
21
-3.5015918503937007
0
LINE
8
BLACK
6
CONTINUOUS
10
5.7993345275590551
20
-3.5015918503937007
11
5.7994094488188974
21
-3.5019685039370079
0
LINE
8
BLACK
6
CONTINUOUS
10
5.7994094488188974
20
-3.5019685039370079
11
5.7994094488188974
21
-3.6358267716535431
0
LINE
8
BLACK
6
CONTINUOUS
10
5.7994094488188974
20
-3.6358267716535431
11
5.7993345275590551
21
-3.6362034251968502
0
LINE
8
BLACK
6
CONTINUOUS
10
5.7993345275590551
20
-3.6362034251968502
11
5.7988018503937004
21
-3.6367361023622045
0
LINE
8
BLACK
6
CONTINUOUS
10
5.7988018503937004
20
-3.6367361023622045
11
5.7984251968503937
21
-3.6368110236220472
0
LINE
8
BLACK
6
CONTINUOUS
10
5.7984251968503937
20
-3.6368110236220472
11
5.721259842519685
21
-3.6368110236220472
0
LINE
8
BLACK
6
CONTINUOUS
10
5.721259842519685
20
-3.6368110236220472
11
5.7208831889763783
21
-3.6367361023622045
0
LINE
8
BLACK
6
CONTINUOUS
10
5.7208831889763783
20
-3.6367361023622045
11
5.7203505118110236
21
-3.6362034251968502
0
LINE
8
BLACK
6
CONTINUOUS
10
5.7203505118110236
20
-3.6362034251968502
11
5.7202755905511813
21
-3.6358267716535431
0
LINE
8
BLACK
6
CONTINUOUS
10
5.7202755905511813
20
-3.6358267716535431
11
5.7202755905511813
21
-3.5019685039370079
0
LINE
8
BLACK
6
CONTINUOUS
10
5.7202755905511813
20
-3.5019685039370079
11
5.7203505118110236
21
-3.5015918503937007
0
LINE
8
BLACK
6
CONTINUOUS
10
5.7203505118110236
20
-3.5015918503937007
11
5.7208831889763783
21
-3.5010591732283465
0
LINE
8
BLACK
6
CONTINUOUS
10
5.7208831889763783
20
-3.5010591732283465
11
5.721259842519685
21
-3.5009842519685037
0
LINE
8
BLACK
6
CONTINUOUS
10
5.721259842519685
20
-3.5009842519685037
11
5.7984251968503937
21
-3.5009842519685037
0
LINE
8
BLACK
6
CONTINUOUS
10
5.7984251968503937
20
-3.5009842519685037
11
5.7988018503937004
21
-3.5010591732283465
0
LINE
8
BLACK
6
CONTINUOUS
10
5.7222440944881887
20
-3.5029527559055116
11
5.7222440944881887
21
-3.6348425196850394
0
LINE
8
BLACK
6
CONTINUOUS
10
5.7222440944881887
20
-3.6348425196850394
11
5.79744094488189
21
-3.6348425196850394
0
LINE
8
BLACK
6
CONTINUOUS
10
5.79744094488189
20
-3.6348425196850394
11
5.79744094488189
21
-3.5029527559055116
0
LINE
8
BLACK
6
CONTINUOUS
10
5.79744094488189
20
-3.5029527559055116
11
5.7222440944881887
21
-3.5029527559055116
0
LINE
8
BLACK
6
CONTINUOUS
10
5.5921089370078736
20
-3.5166103543307088
11
5.5926416141732282
21
-3.517143031496063
0
LINE
8
BLACK
6
CONTINUOUS
10
5.5926416141732282
20
-3.517143031496063
11
5.5927165354330706
21
-3.5175196850393702
0
LINE
8
BLACK
6
CONTINUOUS
10
5.5927165354330706
20
-3.5175196850393702
11
5.5927165354330706
21
-3.6340551181102363
0
LINE
8
BLACK
6
CONTINUOUS
10
5.5927165354330706
20
-3.6340551181102363
11
5.5926416141732282
21
-3.634431771653543
0
LINE
8
BLACK
6
CONTINUOUS
10
5.5926416141732282
20
-3.634431771653543
11
5.5921089370078736
21
-3.6349644488188977
0
LINE
8
BLACK
6
CONTINUOUS
10
5.5921089370078736
20
-3.6349644488188977
11
5.5917322834645669
21
-3.63503937007874
0
LINE
8
BLACK
6
CONTINUOUS
10
5.5917322834645669
20
-3.63503937007874
11
5.5342519685039369
21
-3.63503937007874
0
LINE
8
BLACK
6
CONTINUOUS
10
5.5342519685039369
20
-3.63503937007874
11
5.5338753149606301
21
-3.6349644488188977
0
LINE
8
BLACK
6
CONTINUOUS
10
5.5338753149606301
20
-3.6349644488188977
11
5.5333426377952755
21
-3.634431771653543
0
LINE
8
BLACK
6
CONTINUOUS
10
5.5333426377952755
20
-3.634431771653543
11
5.5332677165354331
21
-3.6340551181102363
0
LINE
8
BLACK
6
CONTINUOUS
10
5.5332677165354331
20
-3.6340551181102363
11
5.5332677165354331
21
-3.5175196850393702
0
LINE
8
BLACK
6
CONTINUOUS
10
5.5332677165354331
20
-3.5175196850393702
11
5.5333426377952755
21
-3.517143031496063
0
LINE
8
BLACK
6
CONTINUOUS
10
5.5333426377952755
20
-3.517143031496063
11
5.5338753149606301
21
-3.5166103543307088
0
LINE
8
BLACK
6
CONTINUOUS
10
5.5338753149606301
20
-3.5166103543307088
11
5.5342519685039369
21
-3.516535433070866
0
LINE
8
BLACK
6
CONTINUOUS
10
5.5342519685039369
20
-3.516535433070866
11
5.5917322834645669
21
-3.516535433070866
0
LINE
8
BLACK
6
CONTINUOUS
10
5.5917322834645669
20
-3.516535433070866
11
5.5921089370078736
21
-3.5166103543307088
0
LINE
8
BLACK
6
CONTINUOUS
10
5.5352362204724406
20
-3.5185039370078739
11
5.5352362204724406
21
-3.6330708661417321
0
LINE
8
BLACK
6
CONTINUOUS
10
5.5352362204724406
20
-3.6330708661417321
11
5.5907480314960631
21
-3.6330708661417321
0
LINE
8
BLACK
6
CONTINUOUS
10
5.5907480314960631
20
-3.6330708661417321
11
5.5907480314960631
21
-3.5185039370078739
0
LINE
8
BLACK
6
CONTINUOUS
10
5.5907480314960631
20
-3.5185039370078739
11
5.5352362204724406
21
-3.5185039370078739
0
LINE
8
BLACK
6
CONTINUOUS
10
5.6551010629921254
20
-3.5077520866141731
11
5.6556337401574801
21
-3.5082847637795274
0
LINE
8
BLACK
6
CONTINUOUS
10
5.6556337401574801
20
-3.5082847637795274
11
5.6557086614173224
21
-3.5086614173228345
0
LINE
8
BLACK
6
CONTINUOUS
10
5.6557086614173224
20
-3.5086614173228345
11
5.6557086614173224
21
-3.6251968503937007
0
LINE
8
BLACK
6
CONTINUOUS
10
5.6557086614173224
20
-3.6251968503937007
11
5.6556337401574801
21
-3.6255735039370078
0
LINE
8
BLACK
6
CONTINUOUS
10
5.6556337401574801
20
-3.6255735039370078
11
5.6551010629921254
21
-3.626106181102362
0
LINE
8
BLACK
6
CONTINUOUS
10
5.6551010629921254
20
-3.626106181102362
11
5.6547244094488187
21
-3.6261811023622048
0
LINE
8
BLACK
6
CONTINUOUS
10
5.6547244094488187
20
-3.6261811023622048
11
5.5972440944881887
21
-3.6261811023622048
0
LINE
8
BLACK
6
CONTINUOUS
10
5.5972440944881887
20
-3.6261811023622048
11
5.596867440944882
21
-3.626106181102362
0
LINE
8
BLACK
6
CONTINUOUS
10
5.596867440944882
20
-3.626106181102362
11
5.5963347637795273
21
-3.6255735039370078
0
LINE
8
BLACK
6
CONTINUOUS
10
5.5963347637795273
20
-3.6255735039370078
11
5.596259842519685
21
-3.6251968503937007
0
LINE
8
BLACK
6
CONTINUOUS
10
5.596259842519685
20
-3.6251968503937007
11
5.596259842519685
21
-3.5086614173228345
0
LINE
8
BLACK
6
CONTINUOUS
10
5.596259842519685
20
-3.5086614173228345
11
5.5963347637795273
21
-3.5082847637795274
0
LINE
8
BLACK
6
CONTINUOUS
10
5.5963347637795273
20
-3.5082847637795274
11
5.596867440944882
21
-3.5077520866141731
0
LINE
8
BLACK
6
CONTINUOUS
10
5.596867440944882
20
-3.5077520866141731
11
5.5972440944881887
21
-3.5076771653543308
0
LINE
8
BLACK
6
CONTINUOUS
10
5.5972440944881887
20
-3.5076771653543308
11
5.6547244094488187
21
-3.5076771653543308
0
LINE
8
BLACK
6
CONTINUOUS
10
5.6547244094488187
20
-3.5076771653543308
11
5.6551010629921254
21
-3.5077520866141731
0
LINE
8
BLACK
6
CONTINUOUS
10
5.5982283464566924
20
-3.5096456692913387
11
5.5982283464566924
21
-3.6242125984251969
0
LINE
8
BLACK
6
CONTINUOUS
10
5.5982283464566924
20
-3.6242125984251969
11
5.653740157480315
21
-3.6242125984251969
0
LINE
8
BLACK
6
CONTINUOUS
10
5.653740157480315
20
-3.6242125984251969
11
5.653740157480315
21
-3.5096456692913387
0
LINE
8
BLACK
6
CONTINUOUS
10
5.653740157480315
20
-3.5096456692913387
11
5.5982283464566924
21
-3.5096456692913387
0
LINE
8
BLACK
6
CONTINUOUS
10
5.7180931889763782
20
-3.5077520866141731
11
5.718625866141732
21
-3.5082847637795274
0
LINE
8
BLACK
6
CONTINUOUS
10
5.718625866141732
20
-3.5082847637795274
11
5.7187007874015743
21
-3.5086614173228345
0
LINE
8
BLACK
6
CONTINUOUS
10
5.7187007874015743
20
-3.5086614173228345
11
5.7187007874015743
21
-3.6251968503937007
0
LINE
8
BLACK
6
CONTINUOUS
10
5.7187007874015743
20
-3.6251968503937007
11
5.718625866141732
21
-3.6255735039370078
0
LINE
8
BLACK
6
CONTINUOUS
10
5.718625866141732
20
-3.6255735039370078
11
5.7180931889763782
21
-3.626106181102362
0
LINE
8
BLACK
6
CONTINUOUS
10
5.7180931889763782
20
-3.626106181102362
11
5.7177165354330706
21
-3.6261811023622048
0
LINE
8
BLACK
6
CONTINUOUS
10
5.7177165354330706
20
-3.6261811023622048
11
5.6602362204724406
21
-3.6261811023622048
0
LINE
8
BLACK
6
CONTINUOUS
10
5.6602362204724406
20
-3.6261811023622048
11
5.6598595669291338
21
-3.626106181102362
0
LINE
8
BLACK
6
CONTINUOUS
10
5.6598595669291338
20
-3.626106181102362
11
5.6593268897637792
21
-3.6255735039370078
0
LINE
8
BLACK
6
CONTINUOUS
10
5.6593268897637792
20
-3.6255735039370078
11
5.6592519685039369
21
-3.6251968503937007
0
LINE
8
BLACK
6
CONTINUOUS
10
5.6592519685039369
20
-3.6251968503937007
11
5.6592519685039369
21
-3.5086614173228345
0
LINE
8
BLACK
6
CONTINUOUS
10
5.6592519685039369
20
-3.5086614173228345
11
5.6593268897637792
21
-3.5082847637795274
0
LINE
8
BLACK
6
CONTINUOUS
10
5.6593268897637792
20
-3.5082847637795274
11
5.6598595669291338
21
-3.5077520866141731
0
LINE
8
BLACK
6
CONTINUOUS
10
5.6598595669291338
20
-3.5077520866141731
11
5.6602362204724406
21
-3.5076771653543308
0
LINE
8
BLACK
6
CONTINUOUS
10
5.6602362204724406
20
-3.5076771653543308
11
5.7177165354330706
21
-3.5076771653543308
0
LINE
8
BLACK
6
CONTINUOUS
10
5.7177165354330706
20
-3.5076771653543308
11
5.7180931889763782
21
-3.5077520866141731
0
LINE
8
BLACK
6
CONTINUOUS
10
5.6612204724409452
20
-3.5096456692913387
11
5.6612204724409452
21
-3.6242125984251969
0
LINE
8
BLACK
6
CONTINUOUS
10
5.6612204724409452
20
-3.6242125984251969
11
5.7167322834645669
21
-3.6242125984251969
0
LINE
8
BLACK
6
CONTINUOUS
10
5.7167322834645669
20
-3.6242125984251969
11
5.7167322834645669
21
-3.5096456692913387
0
LINE
8
BLACK
6
CONTINUOUS
10
5.7167322834645669
20
-3.5096456692913387
11
5.6612204724409452
21
-3.5096456692913387
0
LINE
8
BLACK
6
CONTINUOUS
10
6.1676798031496061
20
-3.5274371259842519
11
6.1682124803149607
21
-3.5279698031496061
0
LINE
8
BLACK
6
CONTINUOUS
10
6.1682124803149607
20
-3.5279698031496061
11
6.168287401574803
21
-3.5283464566929132
0
LINE
8
BLACK
6
CONTINUOUS
10
6.168287401574803
20
-3.5283464566929132
11
6.168287401574803
21
-3.6031496062992123
0
LINE
8
BLACK
6
CONTINUOUS
10
6.168287401574803
20
-3.6031496062992123
11
6.1682124803149607
21
-3.6035262598425195
0
LINE
8
BLACK
6
CONTINUOUS
10
6.1682124803149607
20
-3.6035262598425195
11
6.1676798031496061
21
-3.6040589370078737
0
LINE
8
BLACK
6
CONTINUOUS
10
6.1676798031496061
20
-3.6040589370078737
11
6.1673031496062993
21
-3.6041338582677165
0
LINE
8
BLACK
6
CONTINUOUS
10
6.1673031496062993
20
-3.6041338582677165
11
6.021633858267716
21
-3.6041338582677165
0
LINE
8
BLACK
6
CONTINUOUS
10
6.021633858267716
20
-3.6041338582677165
11
6.0212572047244093
21
-3.6040589370078737
0
LINE
8
BLACK
6
CONTINUOUS
10
6.0212572047244093
20
-3.6040589370078737
11
6.0207245275590546
21
-3.6035262598425195
0
LINE
8
BLACK
6
CONTINUOUS
10
6.0207245275590546
20
-3.6035262598425195
11
6.0206496062992123
21
-3.6031496062992123
0
LINE
8
BLACK
6
CONTINUOUS
10
6.0206496062992123
20
-3.6031496062992123
11
6.0206496062992123
21
-3.5283464566929132
0
LINE
8
BLACK
6
CONTINUOUS
10
6.0206496062992123
20
-3.5283464566929132
11
6.0207245275590546
21
-3.5279698031496061
0
LINE
8
BLACK
6
CONTINUOUS
10
6.0207245275590546
20
-3.5279698031496061
11
6.0212572047244093
21
-3.5274371259842519
0
LINE
8
BLACK
6
CONTINUOUS
10
6.0212572047244093
20
-3.5274371259842519
11
6.021633858267716
21
-3.5273622047244095
0
LINE
8
BLACK
6
CONTINUOUS
10
6.021633858267716
20
-3.5273622047244095
11
6.1673031496062993
21
-3.5273622047244095
0
LINE
8
BLACK
6
CONTINUOUS
10
6.1673031496062993
20
-3.5273622047244095
11
6.1676798031496061
21
-3.5274371259842519
0
LINE
8
BLACK
6
CONTINUOUS
10
6.0226181102362206
20
-3.5293307086614174
11
6.0226181102362206
21
-3.6021653543307086
0
LINE
8
BLACK
6
CONTINUOUS
10
6.0226181102362206
20
-3.6021653543307086
11
6.1663188976377947
21
-3.6021653543307086
0
LINE
8
BLACK
6
CONTINUOUS
10
6.1663188976377947
20
-3.6021653543307086
11
6.1663188976377947
21
-3.5293307086614174
0
LINE
8
BLACK
6
CONTINUOUS
10
6.1663188976377947
20
-3.5293307086614174
11
6.0226181102362206
21
-3.5293307086614174
0
LINE
8
BLACK
6
CONTINUOUS
10
5.3448648425196845
20
-3.5212560236220471
11
5.3453975196850392
21
-3.5217887007874014
0
LINE
8
BLACK
6
CONTINUOUS
10
5.3453975196850392
20
-3.5217887007874014
11
5.3454724409448815
21
-3.5221653543307085
0
LINE
8
BLACK
6
CONTINUOUS
10
5.3454724409448815
20
-3.5221653543307085
11
5.3454724409448815
21
-3.5993307086614172
0
LINE
8
BLACK
6
CONTINUOUS
10
5.3454724409448815
20
-3.5993307086614172
11
5.3453975196850392
21
-3.5997073622047244
0
LINE
8
BLACK
6
CONTINUOUS
10
5.3453975196850392
20
-3.5997073622047244
11
5.3448648425196845
21
-3.6002400393700786
0
LINE
8
BLACK
6
CONTINUOUS
10
5.3448648425196845
20
-3.6002400393700786
11
5.3444881889763778
21
-3.600314960629921
0
LINE
8
BLACK
6
CONTINUOUS
10
5.3444881889763778
20
-3.600314960629921
11
5.2106299212598426
21
-3.600314960629921
0
LINE
8
BLACK
6
CONTINUOUS
10
5.2106299212598426
20
-3.600314960629921
11
5.210253267716535
21
-3.6002400393700786
0
LINE
8
BLACK
6
CONTINUOUS
10
5.210253267716535
20
-3.6002400393700786
11
5.2097205905511812
21
-3.5997073622047244
0
LINE
8
BLACK
6
CONTINUOUS
10
5.2097205905511812
20
-3.5997073622047244
11
5.2096456692913389
21
-3.5993307086614172
0
LINE
8
BLACK
6
CONTINUOUS
10
5.2096456692913389
20
-3.5993307086614172
11
5.2096456692913389
21
-3.5221653543307085
0
LINE
8
BLACK
6
CONTINUOUS
10
5.2096456692913389
20
-3.5221653543307085
11
5.2097205905511812
21
-3.5217887007874014
0
LINE
8
BLACK
6
CONTINUOUS
10
5.2097205905511812
20
-3.5217887007874014
11
5.210253267716535
21
-3.5212560236220471
0
LINE
8
BLACK
6
CONTINUOUS
10
5.210253267716535
20
-3.5212560236220471
11
5.2106299212598426
21
-3.5211811023622048
0
LINE
8
BLACK
6
CONTINUOUS
10
5.2106299212598426
20
-3.5211811023622048
11
5.3444881889763778
21
-3.5211811023622048
0
LINE
8
BLACK
6
CONTINUOUS
10
5.3444881889763778
20
-3.5211811023622048
11
5.3448648425196845
21
-3.5212560236220471
0
LINE
8
BLACK
6
CONTINUOUS
10
5.2116141732283463
20
-3.5231496062992127
11
5.2116141732283463
21
-3.5983464566929131
0
LINE
8
BLACK
6
CONTINUOUS
10
5.2116141732283463
20
-3.5983464566929131
11
5.3435039370078741
21
-3.5983464566929131
0
LINE
8
BLACK
6
CONTINUOUS
10
5.3435039370078741
20
-3.5983464566929131
11
5.3435039370078741
21
-3.5231496062992127
0
LINE
8
BLACK
6
CONTINUOUS
10
5.3435039370078741
20
-3.5231496062992127
11
5.2116141732283463
21
-3.5231496062992127
0
LINE
8
BLACK
6
CONTINUOUS
10
6.4772664173228343
20
-3.4803111417322832
11
6.4777990944881889
21
-3.4808438188976378
0
LINE
8
BLACK
6
CONTINUOUS
10
6.4777990944881889
20
-3.4808438188976378
11
6.4778740157480312
21
-3.481220472440945
0
LINE
8
BLACK
6
CONTINUOUS
10
6.4778740157480312
20
-3.481220472440945
11
6.4778740157480312
21
-3.5914566929133858
0
LINE
8
BLACK
6
CONTINUOUS
10
6.4778740157480312
20
-3.5914566929133858
11
6.4777990944881889
21
-3.5918333464566929
0
LINE
8
BLACK
6
CONTINUOUS
10
6.4777990944881889
20
-3.5918333464566929
11
6.4772664173228343
21
-3.5923660236220472
0
LINE
8
BLACK
6
CONTINUOUS
10
6.4772664173228343
20
-3.5923660236220472
11
6.4768897637795275
21
-3.5924409448818895
0
LINE
8
BLACK
6
CONTINUOUS
10
6.4768897637795275
20
-3.5924409448818895
11
6.3509055118110238
21
-3.5924409448818895
0
LINE
8
BLACK
6
CONTINUOUS
10
6.3509055118110238
20
-3.5924409448818895
11
6.3505288582677162
21
-3.5923660236220472
0
LINE
8
BLACK
6
CONTINUOUS
10
6.3505288582677162
20
-3.5923660236220472
11
6.3499961811023624
21
-3.5918333464566929
0
LINE
8
BLACK
6
CONTINUOUS
10
6.3499961811023624
20
-3.5918333464566929
11
6.3499212598425192
21
-3.5914566929133858
0
LINE
8
BLACK
6
CONTINUOUS
10
6.3499212598425192
20
-3.5914566929133858
11
6.3499212598425192
21
-3.481220472440945
0
LINE
8
BLACK
6
CONTINUOUS
10
6.3499212598425192
20
-3.481220472440945
11
6.3499961811023624
21
-3.4808438188976378
0
LINE
8
BLACK
6
CONTINUOUS
10
6.3499961811023624
20
-3.4808438188976378
11
6.3505288582677162
21
-3.4803111417322832
0
LINE
8
BLACK
6
CONTINUOUS
10
6.3505288582677162
20
-3.4803111417322832
11
6.3509055118110238
21
-3.4802362204724409
0
LINE
8
BLACK
6
CONTINUOUS
10
6.3509055118110238
20
-3.4802362204724409
11
6.4768897637795275
21
-3.4802362204724409
0
LINE
8
BLACK
6
CONTINUOUS
10
6.4768897637795275
20
-3.4802362204724409
11
6.4772664173228343
21
-3.4803111417322832
0
LINE
8
BLACK
6
CONTINUOUS
10
6.3518897637795275
20
-3.4822047244094487
11
6.3518897637795275
21
-3.5904724409448816
0
LINE
8
BLACK
6
CONTINUOUS
10
6.3518897637795275
20
-3.5904724409448816
11
6.4759055118110238
21
-3.5904724409448816
0
LINE
8
BLACK
6
CONTINUOUS
10
6.4759055118110238
20
-3.5904724409448816
11
6.4759055118110238
21
-3.4822047244094487
0
LINE
8
BLACK
6
CONTINUOUS
10
6.4759055118110238
20
-3.4822047244094487
11
6.3518897637795275
21
-3.4822047244094487
0
LINE
8
BLACK
6
CONTINUOUS
10
6.3254160236220471
20
-3.4235709842519686
11
6.3259487007874018
21
-3.4241036614173228
0
LINE
8
BLACK
6
CONTINUOUS
10
6.3259487007874018
20
-3.4241036614173228
11
6.3260236220472441
21
-3.42448031496063
0
LINE
8
BLACK
6
CONTINUOUS
10
6.3260236220472441
20
-3.42448031496063
11
6.3260236220472441
21
-3.5410157480314961
0
LINE
8
BLACK
6
CONTINUOUS
10
6.3260236220472441
20
-3.5410157480314961
11
6.3259487007874018
21
-3.5413924015748033
0
LINE
8
BLACK
6
CONTINUOUS
10
6.3259487007874018
20
-3.5413924015748033
11
6.3254160236220471
21
-3.5419250787401575
0
LINE
8
BLACK
6
CONTINUOUS
10
6.3254160236220471
20
-3.5419250787401575
11
6.3250393700787404
21
-3.5419999999999998
0
LINE
8
BLACK
6
CONTINUOUS
10
6.3250393700787404
20
-3.5419999999999998
11
6.2675590551181104
21
-3.5419999999999998
0
LINE
8
BLACK
6
CONTINUOUS
10
6.2675590551181104
20
-3.5419999999999998
11
6.2671824015748028
21
-3.5419250787401575
0
LINE
8
BLACK
6
CONTINUOUS
10
6.2671824015748028
20
-3.5419250787401575
11
6.266649724409449
21
-3.5413924015748033
0
LINE
8
BLACK
6
CONTINUOUS
10
6.266649724409449
20
-3.5413924015748033
11
6.2665748031496058
21
-3.5410157480314961
0
LINE
8
BLACK
6
CONTINUOUS
10
6.2665748031496058
20
-3.5410157480314961
11
6.2665748031496058
21
-3.42448031496063
0
LINE
8
BLACK
6
CONTINUOUS
10
6.2665748031496058
20
-3.42448031496063
11
6.266649724409449
21
-3.4241036614173228
0
LINE
8
BLACK
6
CONTINUOUS
10
6.266649724409449
20
-3.4241036614173228
11
6.2671824015748028
21
-3.4235709842519686
0
LINE
8
BLACK
6
CONTINUOUS
10
6.2671824015748028
20
-3.4235709842519686
11
6.2675590551181104
21
-3.4234960629921258
0
LINE
8
BLACK
6
CONTINUOUS
10
6.2675590551181104
20
-3.4234960629921258
11
6.3250393700787404
21
-3.4234960629921258
0
LINE
8
BLACK
6
CONTINUOUS
10
6.3250393700787404
20
-3.4234960629921258
11
6.3254160236220471
21
-3.4235709842519686
0
LINE
8
BLACK
6
CONTINUOUS
10
6.2685433070866141
20
-3.4254645669291337
11
6.2685433070866141
21
-3.5400314960629919
0
LINE
8
BLACK
6
CONTINUOUS
10
6.2685433070866141
20
-3.5400314960629919
11
6.3240551181102358
21
-3.5400314960629919
0
LINE
8
BLACK
6
CONTINUOUS
10
6.3240551181102358
20
-3.5400314960629919
11
6.3240551181102358
21
-3.4254645669291337
0
LINE
8
BLACK
6
CONTINUOUS
10
6.3240551181102358
20
-3.4254645669291337
11
6.2685433070866141
21
-3.4254645669291337
0
LINE
8
BLACK
6
CONTINUOUS
10
6.2344317716535436
20
-3.4660985433070866
11
6.2349644488188973
21
-3.4666312204724408
0
LINE
8
BLACK
6
CONTINUOUS
10
6.2349644488188973
20
-3.4666312204724408
11
6.2350393700787397
21
-3.4670078740157479
0
LINE
8
BLACK
6
CONTINUOUS
10
6.2350393700787397
20
-3.4670078740157479
11
6.2350393700787397
21
-3.5244881889763779
0
LINE
8
BLACK
6
CONTINUOUS
10
6.2350393700787397
20
-3.5244881889763779
11
6.2349644488188973
21
-3.5248648425196851
0
LINE
8
BLACK
6
CONTINUOUS
10
6.2349644488188973
20
-3.5248648425196851
11
6.2344317716535436
21
-3.5253975196850393
0
LINE
8
BLACK
6
CONTINUOUS
10
6.2344317716535436
20
-3.5253975196850393
11
6.2340551181102359
21
-3.5254724409448817
0
LINE
8
BLACK
6
CONTINUOUS
10
6.2340551181102359
20
-3.5254724409448817
11
6.1175196850393698
21
-3.5254724409448817
0
LINE
8
BLACK
6
CONTINUOUS
10
6.1175196850393698
20
-3.5254724409448817
11
6.1171430314960631
21
-3.5253975196850393
0
LINE
8
BLACK
6
CONTINUOUS
10
6.1171430314960631
20
-3.5253975196850393
11
6.1166103543307084
21
-3.5248648425196851
0
LINE
8
BLACK
6
CONTINUOUS
10
6.1166103543307084
20
-3.5248648425196851
11
6.1165354330708661
21
-3.5244881889763779
0
LINE
8
BLACK
6
CONTINUOUS
10
6.1165354330708661
20
-3.5244881889763779
11
6.1165354330708661
21
-3.4670078740157479
0
LINE
8
BLACK
6
CONTINUOUS
10
6.1165354330708661
20
-3.4670078740157479
11
6.1166103543307084
21
-3.4666312204724408
0
LINE
8
BLACK
6
CONTINUOUS
10
6.1166103543307084
20
-3.4666312204724408
11
6.1171430314960631
21
-3.4660985433070866
0
LINE
8
BLACK
6
CONTINUOUS
10
6.1171430314960631
20
-3.4660985433070866
11
6.1175196850393698
21
-3.4660236220472442
0
LINE
8
BLACK
6
CONTINUOUS
10
6.1175196850393698
20
-3.4660236220472442
11
6.2340551181102359
21
-3.4660236220472442
0
LINE
8
BLACK
6
CONTINUOUS
10
6.2340551181102359
20
-3.4660236220472442
11
6.2344317716535436
21
-3.4660985433070866
0
LINE
8
BLACK
6
CONTINUOUS
10
6.1185039370078735
20
-3.4679921259842521
11
6.1185039370078735
21
-3.5235039370078738
0
LINE
8
BLACK
6
CONTINUOUS
10
6.1185039370078735
20
-3.5235039370078738
11
6.2330708661417322
21
-3.5235039370078738
0
LINE
8
BLACK
6
CONTINUOUS
10
6.2330708661417322
20
-3.5235039370078738
11
6.2330708661417322
21
-3.4679921259842521
0
LINE
8
BLACK
6
CONTINUOUS
10
6.2330708661417322
20
-3.4679921259842521
11
6.1185039370078735
21
-3.4679921259842521
0
LINE
8
BLACK
6
CONTINUOUS
10
6.080416023622047
20
-3.4015709842519684
11
6.0809487007874017
21
-3.4021036614173226
0
LINE
8
BLACK
6
CONTINUOUS
10
6.0809487007874017
20
-3.4021036614173226
11
6.081023622047244
21
-3.4024803149606297
0
LINE
8
BLACK
6
CONTINUOUS
10
6.081023622047244
20
-3.4024803149606297
11
6.081023622047244
21
-3.5190157480314959
0
LINE
8
BLACK
6
CONTINUOUS
10
6.081023622047244
20
-3.5190157480314959
11
6.0809487007874017
21
-3.519392401574803
0
LINE
8
BLACK
6
CONTINUOUS
10
6.0809487007874017
20
-3.519392401574803
11
6.080416023622047
21
-3.5199250787401573
0
LINE
8
BLACK
6
CONTINUOUS
10
6.080416023622047
20
-3.5199250787401573
11
6.0800393700787403
21
-3.52
0
LINE
8
BLACK
6
CONTINUOUS
10
6.0800393700787403
20
-3.52
11
6.0225590551181103
21
-3.52
0
LINE
8
BLACK
6
CONTINUOUS
10
6.0225590551181103
20
-3.52
11
6.0221824015748027
21
-3.5199250787401573
0
LINE
8
BLACK
6
CONTINUOUS
10
6.0221824015748027
20
-3.5199250787401573
11
6.0216497244094489
21
-3.519392401574803
0
LINE
8
BLACK
6
CONTINUOUS
10
6.0216497244094489
20
-3.519392401574803
11
6.0215748031496066
21
-3.5190157480314959
0
LINE
8
BLACK
6
CONTINUOUS
10
6.0215748031496066
20
-3.5190157480314959
11
6.0215748031496066
21
-3.4024803149606297
0
LINE
8
BLACK
6
CONTINUOUS
10
6.0215748031496066
20
-3.4024803149606297
11
6.0216497244094489
21
-3.4021036614173226
0
LINE
8
BLACK
6
CONTINUOUS
10
6.0216497244094489
20
-3.4021036614173226
11
6.0221824015748027
21
-3.4015709842519684
0
LINE
8
BLACK
6
CONTINUOUS
10
6.0221824015748027
20
-3.4015709842519684
11
6.0225590551181103
21
-3.401496062992126
0
LINE
8
BLACK
6
CONTINUOUS
10
6.0225590551181103
20
-3.401496062992126
11
6.0800393700787403
21
-3.401496062992126
0
LINE
8
BLACK
6
CONTINUOUS
10
6.0800393700787403
20
-3.401496062992126
11
6.080416023622047
21
-3.4015709842519684
0
LINE
8
BLACK
6
CONTINUOUS
10
6.023543307086614
20
-3.4034645669291339
11
6.023543307086614
21
-3.5180314960629921
0
LINE
8
BLACK
6
CONTINUOUS
10
6.023543307086614
20
-3.5180314960629921
11
6.0790551181102357
21
-3.5180314960629921
0
LINE
8
BLACK
6
CONTINUOUS
10
6.0790551181102357
20
-3.5180314960629921
11
6.0790551181102357
21
-3.4034645669291339
0
LINE
8
BLACK
6
CONTINUOUS
10
6.0790551181102357
20
-3.4034645669291339
11
6.023543307086614
21
-3.4034645669291339
0
LINE
8
BLACK
6
CONTINUOUS
10
5.3294317716535433
20
-3.4410985433070866
11
5.3299644488188971
21
-3.4416312204724409
0
LINE
8
BLACK
6
CONTINUOUS
10
5.3299644488188971
20
-3.4416312204724409
11
5.3300393700787403
21
-3.442007874015748
0
LINE
8
BLACK
6
CONTINUOUS
10
5.3300393700787403
20
-3.442007874015748
11
5.3300393700787403
21
-3.499488188976378
0
LINE
8
BLACK
6
CONTINUOUS
10
5.3300393700787403
20
-3.499488188976378
11
5.3299644488188971
21
-3.4998648425196848
0
LINE
8
BLACK
6
CONTINUOUS
10
5.3299644488188971
20
-3.4998648425196848
11
5.3294317716535433
21
-3.5003975196850394
0
LINE
8
BLACK
6
CONTINUOUS
10
5.3294317716535433
20
-3.5003975196850394
11
5.3290551181102357
21
-3.5004724409448817
0
LINE
8
BLACK
6
CONTINUOUS
10
5.3290551181102357
20
-3.5004724409448817
11
5.2125196850393696
21
-3.5004724409448817
0
LINE
8
BLACK
6
CONTINUOUS
10
5.2125196850393696
20
-3.5004724409448817
11
5.2121430314960628
21
-3.5003975196850394
0
LINE
8
BLACK
6
CONTINUOUS
10
5.2121430314960628
20
-3.5003975196850394
11
5.2116103543307082
21
-3.4998648425196848
0
LINE
8
BLACK
6
CONTINUOUS
10
5.2116103543307082
20
-3.4998648425196848
11
5.2115354330708659
21
-3.499488188976378
0
LINE
8
BLACK
6
CONTINUOUS
10
5.2115354330708659
20
-3.499488188976378
11
5.2115354330708659
21
-3.442007874015748
0
LINE
8
BLACK
6
CONTINUOUS
10
5.2115354330708659
20
-3.442007874015748
11
5.2116103543307082
21
-3.4416312204724409
0
LINE
8
BLACK
6
CONTINUOUS
10
5.2116103543307082
20
-3.4416312204724409
11
5.2121430314960628
21
-3.4410985433070866
0
LINE
8
BLACK
6
CONTINUOUS
10
5.2121430314960628
20
-3.4410985433070866
11
5.2125196850393696
21
-3.4410236220472439
0
LINE
8
BLACK
6
CONTINUOUS
10
5.2125196850393696
20
-3.4410236220472439
11
5.3290551181102357
21
-3.4410236220472439
0
LINE
8
BLACK
6
CONTINUOUS
10
5.3290551181102357
20
-3.4410236220472439
11
5.3294317716535433
21
-3.4410985433070866
0
LINE
8
BLACK
6
CONTINUOUS
10
5.2135039370078742
20
-3.4429921259842518
11
5.2135039370078742
21
-3.4985039370078739
0
LINE
8
BLACK
6
CONTINUOUS
10
5.2135039370078742
20
-3.4985039370078739
11
5.328070866141732
21
-3.4985039370078739
0
LINE
8
BLACK
6
CONTINUOUS
10
5.328070866141732
20
-3.4985039370078739
11
5.328070866141732
21
-3.4429921259842518
0
LINE
8
BLACK
6
CONTINUOUS
10
5.328070866141732
20
-3.4429921259842518
11
5.2135039370078742
21
-3.4429921259842518
0
LINE
8
BLACK
6
CONTINUOUS
10
5.7976207480314956
20
-3.352437125984252
11
5.7981534251968503
21
-3.3529698031496062
0
LINE
8
BLACK
6
CONTINUOUS
10
5.7981534251968503
20
-3.3529698031496062
11
5.7982283464566926
21
-3.3533464566929134
0
LINE
8
BLACK
6
CONTINUOUS
10
5.7982283464566926
20
-3.3533464566929134
11
5.7982283464566926
21
-3.4990157480314958
0
LINE
8
BLACK
6
CONTINUOUS
10
5.7982283464566926
20
-3.4990157480314958
11
5.7981534251968503
21
-3.499392401574803
0
LINE
8
BLACK
6
CONTINUOUS
10
5.7981534251968503
20
-3.499392401574803
11
5.7976207480314956
21
-3.4999250787401572
0
LINE
8
BLACK
6
CONTINUOUS
10
5.7976207480314956
20
-3.4999250787401572
11
5.7972440944881889
21
-3.5
0
LINE
8
BLACK
6
CONTINUOUS
10
5.7972440944881889
20
-3.5
11
5.7224409448818898
21
-3.5
0
LINE
8
BLACK
6
CONTINUOUS
10
5.7224409448818898
20
-3.5
11
5.7220642913385822
21
-3.4999250787401572
0
LINE
8
BLACK
6
CONTINUOUS
10
5.7220642913385822
20
-3.4999250787401572
11
5.7215316141732284
21
-3.499392401574803
0
LINE
8
BLACK
6
CONTINUOUS
10
5.7215316141732284
20
-3.499392401574803
11
5.7214566929133861
21
-3.4990157480314958
0
LINE
8
BLACK
6
CONTINUOUS
10
5.7214566929133861
20
-3.4990157480314958
11
5.7214566929133861
21
-3.3533464566929134
0
LINE
8
BLACK
6
CONTINUOUS
10
5.7214566929133861
20
-3.3533464566929134
11
5.7215316141732284
21
-3.3529698031496062
0
LINE
8
BLACK
6
CONTINUOUS
10
5.7215316141732284
20
-3.3529698031496062
11
5.7220642913385822
21
-3.352437125984252
0
LINE
8
BLACK
6
CONTINUOUS
10
5.7220642913385822
20
-3.352437125984252
11
5.7224409448818898
21
-3.3523622047244093
0
LINE
8
BLACK
6
CONTINUOUS
10
5.7224409448818898
20
-3.3523622047244093
11
5.7972440944881889
21
-3.3523622047244093
0
LINE
8
BLACK
6
CONTINUOUS
10
5.7972440944881889
20
-3.3523622047244093
11
5.7976207480314956
21
-3.352437125984252
0
LINE
8
BLACK
6
CONTINUOUS
10
5.7234251968503935
20
-3.3543307086614171
11
5.7234251968503935
21
-3.4980314960629921
0
LINE
8
BLACK
6
CONTINUOUS
10
5.7234251968503935
20
-3.4980314960629921
11
5.7962598425196852
21
-3.4980314960629921
0
LINE
8
BLACK
6
CONTINUOUS
10
5.7962598425196852
20
-3.4980314960629921
11
5.7962598425196852
21
-3.3543307086614171
0
LINE
8
BLACK
6
CONTINUOUS
10
5.7962598425196852
20
-3.3543307086614171
11
5.7234251968503935
21
-3.3543307086614171
0
LINE
8
BLACK
6
CONTINUOUS
10
5.8607967322834646
20
-3.3583148425196852
11
5.8611160629921262
21
-3.3585281889763778
0
LINE
8
BLACK
6
CONTINUOUS
10
5.8611160629921262
20
-3.3585281889763778
11
5.9435190551181103
21
-3.440931181102362
0
LINE
8
BLACK
6
CONTINUOUS
10
5.9435190551181103
20
-3.440931181102362
11
5.9437324015748034
21
-3.4412505118110235
0
LINE
8
BLACK
6
CONTINUOUS
10
5.9437324015748034
20
-3.4412505118110235
11
5.9437324015748034
21
-3.4420038188976378
0
LINE
8
BLACK
6
CONTINUOUS
10
5.9437324015748034
20
-3.4420038188976378
11
5.9435190551181103
21
-3.4423231496062989
0
LINE
8
BLACK
6
CONTINUOUS
10
5.9435190551181103
20
-3.4423231496062989
11
5.9028743307086611
21
-3.4829678740157481
0
LINE
8
BLACK
6
CONTINUOUS
10
5.9028743307086611
20
-3.4829678740157481
11
5.9025549999999996
21
-3.4831812204724408
0
LINE
8
BLACK
6
CONTINUOUS
10
5.9025549999999996
20
-3.4831812204724408
11
5.9018016929133861
21
-3.4831812204724408
0
LINE
8
BLACK
6
CONTINUOUS
10
5.9018016929133861
20
-3.4831812204724408
11
5.9014823622047246
21
-3.4829678740157481
0
LINE
8
BLACK
6
CONTINUOUS
10
5.9014823622047246
20
-3.4829678740157481
11
5.8190793700787404
21
-3.4005648818897636
0
LINE
8
BLACK
6
CONTINUOUS
10
5.8190793700787404
20
-3.4005648818897636
11
5.8188660236220473
21
-3.4002455511811025
0
LINE
8
BLACK
6
CONTINUOUS
10
5.8188660236220473
20
-3.4002455511811025
11
5.8188660236220473
21
-3.3994922440944881
0
LINE
8
BLACK
6
CONTINUOUS
10
5.8188660236220473
20
-3.3994922440944881
11
5.8190793700787404
21
-3.3991729133858266
0
LINE
8
BLACK
6
CONTINUOUS
10
5.8190793700787404
20
-3.3991729133858266
11
5.8597240944881888
21
-3.3585281889763778
0
LINE
8
BLACK
6
CONTINUOUS
10
5.8597240944881888
20
-3.3585281889763778
11
5.8600434251968503
21
-3.3583148425196852
0
LINE
8
BLACK
6
CONTINUOUS
10
5.8600434251968503
20
-3.3583148425196852
11
5.8607967322834646
21
-3.3583148425196852
0
LINE
8
BLACK
6
CONTINUOUS
10
5.8211673228346452
20
-3.3998688976377953
11
5.9021783464566928
21
-3.4808799212598425
0
LINE
8
BLACK
6
CONTINUOUS
10
5.9021783464566928
20
-3.4808799212598425
11
5.9414311023622046
21
-3.4416271653543307
0
LINE
8
BLACK
6
CONTINUOUS
10
5.9414311023622046
20
-3.4416271653543307
11
5.860420078740157
21
-3.3606161417322835
0
LINE
8
BLACK
6
CONTINUOUS
10
5.860420078740157
20
-3.3606161417322835
11
5.8211673228346452
21
-3.3998688976377953
0
LINE
8
BLACK
6
CONTINUOUS
10
5.6252191732283467
20
-3.2166103543307085
11
5.6257518503937005
21
-3.2171430314960627
0
LINE
8
BLACK
6
CONTINUOUS
10
5.6257518503937005
20
-3.2171430314960627
11
5.6258267716535428
21
-3.2175196850393699
0
LINE
8
BLACK
6
CONTINUOUS
10
5.6258267716535428
20
-3.2175196850393699
11
5.6258267716535428
21
-3.2314960629921261
0
LINE
8
BLACK
6
CONTINUOUS
10
5.6258267716535428
20
-3.2314960629921261
11
5.6492519685039371
21
-3.2314960629921261
0
LINE
8
BLACK
6
CONTINUOUS
10
5.6492519685039371
20
-3.2314960629921261
11
5.6496286220472438
21
-3.2315709842519684
0
LINE
8
BLACK
6
CONTINUOUS
10
5.6496286220472438
20
-3.2315709842519684
11
5.6501612992125985
21
-3.2321036614173226
0
LINE
8
BLACK
6
CONTINUOUS
10
5.6501612992125985
20
-3.2321036614173226
11
5.6502362204724408
21
-3.2324803149606298
0
LINE
8
BLACK
6
CONTINUOUS
10
5.6502362204724408
20
-3.2324803149606298
11
5.6502362204724408
21
-3.2559055118110236
0
LINE
8
BLACK
6
CONTINUOUS
10
5.6502362204724408
20
-3.2559055118110236
11
5.6642125984251965
21
-3.2559055118110236
0
LINE
8
BLACK
6
CONTINUOUS
10
5.6642125984251965
20
-3.2559055118110236
11
5.6645892519685042
21
-3.2559804330708659
0
LINE
8
BLACK
6
CONTINUOUS
10
5.6645892519685042
20
-3.2559804330708659
11
5.6651219291338579
21
-3.2565131102362206
0
LINE
8
BLACK
6
CONTINUOUS
10
5.6651219291338579
20
-3.2565131102362206
11
5.6651968503937002
21
-3.2568897637795273
0
LINE
8
BLACK
6
CONTINUOUS
10
5.6651968503937002
20
-3.2568897637795273
11
5.6651968503937002
21
-3.4246062992125985
0
LINE
8
BLACK
6
CONTINUOUS
10
5.6651968503937002
20
-3.4246062992125985
11
5.6651219291338579
21
-3.4249829527559053
0
LINE
8
BLACK
6
CONTINUOUS
10
5.6651219291338579
20
-3.4249829527559053
11
5.6645892519685042
21
-3.4255156299212599
0
LINE
8
BLACK
6
CONTINUOUS
10
5.6645892519685042
20
-3.4255156299212599
11
5.6642125984251965
21
-3.4255905511811022
0
LINE
8
BLACK
6
CONTINUOUS
10
5.6642125984251965
20
-3.4255905511811022
11
5.6502362204724408
21
-3.4255905511811022
0
LINE
8
BLACK
6
CONTINUOUS
10
5.6502362204724408
20
-3.4255905511811022
11
5.6502362204724408
21
-3.449015748031496
0
LINE
8
BLACK
6
CONTINUOUS
10
5.6502362204724408
20
-3.449015748031496
11
5.6501612992125985
21
-3.4493924015748032
0
LINE
8
BLACK
6
CONTINUOUS
10
5.6501612992125985
20
-3.4493924015748032
11
5.6496286220472438
21
-3.4499250787401574
0
LINE
8
BLACK
6
CONTINUOUS
10
5.6496286220472438
20
-3.4499250787401574
11
5.6492519685039371
21
-3.4499999999999997
0
LINE
8
BLACK
6
CONTINUOUS
10
5.6492519685039371
20
-3.4499999999999997
11
5.6258267716535428
21
-3.4499999999999997
0
LINE
8
BLACK
6
CONTINUOUS
10
5.6258267716535428
20
-3.4499999999999997
11
5.6258267716535428
21
-3.4639763779527559
0
LINE
8
BLACK
6
CONTINUOUS
10
5.6258267716535428
20
-3.4639763779527559
11
5.6257518503937005
21
-3.4643530314960631
0
LINE
8
BLACK
6
CONTINUOUS
10
5.6257518503937005
20
-3.4643530314960631
11
5.6252191732283467
21
-3.4648857086614173
0
LINE
8
BLACK
6
CONTINUOUS
10
5.6252191732283467
20
-3.4648857086614173
11
5.6248425196850391
21
-3.4649606299212596
0
LINE
8
BLACK
6
CONTINUOUS
10
5.6248425196850391
20
-3.4649606299212596
11
5.417755905511811
21
-3.4649606299212596
0
LINE
8
BLACK
6
CONTINUOUS
10
5.417755905511811
20
-3.4649606299212596
11
5.4173792519685042
21
-3.4648857086614173
0
LINE
8
BLACK
6
CONTINUOUS
10
5.4173792519685042
20
-3.4648857086614173
11
5.4168465748031496
21
-3.4643530314960631
0
LINE
8
BLACK
6
CONTINUOUS
10
5.4168465748031496
20
-3.4643530314960631
11
5.4167716535433073
21
-3.4639763779527559
0
LINE
8
BLACK
6
CONTINUOUS
10
5.4167716535433073
20
-3.4639763779527559
11
5.4167716535433073
21
-3.4499999999999997
0
LINE
8
BLACK
6
CONTINUOUS
10
5.4167716535433073
20
-3.4499999999999997
11
5.393346456692913
21
-3.4499999999999997
0
LINE
8
BLACK
6
CONTINUOUS
10
5.393346456692913
20
-3.4499999999999997
11
5.3929698031496063
21
-3.4499250787401574
0
LINE
8
BLACK
6
CONTINUOUS
10
5.3929698031496063
20
-3.4499250787401574
11
5.3924371259842516
21
-3.4493924015748032
0
LINE
8
BLACK
6
CONTINUOUS
10
5.3924371259842516
20
-3.4493924015748032
11
5.3923622047244093
21
-3.449015748031496
0
LINE
8
BLACK
6
CONTINUOUS
10
5.3923622047244093
20
-3.449015748031496
11
5.3923622047244093
21
-3.4255905511811022
0
LINE
8
BLACK
6
CONTINUOUS
10
5.3923622047244093
20
-3.4255905511811022
11
5.3783858267716536
21
-3.4255905511811022
0
LINE
8
BLACK
6
CONTINUOUS
10
5.3783858267716536
20
-3.4255905511811022
11
5.3780091732283459
21
-3.4255156299212599
0
LINE
8
BLACK
6
CONTINUOUS
10
5.3780091732283459
20
-3.4255156299212599
11
5.3774764960629922
21
-3.4249829527559053
0
LINE
8
BLACK
6
CONTINUOUS
10
5.3774764960629922
20
-3.4249829527559053
11
5.3774015748031498
21
-3.4246062992125985
0
LINE
8
BLACK
6
CONTINUOUS
10
5.3774015748031498
20
-3.4246062992125985
11
5.3774015748031498
21
-3.2568897637795273
0
LINE
8
BLACK
6
CONTINUOUS
10
5.3774015748031498
20
-3.2568897637795273
11
5.3774764960629922
21
-3.2565131102362206
0
LINE
8
BLACK
6
CONTINUOUS
10
5.3774764960629922
20
-3.2565131102362206
11
5.3780091732283459
21
-3.2559804330708659
0
LINE
8
BLACK
6
CONTINUOUS
10
5.3780091732283459
20
-3.2559804330708659
11
5.3783858267716536
21
-3.2559055118110236
0
LINE
8
BLACK
6
CONTINUOUS
10
5.3783858267716536
20
-3.2559055118110236
11
5.3923622047244093
21
-3.2559055118110236
0
LINE
8
BLACK
6
CONTINUOUS
10
5.3923622047244093
20
-3.2559055118110236
11
5.3923622047244093
21
-3.2324803149606298
0
LINE
8
BLACK
6
CONTINUOUS
10
5.3923622047244093
20
-3.2324803149606298
11
5.3924371259842516
21
-3.2321036614173226
0
LINE
8
BLACK
6
CONTINUOUS
10
5.3924371259842516
20
-3.2321036614173226
11
5.3929698031496063
21
-3.2315709842519684
0
LINE
8
BLACK
6
CONTINUOUS
10
5.3929698031496063
20
-3.2315709842519684
11
5.393346456692913
21
-3.2314960629921261
0
LINE
8
BLACK
6
CONTINUOUS
10
5.393346456692913
20
-3.2314960629921261
11
5.4167716535433073
21
-3.2314960629921261
0
LINE
8
BLACK
6
CONTINUOUS
10
5.4167716535433073
20
-3.2314960629921261
11
5.4167716535433073
21
-3.2175196850393699
0
LINE
8
BLACK
6
CONTINUOUS
10
5.4167716535433073
20
-3.2175196850393699
11
5.4168465748031496
21
-3.2171430314960627
0
LINE
8
BLACK
6
CONTINUOUS
10
5.4168465748031496
20
-3.2171430314960627
11
5.4173792519685042
21
-3.2166103543307085
0
LINE
8
BLACK
6
CONTINUOUS
10
5.4173792519685042
20
-3.2166103543307085
11
5.417755905511811
21
-3.2165354330708662
0
LINE
8
BLACK
6
CONTINUOUS
10
5.417755905511811
20
-3.2165354330708662
11
5.6248425196850391
21
-3.2165354330708662
0
LINE
8
BLACK
6
CONTINUOUS
10
5.6248425196850391
20
-3.2165354330708662
11
5.6252191732283467
21
-3.2166103543307085
0
LINE
8
BLACK
6
CONTINUOUS
10
5.4187401574803147
20
-3.2185039370078741
11
5.4187401574803147
21
-3.2324803149606298
0
LINE
8
BLACK
6
CONTINUOUS
10
5.4187401574803147
20
-3.2324803149606298
11
5.4186652362204724
21
-3.232856968503937
0
LINE
8
BLACK
6
CONTINUOUS
10
5.4186652362204724
20
-3.232856968503937
11
5.4181325590551177
21
-3.2333896456692912
0
LINE
8
BLACK
6
CONTINUOUS
10
5.4181325590551177
20
-3.2333896456692912
11
5.417755905511811
21
-3.233464566929134
0
LINE
8
BLACK
6
CONTINUOUS
10
5.417755905511811
20
-3.233464566929134
11
5.3943307086614176
21
-3.233464566929134
0
LINE
8
BLACK
6
CONTINUOUS
10
5.3943307086614176
20
-3.233464566929134
11
5.3943307086614176
21
-3.2568897637795273
0
LINE
8
BLACK
6
CONTINUOUS
10
5.3943307086614176
20
-3.2568897637795273
11
5.3942557874015744
21
-3.2572664173228345
0
LINE
8
BLACK
6
CONTINUOUS
10
5.3942557874015744
20
-3.2572664173228345
11
5.3937231102362206
21
-3.2577990944881887
0
LINE
8
BLACK
6
CONTINUOUS
10
5.3937231102362206
20
-3.2577990944881887
11
5.393346456692913
21
-3.2578740157480315
0
LINE
8
BLACK
6
CONTINUOUS
10
5.393346456692913
20
-3.2578740157480315
11
5.3793700787401573
21
-3.2578740157480315
0
LINE
8
BLACK
6
CONTINUOUS
10
5.3793700787401573
20
-3.2578740157480315
11
5.3793700787401573
21
-3.4236220472440944
0
LINE
8
BLACK
6
CONTINUOUS
10
5.3793700787401573
20
-3.4236220472440944
11
5.393346456692913
21
-3.4236220472440944
0
LINE
8
BLACK
6
CONTINUOUS
10
5.393346456692913
20
-3.4236220472440944
11
5.3937231102362206
21
-3.4236969685039371
0
LINE
8
BLACK
6
CONTINUOUS
10
5.3937231102362206
20
-3.4236969685039371
11
5.3942557874015744
21
-3.4242296456692913
0
LINE
8
BLACK
6
CONTINUOUS
10
5.3942557874015744
20
-3.4242296456692913
11
5.3943307086614176
21
-3.4246062992125985
0
LINE
8
BLACK
6
CONTINUOUS
10
5.3943307086614176
20
-3.4246062992125985
11
5.3943307086614176
21
-3.4480314960629919
0
LINE
8
BLACK
6
CONTINUOUS
10
5.3943307086614176
20
-3.4480314960629919
11
5.417755905511811
21
-3.4480314960629919
0
LINE
8
BLACK
6
CONTINUOUS
10
5.417755905511811
20
-3.4480314960629919
11
5.4181325590551177
21
-3.4481064173228346
0
LINE
8
BLACK
6
CONTINUOUS
10
5.4181325590551177
20
-3.4481064173228346
11
5.4186652362204724
21
-3.4486390944881888
0
LINE
8
BLACK
6
CONTINUOUS
10
5.4186652362204724
20
-3.4486390944881888
11
5.4187401574803147
21
-3.449015748031496
0
LINE
8
BLACK
6
CONTINUOUS
10
5.4187401574803147
20
-3.449015748031496
11
5.4187401574803147
21
-3.4629921259842518
0
LINE
8
BLACK
6
CONTINUOUS
10
5.4187401574803147
20
-3.4629921259842518
11
5.6238582677165354
21
-3.4629921259842518
0
LINE
8
BLACK
6
CONTINUOUS
10
5.6238582677165354
20
-3.4629921259842518
11
5.6238582677165354
21
-3.449015748031496
0
LINE
8
BLACK
6
CONTINUOUS
10
5.6238582677165354
20
-3.449015748031496
11
5.6239331889763777
21
-3.4486390944881888
0
LINE
8
BLACK
6
CONTINUOUS
10
5.6239331889763777
20
-3.4486390944881888
11
5.6244658661417324
21
-3.4481064173228346
0
LINE
8
BLACK
6
CONTINUOUS
10
5.6244658661417324
20
-3.4481064173228346
11
5.6248425196850391
21
-3.4480314960629919
0
LINE
8
BLACK
6
CONTINUOUS
10
5.6248425196850391
20
-3.4480314960629919
11
5.6482677165354334
21
-3.4480314960629919
0
LINE
8
BLACK
6
CONTINUOUS
10
5.6482677165354334
20
-3.4480314960629919
11
5.6482677165354334
21
-3.4246062992125985
0
LINE
8
BLACK
6
CONTINUOUS
10
5.6482677165354334
20
-3.4246062992125985
11
5.6483426377952757
21
-3.4242296456692913
0
LINE
8
BLACK
6
CONTINUOUS
10
5.6483426377952757
20
-3.4242296456692913
11
5.6488753149606294
21
-3.4236969685039371
0
LINE
8
BLACK
6
CONTINUOUS
10
5.6488753149606294
20
-3.4236969685039371
11
5.6492519685039371
21
-3.4236220472440944
0
LINE
8
BLACK
6
CONTINUOUS
10
5.6492519685039371
20
-3.4236220472440944
11
5.6632283464566928
21
-3.4236220472440944
0
LINE
8
BLACK
6
CONTINUOUS
10
5.6632283464566928
20
-3.4236220472440944
11
5.6632283464566928
21
-3.2578740157480315
0
LINE
8
BLACK
6
CONTINUOUS
10
5.6632283464566928
20
-3.2578740157480315
11
5.6492519685039371
21
-3.2578740157480315
0
LINE
8
BLACK
6
CONTINUOUS
10
5.6492519685039371
20
-3.2578740157480315
11
5.6488753149606294
21
-3.2577990944881887
0
LINE
8
BLACK
6
CONTINUOUS
10
5.6488753149606294
20
-3.2577990944881887
11
5.6483426377952757
21
-3.2572664173228345
0
LINE
8
BLACK
6
CONTINUOUS
10
5.6483426377952757
20
-3.2572664173228345
11
5.6482677165354334
21
-3.2568897637795273
0
LINE
8
BLACK
6
CONTINUOUS
10
5.6482677165354334
20
-3.2568897637795273
11
5.6482677165354334
21
-3.233464566929134
0
LINE
8
BLACK
6
CONTINUOUS
10
5.6482677165354334
20
-3.233464566929134
11
5.6248425196850391
21
-3.233464566929134
0
LINE
8
BLACK
6
CONTINUOUS
10
5.6248425196850391
20
-3.233464566929134
11
5.6244658661417324
21
-3.2333896456692912
0
LINE
8
BLACK
6
CONTINUOUS
10
5.6244658661417324
20
-3.2333896456692912
11
5.6239331889763777
21
-3.232856968503937
0
LINE
8
BLACK
6
CONTINUOUS
10
5.6239331889763777
20
-3.232856968503937
11
5.6238582677165354
21
-3.2324803149606298
0
LINE
8
BLACK
6
CONTINUOUS
10
5.6238582677165354
20
-3.2324803149606298
11
5.6238582677165354
21
-3.2185039370078741
0
LINE
8
BLACK
6
CONTINUOUS
10
5.6238582677165354
20
-3.2185039370078741
11
5.4187401574803147
21
-3.2185039370078741
0
LINE
8
BLACK
6
CONTINUOUS
10
6.2344317716535436
20
-3.4010985433070866
11
6.2349644488188973
21
-3.4016312204724408
0
LINE
8
BLACK
6
CONTINUOUS
10
6.2349644488188973
20
-3.4016312204724408
11
6.2350393700787397
21
-3.402007874015748
0
LINE
8
BLACK
6
CONTINUOUS
10
6.2350393700787397
20
-3.402007874015748
11
6.2350393700787397
21
-3.459488188976378
0
LINE
8
BLACK
6
CONTINUOUS
10
6.2350393700787397
20
-3.459488188976378
11
6.2349644488188973
21
-3.4598648425196852
0
LINE
8
BLACK
6
CONTINUOUS
10
6.2349644488188973
20
-3.4598648425196852
11
6.2344317716535436
21
-3.4603975196850394
0
LINE
8
BLACK
6
CONTINUOUS
10
6.2344317716535436
20
-3.4603975196850394
11
6.2340551181102359
21
-3.4604724409448817
0
LINE
8
BLACK
6
CONTINUOUS
10
6.2340551181102359
20
-3.4604724409448817
11
6.1175196850393698
21
-3.4604724409448817
0
LINE
8
BLACK
6
CONTINUOUS
10
6.1175196850393698
20
-3.4604724409448817
11
6.1171430314960631
21
-3.4603975196850394
0
LINE
8
BLACK
6
CONTINUOUS
10
6.1171430314960631
20
-3.4603975196850394
11
6.1166103543307084
21
-3.4598648425196852
0
LINE
8
BLACK
6
CONTINUOUS
10
6.1166103543307084
20
-3.4598648425196852
11
6.1165354330708661
21
-3.459488188976378
0
LINE
8
BLACK
6
CONTINUOUS
10
6.1165354330708661
20
-3.459488188976378
11
6.1165354330708661
21
-3.402007874015748
0
LINE
8
BLACK
6
CONTINUOUS
10
6.1165354330708661
20
-3.402007874015748
11
6.1166103543307084
21
-3.4016312204724408
0
LINE
8
BLACK
6
CONTINUOUS
10
6.1166103543307084
20
-3.4016312204724408
11
6.1171430314960631
21
-3.4010985433070866
0
LINE
8
BLACK
6
CONTINUOUS
10
6.1171430314960631
20
-3.4010985433070866
11
6.1175196850393698
21
-3.4010236220472438
0
LINE
8
BLACK
6
CONTINUOUS
10
6.1175196850393698
20
-3.4010236220472438
11
6.2340551181102359
21
-3.4010236220472438
0
LINE
8
BLACK
6
CONTINUOUS
10
6.2340551181102359
20
-3.4010236220472438
11
6.2344317716535436
21
-3.4010985433070866
0
LINE
8
BLACK
6
CONTINUOUS
10
6.1185039370078735
20
-3.4029921259842517
11
6.1185039370078735
21
-3.4585039370078738
0
LINE
8
BLACK
6
CONTINUOUS
10
6.1185039370078735
20
-3.4585039370078738
11
6.2330708661417322
21
-3.4585039370078738
0
LINE
8
BLACK
6
CONTINUOUS
10
6.2330708661417322
20
-3.4585039370078738
11
6.2330708661417322
21
-3.4029921259842517
0
LINE
8
BLACK
6
CONTINUOUS
10
6.2330708661417322
20
-3.4029921259842517
11
6.1185039370078735
21
-3.4029921259842517
0
LINE
8
BLACK
6
CONTINUOUS
10
6.4654160236220468
20
-3.3370827952755904
11
6.4659487007874015
21
-3.3376154724409446
0
LINE
8
BLACK
6
CONTINUOUS
10
6.4659487007874015
20
-3.3376154724409446
11
6.4660236220472438
21
-3.3379921259842518
0
LINE
8
BLACK
6
CONTINUOUS
10
6.4660236220472438
20
-3.3379921259842518
11
6.4660236220472438
21
-3.4545275590551179
0
LINE
8
BLACK
6
CONTINUOUS
10
6.4660236220472438
20
-3.4545275590551179
11
6.4659487007874015
21
-3.4549042125984251
0
LINE
8
BLACK
6
CONTINUOUS
10
6.4659487007874015
20
-3.4549042125984251
11
6.4654160236220468
21
-3.4554368897637793
0
LINE
8
BLACK
6
CONTINUOUS
10
6.4654160236220468
20
-3.4554368897637793
11
6.4650393700787401
21
-3.455511811023622
0
LINE
8
BLACK
6
CONTINUOUS
10
6.4650393700787401
20
-3.455511811023622
11
6.4075590551181101
21
-3.455511811023622
0
LINE
8
BLACK
6
CONTINUOUS
10
6.4075590551181101
20
-3.455511811023622
11
6.4071824015748033
21
-3.4554368897637793
0
LINE
8
BLACK
6
CONTINUOUS
10
6.4071824015748033
20
-3.4554368897637793
11
6.4066497244094487
21
-3.4549042125984251
0
LINE
8
BLACK
6
CONTINUOUS
10
6.4066497244094487
20
-3.4549042125984251
11
6.4065748031496064
21
-3.4545275590551179
0
LINE
8
BLACK
6
CONTINUOUS
10
6.4065748031496064
20
-3.4545275590551179
11
6.4065748031496064
21
-3.3379921259842518
0
LINE
8
BLACK
6
CONTINUOUS
10
6.4065748031496064
20
-3.3379921259842518
11
6.4066497244094487
21
-3.3376154724409446
0
LINE
8
BLACK
6
CONTINUOUS
10
6.4066497244094487
20
-3.3376154724409446
11
6.4071824015748033
21
-3.3370827952755904
0
LINE
8
BLACK
6
CONTINUOUS
10
6.4071824015748033
20
-3.3370827952755904
11
6.4075590551181101
21
-3.3370078740157481
0
LINE
8
BLACK
6
CONTINUOUS
10
6.4075590551181101
20
-3.3370078740157481
11
6.4650393700787401
21
-3.3370078740157481
0
LINE
8
BLACK
6
CONTINUOUS
10
6.4650393700787401
20
-3.3370078740157481
11
6.4654160236220468
21
-3.3370827952755904
0
LINE
8
BLACK
6
CONTINUOUS
10
6.4085433070866138
20
-3.3389763779527559
11
6.4085433070866138
21
-3.4535433070866142
0
LINE
8
BLACK
6
CONTINUOUS
10
6.4085433070866138
20
-3.4535433070866142
11
6.4640551181102364
21
-3.4535433070866142
0
LINE
8
BLACK
6
CONTINUOUS
10
6.4640551181102364
20
-3.4535433070866142
11
6.4640551181102364
21
-3.3389763779527559
0
LINE
8
BLACK
6
CONTINUOUS
10
6.4640551181102364
20
-3.3389763779527559
11
6.4085433070866138
21
-3.3389763779527559
0
LINE
8
BLACK
6
CONTINUOUS
10
5.3294317716535433
20
-3.3710985433070864
11
5.3299644488188971
21
-3.371631220472441
0
LINE
8
BLACK
6
CONTINUOUS
10
5.3299644488188971
20
-3.371631220472441
11
5.3300393700787403
21
-3.3720078740157478
0
LINE
8
BLACK
6
CONTINUOUS
10
5.3300393700787403
20
-3.3720078740157478
11
5.3300393700787403
21
-3.4294881889763777
0
LINE
8
BLACK
6
CONTINUOUS
10
5.3300393700787403
20
-3.4294881889763777
11
5.3299644488188971
21
-3.4298648425196849
0
LINE
8
BLACK
6
CONTINUOUS
10
5.3299644488188971
20
-3.4298648425196849
11
5.3294317716535433
21
-3.4303975196850391
0
LINE
8
BLACK
6
CONTINUOUS
10
5.3294317716535433
20
-3.4303975196850391
11
5.3290551181102357
21
-3.4304724409448819
0
LINE
8
BLACK
6
CONTINUOUS
10
5.3290551181102357
20
-3.4304724409448819
11
5.2125196850393696
21
-3.4304724409448819
0
LINE
8
BLACK
6
CONTINUOUS
10
5.2125196850393696
20
-3.4304724409448819
11
5.2121430314960628
21
-3.4303975196850391
0
LINE
8
BLACK
6
CONTINUOUS
10
5.2121430314960628
20
-3.4303975196850391
11
5.2116103543307082
21
-3.4298648425196849
0
LINE
8
BLACK
6
CONTINUOUS
10
5.2116103543307082
20
-3.4298648425196849
11
5.2115354330708659
21
-3.4294881889763777
0
LINE
8
BLACK
6
CONTINUOUS
10
5.2115354330708659
20
-3.4294881889763777
11
5.2115354330708659
21
-3.3720078740157478
0
LINE
8
BLACK
6
CONTINUOUS
10
5.2115354330708659
20
-3.3720078740157478
11
5.2116103543307082
21
-3.371631220472441
0
LINE
8
BLACK
6
CONTINUOUS
10
5.2116103543307082
20
-3.371631220472441
11
5.2121430314960628
21
-3.3710985433070864
0
LINE
8
BLACK
6
CONTINUOUS
10
5.2121430314960628
20
-3.3710985433070864
11
5.2125196850393696
21
-3.371023622047244
0
LINE
8
BLACK
6
CONTINUOUS
10
5.2125196850393696
20
-3.371023622047244
11
5.3290551181102357
21
-3.371023622047244
0
LINE
8
BLACK
6
CONTINUOUS
10
5.3290551181102357
20
-3.371023622047244
11
5.3294317716535433
21
-3.3710985433070864
0
LINE
8
BLACK
6
CONTINUOUS
10
5.2135039370078742
20
-3.3729921259842519
11
5.2135039370078742
21
-3.428503937007874
0
LINE
8
BLACK
6
CONTINUOUS
10
5.2135039370078742
20
-3.428503937007874
11
5.328070866141732
21
-3.428503937007874
0
LINE
8
BLACK
6
CONTINUOUS
10
5.328070866141732
20
-3.428503937007874
11
5.328070866141732
21
-3.3729921259842519
0
LINE
8
BLACK
6
CONTINUOUS
10
5.328070866141732
20
-3.3729921259842519
11
5.2135039370078742
21
-3.3729921259842519
0
LINE
8
BLACK
6
CONTINUOUS
10
6.9146679921259837
20
-3.0840119291338581
11
6.9152006692913384
21
-3.0845446062992123
0
LINE
8
BLACK
6
CONTINUOUS
10
6.9152006692913384
20
-3.0845446062992123
11
6.9152755905511807
21
-3.0849212598425195
0
LINE
8
BLACK
6
CONTINUOUS
10
6.9152755905511807
20
-3.0849212598425195
11
6.9152755905511807
21
-3.4049212598425198
0
LINE
8
BLACK
6
CONTINUOUS
10
6.9152755905511807
20
-3.4049212598425198
11
6.9152006692913384
21
-3.4052979133858265
0
LINE
8
BLACK
6
CONTINUOUS
10
6.9152006692913384
20
-3.4052979133858265
11
6.9146679921259837
21
-3.4058305905511812
0
LINE
8
BLACK
6
CONTINUOUS
10
6.9146679921259837
20
-3.4058305905511812
11
6.914291338582677
21
-3.4059055118110235
0
LINE
8
BLACK
6
CONTINUOUS
10
6.914291338582677
20
-3.4059055118110235
11
6.494291338582677
21
-3.4059055118110235
0
LINE
8
BLACK
6
CONTINUOUS
10
6.494291338582677
20
-3.4059055118110235
11
6.4939146850393703
21
-3.4058305905511812
0
LINE
8
BLACK
6
CONTINUOUS
10
6.4939146850393703
20
-3.4058305905511812
11
6.4933820078740156
21
-3.4052979133858265
0
LINE
8
BLACK
6
CONTINUOUS
10
6.4933820078740156
20
-3.4052979133858265
11
6.4933070866141733
21
-3.4049212598425198
0
LINE
8
BLACK
6
CONTINUOUS
10
6.4933070866141733
20
-3.4049212598425198
11
6.4933070866141733
21
-3.0849212598425195
0
LINE
8
BLACK
6
CONTINUOUS
10
6.4933070866141733
20
-3.0849212598425195
11
6.4933820078740156
21
-3.0845446062992123
0
LINE
8
BLACK
6
CONTINUOUS
10
6.4933820078740156
20
-3.0845446062992123
11
6.4939146850393703
21
-3.0840119291338581
0
LINE
8
BLACK
6
CONTINUOUS
10
6.4939146850393703
20
-3.0840119291338581
11
6.494291338582677
21
-3.0839370078740158
0
LINE
8
BLACK
6
CONTINUOUS
10
6.494291338582677
20
-3.0839370078740158
11
6.914291338582677
21
-3.0839370078740158
0
LINE
8
BLACK
6
CONTINUOUS
10
6.914291338582677
20
-3.0839370078740158
11
6.9146679921259837
21
-3.0840119291338581
0
LINE
8
BLACK
6
CONTINUOUS
10
6.4952755905511808
20
-3.0859055118110237
11
6.4952755905511808
21
-3.4039370078740157
0
LINE
8
BLACK
6
CONTINUOUS
10
6.4952755905511808
20
-3.4039370078740157
11
6.9133070866141733
21
-3.4039370078740157
0
LINE
8
BLACK
6
CONTINUOUS
10
6.9133070866141733
20
-3.4039370078740157
11
6.9133070866141733
21
-3.0859055118110237
0
LINE
8
BLACK
6
CONTINUOUS
10
6.9133070866141733
20
-3.0859055118110237
11
6.4952755905511808
21
-3.0859055118110237
0
LINE
8
BLACK
6
CONTINUOUS
10
6.1316758661417321
20
-3.1847993307086613
11
6.1322085433070868
21
-3.1853320078740155
0
LINE
8
BLACK
6
CONTINUOUS
10
6.1322085433070868
20
-3.1853320078740155
11
6.1322834645669291
21
-3.1857086614173227
0
LINE
8
BLACK
6
CONTINUOUS
10
6.1322834645669291
20
-3.1857086614173227
11
6.1322834645669291
21
-3.3857086614173229
0
LINE
8
BLACK
6
CONTINUOUS
10
6.1322834645669291
20
-3.3857086614173229
11
6.1322085433070868
21
-3.38608531496063
0
LINE
8
BLACK
6
CONTINUOUS
10
6.1322085433070868
20
-3.38608531496063
11
6.1316758661417321
21
-3.3866179921259842
0
LINE
8
BLACK
6
CONTINUOUS
10
6.1316758661417321
20
-3.3866179921259842
11
6.1312992125984254
21
-3.3866929133858266
0
LINE
8
BLACK
6
CONTINUOUS
10
6.1312992125984254
20
-3.3866929133858266
11
5.9712992125984252
21
-3.3866929133858266
0
LINE
8
BLACK
6
CONTINUOUS
10
5.9712992125984252
20
-3.3866929133858266
11
5.9709225590551176
21
-3.3866179921259842
0
LINE
8
BLACK
6
CONTINUOUS
10
5.9709225590551176
20
-3.3866179921259842
11
5.9703898818897638
21
-3.38608531496063
0
LINE
8
BLACK
6
CONTINUOUS
10
5.9703898818897638
20
-3.38608531496063
11
5.9703149606299215
21
-3.3857086614173229
0
LINE
8
BLACK
6
CONTINUOUS
10
5.9703149606299215
20
-3.3857086614173229
11
5.9703149606299215
21
-3.1857086614173227
0
LINE
8
BLACK
6
CONTINUOUS
10
5.9703149606299215
20
-3.1857086614173227
11
5.9703898818897638
21
-3.1853320078740155
0
LINE
8
BLACK
6
CONTINUOUS
10
5.9703898818897638
20
-3.1853320078740155
11
5.9709225590551176
21
-3.1847993307086613
0
LINE
8
BLACK
6
CONTINUOUS
10
5.9709225590551176
20
-3.1847993307086613
11
5.9712992125984252
21
-3.184724409448819
0
LINE
8
BLACK
6
CONTINUOUS
10
5.9712992125984252
20
-3.184724409448819
11
6.1312992125984254
21
-3.184724409448819
0
LINE
8
BLACK
6
CONTINUOUS
10
6.1312992125984254
20
-3.184724409448819
11
6.1316758661417321
21
-3.1847993307086613
0
LINE
8
BLACK
6
CONTINUOUS
10
5.9722834645669289
20
-3.1866929133858268
11
5.9722834645669289
21
-3.3847244094488187
0
LINE
8
BLACK
6
CONTINUOUS
10
5.9722834645669289
20
-3.3847244094488187
11
6.1303149606299208
21
-3.3847244094488187
0
LINE
8
BLACK
6
CONTINUOUS
10
6.1303149606299208
20
-3.3847244094488187
11
6.1303149606299208
21
-3.1866929133858268
0
LINE
8
BLACK
6
CONTINUOUS
10
6.1303149606299208
20
-3.1866929133858268
11
5.9722834645669289
21
-3.1866929133858268
0
LINE
8
BLACK
6
CONTINUOUS
10
5.7710774409448815
20
-3.1929883070866141
11
5.7716101181102362
21
-3.1935209842519683
0
LINE
8
BLACK
6
CONTINUOUS
10
5.7716101181102362
20
-3.1935209842519683
11
5.7716850393700785
21
-3.1938976377952755
0
LINE
8
BLACK
6
CONTINUOUS
10
5.7716850393700785
20
-3.1938976377952755
11
5.7716850393700785
21
-3.3395669291338583
0
LINE
8
BLACK
6
CONTINUOUS
10
5.7716850393700785
20
-3.3395669291338583
11
5.7716101181102362
21
-3.3399435826771651
0
LINE
8
BLACK
6
CONTINUOUS
10
5.7716101181102362
20
-3.3399435826771651
11
5.7710774409448815
21
-3.3404762598425197
0
LINE
8
BLACK
6
CONTINUOUS
10
5.7710774409448815
20
-3.3404762598425197
11
5.7707007874015748
21
-3.340551181102362
0
LINE
8
BLACK
6
CONTINUOUS
10
5.7707007874015748
20
-3.340551181102362
11
5.6958976377952757
21
-3.340551181102362
0
LINE
8
BLACK
6
CONTINUOUS
10
5.6958976377952757
20
-3.340551181102362
11
5.6955209842519681
21
-3.3404762598425197
0
LINE
8
BLACK
6
CONTINUOUS
10
5.6955209842519681
20
-3.3404762598425197
11
5.6949883070866143
21
-3.3399435826771651
0
LINE
8
BLACK
6
CONTINUOUS
10
5.6949883070866143
20
-3.3399435826771651
11
5.6949133858267711
21
-3.3395669291338583
0
LINE
8
BLACK
6
CONTINUOUS
10
5.6949133858267711
20
-3.3395669291338583
11
5.6949133858267711
21
-3.1938976377952755
0
LINE
8
BLACK
6
CONTINUOUS
10
5.6949133858267711
20
-3.1938976377952755
11
5.6949883070866143
21
-3.1935209842519683
0
LINE
8
BLACK
6
CONTINUOUS
10
5.6949883070866143
20
-3.1935209842519683
11
5.6955209842519681
21
-3.1929883070866141
0
LINE
8
BLACK
6
CONTINUOUS
10
5.6955209842519681
20
-3.1929883070866141
11
5.6958976377952757
21
-3.1929133858267718
0
LINE
8
BLACK
6
CONTINUOUS
10
5.6958976377952757
20
-3.1929133858267718
11
5.7707007874015748
21
-3.1929133858267718
0
LINE
8
BLACK
6
CONTINUOUS
10
5.7707007874015748
20
-3.1929133858267718
11
5.7710774409448815
21
-3.1929883070866141
0
LINE
8
BLACK
6
CONTINUOUS
10
5.6968818897637794
20
-3.1948818897637796
11
5.6968818897637794
21
-3.3385826771653542
0
LINE
8
BLACK
6
CONTINUOUS
10
5.6968818897637794
20
-3.3385826771653542
11
5.7697165354330711
21
-3.3385826771653542
0
LINE
8
BLACK
6
CONTINUOUS
10
5.7697165354330711
20
-3.3385826771653542
11
5.7697165354330711
21
-3.1948818897637796
0
LINE
8
BLACK
6
CONTINUOUS
10
5.7697165354330711
20
-3.1948818897637796
11
5.6968818897637794
21
-3.1948818897637796
0
LINE
8
BLACK
6
CONTINUOUS
10
5.3404160236220468
20
-3.2190906692913384
11
5.3409487007874015
21
-3.219623346456693
0
LINE
8
BLACK
6
CONTINUOUS
10
5.3409487007874015
20
-3.219623346456693
11
5.3410236220472438
21
-3.2199999999999998
0
LINE
8
BLACK
6
CONTINUOUS
10
5.3410236220472438
20
-3.2199999999999998
11
5.3410236220472438
21
-3.3365354330708659
0
LINE
8
BLACK
6
CONTINUOUS
10
5.3410236220472438
20
-3.3365354330708659
11
5.3409487007874015
21
-3.336912086614173
0
LINE
8
BLACK
6
CONTINUOUS
10
5.3409487007874015
20
-3.336912086614173
11
5.3404160236220468
21
-3.3374447637795277
0
LINE
8
BLACK
6
CONTINUOUS
10
5.3404160236220468
20
-3.3374447637795277
11
5.3400393700787401
21
-3.33751968503937
0
LINE
8
BLACK
6
CONTINUOUS
10
5.3400393700787401
20
-3.33751968503937
11
5.2825590551181101
21
-3.33751968503937
0
LINE
8
BLACK
6
CONTINUOUS
10
5.2825590551181101
20
-3.33751968503937
11
5.2821824015748033
21
-3.3374447637795277
0
LINE
8
BLACK
6
CONTINUOUS
10
5.2821824015748033
20
-3.3374447637795277
11
5.2816497244094487
21
-3.336912086614173
0
LINE
8
BLACK
6
CONTINUOUS
10
5.2816497244094487
20
-3.336912086614173
11
5.2815748031496064
21
-3.3365354330708659
0
LINE
8
BLACK
6
CONTINUOUS
10
5.2815748031496064
20
-3.3365354330708659
11
5.2815748031496064
21
-3.2199999999999998
0
LINE
8
BLACK
6
CONTINUOUS
10
5.2815748031496064
20
-3.2199999999999998
11
5.2816497244094487
21
-3.219623346456693
0
LINE
8
BLACK
6
CONTINUOUS
10
5.2816497244094487
20
-3.219623346456693
11
5.2821824015748033
21
-3.2190906692913384
0
LINE
8
BLACK
6
CONTINUOUS
10
5.2821824015748033
20
-3.2190906692913384
11
5.2825590551181101
21
-3.219015748031496
0
LINE
8
BLACK
6
CONTINUOUS
10
5.2825590551181101
20
-3.219015748031496
11
5.3400393700787401
21
-3.219015748031496
0
LINE
8
BLACK
6
CONTINUOUS
10
5.3400393700787401
20
-3.219015748031496
11
5.3404160236220468
21
-3.2190906692913384
0
LINE
8
BLACK
6
CONTINUOUS
10
5.2835433070866138
20
-3.2209842519685039
11
5.2835433070866138
21
-3.3355511811023622
0
LINE
8
BLACK
6
CONTINUOUS
10
5.2835433070866138
20
-3.3355511811023622
11
5.3390551181102364
21
-3.3355511811023622
0
LINE
8
BLACK
6
CONTINUOUS
10
5.3390551181102364
20
-3.3355511811023622
11
5.3390551181102364
21
-3.2209842519685039
0
LINE
8
BLACK
6
CONTINUOUS
10
5.3390551181102364
20
-3.2209842519685039
11
5.2835433070866138
21
-3.2209842519685039
0
LINE
8
BLACK
6
CONTINUOUS
10
5.9199435826771651
20
-3.2710985433070867
11
5.9204762598425198
21
-3.2716312204724409
0
LINE
8
BLACK
6
CONTINUOUS
10
5.9204762598425198
20
-3.2716312204724409
11
5.9205511811023621
21
-3.2720078740157481
0
LINE
8
BLACK
6
CONTINUOUS
10
5.9205511811023621
20
-3.2720078740157481
11
5.9205511811023621
21
-3.3294881889763777
0
LINE
8
BLACK
6
CONTINUOUS
10
5.9205511811023621
20
-3.3294881889763777
11
5.9204762598425198
21
-3.3298648425196848
0
LINE
8
BLACK
6
CONTINUOUS
10
5.9204762598425198
20
-3.3298648425196848
11
5.9199435826771651
21
-3.3303975196850395
0
LINE
8
BLACK
6
CONTINUOUS
10
5.9199435826771651
20
-3.3303975196850395
11
5.9195669291338584
21
-3.3304724409448818
0
LINE
8
BLACK
6
CONTINUOUS
10
5.9195669291338584
20
-3.3304724409448818
11
5.8030314960629923
21
-3.3304724409448818
0
LINE
8
BLACK
6
CONTINUOUS
10
5.8030314960629923
20
-3.3304724409448818
11
5.8026548425196847
21
-3.3303975196850395
0
LINE
8
BLACK
6
CONTINUOUS
10
5.8026548425196847
20
-3.3303975196850395
11
5.8021221653543309
21
-3.3298648425196848
0
LINE
8
BLACK
6
CONTINUOUS
10
5.8021221653543309
20
-3.3298648425196848
11
5.8020472440944877
21
-3.3294881889763777
0
LINE
8
BLACK
6
CONTINUOUS
10
5.8020472440944877
20
-3.3294881889763777
11
5.8020472440944877
21
-3.2720078740157481
0
LINE
8
BLACK
6
CONTINUOUS
10
5.8020472440944877
20
-3.2720078740157481
11
5.8021221653543309
21
-3.2716312204724409
0
LINE
8
BLACK
6
CONTINUOUS
10
5.8021221653543309
20
-3.2716312204724409
11
5.8026548425196847
21
-3.2710985433070867
0
LINE
8
BLACK
6
CONTINUOUS
10
5.8026548425196847
20
-3.2710985433070867
11
5.8030314960629923
21
-3.271023622047244
0
LINE
8
BLACK
6
CONTINUOUS
10
5.8030314960629923
20
-3.271023622047244
11
5.9195669291338584
21
-3.271023622047244
0
LINE
8
BLACK
6
CONTINUOUS
10
5.9195669291338584
20
-3.271023622047244
11
5.9199435826771651
21
-3.2710985433070867
0
LINE
8
BLACK
6
CONTINUOUS
10
5.804015748031496
20
-3.2729921259842518
11
5.804015748031496
21
-3.3285039370078739
0
LINE
8
BLACK
6
CONTINUOUS
10
5.804015748031496
20
-3.3285039370078739
11
5.9185826771653538
21
-3.3285039370078739
0
LINE
8
BLACK
6
CONTINUOUS
10
5.9185826771653538
20
-3.3285039370078739
11
5.9185826771653538
21
-3.2729921259842518
0
LINE
8
BLACK
6
CONTINUOUS
10
5.9185826771653538
20
-3.2729921259842518
11
5.804015748031496
21
-3.2729921259842518
0
LINE
8
BLACK
6
CONTINUOUS
10
5.2354160236220473
20
-3.1665709842519685
11
5.235948700787401
21
-3.1671036614173227
0
LINE
8
BLACK
6
CONTINUOUS
10
5.235948700787401
20
-3.1671036614173227
11
5.2360236220472443
21
-3.1674803149606299
0
LINE
8
BLACK
6
CONTINUOUS
10
5.2360236220472443
20
-3.1674803149606299
11
5.2360236220472443
21
-3.284015748031496
0
LINE
8
BLACK
6
CONTINUOUS
10
5.2360236220472443
20
-3.284015748031496
11
5.235948700787401
21
-3.2843924015748032
0
LINE
8
BLACK
6
CONTINUOUS
10
5.235948700787401
20
-3.2843924015748032
11
5.2354160236220473
21
-3.2849250787401574
0
LINE
8
BLACK
6
CONTINUOUS
10
5.2354160236220473
20
-3.2849250787401574
11
5.2350393700787397
21
-3.2850000000000001
0
LINE
8
BLACK
6
CONTINUOUS
10
5.2350393700787397
20
-3.2850000000000001
11
5.1775590551181105
21
-3.2850000000000001
0
LINE
8
BLACK
6
CONTINUOUS
10
5.1775590551181105
20
-3.2850000000000001
11
5.1771824015748029
21
-3.2849250787401574
0
LINE
8
BLACK
6
CONTINUOUS
10
5.1771824015748029
20
-3.2849250787401574
11
5.1766497244094483
21
-3.2843924015748032
0
LINE
8
BLACK
6
CONTINUOUS
10
5.1766497244094483
20
-3.2843924015748032
11
5.1765748031496059
21
-3.284015748031496
0
LINE
8
BLACK
6
CONTINUOUS
10
5.1765748031496059
20
-3.284015748031496
11
5.1765748031496059
21
-3.1674803149606299
0
LINE
8
BLACK
6
CONTINUOUS
10
5.1765748031496059
20
-3.1674803149606299
11
5.1766497244094483
21
-3.1671036614173227
0
LINE
8
BLACK
6
CONTINUOUS
10
5.1766497244094483
20
-3.1671036614173227
11
5.1771824015748029
21
-3.1665709842519685
0
LINE
8
BLACK
6
CONTINUOUS
10
5.1771824015748029
20
-3.1665709842519685
11
5.1775590551181105
21
-3.1664960629921257
0
LINE
8
BLACK
6
CONTINUOUS
10
5.1775590551181105
20
-3.1664960629921257
11
5.2350393700787397
21
-3.1664960629921257
0
LINE
8
BLACK
6
CONTINUOUS
10
5.2350393700787397
20
-3.1664960629921257
11
5.2354160236220473
21
-3.1665709842519685
0
LINE
8
BLACK
6
CONTINUOUS
10
5.1785433070866143
20
-3.1684645669291336
11
5.1785433070866143
21
-3.2830314960629923
0
LINE
8
BLACK
6
CONTINUOUS
10
5.1785433070866143
20
-3.2830314960629923
11
5.2340551181102359
21
-3.2830314960629923
0
LINE
8
BLACK
6
CONTINUOUS
10
5.2340551181102359
20
-3.2830314960629923
11
5.2340551181102359
21
-3.1684645669291336
0
LINE
8
BLACK
6
CONTINUOUS
10
5.2340551181102359
20
-3.1684645669291336
11
5.1785433070866143
21
-3.1684645669291336
0
LINE
8
BLACK
6
CONTINUOUS
10
5.0350223228346458
20
-3.1642481496062991
11
5.0355549999999996
21
-3.1647808267716533
0
LINE
8
BLACK
6
CONTINUOUS
10
5.0355549999999996
20
-3.1647808267716533
11
5.0356299212598428
21
-3.1651574803149605
0
LINE
8
BLACK
6
CONTINUOUS
10
5.0356299212598428
20
-3.1651574803149605
11
5.0356299212598428
21
-3.2816929133858266
0
LINE
8
BLACK
6
CONTINUOUS
10
5.0356299212598428
20
-3.2816929133858266
11
5.0355549999999996
21
-3.2820695669291338
0
LINE
8
BLACK
6
CONTINUOUS
10
5.0355549999999996
20
-3.2820695669291338
11
5.0350223228346458
21
-3.282602244094488
0
LINE
8
BLACK
6
CONTINUOUS
10
5.0350223228346458
20
-3.282602244094488
11
5.0346456692913382
21
-3.2826771653543307
0
LINE
8
BLACK
6
CONTINUOUS
10
5.0346456692913382
20
-3.2826771653543307
11
4.9771653543307082
21
-3.2826771653543307
0
LINE
8
BLACK
6
CONTINUOUS
10
4.9771653543307082
20
-3.2826771653543307
11
4.9767887007874014
21
-3.282602244094488
0
LINE
8
BLACK
6
CONTINUOUS
10
4.9767887007874014
20
-3.282602244094488
11
4.9762560236220468
21
-3.2820695669291338
0
LINE
8
BLACK
6
CONTINUOUS
10
4.9762560236220468
20
-3.2820695669291338
11
4.9761811023622045
21
-3.2816929133858266
0
LINE
8
BLACK
6
CONTINUOUS
10
4.9761811023622045
20
-3.2816929133858266
11
4.9761811023622045
21
-3.1651574803149605
0
LINE
8
BLACK
6
CONTINUOUS
10
4.9761811023622045
20
-3.1651574803149605
11
4.9762560236220468
21
-3.1647808267716533
0
LINE
8
BLACK
6
CONTINUOUS
10
4.9762560236220468
20
-3.1647808267716533
11
4.9767887007874014
21
-3.1642481496062991
0
LINE
8
BLACK
6
CONTINUOUS
10
4.9767887007874014
20
-3.1642481496062991
11
4.9771653543307082
21
-3.1641732283464568
0
LINE
8
BLACK
6
CONTINUOUS
10
4.9771653543307082
20
-3.1641732283464568
11
5.0346456692913382
21
-3.1641732283464568
0
LINE
8
BLACK
6
CONTINUOUS
10
5.0346456692913382
20
-3.1641732283464568
11
5.0350223228346458
21
-3.1642481496062991
0
LINE
8
BLACK
6
CONTINUOUS
10
4.9781496062992128
20
-3.1661417322834646
11
4.9781496062992128
21
-3.2807086614173229
0
LINE
8
BLACK
6
CONTINUOUS
10
4.9781496062992128
20
-3.2807086614173229
11
5.0336614173228345
21
-3.2807086614173229
0
LINE
8
BLACK
6
CONTINUOUS
10
5.0336614173228345
20
-3.2807086614173229
11
5.0336614173228345
21
-3.1661417322834646
0
LINE
8
BLACK
6
CONTINUOUS
10
5.0336614173228345
20
-3.1661417322834646
11
4.9781496062992128
21
-3.1661417322834646
0
LINE
8
BLACK
6
CONTINUOUS
10
5.1590380708661412
20
-3.1640906692913386
11
5.1595707480314958
21
-3.1646233464566929
0
LINE
8
BLACK
6
CONTINUOUS
10
5.1595707480314958
20
-3.1646233464566929
11
5.1596456692913382
21
-3.165
0
LINE
8
BLACK
6
CONTINUOUS
10
5.1596456692913382
20
-3.165
11
5.1596456692913382
21
-3.2815354330708661
0
LINE
8
BLACK
6
CONTINUOUS
10
5.1596456692913382
20
-3.2815354330708661
11
5.1595707480314958
21
-3.2819120866141733
0
LINE
8
BLACK
6
CONTINUOUS
10
5.1595707480314958
20
-3.2819120866141733
11
5.1590380708661412
21
-3.2824447637795275
0
LINE
8
BLACK
6
CONTINUOUS
10
5.1590380708661412
20
-3.2824447637795275
11
5.1586614173228345
21
-3.2825196850393699
0
LINE
8
BLACK
6
CONTINUOUS
10
5.1586614173228345
20
-3.2825196850393699
11
5.1011811023622045
21
-3.2825196850393699
0
LINE
8
BLACK
6
CONTINUOUS
10
5.1011811023622045
20
-3.2825196850393699
11
5.1008044488188977
21
-3.2824447637795275
0
LINE
8
BLACK
6
CONTINUOUS
10
5.1008044488188977
20
-3.2824447637795275
11
5.1002717716535431
21
-3.2819120866141733
0
LINE
8
BLACK
6
CONTINUOUS
10
5.1002717716535431
20
-3.2819120866141733
11
5.1001968503937007
21
-3.2815354330708661
0
LINE
8
BLACK
6
CONTINUOUS
10
5.1001968503937007
20
-3.2815354330708661
11
5.1001968503937007
21
-3.165
0
LINE
8
BLACK
6
CONTINUOUS
10
5.1001968503937007
20
-3.165
11
5.1002717716535431
21
-3.1646233464566929
0
LINE
8
BLACK
6
CONTINUOUS
10
5.1002717716535431
20
-3.1646233464566929
11
5.1008044488188977
21
-3.1640906692913386
0
LINE
8
BLACK
6
CONTINUOUS
10
5.1008044488188977
20
-3.1640906692913386
11
5.1011811023622045
21
-3.1640157480314959
0
LINE
8
BLACK
6
CONTINUOUS
10
5.1011811023622045
20
-3.1640157480314959
11
5.1586614173228345
21
-3.1640157480314959
0
LINE
8
BLACK
6
CONTINUOUS
10
5.1586614173228345
20
-3.1640157480314959
11
5.1590380708661412
21
-3.1640906692913386
0
LINE
8
BLACK
6
CONTINUOUS
10
5.1021653543307082
20
-3.1659842519685037
11
5.1021653543307082
21
-3.280551181102362
0
LINE
8
BLACK
6
CONTINUOUS
10
5.1021653543307082
20
-3.280551181102362
11
5.1576771653543307
21
-3.280551181102362
0
LINE
8
BLACK
6
CONTINUOUS
10
5.1576771653543307
20
-3.280551181102362
11
5.1576771653543307
21
-3.1659842519685037
0
LINE
8
BLACK
6
CONTINUOUS
10
5.1576771653543307
20
-3.1659842519685037
11
5.1021653543307082
21
-3.1659842519685037
0
LINE
8
BLACK
6
CONTINUOUS
10
5.0980144488188976
20
-3.1640512992125984
11
5.0985471259842514
21
-3.1645839763779526
0
LINE
8
BLACK
6
CONTINUOUS
10
5.0985471259842514
20
-3.1645839763779526
11
5.0986220472440946
21
-3.1649606299212598
0
LINE
8
BLACK
6
CONTINUOUS
10
5.0986220472440946
20
-3.1649606299212598
11
5.0986220472440946
21
-3.2814960629921259
0
LINE
8
BLACK
6
CONTINUOUS
10
5.0986220472440946
20
-3.2814960629921259
11
5.0985471259842514
21
-3.2818727165354331
0
LINE
8
BLACK
6
CONTINUOUS
10
5.0985471259842514
20
-3.2818727165354331
11
5.0980144488188976
21
-3.2824053937007873
0
LINE
8
BLACK
6
CONTINUOUS
10
5.0980144488188976
20
-3.2824053937007873
11
5.09763779527559
21
-3.2824803149606296
0
LINE
8
BLACK
6
CONTINUOUS
10
5.09763779527559
20
-3.2824803149606296
11
5.0401574803149609
21
-3.2824803149606296
0
LINE
8
BLACK
6
CONTINUOUS
10
5.0401574803149609
20
-3.2824803149606296
11
5.0397808267716533
21
-3.2824053937007873
0
LINE
8
BLACK
6
CONTINUOUS
10
5.0397808267716533
20
-3.2824053937007873
11
5.0392481496062995
21
-3.2818727165354331
0
LINE
8
BLACK
6
CONTINUOUS
10
5.0392481496062995
20
-3.2818727165354331
11
5.0391732283464563
21
-3.2814960629921259
0
LINE
8
BLACK
6
CONTINUOUS
10
5.0391732283464563
20
-3.2814960629921259
11
5.0391732283464563
21
-3.1649606299212598
0
LINE
8
BLACK
6
CONTINUOUS
10
5.0391732283464563
20
-3.1649606299212598
11
5.0392481496062995
21
-3.1645839763779526
0
LINE
8
BLACK
6
CONTINUOUS
10
5.0392481496062995
20
-3.1645839763779526
11
5.0397808267716533
21
-3.1640512992125984
0
LINE
8
BLACK
6
CONTINUOUS
10
5.0397808267716533
20
-3.1640512992125984
11
5.0401574803149609
21
-3.1639763779527557
0
LINE
8
BLACK
6
CONTINUOUS
10
5.0401574803149609
20
-3.1639763779527557
11
5.09763779527559
21
-3.1639763779527557
0
LINE
8
BLACK
6
CONTINUOUS
10
5.09763779527559
20
-3.1639763779527557
11
5.0980144488188976
21
-3.1640512992125984
0
LINE
8
BLACK
6
CONTINUOUS
10
5.0411417322834646
20
-3.1659448818897635
11
5.0411417322834646
21
-3.2805118110236218
0
LINE
8
BLACK
6
CONTINUOUS
10
5.0411417322834646
20
-3.2805118110236218
11
5.0966535433070863
21
-3.2805118110236218
0
LINE
8
BLACK
6
CONTINUOUS
10
5.0966535433070863
20
-3.2805118110236218
11
5.0966535433070863
21
-3.1659448818897635
0
LINE
8
BLACK
6
CONTINUOUS
10
5.0966535433070863
20
-3.1659448818897635
11
5.0411417322834646
21
-3.1659448818897635
0
LINE
8
BLACK
6
CONTINUOUS
10
6.4740774409448818
20
-3.1301733464566928
11
6.4746101181102365
21
-3.130706023622047
0
LINE
8
BLACK
6
CONTINUOUS
10
6.4746101181102365
20
-3.130706023622047
11
6.4746850393700788
21
-3.1310826771653542
0
LINE
8
BLACK
6
CONTINUOUS
10
6.4746850393700788
20
-3.1310826771653542
11
6.4746850393700788
21
-3.276751968503937
0
LINE
8
BLACK
6
CONTINUOUS
10
6.4746850393700788
20
-3.276751968503937
11
6.4746101181102365
21
-3.2771286220472442
0
LINE
8
BLACK
6
CONTINUOUS
10
6.4746101181102365
20
-3.2771286220472442
11
6.4740774409448818
21
-3.2776612992125984
0
LINE
8
BLACK
6
CONTINUOUS
10
6.4740774409448818
20
-3.2776612992125984
11
6.4737007874015751
21
-3.2777362204724407
0
LINE
8
BLACK
6
CONTINUOUS
10
6.4737007874015751
20
-3.2777362204724407
11
6.3988976377952751
21
-3.2777362204724407
0
LINE
8
BLACK
6
CONTINUOUS
10
6.3988976377952751
20
-3.2777362204724407
11
6.3985209842519684
21
-3.2776612992125984
0
LINE
8
BLACK
6
CONTINUOUS
10
6.3985209842519684
20
-3.2776612992125984
11
6.3979883070866137
21
-3.2771286220472442
0
LINE
8
BLACK
6
CONTINUOUS
10
6.3979883070866137
20
-3.2771286220472442
11
6.3979133858267714
21
-3.276751968503937
0
LINE
8
BLACK
6
CONTINUOUS
10
6.3979133858267714
20
-3.276751968503937
11
6.3979133858267714
21
-3.1310826771653542
0
LINE
8
BLACK
6
CONTINUOUS
10
6.3979133858267714
20
-3.1310826771653542
11
6.3979883070866137
21
-3.130706023622047
0
LINE
8
BLACK
6
CONTINUOUS
10
6.3979883070866137
20
-3.130706023622047
11
6.3985209842519684
21
-3.1301733464566928
0
LINE
8
BLACK
6
CONTINUOUS
10
6.3985209842519684
20
-3.1301733464566928
11
6.3988976377952751
21
-3.1300984251968504
0
LINE
8
BLACK
6
CONTINUOUS
10
6.3988976377952751
20
-3.1300984251968504
11
6.4737007874015751
21
-3.1300984251968504
0
LINE
8
BLACK
6
CONTINUOUS
10
6.4737007874015751
20
-3.1300984251968504
11
6.4740774409448818
21
-3.1301733464566928
0
LINE
8
BLACK
6
CONTINUOUS
10
6.3998818897637797
20
-3.1320669291338583
11
6.3998818897637797
21
-3.2757677165354329
0
LINE
8
BLACK
6
CONTINUOUS
10
6.3998818897637797
20
-3.2757677165354329
11
6.4727165354330705
21
-3.2757677165354329
0
LINE
8
BLACK
6
CONTINUOUS
10
6.4727165354330705
20
-3.2757677165354329
11
6.4727165354330705
21
-3.1320669291338583
0
LINE
8
BLACK
6
CONTINUOUS
10
6.4727165354330705
20
-3.1320669291338583
11
6.3998818897637797
21
-3.1320669291338583
0
LINE
8
BLACK
6
CONTINUOUS
10
5.9367308267716536
20
-3.1018899212598425
11
5.9370501574803152
21
-3.1021032677165352
0
LINE
8
BLACK
6
CONTINUOUS
10
5.9370501574803152
20
-3.1021032677165352
11
5.9899439763779529
21
-3.154997086614173
0
LINE
8
BLACK
6
CONTINUOUS
10
5.9899439763779529
20
-3.154997086614173
11
5.9901573228346452
21
-3.1553164173228345
0
LINE
8
BLACK
6
CONTINUOUS
10
5.9901573228346452
20
-3.1553164173228345
11
5.9901573228346452
21
-3.1560697244094489
0
LINE
8
BLACK
6
CONTINUOUS
10
5.9901573228346452
20
-3.1560697244094489
11
5.9899439763779529
21
-3.15638905511811
0
LINE
8
BLACK
6
CONTINUOUS
10
5.9899439763779529
20
-3.15638905511811
11
5.8869402362204726
21
-3.2593927952755903
0
LINE
8
BLACK
6
CONTINUOUS
10
5.8869402362204726
20
-3.2593927952755903
11
5.8866209055118111
21
-3.2596061417322835
0
LINE
8
BLACK
6
CONTINUOUS
10
5.8866209055118111
20
-3.2596061417322835
11
5.8858675984251967
21
-3.2596061417322835
0
LINE
8
BLACK
6
CONTINUOUS
10
5.8858675984251967
20
-3.2596061417322835
11
5.8855482677165352
21
-3.2593927952755903
0
LINE
8
BLACK
6
CONTINUOUS
10
5.8855482677165352
20
-3.2593927952755903
11
5.8326544488188974
21
-3.2064989763779526
0
LINE
8
BLACK
6
CONTINUOUS
10
5.8326544488188974
20
-3.2064989763779526
11
5.8324411023622043
21
-3.2061796456692915
0
LINE
8
BLACK
6
CONTINUOUS
10
5.8324411023622043
20
-3.2061796456692915
11
5.8324411023622043
21
-3.2054263385826771
0
LINE
8
BLACK
6
CONTINUOUS
10
5.8324411023622043
20
-3.2054263385826771
11
5.8326544488188974
21
-3.2051070078740156
0
LINE
8
BLACK
6
CONTINUOUS
10
5.8326544488188974
20
-3.2051070078740156
11
5.9356581889763778
21
-3.1021032677165352
0
LINE
8
BLACK
6
CONTINUOUS
10
5.9356581889763778
20
-3.1021032677165352
11
5.9359775196850393
21
-3.1018899212598425
0
LINE
8
BLACK
6
CONTINUOUS
10
5.9359775196850393
20
-3.1018899212598425
11
5.9367308267716536
21
-3.1018899212598425
0
LINE
8
BLACK
6
CONTINUOUS
10
5.8347424015748031
20
-3.2058029921259843
11
5.8862442519685034
21
-3.2573048425196851
0
LINE
8
BLACK
6
CONTINUOUS
10
5.8862442519685034
20
-3.2573048425196851
11
5.9878560236220473
21
-3.1556930708661417
0
LINE
8
BLACK
6
CONTINUOUS
10
5.9878560236220473
20
-3.1556930708661417
11
5.936354173228346
21
-3.1041912204724409
0
LINE
8
BLACK
6
CONTINUOUS
10
5.936354173228346
20
-3.1041912204724409
11
5.8347424015748031
21
-3.2058029921259843
0
LINE
8
BLACK
6
CONTINUOUS
10
5.8314160236220474
20
-3.1305709842519684
11
5.8319487007874011
21
-3.1311036614173227
0
LINE
8
BLACK
6
CONTINUOUS
10
5.8319487007874011
20
-3.1311036614173227
11
5.8320236220472443
21
-3.1314803149606298
0
LINE
8
BLACK
6
CONTINUOUS
10
5.8320236220472443
20
-3.1314803149606298
11
5.8320236220472443
21
-3.248015748031496
0
LINE
8
BLACK
6
CONTINUOUS
10
5.8320236220472443
20
-3.248015748031496
11
5.8319487007874011
21
-3.2483924015748031
0
LINE
8
BLACK
6
CONTINUOUS
10
5.8319487007874011
20
-3.2483924015748031
11
5.8314160236220474
21
-3.2489250787401573
0
LINE
8
BLACK
6
CONTINUOUS
10
5.8314160236220474
20
-3.2489250787401573
11
5.8310393700787397
21
-3.2490000000000001
0
LINE
8
BLACK
6
CONTINUOUS
10
5.8310393700787397
20
-3.2490000000000001
11
5.7735590551181097
21
-3.2490000000000001
0
LINE
8
BLACK
6
CONTINUOUS
10
5.7735590551181097
20
-3.2490000000000001
11
5.773182401574803
21
-3.2489250787401573
0
LINE
8
BLACK
6
CONTINUOUS
10
5.773182401574803
20
-3.2489250787401573
11
5.7726497244094483
21
-3.2483924015748031
0
LINE
8
BLACK
6
CONTINUOUS
10
5.7726497244094483
20
-3.2483924015748031
11
5.772574803149606
21
-3.248015748031496
0
LINE
8
BLACK
6
CONTINUOUS
10
5.772574803149606
20
-3.248015748031496
11
5.772574803149606
21
-3.1314803149606298
0
LINE
8
BLACK
6
CONTINUOUS
10
5.772574803149606
20
-3.1314803149606298
11
5.7726497244094483
21
-3.1311036614173227
0
LINE
8
BLACK
6
CONTINUOUS
10
5.7726497244094483
20
-3.1311036614173227
11
5.773182401574803
21
-3.1305709842519684
0
LINE
8
BLACK
6
CONTINUOUS
10
5.773182401574803
20
-3.1305709842519684
11
5.7735590551181097
21
-3.1304960629921261
0
LINE
8
BLACK
6
CONTINUOUS
10
5.7735590551181097
20
-3.1304960629921261
11
5.8310393700787397
21
-3.1304960629921261
0
LINE
8
BLACK
6
CONTINUOUS
10
5.8310393700787397
20
-3.1304960629921261
11
5.8314160236220474
21
-3.1305709842519684
0
LINE
8
BLACK
6
CONTINUOUS
10
5.7745433070866143
20
-3.132464566929134
11
5.7745433070866143
21
-3.2470314960629922
0
LINE
8
BLACK
6
CONTINUOUS
10
5.7745433070866143
20
-3.2470314960629922
11
5.830055118110236
21
-3.2470314960629922
0
LINE
8
BLACK
6
CONTINUOUS
10
5.830055118110236
20
-3.2470314960629922
11
5.830055118110236
21
-3.132464566929134
0
LINE
8
BLACK
6
CONTINUOUS
10
5.830055118110236
20
-3.132464566929134
11
5.7745433070866143
21
-3.132464566929134
0
LINE
8
BLACK
6
CONTINUOUS
10
5.7346916141732285
20
-3.009161535433071
11
5.7352242913385822
21
-3.0096942125984252
0
LINE
8
BLACK
6
CONTINUOUS
10
5.7352242913385822
20
-3.0096942125984252
11
5.7352992125984255
21
-3.0100708661417324
0
LINE
8
BLACK
6
CONTINUOUS
10
5.7352992125984255
20
-3.0100708661417324
11
5.7352992125984255
21
-3.1754251968503935
0
LINE
8
BLACK
6
CONTINUOUS
10
5.7352992125984255
20
-3.1754251968503935
11
5.7352242913385822
21
-3.1758018503937007
0
LINE
8
BLACK
6
CONTINUOUS
10
5.7352242913385822
20
-3.1758018503937007
11
5.7346916141732285
21
-3.1763345275590549
0
LINE
8
BLACK
6
CONTINUOUS
10
5.7346916141732285
20
-3.1763345275590549
11
5.7343149606299209
21
-3.1764094488188976
0
LINE
8
BLACK
6
CONTINUOUS
10
5.7343149606299209
20
-3.1764094488188976
11
5.4862834645669292
21
-3.1764094488188976
0
LINE
8
BLACK
6
CONTINUOUS
10
5.4862834645669292
20
-3.1764094488188976
11
5.4859068110236215
21
-3.1763345275590549
0
LINE
8
BLACK
6
CONTINUOUS
10
5.4859068110236215
20
-3.1763345275590549
11
5.4853741338582678
21
-3.1758018503937007
0
LINE
8
BLACK
6
CONTINUOUS
10
5.4853741338582678
20
-3.1758018503937007
11
5.4852992125984255
21
-3.1754251968503935
0
LINE
8
BLACK
6
CONTINUOUS
10
5.4852992125984255
20
-3.1754251968503935
11
5.4852992125984255
21
-3.0100708661417324
0
LINE
8
BLACK
6
CONTINUOUS
10
5.4852992125984255
20
-3.0100708661417324
11
5.4853741338582678
21
-3.0096942125984252
0
LINE
8
BLACK
6
CONTINUOUS
10
5.4853741338582678
20
-3.0096942125984252
11
5.4859068110236215
21
-3.009161535433071
0
LINE
8
BLACK
6
CONTINUOUS
10
5.4859068110236215
20
-3.009161535433071
11
5.4862834645669292
21
-3.0090866141732282
0
LINE
8
BLACK
6
CONTINUOUS
10
5.4862834645669292
20
-3.0090866141732282
11
5.7343149606299209
21
-3.0090866141732282
0
LINE
8
BLACK
6
CONTINUOUS
10
5.7343149606299209
20
-3.0090866141732282
11
5.7346916141732285
21
-3.009161535433071
0
LINE
8
BLACK
6
CONTINUOUS
10
5.4872677165354329
20
-3.0110551181102361
11
5.4872677165354329
21
-3.1744409448818898
0
LINE
8
BLACK
6
CONTINUOUS
10
5.4872677165354329
20
-3.1744409448818898
11
5.7333307086614171
21
-3.1744409448818898
0
LINE
8
BLACK
6
CONTINUOUS
10
5.7333307086614171
20
-3.1744409448818898
11
5.7333307086614171
21
-3.0110551181102361
0
LINE
8
BLACK
6
CONTINUOUS
10
5.7333307086614171
20
-3.0110551181102361
11
5.4872677165354329
21
-3.0110551181102361
0
LINE
8
BLACK
6
CONTINUOUS
10
6.1119435826771653
20
-3.1060985433070867
11
6.11247625984252
21
-3.1066312204724409
0
LINE
8
BLACK
6
CONTINUOUS
10
6.11247625984252
20
-3.1066312204724409
11
6.1125511811023623
21
-3.1070078740157481
0
LINE
8
BLACK
6
CONTINUOUS
10
6.1125511811023623
20
-3.1070078740157481
11
6.1125511811023623
21
-3.1644881889763781
0
LINE
8
BLACK
6
CONTINUOUS
10
6.1125511811023623
20
-3.1644881889763781
11
6.11247625984252
21
-3.1648648425196848
0
LINE
8
BLACK
6
CONTINUOUS
10
6.11247625984252
20
-3.1648648425196848
11
6.1119435826771653
21
-3.1653975196850395
0
LINE
8
BLACK
6
CONTINUOUS
10
6.1119435826771653
20
-3.1653975196850395
11
6.1115669291338586
21
-3.1654724409448818
0
LINE
8
BLACK
6
CONTINUOUS
10
6.1115669291338586
20
-3.1654724409448818
11
5.9950314960629916
21
-3.1654724409448818
0
LINE
8
BLACK
6
CONTINUOUS
10
5.9950314960629916
20
-3.1654724409448818
11
5.9946548425196848
21
-3.1653975196850395
0
LINE
8
BLACK
6
CONTINUOUS
10
5.9946548425196848
20
-3.1653975196850395
11
5.9941221653543302
21
-3.1648648425196848
0
LINE
8
BLACK
6
CONTINUOUS
10
5.9941221653543302
20
-3.1648648425196848
11
5.9940472440944879
21
-3.1644881889763781
0
LINE
8
BLACK
6
CONTINUOUS
10
5.9940472440944879
20
-3.1644881889763781
11
5.9940472440944879
21
-3.1070078740157481
0
LINE
8
BLACK
6
CONTINUOUS
10
5.9940472440944879
20
-3.1070078740157481
11
5.9941221653543302
21
-3.1066312204724409
0
LINE
8
BLACK
6
CONTINUOUS
10
5.9941221653543302
20
-3.1066312204724409
11
5.9946548425196848
21
-3.1060985433070867
0
LINE
8
BLACK
6
CONTINUOUS
10
5.9946548425196848
20
-3.1060985433070867
11
5.9950314960629916
21
-3.1060236220472439
0
LINE
8
BLACK
6
CONTINUOUS
10
5.9950314960629916
20
-3.1060236220472439
11
6.1115669291338586
21
-3.1060236220472439
0
LINE
8
BLACK
6
CONTINUOUS
10
6.1115669291338586
20
-3.1060236220472439
11
6.1119435826771653
21
-3.1060985433070867
0
LINE
8
BLACK
6
CONTINUOUS
10
5.9960157480314962
20
-3.1079921259842518
11
5.9960157480314962
21
-3.1635039370078739
0
LINE
8
BLACK
6
CONTINUOUS
10
5.9960157480314962
20
-3.1635039370078739
11
6.110582677165354
21
-3.1635039370078739
0
LINE
8
BLACK
6
CONTINUOUS
10
6.110582677165354
20
-3.1635039370078739
11
6.110582677165354
21
-3.1079921259842518
0
LINE
8
BLACK
6
CONTINUOUS
10
6.110582677165354
20
-3.1079921259842518
11
5.9960157480314962
21
-3.1079921259842518
0
LINE
8
BLACK
6
CONTINUOUS
10
5.1567939763779522
20
-3.0228780708661418
11
5.1573266535433069
21
-3.023410748031496
0
LINE
8
BLACK
6
CONTINUOUS
10
5.1573266535433069
20
-3.023410748031496
11
5.1574015748031492
21
-3.0237874015748032
0
LINE
8
BLACK
6
CONTINUOUS
10
5.1574015748031492
20
-3.0237874015748032
11
5.1574015748031492
21
-3.1537086614173226
0
LINE
8
BLACK
6
CONTINUOUS
10
5.1574015748031492
20
-3.1537086614173226
11
5.1573266535433069
21
-3.1540853149606298
0
LINE
8
BLACK
6
CONTINUOUS
10
5.1573266535433069
20
-3.1540853149606298
11
5.1567939763779522
21
-3.154617992125984
0
LINE
8
BLACK
6
CONTINUOUS
10
5.1567939763779522
20
-3.154617992125984
11
5.1564173228346455
21
-3.1546929133858268
0
LINE
8
BLACK
6
CONTINUOUS
10
5.1564173228346455
20
-3.1546929133858268
11
5.0989370078740155
21
-3.1546929133858268
0
LINE
8
BLACK
6
CONTINUOUS
10
5.0989370078740155
20
-3.1546929133858268
11
5.0985603543307088
21
-3.154617992125984
0
LINE
8
BLACK
6
CONTINUOUS
10
5.0985603543307088
20
-3.154617992125984
11
5.0980276771653541
21
-3.1540853149606298
0
LINE
8
BLACK
6
CONTINUOUS
10
5.0980276771653541
20
-3.1540853149606298
11
5.0979527559055118
21
-3.1537086614173226
0
LINE
8
BLACK
6
CONTINUOUS
10
5.0979527559055118
20
-3.1537086614173226
11
5.0979527559055118
21
-3.0237874015748032
0
LINE
8
BLACK
6
CONTINUOUS
10
5.0979527559055118
20
-3.0237874015748032
11
5.0980276771653541
21
-3.023410748031496
0
LINE
8
BLACK
6
CONTINUOUS
10
5.0980276771653541
20
-3.023410748031496
11
5.0985603543307088
21
-3.0228780708661418
0
LINE
8
BLACK
6
CONTINUOUS
10
5.0985603543307088
20
-3.0228780708661418
11
5.0989370078740155
21
-3.022803149606299
0
LINE
8
BLACK
6
CONTINUOUS
10
5.0989370078740155
20
-3.022803149606299
11
5.1564173228346455
21
-3.022803149606299
0
LINE
8
BLACK
6
CONTINUOUS
10
5.1564173228346455
20
-3.022803149606299
11
5.1567939763779522
21
-3.0228780708661418
0
LINE
8
BLACK
6
CONTINUOUS
10
5.0999212598425192
20
-3.0247716535433069
11
5.0999212598425192
21
-3.1527244094488189
0
LINE
8
BLACK
6
CONTINUOUS
10
5.0999212598425192
20
-3.1527244094488189
11
5.1554330708661418
21
-3.1527244094488189
0
LINE
8
BLACK
6
CONTINUOUS
10
5.1554330708661418
20
-3.1527244094488189
11
5.1554330708661418
21
-3.0247716535433069
0
LINE
8
BLACK
6
CONTINUOUS
10
5.1554330708661418
20
-3.0247716535433069
11
5.0999212598425192
21
-3.0247716535433069
0
LINE
8
BLACK
6
CONTINUOUS
10
5.2355341338582679
20
-3.0228780708661418
11
5.2360668110236217
21
-3.023410748031496
0
LINE
8
BLACK
6
CONTINUOUS
10
5.2360668110236217
20
-3.023410748031496
11
5.236141732283464
21
-3.0237874015748032
0
LINE
8
BLACK
6
CONTINUOUS
10
5.236141732283464
20
-3.0237874015748032
11
5.236141732283464
21
-3.1537086614173226
0
LINE
8
BLACK
6
CONTINUOUS
10
5.236141732283464
20
-3.1537086614173226
11
5.2360668110236217
21
-3.1540853149606298
0
LINE
8
BLACK
6
CONTINUOUS
10
5.2360668110236217
20
-3.1540853149606298
11
5.2355341338582679
21
-3.154617992125984
0
LINE
8
BLACK
6
CONTINUOUS
10
5.2355341338582679
20
-3.154617992125984
11
5.2351574803149603
21
-3.1546929133858268
0
LINE
8
BLACK
6
CONTINUOUS
10
5.2351574803149603
20
-3.1546929133858268
11
5.1776771653543303
21
-3.1546929133858268
0
LINE
8
BLACK
6
CONTINUOUS
10
5.1776771653543303
20
-3.1546929133858268
11
5.1773005118110236
21
-3.154617992125984
0
LINE
8
BLACK
6
CONTINUOUS
10
5.1773005118110236
20
-3.154617992125984
11
5.1767678346456689
21
-3.1540853149606298
0
LINE
8
BLACK
6
CONTINUOUS
10
5.1767678346456689
20
-3.1540853149606298
11
5.1766929133858266
21
-3.1537086614173226
0
LINE
8
BLACK
6
CONTINUOUS
10
5.1766929133858266
20
-3.1537086614173226
11
5.1766929133858266
21
-3.0237874015748032
0
LINE
8
BLACK
6
CONTINUOUS
10
5.1766929133858266
20
-3.0237874015748032
11
5.1767678346456689
21
-3.023410748031496
0
LINE
8
BLACK
6
CONTINUOUS
10
5.1767678346456689
20
-3.023410748031496
11
5.1773005118110236
21
-3.0228780708661418
0
LINE
8
BLACK
6
CONTINUOUS
10
5.1773005118110236
20
-3.0228780708661418
11
5.1776771653543303
21
-3.022803149606299
0
LINE
8
BLACK
6
CONTINUOUS
10
5.1776771653543303
20
-3.022803149606299
11
5.2351574803149603
21
-3.022803149606299
0
LINE
8
BLACK
6
CONTINUOUS
10
5.2351574803149603
20
-3.022803149606299
11
5.2355341338582679
21
-3.0228780708661418
0
LINE
8
BLACK
6
CONTINUOUS
10
5.1786614173228349
20
-3.0247716535433069
11
5.1786614173228349
21
-3.1527244094488189
0
LINE
8
BLACK
6
CONTINUOUS
10
5.1786614173228349
20
-3.1527244094488189
11
5.2341732283464566
21
-3.1527244094488189
0
LINE
8
BLACK
6
CONTINUOUS
10
5.2341732283464566
20
-3.1527244094488189
11
5.2341732283464566
21
-3.0247716535433069
0
LINE
8
BLACK
6
CONTINUOUS
10
5.2341732283464566
20
-3.0247716535433069
11
5.1786614173228349
21
-3.0247716535433069
0
CIRCLE
8
BLACK
10
5.8245275590551175
20
-2.9496456692913386
40
0.0068897637795276
0
CIRCLE
8
BLACK
10
5.0371259842519684
20
-2.9496456692913386
40
0.0068897637795276
0
CIRCLE
8
BLACK
10
5.4308267716535434
20
-2.9496456692913386
40
0.0068897637795276
0
CIRCLE
8
BLACK
10
6.6119291338582675
20
-4.1307480314960632
40
0.0068897637795276
0
CIRCLE
8
BLACK
10
6.2182283464566925
20
-4.1307480314960632
40
0.0068897637795276
0
CIRCLE
8
BLACK
10
5.8245275590551175
20
-4.1307480314960632
40
0.0068897637795276
0
CIRCLE
8
BLACK
10
5.0371259842519684
20
-4.1307480314960632
40
0.0068897637795276
0
CIRCLE
8
BLACK
10
6.6119291338582675
20
-2.9496456692913386
40
0.0068897637795276
0
CIRCLE
8
BLACK
10
6.2182283464566925
20
-2.9496456692913386
40
0.0068897637795276
0
CIRCLE
8
BLACK
10
5.4308267716535434
20
-4.1307480314960632
40
0.0068897637795276
0
CIRCLE
8
BLACK
10
5.5921653543307084
20
-3.2797244094488187
40
0.0039370078740157
0
CIRCLE
8
BLACK
10
5.5449212598425195
20
-3.2797244094488187
40
0.0039370078740157
0
CIRCLE
8
BLACK
10
5.4976771653543306
20
-3.2797244094488187
40
0.0039370078740157
0
CIRCLE
8
BLACK
10
5.4504330708661417
20
-3.2797244094488187
40
0.0039370078740157
0
CIRCLE
8
BLACK
10
5.5921653543307084
20
-3.3407480314960627
40
0.0039370078740157
0
CIRCLE
8
BLACK
10
5.5449212598425195
20
-3.3407480314960627
40
0.0039370078740157
0
CIRCLE
8
BLACK
10
5.4976771653543306
20
-3.3407480314960627
40
0.0039370078740157
0
CIRCLE
8
BLACK
10
5.4504330708661417
20
-3.3407480314960627
40
0.0039370078740157
0
CIRCLE
8
BLACK
10
5.5921653543307084
20
-3.4017716535433071
40
0.0039370078740157
0
CIRCLE
8
BLACK
10
5.5449212598425195
20
-3.4017716535433071
40
0.0039370078740157
0
CIRCLE
8
BLACK
10
5.4976771653543306
20
-3.4017716535433071
40
0.0039370078740157
0
CIRCLE
8
BLACK
10
5.4504330708661417
20
-3.4017716535433071
40
0.0039370078740157
0
CIRCLE
8
BLACK
10
6.0181496062992128
20
-3.6763779527559053
40
0.0039370078740157
0
CIRCLE
8
BLACK
10
6.0417716535433073
20
-3.6763779527559053
40
0.0039370078740157
0
CIRCLE
8
BLACK
10
6.0653937007874017
20
-3.6763779527559053
40
0.0039370078740157
0
CIRCLE
8
BLACK
10
6.5892913385826768
20
-3.3581102362204724
40
0.0059055118110236
0
CIRCLE
8
BLACK
10
6.5892913385826768
20
-3.1317322834645669
40
0.0059055118110236
0
CIRCLE
8
BLACK
10
6.5892913385826768
20
-3.9486614173228345
40
0.0059055118110236
0
CIRCLE
8
BLACK
10
6.5892913385826768
20
-3.7222834645669289
40
0.0059055118110236
  0
ENDSEC
  0
EOF
