  0
SECTION
  2
HEADER
  9
$ANGBASE
  50
0.0
  9
$ANGDIR
  70
1
  9
$MEASUREMENT
  70
0
  0
ENDSEC
  0
SECTION
  2
TABLES
  0
TABLE
  2
LTYPE
  70
4
  0
LTYPE
  5
40F
  2
CONTINUOUS
  70
0
  3
Solid line
  72
65
  73
0
  40
0.0
  0
LTYPE
  5
410
  2
DASHDOT
 70
0
  3
Dash Dot ____ _ ____ _
 72
65
 73
4
 40
2.0
 49
1.25
 49
-0.25
 49
0.25
 49
-0.25
  0
LTYPE
  5
411
  2
DASHED
 70
0
  3
Dashed __ __ __ __ __
 72
65
 73
2
 40
0.75
 49
0.5
 49
-0.25
  0
LTYPE
  5
43B
  2
DOTTED
 70
0
  3
Dotted .  .  .  .
 72
65
 73
2
 40
0.2
 49
0.0
 49
-0.2
  0
ENDTAB
  0
TABLE
  2
STYLE
  70
4
  0
STYLE
  2
KICAD
  70
0
  40
0
  41
1
  42
1
  50
0
  71
0
  3
isocp.shx
  0
STYLE
  2
KICADB
  70
0
  40
0
  41
1
  42
1
  50
0
  71
0
  3
isocp.shx
  0
STYLE
  2
KICADI
  70
0
  40
0
  41
1
  42
1
  50
15
  71
0
  3
isocp.shx
  0
STYLE
  2
KICADBI
  70
0
  40
0
  41
1
  42
1
  50
15
  71
0
  3
isocp.shx
  0
ENDTAB
  0
TABLE
  2
LAYER
  70
1
  0
LAYER
  2
BLACK
  70
0
  62
7
  6
CONTINUOUS
  0
ENDTAB
  0
ENDSEC
  0
SECTION
  2
ENTITIES
0
LINE
8
BLACK
6
CONTINUOUS
10
4.9405194488188977
20
-4.1496797637795275
11
4.9406692913385823
21
-4.1504330708661419
0
LINE
8
BLACK
6
CONTINUOUS
10
4.9406692913385823
20
-4.1504330708661419
11
4.9406692913385823
21
-4.3825040157480313
0
LINE
8
BLACK
6
CONTINUOUS
10
4.9406692913385823
20
-4.3825040157480313
11
4.9821423622047245
21
-4.3609145275590553
0
LINE
8
BLACK
6
CONTINUOUS
10
4.9821423622047245
20
-4.3609145275590553
11
4.9828797637795272
21
-4.3606995669291342
0
LINE
8
BLACK
6
CONTINUOUS
10
4.9828797637795272
20
-4.3606995669291342
11
4.9843166535433072
21
-4.3611526377952758
0
LINE
8
BLACK
6
CONTINUOUS
10
4.9843166535433072
20
-4.3611526377952758
11
4.9850123228346455
21
-4.3624890157480314
0
LINE
8
BLACK
6
CONTINUOUS
10
4.9850123228346455
20
-4.3624890157480314
11
4.9845592913385826
21
-4.3639259448818892
0
LINE
8
BLACK
6
CONTINUOUS
10
4.9845592913385826
20
-4.3639259448818892
11
4.983960275590551
21
-4.364406692913386
0
LINE
8
BLACK
6
CONTINUOUS
10
4.983960275590551
20
-4.364406692913386
11
4.9467454330708662
21
-4.3837795275590548
0
LINE
8
BLACK
6
CONTINUOUS
10
4.9467454330708662
20
-4.3837795275590548
11
6.8991601181102364
21
-4.3837795275590548
0
LINE
8
BLACK
6
CONTINUOUS
10
6.8991601181102364
20
-4.3837795275590548
11
6.861945236220472
21
-4.364406692913386
0
LINE
8
BLACK
6
CONTINUOUS
10
6.861945236220472
20
-4.364406692913386
11
6.8613462204724405
21
-4.3639259055118114
0
LINE
8
BLACK
6
CONTINUOUS
10
6.8613462204724405
20
-4.3639259055118114
11
6.8608931496062988
21
-4.3624890157480314
0
LINE
8
BLACK
6
CONTINUOUS
10
6.8608931496062988
20
-4.3624890157480314
11
6.8615888582677167
21
-4.3611526377952758
0
LINE
8
BLACK
6
CONTINUOUS
10
6.8615888582677167
20
-4.3611526377952758
11
6.8630257480314958
21
-4.3606995669291342
0
LINE
8
BLACK
6
CONTINUOUS
10
6.8630257480314958
20
-4.3606995669291342
11
6.8637631102362207
21
-4.3609144881889765
0
LINE
8
BLACK
6
CONTINUOUS
10
6.8637631102362207
20
-4.3609144881889765
11
6.9052362204724407
21
-4.3825040157480313
0
LINE
8
BLACK
6
CONTINUOUS
10
6.9052362204724407
20
-4.3825040157480313
11
6.9052362204724407
21
-4.1504330708661419
0
LINE
8
BLACK
6
CONTINUOUS
10
6.9052362204724407
20
-4.1504330708661419
11
6.9053860629921262
21
-4.1496797637795275
0
LINE
8
BLACK
6
CONTINUOUS
10
6.9053860629921262
20
-4.1496797637795275
11
6.9064514173228346
21
-4.1486144094488191
0
LINE
8
BLACK
6
CONTINUOUS
10
6.9064514173228346
20
-4.1486144094488191
11
6.9079580314960625
21
-4.1486144094488191
0
LINE
8
BLACK
6
CONTINUOUS
10
6.9079580314960625
20
-4.1486144094488191
11
6.9090233858267718
21
-4.1496797637795275
0
LINE
8
BLACK
6
CONTINUOUS
10
6.9090233858267718
20
-4.1496797637795275
11
6.9091732283464564
21
-4.1504330708661419
0
LINE
8
BLACK
6
CONTINUOUS
10
6.9091732283464564
20
-4.1504330708661419
11
6.9091732283464564
21
-4.4088354330708661
0
LINE
8
BLACK
6
CONTINUOUS
10
6.9091732283464564
20
-4.4088354330708661
11
6.9090233858267718
21
-4.4095887401574805
0
LINE
8
BLACK
6
CONTINUOUS
10
6.9090233858267718
20
-4.4095887401574805
11
6.9079580314960625
21
-4.4106540944881889
0
LINE
8
BLACK
6
CONTINUOUS
10
6.9079580314960625
20
-4.4106540944881889
11
6.9064514173228346
21
-4.4106540944881889
0
LINE
8
BLACK
6
CONTINUOUS
10
6.9064514173228346
20
-4.4106540944881889
11
6.9053860629921262
21
-4.4095887401574805
0
LINE
8
BLACK
6
CONTINUOUS
10
6.9053860629921262
20
-4.4095887401574805
11
6.9052362204724407
21
-4.4088354330708661
0
LINE
8
BLACK
6
CONTINUOUS
10
6.9052362204724407
20
-4.4088354330708661
11
6.9052362204724407
21
-4.3889920078740152
0
LINE
8
BLACK
6
CONTINUOUS
10
6.9052362204724407
20
-4.3889920078740152
11
6.8637631102362207
21
-4.4105815748031496
0
LINE
8
BLACK
6
CONTINUOUS
10
6.8637631102362207
20
-4.4105815748031496
11
6.8630257480314958
21
-4.410796496062992
0
LINE
8
BLACK
6
CONTINUOUS
10
6.8630257480314958
20
-4.410796496062992
11
6.8615888582677167
21
-4.4103434251968503
0
LINE
8
BLACK
6
CONTINUOUS
10
6.8615888582677167
20
-4.4103434251968503
11
6.8608931496062988
21
-4.4090070472440948
0
LINE
8
BLACK
6
CONTINUOUS
10
6.8608931496062988
20
-4.4090070472440948
11
6.8613462204724405
21
-4.4075701574803148
0
LINE
8
BLACK
6
CONTINUOUS
10
6.8613462204724405
20
-4.4075701574803148
11
6.861945236220472
21
-4.4070893700787401
0
LINE
8
BLACK
6
CONTINUOUS
10
6.861945236220472
20
-4.4070893700787401
11
6.8991601181102364
21
-4.3877165354330705
0
LINE
8
BLACK
6
CONTINUOUS
10
6.8991601181102364
20
-4.3877165354330705
11
4.9467454330708662
21
-4.3877165354330705
0
LINE
8
BLACK
6
CONTINUOUS
10
4.9467454330708662
20
-4.3877165354330705
11
4.983960275590551
21
-4.4070893700787401
0
LINE
8
BLACK
6
CONTINUOUS
10
4.983960275590551
20
-4.4070893700787401
11
4.9845592913385826
21
-4.407570118110236
0
LINE
8
BLACK
6
CONTINUOUS
10
4.9845592913385826
20
-4.407570118110236
11
4.9850123228346455
21
-4.4090070472440948
0
LINE
8
BLACK
6
CONTINUOUS
10
4.9850123228346455
20
-4.4090070472440948
11
4.9843166535433072
21
-4.4103434251968503
0
LINE
8
BLACK
6
CONTINUOUS
10
4.9843166535433072
20
-4.4103434251968503
11
4.9828797637795272
21
-4.410796496062992
0
LINE
8
BLACK
6
CONTINUOUS
10
4.9828797637795272
20
-4.410796496062992
11
4.9821423622047245
21
-4.4105815354330709
0
LINE
8
BLACK
6
CONTINUOUS
10
4.9821423622047245
20
-4.4105815354330709
11
4.9406692913385823
21
-4.3889920078740152
0
LINE
8
BLACK
6
CONTINUOUS
10
4.9406692913385823
20
-4.3889920078740152
11
4.9406692913385823
21
-4.4088354330708661
0
LINE
8
BLACK
6
CONTINUOUS
10
4.9406692913385823
20
-4.4088354330708661
11
4.9405194488188977
21
-4.4095887401574805
0
LINE
8
BLACK
6
CONTINUOUS
10
4.9405194488188977
20
-4.4095887401574805
11
4.9394540944881893
21
-4.4106540944881889
0
LINE
8
BLACK
6
CONTINUOUS
10
4.9394540944881893
20
-4.4106540944881889
11
4.9379474803149606
21
-4.4106540944881889
0
LINE
8
BLACK
6
CONTINUOUS
10
4.9379474803149606
20
-4.4106540944881889
11
4.9368821259842521
21
-4.4095887401574805
0
LINE
8
BLACK
6
CONTINUOUS
10
4.9368821259842521
20
-4.4095887401574805
11
4.9367322834645666
21
-4.4088354330708661
0
LINE
8
BLACK
6
CONTINUOUS
10
4.9367322834645666
20
-4.4088354330708661
11
4.9367322834645666
21
-4.1504330708661419
0
LINE
8
BLACK
6
CONTINUOUS
10
4.9367322834645666
20
-4.1504330708661419
11
4.9368821259842521
21
-4.1496797637795275
0
LINE
8
BLACK
6
CONTINUOUS
10
4.9368821259842521
20
-4.1496797637795275
11
4.9379474803149606
21
-4.1486144094488191
0
LINE
8
BLACK
6
CONTINUOUS
10
4.9379474803149606
20
-4.1486144094488191
11
4.9394540944881893
21
-4.1486144094488191
0
LINE
8
BLACK
6
CONTINUOUS
10
4.9394540944881893
20
-4.1486144094488191
11
4.9405194488188977
21
-4.1496797637795275
0
LINE
8
BLACK
6
CONTINUOUS
10
5.8466634251968506
20
-4.3161125984251969
11
5.8477278346456689
21
-4.3165535039370075
0
LINE
8
BLACK
6
CONTINUOUS
10
5.8477278346456689
20
-4.3165535039370075
11
5.8485424803149604
21
-4.317368149606299
0
LINE
8
BLACK
6
CONTINUOUS
10
5.8485424803149604
20
-4.317368149606299
11
5.8489833858267719
21
-4.3184325590551182
0
LINE
8
BLACK
6
CONTINUOUS
10
5.8489833858267719
20
-4.3184325590551182
11
5.8489833858267719
21
-4.31958468503937
0
LINE
8
BLACK
6
CONTINUOUS
10
5.8489833858267719
20
-4.31958468503937
11
5.8485424803149604
21
-4.3206490944881892
0
LINE
8
BLACK
6
CONTINUOUS
10
5.8485424803149604
20
-4.3206490944881892
11
5.8477278346456689
21
-4.3214637401574798
0
LINE
8
BLACK
6
CONTINUOUS
10
5.8477278346456689
20
-4.3214637401574798
11
5.8466634251968506
21
-4.3219046456692913
0
LINE
8
BLACK
6
CONTINUOUS
10
5.8466634251968506
20
-4.3219046456692913
11
5.8460873622047247
21
-4.3219613779527561
0
LINE
8
BLACK
6
CONTINUOUS
10
5.8460873622047247
20
-4.3219613779527561
11
5.8300119291338586
21
-4.3219613779527561
0
LINE
8
BLACK
6
CONTINUOUS
10
5.8300119291338586
20
-4.3219613779527561
11
5.8290348031496064
21
-4.3317326377952758
0
LINE
8
BLACK
6
CONTINUOUS
10
5.8290348031496064
20
-4.3317326377952758
11
5.8297687401574798
21
-4.3313657086614175
0
LINE
8
BLACK
6
CONTINUOUS
10
5.8297687401574798
20
-4.3313657086614175
11
5.8303093307086611
21
-4.331158818897638
0
LINE
8
BLACK
6
CONTINUOUS
10
5.8303093307086611
20
-4.331158818897638
11
5.8304151968503932
21
-4.3311512598425193
0
LINE
8
BLACK
6
CONTINUOUS
10
5.8304151968503932
20
-4.3311512598425193
11
5.8305131889763775
21
-4.3311107086614173
0
LINE
8
BLACK
6
CONTINUOUS
10
5.8305131889763775
20
-4.3311107086614173
11
5.8310892519685034
21
-4.3310539763779525
0
LINE
8
BLACK
6
CONTINUOUS
10
5.8310892519685034
20
-4.3310539763779525
11
5.840463070866142
21
-4.3310539763779525
0
LINE
8
BLACK
6
CONTINUOUS
10
5.840463070866142
20
-4.3310539763779525
11
5.8410391338582679
21
-4.3311107086614173
0
LINE
8
BLACK
6
CONTINUOUS
10
5.8410391338582679
20
-4.3311107086614173
11
5.8411371259842522
21
-4.331151299212598
0
LINE
8
BLACK
6
CONTINUOUS
10
5.8411371259842522
20
-4.331151299212598
11
5.8412429527559055
21
-4.331158818897638
0
LINE
8
BLACK
6
CONTINUOUS
10
5.8412429527559055
20
-4.331158818897638
11
5.8417835826771656
21
-4.3313657086614175
0
LINE
8
BLACK
6
CONTINUOUS
10
5.8417835826771656
20
-4.3313657086614175
11
5.8455331102362207
21
-4.333240472440945
0
LINE
8
BLACK
6
CONTINUOUS
10
5.8455331102362207
20
-4.333240472440945
11
5.8457811023622046
21
-4.3333965354330708
0
LINE
8
BLACK
6
CONTINUOUS
10
5.8457811023622046
20
-4.3333965354330708
11
5.8458530708661414
21
-4.3334263779527555
0
LINE
8
BLACK
6
CONTINUOUS
10
5.8458530708661414
20
-4.3334263779527555
11
5.8459340157480311
21
-4.3334928346456696
0
LINE
8
BLACK
6
CONTINUOUS
10
5.8459340157480311
20
-4.3334928346456696
11
5.8460229921259845
21
-4.3335488188976381
0
LINE
8
BLACK
6
CONTINUOUS
10
5.8460229921259845
20
-4.3335488188976381
11
5.8460741338582674
21
-4.33360779527559
0
LINE
8
BLACK
6
CONTINUOUS
10
5.8460741338582674
20
-4.33360779527559
11
5.8463005118110232
21
-4.3337935826771652
0
LINE
8
BLACK
6
CONTINUOUS
10
5.8463005118110232
20
-4.3337935826771652
11
5.8481752755905507
21
-4.3356683464566927
0
LINE
8
BLACK
6
CONTINUOUS
10
5.8481752755905507
20
-4.3356683464566927
11
5.8483610236220471
21
-4.3358946850393698
0
LINE
8
BLACK
6
CONTINUOUS
10
5.8483610236220471
20
-4.3358946850393698
11
5.8484200393700787
21
-4.3359458661417323
0
LINE
8
BLACK
6
CONTINUOUS
10
5.8484200393700787
20
-4.3359458661417323
11
5.8484759842519685
21
-4.3360348031496061
0
LINE
8
BLACK
6
CONTINUOUS
10
5.8484759842519685
20
-4.3360348031496061
11
5.8485424803149604
21
-4.3361157874015746
0
LINE
8
BLACK
6
CONTINUOUS
10
5.8485424803149604
20
-4.3361157874015746
11
5.8485722834645664
21
-4.3361877165354326
0
LINE
8
BLACK
6
CONTINUOUS
10
5.8485722834645664
20
-4.3361877165354326
11
5.8487283858267718
21
-4.3364357480314961
0
LINE
8
BLACK
6
CONTINUOUS
10
5.8487283858267718
20
-4.3364357480314961
11
5.8506031496062993
21
-4.3401852755905512
0
LINE
8
BLACK
6
CONTINUOUS
10
5.8506031496062993
20
-4.3401852755905512
11
5.8508100393700788
21
-4.3407258661417325
0
LINE
8
BLACK
6
CONTINUOUS
10
5.8508100393700788
20
-4.3407258661417325
11
5.8508175590551179
21
-4.3408317322834646
0
LINE
8
BLACK
6
CONTINUOUS
10
5.8508175590551179
20
-4.3408317322834646
11
5.8508581496062995
21
-4.3409297244094489
0
LINE
8
BLACK
6
CONTINUOUS
10
5.8508581496062995
20
-4.3409297244094489
11
5.8509148818897634
21
-4.3415057874015748
0
LINE
8
BLACK
6
CONTINUOUS
10
5.8509148818897634
20
-4.3415057874015748
11
5.8509148818897634
21
-4.3508796062992126
0
LINE
8
BLACK
6
CONTINUOUS
10
5.8509148818897634
20
-4.3508796062992126
11
5.8508581496062995
21
-4.3514556692913384
0
LINE
8
BLACK
6
CONTINUOUS
10
5.8508581496062995
20
-4.3514556692913384
11
5.8508175590551179
21
-4.3515536220472439
0
LINE
8
BLACK
6
CONTINUOUS
10
5.8508175590551179
20
-4.3515536220472439
11
5.8508100393700788
21
-4.3516595275590548
0
LINE
8
BLACK
6
CONTINUOUS
10
5.8508100393700788
20
-4.3516595275590548
11
5.8506031496062993
21
-4.3522001181102361
0
LINE
8
BLACK
6
CONTINUOUS
10
5.8506031496062993
20
-4.3522001181102361
11
5.8487283858267718
21
-4.3559496456692912
0
LINE
8
BLACK
6
CONTINUOUS
10
5.8487283858267718
20
-4.3559496456692912
11
5.8485723228346451
21
-4.3561975196850389
0
LINE
8
BLACK
6
CONTINUOUS
10
5.8485723228346451
20
-4.3561975196850389
11
5.8485425196850391
21
-4.356269566929134
0
LINE
8
BLACK
6
CONTINUOUS
10
5.8485425196850391
20
-4.356269566929134
11
5.8484759842519685
21
-4.3563505905511812
0
LINE
8
BLACK
6
CONTINUOUS
10
5.8484759842519685
20
-4.3563505905511812
11
5.8484200393700787
21
-4.3564395275590551
0
LINE
8
BLACK
6
CONTINUOUS
10
5.8484200393700787
20
-4.3564395275590551
11
5.8483610236220471
21
-4.3564906692913388
0
LINE
8
BLACK
6
CONTINUOUS
10
5.8483610236220471
20
-4.3564906692913388
11
5.8481752755905507
21
-4.3567170472440946
0
LINE
8
BLACK
6
CONTINUOUS
10
5.8481752755905507
20
-4.3567170472440946
11
5.8463005511811019
21
-4.3585918110236221
0
LINE
8
BLACK
6
CONTINUOUS
10
5.8463005511811019
20
-4.3585918110236221
11
5.8460741732283461
21
-4.3587775590551177
0
LINE
8
BLACK
6
CONTINUOUS
10
5.8460741732283461
20
-4.3587775590551177
11
5.8460229921259845
21
-4.358836614173228
0
LINE
8
BLACK
6
CONTINUOUS
10
5.8460229921259845
20
-4.358836614173228
11
5.8459340157480311
21
-4.3588925984251965
0
LINE
8
BLACK
6
CONTINUOUS
10
5.8459340157480311
20
-4.3588925984251965
11
5.8458530708661414
21
-4.3589590551181105
0
LINE
8
BLACK
6
CONTINUOUS
10
5.8458530708661414
20
-4.3589590551181105
11
5.8457811023622046
21
-4.3589888582677165
0
LINE
8
BLACK
6
CONTINUOUS
10
5.8457811023622046
20
-4.3589888582677165
11
5.8455331102362207
21
-4.3591449606299211
0
LINE
8
BLACK
6
CONTINUOUS
10
5.8455331102362207
20
-4.3591449606299211
11
5.8417835826771656
21
-4.3610197244094486
0
LINE
8
BLACK
6
CONTINUOUS
10
5.8417835826771656
20
-4.3610197244094486
11
5.8412429527559055
21
-4.3612266141732281
0
LINE
8
BLACK
6
CONTINUOUS
10
5.8412429527559055
20
-4.3612266141732281
11
5.8411371259842522
21
-4.3612340944881884
0
LINE
8
BLACK
6
CONTINUOUS
10
5.8411371259842522
20
-4.3612340944881884
11
5.8410391338582679
21
-4.3612747244094487
0
LINE
8
BLACK
6
CONTINUOUS
10
5.8410391338582679
20
-4.3612747244094487
11
5.840463070866142
21
-4.3613314566929136
0
LINE
8
BLACK
6
CONTINUOUS
10
5.840463070866142
20
-4.3613314566929136
11
5.8310892519685034
21
-4.3613314566929136
0
LINE
8
BLACK
6
CONTINUOUS
10
5.8310892519685034
20
-4.3613314566929136
11
5.8305131889763775
21
-4.3612747244094487
0
LINE
8
BLACK
6
CONTINUOUS
10
5.8305131889763775
20
-4.3612747244094487
11
5.8304151968503932
21
-4.3612341338582672
0
LINE
8
BLACK
6
CONTINUOUS
10
5.8304151968503932
20
-4.3612341338582672
11
5.8303093307086611
21
-4.3612266141732281
0
LINE
8
BLACK
6
CONTINUOUS
10
5.8303093307086611
20
-4.3612266141732281
11
5.8297687401574798
21
-4.3610197244094486
0
LINE
8
BLACK
6
CONTINUOUS
10
5.8297687401574798
20
-4.3610197244094486
11
5.8260192125984247
21
-4.3591449606299211
0
LINE
8
BLACK
6
CONTINUOUS
10
5.8260192125984247
20
-4.3591449606299211
11
5.825771181102362
21
-4.3589888582677165
0
LINE
8
BLACK
6
CONTINUOUS
10
5.825771181102362
20
-4.3589888582677165
11
5.825699251968504
21
-4.3589590551181105
0
LINE
8
BLACK
6
CONTINUOUS
10
5.825699251968504
20
-4.3589590551181105
11
5.8256182677165356
21
-4.3588925984251965
0
LINE
8
BLACK
6
CONTINUOUS
10
5.8256182677165356
20
-4.3588925984251965
11
5.8255293307086609
21
-4.358836614173228
0
LINE
8
BLACK
6
CONTINUOUS
10
5.8255293307086609
20
-4.358836614173228
11
5.8254781102362205
21
-4.3587775590551177
0
LINE
8
BLACK
6
CONTINUOUS
10
5.8254781102362205
20
-4.3587775590551177
11
5.8252517716535435
21
-4.3585918110236221
0
LINE
8
BLACK
6
CONTINUOUS
10
5.8252517716535435
20
-4.3585918110236221
11
5.8233770078740159
21
-4.3567170078740158
0
LINE
8
BLACK
6
CONTINUOUS
10
5.8233770078740159
20
-4.3567170078740158
11
5.8230098031496063
21
-4.356269566929134
0
LINE
8
BLACK
6
CONTINUOUS
10
5.8230098031496063
20
-4.356269566929134
11
5.8225689370078735
21
-4.3552051574803148
0
LINE
8
BLACK
6
CONTINUOUS
10
5.8225689370078735
20
-4.3552051574803148
11
5.8225689370078735
21
-4.3540530708661418
0
LINE
8
BLACK
6
CONTINUOUS
10
5.8225689370078735
20
-4.3540530708661418
11
5.823009842519685
21
-4.3529886614173225
0
LINE
8
BLACK
6
CONTINUOUS
10
5.823009842519685
20
-4.3529886614173225
11
5.8238245275590552
21
-4.3521739763779523
0
LINE
8
BLACK
6
CONTINUOUS
10
5.8238245275590552
20
-4.3521739763779523
11
5.8248889370078736
21
-4.3517331102362204
0
LINE
8
BLACK
6
CONTINUOUS
10
5.8248889370078736
20
-4.3517331102362204
11
5.8260410236220475
21
-4.3517331102362204
0
LINE
8
BLACK
6
CONTINUOUS
10
5.8260410236220475
20
-4.3517331102362204
11
5.8271054330708658
21
-4.3521740157480311
0
LINE
8
BLACK
6
CONTINUOUS
10
5.8271054330708658
20
-4.3521740157480311
11
5.8275529133858264
21
-4.3525412598425195
0
LINE
8
BLACK
6
CONTINUOUS
10
5.8275529133858264
20
-4.3525412598425195
11
5.8290888188976373
21
-4.3540772047244092
0
LINE
8
BLACK
6
CONTINUOUS
10
5.8290888188976373
20
-4.3540772047244092
11
5.8317862992125979
21
-4.3554259448818895
0
LINE
8
BLACK
6
CONTINUOUS
10
5.8317862992125979
20
-4.3554259448818895
11
5.8397660236220474
21
-4.3554259448818895
0
LINE
8
BLACK
6
CONTINUOUS
10
5.8397660236220474
20
-4.3554259448818895
11
5.8424634645669293
21
-4.3540772047244092
0
LINE
8
BLACK
6
CONTINUOUS
10
5.8424634645669293
20
-4.3540772047244092
11
5.8436605905511811
21
-4.3528800393700786
0
LINE
8
BLACK
6
CONTINUOUS
10
5.8436605905511811
20
-4.3528800393700786
11
5.8450093700787402
21
-4.350182559055118
0
LINE
8
BLACK
6
CONTINUOUS
10
5.8450093700787402
20
-4.350182559055118
11
5.8450093700787402
21
-4.3422028346456694
0
LINE
8
BLACK
6
CONTINUOUS
10
5.8450093700787402
20
-4.3422028346456694
11
5.8436606299212599
21
-4.3395053543307087
0
LINE
8
BLACK
6
CONTINUOUS
10
5.8436606299212599
20
-4.3395053543307087
11
5.8424635039370081
21
-4.3383082283464569
0
LINE
8
BLACK
6
CONTINUOUS
10
5.8424635039370081
20
-4.3383082283464569
11
5.8397660236220474
21
-4.3369594881889766
0
LINE
8
BLACK
6
CONTINUOUS
10
5.8397660236220474
20
-4.3369594881889766
11
5.8317862992125979
21
-4.3369594881889766
0
LINE
8
BLACK
6
CONTINUOUS
10
5.8317862992125979
20
-4.3369594881889766
11
5.8290888188976373
21
-4.3383082283464569
0
LINE
8
BLACK
6
CONTINUOUS
10
5.8290888188976373
20
-4.3383082283464569
11
5.8275528740157476
21
-4.3398441732283466
0
LINE
8
BLACK
6
CONTINUOUS
10
5.8275528740157476
20
-4.3398441732283466
11
5.8271054330708658
21
-4.3402113779527562
0
LINE
8
BLACK
6
CONTINUOUS
10
5.8271054330708658
20
-4.3402113779527562
11
5.8269680708661413
21
-4.3402682677165352
0
LINE
8
BLACK
6
CONTINUOUS
10
5.8269680708661413
20
-4.3402682677165352
11
5.8268529921259837
21
-4.3403624409448822
0
LINE
8
BLACK
6
CONTINUOUS
10
5.8268529921259837
20
-4.3403624409448822
11
5.8264396062992123
21
-4.3404871259842519
0
LINE
8
BLACK
6
CONTINUOUS
10
5.8264396062992123
20
-4.3404871259842519
11
5.8260409842519687
21
-4.3406522834645669
0
LINE
8
BLACK
6
CONTINUOUS
10
5.8260409842519687
20
-4.3406522834645669
11
5.8258923622047245
21
-4.3406522834645669
0
LINE
8
BLACK
6
CONTINUOUS
10
5.8258923622047245
20
-4.3406522834645669
11
5.8257500000000002
21
-4.3406952362204727
0
LINE
8
BLACK
6
CONTINUOUS
10
5.8257500000000002
20
-4.3406952362204727
11
5.8253204724409446
21
-4.3406522834645669
0
LINE
8
BLACK
6
CONTINUOUS
10
5.8253204724409446
20
-4.3406522834645669
11
5.8248889370078736
21
-4.3406522834645669
0
LINE
8
BLACK
6
CONTINUOUS
10
5.8248889370078736
20
-4.3406522834645669
11
5.8247515748031491
21
-4.3405953543307083
0
LINE
8
BLACK
6
CONTINUOUS
10
5.8247515748031491
20
-4.3405953543307083
11
5.8246035826771649
21
-4.3405805905511814
0
LINE
8
BLACK
6
CONTINUOUS
10
5.8246035826771649
20
-4.3405805905511814
11
5.8242231889763776
21
-4.3403765354330703
0
LINE
8
BLACK
6
CONTINUOUS
10
5.8242231889763776
20
-4.3403765354330703
11
5.8238244881889765
21
-4.3402113779527562
0
LINE
8
BLACK
6
CONTINUOUS
10
5.8238244881889765
20
-4.3402113779527562
11
5.8237192913385822
21
-4.340106181102362
0
LINE
8
BLACK
6
CONTINUOUS
10
5.8237192913385822
20
-4.340106181102362
11
5.8235883464566927
21
-4.3400359448818895
0
LINE
8
BLACK
6
CONTINUOUS
10
5.8235883464566927
20
-4.3400359448818895
11
5.8233150787401575
21
-4.3397019685039373
0
LINE
8
BLACK
6
CONTINUOUS
10
5.8233150787401575
20
-4.3397019685039373
11
5.823009842519685
21
-4.3393967322834648
0
LINE
8
BLACK
6
CONTINUOUS
10
5.823009842519685
20
-4.3393967322834648
11
5.8229529133858264
21
-4.3392593700787403
0
LINE
8
BLACK
6
CONTINUOUS
10
5.8229529133858264
20
-4.3392593700787403
11
5.822858779527559
21
-4.3391442913385827
0
LINE
8
BLACK
6
CONTINUOUS
10
5.822858779527559
20
-4.3391442913385827
11
5.8227340551181097
21
-4.3387309055118113
0
LINE
8
BLACK
6
CONTINUOUS
10
5.8227340551181097
20
-4.3387309055118113
11
5.8225689370078735
21
-4.3383322834645668
0
LINE
8
BLACK
6
CONTINUOUS
10
5.8225689370078735
20
-4.3383322834645668
11
5.8225689370078735
21
-4.3381836220472438
0
LINE
8
BLACK
6
CONTINUOUS
10
5.8225689370078735
20
-4.3381836220472438
11
5.8225259842519685
21
-4.3380412992125983
0
LINE
8
BLACK
6
CONTINUOUS
10
5.8225259842519685
20
-4.3380412992125983
11
5.8225268503937002
21
-4.3374624409448819
0
LINE
8
BLACK
6
CONTINUOUS
10
5.8225268503937002
20
-4.3374624409448819
11
5.8244016141732278
21
-4.3187148031496063
0
LINE
8
BLACK
6
CONTINUOUS
10
5.8244016141732278
20
-4.3187148031496063
11
5.824443700787401
21
-4.318504842519685
0
LINE
8
BLACK
6
CONTINUOUS
10
5.824443700787401
20
-4.318504842519685
11
5.824443700787401
21
-4.3184325590551182
0
LINE
8
BLACK
6
CONTINUOUS
10
5.824443700787401
20
-4.3184325590551182
11
5.8244717716535428
21
-4.3183647244094487
0
LINE
8
BLACK
6
CONTINUOUS
10
5.8244717716535428
20
-4.3183647244094487
11
5.8245153937007874
21
-4.3181472440944884
0
LINE
8
BLACK
6
CONTINUOUS
10
5.8245153937007874
20
-4.3181472440944884
11
5.8247194094488188
21
-4.3177669291338585
0
LINE
8
BLACK
6
CONTINUOUS
10
5.8247194094488188
20
-4.3177669291338585
11
5.8248846062992126
21
-4.317368149606299
0
LINE
8
BLACK
6
CONTINUOUS
10
5.8248846062992126
20
-4.317368149606299
11
5.8249897637795272
21
-4.3172629527559057
0
LINE
8
BLACK
6
CONTINUOUS
10
5.8249897637795272
20
-4.3172629527559057
11
5.8250600393700784
21
-4.3171320078740161
0
LINE
8
BLACK
6
CONTINUOUS
10
5.8250600393700784
20
-4.3171320078740161
11
5.8253939763779528
21
-4.3168587401574801
0
LINE
8
BLACK
6
CONTINUOUS
10
5.8253939763779528
20
-4.3168587401574801
11
5.825699251968504
21
-4.3165535039370075
0
LINE
8
BLACK
6
CONTINUOUS
10
5.825699251968504
20
-4.3165535039370075
11
5.8258365748031498
21
-4.3164965748031499
0
LINE
8
BLACK
6
CONTINUOUS
10
5.8258365748031498
20
-4.3164965748031499
11
5.8259516929133861
21
-4.3164024409448816
0
LINE
8
BLACK
6
CONTINUOUS
10
5.8259516929133861
20
-4.3164024409448816
11
5.8263649606299213
21
-4.3162777165354331
0
LINE
8
BLACK
6
CONTINUOUS
10
5.8263649606299213
20
-4.3162777165354331
11
5.8267636614173224
21
-4.3161125984251969
0
LINE
8
BLACK
6
CONTINUOUS
10
5.8267636614173224
20
-4.3161125984251969
11
5.8269843307086608
21
-4.3160908267716538
0
LINE
8
BLACK
6
CONTINUOUS
10
5.8269843307086608
20
-4.3160908267716538
11
5.8270546850393696
21
-4.3160696456692911
0
LINE
8
BLACK
6
CONTINUOUS
10
5.8270546850393696
20
-4.3160696456692911
11
5.8271266535433073
21
-4.3160768110236223
0
LINE
8
BLACK
6
CONTINUOUS
10
5.8271266535433073
20
-4.3160768110236223
11
5.8273397244094483
21
-4.3160558661417321
0
LINE
8
BLACK
6
CONTINUOUS
10
5.8273397244094483
20
-4.3160558661417321
11
5.8460873622047247
21
-4.3160558661417321
0
LINE
8
BLACK
6
CONTINUOUS
10
5.8460873622047247
20
-4.3160558661417321
11
5.8466634251968506
21
-4.3161125984251969
0
LINE
8
BLACK
6
CONTINUOUS
10
5.8766596850393702
20
-4.3161125984251969
11
5.8767576771653545
21
-4.3161531889763776
0
LINE
8
BLACK
6
CONTINUOUS
10
5.8767576771653545
20
-4.3161531889763776
11
5.8768635039370078
21
-4.3161607086614175
0
LINE
8
BLACK
6
CONTINUOUS
10
5.8768635039370078
20
-4.3161607086614175
11
5.8774041338582679
21
-4.316367598425197
0
LINE
8
BLACK
6
CONTINUOUS
10
5.8774041338582679
20
-4.316367598425197
11
5.881153661417323
21
-4.3182423622047246
0
LINE
8
BLACK
6
CONTINUOUS
10
5.881153661417323
20
-4.3182423622047246
11
5.8814016535433069
21
-4.3183984251968504
0
LINE
8
BLACK
6
CONTINUOUS
10
5.8814016535433069
20
-4.3183984251968504
11
5.8814736220472437
21
-4.3184282677165351
0
LINE
8
BLACK
6
CONTINUOUS
10
5.8814736220472437
20
-4.3184282677165351
11
5.8815545669291334
21
-4.3184947244094491
0
LINE
8
BLACK
6
CONTINUOUS
10
5.8815545669291334
20
-4.3184947244094491
11
5.8816435433070868
21
-4.3185507086614177
0
LINE
8
BLACK
6
CONTINUOUS
10
5.8816435433070868
20
-4.3185507086614177
11
5.8816946850393697
21
-4.3186096850393696
0
LINE
8
BLACK
6
CONTINUOUS
10
5.8816946850393697
20
-4.3186096850393696
11
5.8819210629921255
21
-4.3187954724409447
0
LINE
8
BLACK
6
CONTINUOUS
10
5.8819210629921255
20
-4.3187954724409447
11
5.883795826771653
21
-4.3206702362204723
0
LINE
8
BLACK
6
CONTINUOUS
10
5.883795826771653
20
-4.3206702362204723
11
5.8839815748031494
21
-4.3208965748031494
0
LINE
8
BLACK
6
CONTINUOUS
10
5.8839815748031494
20
-4.3208965748031494
11
5.884040590551181
21
-4.3209477559055118
0
LINE
8
BLACK
6
CONTINUOUS
10
5.884040590551181
20
-4.3209477559055118
11
5.8840965354330708
21
-4.3210366929133857
0
LINE
8
BLACK
6
CONTINUOUS
10
5.8840965354330708
20
-4.3210366929133857
11
5.8841630314960627
21
-4.3211176771653541
0
LINE
8
BLACK
6
CONTINUOUS
10
5.8841630314960627
20
-4.3211176771653541
11
5.8841928346456696
21
-4.3211896062992121
0
LINE
8
BLACK
6
CONTINUOUS
10
5.8841928346456696
20
-4.3211896062992121
11
5.8843489370078741
21
-4.3214376377952757
0
LINE
8
BLACK
6
CONTINUOUS
10
5.8843489370078741
20
-4.3214376377952757
11
5.8862237007874016
21
-4.3251871653543308
0
LINE
8
BLACK
6
CONTINUOUS
10
5.8862237007874016
20
-4.3251871653543308
11
5.8862398031496062
21
-4.3252292519685041
0
LINE
8
BLACK
6
CONTINUOUS
10
5.8862398031496062
20
-4.3252292519685041
11
5.8862525196850388
21
-4.3252464173228349
0
LINE
8
BLACK
6
CONTINUOUS
10
5.8862525196850388
20
-4.3252464173228349
11
5.886338818897638
21
-4.3254879921259839
0
LINE
8
BLACK
6
CONTINUOUS
10
5.886338818897638
20
-4.3254879921259839
11
5.8864305905511811
21
-4.3257277559055121
0
LINE
8
BLACK
6
CONTINUOUS
10
5.8864305905511811
20
-4.3257277559055121
11
5.8864320866141728
21
-4.3257490157480314
0
LINE
8
BLACK
6
CONTINUOUS
10
5.8864320866141728
20
-4.3257490157480314
11
5.8864472834645669
21
-4.3257915354330709
0
LINE
8
BLACK
6
CONTINUOUS
10
5.8864472834645669
20
-4.3257915354330709
11
5.8883220472440945
21
-4.3332905905511812
0
LINE
8
BLACK
6
CONTINUOUS
10
5.8883220472440945
20
-4.3332905905511812
11
5.8883368110236223
21
-4.3333904330708659
0
LINE
8
BLACK
6
CONTINUOUS
10
5.8883368110236223
20
-4.3333904330708659
11
5.8883534645669293
21
-4.3334306692913387
0
LINE
8
BLACK
6
CONTINUOUS
10
5.8883534645669293
20
-4.3334306692913387
11
5.8883748031496062
21
-4.333647677165354
0
LINE
8
BLACK
6
CONTINUOUS
10
5.8883748031496062
20
-4.333647677165354
11
5.888406692913386
21
-4.3338631889763777
0
LINE
8
BLACK
6
CONTINUOUS
10
5.888406692913386
20
-4.3338631889763777
11
5.8884002755905511
21
-4.3339061811023623
0
LINE
8
BLACK
6
CONTINUOUS
10
5.8884002755905511
20
-4.3339061811023623
11
5.8884101968503932
21
-4.3340067322834646
0
LINE
8
BLACK
6
CONTINUOUS
10
5.8884101968503932
20
-4.3340067322834646
11
5.8884101968503932
21
-4.3433805511811023
0
LINE
8
BLACK
6
CONTINUOUS
10
5.8884101968503932
20
-4.3433805511811023
11
5.8884002755905511
21
-4.3434810629921259
0
LINE
8
BLACK
6
CONTINUOUS
10
5.8884002755905511
20
-4.3434810629921259
11
5.888406692913386
21
-4.3435240944881892
0
LINE
8
BLACK
6
CONTINUOUS
10
5.888406692913386
20
-4.3435240944881892
11
5.8883748031496062
21
-4.3437395669291341
0
LINE
8
BLACK
6
CONTINUOUS
10
5.8883748031496062
20
-4.3437395669291341
11
5.8883534645669293
21
-4.3439566141732282
0
LINE
8
BLACK
6
CONTINUOUS
10
5.8883534645669293
20
-4.3439566141732282
11
5.8883368110236223
21
-4.3439968110236222
0
LINE
8
BLACK
6
CONTINUOUS
10
5.8883368110236223
20
-4.3439968110236222
11
5.8883220472440945
21
-4.3440966929133857
0
LINE
8
BLACK
6
CONTINUOUS
10
5.8883220472440945
20
-4.3440966929133857
11
5.8864472834645669
21
-4.351595748031496
0
LINE
8
BLACK
6
CONTINUOUS
10
5.8864472834645669
20
-4.351595748031496
11
5.8864320866141728
21
-4.3516382283464567
0
LINE
8
BLACK
6
CONTINUOUS
10
5.8864320866141728
20
-4.3516382283464567
11
5.8864305905511811
21
-4.3516595275590548
0
LINE
8
BLACK
6
CONTINUOUS
10
5.8864305905511811
20
-4.3516595275590548
11
5.886338818897638
21
-4.3518992519685042
0
LINE
8
BLACK
6
CONTINUOUS
10
5.886338818897638
20
-4.3518992519685042
11
5.8862525196850388
21
-4.352140866141732
0
LINE
8
BLACK
6
CONTINUOUS
10
5.8862525196850388
20
-4.352140866141732
11
5.8862398031496062
21
-4.3521579921259841
0
LINE
8
BLACK
6
CONTINUOUS
10
5.8862398031496062
20
-4.3521579921259841
11
5.8862237007874016
21
-4.3522001181102361
0
LINE
8
BLACK
6
CONTINUOUS
10
5.8862237007874016
20
-4.3522001181102361
11
5.8843489370078741
21
-4.3559496456692912
0
LINE
8
BLACK
6
CONTINUOUS
10
5.8843489370078741
20
-4.3559496456692912
11
5.8841928740157483
21
-4.3561975196850389
0
LINE
8
BLACK
6
CONTINUOUS
10
5.8841928740157483
20
-4.3561975196850389
11
5.8841630708661414
21
-4.356269566929134
0
LINE
8
BLACK
6
CONTINUOUS
10
5.8841630708661414
20
-4.356269566929134
11
5.8840965354330708
21
-4.3563505905511812
0
LINE
8
BLACK
6
CONTINUOUS
10
5.8840965354330708
20
-4.3563505905511812
11
5.884040590551181
21
-4.3564395275590551
0
LINE
8
BLACK
6
CONTINUOUS
10
5.884040590551181
20
-4.3564395275590551
11
5.8839815748031494
21
-4.3564906692913388
0
LINE
8
BLACK
6
CONTINUOUS
10
5.8839815748031494
20
-4.3564906692913388
11
5.883795826771653
21
-4.3567170472440946
0
LINE
8
BLACK
6
CONTINUOUS
10
5.883795826771653
20
-4.3567170472440946
11
5.8819211023622042
21
-4.3585918110236221
0
LINE
8
BLACK
6
CONTINUOUS
10
5.8819211023622042
20
-4.3585918110236221
11
5.8816947244094484
21
-4.3587775590551177
0
LINE
8
BLACK
6
CONTINUOUS
10
5.8816947244094484
20
-4.3587775590551177
11
5.8816435433070868
21
-4.358836614173228
0
LINE
8
BLACK
6
CONTINUOUS
10
5.8816435433070868
20
-4.358836614173228
11
5.8815545669291334
21
-4.3588925984251965
0
LINE
8
BLACK
6
CONTINUOUS
10
5.8815545669291334
20
-4.3588925984251965
11
5.8814736220472437
21
-4.3589590551181105
0
LINE
8
BLACK
6
CONTINUOUS
10
5.8814736220472437
20
-4.3589590551181105
11
5.8814016535433069
21
-4.3589888582677165
0
LINE
8
BLACK
6
CONTINUOUS
10
5.8814016535433069
20
-4.3589888582677165
11
5.881153661417323
21
-4.3591449606299211
0
LINE
8
BLACK
6
CONTINUOUS
10
5.881153661417323
20
-4.3591449606299211
11
5.8774041338582679
21
-4.3610197244094486
0
LINE
8
BLACK
6
CONTINUOUS
10
5.8774041338582679
20
-4.3610197244094486
11
5.8768635039370078
21
-4.3612266141732281
0
LINE
8
BLACK
6
CONTINUOUS
10
5.8768635039370078
20
-4.3612266141732281
11
5.8767576771653545
21
-4.3612340944881884
0
LINE
8
BLACK
6
CONTINUOUS
10
5.8767576771653545
20
-4.3612340944881884
11
5.8766596850393702
21
-4.3612747244094487
0
LINE
8
BLACK
6
CONTINUOUS
10
5.8766596850393702
20
-4.3612747244094487
11
5.8760836220472443
21
-4.3613314566929136
0
LINE
8
BLACK
6
CONTINUOUS
10
5.8760836220472443
20
-4.3613314566929136
11
5.8723340944881892
21
-4.3613314566929136
0
LINE
8
BLACK
6
CONTINUOUS
10
5.8723340944881892
20
-4.3613314566929136
11
5.8717580314960625
21
-4.3612747244094487
0
LINE
8
BLACK
6
CONTINUOUS
10
5.8717580314960625
20
-4.3612747244094487
11
5.8716600393700782
21
-4.3612341338582672
0
LINE
8
BLACK
6
CONTINUOUS
10
5.8716600393700782
20
-4.3612341338582672
11
5.8715541732283461
21
-4.3612266141732281
0
LINE
8
BLACK
6
CONTINUOUS
10
5.8715541732283461
20
-4.3612266141732281
11
5.8710135826771648
21
-4.3610197244094486
0
LINE
8
BLACK
6
CONTINUOUS
10
5.8710135826771648
20
-4.3610197244094486
11
5.8672640551181097
21
-4.3591449606299211
0
LINE
8
BLACK
6
CONTINUOUS
10
5.8672640551181097
20
-4.3591449606299211
11
5.867016023622047
21
-4.3589888582677165
0
LINE
8
BLACK
6
CONTINUOUS
10
5.867016023622047
20
-4.3589888582677165
11
5.866944094488189
21
-4.3589590551181105
0
LINE
8
BLACK
6
CONTINUOUS
10
5.866944094488189
20
-4.3589590551181105
11
5.8668631102362205
21
-4.3588925984251965
0
LINE
8
BLACK
6
CONTINUOUS
10
5.8668631102362205
20
-4.3588925984251965
11
5.8667741732283467
21
-4.358836614173228
0
LINE
8
BLACK
6
CONTINUOUS
10
5.8667741732283467
20
-4.358836614173228
11
5.8667229527559055
21
-4.3587775590551177
0
LINE
8
BLACK
6
CONTINUOUS
10
5.8667229527559055
20
-4.3587775590551177
11
5.8664966141732284
21
-4.3585918110236221
0
LINE
8
BLACK
6
CONTINUOUS
10
5.8664966141732284
20
-4.3585918110236221
11
5.8646218503937009
21
-4.3567170078740158
0
LINE
8
BLACK
6
CONTINUOUS
10
5.8646218503937009
20
-4.3567170078740158
11
5.8644361023622045
21
-4.3564906692913388
0
LINE
8
BLACK
6
CONTINUOUS
10
5.8644361023622045
20
-4.3564906692913388
11
5.8643771259842516
21
-4.3564395275590551
0
LINE
8
BLACK
6
CONTINUOUS
10
5.8643771259842516
20
-4.3564395275590551
11
5.8643211417322831
21
-4.3563505905511812
0
LINE
8
BLACK
6
CONTINUOUS
10
5.8643211417322831
20
-4.3563505905511812
11
5.8642546456692912
21
-4.356269566929134
0
LINE
8
BLACK
6
CONTINUOUS
10
5.8642546456692912
20
-4.356269566929134
11
5.8642248031496065
21
-4.3561975196850389
0
LINE
8
BLACK
6
CONTINUOUS
10
5.8642248031496065
20
-4.3561975196850389
11
5.8640687795275586
21
-4.3559496456692912
0
LINE
8
BLACK
6
CONTINUOUS
10
5.8640687795275586
20
-4.3559496456692912
11
5.862194015748031
21
-4.3522001181102361
0
LINE
8
BLACK
6
CONTINUOUS
10
5.862194015748031
20
-4.3522001181102361
11
5.8621778740157477
21
-4.3521579921259841
0
LINE
8
BLACK
6
CONTINUOUS
10
5.8621778740157477
20
-4.3521579921259841
11
5.8621651968503938
21
-4.352140866141732
0
LINE
8
BLACK
6
CONTINUOUS
10
5.8621651968503938
20
-4.352140866141732
11
5.8620787401574805
21
-4.3518988976377955
0
LINE
8
BLACK
6
CONTINUOUS
10
5.8620787401574805
20
-4.3518988976377955
11
5.8619871259842515
21
-4.3516594881889761
0
LINE
8
BLACK
6
CONTINUOUS
10
5.8619871259842515
20
-4.3516594881889761
11
5.8619855905511811
21
-4.3516382283464567
0
LINE
8
BLACK
6
CONTINUOUS
10
5.8619855905511811
20
-4.3516382283464567
11
5.8619704330708657
21
-4.351595748031496
0
LINE
8
BLACK
6
CONTINUOUS
10
5.8619704330708657
20
-4.351595748031496
11
5.8600956692913382
21
-4.3440966929133857
0
LINE
8
BLACK
6
CONTINUOUS
10
5.8600956692913382
20
-4.3440966929133857
11
5.8600808661417325
21
-4.3439968110236222
0
LINE
8
BLACK
6
CONTINUOUS
10
5.8600808661417325
20
-4.3439968110236222
11
5.8600642519685042
21
-4.3439566141732282
0
LINE
8
BLACK
6
CONTINUOUS
10
5.8600642519685042
20
-4.3439566141732282
11
5.8600428740157477
21
-4.3437395669291341
0
LINE
8
BLACK
6
CONTINUOUS
10
5.8600428740157477
20
-4.3437395669291341
11
5.8600110236220475
21
-4.3435240944881892
0
LINE
8
BLACK
6
CONTINUOUS
10
5.8600110236220475
20
-4.3435240944881892
11
5.8600174015748028
21
-4.3434810629921259
0
LINE
8
BLACK
6
CONTINUOUS
10
5.8600174015748028
20
-4.3434810629921259
11
5.8600075196850394
21
-4.3433805511811023
0
LINE
8
BLACK
6
CONTINUOUS
10
5.8600075196850394
20
-4.3433805511811023
11
5.8600075196850394
21
-4.3340067322834646
0
LINE
8
BLACK
6
CONTINUOUS
10
5.8600075196850394
20
-4.3340067322834646
11
5.8600174015748028
21
-4.3339061811023623
0
LINE
8
BLACK
6
CONTINUOUS
10
5.8600174015748028
20
-4.3339061811023623
11
5.8600110236220475
21
-4.3338631889763777
0
LINE
8
BLACK
6
CONTINUOUS
10
5.8600110236220475
20
-4.3338631889763777
11
5.8600428740157477
21
-4.333647677165354
0
LINE
8
BLACK
6
CONTINUOUS
10
5.8600428740157477
20
-4.333647677165354
11
5.8600642519685042
21
-4.3334306692913387
0
LINE
8
BLACK
6
CONTINUOUS
10
5.8600642519685042
20
-4.3334306692913387
11
5.8600808661417325
21
-4.3333904330708659
0
LINE
8
BLACK
6
CONTINUOUS
10
5.8600808661417325
20
-4.3333904330708659
11
5.8600956692913382
21
-4.3332905905511812
0
LINE
8
BLACK
6
CONTINUOUS
10
5.8600956692913382
20
-4.3332905905511812
11
5.8619704330708657
21
-4.3257915354330709
0
LINE
8
BLACK
6
CONTINUOUS
10
5.8619704330708657
20
-4.3257915354330709
11
5.8619855905511811
21
-4.3257490157480314
0
LINE
8
BLACK
6
CONTINUOUS
10
5.8619855905511811
20
-4.3257490157480314
11
5.8619871259842515
21
-4.3257277952755908
0
LINE
8
BLACK
6
CONTINUOUS
10
5.8619871259842515
20
-4.3257277952755908
11
5.8620787401574805
21
-4.3254883464566927
0
LINE
8
BLACK
6
CONTINUOUS
10
5.8620787401574805
20
-4.3254883464566927
11
5.8621651968503938
21
-4.3252464173228349
0
LINE
8
BLACK
6
CONTINUOUS
10
5.8621651968503938
20
-4.3252464173228349
11
5.8621778740157477
21
-4.3252292519685041
0
LINE
8
BLACK
6
CONTINUOUS
10
5.8621778740157477
20
-4.3252292519685041
11
5.862194015748031
21
-4.3251871653543308
0
LINE
8
BLACK
6
CONTINUOUS
10
5.862194015748031
20
-4.3251871653543308
11
5.8640687795275586
21
-4.3214376377952757
0
LINE
8
BLACK
6
CONTINUOUS
10
5.8640687795275586
20
-4.3214376377952757
11
5.8642248425196852
21
-4.3211896062992121
0
LINE
8
BLACK
6
CONTINUOUS
10
5.8642248425196852
20
-4.3211896062992121
11
5.86425468503937
21
-4.3211176771653541
0
LINE
8
BLACK
6
CONTINUOUS
10
5.86425468503937
20
-4.3211176771653541
11
5.8643211417322831
21
-4.3210366929133857
0
LINE
8
BLACK
6
CONTINUOUS
10
5.8643211417322831
20
-4.3210366929133857
11
5.8643771259842516
21
-4.3209477559055118
0
LINE
8
BLACK
6
CONTINUOUS
10
5.8643771259842516
20
-4.3209477559055118
11
5.8644361023622045
21
-4.3208965748031494
0
LINE
8
BLACK
6
CONTINUOUS
10
5.8644361023622045
20
-4.3208965748031494
11
5.8646218897637796
21
-4.3206702362204723
0
LINE
8
BLACK
6
CONTINUOUS
10
5.8646218897637796
20
-4.3206702362204723
11
5.8664966535433072
21
-4.3187954724409447
0
LINE
8
BLACK
6
CONTINUOUS
10
5.8664966535433072
20
-4.3187954724409447
11
5.8667229921259842
21
-4.3186096850393696
0
LINE
8
BLACK
6
CONTINUOUS
10
5.8667229921259842
20
-4.3186096850393696
11
5.8667741732283467
21
-4.3185507086614177
0
LINE
8
BLACK
6
CONTINUOUS
10
5.8667741732283467
20
-4.3185507086614177
11
5.8668631102362205
21
-4.3184947244094491
0
LINE
8
BLACK
6
CONTINUOUS
10
5.8668631102362205
20
-4.3184947244094491
11
5.866944094488189
21
-4.3184282677165351
0
LINE
8
BLACK
6
CONTINUOUS
10
5.866944094488189
20
-4.3184282677165351
11
5.867016023622047
21
-4.3183984251968504
0
LINE
8
BLACK
6
CONTINUOUS
10
5.867016023622047
20
-4.3183984251968504
11
5.8672640551181097
21
-4.3182423622047246
0
LINE
8
BLACK
6
CONTINUOUS
10
5.8672640551181097
20
-4.3182423622047246
11
5.8710135826771648
21
-4.316367598425197
0
LINE
8
BLACK
6
CONTINUOUS
10
5.8710135826771648
20
-4.316367598425197
11
5.8715541732283461
21
-4.3161607086614175
0
LINE
8
BLACK
6
CONTINUOUS
10
5.8715541732283461
20
-4.3161607086614175
11
5.8716600393700782
21
-4.3161531496062988
0
LINE
8
BLACK
6
CONTINUOUS
10
5.8716600393700782
20
-4.3161531496062988
11
5.8717580314960625
21
-4.3161125984251969
0
LINE
8
BLACK
6
CONTINUOUS
10
5.8717580314960625
20
-4.3161125984251969
11
5.8723340944881892
21
-4.3160558661417321
0
LINE
8
BLACK
6
CONTINUOUS
10
5.8723340944881892
20
-4.3160558661417321
11
5.8760836220472443
21
-4.3160558661417321
0
LINE
8
BLACK
6
CONTINUOUS
10
5.8760836220472443
20
-4.3160558661417321
11
5.8766596850393702
21
-4.3161125984251969
0
LINE
8
BLACK
6
CONTINUOUS
10
5.8703336614173223
20
-4.3233101181102365
11
5.8691365354330705
21
-4.3245072440944883
0
LINE
8
BLACK
6
CONTINUOUS
10
5.8691365354330705
20
-4.3245072440944883
11
5.8676210236220472
21
-4.327538228346457
0
LINE
8
BLACK
6
CONTINUOUS
10
5.8676210236220472
20
-4.327538228346457
11
5.8659130314960626
21
-4.3343702755905511
0
LINE
8
BLACK
6
CONTINUOUS
10
5.8659130314960626
20
-4.3343702755905511
11
5.8659130314960626
21
-4.3430170078740158
0
LINE
8
BLACK
6
CONTINUOUS
10
5.8659130314960626
20
-4.3430170078740158
11
5.8676210236220472
21
-4.3498490551181099
0
LINE
8
BLACK
6
CONTINUOUS
10
5.8676210236220472
20
-4.3498490551181099
11
5.8691365354330705
21
-4.3528800393700786
0
LINE
8
BLACK
6
CONTINUOUS
10
5.8691365354330705
20
-4.3528800393700786
11
5.8703336614173223
21
-4.3540772047244092
0
LINE
8
BLACK
6
CONTINUOUS
10
5.8703336614173223
20
-4.3540772047244092
11
5.8730311417322829
21
-4.3554259448818895
0
LINE
8
BLACK
6
CONTINUOUS
10
5.8730311417322829
20
-4.3554259448818895
11
5.8753865748031497
21
-4.3554259448818895
0
LINE
8
BLACK
6
CONTINUOUS
10
5.8753865748031497
20
-4.3554259448818895
11
5.8780840157480316
21
-4.3540772047244092
0
LINE
8
BLACK
6
CONTINUOUS
10
5.8780840157480316
20
-4.3540772047244092
11
5.8792811417322834
21
-4.3528800393700786
0
LINE
8
BLACK
6
CONTINUOUS
10
5.8792811417322834
20
-4.3528800393700786
11
5.8807966535433067
21
-4.3498490551181099
0
LINE
8
BLACK
6
CONTINUOUS
10
5.8807966535433067
20
-4.3498490551181099
11
5.8825046850393701
21
-4.3430170078740158
0
LINE
8
BLACK
6
CONTINUOUS
10
5.8825046850393701
20
-4.3430170078740158
11
5.8825046850393701
21
-4.3343702755905511
0
LINE
8
BLACK
6
CONTINUOUS
10
5.8825046850393701
20
-4.3343702755905511
11
5.8807966535433067
21
-4.327538228346457
0
LINE
8
BLACK
6
CONTINUOUS
10
5.8807966535433067
20
-4.327538228346457
11
5.8792811811023622
21
-4.3245072440944883
0
LINE
8
BLACK
6
CONTINUOUS
10
5.8792811811023622
20
-4.3245072440944883
11
5.8780840551181104
21
-4.3233101181102365
0
LINE
8
BLACK
6
CONTINUOUS
10
5.8780840551181104
20
-4.3233101181102365
11
5.8753865748031497
21
-4.3219613779527561
0
LINE
8
BLACK
6
CONTINUOUS
10
5.8753865748031497
20
-4.3219613779527561
11
5.8730311417322829
21
-4.3219613779527561
0
LINE
8
BLACK
6
CONTINUOUS
10
5.8730311417322829
20
-4.3219613779527561
11
5.8703336614173223
21
-4.3233101181102365
0
LINE
8
BLACK
6
CONTINUOUS
10
5.9441512598425197
20
-4.3292359448818898
11
5.944249251968504
21
-4.3292765354330704
0
LINE
8
BLACK
6
CONTINUOUS
10
5.944249251968504
20
-4.3292765354330704
11
5.9443550787401573
21
-4.3292840551181104
0
LINE
8
BLACK
6
CONTINUOUS
10
5.9443550787401573
20
-4.3292840551181104
11
5.9448957086614174
21
-4.3294909448818899
0
LINE
8
BLACK
6
CONTINUOUS
10
5.9448957086614174
20
-4.3294909448818899
11
5.9486452362204725
21
-4.3313657086614175
0
LINE
8
BLACK
6
CONTINUOUS
10
5.9486452362204725
20
-4.3313657086614175
11
5.9487415748031491
21
-4.331426338582677
0
LINE
8
BLACK
6
CONTINUOUS
10
5.9487415748031491
20
-4.331426338582677
11
5.9487870078740155
21
-4.3314414960629923
0
LINE
8
BLACK
6
CONTINUOUS
10
5.9487870078740155
20
-4.3314414960629923
11
5.9488435433070865
21
-4.3314905118110234
0
LINE
8
BLACK
6
CONTINUOUS
10
5.9488435433070865
20
-4.3314905118110234
11
5.9491351181102363
21
-4.3316740551181105
0
LINE
8
BLACK
6
CONTINUOUS
10
5.9491351181102363
20
-4.3316740551181105
11
5.9491994881889765
21
-4.3317482677165353
0
LINE
8
BLACK
6
CONTINUOUS
10
5.9491994881889765
20
-4.3317482677165353
11
5.9492638582677166
21
-4.3316740551181105
0
LINE
8
BLACK
6
CONTINUOUS
10
5.9492638582677166
20
-4.3316740551181105
11
5.9495553937007877
21
-4.3314905118110234
0
LINE
8
BLACK
6
CONTINUOUS
10
5.9495553937007877
20
-4.3314905118110234
11
5.9496119685039366
21
-4.3314414960629923
0
LINE
8
BLACK
6
CONTINUOUS
10
5.9496119685039366
20
-4.3314414960629923
11
5.9496573622047242
21
-4.331426338582677
0
LINE
8
BLACK
6
CONTINUOUS
10
5.9496573622047242
20
-4.331426338582677
11
5.9497537401574805
21
-4.3313657086614175
0
LINE
8
BLACK
6
CONTINUOUS
10
5.9497537401574805
20
-4.3313657086614175
11
5.9535032677165356
21
-4.3294909448818899
0
LINE
8
BLACK
6
CONTINUOUS
10
5.9535032677165356
20
-4.3294909448818899
11
5.954043858267716
21
-4.3292840551181104
0
LINE
8
BLACK
6
CONTINUOUS
10
5.954043858267716
20
-4.3292840551181104
11
5.954149724409449
21
-4.3292764960629917
0
LINE
8
BLACK
6
CONTINUOUS
10
5.954149724409449
20
-4.3292764960629917
11
5.9542477165354333
21
-4.3292359448818898
0
LINE
8
BLACK
6
CONTINUOUS
10
5.9542477165354333
20
-4.3292359448818898
11
5.9548237795275591
21
-4.329179212598425
0
LINE
8
BLACK
6
CONTINUOUS
10
5.9548237795275591
20
-4.329179212598425
11
5.9604480708661418
21
-4.329179212598425
0
LINE
8
BLACK
6
CONTINUOUS
10
5.9604480708661418
20
-4.329179212598425
11
5.9610241338582677
21
-4.3292359448818898
0
LINE
8
BLACK
6
CONTINUOUS
10
5.9610241338582677
20
-4.3292359448818898
11
5.961122125984252
21
-4.3292765354330704
0
LINE
8
BLACK
6
CONTINUOUS
10
5.961122125984252
20
-4.3292765354330704
11
5.9612279527559053
21
-4.3292840551181104
0
LINE
8
BLACK
6
CONTINUOUS
10
5.9612279527559053
20
-4.3292840551181104
11
5.9617685826771654
21
-4.3294909448818899
0
LINE
8
BLACK
6
CONTINUOUS
10
5.9617685826771654
20
-4.3294909448818899
11
5.9655181496062992
21
-4.3313657086614175
0
LINE
8
BLACK
6
CONTINUOUS
10
5.9655181496062992
20
-4.3313657086614175
11
5.9656144488188971
21
-4.331426338582677
0
LINE
8
BLACK
6
CONTINUOUS
10
5.9656144488188971
20
-4.331426338582677
11
5.9656599212598422
21
-4.3314414960629923
0
LINE
8
BLACK
6
CONTINUOUS
10
5.9656599212598422
20
-4.3314414960629923
11
5.965716496062992
21
-4.3314905511811022
0
LINE
8
BLACK
6
CONTINUOUS
10
5.965716496062992
20
-4.3314905511811022
11
5.9660079921259843
21
-4.3316740551181105
0
LINE
8
BLACK
6
CONTINUOUS
10
5.9660079921259843
20
-4.3316740551181105
11
5.9662504724409446
21
-4.3319536614173231
0
LINE
8
BLACK
6
CONTINUOUS
10
5.9662504724409446
20
-4.3319536614173231
11
5.9665303149606297
21
-4.3321963385826772
0
LINE
8
BLACK
6
CONTINUOUS
10
5.9665303149606297
20
-4.3321963385826772
11
5.9667138188976381
21
-4.3324878740157482
0
LINE
8
BLACK
6
CONTINUOUS
10
5.9667138188976381
20
-4.3324878740157482
11
5.9667628740157479
21
-4.3325444488188971
0
LINE
8
BLACK
6
CONTINUOUS
10
5.9667628740157479
20
-4.3325444488188971
11
5.9667779921259845
21
-4.3325898425196847
0
LINE
8
BLACK
6
CONTINUOUS
10
5.9667779921259845
20
-4.3325898425196847
11
5.9668386614173228
21
-4.332686220472441
0
LINE
8
BLACK
6
CONTINUOUS
10
5.9668386614173228
20
-4.332686220472441
11
5.9687134251968503
21
-4.3364357480314961
0
LINE
8
BLACK
6
CONTINUOUS
10
5.9687134251968503
20
-4.3364357480314961
11
5.9689203149606298
21
-4.3369763385826774
0
LINE
8
BLACK
6
CONTINUOUS
10
5.9689203149606298
20
-4.3369763385826774
11
5.9689278346456689
21
-4.3370822047244095
0
LINE
8
BLACK
6
CONTINUOUS
10
5.9689278346456689
20
-4.3370822047244095
11
5.9689684251968504
21
-4.3371801968503938
0
LINE
8
BLACK
6
CONTINUOUS
10
5.9689684251968504
20
-4.3371801968503938
11
5.9690251574803153
21
-4.3377562598425197
0
LINE
8
BLACK
6
CONTINUOUS
10
5.9690251574803153
20
-4.3377562598425197
11
5.9690251574803153
21
-4.3583787007874015
0
LINE
8
BLACK
6
CONTINUOUS
10
5.9690251574803153
20
-4.3583787007874015
11
5.9689684251968504
21
-4.3589547637795274
0
LINE
8
BLACK
6
CONTINUOUS
10
5.9689684251968504
20
-4.3589547637795274
11
5.9685275196850389
21
-4.3600191732283466
0
LINE
8
BLACK
6
CONTINUOUS
10
5.9685275196850389
20
-4.3600191732283466
11
5.9677128740157475
21
-4.3608338188976381
0
LINE
8
BLACK
6
CONTINUOUS
10
5.9677128740157475
20
-4.3608338188976381
11
5.9666484645669291
21
-4.3612747244094487
0
LINE
8
BLACK
6
CONTINUOUS
10
5.9666484645669291
20
-4.3612747244094487
11
5.9654963385826774
21
-4.3612747244094487
0
LINE
8
BLACK
6
CONTINUOUS
10
5.9654963385826774
20
-4.3612747244094487
11
5.9644319291338581
21
-4.3608338188976381
0
LINE
8
BLACK
6
CONTINUOUS
10
5.9644319291338581
20
-4.3608338188976381
11
5.9636172834645667
21
-4.3600191732283466
0
LINE
8
BLACK
6
CONTINUOUS
10
5.9636172834645667
20
-4.3600191732283466
11
5.963176377952756
21
-4.3589547637795274
0
LINE
8
BLACK
6
CONTINUOUS
10
5.963176377952756
20
-4.3589547637795274
11
5.9631196456692912
21
-4.3583787007874015
0
LINE
8
BLACK
6
CONTINUOUS
10
5.9631196456692912
20
-4.3583787007874015
11
5.9631196456692912
21
-4.3384533070866143
0
LINE
8
BLACK
6
CONTINUOUS
10
5.9631196456692912
20
-4.3384533070866143
11
5.9619967716535429
21
-4.3362075590551177
0
LINE
8
BLACK
6
CONTINUOUS
10
5.9619967716535429
20
-4.3362075590551177
11
5.9597510236220472
21
-4.335084724409449
0
LINE
8
BLACK
6
CONTINUOUS
10
5.9597510236220472
20
-4.335084724409449
11
5.9555208267716537
21
-4.335084724409449
0
LINE
8
BLACK
6
CONTINUOUS
10
5.9555208267716537
20
-4.335084724409449
11
5.9532750787401572
21
-4.3362075590551177
0
LINE
8
BLACK
6
CONTINUOUS
10
5.9532750787401572
20
-4.3362075590551177
11
5.9521522440944876
21
-4.3384533070866143
0
LINE
8
BLACK
6
CONTINUOUS
10
5.9521522440944876
20
-4.3384533070866143
11
5.9521522440944876
21
-4.3583787007874015
0
LINE
8
BLACK
6
CONTINUOUS
10
5.9521522440944876
20
-4.3583787007874015
11
5.9520955118110237
21
-4.3589547637795274
0
LINE
8
BLACK
6
CONTINUOUS
10
5.9520955118110237
20
-4.3589547637795274
11
5.9516546062992122
21
-4.3600191732283466
0
LINE
8
BLACK
6
CONTINUOUS
10
5.9516546062992122
20
-4.3600191732283466
11
5.9508399606299207
21
-4.3608338188976381
0
LINE
8
BLACK
6
CONTINUOUS
10
5.9508399606299207
20
-4.3608338188976381
11
5.9497755511811024
21
-4.3612747244094487
0
LINE
8
BLACK
6
CONTINUOUS
10
5.9497755511811024
20
-4.3612747244094487
11
5.9486234251968506
21
-4.3612747244094487
0
LINE
8
BLACK
6
CONTINUOUS
10
5.9486234251968506
20
-4.3612747244094487
11
5.9475590157480314
21
-4.3608338188976381
0
LINE
8
BLACK
6
CONTINUOUS
10
5.9475590157480314
20
-4.3608338188976381
11
5.9467443700787399
21
-4.3600191732283466
0
LINE
8
BLACK
6
CONTINUOUS
10
5.9467443700787399
20
-4.3600191732283466
11
5.9463034645669293
21
-4.3589547637795274
0
LINE
8
BLACK
6
CONTINUOUS
10
5.9463034645669293
20
-4.3589547637795274
11
5.9462467322834645
21
-4.3583787007874015
0
LINE
8
BLACK
6
CONTINUOUS
10
5.9462467322834645
20
-4.3583787007874015
11
5.9462467322834645
21
-4.3384533070866143
0
LINE
8
BLACK
6
CONTINUOUS
10
5.9462467322834645
20
-4.3384533070866143
11
5.9451238582677162
21
-4.3362075590551177
0
LINE
8
BLACK
6
CONTINUOUS
10
5.9451238582677162
20
-4.3362075590551177
11
5.9428781496062992
21
-4.335084724409449
0
LINE
8
BLACK
6
CONTINUOUS
10
5.9428781496062992
20
-4.335084724409449
11
5.9386479527559057
21
-4.335084724409449
0
LINE
8
BLACK
6
CONTINUOUS
10
5.9386479527559057
20
-4.335084724409449
11
5.9359504724409451
21
-4.3364334645669294
0
LINE
8
BLACK
6
CONTINUOUS
10
5.9359504724409451
20
-4.3364334645669294
11
5.9352793700787396
21
-4.3371045669291339
0
LINE
8
BLACK
6
CONTINUOUS
10
5.9352793700787396
20
-4.3371045669291339
11
5.9352793700787396
21
-4.3583787007874015
0
LINE
8
BLACK
6
CONTINUOUS
10
5.9352793700787396
20
-4.3583787007874015
11
5.9352226377952757
21
-4.3589547637795274
0
LINE
8
BLACK
6
CONTINUOUS
10
5.9352226377952757
20
-4.3589547637795274
11
5.9347817322834642
21
-4.3600191732283466
0
LINE
8
BLACK
6
CONTINUOUS
10
5.9347817322834642
20
-4.3600191732283466
11
5.9339670866141727
21
-4.3608338188976381
0
LINE
8
BLACK
6
CONTINUOUS
10
5.9339670866141727
20
-4.3608338188976381
11
5.9329026771653544
21
-4.3612747244094487
0
LINE
8
BLACK
6
CONTINUOUS
10
5.9329026771653544
20
-4.3612747244094487
11
5.9317505511811026
21
-4.3612747244094487
0
LINE
8
BLACK
6
CONTINUOUS
10
5.9317505511811026
20
-4.3612747244094487
11
5.9306861417322834
21
-4.3608338188976381
0
LINE
8
BLACK
6
CONTINUOUS
10
5.9306861417322834
20
-4.3608338188976381
11
5.9298714960629919
21
-4.3600191732283466
0
LINE
8
BLACK
6
CONTINUOUS
10
5.9298714960629919
20
-4.3600191732283466
11
5.9294305905511813
21
-4.3589547637795274
0
LINE
8
BLACK
6
CONTINUOUS
10
5.9294305905511813
20
-4.3589547637795274
11
5.9293738582677165
21
-4.3583787007874015
0
LINE
8
BLACK
6
CONTINUOUS
10
5.9293738582677165
20
-4.3583787007874015
11
5.9293738582677165
21
-4.332131968503937
0
LINE
8
BLACK
6
CONTINUOUS
10
5.9293738582677165
20
-4.332131968503937
11
5.9294305905511813
21
-4.3315559055118111
0
LINE
8
BLACK
6
CONTINUOUS
10
5.9294305905511813
20
-4.3315559055118111
11
5.9298714960629919
21
-4.3304914960629919
0
LINE
8
BLACK
6
CONTINUOUS
10
5.9298714960629919
20
-4.3304914960629919
11
5.9306861417322834
21
-4.3296768503937004
0
LINE
8
BLACK
6
CONTINUOUS
10
5.9306861417322834
20
-4.3296768503937004
11
5.9317505511811026
21
-4.3292359448818898
0
LINE
8
BLACK
6
CONTINUOUS
10
5.9317505511811026
20
-4.3292359448818898
11
5.9329026771653544
21
-4.3292359448818898
0
LINE
8
BLACK
6
CONTINUOUS
10
5.9329026771653544
20
-4.3292359448818898
11
5.9339670866141727
21
-4.3296768503937004
0
LINE
8
BLACK
6
CONTINUOUS
10
5.9339670866141727
20
-4.3296768503937004
11
5.9347309055118105
21
-4.3304406692913382
0
LINE
8
BLACK
6
CONTINUOUS
10
5.9347309055118105
20
-4.3304406692913382
11
5.9366303937007876
21
-4.3294909448818899
0
LINE
8
BLACK
6
CONTINUOUS
10
5.9366303937007876
20
-4.3294909448818899
11
5.937170984251968
21
-4.3292840551181104
0
LINE
8
BLACK
6
CONTINUOUS
10
5.937170984251968
20
-4.3292840551181104
11
5.937276850393701
21
-4.3292764960629917
0
LINE
8
BLACK
6
CONTINUOUS
10
5.937276850393701
20
-4.3292764960629917
11
5.9373748425196853
21
-4.3292359448818898
0
LINE
8
BLACK
6
CONTINUOUS
10
5.9373748425196853
20
-4.3292359448818898
11
5.9379509055118112
21
-4.329179212598425
0
LINE
8
BLACK
6
CONTINUOUS
10
5.9379509055118112
20
-4.329179212598425
11
5.9435751968503938
21
-4.329179212598425
0
LINE
8
BLACK
6
CONTINUOUS
10
5.9435751968503938
20
-4.329179212598425
11
5.9441512598425197
21
-4.3292359448818898
0
LINE
8
BLACK
6
CONTINUOUS
10
5.99664468503937
20
-4.3292359448818898
11
5.9967426771653543
21
-4.3292765354330704
0
LINE
8
BLACK
6
CONTINUOUS
10
5.9967426771653543
20
-4.3292765354330704
11
5.9968485039370076
21
-4.3292840551181104
0
LINE
8
BLACK
6
CONTINUOUS
10
5.9968485039370076
20
-4.3292840551181104
11
5.9973891338582677
21
-4.3294909448818899
0
LINE
8
BLACK
6
CONTINUOUS
10
5.9973891338582677
20
-4.3294909448818899
11
6.0011386614173228
21
-4.3313657086614175
0
LINE
8
BLACK
6
CONTINUOUS
10
6.0011386614173228
20
-4.3313657086614175
11
6.0012349999999994
21
-4.331426338582677
0
LINE
8
BLACK
6
CONTINUOUS
10
6.0012349999999994
20
-4.331426338582677
11
6.0012804330708658
21
-4.3314414960629923
0
LINE
8
BLACK
6
CONTINUOUS
10
6.0012804330708658
20
-4.3314414960629923
11
6.0013369685039368
21
-4.3314905118110234
0
LINE
8
BLACK
6
CONTINUOUS
10
6.0013369685039368
20
-4.3314905118110234
11
6.0016285433070866
21
-4.3316740551181105
0
LINE
8
BLACK
6
CONTINUOUS
10
6.0016285433070866
20
-4.3316740551181105
11
6.0016929133858268
21
-4.3317482677165353
0
LINE
8
BLACK
6
CONTINUOUS
10
6.0016929133858268
20
-4.3317482677165353
11
6.0017572834645669
21
-4.3316740551181105
0
LINE
8
BLACK
6
CONTINUOUS
10
6.0017572834645669
20
-4.3316740551181105
11
6.002048818897638
21
-4.3314905118110234
0
LINE
8
BLACK
6
CONTINUOUS
10
6.002048818897638
20
-4.3314905118110234
11
6.0021053937007869
21
-4.3314414960629923
0
LINE
8
BLACK
6
CONTINUOUS
10
6.0021053937007869
20
-4.3314414960629923
11
6.0021507874015745
21
-4.331426338582677
0
LINE
8
BLACK
6
CONTINUOUS
10
6.0021507874015745
20
-4.331426338582677
11
6.0022471653543308
21
-4.3313657086614175
0
LINE
8
BLACK
6
CONTINUOUS
10
6.0022471653543308
20
-4.3313657086614175
11
6.0059966929133859
21
-4.3294909448818899
0
LINE
8
BLACK
6
CONTINUOUS
10
6.0059966929133859
20
-4.3294909448818899
11
6.0065372834645672
21
-4.3292840551181104
0
LINE
8
BLACK
6
CONTINUOUS
10
6.0065372834645672
20
-4.3292840551181104
11
6.0066431496062993
21
-4.3292764960629917
0
LINE
8
BLACK
6
CONTINUOUS
10
6.0066431496062993
20
-4.3292764960629917
11
6.0067411417322836
21
-4.3292359448818898
0
LINE
8
BLACK
6
CONTINUOUS
10
6.0067411417322836
20
-4.3292359448818898
11
6.0073172047244094
21
-4.329179212598425
0
LINE
8
BLACK
6
CONTINUOUS
10
6.0073172047244094
20
-4.329179212598425
11
6.0129414960629921
21
-4.329179212598425
0
LINE
8
BLACK
6
CONTINUOUS
10
6.0129414960629921
20
-4.329179212598425
11
6.013517559055118
21
-4.3292359448818898
0
LINE
8
BLACK
6
CONTINUOUS
10
6.013517559055118
20
-4.3292359448818898
11
6.0136155511811022
21
-4.3292765354330704
0
LINE
8
BLACK
6
CONTINUOUS
10
6.0136155511811022
20
-4.3292765354330704
11
6.0137213779527556
21
-4.3292840551181104
0
LINE
8
BLACK
6
CONTINUOUS
10
6.0137213779527556
20
-4.3292840551181104
11
6.0142620078740157
21
-4.3294909448818899
0
LINE
8
BLACK
6
CONTINUOUS
10
6.0142620078740157
20
-4.3294909448818899
11
6.0180115748031495
21
-4.3313657086614175
0
LINE
8
BLACK
6
CONTINUOUS
10
6.0180115748031495
20
-4.3313657086614175
11
6.0181078740157483
21
-4.331426338582677
0
LINE
8
BLACK
6
CONTINUOUS
10
6.0181078740157483
20
-4.331426338582677
11
6.0181533464566925
21
-4.3314414960629923
0
LINE
8
BLACK
6
CONTINUOUS
10
6.0181533464566925
20
-4.3314414960629923
11
6.0182099212598423
21
-4.3314905511811022
0
LINE
8
BLACK
6
CONTINUOUS
10
6.0182099212598423
20
-4.3314905511811022
11
6.0185014173228346
21
-4.3316740551181105
0
LINE
8
BLACK
6
CONTINUOUS
10
6.0185014173228346
20
-4.3316740551181105
11
6.0187438976377949
21
-4.3319536614173231
0
LINE
8
BLACK
6
CONTINUOUS
10
6.0187438976377949
20
-4.3319536614173231
11
6.01902374015748
21
-4.3321963385826772
0
LINE
8
BLACK
6
CONTINUOUS
10
6.01902374015748
20
-4.3321963385826772
11
6.0192072440944884
21
-4.3324878740157482
0
LINE
8
BLACK
6
CONTINUOUS
10
6.0192072440944884
20
-4.3324878740157482
11
6.0192562992125982
21
-4.3325444488188971
0
LINE
8
BLACK
6
CONTINUOUS
10
6.0192562992125982
20
-4.3325444488188971
11
6.0192714173228348
21
-4.3325898425196847
0
LINE
8
BLACK
6
CONTINUOUS
10
6.0192714173228348
20
-4.3325898425196847
11
6.0193320866141731
21
-4.332686220472441
0
LINE
8
BLACK
6
CONTINUOUS
10
6.0193320866141731
20
-4.332686220472441
11
6.0212068503937006
21
-4.3364357480314961
0
LINE
8
BLACK
6
CONTINUOUS
10
6.0212068503937006
20
-4.3364357480314961
11
6.0214137401574801
21
-4.3369763385826774
0
LINE
8
BLACK
6
CONTINUOUS
10
6.0214137401574801
20
-4.3369763385826774
11
6.0214212598425192
21
-4.3370822047244095
0
LINE
8
BLACK
6
CONTINUOUS
10
6.0214212598425192
20
-4.3370822047244095
11
6.0214618503937007
21
-4.3371801968503938
0
LINE
8
BLACK
6
CONTINUOUS
10
6.0214618503937007
20
-4.3371801968503938
11
6.0215185826771656
21
-4.3377562598425197
0
LINE
8
BLACK
6
CONTINUOUS
10
6.0215185826771656
20
-4.3377562598425197
11
6.0215185826771656
21
-4.3583787007874015
0
LINE
8
BLACK
6
CONTINUOUS
10
6.0215185826771656
20
-4.3583787007874015
11
6.0214618503937007
21
-4.3589547637795274
0
LINE
8
BLACK
6
CONTINUOUS
10
6.0214618503937007
20
-4.3589547637795274
11
6.0210209448818892
21
-4.3600191732283466
0
LINE
8
BLACK
6
CONTINUOUS
10
6.0210209448818892
20
-4.3600191732283466
11
6.0202062992125986
21
-4.3608338188976381
0
LINE
8
BLACK
6
CONTINUOUS
10
6.0202062992125986
20
-4.3608338188976381
11
6.0191418897637794
21
-4.3612747244094487
0
LINE
8
BLACK
6
CONTINUOUS
10
6.0191418897637794
20
-4.3612747244094487
11
6.0179897637795277
21
-4.3612747244094487
0
LINE
8
BLACK
6
CONTINUOUS
10
6.0179897637795277
20
-4.3612747244094487
11
6.0169253543307084
21
-4.3608338188976381
0
LINE
8
BLACK
6
CONTINUOUS
10
6.0169253543307084
20
-4.3608338188976381
11
6.016110708661417
21
-4.3600191732283466
0
LINE
8
BLACK
6
CONTINUOUS
10
6.016110708661417
20
-4.3600191732283466
11
6.0156698031496063
21
-4.3589547637795274
0
LINE
8
BLACK
6
CONTINUOUS
10
6.0156698031496063
20
-4.3589547637795274
11
6.0156130708661415
21
-4.3583787007874015
0
LINE
8
BLACK
6
CONTINUOUS
10
6.0156130708661415
20
-4.3583787007874015
11
6.0156130708661415
21
-4.3384533070866143
0
LINE
8
BLACK
6
CONTINUOUS
10
6.0156130708661415
20
-4.3384533070866143
11
6.0144901968503932
21
-4.3362075590551177
0
LINE
8
BLACK
6
CONTINUOUS
10
6.0144901968503932
20
-4.3362075590551177
11
6.0122444488188975
21
-4.335084724409449
0
LINE
8
BLACK
6
CONTINUOUS
10
6.0122444488188975
20
-4.335084724409449
11
6.008014251968504
21
-4.335084724409449
0
LINE
8
BLACK
6
CONTINUOUS
10
6.008014251968504
20
-4.335084724409449
11
6.0057685039370075
21
-4.3362075590551177
0
LINE
8
BLACK
6
CONTINUOUS
10
6.0057685039370075
20
-4.3362075590551177
11
6.0046456692913388
21
-4.3384533070866143
0
LINE
8
BLACK
6
CONTINUOUS
10
6.0046456692913388
20
-4.3384533070866143
11
6.0046456692913388
21
-4.3583787007874015
0
LINE
8
BLACK
6
CONTINUOUS
10
6.0046456692913388
20
-4.3583787007874015
11
6.004588937007874
21
-4.3589547637795274
0
LINE
8
BLACK
6
CONTINUOUS
10
6.004588937007874
20
-4.3589547637795274
11
6.0041480314960625
21
-4.3600191732283466
0
LINE
8
BLACK
6
CONTINUOUS
10
6.0041480314960625
20
-4.3600191732283466
11
6.0033333858267719
21
-4.3608338188976381
0
LINE
8
BLACK
6
CONTINUOUS
10
6.0033333858267719
20
-4.3608338188976381
11
6.0022689763779526
21
-4.3612747244094487
0
LINE
8
BLACK
6
CONTINUOUS
10
6.0022689763779526
20
-4.3612747244094487
11
6.0011168503937009
21
-4.3612747244094487
0
LINE
8
BLACK
6
CONTINUOUS
10
6.0011168503937009
20
-4.3612747244094487
11
6.0000524409448817
21
-4.3608338188976381
0
LINE
8
BLACK
6
CONTINUOUS
10
6.0000524409448817
20
-4.3608338188976381
11
5.9992377952755902
21
-4.3600191732283466
0
LINE
8
BLACK
6
CONTINUOUS
10
5.9992377952755902
20
-4.3600191732283466
11
5.9987968897637796
21
-4.3589547637795274
0
LINE
8
BLACK
6
CONTINUOUS
10
5.9987968897637796
20
-4.3589547637795274
11
5.9987401574803147
21
-4.3583787007874015
0
LINE
8
BLACK
6
CONTINUOUS
10
5.9987401574803147
20
-4.3583787007874015
11
5.9987401574803147
21
-4.3384533070866143
0
LINE
8
BLACK
6
CONTINUOUS
10
5.9987401574803147
20
-4.3384533070866143
11
5.9976172834645665
21
-4.3362075590551177
0
LINE
8
BLACK
6
CONTINUOUS
10
5.9976172834645665
20
-4.3362075590551177
11
5.9953715748031495
21
-4.335084724409449
0
LINE
8
BLACK
6
CONTINUOUS
10
5.9953715748031495
20
-4.335084724409449
11
5.991141377952756
21
-4.335084724409449
0
LINE
8
BLACK
6
CONTINUOUS
10
5.991141377952756
20
-4.335084724409449
11
5.9884438976377954
21
-4.3364334645669294
0
LINE
8
BLACK
6
CONTINUOUS
10
5.9884438976377954
20
-4.3364334645669294
11
5.9877727952755908
21
-4.3371045669291339
0
LINE
8
BLACK
6
CONTINUOUS
10
5.9877727952755908
20
-4.3371045669291339
11
5.9877727952755908
21
-4.3583787007874015
0
LINE
8
BLACK
6
CONTINUOUS
10
5.9877727952755908
20
-4.3583787007874015
11
5.987716062992126
21
-4.3589547637795274
0
LINE
8
BLACK
6
CONTINUOUS
10
5.987716062992126
20
-4.3589547637795274
11
5.9872751574803145
21
-4.3600191732283466
0
LINE
8
BLACK
6
CONTINUOUS
10
5.9872751574803145
20
-4.3600191732283466
11
5.9864605118110239
21
-4.3608338188976381
0
LINE
8
BLACK
6
CONTINUOUS
10
5.9864605118110239
20
-4.3608338188976381
11
5.9853961023622047
21
-4.3612747244094487
0
LINE
8
BLACK
6
CONTINUOUS
10
5.9853961023622047
20
-4.3612747244094487
11
5.9842439763779529
21
-4.3612747244094487
0
LINE
8
BLACK
6
CONTINUOUS
10
5.9842439763779529
20
-4.3612747244094487
11
5.9831795669291337
21
-4.3608338188976381
0
LINE
8
BLACK
6
CONTINUOUS
10
5.9831795669291337
20
-4.3608338188976381
11
5.9823649212598422
21
-4.3600191732283466
0
LINE
8
BLACK
6
CONTINUOUS
10
5.9823649212598422
20
-4.3600191732283466
11
5.9819240157480316
21
-4.3589547637795274
0
LINE
8
BLACK
6
CONTINUOUS
10
5.9819240157480316
20
-4.3589547637795274
11
5.9818672834645668
21
-4.3583787007874015
0
LINE
8
BLACK
6
CONTINUOUS
10
5.9818672834645668
20
-4.3583787007874015
11
5.9818672834645668
21
-4.332131968503937
0
LINE
8
BLACK
6
CONTINUOUS
10
5.9818672834645668
20
-4.332131968503937
11
5.9819240157480316
21
-4.3315559055118111
0
LINE
8
BLACK
6
CONTINUOUS
10
5.9819240157480316
20
-4.3315559055118111
11
5.9823649212598422
21
-4.3304914960629919
0
LINE
8
BLACK
6
CONTINUOUS
10
5.9823649212598422
20
-4.3304914960629919
11
5.9831795669291337
21
-4.3296768503937004
0
LINE
8
BLACK
6
CONTINUOUS
10
5.9831795669291337
20
-4.3296768503937004
11
5.9842439763779529
21
-4.3292359448818898
0
LINE
8
BLACK
6
CONTINUOUS
10
5.9842439763779529
20
-4.3292359448818898
11
5.9853961023622047
21
-4.3292359448818898
0
LINE
8
BLACK
6
CONTINUOUS
10
5.9853961023622047
20
-4.3292359448818898
11
5.9864605118110239
21
-4.3296768503937004
0
LINE
8
BLACK
6
CONTINUOUS
10
5.9864605118110239
20
-4.3296768503937004
11
5.9872243307086617
21
-4.3304406692913382
0
LINE
8
BLACK
6
CONTINUOUS
10
5.9872243307086617
20
-4.3304406692913382
11
5.9891238188976379
21
-4.3294909448818899
0
LINE
8
BLACK
6
CONTINUOUS
10
5.9891238188976379
20
-4.3294909448818899
11
5.9896644094488192
21
-4.3292840551181104
0
LINE
8
BLACK
6
CONTINUOUS
10
5.9896644094488192
20
-4.3292840551181104
11
5.9897702755905513
21
-4.3292764960629917
0
LINE
8
BLACK
6
CONTINUOUS
10
5.9897702755905513
20
-4.3292764960629917
11
5.9898682677165356
21
-4.3292359448818898
0
LINE
8
BLACK
6
CONTINUOUS
10
5.9898682677165356
20
-4.3292359448818898
11
5.9904443307086614
21
-4.329179212598425
0
LINE
8
BLACK
6
CONTINUOUS
10
5.9904443307086614
20
-4.329179212598425
11
5.9960686220472441
21
-4.329179212598425
0
LINE
8
BLACK
6
CONTINUOUS
10
5.9960686220472441
20
-4.329179212598425
11
5.99664468503937
21
-4.3292359448818898
0
LINE
8
BLACK
6
CONTINUOUS
10
7.1221399212598424
20
-2.9478270078740159
11
7.1232052755905508
21
-2.9488923622047243
0
LINE
8
BLACK
6
CONTINUOUS
10
7.1232052755905508
20
-2.9488923622047243
11
7.1232052755905508
21
-2.9503989763779526
0
LINE
8
BLACK
6
CONTINUOUS
10
7.1232052755905508
20
-2.9503989763779526
11
7.1221399212598424
21
-2.9514643307086614
0
LINE
8
BLACK
6
CONTINUOUS
10
7.1221399212598424
20
-2.9514643307086614
11
7.121386614173228
21
-2.9516141732283465
0
LINE
8
BLACK
6
CONTINUOUS
10
7.121386614173228
20
-2.9516141732283465
11
7.1015432283464568
21
-2.9516141732283465
0
LINE
8
BLACK
6
CONTINUOUS
10
7.1015432283464568
20
-2.9516141732283465
11
7.1231327165354328
21
-2.9930872440944882
0
LINE
8
BLACK
6
CONTINUOUS
10
7.1231327165354328
20
-2.9930872440944882
11
7.1233476771653539
21
-2.9938246456692914
0
LINE
8
BLACK
6
CONTINUOUS
10
7.1233476771653539
20
-2.9938246456692914
11
7.1228946062992122
21
-2.9952615354330709
0
LINE
8
BLACK
6
CONTINUOUS
10
7.1228946062992122
20
-2.9952615354330709
11
7.1215582283464567
21
-2.9959572047244092
0
LINE
8
BLACK
6
CONTINUOUS
10
7.1215582283464567
20
-2.9959572047244092
11
7.120121299212598
21
-2.9955041732283463
0
LINE
8
BLACK
6
CONTINUOUS
10
7.120121299212598
20
-2.9955041732283463
11
7.1196405511811021
21
-2.9949051574803147
0
LINE
8
BLACK
6
CONTINUOUS
10
7.1196405511811021
20
-2.9949051574803147
11
7.1002677165354333
21
-2.9576902755905512
0
LINE
8
BLACK
6
CONTINUOUS
10
7.1002677165354333
20
-2.9576902755905512
11
7.1002677165354333
21
-4.1227033858267719
0
LINE
8
BLACK
6
CONTINUOUS
10
7.1002677165354333
20
-4.1227033858267719
11
7.1196405511811021
21
-4.0854885433070862
0
LINE
8
BLACK
6
CONTINUOUS
10
7.1196405511811021
20
-4.0854885433070862
11
7.120121299212598
21
-4.0848895275590547
0
LINE
8
BLACK
6
CONTINUOUS
10
7.120121299212598
20
-4.0848895275590547
11
7.1215582283464567
21
-4.0844364960629918
0
LINE
8
BLACK
6
CONTINUOUS
10
7.1215582283464567
20
-4.0844364960629918
11
7.1228946062992122
21
-4.0851321653543309
0
LINE
8
BLACK
6
CONTINUOUS
10
7.1228946062992122
20
-4.0851321653543309
11
7.1233476771653539
21
-4.08656905511811
0
LINE
8
BLACK
6
CONTINUOUS
10
7.1233476771653539
20
-4.08656905511811
11
7.1231327165354328
21
-4.0873064566929136
0
LINE
8
BLACK
6
CONTINUOUS
10
7.1231327165354328
20
-4.0873064566929136
11
7.1015432283464568
21
-4.1287795275590549
0
LINE
8
BLACK
6
CONTINUOUS
10
7.1015432283464568
20
-4.1287795275590549
11
7.121386614173228
21
-4.1287795275590549
0
LINE
8
BLACK
6
CONTINUOUS
10
7.121386614173228
20
-4.1287795275590549
11
7.1221399212598424
21
-4.1289293700787404
0
LINE
8
BLACK
6
CONTINUOUS
10
7.1221399212598424
20
-4.1289293700787404
11
7.1232052755905508
21
-4.1299947244094488
0
LINE
8
BLACK
6
CONTINUOUS
10
7.1232052755905508
20
-4.1299947244094488
11
7.1232052755905508
21
-4.1315013385826767
0
LINE
8
BLACK
6
CONTINUOUS
10
7.1232052755905508
20
-4.1315013385826767
11
7.1221399212598424
21
-4.132566692913386
0
LINE
8
BLACK
6
CONTINUOUS
10
7.1221399212598424
20
-4.132566692913386
11
7.121386614173228
21
-4.1327165354330706
0
LINE
8
BLACK
6
CONTINUOUS
10
7.121386614173228
20
-4.1327165354330706
11
6.9268897637795277
21
-4.1327165354330706
0
LINE
8
BLACK
6
CONTINUOUS
10
6.9268897637795277
20
-4.1327165354330706
11
6.6316141732283462
21
-4.1327165354330706
0
LINE
8
BLACK
6
CONTINUOUS
10
6.6316141732283462
20
-4.1327165354330706
11
6.6308608661417319
21
-4.132566692913386
0
LINE
8
BLACK
6
CONTINUOUS
10
6.6308608661417319
20
-4.132566692913386
11
6.6297955118110234
21
-4.1315013385826767
0
LINE
8
BLACK
6
CONTINUOUS
10
6.6297955118110234
20
-4.1315013385826767
11
6.6297955118110234
21
-4.1299947244094488
0
LINE
8
BLACK
6
CONTINUOUS
10
6.6297955118110234
20
-4.1299947244094488
11
6.6308608661417319
21
-4.1289293700787404
0
LINE
8
BLACK
6
CONTINUOUS
10
6.6308608661417319
20
-4.1289293700787404
11
6.6316141732283462
21
-4.1287795275590549
0
LINE
8
BLACK
6
CONTINUOUS
10
6.6316141732283462
20
-4.1287795275590549
11
7.014755984251968
21
-4.1287795275590549
0
LINE
8
BLACK
6
CONTINUOUS
10
7.014755984251968
20
-4.1287795275590549
11
6.9931664566929133
21
-4.0873064173228348
0
LINE
8
BLACK
6
CONTINUOUS
10
6.9931664566929133
20
-4.0873064173228348
11
6.9929515354330709
21
-4.08656905511811
0
LINE
8
BLACK
6
CONTINUOUS
10
6.9929515354330709
20
-4.08656905511811
11
6.9934046062992126
21
-4.0851321653543309
0
LINE
8
BLACK
6
CONTINUOUS
10
6.9934046062992126
20
-4.0851321653543309
11
6.9947409842519681
21
-4.084436456692913
0
LINE
8
BLACK
6
CONTINUOUS
10
6.9947409842519681
20
-4.084436456692913
11
6.9961778740157481
21
-4.0848895275590547
0
LINE
8
BLACK
6
CONTINUOUS
10
6.9961778740157481
20
-4.0848895275590547
11
6.9966586614173227
21
-4.0854885433070862
0
LINE
8
BLACK
6
CONTINUOUS
10
6.9966586614173227
20
-4.0854885433070862
11
7.0160314960629924
21
-4.1227034251968506
0
LINE
8
BLACK
6
CONTINUOUS
10
7.0160314960629924
20
-4.1227034251968506
11
7.0160314960629924
21
-3.8435170078740155
0
LINE
8
BLACK
6
CONTINUOUS
10
7.0160314960629924
20
-3.8435170078740155
11
6.9966586614173227
21
-3.8807319291338582
0
LINE
8
BLACK
6
CONTINUOUS
10
6.9966586614173227
20
-3.8807319291338582
11
6.9961778740157481
21
-3.8813309448818898
0
LINE
8
BLACK
6
CONTINUOUS
10
6.9961778740157481
20
-3.8813309448818898
11
6.9947409842519681
21
-3.8817840157480314
0
LINE
8
BLACK
6
CONTINUOUS
10
6.9947409842519681
20
-3.8817840157480314
11
6.9934046062992126
21
-3.881088307086614
0
LINE
8
BLACK
6
CONTINUOUS
10
6.9934046062992126
20
-3.881088307086614
11
6.9929515354330709
21
-3.8796514173228345
0
LINE
8
BLACK
6
CONTINUOUS
10
6.9929515354330709
20
-3.8796514173228345
11
6.9931664566929133
21
-3.87891405511811
0
LINE
8
BLACK
6
CONTINUOUS
10
6.9931664566929133
20
-3.87891405511811
11
7.014755984251968
21
-3.8374409448818896
0
LINE
8
BLACK
6
CONTINUOUS
10
7.014755984251968
20
-3.8374409448818896
11
6.672952755905512
21
-3.8374409448818896
0
LINE
8
BLACK
6
CONTINUOUS
10
6.672952755905512
20
-3.8374409448818896
11
6.6721994488188976
21
-3.8372911023622045
0
LINE
8
BLACK
6
CONTINUOUS
10
6.6721994488188976
20
-3.8372911023622045
11
6.6711340944881892
21
-3.8362257480314961
0
LINE
8
BLACK
6
CONTINUOUS
10
6.6711340944881892
20
-3.8362257480314961
11
6.6711340944881892
21
-3.8347191338582678
0
LINE
8
BLACK
6
CONTINUOUS
10
6.6711340944881892
20
-3.8347191338582678
11
6.6721994488188976
21
-3.8336537795275589
0
LINE
8
BLACK
6
CONTINUOUS
10
6.6721994488188976
20
-3.8336537795275589
11
6.672952755905512
21
-3.8335039370078738
0
LINE
8
BLACK
6
CONTINUOUS
10
6.672952755905512
20
-3.8335039370078738
11
7.014755984251968
21
-3.8335039370078738
0
LINE
8
BLACK
6
CONTINUOUS
10
7.014755984251968
20
-3.8335039370078738
11
6.9931664566929133
21
-3.7920308267716534
0
LINE
8
BLACK
6
CONTINUOUS
10
6.9931664566929133
20
-3.7920308267716534
11
6.9929515354330709
21
-3.791293464566929
0
LINE
8
BLACK
6
CONTINUOUS
10
6.9929515354330709
20
-3.791293464566929
11
6.9934046062992126
21
-3.7898565748031494
0
LINE
8
BLACK
6
CONTINUOUS
10
6.9934046062992126
20
-3.7898565748031494
11
6.9947409842519681
21
-3.789160866141732
0
LINE
8
BLACK
6
CONTINUOUS
10
6.9947409842519681
20
-3.789160866141732
11
6.9961778740157481
21
-3.7896139370078741
0
LINE
8
BLACK
6
CONTINUOUS
10
6.9961778740157481
20
-3.7896139370078741
11
6.9966586614173227
21
-3.7902129527559056
0
LINE
8
BLACK
6
CONTINUOUS
10
6.9966586614173227
20
-3.7902129527559056
11
7.0160314960629924
21
-3.8274278346456692
0
LINE
8
BLACK
6
CONTINUOUS
10
7.0160314960629924
20
-3.8274278346456692
11
7.0160314960629924
21
-3.2529658267716535
0
LINE
8
BLACK
6
CONTINUOUS
10
7.0160314960629924
20
-3.2529658267716535
11
6.9966586614173227
21
-3.2901807480314962
0
LINE
8
BLACK
6
CONTINUOUS
10
6.9966586614173227
20
-3.2901807480314962
11
6.9961778740157481
21
-3.2907797637795273
0
LINE
8
BLACK
6
CONTINUOUS
10
6.9961778740157481
20
-3.2907797637795273
11
6.9947409842519681
21
-3.2912328346456694
0
LINE
8
BLACK
6
CONTINUOUS
10
6.9947409842519681
20
-3.2912328346456694
11
6.9934046062992126
21
-3.290537125984252
0
LINE
8
BLACK
6
CONTINUOUS
10
6.9934046062992126
20
-3.290537125984252
11
6.9929515354330709
21
-3.2891002362204724
0
LINE
8
BLACK
6
CONTINUOUS
10
6.9929515354330709
20
-3.2891002362204724
11
6.9931664566929133
21
-3.288362874015748
0
LINE
8
BLACK
6
CONTINUOUS
10
6.9931664566929133
20
-3.288362874015748
11
7.014755984251968
21
-3.2468897637795275
0
LINE
8
BLACK
6
CONTINUOUS
10
7.014755984251968
20
-3.2468897637795275
11
6.672952755905512
21
-3.2468897637795275
0
LINE
8
BLACK
6
CONTINUOUS
10
6.672952755905512
20
-3.2468897637795275
11
6.6721994488188976
21
-3.2467399212598425
0
LINE
8
BLACK
6
CONTINUOUS
10
6.6721994488188976
20
-3.2467399212598425
11
6.6711340944881892
21
-3.2456745669291336
0
LINE
8
BLACK
6
CONTINUOUS
10
6.6711340944881892
20
-3.2456745669291336
11
6.6711340944881892
21
-3.2441679527559053
0
LINE
8
BLACK
6
CONTINUOUS
10
6.6711340944881892
20
-3.2441679527559053
11
6.6721994488188976
21
-3.2431025984251969
0
LINE
8
BLACK
6
CONTINUOUS
10
6.6721994488188976
20
-3.2431025984251969
11
6.672952755905512
21
-3.2429527559055118
0
LINE
8
BLACK
6
CONTINUOUS
10
6.672952755905512
20
-3.2429527559055118
11
7.0410874015748028
21
-3.2429527559055118
0
LINE
8
BLACK
6
CONTINUOUS
10
7.0410874015748028
20
-3.2429527559055118
11
7.0418407086614172
21
-3.2431025984251969
0
LINE
8
BLACK
6
CONTINUOUS
10
7.0418407086614172
20
-3.2431025984251969
11
7.0429060629921256
21
-3.2441679527559053
0
LINE
8
BLACK
6
CONTINUOUS
10
7.0429060629921256
20
-3.2441679527559053
11
7.0429060629921256
21
-3.2456745669291336
0
LINE
8
BLACK
6
CONTINUOUS
10
7.0429060629921256
20
-3.2456745669291336
11
7.0418407086614172
21
-3.2467399212598425
0
LINE
8
BLACK
6
CONTINUOUS
10
7.0418407086614172
20
-3.2467399212598425
11
7.0410874015748028
21
-3.2468897637795275
0
LINE
8
BLACK
6
CONTINUOUS
10
7.0410874015748028
20
-3.2468897637795275
11
7.0212440157480316
21
-3.2468897637795275
0
LINE
8
BLACK
6
CONTINUOUS
10
7.0212440157480316
20
-3.2468897637795275
11
7.0428335039370076
21
-3.2883628346456693
0
LINE
8
BLACK
6
CONTINUOUS
10
7.0428335039370076
20
-3.2883628346456693
11
7.0430484645669287
21
-3.2891002362204724
0
LINE
8
BLACK
6
CONTINUOUS
10
7.0430484645669287
20
-3.2891002362204724
11
7.042595393700787
21
-3.290537125984252
0
LINE
8
BLACK
6
CONTINUOUS
10
7.042595393700787
20
-3.290537125984252
11
7.0412590157480315
21
-3.2912327952755907
0
LINE
8
BLACK
6
CONTINUOUS
10
7.0412590157480315
20
-3.2912327952755907
11
7.0398220866141727
21
-3.2907797637795273
0
LINE
8
BLACK
6
CONTINUOUS
10
7.0398220866141727
20
-3.2907797637795273
11
7.0393413385826769
21
-3.2901807480314962
0
LINE
8
BLACK
6
CONTINUOUS
10
7.0393413385826769
20
-3.2901807480314962
11
7.0199685039370081
21
-3.2529658661417322
0
LINE
8
BLACK
6
CONTINUOUS
10
7.0199685039370081
20
-3.2529658661417322
11
7.0199685039370081
21
-3.8274277952755904
0
LINE
8
BLACK
6
CONTINUOUS
10
7.0199685039370081
20
-3.8274277952755904
11
7.0393413385826769
21
-3.7902129527559056
0
LINE
8
BLACK
6
CONTINUOUS
10
7.0393413385826769
20
-3.7902129527559056
11
7.0398220866141727
21
-3.7896139370078741
0
LINE
8
BLACK
6
CONTINUOUS
10
7.0398220866141727
20
-3.7896139370078741
11
7.0412590157480315
21
-3.7891609055118107
0
LINE
8
BLACK
6
CONTINUOUS
10
7.0412590157480315
20
-3.7891609055118107
11
7.042595393700787
21
-3.7898565748031494
0
LINE
8
BLACK
6
CONTINUOUS
10
7.042595393700787
20
-3.7898565748031494
11
7.0430484645669287
21
-3.791293464566929
0
LINE
8
BLACK
6
CONTINUOUS
10
7.0430484645669287
20
-3.791293464566929
11
7.0428335039370076
21
-3.7920308661417321
0
LINE
8
BLACK
6
CONTINUOUS
10
7.0428335039370076
20
-3.7920308661417321
11
7.0212440157480316
21
-3.8335039370078738
0
LINE
8
BLACK
6
CONTINUOUS
10
7.0212440157480316
20
-3.8335039370078738
11
7.0410874015748028
21
-3.8335039370078738
0
LINE
8
BLACK
6
CONTINUOUS
10
7.0410874015748028
20
-3.8335039370078738
11
7.0418407086614172
21
-3.8336537795275589
0
LINE
8
BLACK
6
CONTINUOUS
10
7.0418407086614172
20
-3.8336537795275589
11
7.0429060629921256
21
-3.8347191338582678
0
LINE
8
BLACK
6
CONTINUOUS
10
7.0429060629921256
20
-3.8347191338582678
11
7.0429060629921256
21
-3.8362257480314961
0
LINE
8
BLACK
6
CONTINUOUS
10
7.0429060629921256
20
-3.8362257480314961
11
7.0418407086614172
21
-3.8372911023622045
0
LINE
8
BLACK
6
CONTINUOUS
10
7.0418407086614172
20
-3.8372911023622045
11
7.0410874015748028
21
-3.8374409448818896
0
LINE
8
BLACK
6
CONTINUOUS
10
7.0410874015748028
20
-3.8374409448818896
11
7.0212440157480316
21
-3.8374409448818896
0
LINE
8
BLACK
6
CONTINUOUS
10
7.0212440157480316
20
-3.8374409448818896
11
7.0428335039370076
21
-3.8789140157480313
0
LINE
8
BLACK
6
CONTINUOUS
10
7.0428335039370076
20
-3.8789140157480313
11
7.0430484645669287
21
-3.8796514173228345
0
LINE
8
BLACK
6
CONTINUOUS
10
7.0430484645669287
20
-3.8796514173228345
11
7.042595393700787
21
-3.881088307086614
0
LINE
8
BLACK
6
CONTINUOUS
10
7.042595393700787
20
-3.881088307086614
11
7.0412590157480315
21
-3.8817839763779527
0
LINE
8
BLACK
6
CONTINUOUS
10
7.0412590157480315
20
-3.8817839763779527
11
7.0398220866141727
21
-3.8813309448818898
0
LINE
8
BLACK
6
CONTINUOUS
10
7.0398220866141727
20
-3.8813309448818898
11
7.0393413385826769
21
-3.8807319291338582
0
LINE
8
BLACK
6
CONTINUOUS
10
7.0393413385826769
20
-3.8807319291338582
11
7.0199685039370081
21
-3.8435170472440943
0
LINE
8
BLACK
6
CONTINUOUS
10
7.0199685039370081
20
-3.8435170472440943
11
7.0199685039370081
21
-4.1227033858267719
0
LINE
8
BLACK
6
CONTINUOUS
10
7.0199685039370081
20
-4.1227033858267719
11
7.0393413385826769
21
-4.0854885433070862
0
LINE
8
BLACK
6
CONTINUOUS
10
7.0393413385826769
20
-4.0854885433070862
11
7.0398220866141727
21
-4.0848895275590547
0
LINE
8
BLACK
6
CONTINUOUS
10
7.0398220866141727
20
-4.0848895275590547
11
7.0412590157480315
21
-4.0844364960629918
0
LINE
8
BLACK
6
CONTINUOUS
10
7.0412590157480315
20
-4.0844364960629918
11
7.042595393700787
21
-4.0851321653543309
0
LINE
8
BLACK
6
CONTINUOUS
10
7.042595393700787
20
-4.0851321653543309
11
7.0430484645669287
21
-4.08656905511811
0
LINE
8
BLACK
6
CONTINUOUS
10
7.0430484645669287
20
-4.08656905511811
11
7.0428335039370076
21
-4.0873064566929136
0
LINE
8
BLACK
6
CONTINUOUS
10
7.0428335039370076
20
-4.0873064566929136
11
7.0212440157480316
21
-4.1287795275590549
0
LINE
8
BLACK
6
CONTINUOUS
10
7.0212440157480316
20
-4.1287795275590549
11
7.0410874015748028
21
-4.1287795275590549
0
LINE
8
BLACK
6
CONTINUOUS
10
7.0410874015748028
20
-4.1287795275590549
11
7.0950551968503932
21
-4.1287795275590549
0
LINE
8
BLACK
6
CONTINUOUS
10
7.0950551968503932
20
-4.1287795275590549
11
7.0734656692913385
21
-4.0873064173228348
0
LINE
8
BLACK
6
CONTINUOUS
10
7.0734656692913385
20
-4.0873064173228348
11
7.0732507480314961
21
-4.08656905511811
0
LINE
8
BLACK
6
CONTINUOUS
10
7.0732507480314961
20
-4.08656905511811
11
7.0737038188976378
21
-4.0851321653543309
0
LINE
8
BLACK
6
CONTINUOUS
10
7.0737038188976378
20
-4.0851321653543309
11
7.0750401968503933
21
-4.084436456692913
0
LINE
8
BLACK
6
CONTINUOUS
10
7.0750401968503933
20
-4.084436456692913
11
7.0764770866141733
21
-4.0848895275590547
0
LINE
8
BLACK
6
CONTINUOUS
10
7.0764770866141733
20
-4.0848895275590547
11
7.0769578740157479
21
-4.0854885433070862
0
LINE
8
BLACK
6
CONTINUOUS
10
7.0769578740157479
20
-4.0854885433070862
11
7.0963307086614176
21
-4.1227034251968506
0
LINE
8
BLACK
6
CONTINUOUS
10
7.0963307086614176
20
-4.1227034251968506
11
7.0963307086614176
21
-2.9576902362204724
0
LINE
8
BLACK
6
CONTINUOUS
10
7.0963307086614176
20
-2.9576902362204724
11
7.0769578740157479
21
-2.9949051574803147
0
LINE
8
BLACK
6
CONTINUOUS
10
7.0769578740157479
20
-2.9949051574803147
11
7.0764770866141733
21
-2.9955041732283463
0
LINE
8
BLACK
6
CONTINUOUS
10
7.0764770866141733
20
-2.9955041732283463
11
7.0750401968503933
21
-2.9959572440944879
0
LINE
8
BLACK
6
CONTINUOUS
10
7.0750401968503933
20
-2.9959572440944879
11
7.0737038188976378
21
-2.9952615354330709
0
LINE
8
BLACK
6
CONTINUOUS
10
7.0737038188976378
20
-2.9952615354330709
11
7.0732507480314961
21
-2.9938246456692914
0
LINE
8
BLACK
6
CONTINUOUS
10
7.0732507480314961
20
-2.9938246456692914
11
7.0734656692913385
21
-2.993087283464567
0
LINE
8
BLACK
6
CONTINUOUS
10
7.0734656692913385
20
-2.993087283464567
11
7.0950551968503932
21
-2.9516141732283465
0
LINE
8
BLACK
6
CONTINUOUS
10
7.0950551968503932
20
-2.9516141732283465
11
6.9268897637795277
21
-2.9516141732283465
0
LINE
8
BLACK
6
CONTINUOUS
10
6.9268897637795277
20
-2.9516141732283465
11
6.9261364566929133
21
-2.9514643307086614
0
LINE
8
BLACK
6
CONTINUOUS
10
6.9261364566929133
20
-2.9514643307086614
11
6.9250711023622049
21
-2.9503989763779526
0
LINE
8
BLACK
6
CONTINUOUS
10
6.9250711023622049
20
-2.9503989763779526
11
6.9250711023622049
21
-2.9488923622047243
0
LINE
8
BLACK
6
CONTINUOUS
10
6.9250711023622049
20
-2.9488923622047243
11
6.9261364566929133
21
-2.9478270078740159
0
LINE
8
BLACK
6
CONTINUOUS
10
6.9261364566929133
20
-2.9478270078740159
11
6.9268897637795277
21
-2.9476771653543308
0
LINE
8
BLACK
6
CONTINUOUS
10
6.9268897637795277
20
-2.9476771653543308
11
7.121386614173228
21
-2.9476771653543308
0
LINE
8
BLACK
6
CONTINUOUS
10
7.121386614173228
20
-2.9476771653543308
11
7.1221399212598424
21
-2.9478270078740159
0
LINE
8
BLACK
6
CONTINUOUS
10
6.9512781496062992
20
-3.9952123228346457
11
6.9518366535433067
21
-3.9952123228346457
0
LINE
8
BLACK
6
CONTINUOUS
10
6.9518366535433067
20
-3.9952123228346457
11
6.951853582677165
21
-3.9952193307086614
0
LINE
8
BLACK
6
CONTINUOUS
10
6.951853582677165
20
-3.9952193307086614
11
6.9518718897637797
21
-3.9952195669291339
0
LINE
8
BLACK
6
CONTINUOUS
10
6.9518718897637797
20
-3.9952195669291339
11
6.9524237401574798
21
-3.9953943307086615
0
LINE
8
BLACK
6
CONTINUOUS
10
6.9524237401574798
20
-3.9953943307086615
11
6.9917938188976381
21
-4.0122672047244095
0
LINE
8
BLACK
6
CONTINUOUS
10
6.9917938188976381
20
-4.0122672047244095
11
6.9923009448818894
21
-4.0125462598425194
0
LINE
8
BLACK
6
CONTINUOUS
10
6.9923009448818894
20
-4.0125462598425194
11
6.9931055905511812
21
-4.013370826771653
0
LINE
8
BLACK
6
CONTINUOUS
10
6.9931055905511812
20
-4.013370826771653
11
6.9935334645669291
21
-4.0144405118110233
0
LINE
8
BLACK
6
CONTINUOUS
10
6.9935334645669291
20
-4.0144405118110233
11
6.9935194488188976
21
-4.0155925196850397
0
LINE
8
BLACK
6
CONTINUOUS
10
6.9935194488188976
20
-4.0155925196850397
11
6.9930655905511809
21
-4.016651496062992
0
LINE
8
BLACK
6
CONTINUOUS
10
6.9930655905511809
20
-4.016651496062992
11
6.9922410629921261
21
-4.0174561811023617
0
LINE
8
BLACK
6
CONTINUOUS
10
6.9922410629921261
20
-4.0174561811023617
11
6.9911713779527558
21
-4.0178840551181105
0
LINE
8
BLACK
6
CONTINUOUS
10
6.9911713779527558
20
-4.0178840551181105
11
6.9900193307086615
21
-4.0178700000000003
0
LINE
8
BLACK
6
CONTINUOUS
10
6.9900193307086615
20
-4.0178700000000003
11
6.9894675196850393
21
-4.0176952362204723
0
LINE
8
BLACK
6
CONTINUOUS
10
6.9894675196850393
20
-4.0176952362204723
11
6.9542133464566929
21
-4.0025862992125987
0
LINE
8
BLACK
6
CONTINUOUS
10
6.9542133464566929
20
-4.0025862992125987
11
6.9542133464566929
21
-4.0243550393700787
0
LINE
8
BLACK
6
CONTINUOUS
10
6.9542133464566929
20
-4.0243550393700787
11
6.9541566141732281
21
-4.0249311023622045
0
LINE
8
BLACK
6
CONTINUOUS
10
6.9541566141732281
20
-4.0249311023622045
11
6.9537157086614174
21
-4.0259955118110238
0
LINE
8
BLACK
6
CONTINUOUS
10
6.9537157086614174
20
-4.0259955118110238
11
6.952901062992126
21
-4.0268101574803152
0
LINE
8
BLACK
6
CONTINUOUS
10
6.952901062992126
20
-4.0268101574803152
11
6.9518366535433067
21
-4.0272510629921259
0
LINE
8
BLACK
6
CONTINUOUS
10
6.9518366535433067
20
-4.0272510629921259
11
6.950684527559055
21
-4.0272510629921259
0
LINE
8
BLACK
6
CONTINUOUS
10
6.950684527559055
20
-4.0272510629921259
11
6.9496201181102357
21
-4.0268101574803152
0
LINE
8
BLACK
6
CONTINUOUS
10
6.9496201181102357
20
-4.0268101574803152
11
6.9488054724409452
21
-4.0259955118110238
0
LINE
8
BLACK
6
CONTINUOUS
10
6.9488054724409452
20
-4.0259955118110238
11
6.9483645669291336
21
-4.0249311023622045
0
LINE
8
BLACK
6
CONTINUOUS
10
6.9483645669291336
20
-4.0249311023622045
11
6.9483078346456688
21
-4.0243550393700787
0
LINE
8
BLACK
6
CONTINUOUS
10
6.9483078346456688
20
-4.0243550393700787
11
6.9483078346456688
21
-3.9981083464566929
0
LINE
8
BLACK
6
CONTINUOUS
10
6.9483078346456688
20
-3.9981083464566929
11
6.9483645669291336
21
-3.997532283464567
0
LINE
8
BLACK
6
CONTINUOUS
10
6.9483645669291336
20
-3.997532283464567
11
6.9483715748031498
21
-3.99751531496063
0
LINE
8
BLACK
6
CONTINUOUS
10
6.9483715748031498
20
-3.99751531496063
11
6.9483718110236214
21
-3.9974970472440945
0
LINE
8
BLACK
6
CONTINUOUS
10
6.9483718110236214
20
-3.9974970472440945
11
6.948591811023622
21
-3.9969836220472441
0
LINE
8
BLACK
6
CONTINUOUS
10
6.948591811023622
20
-3.9969836220472441
11
6.9488054724409452
21
-3.9964678740157478
0
LINE
8
BLACK
6
CONTINUOUS
10
6.9488054724409452
20
-3.9964678740157478
11
6.9488183858267716
21
-3.9964549212598426
0
LINE
8
BLACK
6
CONTINUOUS
10
6.9488183858267716
20
-3.9964549212598426
11
6.9488256299212594
21
-3.9964380708661418
0
LINE
8
BLACK
6
CONTINUOUS
10
6.9488256299212594
20
-3.9964380708661418
11
6.9492256299212594
21
-3.9960476771653544
0
LINE
8
BLACK
6
CONTINUOUS
10
6.9492256299212594
20
-3.9960476771653544
11
6.9496201181102357
21
-3.9956532283464568
0
LINE
8
BLACK
6
CONTINUOUS
10
6.9496201181102357
20
-3.9956532283464568
11
6.949637047244094
21
-3.9956461811023622
0
LINE
8
BLACK
6
CONTINUOUS
10
6.949637047244094
20
-3.9956461811023622
11
6.9496501968503939
21
-3.9956333858267716
0
LINE
8
BLACK
6
CONTINUOUS
10
6.9496501968503939
20
-3.9956333858267716
11
6.9501691732283462
21
-3.9954257480314959
0
LINE
8
BLACK
6
CONTINUOUS
10
6.9501691732283462
20
-3.9954257480314959
11
6.950684527559055
21
-3.9952123228346457
0
LINE
8
BLACK
6
CONTINUOUS
10
6.950684527559055
20
-3.9952123228346457
11
6.9507028740157475
21
-3.9952123228346457
0
LINE
8
BLACK
6
CONTINUOUS
10
6.9507028740157475
20
-3.9952123228346457
11
6.9507198818897633
21
-3.9952055118110237
0
LINE
8
BLACK
6
CONTINUOUS
10
6.9507198818897633
20
-3.9952055118110237
11
6.9512781496062992
21
-3.9952123228346457
0
LINE
8
BLACK
6
CONTINUOUS
10
6.9903962992125983
20
-3.9787802755905513
11
6.9903963779527558
21
-3.97878031496063
0
LINE
8
BLACK
6
CONTINUOUS
10
6.9903963779527558
20
-3.97878031496063
11
6.9908438188976376
21
-3.9791475196850392
0
LINE
8
BLACK
6
CONTINUOUS
10
6.9908438188976376
20
-3.9791475196850392
11
6.9927185826771652
21
-3.9810222834645668
0
LINE
8
BLACK
6
CONTINUOUS
10
6.9927185826771652
20
-3.9810222834645668
11
6.9930857874015748
21
-3.9814697244094486
0
LINE
8
BLACK
6
CONTINUOUS
10
6.9930857874015748
20
-3.9814697244094486
11
6.9932273622047241
21
-3.981811496062992
0
LINE
8
BLACK
6
CONTINUOUS
10
6.9932273622047241
20
-3.981811496062992
11
6.9935266929133855
21
-3.9825341732283466
0
LINE
8
BLACK
6
CONTINUOUS
10
6.9935266929133855
20
-3.9825341732283466
11
6.9935266929133855
21
-3.9836862598425196
0
LINE
8
BLACK
6
CONTINUOUS
10
6.9935266929133855
20
-3.9836862598425196
11
6.9930857874015748
21
-3.9847506692913384
0
LINE
8
BLACK
6
CONTINUOUS
10
6.9930857874015748
20
-3.9847506692913384
11
6.9927185826771652
21
-3.9851981102362202
0
LINE
8
BLACK
6
CONTINUOUS
10
6.9927185826771652
20
-3.9851981102362202
11
6.9908438188976376
21
-3.9870728740157477
0
LINE
8
BLACK
6
CONTINUOUS
10
6.9908438188976376
20
-3.9870728740157477
11
6.9903963779527558
21
-3.9874400787401574
0
LINE
8
BLACK
6
CONTINUOUS
10
6.9903963779527558
20
-3.9874400787401574
11
6.9893319685039366
21
-3.9878809842519685
0
LINE
8
BLACK
6
CONTINUOUS
10
6.9893319685039366
20
-3.9878809842519685
11
6.9881798818897636
21
-3.9878809842519685
0
LINE
8
BLACK
6
CONTINUOUS
10
6.9881798818897636
20
-3.9878809842519685
11
6.9871154724409443
21
-3.9874401181102361
0
LINE
8
BLACK
6
CONTINUOUS
10
6.9871154724409443
20
-3.9874401181102361
11
6.9866679921259838
21
-3.9870728740157477
0
LINE
8
BLACK
6
CONTINUOUS
10
6.9866679921259838
20
-3.9870728740157477
11
6.9847932283464562
21
-3.9851981496062989
0
LINE
8
BLACK
6
CONTINUOUS
10
6.9847932283464562
20
-3.9851981496062989
11
6.9844259842519687
21
-3.9847506692913384
0
LINE
8
BLACK
6
CONTINUOUS
10
6.9844259842519687
20
-3.9847506692913384
11
6.9844259448818899
21
-3.9847506299212596
0
LINE
8
BLACK
6
CONTINUOUS
10
6.9844259448818899
20
-3.9847506299212596
11
6.9839850787401572
21
-3.9836862204724408
0
LINE
8
BLACK
6
CONTINUOUS
10
6.9839850787401572
20
-3.9836862204724408
11
6.9839850787401572
21
-3.9825341338582678
0
LINE
8
BLACK
6
CONTINUOUS
10
6.9839850787401572
20
-3.9825341338582678
11
6.9842844094488186
21
-3.981811496062992
0
LINE
8
BLACK
6
CONTINUOUS
10
6.9842844094488186
20
-3.981811496062992
11
6.9844259448818899
21
-3.9814697637795273
0
LINE
8
BLACK
6
CONTINUOUS
10
6.9844259448818899
20
-3.9814697637795273
11
6.9844259842519687
21
-3.9814697244094486
0
LINE
8
BLACK
6
CONTINUOUS
10
6.9844259842519687
20
-3.9814697244094486
11
6.9847932283464562
21
-3.981022244094488
0
LINE
8
BLACK
6
CONTINUOUS
10
6.9847932283464562
20
-3.981022244094488
11
6.9866679921259838
21
-3.9791475196850392
0
LINE
8
BLACK
6
CONTINUOUS
10
6.9866679921259838
20
-3.9791475196850392
11
6.9871154724409443
21
-3.9787802755905513
0
LINE
8
BLACK
6
CONTINUOUS
10
6.9871154724409443
20
-3.9787802755905513
11
6.9881798818897636
21
-3.9783394094488189
0
LINE
8
BLACK
6
CONTINUOUS
10
6.9881798818897636
20
-3.9783394094488189
11
6.9893319685039366
21
-3.9783394094488189
0
LINE
8
BLACK
6
CONTINUOUS
10
6.9893319685039366
20
-3.9783394094488189
11
6.9903962992125983
21
-3.9787802755905513
0
LINE
8
BLACK
6
CONTINUOUS
10
6.9837076377952751
20
-3.9408441338582678
11
6.9838056299212594
21
-3.9408847244094489
0
LINE
8
BLACK
6
CONTINUOUS
10
6.9838056299212594
20
-3.9408847244094489
11
6.9839114566929128
21
-3.940892244094488
0
LINE
8
BLACK
6
CONTINUOUS
10
6.9839114566929128
20
-3.940892244094488
11
6.9844520866141728
21
-3.9410991338582675
0
LINE
8
BLACK
6
CONTINUOUS
10
6.9844520866141728
20
-3.9410991338582675
11
6.9882016141732279
21
-3.942973897637795
0
LINE
8
BLACK
6
CONTINUOUS
10
6.9882016141732279
20
-3.942973897637795
11
6.9884494881889765
21
-3.9431299212598425
0
LINE
8
BLACK
6
CONTINUOUS
10
6.9884494881889765
20
-3.9431299212598425
11
6.9885215354330708
21
-3.9431597637795273
0
LINE
8
BLACK
6
CONTINUOUS
10
6.9885215354330708
20
-3.9431597637795273
11
6.988602559055118
21
-3.9432262598425196
0
LINE
8
BLACK
6
CONTINUOUS
10
6.988602559055118
20
-3.9432262598425196
11
6.9886914960629918
21
-3.9432822440944881
0
LINE
8
BLACK
6
CONTINUOUS
10
6.9886914960629918
20
-3.9432822440944881
11
6.9887426377952755
21
-3.943341220472441
0
LINE
8
BLACK
6
CONTINUOUS
10
6.9887426377952755
20
-3.943341220472441
11
6.9889689763779526
21
-3.9435269685039369
0
LINE
8
BLACK
6
CONTINUOUS
10
6.9889689763779526
20
-3.9435269685039369
11
6.9908437795275589
21
-3.9454017322834645
0
LINE
8
BLACK
6
CONTINUOUS
10
6.9908437795275589
20
-3.9454017322834645
11
6.9910295275590553
21
-3.9456280708661415
0
LINE
8
BLACK
6
CONTINUOUS
10
6.9910295275590553
20
-3.9456280708661415
11
6.9910885826771656
21
-3.9456792913385828
0
LINE
8
BLACK
6
CONTINUOUS
10
6.9910885826771656
20
-3.9456792913385828
11
6.9911445669291341
21
-3.9457682283464566
0
LINE
8
BLACK
6
CONTINUOUS
10
6.9911445669291341
20
-3.9457682283464566
11
6.9912110236220473
21
-3.945849212598425
0
LINE
8
BLACK
6
CONTINUOUS
10
6.9912110236220473
20
-3.945849212598425
11
6.9912408267716533
21
-3.9459211417322835
0
LINE
8
BLACK
6
CONTINUOUS
10
6.9912408267716533
20
-3.9459211417322835
11
6.9913969291338578
21
-3.9461691732283461
0
LINE
8
BLACK
6
CONTINUOUS
10
6.9913969291338578
20
-3.9461691732283461
11
6.9932716929133854
21
-3.9499187007874017
0
LINE
8
BLACK
6
CONTINUOUS
10
6.9932716929133854
20
-3.9499187007874017
11
6.9934785826771648
21
-3.9504592913385825
0
LINE
8
BLACK
6
CONTINUOUS
10
6.9934785826771648
20
-3.9504592913385825
11
6.9934861023622048
21
-3.9505651574803147
0
LINE
8
BLACK
6
CONTINUOUS
10
6.9934861023622048
20
-3.9505651574803147
11
6.9935266929133855
21
-3.9506631496062989
0
LINE
8
BLACK
6
CONTINUOUS
10
6.9935266929133855
20
-3.9506631496062989
11
6.9935834251968503
21
-3.9512392125984253
0
LINE
8
BLACK
6
CONTINUOUS
10
6.9935834251968503
20
-3.9512392125984253
11
6.9935834251968503
21
-3.960613031496063
0
LINE
8
BLACK
6
CONTINUOUS
10
6.9935834251968503
20
-3.960613031496063
11
6.9935266929133855
21
-3.9611890944881889
0
LINE
8
BLACK
6
CONTINUOUS
10
6.9935266929133855
20
-3.9611890944881889
11
6.9934861023622048
21
-3.9612870472440944
0
LINE
8
BLACK
6
CONTINUOUS
10
6.9934861023622048
20
-3.9612870472440944
11
6.9934785826771648
21
-3.9613929527559053
0
LINE
8
BLACK
6
CONTINUOUS
10
6.9934785826771648
20
-3.9613929527559053
11
6.9932716929133854
21
-3.9619335433070866
0
LINE
8
BLACK
6
CONTINUOUS
10
6.9932716929133854
20
-3.9619335433070866
11
6.9913969291338578
21
-3.9656830708661417
0
LINE
8
BLACK
6
CONTINUOUS
10
6.9913969291338578
20
-3.9656830708661417
11
6.9912408267716533
21
-3.9659310629921261
0
LINE
8
BLACK
6
CONTINUOUS
10
6.9912408267716533
20
-3.9659310629921261
11
6.9912110236220473
21
-3.9660030314960628
0
LINE
8
BLACK
6
CONTINUOUS
10
6.9912110236220473
20
-3.9660030314960628
11
6.9911445669291341
21
-3.9660839763779525
0
LINE
8
BLACK
6
CONTINUOUS
10
6.9911445669291341
20
-3.9660839763779525
11
6.9910885826771656
21
-3.9661729527559055
0
LINE
8
BLACK
6
CONTINUOUS
10
6.9910885826771656
20
-3.9661729527559055
11
6.9910295275590553
21
-3.9662241338582676
0
LINE
8
BLACK
6
CONTINUOUS
10
6.9910295275590553
20
-3.9662241338582676
11
6.9908437795275589
21
-3.9664505118110234
0
LINE
8
BLACK
6
CONTINUOUS
10
6.9908437795275589
20
-3.9664505118110234
11
6.9889689763779526
21
-3.9683252755905509
0
LINE
8
BLACK
6
CONTINUOUS
10
6.9889689763779526
20
-3.9683252755905509
11
6.9885215354330708
21
-3.9686924803149606
0
LINE
8
BLACK
6
CONTINUOUS
10
6.9885215354330708
20
-3.9686924803149606
11
6.9874571259842515
21
-3.9691333464566929
0
LINE
8
BLACK
6
CONTINUOUS
10
6.9874571259842515
20
-3.9691333464566929
11
6.9863050393700785
21
-3.9691333464566929
0
LINE
8
BLACK
6
CONTINUOUS
10
6.9863050393700785
20
-3.9691333464566929
11
6.9852406299212593
21
-3.9686924409448818
0
LINE
8
BLACK
6
CONTINUOUS
10
6.9852406299212593
20
-3.9686924409448818
11
6.9844259448818899
21
-3.9678777559055116
0
LINE
8
BLACK
6
CONTINUOUS
10
6.9844259448818899
20
-3.9678777559055116
11
6.9839850787401572
21
-3.9668133464566928
0
LINE
8
BLACK
6
CONTINUOUS
10
6.9839850787401572
20
-3.9668133464566928
11
6.9839850787401572
21
-3.9656612598425194
0
LINE
8
BLACK
6
CONTINUOUS
10
6.9839850787401572
20
-3.9656612598425194
11
6.9844259842519687
21
-3.9645968503937006
0
LINE
8
BLACK
6
CONTINUOUS
10
6.9844259842519687
20
-3.9645968503937006
11
6.9847932283464562
21
-3.96414937007874
0
LINE
8
BLACK
6
CONTINUOUS
10
6.9847932283464562
20
-3.96414937007874
11
6.9863291732283459
21
-3.9626134251968503
0
LINE
8
BLACK
6
CONTINUOUS
10
6.9863291732283459
20
-3.9626134251968503
11
6.9876779133858262
21
-3.9599159842519684
0
LINE
8
BLACK
6
CONTINUOUS
10
6.9876779133858262
20
-3.9599159842519684
11
6.9876779133858262
21
-3.9519362598425194
0
LINE
8
BLACK
6
CONTINUOUS
10
6.9876779133858262
20
-3.9519362598425194
11
6.9863291732283459
21
-3.9492387795275588
0
LINE
8
BLACK
6
CONTINUOUS
10
6.9863291732283459
20
-3.9492387795275588
11
6.9851320078740153
21
-3.9480416535433069
0
LINE
8
BLACK
6
CONTINUOUS
10
6.9851320078740153
20
-3.9480416535433069
11
6.9824345275590547
21
-3.9466929133858266
0
LINE
8
BLACK
6
CONTINUOUS
10
6.9824345275590547
20
-3.9466929133858266
11
6.9744548031496061
21
-3.9466929133858266
0
LINE
8
BLACK
6
CONTINUOUS
10
6.9744548031496061
20
-3.9466929133858266
11
6.9717573228346454
21
-3.9480416535433069
0
LINE
8
BLACK
6
CONTINUOUS
10
6.9717573228346454
20
-3.9480416535433069
11
6.9705601968503936
21
-3.9492387795275588
0
LINE
8
BLACK
6
CONTINUOUS
10
6.9705601968503936
20
-3.9492387795275588
11
6.9692114566929133
21
-3.9519362598425194
0
LINE
8
BLACK
6
CONTINUOUS
10
6.9692114566929133
20
-3.9519362598425194
11
6.9692114566929133
21
-3.9599159842519684
0
LINE
8
BLACK
6
CONTINUOUS
10
6.9692114566929133
20
-3.9599159842519684
11
6.9705601968503936
21
-3.9626134645669291
0
LINE
8
BLACK
6
CONTINUOUS
10
6.9705601968503936
20
-3.9626134645669291
11
6.9720961417322833
21
-3.9641494094488188
0
LINE
8
BLACK
6
CONTINUOUS
10
6.9720961417322833
20
-3.9641494094488188
11
6.972463346456693
21
-3.9645968503937006
0
LINE
8
BLACK
6
CONTINUOUS
10
6.972463346456693
20
-3.9645968503937006
11
6.9725202362204719
21
-3.9647341732283463
0
LINE
8
BLACK
6
CONTINUOUS
10
6.9725202362204719
20
-3.9647341732283463
11
6.9726144094488189
21
-3.9648492913385827
0
LINE
8
BLACK
6
CONTINUOUS
10
6.9726144094488189
20
-3.9648492913385827
11
6.9727390944881886
21
-3.9652625590551178
0
LINE
8
BLACK
6
CONTINUOUS
10
6.9727390944881886
20
-3.9652625590551178
11
6.9729042519685036
21
-3.9656612598425194
0
LINE
8
BLACK
6
CONTINUOUS
10
6.9729042519685036
20
-3.9656612598425194
11
6.9729042519685036
21
-3.9658099212598423
0
LINE
8
BLACK
6
CONTINUOUS
10
6.9729042519685036
20
-3.9658099212598423
11
6.9729472047244094
21
-3.9659522834645666
0
LINE
8
BLACK
6
CONTINUOUS
10
6.9729472047244094
20
-3.9659522834645666
11
6.9729042519685036
21
-3.966381771653543
0
LINE
8
BLACK
6
CONTINUOUS
10
6.9729042519685036
20
-3.966381771653543
11
6.9729042519685036
21
-3.9668133464566928
0
LINE
8
BLACK
6
CONTINUOUS
10
6.9729042519685036
20
-3.9668133464566928
11
6.9728473228346459
21
-3.9669506692913385
0
LINE
8
BLACK
6
CONTINUOUS
10
6.9728473228346459
20
-3.9669506692913385
11
6.9728325590551181
21
-3.9670987007874015
0
LINE
8
BLACK
6
CONTINUOUS
10
6.9728325590551181
20
-3.9670987007874015
11
6.9726284251968504
21
-3.9674791338582676
0
LINE
8
BLACK
6
CONTINUOUS
10
6.9726284251968504
20
-3.9674791338582676
11
6.972463346456693
21
-3.9678777559055116
0
LINE
8
BLACK
6
CONTINUOUS
10
6.972463346456693
20
-3.9678777559055116
11
6.9723581889763775
21
-3.9679828740157479
0
LINE
8
BLACK
6
CONTINUOUS
10
6.9723581889763775
20
-3.9679828740157479
11
6.9722879133858262
21
-3.9681139370078737
0
LINE
8
BLACK
6
CONTINUOUS
10
6.9722879133858262
20
-3.9681139370078737
11
6.9719537007874015
21
-3.9683873622047243
0
LINE
8
BLACK
6
CONTINUOUS
10
6.9719537007874015
20
-3.9683873622047243
11
6.9716486614173228
21
-3.9686924409448818
0
LINE
8
BLACK
6
CONTINUOUS
10
6.9716486614173228
20
-3.9686924409448818
11
6.9715113779527558
21
-3.9687492913385825
0
LINE
8
BLACK
6
CONTINUOUS
10
6.9715113779527558
20
-3.9687492913385825
11
6.9713962598425194
21
-3.9688435039370078
0
LINE
8
BLACK
6
CONTINUOUS
10
6.9713962598425194
20
-3.9688435039370078
11
6.9709828346456693
21
-3.9689682283464567
0
LINE
8
BLACK
6
CONTINUOUS
10
6.9709828346456693
20
-3.9689682283464567
11
6.9705842519685035
21
-3.9691333464566929
0
LINE
8
BLACK
6
CONTINUOUS
10
6.9705842519685035
20
-3.9691333464566929
11
6.9704356299212593
21
-3.9691333464566929
0
LINE
8
BLACK
6
CONTINUOUS
10
6.9704356299212593
20
-3.9691333464566929
11
6.970293267716535
21
-3.9691762992125983
0
LINE
8
BLACK
6
CONTINUOUS
10
6.970293267716535
20
-3.9691762992125983
11
6.9697144094488186
21
-3.9691754330708662
0
LINE
8
BLACK
6
CONTINUOUS
10
6.9697144094488186
20
-3.9691754330708662
11
6.950966771653543
21
-3.9673006692913386
0
LINE
8
BLACK
6
CONTINUOUS
10
6.950966771653543
20
-3.9673006692913386
11
6.9507568503937005
21
-3.9672585826771654
0
LINE
8
BLACK
6
CONTINUOUS
10
6.9507568503937005
20
-3.9672585826771654
11
6.950684527559055
21
-3.9672585826771654
0
LINE
8
BLACK
6
CONTINUOUS
10
6.950684527559055
20
-3.9672585826771654
11
6.9506166929133855
21
-3.9672304724409448
0
LINE
8
BLACK
6
CONTINUOUS
10
6.9506166929133855
20
-3.9672304724409448
11
6.9503992125984251
21
-3.9671868897637794
0
LINE
8
BLACK
6
CONTINUOUS
10
6.9503992125984251
20
-3.9671868897637794
11
6.9500188976377952
21
-3.9669828346456693
0
LINE
8
BLACK
6
CONTINUOUS
10
6.9500188976377952
20
-3.9669828346456693
11
6.9496201181102357
21
-3.9668176771653543
0
LINE
8
BLACK
6
CONTINUOUS
10
6.9496201181102357
20
-3.9668176771653543
11
6.9495149212598424
21
-3.9667124803149605
0
LINE
8
BLACK
6
CONTINUOUS
10
6.9495149212598424
20
-3.9667124803149605
11
6.9493839763779528
21
-3.966642244094488
0
LINE
8
BLACK
6
CONTINUOUS
10
6.9493839763779528
20
-3.966642244094488
11
6.9491107086614168
21
-3.9663082677165353
0
LINE
8
BLACK
6
CONTINUOUS
10
6.9491107086614168
20
-3.9663082677165353
11
6.9488054724409452
21
-3.9660030314960628
0
LINE
8
BLACK
6
CONTINUOUS
10
6.9488054724409452
20
-3.9660030314960628
11
6.9487485433070866
21
-3.9658656692913383
0
LINE
8
BLACK
6
CONTINUOUS
10
6.9487485433070866
20
-3.9658656692913383
11
6.9486544094488192
21
-3.9657505905511812
0
LINE
8
BLACK
6
CONTINUOUS
10
6.9486544094488192
20
-3.9657505905511812
11
6.9485296850393699
21
-3.9653372834645668
0
LINE
8
BLACK
6
CONTINUOUS
10
6.9485296850393699
20
-3.9653372834645668
11
6.9483645669291336
21
-3.964938622047244
0
LINE
8
BLACK
6
CONTINUOUS
10
6.9483645669291336
20
-3.964938622047244
11
6.9483427952755905
21
-3.9647179133858268
0
LINE
8
BLACK
6
CONTINUOUS
10
6.9483427952755905
20
-3.9647179133858268
11
6.9483216141732278
21
-3.9646475984251968
0
LINE
8
BLACK
6
CONTINUOUS
10
6.9483216141732278
20
-3.9646475984251968
11
6.948328779527559
21
-3.9645755905511808
0
LINE
8
BLACK
6
CONTINUOUS
10
6.948328779527559
20
-3.9645755905511808
11
6.9483078346456688
21
-3.9643625590551181
0
LINE
8
BLACK
6
CONTINUOUS
10
6.9483078346456688
20
-3.9643625590551181
11
6.9483078346456688
21
-3.9456149212598426
0
LINE
8
BLACK
6
CONTINUOUS
10
6.9483078346456688
20
-3.9456149212598426
11
6.9483645669291336
21
-3.9450388582677163
0
LINE
8
BLACK
6
CONTINUOUS
10
6.9483645669291336
20
-3.9450388582677163
11
6.9488054724409452
21
-3.9439744488188975
0
LINE
8
BLACK
6
CONTINUOUS
10
6.9488054724409452
20
-3.9439744488188975
11
6.9496201181102357
21
-3.943159803149606
0
LINE
8
BLACK
6
CONTINUOUS
10
6.9496201181102357
20
-3.943159803149606
11
6.950684527559055
21
-3.9427188976377954
0
LINE
8
BLACK
6
CONTINUOUS
10
6.950684527559055
20
-3.9427188976377954
11
6.9518366535433067
21
-3.9427188976377954
0
LINE
8
BLACK
6
CONTINUOUS
10
6.9518366535433067
20
-3.9427188976377954
11
6.952901062992126
21
-3.943159803149606
0
LINE
8
BLACK
6
CONTINUOUS
10
6.952901062992126
20
-3.943159803149606
11
6.9537157086614174
21
-3.9439744488188975
0
LINE
8
BLACK
6
CONTINUOUS
10
6.9537157086614174
20
-3.9439744488188975
11
6.9541566141732281
21
-3.9450388582677163
0
LINE
8
BLACK
6
CONTINUOUS
10
6.9541566141732281
20
-3.9450388582677163
11
6.9542133464566929
21
-3.9456149212598426
0
LINE
8
BLACK
6
CONTINUOUS
10
6.9542133464566929
20
-3.9456149212598426
11
6.9542133464566929
21
-3.96169031496063
0
LINE
8
BLACK
6
CONTINUOUS
10
6.9542133464566929
20
-3.96169031496063
11
6.9639846062992126
21
-3.9626674409448817
0
LINE
8
BLACK
6
CONTINUOUS
10
6.9639846062992126
20
-3.9626674409448817
11
6.9636176771653542
21
-3.9619335433070866
0
LINE
8
BLACK
6
CONTINUOUS
10
6.9636176771653542
20
-3.9619335433070866
11
6.9634107874015747
21
-3.9613929133858266
0
LINE
8
BLACK
6
CONTINUOUS
10
6.9634107874015747
20
-3.9613929133858266
11
6.9634032677165356
21
-3.9612870866141732
0
LINE
8
BLACK
6
CONTINUOUS
10
6.9634032677165356
20
-3.9612870866141732
11
6.9633626771653541
21
-3.9611890944881889
0
LINE
8
BLACK
6
CONTINUOUS
10
6.9633626771653541
20
-3.9611890944881889
11
6.9633059448818893
21
-3.960613031496063
0
LINE
8
BLACK
6
CONTINUOUS
10
6.9633059448818893
20
-3.960613031496063
11
6.9633059448818893
21
-3.9512392125984253
0
LINE
8
BLACK
6
CONTINUOUS
10
6.9633059448818893
20
-3.9512392125984253
11
6.9633626771653541
21
-3.9506631496062989
0
LINE
8
BLACK
6
CONTINUOUS
10
6.9633626771653541
20
-3.9506631496062989
11
6.9634032677165356
21
-3.9505651181102359
0
LINE
8
BLACK
6
CONTINUOUS
10
6.9634032677165356
20
-3.9505651181102359
11
6.9634107874015747
21
-3.9504593307086613
0
LINE
8
BLACK
6
CONTINUOUS
10
6.9634107874015747
20
-3.9504593307086613
11
6.9636176771653542
21
-3.9499187007874017
0
LINE
8
BLACK
6
CONTINUOUS
10
6.9636176771653542
20
-3.9499187007874017
11
6.9654924409448817
21
-3.9461691732283461
0
LINE
8
BLACK
6
CONTINUOUS
10
6.9654924409448817
20
-3.9461691732283461
11
6.9656485039370075
21
-3.9459211417322835
0
LINE
8
BLACK
6
CONTINUOUS
10
6.9656485039370075
20
-3.9459211417322835
11
6.9656783464566931
21
-3.945849212598425
0
LINE
8
BLACK
6
CONTINUOUS
10
6.9656783464566931
20
-3.945849212598425
11
6.9657448031496063
21
-3.9457682283464566
0
LINE
8
BLACK
6
CONTINUOUS
10
6.9657448031496063
20
-3.9457682283464566
11
6.9658007874015748
21
-3.9456792913385828
0
LINE
8
BLACK
6
CONTINUOUS
10
6.9658007874015748
20
-3.9456792913385828
11
6.9658597637795276
21
-3.9456281102362203
0
LINE
8
BLACK
6
CONTINUOUS
10
6.9658597637795276
20
-3.9456281102362203
11
6.9660455511811019
21
-3.9454017716535432
0
LINE
8
BLACK
6
CONTINUOUS
10
6.9660455511811019
20
-3.9454017716535432
11
6.9679203149606295
21
-3.9435270078740157
0
LINE
8
BLACK
6
CONTINUOUS
10
6.9679203149606295
20
-3.9435270078740157
11
6.9681466535433065
21
-3.943341220472441
0
LINE
8
BLACK
6
CONTINUOUS
10
6.9681466535433065
20
-3.943341220472441
11
6.968197834645669
21
-3.9432822440944881
0
LINE
8
BLACK
6
CONTINUOUS
10
6.968197834645669
20
-3.9432822440944881
11
6.9682867716535428
21
-3.9432262598425196
0
LINE
8
BLACK
6
CONTINUOUS
10
6.9682867716535428
20
-3.9432262598425196
11
6.9683677559055113
21
-3.943159803149606
0
LINE
8
BLACK
6
CONTINUOUS
10
6.9683677559055113
20
-3.943159803149606
11
6.9684396850393702
21
-3.9431299606299213
0
LINE
8
BLACK
6
CONTINUOUS
10
6.9684396850393702
20
-3.9431299606299213
11
6.9686877165354328
21
-3.942973897637795
0
LINE
8
BLACK
6
CONTINUOUS
10
6.9686877165354328
20
-3.942973897637795
11
6.972437244094488
21
-3.9410991338582675
0
LINE
8
BLACK
6
CONTINUOUS
10
6.972437244094488
20
-3.9410991338582675
11
6.9729778346456692
21
-3.940892244094488
0
LINE
8
BLACK
6
CONTINUOUS
10
6.9729778346456692
20
-3.940892244094488
11
6.9730837007874014
21
-3.9408846850393702
0
LINE
8
BLACK
6
CONTINUOUS
10
6.9730837007874014
20
-3.9408846850393702
11
6.9731816929133856
21
-3.9408441338582678
0
LINE
8
BLACK
6
CONTINUOUS
10
6.9731816929133856
20
-3.9408441338582678
11
6.9737577559055115
21
-3.940787401574803
0
LINE
8
BLACK
6
CONTINUOUS
10
6.9737577559055115
20
-3.940787401574803
11
6.9831315748031493
21
-3.940787401574803
0
LINE
8
BLACK
6
CONTINUOUS
10
6.9831315748031493
20
-3.940787401574803
11
6.9837076377952751
21
-3.9408441338582678
0
LINE
8
BLACK
6
CONTINUOUS
10
7.0640068503937004
20
-3.6122914173228344
11
7.0641048425196846
21
-3.6123320078740155
0
LINE
8
BLACK
6
CONTINUOUS
10
7.0641048425196846
20
-3.6123320078740155
11
7.064210669291338
21
-3.6123395275590551
0
LINE
8
BLACK
6
CONTINUOUS
10
7.064210669291338
20
-3.6123395275590551
11
7.064751299212598
21
-3.6125464173228345
0
LINE
8
BLACK
6
CONTINUOUS
10
7.064751299212598
20
-3.6125464173228345
11
7.0685008267716531
21
-3.6144211811023621
0
LINE
8
BLACK
6
CONTINUOUS
10
7.0685008267716531
20
-3.6144211811023621
11
7.0687487007874017
21
-3.6145772047244096
0
LINE
8
BLACK
6
CONTINUOUS
10
7.0687487007874017
20
-3.6145772047244096
11
7.068820748031496
21
-3.6146070472440943
0
LINE
8
BLACK
6
CONTINUOUS
10
7.068820748031496
20
-3.6146070472440943
11
7.0689017716535432
21
-3.6146735433070867
0
LINE
8
BLACK
6
CONTINUOUS
10
7.0689017716535432
20
-3.6146735433070867
11
7.068990708661417
21
-3.6147295275590552
0
LINE
8
BLACK
6
CONTINUOUS
10
7.068990708661417
20
-3.6147295275590552
11
7.0690418503937007
21
-3.614788503937008
0
LINE
8
BLACK
6
CONTINUOUS
10
7.0690418503937007
20
-3.614788503937008
11
7.0692681889763778
21
-3.614974251968504
0
LINE
8
BLACK
6
CONTINUOUS
10
7.0692681889763778
20
-3.614974251968504
11
7.0711429921259841
21
-3.6168490157480315
0
LINE
8
BLACK
6
CONTINUOUS
10
7.0711429921259841
20
-3.6168490157480315
11
7.0713287401574805
21
-3.6170753543307086
0
LINE
8
BLACK
6
CONTINUOUS
10
7.0713287401574805
20
-3.6170753543307086
11
7.0713877952755908
21
-3.6171265748031494
0
LINE
8
BLACK
6
CONTINUOUS
10
7.0713877952755908
20
-3.6171265748031494
11
7.0714437795275593
21
-3.6172155118110236
0
LINE
8
BLACK
6
CONTINUOUS
10
7.0714437795275593
20
-3.6172155118110236
11
7.0715102362204725
21
-3.6172964960629921
0
LINE
8
BLACK
6
CONTINUOUS
10
7.0715102362204725
20
-3.6172964960629921
11
7.0715400393700785
21
-3.6173684251968501
0
LINE
8
BLACK
6
CONTINUOUS
10
7.0715400393700785
20
-3.6173684251968501
11
7.071696141732283
21
-3.6176164566929132
0
LINE
8
BLACK
6
CONTINUOUS
10
7.071696141732283
20
-3.6176164566929132
11
7.0735709055118106
21
-3.6213659842519683
0
LINE
8
BLACK
6
CONTINUOUS
10
7.0735709055118106
20
-3.6213659842519683
11
7.07377779527559
21
-3.6219065748031496
0
LINE
8
BLACK
6
CONTINUOUS
10
7.07377779527559
20
-3.6219065748031496
11
7.07378531496063
21
-3.6220124409448817
0
LINE
8
BLACK
6
CONTINUOUS
10
7.07378531496063
20
-3.6220124409448817
11
7.0738259055118107
21
-3.622110433070866
0
LINE
8
BLACK
6
CONTINUOUS
10
7.0738259055118107
20
-3.622110433070866
11
7.0738826377952755
21
-3.6226864960629919
0
LINE
8
BLACK
6
CONTINUOUS
10
7.0738826377952755
20
-3.6226864960629919
11
7.0738826377952755
21
-3.6339350787401572
0
LINE
8
BLACK
6
CONTINUOUS
10
7.0738826377952755
20
-3.6339350787401572
11
7.0738259055118107
21
-3.6345111417322835
0
LINE
8
BLACK
6
CONTINUOUS
10
7.0738259055118107
20
-3.6345111417322835
11
7.07378531496063
21
-3.634609094488189
0
LINE
8
BLACK
6
CONTINUOUS
10
7.07378531496063
20
-3.634609094488189
11
7.07377779527559
21
-3.6347149999999999
0
LINE
8
BLACK
6
CONTINUOUS
10
7.07377779527559
20
-3.6347149999999999
11
7.0735709055118106
21
-3.6352555905511812
0
LINE
8
BLACK
6
CONTINUOUS
10
7.0735709055118106
20
-3.6352555905511812
11
7.071696141732283
21
-3.6390051181102363
0
LINE
8
BLACK
6
CONTINUOUS
10
7.071696141732283
20
-3.6390051181102363
11
7.0715400393700785
21
-3.6392531102362202
0
LINE
8
BLACK
6
CONTINUOUS
10
7.0715400393700785
20
-3.6392531102362202
11
7.0715102362204725
21
-3.6393250787401574
0
LINE
8
BLACK
6
CONTINUOUS
10
7.0715102362204725
20
-3.6393250787401574
11
7.0714437795275593
21
-3.6394060236220471
0
LINE
8
BLACK
6
CONTINUOUS
10
7.0714437795275593
20
-3.6394060236220471
11
7.0713877952755908
21
-3.6394949999999997
0
LINE
8
BLACK
6
CONTINUOUS
10
7.0713877952755908
20
-3.6394949999999997
11
7.0713287401574805
21
-3.6395461811023622
0
LINE
8
BLACK
6
CONTINUOUS
10
7.0713287401574805
20
-3.6395461811023622
11
7.0711429921259841
21
-3.639772559055118
0
LINE
8
BLACK
6
CONTINUOUS
10
7.0711429921259841
20
-3.639772559055118
11
7.0692681889763778
21
-3.6416473228346455
0
LINE
8
BLACK
6
CONTINUOUS
10
7.0692681889763778
20
-3.6416473228346455
11
7.068820748031496
21
-3.6420145275590552
0
LINE
8
BLACK
6
CONTINUOUS
10
7.068820748031496
20
-3.6420145275590552
11
7.0677563385826767
21
-3.6424553937007875
0
LINE
8
BLACK
6
CONTINUOUS
10
7.0677563385826767
20
-3.6424553937007875
11
7.0666042519685037
21
-3.6424553937007875
0
LINE
8
BLACK
6
CONTINUOUS
10
7.0666042519685037
20
-3.6424553937007875
11
7.0655398425196845
21
-3.6420144881889764
0
LINE
8
BLACK
6
CONTINUOUS
10
7.0655398425196845
20
-3.6420144881889764
11
7.0647251574803152
21
-3.6411998031496062
0
LINE
8
BLACK
6
CONTINUOUS
10
7.0647251574803152
20
-3.6411998031496062
11
7.0642842913385824
21
-3.6401353937007874
0
LINE
8
BLACK
6
CONTINUOUS
10
7.0642842913385824
20
-3.6401353937007874
11
7.0642842913385824
21
-3.638983307086614
0
LINE
8
BLACK
6
CONTINUOUS
10
7.0642842913385824
20
-3.638983307086614
11
7.0647251968503939
21
-3.6379188976377952
0
LINE
8
BLACK
6
CONTINUOUS
10
7.0647251968503939
20
-3.6379188976377952
11
7.0650924409448814
21
-3.6374714173228346
0
LINE
8
BLACK
6
CONTINUOUS
10
7.0650924409448814
20
-3.6374714173228346
11
7.0666283858267711
21
-3.6359354724409449
0
LINE
8
BLACK
6
CONTINUOUS
10
7.0666283858267711
20
-3.6359354724409449
11
7.0679771259842514
21
-3.6332380314960631
0
LINE
8
BLACK
6
CONTINUOUS
10
7.0679771259842514
20
-3.6332380314960631
11
7.0679771259842514
21
-3.6233835433070865
0
LINE
8
BLACK
6
CONTINUOUS
10
7.0679771259842514
20
-3.6233835433070865
11
7.0666283858267711
21
-3.6206860629921258
0
LINE
8
BLACK
6
CONTINUOUS
10
7.0666283858267711
20
-3.6206860629921258
11
7.0654312204724405
21
-3.619488937007874
0
LINE
8
BLACK
6
CONTINUOUS
10
7.0654312204724405
20
-3.619488937007874
11
7.0627337401574799
21
-3.6181401968503937
0
LINE
8
BLACK
6
CONTINUOUS
10
7.0627337401574799
20
-3.6181401968503937
11
7.0547540157480313
21
-3.6181401968503937
0
LINE
8
BLACK
6
CONTINUOUS
10
7.0547540157480313
20
-3.6181401968503937
11
7.0520565354330706
21
-3.619488937007874
0
LINE
8
BLACK
6
CONTINUOUS
10
7.0520565354330706
20
-3.619488937007874
11
7.0508594094488188
21
-3.6206860629921258
0
LINE
8
BLACK
6
CONTINUOUS
10
7.0508594094488188
20
-3.6206860629921258
11
7.0495106692913385
21
-3.6233835433070865
0
LINE
8
BLACK
6
CONTINUOUS
10
7.0495106692913385
20
-3.6233835433070865
11
7.0495106692913385
21
-3.6283107874015745
0
LINE
8
BLACK
6
CONTINUOUS
10
7.0495106692913385
20
-3.6283107874015745
11
7.04948062992126
21
-3.6286154330708662
0
LINE
8
BLACK
6
CONTINUOUS
10
7.04948062992126
20
-3.6286154330708662
11
7.0494858267716536
21
-3.6286929133858266
0
LINE
8
BLACK
6
CONTINUOUS
10
7.0494858267716536
20
-3.6286929133858266
11
7.0494677559055114
21
-3.6287462598425195
0
LINE
8
BLACK
6
CONTINUOUS
10
7.0494677559055114
20
-3.6287462598425195
11
7.0494539370078737
21
-3.6288868503937008
0
LINE
8
BLACK
6
CONTINUOUS
10
7.0494539370078737
20
-3.6288868503937008
11
7.0492703149606299
21
-3.6293300393700787
0
LINE
8
BLACK
6
CONTINUOUS
10
7.0492703149606299
20
-3.6293300393700787
11
7.0491167322834647
21
-3.6297842913385825
0
LINE
8
BLACK
6
CONTINUOUS
10
7.0491167322834647
20
-3.6297842913385825
11
7.0490511417322832
21
-3.629859251968504
0
LINE
8
BLACK
6
CONTINUOUS
10
7.0490511417322832
20
-3.629859251968504
11
7.0490130314960631
21
-3.6299512598425197
0
LINE
8
BLACK
6
CONTINUOUS
10
7.0490130314960631
20
-3.6299512598425197
11
7.0486740157480314
21
-3.6302902362204725
0
LINE
8
BLACK
6
CONTINUOUS
10
7.0486740157480314
20
-3.6302902362204725
11
7.0483580708661417
21
-3.6306513779527556
0
LINE
8
BLACK
6
CONTINUOUS
10
7.0483580708661417
20
-3.6306513779527556
11
7.0482687007874016
21
-3.6306955511811023
0
LINE
8
BLACK
6
CONTINUOUS
10
7.0482687007874016
20
-3.6306955511811023
11
7.0481983858267716
21
-3.6307659055118111
0
LINE
8
BLACK
6
CONTINUOUS
10
7.0481983858267716
20
-3.6307659055118111
11
7.0477554330708658
21
-3.6309493700787399
0
LINE
8
BLACK
6
CONTINUOUS
10
7.0477554330708658
20
-3.6309493700787399
11
7.0473253149606299
21
-3.6311620866141729
0
LINE
8
BLACK
6
CONTINUOUS
10
7.0473253149606299
20
-3.6311620866141729
11
7.0472259448818892
21
-3.6311687007874016
0
LINE
8
BLACK
6
CONTINUOUS
10
7.0472259448818892
20
-3.6311687007874016
11
7.0471339763779524
21
-3.6312068110236217
0
LINE
8
BLACK
6
CONTINUOUS
10
7.0471339763779524
20
-3.6312068110236217
11
7.046654251968504
21
-3.6312068110236217
0
LINE
8
BLACK
6
CONTINUOUS
10
7.046654251968504
20
-3.6312068110236217
11
7.0461757874015749
21
-3.6312387007874016
0
LINE
8
BLACK
6
CONTINUOUS
10
7.0461757874015749
20
-3.6312387007874016
11
7.0460814960629916
21
-3.6312068110236217
0
LINE
8
BLACK
6
CONTINUOUS
10
7.0460814960629916
20
-3.6312068110236217
11
7.0459818503937006
21
-3.6312068110236217
0
LINE
8
BLACK
6
CONTINUOUS
10
7.0459818503937006
20
-3.6312068110236217
11
7.0455386220472436
21
-3.631023188976378
0
LINE
8
BLACK
6
CONTINUOUS
10
7.0455386220472436
20
-3.631023188976378
11
7.045084409448819
21
-3.6308696062992127
0
LINE
8
BLACK
6
CONTINUOUS
10
7.045084409448819
20
-3.6308696062992127
11
7.0449695275590551
21
-3.6307874803149605
0
LINE
8
BLACK
6
CONTINUOUS
10
7.0449695275590551
20
-3.6307874803149605
11
7.0449174409448814
21
-3.6307659055118111
0
LINE
8
BLACK
6
CONTINUOUS
10
7.0449174409448814
20
-3.6307659055118111
11
7.0448624803149604
21
-3.6307109448818897
0
LINE
8
BLACK
6
CONTINUOUS
10
7.0448624803149604
20
-3.6307109448818897
11
7.0446135039370077
21
-3.6305329527559054
0
LINE
8
BLACK
6
CONTINUOUS
10
7.0446135039370077
20
-3.6305329527559054
11
7.0345125590551181
21
-3.6216946062992124
0
LINE
8
BLACK
6
CONTINUOUS
10
7.0345125590551181
20
-3.6216946062992124
11
7.0345125590551181
21
-3.6395593700787399
0
LINE
8
BLACK
6
CONTINUOUS
10
7.0345125590551181
20
-3.6395593700787399
11
7.0344558267716533
21
-3.6401354330708662
0
LINE
8
BLACK
6
CONTINUOUS
10
7.0344558267716533
20
-3.6401354330708662
11
7.0340149212598426
21
-3.641199842519685
0
LINE
8
BLACK
6
CONTINUOUS
10
7.0340149212598426
20
-3.641199842519685
11
7.0332002755905512
21
-3.6420144881889764
0
LINE
8
BLACK
6
CONTINUOUS
10
7.0332002755905512
20
-3.6420144881889764
11
7.0321358661417319
21
-3.6424553937007875
0
LINE
8
BLACK
6
CONTINUOUS
10
7.0321358661417319
20
-3.6424553937007875
11
7.0309837401574802
21
-3.6424553937007875
0
LINE
8
BLACK
6
CONTINUOUS
10
7.0309837401574802
20
-3.6424553937007875
11
7.0299193307086609
21
-3.6420144881889764
0
LINE
8
BLACK
6
CONTINUOUS
10
7.0299193307086609
20
-3.6420144881889764
11
7.0291046850393704
21
-3.641199842519685
0
LINE
8
BLACK
6
CONTINUOUS
10
7.0291046850393704
20
-3.641199842519685
11
7.0286637795275588
21
-3.6401354330708662
0
LINE
8
BLACK
6
CONTINUOUS
10
7.0286637795275588
20
-3.6401354330708662
11
7.028607047244094
21
-3.6395593700787399
0
LINE
8
BLACK
6
CONTINUOUS
10
7.028607047244094
20
-3.6395593700787399
11
7.028607047244094
21
-3.6151874409448816
0
LINE
8
BLACK
6
CONTINUOUS
10
7.028607047244094
20
-3.6151874409448816
11
7.0286370472440947
21
-3.6148827559055117
0
LINE
8
BLACK
6
CONTINUOUS
10
7.0286370472440947
20
-3.6148827559055117
11
7.028631889763779
21
-3.6148053149606296
0
LINE
8
BLACK
6
CONTINUOUS
10
7.028631889763779
20
-3.6148053149606296
11
7.0286499212598423
21
-3.6147519291338583
0
LINE
8
BLACK
6
CONTINUOUS
10
7.0286499212598423
20
-3.6147519291338583
11
7.0286637795275588
21
-3.6146113779527558
0
LINE
8
BLACK
6
CONTINUOUS
10
7.0286637795275588
20
-3.6146113779527558
11
7.0288473622047238
21
-3.6141681496062992
0
LINE
8
BLACK
6
CONTINUOUS
10
7.0288473622047238
20
-3.6141681496062992
11
7.0290009842519687
21
-3.6137139370078741
0
LINE
8
BLACK
6
CONTINUOUS
10
7.0290009842519687
20
-3.6137139370078741
11
7.0290665354330706
21
-3.6136389370078739
0
LINE
8
BLACK
6
CONTINUOUS
10
7.0290665354330706
20
-3.6136389370078739
11
7.0291046850393704
21
-3.613546968503937
0
LINE
8
BLACK
6
CONTINUOUS
10
7.0291046850393704
20
-3.613546968503937
11
7.0294436614173224
21
-3.6132079527559053
0
LINE
8
BLACK
6
CONTINUOUS
10
7.0294436614173224
20
-3.6132079527559053
11
7.0297596456692908
21
-3.6128468503937006
0
LINE
8
BLACK
6
CONTINUOUS
10
7.0297596456692908
20
-3.6128468503937006
11
7.029848976377953
21
-3.6128026377952756
0
LINE
8
BLACK
6
CONTINUOUS
10
7.029848976377953
20
-3.6128026377952756
11
7.0299193307086609
21
-3.6127323228346455
0
LINE
8
BLACK
6
CONTINUOUS
10
7.0299193307086609
20
-3.6127323228346455
11
7.030362244094488
21
-3.6125488188976376
0
LINE
8
BLACK
6
CONTINUOUS
10
7.030362244094488
20
-3.6125488188976376
11
7.0307924015748027
21
-3.6123361417322832
0
LINE
8
BLACK
6
CONTINUOUS
10
7.0307924015748027
20
-3.6123361417322832
11
7.0308917322834645
21
-3.6123294881889763
0
LINE
8
BLACK
6
CONTINUOUS
10
7.0308917322834645
20
-3.6123294881889763
11
7.0309837401574802
21
-3.6122914173228344
0
LINE
8
BLACK
6
CONTINUOUS
10
7.0309837401574802
20
-3.6122914173228344
11
7.0314634645669294
21
-3.6122914173228344
0
LINE
8
BLACK
6
CONTINUOUS
10
7.0314634645669294
20
-3.6122914173228344
11
7.0319419291338585
21
-3.612259527559055
0
LINE
8
BLACK
6
CONTINUOUS
10
7.0319419291338585
20
-3.612259527559055
11
7.0320362204724409
21
-3.6122914173228344
0
LINE
8
BLACK
6
CONTINUOUS
10
7.0320362204724409
20
-3.6122914173228344
11
7.0321358661417319
21
-3.6122914173228344
0
LINE
8
BLACK
6
CONTINUOUS
10
7.0321358661417319
20
-3.6122914173228344
11
7.0325790551181102
21
-3.6124749999999999
0
LINE
8
BLACK
6
CONTINUOUS
10
7.0325790551181102
20
-3.6124749999999999
11
7.0330333070866144
21
-3.6126286220472439
0
LINE
8
BLACK
6
CONTINUOUS
10
7.0330333070866144
20
-3.6126286220472439
11
7.0331481496062986
21
-3.6127107086614174
0
LINE
8
BLACK
6
CONTINUOUS
10
7.0331481496062986
20
-3.6127107086614174
11
7.0332002755905512
21
-3.6127323228346455
0
LINE
8
BLACK
6
CONTINUOUS
10
7.0332002755905512
20
-3.6127323228346455
11
7.0332551968503934
21
-3.6127872440944881
0
LINE
8
BLACK
6
CONTINUOUS
10
7.0332551968503934
20
-3.6127872440944881
11
7.0335042125984248
21
-3.6129652755905513
0
LINE
8
BLACK
6
CONTINUOUS
10
7.0335042125984248
20
-3.6129652755905513
11
7.0437132283464567
21
-3.6218981496062992
0
LINE
8
BLACK
6
CONTINUOUS
10
7.0437132283464567
20
-3.6218981496062992
11
7.0439168897637794
21
-3.6213659842519683
0
LINE
8
BLACK
6
CONTINUOUS
10
7.0439168897637794
20
-3.6213659842519683
11
7.0457916535433069
21
-3.6176164566929132
0
LINE
8
BLACK
6
CONTINUOUS
10
7.0457916535433069
20
-3.6176164566929132
11
7.0459477165354327
21
-3.6173684251968501
0
LINE
8
BLACK
6
CONTINUOUS
10
7.0459477165354327
20
-3.6173684251968501
11
7.0459775590551184
21
-3.6172964960629921
0
LINE
8
BLACK
6
CONTINUOUS
10
7.0459775590551184
20
-3.6172964960629921
11
7.0460440157480315
21
-3.6172155118110236
0
LINE
8
BLACK
6
CONTINUOUS
10
7.0460440157480315
20
-3.6172155118110236
11
7.0461
21
-3.6171265748031494
0
LINE
8
BLACK
6
CONTINUOUS
10
7.0461
20
-3.6171265748031494
11
7.0461589763779529
21
-3.6170753937007873
0
LINE
8
BLACK
6
CONTINUOUS
10
7.0461589763779529
20
-3.6170753937007873
11
7.0463447637795271
21
-3.6168490551181103
0
LINE
8
BLACK
6
CONTINUOUS
10
7.0463447637795271
20
-3.6168490551181103
11
7.0482195275590547
21
-3.6149742913385827
0
LINE
8
BLACK
6
CONTINUOUS
10
7.0482195275590547
20
-3.6149742913385827
11
7.0484458661417317
21
-3.614788503937008
0
LINE
8
BLACK
6
CONTINUOUS
10
7.0484458661417317
20
-3.614788503937008
11
7.0484970472440942
21
-3.6147295275590552
0
LINE
8
BLACK
6
CONTINUOUS
10
7.0484970472440942
20
-3.6147295275590552
11
7.048585984251968
21
-3.6146735433070867
0
LINE
8
BLACK
6
CONTINUOUS
10
7.048585984251968
20
-3.6146735433070867
11
7.0486669685039365
21
-3.6146070866141731
0
LINE
8
BLACK
6
CONTINUOUS
10
7.0486669685039365
20
-3.6146070866141731
11
7.0487388976377954
21
-3.6145772440944883
0
LINE
8
BLACK
6
CONTINUOUS
10
7.0487388976377954
20
-3.6145772440944883
11
7.048986929133858
21
-3.6144211811023621
0
LINE
8
BLACK
6
CONTINUOUS
10
7.048986929133858
20
-3.6144211811023621
11
7.0527364566929132
21
-3.6125464173228345
0
LINE
8
BLACK
6
CONTINUOUS
10
7.0527364566929132
20
-3.6125464173228345
11
7.0532770472440944
21
-3.6123395275590551
0
LINE
8
BLACK
6
CONTINUOUS
10
7.0532770472440944
20
-3.6123395275590551
11
7.0533829133858266
21
-3.6123319685039368
0
LINE
8
BLACK
6
CONTINUOUS
10
7.0533829133858266
20
-3.6123319685039368
11
7.0534809055118108
21
-3.6122914173228344
0
LINE
8
BLACK
6
CONTINUOUS
10
7.0534809055118108
20
-3.6122914173228344
11
7.0540569685039367
21
-3.6122346850393701
0
LINE
8
BLACK
6
CONTINUOUS
10
7.0540569685039367
20
-3.6122346850393701
11
7.0634307874015745
21
-3.6122346850393701
0
LINE
8
BLACK
6
CONTINUOUS
10
7.0634307874015745
20
-3.6122346850393701
11
7.0640068503937004
21
-3.6122914173228344
0
LINE
8
BLACK
6
CONTINUOUS
10
7.0560322440944878
20
-3.574749251968504
11
7.0560752755905511
21
-3.5747428740157479
0
LINE
8
BLACK
6
CONTINUOUS
10
7.0560752755905511
20
-3.5747428740157479
11
7.056290748031496
21
-3.5747747244094485
0
LINE
8
BLACK
6
CONTINUOUS
10
7.056290748031496
20
-3.5747747244094485
11
7.0565077952755901
21
-3.5747961023622046
0
LINE
8
BLACK
6
CONTINUOUS
10
7.0565077952755901
20
-3.5747961023622046
11
7.0565479921259842
21
-3.5748127165354329
0
LINE
8
BLACK
6
CONTINUOUS
10
7.0565479921259842
20
-3.5748127165354329
11
7.0566478740157477
21
-3.5748275196850394
0
LINE
8
BLACK
6
CONTINUOUS
10
7.0566478740157477
20
-3.5748275196850394
11
7.0641469291338579
21
-3.576702283464567
0
LINE
8
BLACK
6
CONTINUOUS
10
7.0641469291338579
20
-3.576702283464567
11
7.0641894094488187
21
-3.5767174409448819
0
LINE
8
BLACK
6
CONTINUOUS
10
7.0641894094488187
20
-3.5767174409448819
11
7.064210669291338
21
-3.5767189763779528
0
LINE
8
BLACK
6
CONTINUOUS
10
7.064210669291338
20
-3.5767189763779528
11
7.0644500787401574
21
-3.5768105905511809
0
LINE
8
BLACK
6
CONTINUOUS
10
7.0644500787401574
20
-3.5768105905511809
11
7.0646920472440939
21
-3.5768970472440942
0
LINE
8
BLACK
6
CONTINUOUS
10
7.0646920472440939
20
-3.5768970472440942
11
7.064709173228346
21
-3.5769097244094485
0
LINE
8
BLACK
6
CONTINUOUS
10
7.064709173228346
20
-3.5769097244094485
11
7.064751299212598
21
-3.5769258661417322
0
LINE
8
BLACK
6
CONTINUOUS
10
7.064751299212598
20
-3.5769258661417322
11
7.0685008267716531
21
-3.5788006299212598
0
LINE
8
BLACK
6
CONTINUOUS
10
7.0685008267716531
20
-3.5788006299212598
11
7.0687487007874017
21
-3.5789566535433068
0
LINE
8
BLACK
6
CONTINUOUS
10
7.0687487007874017
20
-3.5789566535433068
11
7.068820748031496
21
-3.578986496062992
0
LINE
8
BLACK
6
CONTINUOUS
10
7.068820748031496
20
-3.578986496062992
11
7.0689017716535432
21
-3.5790529921259844
0
LINE
8
BLACK
6
CONTINUOUS
10
7.0689017716535432
20
-3.5790529921259844
11
7.068990708661417
21
-3.5791089763779529
0
LINE
8
BLACK
6
CONTINUOUS
10
7.068990708661417
20
-3.5791089763779529
11
7.0690418503937007
21
-3.5791679527559053
0
LINE
8
BLACK
6
CONTINUOUS
10
7.0690418503937007
20
-3.5791679527559053
11
7.0692681889763778
21
-3.5793537007874017
0
LINE
8
BLACK
6
CONTINUOUS
10
7.0692681889763778
20
-3.5793537007874017
11
7.0711429921259841
21
-3.5812284645669292
0
LINE
8
BLACK
6
CONTINUOUS
10
7.0711429921259841
20
-3.5812284645669292
11
7.0713287401574805
21
-3.5814548031496063
0
LINE
8
BLACK
6
CONTINUOUS
10
7.0713287401574805
20
-3.5814548031496063
11
7.0713877952755908
21
-3.5815060236220471
0
LINE
8
BLACK
6
CONTINUOUS
10
7.0713877952755908
20
-3.5815060236220471
11
7.0714437795275593
21
-3.5815949606299213
0
LINE
8
BLACK
6
CONTINUOUS
10
7.0714437795275593
20
-3.5815949606299213
11
7.0715102362204725
21
-3.5816759448818898
0
LINE
8
BLACK
6
CONTINUOUS
10
7.0715102362204725
20
-3.5816759448818898
11
7.0715400393700785
21
-3.5817478740157478
0
LINE
8
BLACK
6
CONTINUOUS
10
7.0715400393700785
20
-3.5817478740157478
11
7.071696141732283
21
-3.5819959055118109
0
LINE
8
BLACK
6
CONTINUOUS
10
7.071696141732283
20
-3.5819959055118109
11
7.0735709055118106
21
-3.585745433070866
0
LINE
8
BLACK
6
CONTINUOUS
10
7.0735709055118106
20
-3.585745433070866
11
7.07377779527559
21
-3.5862860236220473
0
LINE
8
BLACK
6
CONTINUOUS
10
7.07377779527559
20
-3.5862860236220473
11
7.07378531496063
21
-3.5863918897637794
0
LINE
8
BLACK
6
CONTINUOUS
10
7.07378531496063
20
-3.5863918897637794
11
7.0738259055118107
21
-3.5864898818897637
0
LINE
8
BLACK
6
CONTINUOUS
10
7.0738259055118107
20
-3.5864898818897637
11
7.0738826377952755
21
-3.5870659448818896
0
LINE
8
BLACK
6
CONTINUOUS
10
7.0738826377952755
20
-3.5870659448818896
11
7.0738826377952755
21
-3.5908154724409447
0
LINE
8
BLACK
6
CONTINUOUS
10
7.0738826377952755
20
-3.5908154724409447
11
7.0738259055118107
21
-3.591391535433071
0
LINE
8
BLACK
6
CONTINUOUS
10
7.0738259055118107
20
-3.591391535433071
11
7.07378531496063
21
-3.5914894881889765
0
LINE
8
BLACK
6
CONTINUOUS
10
7.07378531496063
20
-3.5914894881889765
11
7.07377779527559
21
-3.5915953937007874
0
LINE
8
BLACK
6
CONTINUOUS
10
7.07377779527559
20
-3.5915953937007874
11
7.0735709055118106
21
-3.5921359842519682
0
LINE
8
BLACK
6
CONTINUOUS
10
7.0735709055118106
20
-3.5921359842519682
11
7.071696141732283
21
-3.5958855118110233
0
LINE
8
BLACK
6
CONTINUOUS
10
7.071696141732283
20
-3.5958855118110233
11
7.0715400393700785
21
-3.5961335039370077
0
LINE
8
BLACK
6
CONTINUOUS
10
7.0715400393700785
20
-3.5961335039370077
11
7.0715102362204725
21
-3.5962054724409449
0
LINE
8
BLACK
6
CONTINUOUS
10
7.0715102362204725
20
-3.5962054724409449
11
7.0714437795275593
21
-3.5962864173228346
0
LINE
8
BLACK
6
CONTINUOUS
10
7.0714437795275593
20
-3.5962864173228346
11
7.0713877952755908
21
-3.5963753937007872
0
LINE
8
BLACK
6
CONTINUOUS
10
7.0713877952755908
20
-3.5963753937007872
11
7.0713287401574805
21
-3.5964265748031496
0
LINE
8
BLACK
6
CONTINUOUS
10
7.0713287401574805
20
-3.5964265748031496
11
7.0711429921259841
21
-3.5966529527559055
0
LINE
8
BLACK
6
CONTINUOUS
10
7.0711429921259841
20
-3.5966529527559055
11
7.0692681889763778
21
-3.598527716535433
0
LINE
8
BLACK
6
CONTINUOUS
10
7.0692681889763778
20
-3.598527716535433
11
7.0690418503937007
21
-3.5987134251968502
0
LINE
8
BLACK
6
CONTINUOUS
10
7.0690418503937007
20
-3.5987134251968502
11
7.068990708661417
21
-3.5987724409448818
0
LINE
8
BLACK
6
CONTINUOUS
10
7.068990708661417
20
-3.5987724409448818
11
7.0689017716535432
21
-3.5988283858267716
0
LINE
8
BLACK
6
CONTINUOUS
10
7.0689017716535432
20
-3.5988283858267716
11
7.068820748031496
21
-3.5988949212598422
0
LINE
8
BLACK
6
CONTINUOUS
10
7.068820748031496
20
-3.5988949212598422
11
7.0687487007874017
21
-3.5989247244094487
0
LINE
8
BLACK
6
CONTINUOUS
10
7.0687487007874017
20
-3.5989247244094487
11
7.0685008267716531
21
-3.5990807874015749
0
LINE
8
BLACK
6
CONTINUOUS
10
7.0685008267716531
20
-3.5990807874015749
11
7.064751299212598
21
-3.6009555511811024
0
LINE
8
BLACK
6
CONTINUOUS
10
7.064751299212598
20
-3.6009555511811024
11
7.064709173228346
21
-3.6009716535433069
0
LINE
8
BLACK
6
CONTINUOUS
10
7.064709173228346
20
-3.6009716535433069
11
7.0646920472440939
21
-3.6009843700787401
0
LINE
8
BLACK
6
CONTINUOUS
10
7.0646920472440939
20
-3.6009843700787401
11
7.0644500787401574
21
-3.6010707874015746
0
LINE
8
BLACK
6
CONTINUOUS
10
7.0644500787401574
20
-3.6010707874015746
11
7.064210669291338
21
-3.6011624409448819
0
LINE
8
BLACK
6
CONTINUOUS
10
7.064210669291338
20
-3.6011624409448819
11
7.0641894094488187
21
-3.6011639370078741
0
LINE
8
BLACK
6
CONTINUOUS
10
7.0641894094488187
20
-3.6011639370078741
11
7.0641469291338579
21
-3.6011791338582677
0
LINE
8
BLACK
6
CONTINUOUS
10
7.0641469291338579
20
-3.6011791338582677
11
7.0566478740157477
21
-3.6030538976377953
0
LINE
8
BLACK
6
CONTINUOUS
10
7.0566478740157477
20
-3.6030538976377953
11
7.0565479921259842
21
-3.6030686614173226
0
LINE
8
BLACK
6
CONTINUOUS
10
7.0565479921259842
20
-3.6030686614173226
11
7.0565077952755901
21
-3.6030853149606297
0
LINE
8
BLACK
6
CONTINUOUS
10
7.0565077952755901
20
-3.6030853149606297
11
7.056290748031496
21
-3.6031066535433069
0
LINE
8
BLACK
6
CONTINUOUS
10
7.056290748031496
20
-3.6031066535433069
11
7.0560752755905511
21
-3.6031385433070864
0
LINE
8
BLACK
6
CONTINUOUS
10
7.0560752755905511
20
-3.6031385433070864
11
7.0560322440944878
21
-3.6031321259842519
0
LINE
8
BLACK
6
CONTINUOUS
10
7.0560322440944878
20
-3.6031321259842519
11
7.0559317322834643
21
-3.6031420472440945
0
LINE
8
BLACK
6
CONTINUOUS
10
7.0559317322834643
20
-3.6031420472440945
11
7.0465579133858265
21
-3.6031420472440945
0
LINE
8
BLACK
6
CONTINUOUS
10
7.0465579133858265
20
-3.6031420472440945
11
7.0464573622047242
21
-3.6031321259842519
0
LINE
8
BLACK
6
CONTINUOUS
10
7.0464573622047242
20
-3.6031321259842519
11
7.0464143700787396
21
-3.6031385433070864
0
LINE
8
BLACK
6
CONTINUOUS
10
7.0464143700787396
20
-3.6031385433070864
11
7.046198858267716
21
-3.6031066535433069
0
LINE
8
BLACK
6
CONTINUOUS
10
7.046198858267716
20
-3.6031066535433069
11
7.0459818503937006
21
-3.6030853149606297
0
LINE
8
BLACK
6
CONTINUOUS
10
7.0459818503937006
20
-3.6030853149606297
11
7.0459416141732278
21
-3.6030686614173226
0
LINE
8
BLACK
6
CONTINUOUS
10
7.0459416141732278
20
-3.6030686614173226
11
7.0458417716535431
21
-3.6030538976377953
0
LINE
8
BLACK
6
CONTINUOUS
10
7.0458417716535431
20
-3.6030538976377953
11
7.0383427165354329
21
-3.6011791338582677
0
LINE
8
BLACK
6
CONTINUOUS
10
7.0383427165354329
20
-3.6011791338582677
11
7.0383001968503933
21
-3.6011639370078741
0
LINE
8
BLACK
6
CONTINUOUS
10
7.0383001968503933
20
-3.6011639370078741
11
7.038278937007874
21
-3.6011624409448819
0
LINE
8
BLACK
6
CONTINUOUS
10
7.038278937007874
20
-3.6011624409448819
11
7.0380391732283467
21
-3.6010706692913383
0
LINE
8
BLACK
6
CONTINUOUS
10
7.0380391732283467
20
-3.6010706692913383
11
7.0377975984251968
21
-3.6009843700787401
0
LINE
8
BLACK
6
CONTINUOUS
10
7.0377975984251968
20
-3.6009843700787401
11
7.037780433070866
21
-3.6009716535433069
0
LINE
8
BLACK
6
CONTINUOUS
10
7.037780433070866
20
-3.6009716535433069
11
7.0377383464566927
21
-3.6009555511811024
0
LINE
8
BLACK
6
CONTINUOUS
10
7.0377383464566927
20
-3.6009555511811024
11
7.0339888188976376
21
-3.5990807874015749
0
LINE
8
BLACK
6
CONTINUOUS
10
7.0339888188976376
20
-3.5990807874015749
11
7.0337407874015749
21
-3.5989246850393699
0
LINE
8
BLACK
6
CONTINUOUS
10
7.0337407874015749
20
-3.5989246850393699
11
7.033668858267716
21
-3.5988948818897639
0
LINE
8
BLACK
6
CONTINUOUS
10
7.033668858267716
20
-3.5988948818897639
11
7.0335878740157476
21
-3.5988283858267716
0
LINE
8
BLACK
6
CONTINUOUS
10
7.0335878740157476
20
-3.5988283858267716
11
7.0334989370078738
21
-3.5987724409448818
0
LINE
8
BLACK
6
CONTINUOUS
10
7.0334989370078738
20
-3.5987724409448818
11
7.0334477559055113
21
-3.5987134251968502
0
LINE
8
BLACK
6
CONTINUOUS
10
7.0334477559055113
20
-3.5987134251968502
11
7.0332214173228342
21
-3.5985276771653543
0
LINE
8
BLACK
6
CONTINUOUS
10
7.0332214173228342
20
-3.5985276771653543
11
7.0313466535433067
21
-3.5966529133858267
0
LINE
8
BLACK
6
CONTINUOUS
10
7.0313466535433067
20
-3.5966529133858267
11
7.0311608661417324
21
-3.5964265354330709
0
LINE
8
BLACK
6
CONTINUOUS
10
7.0311608661417324
20
-3.5964265354330709
11
7.0311018897637796
21
-3.5963753937007872
0
LINE
8
BLACK
6
CONTINUOUS
10
7.0311018897637796
20
-3.5963753937007872
11
7.0310459055118111
21
-3.5962864173228346
0
LINE
8
BLACK
6
CONTINUOUS
10
7.0310459055118111
20
-3.5962864173228346
11
7.0309794488188979
21
-3.5962054724409449
0
LINE
8
BLACK
6
CONTINUOUS
10
7.0309794488188979
20
-3.5962054724409449
11
7.0309496062992123
21
-3.5961335039370077
0
LINE
8
BLACK
6
CONTINUOUS
10
7.0309496062992123
20
-3.5961335039370077
11
7.0307935433070865
21
-3.5958855118110233
0
LINE
8
BLACK
6
CONTINUOUS
10
7.0307935433070865
20
-3.5958855118110233
11
7.0289187795275589
21
-3.5921359842519682
0
LINE
8
BLACK
6
CONTINUOUS
10
7.0289187795275589
20
-3.5921359842519682
11
7.0287118897637795
21
-3.5915953543307086
0
LINE
8
BLACK
6
CONTINUOUS
10
7.0287118897637795
20
-3.5915953543307086
11
7.0287043700787404
21
-3.5914895275590548
0
LINE
8
BLACK
6
CONTINUOUS
10
7.0287043700787404
20
-3.5914895275590548
11
7.0286637795275588
21
-3.591391535433071
0
LINE
8
BLACK
6
CONTINUOUS
10
7.0286637795275588
20
-3.591391535433071
11
7.028607047244094
21
-3.5908154724409447
0
LINE
8
BLACK
6
CONTINUOUS
10
7.028607047244094
20
-3.5908154724409447
11
7.028607047244094
21
-3.5870659448818896
0
LINE
8
BLACK
6
CONTINUOUS
10
7.028607047244094
20
-3.5870659448818896
11
7.0286637795275588
21
-3.5864898818897637
0
LINE
8
BLACK
6
CONTINUOUS
10
7.0286637795275588
20
-3.5864898818897637
11
7.0287043700787404
21
-3.5863918503937007
0
LINE
8
BLACK
6
CONTINUOUS
10
7.0287043700787404
20
-3.5863918503937007
11
7.0287118897637795
21
-3.586286062992126
0
LINE
8
BLACK
6
CONTINUOUS
10
7.0287118897637795
20
-3.586286062992126
11
7.0289187795275589
21
-3.585745433070866
0
LINE
8
BLACK
6
CONTINUOUS
10
7.0289187795275589
20
-3.585745433070866
11
7.0307935433070865
21
-3.5819959055118109
0
LINE
8
BLACK
6
CONTINUOUS
10
7.0307935433070865
20
-3.5819959055118109
11
7.0309496062992123
21
-3.5817478740157478
0
LINE
8
BLACK
6
CONTINUOUS
10
7.0309496062992123
20
-3.5817478740157478
11
7.0309794488188979
21
-3.5816759448818898
0
LINE
8
BLACK
6
CONTINUOUS
10
7.0309794488188979
20
-3.5816759448818898
11
7.0310459055118111
21
-3.5815949606299213
0
LINE
8
BLACK
6
CONTINUOUS
10
7.0310459055118111
20
-3.5815949606299213
11
7.0311018897637796
21
-3.5815060236220471
0
LINE
8
BLACK
6
CONTINUOUS
10
7.0311018897637796
20
-3.5815060236220471
11
7.0311608661417324
21
-3.581454842519685
0
LINE
8
BLACK
6
CONTINUOUS
10
7.0311608661417324
20
-3.581454842519685
11
7.0313466535433067
21
-3.581228503937008
0
LINE
8
BLACK
6
CONTINUOUS
10
7.0313466535433067
20
-3.581228503937008
11
7.0332214173228342
21
-3.5793537401574804
0
LINE
8
BLACK
6
CONTINUOUS
10
7.0332214173228342
20
-3.5793537401574804
11
7.0334477559055113
21
-3.5791679527559053
0
LINE
8
BLACK
6
CONTINUOUS
10
7.0334477559055113
20
-3.5791679527559053
11
7.0334989370078738
21
-3.5791089763779529
0
LINE
8
BLACK
6
CONTINUOUS
10
7.0334989370078738
20
-3.5791089763779529
11
7.0335878740157476
21
-3.5790529921259844
0
LINE
8
BLACK
6
CONTINUOUS
10
7.0335878740157476
20
-3.5790529921259844
11
7.033668858267716
21
-3.5789865354330708
0
LINE
8
BLACK
6
CONTINUOUS
10
7.033668858267716
20
-3.5789865354330708
11
7.0337407874015749
21
-3.5789566929133856
0
LINE
8
BLACK
6
CONTINUOUS
10
7.0337407874015749
20
-3.5789566929133856
11
7.0339888188976376
21
-3.5788006299212598
0
LINE
8
BLACK
6
CONTINUOUS
10
7.0339888188976376
20
-3.5788006299212598
11
7.0377383464566927
21
-3.5769258661417322
0
LINE
8
BLACK
6
CONTINUOUS
10
7.0377383464566927
20
-3.5769258661417322
11
7.037780433070866
21
-3.5769097244094485
0
LINE
8
BLACK
6
CONTINUOUS
10
7.037780433070866
20
-3.5769097244094485
11
7.0377975984251968
21
-3.5768970472440942
0
LINE
8
BLACK
6
CONTINUOUS
10
7.0377975984251968
20
-3.5768970472440942
11
7.0380391732283467
21
-3.5768107086614171
0
LINE
8
BLACK
6
CONTINUOUS
10
7.0380391732283467
20
-3.5768107086614171
11
7.038278937007874
21
-3.5767189763779528
0
LINE
8
BLACK
6
CONTINUOUS
10
7.038278937007874
20
-3.5767189763779528
11
7.0383001968503933
21
-3.5767174409448819
0
LINE
8
BLACK
6
CONTINUOUS
10
7.0383001968503933
20
-3.5767174409448819
11
7.0383427165354329
21
-3.576702283464567
0
LINE
8
BLACK
6
CONTINUOUS
10
7.0383427165354329
20
-3.576702283464567
11
7.0458417716535431
21
-3.5748275196850394
0
LINE
8
BLACK
6
CONTINUOUS
10
7.0458417716535431
20
-3.5748275196850394
11
7.0459416141732278
21
-3.5748127165354329
0
LINE
8
BLACK
6
CONTINUOUS
10
7.0459416141732278
20
-3.5748127165354329
11
7.0459818503937006
21
-3.5747961023622046
0
LINE
8
BLACK
6
CONTINUOUS
10
7.0459818503937006
20
-3.5747961023622046
11
7.046198858267716
21
-3.5747747244094485
0
LINE
8
BLACK
6
CONTINUOUS
10
7.046198858267716
20
-3.5747747244094485
11
7.0464143700787396
21
-3.5747428740157479
0
LINE
8
BLACK
6
CONTINUOUS
10
7.0464143700787396
20
-3.5747428740157479
11
7.0464573622047242
21
-3.574749251968504
0
LINE
8
BLACK
6
CONTINUOUS
10
7.0464573622047242
20
-3.574749251968504
11
7.0465579133858265
21
-3.5747393700787402
0
LINE
8
BLACK
6
CONTINUOUS
10
7.0465579133858265
20
-3.5747393700787402
11
7.0559317322834643
21
-3.5747393700787402
0
LINE
8
BLACK
6
CONTINUOUS
10
7.0559317322834643
20
-3.5747393700787402
11
7.0560322440944878
21
-3.574749251968504
0
LINE
8
BLACK
6
CONTINUOUS
10
7.0400894094488189
20
-3.582352874015748
11
7.0370584251968502
21
-3.5838683858267717
0
LINE
8
BLACK
6
CONTINUOUS
10
7.0370584251968502
20
-3.5838683858267717
11
7.0358612992125984
21
-3.5850655118110235
0
LINE
8
BLACK
6
CONTINUOUS
10
7.0358612992125984
20
-3.5850655118110235
11
7.0345125590551181
21
-3.5877629921259842
0
LINE
8
BLACK
6
CONTINUOUS
10
7.0345125590551181
20
-3.5877629921259842
11
7.0345125590551181
21
-3.5901184251968501
0
LINE
8
BLACK
6
CONTINUOUS
10
7.0345125590551181
20
-3.5901184251968501
11
7.0358612992125984
21
-3.5928159055118107
0
LINE
8
BLACK
6
CONTINUOUS
10
7.0358612992125984
20
-3.5928159055118107
11
7.0370584251968502
21
-3.594013031496063
0
LINE
8
BLACK
6
CONTINUOUS
10
7.0370584251968502
20
-3.594013031496063
11
7.0400894094488189
21
-3.595528503937008
0
LINE
8
BLACK
6
CONTINUOUS
10
7.0400894094488189
20
-3.595528503937008
11
7.046921456692913
21
-3.5972365354330709
0
LINE
8
BLACK
6
CONTINUOUS
10
7.046921456692913
20
-3.5972365354330709
11
7.0555681889763777
21
-3.5972365354330709
0
LINE
8
BLACK
6
CONTINUOUS
10
7.0555681889763777
20
-3.5972365354330709
11
7.0624002362204719
21
-3.595528503937008
0
LINE
8
BLACK
6
CONTINUOUS
10
7.0624002362204719
20
-3.595528503937008
11
7.0654312204724405
21
-3.5940129921259842
0
LINE
8
BLACK
6
CONTINUOUS
10
7.0654312204724405
20
-3.5940129921259842
11
7.0666283858267711
21
-3.592815866141732
0
LINE
8
BLACK
6
CONTINUOUS
10
7.0666283858267711
20
-3.592815866141732
11
7.0679771259842514
21
-3.5901184251968501
0
LINE
8
BLACK
6
CONTINUOUS
10
7.0679771259842514
20
-3.5901184251968501
11
7.0679771259842514
21
-3.5877629921259842
0
LINE
8
BLACK
6
CONTINUOUS
10
7.0679771259842514
20
-3.5877629921259842
11
7.0666283858267711
21
-3.5850655118110235
0
LINE
8
BLACK
6
CONTINUOUS
10
7.0666283858267711
20
-3.5850655118110235
11
7.0654312204724405
21
-3.5838683858267717
0
LINE
8
BLACK
6
CONTINUOUS
10
7.0654312204724405
20
-3.5838683858267717
11
7.0624002362204719
21
-3.582352874015748
0
LINE
8
BLACK
6
CONTINUOUS
10
7.0624002362204719
20
-3.582352874015748
11
7.0555681889763777
21
-3.5806448818897638
0
LINE
8
BLACK
6
CONTINUOUS
10
7.0555681889763777
20
-3.5806448818897638
11
7.046921456692913
21
-3.5806448818897638
0
LINE
8
BLACK
6
CONTINUOUS
10
7.046921456692913
20
-3.5806448818897638
11
7.0400894094488189
21
-3.582352874015748
0
LINE
8
BLACK
6
CONTINUOUS
10
6.9922711417322834
20
-3.5452407874015748
11
6.9930857874015748
21
-3.5460554330708662
0
LINE
8
BLACK
6
CONTINUOUS
10
6.9930857874015748
20
-3.5460554330708662
11
6.9935266929133855
21
-3.547119842519685
0
LINE
8
BLACK
6
CONTINUOUS
10
6.9935266929133855
20
-3.547119842519685
11
6.9935834251968503
21
-3.5476959055118109
0
LINE
8
BLACK
6
CONTINUOUS
10
6.9935834251968503
20
-3.5476959055118109
11
6.9935834251968503
21
-3.5701930708661416
0
LINE
8
BLACK
6
CONTINUOUS
10
6.9935834251968503
20
-3.5701930708661416
11
6.9935266929133855
21
-3.5707691338582674
0
LINE
8
BLACK
6
CONTINUOUS
10
6.9935266929133855
20
-3.5707691338582674
11
6.9930857874015748
21
-3.5718335433070867
0
LINE
8
BLACK
6
CONTINUOUS
10
6.9930857874015748
20
-3.5718335433070867
11
6.9922711417322834
21
-3.5726481889763777
0
LINE
8
BLACK
6
CONTINUOUS
10
6.9922711417322834
20
-3.5726481889763777
11
6.9912067322834641
21
-3.5730890944881888
0
LINE
8
BLACK
6
CONTINUOUS
10
6.9912067322834641
20
-3.5730890944881888
11
6.9900546062992124
21
-3.5730890944881888
0
LINE
8
BLACK
6
CONTINUOUS
10
6.9900546062992124
20
-3.5730890944881888
11
6.9889901968503931
21
-3.5726481889763777
0
LINE
8
BLACK
6
CONTINUOUS
10
6.9889901968503931
20
-3.5726481889763777
11
6.9881755511811026
21
-3.5718335433070867
0
LINE
8
BLACK
6
CONTINUOUS
10
6.9881755511811026
20
-3.5718335433070867
11
6.987734645669291
21
-3.5707691338582674
0
LINE
8
BLACK
6
CONTINUOUS
10
6.987734645669291
20
-3.5707691338582674
11
6.9876779133858262
21
-3.5701930708661416
0
LINE
8
BLACK
6
CONTINUOUS
10
6.9876779133858262
20
-3.5701930708661416
11
6.9876779133858262
21
-3.5618972440944883
0
LINE
8
BLACK
6
CONTINUOUS
10
6.9876779133858262
20
-3.5618972440944883
11
6.9602639370078743
21
-3.5618972440944883
0
LINE
8
BLACK
6
CONTINUOUS
10
6.9602639370078743
20
-3.5618972440944883
11
6.9627223228346455
21
-3.56435562992126
0
LINE
8
BLACK
6
CONTINUOUS
10
6.9627223228346455
20
-3.56435562992126
11
6.9629081496062994
21
-3.5645820078740158
0
LINE
8
BLACK
6
CONTINUOUS
10
6.9629081496062994
20
-3.5645820078740158
11
6.9629670866141726
21
-3.5646331496062991
0
LINE
8
BLACK
6
CONTINUOUS
10
6.9629670866141726
20
-3.5646331496062991
11
6.9630229527559058
21
-3.5647218897637796
0
LINE
8
BLACK
6
CONTINUOUS
10
6.9630229527559058
20
-3.5647218897637796
11
6.9630895669291339
21
-3.5648030708661418
0
LINE
8
BLACK
6
CONTINUOUS
10
6.9630895669291339
20
-3.5648030708661418
11
6.9631194094488187
21
-3.5648751968503936
0
LINE
8
BLACK
6
CONTINUOUS
10
6.9631194094488187
20
-3.5648751968503936
11
6.9632754330708657
21
-3.5651230314960629
0
LINE
8
BLACK
6
CONTINUOUS
10
6.9632754330708657
20
-3.5651230314960629
11
6.9651501968503933
21
-3.568872559055118
0
LINE
8
BLACK
6
CONTINUOUS
10
6.9651501968503933
20
-3.568872559055118
11
6.9653570866141727
21
-3.5694131496062993
0
LINE
8
BLACK
6
CONTINUOUS
10
6.9653570866141727
20
-3.5694131496062993
11
6.96543874015748
21
-3.5705623622047242
0
LINE
8
BLACK
6
CONTINUOUS
10
6.96543874015748
20
-3.5705623622047242
11
6.9650744094488184
21
-3.5716553543307086
0
LINE
8
BLACK
6
CONTINUOUS
10
6.9650744094488184
20
-3.5716553543307086
11
6.9643195669291336
21
-3.5725257086614173
0
LINE
8
BLACK
6
CONTINUOUS
10
6.9643195669291336
20
-3.5725257086614173
11
6.9632890551181097
21
-3.5730409842519686
0
LINE
8
BLACK
6
CONTINUOUS
10
6.9632890551181097
20
-3.5730409842519686
11
6.9621398425196848
21
-3.5731226377952754
0
LINE
8
BLACK
6
CONTINUOUS
10
6.9621398425196848
20
-3.5731226377952754
11
6.9610468897637796
21
-3.5727583070866142
0
LINE
8
BLACK
6
CONTINUOUS
10
6.9610468897637796
20
-3.5727583070866142
11
6.9601764960629922
21
-3.572003464566929
0
LINE
8
BLACK
6
CONTINUOUS
10
6.9601764960629922
20
-3.572003464566929
11
6.9598681496062991
21
-3.5715135826771651
0
LINE
8
BLACK
6
CONTINUOUS
10
6.9598681496062991
20
-3.5715135826771651
11
6.9582076771653538
21
-3.5681926377952755
0
LINE
8
BLACK
6
CONTINUOUS
10
6.9582076771653538
20
-3.5681926377952755
11
6.955003700787401
21
-3.5649886614173227
0
LINE
8
BLACK
6
CONTINUOUS
10
6.955003700787401
20
-3.5649886614173227
11
6.9496226771653538
21
-3.561401338582677
0
LINE
8
BLACK
6
CONTINUOUS
10
6.9496226771653538
20
-3.561401338582677
11
6.9496209842519683
21
-3.5613999606299211
0
LINE
8
BLACK
6
CONTINUOUS
10
6.9496209842519683
20
-3.5613999606299211
11
6.9496201181102357
21
-3.5613996062992124
0
LINE
8
BLACK
6
CONTINUOUS
10
6.9496201181102357
20
-3.5613996062992124
11
6.9496180708661415
21
-3.5613975590551181
0
LINE
8
BLACK
6
CONTINUOUS
10
6.9496180708661415
20
-3.5613975590551181
11
6.9491748425196853
21
-3.5610345669291337
0
LINE
8
BLACK
6
CONTINUOUS
10
6.9491748425196853
20
-3.5610345669291337
11
6.9490121653543309
21
-3.5607916535433071
0
LINE
8
BLACK
6
CONTINUOUS
10
6.9490121653543309
20
-3.5607916535433071
11
6.9488054724409452
21
-3.5605849606299214
0
LINE
8
BLACK
6
CONTINUOUS
10
6.9488054724409452
20
-3.5605849606299214
11
6.9486947244094486
21
-3.5603176377952757
0
LINE
8
BLACK
6
CONTINUOUS
10
6.9486947244094486
20
-3.5603176377952757
11
6.9485337795275592
21
-3.5600772834645666
0
LINE
8
BLACK
6
CONTINUOUS
10
6.9485337795275592
20
-3.5600772834645666
11
6.9484764173228344
21
-3.5597906299212596
0
LINE
8
BLACK
6
CONTINUOUS
10
6.9484764173228344
20
-3.5597906299212596
11
6.9483645669291336
21
-3.5595205511811021
0
LINE
8
BLACK
6
CONTINUOUS
10
6.9483645669291336
20
-3.5595205511811021
11
6.9483645669291336
21
-3.5592312204724408
0
LINE
8
BLACK
6
CONTINUOUS
10
6.9483645669291336
20
-3.5592312204724408
11
6.9483078346456688
21
-3.5589475984251968
0
LINE
8
BLACK
6
CONTINUOUS
10
6.9483078346456688
20
-3.5589475984251968
11
6.9483645669291336
21
-3.5586607874015748
0
LINE
8
BLACK
6
CONTINUOUS
10
6.9483645669291336
20
-3.5586607874015748
11
6.9483645669291336
21
-3.5583684251968504
0
LINE
8
BLACK
6
CONTINUOUS
10
6.9483645669291336
20
-3.5583684251968504
11
6.9484752755905514
21
-3.5581011417322834
0
LINE
8
BLACK
6
CONTINUOUS
10
6.9484752755905514
20
-3.5581011417322834
11
6.9485314173228341
21
-3.5578173622047244
0
LINE
8
BLACK
6
CONTINUOUS
10
6.9485314173228341
20
-3.5578173622047244
11
6.9486935826771656
21
-3.5575740944881891
0
LINE
8
BLACK
6
CONTINUOUS
10
6.9486935826771656
20
-3.5575740944881891
11
6.9488054724409452
21
-3.5573040157480316
0
LINE
8
BLACK
6
CONTINUOUS
10
6.9488054724409452
20
-3.5573040157480316
11
6.9490099999999995
21
-3.5570994488188976
0
LINE
8
BLACK
6
CONTINUOUS
10
6.9490099999999995
20
-3.5570994488188976
11
6.9491705118110234
21
-3.5568587401574803
0
LINE
8
BLACK
6
CONTINUOUS
10
6.9491705118110234
20
-3.5568587401574803
11
6.9494133858267713
21
-3.5566960629921258
0
LINE
8
BLACK
6
CONTINUOUS
10
6.9494133858267713
20
-3.5566960629921258
11
6.9496201181102357
21
-3.5564893700787401
0
LINE
8
BLACK
6
CONTINUOUS
10
6.9496201181102357
20
-3.5564893700787401
11
6.9498874015748031
21
-3.556378622047244
0
LINE
8
BLACK
6
CONTINUOUS
10
6.9498874015748031
20
-3.556378622047244
11
6.9501277952755904
21
-3.5562176771653542
0
LINE
8
BLACK
6
CONTINUOUS
10
6.9501277952755904
20
-3.5562176771653542
11
6.9504144094488192
21
-3.5561603149606298
0
LINE
8
BLACK
6
CONTINUOUS
10
6.9504144094488192
20
-3.5561603149606298
11
6.950684527559055
21
-3.556048464566929
0
LINE
8
BLACK
6
CONTINUOUS
10
6.950684527559055
20
-3.556048464566929
11
6.9512544488188972
21
-3.5559923228346455
0
LINE
8
BLACK
6
CONTINUOUS
10
6.9512544488188972
20
-3.5559923228346455
11
6.9512574803149603
21
-3.5559917322834647
0
LINE
8
BLACK
6
CONTINUOUS
10
6.9512574803149603
20
-3.5559917322834647
11
6.9512585039370078
21
-3.555991929133858
0
LINE
8
BLACK
6
CONTINUOUS
10
6.9512585039370078
20
-3.555991929133858
11
6.9512605905511808
21
-3.5559917322834647
0
LINE
8
BLACK
6
CONTINUOUS
10
6.9512605905511808
20
-3.5559917322834647
11
6.9876779133858262
21
-3.5559917322834647
0
LINE
8
BLACK
6
CONTINUOUS
10
6.9876779133858262
20
-3.5559917322834647
11
6.9876779133858262
21
-3.5476959055118109
0
LINE
8
BLACK
6
CONTINUOUS
10
6.9876779133858262
20
-3.5476959055118109
11
6.987734645669291
21
-3.547119842519685
0
LINE
8
BLACK
6
CONTINUOUS
10
6.987734645669291
20
-3.547119842519685
11
6.9881755511811026
21
-3.5460554330708662
0
LINE
8
BLACK
6
CONTINUOUS
10
6.9881755511811026
20
-3.5460554330708662
11
6.9889901968503931
21
-3.5452407874015748
0
LINE
8
BLACK
6
CONTINUOUS
10
6.9889901968503931
20
-3.5452407874015748
11
6.9900546062992124
21
-3.5447998818897637
0
LINE
8
BLACK
6
CONTINUOUS
10
6.9900546062992124
20
-3.5447998818897637
11
6.9912067322834641
21
-3.5447998818897637
0
LINE
8
BLACK
6
CONTINUOUS
10
6.9912067322834641
20
-3.5447998818897637
11
6.9922711417322834
21
-3.5452407874015748
0
LINE
8
BLACK
6
CONTINUOUS
10
6.9837076377952751
20
-3.5073045669291338
11
6.9838056299212594
21
-3.5073451574803149
0
LINE
8
BLACK
6
CONTINUOUS
10
6.9838056299212594
20
-3.5073451574803149
11
6.9839114566929128
21
-3.507352677165354
0
LINE
8
BLACK
6
CONTINUOUS
10
6.9839114566929128
20
-3.507352677165354
11
6.9844520866141728
21
-3.507559566929134
0
LINE
8
BLACK
6
CONTINUOUS
10
6.9844520866141728
20
-3.507559566929134
11
6.9882016141732279
21
-3.5094343307086615
0
LINE
8
BLACK
6
CONTINUOUS
10
6.9882016141732279
20
-3.5094343307086615
11
6.9884494881889765
21
-3.5095903543307085
0
LINE
8
BLACK
6
CONTINUOUS
10
6.9884494881889765
20
-3.5095903543307085
11
6.9885215354330708
21
-3.5096201968503937
0
LINE
8
BLACK
6
CONTINUOUS
10
6.9885215354330708
20
-3.5096201968503937
11
6.988602559055118
21
-3.5096866929133856
0
LINE
8
BLACK
6
CONTINUOUS
10
6.988602559055118
20
-3.5096866929133856
11
6.9886914960629918
21
-3.5097426771653542
0
LINE
8
BLACK
6
CONTINUOUS
10
6.9886914960629918
20
-3.5097426771653542
11
6.9887426377952755
21
-3.509801653543307
0
LINE
8
BLACK
6
CONTINUOUS
10
6.9887426377952755
20
-3.509801653543307
11
6.9889689763779526
21
-3.5099874015748029
0
LINE
8
BLACK
6
CONTINUOUS
10
6.9889689763779526
20
-3.5099874015748029
11
6.9908437795275589
21
-3.5118621653543305
0
LINE
8
BLACK
6
CONTINUOUS
10
6.9908437795275589
20
-3.5118621653543305
11
6.9910295275590553
21
-3.512088503937008
0
LINE
8
BLACK
6
CONTINUOUS
10
6.9910295275590553
20
-3.512088503937008
11
6.9910885826771656
21
-3.5121397244094488
0
LINE
8
BLACK
6
CONTINUOUS
10
6.9910885826771656
20
-3.5121397244094488
11
6.9911445669291341
21
-3.5122286614173226
0
LINE
8
BLACK
6
CONTINUOUS
10
6.9911445669291341
20
-3.5122286614173226
11
6.9912110236220473
21
-3.512309645669291
0
LINE
8
BLACK
6
CONTINUOUS
10
6.9912110236220473
20
-3.512309645669291
11
6.9912408267716533
21
-3.5123815748031495
0
LINE
8
BLACK
6
CONTINUOUS
10
6.9912408267716533
20
-3.5123815748031495
11
6.9913969291338578
21
-3.5126296062992126
0
LINE
8
BLACK
6
CONTINUOUS
10
6.9913969291338578
20
-3.5126296062992126
11
6.9932716929133854
21
-3.5163791338582677
0
LINE
8
BLACK
6
CONTINUOUS
10
6.9932716929133854
20
-3.5163791338582677
11
6.9934785826771648
21
-3.5169197244094486
0
LINE
8
BLACK
6
CONTINUOUS
10
6.9934785826771648
20
-3.5169197244094486
11
6.9934861023622048
21
-3.5170255905511811
0
LINE
8
BLACK
6
CONTINUOUS
10
6.9934861023622048
20
-3.5170255905511811
11
6.9935266929133855
21
-3.5171235826771654
0
LINE
8
BLACK
6
CONTINUOUS
10
6.9935266929133855
20
-3.5171235826771654
11
6.9935834251968503
21
-3.5176996456692913
0
LINE
8
BLACK
6
CONTINUOUS
10
6.9935834251968503
20
-3.5176996456692913
11
6.9935834251968503
21
-3.5270734645669291
0
LINE
8
BLACK
6
CONTINUOUS
10
6.9935834251968503
20
-3.5270734645669291
11
6.9935266929133855
21
-3.5276495275590549
0
LINE
8
BLACK
6
CONTINUOUS
10
6.9935266929133855
20
-3.5276495275590549
11
6.9934861023622048
21
-3.5277474803149604
0
LINE
8
BLACK
6
CONTINUOUS
10
6.9934861023622048
20
-3.5277474803149604
11
6.9934785826771648
21
-3.5278533858267718
0
LINE
8
BLACK
6
CONTINUOUS
10
6.9934785826771648
20
-3.5278533858267718
11
6.9932716929133854
21
-3.5283939763779526
0
LINE
8
BLACK
6
CONTINUOUS
10
6.9932716929133854
20
-3.5283939763779526
11
6.9913969291338578
21
-3.5321435039370077
0
LINE
8
BLACK
6
CONTINUOUS
10
6.9913969291338578
20
-3.5321435039370077
11
6.9912408267716533
21
-3.5323914960629921
0
LINE
8
BLACK
6
CONTINUOUS
10
6.9912408267716533
20
-3.5323914960629921
11
6.9912110236220473
21
-3.5324634645669288
0
LINE
8
BLACK
6
CONTINUOUS
10
6.9912110236220473
20
-3.5324634645669288
11
6.9911445669291341
21
-3.532544409448819
0
LINE
8
BLACK
6
CONTINUOUS
10
6.9911445669291341
20
-3.532544409448819
11
6.9910885826771656
21
-3.5326333858267716
0
LINE
8
BLACK
6
CONTINUOUS
10
6.9910885826771656
20
-3.5326333858267716
11
6.9910295275590553
21
-3.5326845669291336
0
LINE
8
BLACK
6
CONTINUOUS
10
6.9910295275590553
20
-3.5326845669291336
11
6.9908437795275589
21
-3.5329109448818898
0
LINE
8
BLACK
6
CONTINUOUS
10
6.9908437795275589
20
-3.5329109448818898
11
6.9889689763779526
21
-3.5347857086614174
0
LINE
8
BLACK
6
CONTINUOUS
10
6.9889689763779526
20
-3.5347857086614174
11
6.9885215354330708
21
-3.5351529133858266
0
LINE
8
BLACK
6
CONTINUOUS
10
6.9885215354330708
20
-3.5351529133858266
11
6.9874571259842515
21
-3.5355937795275589
0
LINE
8
BLACK
6
CONTINUOUS
10
6.9874571259842515
20
-3.5355937795275589
11
6.9863050393700785
21
-3.5355937795275589
0
LINE
8
BLACK
6
CONTINUOUS
10
6.9863050393700785
20
-3.5355937795275589
11
6.9852406299212593
21
-3.5351528740157478
0
LINE
8
BLACK
6
CONTINUOUS
10
6.9852406299212593
20
-3.5351528740157478
11
6.9844259448818899
21
-3.5343381889763781
0
LINE
8
BLACK
6
CONTINUOUS
10
6.9844259448818899
20
-3.5343381889763781
11
6.9839850787401572
21
-3.5332737795275588
0
LINE
8
BLACK
6
CONTINUOUS
10
6.9839850787401572
20
-3.5332737795275588
11
6.9839850787401572
21
-3.5321216929133858
0
LINE
8
BLACK
6
CONTINUOUS
10
6.9839850787401572
20
-3.5321216929133858
11
6.9844259842519687
21
-3.531057283464567
0
LINE
8
BLACK
6
CONTINUOUS
10
6.9844259842519687
20
-3.531057283464567
11
6.9847932283464562
21
-3.530609803149606
0
LINE
8
BLACK
6
CONTINUOUS
10
6.9847932283464562
20
-3.530609803149606
11
6.9863291732283459
21
-3.5290738582677164
0
LINE
8
BLACK
6
CONTINUOUS
10
6.9863291732283459
20
-3.5290738582677164
11
6.9876779133858262
21
-3.5263764173228345
0
LINE
8
BLACK
6
CONTINUOUS
10
6.9876779133858262
20
-3.5263764173228345
11
6.9876779133858262
21
-3.5183966929133859
0
LINE
8
BLACK
6
CONTINUOUS
10
6.9876779133858262
20
-3.5183966929133859
11
6.9863291732283459
21
-3.5156992125984252
0
LINE
8
BLACK
6
CONTINUOUS
10
6.9863291732283459
20
-3.5156992125984252
11
6.9851320078740153
21
-3.514502086614173
0
LINE
8
BLACK
6
CONTINUOUS
10
6.9851320078740153
20
-3.514502086614173
11
6.9824345275590547
21
-3.5131533464566926
0
LINE
8
BLACK
6
CONTINUOUS
10
6.9824345275590547
20
-3.5131533464566926
11
6.9744548031496061
21
-3.5131533464566926
0
LINE
8
BLACK
6
CONTINUOUS
10
6.9744548031496061
20
-3.5131533464566926
11
6.9717573228346454
21
-3.514502086614173
0
LINE
8
BLACK
6
CONTINUOUS
10
6.9717573228346454
20
-3.514502086614173
11
6.9705601968503936
21
-3.5156992125984252
0
LINE
8
BLACK
6
CONTINUOUS
10
6.9705601968503936
20
-3.5156992125984252
11
6.9692114566929133
21
-3.5183966929133859
0
LINE
8
BLACK
6
CONTINUOUS
10
6.9692114566929133
20
-3.5183966929133859
11
6.9692114566929133
21
-3.5263764173228345
0
LINE
8
BLACK
6
CONTINUOUS
10
6.9692114566929133
20
-3.5263764173228345
11
6.9705601968503936
21
-3.5290738976377951
0
LINE
8
BLACK
6
CONTINUOUS
10
6.9705601968503936
20
-3.5290738976377951
11
6.9720961417322833
21
-3.5306098425196848
0
LINE
8
BLACK
6
CONTINUOUS
10
6.9720961417322833
20
-3.5306098425196848
11
6.972463346456693
21
-3.531057283464567
0
LINE
8
BLACK
6
CONTINUOUS
10
6.972463346456693
20
-3.531057283464567
11
6.9725202362204719
21
-3.5311946062992123
0
LINE
8
BLACK
6
CONTINUOUS
10
6.9725202362204719
20
-3.5311946062992123
11
6.9726144094488189
21
-3.5313097244094487
0
LINE
8
BLACK
6
CONTINUOUS
10
6.9726144094488189
20
-3.5313097244094487
11
6.9727390944881886
21
-3.5317229921259843
0
LINE
8
BLACK
6
CONTINUOUS
10
6.9727390944881886
20
-3.5317229921259843
11
6.9729042519685036
21
-3.5321216929133858
0
LINE
8
BLACK
6
CONTINUOUS
10
6.9729042519685036
20
-3.5321216929133858
11
6.9729042519685036
21
-3.5322703543307088
0
LINE
8
BLACK
6
CONTINUOUS
10
6.9729042519685036
20
-3.5322703543307088
11
6.9729472047244094
21
-3.5324127165354331
0
LINE
8
BLACK
6
CONTINUOUS
10
6.9729472047244094
20
-3.5324127165354331
11
6.9729042519685036
21
-3.5328422047244095
0
LINE
8
BLACK
6
CONTINUOUS
10
6.9729042519685036
20
-3.5328422047244095
11
6.9729042519685036
21
-3.5332737795275588
0
LINE
8
BLACK
6
CONTINUOUS
10
6.9729042519685036
20
-3.5332737795275588
11
6.9728473228346459
21
-3.5334111023622046
0
LINE
8
BLACK
6
CONTINUOUS
10
6.9728473228346459
20
-3.5334111023622046
11
6.9728325590551181
21
-3.5335591338582675
0
LINE
8
BLACK
6
CONTINUOUS
10
6.9728325590551181
20
-3.5335591338582675
11
6.9726284251968504
21
-3.5339395669291336
0
LINE
8
BLACK
6
CONTINUOUS
10
6.9726284251968504
20
-3.5339395669291336
11
6.972463346456693
21
-3.5343381889763781
0
LINE
8
BLACK
6
CONTINUOUS
10
6.972463346456693
20
-3.5343381889763781
11
6.9723581889763775
21
-3.5344433070866139
0
LINE
8
BLACK
6
CONTINUOUS
10
6.9723581889763775
20
-3.5344433070866139
11
6.9722879133858262
21
-3.5345743700787402
0
LINE
8
BLACK
6
CONTINUOUS
10
6.9722879133858262
20
-3.5345743700787402
11
6.9719537007874015
21
-3.5348477952755903
0
LINE
8
BLACK
6
CONTINUOUS
10
6.9719537007874015
20
-3.5348477952755903
11
6.9716486614173228
21
-3.5351528740157478
0
LINE
8
BLACK
6
CONTINUOUS
10
6.9716486614173228
20
-3.5351528740157478
11
6.9715113779527558
21
-3.5352097244094489
0
LINE
8
BLACK
6
CONTINUOUS
10
6.9715113779527558
20
-3.5352097244094489
11
6.9713962598425194
21
-3.5353039370078738
0
LINE
8
BLACK
6
CONTINUOUS
10
6.9713962598425194
20
-3.5353039370078738
11
6.9709828346456693
21
-3.5354286614173227
0
LINE
8
BLACK
6
CONTINUOUS
10
6.9709828346456693
20
-3.5354286614173227
11
6.9705842519685035
21
-3.5355937795275589
0
LINE
8
BLACK
6
CONTINUOUS
10
6.9705842519685035
20
-3.5355937795275589
11
6.9704356299212593
21
-3.5355937795275589
0
LINE
8
BLACK
6
CONTINUOUS
10
6.9704356299212593
20
-3.5355937795275589
11
6.970293267716535
21
-3.5356367322834643
0
LINE
8
BLACK
6
CONTINUOUS
10
6.970293267716535
20
-3.5356367322834643
11
6.9697144094488186
21
-3.5356358661417322
0
LINE
8
BLACK
6
CONTINUOUS
10
6.9697144094488186
20
-3.5356358661417322
11
6.950966771653543
21
-3.5337611023622046
0
LINE
8
BLACK
6
CONTINUOUS
10
6.950966771653543
20
-3.5337611023622046
11
6.9507568503937005
21
-3.5337190157480314
0
LINE
8
BLACK
6
CONTINUOUS
10
6.9507568503937005
20
-3.5337190157480314
11
6.950684527559055
21
-3.5337190157480314
0
LINE
8
BLACK
6
CONTINUOUS
10
6.950684527559055
20
-3.5337190157480314
11
6.9506166929133855
21
-3.5336909055118109
0
LINE
8
BLACK
6
CONTINUOUS
10
6.9506166929133855
20
-3.5336909055118109
11
6.9503992125984251
21
-3.5336473228346454
0
LINE
8
BLACK
6
CONTINUOUS
10
6.9503992125984251
20
-3.5336473228346454
11
6.9500188976377952
21
-3.5334432677165353
0
LINE
8
BLACK
6
CONTINUOUS
10
6.9500188976377952
20
-3.5334432677165353
11
6.9496201181102357
21
-3.5332781102362203
0
LINE
8
BLACK
6
CONTINUOUS
10
6.9496201181102357
20
-3.5332781102362203
11
6.9495149212598424
21
-3.5331729133858265
0
LINE
8
BLACK
6
CONTINUOUS
10
6.9495149212598424
20
-3.5331729133858265
11
6.9493839763779528
21
-3.5331026771653544
0
LINE
8
BLACK
6
CONTINUOUS
10
6.9493839763779528
20
-3.5331026771653544
11
6.9491107086614168
21
-3.5327687007874014
0
LINE
8
BLACK
6
CONTINUOUS
10
6.9491107086614168
20
-3.5327687007874014
11
6.9488054724409452
21
-3.5324634645669288
0
LINE
8
BLACK
6
CONTINUOUS
10
6.9488054724409452
20
-3.5324634645669288
11
6.9487485433070866
21
-3.5323261023622048
0
LINE
8
BLACK
6
CONTINUOUS
10
6.9487485433070866
20
-3.5323261023622048
11
6.9486544094488192
21
-3.5322110236220472
0
LINE
8
BLACK
6
CONTINUOUS
10
6.9486544094488192
20
-3.5322110236220472
11
6.9485296850393699
21
-3.5317977165354328
0
LINE
8
BLACK
6
CONTINUOUS
10
6.9485296850393699
20
-3.5317977165354328
11
6.9483645669291336
21
-3.53139905511811
0
LINE
8
BLACK
6
CONTINUOUS
10
6.9483645669291336
20
-3.53139905511811
11
6.9483427952755905
21
-3.5311783464566928
0
LINE
8
BLACK
6
CONTINUOUS
10
6.9483427952755905
20
-3.5311783464566928
11
6.9483216141732278
21
-3.5311080314960628
0
LINE
8
BLACK
6
CONTINUOUS
10
6.9483216141732278
20
-3.5311080314960628
11
6.948328779527559
21
-3.5310360236220473
0
LINE
8
BLACK
6
CONTINUOUS
10
6.948328779527559
20
-3.5310360236220473
11
6.9483078346456688
21
-3.5308229921259842
0
LINE
8
BLACK
6
CONTINUOUS
10
6.9483078346456688
20
-3.5308229921259842
11
6.9483078346456688
21
-3.5120753543307086
0
LINE
8
BLACK
6
CONTINUOUS
10
6.9483078346456688
20
-3.5120753543307086
11
6.9483645669291336
21
-3.5114992913385827
0
LINE
8
BLACK
6
CONTINUOUS
10
6.9483645669291336
20
-3.5114992913385827
11
6.9488054724409452
21
-3.5104348818897635
0
LINE
8
BLACK
6
CONTINUOUS
10
6.9488054724409452
20
-3.5104348818897635
11
6.9496201181102357
21
-3.5096202362204725
0
LINE
8
BLACK
6
CONTINUOUS
10
6.9496201181102357
20
-3.5096202362204725
11
6.950684527559055
21
-3.5091793307086614
0
LINE
8
BLACK
6
CONTINUOUS
10
6.950684527559055
20
-3.5091793307086614
11
6.9518366535433067
21
-3.5091793307086614
0
LINE
8
BLACK
6
CONTINUOUS
10
6.9518366535433067
20
-3.5091793307086614
11
6.952901062992126
21
-3.5096202362204725
0
LINE
8
BLACK
6
CONTINUOUS
10
6.952901062992126
20
-3.5096202362204725
11
6.9537157086614174
21
-3.5104348818897635
0
LINE
8
BLACK
6
CONTINUOUS
10
6.9537157086614174
20
-3.5104348818897635
11
6.9541566141732281
21
-3.5114992913385827
0
LINE
8
BLACK
6
CONTINUOUS
10
6.9541566141732281
20
-3.5114992913385827
11
6.9542133464566929
21
-3.5120753543307086
0
LINE
8
BLACK
6
CONTINUOUS
10
6.9542133464566929
20
-3.5120753543307086
11
6.9542133464566929
21
-3.528150748031496
0
LINE
8
BLACK
6
CONTINUOUS
10
6.9542133464566929
20
-3.528150748031496
11
6.9639846062992126
21
-3.5291278740157481
0
LINE
8
BLACK
6
CONTINUOUS
10
6.9639846062992126
20
-3.5291278740157481
11
6.9636176771653542
21
-3.5283939763779526
0
LINE
8
BLACK
6
CONTINUOUS
10
6.9636176771653542
20
-3.5283939763779526
11
6.9634107874015747
21
-3.527853346456693
0
LINE
8
BLACK
6
CONTINUOUS
10
6.9634107874015747
20
-3.527853346456693
11
6.9634032677165356
21
-3.5277475196850392
0
LINE
8
BLACK
6
CONTINUOUS
10
6.9634032677165356
20
-3.5277475196850392
11
6.9633626771653541
21
-3.5276495275590549
0
LINE
8
BLACK
6
CONTINUOUS
10
6.9633626771653541
20
-3.5276495275590549
11
6.9633059448818893
21
-3.5270734645669291
0
LINE
8
BLACK
6
CONTINUOUS
10
6.9633059448818893
20
-3.5270734645669291
11
6.9633059448818893
21
-3.5176996456692913
0
LINE
8
BLACK
6
CONTINUOUS
10
6.9633059448818893
20
-3.5176996456692913
11
6.9633626771653541
21
-3.5171235826771654
0
LINE
8
BLACK
6
CONTINUOUS
10
6.9633626771653541
20
-3.5171235826771654
11
6.9634032677165356
21
-3.5170255511811024
0
LINE
8
BLACK
6
CONTINUOUS
10
6.9634032677165356
20
-3.5170255511811024
11
6.9634107874015747
21
-3.5169197637795273
0
LINE
8
BLACK
6
CONTINUOUS
10
6.9634107874015747
20
-3.5169197637795273
11
6.9636176771653542
21
-3.5163791338582677
0
LINE
8
BLACK
6
CONTINUOUS
10
6.9636176771653542
20
-3.5163791338582677
11
6.9654924409448817
21
-3.5126296062992126
0
LINE
8
BLACK
6
CONTINUOUS
10
6.9654924409448817
20
-3.5126296062992126
11
6.9656485039370075
21
-3.5123815748031495
0
LINE
8
BLACK
6
CONTINUOUS
10
6.9656485039370075
20
-3.5123815748031495
11
6.9656783464566931
21
-3.512309645669291
0
LINE
8
BLACK
6
CONTINUOUS
10
6.9656783464566931
20
-3.512309645669291
11
6.9657448031496063
21
-3.5122286614173226
0
LINE
8
BLACK
6
CONTINUOUS
10
6.9657448031496063
20
-3.5122286614173226
11
6.9658007874015748
21
-3.5121397244094488
0
LINE
8
BLACK
6
CONTINUOUS
10
6.9658007874015748
20
-3.5121397244094488
11
6.9658597637795276
21
-3.5120885433070868
0
LINE
8
BLACK
6
CONTINUOUS
10
6.9658597637795276
20
-3.5120885433070868
11
6.9660455511811019
21
-3.5118622047244092
0
LINE
8
BLACK
6
CONTINUOUS
10
6.9660455511811019
20
-3.5118622047244092
11
6.9679203149606295
21
-3.5099874409448817
0
LINE
8
BLACK
6
CONTINUOUS
10
6.9679203149606295
20
-3.5099874409448817
11
6.9681466535433065
21
-3.509801653543307
0
LINE
8
BLACK
6
CONTINUOUS
10
6.9681466535433065
20
-3.509801653543307
11
6.968197834645669
21
-3.5097426771653542
0
LINE
8
BLACK
6
CONTINUOUS
10
6.968197834645669
20
-3.5097426771653542
11
6.9682867716535428
21
-3.5096866929133856
0
LINE
8
BLACK
6
CONTINUOUS
10
6.9682867716535428
20
-3.5096866929133856
11
6.9683677559055113
21
-3.5096202362204725
0
LINE
8
BLACK
6
CONTINUOUS
10
6.9683677559055113
20
-3.5096202362204725
11
6.9684396850393702
21
-3.5095903937007873
0
LINE
8
BLACK
6
CONTINUOUS
10
6.9684396850393702
20
-3.5095903937007873
11
6.9686877165354328
21
-3.5094343307086615
0
LINE
8
BLACK
6
CONTINUOUS
10
6.9686877165354328
20
-3.5094343307086615
11
6.972437244094488
21
-3.507559566929134
0
LINE
8
BLACK
6
CONTINUOUS
10
6.972437244094488
20
-3.507559566929134
11
6.9729778346456692
21
-3.507352677165354
0
LINE
8
BLACK
6
CONTINUOUS
10
6.9729778346456692
20
-3.507352677165354
11
6.9730837007874014
21
-3.5073451181102362
0
LINE
8
BLACK
6
CONTINUOUS
10
6.9730837007874014
20
-3.5073451181102362
11
6.9731816929133856
21
-3.5073045669291338
0
LINE
8
BLACK
6
CONTINUOUS
10
6.9731816929133856
20
-3.5073045669291338
11
6.9737577559055115
21
-3.507247834645669
0
LINE
8
BLACK
6
CONTINUOUS
10
6.9737577559055115
20
-3.507247834645669
11
6.9831315748031493
21
-3.507247834645669
0
LINE
8
BLACK
6
CONTINUOUS
10
6.9831315748031493
20
-3.507247834645669
11
6.9837076377952751
21
-3.5073045669291338
0
LINE
8
BLACK
6
CONTINUOUS
10
7.0715059448818893
20
-3.4941811417322834
11
7.0725703543307086
21
-3.4946220472440945
0
LINE
8
BLACK
6
CONTINUOUS
10
7.0725703543307086
20
-3.4946220472440945
11
7.073385
21
-3.4954366929133855
0
LINE
8
BLACK
6
CONTINUOUS
10
7.073385
20
-3.4954366929133855
11
7.0738259055118107
21
-3.4965011023622048
0
LINE
8
BLACK
6
CONTINUOUS
10
7.0738259055118107
20
-3.4965011023622048
11
7.0738259055118107
21
-3.4976532283464565
0
LINE
8
BLACK
6
CONTINUOUS
10
7.0738259055118107
20
-3.4976532283464565
11
7.073385
21
-3.4987176377952753
0
LINE
8
BLACK
6
CONTINUOUS
10
7.073385
20
-3.4987176377952753
11
7.0725703543307086
21
-3.4995322834645668
0
LINE
8
BLACK
6
CONTINUOUS
10
7.0725703543307086
20
-3.4995322834645668
11
7.0715059448818893
21
-3.4999731889763779
0
LINE
8
BLACK
6
CONTINUOUS
10
7.0715059448818893
20
-3.4999731889763779
11
7.0709298818897635
21
-3.5000299212598422
0
LINE
8
BLACK
6
CONTINUOUS
10
7.0709298818897635
20
-3.5000299212598422
11
7.0510044881889762
21
-3.5000299212598422
0
LINE
8
BLACK
6
CONTINUOUS
10
7.0510044881889762
20
-3.5000299212598422
11
7.0487587401574805
21
-3.5011527559055118
0
LINE
8
BLACK
6
CONTINUOUS
10
7.0487587401574805
20
-3.5011527559055118
11
7.047635905511811
21
-3.5033985039370079
0
LINE
8
BLACK
6
CONTINUOUS
10
7.047635905511811
20
-3.5033985039370079
11
7.047635905511811
21
-3.5076287401574802
0
LINE
8
BLACK
6
CONTINUOUS
10
7.047635905511811
20
-3.5076287401574802
11
7.0487587401574805
21
-3.5098744488188975
0
LINE
8
BLACK
6
CONTINUOUS
10
7.0487587401574805
20
-3.5098744488188975
11
7.0510044881889762
21
-3.5109973228346454
0
LINE
8
BLACK
6
CONTINUOUS
10
7.0510044881889762
20
-3.5109973228346454
11
7.0709298818897635
21
-3.5109973228346454
0
LINE
8
BLACK
6
CONTINUOUS
10
7.0709298818897635
20
-3.5109973228346454
11
7.0715059448818893
21
-3.5110540551181102
0
LINE
8
BLACK
6
CONTINUOUS
10
7.0715059448818893
20
-3.5110540551181102
11
7.0725703543307086
21
-3.5114949606299213
0
LINE
8
BLACK
6
CONTINUOUS
10
7.0725703543307086
20
-3.5114949606299213
11
7.073385
21
-3.5123096062992127
0
LINE
8
BLACK
6
CONTINUOUS
10
7.073385
20
-3.5123096062992127
11
7.0738259055118107
21
-3.5133740157480315
0
LINE
8
BLACK
6
CONTINUOUS
10
7.0738259055118107
20
-3.5133740157480315
11
7.0738259055118107
21
-3.5145261417322833
0
LINE
8
BLACK
6
CONTINUOUS
10
7.0738259055118107
20
-3.5145261417322833
11
7.073385
21
-3.5155905511811021
0
LINE
8
BLACK
6
CONTINUOUS
10
7.073385
20
-3.5155905511811021
11
7.0725703543307086
21
-3.5164051968503935
0
LINE
8
BLACK
6
CONTINUOUS
10
7.0725703543307086
20
-3.5164051968503935
11
7.0715059448818893
21
-3.5168461023622046
0
LINE
8
BLACK
6
CONTINUOUS
10
7.0715059448818893
20
-3.5168461023622046
11
7.0709298818897635
21
-3.516902834645669
0
LINE
8
BLACK
6
CONTINUOUS
10
7.0709298818897635
20
-3.516902834645669
11
7.0510044881889762
21
-3.516902834645669
0
LINE
8
BLACK
6
CONTINUOUS
10
7.0510044881889762
20
-3.516902834645669
11
7.0487587401574805
21
-3.5180256692913385
0
LINE
8
BLACK
6
CONTINUOUS
10
7.0487587401574805
20
-3.5180256692913385
11
7.047635905511811
21
-3.5202714173228347
0
LINE
8
BLACK
6
CONTINUOUS
10
7.047635905511811
20
-3.5202714173228347
11
7.047635905511811
21
-3.5245016141732282
0
LINE
8
BLACK
6
CONTINUOUS
10
7.047635905511811
20
-3.5245016141732282
11
7.0489846456692913
21
-3.5271990944881888
0
LINE
8
BLACK
6
CONTINUOUS
10
7.0489846456692913
20
-3.5271990944881888
11
7.0496557480314959
21
-3.5278701968503938
0
LINE
8
BLACK
6
CONTINUOUS
10
7.0496557480314959
20
-3.5278701968503938
11
7.0709298818897635
21
-3.5278701968503938
0
LINE
8
BLACK
6
CONTINUOUS
10
7.0709298818897635
20
-3.5278701968503938
11
7.0715059448818893
21
-3.5279269291338582
0
LINE
8
BLACK
6
CONTINUOUS
10
7.0715059448818893
20
-3.5279269291338582
11
7.0725703543307086
21
-3.5283678346456693
0
LINE
8
BLACK
6
CONTINUOUS
10
7.0725703543307086
20
-3.5283678346456693
11
7.073385
21
-3.5291824803149607
0
LINE
8
BLACK
6
CONTINUOUS
10
7.073385
20
-3.5291824803149607
11
7.0738259055118107
21
-3.5302468897637795
0
LINE
8
BLACK
6
CONTINUOUS
10
7.0738259055118107
20
-3.5302468897637795
11
7.0738259055118107
21
-3.5313990157480313
0
LINE
8
BLACK
6
CONTINUOUS
10
7.0738259055118107
20
-3.5313990157480313
11
7.073385
21
-3.5324634251968505
0
LINE
8
BLACK
6
CONTINUOUS
10
7.073385
20
-3.5324634251968505
11
7.0725703543307086
21
-3.5332780708661415
0
LINE
8
BLACK
6
CONTINUOUS
10
7.0725703543307086
20
-3.5332780708661415
11
7.0715059448818893
21
-3.5337189763779526
0
LINE
8
BLACK
6
CONTINUOUS
10
7.0715059448818893
20
-3.5337189763779526
11
7.0709298818897635
21
-3.5337757086614174
0
LINE
8
BLACK
6
CONTINUOUS
10
7.0709298818897635
20
-3.5337757086614174
11
7.0446831496062989
21
-3.5337757086614174
0
LINE
8
BLACK
6
CONTINUOUS
10
7.0446831496062989
20
-3.5337757086614174
11
7.0441070866141731
21
-3.5337189763779526
0
LINE
8
BLACK
6
CONTINUOUS
10
7.0441070866141731
20
-3.5337189763779526
11
7.0430426771653538
21
-3.5332780708661415
0
LINE
8
BLACK
6
CONTINUOUS
10
7.0430426771653538
20
-3.5332780708661415
11
7.0422280314960632
21
-3.5324634251968505
0
LINE
8
BLACK
6
CONTINUOUS
10
7.0422280314960632
20
-3.5324634251968505
11
7.0417871259842517
21
-3.5313990157480313
0
LINE
8
BLACK
6
CONTINUOUS
10
7.0417871259842517
20
-3.5313990157480313
11
7.0417871259842517
21
-3.5302468897637795
0
LINE
8
BLACK
6
CONTINUOUS
10
7.0417871259842517
20
-3.5302468897637795
11
7.0422280314960632
21
-3.5291824803149607
0
LINE
8
BLACK
6
CONTINUOUS
10
7.0422280314960632
20
-3.5291824803149607
11
7.042991850393701
21
-3.5284186220472442
0
LINE
8
BLACK
6
CONTINUOUS
10
7.042991850393701
20
-3.5284186220472442
11
7.0420421259842518
21
-3.5265191732283463
0
LINE
8
BLACK
6
CONTINUOUS
10
7.0420421259842518
20
-3.5265191732283463
11
7.0418352362204724
21
-3.5259785433070867
0
LINE
8
BLACK
6
CONTINUOUS
10
7.0418352362204724
20
-3.5259785433070867
11
7.0418277165354333
21
-3.5258727165354329
0
LINE
8
BLACK
6
CONTINUOUS
10
7.0418277165354333
20
-3.5258727165354329
11
7.0417871259842517
21
-3.5257747244094486
0
LINE
8
BLACK
6
CONTINUOUS
10
7.0417871259842517
20
-3.5257747244094486
11
7.0417303937007869
21
-3.5251986614173227
0
LINE
8
BLACK
6
CONTINUOUS
10
7.0417303937007869
20
-3.5251986614173227
11
7.0417303937007869
21
-3.5195743700787401
0
LINE
8
BLACK
6
CONTINUOUS
10
7.0417303937007869
20
-3.5195743700787401
11
7.0417871259842517
21
-3.5189983070866142
0
LINE
8
BLACK
6
CONTINUOUS
10
7.0417871259842517
20
-3.5189983070866142
11
7.0418277165354333
21
-3.5189002755905512
0
LINE
8
BLACK
6
CONTINUOUS
10
7.0418277165354333
20
-3.5189002755905512
11
7.0418352362204724
21
-3.5187944881889761
0
LINE
8
BLACK
6
CONTINUOUS
10
7.0418352362204724
20
-3.5187944881889761
11
7.0420421259842518
21
-3.5182538582677165
0
LINE
8
BLACK
6
CONTINUOUS
10
7.0420421259842518
20
-3.5182538582677165
11
7.0439168897637794
21
-3.5145043307086614
0
LINE
8
BLACK
6
CONTINUOUS
10
7.0439168897637794
20
-3.5145043307086614
11
7.0439775196850389
21
-3.5144079527559056
0
LINE
8
BLACK
6
CONTINUOUS
10
7.0439775196850389
20
-3.5144079527559056
11
7.0439926771653543
21
-3.514362559055118
0
LINE
8
BLACK
6
CONTINUOUS
10
7.0439926771653543
20
-3.514362559055118
11
7.0440416929133853
21
-3.5143059842519686
0
LINE
8
BLACK
6
CONTINUOUS
10
7.0440416929133853
20
-3.5143059842519686
11
7.0442252362204725
21
-3.5140144488188976
0
LINE
8
BLACK
6
CONTINUOUS
10
7.0442252362204725
20
-3.5140144488188976
11
7.0442994488188972
21
-3.5139500787401574
0
LINE
8
BLACK
6
CONTINUOUS
10
7.0442994488188972
20
-3.5139500787401574
11
7.0442252362204725
21
-3.5138857086614173
0
LINE
8
BLACK
6
CONTINUOUS
10
7.0442252362204725
20
-3.5138857086614173
11
7.0440416929133853
21
-3.5135941338582675
0
LINE
8
BLACK
6
CONTINUOUS
10
7.0440416929133853
20
-3.5135941338582675
11
7.0439926771653543
21
-3.5135375984251969
0
LINE
8
BLACK
6
CONTINUOUS
10
7.0439926771653543
20
-3.5135375984251969
11
7.0439775196850389
21
-3.5134921653543305
0
LINE
8
BLACK
6
CONTINUOUS
10
7.0439775196850389
20
-3.5134921653543305
11
7.0439168897637794
21
-3.5133958267716534
0
LINE
8
BLACK
6
CONTINUOUS
10
7.0439168897637794
20
-3.5133958267716534
11
7.0420421259842518
21
-3.5096462992125983
0
LINE
8
BLACK
6
CONTINUOUS
10
7.0420421259842518
20
-3.5096462992125983
11
7.0418352362204724
21
-3.5091056692913387
0
LINE
8
BLACK
6
CONTINUOUS
10
7.0418352362204724
20
-3.5091056692913387
11
7.0418277165354333
21
-3.5089998425196849
0
LINE
8
BLACK
6
CONTINUOUS
10
7.0418277165354333
20
-3.5089998425196849
11
7.0417871259842517
21
-3.5089018503937006
0
LINE
8
BLACK
6
CONTINUOUS
10
7.0417871259842517
20
-3.5089018503937006
11
7.0417303937007869
21
-3.5083257874015747
0
LINE
8
BLACK
6
CONTINUOUS
10
7.0417303937007869
20
-3.5083257874015747
11
7.0417303937007869
21
-3.5027014960629921
0
LINE
8
BLACK
6
CONTINUOUS
10
7.0417303937007869
20
-3.5027014960629921
11
7.0417871259842517
21
-3.5021254330708662
0
LINE
8
BLACK
6
CONTINUOUS
10
7.0417871259842517
20
-3.5021254330708662
11
7.0418277165354333
21
-3.5020274015748032
0
LINE
8
BLACK
6
CONTINUOUS
10
7.0418277165354333
20
-3.5020274015748032
11
7.0418352362204724
21
-3.5019216141732281
0
LINE
8
BLACK
6
CONTINUOUS
10
7.0418352362204724
20
-3.5019216141732281
11
7.0420421259842518
21
-3.5013809842519685
0
LINE
8
BLACK
6
CONTINUOUS
10
7.0420421259842518
20
-3.5013809842519685
11
7.0439168897637794
21
-3.4976314173228347
0
LINE
8
BLACK
6
CONTINUOUS
10
7.0439168897637794
20
-3.4976314173228347
11
7.0439775196850389
21
-3.4975350787401576
0
LINE
8
BLACK
6
CONTINUOUS
10
7.0439775196850389
20
-3.4975350787401576
11
7.0439926771653543
21
-3.4974896456692912
0
LINE
8
BLACK
6
CONTINUOUS
10
7.0439926771653543
20
-3.4974896456692912
11
7.0440417322834641
21
-3.4974330314960631
0
LINE
8
BLACK
6
CONTINUOUS
10
7.0440417322834641
20
-3.4974330314960631
11
7.0442252362204725
21
-3.4971415748031496
0
LINE
8
BLACK
6
CONTINUOUS
10
7.0442252362204725
20
-3.4971415748031496
11
7.044504842519685
21
-3.4968990551181101
0
LINE
8
BLACK
6
CONTINUOUS
10
7.044504842519685
20
-3.4968990551181101
11
7.0447475196850391
21
-3.4966192519685038
0
LINE
8
BLACK
6
CONTINUOUS
10
7.0447475196850391
20
-3.4966192519685038
11
7.0450390551181101
21
-3.4964357086614171
0
LINE
8
BLACK
6
CONTINUOUS
10
7.0450390551181101
20
-3.4964357086614171
11
7.0450956299212599
21
-3.4963866929133856
0
LINE
8
BLACK
6
CONTINUOUS
10
7.0450956299212599
20
-3.4963866929133856
11
7.0451410236220475
21
-3.4963715354330707
0
LINE
8
BLACK
6
CONTINUOUS
10
7.0451410236220475
20
-3.4963715354330707
11
7.0452374015748029
21
-3.4963109055118111
0
LINE
8
BLACK
6
CONTINUOUS
10
7.0452374015748029
20
-3.4963109055118111
11
7.048986929133858
21
-3.4944361417322836
0
LINE
8
BLACK
6
CONTINUOUS
10
7.048986929133858
20
-3.4944361417322836
11
7.0495275196850393
21
-3.4942292519685036
0
LINE
8
BLACK
6
CONTINUOUS
10
7.0495275196850393
20
-3.4942292519685036
11
7.0496333858267715
21
-3.4942216929133858
0
LINE
8
BLACK
6
CONTINUOUS
10
7.0496333858267715
20
-3.4942216929133858
11
7.0497313779527557
21
-3.4941811417322834
0
LINE
8
BLACK
6
CONTINUOUS
10
7.0497313779527557
20
-3.4941811417322834
11
7.0503074409448816
21
-3.4941244094488186
0
LINE
8
BLACK
6
CONTINUOUS
10
7.0503074409448816
20
-3.4941244094488186
11
7.0709298818897635
21
-3.4941244094488186
0
LINE
8
BLACK
6
CONTINUOUS
10
7.0709298818897635
20
-3.4941244094488186
11
7.0715059448818893
21
-3.4941811417322834
0
LINE
8
BLACK
6
CONTINUOUS
10
7.0715059448818893
20
-3.4416877165354332
11
7.0725703543307086
21
-3.4421286220472442
0
LINE
8
BLACK
6
CONTINUOUS
10
7.0725703543307086
20
-3.4421286220472442
11
7.073385
21
-3.4429432677165352
0
LINE
8
BLACK
6
CONTINUOUS
10
7.073385
20
-3.4429432677165352
11
7.0738259055118107
21
-3.4440076771653541
0
LINE
8
BLACK
6
CONTINUOUS
10
7.0738259055118107
20
-3.4440076771653541
11
7.0738259055118107
21
-3.4451598031496062
0
LINE
8
BLACK
6
CONTINUOUS
10
7.0738259055118107
20
-3.4451598031496062
11
7.073385
21
-3.446224212598425
0
LINE
8
BLACK
6
CONTINUOUS
10
7.073385
20
-3.446224212598425
11
7.0725703543307086
21
-3.4470388582677165
0
LINE
8
BLACK
6
CONTINUOUS
10
7.0725703543307086
20
-3.4470388582677165
11
7.0715059448818893
21
-3.4474797637795276
0
LINE
8
BLACK
6
CONTINUOUS
10
7.0715059448818893
20
-3.4474797637795276
11
7.0709298818897635
21
-3.447536496062992
0
LINE
8
BLACK
6
CONTINUOUS
10
7.0709298818897635
20
-3.447536496062992
11
7.0510044881889762
21
-3.447536496062992
0
LINE
8
BLACK
6
CONTINUOUS
10
7.0510044881889762
20
-3.447536496062992
11
7.0487587401574805
21
-3.4486593307086615
0
LINE
8
BLACK
6
CONTINUOUS
10
7.0487587401574805
20
-3.4486593307086615
11
7.047635905511811
21
-3.4509050787401576
0
LINE
8
BLACK
6
CONTINUOUS
10
7.047635905511811
20
-3.4509050787401576
11
7.047635905511811
21
-3.4551353149606299
0
LINE
8
BLACK
6
CONTINUOUS
10
7.047635905511811
20
-3.4551353149606299
11
7.0487587401574805
21
-3.4573810236220472
0
LINE
8
BLACK
6
CONTINUOUS
10
7.0487587401574805
20
-3.4573810236220472
11
7.0510044881889762
21
-3.4585038976377951
0
LINE
8
BLACK
6
CONTINUOUS
10
7.0510044881889762
20
-3.4585038976377951
11
7.0709298818897635
21
-3.4585038976377951
0
LINE
8
BLACK
6
CONTINUOUS
10
7.0709298818897635
20
-3.4585038976377951
11
7.0715059448818893
21
-3.4585606299212599
0
LINE
8
BLACK
6
CONTINUOUS
10
7.0715059448818893
20
-3.4585606299212599
11
7.0725703543307086
21
-3.459001535433071
0
LINE
8
BLACK
6
CONTINUOUS
10
7.0725703543307086
20
-3.459001535433071
11
7.073385
21
-3.459816181102362
0
LINE
8
BLACK
6
CONTINUOUS
10
7.073385
20
-3.459816181102362
11
7.0738259055118107
21
-3.4608805905511808
0
LINE
8
BLACK
6
CONTINUOUS
10
7.0738259055118107
20
-3.4608805905511808
11
7.0738259055118107
21
-3.462032716535433
0
LINE
8
BLACK
6
CONTINUOUS
10
7.0738259055118107
20
-3.462032716535433
11
7.073385
21
-3.4630971259842518
0
LINE
8
BLACK
6
CONTINUOUS
10
7.073385
20
-3.4630971259842518
11
7.0725703543307086
21
-3.4639117716535432
0
LINE
8
BLACK
6
CONTINUOUS
10
7.0725703543307086
20
-3.4639117716535432
11
7.0715059448818893
21
-3.4643526771653543
0
LINE
8
BLACK
6
CONTINUOUS
10
7.0715059448818893
20
-3.4643526771653543
11
7.0709298818897635
21
-3.4644094094488187
0
LINE
8
BLACK
6
CONTINUOUS
10
7.0709298818897635
20
-3.4644094094488187
11
7.0510044881889762
21
-3.4644094094488187
0
LINE
8
BLACK
6
CONTINUOUS
10
7.0510044881889762
20
-3.4644094094488187
11
7.0487587401574805
21
-3.4655322440944882
0
LINE
8
BLACK
6
CONTINUOUS
10
7.0487587401574805
20
-3.4655322440944882
11
7.047635905511811
21
-3.4677779921259844
0
LINE
8
BLACK
6
CONTINUOUS
10
7.047635905511811
20
-3.4677779921259844
11
7.047635905511811
21
-3.4720081889763779
0
LINE
8
BLACK
6
CONTINUOUS
10
7.047635905511811
20
-3.4720081889763779
11
7.0489846456692913
21
-3.4747056692913385
0
LINE
8
BLACK
6
CONTINUOUS
10
7.0489846456692913
20
-3.4747056692913385
11
7.0496557480314959
21
-3.4753767716535431
0
LINE
8
BLACK
6
CONTINUOUS
10
7.0496557480314959
20
-3.4753767716535431
11
7.0709298818897635
21
-3.4753767716535431
0
LINE
8
BLACK
6
CONTINUOUS
10
7.0709298818897635
20
-3.4753767716535431
11
7.0715059448818893
21
-3.4754335039370079
0
LINE
8
BLACK
6
CONTINUOUS
10
7.0715059448818893
20
-3.4754335039370079
11
7.0725703543307086
21
-3.475874409448819
0
LINE
8
BLACK
6
CONTINUOUS
10
7.0725703543307086
20
-3.475874409448819
11
7.073385
21
-3.47668905511811
0
LINE
8
BLACK
6
CONTINUOUS
10
7.073385
20
-3.47668905511811
11
7.0738259055118107
21
-3.4777534645669292
0
LINE
8
BLACK
6
CONTINUOUS
10
7.0738259055118107
20
-3.4777534645669292
11
7.0738259055118107
21
-3.478905590551181
0
LINE
8
BLACK
6
CONTINUOUS
10
7.0738259055118107
20
-3.478905590551181
11
7.073385
21
-3.4799699999999998
0
LINE
8
BLACK
6
CONTINUOUS
10
7.073385
20
-3.4799699999999998
11
7.0725703543307086
21
-3.4807846456692912
0
LINE
8
BLACK
6
CONTINUOUS
10
7.0725703543307086
20
-3.4807846456692912
11
7.0715059448818893
21
-3.4812255511811023
0
LINE
8
BLACK
6
CONTINUOUS
10
7.0715059448818893
20
-3.4812255511811023
11
7.0709298818897635
21
-3.4812822834645667
0
LINE
8
BLACK
6
CONTINUOUS
10
7.0709298818897635
20
-3.4812822834645667
11
7.0446831496062989
21
-3.4812822834645667
0
LINE
8
BLACK
6
CONTINUOUS
10
7.0446831496062989
20
-3.4812822834645667
11
7.0441070866141731
21
-3.4812255511811023
0
LINE
8
BLACK
6
CONTINUOUS
10
7.0441070866141731
20
-3.4812255511811023
11
7.0430426771653538
21
-3.4807846456692912
0
LINE
8
BLACK
6
CONTINUOUS
10
7.0430426771653538
20
-3.4807846456692912
11
7.0422280314960632
21
-3.4799699999999998
0
LINE
8
BLACK
6
CONTINUOUS
10
7.0422280314960632
20
-3.4799699999999998
11
7.0417871259842517
21
-3.478905590551181
0
LINE
8
BLACK
6
CONTINUOUS
10
7.0417871259842517
20
-3.478905590551181
11
7.0417871259842517
21
-3.4777534645669292
0
LINE
8
BLACK
6
CONTINUOUS
10
7.0417871259842517
20
-3.4777534645669292
11
7.0422280314960632
21
-3.47668905511811
0
LINE
8
BLACK
6
CONTINUOUS
10
7.0422280314960632
20
-3.47668905511811
11
7.042991850393701
21
-3.4759251968503935
0
LINE
8
BLACK
6
CONTINUOUS
10
7.042991850393701
20
-3.4759251968503935
11
7.0420421259842518
21
-3.474025748031496
0
LINE
8
BLACK
6
CONTINUOUS
10
7.0420421259842518
20
-3.474025748031496
11
7.0418352362204724
21
-3.473485118110236
0
LINE
8
BLACK
6
CONTINUOUS
10
7.0418352362204724
20
-3.473485118110236
11
7.0418277165354333
21
-3.4733792913385826
0
LINE
8
BLACK
6
CONTINUOUS
10
7.0418277165354333
20
-3.4733792913385826
11
7.0417871259842517
21
-3.4732812992125983
0
LINE
8
BLACK
6
CONTINUOUS
10
7.0417871259842517
20
-3.4732812992125983
11
7.0417303937007869
21
-3.4727052362204724
0
LINE
8
BLACK
6
CONTINUOUS
10
7.0417303937007869
20
-3.4727052362204724
11
7.0417303937007869
21
-3.4670809448818898
0
LINE
8
BLACK
6
CONTINUOUS
10
7.0417303937007869
20
-3.4670809448818898
11
7.0417871259842517
21
-3.4665048818897639
0
LINE
8
BLACK
6
CONTINUOUS
10
7.0417871259842517
20
-3.4665048818897639
11
7.0418277165354333
21
-3.4664068503937009
0
LINE
8
BLACK
6
CONTINUOUS
10
7.0418277165354333
20
-3.4664068503937009
11
7.0418352362204724
21
-3.4663010629921258
0
LINE
8
BLACK
6
CONTINUOUS
10
7.0418352362204724
20
-3.4663010629921258
11
7.0420421259842518
21
-3.4657604330708662
0
LINE
8
BLACK
6
CONTINUOUS
10
7.0420421259842518
20
-3.4657604330708662
11
7.0439168897637794
21
-3.4620109055118111
0
LINE
8
BLACK
6
CONTINUOUS
10
7.0439168897637794
20
-3.4620109055118111
11
7.0439775196850389
21
-3.4619145275590548
0
LINE
8
BLACK
6
CONTINUOUS
10
7.0439775196850389
20
-3.4619145275590548
11
7.0439926771653543
21
-3.4618691338582677
0
LINE
8
BLACK
6
CONTINUOUS
10
7.0439926771653543
20
-3.4618691338582677
11
7.0440416929133853
21
-3.4618125590551179
0
LINE
8
BLACK
6
CONTINUOUS
10
7.0440416929133853
20
-3.4618125590551179
11
7.0442252362204725
21
-3.4615210236220473
0
LINE
8
BLACK
6
CONTINUOUS
10
7.0442252362204725
20
-3.4615210236220473
11
7.0442994488188972
21
-3.4614566535433071
0
LINE
8
BLACK
6
CONTINUOUS
10
7.0442994488188972
20
-3.4614566535433071
11
7.0442252362204725
21
-3.461392283464567
0
LINE
8
BLACK
6
CONTINUOUS
10
7.0442252362204725
20
-3.461392283464567
11
7.0440416929133853
21
-3.4611007086614172
0
LINE
8
BLACK
6
CONTINUOUS
10
7.0440416929133853
20
-3.4611007086614172
11
7.0439926771653543
21
-3.4610441732283466
0
LINE
8
BLACK
6
CONTINUOUS
10
7.0439926771653543
20
-3.4610441732283466
11
7.0439775196850389
21
-3.4609987401574802
0
LINE
8
BLACK
6
CONTINUOUS
10
7.0439775196850389
20
-3.4609987401574802
11
7.0439168897637794
21
-3.4609024015748031
0
LINE
8
BLACK
6
CONTINUOUS
10
7.0439168897637794
20
-3.4609024015748031
11
7.0420421259842518
21
-3.457152874015748
0
LINE
8
BLACK
6
CONTINUOUS
10
7.0420421259842518
20
-3.457152874015748
11
7.0418352362204724
21
-3.456612244094488
0
LINE
8
BLACK
6
CONTINUOUS
10
7.0418352362204724
20
-3.456612244094488
11
7.0418277165354333
21
-3.4565064173228346
0
LINE
8
BLACK
6
CONTINUOUS
10
7.0418277165354333
20
-3.4565064173228346
11
7.0417871259842517
21
-3.4564084251968503
0
LINE
8
BLACK
6
CONTINUOUS
10
7.0417871259842517
20
-3.4564084251968503
11
7.0417303937007869
21
-3.4558323622047245
0
LINE
8
BLACK
6
CONTINUOUS
10
7.0417303937007869
20
-3.4558323622047245
11
7.0417303937007869
21
-3.4502080708661418
0
LINE
8
BLACK
6
CONTINUOUS
10
7.0417303937007869
20
-3.4502080708661418
11
7.0417871259842517
21
-3.4496320078740155
0
LINE
8
BLACK
6
CONTINUOUS
10
7.0417871259842517
20
-3.4496320078740155
11
7.0418277165354333
21
-3.4495339763779529
0
LINE
8
BLACK
6
CONTINUOUS
10
7.0418277165354333
20
-3.4495339763779529
11
7.0418352362204724
21
-3.4494281889763778
0
LINE
8
BLACK
6
CONTINUOUS
10
7.0418352362204724
20
-3.4494281889763778
11
7.0420421259842518
21
-3.4488875590551182
0
LINE
8
BLACK
6
CONTINUOUS
10
7.0420421259842518
20
-3.4488875590551182
11
7.0439168897637794
21
-3.4451379921259844
0
LINE
8
BLACK
6
CONTINUOUS
10
7.0439168897637794
20
-3.4451379921259844
11
7.0439775196850389
21
-3.4450416535433068
0
LINE
8
BLACK
6
CONTINUOUS
10
7.0439775196850389
20
-3.4450416535433068
11
7.0439926771653543
21
-3.4449962204724409
0
LINE
8
BLACK
6
CONTINUOUS
10
7.0439926771653543
20
-3.4449962204724409
11
7.0440417322834641
21
-3.4449396062992124
0
LINE
8
BLACK
6
CONTINUOUS
10
7.0440417322834641
20
-3.4449396062992124
11
7.0442252362204725
21
-3.4446481496062993
0
LINE
8
BLACK
6
CONTINUOUS
10
7.0442252362204725
20
-3.4446481496062993
11
7.044504842519685
21
-3.4444056299212598
0
LINE
8
BLACK
6
CONTINUOUS
10
7.044504842519685
20
-3.4444056299212598
11
7.0447475196850391
21
-3.4441258267716535
0
LINE
8
BLACK
6
CONTINUOUS
10
7.0447475196850391
20
-3.4441258267716535
11
7.0450390551181101
21
-3.4439422834645668
0
LINE
8
BLACK
6
CONTINUOUS
10
7.0450390551181101
20
-3.4439422834645668
11
7.0450956299212599
21
-3.4438932677165353
0
LINE
8
BLACK
6
CONTINUOUS
10
7.0450956299212599
20
-3.4438932677165353
11
7.0451410236220475
21
-3.4438781102362204
0
LINE
8
BLACK
6
CONTINUOUS
10
7.0451410236220475
20
-3.4438781102362204
11
7.0452374015748029
21
-3.4438174803149604
0
LINE
8
BLACK
6
CONTINUOUS
10
7.0452374015748029
20
-3.4438174803149604
11
7.048986929133858
21
-3.4419427165354328
0
LINE
8
BLACK
6
CONTINUOUS
10
7.048986929133858
20
-3.4419427165354328
11
7.0495275196850393
21
-3.4417358267716534
0
LINE
8
BLACK
6
CONTINUOUS
10
7.0495275196850393
20
-3.4417358267716534
11
7.0496333858267715
21
-3.4417282677165355
0
LINE
8
BLACK
6
CONTINUOUS
10
7.0496333858267715
20
-3.4417282677165355
11
7.0497313779527557
21
-3.4416877165354332
0
LINE
8
BLACK
6
CONTINUOUS
10
7.0497313779527557
20
-3.4416877165354332
11
7.0503074409448816
21
-3.4416309842519683
0
LINE
8
BLACK
6
CONTINUOUS
10
7.0503074409448816
20
-3.4416309842519683
11
7.0709298818897635
21
-3.4416309842519683
0
LINE
8
BLACK
6
CONTINUOUS
10
7.0709298818897635
20
-3.4416309842519683
11
7.0715059448818893
21
-3.4416877165354332
0
CIRCLE
8
BLACK
10
5.8245275590551175
20
-2.9496456692913386
40
0.0068897637795276
0
CIRCLE
8
BLACK
10
5.0371259842519684
20
-2.9496456692913386
40
0.0068897637795276
0
CIRCLE
8
BLACK
10
5.4308267716535434
20
-2.9496456692913386
40
0.0068897637795276
0
CIRCLE
8
BLACK
10
6.6119291338582675
20
-4.1307480314960632
40
0.0068897637795276
0
CIRCLE
8
BLACK
10
6.2182283464566925
20
-4.1307480314960632
40
0.0068897637795276
0
CIRCLE
8
BLACK
10
5.8245275590551175
20
-4.1307480314960632
40
0.0068897637795276
0
CIRCLE
8
BLACK
10
5.0371259842519684
20
-4.1307480314960632
40
0.0068897637795276
0
CIRCLE
8
BLACK
10
6.6119291338582675
20
-2.9496456692913386
40
0.0068897637795276
0
CIRCLE
8
BLACK
10
6.2182283464566925
20
-2.9496456692913386
40
0.0068897637795276
0
CIRCLE
8
BLACK
10
5.4308267716535434
20
-4.1307480314960632
40
0.0068897637795276
0
CIRCLE
8
BLACK
10
5.5921653543307084
20
-3.2797244094488187
40
0.0039370078740157
0
CIRCLE
8
BLACK
10
5.5449212598425195
20
-3.2797244094488187
40
0.0039370078740157
0
CIRCLE
8
BLACK
10
5.4976771653543306
20
-3.2797244094488187
40
0.0039370078740157
0
CIRCLE
8
BLACK
10
5.4504330708661417
20
-3.2797244094488187
40
0.0039370078740157
0
CIRCLE
8
BLACK
10
5.5921653543307084
20
-3.3407480314960627
40
0.0039370078740157
0
CIRCLE
8
BLACK
10
5.5449212598425195
20
-3.3407480314960627
40
0.0039370078740157
0
CIRCLE
8
BLACK
10
5.4976771653543306
20
-3.3407480314960627
40
0.0039370078740157
0
CIRCLE
8
BLACK
10
5.4504330708661417
20
-3.3407480314960627
40
0.0039370078740157
0
CIRCLE
8
BLACK
10
5.5921653543307084
20
-3.4017716535433071
40
0.0039370078740157
0
CIRCLE
8
BLACK
10
5.5449212598425195
20
-3.4017716535433071
40
0.0039370078740157
0
CIRCLE
8
BLACK
10
5.4976771653543306
20
-3.4017716535433071
40
0.0039370078740157
0
CIRCLE
8
BLACK
10
5.4504330708661417
20
-3.4017716535433071
40
0.0039370078740157
0
CIRCLE
8
BLACK
10
6.0181496062992128
20
-3.6763779527559053
40
0.0039370078740157
0
CIRCLE
8
BLACK
10
6.0417716535433073
20
-3.6763779527559053
40
0.0039370078740157
0
CIRCLE
8
BLACK
10
6.0653937007874017
20
-3.6763779527559053
40
0.0039370078740157
0
CIRCLE
8
BLACK
10
6.5892913385826768
20
-3.3581102362204724
40
0.0039370078740157
0
CIRCLE
8
BLACK
10
6.5892913385826768
20
-3.1317322834645669
40
0.0039370078740157
0
CIRCLE
8
BLACK
10
6.5892913385826768
20
-3.9486614173228345
40
0.0039370078740157
0
CIRCLE
8
BLACK
10
6.5892913385826768
20
-3.7222834645669289
40
0.0039370078740157
0
CIRCLE
8
BLACK
10
5.8245275590551175
20
-2.9496456692913386
40
0.0068897637795276
0
CIRCLE
8
BLACK
10
5.0371259842519684
20
-2.9496456692913386
40
0.0068897637795276
0
CIRCLE
8
BLACK
10
5.4308267716535434
20
-2.9496456692913386
40
0.0068897637795276
0
CIRCLE
8
BLACK
10
6.6119291338582675
20
-4.1307480314960632
40
0.0068897637795276
0
CIRCLE
8
BLACK
10
6.2182283464566925
20
-4.1307480314960632
40
0.0068897637795276
0
CIRCLE
8
BLACK
10
5.8245275590551175
20
-4.1307480314960632
40
0.0068897637795276
0
CIRCLE
8
BLACK
10
5.0371259842519684
20
-4.1307480314960632
40
0.0068897637795276
0
CIRCLE
8
BLACK
10
6.6119291338582675
20
-2.9496456692913386
40
0.0068897637795276
0
CIRCLE
8
BLACK
10
6.2182283464566925
20
-2.9496456692913386
40
0.0068897637795276
0
CIRCLE
8
BLACK
10
5.4308267716535434
20
-4.1307480314960632
40
0.0068897637795276
0
CIRCLE
8
BLACK
10
5.5921653543307084
20
-3.2797244094488187
40
0.0039370078740157
0
CIRCLE
8
BLACK
10
5.5449212598425195
20
-3.2797244094488187
40
0.0039370078740157
0
CIRCLE
8
BLACK
10
5.4976771653543306
20
-3.2797244094488187
40
0.0039370078740157
0
CIRCLE
8
BLACK
10
5.4504330708661417
20
-3.2797244094488187
40
0.0039370078740157
0
CIRCLE
8
BLACK
10
5.5921653543307084
20
-3.3407480314960627
40
0.0039370078740157
0
CIRCLE
8
BLACK
10
5.5449212598425195
20
-3.3407480314960627
40
0.0039370078740157
0
CIRCLE
8
BLACK
10
5.4976771653543306
20
-3.3407480314960627
40
0.0039370078740157
0
CIRCLE
8
BLACK
10
5.4504330708661417
20
-3.3407480314960627
40
0.0039370078740157
0
CIRCLE
8
BLACK
10
5.5921653543307084
20
-3.4017716535433071
40
0.0039370078740157
0
CIRCLE
8
BLACK
10
5.5449212598425195
20
-3.4017716535433071
40
0.0039370078740157
0
CIRCLE
8
BLACK
10
5.4976771653543306
20
-3.4017716535433071
40
0.0039370078740157
0
CIRCLE
8
BLACK
10
5.4504330708661417
20
-3.4017716535433071
40
0.0039370078740157
0
CIRCLE
8
BLACK
10
6.0181496062992128
20
-3.6763779527559053
40
0.0039370078740157
0
CIRCLE
8
BLACK
10
6.0417716535433073
20
-3.6763779527559053
40
0.0039370078740157
0
CIRCLE
8
BLACK
10
6.0653937007874017
20
-3.6763779527559053
40
0.0039370078740157
0
CIRCLE
8
BLACK
10
6.5892913385826768
20
-3.3581102362204724
40
0.0039370078740157
0
CIRCLE
8
BLACK
10
6.5892913385826768
20
-3.1317322834645669
40
0.0039370078740157
0
CIRCLE
8
BLACK
10
6.5892913385826768
20
-3.9486614173228345
40
0.0039370078740157
0
CIRCLE
8
BLACK
10
6.5892913385826768
20
-3.7222834645669289
40
0.0039370078740157
  0
ENDSEC
  0
EOF
