  0
SECTION
  2
HEADER
  9
$ANGBASE
  50
0.0
  9
$ANGDIR
  70
1
  9
$MEASUREMENT
  70
0
  0
ENDSEC
  0
SECTION
  2
TABLES
  0
TABLE
  2
LTYPE
  70
4
  0
LTYPE
  5
40F
  2
CONTINUOUS
  70
0
  3
Solid line
  72
65
  73
0
  40
0.0
  0
LTYPE
  5
410
  2
DASHDOT
 70
0
  3
Dash Dot ____ _ ____ _
 72
65
 73
4
 40
2.0
 49
1.25
 49
-0.25
 49
0.25
 49
-0.25
  0
LTYPE
  5
411
  2
DASHED
 70
0
  3
Dashed __ __ __ __ __
 72
65
 73
2
 40
0.75
 49
0.5
 49
-0.25
  0
LTYPE
  5
43B
  2
DOTTED
 70
0
  3
Dotted .  .  .  .
 72
65
 73
2
 40
0.2
 49
0.0
 49
-0.2
  0
ENDTAB
  0
TABLE
  2
STYLE
  70
4
  0
STYLE
  2
KICAD
  70
0
  40
0
  41
1
  42
1
  50
0
  71
0
  3
isocp.shx
  0
STYLE
  2
KICADB
  70
0
  40
0
  41
1
  42
1
  50
0
  71
0
  3
isocp.shx
  0
STYLE
  2
KICADI
  70
0
  40
0
  41
1
  42
1
  50
15
  71
0
  3
isocp.shx
  0
STYLE
  2
KICADBI
  70
0
  40
0
  41
1
  42
1
  50
15
  71
0
  3
isocp.shx
  0
ENDTAB
  0
TABLE
  2
LAYER
  70
1
  0
LAYER
  2
BLACK
  70
0
  62
7
  6
CONTINUOUS
  0
ENDTAB
  0
ENDSEC
  0
SECTION
  2
ENTITIES
0
LINE
8
BLACK
6
CONTINUOUS
10
5.05162
20
-4.0735
11
5.06085
21
-4.07667
0
LINE
8
BLACK
6
CONTINUOUS
10
5.06085
20
-4.07667
11
5.06943
21
-4.08131
0
LINE
8
BLACK
6
CONTINUOUS
10
5.06943
20
-4.08131
11
5.07712
21
-4.0873
0
LINE
8
BLACK
6
CONTINUOUS
10
5.07712
20
-4.0873
11
5.08373
21
-4.09448
0
LINE
8
BLACK
6
CONTINUOUS
10
5.08373
20
-4.09448
11
5.08906
21
-4.10264
0
LINE
8
BLACK
6
CONTINUOUS
10
5.08906
20
-4.10264
11
5.09298
21
-4.11157
0
LINE
8
BLACK
6
CONTINUOUS
10
5.09298
20
-4.11157
11
5.09538
21
-4.12103
0
LINE
8
BLACK
6
CONTINUOUS
10
5.09538
20
-4.12103
11
5.09618
21
-4.13075
0
LINE
8
BLACK
6
CONTINUOUS
10
5.09618
20
-4.13075
11
5.09538
21
-4.14047
0
LINE
8
BLACK
6
CONTINUOUS
10
5.09538
20
-4.14047
11
5.09298
21
-4.14992
0
LINE
8
BLACK
6
CONTINUOUS
10
5.09298
20
-4.14992
11
5.08906
21
-4.15886
0
LINE
8
BLACK
6
CONTINUOUS
10
5.08906
20
-4.15886
11
5.08373
21
-4.16702
0
LINE
8
BLACK
6
CONTINUOUS
10
5.08373
20
-4.16702
11
5.07712
21
-4.1742
0
LINE
8
BLACK
6
CONTINUOUS
10
5.07712
20
-4.1742
11
5.06943
21
-4.18019
0
LINE
8
BLACK
6
CONTINUOUS
10
5.06943
20
-4.18019
11
5.06085
21
-4.18483
0
LINE
8
BLACK
6
CONTINUOUS
10
5.06085
20
-4.18483
11
5.05162
21
-4.188
0
LINE
8
BLACK
6
CONTINUOUS
10
5.05162
20
-4.188
11
5.042
21
-4.1896
0
LINE
8
BLACK
6
CONTINUOUS
10
5.042
20
-4.1896
11
5.03225
21
-4.1896
0
LINE
8
BLACK
6
CONTINUOUS
10
5.03225
20
-4.1896
11
5.02263
21
-4.188
0
LINE
8
BLACK
6
CONTINUOUS
10
5.02263
20
-4.188
11
5.0134
21
-4.18483
0
LINE
8
BLACK
6
CONTINUOUS
10
5.0134
20
-4.18483
11
5.00483
21
-4.18019
0
LINE
8
BLACK
6
CONTINUOUS
10
5.00483
20
-4.18019
11
4.99713
21
-4.1742
0
LINE
8
BLACK
6
CONTINUOUS
10
4.99713
20
-4.1742
11
4.99052
21
-4.16702
0
LINE
8
BLACK
6
CONTINUOUS
10
4.99052
20
-4.16702
11
4.98519
21
-4.15886
0
LINE
8
BLACK
6
CONTINUOUS
10
4.98519
20
-4.15886
11
4.98127
21
-4.14992
0
LINE
8
BLACK
6
CONTINUOUS
10
4.98127
20
-4.14992
11
4.97888
21
-4.14047
0
LINE
8
BLACK
6
CONTINUOUS
10
4.97888
20
-4.14047
11
4.97807
21
-4.13075
0
LINE
8
BLACK
6
CONTINUOUS
10
4.97807
20
-4.13075
11
4.97888
21
-4.12103
0
LINE
8
BLACK
6
CONTINUOUS
10
4.97888
20
-4.12103
11
4.98127
21
-4.11157
0
LINE
8
BLACK
6
CONTINUOUS
10
4.98127
20
-4.11157
11
4.98519
21
-4.10264
0
LINE
8
BLACK
6
CONTINUOUS
10
4.98519
20
-4.10264
11
4.99052
21
-4.09448
0
LINE
8
BLACK
6
CONTINUOUS
10
4.99052
20
-4.09448
11
4.99713
21
-4.0873
0
LINE
8
BLACK
6
CONTINUOUS
10
4.99713
20
-4.0873
11
5.00483
21
-4.08131
0
LINE
8
BLACK
6
CONTINUOUS
10
5.00483
20
-4.08131
11
5.0134
21
-4.07667
0
LINE
8
BLACK
6
CONTINUOUS
10
5.0134
20
-4.07667
11
5.02263
21
-4.0735
0
LINE
8
BLACK
6
CONTINUOUS
10
5.02263
20
-4.0735
11
5.03225
21
-4.07189
0
LINE
8
BLACK
6
CONTINUOUS
10
5.03225
20
-4.07189
11
5.042
21
-4.07189
0
LINE
8
BLACK
6
CONTINUOUS
10
5.042
20
-4.07189
11
5.05162
21
-4.0735
0
LINE
8
BLACK
6
CONTINUOUS
10
5.44532
20
-4.0735
11
5.45455
21
-4.07667
0
LINE
8
BLACK
6
CONTINUOUS
10
5.45455
20
-4.07667
11
5.46313
21
-4.08131
0
LINE
8
BLACK
6
CONTINUOUS
10
5.46313
20
-4.08131
11
5.47082
21
-4.0873
0
LINE
8
BLACK
6
CONTINUOUS
10
5.47082
20
-4.0873
11
5.47743
21
-4.09448
0
LINE
8
BLACK
6
CONTINUOUS
10
5.47743
20
-4.09448
11
5.48276
21
-4.10264
0
LINE
8
BLACK
6
CONTINUOUS
10
5.48276
20
-4.10264
11
5.48668
21
-4.11157
0
LINE
8
BLACK
6
CONTINUOUS
10
5.48668
20
-4.11157
11
5.48908
21
-4.12103
0
LINE
8
BLACK
6
CONTINUOUS
10
5.48908
20
-4.12103
11
5.48988
21
-4.13075
0
LINE
8
BLACK
6
CONTINUOUS
10
5.48988
20
-4.13075
11
5.48908
21
-4.14047
0
LINE
8
BLACK
6
CONTINUOUS
10
5.48908
20
-4.14047
11
5.48668
21
-4.14992
0
LINE
8
BLACK
6
CONTINUOUS
10
5.48668
20
-4.14992
11
5.48276
21
-4.15886
0
LINE
8
BLACK
6
CONTINUOUS
10
5.48276
20
-4.15886
11
5.47743
21
-4.16702
0
LINE
8
BLACK
6
CONTINUOUS
10
5.47743
20
-4.16702
11
5.47082
21
-4.1742
0
LINE
8
BLACK
6
CONTINUOUS
10
5.47082
20
-4.1742
11
5.46313
21
-4.18019
0
LINE
8
BLACK
6
CONTINUOUS
10
5.46313
20
-4.18019
11
5.45455
21
-4.18483
0
LINE
8
BLACK
6
CONTINUOUS
10
5.45455
20
-4.18483
11
5.44532
21
-4.188
0
LINE
8
BLACK
6
CONTINUOUS
10
5.44532
20
-4.188
11
5.4357
21
-4.1896
0
LINE
8
BLACK
6
CONTINUOUS
10
5.4357
20
-4.1896
11
5.42595
21
-4.1896
0
LINE
8
BLACK
6
CONTINUOUS
10
5.42595
20
-4.1896
11
5.41633
21
-4.188
0
LINE
8
BLACK
6
CONTINUOUS
10
5.41633
20
-4.188
11
5.4071
21
-4.18483
0
LINE
8
BLACK
6
CONTINUOUS
10
5.4071
20
-4.18483
11
5.39853
21
-4.18019
0
LINE
8
BLACK
6
CONTINUOUS
10
5.39853
20
-4.18019
11
5.39083
21
-4.1742
0
LINE
8
BLACK
6
CONTINUOUS
10
5.39083
20
-4.1742
11
5.38422
21
-4.16702
0
LINE
8
BLACK
6
CONTINUOUS
10
5.38422
20
-4.16702
11
5.37889
21
-4.15886
0
LINE
8
BLACK
6
CONTINUOUS
10
5.37889
20
-4.15886
11
5.37497
21
-4.14992
0
LINE
8
BLACK
6
CONTINUOUS
10
5.37497
20
-4.14992
11
5.37258
21
-4.14047
0
LINE
8
BLACK
6
CONTINUOUS
10
5.37258
20
-4.14047
11
5.37177
21
-4.13075
0
LINE
8
BLACK
6
CONTINUOUS
10
5.37177
20
-4.13075
11
5.37258
21
-4.12103
0
LINE
8
BLACK
6
CONTINUOUS
10
5.37258
20
-4.12103
11
5.37497
21
-4.11157
0
LINE
8
BLACK
6
CONTINUOUS
10
5.37497
20
-4.11157
11
5.37889
21
-4.10264
0
LINE
8
BLACK
6
CONTINUOUS
10
5.37889
20
-4.10264
11
5.38422
21
-4.09448
0
LINE
8
BLACK
6
CONTINUOUS
10
5.38422
20
-4.09448
11
5.39083
21
-4.0873
0
LINE
8
BLACK
6
CONTINUOUS
10
5.39083
20
-4.0873
11
5.39853
21
-4.08131
0
LINE
8
BLACK
6
CONTINUOUS
10
5.39853
20
-4.08131
11
5.4071
21
-4.07667
0
LINE
8
BLACK
6
CONTINUOUS
10
5.4071
20
-4.07667
11
5.41633
21
-4.0735
0
LINE
8
BLACK
6
CONTINUOUS
10
5.41633
20
-4.0735
11
5.42595
21
-4.07189
0
LINE
8
BLACK
6
CONTINUOUS
10
5.42595
20
-4.07189
11
5.4357
21
-4.07189
0
LINE
8
BLACK
6
CONTINUOUS
10
5.4357
20
-4.07189
11
5.44532
21
-4.0735
0
LINE
8
BLACK
6
CONTINUOUS
10
6.9049
20
-3.97654
11
6.90673
21
-3.97865
0
LINE
8
BLACK
6
CONTINUOUS
10
6.90673
20
-3.97865
11
6.90718
21
-3.98074
0
LINE
8
BLACK
6
CONTINUOUS
10
6.90718
20
-3.98074
11
6.90633
21
-4.12582
0
LINE
8
BLACK
6
CONTINUOUS
10
6.90633
20
-4.12582
11
6.90552
21
-4.12849
0
LINE
8
BLACK
6
CONTINUOUS
10
6.90552
20
-4.12849
11
6.9034
21
-4.13031
0
LINE
8
BLACK
6
CONTINUOUS
10
6.9034
20
-4.13031
11
6.90137
21
-4.13075
0
LINE
8
BLACK
6
CONTINUOUS
10
6.90137
20
-4.13075
11
6.67098
21
-4.13075
0
LINE
8
BLACK
6
CONTINUOUS
10
6.67098
20
-4.13075
11
6.67018
21
-4.14047
0
LINE
8
BLACK
6
CONTINUOUS
10
6.67018
20
-4.14047
11
6.66778
21
-4.14992
0
LINE
8
BLACK
6
CONTINUOUS
10
6.66778
20
-4.14992
11
6.66387
21
-4.15886
0
LINE
8
BLACK
6
CONTINUOUS
10
6.66387
20
-4.15886
11
6.65853
21
-4.16702
0
LINE
8
BLACK
6
CONTINUOUS
10
6.65853
20
-4.16702
11
6.65193
21
-4.1742
0
LINE
8
BLACK
6
CONTINUOUS
10
6.65193
20
-4.1742
11
6.64423
21
-4.18019
0
LINE
8
BLACK
6
CONTINUOUS
10
6.64423
20
-4.18019
11
6.63565
21
-4.18483
0
LINE
8
BLACK
6
CONTINUOUS
10
6.63565
20
-4.18483
11
6.62643
21
-4.188
0
LINE
8
BLACK
6
CONTINUOUS
10
6.62643
20
-4.188
11
6.61681
21
-4.1896
0
LINE
8
BLACK
6
CONTINUOUS
10
6.61681
20
-4.1896
11
6.60705
21
-4.1896
0
LINE
8
BLACK
6
CONTINUOUS
10
6.60705
20
-4.1896
11
6.59743
21
-4.188
0
LINE
8
BLACK
6
CONTINUOUS
10
6.59743
20
-4.188
11
6.58821
21
-4.18483
0
LINE
8
BLACK
6
CONTINUOUS
10
6.58821
20
-4.18483
11
6.57963
21
-4.18019
0
LINE
8
BLACK
6
CONTINUOUS
10
6.57963
20
-4.18019
11
6.57193
21
-4.1742
0
LINE
8
BLACK
6
CONTINUOUS
10
6.57193
20
-4.1742
11
6.56533
21
-4.16702
0
LINE
8
BLACK
6
CONTINUOUS
10
6.56533
20
-4.16702
11
6.55999
21
-4.15886
0
LINE
8
BLACK
6
CONTINUOUS
10
6.55999
20
-4.15886
11
6.55607
21
-4.14992
0
LINE
8
BLACK
6
CONTINUOUS
10
6.55607
20
-4.14992
11
6.55368
21
-4.14047
0
LINE
8
BLACK
6
CONTINUOUS
10
6.55368
20
-4.14047
11
6.55287
21
-4.13075
0
LINE
8
BLACK
6
CONTINUOUS
10
6.55287
20
-4.13075
11
6.27728
21
-4.13075
0
LINE
8
BLACK
6
CONTINUOUS
10
6.27728
20
-4.13075
11
6.27648
21
-4.14047
0
LINE
8
BLACK
6
CONTINUOUS
10
6.27648
20
-4.14047
11
6.27408
21
-4.14992
0
LINE
8
BLACK
6
CONTINUOUS
10
6.27408
20
-4.14992
11
6.27017
21
-4.15886
0
LINE
8
BLACK
6
CONTINUOUS
10
6.27017
20
-4.15886
11
6.26483
21
-4.16702
0
LINE
8
BLACK
6
CONTINUOUS
10
6.26483
20
-4.16702
11
6.25823
21
-4.1742
0
LINE
8
BLACK
6
CONTINUOUS
10
6.25823
20
-4.1742
11
6.25053
21
-4.18019
0
LINE
8
BLACK
6
CONTINUOUS
10
6.25053
20
-4.18019
11
6.24195
21
-4.18483
0
LINE
8
BLACK
6
CONTINUOUS
10
6.24195
20
-4.18483
11
6.23273
21
-4.188
0
LINE
8
BLACK
6
CONTINUOUS
10
6.23273
20
-4.188
11
6.22311
21
-4.1896
0
LINE
8
BLACK
6
CONTINUOUS
10
6.22311
20
-4.1896
11
6.21335
21
-4.1896
0
LINE
8
BLACK
6
CONTINUOUS
10
6.21335
20
-4.1896
11
6.20373
21
-4.188
0
LINE
8
BLACK
6
CONTINUOUS
10
6.20373
20
-4.188
11
6.19451
21
-4.18483
0
LINE
8
BLACK
6
CONTINUOUS
10
6.19451
20
-4.18483
11
6.18593
21
-4.18019
0
LINE
8
BLACK
6
CONTINUOUS
10
6.18593
20
-4.18019
11
6.17823
21
-4.1742
0
LINE
8
BLACK
6
CONTINUOUS
10
6.17823
20
-4.1742
11
6.17163
21
-4.16702
0
LINE
8
BLACK
6
CONTINUOUS
10
6.17163
20
-4.16702
11
6.16629
21
-4.15886
0
LINE
8
BLACK
6
CONTINUOUS
10
6.16629
20
-4.15886
11
6.16237
21
-4.14992
0
LINE
8
BLACK
6
CONTINUOUS
10
6.16237
20
-4.14992
11
6.15998
21
-4.14047
0
LINE
8
BLACK
6
CONTINUOUS
10
6.15998
20
-4.14047
11
6.15917
21
-4.13075
0
LINE
8
BLACK
6
CONTINUOUS
10
6.15917
20
-4.13075
11
5.88358
21
-4.13075
0
LINE
8
BLACK
6
CONTINUOUS
10
5.88358
20
-4.13075
11
5.88278
21
-4.14047
0
LINE
8
BLACK
6
CONTINUOUS
10
5.88278
20
-4.14047
11
5.88038
21
-4.14992
0
LINE
8
BLACK
6
CONTINUOUS
10
5.88038
20
-4.14992
11
5.87646
21
-4.15886
0
LINE
8
BLACK
6
CONTINUOUS
10
5.87646
20
-4.15886
11
5.87113
21
-4.16702
0
LINE
8
BLACK
6
CONTINUOUS
10
5.87113
20
-4.16702
11
5.86452
21
-4.1742
0
LINE
8
BLACK
6
CONTINUOUS
10
5.86452
20
-4.1742
11
5.85683
21
-4.18019
0
LINE
8
BLACK
6
CONTINUOUS
10
5.85683
20
-4.18019
11
5.84825
21
-4.18483
0
LINE
8
BLACK
6
CONTINUOUS
10
5.84825
20
-4.18483
11
5.83902
21
-4.188
0
LINE
8
BLACK
6
CONTINUOUS
10
5.83902
20
-4.188
11
5.8294
21
-4.1896
0
LINE
8
BLACK
6
CONTINUOUS
10
5.8294
20
-4.1896
11
5.81965
21
-4.1896
0
LINE
8
BLACK
6
CONTINUOUS
10
5.81965
20
-4.1896
11
5.81003
21
-4.188
0
LINE
8
BLACK
6
CONTINUOUS
10
5.81003
20
-4.188
11
5.80081
21
-4.18483
0
LINE
8
BLACK
6
CONTINUOUS
10
5.80081
20
-4.18483
11
5.79223
21
-4.18019
0
LINE
8
BLACK
6
CONTINUOUS
10
5.79223
20
-4.18019
11
5.78453
21
-4.1742
0
LINE
8
BLACK
6
CONTINUOUS
10
5.78453
20
-4.1742
11
5.77792
21
-4.16702
0
LINE
8
BLACK
6
CONTINUOUS
10
5.77792
20
-4.16702
11
5.77259
21
-4.15886
0
LINE
8
BLACK
6
CONTINUOUS
10
5.77259
20
-4.15886
11
5.76867
21
-4.14992
0
LINE
8
BLACK
6
CONTINUOUS
10
5.76867
20
-4.14992
11
5.76628
21
-4.14047
0
LINE
8
BLACK
6
CONTINUOUS
10
5.76628
20
-4.14047
11
5.76547
21
-4.13075
0
LINE
8
BLACK
6
CONTINUOUS
10
5.76547
20
-4.13075
11
5.76126
21
-4.13075
0
LINE
8
BLACK
6
CONTINUOUS
10
5.76126
20
-4.13075
11
5.75858
21
-4.12996
0
LINE
8
BLACK
6
CONTINUOUS
10
5.75858
20
-4.12996
11
5.75675
21
-4.12785
0
LINE
8
BLACK
6
CONTINUOUS
10
5.75675
20
-4.12785
11
5.7563
21
-4.12579
0
LINE
8
BLACK
6
CONTINUOUS
10
5.7563
20
-4.12579
11
5.7563
21
-3.98071
0
LINE
8
BLACK
6
CONTINUOUS
10
5.7563
20
-3.98071
11
5.75709
21
-3.97803
0
LINE
8
BLACK
6
CONTINUOUS
10
5.75709
20
-3.97803
11
5.7592
21
-3.9762
0
LINE
8
BLACK
6
CONTINUOUS
10
5.7592
20
-3.9762
11
5.76126
21
-3.97575
0
LINE
8
BLACK
6
CONTINUOUS
10
5.76126
20
-3.97575
11
6.90222
21
-3.97575
0
LINE
8
BLACK
6
CONTINUOUS
10
6.90222
20
-3.97575
11
6.9049
21
-3.97654
0
LINE
8
BLACK
6
CONTINUOUS
10
6.06965
20
-3.66327
11
6.07349
21
-3.66523
0
LINE
8
BLACK
6
CONTINUOUS
10
6.07349
20
-3.66523
11
6.07654
21
-3.66828
0
LINE
8
BLACK
6
CONTINUOUS
10
6.07654
20
-3.66828
11
6.0785
21
-3.67212
0
LINE
8
BLACK
6
CONTINUOUS
10
6.0785
20
-3.67212
11
6.07917
21
-3.67638
0
LINE
8
BLACK
6
CONTINUOUS
10
6.07917
20
-3.67638
11
6.0785
21
-3.68064
0
LINE
8
BLACK
6
CONTINUOUS
10
6.0785
20
-3.68064
11
6.07654
21
-3.68448
0
LINE
8
BLACK
6
CONTINUOUS
10
6.07654
20
-3.68448
11
6.07349
21
-3.68753
0
LINE
8
BLACK
6
CONTINUOUS
10
6.07349
20
-3.68753
11
6.06965
21
-3.68948
0
LINE
8
BLACK
6
CONTINUOUS
10
6.06965
20
-3.68948
11
6.06539
21
-3.69016
0
LINE
8
BLACK
6
CONTINUOUS
10
6.06539
20
-3.69016
11
6.06114
21
-3.68948
0
LINE
8
BLACK
6
CONTINUOUS
10
6.06114
20
-3.68948
11
6.05729
21
-3.68753
0
LINE
8
BLACK
6
CONTINUOUS
10
6.05729
20
-3.68753
11
6.05425
21
-3.68448
0
LINE
8
BLACK
6
CONTINUOUS
10
6.05425
20
-3.68448
11
6.05358
21
-3.68318
0
LINE
8
BLACK
6
CONTINUOUS
10
6.05358
20
-3.68318
11
6.05292
21
-3.68448
0
LINE
8
BLACK
6
CONTINUOUS
10
6.05292
20
-3.68448
11
6.04987
21
-3.68753
0
LINE
8
BLACK
6
CONTINUOUS
10
6.04987
20
-3.68753
11
6.04603
21
-3.68948
0
LINE
8
BLACK
6
CONTINUOUS
10
6.04603
20
-3.68948
11
6.04177
21
-3.69016
0
LINE
8
BLACK
6
CONTINUOUS
10
6.04177
20
-3.69016
11
6.03751
21
-3.68948
0
LINE
8
BLACK
6
CONTINUOUS
10
6.03751
20
-3.68948
11
6.03367
21
-3.68753
0
LINE
8
BLACK
6
CONTINUOUS
10
6.03367
20
-3.68753
11
6.03062
21
-3.68448
0
LINE
8
BLACK
6
CONTINUOUS
10
6.03062
20
-3.68448
11
6.02996
21
-3.68318
0
LINE
8
BLACK
6
CONTINUOUS
10
6.02996
20
-3.68318
11
6.0293
21
-3.68448
0
LINE
8
BLACK
6
CONTINUOUS
10
6.0293
20
-3.68448
11
6.02625
21
-3.68753
0
LINE
8
BLACK
6
CONTINUOUS
10
6.02625
20
-3.68753
11
6.02241
21
-3.68948
0
LINE
8
BLACK
6
CONTINUOUS
10
6.02241
20
-3.68948
11
6.01815
21
-3.69016
0
LINE
8
BLACK
6
CONTINUOUS
10
6.01815
20
-3.69016
11
6.01389
21
-3.68948
0
LINE
8
BLACK
6
CONTINUOUS
10
6.01389
20
-3.68948
11
6.01005
21
-3.68753
0
LINE
8
BLACK
6
CONTINUOUS
10
6.01005
20
-3.68753
11
6.007
21
-3.68448
0
LINE
8
BLACK
6
CONTINUOUS
10
6.007
20
-3.68448
11
6.00504
21
-3.68064
0
LINE
8
BLACK
6
CONTINUOUS
10
6.00504
20
-3.68064
11
6.00437
21
-3.67638
0
LINE
8
BLACK
6
CONTINUOUS
10
6.00437
20
-3.67638
11
6.00504
21
-3.67212
0
LINE
8
BLACK
6
CONTINUOUS
10
6.00504
20
-3.67212
11
6.007
21
-3.66828
0
LINE
8
BLACK
6
CONTINUOUS
10
6.007
20
-3.66828
11
6.01005
21
-3.66523
0
LINE
8
BLACK
6
CONTINUOUS
10
6.01005
20
-3.66523
11
6.01389
21
-3.66327
0
LINE
8
BLACK
6
CONTINUOUS
10
6.01389
20
-3.66327
11
6.01815
21
-3.6626
0
LINE
8
BLACK
6
CONTINUOUS
10
6.01815
20
-3.6626
11
6.02241
21
-3.66327
0
LINE
8
BLACK
6
CONTINUOUS
10
6.02241
20
-3.66327
11
6.02625
21
-3.66523
0
LINE
8
BLACK
6
CONTINUOUS
10
6.02625
20
-3.66523
11
6.0293
21
-3.66828
0
LINE
8
BLACK
6
CONTINUOUS
10
6.0293
20
-3.66828
11
6.02996
21
-3.66958
0
LINE
8
BLACK
6
CONTINUOUS
10
6.02996
20
-3.66958
11
6.03062
21
-3.66828
0
LINE
8
BLACK
6
CONTINUOUS
10
6.03062
20
-3.66828
11
6.03367
21
-3.66523
0
LINE
8
BLACK
6
CONTINUOUS
10
6.03367
20
-3.66523
11
6.03751
21
-3.66327
0
LINE
8
BLACK
6
CONTINUOUS
10
6.03751
20
-3.66327
11
6.04177
21
-3.6626
0
LINE
8
BLACK
6
CONTINUOUS
10
6.04177
20
-3.6626
11
6.04603
21
-3.66327
0
LINE
8
BLACK
6
CONTINUOUS
10
6.04603
20
-3.66327
11
6.04987
21
-3.66523
0
LINE
8
BLACK
6
CONTINUOUS
10
6.04987
20
-3.66523
11
6.05292
21
-3.66828
0
LINE
8
BLACK
6
CONTINUOUS
10
6.05292
20
-3.66828
11
6.05358
21
-3.66958
0
LINE
8
BLACK
6
CONTINUOUS
10
6.05358
20
-3.66958
11
6.05425
21
-3.66828
0
LINE
8
BLACK
6
CONTINUOUS
10
6.05425
20
-3.66828
11
6.05729
21
-3.66523
0
LINE
8
BLACK
6
CONTINUOUS
10
6.05729
20
-3.66523
11
6.06114
21
-3.66327
0
LINE
8
BLACK
6
CONTINUOUS
10
6.06114
20
-3.66327
11
6.06539
21
-3.6626
0
LINE
8
BLACK
6
CONTINUOUS
10
6.06539
20
-3.6626
11
6.06965
21
-3.66327
0
LINE
8
BLACK
6
CONTINUOUS
10
5.04831
20
-3.44947
11
5.05087
21
-3.45118
0
LINE
8
BLACK
6
CONTINUOUS
10
5.05087
20
-3.45118
11
5.05257
21
-3.45373
0
LINE
8
BLACK
6
CONTINUOUS
10
5.05257
20
-3.45373
11
5.05317
21
-3.45675
0
LINE
8
BLACK
6
CONTINUOUS
10
5.05317
20
-3.45675
11
5.05317
21
-3.51675
0
LINE
8
BLACK
6
CONTINUOUS
10
5.05317
20
-3.51675
11
5.05257
21
-3.51976
0
LINE
8
BLACK
6
CONTINUOUS
10
5.05257
20
-3.51976
11
5.05087
21
-3.52232
0
LINE
8
BLACK
6
CONTINUOUS
10
5.05087
20
-3.52232
11
5.04831
21
-3.52402
0
LINE
8
BLACK
6
CONTINUOUS
10
5.04831
20
-3.52402
11
5.0453
21
-3.52462
0
LINE
8
BLACK
6
CONTINUOUS
10
5.0453
20
-3.52462
11
4.9853
21
-3.52462
0
LINE
8
BLACK
6
CONTINUOUS
10
4.9853
20
-3.52462
11
4.98229
21
-3.52402
0
LINE
8
BLACK
6
CONTINUOUS
10
4.98229
20
-3.52402
11
4.97973
21
-3.52232
0
LINE
8
BLACK
6
CONTINUOUS
10
4.97973
20
-3.52232
11
4.97802
21
-3.51976
0
LINE
8
BLACK
6
CONTINUOUS
10
4.97802
20
-3.51976
11
4.97743
21
-3.51675
0
LINE
8
BLACK
6
CONTINUOUS
10
4.97743
20
-3.51675
11
4.97743
21
-3.45675
0
LINE
8
BLACK
6
CONTINUOUS
10
4.97743
20
-3.45675
11
4.97802
21
-3.45373
0
LINE
8
BLACK
6
CONTINUOUS
10
4.97802
20
-3.45373
11
4.97973
21
-3.45118
0
LINE
8
BLACK
6
CONTINUOUS
10
4.97973
20
-3.45118
11
4.98229
21
-3.44947
0
LINE
8
BLACK
6
CONTINUOUS
10
4.98229
20
-3.44947
11
4.9853
21
-3.44887
0
LINE
8
BLACK
6
CONTINUOUS
10
4.9853
20
-3.44887
11
5.0453
21
-3.44887
0
LINE
8
BLACK
6
CONTINUOUS
10
5.0453
20
-3.44887
11
5.04831
21
-3.44947
0
LINE
8
BLACK
6
CONTINUOUS
10
5.14831
20
-3.44947
11
5.15087
21
-3.45118
0
LINE
8
BLACK
6
CONTINUOUS
10
5.15087
20
-3.45118
11
5.15257
21
-3.45373
0
LINE
8
BLACK
6
CONTINUOUS
10
5.15257
20
-3.45373
11
5.15317
21
-3.45675
0
LINE
8
BLACK
6
CONTINUOUS
10
5.15317
20
-3.45675
11
5.15317
21
-3.51675
0
LINE
8
BLACK
6
CONTINUOUS
10
5.15317
20
-3.51675
11
5.15257
21
-3.51976
0
LINE
8
BLACK
6
CONTINUOUS
10
5.15257
20
-3.51976
11
5.15087
21
-3.52232
0
LINE
8
BLACK
6
CONTINUOUS
10
5.15087
20
-3.52232
11
5.14831
21
-3.52402
0
LINE
8
BLACK
6
CONTINUOUS
10
5.14831
20
-3.52402
11
5.1453
21
-3.52462
0
LINE
8
BLACK
6
CONTINUOUS
10
5.1453
20
-3.52462
11
5.0853
21
-3.52462
0
LINE
8
BLACK
6
CONTINUOUS
10
5.0853
20
-3.52462
11
5.08229
21
-3.52402
0
LINE
8
BLACK
6
CONTINUOUS
10
5.08229
20
-3.52402
11
5.07973
21
-3.52232
0
LINE
8
BLACK
6
CONTINUOUS
10
5.07973
20
-3.52232
11
5.07802
21
-3.51976
0
LINE
8
BLACK
6
CONTINUOUS
10
5.07802
20
-3.51976
11
5.07743
21
-3.51675
0
LINE
8
BLACK
6
CONTINUOUS
10
5.07743
20
-3.51675
11
5.07743
21
-3.45675
0
LINE
8
BLACK
6
CONTINUOUS
10
5.07743
20
-3.45675
11
5.07802
21
-3.45373
0
LINE
8
BLACK
6
CONTINUOUS
10
5.07802
20
-3.45373
11
5.07973
21
-3.45118
0
LINE
8
BLACK
6
CONTINUOUS
10
5.07973
20
-3.45118
11
5.08229
21
-3.44947
0
LINE
8
BLACK
6
CONTINUOUS
10
5.08229
20
-3.44947
11
5.0853
21
-3.44887
0
LINE
8
BLACK
6
CONTINUOUS
10
5.0853
20
-3.44887
11
5.1453
21
-3.44887
0
LINE
8
BLACK
6
CONTINUOUS
10
5.1453
20
-3.44887
11
5.14831
21
-3.44947
0
LINE
8
BLACK
6
CONTINUOUS
10
5.04831
20
-3.34947
11
5.05087
21
-3.35118
0
LINE
8
BLACK
6
CONTINUOUS
10
5.05087
20
-3.35118
11
5.05257
21
-3.35373
0
LINE
8
BLACK
6
CONTINUOUS
10
5.05257
20
-3.35373
11
5.05317
21
-3.35675
0
LINE
8
BLACK
6
CONTINUOUS
10
5.05317
20
-3.35675
11
5.05317
21
-3.41675
0
LINE
8
BLACK
6
CONTINUOUS
10
5.05317
20
-3.41675
11
5.05257
21
-3.41976
0
LINE
8
BLACK
6
CONTINUOUS
10
5.05257
20
-3.41976
11
5.05087
21
-3.42232
0
LINE
8
BLACK
6
CONTINUOUS
10
5.05087
20
-3.42232
11
5.04831
21
-3.42402
0
LINE
8
BLACK
6
CONTINUOUS
10
5.04831
20
-3.42402
11
5.0453
21
-3.42462
0
LINE
8
BLACK
6
CONTINUOUS
10
5.0453
20
-3.42462
11
4.9853
21
-3.42462
0
LINE
8
BLACK
6
CONTINUOUS
10
4.9853
20
-3.42462
11
4.98229
21
-3.42402
0
LINE
8
BLACK
6
CONTINUOUS
10
4.98229
20
-3.42402
11
4.97973
21
-3.42232
0
LINE
8
BLACK
6
CONTINUOUS
10
4.97973
20
-3.42232
11
4.97802
21
-3.41976
0
LINE
8
BLACK
6
CONTINUOUS
10
4.97802
20
-3.41976
11
4.97743
21
-3.41675
0
LINE
8
BLACK
6
CONTINUOUS
10
4.97743
20
-3.41675
11
4.97743
21
-3.35675
0
LINE
8
BLACK
6
CONTINUOUS
10
4.97743
20
-3.35675
11
4.97802
21
-3.35373
0
LINE
8
BLACK
6
CONTINUOUS
10
4.97802
20
-3.35373
11
4.97973
21
-3.35118
0
LINE
8
BLACK
6
CONTINUOUS
10
4.97973
20
-3.35118
11
4.98229
21
-3.34947
0
LINE
8
BLACK
6
CONTINUOUS
10
4.98229
20
-3.34947
11
4.9853
21
-3.34887
0
LINE
8
BLACK
6
CONTINUOUS
10
4.9853
20
-3.34887
11
5.0453
21
-3.34887
0
LINE
8
BLACK
6
CONTINUOUS
10
5.0453
20
-3.34887
11
5.04831
21
-3.34947
0
LINE
8
BLACK
6
CONTINUOUS
10
5.14831
20
-3.34947
11
5.15087
21
-3.35118
0
LINE
8
BLACK
6
CONTINUOUS
10
5.15087
20
-3.35118
11
5.15257
21
-3.35373
0
LINE
8
BLACK
6
CONTINUOUS
10
5.15257
20
-3.35373
11
5.15317
21
-3.35675
0
LINE
8
BLACK
6
CONTINUOUS
10
5.15317
20
-3.35675
11
5.15317
21
-3.41675
0
LINE
8
BLACK
6
CONTINUOUS
10
5.15317
20
-3.41675
11
5.15257
21
-3.41976
0
LINE
8
BLACK
6
CONTINUOUS
10
5.15257
20
-3.41976
11
5.15087
21
-3.42232
0
LINE
8
BLACK
6
CONTINUOUS
10
5.15087
20
-3.42232
11
5.14831
21
-3.42402
0
LINE
8
BLACK
6
CONTINUOUS
10
5.14831
20
-3.42402
11
5.1453
21
-3.42462
0
LINE
8
BLACK
6
CONTINUOUS
10
5.1453
20
-3.42462
11
5.0853
21
-3.42462
0
LINE
8
BLACK
6
CONTINUOUS
10
5.0853
20
-3.42462
11
5.08229
21
-3.42402
0
LINE
8
BLACK
6
CONTINUOUS
10
5.08229
20
-3.42402
11
5.07973
21
-3.42232
0
LINE
8
BLACK
6
CONTINUOUS
10
5.07973
20
-3.42232
11
5.07802
21
-3.41976
0
LINE
8
BLACK
6
CONTINUOUS
10
5.07802
20
-3.41976
11
5.07743
21
-3.41675
0
LINE
8
BLACK
6
CONTINUOUS
10
5.07743
20
-3.41675
11
5.07743
21
-3.35675
0
LINE
8
BLACK
6
CONTINUOUS
10
5.07743
20
-3.35675
11
5.07802
21
-3.35373
0
LINE
8
BLACK
6
CONTINUOUS
10
5.07802
20
-3.35373
11
5.07973
21
-3.35118
0
LINE
8
BLACK
6
CONTINUOUS
10
5.07973
20
-3.35118
11
5.08229
21
-3.34947
0
LINE
8
BLACK
6
CONTINUOUS
10
5.08229
20
-3.34947
11
5.0853
21
-3.34887
0
LINE
8
BLACK
6
CONTINUOUS
10
5.0853
20
-3.34887
11
5.1453
21
-3.34887
0
LINE
8
BLACK
6
CONTINUOUS
10
5.1453
20
-3.34887
11
5.14831
21
-3.34947
0
LINE
8
BLACK
6
CONTINUOUS
10
5.04831
20
-3.24947
11
5.05087
21
-3.25118
0
LINE
8
BLACK
6
CONTINUOUS
10
5.05087
20
-3.25118
11
5.05257
21
-3.25373
0
LINE
8
BLACK
6
CONTINUOUS
10
5.05257
20
-3.25373
11
5.05317
21
-3.25675
0
LINE
8
BLACK
6
CONTINUOUS
10
5.05317
20
-3.25675
11
5.05317
21
-3.31675
0
LINE
8
BLACK
6
CONTINUOUS
10
5.05317
20
-3.31675
11
5.05257
21
-3.31976
0
LINE
8
BLACK
6
CONTINUOUS
10
5.05257
20
-3.31976
11
5.05087
21
-3.32232
0
LINE
8
BLACK
6
CONTINUOUS
10
5.05087
20
-3.32232
11
5.04831
21
-3.32402
0
LINE
8
BLACK
6
CONTINUOUS
10
5.04831
20
-3.32402
11
5.0453
21
-3.32462
0
LINE
8
BLACK
6
CONTINUOUS
10
5.0453
20
-3.32462
11
4.9853
21
-3.32462
0
LINE
8
BLACK
6
CONTINUOUS
10
4.9853
20
-3.32462
11
4.98229
21
-3.32402
0
LINE
8
BLACK
6
CONTINUOUS
10
4.98229
20
-3.32402
11
4.97973
21
-3.32232
0
LINE
8
BLACK
6
CONTINUOUS
10
4.97973
20
-3.32232
11
4.97802
21
-3.31976
0
LINE
8
BLACK
6
CONTINUOUS
10
4.97802
20
-3.31976
11
4.97743
21
-3.31675
0
LINE
8
BLACK
6
CONTINUOUS
10
4.97743
20
-3.31675
11
4.97743
21
-3.25675
0
LINE
8
BLACK
6
CONTINUOUS
10
4.97743
20
-3.25675
11
4.97802
21
-3.25373
0
LINE
8
BLACK
6
CONTINUOUS
10
4.97802
20
-3.25373
11
4.97973
21
-3.25118
0
LINE
8
BLACK
6
CONTINUOUS
10
4.97973
20
-3.25118
11
4.98229
21
-3.24947
0
LINE
8
BLACK
6
CONTINUOUS
10
4.98229
20
-3.24947
11
4.9853
21
-3.24887
0
LINE
8
BLACK
6
CONTINUOUS
10
4.9853
20
-3.24887
11
5.0453
21
-3.24887
0
LINE
8
BLACK
6
CONTINUOUS
10
5.0453
20
-3.24887
11
5.04831
21
-3.24947
0
LINE
8
BLACK
6
CONTINUOUS
10
5.14831
20
-3.24947
11
5.15087
21
-3.25118
0
LINE
8
BLACK
6
CONTINUOUS
10
5.15087
20
-3.25118
11
5.15257
21
-3.25373
0
LINE
8
BLACK
6
CONTINUOUS
10
5.15257
20
-3.25373
11
5.15317
21
-3.25675
0
LINE
8
BLACK
6
CONTINUOUS
10
5.15317
20
-3.25675
11
5.15317
21
-3.31675
0
LINE
8
BLACK
6
CONTINUOUS
10
5.15317
20
-3.31675
11
5.15257
21
-3.31976
0
LINE
8
BLACK
6
CONTINUOUS
10
5.15257
20
-3.31976
11
5.15087
21
-3.32232
0
LINE
8
BLACK
6
CONTINUOUS
10
5.15087
20
-3.32232
11
5.14831
21
-3.32402
0
LINE
8
BLACK
6
CONTINUOUS
10
5.14831
20
-3.32402
11
5.1453
21
-3.32462
0
LINE
8
BLACK
6
CONTINUOUS
10
5.1453
20
-3.32462
11
5.0853
21
-3.32462
0
LINE
8
BLACK
6
CONTINUOUS
10
5.0853
20
-3.32462
11
5.08229
21
-3.32402
0
LINE
8
BLACK
6
CONTINUOUS
10
5.08229
20
-3.32402
11
5.07973
21
-3.32232
0
LINE
8
BLACK
6
CONTINUOUS
10
5.07973
20
-3.32232
11
5.07802
21
-3.31976
0
LINE
8
BLACK
6
CONTINUOUS
10
5.07802
20
-3.31976
11
5.07743
21
-3.31675
0
LINE
8
BLACK
6
CONTINUOUS
10
5.07743
20
-3.31675
11
5.07743
21
-3.25675
0
LINE
8
BLACK
6
CONTINUOUS
10
5.07743
20
-3.25675
11
5.07802
21
-3.25373
0
LINE
8
BLACK
6
CONTINUOUS
10
5.07802
20
-3.25373
11
5.07973
21
-3.25118
0
LINE
8
BLACK
6
CONTINUOUS
10
5.07973
20
-3.25118
11
5.08229
21
-3.24947
0
LINE
8
BLACK
6
CONTINUOUS
10
5.08229
20
-3.24947
11
5.0853
21
-3.24887
0
LINE
8
BLACK
6
CONTINUOUS
10
5.0853
20
-3.24887
11
5.1453
21
-3.24887
0
LINE
8
BLACK
6
CONTINUOUS
10
5.1453
20
-3.24887
11
5.14831
21
-3.24947
0
LINE
8
BLACK
6
CONTINUOUS
10
5.83902
20
-2.8924
11
5.84825
21
-2.89556
0
LINE
8
BLACK
6
CONTINUOUS
10
5.84825
20
-2.89556
11
5.85683
21
-2.90021
0
LINE
8
BLACK
6
CONTINUOUS
10
5.85683
20
-2.90021
11
5.86452
21
-2.9062
0
LINE
8
BLACK
6
CONTINUOUS
10
5.86452
20
-2.9062
11
5.87113
21
-2.91337
0
LINE
8
BLACK
6
CONTINUOUS
10
5.87113
20
-2.91337
11
5.87646
21
-2.92154
0
LINE
8
BLACK
6
CONTINUOUS
10
5.87646
20
-2.92154
11
5.88038
21
-2.93047
0
LINE
8
BLACK
6
CONTINUOUS
10
5.88038
20
-2.93047
11
5.88278
21
-2.93993
0
LINE
8
BLACK
6
CONTINUOUS
10
5.88278
20
-2.93993
11
5.88358
21
-2.94965
0
LINE
8
BLACK
6
CONTINUOUS
10
5.88358
20
-2.94965
11
5.88349
21
-2.95075
0
LINE
8
BLACK
6
CONTINUOUS
10
5.88349
20
-2.95075
11
6.15926
21
-2.95075
0
LINE
8
BLACK
6
CONTINUOUS
10
6.15926
20
-2.95075
11
6.15917
21
-2.94965
0
LINE
8
BLACK
6
CONTINUOUS
10
6.15917
20
-2.94965
11
6.15998
21
-2.93993
0
LINE
8
BLACK
6
CONTINUOUS
10
6.15998
20
-2.93993
11
6.16237
21
-2.93047
0
LINE
8
BLACK
6
CONTINUOUS
10
6.16237
20
-2.93047
11
6.16629
21
-2.92154
0
LINE
8
BLACK
6
CONTINUOUS
10
6.16629
20
-2.92154
11
6.17163
21
-2.91337
0
LINE
8
BLACK
6
CONTINUOUS
10
6.17163
20
-2.91337
11
6.17823
21
-2.9062
0
LINE
8
BLACK
6
CONTINUOUS
10
6.17823
20
-2.9062
11
6.18593
21
-2.90021
0
LINE
8
BLACK
6
CONTINUOUS
10
6.18593
20
-2.90021
11
6.19451
21
-2.89556
0
LINE
8
BLACK
6
CONTINUOUS
10
6.19451
20
-2.89556
11
6.20373
21
-2.8924
0
LINE
8
BLACK
6
CONTINUOUS
10
6.20373
20
-2.8924
11
6.21335
21
-2.89079
0
LINE
8
BLACK
6
CONTINUOUS
10
6.21335
20
-2.89079
11
6.22311
21
-2.89079
0
LINE
8
BLACK
6
CONTINUOUS
10
6.22311
20
-2.89079
11
6.23273
21
-2.8924
0
LINE
8
BLACK
6
CONTINUOUS
10
6.23273
20
-2.8924
11
6.24195
21
-2.89556
0
LINE
8
BLACK
6
CONTINUOUS
10
6.24195
20
-2.89556
11
6.25053
21
-2.90021
0
LINE
8
BLACK
6
CONTINUOUS
10
6.25053
20
-2.90021
11
6.25823
21
-2.9062
0
LINE
8
BLACK
6
CONTINUOUS
10
6.25823
20
-2.9062
11
6.26483
21
-2.91337
0
LINE
8
BLACK
6
CONTINUOUS
10
6.26483
20
-2.91337
11
6.27017
21
-2.92154
0
LINE
8
BLACK
6
CONTINUOUS
10
6.27017
20
-2.92154
11
6.27408
21
-2.93047
0
LINE
8
BLACK
6
CONTINUOUS
10
6.27408
20
-2.93047
11
6.27648
21
-2.93993
0
LINE
8
BLACK
6
CONTINUOUS
10
6.27648
20
-2.93993
11
6.27728
21
-2.94965
0
LINE
8
BLACK
6
CONTINUOUS
10
6.27728
20
-2.94965
11
6.27719
21
-2.95075
0
LINE
8
BLACK
6
CONTINUOUS
10
6.27719
20
-2.95075
11
6.55297
21
-2.95075
0
LINE
8
BLACK
6
CONTINUOUS
10
6.55297
20
-2.95075
11
6.55287
21
-2.94965
0
LINE
8
BLACK
6
CONTINUOUS
10
6.55287
20
-2.94965
11
6.55368
21
-2.93993
0
LINE
8
BLACK
6
CONTINUOUS
10
6.55368
20
-2.93993
11
6.55607
21
-2.93047
0
LINE
8
BLACK
6
CONTINUOUS
10
6.55607
20
-2.93047
11
6.55999
21
-2.92154
0
LINE
8
BLACK
6
CONTINUOUS
10
6.55999
20
-2.92154
11
6.56533
21
-2.91337
0
LINE
8
BLACK
6
CONTINUOUS
10
6.56533
20
-2.91337
11
6.57193
21
-2.9062
0
LINE
8
BLACK
6
CONTINUOUS
10
6.57193
20
-2.9062
11
6.57963
21
-2.90021
0
LINE
8
BLACK
6
CONTINUOUS
10
6.57963
20
-2.90021
11
6.58821
21
-2.89556
0
LINE
8
BLACK
6
CONTINUOUS
10
6.58821
20
-2.89556
11
6.59743
21
-2.8924
0
LINE
8
BLACK
6
CONTINUOUS
10
6.59743
20
-2.8924
11
6.60705
21
-2.89079
0
LINE
8
BLACK
6
CONTINUOUS
10
6.60705
20
-2.89079
11
6.61681
21
-2.89079
0
LINE
8
BLACK
6
CONTINUOUS
10
6.61681
20
-2.89079
11
6.62643
21
-2.8924
0
LINE
8
BLACK
6
CONTINUOUS
10
6.62643
20
-2.8924
11
6.63565
21
-2.89556
0
LINE
8
BLACK
6
CONTINUOUS
10
6.63565
20
-2.89556
11
6.64423
21
-2.90021
0
LINE
8
BLACK
6
CONTINUOUS
10
6.64423
20
-2.90021
11
6.65193
21
-2.9062
0
LINE
8
BLACK
6
CONTINUOUS
10
6.65193
20
-2.9062
11
6.65853
21
-2.91337
0
LINE
8
BLACK
6
CONTINUOUS
10
6.65853
20
-2.91337
11
6.66387
21
-2.92154
0
LINE
8
BLACK
6
CONTINUOUS
10
6.66387
20
-2.92154
11
6.66778
21
-2.93047
0
LINE
8
BLACK
6
CONTINUOUS
10
6.66778
20
-2.93047
11
6.67018
21
-2.93993
0
LINE
8
BLACK
6
CONTINUOUS
10
6.67018
20
-2.93993
11
6.67098
21
-2.94965
0
LINE
8
BLACK
6
CONTINUOUS
10
6.67098
20
-2.94965
11
6.67089
21
-2.95075
0
LINE
8
BLACK
6
CONTINUOUS
10
6.67089
20
-2.95075
11
6.90131
21
-2.95075
0
LINE
8
BLACK
6
CONTINUOUS
10
6.90131
20
-2.95075
11
6.90399
21
-2.95154
0
LINE
8
BLACK
6
CONTINUOUS
10
6.90399
20
-2.95154
11
6.90582
21
-2.95365
0
LINE
8
BLACK
6
CONTINUOUS
10
6.90582
20
-2.95365
11
6.90627
21
-2.95574
0
LINE
8
BLACK
6
CONTINUOUS
10
6.90627
20
-2.95574
11
6.90542
21
-3.10082
0
LINE
8
BLACK
6
CONTINUOUS
10
6.90542
20
-3.10082
11
6.90462
21
-3.10349
0
LINE
8
BLACK
6
CONTINUOUS
10
6.90462
20
-3.10349
11
6.9025
21
-3.10531
0
LINE
8
BLACK
6
CONTINUOUS
10
6.9025
20
-3.10531
11
6.90046
21
-3.10575
0
LINE
8
BLACK
6
CONTINUOUS
10
6.90046
20
-3.10575
11
5.76035
21
-3.10575
0
LINE
8
BLACK
6
CONTINUOUS
10
5.76035
20
-3.10575
11
5.75767
21
-3.10496
0
LINE
8
BLACK
6
CONTINUOUS
10
5.75767
20
-3.10496
11
5.75584
21
-3.10285
0
LINE
8
BLACK
6
CONTINUOUS
10
5.75584
20
-3.10285
11
5.75539
21
-3.10079
0
LINE
8
BLACK
6
CONTINUOUS
10
5.75539
20
-3.10079
11
5.75539
21
-2.95571
0
LINE
8
BLACK
6
CONTINUOUS
10
5.75539
20
-2.95571
11
5.75618
21
-2.95303
0
LINE
8
BLACK
6
CONTINUOUS
10
5.75618
20
-2.95303
11
5.75829
21
-2.9512
0
LINE
8
BLACK
6
CONTINUOUS
10
5.75829
20
-2.9512
11
5.76035
21
-2.95075
0
LINE
8
BLACK
6
CONTINUOUS
10
5.76035
20
-2.95075
11
5.76556
21
-2.95075
0
LINE
8
BLACK
6
CONTINUOUS
10
5.76556
20
-2.95075
11
5.76547
21
-2.94965
0
LINE
8
BLACK
6
CONTINUOUS
10
5.76547
20
-2.94965
11
5.76628
21
-2.93993
0
LINE
8
BLACK
6
CONTINUOUS
10
5.76628
20
-2.93993
11
5.76867
21
-2.93047
0
LINE
8
BLACK
6
CONTINUOUS
10
5.76867
20
-2.93047
11
5.77259
21
-2.92154
0
LINE
8
BLACK
6
CONTINUOUS
10
5.77259
20
-2.92154
11
5.77792
21
-2.91337
0
LINE
8
BLACK
6
CONTINUOUS
10
5.77792
20
-2.91337
11
5.78453
21
-2.9062
0
LINE
8
BLACK
6
CONTINUOUS
10
5.78453
20
-2.9062
11
5.79223
21
-2.90021
0
LINE
8
BLACK
6
CONTINUOUS
10
5.79223
20
-2.90021
11
5.80081
21
-2.89556
0
LINE
8
BLACK
6
CONTINUOUS
10
5.80081
20
-2.89556
11
5.81003
21
-2.8924
0
LINE
8
BLACK
6
CONTINUOUS
10
5.81003
20
-2.8924
11
5.81965
21
-2.89079
0
LINE
8
BLACK
6
CONTINUOUS
10
5.81965
20
-2.89079
11
5.8294
21
-2.89079
0
LINE
8
BLACK
6
CONTINUOUS
10
5.8294
20
-2.89079
11
5.83902
21
-2.8924
0
LINE
8
BLACK
6
CONTINUOUS
10
5.05162
20
-2.8924
11
5.06085
21
-2.89556
0
LINE
8
BLACK
6
CONTINUOUS
10
5.06085
20
-2.89556
11
5.06943
21
-2.90021
0
LINE
8
BLACK
6
CONTINUOUS
10
5.06943
20
-2.90021
11
5.07712
21
-2.9062
0
LINE
8
BLACK
6
CONTINUOUS
10
5.07712
20
-2.9062
11
5.08373
21
-2.91337
0
LINE
8
BLACK
6
CONTINUOUS
10
5.08373
20
-2.91337
11
5.08906
21
-2.92154
0
LINE
8
BLACK
6
CONTINUOUS
10
5.08906
20
-2.92154
11
5.09298
21
-2.93047
0
LINE
8
BLACK
6
CONTINUOUS
10
5.09298
20
-2.93047
11
5.09538
21
-2.93993
0
LINE
8
BLACK
6
CONTINUOUS
10
5.09538
20
-2.93993
11
5.09618
21
-2.94965
0
LINE
8
BLACK
6
CONTINUOUS
10
5.09618
20
-2.94965
11
5.09538
21
-2.95937
0
LINE
8
BLACK
6
CONTINUOUS
10
5.09538
20
-2.95937
11
5.09298
21
-2.96882
0
LINE
8
BLACK
6
CONTINUOUS
10
5.09298
20
-2.96882
11
5.08906
21
-2.97775
0
LINE
8
BLACK
6
CONTINUOUS
10
5.08906
20
-2.97775
11
5.08373
21
-2.98592
0
LINE
8
BLACK
6
CONTINUOUS
10
5.08373
20
-2.98592
11
5.07712
21
-2.99309
0
LINE
8
BLACK
6
CONTINUOUS
10
5.07712
20
-2.99309
11
5.06943
21
-2.99908
0
LINE
8
BLACK
6
CONTINUOUS
10
5.06943
20
-2.99908
11
5.06085
21
-3.00373
0
LINE
8
BLACK
6
CONTINUOUS
10
5.06085
20
-3.00373
11
5.05162
21
-3.00689
0
LINE
8
BLACK
6
CONTINUOUS
10
5.05162
20
-3.00689
11
5.042
21
-3.0085
0
LINE
8
BLACK
6
CONTINUOUS
10
5.042
20
-3.0085
11
5.03225
21
-3.0085
0
LINE
8
BLACK
6
CONTINUOUS
10
5.03225
20
-3.0085
11
5.02263
21
-3.00689
0
LINE
8
BLACK
6
CONTINUOUS
10
5.02263
20
-3.00689
11
5.0134
21
-3.00373
0
LINE
8
BLACK
6
CONTINUOUS
10
5.0134
20
-3.00373
11
5.00483
21
-2.99908
0
LINE
8
BLACK
6
CONTINUOUS
10
5.00483
20
-2.99908
11
4.99713
21
-2.99309
0
LINE
8
BLACK
6
CONTINUOUS
10
4.99713
20
-2.99309
11
4.99052
21
-2.98592
0
LINE
8
BLACK
6
CONTINUOUS
10
4.99052
20
-2.98592
11
4.98519
21
-2.97775
0
LINE
8
BLACK
6
CONTINUOUS
10
4.98519
20
-2.97775
11
4.98127
21
-2.96882
0
LINE
8
BLACK
6
CONTINUOUS
10
4.98127
20
-2.96882
11
4.97888
21
-2.95937
0
LINE
8
BLACK
6
CONTINUOUS
10
4.97888
20
-2.95937
11
4.97807
21
-2.94965
0
LINE
8
BLACK
6
CONTINUOUS
10
4.97807
20
-2.94965
11
4.97888
21
-2.93993
0
LINE
8
BLACK
6
CONTINUOUS
10
4.97888
20
-2.93993
11
4.98127
21
-2.93047
0
LINE
8
BLACK
6
CONTINUOUS
10
4.98127
20
-2.93047
11
4.98519
21
-2.92154
0
LINE
8
BLACK
6
CONTINUOUS
10
4.98519
20
-2.92154
11
4.99052
21
-2.91337
0
LINE
8
BLACK
6
CONTINUOUS
10
4.99052
20
-2.91337
11
4.99713
21
-2.9062
0
LINE
8
BLACK
6
CONTINUOUS
10
4.99713
20
-2.9062
11
5.00483
21
-2.90021
0
LINE
8
BLACK
6
CONTINUOUS
10
5.00483
20
-2.90021
11
5.0134
21
-2.89556
0
LINE
8
BLACK
6
CONTINUOUS
10
5.0134
20
-2.89556
11
5.02263
21
-2.8924
0
LINE
8
BLACK
6
CONTINUOUS
10
5.02263
20
-2.8924
11
5.03225
21
-2.89079
0
LINE
8
BLACK
6
CONTINUOUS
10
5.03225
20
-2.89079
11
5.042
21
-2.89079
0
LINE
8
BLACK
6
CONTINUOUS
10
5.042
20
-2.89079
11
5.05162
21
-2.8924
0
LINE
8
BLACK
6
CONTINUOUS
10
5.44532
20
-2.8924
11
5.45455
21
-2.89556
0
LINE
8
BLACK
6
CONTINUOUS
10
5.45455
20
-2.89556
11
5.46313
21
-2.90021
0
LINE
8
BLACK
6
CONTINUOUS
10
5.46313
20
-2.90021
11
5.47082
21
-2.9062
0
LINE
8
BLACK
6
CONTINUOUS
10
5.47082
20
-2.9062
11
5.47743
21
-2.91337
0
LINE
8
BLACK
6
CONTINUOUS
10
5.47743
20
-2.91337
11
5.48276
21
-2.92154
0
LINE
8
BLACK
6
CONTINUOUS
10
5.48276
20
-2.92154
11
5.48668
21
-2.93047
0
LINE
8
BLACK
6
CONTINUOUS
10
5.48668
20
-2.93047
11
5.48908
21
-2.93993
0
LINE
8
BLACK
6
CONTINUOUS
10
5.48908
20
-2.93993
11
5.48988
21
-2.94965
0
LINE
8
BLACK
6
CONTINUOUS
10
5.48988
20
-2.94965
11
5.48908
21
-2.95937
0
LINE
8
BLACK
6
CONTINUOUS
10
5.48908
20
-2.95937
11
5.48668
21
-2.96882
0
LINE
8
BLACK
6
CONTINUOUS
10
5.48668
20
-2.96882
11
5.48276
21
-2.97775
0
LINE
8
BLACK
6
CONTINUOUS
10
5.48276
20
-2.97775
11
5.47743
21
-2.98592
0
LINE
8
BLACK
6
CONTINUOUS
10
5.47743
20
-2.98592
11
5.47082
21
-2.99309
0
LINE
8
BLACK
6
CONTINUOUS
10
5.47082
20
-2.99309
11
5.46313
21
-2.99908
0
LINE
8
BLACK
6
CONTINUOUS
10
5.46313
20
-2.99908
11
5.45455
21
-3.00373
0
LINE
8
BLACK
6
CONTINUOUS
10
5.45455
20
-3.00373
11
5.44532
21
-3.00689
0
LINE
8
BLACK
6
CONTINUOUS
10
5.44532
20
-3.00689
11
5.4357
21
-3.0085
0
LINE
8
BLACK
6
CONTINUOUS
10
5.4357
20
-3.0085
11
5.42595
21
-3.0085
0
LINE
8
BLACK
6
CONTINUOUS
10
5.42595
20
-3.0085
11
5.41633
21
-3.00689
0
LINE
8
BLACK
6
CONTINUOUS
10
5.41633
20
-3.00689
11
5.4071
21
-3.00373
0
LINE
8
BLACK
6
CONTINUOUS
10
5.4071
20
-3.00373
11
5.39853
21
-2.99908
0
LINE
8
BLACK
6
CONTINUOUS
10
5.39853
20
-2.99908
11
5.39083
21
-2.99309
0
LINE
8
BLACK
6
CONTINUOUS
10
5.39083
20
-2.99309
11
5.38422
21
-2.98592
0
LINE
8
BLACK
6
CONTINUOUS
10
5.38422
20
-2.98592
11
5.37889
21
-2.97775
0
LINE
8
BLACK
6
CONTINUOUS
10
5.37889
20
-2.97775
11
5.37497
21
-2.96882
0
LINE
8
BLACK
6
CONTINUOUS
10
5.37497
20
-2.96882
11
5.37258
21
-2.95937
0
LINE
8
BLACK
6
CONTINUOUS
10
5.37258
20
-2.95937
11
5.37177
21
-2.94965
0
LINE
8
BLACK
6
CONTINUOUS
10
5.37177
20
-2.94965
11
5.37258
21
-2.93993
0
LINE
8
BLACK
6
CONTINUOUS
10
5.37258
20
-2.93993
11
5.37497
21
-2.93047
0
LINE
8
BLACK
6
CONTINUOUS
10
5.37497
20
-2.93047
11
5.37889
21
-2.92154
0
LINE
8
BLACK
6
CONTINUOUS
10
5.37889
20
-2.92154
11
5.38422
21
-2.91337
0
LINE
8
BLACK
6
CONTINUOUS
10
5.38422
20
-2.91337
11
5.39083
21
-2.9062
0
LINE
8
BLACK
6
CONTINUOUS
10
5.39083
20
-2.9062
11
5.39853
21
-2.90021
0
LINE
8
BLACK
6
CONTINUOUS
10
5.39853
20
-2.90021
11
5.4071
21
-2.89556
0
LINE
8
BLACK
6
CONTINUOUS
10
5.4071
20
-2.89556
11
5.41633
21
-2.8924
0
LINE
8
BLACK
6
CONTINUOUS
10
5.41633
20
-2.8924
11
5.42595
21
-2.89079
0
LINE
8
BLACK
6
CONTINUOUS
10
5.42595
20
-2.89079
11
5.4357
21
-2.89079
0
LINE
8
BLACK
6
CONTINUOUS
10
5.4357
20
-2.89079
11
5.44532
21
-2.8924
  0
ENDSEC
  0
EOF
