  0
SECTION
  2
HEADER
  9
$ANGBASE
  50
0.0
  9
$ANGDIR
  70
1
  9
$MEASUREMENT
  70
0
  0
ENDSEC
  0
SECTION
  2
TABLES
  0
TABLE
  2
LTYPE
  70
4
  0
LTYPE
  5
40F
  2
CONTINUOUS
  70
0
  3
Solid line
  72
65
  73
0
  40
0.0
  0
LTYPE
  5
410
  2
DASHDOT
 70
0
  3
Dash Dot ____ _ ____ _
 72
65
 73
4
 40
2.0
 49
1.25
 49
-0.25
 49
0.25
 49
-0.25
  0
LTYPE
  5
411
  2
DASHED
 70
0
  3
Dashed __ __ __ __ __
 72
65
 73
2
 40
0.75
 49
0.5
 49
-0.25
  0
LTYPE
  5
43B
  2
DOTTED
 70
0
  3
Dotted .  .  .  .
 72
65
 73
2
 40
0.2
 49
0.0
 49
-0.2
  0
ENDTAB
  0
TABLE
  2
STYLE
  70
4
  0
STYLE
  2
KICAD
  70
0
  40
0
  41
1
  42
1
  50
0
  71
0
  3
isocp.shx
  0
STYLE
  2
KICADB
  70
0
  40
0
  41
1
  42
1
  50
0
  71
0
  3
isocp.shx
  0
STYLE
  2
KICADI
  70
0
  40
0
  41
1
  42
1
  50
15
  71
0
  3
isocp.shx
  0
STYLE
  2
KICADBI
  70
0
  40
0
  41
1
  42
1
  50
15
  71
0
  3
isocp.shx
  0
ENDTAB
  0
TABLE
  2
LAYER
  70
1
  0
LAYER
  2
BLACK
  70
0
  62
7
  6
CONTINUOUS
  0
ENDTAB
  0
ENDSEC
  0
SECTION
  2
ENTITIES
0
LINE
8
BLACK
6
CONTINUOUS
10
2.45563
20
0.237827
11
2.45732
21
0.235276
0
LINE
8
BLACK
6
CONTINUOUS
10
2.45732
20
0.235276
11
2.4575
21
0.232224
0
LINE
8
BLACK
6
CONTINUOUS
10
2.4575
20
0.232224
11
2.45613
21
0.22949
0
LINE
8
BLACK
6
CONTINUOUS
10
2.45613
20
0.22949
11
2.45358
21
0.227806
0
LINE
8
BLACK
6
CONTINUOUS
10
2.45358
20
0.227806
11
2.44075
21
0.223528
0
LINE
8
BLACK
6
CONTINUOUS
10
2.44075
20
0.223528
11
2.44075
21
0.203919
0
LINE
8
BLACK
6
CONTINUOUS
10
2.44075
20
0.203919
11
2.45358
21
0.199641
0
LINE
8
BLACK
6
CONTINUOUS
10
2.45358
20
0.199641
11
2.45613
21
0.197956
0
LINE
8
BLACK
6
CONTINUOUS
10
2.45613
20
0.197956
11
2.4575
21
0.195222
0
LINE
8
BLACK
6
CONTINUOUS
10
2.4575
20
0.195222
11
2.45732
21
0.192171
0
LINE
8
BLACK
6
CONTINUOUS
10
2.45732
20
0.192171
11
2.45563
21
0.18962
0
LINE
8
BLACK
6
CONTINUOUS
10
2.45563
20
0.18962
11
2.4529
21
0.188253
0
LINE
8
BLACK
6
CONTINUOUS
10
2.4529
20
0.188253
11
2.44985
21
0.188436
0
LINE
8
BLACK
6
CONTINUOUS
10
2.44985
20
0.188436
11
2.39079
21
0.208121
0
LINE
8
BLACK
6
CONTINUOUS
10
2.39079
20
0.208121
11
2.3898
21
0.208774
0
LINE
8
BLACK
6
CONTINUOUS
10
2.3898
20
0.208774
11
2.38874
21
0.209305
0
LINE
8
BLACK
6
CONTINUOUS
10
2.38874
20
0.209305
11
2.38854
21
0.209606
0
LINE
8
BLACK
6
CONTINUOUS
10
2.38854
20
0.209606
11
2.38824
21
0.209805
0
LINE
8
BLACK
6
CONTINUOUS
10
2.38824
20
0.209805
11
2.38771
21
0.210866
0
LINE
8
BLACK
6
CONTINUOUS
10
2.38771
20
0.210866
11
2.38706
21
0.211856
0
LINE
8
BLACK
6
CONTINUOUS
10
2.38706
20
0.211856
11
2.38704
21
0.212216
0
LINE
8
BLACK
6
CONTINUOUS
10
2.38704
20
0.212216
11
2.38687
21
0.212539
0
LINE
8
BLACK
6
CONTINUOUS
10
2.38687
20
0.212539
11
2.38695
21
0.213723
0
LINE
8
BLACK
6
CONTINUOUS
10
2.38695
20
0.213723
11
2.38687
21
0.214907
0
LINE
8
BLACK
6
CONTINUOUS
10
2.38687
20
0.214907
11
2.38704
21
0.21523
0
LINE
8
BLACK
6
CONTINUOUS
10
2.38704
20
0.21523
11
2.38706
21
0.215591
0
LINE
8
BLACK
6
CONTINUOUS
10
2.38706
20
0.215591
11
2.38771
21
0.21658
0
LINE
8
BLACK
6
CONTINUOUS
10
2.38771
20
0.21658
11
2.38824
21
0.217641
0
LINE
8
BLACK
6
CONTINUOUS
10
2.38824
20
0.217641
11
2.38854
21
0.21784
0
LINE
8
BLACK
6
CONTINUOUS
10
2.38854
20
0.21784
11
2.38874
21
0.218142
0
LINE
8
BLACK
6
CONTINUOUS
10
2.38874
20
0.218142
11
2.3898
21
0.218672
0
LINE
8
BLACK
6
CONTINUOUS
10
2.3898
20
0.218672
11
2.39079
21
0.219326
0
LINE
8
BLACK
6
CONTINUOUS
10
2.39079
20
0.219326
11
2.44985
21
0.239011
0
LINE
8
BLACK
6
CONTINUOUS
10
2.44985
20
0.239011
11
2.4529
21
0.239194
0
LINE
8
BLACK
6
CONTINUOUS
10
2.4529
20
0.239194
11
2.45563
21
0.237827
0
LINE
8
BLACK
6
CONTINUOUS
10
2.41134
20
0.213723
11
2.42894
21
0.207856
0
LINE
8
BLACK
6
CONTINUOUS
10
2.42894
20
0.207856
11
2.42894
21
0.219591
0
LINE
8
BLACK
6
CONTINUOUS
10
2.42894
20
0.219591
11
2.41134
21
0.213723
0
LINE
8
BLACK
6
CONTINUOUS
10
1.97092
20
0.282454
11
1.97308
21
0.280292
0
LINE
8
BLACK
6
CONTINUOUS
10
1.97308
20
0.280292
11
1.97388
21
0.27734
0
LINE
8
BLACK
6
CONTINUOUS
10
1.97388
20
0.27734
11
1.97388
21
0.257851
0
LINE
8
BLACK
6
CONTINUOUS
10
1.97388
20
0.257851
11
1.99754
21
0.281516
0
LINE
8
BLACK
6
CONTINUOUS
10
1.99754
20
0.281516
11
2.00019
21
0.283044
0
LINE
8
BLACK
6
CONTINUOUS
10
2.00019
20
0.283044
11
2.00324
21
0.283044
0
LINE
8
BLACK
6
CONTINUOUS
10
2.00324
20
0.283044
11
2.00589
21
0.281516
0
LINE
8
BLACK
6
CONTINUOUS
10
2.00589
20
0.281516
11
2.00742
21
0.278868
0
LINE
8
BLACK
6
CONTINUOUS
10
2.00742
20
0.278868
11
2.00742
21
0.275811
0
LINE
8
BLACK
6
CONTINUOUS
10
2.00742
20
0.275811
11
2.00589
21
0.273164
0
LINE
8
BLACK
6
CONTINUOUS
10
2.00589
20
0.273164
11
1.9842
21
0.251476
0
LINE
8
BLACK
6
CONTINUOUS
10
1.9842
20
0.251476
11
2.00644
21
0.221828
0
LINE
8
BLACK
6
CONTINUOUS
10
2.00644
20
0.221828
11
2.00758
21
0.218991
0
LINE
8
BLACK
6
CONTINUOUS
10
2.00758
20
0.218991
11
2.00715
21
0.215965
0
LINE
8
BLACK
6
CONTINUOUS
10
2.00715
20
0.215965
11
2.00526
21
0.21356
0
LINE
8
BLACK
6
CONTINUOUS
10
2.00526
20
0.21356
11
2.00242
21
0.212421
0
LINE
8
BLACK
6
CONTINUOUS
10
2.00242
20
0.212421
11
1.9994
21
0.212854
0
LINE
8
BLACK
6
CONTINUOUS
10
1.9994
20
0.212854
11
1.99699
21
0.214741
0
LINE
8
BLACK
6
CONTINUOUS
10
1.99699
20
0.214741
11
1.97577
21
0.24304
0
LINE
8
BLACK
6
CONTINUOUS
10
1.97577
20
0.24304
11
1.97388
21
0.241148
0
LINE
8
BLACK
6
CONTINUOUS
10
1.97388
20
0.241148
11
1.97388
21
0.218285
0
LINE
8
BLACK
6
CONTINUOUS
10
1.97388
20
0.218285
11
1.97308
21
0.215332
0
LINE
8
BLACK
6
CONTINUOUS
10
1.97308
20
0.215332
11
1.97092
21
0.21317
0
LINE
8
BLACK
6
CONTINUOUS
10
1.97092
20
0.21317
11
1.96797
21
0.212379
0
LINE
8
BLACK
6
CONTINUOUS
10
1.96797
20
0.212379
11
1.96502
21
0.21317
0
LINE
8
BLACK
6
CONTINUOUS
10
1.96502
20
0.21317
11
1.96286
21
0.215332
0
LINE
8
BLACK
6
CONTINUOUS
10
1.96286
20
0.215332
11
1.96206
21
0.218285
0
LINE
8
BLACK
6
CONTINUOUS
10
1.96206
20
0.218285
11
1.96206
21
0.27734
0
LINE
8
BLACK
6
CONTINUOUS
10
1.96206
20
0.27734
11
1.96286
21
0.280292
0
LINE
8
BLACK
6
CONTINUOUS
10
1.96286
20
0.280292
11
1.96502
21
0.282454
0
LINE
8
BLACK
6
CONTINUOUS
10
1.96502
20
0.282454
11
1.96797
21
0.283245
0
LINE
8
BLACK
6
CONTINUOUS
10
1.96797
20
0.283245
11
1.97092
21
0.282454
0
LINE
8
BLACK
6
CONTINUOUS
10
1.9428
20
0.282454
11
1.94496
21
0.280292
0
LINE
8
BLACK
6
CONTINUOUS
10
1.94496
20
0.280292
11
1.94575
21
0.27734
0
LINE
8
BLACK
6
CONTINUOUS
10
1.94575
20
0.27734
11
1.94575
21
0.218285
0
LINE
8
BLACK
6
CONTINUOUS
10
1.94575
20
0.218285
11
1.94496
21
0.215332
0
LINE
8
BLACK
6
CONTINUOUS
10
1.94496
20
0.215332
11
1.9428
21
0.21317
0
LINE
8
BLACK
6
CONTINUOUS
10
1.9428
20
0.21317
11
1.93985
21
0.212379
0
LINE
8
BLACK
6
CONTINUOUS
10
1.93985
20
0.212379
11
1.9369
21
0.21317
0
LINE
8
BLACK
6
CONTINUOUS
10
1.9369
20
0.21317
11
1.93473
21
0.215332
0
LINE
8
BLACK
6
CONTINUOUS
10
1.93473
20
0.215332
11
1.93394
21
0.218285
0
LINE
8
BLACK
6
CONTINUOUS
10
1.93394
20
0.218285
11
1.93394
21
0.27734
0
LINE
8
BLACK
6
CONTINUOUS
10
1.93394
20
0.27734
11
1.93473
21
0.280292
0
LINE
8
BLACK
6
CONTINUOUS
10
1.93473
20
0.280292
11
1.9369
21
0.282454
0
LINE
8
BLACK
6
CONTINUOUS
10
1.9369
20
0.282454
11
1.93985
21
0.283245
0
LINE
8
BLACK
6
CONTINUOUS
10
1.93985
20
0.283245
11
1.9428
21
0.282454
0
LINE
8
BLACK
6
CONTINUOUS
10
1.81625
20
0.282454
11
1.81842
21
0.280292
0
LINE
8
BLACK
6
CONTINUOUS
10
1.81842
20
0.280292
11
1.81921
21
0.27734
0
LINE
8
BLACK
6
CONTINUOUS
10
1.81921
20
0.27734
11
1.81842
21
0.274387
0
LINE
8
BLACK
6
CONTINUOUS
10
1.81842
20
0.274387
11
1.81625
21
0.272225
0
LINE
8
BLACK
6
CONTINUOUS
10
1.81625
20
0.272225
11
1.8133
21
0.271434
0
LINE
8
BLACK
6
CONTINUOUS
10
1.8133
20
0.271434
11
1.80233
21
0.271434
0
LINE
8
BLACK
6
CONTINUOUS
10
1.80233
20
0.271434
11
1.80233
21
0.218285
0
LINE
8
BLACK
6
CONTINUOUS
10
1.80233
20
0.218285
11
1.80154
21
0.215332
0
LINE
8
BLACK
6
CONTINUOUS
10
1.80154
20
0.215332
11
1.79938
21
0.21317
0
LINE
8
BLACK
6
CONTINUOUS
10
1.79938
20
0.21317
11
1.79643
21
0.212379
0
LINE
8
BLACK
6
CONTINUOUS
10
1.79643
20
0.212379
11
1.79348
21
0.21317
0
LINE
8
BLACK
6
CONTINUOUS
10
1.79348
20
0.21317
11
1.79131
21
0.215332
0
LINE
8
BLACK
6
CONTINUOUS
10
1.79131
20
0.215332
11
1.79052
21
0.218285
0
LINE
8
BLACK
6
CONTINUOUS
10
1.79052
20
0.218285
11
1.79052
21
0.271434
0
LINE
8
BLACK
6
CONTINUOUS
10
1.79052
20
0.271434
11
1.77956
21
0.271434
0
LINE
8
BLACK
6
CONTINUOUS
10
1.77956
20
0.271434
11
1.7766
21
0.272225
0
LINE
8
BLACK
6
CONTINUOUS
10
1.7766
20
0.272225
11
1.77444
21
0.274387
0
LINE
8
BLACK
6
CONTINUOUS
10
1.77444
20
0.274387
11
1.77365
21
0.27734
0
LINE
8
BLACK
6
CONTINUOUS
10
1.77365
20
0.27734
11
1.77444
21
0.280292
0
LINE
8
BLACK
6
CONTINUOUS
10
1.77444
20
0.280292
11
1.7766
21
0.282454
0
LINE
8
BLACK
6
CONTINUOUS
10
1.7766
20
0.282454
11
1.77956
21
0.283245
0
LINE
8
BLACK
6
CONTINUOUS
10
1.77956
20
0.283245
11
1.8133
21
0.283245
0
LINE
8
BLACK
6
CONTINUOUS
10
1.8133
20
0.283245
11
1.81625
21
0.282454
0
LINE
8
BLACK
6
CONTINUOUS
10
1.86406
20
0.282454
11
1.86622
21
0.280292
0
LINE
8
BLACK
6
CONTINUOUS
10
1.86622
20
0.280292
11
1.86701
21
0.27734
0
LINE
8
BLACK
6
CONTINUOUS
10
1.86701
20
0.27734
11
1.86622
21
0.274387
0
LINE
8
BLACK
6
CONTINUOUS
10
1.86622
20
0.274387
11
1.86406
21
0.272225
0
LINE
8
BLACK
6
CONTINUOUS
10
1.86406
20
0.272225
11
1.86111
21
0.271434
0
LINE
8
BLACK
6
CONTINUOUS
10
1.86111
20
0.271434
11
1.83889
21
0.271434
0
LINE
8
BLACK
6
CONTINUOUS
10
1.83889
20
0.271434
11
1.83889
21
0.255124
0
LINE
8
BLACK
6
CONTINUOUS
10
1.83889
20
0.255124
11
1.85267
21
0.255124
0
LINE
8
BLACK
6
CONTINUOUS
10
1.85267
20
0.255124
11
1.85562
21
0.254333
0
LINE
8
BLACK
6
CONTINUOUS
10
1.85562
20
0.254333
11
1.85779
21
0.252171
0
LINE
8
BLACK
6
CONTINUOUS
10
1.85779
20
0.252171
11
1.85858
21
0.249218
0
LINE
8
BLACK
6
CONTINUOUS
10
1.85858
20
0.249218
11
1.85779
21
0.246265
0
LINE
8
BLACK
6
CONTINUOUS
10
1.85779
20
0.246265
11
1.85562
21
0.244104
0
LINE
8
BLACK
6
CONTINUOUS
10
1.85562
20
0.244104
11
1.85267
21
0.243313
0
LINE
8
BLACK
6
CONTINUOUS
10
1.85267
20
0.243313
11
1.83889
21
0.243313
0
LINE
8
BLACK
6
CONTINUOUS
10
1.83889
20
0.243313
11
1.83889
21
0.218285
0
LINE
8
BLACK
6
CONTINUOUS
10
1.83889
20
0.218285
11
1.8381
21
0.215332
0
LINE
8
BLACK
6
CONTINUOUS
10
1.8381
20
0.215332
11
1.83594
21
0.21317
0
LINE
8
BLACK
6
CONTINUOUS
10
1.83594
20
0.21317
11
1.83299
21
0.212379
0
LINE
8
BLACK
6
CONTINUOUS
10
1.83299
20
0.212379
11
1.83003
21
0.21317
0
LINE
8
BLACK
6
CONTINUOUS
10
1.83003
20
0.21317
11
1.82787
21
0.215332
0
LINE
8
BLACK
6
CONTINUOUS
10
1.82787
20
0.215332
11
1.82708
21
0.218285
0
LINE
8
BLACK
6
CONTINUOUS
10
1.82708
20
0.218285
11
1.82708
21
0.27734
0
LINE
8
BLACK
6
CONTINUOUS
10
1.82708
20
0.27734
11
1.82787
21
0.280292
0
LINE
8
BLACK
6
CONTINUOUS
10
1.82787
20
0.280292
11
1.83003
21
0.282454
0
LINE
8
BLACK
6
CONTINUOUS
10
1.83003
20
0.282454
11
1.83299
21
0.283245
0
LINE
8
BLACK
6
CONTINUOUS
10
1.83299
20
0.283245
11
1.86111
21
0.283245
0
LINE
8
BLACK
6
CONTINUOUS
10
1.86111
20
0.283245
11
1.86406
21
0.282454
0
LINE
8
BLACK
6
CONTINUOUS
10
2.04521
20
0.282894
11
2.04654
21
0.282622
0
LINE
8
BLACK
6
CONTINUOUS
10
2.04654
20
0.282622
11
2.05216
21
0.27981
0
LINE
8
BLACK
6
CONTINUOUS
10
2.05216
20
0.27981
11
2.05287
21
0.279179
0
LINE
8
BLACK
6
CONTINUOUS
10
2.05287
20
0.279179
11
2.0537
21
0.278703
0
LINE
8
BLACK
6
CONTINUOUS
10
2.0537
20
0.278703
11
2.05651
21
0.275891
0
LINE
8
BLACK
6
CONTINUOUS
10
2.05651
20
0.275891
11
2.05699
21
0.275068
0
LINE
8
BLACK
6
CONTINUOUS
10
2.05699
20
0.275068
11
2.05762
21
0.274356
0
LINE
8
BLACK
6
CONTINUOUS
10
2.05762
20
0.274356
11
2.06043
21
0.268732
0
LINE
8
BLACK
6
CONTINUOUS
10
2.06043
20
0.268732
11
2.06056
21
0.268093
0
LINE
8
BLACK
6
CONTINUOUS
10
2.06056
20
0.268093
11
2.06088
21
0.267523
0
LINE
8
BLACK
6
CONTINUOUS
10
2.06088
20
0.267523
11
2.06369
21
0.256275
0
LINE
8
BLACK
6
CONTINUOUS
10
2.06369
20
0.256275
11
2.06368
21
0.255546
0
LINE
8
BLACK
6
CONTINUOUS
10
2.06368
20
0.255546
11
2.06386
21
0.254843
0
LINE
8
BLACK
6
CONTINUOUS
10
2.06386
20
0.254843
11
2.06386
21
0.240782
0
LINE
8
BLACK
6
CONTINUOUS
10
2.06386
20
0.240782
11
2.06368
21
0.240078
0
LINE
8
BLACK
6
CONTINUOUS
10
2.06368
20
0.240078
11
2.06369
21
0.239349
0
LINE
8
BLACK
6
CONTINUOUS
10
2.06369
20
0.239349
11
2.06088
21
0.228101
0
LINE
8
BLACK
6
CONTINUOUS
10
2.06088
20
0.228101
11
2.06056
21
0.227531
0
LINE
8
BLACK
6
CONTINUOUS
10
2.06056
20
0.227531
11
2.06043
21
0.226892
0
LINE
8
BLACK
6
CONTINUOUS
10
2.06043
20
0.226892
11
2.05762
21
0.221268
0
LINE
8
BLACK
6
CONTINUOUS
10
2.05762
20
0.221268
11
2.05699
21
0.220556
0
LINE
8
BLACK
6
CONTINUOUS
10
2.05699
20
0.220556
11
2.05651
21
0.219733
0
LINE
8
BLACK
6
CONTINUOUS
10
2.05651
20
0.219733
11
2.0537
21
0.216921
0
LINE
8
BLACK
6
CONTINUOUS
10
2.0537
20
0.216921
11
2.05287
21
0.216445
0
LINE
8
BLACK
6
CONTINUOUS
10
2.05287
20
0.216445
11
2.05216
21
0.215815
0
LINE
8
BLACK
6
CONTINUOUS
10
2.05216
20
0.215815
11
2.04654
21
0.213003
0
LINE
8
BLACK
6
CONTINUOUS
10
2.04654
20
0.213003
11
2.04521
21
0.21273
0
LINE
8
BLACK
6
CONTINUOUS
10
2.04521
20
0.21273
11
2.0439
21
0.212379
0
LINE
8
BLACK
6
CONTINUOUS
10
2.0439
20
0.212379
11
2.03827
21
0.212379
0
LINE
8
BLACK
6
CONTINUOUS
10
2.03827
20
0.212379
11
2.03696
21
0.21273
0
LINE
8
BLACK
6
CONTINUOUS
10
2.03696
20
0.21273
11
2.03563
21
0.213003
0
LINE
8
BLACK
6
CONTINUOUS
10
2.03563
20
0.213003
11
2.03001
21
0.215815
0
LINE
8
BLACK
6
CONTINUOUS
10
2.03001
20
0.215815
11
2.0293
21
0.216445
0
LINE
8
BLACK
6
CONTINUOUS
10
2.0293
20
0.216445
11
2.02847
21
0.216921
0
LINE
8
BLACK
6
CONTINUOUS
10
2.02847
20
0.216921
11
2.02566
21
0.219733
0
LINE
8
BLACK
6
CONTINUOUS
10
2.02566
20
0.219733
11
2.02519
21
0.220556
0
LINE
8
BLACK
6
CONTINUOUS
10
2.02519
20
0.220556
11
2.02455
21
0.221268
0
LINE
8
BLACK
6
CONTINUOUS
10
2.02455
20
0.221268
11
2.02174
21
0.226892
0
LINE
8
BLACK
6
CONTINUOUS
10
2.02174
20
0.226892
11
2.02161
21
0.227531
0
LINE
8
BLACK
6
CONTINUOUS
10
2.02161
20
0.227531
11
2.0213
21
0.228101
0
LINE
8
BLACK
6
CONTINUOUS
10
2.0213
20
0.228101
11
2.01848
21
0.239349
0
LINE
8
BLACK
6
CONTINUOUS
10
2.01848
20
0.239349
11
2.0185
21
0.240078
0
LINE
8
BLACK
6
CONTINUOUS
10
2.0185
20
0.240078
11
2.01831
21
0.240782
0
LINE
8
BLACK
6
CONTINUOUS
10
2.01831
20
0.240782
11
2.01831
21
0.254843
0
LINE
8
BLACK
6
CONTINUOUS
10
2.01831
20
0.254843
11
2.0185
21
0.255546
0
LINE
8
BLACK
6
CONTINUOUS
10
2.0185
20
0.255546
11
2.01848
21
0.256275
0
LINE
8
BLACK
6
CONTINUOUS
10
2.01848
20
0.256275
11
2.0213
21
0.267523
0
LINE
8
BLACK
6
CONTINUOUS
10
2.0213
20
0.267523
11
2.02161
21
0.268093
0
LINE
8
BLACK
6
CONTINUOUS
10
2.02161
20
0.268093
11
2.02174
21
0.268732
0
LINE
8
BLACK
6
CONTINUOUS
10
2.02174
20
0.268732
11
2.02455
21
0.274356
0
LINE
8
BLACK
6
CONTINUOUS
10
2.02455
20
0.274356
11
2.02519
21
0.275068
0
LINE
8
BLACK
6
CONTINUOUS
10
2.02519
20
0.275068
11
2.02566
21
0.275891
0
LINE
8
BLACK
6
CONTINUOUS
10
2.02566
20
0.275891
11
2.02847
21
0.278703
0
LINE
8
BLACK
6
CONTINUOUS
10
2.02847
20
0.278703
11
2.0293
21
0.279179
0
LINE
8
BLACK
6
CONTINUOUS
10
2.0293
20
0.279179
11
2.03001
21
0.27981
0
LINE
8
BLACK
6
CONTINUOUS
10
2.03001
20
0.27981
11
2.03563
21
0.282622
0
LINE
8
BLACK
6
CONTINUOUS
10
2.03563
20
0.282622
11
2.03696
21
0.282894
0
LINE
8
BLACK
6
CONTINUOUS
10
2.03696
20
0.282894
11
2.03827
21
0.283245
0
LINE
8
BLACK
6
CONTINUOUS
10
2.03827
20
0.283245
11
2.0439
21
0.283245
0
LINE
8
BLACK
6
CONTINUOUS
10
2.0439
20
0.283245
11
2.04521
21
0.282894
0
LINE
8
BLACK
6
CONTINUOUS
10
2.03967
20
0.271434
11
2.03615
21
0.269674
0
LINE
8
BLACK
6
CONTINUOUS
10
2.03615
20
0.269674
11
2.03469
21
0.268217
0
LINE
8
BLACK
6
CONTINUOUS
10
2.03469
20
0.268217
11
2.0326
21
0.26403
0
LINE
8
BLACK
6
CONTINUOUS
10
2.0326
20
0.26403
11
2.03012
21
0.254116
0
LINE
8
BLACK
6
CONTINUOUS
10
2.03012
20
0.254116
11
2.03012
21
0.241509
0
LINE
8
BLACK
6
CONTINUOUS
10
2.03012
20
0.241509
11
2.0326
21
0.231594
0
LINE
8
BLACK
6
CONTINUOUS
10
2.0326
20
0.231594
11
2.03469
21
0.227407
0
LINE
8
BLACK
6
CONTINUOUS
10
2.03469
20
0.227407
11
2.03615
21
0.22595
0
LINE
8
BLACK
6
CONTINUOUS
10
2.03615
20
0.22595
11
2.03967
21
0.22419
0
LINE
8
BLACK
6
CONTINUOUS
10
2.03967
20
0.22419
11
2.0425
21
0.22419
0
LINE
8
BLACK
6
CONTINUOUS
10
2.0425
20
0.22419
11
2.04602
21
0.22595
0
LINE
8
BLACK
6
CONTINUOUS
10
2.04602
20
0.22595
11
2.04748
21
0.227407
0
LINE
8
BLACK
6
CONTINUOUS
10
2.04748
20
0.227407
11
2.04957
21
0.231594
0
LINE
8
BLACK
6
CONTINUOUS
10
2.04957
20
0.231594
11
2.05205
21
0.241509
0
LINE
8
BLACK
6
CONTINUOUS
10
2.05205
20
0.241509
11
2.05205
21
0.254116
0
LINE
8
BLACK
6
CONTINUOUS
10
2.05205
20
0.254116
11
2.04957
21
0.26403
0
LINE
8
BLACK
6
CONTINUOUS
10
2.04957
20
0.26403
11
2.04748
21
0.268217
0
LINE
8
BLACK
6
CONTINUOUS
10
2.04748
20
0.268217
11
2.04602
21
0.269674
0
LINE
8
BLACK
6
CONTINUOUS
10
2.04602
20
0.269674
11
2.0425
21
0.271434
0
LINE
8
BLACK
6
CONTINUOUS
10
2.0425
20
0.271434
11
2.03967
21
0.271434
0
LINE
8
BLACK
6
CONTINUOUS
10
2.0775
20
0.21317
11
2.07534
21
0.215332
0
LINE
8
BLACK
6
CONTINUOUS
10
2.07534
20
0.215332
11
2.07455
21
0.218285
0
LINE
8
BLACK
6
CONTINUOUS
10
2.07455
20
0.218285
11
2.07534
21
0.221237
0
LINE
8
BLACK
6
CONTINUOUS
10
2.07534
20
0.221237
11
2.0775
21
0.223399
0
LINE
8
BLACK
6
CONTINUOUS
10
2.0775
20
0.223399
11
2.08046
21
0.22419
0
LINE
8
BLACK
6
CONTINUOUS
10
2.08046
20
0.22419
11
2.09142
21
0.22419
0
LINE
8
BLACK
6
CONTINUOUS
10
2.09142
20
0.22419
11
2.09142
21
0.26027
0
LINE
8
BLACK
6
CONTINUOUS
10
2.09142
20
0.26027
11
2.09026
21
0.259103
0
LINE
8
BLACK
6
CONTINUOUS
10
2.09026
20
0.259103
11
2.08943
21
0.258628
0
LINE
8
BLACK
6
CONTINUOUS
10
2.08943
20
0.258628
11
2.08872
21
0.257997
0
LINE
8
BLACK
6
CONTINUOUS
10
2.08872
20
0.257997
11
2.0831
21
0.255185
0
LINE
8
BLACK
6
CONTINUOUS
10
2.0831
20
0.255185
11
2.0801
21
0.254572
0
LINE
8
BLACK
6
CONTINUOUS
10
2.0801
20
0.254572
11
2.0772
21
0.255539
0
LINE
8
BLACK
6
CONTINUOUS
10
2.0772
20
0.255539
11
2.07517
21
0.257826
0
LINE
8
BLACK
6
CONTINUOUS
10
2.07517
20
0.257826
11
2.07456
21
0.260821
0
LINE
8
BLACK
6
CONTINUOUS
10
2.07456
20
0.260821
11
2.07553
21
0.263721
0
LINE
8
BLACK
6
CONTINUOUS
10
2.07553
20
0.263721
11
2.07781
21
0.265749
0
LINE
8
BLACK
6
CONTINUOUS
10
2.07781
20
0.265749
11
2.08258
21
0.268132
0
LINE
8
BLACK
6
CONTINUOUS
10
2.08258
20
0.268132
11
2.08711
21
0.272666
0
LINE
8
BLACK
6
CONTINUOUS
10
2.08711
20
0.272666
11
2.09241
21
0.280615
0
LINE
8
BLACK
6
CONTINUOUS
10
2.09241
20
0.280615
11
2.09342
21
0.281503
0
LINE
8
BLACK
6
CONTINUOUS
10
2.09342
20
0.281503
11
2.09438
21
0.282454
0
LINE
8
BLACK
6
CONTINUOUS
10
2.09438
20
0.282454
11
2.09456
21
0.282505
0
LINE
8
BLACK
6
CONTINUOUS
10
2.09456
20
0.282505
11
2.09471
21
0.282633
0
LINE
8
BLACK
6
CONTINUOUS
10
2.09471
20
0.282633
11
2.09603
21
0.282897
0
LINE
8
BLACK
6
CONTINUOUS
10
2.09603
20
0.282897
11
2.09733
21
0.283245
0
LINE
8
BLACK
6
CONTINUOUS
10
2.09733
20
0.283245
11
2.09752
21
0.283195
0
LINE
8
BLACK
6
CONTINUOUS
10
2.09752
20
0.283195
11
2.09771
21
0.283233
0
LINE
8
BLACK
6
CONTINUOUS
10
2.09771
20
0.283233
11
2.09898
21
0.282802
0
LINE
8
BLACK
6
CONTINUOUS
10
2.09898
20
0.282802
11
2.10028
21
0.282454
0
LINE
8
BLACK
6
CONTINUOUS
10
2.10028
20
0.282454
11
2.10042
21
0.282316
0
LINE
8
BLACK
6
CONTINUOUS
10
2.10042
20
0.282316
11
2.1006
21
0.282253
0
LINE
8
BLACK
6
CONTINUOUS
10
2.1006
20
0.282253
11
2.10149
21
0.281243
0
LINE
8
BLACK
6
CONTINUOUS
10
2.10149
20
0.281243
11
2.10244
21
0.280292
0
LINE
8
BLACK
6
CONTINUOUS
10
2.10244
20
0.280292
11
2.10249
21
0.280104
0
LINE
8
BLACK
6
CONTINUOUS
10
2.10249
20
0.280104
11
2.10262
21
0.279957
0
LINE
8
BLACK
6
CONTINUOUS
10
2.10262
20
0.279957
11
2.10289
21
0.278638
0
LINE
8
BLACK
6
CONTINUOUS
10
2.10289
20
0.278638
11
2.10323
21
0.27734
0
LINE
8
BLACK
6
CONTINUOUS
10
2.10323
20
0.27734
11
2.10323
21
0.22419
0
LINE
8
BLACK
6
CONTINUOUS
10
2.10323
20
0.22419
11
2.1142
21
0.22419
0
LINE
8
BLACK
6
CONTINUOUS
10
2.1142
20
0.22419
11
2.11715
21
0.223399
0
LINE
8
BLACK
6
CONTINUOUS
10
2.11715
20
0.223399
11
2.11932
21
0.221237
0
LINE
8
BLACK
6
CONTINUOUS
10
2.11932
20
0.221237
11
2.12011
21
0.218285
0
LINE
8
BLACK
6
CONTINUOUS
10
2.12011
20
0.218285
11
2.11932
21
0.215332
0
LINE
8
BLACK
6
CONTINUOUS
10
2.11932
20
0.215332
11
2.11715
21
0.21317
0
LINE
8
BLACK
6
CONTINUOUS
10
2.11715
20
0.21317
11
2.1142
21
0.212379
0
LINE
8
BLACK
6
CONTINUOUS
10
2.1142
20
0.212379
11
2.08046
21
0.212379
0
LINE
8
BLACK
6
CONTINUOUS
10
2.08046
20
0.212379
11
2.0775
21
0.21317
0
LINE
8
BLACK
6
CONTINUOUS
10
1.90702
20
0.282999
11
1.90797
21
0.282942
0
LINE
8
BLACK
6
CONTINUOUS
10
1.90797
20
0.282942
11
1.91641
21
0.28013
0
LINE
8
BLACK
6
CONTINUOUS
10
1.91641
20
0.28013
11
1.91896
21
0.278446
0
LINE
8
BLACK
6
CONTINUOUS
10
1.91896
20
0.278446
11
1.92032
21
0.275711
0
LINE
8
BLACK
6
CONTINUOUS
10
1.92032
20
0.275711
11
1.92014
21
0.27266
0
LINE
8
BLACK
6
CONTINUOUS
10
1.92014
20
0.27266
11
1.91846
21
0.270109
0
LINE
8
BLACK
6
CONTINUOUS
10
1.91846
20
0.270109
11
1.91572
21
0.268742
0
LINE
8
BLACK
6
CONTINUOUS
10
1.91572
20
0.268742
11
1.91267
21
0.268925
0
LINE
8
BLACK
6
CONTINUOUS
10
1.91267
20
0.268925
11
1.90514
21
0.271434
0
LINE
8
BLACK
6
CONTINUOUS
10
1.90514
20
0.271434
11
1.89344
21
0.271434
0
LINE
8
BLACK
6
CONTINUOUS
10
1.89344
20
0.271434
11
1.88992
21
0.269674
0
LINE
8
BLACK
6
CONTINUOUS
10
1.88992
20
0.269674
11
1.88846
21
0.268217
0
LINE
8
BLACK
6
CONTINUOUS
10
1.88846
20
0.268217
11
1.8867
21
0.264697
0
LINE
8
BLACK
6
CONTINUOUS
10
1.8867
20
0.264697
11
1.8867
21
0.261861
0
LINE
8
BLACK
6
CONTINUOUS
10
1.8867
20
0.261861
11
1.88846
21
0.258341
0
LINE
8
BLACK
6
CONTINUOUS
10
1.88846
20
0.258341
11
1.88992
21
0.256884
0
LINE
8
BLACK
6
CONTINUOUS
10
1.88992
20
0.256884
11
1.8941
21
0.25479
0
LINE
8
BLACK
6
CONTINUOUS
10
1.8941
20
0.25479
11
1.90472
21
0.252135
0
LINE
8
BLACK
6
CONTINUOUS
10
1.90472
20
0.252135
11
1.90529
21
0.251819
0
LINE
8
BLACK
6
CONTINUOUS
10
1.90529
20
0.251819
11
1.90593
21
0.251688
0
LINE
8
BLACK
6
CONTINUOUS
10
1.90593
20
0.251688
11
1.91156
21
0.248876
0
LINE
8
BLACK
6
CONTINUOUS
10
1.91156
20
0.248876
11
1.91227
21
0.248245
0
LINE
8
BLACK
6
CONTINUOUS
10
1.91227
20
0.248245
11
1.91309
21
0.24777
0
LINE
8
BLACK
6
CONTINUOUS
10
1.91309
20
0.24777
11
1.9159
21
0.244958
0
LINE
8
BLACK
6
CONTINUOUS
10
1.9159
20
0.244958
11
1.91638
21
0.244134
0
LINE
8
BLACK
6
CONTINUOUS
10
1.91638
20
0.244134
11
1.91701
21
0.243423
0
LINE
8
BLACK
6
CONTINUOUS
10
1.91701
20
0.243423
11
1.91982
21
0.237798
0
LINE
8
BLACK
6
CONTINUOUS
10
1.91982
20
0.237798
11
1.92009
21
0.236469
0
LINE
8
BLACK
6
CONTINUOUS
10
1.92009
20
0.236469
11
1.92044
21
0.235157
0
LINE
8
BLACK
6
CONTINUOUS
10
1.92044
20
0.235157
11
1.92044
21
0.229533
0
LINE
8
BLACK
6
CONTINUOUS
10
1.92044
20
0.229533
11
1.92009
21
0.228222
0
LINE
8
BLACK
6
CONTINUOUS
10
1.92009
20
0.228222
11
1.91982
21
0.226892
0
LINE
8
BLACK
6
CONTINUOUS
10
1.91982
20
0.226892
11
1.91701
21
0.221268
0
LINE
8
BLACK
6
CONTINUOUS
10
1.91701
20
0.221268
11
1.91638
21
0.220556
0
LINE
8
BLACK
6
CONTINUOUS
10
1.91638
20
0.220556
11
1.9159
21
0.219733
0
LINE
8
BLACK
6
CONTINUOUS
10
1.9159
20
0.219733
11
1.91309
21
0.216921
0
LINE
8
BLACK
6
CONTINUOUS
10
1.91309
20
0.216921
11
1.91227
21
0.216445
0
LINE
8
BLACK
6
CONTINUOUS
10
1.91227
20
0.216445
11
1.91156
21
0.215815
0
LINE
8
BLACK
6
CONTINUOUS
10
1.91156
20
0.215815
11
1.90593
21
0.213003
0
LINE
8
BLACK
6
CONTINUOUS
10
1.90593
20
0.213003
11
1.9046
21
0.21273
0
LINE
8
BLACK
6
CONTINUOUS
10
1.9046
20
0.21273
11
1.90329
21
0.212379
0
LINE
8
BLACK
6
CONTINUOUS
10
1.90329
20
0.212379
11
1.88923
21
0.212379
0
LINE
8
BLACK
6
CONTINUOUS
10
1.88923
20
0.212379
11
1.88831
21
0.212625
0
LINE
8
BLACK
6
CONTINUOUS
10
1.88831
20
0.212625
11
1.88736
21
0.212682
0
LINE
8
BLACK
6
CONTINUOUS
10
1.88736
20
0.212682
11
1.87893
21
0.215494
0
LINE
8
BLACK
6
CONTINUOUS
10
1.87893
20
0.215494
11
1.87637
21
0.217179
0
LINE
8
BLACK
6
CONTINUOUS
10
1.87637
20
0.217179
11
1.87501
21
0.219913
0
LINE
8
BLACK
6
CONTINUOUS
10
1.87501
20
0.219913
11
1.87519
21
0.222964
0
LINE
8
BLACK
6
CONTINUOUS
10
1.87519
20
0.222964
11
1.87687
21
0.225515
0
LINE
8
BLACK
6
CONTINUOUS
10
1.87687
20
0.225515
11
1.87961
21
0.226882
0
LINE
8
BLACK
6
CONTINUOUS
10
1.87961
20
0.226882
11
1.88266
21
0.226699
0
LINE
8
BLACK
6
CONTINUOUS
10
1.88266
20
0.226699
11
1.89019
21
0.22419
0
LINE
8
BLACK
6
CONTINUOUS
10
1.89019
20
0.22419
11
1.9019
21
0.22419
0
LINE
8
BLACK
6
CONTINUOUS
10
1.9019
20
0.22419
11
1.90542
21
0.22595
0
LINE
8
BLACK
6
CONTINUOUS
10
1.90542
20
0.22595
11
1.90687
21
0.227407
0
LINE
8
BLACK
6
CONTINUOUS
10
1.90687
20
0.227407
11
1.90863
21
0.230927
0
LINE
8
BLACK
6
CONTINUOUS
10
1.90863
20
0.230927
11
1.90863
21
0.233763
0
LINE
8
BLACK
6
CONTINUOUS
10
1.90863
20
0.233763
11
1.90687
21
0.237284
0
LINE
8
BLACK
6
CONTINUOUS
10
1.90687
20
0.237284
11
1.90542
21
0.23874
0
LINE
8
BLACK
6
CONTINUOUS
10
1.90542
20
0.23874
11
1.90123
21
0.240834
0
LINE
8
BLACK
6
CONTINUOUS
10
1.90123
20
0.240834
11
1.89061
21
0.243489
0
LINE
8
BLACK
6
CONTINUOUS
10
1.89061
20
0.243489
11
1.89004
21
0.243805
0
LINE
8
BLACK
6
CONTINUOUS
10
1.89004
20
0.243805
11
1.8894
21
0.243936
0
LINE
8
BLACK
6
CONTINUOUS
10
1.8894
20
0.243936
11
1.88378
21
0.246748
0
LINE
8
BLACK
6
CONTINUOUS
10
1.88378
20
0.246748
11
1.88306
21
0.247379
0
LINE
8
BLACK
6
CONTINUOUS
10
1.88306
20
0.247379
11
1.88224
21
0.247855
0
LINE
8
BLACK
6
CONTINUOUS
10
1.88224
20
0.247855
11
1.87943
21
0.250667
0
LINE
8
BLACK
6
CONTINUOUS
10
1.87943
20
0.250667
11
1.87895
21
0.25149
0
LINE
8
BLACK
6
CONTINUOUS
10
1.87895
20
0.25149
11
1.87832
21
0.252201
0
LINE
8
BLACK
6
CONTINUOUS
10
1.87832
20
0.252201
11
1.87551
21
0.257826
0
LINE
8
BLACK
6
CONTINUOUS
10
1.87551
20
0.257826
11
1.87524
21
0.259156
0
LINE
8
BLACK
6
CONTINUOUS
10
1.87524
20
0.259156
11
1.87489
21
0.260467
0
LINE
8
BLACK
6
CONTINUOUS
10
1.87489
20
0.260467
11
1.87489
21
0.266091
0
LINE
8
BLACK
6
CONTINUOUS
10
1.87489
20
0.266091
11
1.87524
21
0.267402
0
LINE
8
BLACK
6
CONTINUOUS
10
1.87524
20
0.267402
11
1.87551
21
0.268732
0
LINE
8
BLACK
6
CONTINUOUS
10
1.87551
20
0.268732
11
1.87832
21
0.274356
0
LINE
8
BLACK
6
CONTINUOUS
10
1.87832
20
0.274356
11
1.87895
21
0.275068
0
LINE
8
BLACK
6
CONTINUOUS
10
1.87895
20
0.275068
11
1.87943
21
0.275891
0
LINE
8
BLACK
6
CONTINUOUS
10
1.87943
20
0.275891
11
1.88224
21
0.278703
0
LINE
8
BLACK
6
CONTINUOUS
10
1.88224
20
0.278703
11
1.88306
21
0.279179
0
LINE
8
BLACK
6
CONTINUOUS
10
1.88306
20
0.279179
11
1.88378
21
0.27981
0
LINE
8
BLACK
6
CONTINUOUS
10
1.88378
20
0.27981
11
1.8894
21
0.282622
0
LINE
8
BLACK
6
CONTINUOUS
10
1.8894
20
0.282622
11
1.89073
21
0.282894
0
LINE
8
BLACK
6
CONTINUOUS
10
1.89073
20
0.282894
11
1.89204
21
0.283245
0
LINE
8
BLACK
6
CONTINUOUS
10
1.89204
20
0.283245
11
1.9061
21
0.283245
0
LINE
8
BLACK
6
CONTINUOUS
10
1.9061
20
0.283245
11
1.90702
21
0.282999
0
LINE
8
BLACK
6
CONTINUOUS
10
2.15227
20
0.282964
11
2.15263
21
0.282942
0
LINE
8
BLACK
6
CONTINUOUS
10
2.15263
20
0.282942
11
2.15362
21
0.282289
0
LINE
8
BLACK
6
CONTINUOUS
10
2.15362
20
0.282289
11
2.15468
21
0.281758
0
LINE
8
BLACK
6
CONTINUOUS
10
2.15468
20
0.281758
11
2.15488
21
0.281457
0
LINE
8
BLACK
6
CONTINUOUS
10
2.15488
20
0.281457
11
2.15518
21
0.281258
0
LINE
8
BLACK
6
CONTINUOUS
10
2.15518
20
0.281258
11
2.15571
21
0.280197
0
LINE
8
BLACK
6
CONTINUOUS
10
2.15571
20
0.280197
11
2.15636
21
0.279207
0
LINE
8
BLACK
6
CONTINUOUS
10
2.15636
20
0.279207
11
2.17605
21
0.220152
0
LINE
8
BLACK
6
CONTINUOUS
10
2.17605
20
0.220152
11
2.17623
21
0.217101
0
LINE
8
BLACK
6
CONTINUOUS
10
2.17623
20
0.217101
11
2.17486
21
0.214366
0
LINE
8
BLACK
6
CONTINUOUS
10
2.17486
20
0.214366
11
2.17231
21
0.212682
0
LINE
8
BLACK
6
CONTINUOUS
10
2.17231
20
0.212682
11
2.16926
21
0.212499
0
LINE
8
BLACK
6
CONTINUOUS
10
2.16926
20
0.212499
11
2.16653
21
0.213866
0
LINE
8
BLACK
6
CONTINUOUS
10
2.16653
20
0.213866
11
2.16484
21
0.216417
0
LINE
8
BLACK
6
CONTINUOUS
10
2.16484
20
0.216417
11
2.16056
21
0.229252
0
LINE
8
BLACK
6
CONTINUOUS
10
2.16056
20
0.229252
11
2.14095
21
0.229252
0
LINE
8
BLACK
6
CONTINUOUS
10
2.14095
20
0.229252
11
2.13668
21
0.216417
0
LINE
8
BLACK
6
CONTINUOUS
10
2.13668
20
0.216417
11
2.13499
21
0.213866
0
LINE
8
BLACK
6
CONTINUOUS
10
2.13499
20
0.213866
11
2.13226
21
0.212499
0
LINE
8
BLACK
6
CONTINUOUS
10
2.13226
20
0.212499
11
2.12921
21
0.212682
0
LINE
8
BLACK
6
CONTINUOUS
10
2.12921
20
0.212682
11
2.12666
21
0.214366
0
LINE
8
BLACK
6
CONTINUOUS
10
2.12666
20
0.214366
11
2.12529
21
0.217101
0
LINE
8
BLACK
6
CONTINUOUS
10
2.12529
20
0.217101
11
2.12547
21
0.220152
0
LINE
8
BLACK
6
CONTINUOUS
10
2.12547
20
0.220152
11
2.14516
21
0.279207
0
LINE
8
BLACK
6
CONTINUOUS
10
2.14516
20
0.279207
11
2.14581
21
0.280197
0
LINE
8
BLACK
6
CONTINUOUS
10
2.14581
20
0.280197
11
2.14634
21
0.281258
0
LINE
8
BLACK
6
CONTINUOUS
10
2.14634
20
0.281258
11
2.14664
21
0.281457
0
LINE
8
BLACK
6
CONTINUOUS
10
2.14664
20
0.281457
11
2.14684
21
0.281758
0
LINE
8
BLACK
6
CONTINUOUS
10
2.14684
20
0.281758
11
2.1479
21
0.282289
0
LINE
8
BLACK
6
CONTINUOUS
10
2.1479
20
0.282289
11
2.14889
21
0.282942
0
LINE
8
BLACK
6
CONTINUOUS
10
2.14889
20
0.282942
11
2.14925
21
0.282964
0
LINE
8
BLACK
6
CONTINUOUS
10
2.14925
20
0.282964
11
2.14958
21
0.283125
0
LINE
8
BLACK
6
CONTINUOUS
10
2.14958
20
0.283125
11
2.15076
21
0.283054
0
LINE
8
BLACK
6
CONTINUOUS
10
2.15076
20
0.283054
11
2.15194
21
0.283125
0
LINE
8
BLACK
6
CONTINUOUS
10
2.15194
20
0.283125
11
2.15227
21
0.282964
0
LINE
8
BLACK
6
CONTINUOUS
10
2.14489
20
0.241063
11
2.15663
21
0.241063
0
LINE
8
BLACK
6
CONTINUOUS
10
2.15663
20
0.241063
11
2.15076
21
0.258665
0
LINE
8
BLACK
6
CONTINUOUS
10
2.15076
20
0.258665
11
2.14489
21
0.241063
0
LINE
8
BLACK
6
CONTINUOUS
10
2.45173
20
0.292741
11
2.45174
21
0.292745
0
LINE
8
BLACK
6
CONTINUOUS
10
2.45174
20
0.292745
11
2.45321
21
0.292345
0
LINE
8
BLACK
6
CONTINUOUS
10
2.45321
20
0.292345
11
2.45467
21
0.291953
0
LINE
8
BLACK
6
CONTINUOUS
10
2.45467
20
0.291953
11
2.45468
21
0.291944
0
LINE
8
BLACK
6
CONTINUOUS
10
2.45468
20
0.291944
11
2.45469
21
0.29194
0
LINE
8
BLACK
6
CONTINUOUS
10
2.45469
20
0.29194
11
2.45576
21
0.290861
0
LINE
8
BLACK
6
CONTINUOUS
10
2.45576
20
0.290861
11
2.45683
21
0.289792
0
LINE
8
BLACK
6
CONTINUOUS
10
2.45683
20
0.289792
11
2.45683
21
0.289779
0
LINE
8
BLACK
6
CONTINUOUS
10
2.45683
20
0.289779
11
2.45684
21
0.289769
0
LINE
8
BLACK
6
CONTINUOUS
10
2.45684
20
0.289769
11
2.45723
21
0.2883
0
LINE
8
BLACK
6
CONTINUOUS
10
2.45723
20
0.2883
11
2.45762
21
0.286839
0
LINE
8
BLACK
6
CONTINUOUS
10
2.45762
20
0.286839
11
2.45762
21
0.286826
0
LINE
8
BLACK
6
CONTINUOUS
10
2.45762
20
0.286826
11
2.45762
21
0.286813
0
LINE
8
BLACK
6
CONTINUOUS
10
2.45762
20
0.286813
11
2.45722
21
0.285347
0
LINE
8
BLACK
6
CONTINUOUS
10
2.45722
20
0.285347
11
2.45683
21
0.283886
0
LINE
8
BLACK
6
CONTINUOUS
10
2.45683
20
0.283886
11
2.45682
21
0.283877
0
LINE
8
BLACK
6
CONTINUOUS
10
2.45682
20
0.283877
11
2.45682
21
0.283864
0
LINE
8
BLACK
6
CONTINUOUS
10
2.45682
20
0.283864
11
2.45574
21
0.282796
0
LINE
8
BLACK
6
CONTINUOUS
10
2.45574
20
0.282796
11
2.45467
21
0.281725
0
LINE
8
BLACK
6
CONTINUOUS
10
2.45467
20
0.281725
11
2.45465
21
0.281721
0
LINE
8
BLACK
6
CONTINUOUS
10
2.45465
20
0.281721
11
2.45465
21
0.281712
0
LINE
8
BLACK
6
CONTINUOUS
10
2.45465
20
0.281712
11
2.4149
21
0.258999
0
LINE
8
BLACK
6
CONTINUOUS
10
2.4149
20
0.258999
11
2.45172
21
0.258999
0
LINE
8
BLACK
6
CONTINUOUS
10
2.45172
20
0.258999
11
2.45467
21
0.258208
0
LINE
8
BLACK
6
CONTINUOUS
10
2.45467
20
0.258208
11
2.45683
21
0.256046
0
LINE
8
BLACK
6
CONTINUOUS
10
2.45683
20
0.256046
11
2.45762
21
0.253093
0
LINE
8
BLACK
6
CONTINUOUS
10
2.45762
20
0.253093
11
2.45683
21
0.250141
0
LINE
8
BLACK
6
CONTINUOUS
10
2.45683
20
0.250141
11
2.45467
21
0.247979
0
LINE
8
BLACK
6
CONTINUOUS
10
2.45467
20
0.247979
11
2.45172
21
0.247188
0
LINE
8
BLACK
6
CONTINUOUS
10
2.45172
20
0.247188
11
2.39266
21
0.247188
0
LINE
8
BLACK
6
CONTINUOUS
10
2.39266
20
0.247188
11
2.39265
21
0.247191
0
LINE
8
BLACK
6
CONTINUOUS
10
2.39265
20
0.247191
11
2.39263
21
0.247188
0
LINE
8
BLACK
6
CONTINUOUS
10
2.39263
20
0.247188
11
2.39117
21
0.247588
0
LINE
8
BLACK
6
CONTINUOUS
10
2.39117
20
0.247588
11
2.38971
21
0.247979
0
LINE
8
BLACK
6
CONTINUOUS
10
2.38971
20
0.247979
11
2.3897
21
0.247989
0
LINE
8
BLACK
6
CONTINUOUS
10
2.3897
20
0.247989
11
2.38968
21
0.247992
0
LINE
8
BLACK
6
CONTINUOUS
10
2.38968
20
0.247992
11
2.38862
21
0.249069
0
LINE
8
BLACK
6
CONTINUOUS
10
2.38862
20
0.249069
11
2.38755
21
0.250141
0
LINE
8
BLACK
6
CONTINUOUS
10
2.38755
20
0.250141
11
2.38754
21
0.250154
0
LINE
8
BLACK
6
CONTINUOUS
10
2.38754
20
0.250154
11
2.38753
21
0.250163
0
LINE
8
BLACK
6
CONTINUOUS
10
2.38753
20
0.250163
11
2.38715
21
0.251629
0
LINE
8
BLACK
6
CONTINUOUS
10
2.38715
20
0.251629
11
2.38675
21
0.253093
0
LINE
8
BLACK
6
CONTINUOUS
10
2.38675
20
0.253093
11
2.38676
21
0.253106
0
LINE
8
BLACK
6
CONTINUOUS
10
2.38676
20
0.253106
11
2.38675
21
0.25312
0
LINE
8
BLACK
6
CONTINUOUS
10
2.38675
20
0.25312
11
2.38715
21
0.254585
0
LINE
8
BLACK
6
CONTINUOUS
10
2.38715
20
0.254585
11
2.38755
21
0.256046
0
LINE
8
BLACK
6
CONTINUOUS
10
2.38755
20
0.256046
11
2.38756
21
0.256056
0
LINE
8
BLACK
6
CONTINUOUS
10
2.38756
20
0.256056
11
2.38756
21
0.256069
0
LINE
8
BLACK
6
CONTINUOUS
10
2.38756
20
0.256069
11
2.38864
21
0.257136
0
LINE
8
BLACK
6
CONTINUOUS
10
2.38864
20
0.257136
11
2.38971
21
0.258208
0
LINE
8
BLACK
6
CONTINUOUS
10
2.38971
20
0.258208
11
2.38972
21
0.258211
0
LINE
8
BLACK
6
CONTINUOUS
10
2.38972
20
0.258211
11
2.38973
21
0.258221
0
LINE
8
BLACK
6
CONTINUOUS
10
2.38973
20
0.258221
11
2.42948
21
0.280934
0
LINE
8
BLACK
6
CONTINUOUS
10
2.42948
20
0.280934
11
2.39266
21
0.280934
0
LINE
8
BLACK
6
CONTINUOUS
10
2.39266
20
0.280934
11
2.38971
21
0.281725
0
LINE
8
BLACK
6
CONTINUOUS
10
2.38971
20
0.281725
11
2.38755
21
0.283886
0
LINE
8
BLACK
6
CONTINUOUS
10
2.38755
20
0.283886
11
2.38675
21
0.286839
0
LINE
8
BLACK
6
CONTINUOUS
10
2.38675
20
0.286839
11
2.38755
21
0.289792
0
LINE
8
BLACK
6
CONTINUOUS
10
2.38755
20
0.289792
11
2.38971
21
0.291953
0
LINE
8
BLACK
6
CONTINUOUS
10
2.38971
20
0.291953
11
2.39266
21
0.292745
0
LINE
8
BLACK
6
CONTINUOUS
10
2.39266
20
0.292745
11
2.45172
21
0.292745
0
LINE
8
BLACK
6
CONTINUOUS
10
2.45172
20
0.292745
11
2.45173
21
0.292741
0
LINE
8
BLACK
6
CONTINUOUS
10
2.39561
20
0.345384
11
2.39777
21
0.343223
0
LINE
8
BLACK
6
CONTINUOUS
10
2.39777
20
0.343223
11
2.39857
21
0.34027
0
LINE
8
BLACK
6
CONTINUOUS
10
2.39857
20
0.34027
11
2.39857
21
0.329303
0
LINE
8
BLACK
6
CONTINUOUS
10
2.39857
20
0.329303
11
2.45172
21
0.329303
0
LINE
8
BLACK
6
CONTINUOUS
10
2.45172
20
0.329303
11
2.45467
21
0.328511
0
LINE
8
BLACK
6
CONTINUOUS
10
2.45467
20
0.328511
11
2.45683
21
0.32635
0
LINE
8
BLACK
6
CONTINUOUS
10
2.45683
20
0.32635
11
2.45762
21
0.323397
0
LINE
8
BLACK
6
CONTINUOUS
10
2.45762
20
0.323397
11
2.45683
21
0.320444
0
LINE
8
BLACK
6
CONTINUOUS
10
2.45683
20
0.320444
11
2.45467
21
0.318283
0
LINE
8
BLACK
6
CONTINUOUS
10
2.45467
20
0.318283
11
2.45172
21
0.317492
0
LINE
8
BLACK
6
CONTINUOUS
10
2.45172
20
0.317492
11
2.39857
21
0.317492
0
LINE
8
BLACK
6
CONTINUOUS
10
2.39857
20
0.317492
11
2.39857
21
0.306524
0
LINE
8
BLACK
6
CONTINUOUS
10
2.39857
20
0.306524
11
2.39777
21
0.303571
0
LINE
8
BLACK
6
CONTINUOUS
10
2.39777
20
0.303571
11
2.39561
21
0.30141
0
LINE
8
BLACK
6
CONTINUOUS
10
2.39561
20
0.30141
11
2.39266
21
0.300619
0
LINE
8
BLACK
6
CONTINUOUS
10
2.39266
20
0.300619
11
2.38971
21
0.30141
0
LINE
8
BLACK
6
CONTINUOUS
10
2.38971
20
0.30141
11
2.38755
21
0.303571
0
LINE
8
BLACK
6
CONTINUOUS
10
2.38755
20
0.303571
11
2.38675
21
0.306524
0
LINE
8
BLACK
6
CONTINUOUS
10
2.38675
20
0.306524
11
2.38675
21
0.34027
0
LINE
8
BLACK
6
CONTINUOUS
10
2.38675
20
0.34027
11
2.38755
21
0.343223
0
LINE
8
BLACK
6
CONTINUOUS
10
2.38755
20
0.343223
11
2.38971
21
0.345384
0
LINE
8
BLACK
6
CONTINUOUS
10
2.38971
20
0.345384
11
2.39266
21
0.346175
0
LINE
8
BLACK
6
CONTINUOUS
10
2.39266
20
0.346175
11
2.39561
21
0.345384
0
LINE
8
BLACK
6
CONTINUOUS
10
2.06965
20
0.404036
11
2.07098
21
0.403763
0
LINE
8
BLACK
6
CONTINUOUS
10
2.07098
20
0.403763
11
2.0766
21
0.400951
0
LINE
8
BLACK
6
CONTINUOUS
10
2.0766
20
0.400951
11
2.07731
21
0.400321
0
LINE
8
BLACK
6
CONTINUOUS
10
2.07731
20
0.400321
11
2.07814
21
0.399845
0
LINE
8
BLACK
6
CONTINUOUS
10
2.07814
20
0.399845
11
2.08095
21
0.397033
0
LINE
8
BLACK
6
CONTINUOUS
10
2.08095
20
0.397033
11
2.08142
21
0.39621
0
LINE
8
BLACK
6
CONTINUOUS
10
2.08142
20
0.39621
11
2.08205
21
0.395498
0
LINE
8
BLACK
6
CONTINUOUS
10
2.08205
20
0.395498
11
2.08487
21
0.389874
0
LINE
8
BLACK
6
CONTINUOUS
10
2.08487
20
0.389874
11
2.08514
21
0.388544
0
LINE
8
BLACK
6
CONTINUOUS
10
2.08514
20
0.388544
11
2.08549
21
0.387233
0
LINE
8
BLACK
6
CONTINUOUS
10
2.08549
20
0.387233
11
2.08549
21
0.381609
0
LINE
8
BLACK
6
CONTINUOUS
10
2.08549
20
0.381609
11
2.08524
21
0.38069
0
LINE
8
BLACK
6
CONTINUOUS
10
2.08524
20
0.38069
11
2.08519
21
0.379741
0
LINE
8
BLACK
6
CONTINUOUS
10
2.08519
20
0.379741
11
2.08237
21
0.371305
0
LINE
8
BLACK
6
CONTINUOUS
10
2.08237
20
0.371305
11
2.08163
21
0.370172
0
LINE
8
BLACK
6
CONTINUOUS
10
2.08163
20
0.370172
11
2.08095
21
0.368996
0
LINE
8
BLACK
6
CONTINUOUS
10
2.08095
20
0.368996
11
2.05728
21
0.345332
0
LINE
8
BLACK
6
CONTINUOUS
10
2.05728
20
0.345332
11
2.07958
21
0.345332
0
LINE
8
BLACK
6
CONTINUOUS
10
2.07958
20
0.345332
11
2.08254
21
0.344541
0
LINE
8
BLACK
6
CONTINUOUS
10
2.08254
20
0.344541
11
2.0847
21
0.342379
0
LINE
8
BLACK
6
CONTINUOUS
10
2.0847
20
0.342379
11
2.08549
21
0.339426
0
LINE
8
BLACK
6
CONTINUOUS
10
2.08549
20
0.339426
11
2.0847
21
0.336474
0
LINE
8
BLACK
6
CONTINUOUS
10
2.0847
20
0.336474
11
2.08254
21
0.334312
0
LINE
8
BLACK
6
CONTINUOUS
10
2.08254
20
0.334312
11
2.07958
21
0.333521
0
LINE
8
BLACK
6
CONTINUOUS
10
2.07958
20
0.333521
11
2.04303
21
0.333521
0
LINE
8
BLACK
6
CONTINUOUS
10
2.04303
20
0.333521
11
2.04227
21
0.333722
0
LINE
8
BLACK
6
CONTINUOUS
10
2.04227
20
0.333722
11
2.0415
21
0.333722
0
LINE
8
BLACK
6
CONTINUOUS
10
2.0415
20
0.333722
11
2.04082
21
0.334111
0
LINE
8
BLACK
6
CONTINUOUS
10
2.04082
20
0.334111
11
2.04007
21
0.334312
0
LINE
8
BLACK
6
CONTINUOUS
10
2.04007
20
0.334312
11
2.03952
21
0.334862
0
LINE
8
BLACK
6
CONTINUOUS
10
2.03952
20
0.334862
11
2.03885
21
0.33525
0
LINE
8
BLACK
6
CONTINUOUS
10
2.03885
20
0.33525
11
2.03846
21
0.335924
0
LINE
8
BLACK
6
CONTINUOUS
10
2.03846
20
0.335924
11
2.03791
21
0.336474
0
LINE
8
BLACK
6
CONTINUOUS
10
2.03791
20
0.336474
11
2.03771
21
0.337225
0
LINE
8
BLACK
6
CONTINUOUS
10
2.03771
20
0.337225
11
2.03732
21
0.337898
0
LINE
8
BLACK
6
CONTINUOUS
10
2.03732
20
0.337898
11
2.03732
21
0.338675
0
LINE
8
BLACK
6
CONTINUOUS
10
2.03732
20
0.338675
11
2.03712
21
0.339426
0
LINE
8
BLACK
6
CONTINUOUS
10
2.03712
20
0.339426
11
2.03732
21
0.340177
0
LINE
8
BLACK
6
CONTINUOUS
10
2.03732
20
0.340177
11
2.03732
21
0.340955
0
LINE
8
BLACK
6
CONTINUOUS
10
2.03732
20
0.340955
11
2.03771
21
0.341628
0
LINE
8
BLACK
6
CONTINUOUS
10
2.03771
20
0.341628
11
2.03791
21
0.342379
0
LINE
8
BLACK
6
CONTINUOUS
10
2.03791
20
0.342379
11
2.03846
21
0.342929
0
LINE
8
BLACK
6
CONTINUOUS
10
2.03846
20
0.342929
11
2.03885
21
0.343602
0
LINE
8
BLACK
6
CONTINUOUS
10
2.03885
20
0.343602
11
2.07161
21
0.376362
0
LINE
8
BLACK
6
CONTINUOUS
10
2.07161
20
0.376362
11
2.07368
21
0.382567
0
LINE
8
BLACK
6
CONTINUOUS
10
2.07368
20
0.382567
11
2.07368
21
0.385839
0
LINE
8
BLACK
6
CONTINUOUS
10
2.07368
20
0.385839
11
2.07192
21
0.389359
0
LINE
8
BLACK
6
CONTINUOUS
10
2.07192
20
0.389359
11
2.07046
21
0.390816
0
LINE
8
BLACK
6
CONTINUOUS
10
2.07046
20
0.390816
11
2.06694
21
0.392576
0
LINE
8
BLACK
6
CONTINUOUS
10
2.06694
20
0.392576
11
2.05567
21
0.392576
0
LINE
8
BLACK
6
CONTINUOUS
10
2.05567
20
0.392576
11
2.05215
21
0.390816
0
LINE
8
BLACK
6
CONTINUOUS
10
2.05215
20
0.390816
11
2.05001
21
0.388681
0
LINE
8
BLACK
6
CONTINUOUS
10
2.05001
20
0.388681
11
2.04737
21
0.387153
0
LINE
8
BLACK
6
CONTINUOUS
10
2.04737
20
0.387153
11
2.04431
21
0.387153
0
LINE
8
BLACK
6
CONTINUOUS
10
2.04431
20
0.387153
11
2.04166
21
0.388681
0
LINE
8
BLACK
6
CONTINUOUS
10
2.04166
20
0.388681
11
2.04013
21
0.391329
0
LINE
8
BLACK
6
CONTINUOUS
10
2.04013
20
0.391329
11
2.04013
21
0.394386
0
LINE
8
BLACK
6
CONTINUOUS
10
2.04013
20
0.394386
11
2.04166
21
0.397033
0
LINE
8
BLACK
6
CONTINUOUS
10
2.04166
20
0.397033
11
2.04447
21
0.399845
0
LINE
8
BLACK
6
CONTINUOUS
10
2.04447
20
0.399845
11
2.0453
21
0.400321
0
LINE
8
BLACK
6
CONTINUOUS
10
2.0453
20
0.400321
11
2.04601
21
0.400951
0
LINE
8
BLACK
6
CONTINUOUS
10
2.04601
20
0.400951
11
2.05163
21
0.403763
0
LINE
8
BLACK
6
CONTINUOUS
10
2.05163
20
0.403763
11
2.05296
21
0.404036
0
LINE
8
BLACK
6
CONTINUOUS
10
2.05296
20
0.404036
11
2.05427
21
0.404387
0
LINE
8
BLACK
6
CONTINUOUS
10
2.05427
20
0.404387
11
2.06834
21
0.404387
0
LINE
8
BLACK
6
CONTINUOUS
10
2.06834
20
0.404387
11
2.06965
21
0.404036
0
LINE
8
BLACK
6
CONTINUOUS
10
1.95435
20
0.404036
11
1.95568
21
0.403763
0
LINE
8
BLACK
6
CONTINUOUS
10
1.95568
20
0.403763
11
1.9613
21
0.400951
0
LINE
8
BLACK
6
CONTINUOUS
10
1.9613
20
0.400951
11
1.96201
21
0.400321
0
LINE
8
BLACK
6
CONTINUOUS
10
1.96201
20
0.400321
11
1.96284
21
0.399845
0
LINE
8
BLACK
6
CONTINUOUS
10
1.96284
20
0.399845
11
1.96565
21
0.397033
0
LINE
8
BLACK
6
CONTINUOUS
10
1.96565
20
0.397033
11
1.96612
21
0.396209
0
LINE
8
BLACK
6
CONTINUOUS
10
1.96612
20
0.396209
11
1.96676
21
0.395498
0
LINE
8
BLACK
6
CONTINUOUS
10
1.96676
20
0.395498
11
1.96957
21
0.389874
0
LINE
8
BLACK
6
CONTINUOUS
10
1.96957
20
0.389874
11
1.9697
21
0.389235
0
LINE
8
BLACK
6
CONTINUOUS
10
1.9697
20
0.389235
11
1.97001
21
0.388665
0
LINE
8
BLACK
6
CONTINUOUS
10
1.97001
20
0.388665
11
1.97283
21
0.377417
0
LINE
8
BLACK
6
CONTINUOUS
10
1.97283
20
0.377417
11
1.97281
21
0.376688
0
LINE
8
BLACK
6
CONTINUOUS
10
1.97281
20
0.376688
11
1.973
21
0.375984
0
LINE
8
BLACK
6
CONTINUOUS
10
1.973
20
0.375984
11
1.973
21
0.361924
0
LINE
8
BLACK
6
CONTINUOUS
10
1.973
20
0.361924
11
1.97281
21
0.36122
0
LINE
8
BLACK
6
CONTINUOUS
10
1.97281
20
0.36122
11
1.97283
21
0.360491
0
LINE
8
BLACK
6
CONTINUOUS
10
1.97283
20
0.360491
11
1.97001
21
0.349243
0
LINE
8
BLACK
6
CONTINUOUS
10
1.97001
20
0.349243
11
1.9697
21
0.348673
0
LINE
8
BLACK
6
CONTINUOUS
10
1.9697
20
0.348673
11
1.96957
21
0.348034
0
LINE
8
BLACK
6
CONTINUOUS
10
1.96957
20
0.348034
11
1.96676
21
0.34241
0
LINE
8
BLACK
6
CONTINUOUS
10
1.96676
20
0.34241
11
1.96612
21
0.341698
0
LINE
8
BLACK
6
CONTINUOUS
10
1.96612
20
0.341698
11
1.96565
21
0.340875
0
LINE
8
BLACK
6
CONTINUOUS
10
1.96565
20
0.340875
11
1.96284
21
0.338063
0
LINE
8
BLACK
6
CONTINUOUS
10
1.96284
20
0.338063
11
1.96201
21
0.337587
0
LINE
8
BLACK
6
CONTINUOUS
10
1.96201
20
0.337587
11
1.9613
21
0.336956
0
LINE
8
BLACK
6
CONTINUOUS
10
1.9613
20
0.336956
11
1.95568
21
0.334144
0
LINE
8
BLACK
6
CONTINUOUS
10
1.95568
20
0.334144
11
1.95435
21
0.333872
0
LINE
8
BLACK
6
CONTINUOUS
10
1.95435
20
0.333872
11
1.95304
21
0.333521
0
LINE
8
BLACK
6
CONTINUOUS
10
1.95304
20
0.333521
11
1.94741
21
0.333521
0
LINE
8
BLACK
6
CONTINUOUS
10
1.94741
20
0.333521
11
1.9461
21
0.333872
0
LINE
8
BLACK
6
CONTINUOUS
10
1.9461
20
0.333872
11
1.94477
21
0.334144
0
LINE
8
BLACK
6
CONTINUOUS
10
1.94477
20
0.334144
11
1.93915
21
0.336956
0
LINE
8
BLACK
6
CONTINUOUS
10
1.93915
20
0.336956
11
1.93844
21
0.337587
0
LINE
8
BLACK
6
CONTINUOUS
10
1.93844
20
0.337587
11
1.93761
21
0.338063
0
LINE
8
BLACK
6
CONTINUOUS
10
1.93761
20
0.338063
11
1.9348
21
0.340875
0
LINE
8
BLACK
6
CONTINUOUS
10
1.9348
20
0.340875
11
1.93433
21
0.341698
0
LINE
8
BLACK
6
CONTINUOUS
10
1.93433
20
0.341698
11
1.93369
21
0.34241
0
LINE
8
BLACK
6
CONTINUOUS
10
1.93369
20
0.34241
11
1.93088
21
0.348034
0
LINE
8
BLACK
6
CONTINUOUS
10
1.93088
20
0.348034
11
1.93075
21
0.348673
0
LINE
8
BLACK
6
CONTINUOUS
10
1.93075
20
0.348673
11
1.93044
21
0.349243
0
LINE
8
BLACK
6
CONTINUOUS
10
1.93044
20
0.349243
11
1.92762
21
0.360491
0
LINE
8
BLACK
6
CONTINUOUS
10
1.92762
20
0.360491
11
1.92764
21
0.36122
0
LINE
8
BLACK
6
CONTINUOUS
10
1.92764
20
0.36122
11
1.92745
21
0.361924
0
LINE
8
BLACK
6
CONTINUOUS
10
1.92745
20
0.361924
11
1.92745
21
0.375984
0
LINE
8
BLACK
6
CONTINUOUS
10
1.92745
20
0.375984
11
1.92764
21
0.376688
0
LINE
8
BLACK
6
CONTINUOUS
10
1.92764
20
0.376688
11
1.92762
21
0.377417
0
LINE
8
BLACK
6
CONTINUOUS
10
1.92762
20
0.377417
11
1.93044
21
0.388665
0
LINE
8
BLACK
6
CONTINUOUS
10
1.93044
20
0.388665
11
1.93075
21
0.389235
0
LINE
8
BLACK
6
CONTINUOUS
10
1.93075
20
0.389235
11
1.93088
21
0.389874
0
LINE
8
BLACK
6
CONTINUOUS
10
1.93088
20
0.389874
11
1.93369
21
0.395498
0
LINE
8
BLACK
6
CONTINUOUS
10
1.93369
20
0.395498
11
1.93433
21
0.396209
0
LINE
8
BLACK
6
CONTINUOUS
10
1.93433
20
0.396209
11
1.9348
21
0.397033
0
LINE
8
BLACK
6
CONTINUOUS
10
1.9348
20
0.397033
11
1.93761
21
0.399845
0
LINE
8
BLACK
6
CONTINUOUS
10
1.93761
20
0.399845
11
1.93844
21
0.400321
0
LINE
8
BLACK
6
CONTINUOUS
10
1.93844
20
0.400321
11
1.93915
21
0.400951
0
LINE
8
BLACK
6
CONTINUOUS
10
1.93915
20
0.400951
11
1.94477
21
0.403763
0
LINE
8
BLACK
6
CONTINUOUS
10
1.94477
20
0.403763
11
1.9461
21
0.404036
0
LINE
8
BLACK
6
CONTINUOUS
10
1.9461
20
0.404036
11
1.94741
21
0.404387
0
LINE
8
BLACK
6
CONTINUOUS
10
1.94741
20
0.404387
11
1.95304
21
0.404387
0
LINE
8
BLACK
6
CONTINUOUS
10
1.95304
20
0.404387
11
1.95435
21
0.404036
0
LINE
8
BLACK
6
CONTINUOUS
10
1.94881
20
0.392576
11
1.94529
21
0.390816
0
LINE
8
BLACK
6
CONTINUOUS
10
1.94529
20
0.390816
11
1.94383
21
0.389359
0
LINE
8
BLACK
6
CONTINUOUS
10
1.94383
20
0.389359
11
1.94174
21
0.385172
0
LINE
8
BLACK
6
CONTINUOUS
10
1.94174
20
0.385172
11
1.93926
21
0.375257
0
LINE
8
BLACK
6
CONTINUOUS
10
1.93926
20
0.375257
11
1.93926
21
0.36265
0
LINE
8
BLACK
6
CONTINUOUS
10
1.93926
20
0.36265
11
1.94174
21
0.352736
0
LINE
8
BLACK
6
CONTINUOUS
10
1.94174
20
0.352736
11
1.94383
21
0.348549
0
LINE
8
BLACK
6
CONTINUOUS
10
1.94383
20
0.348549
11
1.94529
21
0.347092
0
LINE
8
BLACK
6
CONTINUOUS
10
1.94529
20
0.347092
11
1.94881
21
0.345332
0
LINE
8
BLACK
6
CONTINUOUS
10
1.94881
20
0.345332
11
1.95164
21
0.345332
0
LINE
8
BLACK
6
CONTINUOUS
10
1.95164
20
0.345332
11
1.95516
21
0.347092
0
LINE
8
BLACK
6
CONTINUOUS
10
1.95516
20
0.347092
11
1.95662
21
0.348549
0
LINE
8
BLACK
6
CONTINUOUS
10
1.95662
20
0.348549
11
1.95871
21
0.352736
0
LINE
8
BLACK
6
CONTINUOUS
10
1.95871
20
0.352736
11
1.96119
21
0.36265
0
LINE
8
BLACK
6
CONTINUOUS
10
1.96119
20
0.36265
11
1.96119
21
0.375257
0
LINE
8
BLACK
6
CONTINUOUS
10
1.96119
20
0.375257
11
1.95871
21
0.385172
0
LINE
8
BLACK
6
CONTINUOUS
10
1.95871
20
0.385172
11
1.95662
21
0.389359
0
LINE
8
BLACK
6
CONTINUOUS
10
1.95662
20
0.389359
11
1.95516
21
0.390816
0
LINE
8
BLACK
6
CONTINUOUS
10
1.95516
20
0.390816
11
1.95164
21
0.392576
0
LINE
8
BLACK
6
CONTINUOUS
10
1.95164
20
0.392576
11
1.94881
21
0.392576
0
LINE
8
BLACK
6
CONTINUOUS
10
2.0134
20
0.404036
11
2.01473
21
0.403763
0
LINE
8
BLACK
6
CONTINUOUS
10
2.01473
20
0.403763
11
2.02036
21
0.400951
0
LINE
8
BLACK
6
CONTINUOUS
10
2.02036
20
0.400951
11
2.02107
21
0.400321
0
LINE
8
BLACK
6
CONTINUOUS
10
2.02107
20
0.400321
11
2.02189
21
0.399845
0
LINE
8
BLACK
6
CONTINUOUS
10
2.02189
20
0.399845
11
2.0247
21
0.397033
0
LINE
8
BLACK
6
CONTINUOUS
10
2.0247
20
0.397033
11
2.02518
21
0.396209
0
LINE
8
BLACK
6
CONTINUOUS
10
2.02518
20
0.396209
11
2.02581
21
0.395498
0
LINE
8
BLACK
6
CONTINUOUS
10
2.02581
20
0.395498
11
2.02862
21
0.389874
0
LINE
8
BLACK
6
CONTINUOUS
10
2.02862
20
0.389874
11
2.0289
21
0.388544
0
LINE
8
BLACK
6
CONTINUOUS
10
2.0289
20
0.388544
11
2.02925
21
0.387233
0
LINE
8
BLACK
6
CONTINUOUS
10
2.02925
20
0.387233
11
2.02925
21
0.381609
0
LINE
8
BLACK
6
CONTINUOUS
10
2.02925
20
0.381609
11
2.029
21
0.38069
0
LINE
8
BLACK
6
CONTINUOUS
10
2.029
20
0.38069
11
2.02894
21
0.379741
0
LINE
8
BLACK
6
CONTINUOUS
10
2.02894
20
0.379741
11
2.02613
21
0.371305
0
LINE
8
BLACK
6
CONTINUOUS
10
2.02613
20
0.371305
11
2.02538
21
0.370172
0
LINE
8
BLACK
6
CONTINUOUS
10
2.02538
20
0.370172
11
2.0247
21
0.368996
0
LINE
8
BLACK
6
CONTINUOUS
10
2.0247
20
0.368996
11
2.00104
21
0.345332
0
LINE
8
BLACK
6
CONTINUOUS
10
2.00104
20
0.345332
11
2.02334
21
0.345332
0
LINE
8
BLACK
6
CONTINUOUS
10
2.02334
20
0.345332
11
2.02629
21
0.344541
0
LINE
8
BLACK
6
CONTINUOUS
10
2.02629
20
0.344541
11
2.02846
21
0.342379
0
LINE
8
BLACK
6
CONTINUOUS
10
2.02846
20
0.342379
11
2.02925
21
0.339426
0
LINE
8
BLACK
6
CONTINUOUS
10
2.02925
20
0.339426
11
2.02846
21
0.336474
0
LINE
8
BLACK
6
CONTINUOUS
10
2.02846
20
0.336474
11
2.02629
21
0.334312
0
LINE
8
BLACK
6
CONTINUOUS
10
2.02629
20
0.334312
11
2.02334
21
0.333521
0
LINE
8
BLACK
6
CONTINUOUS
10
2.02334
20
0.333521
11
1.98678
21
0.333521
0
LINE
8
BLACK
6
CONTINUOUS
10
1.98678
20
0.333521
11
1.98603
21
0.333722
0
LINE
8
BLACK
6
CONTINUOUS
10
1.98603
20
0.333722
11
1.98525
21
0.333722
0
LINE
8
BLACK
6
CONTINUOUS
10
1.98525
20
0.333722
11
1.98458
21
0.334111
0
LINE
8
BLACK
6
CONTINUOUS
10
1.98458
20
0.334111
11
1.98383
21
0.334312
0
LINE
8
BLACK
6
CONTINUOUS
10
1.98383
20
0.334312
11
1.98328
21
0.334862
0
LINE
8
BLACK
6
CONTINUOUS
10
1.98328
20
0.334862
11
1.98261
21
0.33525
0
LINE
8
BLACK
6
CONTINUOUS
10
1.98261
20
0.33525
11
1.98222
21
0.335924
0
LINE
8
BLACK
6
CONTINUOUS
10
1.98222
20
0.335924
11
1.98167
21
0.336474
0
LINE
8
BLACK
6
CONTINUOUS
10
1.98167
20
0.336474
11
1.98147
21
0.337225
0
LINE
8
BLACK
6
CONTINUOUS
10
1.98147
20
0.337225
11
1.98108
21
0.337898
0
LINE
8
BLACK
6
CONTINUOUS
10
1.98108
20
0.337898
11
1.98108
21
0.338675
0
LINE
8
BLACK
6
CONTINUOUS
10
1.98108
20
0.338675
11
1.98088
21
0.339426
0
LINE
8
BLACK
6
CONTINUOUS
10
1.98088
20
0.339426
11
1.98108
21
0.340177
0
LINE
8
BLACK
6
CONTINUOUS
10
1.98108
20
0.340177
11
1.98108
21
0.340955
0
LINE
8
BLACK
6
CONTINUOUS
10
1.98108
20
0.340955
11
1.98147
21
0.341628
0
LINE
8
BLACK
6
CONTINUOUS
10
1.98147
20
0.341628
11
1.98167
21
0.342379
0
LINE
8
BLACK
6
CONTINUOUS
10
1.98167
20
0.342379
11
1.98222
21
0.342929
0
LINE
8
BLACK
6
CONTINUOUS
10
1.98222
20
0.342929
11
1.98261
21
0.343602
0
LINE
8
BLACK
6
CONTINUOUS
10
1.98261
20
0.343602
11
2.01537
21
0.376362
0
LINE
8
BLACK
6
CONTINUOUS
10
2.01537
20
0.376362
11
2.01744
21
0.382567
0
LINE
8
BLACK
6
CONTINUOUS
10
2.01744
20
0.382567
11
2.01744
21
0.385839
0
LINE
8
BLACK
6
CONTINUOUS
10
2.01744
20
0.385839
11
2.01568
21
0.389359
0
LINE
8
BLACK
6
CONTINUOUS
10
2.01568
20
0.389359
11
2.01422
21
0.390816
0
LINE
8
BLACK
6
CONTINUOUS
10
2.01422
20
0.390816
11
2.0107
21
0.392576
0
LINE
8
BLACK
6
CONTINUOUS
10
2.0107
20
0.392576
11
1.99943
21
0.392576
0
LINE
8
BLACK
6
CONTINUOUS
10
1.99943
20
0.392576
11
1.99591
21
0.390816
0
LINE
8
BLACK
6
CONTINUOUS
10
1.99591
20
0.390816
11
1.99377
21
0.388681
0
LINE
8
BLACK
6
CONTINUOUS
10
1.99377
20
0.388681
11
1.99112
21
0.387153
0
LINE
8
BLACK
6
CONTINUOUS
10
1.99112
20
0.387153
11
1.98807
21
0.387153
0
LINE
8
BLACK
6
CONTINUOUS
10
1.98807
20
0.387153
11
1.98542
21
0.388681
0
LINE
8
BLACK
6
CONTINUOUS
10
1.98542
20
0.388681
11
1.98389
21
0.391329
0
LINE
8
BLACK
6
CONTINUOUS
10
1.98389
20
0.391329
11
1.98389
21
0.394386
0
LINE
8
BLACK
6
CONTINUOUS
10
1.98389
20
0.394386
11
1.98542
21
0.397033
0
LINE
8
BLACK
6
CONTINUOUS
10
1.98542
20
0.397033
11
1.98823
21
0.399845
0
LINE
8
BLACK
6
CONTINUOUS
10
1.98823
20
0.399845
11
1.98905
21
0.400321
0
LINE
8
BLACK
6
CONTINUOUS
10
1.98905
20
0.400321
11
1.98977
21
0.400951
0
LINE
8
BLACK
6
CONTINUOUS
10
1.98977
20
0.400951
11
1.99539
21
0.403764
0
LINE
8
BLACK
6
CONTINUOUS
10
1.99539
20
0.403764
11
1.99672
21
0.404036
0
LINE
8
BLACK
6
CONTINUOUS
10
1.99672
20
0.404036
11
1.99803
21
0.404387
0
LINE
8
BLACK
6
CONTINUOUS
10
1.99803
20
0.404387
11
2.01209
21
0.404387
0
LINE
8
BLACK
6
CONTINUOUS
10
2.01209
20
0.404387
11
2.0134
21
0.404036
0
LINE
8
BLACK
6
CONTINUOUS
10
1.90092
20
0.404036
11
1.90225
21
0.403763
0
LINE
8
BLACK
6
CONTINUOUS
10
1.90225
20
0.403763
11
1.90787
21
0.400951
0
LINE
8
BLACK
6
CONTINUOUS
10
1.90787
20
0.400951
11
1.90858
21
0.400321
0
LINE
8
BLACK
6
CONTINUOUS
10
1.90858
20
0.400321
11
1.90941
21
0.399845
0
LINE
8
BLACK
6
CONTINUOUS
10
1.90941
20
0.399845
11
1.91222
21
0.397033
0
LINE
8
BLACK
6
CONTINUOUS
10
1.91222
20
0.397033
11
1.91269
21
0.396209
0
LINE
8
BLACK
6
CONTINUOUS
10
1.91269
20
0.396209
11
1.91332
21
0.395498
0
LINE
8
BLACK
6
CONTINUOUS
10
1.91332
20
0.395498
11
1.91614
21
0.389874
0
LINE
8
BLACK
6
CONTINUOUS
10
1.91614
20
0.389874
11
1.91641
21
0.388544
0
LINE
8
BLACK
6
CONTINUOUS
10
1.91641
20
0.388544
11
1.91676
21
0.387233
0
LINE
8
BLACK
6
CONTINUOUS
10
1.91676
20
0.387233
11
1.91676
21
0.381609
0
LINE
8
BLACK
6
CONTINUOUS
10
1.91676
20
0.381609
11
1.91651
21
0.38069
0
LINE
8
BLACK
6
CONTINUOUS
10
1.91651
20
0.38069
11
1.91646
21
0.379741
0
LINE
8
BLACK
6
CONTINUOUS
10
1.91646
20
0.379741
11
1.91365
21
0.371305
0
LINE
8
BLACK
6
CONTINUOUS
10
1.91365
20
0.371305
11
1.9129
21
0.370172
0
LINE
8
BLACK
6
CONTINUOUS
10
1.9129
20
0.370172
11
1.91222
21
0.368996
0
LINE
8
BLACK
6
CONTINUOUS
10
1.91222
20
0.368996
11
1.88855
21
0.345332
0
LINE
8
BLACK
6
CONTINUOUS
10
1.88855
20
0.345332
11
1.91085
21
0.345332
0
LINE
8
BLACK
6
CONTINUOUS
10
1.91085
20
0.345332
11
1.91381
21
0.344541
0
LINE
8
BLACK
6
CONTINUOUS
10
1.91381
20
0.344541
11
1.91597
21
0.342379
0
LINE
8
BLACK
6
CONTINUOUS
10
1.91597
20
0.342379
11
1.91676
21
0.339426
0
LINE
8
BLACK
6
CONTINUOUS
10
1.91676
20
0.339426
11
1.91597
21
0.336474
0
LINE
8
BLACK
6
CONTINUOUS
10
1.91597
20
0.336474
11
1.91381
21
0.334312
0
LINE
8
BLACK
6
CONTINUOUS
10
1.91381
20
0.334312
11
1.91085
21
0.333521
0
LINE
8
BLACK
6
CONTINUOUS
10
1.91085
20
0.333521
11
1.8743
21
0.333521
0
LINE
8
BLACK
6
CONTINUOUS
10
1.8743
20
0.333521
11
1.87355
21
0.333722
0
LINE
8
BLACK
6
CONTINUOUS
10
1.87355
20
0.333722
11
1.87277
21
0.333722
0
LINE
8
BLACK
6
CONTINUOUS
10
1.87277
20
0.333722
11
1.8721
21
0.334111
0
LINE
8
BLACK
6
CONTINUOUS
10
1.8721
20
0.334111
11
1.87134
21
0.334312
0
LINE
8
BLACK
6
CONTINUOUS
10
1.87134
20
0.334312
11
1.87079
21
0.334862
0
LINE
8
BLACK
6
CONTINUOUS
10
1.87079
20
0.334862
11
1.87012
21
0.33525
0
LINE
8
BLACK
6
CONTINUOUS
10
1.87012
20
0.33525
11
1.86973
21
0.335924
0
LINE
8
BLACK
6
CONTINUOUS
10
1.86973
20
0.335924
11
1.86918
21
0.336474
0
LINE
8
BLACK
6
CONTINUOUS
10
1.86918
20
0.336474
11
1.86898
21
0.337225
0
LINE
8
BLACK
6
CONTINUOUS
10
1.86898
20
0.337225
11
1.86859
21
0.337898
0
LINE
8
BLACK
6
CONTINUOUS
10
1.86859
20
0.337898
11
1.86859
21
0.338675
0
LINE
8
BLACK
6
CONTINUOUS
10
1.86859
20
0.338675
11
1.86839
21
0.339426
0
LINE
8
BLACK
6
CONTINUOUS
10
1.86839
20
0.339426
11
1.86859
21
0.340177
0
LINE
8
BLACK
6
CONTINUOUS
10
1.86859
20
0.340177
11
1.86859
21
0.340955
0
LINE
8
BLACK
6
CONTINUOUS
10
1.86859
20
0.340955
11
1.86898
21
0.341628
0
LINE
8
BLACK
6
CONTINUOUS
10
1.86898
20
0.341628
11
1.86918
21
0.342379
0
LINE
8
BLACK
6
CONTINUOUS
10
1.86918
20
0.342379
11
1.86973
21
0.342929
0
LINE
8
BLACK
6
CONTINUOUS
10
1.86973
20
0.342929
11
1.87012
21
0.343602
0
LINE
8
BLACK
6
CONTINUOUS
10
1.87012
20
0.343602
11
1.90288
21
0.376362
0
LINE
8
BLACK
6
CONTINUOUS
10
1.90288
20
0.376362
11
1.90495
21
0.382567
0
LINE
8
BLACK
6
CONTINUOUS
10
1.90495
20
0.382567
11
1.90495
21
0.385839
0
LINE
8
BLACK
6
CONTINUOUS
10
1.90495
20
0.385839
11
1.90319
21
0.389359
0
LINE
8
BLACK
6
CONTINUOUS
10
1.90319
20
0.389359
11
1.90173
21
0.390816
0
LINE
8
BLACK
6
CONTINUOUS
10
1.90173
20
0.390816
11
1.89821
21
0.392576
0
LINE
8
BLACK
6
CONTINUOUS
10
1.89821
20
0.392576
11
1.88694
21
0.392576
0
LINE
8
BLACK
6
CONTINUOUS
10
1.88694
20
0.392576
11
1.88342
21
0.390816
0
LINE
8
BLACK
6
CONTINUOUS
10
1.88342
20
0.390816
11
1.88128
21
0.388681
0
LINE
8
BLACK
6
CONTINUOUS
10
1.88128
20
0.388681
11
1.87864
21
0.387153
0
LINE
8
BLACK
6
CONTINUOUS
10
1.87864
20
0.387153
11
1.87558
21
0.387153
0
LINE
8
BLACK
6
CONTINUOUS
10
1.87558
20
0.387153
11
1.87293
21
0.388681
0
LINE
8
BLACK
6
CONTINUOUS
10
1.87293
20
0.388681
11
1.8714
21
0.391329
0
LINE
8
BLACK
6
CONTINUOUS
10
1.8714
20
0.391329
11
1.8714
21
0.394386
0
LINE
8
BLACK
6
CONTINUOUS
10
1.8714
20
0.394386
11
1.87293
21
0.397033
0
LINE
8
BLACK
6
CONTINUOUS
10
1.87293
20
0.397033
11
1.87575
21
0.399845
0
LINE
8
BLACK
6
CONTINUOUS
10
1.87575
20
0.399845
11
1.87657
21
0.400321
0
LINE
8
BLACK
6
CONTINUOUS
10
1.87657
20
0.400321
11
1.87728
21
0.400951
0
LINE
8
BLACK
6
CONTINUOUS
10
1.87728
20
0.400951
11
1.8829
21
0.403763
0
LINE
8
BLACK
6
CONTINUOUS
10
1.8829
20
0.403763
11
1.88423
21
0.404036
0
LINE
8
BLACK
6
CONTINUOUS
10
1.88423
20
0.404036
11
1.88555
21
0.404387
0
LINE
8
BLACK
6
CONTINUOUS
10
1.88555
20
0.404387
11
1.89961
21
0.404387
0
LINE
8
BLACK
6
CONTINUOUS
10
1.89961
20
0.404387
11
1.90092
21
0.404036
0
LINE
8
BLACK
6
CONTINUOUS
10
2.41045
20
0.396548
11
2.4114
21
0.396491
0
LINE
8
BLACK
6
CONTINUOUS
10
2.4114
20
0.396491
11
2.41984
21
0.393679
0
LINE
8
BLACK
6
CONTINUOUS
10
2.41984
20
0.393679
11
2.42097
21
0.392931
0
LINE
8
BLACK
6
CONTINUOUS
10
2.42097
20
0.392931
11
2.42215
21
0.392252
0
LINE
8
BLACK
6
CONTINUOUS
10
2.42215
20
0.392252
11
2.44581
21
0.368588
0
LINE
8
BLACK
6
CONTINUOUS
10
2.44581
20
0.368588
11
2.44581
21
0.390889
0
LINE
8
BLACK
6
CONTINUOUS
10
2.44581
20
0.390889
11
2.4466
21
0.393841
0
LINE
8
BLACK
6
CONTINUOUS
10
2.4466
20
0.393841
11
2.44876
21
0.396003
0
LINE
8
BLACK
6
CONTINUOUS
10
2.44876
20
0.396003
11
2.45172
21
0.396794
0
LINE
8
BLACK
6
CONTINUOUS
10
2.45172
20
0.396794
11
2.45467
21
0.396003
0
LINE
8
BLACK
6
CONTINUOUS
10
2.45467
20
0.396003
11
2.45683
21
0.393841
0
LINE
8
BLACK
6
CONTINUOUS
10
2.45683
20
0.393841
11
2.45762
21
0.390889
0
LINE
8
BLACK
6
CONTINUOUS
10
2.45762
20
0.390889
11
2.45762
21
0.354331
0
LINE
8
BLACK
6
CONTINUOUS
10
2.45762
20
0.354331
11
2.45742
21
0.35358
0
LINE
8
BLACK
6
CONTINUOUS
10
2.45742
20
0.35358
11
2.45742
21
0.352802
0
LINE
8
BLACK
6
CONTINUOUS
10
2.45742
20
0.352802
11
2.45703
21
0.352129
0
LINE
8
BLACK
6
CONTINUOUS
10
2.45703
20
0.352129
11
2.45683
21
0.351378
0
LINE
8
BLACK
6
CONTINUOUS
10
2.45683
20
0.351378
11
2.45628
21
0.350828
0
LINE
8
BLACK
6
CONTINUOUS
10
2.45628
20
0.350828
11
2.45589
21
0.350155
0
LINE
8
BLACK
6
CONTINUOUS
10
2.45589
20
0.350155
11
2.45522
21
0.349766
0
LINE
8
BLACK
6
CONTINUOUS
10
2.45522
20
0.349766
11
2.45467
21
0.349216
0
LINE
8
BLACK
6
CONTINUOUS
10
2.45467
20
0.349216
11
2.45392
21
0.349015
0
LINE
8
BLACK
6
CONTINUOUS
10
2.45392
20
0.349015
11
2.45324
21
0.348626
0
LINE
8
BLACK
6
CONTINUOUS
10
2.45324
20
0.348626
11
2.45247
21
0.348626
0
LINE
8
BLACK
6
CONTINUOUS
10
2.45247
20
0.348626
11
2.45172
21
0.348425
0
LINE
8
BLACK
6
CONTINUOUS
10
2.45172
20
0.348425
11
2.45096
21
0.348626
0
LINE
8
BLACK
6
CONTINUOUS
10
2.45096
20
0.348626
11
2.45019
21
0.348626
0
LINE
8
BLACK
6
CONTINUOUS
10
2.45019
20
0.348626
11
2.44951
21
0.349015
0
LINE
8
BLACK
6
CONTINUOUS
10
2.44951
20
0.349015
11
2.44876
21
0.349216
0
LINE
8
BLACK
6
CONTINUOUS
10
2.44876
20
0.349216
11
2.44821
21
0.349766
0
LINE
8
BLACK
6
CONTINUOUS
10
2.44821
20
0.349766
11
2.44754
21
0.350155
0
LINE
8
BLACK
6
CONTINUOUS
10
2.44754
20
0.350155
11
2.41478
21
0.382915
0
LINE
8
BLACK
6
CONTINUOUS
10
2.41478
20
0.382915
11
2.40857
21
0.384983
0
LINE
8
BLACK
6
CONTINUOUS
10
2.40857
20
0.384983
11
2.4053
21
0.384983
0
LINE
8
BLACK
6
CONTINUOUS
10
2.4053
20
0.384983
11
2.40178
21
0.383223
0
LINE
8
BLACK
6
CONTINUOUS
10
2.40178
20
0.383223
11
2.40033
21
0.381766
0
LINE
8
BLACK
6
CONTINUOUS
10
2.40033
20
0.381766
11
2.39857
21
0.378246
0
LINE
8
BLACK
6
CONTINUOUS
10
2.39857
20
0.378246
11
2.39857
21
0.366973
0
LINE
8
BLACK
6
CONTINUOUS
10
2.39857
20
0.366973
11
2.40033
21
0.363453
0
LINE
8
BLACK
6
CONTINUOUS
10
2.40033
20
0.363453
11
2.40246
21
0.361319
0
LINE
8
BLACK
6
CONTINUOUS
10
2.40246
20
0.361319
11
2.40399
21
0.358671
0
LINE
8
BLACK
6
CONTINUOUS
10
2.40399
20
0.358671
11
2.40399
21
0.355614
0
LINE
8
BLACK
6
CONTINUOUS
10
2.40399
20
0.355614
11
2.40246
21
0.352967
0
LINE
8
BLACK
6
CONTINUOUS
10
2.40246
20
0.352967
11
2.39981
21
0.351439
0
LINE
8
BLACK
6
CONTINUOUS
10
2.39981
20
0.351439
11
2.39676
21
0.351439
0
LINE
8
BLACK
6
CONTINUOUS
10
2.39676
20
0.351439
11
2.39411
21
0.352967
0
LINE
8
BLACK
6
CONTINUOUS
10
2.39411
20
0.352967
11
2.3913
21
0.355779
0
LINE
8
BLACK
6
CONTINUOUS
10
2.3913
20
0.355779
11
2.39082
21
0.356603
0
LINE
8
BLACK
6
CONTINUOUS
10
2.39082
20
0.356603
11
2.39019
21
0.357314
0
LINE
8
BLACK
6
CONTINUOUS
10
2.39019
20
0.357314
11
2.38738
21
0.362938
0
LINE
8
BLACK
6
CONTINUOUS
10
2.38738
20
0.362938
11
2.38711
21
0.364268
0
LINE
8
BLACK
6
CONTINUOUS
10
2.38711
20
0.364268
11
2.38675
21
0.365579
0
LINE
8
BLACK
6
CONTINUOUS
10
2.38675
20
0.365579
11
2.38675
21
0.37964
0
LINE
8
BLACK
6
CONTINUOUS
10
2.38675
20
0.37964
11
2.38711
21
0.380951
0
LINE
8
BLACK
6
CONTINUOUS
10
2.38711
20
0.380951
11
2.38738
21
0.382281
0
LINE
8
BLACK
6
CONTINUOUS
10
2.38738
20
0.382281
11
2.39019
21
0.387905
0
LINE
8
BLACK
6
CONTINUOUS
10
2.39019
20
0.387905
11
2.39082
21
0.388617
0
LINE
8
BLACK
6
CONTINUOUS
10
2.39082
20
0.388617
11
2.3913
21
0.38944
0
LINE
8
BLACK
6
CONTINUOUS
10
2.3913
20
0.38944
11
2.39411
21
0.392252
0
LINE
8
BLACK
6
CONTINUOUS
10
2.39411
20
0.392252
11
2.39493
21
0.392728
0
LINE
8
BLACK
6
CONTINUOUS
10
2.39493
20
0.392728
11
2.39564
21
0.393359
0
LINE
8
BLACK
6
CONTINUOUS
10
2.39564
20
0.393359
11
2.40127
21
0.396171
0
LINE
8
BLACK
6
CONTINUOUS
10
2.40127
20
0.396171
11
2.4026
21
0.396443
0
LINE
8
BLACK
6
CONTINUOUS
10
2.4026
20
0.396443
11
2.40391
21
0.396794
0
LINE
8
BLACK
6
CONTINUOUS
10
2.40391
20
0.396794
11
2.40953
21
0.396794
0
LINE
8
BLACK
6
CONTINUOUS
10
2.40953
20
0.396794
11
2.41045
21
0.396548
0
LINE
8
BLACK
6
CONTINUOUS
10
0.86304
20
0.529454
11
0.865202
21
0.527292
0
LINE
8
BLACK
6
CONTINUOUS
10
0.865202
20
0.527292
11
0.865993
21
0.52434
0
LINE
8
BLACK
6
CONTINUOUS
10
0.865993
20
0.52434
11
0.865202
21
0.521387
0
LINE
8
BLACK
6
CONTINUOUS
10
0.865202
20
0.521387
11
0.86304
21
0.519225
0
LINE
8
BLACK
6
CONTINUOUS
10
0.86304
20
0.519225
11
0.860088
21
0.518434
0
LINE
8
BLACK
6
CONTINUOUS
10
0.860088
20
0.518434
11
0.837311
21
0.518434
0
LINE
8
BLACK
6
CONTINUOUS
10
0.837311
20
0.518434
11
0.836205
21
0.507382
0
LINE
8
BLACK
6
CONTINUOUS
10
0.836205
20
0.507382
11
0.836279
21
0.507397
0
LINE
8
BLACK
6
CONTINUOUS
10
0.836279
20
0.507397
11
0.837591
21
0.507748
0
LINE
8
BLACK
6
CONTINUOUS
10
0.837591
20
0.507748
11
0.851651
21
0.507748
0
LINE
8
BLACK
6
CONTINUOUS
10
0.851651
20
0.507748
11
0.852962
21
0.507397
0
LINE
8
BLACK
6
CONTINUOUS
10
0.852962
20
0.507397
11
0.854292
21
0.507125
0
LINE
8
BLACK
6
CONTINUOUS
10
0.854292
20
0.507125
11
0.859917
21
0.504312
0
LINE
8
BLACK
6
CONTINUOUS
10
0.859917
20
0.504312
11
0.860628
21
0.503682
0
LINE
8
BLACK
6
CONTINUOUS
10
0.860628
20
0.503682
11
0.861451
21
0.503206
0
LINE
8
BLACK
6
CONTINUOUS
10
0.861451
20
0.503206
11
0.864264
21
0.500394
0
LINE
8
BLACK
6
CONTINUOUS
10
0.864264
20
0.500394
11
0.864739
21
0.499571
0
LINE
8
BLACK
6
CONTINUOUS
10
0.864739
20
0.499571
11
0.86537
21
0.498859
0
LINE
8
BLACK
6
CONTINUOUS
10
0.86537
20
0.498859
11
0.868182
21
0.493235
0
LINE
8
BLACK
6
CONTINUOUS
10
0.868182
20
0.493235
11
0.868454
21
0.491905
0
LINE
8
BLACK
6
CONTINUOUS
10
0.868454
20
0.491905
11
0.868805
21
0.490594
0
LINE
8
BLACK
6
CONTINUOUS
10
0.868805
20
0.490594
11
0.868805
21
0.476533
0
LINE
8
BLACK
6
CONTINUOUS
10
0.868805
20
0.476533
11
0.868454
21
0.475222
0
LINE
8
BLACK
6
CONTINUOUS
10
0.868454
20
0.475222
11
0.868182
21
0.473892
0
LINE
8
BLACK
6
CONTINUOUS
10
0.868182
20
0.473892
11
0.86537
21
0.468268
0
LINE
8
BLACK
6
CONTINUOUS
10
0.86537
20
0.468268
11
0.864739
21
0.467556
0
LINE
8
BLACK
6
CONTINUOUS
10
0.864739
20
0.467556
11
0.864264
21
0.466733
0
LINE
8
BLACK
6
CONTINUOUS
10
0.864264
20
0.466733
11
0.861451
21
0.463921
0
LINE
8
BLACK
6
CONTINUOUS
10
0.861451
20
0.463921
11
0.860628
21
0.463446
0
LINE
8
BLACK
6
CONTINUOUS
10
0.860628
20
0.463446
11
0.859917
21
0.462815
0
LINE
8
BLACK
6
CONTINUOUS
10
0.859917
20
0.462815
11
0.854292
21
0.460003
0
LINE
8
BLACK
6
CONTINUOUS
10
0.854292
20
0.460003
11
0.852962
21
0.45973
0
LINE
8
BLACK
6
CONTINUOUS
10
0.852962
20
0.45973
11
0.851651
21
0.459379
0
LINE
8
BLACK
6
CONTINUOUS
10
0.851651
20
0.459379
11
0.837591
21
0.459379
0
LINE
8
BLACK
6
CONTINUOUS
10
0.837591
20
0.459379
11
0.836279
21
0.45973
0
LINE
8
BLACK
6
CONTINUOUS
10
0.836279
20
0.45973
11
0.83495
21
0.460003
0
LINE
8
BLACK
6
CONTINUOUS
10
0.83495
20
0.460003
11
0.829325
21
0.462815
0
LINE
8
BLACK
6
CONTINUOUS
10
0.829325
20
0.462815
11
0.828614
21
0.463446
0
LINE
8
BLACK
6
CONTINUOUS
10
0.828614
20
0.463446
11
0.82779
21
0.463921
0
LINE
8
BLACK
6
CONTINUOUS
10
0.82779
20
0.463921
11
0.824978
21
0.466733
0
LINE
8
BLACK
6
CONTINUOUS
10
0.824978
20
0.466733
11
0.82345
21
0.46938
0
LINE
8
BLACK
6
CONTINUOUS
10
0.82345
20
0.46938
11
0.82345
21
0.472437
0
LINE
8
BLACK
6
CONTINUOUS
10
0.82345
20
0.472437
11
0.824978
21
0.475085
0
LINE
8
BLACK
6
CONTINUOUS
10
0.824978
20
0.475085
11
0.827626
21
0.476613
0
LINE
8
BLACK
6
CONTINUOUS
10
0.827626
20
0.476613
11
0.830683
21
0.476613
0
LINE
8
BLACK
6
CONTINUOUS
10
0.830683
20
0.476613
11
0.83333
21
0.475085
0
LINE
8
BLACK
6
CONTINUOUS
10
0.83333
20
0.475085
11
0.835464
21
0.47295
0
LINE
8
BLACK
6
CONTINUOUS
10
0.835464
20
0.47295
11
0.838985
21
0.47119
0
LINE
8
BLACK
6
CONTINUOUS
10
0.838985
20
0.47119
11
0.850257
21
0.47119
0
LINE
8
BLACK
6
CONTINUOUS
10
0.850257
20
0.47119
11
0.853777
21
0.47295
0
LINE
8
BLACK
6
CONTINUOUS
10
0.853777
20
0.47295
11
0.855234
21
0.474407
0
LINE
8
BLACK
6
CONTINUOUS
10
0.855234
20
0.474407
11
0.856994
21
0.477927
0
LINE
8
BLACK
6
CONTINUOUS
10
0.856994
20
0.477927
11
0.856994
21
0.4892
0
LINE
8
BLACK
6
CONTINUOUS
10
0.856994
20
0.4892
11
0.855234
21
0.49272
0
LINE
8
BLACK
6
CONTINUOUS
10
0.855234
20
0.49272
11
0.853777
21
0.494177
0
LINE
8
BLACK
6
CONTINUOUS
10
0.853777
20
0.494177
11
0.850257
21
0.495937
0
LINE
8
BLACK
6
CONTINUOUS
10
0.850257
20
0.495937
11
0.838985
21
0.495937
0
LINE
8
BLACK
6
CONTINUOUS
10
0.838985
20
0.495937
11
0.835464
21
0.494177
0
LINE
8
BLACK
6
CONTINUOUS
10
0.835464
20
0.494177
11
0.83333
21
0.492042
0
LINE
8
BLACK
6
CONTINUOUS
10
0.83333
20
0.492042
11
0.832408
21
0.49151
0
LINE
8
BLACK
6
CONTINUOUS
10
0.832408
20
0.49151
11
0.831583
21
0.490835
0
LINE
8
BLACK
6
CONTINUOUS
10
0.831583
20
0.490835
11
0.831104
21
0.490757
0
LINE
8
BLACK
6
CONTINUOUS
10
0.831104
20
0.490757
11
0.830683
21
0.490514
0
LINE
8
BLACK
6
CONTINUOUS
10
0.830683
20
0.490514
11
0.829618
21
0.490514
0
LINE
8
BLACK
6
CONTINUOUS
10
0.829618
20
0.490514
11
0.828566
21
0.490342
0
LINE
8
BLACK
6
CONTINUOUS
10
0.828566
20
0.490342
11
0.828112
21
0.490514
0
LINE
8
BLACK
6
CONTINUOUS
10
0.828112
20
0.490514
11
0.827626
21
0.490514
0
LINE
8
BLACK
6
CONTINUOUS
10
0.827626
20
0.490514
11
0.826703
21
0.491046
0
LINE
8
BLACK
6
CONTINUOUS
10
0.826703
20
0.491046
11
0.825707
21
0.491423
0
LINE
8
BLACK
6
CONTINUOUS
10
0.825707
20
0.491423
11
0.825399
21
0.491799
0
LINE
8
BLACK
6
CONTINUOUS
10
0.825399
20
0.491799
11
0.824978
21
0.492042
0
LINE
8
BLACK
6
CONTINUOUS
10
0.824978
20
0.492042
11
0.824446
21
0.492965
0
LINE
8
BLACK
6
CONTINUOUS
10
0.824446
20
0.492965
11
0.823771
21
0.493789
0
LINE
8
BLACK
6
CONTINUOUS
10
0.823771
20
0.493789
11
0.823693
21
0.494269
0
LINE
8
BLACK
6
CONTINUOUS
10
0.823693
20
0.494269
11
0.82345
21
0.49469
0
LINE
8
BLACK
6
CONTINUOUS
10
0.82345
20
0.49469
11
0.82345
21
0.495755
0
LINE
8
BLACK
6
CONTINUOUS
10
0.82345
20
0.495755
11
0.823278
21
0.496806
0
LINE
8
BLACK
6
CONTINUOUS
10
0.823278
20
0.496806
11
0.82609
21
0.524927
0
LINE
8
BLACK
6
CONTINUOUS
10
0.82609
20
0.524927
11
0.82653
21
0.526091
0
LINE
8
BLACK
6
CONTINUOUS
10
0.82653
20
0.526091
11
0.826852
21
0.527292
0
LINE
8
BLACK
6
CONTINUOUS
10
0.826852
20
0.527292
11
0.827065
21
0.527505
0
LINE
8
BLACK
6
CONTINUOUS
10
0.827065
20
0.527505
11
0.827171
21
0.527787
0
LINE
8
BLACK
6
CONTINUOUS
10
0.827171
20
0.527787
11
0.828134
21
0.528574
0
LINE
8
BLACK
6
CONTINUOUS
10
0.828134
20
0.528574
11
0.829013
21
0.529454
0
LINE
8
BLACK
6
CONTINUOUS
10
0.829013
20
0.529454
11
0.829304
21
0.529532
0
LINE
8
BLACK
6
CONTINUOUS
10
0.829304
20
0.529532
11
0.829537
21
0.529722
0
LINE
8
BLACK
6
CONTINUOUS
10
0.829537
20
0.529722
11
0.830765
21
0.529923
0
LINE
8
BLACK
6
CONTINUOUS
10
0.830765
20
0.529923
11
0.831966
21
0.530245
0
LINE
8
BLACK
6
CONTINUOUS
10
0.831966
20
0.530245
11
0.860088
21
0.530245
0
LINE
8
BLACK
6
CONTINUOUS
10
0.860088
20
0.530245
11
0.86304
21
0.529454
0
LINE
8
BLACK
6
CONTINUOUS
10
0.92101
20
0.529942
11
0.923561
21
0.528258
0
LINE
8
BLACK
6
CONTINUOUS
10
0.923561
20
0.528258
11
0.924928
21
0.525524
0
LINE
8
BLACK
6
CONTINUOUS
10
0.924928
20
0.525524
11
0.924745
21
0.522472
0
LINE
8
BLACK
6
CONTINUOUS
10
0.924745
20
0.522472
11
0.90506
21
0.463417
0
LINE
8
BLACK
6
CONTINUOUS
10
0.90506
20
0.463417
11
0.904407
21
0.462428
0
LINE
8
BLACK
6
CONTINUOUS
10
0.904407
20
0.462428
11
0.903876
21
0.461366
0
LINE
8
BLACK
6
CONTINUOUS
10
0.903876
20
0.461366
11
0.903575
21
0.461167
0
LINE
8
BLACK
6
CONTINUOUS
10
0.903575
20
0.461167
11
0.903376
21
0.460866
0
LINE
8
BLACK
6
CONTINUOUS
10
0.903376
20
0.460866
11
0.902315
21
0.460336
0
LINE
8
BLACK
6
CONTINUOUS
10
0.902315
20
0.460336
11
0.901325
21
0.459682
0
LINE
8
BLACK
6
CONTINUOUS
10
0.901325
20
0.459682
11
0.900965
21
0.45966
0
LINE
8
BLACK
6
CONTINUOUS
10
0.900965
20
0.45966
11
0.900642
21
0.459499
0
LINE
8
BLACK
6
CONTINUOUS
10
0.900642
20
0.459499
11
0.899458
21
0.45957
0
LINE
8
BLACK
6
CONTINUOUS
10
0.899458
20
0.45957
11
0.898274
21
0.459499
0
LINE
8
BLACK
6
CONTINUOUS
10
0.898274
20
0.459499
11
0.897951
21
0.45966
0
LINE
8
BLACK
6
CONTINUOUS
10
0.897951
20
0.45966
11
0.89759
21
0.459682
0
LINE
8
BLACK
6
CONTINUOUS
10
0.89759
20
0.459682
11
0.896601
21
0.460335
0
LINE
8
BLACK
6
CONTINUOUS
10
0.896601
20
0.460335
11
0.89554
21
0.460866
0
LINE
8
BLACK
6
CONTINUOUS
10
0.89554
20
0.460866
11
0.895341
21
0.461167
0
LINE
8
BLACK
6
CONTINUOUS
10
0.895341
20
0.461167
11
0.895039
21
0.461366
0
LINE
8
BLACK
6
CONTINUOUS
10
0.895039
20
0.461366
11
0.894509
21
0.462427
0
LINE
8
BLACK
6
CONTINUOUS
10
0.894509
20
0.462427
11
0.893855
21
0.463417
0
LINE
8
BLACK
6
CONTINUOUS
10
0.893855
20
0.463417
11
0.87417
21
0.522472
0
LINE
8
BLACK
6
CONTINUOUS
10
0.87417
20
0.522472
11
0.873987
21
0.525524
0
LINE
8
BLACK
6
CONTINUOUS
10
0.873987
20
0.525524
11
0.875354
21
0.528258
0
LINE
8
BLACK
6
CONTINUOUS
10
0.875354
20
0.528258
11
0.877905
21
0.529942
0
LINE
8
BLACK
6
CONTINUOUS
10
0.877905
20
0.529942
11
0.880957
21
0.530125
0
LINE
8
BLACK
6
CONTINUOUS
10
0.880957
20
0.530125
11
0.883691
21
0.528758
0
LINE
8
BLACK
6
CONTINUOUS
10
0.883691
20
0.528758
11
0.885375
21
0.526207
0
LINE
8
BLACK
6
CONTINUOUS
10
0.885375
20
0.526207
11
0.899458
21
0.483959
0
LINE
8
BLACK
6
CONTINUOUS
10
0.899458
20
0.483959
11
0.91354
21
0.526207
0
LINE
8
BLACK
6
CONTINUOUS
10
0.91354
20
0.526207
11
0.915225
21
0.528758
0
LINE
8
BLACK
6
CONTINUOUS
10
0.915225
20
0.528758
11
0.917959
21
0.530125
0
LINE
8
BLACK
6
CONTINUOUS
10
0.917959
20
0.530125
11
0.92101
21
0.529942
0
LINE
8
BLACK
6
CONTINUOUS
10
1.01438
20
0.896885
11
1.01451
21
0.896908
0
LINE
8
BLACK
6
CONTINUOUS
10
1.01451
20
0.896908
11
1.01463
21
0.896842
0
LINE
8
BLACK
6
CONTINUOUS
10
1.01463
20
0.896842
11
1.01501
21
0.896775
0
LINE
8
BLACK
6
CONTINUOUS
10
1.01501
20
0.896775
11
1.0156
21
0.896282
0
LINE
8
BLACK
6
CONTINUOUS
10
1.0156
20
0.896282
11
1.01626
21
0.895898
0
LINE
8
BLACK
6
CONTINUOUS
10
1.01626
20
0.895898
11
1.01635
21
0.895648
0
LINE
8
BLACK
6
CONTINUOUS
10
1.01635
20
0.895648
11
1.01656
21
0.895476
0
LINE
8
BLACK
6
CONTINUOUS
10
1.01656
20
0.895476
11
1.01669
21
0.894721
0
LINE
8
BLACK
6
CONTINUOUS
10
1.01669
20
0.894721
11
1.01695
21
0.894
0
LINE
8
BLACK
6
CONTINUOUS
10
1.01695
20
0.894
11
1.01695
21
0.594
0
LINE
8
BLACK
6
CONTINUOUS
10
1.01695
20
0.594
11
1.01689
21
0.593616
0
LINE
8
BLACK
6
CONTINUOUS
10
1.01689
20
0.593616
11
1.01691
21
0.593487
0
LINE
8
BLACK
6
CONTINUOUS
10
1.01691
20
0.593487
11
1.01684
21
0.593374
0
LINE
8
BLACK
6
CONTINUOUS
10
1.01684
20
0.593374
11
1.01677
21
0.59299
0
LINE
8
BLACK
6
CONTINUOUS
10
1.01677
20
0.59299
11
1.01628
21
0.592402
0
LINE
8
BLACK
6
CONTINUOUS
10
1.01628
20
0.592402
11
1.0159
21
0.591738
0
LINE
8
BLACK
6
CONTINUOUS
10
1.0159
20
0.591738
11
1.01565
21
0.591647
0
LINE
8
BLACK
6
CONTINUOUS
10
1.01565
20
0.591647
11
1.01548
21
0.591443
0
LINE
8
BLACK
6
CONTINUOUS
10
1.01548
20
0.591443
11
1.01472
21
0.59131
0
LINE
8
BLACK
6
CONTINUOUS
10
1.01472
20
0.59131
11
1.014
21
0.591047
0
LINE
8
BLACK
6
CONTINUOUS
10
1.014
20
0.591047
11
0.814
21
0.591047
0
LINE
8
BLACK
6
CONTINUOUS
10
0.814
20
0.591047
11
0.813616
21
0.591115
0
LINE
8
BLACK
6
CONTINUOUS
10
0.813616
20
0.591115
11
0.813487
21
0.591092
0
LINE
8
BLACK
6
CONTINUOUS
10
0.813487
20
0.591092
11
0.813374
21
0.591158
0
LINE
8
BLACK
6
CONTINUOUS
10
0.813374
20
0.591158
11
0.81299
21
0.591225
0
LINE
8
BLACK
6
CONTINUOUS
10
0.81299
20
0.591225
11
0.812402
21
0.591718
0
LINE
8
BLACK
6
CONTINUOUS
10
0.812402
20
0.591718
11
0.811738
21
0.592102
0
LINE
8
BLACK
6
CONTINUOUS
10
0.811738
20
0.592102
11
0.811647
21
0.592352
0
LINE
8
BLACK
6
CONTINUOUS
10
0.811647
20
0.592352
11
0.811443
21
0.592524
0
LINE
8
BLACK
6
CONTINUOUS
10
0.811443
20
0.592524
11
0.81131
21
0.593279
0
LINE
8
BLACK
6
CONTINUOUS
10
0.81131
20
0.593279
11
0.811047
21
0.594
0
LINE
8
BLACK
6
CONTINUOUS
10
0.811047
20
0.594
11
0.811047
21
0.894
0
LINE
8
BLACK
6
CONTINUOUS
10
0.811047
20
0.894
11
0.811115
21
0.894384
0
LINE
8
BLACK
6
CONTINUOUS
10
0.811115
20
0.894384
11
0.811092
21
0.894513
0
LINE
8
BLACK
6
CONTINUOUS
10
0.811092
20
0.894513
11
0.811158
21
0.894626
0
LINE
8
BLACK
6
CONTINUOUS
10
0.811158
20
0.894626
11
0.811225
21
0.89501
0
LINE
8
BLACK
6
CONTINUOUS
10
0.811225
20
0.89501
11
0.811718
21
0.895598
0
LINE
8
BLACK
6
CONTINUOUS
10
0.811718
20
0.895598
11
0.812102
21
0.896262
0
LINE
8
BLACK
6
CONTINUOUS
10
0.812102
20
0.896262
11
0.812352
21
0.896353
0
LINE
8
BLACK
6
CONTINUOUS
10
0.812352
20
0.896353
11
0.812524
21
0.896557
0
LINE
8
BLACK
6
CONTINUOUS
10
0.812524
20
0.896557
11
0.813279
21
0.89669
0
LINE
8
BLACK
6
CONTINUOUS
10
0.813279
20
0.89669
11
0.814
21
0.896953
0
LINE
8
BLACK
6
CONTINUOUS
10
0.814
20
0.896953
11
1.014
21
0.896953
0
LINE
8
BLACK
6
CONTINUOUS
10
1.014
20
0.896953
11
1.01438
21
0.896885
0
LINE
8
BLACK
6
CONTINUOUS
10
0.816953
20
0.891047
11
0.816953
21
0.596953
0
LINE
8
BLACK
6
CONTINUOUS
10
0.816953
20
0.596953
11
1.01105
21
0.596953
0
LINE
8
BLACK
6
CONTINUOUS
10
1.01105
20
0.596953
11
1.01105
21
0.891047
0
LINE
8
BLACK
6
CONTINUOUS
10
1.01105
20
0.891047
11
0.816953
21
0.891047
0
LINE
8
BLACK
6
CONTINUOUS
10
1.20387
20
0.675999
11
1.20482
21
0.675942
0
LINE
8
BLACK
6
CONTINUOUS
10
1.20482
20
0.675942
11
1.21325
21
0.67313
0
LINE
8
BLACK
6
CONTINUOUS
10
1.21325
20
0.67313
11
1.21439
21
0.672382
0
LINE
8
BLACK
6
CONTINUOUS
10
1.21439
20
0.672382
11
1.21556
21
0.671703
0
LINE
8
BLACK
6
CONTINUOUS
10
1.21556
20
0.671703
11
1.22119
21
0.666079
0
LINE
8
BLACK
6
CONTINUOUS
10
1.22119
20
0.666079
11
1.22166
21
0.665256
0
LINE
8
BLACK
6
CONTINUOUS
10
1.22166
20
0.665256
11
1.22229
21
0.664544
0
LINE
8
BLACK
6
CONTINUOUS
10
1.22229
20
0.664544
11
1.2251
21
0.65892
0
LINE
8
BLACK
6
CONTINUOUS
10
1.2251
20
0.65892
11
1.22524
21
0.658281
0
LINE
8
BLACK
6
CONTINUOUS
10
1.22524
20
0.658281
11
1.22555
21
0.657711
0
LINE
8
BLACK
6
CONTINUOUS
10
1.22555
20
0.657711
11
1.22836
21
0.646463
0
LINE
8
BLACK
6
CONTINUOUS
10
1.22836
20
0.646463
11
1.22835
21
0.645734
0
LINE
8
BLACK
6
CONTINUOUS
10
1.22835
20
0.645734
11
1.22854
21
0.64503
0
LINE
8
BLACK
6
CONTINUOUS
10
1.22854
20
0.64503
11
1.22854
21
0.636594
0
LINE
8
BLACK
6
CONTINUOUS
10
1.22854
20
0.636594
11
1.22835
21
0.63589
0
LINE
8
BLACK
6
CONTINUOUS
10
1.22835
20
0.63589
11
1.22836
21
0.635162
0
LINE
8
BLACK
6
CONTINUOUS
10
1.22836
20
0.635162
11
1.22555
21
0.623913
0
LINE
8
BLACK
6
CONTINUOUS
10
1.22555
20
0.623913
11
1.22524
21
0.623343
0
LINE
8
BLACK
6
CONTINUOUS
10
1.22524
20
0.623343
11
1.2251
21
0.622704
0
LINE
8
BLACK
6
CONTINUOUS
10
1.2251
20
0.622704
11
1.22229
21
0.61708
0
LINE
8
BLACK
6
CONTINUOUS
10
1.22229
20
0.61708
11
1.22166
21
0.616369
0
LINE
8
BLACK
6
CONTINUOUS
10
1.22166
20
0.616369
11
1.22119
21
0.615545
0
LINE
8
BLACK
6
CONTINUOUS
10
1.22119
20
0.615545
11
1.21556
21
0.609921
0
LINE
8
BLACK
6
CONTINUOUS
10
1.21556
20
0.609921
11
1.21439
21
0.609242
0
LINE
8
BLACK
6
CONTINUOUS
10
1.21439
20
0.609242
11
1.21325
21
0.608494
0
LINE
8
BLACK
6
CONTINUOUS
10
1.21325
20
0.608494
11
1.20482
21
0.605682
0
LINE
8
BLACK
6
CONTINUOUS
10
1.20482
20
0.605682
11
1.20387
21
0.605625
0
LINE
8
BLACK
6
CONTINUOUS
10
1.20387
20
0.605625
11
1.20295
21
0.605379
0
LINE
8
BLACK
6
CONTINUOUS
10
1.20295
20
0.605379
11
1.18889
21
0.605379
0
LINE
8
BLACK
6
CONTINUOUS
10
1.18889
20
0.605379
11
1.18594
21
0.60617
0
LINE
8
BLACK
6
CONTINUOUS
10
1.18594
20
0.60617
11
1.18377
21
0.608332
0
LINE
8
BLACK
6
CONTINUOUS
10
1.18377
20
0.608332
11
1.18298
21
0.611285
0
LINE
8
BLACK
6
CONTINUOUS
10
1.18298
20
0.611285
11
1.18298
21
0.67034
0
LINE
8
BLACK
6
CONTINUOUS
10
1.18298
20
0.67034
11
1.18377
21
0.673292
0
LINE
8
BLACK
6
CONTINUOUS
10
1.18377
20
0.673292
11
1.18594
21
0.675454
0
LINE
8
BLACK
6
CONTINUOUS
10
1.18594
20
0.675454
11
1.18889
21
0.676245
0
LINE
8
BLACK
6
CONTINUOUS
10
1.18889
20
0.676245
11
1.20295
21
0.676245
0
LINE
8
BLACK
6
CONTINUOUS
10
1.20295
20
0.676245
11
1.20387
21
0.675999
0
LINE
8
BLACK
6
CONTINUOUS
10
1.19479
20
0.664434
11
1.19479
21
0.61719
0
LINE
8
BLACK
6
CONTINUOUS
10
1.19479
20
0.61719
11
1.20199
21
0.61719
0
LINE
8
BLACK
6
CONTINUOUS
10
1.20199
20
0.61719
11
1.2082
21
0.619258
0
LINE
8
BLACK
6
CONTINUOUS
10
1.2082
20
0.619258
11
1.21216
21
0.623219
0
LINE
8
BLACK
6
CONTINUOUS
10
1.21216
20
0.623219
11
1.21425
21
0.627407
0
LINE
8
BLACK
6
CONTINUOUS
10
1.21425
20
0.627407
11
1.21673
21
0.637321
0
LINE
8
BLACK
6
CONTINUOUS
10
1.21673
20
0.637321
11
1.21673
21
0.644303
0
LINE
8
BLACK
6
CONTINUOUS
10
1.21673
20
0.644303
11
1.21425
21
0.654218
0
LINE
8
BLACK
6
CONTINUOUS
10
1.21425
20
0.654218
11
1.21216
21
0.658405
0
LINE
8
BLACK
6
CONTINUOUS
10
1.21216
20
0.658405
11
1.2082
21
0.662366
0
LINE
8
BLACK
6
CONTINUOUS
10
1.2082
20
0.662366
11
1.20199
21
0.664434
0
LINE
8
BLACK
6
CONTINUOUS
10
1.20199
20
0.664434
11
1.19479
21
0.664434
0
LINE
8
BLACK
6
CONTINUOUS
10
1.16372
20
0.675454
11
1.16588
21
0.673292
0
LINE
8
BLACK
6
CONTINUOUS
10
1.16588
20
0.673292
11
1.16667
21
0.67034
0
LINE
8
BLACK
6
CONTINUOUS
10
1.16667
20
0.67034
11
1.16667
21
0.611285
0
LINE
8
BLACK
6
CONTINUOUS
10
1.16667
20
0.611285
11
1.16667
21
0.611271
0
LINE
8
BLACK
6
CONTINUOUS
10
1.16667
20
0.611271
11
1.16667
21
0.611258
0
LINE
8
BLACK
6
CONTINUOUS
10
1.16667
20
0.611258
11
1.16627
21
0.609792
0
LINE
8
BLACK
6
CONTINUOUS
10
1.16627
20
0.609792
11
1.16588
21
0.608332
0
LINE
8
BLACK
6
CONTINUOUS
10
1.16588
20
0.608332
11
1.16587
21
0.608322
0
LINE
8
BLACK
6
CONTINUOUS
10
1.16587
20
0.608322
11
1.16587
21
0.608309
0
LINE
8
BLACK
6
CONTINUOUS
10
1.16587
20
0.608309
11
1.16479
21
0.60724
0
LINE
8
BLACK
6
CONTINUOUS
10
1.16479
20
0.60724
11
1.16372
21
0.60617
0
LINE
8
BLACK
6
CONTINUOUS
10
1.16372
20
0.60617
11
1.16371
21
0.606167
0
LINE
8
BLACK
6
CONTINUOUS
10
1.16371
20
0.606167
11
1.1637
21
0.606157
0
LINE
8
BLACK
6
CONTINUOUS
10
1.1637
20
0.606157
11
1.16223
21
0.60577
0
LINE
8
BLACK
6
CONTINUOUS
10
1.16223
20
0.60577
11
1.16077
21
0.605379
0
LINE
8
BLACK
6
CONTINUOUS
10
1.16077
20
0.605379
11
1.16075
21
0.605383
0
LINE
8
BLACK
6
CONTINUOUS
10
1.16075
20
0.605383
11
1.16074
21
0.605379
0
LINE
8
BLACK
6
CONTINUOUS
10
1.16074
20
0.605379
11
1.15928
21
0.605779
0
LINE
8
BLACK
6
CONTINUOUS
10
1.15928
20
0.605779
11
1.15781
21
0.60617
0
LINE
8
BLACK
6
CONTINUOUS
10
1.15781
20
0.60617
11
1.1578
21
0.60618
0
LINE
8
BLACK
6
CONTINUOUS
10
1.1578
20
0.60618
11
1.15779
21
0.606183
0
LINE
8
BLACK
6
CONTINUOUS
10
1.15779
20
0.606183
11
1.15672
21
0.60726
0
LINE
8
BLACK
6
CONTINUOUS
10
1.15672
20
0.60726
11
1.15565
21
0.608332
0
LINE
8
BLACK
6
CONTINUOUS
10
1.15565
20
0.608332
11
1.15565
21
0.608345
0
LINE
8
BLACK
6
CONTINUOUS
10
1.15565
20
0.608345
11
1.15564
21
0.608355
0
LINE
8
BLACK
6
CONTINUOUS
10
1.15564
20
0.608355
11
1.13293
21
0.648102
0
LINE
8
BLACK
6
CONTINUOUS
10
1.13293
20
0.648102
11
1.13293
21
0.611285
0
LINE
8
BLACK
6
CONTINUOUS
10
1.13293
20
0.611285
11
1.13214
21
0.608332
0
LINE
8
BLACK
6
CONTINUOUS
10
1.13214
20
0.608332
11
1.12997
21
0.60617
0
LINE
8
BLACK
6
CONTINUOUS
10
1.12997
20
0.60617
11
1.12702
21
0.605379
0
LINE
8
BLACK
6
CONTINUOUS
10
1.12702
20
0.605379
11
1.12407
21
0.60617
0
LINE
8
BLACK
6
CONTINUOUS
10
1.12407
20
0.60617
11
1.12191
21
0.608332
0
LINE
8
BLACK
6
CONTINUOUS
10
1.12191
20
0.608332
11
1.12112
21
0.611285
0
LINE
8
BLACK
6
CONTINUOUS
10
1.12112
20
0.611285
11
1.12112
21
0.67034
0
LINE
8
BLACK
6
CONTINUOUS
10
1.12112
20
0.67034
11
1.12112
21
0.670353
0
LINE
8
BLACK
6
CONTINUOUS
10
1.12112
20
0.670353
11
1.12112
21
0.670366
0
LINE
8
BLACK
6
CONTINUOUS
10
1.12112
20
0.670366
11
1.12152
21
0.671832
0
LINE
8
BLACK
6
CONTINUOUS
10
1.12152
20
0.671832
11
1.12191
21
0.673292
0
LINE
8
BLACK
6
CONTINUOUS
10
1.12191
20
0.673292
11
1.12192
21
0.673302
0
LINE
8
BLACK
6
CONTINUOUS
10
1.12192
20
0.673302
11
1.12192
21
0.673315
0
LINE
8
BLACK
6
CONTINUOUS
10
1.12192
20
0.673315
11
1.123
21
0.674382
0
LINE
8
BLACK
6
CONTINUOUS
10
1.123
20
0.674382
11
1.12407
21
0.675454
0
LINE
8
BLACK
6
CONTINUOUS
10
1.12407
20
0.675454
11
1.12408
21
0.675458
0
LINE
8
BLACK
6
CONTINUOUS
10
1.12408
20
0.675458
11
1.12409
21
0.675467
0
LINE
8
BLACK
6
CONTINUOUS
10
1.12409
20
0.675467
11
1.12556
21
0.675853
0
LINE
8
BLACK
6
CONTINUOUS
10
1.12556
20
0.675853
11
1.12702
21
0.676245
0
LINE
8
BLACK
6
CONTINUOUS
10
1.12702
20
0.676245
11
1.12703
21
0.676242
0
LINE
8
BLACK
6
CONTINUOUS
10
1.12703
20
0.676242
11
1.12705
21
0.676245
0
LINE
8
BLACK
6
CONTINUOUS
10
1.12705
20
0.676245
11
1.12851
21
0.675845
0
LINE
8
BLACK
6
CONTINUOUS
10
1.12851
20
0.675845
11
1.12997
21
0.675454
0
LINE
8
BLACK
6
CONTINUOUS
10
1.12997
20
0.675454
11
1.12998
21
0.675444
0
LINE
8
BLACK
6
CONTINUOUS
10
1.12998
20
0.675444
11
1.13
21
0.675441
0
LINE
8
BLACK
6
CONTINUOUS
10
1.13
20
0.675441
11
1.13106
21
0.674364
0
LINE
8
BLACK
6
CONTINUOUS
10
1.13106
20
0.674364
11
1.13214
21
0.673292
0
LINE
8
BLACK
6
CONTINUOUS
10
1.13214
20
0.673292
11
1.13214
21
0.673279
0
LINE
8
BLACK
6
CONTINUOUS
10
1.13214
20
0.673279
11
1.13215
21
0.67327
0
LINE
8
BLACK
6
CONTINUOUS
10
1.13215
20
0.67327
11
1.15486
21
0.633522
0
LINE
8
BLACK
6
CONTINUOUS
10
1.15486
20
0.633522
11
1.15486
21
0.67034
0
LINE
8
BLACK
6
CONTINUOUS
10
1.15486
20
0.67034
11
1.15565
21
0.673292
0
LINE
8
BLACK
6
CONTINUOUS
10
1.15565
20
0.673292
11
1.15781
21
0.675454
0
LINE
8
BLACK
6
CONTINUOUS
10
1.15781
20
0.675454
11
1.16077
21
0.676245
0
LINE
8
BLACK
6
CONTINUOUS
10
1.16077
20
0.676245
11
1.16372
21
0.675454
0
LINE
8
BLACK
6
CONTINUOUS
10
1.10683
20
0.639547
11
1.10762
21
0.636594
0
LINE
8
BLACK
6
CONTINUOUS
10
1.10762
20
0.636594
11
1.10762
21
0.616909
0
LINE
8
BLACK
6
CONTINUOUS
10
1.10762
20
0.616909
11
1.10742
21
0.616158
0
LINE
8
BLACK
6
CONTINUOUS
10
1.10742
20
0.616158
11
1.10742
21
0.61538
0
LINE
8
BLACK
6
CONTINUOUS
10
1.10742
20
0.61538
11
1.10703
21
0.614707
0
LINE
8
BLACK
6
CONTINUOUS
10
1.10703
20
0.614707
11
1.10683
21
0.613956
0
LINE
8
BLACK
6
CONTINUOUS
10
1.10683
20
0.613956
11
1.10628
21
0.613406
0
LINE
8
BLACK
6
CONTINUOUS
10
1.10628
20
0.613406
11
1.10589
21
0.612733
0
LINE
8
BLACK
6
CONTINUOUS
10
1.10589
20
0.612733
11
1.10308
21
0.609921
0
LINE
8
BLACK
6
CONTINUOUS
10
1.10308
20
0.609921
11
1.1019
21
0.609242
0
LINE
8
BLACK
6
CONTINUOUS
10
1.1019
20
0.609242
11
1.10077
21
0.608494
0
LINE
8
BLACK
6
CONTINUOUS
10
1.10077
20
0.608494
11
1.09233
21
0.605682
0
LINE
8
BLACK
6
CONTINUOUS
10
1.09233
20
0.605682
11
1.09138
21
0.605625
0
LINE
8
BLACK
6
CONTINUOUS
10
1.09138
20
0.605625
11
1.09046
21
0.605379
0
LINE
8
BLACK
6
CONTINUOUS
10
1.09046
20
0.605379
11
1.08484
21
0.605379
0
LINE
8
BLACK
6
CONTINUOUS
10
1.08484
20
0.605379
11
1.08392
21
0.605625
0
LINE
8
BLACK
6
CONTINUOUS
10
1.08392
20
0.605625
11
1.08297
21
0.605682
0
LINE
8
BLACK
6
CONTINUOUS
10
1.08297
20
0.605682
11
1.07454
21
0.608494
0
LINE
8
BLACK
6
CONTINUOUS
10
1.07454
20
0.608494
11
1.0734
21
0.609242
0
LINE
8
BLACK
6
CONTINUOUS
10
1.0734
20
0.609242
11
1.07223
21
0.609921
0
LINE
8
BLACK
6
CONTINUOUS
10
1.07223
20
0.609921
11
1.0666
21
0.615545
0
LINE
8
BLACK
6
CONTINUOUS
10
1.0666
20
0.615545
11
1.06613
21
0.616369
0
LINE
8
BLACK
6
CONTINUOUS
10
1.06613
20
0.616369
11
1.0655
21
0.61708
0
LINE
8
BLACK
6
CONTINUOUS
10
1.0655
20
0.61708
11
1.06268
21
0.622704
0
LINE
8
BLACK
6
CONTINUOUS
10
1.06268
20
0.622704
11
1.06255
21
0.623343
0
LINE
8
BLACK
6
CONTINUOUS
10
1.06255
20
0.623343
11
1.06224
21
0.623913
0
LINE
8
BLACK
6
CONTINUOUS
10
1.06224
20
0.623913
11
1.05942
21
0.635162
0
LINE
8
BLACK
6
CONTINUOUS
10
1.05942
20
0.635162
11
1.05944
21
0.63589
0
LINE
8
BLACK
6
CONTINUOUS
10
1.05944
20
0.63589
11
1.05925
21
0.636594
0
LINE
8
BLACK
6
CONTINUOUS
10
1.05925
20
0.636594
11
1.05925
21
0.64503
0
LINE
8
BLACK
6
CONTINUOUS
10
1.05925
20
0.64503
11
1.05944
21
0.645734
0
LINE
8
BLACK
6
CONTINUOUS
10
1.05944
20
0.645734
11
1.05942
21
0.646463
0
LINE
8
BLACK
6
CONTINUOUS
10
1.05942
20
0.646463
11
1.06224
21
0.657711
0
LINE
8
BLACK
6
CONTINUOUS
10
1.06224
20
0.657711
11
1.06255
21
0.658281
0
LINE
8
BLACK
6
CONTINUOUS
10
1.06255
20
0.658281
11
1.06268
21
0.65892
0
LINE
8
BLACK
6
CONTINUOUS
10
1.06268
20
0.65892
11
1.0655
21
0.664544
0
LINE
8
BLACK
6
CONTINUOUS
10
1.0655
20
0.664544
11
1.06613
21
0.665256
0
LINE
8
BLACK
6
CONTINUOUS
10
1.06613
20
0.665256
11
1.0666
21
0.666079
0
LINE
8
BLACK
6
CONTINUOUS
10
1.0666
20
0.666079
11
1.07223
21
0.671703
0
LINE
8
BLACK
6
CONTINUOUS
10
1.07223
20
0.671703
11
1.0734
21
0.672382
0
LINE
8
BLACK
6
CONTINUOUS
10
1.0734
20
0.672382
11
1.07454
21
0.67313
0
LINE
8
BLACK
6
CONTINUOUS
10
1.07454
20
0.67313
11
1.08297
21
0.675942
0
LINE
8
BLACK
6
CONTINUOUS
10
1.08297
20
0.675942
11
1.08392
21
0.675999
0
LINE
8
BLACK
6
CONTINUOUS
10
1.08392
20
0.675999
11
1.08484
21
0.676245
0
LINE
8
BLACK
6
CONTINUOUS
10
1.08484
20
0.676245
11
1.09328
21
0.676245
0
LINE
8
BLACK
6
CONTINUOUS
10
1.09328
20
0.676245
11
1.09459
21
0.675894
0
LINE
8
BLACK
6
CONTINUOUS
10
1.09459
20
0.675894
11
1.09592
21
0.675622
0
LINE
8
BLACK
6
CONTINUOUS
10
1.09592
20
0.675622
11
1.10154
21
0.67281
0
LINE
8
BLACK
6
CONTINUOUS
10
1.10154
20
0.67281
11
1.10383
21
0.670781
0
LINE
8
BLACK
6
CONTINUOUS
10
1.10383
20
0.670781
11
1.10479
21
0.667881
0
LINE
8
BLACK
6
CONTINUOUS
10
1.10479
20
0.667881
11
1.10418
21
0.664887
0
LINE
8
BLACK
6
CONTINUOUS
10
1.10418
20
0.664887
11
1.10215
21
0.662599
0
LINE
8
BLACK
6
CONTINUOUS
10
1.10215
20
0.662599
11
1.09925
21
0.661633
0
LINE
8
BLACK
6
CONTINUOUS
10
1.09925
20
0.661633
11
1.09626
21
0.662246
0
LINE
8
BLACK
6
CONTINUOUS
10
1.09626
20
0.662246
11
1.09188
21
0.664434
0
LINE
8
BLACK
6
CONTINUOUS
10
1.09188
20
0.664434
11
1.0858
21
0.664434
0
LINE
8
BLACK
6
CONTINUOUS
10
1.0858
20
0.664434
11
1.07959
21
0.662366
0
LINE
8
BLACK
6
CONTINUOUS
10
1.07959
20
0.662366
11
1.07563
21
0.658405
0
LINE
8
BLACK
6
CONTINUOUS
10
1.07563
20
0.658405
11
1.07354
21
0.654218
0
LINE
8
BLACK
6
CONTINUOUS
10
1.07354
20
0.654218
11
1.07106
21
0.644303
0
LINE
8
BLACK
6
CONTINUOUS
10
1.07106
20
0.644303
11
1.07106
21
0.637321
0
LINE
8
BLACK
6
CONTINUOUS
10
1.07106
20
0.637321
11
1.07354
21
0.627407
0
LINE
8
BLACK
6
CONTINUOUS
10
1.07354
20
0.627407
11
1.07563
21
0.623219
0
LINE
8
BLACK
6
CONTINUOUS
10
1.07563
20
0.623219
11
1.07959
21
0.619258
0
LINE
8
BLACK
6
CONTINUOUS
10
1.07959
20
0.619258
11
1.0858
21
0.61719
0
LINE
8
BLACK
6
CONTINUOUS
10
1.0858
20
0.61719
11
1.08951
21
0.61719
0
LINE
8
BLACK
6
CONTINUOUS
10
1.08951
20
0.61719
11
1.09571
21
0.619258
0
LINE
8
BLACK
6
CONTINUOUS
10
1.09571
20
0.619258
11
1.09581
21
0.619355
0
LINE
8
BLACK
6
CONTINUOUS
10
1.09581
20
0.619355
11
1.09581
21
0.630688
0
LINE
8
BLACK
6
CONTINUOUS
10
1.09581
20
0.630688
11
1.09046
21
0.630688
0
LINE
8
BLACK
6
CONTINUOUS
10
1.09046
20
0.630688
11
1.08751
21
0.63148
0
LINE
8
BLACK
6
CONTINUOUS
10
1.08751
20
0.63148
11
1.08535
21
0.633641
0
LINE
8
BLACK
6
CONTINUOUS
10
1.08535
20
0.633641
11
1.08456
21
0.636594
0
LINE
8
BLACK
6
CONTINUOUS
10
1.08456
20
0.636594
11
1.08535
21
0.639547
0
LINE
8
BLACK
6
CONTINUOUS
10
1.08535
20
0.639547
11
1.08751
21
0.641708
0
LINE
8
BLACK
6
CONTINUOUS
10
1.08751
20
0.641708
11
1.09046
21
0.642499
0
LINE
8
BLACK
6
CONTINUOUS
10
1.09046
20
0.642499
11
1.10171
21
0.642499
0
LINE
8
BLACK
6
CONTINUOUS
10
1.10171
20
0.642499
11
1.10466
21
0.641708
0
LINE
8
BLACK
6
CONTINUOUS
10
1.10466
20
0.641708
11
1.10683
21
0.639547
0
LINE
8
BLACK
6
CONTINUOUS
10
1.15402
20
0.775894
11
1.15535
21
0.775622
0
LINE
8
BLACK
6
CONTINUOUS
10
1.15535
20
0.775622
11
1.16097
21
0.77281
0
LINE
8
BLACK
6
CONTINUOUS
10
1.16097
20
0.77281
11
1.16168
21
0.772179
0
LINE
8
BLACK
6
CONTINUOUS
10
1.16168
20
0.772179
11
1.16251
21
0.771703
0
LINE
8
BLACK
6
CONTINUOUS
10
1.16251
20
0.771703
11
1.16532
21
0.768891
0
LINE
8
BLACK
6
CONTINUOUS
10
1.16532
20
0.768891
11
1.16579
21
0.768068
0
LINE
8
BLACK
6
CONTINUOUS
10
1.16579
20
0.768068
11
1.16642
21
0.767356
0
LINE
8
BLACK
6
CONTINUOUS
10
1.16642
20
0.767356
11
1.16924
21
0.761732
0
LINE
8
BLACK
6
CONTINUOUS
10
1.16924
20
0.761732
11
1.16951
21
0.760402
0
LINE
8
BLACK
6
CONTINUOUS
10
1.16951
20
0.760402
11
1.16986
21
0.759091
0
LINE
8
BLACK
6
CONTINUOUS
10
1.16986
20
0.759091
11
1.16986
21
0.753467
0
LINE
8
BLACK
6
CONTINUOUS
10
1.16986
20
0.753467
11
1.16961
21
0.752548
0
LINE
8
BLACK
6
CONTINUOUS
10
1.16961
20
0.752548
11
1.16956
21
0.751599
0
LINE
8
BLACK
6
CONTINUOUS
10
1.16956
20
0.751599
11
1.16675
21
0.743163
0
LINE
8
BLACK
6
CONTINUOUS
10
1.16675
20
0.743163
11
1.166
21
0.74203
0
LINE
8
BLACK
6
CONTINUOUS
10
1.166
20
0.74203
11
1.16532
21
0.740855
0
LINE
8
BLACK
6
CONTINUOUS
10
1.16532
20
0.740855
11
1.14165
21
0.71719
0
LINE
8
BLACK
6
CONTINUOUS
10
1.14165
20
0.71719
11
1.16396
21
0.71719
0
LINE
8
BLACK
6
CONTINUOUS
10
1.16396
20
0.71719
11
1.16691
21
0.716399
0
LINE
8
BLACK
6
CONTINUOUS
10
1.16691
20
0.716399
11
1.16907
21
0.714237
0
LINE
8
BLACK
6
CONTINUOUS
10
1.16907
20
0.714237
11
1.16986
21
0.711285
0
LINE
8
BLACK
6
CONTINUOUS
10
1.16986
20
0.711285
11
1.16907
21
0.708332
0
LINE
8
BLACK
6
CONTINUOUS
10
1.16907
20
0.708332
11
1.16691
21
0.70617
0
LINE
8
BLACK
6
CONTINUOUS
10
1.16691
20
0.70617
11
1.16396
21
0.705379
0
LINE
8
BLACK
6
CONTINUOUS
10
1.16396
20
0.705379
11
1.1274
21
0.705379
0
LINE
8
BLACK
6
CONTINUOUS
10
1.1274
20
0.705379
11
1.12665
21
0.70558
0
LINE
8
BLACK
6
CONTINUOUS
10
1.12665
20
0.70558
11
1.12587
21
0.70558
0
LINE
8
BLACK
6
CONTINUOUS
10
1.12587
20
0.70558
11
1.1252
21
0.705969
0
LINE
8
BLACK
6
CONTINUOUS
10
1.1252
20
0.705969
11
1.12444
21
0.70617
0
LINE
8
BLACK
6
CONTINUOUS
10
1.12444
20
0.70617
11
1.12389
21
0.70672
0
LINE
8
BLACK
6
CONTINUOUS
10
1.12389
20
0.70672
11
1.12322
21
0.707109
0
LINE
8
BLACK
6
CONTINUOUS
10
1.12322
20
0.707109
11
1.12283
21
0.707782
0
LINE
8
BLACK
6
CONTINUOUS
10
1.12283
20
0.707782
11
1.12228
21
0.708332
0
LINE
8
BLACK
6
CONTINUOUS
10
1.12228
20
0.708332
11
1.12208
21
0.709083
0
LINE
8
BLACK
6
CONTINUOUS
10
1.12208
20
0.709083
11
1.12169
21
0.709756
0
LINE
8
BLACK
6
CONTINUOUS
10
1.12169
20
0.709756
11
1.12169
21
0.710534
0
LINE
8
BLACK
6
CONTINUOUS
10
1.12169
20
0.710534
11
1.12149
21
0.711285
0
LINE
8
BLACK
6
CONTINUOUS
10
1.12149
20
0.711285
11
1.12169
21
0.712036
0
LINE
8
BLACK
6
CONTINUOUS
10
1.12169
20
0.712036
11
1.12169
21
0.712813
0
LINE
8
BLACK
6
CONTINUOUS
10
1.12169
20
0.712813
11
1.12208
21
0.713486
0
LINE
8
BLACK
6
CONTINUOUS
10
1.12208
20
0.713486
11
1.12228
21
0.714237
0
LINE
8
BLACK
6
CONTINUOUS
10
1.12228
20
0.714237
11
1.12283
21
0.714787
0
LINE
8
BLACK
6
CONTINUOUS
10
1.12283
20
0.714787
11
1.12322
21
0.71546
0
LINE
8
BLACK
6
CONTINUOUS
10
1.12322
20
0.71546
11
1.15598
21
0.74822
0
LINE
8
BLACK
6
CONTINUOUS
10
1.15598
20
0.74822
11
1.15805
21
0.754425
0
LINE
8
BLACK
6
CONTINUOUS
10
1.15805
20
0.754425
11
1.15805
21
0.757697
0
LINE
8
BLACK
6
CONTINUOUS
10
1.15805
20
0.757697
11
1.15629
21
0.761217
0
LINE
8
BLACK
6
CONTINUOUS
10
1.15629
20
0.761217
11
1.15483
21
0.762674
0
LINE
8
BLACK
6
CONTINUOUS
10
1.15483
20
0.762674
11
1.15131
21
0.764434
0
LINE
8
BLACK
6
CONTINUOUS
10
1.15131
20
0.764434
11
1.14004
21
0.764434
0
LINE
8
BLACK
6
CONTINUOUS
10
1.14004
20
0.764434
11
1.13652
21
0.762674
0
LINE
8
BLACK
6
CONTINUOUS
10
1.13652
20
0.762674
11
1.13439
21
0.76054
0
LINE
8
BLACK
6
CONTINUOUS
10
1.13439
20
0.76054
11
1.13174
21
0.759011
0
LINE
8
BLACK
6
CONTINUOUS
10
1.13174
20
0.759011
11
1.12868
21
0.759011
0
LINE
8
BLACK
6
CONTINUOUS
10
1.12868
20
0.759011
11
1.12603
21
0.76054
0
LINE
8
BLACK
6
CONTINUOUS
10
1.12603
20
0.76054
11
1.1245
21
0.763187
0
LINE
8
BLACK
6
CONTINUOUS
10
1.1245
20
0.763187
11
1.1245
21
0.766244
0
LINE
8
BLACK
6
CONTINUOUS
10
1.1245
20
0.766244
11
1.12603
21
0.768891
0
LINE
8
BLACK
6
CONTINUOUS
10
1.12603
20
0.768891
11
1.12885
21
0.771703
0
LINE
8
BLACK
6
CONTINUOUS
10
1.12885
20
0.771703
11
1.12967
21
0.772179
0
LINE
8
BLACK
6
CONTINUOUS
10
1.12967
20
0.772179
11
1.13038
21
0.77281
0
LINE
8
BLACK
6
CONTINUOUS
10
1.13038
20
0.77281
11
1.136
21
0.775622
0
LINE
8
BLACK
6
CONTINUOUS
10
1.136
20
0.775622
11
1.13733
21
0.775894
0
LINE
8
BLACK
6
CONTINUOUS
10
1.13733
20
0.775894
11
1.13865
21
0.776245
0
LINE
8
BLACK
6
CONTINUOUS
10
1.13865
20
0.776245
11
1.15271
21
0.776245
0
LINE
8
BLACK
6
CONTINUOUS
10
1.15271
20
0.776245
11
1.15402
21
0.775894
0
LINE
8
BLACK
6
CONTINUOUS
10
1.20424
20
0.775999
11
1.20519
21
0.775942
0
LINE
8
BLACK
6
CONTINUOUS
10
1.20519
20
0.775942
11
1.21363
21
0.77313
0
LINE
8
BLACK
6
CONTINUOUS
10
1.21363
20
0.77313
11
1.21476
21
0.772382
0
LINE
8
BLACK
6
CONTINUOUS
10
1.21476
20
0.772382
11
1.21594
21
0.771703
0
LINE
8
BLACK
6
CONTINUOUS
10
1.21594
20
0.771703
11
1.22156
21
0.766079
0
LINE
8
BLACK
6
CONTINUOUS
10
1.22156
20
0.766079
11
1.22204
21
0.765256
0
LINE
8
BLACK
6
CONTINUOUS
10
1.22204
20
0.765256
11
1.22267
21
0.764544
0
LINE
8
BLACK
6
CONTINUOUS
10
1.22267
20
0.764544
11
1.22548
21
0.75892
0
LINE
8
BLACK
6
CONTINUOUS
10
1.22548
20
0.75892
11
1.22561
21
0.758281
0
LINE
8
BLACK
6
CONTINUOUS
10
1.22561
20
0.758281
11
1.22593
21
0.757711
0
LINE
8
BLACK
6
CONTINUOUS
10
1.22593
20
0.757711
11
1.22874
21
0.746463
0
LINE
8
BLACK
6
CONTINUOUS
10
1.22874
20
0.746463
11
1.22873
21
0.745734
0
LINE
8
BLACK
6
CONTINUOUS
10
1.22873
20
0.745734
11
1.22892
21
0.74503
0
LINE
8
BLACK
6
CONTINUOUS
10
1.22892
20
0.74503
11
1.22892
21
0.736594
0
LINE
8
BLACK
6
CONTINUOUS
10
1.22892
20
0.736594
11
1.22873
21
0.73589
0
LINE
8
BLACK
6
CONTINUOUS
10
1.22873
20
0.73589
11
1.22874
21
0.735162
0
LINE
8
BLACK
6
CONTINUOUS
10
1.22874
20
0.735162
11
1.22593
21
0.723913
0
LINE
8
BLACK
6
CONTINUOUS
10
1.22593
20
0.723913
11
1.22561
21
0.723343
0
LINE
8
BLACK
6
CONTINUOUS
10
1.22561
20
0.723343
11
1.22548
21
0.722704
0
LINE
8
BLACK
6
CONTINUOUS
10
1.22548
20
0.722704
11
1.22267
21
0.71708
0
LINE
8
BLACK
6
CONTINUOUS
10
1.22267
20
0.71708
11
1.22204
21
0.716369
0
LINE
8
BLACK
6
CONTINUOUS
10
1.22204
20
0.716369
11
1.22156
21
0.715545
0
LINE
8
BLACK
6
CONTINUOUS
10
1.22156
20
0.715545
11
1.21594
21
0.709921
0
LINE
8
BLACK
6
CONTINUOUS
10
1.21594
20
0.709921
11
1.21476
21
0.709242
0
LINE
8
BLACK
6
CONTINUOUS
10
1.21476
20
0.709242
11
1.21363
21
0.708494
0
LINE
8
BLACK
6
CONTINUOUS
10
1.21363
20
0.708494
11
1.20519
21
0.705682
0
LINE
8
BLACK
6
CONTINUOUS
10
1.20519
20
0.705682
11
1.20424
21
0.705625
0
LINE
8
BLACK
6
CONTINUOUS
10
1.20424
20
0.705625
11
1.20333
21
0.705379
0
LINE
8
BLACK
6
CONTINUOUS
10
1.20333
20
0.705379
11
1.18926
21
0.705379
0
LINE
8
BLACK
6
CONTINUOUS
10
1.18926
20
0.705379
11
1.18631
21
0.70617
0
LINE
8
BLACK
6
CONTINUOUS
10
1.18631
20
0.70617
11
1.18415
21
0.708332
0
LINE
8
BLACK
6
CONTINUOUS
10
1.18415
20
0.708332
11
1.18336
21
0.711285
0
LINE
8
BLACK
6
CONTINUOUS
10
1.18336
20
0.711285
11
1.18336
21
0.77034
0
LINE
8
BLACK
6
CONTINUOUS
10
1.18336
20
0.77034
11
1.18415
21
0.773292
0
LINE
8
BLACK
6
CONTINUOUS
10
1.18415
20
0.773292
11
1.18631
21
0.775454
0
LINE
8
BLACK
6
CONTINUOUS
10
1.18631
20
0.775454
11
1.18926
21
0.776245
0
LINE
8
BLACK
6
CONTINUOUS
10
1.18926
20
0.776245
11
1.20333
21
0.776245
0
LINE
8
BLACK
6
CONTINUOUS
10
1.20333
20
0.776245
11
1.20424
21
0.775999
0
LINE
8
BLACK
6
CONTINUOUS
10
1.19517
20
0.764434
11
1.19517
21
0.71719
0
LINE
8
BLACK
6
CONTINUOUS
10
1.19517
20
0.71719
11
1.20237
21
0.71719
0
LINE
8
BLACK
6
CONTINUOUS
10
1.20237
20
0.71719
11
1.20857
21
0.719258
0
LINE
8
BLACK
6
CONTINUOUS
10
1.20857
20
0.719258
11
1.21253
21
0.723219
0
LINE
8
BLACK
6
CONTINUOUS
10
1.21253
20
0.723219
11
1.21463
21
0.727407
0
LINE
8
BLACK
6
CONTINUOUS
10
1.21463
20
0.727407
11
1.2171
21
0.737321
0
LINE
8
BLACK
6
CONTINUOUS
10
1.2171
20
0.737321
11
1.2171
21
0.744303
0
LINE
8
BLACK
6
CONTINUOUS
10
1.2171
20
0.744303
11
1.21463
21
0.754218
0
LINE
8
BLACK
6
CONTINUOUS
10
1.21463
20
0.754218
11
1.21253
21
0.758405
0
LINE
8
BLACK
6
CONTINUOUS
10
1.21253
20
0.758405
11
1.20857
21
0.762366
0
LINE
8
BLACK
6
CONTINUOUS
10
1.20857
20
0.762366
11
1.20237
21
0.764434
0
LINE
8
BLACK
6
CONTINUOUS
10
1.20237
20
0.764434
11
1.19517
21
0.764434
0
LINE
8
BLACK
6
CONTINUOUS
10
1.09738
20
0.775999
11
1.09833
21
0.775942
0
LINE
8
BLACK
6
CONTINUOUS
10
1.09833
20
0.775942
11
1.10677
21
0.77313
0
LINE
8
BLACK
6
CONTINUOUS
10
1.10677
20
0.77313
11
1.1079
21
0.772382
0
LINE
8
BLACK
6
CONTINUOUS
10
1.1079
20
0.772382
11
1.10908
21
0.771703
0
LINE
8
BLACK
6
CONTINUOUS
10
1.10908
20
0.771703
11
1.11189
21
0.768891
0
LINE
8
BLACK
6
CONTINUOUS
10
1.11189
20
0.768891
11
1.11342
21
0.766244
0
LINE
8
BLACK
6
CONTINUOUS
10
1.11342
20
0.766244
11
1.11342
21
0.763187
0
LINE
8
BLACK
6
CONTINUOUS
10
1.11342
20
0.763187
11
1.11189
21
0.76054
0
LINE
8
BLACK
6
CONTINUOUS
10
1.11189
20
0.76054
11
1.10924
21
0.759011
0
LINE
8
BLACK
6
CONTINUOUS
10
1.10924
20
0.759011
11
1.10618
21
0.759011
0
LINE
8
BLACK
6
CONTINUOUS
10
1.10618
20
0.759011
11
1.10354
21
0.76054
0
LINE
8
BLACK
6
CONTINUOUS
10
1.10354
20
0.76054
11
1.10171
21
0.762366
0
LINE
8
BLACK
6
CONTINUOUS
10
1.10171
20
0.762366
11
1.09551
21
0.764434
0
LINE
8
BLACK
6
CONTINUOUS
10
1.09551
20
0.764434
11
1.0918
21
0.764434
0
LINE
8
BLACK
6
CONTINUOUS
10
1.0918
20
0.764434
11
1.08559
21
0.762366
0
LINE
8
BLACK
6
CONTINUOUS
10
1.08559
20
0.762366
11
1.08163
21
0.758405
0
LINE
8
BLACK
6
CONTINUOUS
10
1.08163
20
0.758405
11
1.07954
21
0.754218
0
LINE
8
BLACK
6
CONTINUOUS
10
1.07954
20
0.754218
11
1.07706
21
0.744303
0
LINE
8
BLACK
6
CONTINUOUS
10
1.07706
20
0.744303
11
1.07706
21
0.737321
0
LINE
8
BLACK
6
CONTINUOUS
10
1.07706
20
0.737321
11
1.07954
21
0.727407
0
LINE
8
BLACK
6
CONTINUOUS
10
1.07954
20
0.727407
11
1.08163
21
0.723219
0
LINE
8
BLACK
6
CONTINUOUS
10
1.08163
20
0.723219
11
1.08559
21
0.719258
0
LINE
8
BLACK
6
CONTINUOUS
10
1.08559
20
0.719258
11
1.0918
21
0.71719
0
LINE
8
BLACK
6
CONTINUOUS
10
1.0918
20
0.71719
11
1.09551
21
0.71719
0
LINE
8
BLACK
6
CONTINUOUS
10
1.09551
20
0.71719
11
1.10171
21
0.719258
0
LINE
8
BLACK
6
CONTINUOUS
10
1.10171
20
0.719258
11
1.10354
21
0.721085
0
LINE
8
BLACK
6
CONTINUOUS
10
1.10354
20
0.721085
11
1.10618
21
0.722613
0
LINE
8
BLACK
6
CONTINUOUS
10
1.10618
20
0.722613
11
1.10924
21
0.722613
0
LINE
8
BLACK
6
CONTINUOUS
10
1.10924
20
0.722613
11
1.11189
21
0.721085
0
LINE
8
BLACK
6
CONTINUOUS
10
1.11189
20
0.721085
11
1.11342
21
0.718437
0
LINE
8
BLACK
6
CONTINUOUS
10
1.11342
20
0.718437
11
1.11342
21
0.71538
0
LINE
8
BLACK
6
CONTINUOUS
10
1.11342
20
0.71538
11
1.11189
21
0.712733
0
LINE
8
BLACK
6
CONTINUOUS
10
1.11189
20
0.712733
11
1.10908
21
0.709921
0
LINE
8
BLACK
6
CONTINUOUS
10
1.10908
20
0.709921
11
1.1079
21
0.709242
0
LINE
8
BLACK
6
CONTINUOUS
10
1.1079
20
0.709242
11
1.10677
21
0.708494
0
LINE
8
BLACK
6
CONTINUOUS
10
1.10677
20
0.708494
11
1.09833
21
0.705682
0
LINE
8
BLACK
6
CONTINUOUS
10
1.09833
20
0.705682
11
1.09738
21
0.705625
0
LINE
8
BLACK
6
CONTINUOUS
10
1.09738
20
0.705625
11
1.09646
21
0.705379
0
LINE
8
BLACK
6
CONTINUOUS
10
1.09646
20
0.705379
11
1.09084
21
0.705379
0
LINE
8
BLACK
6
CONTINUOUS
10
1.09084
20
0.705379
11
1.08992
21
0.705625
0
LINE
8
BLACK
6
CONTINUOUS
10
1.08992
20
0.705625
11
1.08897
21
0.705682
0
LINE
8
BLACK
6
CONTINUOUS
10
1.08897
20
0.705682
11
1.08054
21
0.708494
0
LINE
8
BLACK
6
CONTINUOUS
10
1.08054
20
0.708494
11
1.0794
21
0.709242
0
LINE
8
BLACK
6
CONTINUOUS
10
1.0794
20
0.709242
11
1.07823
21
0.709921
0
LINE
8
BLACK
6
CONTINUOUS
10
1.07823
20
0.709921
11
1.0726
21
0.715545
0
LINE
8
BLACK
6
CONTINUOUS
10
1.0726
20
0.715545
11
1.07213
21
0.716369
0
LINE
8
BLACK
6
CONTINUOUS
10
1.07213
20
0.716369
11
1.0715
21
0.71708
0
LINE
8
BLACK
6
CONTINUOUS
10
1.0715
20
0.71708
11
1.06868
21
0.722704
0
LINE
8
BLACK
6
CONTINUOUS
10
1.06868
20
0.722704
11
1.06855
21
0.723343
0
LINE
8
BLACK
6
CONTINUOUS
10
1.06855
20
0.723343
11
1.06824
21
0.723913
0
LINE
8
BLACK
6
CONTINUOUS
10
1.06824
20
0.723913
11
1.06542
21
0.735162
0
LINE
8
BLACK
6
CONTINUOUS
10
1.06542
20
0.735162
11
1.06544
21
0.73589
0
LINE
8
BLACK
6
CONTINUOUS
10
1.06544
20
0.73589
11
1.06525
21
0.736594
0
LINE
8
BLACK
6
CONTINUOUS
10
1.06525
20
0.736594
11
1.06525
21
0.74503
0
LINE
8
BLACK
6
CONTINUOUS
10
1.06525
20
0.74503
11
1.06544
21
0.745734
0
LINE
8
BLACK
6
CONTINUOUS
10
1.06544
20
0.745734
11
1.06542
21
0.746463
0
LINE
8
BLACK
6
CONTINUOUS
10
1.06542
20
0.746463
11
1.06824
21
0.757711
0
LINE
8
BLACK
6
CONTINUOUS
10
1.06824
20
0.757711
11
1.06855
21
0.758281
0
LINE
8
BLACK
6
CONTINUOUS
10
1.06855
20
0.758281
11
1.06868
21
0.75892
0
LINE
8
BLACK
6
CONTINUOUS
10
1.06868
20
0.75892
11
1.0715
21
0.764544
0
LINE
8
BLACK
6
CONTINUOUS
10
1.0715
20
0.764544
11
1.07213
21
0.765256
0
LINE
8
BLACK
6
CONTINUOUS
10
1.07213
20
0.765256
11
1.0726
21
0.766079
0
LINE
8
BLACK
6
CONTINUOUS
10
1.0726
20
0.766079
11
1.07823
21
0.771703
0
LINE
8
BLACK
6
CONTINUOUS
10
1.07823
20
0.771703
11
1.0794
21
0.772382
0
LINE
8
BLACK
6
CONTINUOUS
10
1.0794
20
0.772382
11
1.08054
21
0.77313
0
LINE
8
BLACK
6
CONTINUOUS
10
1.08054
20
0.77313
11
1.08897
21
0.775942
0
LINE
8
BLACK
6
CONTINUOUS
10
1.08897
20
0.775942
11
1.08992
21
0.775999
0
LINE
8
BLACK
6
CONTINUOUS
10
1.08992
20
0.775999
11
1.09084
21
0.776245
0
LINE
8
BLACK
6
CONTINUOUS
10
1.09084
20
0.776245
11
1.09646
21
0.776245
0
LINE
8
BLACK
6
CONTINUOUS
10
1.09646
20
0.776245
11
1.09738
21
0.775999
0
LINE
8
BLACK
6
CONTINUOUS
10
2.45563
20
0.828378
11
2.45732
21
0.825827
0
LINE
8
BLACK
6
CONTINUOUS
10
2.45732
20
0.825827
11
2.4575
21
0.822776
0
LINE
8
BLACK
6
CONTINUOUS
10
2.4575
20
0.822776
11
2.45613
21
0.820041
0
LINE
8
BLACK
6
CONTINUOUS
10
2.45613
20
0.820041
11
2.45358
21
0.818357
0
LINE
8
BLACK
6
CONTINUOUS
10
2.45358
20
0.818357
11
2.44075
21
0.814079
0
LINE
8
BLACK
6
CONTINUOUS
10
2.44075
20
0.814079
11
2.44075
21
0.79447
0
LINE
8
BLACK
6
CONTINUOUS
10
2.44075
20
0.79447
11
2.45358
21
0.790192
0
LINE
8
BLACK
6
CONTINUOUS
10
2.45358
20
0.790192
11
2.45613
21
0.788508
0
LINE
8
BLACK
6
CONTINUOUS
10
2.45613
20
0.788508
11
2.4575
21
0.785773
0
LINE
8
BLACK
6
CONTINUOUS
10
2.4575
20
0.785773
11
2.45732
21
0.782722
0
LINE
8
BLACK
6
CONTINUOUS
10
2.45732
20
0.782722
11
2.45563
21
0.780171
0
LINE
8
BLACK
6
CONTINUOUS
10
2.45563
20
0.780171
11
2.4529
21
0.778804
0
LINE
8
BLACK
6
CONTINUOUS
10
2.4529
20
0.778804
11
2.44985
21
0.778987
0
LINE
8
BLACK
6
CONTINUOUS
10
2.44985
20
0.778987
11
2.39079
21
0.798672
0
LINE
8
BLACK
6
CONTINUOUS
10
2.39079
20
0.798672
11
2.3898
21
0.799325
0
LINE
8
BLACK
6
CONTINUOUS
10
2.3898
20
0.799325
11
2.38874
21
0.799856
0
LINE
8
BLACK
6
CONTINUOUS
10
2.38874
20
0.799856
11
2.38854
21
0.800157
0
LINE
8
BLACK
6
CONTINUOUS
10
2.38854
20
0.800157
11
2.38824
21
0.800356
0
LINE
8
BLACK
6
CONTINUOUS
10
2.38824
20
0.800356
11
2.38771
21
0.801417
0
LINE
8
BLACK
6
CONTINUOUS
10
2.38771
20
0.801417
11
2.38706
21
0.802407
0
LINE
8
BLACK
6
CONTINUOUS
10
2.38706
20
0.802407
11
2.38704
21
0.802767
0
LINE
8
BLACK
6
CONTINUOUS
10
2.38704
20
0.802767
11
2.38687
21
0.803091
0
LINE
8
BLACK
6
CONTINUOUS
10
2.38687
20
0.803091
11
2.38695
21
0.804274
0
LINE
8
BLACK
6
CONTINUOUS
10
2.38695
20
0.804274
11
2.38687
21
0.805458
0
LINE
8
BLACK
6
CONTINUOUS
10
2.38687
20
0.805458
11
2.38704
21
0.805781
0
LINE
8
BLACK
6
CONTINUOUS
10
2.38704
20
0.805781
11
2.38706
21
0.806142
0
LINE
8
BLACK
6
CONTINUOUS
10
2.38706
20
0.806142
11
2.38771
21
0.807132
0
LINE
8
BLACK
6
CONTINUOUS
10
2.38771
20
0.807132
11
2.38824
21
0.808193
0
LINE
8
BLACK
6
CONTINUOUS
10
2.38824
20
0.808193
11
2.38854
21
0.808392
0
LINE
8
BLACK
6
CONTINUOUS
10
2.38854
20
0.808392
11
2.38874
21
0.808693
0
LINE
8
BLACK
6
CONTINUOUS
10
2.38874
20
0.808693
11
2.3898
21
0.809223
0
LINE
8
BLACK
6
CONTINUOUS
10
2.3898
20
0.809223
11
2.39079
21
0.809877
0
LINE
8
BLACK
6
CONTINUOUS
10
2.39079
20
0.809877
11
2.44985
21
0.829562
0
LINE
8
BLACK
6
CONTINUOUS
10
2.44985
20
0.829562
11
2.4529
21
0.829745
0
LINE
8
BLACK
6
CONTINUOUS
10
2.4529
20
0.829745
11
2.45563
21
0.828378
0
LINE
8
BLACK
6
CONTINUOUS
10
2.41134
20
0.804274
11
2.42894
21
0.798407
0
LINE
8
BLACK
6
CONTINUOUS
10
2.42894
20
0.798407
11
2.42894
21
0.810142
0
LINE
8
BLACK
6
CONTINUOUS
10
2.42894
20
0.810142
11
2.41134
21
0.804274
0
LINE
8
BLACK
6
CONTINUOUS
10
1.0977
20
0.888316
11
1.09935
21
0.885737
0
LINE
8
BLACK
6
CONTINUOUS
10
1.09935
20
0.885737
11
1.09948
21
0.882683
0
LINE
8
BLACK
6
CONTINUOUS
10
1.09948
20
0.882683
11
1.09545
21
0.86456
0
LINE
8
BLACK
6
CONTINUOUS
10
1.09545
20
0.86456
11
1.09934
21
0.86456
0
LINE
8
BLACK
6
CONTINUOUS
10
1.09934
20
0.86456
11
1.10229
21
0.863769
0
LINE
8
BLACK
6
CONTINUOUS
10
1.10229
20
0.863769
11
1.10445
21
0.861607
0
LINE
8
BLACK
6
CONTINUOUS
10
1.10445
20
0.861607
11
1.10524
21
0.858655
0
LINE
8
BLACK
6
CONTINUOUS
10
1.10524
20
0.858655
11
1.10445
21
0.855702
0
LINE
8
BLACK
6
CONTINUOUS
10
1.10445
20
0.855702
11
1.10229
21
0.85354
0
LINE
8
BLACK
6
CONTINUOUS
10
1.10229
20
0.85354
11
1.09934
21
0.852749
0
LINE
8
BLACK
6
CONTINUOUS
10
1.09934
20
0.852749
11
1.09282
21
0.852749
0
LINE
8
BLACK
6
CONTINUOUS
10
1.09282
20
0.852749
11
1.08983
21
0.839251
0
LINE
8
BLACK
6
CONTINUOUS
10
1.08983
20
0.839251
11
1.09371
21
0.839251
0
LINE
8
BLACK
6
CONTINUOUS
10
1.09371
20
0.839251
11
1.09666
21
0.83846
0
LINE
8
BLACK
6
CONTINUOUS
10
1.09666
20
0.83846
11
1.09883
21
0.836298
0
LINE
8
BLACK
6
CONTINUOUS
10
1.09883
20
0.836298
11
1.09962
21
0.833345
0
LINE
8
BLACK
6
CONTINUOUS
10
1.09962
20
0.833345
11
1.09883
21
0.830393
0
LINE
8
BLACK
6
CONTINUOUS
10
1.09883
20
0.830393
11
1.09666
21
0.828231
0
LINE
8
BLACK
6
CONTINUOUS
10
1.09666
20
0.828231
11
1.09371
21
0.82744
0
LINE
8
BLACK
6
CONTINUOUS
10
1.09371
20
0.82744
11
1.0872
21
0.82744
0
LINE
8
BLACK
6
CONTINUOUS
10
1.0872
20
0.82744
11
1.0826
21
0.806755
0
LINE
8
BLACK
6
CONTINUOUS
10
1.0826
20
0.806755
11
1.08119
21
0.804044
0
LINE
8
BLACK
6
CONTINUOUS
10
1.08119
20
0.804044
11
1.07861
21
0.802403
0
LINE
8
BLACK
6
CONTINUOUS
10
1.07861
20
0.802403
11
1.07556
21
0.802271
0
LINE
8
BLACK
6
CONTINUOUS
10
1.07556
20
0.802271
11
1.07285
21
0.803684
0
LINE
8
BLACK
6
CONTINUOUS
10
1.07285
20
0.803684
11
1.07121
21
0.806263
0
LINE
8
BLACK
6
CONTINUOUS
10
1.07121
20
0.806263
11
1.07107
21
0.809317
0
LINE
8
BLACK
6
CONTINUOUS
10
1.07107
20
0.809317
11
1.0751
21
0.82744
0
LINE
8
BLACK
6
CONTINUOUS
10
1.0751
20
0.82744
11
1.06752
21
0.82744
0
LINE
8
BLACK
6
CONTINUOUS
10
1.06752
20
0.82744
11
1.06292
21
0.806755
0
LINE
8
BLACK
6
CONTINUOUS
10
1.06292
20
0.806755
11
1.06151
21
0.804044
0
LINE
8
BLACK
6
CONTINUOUS
10
1.06151
20
0.804044
11
1.05893
21
0.802403
0
LINE
8
BLACK
6
CONTINUOUS
10
1.05893
20
0.802403
11
1.05587
21
0.802271
0
LINE
8
BLACK
6
CONTINUOUS
10
1.05587
20
0.802271
11
1.05316
21
0.803684
0
LINE
8
BLACK
6
CONTINUOUS
10
1.05316
20
0.803684
11
1.05152
21
0.806263
0
LINE
8
BLACK
6
CONTINUOUS
10
1.05152
20
0.806263
11
1.05139
21
0.809317
0
LINE
8
BLACK
6
CONTINUOUS
10
1.05139
20
0.809317
11
1.05542
21
0.82744
0
LINE
8
BLACK
6
CONTINUOUS
10
1.05542
20
0.82744
11
1.05153
21
0.82744
0
LINE
8
BLACK
6
CONTINUOUS
10
1.05153
20
0.82744
11
1.04858
21
0.828231
0
LINE
8
BLACK
6
CONTINUOUS
10
1.04858
20
0.828231
11
1.04642
21
0.830393
0
LINE
8
BLACK
6
CONTINUOUS
10
1.04642
20
0.830393
11
1.04562
21
0.833345
0
LINE
8
BLACK
6
CONTINUOUS
10
1.04562
20
0.833345
11
1.04642
21
0.836298
0
LINE
8
BLACK
6
CONTINUOUS
10
1.04642
20
0.836298
11
1.04858
21
0.83846
0
LINE
8
BLACK
6
CONTINUOUS
10
1.04858
20
0.83846
11
1.05153
21
0.839251
0
LINE
8
BLACK
6
CONTINUOUS
10
1.05153
20
0.839251
11
1.05804
21
0.839251
0
LINE
8
BLACK
6
CONTINUOUS
10
1.05804
20
0.839251
11
1.06104
21
0.852749
0
LINE
8
BLACK
6
CONTINUOUS
10
1.06104
20
0.852749
11
1.05715
21
0.852749
0
LINE
8
BLACK
6
CONTINUOUS
10
1.05715
20
0.852749
11
1.0542
21
0.85354
0
LINE
8
BLACK
6
CONTINUOUS
10
1.0542
20
0.85354
11
1.05204
21
0.855702
0
LINE
8
BLACK
6
CONTINUOUS
10
1.05204
20
0.855702
11
1.05125
21
0.858655
0
LINE
8
BLACK
6
CONTINUOUS
10
1.05125
20
0.858655
11
1.05204
21
0.861607
0
LINE
8
BLACK
6
CONTINUOUS
10
1.05204
20
0.861607
11
1.0542
21
0.863769
0
LINE
8
BLACK
6
CONTINUOUS
10
1.0542
20
0.863769
11
1.05715
21
0.86456
0
LINE
8
BLACK
6
CONTINUOUS
10
1.05715
20
0.86456
11
1.06367
21
0.86456
0
LINE
8
BLACK
6
CONTINUOUS
10
1.06367
20
0.86456
11
1.06826
21
0.885245
0
LINE
8
BLACK
6
CONTINUOUS
10
1.06826
20
0.885245
11
1.06967
21
0.887956
0
LINE
8
BLACK
6
CONTINUOUS
10
1.06967
20
0.887956
11
1.07225
21
0.889597
0
LINE
8
BLACK
6
CONTINUOUS
10
1.07225
20
0.889597
11
1.07531
21
0.889729
0
LINE
8
BLACK
6
CONTINUOUS
10
1.07531
20
0.889729
11
1.07802
21
0.888316
0
LINE
8
BLACK
6
CONTINUOUS
10
1.07802
20
0.888316
11
1.07966
21
0.885737
0
LINE
8
BLACK
6
CONTINUOUS
10
1.07966
20
0.885737
11
1.07979
21
0.882683
0
LINE
8
BLACK
6
CONTINUOUS
10
1.07979
20
0.882683
11
1.07576
21
0.86456
0
LINE
8
BLACK
6
CONTINUOUS
10
1.07576
20
0.86456
11
1.08335
21
0.86456
0
LINE
8
BLACK
6
CONTINUOUS
10
1.08335
20
0.86456
11
1.08795
21
0.885245
0
LINE
8
BLACK
6
CONTINUOUS
10
1.08795
20
0.885245
11
1.08936
21
0.887956
0
LINE
8
BLACK
6
CONTINUOUS
10
1.08936
20
0.887956
11
1.09194
21
0.889597
0
LINE
8
BLACK
6
CONTINUOUS
10
1.09194
20
0.889597
11
1.09499
21
0.889729
0
LINE
8
BLACK
6
CONTINUOUS
10
1.09499
20
0.889729
11
1.0977
21
0.888316
0
LINE
8
BLACK
6
CONTINUOUS
10
1.07314
20
0.852749
11
1.07014
21
0.839251
0
LINE
8
BLACK
6
CONTINUOUS
10
1.07014
20
0.839251
11
1.07773
21
0.839251
0
LINE
8
BLACK
6
CONTINUOUS
10
1.07773
20
0.839251
11
1.08073
21
0.852749
0
LINE
8
BLACK
6
CONTINUOUS
10
1.08073
20
0.852749
11
1.07314
21
0.852749
0
LINE
8
BLACK
6
CONTINUOUS
10
1.26258
20
0.883454
11
1.26474
21
0.881292
0
LINE
8
BLACK
6
CONTINUOUS
10
1.26474
20
0.881292
11
1.26553
21
0.87834
0
LINE
8
BLACK
6
CONTINUOUS
10
1.26553
20
0.87834
11
1.26474
21
0.875387
0
LINE
8
BLACK
6
CONTINUOUS
10
1.26474
20
0.875387
11
1.26258
21
0.873225
0
LINE
8
BLACK
6
CONTINUOUS
10
1.26258
20
0.873225
11
1.25963
21
0.872434
0
LINE
8
BLACK
6
CONTINUOUS
10
1.25963
20
0.872434
11
1.24866
21
0.872434
0
LINE
8
BLACK
6
CONTINUOUS
10
1.24866
20
0.872434
11
1.24866
21
0.819285
0
LINE
8
BLACK
6
CONTINUOUS
10
1.24866
20
0.819285
11
1.24787
21
0.816332
0
LINE
8
BLACK
6
CONTINUOUS
10
1.24787
20
0.816332
11
1.24571
21
0.81417
0
LINE
8
BLACK
6
CONTINUOUS
10
1.24571
20
0.81417
11
1.24276
21
0.813379
0
LINE
8
BLACK
6
CONTINUOUS
10
1.24276
20
0.813379
11
1.2398
21
0.81417
0
LINE
8
BLACK
6
CONTINUOUS
10
1.2398
20
0.81417
11
1.23764
21
0.816332
0
LINE
8
BLACK
6
CONTINUOUS
10
1.23764
20
0.816332
11
1.23685
21
0.819285
0
LINE
8
BLACK
6
CONTINUOUS
10
1.23685
20
0.819285
11
1.23685
21
0.872434
0
LINE
8
BLACK
6
CONTINUOUS
10
1.23685
20
0.872434
11
1.22588
21
0.872434
0
LINE
8
BLACK
6
CONTINUOUS
10
1.22588
20
0.872434
11
1.22293
21
0.873225
0
LINE
8
BLACK
6
CONTINUOUS
10
1.22293
20
0.873225
11
1.22077
21
0.875387
0
LINE
8
BLACK
6
CONTINUOUS
10
1.22077
20
0.875387
11
1.21998
21
0.87834
0
LINE
8
BLACK
6
CONTINUOUS
10
1.21998
20
0.87834
11
1.22077
21
0.881292
0
LINE
8
BLACK
6
CONTINUOUS
10
1.22077
20
0.881292
11
1.22293
21
0.883454
0
LINE
8
BLACK
6
CONTINUOUS
10
1.22293
20
0.883454
11
1.22588
21
0.884245
0
LINE
8
BLACK
6
CONTINUOUS
10
1.22588
20
0.884245
11
1.25963
21
0.884245
0
LINE
8
BLACK
6
CONTINUOUS
10
1.25963
20
0.884245
11
1.26258
21
0.883454
0
LINE
8
BLACK
6
CONTINUOUS
10
1.20149
20
0.883999
11
1.20244
21
0.883942
0
LINE
8
BLACK
6
CONTINUOUS
10
1.20244
20
0.883942
11
1.21088
21
0.88113
0
LINE
8
BLACK
6
CONTINUOUS
10
1.21088
20
0.88113
11
1.21343
21
0.879446
0
LINE
8
BLACK
6
CONTINUOUS
10
1.21343
20
0.879446
11
1.2148
21
0.876711
0
LINE
8
BLACK
6
CONTINUOUS
10
1.2148
20
0.876711
11
1.21461
21
0.87366
0
LINE
8
BLACK
6
CONTINUOUS
10
1.21461
20
0.87366
11
1.21293
21
0.871109
0
LINE
8
BLACK
6
CONTINUOUS
10
1.21293
20
0.871109
11
1.21019
21
0.869742
0
LINE
8
BLACK
6
CONTINUOUS
10
1.21019
20
0.869742
11
1.20714
21
0.869925
0
LINE
8
BLACK
6
CONTINUOUS
10
1.20714
20
0.869925
11
1.19962
21
0.872434
0
LINE
8
BLACK
6
CONTINUOUS
10
1.19962
20
0.872434
11
1.18791
21
0.872434
0
LINE
8
BLACK
6
CONTINUOUS
10
1.18791
20
0.872434
11
1.18439
21
0.870674
0
LINE
8
BLACK
6
CONTINUOUS
10
1.18439
20
0.870674
11
1.18293
21
0.869217
0
LINE
8
BLACK
6
CONTINUOUS
10
1.18293
20
0.869217
11
1.18117
21
0.865697
0
LINE
8
BLACK
6
CONTINUOUS
10
1.18117
20
0.865697
11
1.18117
21
0.862861
0
LINE
8
BLACK
6
CONTINUOUS
10
1.18117
20
0.862861
11
1.18293
21
0.859341
0
LINE
8
BLACK
6
CONTINUOUS
10
1.18293
20
0.859341
11
1.18439
21
0.857884
0
LINE
8
BLACK
6
CONTINUOUS
10
1.18439
20
0.857884
11
1.18857
21
0.85579
0
LINE
8
BLACK
6
CONTINUOUS
10
1.18857
20
0.85579
11
1.19919
21
0.853135
0
LINE
8
BLACK
6
CONTINUOUS
10
1.19919
20
0.853135
11
1.19976
21
0.852819
0
LINE
8
BLACK
6
CONTINUOUS
10
1.19976
20
0.852819
11
1.2004
21
0.852688
0
LINE
8
BLACK
6
CONTINUOUS
10
1.2004
20
0.852688
11
1.20603
21
0.849876
0
LINE
8
BLACK
6
CONTINUOUS
10
1.20603
20
0.849876
11
1.20674
21
0.849245
0
LINE
8
BLACK
6
CONTINUOUS
10
1.20674
20
0.849245
11
1.20756
21
0.84877
0
LINE
8
BLACK
6
CONTINUOUS
10
1.20756
20
0.84877
11
1.21037
21
0.845958
0
LINE
8
BLACK
6
CONTINUOUS
10
1.21037
20
0.845958
11
1.21085
21
0.845134
0
LINE
8
BLACK
6
CONTINUOUS
10
1.21085
20
0.845134
11
1.21148
21
0.844423
0
LINE
8
BLACK
6
CONTINUOUS
10
1.21148
20
0.844423
11
1.21429
21
0.838799
0
LINE
8
BLACK
6
CONTINUOUS
10
1.21429
20
0.838799
11
1.21456
21
0.837469
0
LINE
8
BLACK
6
CONTINUOUS
10
1.21456
20
0.837469
11
1.21492
21
0.836157
0
LINE
8
BLACK
6
CONTINUOUS
10
1.21492
20
0.836157
11
1.21492
21
0.830533
0
LINE
8
BLACK
6
CONTINUOUS
10
1.21492
20
0.830533
11
1.21456
21
0.829222
0
LINE
8
BLACK
6
CONTINUOUS
10
1.21456
20
0.829222
11
1.21429
21
0.827892
0
LINE
8
BLACK
6
CONTINUOUS
10
1.21429
20
0.827892
11
1.21148
21
0.822268
0
LINE
8
BLACK
6
CONTINUOUS
10
1.21148
20
0.822268
11
1.21085
21
0.821556
0
LINE
8
BLACK
6
CONTINUOUS
10
1.21085
20
0.821556
11
1.21037
21
0.820733
0
LINE
8
BLACK
6
CONTINUOUS
10
1.21037
20
0.820733
11
1.20756
21
0.817921
0
LINE
8
BLACK
6
CONTINUOUS
10
1.20756
20
0.817921
11
1.20674
21
0.817446
0
LINE
8
BLACK
6
CONTINUOUS
10
1.20674
20
0.817446
11
1.20603
21
0.816815
0
LINE
8
BLACK
6
CONTINUOUS
10
1.20603
20
0.816815
11
1.2004
21
0.814003
0
LINE
8
BLACK
6
CONTINUOUS
10
1.2004
20
0.814003
11
1.19907
21
0.81373
0
LINE
8
BLACK
6
CONTINUOUS
10
1.19907
20
0.81373
11
1.19776
21
0.813379
0
LINE
8
BLACK
6
CONTINUOUS
10
1.19776
20
0.813379
11
1.1837
21
0.813379
0
LINE
8
BLACK
6
CONTINUOUS
10
1.1837
20
0.813379
11
1.18278
21
0.813625
0
LINE
8
BLACK
6
CONTINUOUS
10
1.18278
20
0.813625
11
1.18183
21
0.813682
0
LINE
8
BLACK
6
CONTINUOUS
10
1.18183
20
0.813682
11
1.1734
21
0.816494
0
LINE
8
BLACK
6
CONTINUOUS
10
1.1734
20
0.816494
11
1.17085
21
0.818179
0
LINE
8
BLACK
6
CONTINUOUS
10
1.17085
20
0.818179
11
1.16948
21
0.820913
0
LINE
8
BLACK
6
CONTINUOUS
10
1.16948
20
0.820913
11
1.16966
21
0.823964
0
LINE
8
BLACK
6
CONTINUOUS
10
1.16966
20
0.823964
11
1.17135
21
0.826515
0
LINE
8
BLACK
6
CONTINUOUS
10
1.17135
20
0.826515
11
1.17408
21
0.827882
0
LINE
8
BLACK
6
CONTINUOUS
10
1.17408
20
0.827882
11
1.17713
21
0.827699
0
LINE
8
BLACK
6
CONTINUOUS
10
1.17713
20
0.827699
11
1.18466
21
0.82519
0
LINE
8
BLACK
6
CONTINUOUS
10
1.18466
20
0.82519
11
1.19637
21
0.82519
0
LINE
8
BLACK
6
CONTINUOUS
10
1.19637
20
0.82519
11
1.19989
21
0.82695
0
LINE
8
BLACK
6
CONTINUOUS
10
1.19989
20
0.82695
11
1.20134
21
0.828407
0
LINE
8
BLACK
6
CONTINUOUS
10
1.20134
20
0.828407
11
1.2031
21
0.831927
0
LINE
8
BLACK
6
CONTINUOUS
10
1.2031
20
0.831927
11
1.2031
21
0.834763
0
LINE
8
BLACK
6
CONTINUOUS
10
1.2031
20
0.834763
11
1.20134
21
0.838284
0
LINE
8
BLACK
6
CONTINUOUS
10
1.20134
20
0.838284
11
1.19989
21
0.83974
0
LINE
8
BLACK
6
CONTINUOUS
10
1.19989
20
0.83974
11
1.1957
21
0.841834
0
LINE
8
BLACK
6
CONTINUOUS
10
1.1957
20
0.841834
11
1.18508
21
0.844489
0
LINE
8
BLACK
6
CONTINUOUS
10
1.18508
20
0.844489
11
1.18451
21
0.844805
0
LINE
8
BLACK
6
CONTINUOUS
10
1.18451
20
0.844805
11
1.18387
21
0.844936
0
LINE
8
BLACK
6
CONTINUOUS
10
1.18387
20
0.844936
11
1.17825
21
0.847748
0
LINE
8
BLACK
6
CONTINUOUS
10
1.17825
20
0.847748
11
1.17754
21
0.848379
0
LINE
8
BLACK
6
CONTINUOUS
10
1.17754
20
0.848379
11
1.17671
21
0.848855
0
LINE
8
BLACK
6
CONTINUOUS
10
1.17671
20
0.848855
11
1.1739
21
0.851667
0
LINE
8
BLACK
6
CONTINUOUS
10
1.1739
20
0.851667
11
1.17343
21
0.85249
0
LINE
8
BLACK
6
CONTINUOUS
10
1.17343
20
0.85249
11
1.17279
21
0.853201
0
LINE
8
BLACK
6
CONTINUOUS
10
1.17279
20
0.853201
11
1.16998
21
0.858826
0
LINE
8
BLACK
6
CONTINUOUS
10
1.16998
20
0.858826
11
1.16971
21
0.860156
0
LINE
8
BLACK
6
CONTINUOUS
10
1.16971
20
0.860156
11
1.16936
21
0.861467
0
LINE
8
BLACK
6
CONTINUOUS
10
1.16936
20
0.861467
11
1.16936
21
0.867091
0
LINE
8
BLACK
6
CONTINUOUS
10
1.16936
20
0.867091
11
1.16971
21
0.868402
0
LINE
8
BLACK
6
CONTINUOUS
10
1.16971
20
0.868402
11
1.16998
21
0.869732
0
LINE
8
BLACK
6
CONTINUOUS
10
1.16998
20
0.869732
11
1.17279
21
0.875356
0
LINE
8
BLACK
6
CONTINUOUS
10
1.17279
20
0.875356
11
1.17343
21
0.876068
0
LINE
8
BLACK
6
CONTINUOUS
10
1.17343
20
0.876068
11
1.1739
21
0.876891
0
LINE
8
BLACK
6
CONTINUOUS
10
1.1739
20
0.876891
11
1.17671
21
0.879703
0
LINE
8
BLACK
6
CONTINUOUS
10
1.17671
20
0.879703
11
1.17754
21
0.880179
0
LINE
8
BLACK
6
CONTINUOUS
10
1.17754
20
0.880179
11
1.17825
21
0.88081
0
LINE
8
BLACK
6
CONTINUOUS
10
1.17825
20
0.88081
11
1.18387
21
0.883622
0
LINE
8
BLACK
6
CONTINUOUS
10
1.18387
20
0.883622
11
1.1852
21
0.883894
0
LINE
8
BLACK
6
CONTINUOUS
10
1.1852
20
0.883894
11
1.18651
21
0.884245
0
LINE
8
BLACK
6
CONTINUOUS
10
1.18651
20
0.884245
11
1.20057
21
0.884245
0
LINE
8
BLACK
6
CONTINUOUS
10
1.20057
20
0.884245
11
1.20149
21
0.883999
0
LINE
8
BLACK
6
CONTINUOUS
10
1.14283
20
0.883894
11
1.14416
21
0.883622
0
LINE
8
BLACK
6
CONTINUOUS
10
1.14416
20
0.883622
11
1.14978
21
0.88081
0
LINE
8
BLACK
6
CONTINUOUS
10
1.14978
20
0.88081
11
1.1505
21
0.880179
0
LINE
8
BLACK
6
CONTINUOUS
10
1.1505
20
0.880179
11
1.15132
21
0.879703
0
LINE
8
BLACK
6
CONTINUOUS
10
1.15132
20
0.879703
11
1.15413
21
0.876891
0
LINE
8
BLACK
6
CONTINUOUS
10
1.15413
20
0.876891
11
1.15461
21
0.876068
0
LINE
8
BLACK
6
CONTINUOUS
10
1.15461
20
0.876068
11
1.15524
21
0.875356
0
LINE
8
BLACK
6
CONTINUOUS
10
1.15524
20
0.875356
11
1.15805
21
0.869732
0
LINE
8
BLACK
6
CONTINUOUS
10
1.15805
20
0.869732
11
1.15832
21
0.868402
0
LINE
8
BLACK
6
CONTINUOUS
10
1.15832
20
0.868402
11
1.15867
21
0.867091
0
LINE
8
BLACK
6
CONTINUOUS
10
1.15867
20
0.867091
11
1.15867
21
0.858655
0
LINE
8
BLACK
6
CONTINUOUS
10
1.15867
20
0.858655
11
1.15832
21
0.857343
0
LINE
8
BLACK
6
CONTINUOUS
10
1.15832
20
0.857343
11
1.15805
21
0.856014
0
LINE
8
BLACK
6
CONTINUOUS
10
1.15805
20
0.856014
11
1.15524
21
0.850389
0
LINE
8
BLACK
6
CONTINUOUS
10
1.15524
20
0.850389
11
1.15461
21
0.849678
0
LINE
8
BLACK
6
CONTINUOUS
10
1.15461
20
0.849678
11
1.15413
21
0.848855
0
LINE
8
BLACK
6
CONTINUOUS
10
1.15413
20
0.848855
11
1.15132
21
0.846042
0
LINE
8
BLACK
6
CONTINUOUS
10
1.15132
20
0.846042
11
1.1505
21
0.845567
0
LINE
8
BLACK
6
CONTINUOUS
10
1.1505
20
0.845567
11
1.14978
21
0.844936
0
LINE
8
BLACK
6
CONTINUOUS
10
1.14978
20
0.844936
11
1.14416
21
0.842124
0
LINE
8
BLACK
6
CONTINUOUS
10
1.14416
20
0.842124
11
1.14401
21
0.842093
0
LINE
8
BLACK
6
CONTINUOUS
10
1.14401
20
0.842093
11
1.15761
21
0.822671
0
LINE
8
BLACK
6
CONTINUOUS
10
1.15761
20
0.822671
11
1.15865
21
0.819798
0
LINE
8
BLACK
6
CONTINUOUS
10
1.15865
20
0.819798
11
1.15812
21
0.816788
0
LINE
8
BLACK
6
CONTINUOUS
10
1.15812
20
0.816788
11
1.15615
21
0.814447
0
LINE
8
BLACK
6
CONTINUOUS
10
1.15615
20
0.814447
11
1.15328
21
0.813401
0
LINE
8
BLACK
6
CONTINUOUS
10
1.15328
20
0.813401
11
1.15027
21
0.813933
0
LINE
8
BLACK
6
CONTINUOUS
10
1.15027
20
0.813933
11
1.14793
21
0.815898
0
LINE
8
BLACK
6
CONTINUOUS
10
1.14793
20
0.815898
11
1.13001
21
0.841501
0
LINE
8
BLACK
6
CONTINUOUS
10
1.13001
20
0.841501
11
1.12493
21
0.841501
0
LINE
8
BLACK
6
CONTINUOUS
10
1.12493
20
0.841501
11
1.12493
21
0.819285
0
LINE
8
BLACK
6
CONTINUOUS
10
1.12493
20
0.819285
11
1.12414
21
0.816332
0
LINE
8
BLACK
6
CONTINUOUS
10
1.12414
20
0.816332
11
1.12197
21
0.81417
0
LINE
8
BLACK
6
CONTINUOUS
10
1.12197
20
0.81417
11
1.11902
21
0.813379
0
LINE
8
BLACK
6
CONTINUOUS
10
1.11902
20
0.813379
11
1.11607
21
0.81417
0
LINE
8
BLACK
6
CONTINUOUS
10
1.11607
20
0.81417
11
1.11391
21
0.816332
0
LINE
8
BLACK
6
CONTINUOUS
10
1.11391
20
0.816332
11
1.11312
21
0.819285
0
LINE
8
BLACK
6
CONTINUOUS
10
1.11312
20
0.819285
11
1.11312
21
0.87834
0
LINE
8
BLACK
6
CONTINUOUS
10
1.11312
20
0.87834
11
1.11391
21
0.881292
0
LINE
8
BLACK
6
CONTINUOUS
10
1.11391
20
0.881292
11
1.11607
21
0.883454
0
LINE
8
BLACK
6
CONTINUOUS
10
1.11607
20
0.883454
11
1.11902
21
0.884245
0
LINE
8
BLACK
6
CONTINUOUS
10
1.11902
20
0.884245
11
1.14152
21
0.884245
0
LINE
8
BLACK
6
CONTINUOUS
10
1.14152
20
0.884245
11
1.14283
21
0.883894
0
LINE
8
BLACK
6
CONTINUOUS
10
1.12493
20
0.872434
11
1.12493
21
0.853312
0
LINE
8
BLACK
6
CONTINUOUS
10
1.12493
20
0.853312
11
1.14012
21
0.853312
0
LINE
8
BLACK
6
CONTINUOUS
10
1.14012
20
0.853312
11
1.14364
21
0.855072
0
LINE
8
BLACK
6
CONTINUOUS
10
1.14364
20
0.855072
11
1.1451
21
0.856529
0
LINE
8
BLACK
6
CONTINUOUS
10
1.1451
20
0.856529
11
1.14686
21
0.860049
0
LINE
8
BLACK
6
CONTINUOUS
10
1.14686
20
0.860049
11
1.14686
21
0.865697
0
LINE
8
BLACK
6
CONTINUOUS
10
1.14686
20
0.865697
11
1.1451
21
0.869217
0
LINE
8
BLACK
6
CONTINUOUS
10
1.1451
20
0.869217
11
1.14364
21
0.870674
0
LINE
8
BLACK
6
CONTINUOUS
10
1.14364
20
0.870674
11
1.14012
21
0.872434
0
LINE
8
BLACK
6
CONTINUOUS
10
1.14012
20
0.872434
11
1.12493
21
0.872434
0
LINE
8
BLACK
6
CONTINUOUS
10
0.79268
20
0.834399
11
0.792391
21
0.835095
0
LINE
8
BLACK
6
CONTINUOUS
10
0.792391
20
0.835095
11
0.79268
21
0.835791
0
LINE
8
BLACK
6
CONTINUOUS
10
0.79268
20
0.835791
11
0.793376
21
0.836079
0
LINE
8
BLACK
6
CONTINUOUS
10
0.793376
20
0.836079
11
0.798016
21
0.836079
0
LINE
8
BLACK
6
CONTINUOUS
10
0.798016
20
0.836079
11
0.798016
21
0.851529
0
LINE
8
BLACK
6
CONTINUOUS
10
0.798016
20
0.851529
11
0.797944
21
0.851422
0
LINE
8
BLACK
6
CONTINUOUS
10
0.797944
20
0.851422
11
0.79786
21
0.851365
0
LINE
8
BLACK
6
CONTINUOUS
10
0.79786
20
0.851365
11
0.797821
21
0.851272
0
LINE
8
BLACK
6
CONTINUOUS
10
0.797821
20
0.851272
11
0.795946
21
0.849397
0
LINE
8
BLACK
6
CONTINUOUS
10
0.795946
20
0.849397
11
0.795797
21
0.849335
0
LINE
8
BLACK
6
CONTINUOUS
10
0.795797
20
0.849335
11
0.795691
21
0.849213
0
LINE
8
BLACK
6
CONTINUOUS
10
0.795691
20
0.849213
11
0.793816
21
0.848275
0
LINE
8
BLACK
6
CONTINUOUS
10
0.793816
20
0.848275
11
0.793064
21
0.848222
0
LINE
8
BLACK
6
CONTINUOUS
10
0.793064
20
0.848222
11
0.792495
21
0.848715
0
LINE
8
BLACK
6
CONTINUOUS
10
0.792495
20
0.848715
11
0.792442
21
0.849467
0
LINE
8
BLACK
6
CONTINUOUS
10
0.792442
20
0.849467
11
0.792936
21
0.850036
0
LINE
8
BLACK
6
CONTINUOUS
10
0.792936
20
0.850036
11
0.794667
21
0.850902
0
LINE
8
BLACK
6
CONTINUOUS
10
0.794667
20
0.850902
11
0.79636
21
0.852595
0
LINE
8
BLACK
6
CONTINUOUS
10
0.79636
20
0.852595
11
0.798181
21
0.855326
0
LINE
8
BLACK
6
CONTINUOUS
10
0.798181
20
0.855326
11
0.798265
21
0.855382
0
LINE
8
BLACK
6
CONTINUOUS
10
0.798265
20
0.855382
11
0.798304
21
0.855476
0
LINE
8
BLACK
6
CONTINUOUS
10
0.798304
20
0.855476
11
0.798569
21
0.855586
0
LINE
8
BLACK
6
CONTINUOUS
10
0.798569
20
0.855586
11
0.798807
21
0.855745
0
LINE
8
BLACK
6
CONTINUOUS
10
0.798807
20
0.855745
11
0.798906
21
0.855725
0
LINE
8
BLACK
6
CONTINUOUS
10
0.798906
20
0.855725
11
0.799
21
0.855764
0
LINE
8
BLACK
6
CONTINUOUS
10
0.799
20
0.855764
11
0.799265
21
0.855654
0
LINE
8
BLACK
6
CONTINUOUS
10
0.799265
20
0.855654
11
0.799546
21
0.855599
0
LINE
8
BLACK
6
CONTINUOUS
10
0.799546
20
0.855599
11
0.799602
21
0.855515
0
LINE
8
BLACK
6
CONTINUOUS
10
0.799602
20
0.855515
11
0.799696
21
0.855476
0
LINE
8
BLACK
6
CONTINUOUS
10
0.799696
20
0.855476
11
0.799806
21
0.855211
0
LINE
8
BLACK
6
CONTINUOUS
10
0.799806
20
0.855211
11
0.799965
21
0.854973
0
LINE
8
BLACK
6
CONTINUOUS
10
0.799965
20
0.854973
11
0.799945
21
0.854873
0
LINE
8
BLACK
6
CONTINUOUS
10
0.799945
20
0.854873
11
0.799984
21
0.85478
0
LINE
8
BLACK
6
CONTINUOUS
10
0.799984
20
0.85478
11
0.799984
21
0.836079
0
LINE
8
BLACK
6
CONTINUOUS
10
0.799984
20
0.836079
11
0.804624
21
0.836079
0
LINE
8
BLACK
6
CONTINUOUS
10
0.804624
20
0.836079
11
0.80532
21
0.835791
0
LINE
8
BLACK
6
CONTINUOUS
10
0.80532
20
0.835791
11
0.805609
21
0.835095
0
LINE
8
BLACK
6
CONTINUOUS
10
0.805609
20
0.835095
11
0.80532
21
0.834399
0
LINE
8
BLACK
6
CONTINUOUS
10
0.80532
20
0.834399
11
0.804624
21
0.834111
0
LINE
8
BLACK
6
CONTINUOUS
10
0.804624
20
0.834111
11
0.793376
21
0.834111
0
LINE
8
BLACK
6
CONTINUOUS
10
0.793376
20
0.834111
11
0.79268
21
0.834399
0
LINE
8
BLACK
6
CONTINUOUS
10
2.45173
20
0.883292
11
2.45174
21
0.883296
0
LINE
8
BLACK
6
CONTINUOUS
10
2.45174
20
0.883296
11
2.45321
21
0.882896
0
LINE
8
BLACK
6
CONTINUOUS
10
2.45321
20
0.882896
11
2.45467
21
0.882505
0
LINE
8
BLACK
6
CONTINUOUS
10
2.45467
20
0.882505
11
2.45468
21
0.882495
0
LINE
8
BLACK
6
CONTINUOUS
10
2.45468
20
0.882495
11
2.45469
21
0.882491
0
LINE
8
BLACK
6
CONTINUOUS
10
2.45469
20
0.882491
11
2.45576
21
0.881413
0
LINE
8
BLACK
6
CONTINUOUS
10
2.45576
20
0.881413
11
2.45683
21
0.880343
0
LINE
8
BLACK
6
CONTINUOUS
10
2.45683
20
0.880343
11
2.45683
21
0.88033
0
LINE
8
BLACK
6
CONTINUOUS
10
2.45683
20
0.88033
11
2.45684
21
0.88032
0
LINE
8
BLACK
6
CONTINUOUS
10
2.45684
20
0.88032
11
2.45723
21
0.878851
0
LINE
8
BLACK
6
CONTINUOUS
10
2.45723
20
0.878851
11
2.45762
21
0.87739
0
LINE
8
BLACK
6
CONTINUOUS
10
2.45762
20
0.87739
11
2.45762
21
0.877377
0
LINE
8
BLACK
6
CONTINUOUS
10
2.45762
20
0.877377
11
2.45762
21
0.877364
0
LINE
8
BLACK
6
CONTINUOUS
10
2.45762
20
0.877364
11
2.45722
21
0.875898
0
LINE
8
BLACK
6
CONTINUOUS
10
2.45722
20
0.875898
11
2.45683
21
0.874438
0
LINE
8
BLACK
6
CONTINUOUS
10
2.45683
20
0.874438
11
2.45682
21
0.874428
0
LINE
8
BLACK
6
CONTINUOUS
10
2.45682
20
0.874428
11
2.45682
21
0.874415
0
LINE
8
BLACK
6
CONTINUOUS
10
2.45682
20
0.874415
11
2.45574
21
0.873348
0
LINE
8
BLACK
6
CONTINUOUS
10
2.45574
20
0.873348
11
2.45467
21
0.872276
0
LINE
8
BLACK
6
CONTINUOUS
10
2.45467
20
0.872276
11
2.45465
21
0.872272
0
LINE
8
BLACK
6
CONTINUOUS
10
2.45465
20
0.872272
11
2.45465
21
0.872263
0
LINE
8
BLACK
6
CONTINUOUS
10
2.45465
20
0.872263
11
2.4149
21
0.84955
0
LINE
8
BLACK
6
CONTINUOUS
10
2.4149
20
0.84955
11
2.45172
21
0.84955
0
LINE
8
BLACK
6
CONTINUOUS
10
2.45172
20
0.84955
11
2.45467
21
0.848759
0
LINE
8
BLACK
6
CONTINUOUS
10
2.45467
20
0.848759
11
2.45683
21
0.846597
0
LINE
8
BLACK
6
CONTINUOUS
10
2.45683
20
0.846597
11
2.45762
21
0.843645
0
LINE
8
BLACK
6
CONTINUOUS
10
2.45762
20
0.843645
11
2.45683
21
0.840692
0
LINE
8
BLACK
6
CONTINUOUS
10
2.45683
20
0.840692
11
2.45467
21
0.83853
0
LINE
8
BLACK
6
CONTINUOUS
10
2.45467
20
0.83853
11
2.45172
21
0.837739
0
LINE
8
BLACK
6
CONTINUOUS
10
2.45172
20
0.837739
11
2.39266
21
0.837739
0
LINE
8
BLACK
6
CONTINUOUS
10
2.39266
20
0.837739
11
2.39265
21
0.837743
0
LINE
8
BLACK
6
CONTINUOUS
10
2.39265
20
0.837743
11
2.39263
21
0.837739
0
LINE
8
BLACK
6
CONTINUOUS
10
2.39263
20
0.837739
11
2.39117
21
0.838139
0
LINE
8
BLACK
6
CONTINUOUS
10
2.39117
20
0.838139
11
2.38971
21
0.83853
0
LINE
8
BLACK
6
CONTINUOUS
10
2.38971
20
0.83853
11
2.3897
21
0.83854
0
LINE
8
BLACK
6
CONTINUOUS
10
2.3897
20
0.83854
11
2.38968
21
0.838543
0
LINE
8
BLACK
6
CONTINUOUS
10
2.38968
20
0.838543
11
2.38862
21
0.83962
0
LINE
8
BLACK
6
CONTINUOUS
10
2.38862
20
0.83962
11
2.38755
21
0.840692
0
LINE
8
BLACK
6
CONTINUOUS
10
2.38755
20
0.840692
11
2.38754
21
0.840705
0
LINE
8
BLACK
6
CONTINUOUS
10
2.38754
20
0.840705
11
2.38753
21
0.840715
0
LINE
8
BLACK
6
CONTINUOUS
10
2.38753
20
0.840715
11
2.38715
21
0.84218
0
LINE
8
BLACK
6
CONTINUOUS
10
2.38715
20
0.84218
11
2.38675
21
0.843645
0
LINE
8
BLACK
6
CONTINUOUS
10
2.38675
20
0.843645
11
2.38676
21
0.843658
0
LINE
8
BLACK
6
CONTINUOUS
10
2.38676
20
0.843658
11
2.38675
21
0.843671
0
LINE
8
BLACK
6
CONTINUOUS
10
2.38675
20
0.843671
11
2.38715
21
0.845137
0
LINE
8
BLACK
6
CONTINUOUS
10
2.38715
20
0.845137
11
2.38755
21
0.846597
0
LINE
8
BLACK
6
CONTINUOUS
10
2.38755
20
0.846597
11
2.38756
21
0.846607
0
LINE
8
BLACK
6
CONTINUOUS
10
2.38756
20
0.846607
11
2.38756
21
0.84662
0
LINE
8
BLACK
6
CONTINUOUS
10
2.38756
20
0.84662
11
2.38864
21
0.847687
0
LINE
8
BLACK
6
CONTINUOUS
10
2.38864
20
0.847687
11
2.38971
21
0.848759
0
LINE
8
BLACK
6
CONTINUOUS
10
2.38971
20
0.848759
11
2.38972
21
0.848762
0
LINE
8
BLACK
6
CONTINUOUS
10
2.38972
20
0.848762
11
2.38973
21
0.848772
0
LINE
8
BLACK
6
CONTINUOUS
10
2.38973
20
0.848772
11
2.42948
21
0.871485
0
LINE
8
BLACK
6
CONTINUOUS
10
2.42948
20
0.871485
11
2.39266
21
0.871485
0
LINE
8
BLACK
6
CONTINUOUS
10
2.39266
20
0.871485
11
2.38971
21
0.872276
0
LINE
8
BLACK
6
CONTINUOUS
10
2.38971
20
0.872276
11
2.38755
21
0.874438
0
LINE
8
BLACK
6
CONTINUOUS
10
2.38755
20
0.874438
11
2.38675
21
0.87739
0
LINE
8
BLACK
6
CONTINUOUS
10
2.38675
20
0.87739
11
2.38755
21
0.880343
0
LINE
8
BLACK
6
CONTINUOUS
10
2.38755
20
0.880343
11
2.38971
21
0.882505
0
LINE
8
BLACK
6
CONTINUOUS
10
2.38971
20
0.882505
11
2.39266
21
0.883296
0
LINE
8
BLACK
6
CONTINUOUS
10
2.39266
20
0.883296
11
2.45172
21
0.883296
0
LINE
8
BLACK
6
CONTINUOUS
10
2.45172
20
0.883296
11
2.45173
21
0.883292
0
LINE
8
BLACK
6
CONTINUOUS
10
2.39561
20
0.935935
11
2.39777
21
0.933774
0
LINE
8
BLACK
6
CONTINUOUS
10
2.39777
20
0.933774
11
2.39857
21
0.930821
0
LINE
8
BLACK
6
CONTINUOUS
10
2.39857
20
0.930821
11
2.39857
21
0.919854
0
LINE
8
BLACK
6
CONTINUOUS
10
2.39857
20
0.919854
11
2.45172
21
0.919854
0
LINE
8
BLACK
6
CONTINUOUS
10
2.45172
20
0.919854
11
2.45467
21
0.919063
0
LINE
8
BLACK
6
CONTINUOUS
10
2.45467
20
0.919063
11
2.45683
21
0.916901
0
LINE
8
BLACK
6
CONTINUOUS
10
2.45683
20
0.916901
11
2.45762
21
0.913948
0
LINE
8
BLACK
6
CONTINUOUS
10
2.45762
20
0.913948
11
2.45683
21
0.910995
0
LINE
8
BLACK
6
CONTINUOUS
10
2.45683
20
0.910995
11
2.45467
21
0.908834
0
LINE
8
BLACK
6
CONTINUOUS
10
2.45467
20
0.908834
11
2.45172
21
0.908043
0
LINE
8
BLACK
6
CONTINUOUS
10
2.45172
20
0.908043
11
2.39857
21
0.908043
0
LINE
8
BLACK
6
CONTINUOUS
10
2.39857
20
0.908043
11
2.39857
21
0.897075
0
LINE
8
BLACK
6
CONTINUOUS
10
2.39857
20
0.897075
11
2.39777
21
0.894123
0
LINE
8
BLACK
6
CONTINUOUS
10
2.39777
20
0.894123
11
2.39561
21
0.891961
0
LINE
8
BLACK
6
CONTINUOUS
10
2.39561
20
0.891961
11
2.39266
21
0.89117
0
LINE
8
BLACK
6
CONTINUOUS
10
2.39266
20
0.89117
11
2.38971
21
0.891961
0
LINE
8
BLACK
6
CONTINUOUS
10
2.38971
20
0.891961
11
2.38755
21
0.894123
0
LINE
8
BLACK
6
CONTINUOUS
10
2.38755
20
0.894123
11
2.38675
21
0.897075
0
LINE
8
BLACK
6
CONTINUOUS
10
2.38675
20
0.897075
11
2.38675
21
0.930821
0
LINE
8
BLACK
6
CONTINUOUS
10
2.38675
20
0.930821
11
2.38755
21
0.933774
0
LINE
8
BLACK
6
CONTINUOUS
10
2.38755
20
0.933774
11
2.38971
21
0.935935
0
LINE
8
BLACK
6
CONTINUOUS
10
2.38971
20
0.935935
11
2.39266
21
0.936727
0
LINE
8
BLACK
6
CONTINUOUS
10
2.39266
20
0.936727
11
2.39561
21
0.935935
0
LINE
8
BLACK
6
CONTINUOUS
10
2.45467
20
0.986554
11
2.45683
21
0.984393
0
LINE
8
BLACK
6
CONTINUOUS
10
2.45683
20
0.984393
11
2.45762
21
0.98144
0
LINE
8
BLACK
6
CONTINUOUS
10
2.45762
20
0.98144
11
2.45762
21
0.947694
0
LINE
8
BLACK
6
CONTINUOUS
10
2.45762
20
0.947694
11
2.45683
21
0.944741
0
LINE
8
BLACK
6
CONTINUOUS
10
2.45683
20
0.944741
11
2.45467
21
0.94258
0
LINE
8
BLACK
6
CONTINUOUS
10
2.45467
20
0.94258
11
2.45172
21
0.941789
0
LINE
8
BLACK
6
CONTINUOUS
10
2.45172
20
0.941789
11
2.44876
21
0.94258
0
LINE
8
BLACK
6
CONTINUOUS
10
2.44876
20
0.94258
11
2.4466
21
0.944741
0
LINE
8
BLACK
6
CONTINUOUS
10
2.4466
20
0.944741
11
2.44581
21
0.947694
0
LINE
8
BLACK
6
CONTINUOUS
10
2.44581
20
0.947694
11
2.44581
21
0.958661
0
LINE
8
BLACK
6
CONTINUOUS
10
2.44581
20
0.958661
11
2.40973
21
0.958661
0
LINE
8
BLACK
6
CONTINUOUS
10
2.40973
20
0.958661
11
2.4109
21
0.957494
0
LINE
8
BLACK
6
CONTINUOUS
10
2.4109
20
0.957494
11
2.41137
21
0.956671
0
LINE
8
BLACK
6
CONTINUOUS
10
2.41137
20
0.956671
11
2.412
21
0.955959
0
LINE
8
BLACK
6
CONTINUOUS
10
2.412
20
0.955959
11
2.41482
21
0.950335
0
LINE
8
BLACK
6
CONTINUOUS
10
2.41482
20
0.950335
11
2.41543
21
0.94734
0
LINE
8
BLACK
6
CONTINUOUS
10
2.41543
20
0.94734
11
2.41446
21
0.94444
0
LINE
8
BLACK
6
CONTINUOUS
10
2.41446
20
0.94444
11
2.41217
21
0.942412
0
LINE
8
BLACK
6
CONTINUOUS
10
2.41217
20
0.942412
11
2.40918
21
0.941799
0
LINE
8
BLACK
6
CONTINUOUS
10
2.40918
20
0.941799
11
2.40628
21
0.942766
0
LINE
8
BLACK
6
CONTINUOUS
10
2.40628
20
0.942766
11
2.40425
21
0.945053
0
LINE
8
BLACK
6
CONTINUOUS
10
2.40425
20
0.945053
11
2.40187
21
0.94982
0
LINE
8
BLACK
6
CONTINUOUS
10
2.40187
20
0.94982
11
2.39733
21
0.954353
0
LINE
8
BLACK
6
CONTINUOUS
10
2.39733
20
0.954353
11
2.38938
21
0.959653
0
LINE
8
BLACK
6
CONTINUOUS
10
2.38938
20
0.959653
11
2.3885
21
0.960663
0
LINE
8
BLACK
6
CONTINUOUS
10
2.3885
20
0.960663
11
2.38755
21
0.961614
0
LINE
8
BLACK
6
CONTINUOUS
10
2.38755
20
0.961614
11
2.3875
21
0.961803
0
LINE
8
BLACK
6
CONTINUOUS
10
2.3875
20
0.961803
11
2.38737
21
0.961949
0
LINE
8
BLACK
6
CONTINUOUS
10
2.38737
20
0.961949
11
2.3871
21
0.963268
0
LINE
8
BLACK
6
CONTINUOUS
10
2.3871
20
0.963268
11
2.38675
21
0.964567
0
LINE
8
BLACK
6
CONTINUOUS
10
2.38675
20
0.964567
11
2.38681
21
0.964756
0
LINE
8
BLACK
6
CONTINUOUS
10
2.38681
20
0.964756
11
2.38677
21
0.964947
0
LINE
8
BLACK
6
CONTINUOUS
10
2.38677
20
0.964947
11
2.3872
21
0.966221
0
LINE
8
BLACK
6
CONTINUOUS
10
2.3872
20
0.966221
11
2.38755
21
0.96752
0
LINE
8
BLACK
6
CONTINUOUS
10
2.38755
20
0.96752
11
2.38768
21
0.967658
0
LINE
8
BLACK
6
CONTINUOUS
10
2.38768
20
0.967658
11
2.38775
21
0.967843
0
LINE
8
BLACK
6
CONTINUOUS
10
2.38775
20
0.967843
11
2.38876
21
0.96873
0
LINE
8
BLACK
6
CONTINUOUS
10
2.38876
20
0.96873
11
2.38971
21
0.969681
0
LINE
8
BLACK
6
CONTINUOUS
10
2.38971
20
0.969681
11
2.3899
21
0.969732
0
LINE
8
BLACK
6
CONTINUOUS
10
2.3899
20
0.969732
11
2.39004
21
0.969861
0
LINE
8
BLACK
6
CONTINUOUS
10
2.39004
20
0.969861
11
2.39136
21
0.970124
0
LINE
8
BLACK
6
CONTINUOUS
10
2.39136
20
0.970124
11
2.39266
21
0.970472
0
LINE
8
BLACK
6
CONTINUOUS
10
2.39266
20
0.970472
11
2.44581
21
0.970472
0
LINE
8
BLACK
6
CONTINUOUS
10
2.44581
20
0.970472
11
2.44581
21
0.98144
0
LINE
8
BLACK
6
CONTINUOUS
10
2.44581
20
0.98144
11
2.4466
21
0.984393
0
LINE
8
BLACK
6
CONTINUOUS
10
2.4466
20
0.984393
11
2.44876
21
0.986554
0
LINE
8
BLACK
6
CONTINUOUS
10
2.44876
20
0.986554
11
2.45172
21
0.987345
0
LINE
8
BLACK
6
CONTINUOUS
10
2.45172
20
0.987345
11
2.45467
21
0.986554
  0
ENDSEC
  0
EOF
