  0
SECTION
  2
HEADER
  9
$ANGBASE
  50
0.0
  9
$ANGDIR
  70
1
  9
$MEASUREMENT
  70
0
  0
ENDSEC
  0
SECTION
  2
TABLES
  0
TABLE
  2
LTYPE
  70
4
  0
LTYPE
  5
40F
  2
CONTINUOUS
  70
0
  3
Solid line
  72
65
  73
0
  40
0.0
  0
LTYPE
  5
410
  2
DASHDOT
 70
0
  3
Dash Dot ____ _ ____ _
 72
65
 73
4
 40
2.0
 49
1.25
 49
-0.25
 49
0.25
 49
-0.25
  0
LTYPE
  5
411
  2
DASHED
 70
0
  3
Dashed __ __ __ __ __
 72
65
 73
2
 40
0.75
 49
0.5
 49
-0.25
  0
LTYPE
  5
43B
  2
DOTTED
 70
0
  3
Dotted .  .  .  .
 72
65
 73
2
 40
0.2
 49
0.0
 49
-0.2
  0
ENDTAB
  0
TABLE
  2
STYLE
  70
4
  0
STYLE
  2
KICAD
  70
0
  40
0
  41
1
  42
1
  50
0
  71
0
  3
isocp.shx
  0
STYLE
  2
KICADB
  70
0
  40
0
  41
1
  42
1
  50
0
  71
0
  3
isocp.shx
  0
STYLE
  2
KICADI
  70
0
  40
0
  41
1
  42
1
  50
15
  71
0
  3
isocp.shx
  0
STYLE
  2
KICADBI
  70
0
  40
0
  41
1
  42
1
  50
15
  71
0
  3
isocp.shx
  0
ENDTAB
  0
TABLE
  2
LAYER
  70
1
  0
LAYER
  2
BLACK
  70
0
  62
7
  6
CONTINUOUS
  0
ENDTAB
  0
ENDSEC
  0
SECTION
  2
ENTITIES
0
LINE
8
BLACK
6
CONTINUOUS
10
3.29732
20
0.378035
11
3.29887
21
0.376737
0
LINE
8
BLACK
6
CONTINUOUS
10
3.29887
20
0.376737
11
3.29922
21
0.374748
0
LINE
8
BLACK
6
CONTINUOUS
10
3.29922
20
0.374748
11
3.29821
21
0.372999
0
LINE
8
BLACK
6
CONTINUOUS
10
3.29821
20
0.372999
11
3.29631
21
0.372308
0
LINE
8
BLACK
6
CONTINUOUS
10
3.29631
20
0.372308
11
3.28052
21
0.372308
0
LINE
8
BLACK
6
CONTINUOUS
10
3.28052
20
0.372308
11
3.28052
21
0.359466
0
LINE
8
BLACK
6
CONTINUOUS
10
3.28052
20
0.359466
11
3.29069
21
0.359466
0
LINE
8
BLACK
6
CONTINUOUS
10
3.29069
20
0.359466
11
3.2917
21
0.359288
0
LINE
8
BLACK
6
CONTINUOUS
10
3.2917
20
0.359288
11
3.29324
21
0.357989
0
LINE
8
BLACK
6
CONTINUOUS
10
3.29324
20
0.357989
11
3.29359
21
0.356
0
LINE
8
BLACK
6
CONTINUOUS
10
3.29359
20
0.356
11
3.29258
21
0.354251
0
LINE
8
BLACK
6
CONTINUOUS
10
3.29258
20
0.354251
11
3.29069
21
0.35356
0
LINE
8
BLACK
6
CONTINUOUS
10
3.29069
20
0.35356
11
3.28052
21
0.35356
0
LINE
8
BLACK
6
CONTINUOUS
10
3.28052
20
0.35356
11
3.28052
21
0.338843
0
LINE
8
BLACK
6
CONTINUOUS
10
3.28052
20
0.338843
11
3.29631
21
0.338843
0
LINE
8
BLACK
6
CONTINUOUS
10
3.29631
20
0.338843
11
3.29732
21
0.338665
0
LINE
8
BLACK
6
CONTINUOUS
10
3.29732
20
0.338665
11
3.29887
21
0.337367
0
LINE
8
BLACK
6
CONTINUOUS
10
3.29887
20
0.337367
11
3.29922
21
0.335378
0
LINE
8
BLACK
6
CONTINUOUS
10
3.29922
20
0.335378
11
3.29821
21
0.333629
0
LINE
8
BLACK
6
CONTINUOUS
10
3.29821
20
0.333629
11
3.29631
21
0.332938
0
LINE
8
BLACK
6
CONTINUOUS
10
3.29631
20
0.332938
11
3.27756
21
0.332938
0
LINE
8
BLACK
6
CONTINUOUS
10
3.27756
20
0.332938
11
3.27718
21
0.333005
0
LINE
8
BLACK
6
CONTINUOUS
10
3.27718
20
0.333005
11
3.27705
21
0.332983
0
LINE
8
BLACK
6
CONTINUOUS
10
3.27705
20
0.332983
11
3.27694
21
0.333048
0
LINE
8
BLACK
6
CONTINUOUS
10
3.27694
20
0.333048
11
3.27655
21
0.333116
0
LINE
8
BLACK
6
CONTINUOUS
10
3.27655
20
0.333116
11
3.27597
21
0.333609
0
LINE
8
BLACK
6
CONTINUOUS
10
3.27597
20
0.333609
11
3.2753
21
0.333993
0
LINE
8
BLACK
6
CONTINUOUS
10
3.2753
20
0.333993
11
3.27521
21
0.334243
0
LINE
8
BLACK
6
CONTINUOUS
10
3.27521
20
0.334243
11
3.27501
21
0.334414
0
LINE
8
BLACK
6
CONTINUOUS
10
3.27501
20
0.334414
11
3.27487
21
0.33517
0
LINE
8
BLACK
6
CONTINUOUS
10
3.27487
20
0.33517
11
3.27461
21
0.335891
0
LINE
8
BLACK
6
CONTINUOUS
10
3.27461
20
0.335891
11
3.27461
21
0.375261
0
LINE
8
BLACK
6
CONTINUOUS
10
3.27461
20
0.375261
11
3.27468
21
0.375644
0
LINE
8
BLACK
6
CONTINUOUS
10
3.27468
20
0.375644
11
3.27466
21
0.375773
0
LINE
8
BLACK
6
CONTINUOUS
10
3.27466
20
0.375773
11
3.27472
21
0.375887
0
LINE
8
BLACK
6
CONTINUOUS
10
3.27472
20
0.375887
11
3.27479
21
0.376271
0
LINE
8
BLACK
6
CONTINUOUS
10
3.27479
20
0.376271
11
3.27528
21
0.376858
0
LINE
8
BLACK
6
CONTINUOUS
10
3.27528
20
0.376858
11
3.27567
21
0.377523
0
LINE
8
BLACK
6
CONTINUOUS
10
3.27567
20
0.377523
11
3.27592
21
0.377614
0
LINE
8
BLACK
6
CONTINUOUS
10
3.27592
20
0.377614
11
3.27609
21
0.377818
0
LINE
8
BLACK
6
CONTINUOUS
10
3.27609
20
0.377818
11
3.27684
21
0.377951
0
LINE
8
BLACK
6
CONTINUOUS
10
3.27684
20
0.377951
11
3.27756
21
0.378213
0
LINE
8
BLACK
6
CONTINUOUS
10
3.27756
20
0.378213
11
3.29631
21
0.378213
0
LINE
8
BLACK
6
CONTINUOUS
10
3.29631
20
0.378213
11
3.29732
21
0.378035
0
LINE
8
BLACK
6
CONTINUOUS
10
3.32343
20
0.37806
11
3.32349
21
0.378062
0
LINE
8
BLACK
6
CONTINUOUS
10
3.32349
20
0.378062
11
3.32912
21
0.376187
0
LINE
8
BLACK
6
CONTINUOUS
10
3.32912
20
0.376187
11
3.33002
21
0.375699
0
LINE
8
BLACK
6
CONTINUOUS
10
3.33002
20
0.375699
11
3.33011
21
0.375548
0
LINE
8
BLACK
6
CONTINUOUS
10
3.33011
20
0.375548
11
3.33027
21
0.375474
0
LINE
8
BLACK
6
CONTINUOUS
10
3.33027
20
0.375474
11
3.33402
21
0.371724
0
LINE
8
BLACK
6
CONTINUOUS
10
3.33402
20
0.371724
11
3.33453
21
0.371001
0
LINE
8
BLACK
6
CONTINUOUS
10
3.33453
20
0.371001
11
3.33457
21
0.370957
0
LINE
8
BLACK
6
CONTINUOUS
10
3.33457
20
0.370957
11
3.33645
21
0.367207
0
LINE
8
BLACK
6
CONTINUOUS
10
3.33645
20
0.367207
11
3.33659
21
0.366719
0
LINE
8
BLACK
6
CONTINUOUS
10
3.33659
20
0.366719
11
3.33667
21
0.366603
0
LINE
8
BLACK
6
CONTINUOUS
10
3.33667
20
0.366603
11
3.33855
21
0.359104
0
LINE
8
BLACK
6
CONTINUOUS
10
3.33855
20
0.359104
11
3.33859
21
0.358516
0
LINE
8
BLACK
6
CONTINUOUS
10
3.33859
20
0.358516
11
3.33863
21
0.358388
0
LINE
8
BLACK
6
CONTINUOUS
10
3.33863
20
0.358388
11
3.33863
21
0.352763
0
LINE
8
BLACK
6
CONTINUOUS
10
3.33863
20
0.352763
11
3.33853
21
0.352183
0
LINE
8
BLACK
6
CONTINUOUS
10
3.33853
20
0.352183
11
3.33855
21
0.352047
0
LINE
8
BLACK
6
CONTINUOUS
10
3.33855
20
0.352047
11
3.33667
21
0.344548
0
LINE
8
BLACK
6
CONTINUOUS
10
3.33667
20
0.344548
11
3.33646
21
0.344083
0
LINE
8
BLACK
6
CONTINUOUS
10
3.33646
20
0.344083
11
3.33645
21
0.343944
0
LINE
8
BLACK
6
CONTINUOUS
10
3.33645
20
0.343944
11
3.33457
21
0.340194
0
LINE
8
BLACK
6
CONTINUOUS
10
3.33457
20
0.340194
11
3.33405
21
0.339485
0
LINE
8
BLACK
6
CONTINUOUS
10
3.33405
20
0.339485
11
3.33402
21
0.339427
0
LINE
8
BLACK
6
CONTINUOUS
10
3.33402
20
0.339427
11
3.33027
21
0.335677
0
LINE
8
BLACK
6
CONTINUOUS
10
3.33027
20
0.335677
11
3.32943
21
0.335089
0
LINE
8
BLACK
6
CONTINUOUS
10
3.32943
20
0.335089
11
3.32925
21
0.335074
0
LINE
8
BLACK
6
CONTINUOUS
10
3.32925
20
0.335074
11
3.32912
21
0.334964
0
LINE
8
BLACK
6
CONTINUOUS
10
3.32912
20
0.334964
11
3.32349
21
0.333089
0
LINE
8
BLACK
6
CONTINUOUS
10
3.32349
20
0.333089
11
3.32262
21
0.33296
0
LINE
8
BLACK
6
CONTINUOUS
10
3.32262
20
0.33296
11
3.32256
21
0.332938
0
LINE
8
BLACK
6
CONTINUOUS
10
3.32256
20
0.332938
11
3.31318
21
0.332938
0
LINE
8
BLACK
6
CONTINUOUS
10
3.31318
20
0.332938
11
3.3128
21
0.333005
0
LINE
8
BLACK
6
CONTINUOUS
10
3.3128
20
0.333005
11
3.31267
21
0.332983
0
LINE
8
BLACK
6
CONTINUOUS
10
3.31267
20
0.332983
11
3.31256
21
0.333048
0
LINE
8
BLACK
6
CONTINUOUS
10
3.31256
20
0.333048
11
3.31217
21
0.333116
0
LINE
8
BLACK
6
CONTINUOUS
10
3.31217
20
0.333116
11
3.31159
21
0.333609
0
LINE
8
BLACK
6
CONTINUOUS
10
3.31159
20
0.333609
11
3.31092
21
0.333993
0
LINE
8
BLACK
6
CONTINUOUS
10
3.31092
20
0.333993
11
3.31083
21
0.334243
0
LINE
8
BLACK
6
CONTINUOUS
10
3.31083
20
0.334243
11
3.31063
21
0.334414
0
LINE
8
BLACK
6
CONTINUOUS
10
3.31063
20
0.334414
11
3.31049
21
0.33517
0
LINE
8
BLACK
6
CONTINUOUS
10
3.31049
20
0.33517
11
3.31023
21
0.335891
0
LINE
8
BLACK
6
CONTINUOUS
10
3.31023
20
0.335891
11
3.31023
21
0.375261
0
LINE
8
BLACK
6
CONTINUOUS
10
3.31023
20
0.375261
11
3.3103
21
0.375644
0
LINE
8
BLACK
6
CONTINUOUS
10
3.3103
20
0.375644
11
3.31028
21
0.375773
0
LINE
8
BLACK
6
CONTINUOUS
10
3.31028
20
0.375773
11
3.31034
21
0.375887
0
LINE
8
BLACK
6
CONTINUOUS
10
3.31034
20
0.375887
11
3.31041
21
0.376271
0
LINE
8
BLACK
6
CONTINUOUS
10
3.31041
20
0.376271
11
3.3109
21
0.376858
0
LINE
8
BLACK
6
CONTINUOUS
10
3.3109
20
0.376858
11
3.31129
21
0.377523
0
LINE
8
BLACK
6
CONTINUOUS
10
3.31129
20
0.377523
11
3.31154
21
0.377614
0
LINE
8
BLACK
6
CONTINUOUS
10
3.31154
20
0.377614
11
3.31171
21
0.377818
0
LINE
8
BLACK
6
CONTINUOUS
10
3.31171
20
0.377818
11
3.31246
21
0.377951
0
LINE
8
BLACK
6
CONTINUOUS
10
3.31246
20
0.377951
11
3.31318
21
0.378213
0
LINE
8
BLACK
6
CONTINUOUS
10
3.31318
20
0.378213
11
3.32256
21
0.378213
0
LINE
8
BLACK
6
CONTINUOUS
10
3.32256
20
0.378213
11
3.32343
21
0.37806
0
LINE
8
BLACK
6
CONTINUOUS
10
3.31614
20
0.372308
11
3.31614
21
0.338843
0
LINE
8
BLACK
6
CONTINUOUS
10
3.31614
20
0.338843
11
3.32208
21
0.338843
0
LINE
8
BLACK
6
CONTINUOUS
10
3.32208
20
0.338843
11
3.32659
21
0.340346
0
LINE
8
BLACK
6
CONTINUOUS
10
3.32659
20
0.340346
11
3.3295
21
0.343264
0
LINE
8
BLACK
6
CONTINUOUS
10
3.3295
20
0.343264
11
3.33102
21
0.346295
0
LINE
8
BLACK
6
CONTINUOUS
10
3.33102
20
0.346295
11
3.33273
21
0.353127
0
LINE
8
BLACK
6
CONTINUOUS
10
3.33273
20
0.353127
11
3.33273
21
0.358024
0
LINE
8
BLACK
6
CONTINUOUS
10
3.33273
20
0.358024
11
3.33102
21
0.364856
0
LINE
8
BLACK
6
CONTINUOUS
10
3.33102
20
0.364856
11
3.3295
21
0.367887
0
LINE
8
BLACK
6
CONTINUOUS
10
3.3295
20
0.367887
11
3.32659
21
0.370805
0
LINE
8
BLACK
6
CONTINUOUS
10
3.32659
20
0.370805
11
3.32208
21
0.372308
0
LINE
8
BLACK
6
CONTINUOUS
10
3.32208
20
0.372308
11
3.31614
21
0.372308
0
LINE
8
BLACK
6
CONTINUOUS
10
3.2542
20
0.378035
11
3.25434
21
0.377922
0
LINE
8
BLACK
6
CONTINUOUS
10
3.25434
20
0.377922
11
3.25451
21
0.377902
0
LINE
8
BLACK
6
CONTINUOUS
10
3.25451
20
0.377902
11
3.25826
21
0.376027
0
LINE
8
BLACK
6
CONTINUOUS
10
3.25826
20
0.376027
11
3.25897
21
0.375501
0
LINE
8
BLACK
6
CONTINUOUS
10
3.25897
20
0.375501
11
3.25903
21
0.375474
0
LINE
8
BLACK
6
CONTINUOUS
10
3.25903
20
0.375474
11
3.2609
21
0.373599
0
LINE
8
BLACK
6
CONTINUOUS
10
3.2609
20
0.373599
11
3.26141
21
0.372876
0
LINE
8
BLACK
6
CONTINUOUS
10
3.26141
20
0.372876
11
3.26146
21
0.372832
0
LINE
8
BLACK
6
CONTINUOUS
10
3.26146
20
0.372832
11
3.26333
21
0.369082
0
LINE
8
BLACK
6
CONTINUOUS
10
3.26333
20
0.369082
11
3.26362
21
0.368099
0
LINE
8
BLACK
6
CONTINUOUS
10
3.26362
20
0.368099
11
3.26358
21
0.367927
0
LINE
8
BLACK
6
CONTINUOUS
10
3.26358
20
0.367927
11
3.26364
21
0.367761
0
LINE
8
BLACK
6
CONTINUOUS
10
3.26364
20
0.367761
11
3.26364
21
0.362137
0
LINE
8
BLACK
6
CONTINUOUS
10
3.26364
20
0.362137
11
3.26347
21
0.361127
0
LINE
8
BLACK
6
CONTINUOUS
10
3.26347
20
0.361127
11
3.26335
21
0.360992
0
LINE
8
BLACK
6
CONTINUOUS
10
3.26335
20
0.360992
11
3.26333
21
0.360817
0
LINE
8
BLACK
6
CONTINUOUS
10
3.26333
20
0.360817
11
3.26146
21
0.357067
0
LINE
8
BLACK
6
CONTINUOUS
10
3.26146
20
0.357067
11
3.26093
21
0.356358
0
LINE
8
BLACK
6
CONTINUOUS
10
3.26093
20
0.356358
11
3.2609
21
0.3563
0
LINE
8
BLACK
6
CONTINUOUS
10
3.2609
20
0.3563
11
3.25903
21
0.354425
0
LINE
8
BLACK
6
CONTINUOUS
10
3.25903
20
0.354425
11
3.25831
21
0.353919
0
LINE
8
BLACK
6
CONTINUOUS
10
3.25831
20
0.353919
11
3.25826
21
0.353872
0
LINE
8
BLACK
6
CONTINUOUS
10
3.25826
20
0.353872
11
3.25451
21
0.351997
0
LINE
8
BLACK
6
CONTINUOUS
10
3.25451
20
0.351997
11
3.25353
21
0.351705
0
LINE
8
BLACK
6
CONTINUOUS
10
3.25353
20
0.351705
11
3.25336
21
0.351746
0
LINE
8
BLACK
6
CONTINUOUS
10
3.25336
20
0.351746
11
3.25323
21
0.351699
0
LINE
8
BLACK
6
CONTINUOUS
10
3.25323
20
0.351699
11
3.26311
21
0.337584
0
LINE
8
BLACK
6
CONTINUOUS
10
3.26311
20
0.337584
11
3.26354
21
0.336654
0
LINE
8
BLACK
6
CONTINUOUS
10
3.26354
20
0.336654
11
3.26337
21
0.334642
0
LINE
8
BLACK
6
CONTINUOUS
10
3.26337
20
0.334642
11
3.26194
21
0.333214
0
LINE
8
BLACK
6
CONTINUOUS
10
3.26194
20
0.333214
11
3.25993
21
0.333038
0
LINE
8
BLACK
6
CONTINUOUS
10
3.25993
20
0.333038
11
3.25827
21
0.334197
0
LINE
8
BLACK
6
CONTINUOUS
10
3.25827
20
0.334197
11
3.24603
21
0.351685
0
LINE
8
BLACK
6
CONTINUOUS
10
3.24603
20
0.351685
11
3.24115
21
0.351685
0
LINE
8
BLACK
6
CONTINUOUS
10
3.24115
20
0.351685
11
3.24115
21
0.335891
0
LINE
8
BLACK
6
CONTINUOUS
10
3.24115
20
0.335891
11
3.24097
21
0.334881
0
LINE
8
BLACK
6
CONTINUOUS
10
3.24097
20
0.334881
11
3.23967
21
0.333333
0
LINE
8
BLACK
6
CONTINUOUS
10
3.23967
20
0.333333
11
3.23768
21
0.332983
0
LINE
8
BLACK
6
CONTINUOUS
10
3.23768
20
0.332983
11
3.23593
21
0.333993
0
LINE
8
BLACK
6
CONTINUOUS
10
3.23593
20
0.333993
11
3.23524
21
0.335891
0
LINE
8
BLACK
6
CONTINUOUS
10
3.23524
20
0.335891
11
3.23524
21
0.375261
0
LINE
8
BLACK
6
CONTINUOUS
10
3.23524
20
0.375261
11
3.23531
21
0.375644
0
LINE
8
BLACK
6
CONTINUOUS
10
3.23531
20
0.375644
11
3.23529
21
0.375773
0
LINE
8
BLACK
6
CONTINUOUS
10
3.23529
20
0.375773
11
3.23535
21
0.375887
0
LINE
8
BLACK
6
CONTINUOUS
10
3.23535
20
0.375887
11
3.23542
21
0.376271
0
LINE
8
BLACK
6
CONTINUOUS
10
3.23542
20
0.376271
11
3.23591
21
0.376858
0
LINE
8
BLACK
6
CONTINUOUS
10
3.23591
20
0.376858
11
3.2363
21
0.377523
0
LINE
8
BLACK
6
CONTINUOUS
10
3.2363
20
0.377523
11
3.23655
21
0.377614
0
LINE
8
BLACK
6
CONTINUOUS
10
3.23655
20
0.377614
11
3.23672
21
0.377818
0
LINE
8
BLACK
6
CONTINUOUS
10
3.23672
20
0.377818
11
3.23747
21
0.377951
0
LINE
8
BLACK
6
CONTINUOUS
10
3.23747
20
0.377951
11
3.23819
21
0.378213
0
LINE
8
BLACK
6
CONTINUOUS
10
3.23819
20
0.378213
11
3.25319
21
0.378213
0
LINE
8
BLACK
6
CONTINUOUS
10
3.25319
20
0.378213
11
3.2542
21
0.378035
0
LINE
8
BLACK
6
CONTINUOUS
10
3.24115
20
0.372308
11
3.24115
21
0.357591
0
LINE
8
BLACK
6
CONTINUOUS
10
3.24115
20
0.357591
11
3.25249
21
0.357591
0
LINE
8
BLACK
6
CONTINUOUS
10
3.25249
20
0.357591
11
3.25519
21
0.35894
0
LINE
8
BLACK
6
CONTINUOUS
10
3.25519
20
0.35894
11
3.25639
21
0.360137
0
LINE
8
BLACK
6
CONTINUOUS
10
3.25639
20
0.360137
11
3.25774
21
0.362834
0
LINE
8
BLACK
6
CONTINUOUS
10
3.25774
20
0.362834
11
3.25774
21
0.367064
0
LINE
8
BLACK
6
CONTINUOUS
10
3.25774
20
0.367064
11
3.25639
21
0.369762
0
LINE
8
BLACK
6
CONTINUOUS
10
3.25639
20
0.369762
11
3.25519
21
0.370959
0
LINE
8
BLACK
6
CONTINUOUS
10
3.25519
20
0.370959
11
3.25249
21
0.372308
0
LINE
8
BLACK
6
CONTINUOUS
10
3.25249
20
0.372308
11
3.24115
21
0.372308
0
LINE
8
BLACK
6
CONTINUOUS
10
3.39354
20
0.379714
11
3.3937
21
0.379743
0
LINE
8
BLACK
6
CONTINUOUS
10
3.3937
20
0.379743
11
3.39444
21
0.379315
0
LINE
8
BLACK
6
CONTINUOUS
10
3.39444
20
0.379315
11
3.39523
21
0.37897
0
LINE
8
BLACK
6
CONTINUOUS
10
3.39523
20
0.37897
11
3.3953
21
0.378818
0
LINE
8
BLACK
6
CONTINUOUS
10
3.3953
20
0.378818
11
3.39545
21
0.378733
0
LINE
8
BLACK
6
CONTINUOUS
10
3.39545
20
0.378733
11
3.39574
21
0.377928
0
LINE
8
BLACK
6
CONTINUOUS
10
3.39574
20
0.377928
11
3.39612
21
0.37716
0
LINE
8
BLACK
6
CONTINUOUS
10
3.39612
20
0.37716
11
3.39608
21
0.376995
0
LINE
8
BLACK
6
CONTINUOUS
10
3.39608
20
0.376995
11
3.39614
21
0.376835
0
LINE
8
BLACK
6
CONTINUOUS
10
3.39614
20
0.376835
11
3.39614
21
0.340418
0
LINE
8
BLACK
6
CONTINUOUS
10
3.39614
20
0.340418
11
3.40444
21
0.340418
0
LINE
8
BLACK
6
CONTINUOUS
10
3.40444
20
0.340418
11
3.40545
21
0.34024
0
LINE
8
BLACK
6
CONTINUOUS
10
3.40545
20
0.34024
11
3.407
21
0.338942
0
LINE
8
BLACK
6
CONTINUOUS
10
3.407
20
0.338942
11
3.40735
21
0.336953
0
LINE
8
BLACK
6
CONTINUOUS
10
3.40735
20
0.336953
11
3.40634
21
0.335203
0
LINE
8
BLACK
6
CONTINUOUS
10
3.40634
20
0.335203
11
3.40444
21
0.334513
0
LINE
8
BLACK
6
CONTINUOUS
10
3.40444
20
0.334513
11
3.38194
21
0.334513
0
LINE
8
BLACK
6
CONTINUOUS
10
3.38194
20
0.334513
11
3.38093
21
0.334691
0
LINE
8
BLACK
6
CONTINUOUS
10
3.38093
20
0.334691
11
3.37938
21
0.335989
0
LINE
8
BLACK
6
CONTINUOUS
10
3.37938
20
0.335989
11
3.37903
21
0.337978
0
LINE
8
BLACK
6
CONTINUOUS
10
3.37903
20
0.337978
11
3.38004
21
0.339727
0
LINE
8
BLACK
6
CONTINUOUS
10
3.38004
20
0.339727
11
3.38194
21
0.340418
0
LINE
8
BLACK
6
CONTINUOUS
10
3.38194
20
0.340418
11
3.39024
21
0.340418
0
LINE
8
BLACK
6
CONTINUOUS
10
3.39024
20
0.340418
11
3.39024
21
0.367832
0
LINE
8
BLACK
6
CONTINUOUS
10
3.39024
20
0.367832
11
3.38778
21
0.365374
0
LINE
8
BLACK
6
CONTINUOUS
10
3.38778
20
0.365374
11
3.38706
21
0.364867
0
LINE
8
BLACK
6
CONTINUOUS
10
3.38706
20
0.364867
11
3.38701
21
0.364821
0
LINE
8
BLACK
6
CONTINUOUS
10
3.38701
20
0.364821
11
3.38326
21
0.362946
0
LINE
8
BLACK
6
CONTINUOUS
10
3.38326
20
0.362946
11
3.38228
21
0.362653
0
LINE
8
BLACK
6
CONTINUOUS
10
3.38228
20
0.362653
11
3.38031
21
0.363123
0
LINE
8
BLACK
6
CONTINUOUS
10
3.38031
20
0.363123
11
3.37911
21
0.364745
0
LINE
8
BLACK
6
CONTINUOUS
10
3.37911
20
0.364745
11
3.37923
21
0.366761
0
LINE
8
BLACK
6
CONTINUOUS
10
3.37923
20
0.366761
11
3.38062
21
0.368228
0
LINE
8
BLACK
6
CONTINUOUS
10
3.38062
20
0.368228
11
3.38394
21
0.369888
0
LINE
8
BLACK
6
CONTINUOUS
10
3.38394
20
0.369888
11
3.38715
21
0.373092
0
LINE
8
BLACK
6
CONTINUOUS
10
3.38715
20
0.373092
11
3.39073
21
0.378473
0
LINE
8
BLACK
6
CONTINUOUS
10
3.39073
20
0.378473
11
3.39144
21
0.379215
0
LINE
8
BLACK
6
CONTINUOUS
10
3.39144
20
0.379215
11
3.3916
21
0.379262
0
LINE
8
BLACK
6
CONTINUOUS
10
3.3916
20
0.379262
11
3.39171
21
0.379393
0
LINE
8
BLACK
6
CONTINUOUS
10
3.39171
20
0.379393
11
3.39256
21
0.379541
0
LINE
8
BLACK
6
CONTINUOUS
10
3.39256
20
0.379541
11
3.39338
21
0.379782
0
LINE
8
BLACK
6
CONTINUOUS
10
3.39338
20
0.379782
11
3.39354
21
0.379714
0
LINE
8
BLACK
6
CONTINUOUS
10
3.43544
20
0.37961
11
3.43558
21
0.379497
0
LINE
8
BLACK
6
CONTINUOUS
10
3.43558
20
0.379497
11
3.43576
21
0.379476
0
LINE
8
BLACK
6
CONTINUOUS
10
3.43576
20
0.379476
11
3.4395
21
0.377602
0
LINE
8
BLACK
6
CONTINUOUS
10
3.4395
20
0.377602
11
3.44021
21
0.377076
0
LINE
8
BLACK
6
CONTINUOUS
10
3.44021
20
0.377076
11
3.44027
21
0.377049
0
LINE
8
BLACK
6
CONTINUOUS
10
3.44027
20
0.377049
11
3.44215
21
0.375174
0
LINE
8
BLACK
6
CONTINUOUS
10
3.44215
20
0.375174
11
3.44265
21
0.374451
0
LINE
8
BLACK
6
CONTINUOUS
10
3.44265
20
0.374451
11
3.4427
21
0.374406
0
LINE
8
BLACK
6
CONTINUOUS
10
3.4427
20
0.374406
11
3.44457
21
0.370657
0
LINE
8
BLACK
6
CONTINUOUS
10
3.44457
20
0.370657
11
3.44487
21
0.369674
0
LINE
8
BLACK
6
CONTINUOUS
10
3.44487
20
0.369674
11
3.44483
21
0.369502
0
LINE
8
BLACK
6
CONTINUOUS
10
3.44483
20
0.369502
11
3.44489
21
0.369336
0
LINE
8
BLACK
6
CONTINUOUS
10
3.44489
20
0.369336
11
3.44489
21
0.367462
0
LINE
8
BLACK
6
CONTINUOUS
10
3.44489
20
0.367462
11
3.44471
21
0.366452
0
LINE
8
BLACK
6
CONTINUOUS
10
3.44471
20
0.366452
11
3.44459
21
0.366316
0
LINE
8
BLACK
6
CONTINUOUS
10
3.44459
20
0.366316
11
3.44457
21
0.366141
0
LINE
8
BLACK
6
CONTINUOUS
10
3.44457
20
0.366141
11
3.4427
21
0.362391
0
LINE
8
BLACK
6
CONTINUOUS
10
3.4427
20
0.362391
11
3.44217
21
0.361682
0
LINE
8
BLACK
6
CONTINUOUS
10
3.44217
20
0.361682
11
3.44215
21
0.361624
0
LINE
8
BLACK
6
CONTINUOUS
10
3.44215
20
0.361624
11
3.44049
21
0.359962
0
LINE
8
BLACK
6
CONTINUOUS
10
3.44049
20
0.359962
11
3.44215
21
0.358301
0
LINE
8
BLACK
6
CONTINUOUS
10
3.44215
20
0.358301
11
3.44265
21
0.357578
0
LINE
8
BLACK
6
CONTINUOUS
10
3.44265
20
0.357578
11
3.4427
21
0.357533
0
LINE
8
BLACK
6
CONTINUOUS
10
3.4427
20
0.357533
11
3.44457
21
0.353784
0
LINE
8
BLACK
6
CONTINUOUS
10
3.44457
20
0.353784
11
3.44487
21
0.352801
0
LINE
8
BLACK
6
CONTINUOUS
10
3.44487
20
0.352801
11
3.44483
21
0.352629
0
LINE
8
BLACK
6
CONTINUOUS
10
3.44483
20
0.352629
11
3.44489
21
0.352463
0
LINE
8
BLACK
6
CONTINUOUS
10
3.44489
20
0.352463
11
3.44489
21
0.344964
0
LINE
8
BLACK
6
CONTINUOUS
10
3.44489
20
0.344964
11
3.44471
21
0.343954
0
LINE
8
BLACK
6
CONTINUOUS
10
3.44471
20
0.343954
11
3.44459
21
0.343819
0
LINE
8
BLACK
6
CONTINUOUS
10
3.44459
20
0.343819
11
3.44457
21
0.343644
0
LINE
8
BLACK
6
CONTINUOUS
10
3.44457
20
0.343644
11
3.4427
21
0.339894
0
LINE
8
BLACK
6
CONTINUOUS
10
3.4427
20
0.339894
11
3.44217
21
0.339185
0
LINE
8
BLACK
6
CONTINUOUS
10
3.44217
20
0.339185
11
3.44215
21
0.339127
0
LINE
8
BLACK
6
CONTINUOUS
10
3.44215
20
0.339127
11
3.44027
21
0.337252
0
LINE
8
BLACK
6
CONTINUOUS
10
3.44027
20
0.337252
11
3.43955
21
0.336746
0
LINE
8
BLACK
6
CONTINUOUS
10
3.43955
20
0.336746
11
3.4395
21
0.336699
0
LINE
8
BLACK
6
CONTINUOUS
10
3.4395
20
0.336699
11
3.43576
21
0.334824
0
LINE
8
BLACK
6
CONTINUOUS
10
3.43576
20
0.334824
11
3.43477
21
0.334532
0
LINE
8
BLACK
6
CONTINUOUS
10
3.43477
20
0.334532
11
3.4346
21
0.334573
0
LINE
8
BLACK
6
CONTINUOUS
10
3.4346
20
0.334573
11
3.43443
21
0.334513
0
LINE
8
BLACK
6
CONTINUOUS
10
3.43443
20
0.334513
11
3.42694
21
0.334513
0
LINE
8
BLACK
6
CONTINUOUS
10
3.42694
20
0.334513
11
3.42593
21
0.334691
0
LINE
8
BLACK
6
CONTINUOUS
10
3.42593
20
0.334691
11
3.42579
21
0.334804
0
LINE
8
BLACK
6
CONTINUOUS
10
3.42579
20
0.334804
11
3.42561
21
0.334824
0
LINE
8
BLACK
6
CONTINUOUS
10
3.42561
20
0.334824
11
3.42187
21
0.336699
0
LINE
8
BLACK
6
CONTINUOUS
10
3.42187
20
0.336699
11
3.42116
21
0.337225
0
LINE
8
BLACK
6
CONTINUOUS
10
3.42116
20
0.337225
11
3.4211
21
0.337252
0
LINE
8
BLACK
6
CONTINUOUS
10
3.4211
20
0.337252
11
3.41922
21
0.339127
0
LINE
8
BLACK
6
CONTINUOUS
10
3.41922
20
0.339127
11
3.41872
21
0.33985
0
LINE
8
BLACK
6
CONTINUOUS
10
3.41872
20
0.33985
11
3.41867
21
0.339894
0
LINE
8
BLACK
6
CONTINUOUS
10
3.41867
20
0.339894
11
3.4168
21
0.343644
0
LINE
8
BLACK
6
CONTINUOUS
10
3.4168
20
0.343644
11
3.4165
21
0.344627
0
LINE
8
BLACK
6
CONTINUOUS
10
3.4165
20
0.344627
11
3.41654
21
0.344798
0
LINE
8
BLACK
6
CONTINUOUS
10
3.41654
20
0.344798
11
3.41648
21
0.344964
0
LINE
8
BLACK
6
CONTINUOUS
10
3.41648
20
0.344964
11
3.41648
21
0.352463
0
LINE
8
BLACK
6
CONTINUOUS
10
3.41648
20
0.352463
11
3.41666
21
0.353473
0
LINE
8
BLACK
6
CONTINUOUS
10
3.41666
20
0.353473
11
3.41678
21
0.353609
0
LINE
8
BLACK
6
CONTINUOUS
10
3.41678
20
0.353609
11
3.4168
21
0.353784
0
LINE
8
BLACK
6
CONTINUOUS
10
3.4168
20
0.353784
11
3.41867
21
0.357533
0
LINE
8
BLACK
6
CONTINUOUS
10
3.41867
20
0.357533
11
3.4192
21
0.358243
0
LINE
8
BLACK
6
CONTINUOUS
10
3.4192
20
0.358243
11
3.41922
21
0.358301
0
LINE
8
BLACK
6
CONTINUOUS
10
3.41922
20
0.358301
11
3.42088
21
0.359962
0
LINE
8
BLACK
6
CONTINUOUS
10
3.42088
20
0.359962
11
3.41922
21
0.361624
0
LINE
8
BLACK
6
CONTINUOUS
10
3.41922
20
0.361624
11
3.41872
21
0.362347
0
LINE
8
BLACK
6
CONTINUOUS
10
3.41872
20
0.362347
11
3.41867
21
0.362391
0
LINE
8
BLACK
6
CONTINUOUS
10
3.41867
20
0.362391
11
3.4168
21
0.366141
0
LINE
8
BLACK
6
CONTINUOUS
10
3.4168
20
0.366141
11
3.4165
21
0.367124
0
LINE
8
BLACK
6
CONTINUOUS
10
3.4165
20
0.367124
11
3.41654
21
0.367296
0
LINE
8
BLACK
6
CONTINUOUS
10
3.41654
20
0.367296
11
3.41648
21
0.367462
0
LINE
8
BLACK
6
CONTINUOUS
10
3.41648
20
0.367462
11
3.41648
21
0.369336
0
LINE
8
BLACK
6
CONTINUOUS
10
3.41648
20
0.369336
11
3.41666
21
0.370346
0
LINE
8
BLACK
6
CONTINUOUS
10
3.41666
20
0.370346
11
3.41678
21
0.370481
0
LINE
8
BLACK
6
CONTINUOUS
10
3.41678
20
0.370481
11
3.4168
21
0.370657
0
LINE
8
BLACK
6
CONTINUOUS
10
3.4168
20
0.370657
11
3.41867
21
0.374406
0
LINE
8
BLACK
6
CONTINUOUS
10
3.41867
20
0.374406
11
3.4192
21
0.375115
0
LINE
8
BLACK
6
CONTINUOUS
10
3.4192
20
0.375115
11
3.41922
21
0.375174
0
LINE
8
BLACK
6
CONTINUOUS
10
3.41922
20
0.375174
11
3.4211
21
0.377049
0
LINE
8
BLACK
6
CONTINUOUS
10
3.4211
20
0.377049
11
3.42182
21
0.377555
0
LINE
8
BLACK
6
CONTINUOUS
10
3.42182
20
0.377555
11
3.42187
21
0.377602
0
LINE
8
BLACK
6
CONTINUOUS
10
3.42187
20
0.377602
11
3.42561
21
0.379476
0
LINE
8
BLACK
6
CONTINUOUS
10
3.42561
20
0.379476
11
3.4266
21
0.379769
0
LINE
8
BLACK
6
CONTINUOUS
10
3.4266
20
0.379769
11
3.42677
21
0.379728
0
LINE
8
BLACK
6
CONTINUOUS
10
3.42677
20
0.379728
11
3.42694
21
0.379788
0
LINE
8
BLACK
6
CONTINUOUS
10
3.42694
20
0.379788
11
3.43443
21
0.379788
0
LINE
8
BLACK
6
CONTINUOUS
10
3.43443
20
0.379788
11
3.43544
21
0.37961
0
LINE
8
BLACK
6
CONTINUOUS
10
3.42763
20
0.35701
11
3.42494
21
0.355661
0
LINE
8
BLACK
6
CONTINUOUS
10
3.42494
20
0.355661
11
3.42374
21
0.354464
0
LINE
8
BLACK
6
CONTINUOUS
10
3.42374
20
0.354464
11
3.42239
21
0.351766
0
LINE
8
BLACK
6
CONTINUOUS
10
3.42239
20
0.351766
11
3.42239
21
0.345661
0
LINE
8
BLACK
6
CONTINUOUS
10
3.42239
20
0.345661
11
3.42374
21
0.342964
0
LINE
8
BLACK
6
CONTINUOUS
10
3.42374
20
0.342964
11
3.42494
21
0.341767
0
LINE
8
BLACK
6
CONTINUOUS
10
3.42494
20
0.341767
11
3.42763
21
0.340418
0
LINE
8
BLACK
6
CONTINUOUS
10
3.42763
20
0.340418
11
3.43374
21
0.340418
0
LINE
8
BLACK
6
CONTINUOUS
10
3.43374
20
0.340418
11
3.43643
21
0.341767
0
LINE
8
BLACK
6
CONTINUOUS
10
3.43643
20
0.341767
11
3.43763
21
0.342964
0
LINE
8
BLACK
6
CONTINUOUS
10
3.43763
20
0.342964
11
3.43898
21
0.345661
0
LINE
8
BLACK
6
CONTINUOUS
10
3.43898
20
0.345661
11
3.43898
21
0.351766
0
LINE
8
BLACK
6
CONTINUOUS
10
3.43898
20
0.351766
11
3.43763
21
0.354464
0
LINE
8
BLACK
6
CONTINUOUS
10
3.43763
20
0.354464
11
3.43643
21
0.355661
0
LINE
8
BLACK
6
CONTINUOUS
10
3.43643
20
0.355661
11
3.43374
21
0.35701
0
LINE
8
BLACK
6
CONTINUOUS
10
3.43374
20
0.35701
11
3.42763
21
0.35701
0
LINE
8
BLACK
6
CONTINUOUS
10
3.42763
20
0.373883
11
3.42494
21
0.372534
0
LINE
8
BLACK
6
CONTINUOUS
10
3.42494
20
0.372534
11
3.42374
21
0.371337
0
LINE
8
BLACK
6
CONTINUOUS
10
3.42374
20
0.371337
11
3.42239
21
0.368639
0
LINE
8
BLACK
6
CONTINUOUS
10
3.42239
20
0.368639
11
3.42239
21
0.368159
0
LINE
8
BLACK
6
CONTINUOUS
10
3.42239
20
0.368159
11
3.42374
21
0.365461
0
LINE
8
BLACK
6
CONTINUOUS
10
3.42374
20
0.365461
11
3.42494
21
0.364264
0
LINE
8
BLACK
6
CONTINUOUS
10
3.42494
20
0.364264
11
3.42763
21
0.362915
0
LINE
8
BLACK
6
CONTINUOUS
10
3.42763
20
0.362915
11
3.43374
21
0.362915
0
LINE
8
BLACK
6
CONTINUOUS
10
3.43374
20
0.362915
11
3.43643
21
0.364264
0
LINE
8
BLACK
6
CONTINUOUS
10
3.43643
20
0.364264
11
3.43763
21
0.365461
0
LINE
8
BLACK
6
CONTINUOUS
10
3.43763
20
0.365461
11
3.43898
21
0.368159
0
LINE
8
BLACK
6
CONTINUOUS
10
3.43898
20
0.368159
11
3.43898
21
0.368639
0
LINE
8
BLACK
6
CONTINUOUS
10
3.43898
20
0.368639
11
3.43763
21
0.371337
0
LINE
8
BLACK
6
CONTINUOUS
10
3.43763
20
0.371337
11
3.43643
21
0.372534
0
LINE
8
BLACK
6
CONTINUOUS
10
3.43643
20
0.372534
11
3.43374
21
0.373883
0
LINE
8
BLACK
6
CONTINUOUS
10
3.43374
20
0.373883
11
3.42763
21
0.373883
0
LINE
8
BLACK
6
CONTINUOUS
10
3.47107
20
0.37961
11
3.4712
21
0.379497
0
LINE
8
BLACK
6
CONTINUOUS
10
3.4712
20
0.379497
11
3.47138
21
0.379476
0
LINE
8
BLACK
6
CONTINUOUS
10
3.47138
20
0.379476
11
3.47513
21
0.377602
0
LINE
8
BLACK
6
CONTINUOUS
10
3.47513
20
0.377602
11
3.47583
21
0.377076
0
LINE
8
BLACK
6
CONTINUOUS
10
3.47583
20
0.377076
11
3.47589
21
0.377049
0
LINE
8
BLACK
6
CONTINUOUS
10
3.47589
20
0.377049
11
3.47777
21
0.375174
0
LINE
8
BLACK
6
CONTINUOUS
10
3.47777
20
0.375174
11
3.47827
21
0.374451
0
LINE
8
BLACK
6
CONTINUOUS
10
3.47827
20
0.374451
11
3.47832
21
0.374406
0
LINE
8
BLACK
6
CONTINUOUS
10
3.47832
20
0.374406
11
3.4802
21
0.370657
0
LINE
8
BLACK
6
CONTINUOUS
10
3.4802
20
0.370657
11
3.48034
21
0.370168
0
LINE
8
BLACK
6
CONTINUOUS
10
3.48034
20
0.370168
11
3.48042
21
0.370052
0
LINE
8
BLACK
6
CONTINUOUS
10
3.48042
20
0.370052
11
3.48229
21
0.362553
0
LINE
8
BLACK
6
CONTINUOUS
10
3.48229
20
0.362553
11
3.48233
21
0.361965
0
LINE
8
BLACK
6
CONTINUOUS
10
3.48233
20
0.361965
11
3.48238
21
0.361837
0
LINE
8
BLACK
6
CONTINUOUS
10
3.48238
20
0.361837
11
3.48238
21
0.352463
0
LINE
8
BLACK
6
CONTINUOUS
10
3.48238
20
0.352463
11
3.48228
21
0.351883
0
LINE
8
BLACK
6
CONTINUOUS
10
3.48228
20
0.351883
11
3.48229
21
0.351747
0
LINE
8
BLACK
6
CONTINUOUS
10
3.48229
20
0.351747
11
3.48042
21
0.344248
0
LINE
8
BLACK
6
CONTINUOUS
10
3.48042
20
0.344248
11
3.48021
21
0.343783
0
LINE
8
BLACK
6
CONTINUOUS
10
3.48021
20
0.343783
11
3.4802
21
0.343644
0
LINE
8
BLACK
6
CONTINUOUS
10
3.4802
20
0.343644
11
3.47832
21
0.339894
0
LINE
8
BLACK
6
CONTINUOUS
10
3.47832
20
0.339894
11
3.47779
21
0.339185
0
LINE
8
BLACK
6
CONTINUOUS
10
3.47779
20
0.339185
11
3.47777
21
0.339127
0
LINE
8
BLACK
6
CONTINUOUS
10
3.47777
20
0.339127
11
3.47589
21
0.337252
0
LINE
8
BLACK
6
CONTINUOUS
10
3.47589
20
0.337252
11
3.47517
21
0.336746
0
LINE
8
BLACK
6
CONTINUOUS
10
3.47517
20
0.336746
11
3.47513
21
0.336699
0
LINE
8
BLACK
6
CONTINUOUS
10
3.47513
20
0.336699
11
3.47138
21
0.334824
0
LINE
8
BLACK
6
CONTINUOUS
10
3.47138
20
0.334824
11
3.47039
21
0.334532
0
LINE
8
BLACK
6
CONTINUOUS
10
3.47039
20
0.334532
11
3.47022
21
0.334573
0
LINE
8
BLACK
6
CONTINUOUS
10
3.47022
20
0.334573
11
3.47006
21
0.334513
0
LINE
8
BLACK
6
CONTINUOUS
10
3.47006
20
0.334513
11
3.46631
21
0.334513
0
LINE
8
BLACK
6
CONTINUOUS
10
3.46631
20
0.334513
11
3.4653
21
0.334691
0
LINE
8
BLACK
6
CONTINUOUS
10
3.4653
20
0.334691
11
3.46516
21
0.334804
0
LINE
8
BLACK
6
CONTINUOUS
10
3.46516
20
0.334804
11
3.46499
21
0.334824
0
LINE
8
BLACK
6
CONTINUOUS
10
3.46499
20
0.334824
11
3.46124
21
0.336699
0
LINE
8
BLACK
6
CONTINUOUS
10
3.46124
20
0.336699
11
3.46053
21
0.337225
0
LINE
8
BLACK
6
CONTINUOUS
10
3.46053
20
0.337225
11
3.46047
21
0.337252
0
LINE
8
BLACK
6
CONTINUOUS
10
3.46047
20
0.337252
11
3.45859
21
0.339127
0
LINE
8
BLACK
6
CONTINUOUS
10
3.45859
20
0.339127
11
3.45809
21
0.33985
0
LINE
8
BLACK
6
CONTINUOUS
10
3.45809
20
0.33985
11
3.45804
21
0.339894
0
LINE
8
BLACK
6
CONTINUOUS
10
3.45804
20
0.339894
11
3.45617
21
0.343644
0
LINE
8
BLACK
6
CONTINUOUS
10
3.45617
20
0.343644
11
3.45602
21
0.344132
0
LINE
8
BLACK
6
CONTINUOUS
10
3.45602
20
0.344132
11
3.45594
21
0.344248
0
LINE
8
BLACK
6
CONTINUOUS
10
3.45594
20
0.344248
11
3.45407
21
0.351747
0
LINE
8
BLACK
6
CONTINUOUS
10
3.45407
20
0.351747
11
3.45403
21
0.352335
0
LINE
8
BLACK
6
CONTINUOUS
10
3.45403
20
0.352335
11
3.45398
21
0.352463
0
LINE
8
BLACK
6
CONTINUOUS
10
3.45398
20
0.352463
11
3.45398
21
0.361837
0
LINE
8
BLACK
6
CONTINUOUS
10
3.45398
20
0.361837
11
3.45408
21
0.362418
0
LINE
8
BLACK
6
CONTINUOUS
10
3.45408
20
0.362418
11
3.45407
21
0.362553
0
LINE
8
BLACK
6
CONTINUOUS
10
3.45407
20
0.362553
11
3.45594
21
0.370052
0
LINE
8
BLACK
6
CONTINUOUS
10
3.45594
20
0.370052
11
3.45615
21
0.370518
0
LINE
8
BLACK
6
CONTINUOUS
10
3.45615
20
0.370518
11
3.45617
21
0.370657
0
LINE
8
BLACK
6
CONTINUOUS
10
3.45617
20
0.370657
11
3.45804
21
0.374406
0
LINE
8
BLACK
6
CONTINUOUS
10
3.45804
20
0.374406
11
3.45857
21
0.375115
0
LINE
8
BLACK
6
CONTINUOUS
10
3.45857
20
0.375115
11
3.45859
21
0.375174
0
LINE
8
BLACK
6
CONTINUOUS
10
3.45859
20
0.375174
11
3.46047
21
0.377049
0
LINE
8
BLACK
6
CONTINUOUS
10
3.46047
20
0.377049
11
3.46119
21
0.377555
0
LINE
8
BLACK
6
CONTINUOUS
10
3.46119
20
0.377555
11
3.46124
21
0.377602
0
LINE
8
BLACK
6
CONTINUOUS
10
3.46124
20
0.377602
11
3.46499
21
0.379476
0
LINE
8
BLACK
6
CONTINUOUS
10
3.46499
20
0.379476
11
3.46597
21
0.379769
0
LINE
8
BLACK
6
CONTINUOUS
10
3.46597
20
0.379769
11
3.46614
21
0.379728
0
LINE
8
BLACK
6
CONTINUOUS
10
3.46614
20
0.379728
11
3.46631
21
0.379788
0
LINE
8
BLACK
6
CONTINUOUS
10
3.46631
20
0.379788
11
3.47006
21
0.379788
0
LINE
8
BLACK
6
CONTINUOUS
10
3.47006
20
0.379788
11
3.47107
21
0.37961
0
LINE
8
BLACK
6
CONTINUOUS
10
3.467
20
0.373883
11
3.46431
21
0.372534
0
LINE
8
BLACK
6
CONTINUOUS
10
3.46431
20
0.372534
11
3.46311
21
0.371337
0
LINE
8
BLACK
6
CONTINUOUS
10
3.46311
20
0.371337
11
3.46159
21
0.368306
0
LINE
8
BLACK
6
CONTINUOUS
10
3.46159
20
0.368306
11
3.45988
21
0.361474
0
LINE
8
BLACK
6
CONTINUOUS
10
3.45988
20
0.361474
11
3.45988
21
0.352827
0
LINE
8
BLACK
6
CONTINUOUS
10
3.45988
20
0.352827
11
3.46159
21
0.345995
0
LINE
8
BLACK
6
CONTINUOUS
10
3.46159
20
0.345995
11
3.46311
21
0.342964
0
LINE
8
BLACK
6
CONTINUOUS
10
3.46311
20
0.342964
11
3.46431
21
0.341767
0
LINE
8
BLACK
6
CONTINUOUS
10
3.46431
20
0.341767
11
3.467
21
0.340418
0
LINE
8
BLACK
6
CONTINUOUS
10
3.467
20
0.340418
11
3.46936
21
0.340418
0
LINE
8
BLACK
6
CONTINUOUS
10
3.46936
20
0.340418
11
3.47206
21
0.341767
0
LINE
8
BLACK
6
CONTINUOUS
10
3.47206
20
0.341767
11
3.47325
21
0.342964
0
LINE
8
BLACK
6
CONTINUOUS
10
3.47325
20
0.342964
11
3.47477
21
0.345995
0
LINE
8
BLACK
6
CONTINUOUS
10
3.47477
20
0.345995
11
3.47648
21
0.352827
0
LINE
8
BLACK
6
CONTINUOUS
10
3.47648
20
0.352827
11
3.47648
21
0.361474
0
LINE
8
BLACK
6
CONTINUOUS
10
3.47648
20
0.361474
11
3.47477
21
0.368306
0
LINE
8
BLACK
6
CONTINUOUS
10
3.47477
20
0.368306
11
3.47325
21
0.371337
0
LINE
8
BLACK
6
CONTINUOUS
10
3.47325
20
0.371337
11
3.47206
21
0.372534
0
LINE
8
BLACK
6
CONTINUOUS
10
3.47206
20
0.372534
11
3.46936
21
0.373883
0
LINE
8
BLACK
6
CONTINUOUS
10
3.46936
20
0.373883
11
3.467
21
0.373883
0
LINE
8
BLACK
6
CONTINUOUS
10
3.51231
20
0.37961
11
3.51245
21
0.379497
0
LINE
8
BLACK
6
CONTINUOUS
10
3.51245
20
0.379497
11
3.51262
21
0.379476
0
LINE
8
BLACK
6
CONTINUOUS
10
3.51262
20
0.379476
11
3.51637
21
0.377602
0
LINE
8
BLACK
6
CONTINUOUS
10
3.51637
20
0.377602
11
3.51708
21
0.377076
0
LINE
8
BLACK
6
CONTINUOUS
10
3.51708
20
0.377076
11
3.51714
21
0.377049
0
LINE
8
BLACK
6
CONTINUOUS
10
3.51714
20
0.377049
11
3.51901
21
0.375174
0
LINE
8
BLACK
6
CONTINUOUS
10
3.51901
20
0.375174
11
3.51952
21
0.374451
0
LINE
8
BLACK
6
CONTINUOUS
10
3.51952
20
0.374451
11
3.51957
21
0.374406
0
LINE
8
BLACK
6
CONTINUOUS
10
3.51957
20
0.374406
11
3.52144
21
0.370657
0
LINE
8
BLACK
6
CONTINUOUS
10
3.52144
20
0.370657
11
3.52173
21
0.369674
0
LINE
8
BLACK
6
CONTINUOUS
10
3.52173
20
0.369674
11
3.52169
21
0.369502
0
LINE
8
BLACK
6
CONTINUOUS
10
3.52169
20
0.369502
11
3.52175
21
0.369336
0
LINE
8
BLACK
6
CONTINUOUS
10
3.52175
20
0.369336
11
3.52175
21
0.363712
0
LINE
8
BLACK
6
CONTINUOUS
10
3.52175
20
0.363712
11
3.52157
21
0.362702
0
LINE
8
BLACK
6
CONTINUOUS
10
3.52157
20
0.362702
11
3.52146
21
0.362567
0
LINE
8
BLACK
6
CONTINUOUS
10
3.52146
20
0.362567
11
3.52144
21
0.362391
0
LINE
8
BLACK
6
CONTINUOUS
10
3.52144
20
0.362391
11
3.51957
21
0.358642
0
LINE
8
BLACK
6
CONTINUOUS
10
3.51957
20
0.358642
11
3.51904
21
0.357933
0
LINE
8
BLACK
6
CONTINUOUS
10
3.51904
20
0.357933
11
3.51901
21
0.357875
0
LINE
8
BLACK
6
CONTINUOUS
10
3.51901
20
0.357875
11
3.51714
21
0.356
0
LINE
8
BLACK
6
CONTINUOUS
10
3.51714
20
0.356
11
3.51641
21
0.355494
0
LINE
8
BLACK
6
CONTINUOUS
10
3.51641
20
0.355494
11
3.51637
21
0.355447
0
LINE
8
BLACK
6
CONTINUOUS
10
3.51637
20
0.355447
11
3.51262
21
0.353572
0
LINE
8
BLACK
6
CONTINUOUS
10
3.51262
20
0.353572
11
3.51164
21
0.35328
0
LINE
8
BLACK
6
CONTINUOUS
10
3.51164
20
0.35328
11
3.51147
21
0.353321
0
LINE
8
BLACK
6
CONTINUOUS
10
3.51147
20
0.353321
11
3.51134
21
0.353274
0
LINE
8
BLACK
6
CONTINUOUS
10
3.51134
20
0.353274
11
3.52122
21
0.339159
0
LINE
8
BLACK
6
CONTINUOUS
10
3.52122
20
0.339159
11
3.52165
21
0.338229
0
LINE
8
BLACK
6
CONTINUOUS
10
3.52165
20
0.338229
11
3.52147
21
0.336217
0
LINE
8
BLACK
6
CONTINUOUS
10
3.52147
20
0.336217
11
3.52005
21
0.334789
0
LINE
8
BLACK
6
CONTINUOUS
10
3.52005
20
0.334789
11
3.51803
21
0.334613
0
LINE
8
BLACK
6
CONTINUOUS
10
3.51803
20
0.334613
11
3.51638
21
0.335772
0
LINE
8
BLACK
6
CONTINUOUS
10
3.51638
20
0.335772
11
3.50414
21
0.35326
0
LINE
8
BLACK
6
CONTINUOUS
10
3.50414
20
0.35326
11
3.49925
21
0.35326
0
LINE
8
BLACK
6
CONTINUOUS
10
3.49925
20
0.35326
11
3.49925
21
0.337465
0
LINE
8
BLACK
6
CONTINUOUS
10
3.49925
20
0.337465
11
3.49908
21
0.336455
0
LINE
8
BLACK
6
CONTINUOUS
10
3.49908
20
0.336455
11
3.49778
21
0.334908
0
LINE
8
BLACK
6
CONTINUOUS
10
3.49778
20
0.334908
11
3.49579
21
0.334557
0
LINE
8
BLACK
6
CONTINUOUS
10
3.49579
20
0.334557
11
3.49404
21
0.335567
0
LINE
8
BLACK
6
CONTINUOUS
10
3.49404
20
0.335567
11
3.49335
21
0.337465
0
LINE
8
BLACK
6
CONTINUOUS
10
3.49335
20
0.337465
11
3.49335
21
0.376835
0
LINE
8
BLACK
6
CONTINUOUS
10
3.49335
20
0.376835
11
3.49342
21
0.377219
0
LINE
8
BLACK
6
CONTINUOUS
10
3.49342
20
0.377219
11
3.49339
21
0.377348
0
LINE
8
BLACK
6
CONTINUOUS
10
3.49339
20
0.377348
11
3.49346
21
0.377462
0
LINE
8
BLACK
6
CONTINUOUS
10
3.49346
20
0.377462
11
3.49353
21
0.377845
0
LINE
8
BLACK
6
CONTINUOUS
10
3.49353
20
0.377845
11
3.49402
21
0.378433
0
LINE
8
BLACK
6
CONTINUOUS
10
3.49402
20
0.378433
11
3.4944
21
0.379097
0
LINE
8
BLACK
6
CONTINUOUS
10
3.4944
20
0.379097
11
3.49465
21
0.379188
0
LINE
8
BLACK
6
CONTINUOUS
10
3.49465
20
0.379188
11
3.49483
21
0.379393
0
LINE
8
BLACK
6
CONTINUOUS
10
3.49483
20
0.379393
11
3.49558
21
0.379526
0
LINE
8
BLACK
6
CONTINUOUS
10
3.49558
20
0.379526
11
3.4963
21
0.379788
0
LINE
8
BLACK
6
CONTINUOUS
10
3.4963
20
0.379788
11
3.5113
21
0.379788
0
LINE
8
BLACK
6
CONTINUOUS
10
3.5113
20
0.379788
11
3.51231
21
0.37961
0
LINE
8
BLACK
6
CONTINUOUS
10
3.49925
20
0.373883
11
3.49925
21
0.359166
0
LINE
8
BLACK
6
CONTINUOUS
10
3.49925
20
0.359166
11
3.5106
21
0.359166
0
LINE
8
BLACK
6
CONTINUOUS
10
3.5106
20
0.359166
11
3.5133
21
0.360514
0
LINE
8
BLACK
6
CONTINUOUS
10
3.5133
20
0.360514
11
3.5145
21
0.361712
0
LINE
8
BLACK
6
CONTINUOUS
10
3.5145
20
0.361712
11
3.51585
21
0.364409
0
LINE
8
BLACK
6
CONTINUOUS
10
3.51585
20
0.364409
11
3.51585
21
0.368639
0
LINE
8
BLACK
6
CONTINUOUS
10
3.51585
20
0.368639
11
3.5145
21
0.371337
0
LINE
8
BLACK
6
CONTINUOUS
10
3.5145
20
0.371337
11
3.5133
21
0.372534
0
LINE
8
BLACK
6
CONTINUOUS
10
3.5133
20
0.372534
11
3.5106
21
0.373883
0
LINE
8
BLACK
6
CONTINUOUS
10
3.5106
20
0.373883
11
3.49925
21
0.373883
0
LINE
8
BLACK
6
CONTINUOUS
10
3.25311
20
0.39286
11
3.25254
21
0.394252
0
LINE
8
BLACK
6
CONTINUOUS
10
3.25254
20
0.394252
11
3.25254
21
0.413937
0
LINE
8
BLACK
6
CONTINUOUS
10
3.25254
20
0.413937
11
3.25311
21
0.415329
0
LINE
8
BLACK
6
CONTINUOUS
10
3.25311
20
0.415329
11
3.26492
21
0.42714
0
LINE
8
BLACK
6
CONTINUOUS
10
3.26492
20
0.42714
11
3.26631
21
0.427717
0
LINE
8
BLACK
6
CONTINUOUS
10
3.26631
20
0.427717
11
3.3175
21
0.427717
0
LINE
8
BLACK
6
CONTINUOUS
10
3.3175
20
0.427717
11
3.31889
21
0.42714
0
LINE
8
BLACK
6
CONTINUOUS
10
3.31889
20
0.42714
11
3.31946
21
0.425748
0
LINE
8
BLACK
6
CONTINUOUS
10
3.31946
20
0.425748
11
3.31946
21
0.394252
0
LINE
8
BLACK
6
CONTINUOUS
10
3.31946
20
0.394252
11
3.31889
21
0.39286
0
LINE
8
BLACK
6
CONTINUOUS
10
3.31889
20
0.39286
11
3.3175
21
0.392283
0
LINE
8
BLACK
6
CONTINUOUS
10
3.3175
20
0.392283
11
3.2545
21
0.392283
0
LINE
8
BLACK
6
CONTINUOUS
10
3.2545
20
0.392283
11
3.25311
21
0.39286
0
LINE
8
BLACK
6
CONTINUOUS
10
3.26713
20
0.42378
11
3.25647
21
0.413122
0
LINE
8
BLACK
6
CONTINUOUS
10
3.25647
20
0.413122
11
3.25647
21
0.39622
0
LINE
8
BLACK
6
CONTINUOUS
10
3.25647
20
0.39622
11
3.31553
21
0.39622
0
LINE
8
BLACK
6
CONTINUOUS
10
3.31553
20
0.39622
11
3.31553
21
0.42378
0
LINE
8
BLACK
6
CONTINUOUS
10
3.31553
20
0.42378
11
3.26713
21
0.42378
0
LINE
8
BLACK
6
CONTINUOUS
10
3.27831
20
0.419731
11
3.2785
21
0.419744
0
LINE
8
BLACK
6
CONTINUOUS
10
3.2785
20
0.419744
11
3.28075
21
0.418995
0
LINE
8
BLACK
6
CONTINUOUS
10
3.28075
20
0.418995
11
3.28096
21
0.418814
0
LINE
8
BLACK
6
CONTINUOUS
10
3.28096
20
0.418814
11
3.28121
21
0.418709
0
LINE
8
BLACK
6
CONTINUOUS
10
3.28121
20
0.418709
11
3.28271
21
0.417209
0
LINE
8
BLACK
6
CONTINUOUS
10
3.28271
20
0.417209
11
3.28279
21
0.41703
0
LINE
8
BLACK
6
CONTINUOUS
10
3.28279
20
0.41703
11
3.28293
21
0.416902
0
LINE
8
BLACK
6
CONTINUOUS
10
3.28293
20
0.416902
11
3.28368
21
0.415403
0
LINE
8
BLACK
6
CONTINUOUS
10
3.28368
20
0.415403
11
3.28369
21
0.415269
0
LINE
8
BLACK
6
CONTINUOUS
10
3.28369
20
0.415269
11
3.28377
21
0.415161
0
LINE
8
BLACK
6
CONTINUOUS
10
3.28377
20
0.415161
11
3.28452
21
0.412161
0
LINE
8
BLACK
6
CONTINUOUS
10
3.28452
20
0.412161
11
3.2845
21
0.412013
0
LINE
8
BLACK
6
CONTINUOUS
10
3.2845
20
0.412013
11
3.28456
21
0.411875
0
LINE
8
BLACK
6
CONTINUOUS
10
3.28456
20
0.411875
11
3.28456
21
0.409625
0
LINE
8
BLACK
6
CONTINUOUS
10
3.28456
20
0.409625
11
3.2845
21
0.409487
0
LINE
8
BLACK
6
CONTINUOUS
10
3.2845
20
0.409487
11
3.28452
21
0.409339
0
LINE
8
BLACK
6
CONTINUOUS
10
3.28452
20
0.409339
11
3.28377
21
0.406339
0
LINE
8
BLACK
6
CONTINUOUS
10
3.28377
20
0.406339
11
3.28369
21
0.406231
0
LINE
8
BLACK
6
CONTINUOUS
10
3.28369
20
0.406231
11
3.28368
21
0.406097
0
LINE
8
BLACK
6
CONTINUOUS
10
3.28368
20
0.406097
11
3.28293
21
0.404597
0
LINE
8
BLACK
6
CONTINUOUS
10
3.28293
20
0.404597
11
3.28279
21
0.40447
0
LINE
8
BLACK
6
CONTINUOUS
10
3.28279
20
0.40447
11
3.28271
21
0.40429
0
LINE
8
BLACK
6
CONTINUOUS
10
3.28271
20
0.40429
11
3.28121
21
0.402791
0
LINE
8
BLACK
6
CONTINUOUS
10
3.28121
20
0.402791
11
3.28096
21
0.402685
0
LINE
8
BLACK
6
CONTINUOUS
10
3.28096
20
0.402685
11
3.28075
21
0.402505
0
LINE
8
BLACK
6
CONTINUOUS
10
3.28075
20
0.402505
11
3.2785
21
0.401755
0
LINE
8
BLACK
6
CONTINUOUS
10
3.2785
20
0.401755
11
3.27831
21
0.401769
0
LINE
8
BLACK
6
CONTINUOUS
10
3.27831
20
0.401769
11
3.27813
21
0.401695
0
LINE
8
BLACK
6
CONTINUOUS
10
3.27813
20
0.401695
11
3.27438
21
0.401695
0
LINE
8
BLACK
6
CONTINUOUS
10
3.27438
20
0.401695
11
3.27354
21
0.402041
0
LINE
8
BLACK
6
CONTINUOUS
10
3.27354
20
0.402041
11
3.2732
21
0.402876
0
LINE
8
BLACK
6
CONTINUOUS
10
3.2732
20
0.402876
11
3.2732
21
0.418624
0
LINE
8
BLACK
6
CONTINUOUS
10
3.2732
20
0.418624
11
3.27354
21
0.419459
0
LINE
8
BLACK
6
CONTINUOUS
10
3.27354
20
0.419459
11
3.27438
21
0.419805
0
LINE
8
BLACK
6
CONTINUOUS
10
3.27438
20
0.419805
11
3.27813
21
0.419805
0
LINE
8
BLACK
6
CONTINUOUS
10
3.27813
20
0.419805
11
3.27831
21
0.419731
0
LINE
8
BLACK
6
CONTINUOUS
10
3.27556
20
0.417443
11
3.27556
21
0.404057
0
LINE
8
BLACK
6
CONTINUOUS
10
3.27556
20
0.404057
11
3.27793
21
0.404057
0
LINE
8
BLACK
6
CONTINUOUS
10
3.27793
20
0.404057
11
3.27974
21
0.404658
0
LINE
8
BLACK
6
CONTINUOUS
10
3.27974
20
0.404658
11
3.2809
21
0.405825
0
LINE
8
BLACK
6
CONTINUOUS
10
3.2809
20
0.405825
11
3.28151
21
0.407038
0
LINE
8
BLACK
6
CONTINUOUS
10
3.28151
20
0.407038
11
3.28219
21
0.40977
0
LINE
8
BLACK
6
CONTINUOUS
10
3.28219
20
0.40977
11
3.28219
21
0.411729
0
LINE
8
BLACK
6
CONTINUOUS
10
3.28219
20
0.411729
11
3.28151
21
0.414462
0
LINE
8
BLACK
6
CONTINUOUS
10
3.28151
20
0.414462
11
3.2809
21
0.415675
0
LINE
8
BLACK
6
CONTINUOUS
10
3.2809
20
0.415675
11
3.27974
21
0.416842
0
LINE
8
BLACK
6
CONTINUOUS
10
3.27974
20
0.416842
11
3.27793
21
0.417443
0
LINE
8
BLACK
6
CONTINUOUS
10
3.27793
20
0.417443
11
3.27556
21
0.417443
0
LINE
8
BLACK
6
CONTINUOUS
10
3.28854
20
0.402041
11
3.28819
21
0.402876
0
LINE
8
BLACK
6
CONTINUOUS
10
3.28819
20
0.402876
11
3.28854
21
0.403711
0
LINE
8
BLACK
6
CONTINUOUS
10
3.28854
20
0.403711
11
3.28937
21
0.404057
0
LINE
8
BLACK
6
CONTINUOUS
10
3.28937
20
0.404057
11
3.29269
21
0.404057
0
LINE
8
BLACK
6
CONTINUOUS
10
3.29269
20
0.404057
11
3.29269
21
0.415023
0
LINE
8
BLACK
6
CONTINUOUS
10
3.29269
20
0.415023
11
3.29171
21
0.414039
0
LINE
8
BLACK
6
CONTINUOUS
10
3.29171
20
0.414039
11
3.29153
21
0.413965
0
LINE
8
BLACK
6
CONTINUOUS
10
3.29153
20
0.413965
11
3.2914
21
0.413818
0
LINE
8
BLACK
6
CONTINUOUS
10
3.2914
20
0.413818
11
3.2899
21
0.413068
0
LINE
8
BLACK
6
CONTINUOUS
10
3.2899
20
0.413068
11
3.289
21
0.413004
0
LINE
8
BLACK
6
CONTINUOUS
10
3.289
20
0.413004
11
3.28832
21
0.413596
0
LINE
8
BLACK
6
CONTINUOUS
10
3.28832
20
0.413596
11
3.28825
21
0.414498
0
LINE
8
BLACK
6
CONTINUOUS
10
3.28825
20
0.414498
11
3.28885
21
0.415181
0
LINE
8
BLACK
6
CONTINUOUS
10
3.28885
20
0.415181
11
3.29017
21
0.415845
0
LINE
8
BLACK
6
CONTINUOUS
10
3.29017
20
0.415845
11
3.29146
21
0.417127
0
LINE
8
BLACK
6
CONTINUOUS
10
3.29146
20
0.417127
11
3.29289
21
0.419279
0
LINE
8
BLACK
6
CONTINUOUS
10
3.29289
20
0.419279
11
3.29299
21
0.419347
0
LINE
8
BLACK
6
CONTINUOUS
10
3.29299
20
0.419347
11
3.29304
21
0.419459
0
LINE
8
BLACK
6
CONTINUOUS
10
3.29304
20
0.419459
11
3.29336
21
0.419591
0
LINE
8
BLACK
6
CONTINUOUS
10
3.29336
20
0.419591
11
3.29364
21
0.419782
0
LINE
8
BLACK
6
CONTINUOUS
10
3.29364
20
0.419782
11
3.29376
21
0.419758
0
LINE
8
BLACK
6
CONTINUOUS
10
3.29376
20
0.419758
11
3.29387
21
0.419805
0
LINE
8
BLACK
6
CONTINUOUS
10
3.29387
20
0.419805
11
3.29419
21
0.419673
0
LINE
8
BLACK
6
CONTINUOUS
10
3.29419
20
0.419673
11
3.29453
21
0.419607
0
LINE
8
BLACK
6
CONTINUOUS
10
3.29453
20
0.419607
11
3.2946
21
0.419506
0
LINE
8
BLACK
6
CONTINUOUS
10
3.2946
20
0.419506
11
3.29471
21
0.419459
0
LINE
8
BLACK
6
CONTINUOUS
10
3.29471
20
0.419459
11
3.29484
21
0.419141
0
LINE
8
BLACK
6
CONTINUOUS
10
3.29484
20
0.419141
11
3.29503
21
0.418856
0
LINE
8
BLACK
6
CONTINUOUS
10
3.29503
20
0.418856
11
3.29501
21
0.418736
0
LINE
8
BLACK
6
CONTINUOUS
10
3.29501
20
0.418736
11
3.29506
21
0.418624
0
LINE
8
BLACK
6
CONTINUOUS
10
3.29506
20
0.418624
11
3.29506
21
0.404057
0
LINE
8
BLACK
6
CONTINUOUS
10
3.29506
20
0.404057
11
3.29837
21
0.404057
0
LINE
8
BLACK
6
CONTINUOUS
10
3.29837
20
0.404057
11
3.29921
21
0.403711
0
LINE
8
BLACK
6
CONTINUOUS
10
3.29921
20
0.403711
11
3.29955
21
0.402876
0
LINE
8
BLACK
6
CONTINUOUS
10
3.29955
20
0.402876
11
3.29921
21
0.402041
0
LINE
8
BLACK
6
CONTINUOUS
10
3.29921
20
0.402041
11
3.29837
21
0.401695
0
LINE
8
BLACK
6
CONTINUOUS
10
3.29837
20
0.401695
11
3.28937
21
0.401695
0
LINE
8
BLACK
6
CONTINUOUS
10
3.28937
20
0.401695
11
3.28854
21
0.402041
0
LINE
8
BLACK
6
CONTINUOUS
10
3.41748
20
0.393943
11
3.41691
21
0.395335
0
LINE
8
BLACK
6
CONTINUOUS
10
3.41691
20
0.395335
11
3.41691
21
0.427815
0
LINE
8
BLACK
6
CONTINUOUS
10
3.41691
20
0.427815
11
3.41748
21
0.429207
0
LINE
8
BLACK
6
CONTINUOUS
10
3.41748
20
0.429207
11
3.41887
21
0.429783
0
LINE
8
BLACK
6
CONTINUOUS
10
3.41887
20
0.429783
11
3.48187
21
0.429783
0
LINE
8
BLACK
6
CONTINUOUS
10
3.48187
20
0.429783
11
3.48326
21
0.429207
0
LINE
8
BLACK
6
CONTINUOUS
10
3.48326
20
0.429207
11
3.48383
21
0.427815
0
LINE
8
BLACK
6
CONTINUOUS
10
3.48383
20
0.427815
11
3.48383
21
0.395335
0
LINE
8
BLACK
6
CONTINUOUS
10
3.48383
20
0.395335
11
3.48326
21
0.393943
0
LINE
8
BLACK
6
CONTINUOUS
10
3.48326
20
0.393943
11
3.48187
21
0.393366
0
LINE
8
BLACK
6
CONTINUOUS
10
3.48187
20
0.393366
11
3.41887
21
0.393366
0
LINE
8
BLACK
6
CONTINUOUS
10
3.41887
20
0.393366
11
3.41748
21
0.393943
0
LINE
8
BLACK
6
CONTINUOUS
10
3.42084
20
0.425846
11
3.42084
21
0.397303
0
LINE
8
BLACK
6
CONTINUOUS
10
3.42084
20
0.397303
11
3.4799
21
0.397303
0
LINE
8
BLACK
6
CONTINUOUS
10
3.4799
20
0.397303
11
3.4799
21
0.425846
0
LINE
8
BLACK
6
CONTINUOUS
10
3.4799
20
0.425846
11
3.42084
21
0.425846
0
LINE
8
BLACK
6
CONTINUOUS
10
3.46208
20
0.421034
11
3.46242
21
0.420199
0
LINE
8
BLACK
6
CONTINUOUS
10
3.46242
20
0.420199
11
3.46208
21
0.419364
0
LINE
8
BLACK
6
CONTINUOUS
10
3.46208
20
0.419364
11
3.46124
21
0.419018
0
LINE
8
BLACK
6
CONTINUOUS
10
3.46124
20
0.419018
11
3.45852
21
0.419018
0
LINE
8
BLACK
6
CONTINUOUS
10
3.45852
20
0.419018
11
3.45744
21
0.418478
0
LINE
8
BLACK
6
CONTINUOUS
10
3.45744
20
0.418478
11
3.45691
21
0.417946
0
LINE
8
BLACK
6
CONTINUOUS
10
3.45691
20
0.417946
11
3.45559
21
0.415964
0
LINE
8
BLACK
6
CONTINUOUS
10
3.45559
20
0.415964
11
3.4553
21
0.414797
0
LINE
8
BLACK
6
CONTINUOUS
10
3.4553
20
0.414797
11
3.45622
21
0.415256
0
LINE
8
BLACK
6
CONTINUOUS
10
3.45622
20
0.415256
11
3.45649
21
0.415275
0
LINE
8
BLACK
6
CONTINUOUS
10
3.45649
20
0.415275
11
3.45674
21
0.415381
0
LINE
8
BLACK
6
CONTINUOUS
10
3.45674
20
0.415381
11
3.45974
21
0.415381
0
LINE
8
BLACK
6
CONTINUOUS
10
3.45974
20
0.415381
11
3.46
21
0.415275
0
LINE
8
BLACK
6
CONTINUOUS
10
3.46
20
0.415275
11
3.46027
21
0.415256
0
LINE
8
BLACK
6
CONTINUOUS
10
3.46027
20
0.415256
11
3.46177
21
0.414506
0
LINE
8
BLACK
6
CONTINUOUS
10
3.46177
20
0.414506
11
3.4619
21
0.414359
0
LINE
8
BLACK
6
CONTINUOUS
10
3.4619
20
0.414359
11
3.46208
21
0.414285
0
LINE
8
BLACK
6
CONTINUOUS
10
3.46208
20
0.414285
11
3.46283
21
0.413535
0
LINE
8
BLACK
6
CONTINUOUS
10
3.46283
20
0.413535
11
3.4629
21
0.413355
0
LINE
8
BLACK
6
CONTINUOUS
10
3.4629
20
0.413355
11
3.46305
21
0.413228
0
LINE
8
BLACK
6
CONTINUOUS
10
3.46305
20
0.413228
11
3.4638
21
0.411728
0
LINE
8
BLACK
6
CONTINUOUS
10
3.4638
20
0.411728
11
3.46382
21
0.411454
0
LINE
8
BLACK
6
CONTINUOUS
10
3.46382
20
0.411454
11
3.46392
21
0.4112
0
LINE
8
BLACK
6
CONTINUOUS
10
3.46392
20
0.4112
11
3.46392
21
0.40745
0
LINE
8
BLACK
6
CONTINUOUS
10
3.46392
20
0.40745
11
3.46382
21
0.407196
0
LINE
8
BLACK
6
CONTINUOUS
10
3.46382
20
0.407196
11
3.4638
21
0.406922
0
LINE
8
BLACK
6
CONTINUOUS
10
3.4638
20
0.406922
11
3.46305
21
0.405422
0
LINE
8
BLACK
6
CONTINUOUS
10
3.46305
20
0.405422
11
3.4629
21
0.405295
0
LINE
8
BLACK
6
CONTINUOUS
10
3.4629
20
0.405295
11
3.46283
21
0.405115
0
LINE
8
BLACK
6
CONTINUOUS
10
3.46283
20
0.405115
11
3.46208
21
0.404365
0
LINE
8
BLACK
6
CONTINUOUS
10
3.46208
20
0.404365
11
3.4619
21
0.404291
0
LINE
8
BLACK
6
CONTINUOUS
10
3.4619
20
0.404291
11
3.46177
21
0.404144
0
LINE
8
BLACK
6
CONTINUOUS
10
3.46177
20
0.404144
11
3.46027
21
0.403394
0
LINE
8
BLACK
6
CONTINUOUS
10
3.46027
20
0.403394
11
3.46
21
0.403375
0
LINE
8
BLACK
6
CONTINUOUS
10
3.46
20
0.403375
11
3.45974
21
0.40327
0
LINE
8
BLACK
6
CONTINUOUS
10
3.45974
20
0.40327
11
3.45674
21
0.40327
0
LINE
8
BLACK
6
CONTINUOUS
10
3.45674
20
0.40327
11
3.45649
21
0.403375
0
LINE
8
BLACK
6
CONTINUOUS
10
3.45649
20
0.403375
11
3.45622
21
0.403394
0
LINE
8
BLACK
6
CONTINUOUS
10
3.45622
20
0.403394
11
3.45472
21
0.404144
0
LINE
8
BLACK
6
CONTINUOUS
10
3.45472
20
0.404144
11
3.45459
21
0.404291
0
LINE
8
BLACK
6
CONTINUOUS
10
3.45459
20
0.404291
11
3.45441
21
0.404365
0
LINE
8
BLACK
6
CONTINUOUS
10
3.45441
20
0.404365
11
3.45366
21
0.405115
0
LINE
8
BLACK
6
CONTINUOUS
10
3.45366
20
0.405115
11
3.45358
21
0.405295
0
LINE
8
BLACK
6
CONTINUOUS
10
3.45358
20
0.405295
11
3.45344
21
0.405422
0
LINE
8
BLACK
6
CONTINUOUS
10
3.45344
20
0.405422
11
3.45269
21
0.406922
0
LINE
8
BLACK
6
CONTINUOUS
10
3.45269
20
0.406922
11
3.45267
21
0.407196
0
LINE
8
BLACK
6
CONTINUOUS
10
3.45267
20
0.407196
11
3.45256
21
0.40745
0
LINE
8
BLACK
6
CONTINUOUS
10
3.45256
20
0.40745
11
3.45256
21
0.41345
0
LINE
8
BLACK
6
CONTINUOUS
10
3.45256
20
0.41345
11
3.45262
21
0.413588
0
LINE
8
BLACK
6
CONTINUOUS
10
3.45262
20
0.413588
11
3.4526
21
0.413736
0
LINE
8
BLACK
6
CONTINUOUS
10
3.4526
20
0.413736
11
3.45335
21
0.416736
0
LINE
8
BLACK
6
CONTINUOUS
10
3.45335
20
0.416736
11
3.45347
21
0.416902
0
LINE
8
BLACK
6
CONTINUOUS
10
3.45347
20
0.416902
11
3.45351
21
0.417104
0
LINE
8
BLACK
6
CONTINUOUS
10
3.45351
20
0.417104
11
3.45501
21
0.419354
0
LINE
8
BLACK
6
CONTINUOUS
10
3.45501
20
0.419354
11
3.45511
21
0.419422
0
LINE
8
BLACK
6
CONTINUOUS
10
3.45511
20
0.419422
11
3.45516
21
0.419534
0
LINE
8
BLACK
6
CONTINUOUS
10
3.45516
20
0.419534
11
3.45591
21
0.420284
0
LINE
8
BLACK
6
CONTINUOUS
10
3.45591
20
0.420284
11
3.45609
21
0.420358
0
LINE
8
BLACK
6
CONTINUOUS
10
3.45609
20
0.420358
11
3.45622
21
0.420505
0
LINE
8
BLACK
6
CONTINUOUS
10
3.45622
20
0.420505
11
3.45772
21
0.421255
0
LINE
8
BLACK
6
CONTINUOUS
10
3.45772
20
0.421255
11
3.45799
21
0.421275
0
LINE
8
BLACK
6
CONTINUOUS
10
3.45799
20
0.421275
11
3.45824
21
0.42138
0
LINE
8
BLACK
6
CONTINUOUS
10
3.45824
20
0.42138
11
3.46124
21
0.42138
0
LINE
8
BLACK
6
CONTINUOUS
10
3.46124
20
0.42138
11
3.46208
21
0.421034
0
LINE
8
BLACK
6
CONTINUOUS
10
3.45702
20
0.413018
11
3.45594
21
0.412479
0
LINE
8
BLACK
6
CONTINUOUS
10
3.45594
20
0.412479
11
3.45547
21
0.412
0
LINE
8
BLACK
6
CONTINUOUS
10
3.45547
20
0.412
11
3.45493
21
0.410921
0
LINE
8
BLACK
6
CONTINUOUS
10
3.45493
20
0.410921
11
3.45493
21
0.407729
0
LINE
8
BLACK
6
CONTINUOUS
10
3.45493
20
0.407729
11
3.45547
21
0.40665
0
LINE
8
BLACK
6
CONTINUOUS
10
3.45547
20
0.40665
11
3.45594
21
0.406171
0
LINE
8
BLACK
6
CONTINUOUS
10
3.45594
20
0.406171
11
3.45702
21
0.405632
0
LINE
8
BLACK
6
CONTINUOUS
10
3.45702
20
0.405632
11
3.45947
21
0.405632
0
LINE
8
BLACK
6
CONTINUOUS
10
3.45947
20
0.405632
11
3.46054
21
0.406171
0
LINE
8
BLACK
6
CONTINUOUS
10
3.46054
20
0.406171
11
3.46102
21
0.40665
0
LINE
8
BLACK
6
CONTINUOUS
10
3.46102
20
0.40665
11
3.46156
21
0.407729
0
LINE
8
BLACK
6
CONTINUOUS
10
3.46156
20
0.407729
11
3.46156
21
0.410921
0
LINE
8
BLACK
6
CONTINUOUS
10
3.46156
20
0.410921
11
3.46102
21
0.412
0
LINE
8
BLACK
6
CONTINUOUS
10
3.46102
20
0.412
11
3.46054
21
0.412479
0
LINE
8
BLACK
6
CONTINUOUS
10
3.46054
20
0.412479
11
3.45947
21
0.413018
0
LINE
8
BLACK
6
CONTINUOUS
10
3.45947
20
0.413018
11
3.45702
21
0.413018
0
LINE
8
BLACK
6
CONTINUOUS
10
3.445
20
0.421275
11
3.44527
21
0.421255
0
LINE
8
BLACK
6
CONTINUOUS
10
3.44527
20
0.421255
11
3.44677
21
0.420505
0
LINE
8
BLACK
6
CONTINUOUS
10
3.44677
20
0.420505
11
3.4469
21
0.420358
0
LINE
8
BLACK
6
CONTINUOUS
10
3.4469
20
0.420358
11
3.44708
21
0.420284
0
LINE
8
BLACK
6
CONTINUOUS
10
3.44708
20
0.420284
11
3.44783
21
0.419534
0
LINE
8
BLACK
6
CONTINUOUS
10
3.44783
20
0.419534
11
3.44791
21
0.419354
0
LINE
8
BLACK
6
CONTINUOUS
10
3.44791
20
0.419354
11
3.44805
21
0.419227
0
LINE
8
BLACK
6
CONTINUOUS
10
3.44805
20
0.419227
11
3.4488
21
0.417727
0
LINE
8
BLACK
6
CONTINUOUS
10
3.4488
20
0.417727
11
3.44882
21
0.417453
0
LINE
8
BLACK
6
CONTINUOUS
10
3.44882
20
0.417453
11
3.44893
21
0.417199
0
LINE
8
BLACK
6
CONTINUOUS
10
3.44893
20
0.417199
11
3.44893
21
0.414949
0
LINE
8
BLACK
6
CONTINUOUS
10
3.44893
20
0.414949
11
3.44882
21
0.414695
0
LINE
8
BLACK
6
CONTINUOUS
10
3.44882
20
0.414695
11
3.4488
21
0.414421
0
LINE
8
BLACK
6
CONTINUOUS
10
3.4488
20
0.414421
11
3.44805
21
0.412921
0
LINE
8
BLACK
6
CONTINUOUS
10
3.44805
20
0.412921
11
3.44791
21
0.412794
0
LINE
8
BLACK
6
CONTINUOUS
10
3.44791
20
0.412794
11
3.44783
21
0.412614
0
LINE
8
BLACK
6
CONTINUOUS
10
3.44783
20
0.412614
11
3.44708
21
0.411864
0
LINE
8
BLACK
6
CONTINUOUS
10
3.44708
20
0.411864
11
3.4469
21
0.41179
0
LINE
8
BLACK
6
CONTINUOUS
10
3.4469
20
0.41179
11
3.44677
21
0.411643
0
LINE
8
BLACK
6
CONTINUOUS
10
3.44677
20
0.411643
11
3.44527
21
0.410893
0
LINE
8
BLACK
6
CONTINUOUS
10
3.44527
20
0.410893
11
3.445
21
0.410874
0
LINE
8
BLACK
6
CONTINUOUS
10
3.445
20
0.410874
11
3.44476
21
0.410775
0
LINE
8
BLACK
6
CONTINUOUS
10
3.44476
20
0.410775
11
3.44871
21
0.405128
0
LINE
8
BLACK
6
CONTINUOUS
10
3.44871
20
0.405128
11
3.44891
21
0.404245
0
LINE
8
BLACK
6
CONTINUOUS
10
3.44891
20
0.404245
11
3.44842
21
0.403483
0
LINE
8
BLACK
6
CONTINUOUS
10
3.44842
20
0.403483
11
3.44754
21
0.403288
0
LINE
8
BLACK
6
CONTINUOUS
10
3.44754
20
0.403288
11
3.44678
21
0.403773
0
LINE
8
BLACK
6
CONTINUOUS
10
3.44678
20
0.403773
11
3.44188
21
0.410769
0
LINE
8
BLACK
6
CONTINUOUS
10
3.44188
20
0.410769
11
3.43993
21
0.410769
0
LINE
8
BLACK
6
CONTINUOUS
10
3.43993
20
0.410769
11
3.43993
21
0.404451
0
LINE
8
BLACK
6
CONTINUOUS
10
3.43993
20
0.404451
11
3.43958
21
0.403616
0
LINE
8
BLACK
6
CONTINUOUS
10
3.43958
20
0.403616
11
3.43875
21
0.40327
0
LINE
8
BLACK
6
CONTINUOUS
10
3.43875
20
0.40327
11
3.43791
21
0.403616
0
LINE
8
BLACK
6
CONTINUOUS
10
3.43791
20
0.403616
11
3.43757
21
0.404451
0
LINE
8
BLACK
6
CONTINUOUS
10
3.43757
20
0.404451
11
3.43757
21
0.420199
0
LINE
8
BLACK
6
CONTINUOUS
10
3.43757
20
0.420199
11
3.43791
21
0.421034
0
LINE
8
BLACK
6
CONTINUOUS
10
3.43791
20
0.421034
11
3.43875
21
0.42138
0
LINE
8
BLACK
6
CONTINUOUS
10
3.43875
20
0.42138
11
3.44475
21
0.42138
0
LINE
8
BLACK
6
CONTINUOUS
10
3.44475
20
0.42138
11
3.445
21
0.421275
0
LINE
8
BLACK
6
CONTINUOUS
10
3.43993
20
0.419018
11
3.43993
21
0.413131
0
LINE
8
BLACK
6
CONTINUOUS
10
3.43993
20
0.413131
11
3.44447
21
0.413131
0
LINE
8
BLACK
6
CONTINUOUS
10
3.44447
20
0.413131
11
3.44555
21
0.41367
0
LINE
8
BLACK
6
CONTINUOUS
10
3.44555
20
0.41367
11
3.44602
21
0.414149
0
LINE
8
BLACK
6
CONTINUOUS
10
3.44602
20
0.414149
11
3.44656
21
0.415228
0
LINE
8
BLACK
6
CONTINUOUS
10
3.44656
20
0.415228
11
3.44656
21
0.41692
0
LINE
8
BLACK
6
CONTINUOUS
10
3.44656
20
0.41692
11
3.44602
21
0.417999
0
LINE
8
BLACK
6
CONTINUOUS
10
3.44602
20
0.417999
11
3.44555
21
0.418478
0
LINE
8
BLACK
6
CONTINUOUS
10
3.44555
20
0.418478
11
3.44447
21
0.419018
0
LINE
8
BLACK
6
CONTINUOUS
10
3.44447
20
0.419018
11
3.43993
21
0.419018
  0
ENDSEC
  0
EOF
