  0
SECTION
  2
HEADER
  9
$ANGBASE
  50
0.0
  9
$ANGDIR
  70
1
  9
$MEASUREMENT
  70
0
  0
ENDSEC
  0
SECTION
  2
TABLES
  0
TABLE
  2
LTYPE
  70
4
  0
LTYPE
  5
40F
  2
CONTINUOUS
  70
0
  3
Solid line
  72
65
  73
0
  40
0.0
  0
LTYPE
  5
410
  2
DASHDOT
 70
0
  3
Dash Dot ____ _ ____ _
 72
65
 73
4
 40
2.0
 49
1.25
 49
-0.25
 49
0.25
 49
-0.25
  0
LTYPE
  5
411
  2
DASHED
 70
0
  3
Dashed __ __ __ __ __
 72
65
 73
2
 40
0.75
 49
0.5
 49
-0.25
  0
LTYPE
  5
43B
  2
DOTTED
 70
0
  3
Dotted .  .  .  .
 72
65
 73
2
 40
0.2
 49
0.0
 49
-0.2
  0
ENDTAB
  0
TABLE
  2
STYLE
  70
4
  0
STYLE
  2
KICAD
  70
0
  40
0
  41
1
  42
1
  50
0
  71
0
  3
isocp.shx
  0
STYLE
  2
KICADB
  70
0
  40
0
  41
1
  42
1
  50
0
  71
0
  3
isocp.shx
  0
STYLE
  2
KICADI
  70
0
  40
0
  41
1
  42
1
  50
15
  71
0
  3
isocp.shx
  0
STYLE
  2
KICADBI
  70
0
  40
0
  41
1
  42
1
  50
15
  71
0
  3
isocp.shx
  0
ENDTAB
  0
TABLE
  2
LAYER
  70
1
  0
LAYER
  2
BLACK
  70
0
  62
7
  6
CONTINUOUS
  0
ENDTAB
  0
ENDSEC
  0
SECTION
  2
ENTITIES
0
LINE
8
BLACK
6
CONTINUOUS
10
0.78832
20
0.0591465
11
0.788031
21
0.0598425
0
LINE
8
BLACK
6
CONTINUOUS
10
0.788031
20
0.0598425
11
0.788031
21
0.530709
0
LINE
8
BLACK
6
CONTINUOUS
10
0.788031
20
0.530709
11
0.78832
21
0.531405
0
LINE
8
BLACK
6
CONTINUOUS
10
0.78832
20
0.531405
11
0.789016
21
0.531693
0
LINE
8
BLACK
6
CONTINUOUS
10
0.789016
20
0.531693
11
1.04098
21
0.531693
0
LINE
8
BLACK
6
CONTINUOUS
10
1.04098
20
0.531693
11
1.04168
21
0.531405
0
LINE
8
BLACK
6
CONTINUOUS
10
1.04168
20
0.531405
11
1.04197
21
0.530709
0
LINE
8
BLACK
6
CONTINUOUS
10
1.04197
20
0.530709
11
1.04197
21
0.0598425
0
LINE
8
BLACK
6
CONTINUOUS
10
1.04197
20
0.0598425
11
1.04168
21
0.0591465
0
LINE
8
BLACK
6
CONTINUOUS
10
1.04168
20
0.0591465
11
1.04098
21
0.0588583
0
LINE
8
BLACK
6
CONTINUOUS
10
1.04098
20
0.0588583
11
0.789016
21
0.0588583
0
LINE
8
BLACK
6
CONTINUOUS
10
0.789016
20
0.0588583
11
0.78832
21
0.0591465
0
LINE
8
BLACK
6
CONTINUOUS
10
0.79
20
0.529724
11
0.79
21
0.0608268
0
LINE
8
BLACK
6
CONTINUOUS
10
0.79
20
0.0608268
11
1.04
21
0.0608268
0
LINE
8
BLACK
6
CONTINUOUS
10
1.04
20
0.0608268
11
1.04
21
0.529724
0
LINE
8
BLACK
6
CONTINUOUS
10
1.04
20
0.529724
11
0.79
21
0.529724
0
LINE
8
BLACK
6
CONTINUOUS
10
1.05537
20
0.0737213
11
1.05509
21
0.0744173
0
LINE
8
BLACK
6
CONTINUOUS
10
1.05509
20
0.0744173
11
1.05509
21
0.151583
0
LINE
8
BLACK
6
CONTINUOUS
10
1.05509
20
0.151583
11
1.05537
21
0.152279
0
LINE
8
BLACK
6
CONTINUOUS
10
1.05537
20
0.152279
11
1.05607
21
0.152567
0
LINE
8
BLACK
6
CONTINUOUS
10
1.05607
20
0.152567
11
1.18993
21
0.152567
0
LINE
8
BLACK
6
CONTINUOUS
10
1.18993
20
0.152567
11
1.19063
21
0.152279
0
LINE
8
BLACK
6
CONTINUOUS
10
1.19063
20
0.152279
11
1.19091
21
0.151583
0
LINE
8
BLACK
6
CONTINUOUS
10
1.19091
20
0.151583
11
1.19091
21
0.0744173
0
LINE
8
BLACK
6
CONTINUOUS
10
1.19091
20
0.0744173
11
1.19063
21
0.0737213
0
LINE
8
BLACK
6
CONTINUOUS
10
1.19063
20
0.0737213
11
1.18993
21
0.0734331
0
LINE
8
BLACK
6
CONTINUOUS
10
1.18993
20
0.0734331
11
1.05607
21
0.0734331
0
LINE
8
BLACK
6
CONTINUOUS
10
1.05607
20
0.0734331
11
1.05537
21
0.0737213
0
LINE
8
BLACK
6
CONTINUOUS
10
1.05706
20
0.150598
11
1.05706
21
0.0754016
0
LINE
8
BLACK
6
CONTINUOUS
10
1.05706
20
0.0754016
11
1.18894
21
0.0754016
0
LINE
8
BLACK
6
CONTINUOUS
10
1.18894
20
0.0754016
11
1.18894
21
0.150598
0
LINE
8
BLACK
6
CONTINUOUS
10
1.18894
20
0.150598
11
1.05706
21
0.150598
0
LINE
8
BLACK
6
CONTINUOUS
10
2.3423
20
0.13458
11
2.34201
21
0.135276
0
LINE
8
BLACK
6
CONTINUOUS
10
2.34201
20
0.135276
11
2.34201
21
0.455276
0
LINE
8
BLACK
6
CONTINUOUS
10
2.34201
20
0.455276
11
2.3423
21
0.455972
0
LINE
8
BLACK
6
CONTINUOUS
10
2.3423
20
0.455972
11
2.34299
21
0.45626
0
LINE
8
BLACK
6
CONTINUOUS
10
2.34299
20
0.45626
11
2.76299
21
0.45626
0
LINE
8
BLACK
6
CONTINUOUS
10
2.76299
20
0.45626
11
2.76369
21
0.455972
0
LINE
8
BLACK
6
CONTINUOUS
10
2.76369
20
0.455972
11
2.76398
21
0.455276
0
LINE
8
BLACK
6
CONTINUOUS
10
2.76398
20
0.455276
11
2.76398
21
0.135276
0
LINE
8
BLACK
6
CONTINUOUS
10
2.76398
20
0.135276
11
2.76369
21
0.13458
0
LINE
8
BLACK
6
CONTINUOUS
10
2.76369
20
0.13458
11
2.76299
21
0.134291
0
LINE
8
BLACK
6
CONTINUOUS
10
2.76299
20
0.134291
11
2.34299
21
0.134291
0
LINE
8
BLACK
6
CONTINUOUS
10
2.34299
20
0.134291
11
2.3423
21
0.13458
0
LINE
8
BLACK
6
CONTINUOUS
10
2.34398
20
0.454291
11
2.34398
21
0.13626
0
LINE
8
BLACK
6
CONTINUOUS
10
2.34398
20
0.13626
11
2.76201
21
0.13626
0
LINE
8
BLACK
6
CONTINUOUS
10
2.76201
20
0.13626
11
2.76201
21
0.454291
0
LINE
8
BLACK
6
CONTINUOUS
10
2.76201
20
0.454291
11
2.34398
21
0.454291
0
LINE
8
BLACK
6
CONTINUOUS
10
1.80556
20
0.155524
11
1.80528
21
0.15622
0
LINE
8
BLACK
6
CONTINUOUS
10
1.80528
20
0.15622
11
1.80528
21
0.272756
0
LINE
8
BLACK
6
CONTINUOUS
10
1.80528
20
0.272756
11
1.80556
21
0.273452
0
LINE
8
BLACK
6
CONTINUOUS
10
1.80556
20
0.273452
11
1.80626
21
0.27374
0
LINE
8
BLACK
6
CONTINUOUS
10
1.80626
20
0.27374
11
1.86374
21
0.27374
0
LINE
8
BLACK
6
CONTINUOUS
10
1.86374
20
0.27374
11
1.86444
21
0.273452
0
LINE
8
BLACK
6
CONTINUOUS
10
1.86444
20
0.273452
11
1.86472
21
0.272756
0
LINE
8
BLACK
6
CONTINUOUS
10
1.86472
20
0.272756
11
1.86472
21
0.15622
0
LINE
8
BLACK
6
CONTINUOUS
10
1.86472
20
0.15622
11
1.86444
21
0.155524
0
LINE
8
BLACK
6
CONTINUOUS
10
1.86444
20
0.155524
11
1.86374
21
0.155236
0
LINE
8
BLACK
6
CONTINUOUS
10
1.86374
20
0.155236
11
1.80626
21
0.155236
0
LINE
8
BLACK
6
CONTINUOUS
10
1.80626
20
0.155236
11
1.80556
21
0.155524
0
LINE
8
BLACK
6
CONTINUOUS
10
1.80724
20
0.271772
11
1.80724
21
0.157205
0
LINE
8
BLACK
6
CONTINUOUS
10
1.80724
20
0.157205
11
1.86276
21
0.157205
0
LINE
8
BLACK
6
CONTINUOUS
10
1.86276
20
0.157205
11
1.86276
21
0.271772
0
LINE
8
BLACK
6
CONTINUOUS
10
1.86276
20
0.271772
11
1.80724
21
0.271772
0
LINE
8
BLACK
6
CONTINUOUS
10
2.2469
20
0.179639
11
2.24661
21
0.180335
0
LINE
8
BLACK
6
CONTINUOUS
10
2.24661
20
0.180335
11
2.24661
21
0.326004
0
LINE
8
BLACK
6
CONTINUOUS
10
2.24661
20
0.326004
11
2.2469
21
0.3267
0
LINE
8
BLACK
6
CONTINUOUS
10
2.2469
20
0.3267
11
2.2476
21
0.326988
0
LINE
8
BLACK
6
CONTINUOUS
10
2.2476
20
0.326988
11
2.3224
21
0.326988
0
LINE
8
BLACK
6
CONTINUOUS
10
2.3224
20
0.326988
11
2.3231
21
0.3267
0
LINE
8
BLACK
6
CONTINUOUS
10
2.3231
20
0.3267
11
2.32339
21
0.326004
0
LINE
8
BLACK
6
CONTINUOUS
10
2.32339
20
0.326004
11
2.32339
21
0.180335
0
LINE
8
BLACK
6
CONTINUOUS
10
2.32339
20
0.180335
11
2.3231
21
0.179639
0
LINE
8
BLACK
6
CONTINUOUS
10
2.3231
20
0.179639
11
2.3224
21
0.17935
0
LINE
8
BLACK
6
CONTINUOUS
10
2.3224
20
0.17935
11
2.2476
21
0.17935
0
LINE
8
BLACK
6
CONTINUOUS
10
2.2476
20
0.17935
11
2.2469
21
0.179639
0
LINE
8
BLACK
6
CONTINUOUS
10
2.24858
20
0.32502
11
2.24858
21
0.181319
0
LINE
8
BLACK
6
CONTINUOUS
10
2.24858
20
0.181319
11
2.32142
21
0.181319
0
LINE
8
BLACK
6
CONTINUOUS
10
2.32142
20
0.181319
11
2.32142
21
0.32502
0
LINE
8
BLACK
6
CONTINUOUS
10
2.32142
20
0.32502
11
2.24858
21
0.32502
0
LINE
8
BLACK
6
CONTINUOUS
10
1.06104
20
0.195564
11
1.06075
21
0.19626
0
LINE
8
BLACK
6
CONTINUOUS
10
1.06075
20
0.19626
11
1.06075
21
0.25374
0
LINE
8
BLACK
6
CONTINUOUS
10
1.06075
20
0.25374
11
1.06104
21
0.254436
0
LINE
8
BLACK
6
CONTINUOUS
10
1.06104
20
0.254436
11
1.06173
21
0.254724
0
LINE
8
BLACK
6
CONTINUOUS
10
1.06173
20
0.254724
11
1.17827
21
0.254724
0
LINE
8
BLACK
6
CONTINUOUS
10
1.17827
20
0.254724
11
1.17896
21
0.254436
0
LINE
8
BLACK
6
CONTINUOUS
10
1.17896
20
0.254436
11
1.17925
21
0.25374
0
LINE
8
BLACK
6
CONTINUOUS
10
1.17925
20
0.25374
11
1.17925
21
0.19626
0
LINE
8
BLACK
6
CONTINUOUS
10
1.17925
20
0.19626
11
1.17896
21
0.195564
0
LINE
8
BLACK
6
CONTINUOUS
10
1.17896
20
0.195564
11
1.17827
21
0.195276
0
LINE
8
BLACK
6
CONTINUOUS
10
1.17827
20
0.195276
11
1.06173
21
0.195276
0
LINE
8
BLACK
6
CONTINUOUS
10
1.06173
20
0.195276
11
1.06104
21
0.195564
0
LINE
8
BLACK
6
CONTINUOUS
10
1.06272
20
0.252756
11
1.06272
21
0.197244
0
LINE
8
BLACK
6
CONTINUOUS
10
1.06272
20
0.197244
11
1.17728
21
0.197244
0
LINE
8
BLACK
6
CONTINUOUS
10
1.17728
20
0.197244
11
1.17728
21
0.252756
0
LINE
8
BLACK
6
CONTINUOUS
10
1.17728
20
0.252756
11
1.06272
21
0.252756
0
LINE
8
BLACK
6
CONTINUOUS
10
1.51172
20
0.204973
11
1.51143
21
0.205669
0
LINE
8
BLACK
6
CONTINUOUS
10
1.51143
20
0.205669
11
1.51143
21
0.339528
0
LINE
8
BLACK
6
CONTINUOUS
10
1.51143
20
0.339528
11
1.51172
21
0.340224
0
LINE
8
BLACK
6
CONTINUOUS
10
1.51172
20
0.340224
11
1.51242
21
0.340512
0
LINE
8
BLACK
6
CONTINUOUS
10
1.51242
20
0.340512
11
1.58958
21
0.340512
0
LINE
8
BLACK
6
CONTINUOUS
10
1.58958
20
0.340512
11
1.59028
21
0.340224
0
LINE
8
BLACK
6
CONTINUOUS
10
1.59028
20
0.340224
11
1.59057
21
0.339528
0
LINE
8
BLACK
6
CONTINUOUS
10
1.59057
20
0.339528
11
1.59057
21
0.205669
0
LINE
8
BLACK
6
CONTINUOUS
10
1.59057
20
0.205669
11
1.59028
21
0.204973
0
LINE
8
BLACK
6
CONTINUOUS
10
1.59028
20
0.204973
11
1.58958
21
0.204685
0
LINE
8
BLACK
6
CONTINUOUS
10
1.58958
20
0.204685
11
1.51242
21
0.204685
0
LINE
8
BLACK
6
CONTINUOUS
10
1.51242
20
0.204685
11
1.51172
21
0.204973
0
LINE
8
BLACK
6
CONTINUOUS
10
1.5134
20
0.338543
11
1.5134
21
0.206654
0
LINE
8
BLACK
6
CONTINUOUS
10
1.5134
20
0.206654
11
1.5886
21
0.206654
0
LINE
8
BLACK
6
CONTINUOUS
10
1.5886
20
0.206654
11
1.5886
21
0.338543
0
LINE
8
BLACK
6
CONTINUOUS
10
1.5886
20
0.338543
11
1.5134
21
0.338543
0
LINE
8
BLACK
6
CONTINUOUS
10
1.87464
20
0.206902
11
1.87435
21
0.207598
0
LINE
8
BLACK
6
CONTINUOUS
10
1.87435
20
0.207598
11
1.87435
21
0.282402
0
LINE
8
BLACK
6
CONTINUOUS
10
1.87435
20
0.282402
11
1.87464
21
0.283098
0
LINE
8
BLACK
6
CONTINUOUS
10
1.87464
20
0.283098
11
1.87533
21
0.283386
0
LINE
8
BLACK
6
CONTINUOUS
10
1.87533
20
0.283386
11
2.021
21
0.283386
0
LINE
8
BLACK
6
CONTINUOUS
10
2.021
20
0.283386
11
2.0217
21
0.283098
0
LINE
8
BLACK
6
CONTINUOUS
10
2.0217
20
0.283098
11
2.02199
21
0.282402
0
LINE
8
BLACK
6
CONTINUOUS
10
2.02199
20
0.282402
11
2.02199
21
0.207598
0
LINE
8
BLACK
6
CONTINUOUS
10
2.02199
20
0.207598
11
2.0217
21
0.206902
0
LINE
8
BLACK
6
CONTINUOUS
10
2.0217
20
0.206902
11
2.021
21
0.206614
0
LINE
8
BLACK
6
CONTINUOUS
10
2.021
20
0.206614
11
1.87533
21
0.206614
0
LINE
8
BLACK
6
CONTINUOUS
10
1.87533
20
0.206614
11
1.87464
21
0.206902
0
LINE
8
BLACK
6
CONTINUOUS
10
1.87632
20
0.281417
11
1.87632
21
0.208583
0
LINE
8
BLACK
6
CONTINUOUS
10
1.87632
20
0.208583
11
2.02002
21
0.208583
0
LINE
8
BLACK
6
CONTINUOUS
10
2.02002
20
0.208583
11
2.02002
21
0.281417
0
LINE
8
BLACK
6
CONTINUOUS
10
2.02002
20
0.281417
11
1.87632
21
0.281417
0
LINE
8
BLACK
6
CONTINUOUS
10
2.04052
20
0.215564
11
2.04024
21
0.21626
0
LINE
8
BLACK
6
CONTINUOUS
10
2.04024
20
0.21626
11
2.04024
21
0.27374
0
LINE
8
BLACK
6
CONTINUOUS
10
2.04024
20
0.27374
11
2.04052
21
0.274436
0
LINE
8
BLACK
6
CONTINUOUS
10
2.04052
20
0.274436
11
2.04122
21
0.274724
0
LINE
8
BLACK
6
CONTINUOUS
10
2.04122
20
0.274724
11
2.15776
21
0.274724
0
LINE
8
BLACK
6
CONTINUOUS
10
2.15776
20
0.274724
11
2.15845
21
0.274436
0
LINE
8
BLACK
6
CONTINUOUS
10
2.15845
20
0.274436
11
2.15874
21
0.27374
0
LINE
8
BLACK
6
CONTINUOUS
10
2.15874
20
0.27374
11
2.15874
21
0.21626
0
LINE
8
BLACK
6
CONTINUOUS
10
2.15874
20
0.21626
11
2.15845
21
0.215564
0
LINE
8
BLACK
6
CONTINUOUS
10
2.15845
20
0.215564
11
2.15776
21
0.215276
0
LINE
8
BLACK
6
CONTINUOUS
10
2.15776
20
0.215276
11
2.04122
21
0.215276
0
LINE
8
BLACK
6
CONTINUOUS
10
2.04122
20
0.215276
11
2.04052
21
0.215564
0
LINE
8
BLACK
6
CONTINUOUS
10
2.0422
20
0.272756
11
2.0422
21
0.217244
0
LINE
8
BLACK
6
CONTINUOUS
10
2.0422
20
0.217244
11
2.15677
21
0.217244
0
LINE
8
BLACK
6
CONTINUOUS
10
2.15677
20
0.217244
11
2.15677
21
0.272756
0
LINE
8
BLACK
6
CONTINUOUS
10
2.15677
20
0.272756
11
2.0422
21
0.272756
0
LINE
8
BLACK
6
CONTINUOUS
10
1.7219
20
0.254639
11
1.72161
21
0.255335
0
LINE
8
BLACK
6
CONTINUOUS
10
1.72161
20
0.255335
11
1.72161
21
0.401004
0
LINE
8
BLACK
6
CONTINUOUS
10
1.72161
20
0.401004
11
1.7219
21
0.4017
0
LINE
8
BLACK
6
CONTINUOUS
10
1.7219
20
0.4017
11
1.7226
21
0.401988
0
LINE
8
BLACK
6
CONTINUOUS
10
1.7226
20
0.401988
11
1.7974
21
0.401988
0
LINE
8
BLACK
6
CONTINUOUS
10
1.7974
20
0.401988
11
1.7981
21
0.4017
0
LINE
8
BLACK
6
CONTINUOUS
10
1.7981
20
0.4017
11
1.79839
21
0.401004
0
LINE
8
BLACK
6
CONTINUOUS
10
1.79839
20
0.401004
11
1.79839
21
0.255335
0
LINE
8
BLACK
6
CONTINUOUS
10
1.79839
20
0.255335
11
1.7981
21
0.254639
0
LINE
8
BLACK
6
CONTINUOUS
10
1.7981
20
0.254639
11
1.7974
21
0.25435
0
LINE
8
BLACK
6
CONTINUOUS
10
1.7974
20
0.25435
11
1.7226
21
0.25435
0
LINE
8
BLACK
6
CONTINUOUS
10
1.7226
20
0.25435
11
1.7219
21
0.254639
0
LINE
8
BLACK
6
CONTINUOUS
10
1.72358
20
0.40002
11
1.72358
21
0.256319
0
LINE
8
BLACK
6
CONTINUOUS
10
1.72358
20
0.256319
11
1.79642
21
0.256319
0
LINE
8
BLACK
6
CONTINUOUS
10
1.79642
20
0.256319
11
1.79642
21
0.40002
0
LINE
8
BLACK
6
CONTINUOUS
10
1.79642
20
0.40002
11
1.72358
21
0.40002
0
LINE
8
BLACK
6
CONTINUOUS
10
1.06356
20
0.270564
11
1.06327
21
0.27126
0
LINE
8
BLACK
6
CONTINUOUS
10
1.06327
20
0.27126
11
1.06327
21
0.32874
0
LINE
8
BLACK
6
CONTINUOUS
10
1.06327
20
0.32874
11
1.06356
21
0.329436
0
LINE
8
BLACK
6
CONTINUOUS
10
1.06356
20
0.329436
11
1.06425
21
0.329724
0
LINE
8
BLACK
6
CONTINUOUS
10
1.06425
20
0.329724
11
1.18079
21
0.329724
0
LINE
8
BLACK
6
CONTINUOUS
10
1.18079
20
0.329724
11
1.18148
21
0.329436
0
LINE
8
BLACK
6
CONTINUOUS
10
1.18148
20
0.329436
11
1.18177
21
0.32874
0
LINE
8
BLACK
6
CONTINUOUS
10
1.18177
20
0.32874
11
1.18177
21
0.27126
0
LINE
8
BLACK
6
CONTINUOUS
10
1.18177
20
0.27126
11
1.18148
21
0.270564
0
LINE
8
BLACK
6
CONTINUOUS
10
1.18148
20
0.270564
11
1.18079
21
0.270276
0
LINE
8
BLACK
6
CONTINUOUS
10
1.18079
20
0.270276
11
1.06425
21
0.270276
0
LINE
8
BLACK
6
CONTINUOUS
10
1.06425
20
0.270276
11
1.06356
21
0.270564
0
LINE
8
BLACK
6
CONTINUOUS
10
1.06524
20
0.327756
11
1.06524
21
0.272244
0
LINE
8
BLACK
6
CONTINUOUS
10
1.06524
20
0.272244
11
1.1798
21
0.272244
0
LINE
8
BLACK
6
CONTINUOUS
10
1.1798
20
0.272244
11
1.1798
21
0.327756
0
LINE
8
BLACK
6
CONTINUOUS
10
1.1798
20
0.327756
11
1.06524
21
0.327756
0
LINE
8
BLACK
6
CONTINUOUS
10
1.98052
20
0.325564
11
1.98024
21
0.32626
0
LINE
8
BLACK
6
CONTINUOUS
10
1.98024
20
0.32626
11
1.98024
21
0.38374
0
LINE
8
BLACK
6
CONTINUOUS
10
1.98024
20
0.38374
11
1.98052
21
0.384436
0
LINE
8
BLACK
6
CONTINUOUS
10
1.98052
20
0.384436
11
1.98122
21
0.384724
0
LINE
8
BLACK
6
CONTINUOUS
10
1.98122
20
0.384724
11
2.09776
21
0.384724
0
LINE
8
BLACK
6
CONTINUOUS
10
2.09776
20
0.384724
11
2.09845
21
0.384436
0
LINE
8
BLACK
6
CONTINUOUS
10
2.09845
20
0.384436
11
2.09874
21
0.38374
0
LINE
8
BLACK
6
CONTINUOUS
10
2.09874
20
0.38374
11
2.09874
21
0.32626
0
LINE
8
BLACK
6
CONTINUOUS
10
2.09874
20
0.32626
11
2.09845
21
0.325564
0
LINE
8
BLACK
6
CONTINUOUS
10
2.09845
20
0.325564
11
2.09776
21
0.325276
0
LINE
8
BLACK
6
CONTINUOUS
10
2.09776
20
0.325276
11
1.98122
21
0.325276
0
LINE
8
BLACK
6
CONTINUOUS
10
1.98122
20
0.325276
11
1.98052
21
0.325564
0
LINE
8
BLACK
6
CONTINUOUS
10
1.9822
20
0.382756
11
1.9822
21
0.327244
0
LINE
8
BLACK
6
CONTINUOUS
10
1.9822
20
0.327244
11
2.09677
21
0.327244
0
LINE
8
BLACK
6
CONTINUOUS
10
2.09677
20
0.327244
11
2.09677
21
0.382756
0
LINE
8
BLACK
6
CONTINUOUS
10
2.09677
20
0.382756
11
1.9822
21
0.382756
0
LINE
8
BLACK
6
CONTINUOUS
10
2.12919
20
0.331312
11
2.1289
21
0.332008
0
LINE
8
BLACK
6
CONTINUOUS
10
2.1289
20
0.332008
11
2.1289
21
0.457992
0
LINE
8
BLACK
6
CONTINUOUS
10
2.1289
20
0.457992
11
2.12919
21
0.458688
0
LINE
8
BLACK
6
CONTINUOUS
10
2.12919
20
0.458688
11
2.12988
21
0.458976
0
LINE
8
BLACK
6
CONTINUOUS
10
2.12988
20
0.458976
11
2.24012
21
0.458976
0
LINE
8
BLACK
6
CONTINUOUS
10
2.24012
20
0.458976
11
2.24081
21
0.458688
0
LINE
8
BLACK
6
CONTINUOUS
10
2.24081
20
0.458688
11
2.2411
21
0.457992
0
LINE
8
BLACK
6
CONTINUOUS
10
2.2411
20
0.457992
11
2.2411
21
0.332008
0
LINE
8
BLACK
6
CONTINUOUS
10
2.2411
20
0.332008
11
2.24081
21
0.331312
0
LINE
8
BLACK
6
CONTINUOUS
10
2.24081
20
0.331312
11
2.24012
21
0.331024
0
LINE
8
BLACK
6
CONTINUOUS
10
2.24012
20
0.331024
11
2.12988
21
0.331024
0
LINE
8
BLACK
6
CONTINUOUS
10
2.12988
20
0.331024
11
2.12919
21
0.331312
0
LINE
8
BLACK
6
CONTINUOUS
10
2.13087
20
0.457008
11
2.13087
21
0.332992
0
LINE
8
BLACK
6
CONTINUOUS
10
2.13087
20
0.332992
11
2.23913
21
0.332992
0
LINE
8
BLACK
6
CONTINUOUS
10
2.23913
20
0.332992
11
2.23913
21
0.457008
0
LINE
8
BLACK
6
CONTINUOUS
10
2.23913
20
0.457008
11
2.13087
21
0.457008
0
LINE
8
BLACK
6
CONTINUOUS
10
1.06356
20
0.345564
11
1.06327
21
0.34626
0
LINE
8
BLACK
6
CONTINUOUS
10
1.06327
20
0.34626
11
1.06327
21
0.40374
0
LINE
8
BLACK
6
CONTINUOUS
10
1.06327
20
0.40374
11
1.06356
21
0.404436
0
LINE
8
BLACK
6
CONTINUOUS
10
1.06356
20
0.404436
11
1.06425
21
0.404724
0
LINE
8
BLACK
6
CONTINUOUS
10
1.06425
20
0.404724
11
1.18079
21
0.404724
0
LINE
8
BLACK
6
CONTINUOUS
10
1.18079
20
0.404724
11
1.18148
21
0.404436
0
LINE
8
BLACK
6
CONTINUOUS
10
1.18148
20
0.404436
11
1.18177
21
0.40374
0
LINE
8
BLACK
6
CONTINUOUS
10
1.18177
20
0.40374
11
1.18177
21
0.34626
0
LINE
8
BLACK
6
CONTINUOUS
10
1.18177
20
0.34626
11
1.18148
21
0.345564
0
LINE
8
BLACK
6
CONTINUOUS
10
1.18148
20
0.345564
11
1.18079
21
0.345276
0
LINE
8
BLACK
6
CONTINUOUS
10
1.18079
20
0.345276
11
1.06425
21
0.345276
0
LINE
8
BLACK
6
CONTINUOUS
10
1.06425
20
0.345276
11
1.06356
21
0.345564
0
LINE
8
BLACK
6
CONTINUOUS
10
1.06524
20
0.402756
11
1.06524
21
0.347244
0
LINE
8
BLACK
6
CONTINUOUS
10
1.06524
20
0.347244
11
1.1798
21
0.347244
0
LINE
8
BLACK
6
CONTINUOUS
10
1.1798
20
0.347244
11
1.1798
21
0.402756
0
LINE
8
BLACK
6
CONTINUOUS
10
1.1798
20
0.402756
11
1.06524
21
0.402756
0
LINE
8
BLACK
6
CONTINUOUS
10
1.51172
20
0.353375
11
1.51143
21
0.354071
0
LINE
8
BLACK
6
CONTINUOUS
10
1.51143
20
0.354071
11
1.51143
21
0.487929
0
LINE
8
BLACK
6
CONTINUOUS
10
1.51143
20
0.487929
11
1.51172
21
0.488625
0
LINE
8
BLACK
6
CONTINUOUS
10
1.51172
20
0.488625
11
1.51242
21
0.488913
0
LINE
8
BLACK
6
CONTINUOUS
10
1.51242
20
0.488913
11
1.58958
21
0.488913
0
LINE
8
BLACK
6
CONTINUOUS
10
1.58958
20
0.488913
11
1.59028
21
0.488625
0
LINE
8
BLACK
6
CONTINUOUS
10
1.59028
20
0.488625
11
1.59057
21
0.487929
0
LINE
8
BLACK
6
CONTINUOUS
10
1.59057
20
0.487929
11
1.59057
21
0.354071
0
LINE
8
BLACK
6
CONTINUOUS
10
1.59057
20
0.354071
11
1.59028
21
0.353375
0
LINE
8
BLACK
6
CONTINUOUS
10
1.59028
20
0.353375
11
1.58958
21
0.353087
0
LINE
8
BLACK
6
CONTINUOUS
10
1.58958
20
0.353087
11
1.51242
21
0.353087
0
LINE
8
BLACK
6
CONTINUOUS
10
1.51242
20
0.353087
11
1.51172
21
0.353375
0
LINE
8
BLACK
6
CONTINUOUS
10
1.5134
20
0.486945
11
1.5134
21
0.355055
0
LINE
8
BLACK
6
CONTINUOUS
10
1.5134
20
0.355055
11
1.5886
21
0.355055
0
LINE
8
BLACK
6
CONTINUOUS
10
1.5886
20
0.355055
11
1.5886
21
0.486945
0
LINE
8
BLACK
6
CONTINUOUS
10
1.5886
20
0.486945
11
1.5134
21
0.486945
0
LINE
8
BLACK
6
CONTINUOUS
10
1.83958
20
0.389698
11
1.83929
21
0.390394
0
LINE
8
BLACK
6
CONTINUOUS
10
1.83929
20
0.390394
11
1.83929
21
0.518346
0
LINE
8
BLACK
6
CONTINUOUS
10
1.83929
20
0.518346
11
1.83958
21
0.519042
0
LINE
8
BLACK
6
CONTINUOUS
10
1.83958
20
0.519042
11
1.84028
21
0.519331
0
LINE
8
BLACK
6
CONTINUOUS
10
1.84028
20
0.519331
11
1.94067
21
0.519331
0
LINE
8
BLACK
6
CONTINUOUS
10
1.94067
20
0.519331
11
1.94137
21
0.519042
0
LINE
8
BLACK
6
CONTINUOUS
10
1.94137
20
0.519042
11
1.94165
21
0.518346
0
LINE
8
BLACK
6
CONTINUOUS
10
1.94165
20
0.518346
11
1.94165
21
0.390394
0
LINE
8
BLACK
6
CONTINUOUS
10
1.94165
20
0.390394
11
1.94137
21
0.389698
0
LINE
8
BLACK
6
CONTINUOUS
10
1.94137
20
0.389698
11
1.94067
21
0.389409
0
LINE
8
BLACK
6
CONTINUOUS
10
1.94067
20
0.389409
11
1.84028
21
0.389409
0
LINE
8
BLACK
6
CONTINUOUS
10
1.84028
20
0.389409
11
1.83958
21
0.389698
0
LINE
8
BLACK
6
CONTINUOUS
10
1.84126
20
0.517362
11
1.84126
21
0.391378
0
LINE
8
BLACK
6
CONTINUOUS
10
1.84126
20
0.391378
11
1.93969
21
0.391378
0
LINE
8
BLACK
6
CONTINUOUS
10
1.93969
20
0.391378
11
1.93969
21
0.517362
0
LINE
8
BLACK
6
CONTINUOUS
10
1.93969
20
0.517362
11
1.84126
21
0.517362
0
LINE
8
BLACK
6
CONTINUOUS
10
1.95056
20
0.398517
11
1.95028
21
0.399213
0
LINE
8
BLACK
6
CONTINUOUS
10
1.95028
20
0.399213
11
1.95028
21
0.515748
0
LINE
8
BLACK
6
CONTINUOUS
10
1.95028
20
0.515748
11
1.95056
21
0.516444
0
LINE
8
BLACK
6
CONTINUOUS
10
1.95056
20
0.516444
11
1.95126
21
0.516732
0
LINE
8
BLACK
6
CONTINUOUS
10
1.95126
20
0.516732
11
2.00874
21
0.516732
0
LINE
8
BLACK
6
CONTINUOUS
10
2.00874
20
0.516732
11
2.00944
21
0.516444
0
LINE
8
BLACK
6
CONTINUOUS
10
2.00944
20
0.516444
11
2.00972
21
0.515748
0
LINE
8
BLACK
6
CONTINUOUS
10
2.00972
20
0.515748
11
2.00972
21
0.399213
0
LINE
8
BLACK
6
CONTINUOUS
10
2.00972
20
0.399213
11
2.00944
21
0.398517
0
LINE
8
BLACK
6
CONTINUOUS
10
2.00944
20
0.398517
11
2.00874
21
0.398228
0
LINE
8
BLACK
6
CONTINUOUS
10
2.00874
20
0.398228
11
1.95126
21
0.398228
0
LINE
8
BLACK
6
CONTINUOUS
10
1.95126
20
0.398228
11
1.95056
21
0.398517
0
LINE
8
BLACK
6
CONTINUOUS
10
1.95224
20
0.514764
11
1.95224
21
0.400197
0
LINE
8
BLACK
6
CONTINUOUS
10
1.95224
20
0.400197
11
2.00776
21
0.400197
0
LINE
8
BLACK
6
CONTINUOUS
10
2.00776
20
0.400197
11
2.00776
21
0.514764
0
LINE
8
BLACK
6
CONTINUOUS
10
2.00776
20
0.514764
11
1.95224
21
0.514764
0
LINE
8
BLACK
6
CONTINUOUS
10
2.25556
20
0.400524
11
2.25528
21
0.40122
0
LINE
8
BLACK
6
CONTINUOUS
10
2.25528
20
0.40122
11
2.25528
21
0.517756
0
LINE
8
BLACK
6
CONTINUOUS
10
2.25528
20
0.517756
11
2.25556
21
0.518452
0
LINE
8
BLACK
6
CONTINUOUS
10
2.25556
20
0.518452
11
2.25626
21
0.51874
0
LINE
8
BLACK
6
CONTINUOUS
10
2.25626
20
0.51874
11
2.31374
21
0.51874
0
LINE
8
BLACK
6
CONTINUOUS
10
2.31374
20
0.51874
11
2.31444
21
0.518452
0
LINE
8
BLACK
6
CONTINUOUS
10
2.31444
20
0.518452
11
2.31472
21
0.517756
0
LINE
8
BLACK
6
CONTINUOUS
10
2.31472
20
0.517756
11
2.31472
21
0.40122
0
LINE
8
BLACK
6
CONTINUOUS
10
2.31472
20
0.40122
11
2.31444
21
0.400524
0
LINE
8
BLACK
6
CONTINUOUS
10
2.31444
20
0.400524
11
2.31374
21
0.400236
0
LINE
8
BLACK
6
CONTINUOUS
10
2.31374
20
0.400236
11
2.25626
21
0.400236
0
LINE
8
BLACK
6
CONTINUOUS
10
2.25626
20
0.400236
11
2.25556
21
0.400524
0
LINE
8
BLACK
6
CONTINUOUS
10
2.25724
20
0.516772
11
2.25724
21
0.402205
0
LINE
8
BLACK
6
CONTINUOUS
10
2.25724
20
0.402205
11
2.31276
21
0.402205
0
LINE
8
BLACK
6
CONTINUOUS
10
2.31276
20
0.402205
11
2.31276
21
0.516772
0
LINE
8
BLACK
6
CONTINUOUS
10
2.31276
20
0.516772
11
2.25724
21
0.516772
0
LINE
8
BLACK
6
CONTINUOUS
10
1.67052
20
0.410564
11
1.67024
21
0.41126
0
LINE
8
BLACK
6
CONTINUOUS
10
1.67024
20
0.41126
11
1.67024
21
0.46874
0
LINE
8
BLACK
6
CONTINUOUS
10
1.67024
20
0.46874
11
1.67052
21
0.469436
0
LINE
8
BLACK
6
CONTINUOUS
10
1.67052
20
0.469436
11
1.67122
21
0.469724
0
LINE
8
BLACK
6
CONTINUOUS
10
1.67122
20
0.469724
11
1.78776
21
0.469724
0
LINE
8
BLACK
6
CONTINUOUS
10
1.78776
20
0.469724
11
1.78845
21
0.469436
0
LINE
8
BLACK
6
CONTINUOUS
10
1.78845
20
0.469436
11
1.78874
21
0.46874
0
LINE
8
BLACK
6
CONTINUOUS
10
1.78874
20
0.46874
11
1.78874
21
0.41126
0
LINE
8
BLACK
6
CONTINUOUS
10
1.78874
20
0.41126
11
1.78845
21
0.410564
0
LINE
8
BLACK
6
CONTINUOUS
10
1.78845
20
0.410564
11
1.78776
21
0.410276
0
LINE
8
BLACK
6
CONTINUOUS
10
1.78776
20
0.410276
11
1.67122
21
0.410276
0
LINE
8
BLACK
6
CONTINUOUS
10
1.67122
20
0.410276
11
1.67052
21
0.410564
0
LINE
8
BLACK
6
CONTINUOUS
10
1.6722
20
0.467756
11
1.6722
21
0.412244
0
LINE
8
BLACK
6
CONTINUOUS
10
1.6722
20
0.412244
11
1.78677
21
0.412244
0
LINE
8
BLACK
6
CONTINUOUS
10
1.78677
20
0.412244
11
1.78677
21
0.467756
0
LINE
8
BLACK
6
CONTINUOUS
10
1.78677
20
0.467756
11
1.6722
21
0.467756
0
LINE
8
BLACK
6
CONTINUOUS
10
1.06356
20
0.415564
11
1.06327
21
0.41626
0
LINE
8
BLACK
6
CONTINUOUS
10
1.06327
20
0.41626
11
1.06327
21
0.47374
0
LINE
8
BLACK
6
CONTINUOUS
10
1.06327
20
0.47374
11
1.06356
21
0.474436
0
LINE
8
BLACK
6
CONTINUOUS
10
1.06356
20
0.474436
11
1.06425
21
0.474724
0
LINE
8
BLACK
6
CONTINUOUS
10
1.06425
20
0.474724
11
1.18079
21
0.474724
0
LINE
8
BLACK
6
CONTINUOUS
10
1.18079
20
0.474724
11
1.18148
21
0.474436
0
LINE
8
BLACK
6
CONTINUOUS
10
1.18148
20
0.474436
11
1.18177
21
0.47374
0
LINE
8
BLACK
6
CONTINUOUS
10
1.18177
20
0.47374
11
1.18177
21
0.41626
0
LINE
8
BLACK
6
CONTINUOUS
10
1.18177
20
0.41626
11
1.18148
21
0.415564
0
LINE
8
BLACK
6
CONTINUOUS
10
1.18148
20
0.415564
11
1.18079
21
0.415276
0
LINE
8
BLACK
6
CONTINUOUS
10
1.18079
20
0.415276
11
1.06425
21
0.415276
0
LINE
8
BLACK
6
CONTINUOUS
10
1.06425
20
0.415276
11
1.06356
21
0.415564
0
LINE
8
BLACK
6
CONTINUOUS
10
1.06524
20
0.472756
11
1.06524
21
0.417244
0
LINE
8
BLACK
6
CONTINUOUS
10
1.06524
20
0.417244
11
1.1798
21
0.417244
0
LINE
8
BLACK
6
CONTINUOUS
10
1.1798
20
0.417244
11
1.1798
21
0.472756
0
LINE
8
BLACK
6
CONTINUOUS
10
1.1798
20
0.472756
11
1.06524
21
0.472756
0
LINE
8
BLACK
6
CONTINUOUS
10
2.0379
20
0.444469
11
2.03761
21
0.445165
0
LINE
8
BLACK
6
CONTINUOUS
10
2.03761
20
0.445165
11
2.03761
21
0.590835
0
LINE
8
BLACK
6
CONTINUOUS
10
2.03761
20
0.590835
11
2.0379
21
0.591531
0
LINE
8
BLACK
6
CONTINUOUS
10
2.0379
20
0.591531
11
2.0386
21
0.591819
0
LINE
8
BLACK
6
CONTINUOUS
10
2.0386
20
0.591819
11
2.1134
21
0.591819
0
LINE
8
BLACK
6
CONTINUOUS
10
2.1134
20
0.591819
11
2.1141
21
0.591531
0
LINE
8
BLACK
6
CONTINUOUS
10
2.1141
20
0.591531
11
2.11439
21
0.590835
0
LINE
8
BLACK
6
CONTINUOUS
10
2.11439
20
0.590835
11
2.11439
21
0.445165
0
LINE
8
BLACK
6
CONTINUOUS
10
2.11439
20
0.445165
11
2.1141
21
0.444469
0
LINE
8
BLACK
6
CONTINUOUS
10
2.1141
20
0.444469
11
2.1134
21
0.444181
0
LINE
8
BLACK
6
CONTINUOUS
10
2.1134
20
0.444181
11
2.0386
21
0.444181
0
LINE
8
BLACK
6
CONTINUOUS
10
2.0386
20
0.444181
11
2.0379
21
0.444469
0
LINE
8
BLACK
6
CONTINUOUS
10
2.03958
20
0.58985
11
2.03958
21
0.44615
0
LINE
8
BLACK
6
CONTINUOUS
10
2.03958
20
0.44615
11
2.11242
21
0.44615
0
LINE
8
BLACK
6
CONTINUOUS
10
2.11242
20
0.44615
11
2.11242
21
0.58985
0
LINE
8
BLACK
6
CONTINUOUS
10
2.11242
20
0.58985
11
2.03958
21
0.58985
0
LINE
8
BLACK
6
CONTINUOUS
10
2.11956
20
0.465036
11
2.11928
21
0.465732
0
LINE
8
BLACK
6
CONTINUOUS
10
2.11928
20
0.465732
11
2.11928
21
0.582268
0
LINE
8
BLACK
6
CONTINUOUS
10
2.11928
20
0.582268
11
2.11956
21
0.582964
0
LINE
8
BLACK
6
CONTINUOUS
10
2.11956
20
0.582964
11
2.12026
21
0.583252
0
LINE
8
BLACK
6
CONTINUOUS
10
2.12026
20
0.583252
11
2.17774
21
0.583252
0
LINE
8
BLACK
6
CONTINUOUS
10
2.17774
20
0.583252
11
2.17844
21
0.582964
0
LINE
8
BLACK
6
CONTINUOUS
10
2.17844
20
0.582964
11
2.17872
21
0.582268
0
LINE
8
BLACK
6
CONTINUOUS
10
2.17872
20
0.582268
11
2.17872
21
0.465732
0
LINE
8
BLACK
6
CONTINUOUS
10
2.17872
20
0.465732
11
2.17844
21
0.465036
0
LINE
8
BLACK
6
CONTINUOUS
10
2.17844
20
0.465036
11
2.17774
21
0.464748
0
LINE
8
BLACK
6
CONTINUOUS
10
2.17774
20
0.464748
11
2.12026
21
0.464748
0
LINE
8
BLACK
6
CONTINUOUS
10
2.12026
20
0.464748
11
2.11956
21
0.465036
0
LINE
8
BLACK
6
CONTINUOUS
10
2.12124
20
0.581283
11
2.12124
21
0.466717
0
LINE
8
BLACK
6
CONTINUOUS
10
2.12124
20
0.466717
11
2.17676
21
0.466717
0
LINE
8
BLACK
6
CONTINUOUS
10
2.17676
20
0.466717
11
2.17676
21
0.581283
0
LINE
8
BLACK
6
CONTINUOUS
10
2.17676
20
0.581283
11
2.12124
21
0.581283
0
LINE
8
BLACK
6
CONTINUOUS
10
1.7219
20
0.479639
11
1.72161
21
0.480335
0
LINE
8
BLACK
6
CONTINUOUS
10
1.72161
20
0.480335
11
1.72161
21
0.626004
0
LINE
8
BLACK
6
CONTINUOUS
10
1.72161
20
0.626004
11
1.7219
21
0.6267
0
LINE
8
BLACK
6
CONTINUOUS
10
1.7219
20
0.6267
11
1.7226
21
0.626988
0
LINE
8
BLACK
6
CONTINUOUS
10
1.7226
20
0.626988
11
1.7974
21
0.626988
0
LINE
8
BLACK
6
CONTINUOUS
10
1.7974
20
0.626988
11
1.7981
21
0.6267
0
LINE
8
BLACK
6
CONTINUOUS
10
1.7981
20
0.6267
11
1.79839
21
0.626004
0
LINE
8
BLACK
6
CONTINUOUS
10
1.79839
20
0.626004
11
1.79839
21
0.480335
0
LINE
8
BLACK
6
CONTINUOUS
10
1.79839
20
0.480335
11
1.7981
21
0.479639
0
LINE
8
BLACK
6
CONTINUOUS
10
1.7981
20
0.479639
11
1.7974
21
0.47935
0
LINE
8
BLACK
6
CONTINUOUS
10
1.7974
20
0.47935
11
1.7226
21
0.47935
0
LINE
8
BLACK
6
CONTINUOUS
10
1.7226
20
0.47935
11
1.7219
21
0.479639
0
LINE
8
BLACK
6
CONTINUOUS
10
1.72358
20
0.62502
11
1.72358
21
0.481319
0
LINE
8
BLACK
6
CONTINUOUS
10
1.72358
20
0.481319
11
1.79642
21
0.481319
0
LINE
8
BLACK
6
CONTINUOUS
10
1.79642
20
0.481319
11
1.79642
21
0.62502
0
LINE
8
BLACK
6
CONTINUOUS
10
1.79642
20
0.62502
11
1.72358
21
0.62502
0
LINE
8
BLACK
6
CONTINUOUS
10
1.60572
20
0.489973
11
1.60543
21
0.490669
0
LINE
8
BLACK
6
CONTINUOUS
10
1.60543
20
0.490669
11
1.60543
21
0.624528
0
LINE
8
BLACK
6
CONTINUOUS
10
1.60543
20
0.624528
11
1.60572
21
0.625224
0
LINE
8
BLACK
6
CONTINUOUS
10
1.60572
20
0.625224
11
1.60642
21
0.625512
0
LINE
8
BLACK
6
CONTINUOUS
10
1.60642
20
0.625512
11
1.68358
21
0.625512
0
LINE
8
BLACK
6
CONTINUOUS
10
1.68358
20
0.625512
11
1.68428
21
0.625224
0
LINE
8
BLACK
6
CONTINUOUS
10
1.68428
20
0.625224
11
1.68457
21
0.624528
0
LINE
8
BLACK
6
CONTINUOUS
10
1.68457
20
0.624528
11
1.68457
21
0.490669
0
LINE
8
BLACK
6
CONTINUOUS
10
1.68457
20
0.490669
11
1.68428
21
0.489973
0
LINE
8
BLACK
6
CONTINUOUS
10
1.68428
20
0.489973
11
1.68358
21
0.489685
0
LINE
8
BLACK
6
CONTINUOUS
10
1.68358
20
0.489685
11
1.60642
21
0.489685
0
LINE
8
BLACK
6
CONTINUOUS
10
1.60642
20
0.489685
11
1.60572
21
0.489973
0
LINE
8
BLACK
6
CONTINUOUS
10
1.6074
20
0.623543
11
1.6074
21
0.491654
0
LINE
8
BLACK
6
CONTINUOUS
10
1.6074
20
0.491654
11
1.6826
21
0.491654
0
LINE
8
BLACK
6
CONTINUOUS
10
1.6826
20
0.491654
11
1.6826
21
0.623543
0
LINE
8
BLACK
6
CONTINUOUS
10
1.6826
20
0.623543
11
1.6074
21
0.623543
0
LINE
8
BLACK
6
CONTINUOUS
10
1.39556
20
0.496036
11
1.39528
21
0.496732
0
LINE
8
BLACK
6
CONTINUOUS
10
1.39528
20
0.496732
11
1.39528
21
0.613268
0
LINE
8
BLACK
6
CONTINUOUS
10
1.39528
20
0.613268
11
1.39556
21
0.613964
0
LINE
8
BLACK
6
CONTINUOUS
10
1.39556
20
0.613964
11
1.39626
21
0.614252
0
LINE
8
BLACK
6
CONTINUOUS
10
1.39626
20
0.614252
11
1.45374
21
0.614252
0
LINE
8
BLACK
6
CONTINUOUS
10
1.45374
20
0.614252
11
1.45444
21
0.613964
0
LINE
8
BLACK
6
CONTINUOUS
10
1.45444
20
0.613964
11
1.45472
21
0.613268
0
LINE
8
BLACK
6
CONTINUOUS
10
1.45472
20
0.613268
11
1.45472
21
0.496732
0
LINE
8
BLACK
6
CONTINUOUS
10
1.45472
20
0.496732
11
1.45444
21
0.496036
0
LINE
8
BLACK
6
CONTINUOUS
10
1.45444
20
0.496036
11
1.45374
21
0.495748
0
LINE
8
BLACK
6
CONTINUOUS
10
1.45374
20
0.495748
11
1.39626
21
0.495748
0
LINE
8
BLACK
6
CONTINUOUS
10
1.39626
20
0.495748
11
1.39556
21
0.496036
0
LINE
8
BLACK
6
CONTINUOUS
10
1.39724
20
0.612283
11
1.39724
21
0.497717
0
LINE
8
BLACK
6
CONTINUOUS
10
1.39724
20
0.497717
11
1.45276
21
0.497717
0
LINE
8
BLACK
6
CONTINUOUS
10
1.45276
20
0.497717
11
1.45276
21
0.612283
0
LINE
8
BLACK
6
CONTINUOUS
10
1.45276
20
0.612283
11
1.39724
21
0.612283
0
LINE
8
BLACK
6
CONTINUOUS
10
1.47056
20
0.506036
11
1.47028
21
0.506732
0
LINE
8
BLACK
6
CONTINUOUS
10
1.47028
20
0.506732
11
1.47028
21
0.623268
0
LINE
8
BLACK
6
CONTINUOUS
10
1.47028
20
0.623268
11
1.47056
21
0.623964
0
LINE
8
BLACK
6
CONTINUOUS
10
1.47056
20
0.623964
11
1.47126
21
0.624252
0
LINE
8
BLACK
6
CONTINUOUS
10
1.47126
20
0.624252
11
1.52874
21
0.624252
0
LINE
8
BLACK
6
CONTINUOUS
10
1.52874
20
0.624252
11
1.52944
21
0.623964
0
LINE
8
BLACK
6
CONTINUOUS
10
1.52944
20
0.623964
11
1.52972
21
0.623268
0
LINE
8
BLACK
6
CONTINUOUS
10
1.52972
20
0.623268
11
1.52972
21
0.506732
0
LINE
8
BLACK
6
CONTINUOUS
10
1.52972
20
0.506732
11
1.52944
21
0.506036
0
LINE
8
BLACK
6
CONTINUOUS
10
1.52944
20
0.506036
11
1.52874
21
0.505748
0
LINE
8
BLACK
6
CONTINUOUS
10
1.52874
20
0.505748
11
1.47126
21
0.505748
0
LINE
8
BLACK
6
CONTINUOUS
10
1.47126
20
0.505748
11
1.47056
21
0.506036
0
LINE
8
BLACK
6
CONTINUOUS
10
1.47224
20
0.622283
11
1.47224
21
0.507717
0
LINE
8
BLACK
6
CONTINUOUS
10
1.47224
20
0.507717
11
1.52776
21
0.507717
0
LINE
8
BLACK
6
CONTINUOUS
10
1.52776
20
0.507717
11
1.52776
21
0.622283
0
LINE
8
BLACK
6
CONTINUOUS
10
1.52776
20
0.622283
11
1.47224
21
0.622283
0
LINE
8
BLACK
6
CONTINUOUS
10
1.54056
20
0.506548
11
1.54028
21
0.507244
0
LINE
8
BLACK
6
CONTINUOUS
10
1.54028
20
0.507244
11
1.54028
21
0.62378
0
LINE
8
BLACK
6
CONTINUOUS
10
1.54028
20
0.62378
11
1.54056
21
0.624476
0
LINE
8
BLACK
6
CONTINUOUS
10
1.54056
20
0.624476
11
1.54126
21
0.624764
0
LINE
8
BLACK
6
CONTINUOUS
10
1.54126
20
0.624764
11
1.59874
21
0.624764
0
LINE
8
BLACK
6
CONTINUOUS
10
1.59874
20
0.624764
11
1.59944
21
0.624476
0
LINE
8
BLACK
6
CONTINUOUS
10
1.59944
20
0.624476
11
1.59972
21
0.62378
0
LINE
8
BLACK
6
CONTINUOUS
10
1.59972
20
0.62378
11
1.59972
21
0.507244
0
LINE
8
BLACK
6
CONTINUOUS
10
1.59972
20
0.507244
11
1.59944
21
0.506548
0
LINE
8
BLACK
6
CONTINUOUS
10
1.59944
20
0.506548
11
1.59874
21
0.50626
0
LINE
8
BLACK
6
CONTINUOUS
10
1.59874
20
0.50626
11
1.54126
21
0.50626
0
LINE
8
BLACK
6
CONTINUOUS
10
1.54126
20
0.50626
11
1.54056
21
0.506548
0
LINE
8
BLACK
6
CONTINUOUS
10
1.54224
20
0.622795
11
1.54224
21
0.508228
0
LINE
8
BLACK
6
CONTINUOUS
10
1.54224
20
0.508228
11
1.59776
21
0.508228
0
LINE
8
BLACK
6
CONTINUOUS
10
1.59776
20
0.508228
11
1.59776
21
0.622795
0
LINE
8
BLACK
6
CONTINUOUS
10
1.59776
20
0.622795
11
1.54224
21
0.622795
0
LINE
8
BLACK
6
CONTINUOUS
10
1.86964
20
0.526902
11
1.86935
21
0.527598
0
LINE
8
BLACK
6
CONTINUOUS
10
1.86935
20
0.527598
11
1.86935
21
0.602402
0
LINE
8
BLACK
6
CONTINUOUS
10
1.86935
20
0.602402
11
1.86964
21
0.603098
0
LINE
8
BLACK
6
CONTINUOUS
10
1.86964
20
0.603098
11
1.87033
21
0.603386
0
LINE
8
BLACK
6
CONTINUOUS
10
1.87033
20
0.603386
11
2.016
21
0.603386
0
LINE
8
BLACK
6
CONTINUOUS
10
2.016
20
0.603386
11
2.0167
21
0.603098
0
LINE
8
BLACK
6
CONTINUOUS
10
2.0167
20
0.603098
11
2.01699
21
0.602402
0
LINE
8
BLACK
6
CONTINUOUS
10
2.01699
20
0.602402
11
2.01699
21
0.527598
0
LINE
8
BLACK
6
CONTINUOUS
10
2.01699
20
0.527598
11
2.0167
21
0.526902
0
LINE
8
BLACK
6
CONTINUOUS
10
2.0167
20
0.526902
11
2.016
21
0.526614
0
LINE
8
BLACK
6
CONTINUOUS
10
2.016
20
0.526614
11
1.87033
21
0.526614
0
LINE
8
BLACK
6
CONTINUOUS
10
1.87033
20
0.526614
11
1.86964
21
0.526902
0
LINE
8
BLACK
6
CONTINUOUS
10
1.87132
20
0.601417
11
1.87132
21
0.528583
0
LINE
8
BLACK
6
CONTINUOUS
10
1.87132
20
0.528583
11
2.01502
21
0.528583
0
LINE
8
BLACK
6
CONTINUOUS
10
2.01502
20
0.528583
11
2.01502
21
0.601417
0
LINE
8
BLACK
6
CONTINUOUS
10
2.01502
20
0.601417
11
1.87132
21
0.601417
0
LINE
8
BLACK
6
CONTINUOUS
10
1.06497
20
0.530721
11
1.06469
21
0.531417
0
LINE
8
BLACK
6
CONTINUOUS
10
1.06469
20
0.531417
11
1.06469
21
0.608583
0
LINE
8
BLACK
6
CONTINUOUS
10
1.06469
20
0.608583
11
1.06497
21
0.609279
0
LINE
8
BLACK
6
CONTINUOUS
10
1.06497
20
0.609279
11
1.06567
21
0.609567
0
LINE
8
BLACK
6
CONTINUOUS
10
1.06567
20
0.609567
11
1.19953
21
0.609567
0
LINE
8
BLACK
6
CONTINUOUS
10
1.19953
20
0.609567
11
1.20022
21
0.609279
0
LINE
8
BLACK
6
CONTINUOUS
10
1.20022
20
0.609279
11
1.20051
21
0.608583
0
LINE
8
BLACK
6
CONTINUOUS
10
1.20051
20
0.608583
11
1.20051
21
0.531417
0
LINE
8
BLACK
6
CONTINUOUS
10
1.20051
20
0.531417
11
1.20022
21
0.530721
0
LINE
8
BLACK
6
CONTINUOUS
10
1.20022
20
0.530721
11
1.19953
21
0.530433
0
LINE
8
BLACK
6
CONTINUOUS
10
1.19953
20
0.530433
11
1.06567
21
0.530433
0
LINE
8
BLACK
6
CONTINUOUS
10
1.06567
20
0.530433
11
1.06497
21
0.530721
0
LINE
8
BLACK
6
CONTINUOUS
10
1.06665
20
0.607598
11
1.06665
21
0.532402
0
LINE
8
BLACK
6
CONTINUOUS
10
1.06665
20
0.532402
11
1.19854
21
0.532402
0
LINE
8
BLACK
6
CONTINUOUS
10
1.19854
20
0.532402
11
1.19854
21
0.607598
0
LINE
8
BLACK
6
CONTINUOUS
10
1.19854
20
0.607598
11
1.06665
21
0.607598
0
LINE
8
BLACK
6
CONTINUOUS
10
2.19891
20
0.538595
11
2.19862
21
0.539291
0
LINE
8
BLACK
6
CONTINUOUS
10
2.19862
20
0.539291
11
2.19862
21
0.649528
0
LINE
8
BLACK
6
CONTINUOUS
10
2.19862
20
0.649528
11
2.19891
21
0.650224
0
LINE
8
BLACK
6
CONTINUOUS
10
2.19891
20
0.650224
11
2.19961
21
0.650512
0
LINE
8
BLACK
6
CONTINUOUS
10
2.19961
20
0.650512
11
2.32559
21
0.650512
0
LINE
8
BLACK
6
CONTINUOUS
10
2.32559
20
0.650512
11
2.32629
21
0.650224
0
LINE
8
BLACK
6
CONTINUOUS
10
2.32629
20
0.650224
11
2.32657
21
0.649528
0
LINE
8
BLACK
6
CONTINUOUS
10
2.32657
20
0.649528
11
2.32657
21
0.539291
0
LINE
8
BLACK
6
CONTINUOUS
10
2.32657
20
0.539291
11
2.32629
21
0.538595
0
LINE
8
BLACK
6
CONTINUOUS
10
2.32629
20
0.538595
11
2.32559
21
0.538307
0
LINE
8
BLACK
6
CONTINUOUS
10
2.32559
20
0.538307
11
2.19961
21
0.538307
0
LINE
8
BLACK
6
CONTINUOUS
10
2.19961
20
0.538307
11
2.19891
21
0.538595
0
LINE
8
BLACK
6
CONTINUOUS
10
2.20059
20
0.648543
11
2.20059
21
0.540276
0
LINE
8
BLACK
6
CONTINUOUS
10
2.20059
20
0.540276
11
2.32461
21
0.540276
0
LINE
8
BLACK
6
CONTINUOUS
10
2.32461
20
0.540276
11
2.32461
21
0.648543
0
LINE
8
BLACK
6
CONTINUOUS
10
2.32461
20
0.648543
11
2.20059
21
0.648543
0
LINE
8
BLACK
6
CONTINUOUS
10
2.11556
20
0.589036
11
2.11528
21
0.589732
0
LINE
8
BLACK
6
CONTINUOUS
10
2.11528
20
0.589732
11
2.11528
21
0.706268
0
LINE
8
BLACK
6
CONTINUOUS
10
2.11528
20
0.706268
11
2.11556
21
0.706964
0
LINE
8
BLACK
6
CONTINUOUS
10
2.11556
20
0.706964
11
2.11626
21
0.707252
0
LINE
8
BLACK
6
CONTINUOUS
10
2.11626
20
0.707252
11
2.17374
21
0.707252
0
LINE
8
BLACK
6
CONTINUOUS
10
2.17374
20
0.707252
11
2.17444
21
0.706964
0
LINE
8
BLACK
6
CONTINUOUS
10
2.17444
20
0.706964
11
2.17472
21
0.706268
0
LINE
8
BLACK
6
CONTINUOUS
10
2.17472
20
0.706268
11
2.17472
21
0.589732
0
LINE
8
BLACK
6
CONTINUOUS
10
2.17472
20
0.589732
11
2.17444
21
0.589036
0
LINE
8
BLACK
6
CONTINUOUS
10
2.17444
20
0.589036
11
2.17374
21
0.588748
0
LINE
8
BLACK
6
CONTINUOUS
10
2.17374
20
0.588748
11
2.11626
21
0.588748
0
LINE
8
BLACK
6
CONTINUOUS
10
2.11626
20
0.588748
11
2.11556
21
0.589036
0
LINE
8
BLACK
6
CONTINUOUS
10
2.11724
20
0.705283
11
2.11724
21
0.590717
0
LINE
8
BLACK
6
CONTINUOUS
10
2.11724
20
0.590717
11
2.17276
21
0.590717
0
LINE
8
BLACK
6
CONTINUOUS
10
2.17276
20
0.590717
11
2.17276
21
0.705283
0
LINE
8
BLACK
6
CONTINUOUS
10
2.17276
20
0.705283
11
2.11724
21
0.705283
0
LINE
8
BLACK
6
CONTINUOUS
10
1.96552
20
0.605564
11
1.96524
21
0.60626
0
LINE
8
BLACK
6
CONTINUOUS
10
1.96524
20
0.60626
11
1.96524
21
0.66374
0
LINE
8
BLACK
6
CONTINUOUS
10
1.96524
20
0.66374
11
1.96552
21
0.664436
0
LINE
8
BLACK
6
CONTINUOUS
10
1.96552
20
0.664436
11
1.96622
21
0.664724
0
LINE
8
BLACK
6
CONTINUOUS
10
1.96622
20
0.664724
11
2.08276
21
0.664724
0
LINE
8
BLACK
6
CONTINUOUS
10
2.08276
20
0.664724
11
2.08345
21
0.664436
0
LINE
8
BLACK
6
CONTINUOUS
10
2.08345
20
0.664436
11
2.08374
21
0.66374
0
LINE
8
BLACK
6
CONTINUOUS
10
2.08374
20
0.66374
11
2.08374
21
0.60626
0
LINE
8
BLACK
6
CONTINUOUS
10
2.08374
20
0.60626
11
2.08345
21
0.605564
0
LINE
8
BLACK
6
CONTINUOUS
10
2.08345
20
0.605564
11
2.08276
21
0.605276
0
LINE
8
BLACK
6
CONTINUOUS
10
2.08276
20
0.605276
11
1.96622
21
0.605276
0
LINE
8
BLACK
6
CONTINUOUS
10
1.96622
20
0.605276
11
1.96552
21
0.605564
0
LINE
8
BLACK
6
CONTINUOUS
10
1.9672
20
0.662756
11
1.9672
21
0.607244
0
LINE
8
BLACK
6
CONTINUOUS
10
1.9672
20
0.607244
11
2.08177
21
0.607244
0
LINE
8
BLACK
6
CONTINUOUS
10
2.08177
20
0.607244
11
2.08177
21
0.662756
0
LINE
8
BLACK
6
CONTINUOUS
10
2.08177
20
0.662756
11
1.9672
21
0.662756
0
LINE
8
BLACK
6
CONTINUOUS
10
1.87056
20
0.611036
11
1.87028
21
0.611732
0
LINE
8
BLACK
6
CONTINUOUS
10
1.87028
20
0.611732
11
1.87028
21
0.728268
0
LINE
8
BLACK
6
CONTINUOUS
10
1.87028
20
0.728268
11
1.87056
21
0.728964
0
LINE
8
BLACK
6
CONTINUOUS
10
1.87056
20
0.728964
11
1.87126
21
0.729252
0
LINE
8
BLACK
6
CONTINUOUS
10
1.87126
20
0.729252
11
1.92874
21
0.729252
0
LINE
8
BLACK
6
CONTINUOUS
10
1.92874
20
0.729252
11
1.92944
21
0.728964
0
LINE
8
BLACK
6
CONTINUOUS
10
1.92944
20
0.728964
11
1.92972
21
0.728268
0
LINE
8
BLACK
6
CONTINUOUS
10
1.92972
20
0.728268
11
1.92972
21
0.611732
0
LINE
8
BLACK
6
CONTINUOUS
10
1.92972
20
0.611732
11
1.92944
21
0.611036
0
LINE
8
BLACK
6
CONTINUOUS
10
1.92944
20
0.611036
11
1.92874
21
0.610748
0
LINE
8
BLACK
6
CONTINUOUS
10
1.92874
20
0.610748
11
1.87126
21
0.610748
0
LINE
8
BLACK
6
CONTINUOUS
10
1.87126
20
0.610748
11
1.87056
21
0.611036
0
LINE
8
BLACK
6
CONTINUOUS
10
1.87224
20
0.727283
11
1.87224
21
0.612717
0
LINE
8
BLACK
6
CONTINUOUS
10
1.87224
20
0.612717
11
1.92776
21
0.612717
0
LINE
8
BLACK
6
CONTINUOUS
10
1.92776
20
0.612717
11
1.92776
21
0.727283
0
LINE
8
BLACK
6
CONTINUOUS
10
1.92776
20
0.727283
11
1.87224
21
0.727283
0
LINE
8
BLACK
6
CONTINUOUS
10
1.06052
20
0.630564
11
1.06024
21
0.63126
0
LINE
8
BLACK
6
CONTINUOUS
10
1.06024
20
0.63126
11
1.06024
21
0.68874
0
LINE
8
BLACK
6
CONTINUOUS
10
1.06024
20
0.68874
11
1.06052
21
0.689436
0
LINE
8
BLACK
6
CONTINUOUS
10
1.06052
20
0.689436
11
1.06122
21
0.689724
0
LINE
8
BLACK
6
CONTINUOUS
10
1.06122
20
0.689724
11
1.17776
21
0.689724
0
LINE
8
BLACK
6
CONTINUOUS
10
1.17776
20
0.689724
11
1.17845
21
0.689436
0
LINE
8
BLACK
6
CONTINUOUS
10
1.17845
20
0.689436
11
1.17874
21
0.68874
0
LINE
8
BLACK
6
CONTINUOUS
10
1.17874
20
0.68874
11
1.17874
21
0.63126
0
LINE
8
BLACK
6
CONTINUOUS
10
1.17874
20
0.63126
11
1.17845
21
0.630564
0
LINE
8
BLACK
6
CONTINUOUS
10
1.17845
20
0.630564
11
1.17776
21
0.630276
0
LINE
8
BLACK
6
CONTINUOUS
10
1.17776
20
0.630276
11
1.06122
21
0.630276
0
LINE
8
BLACK
6
CONTINUOUS
10
1.06122
20
0.630276
11
1.06052
21
0.630564
0
LINE
8
BLACK
6
CONTINUOUS
10
1.0622
20
0.687756
11
1.0622
21
0.632244
0
LINE
8
BLACK
6
CONTINUOUS
10
1.0622
20
0.632244
11
1.17677
21
0.632244
0
LINE
8
BLACK
6
CONTINUOUS
10
1.17677
20
0.632244
11
1.17677
21
0.687756
0
LINE
8
BLACK
6
CONTINUOUS
10
1.17677
20
0.687756
11
1.0622
21
0.687756
0
LINE
8
BLACK
6
CONTINUOUS
10
1.5779
20
0.634469
11
1.57761
21
0.635165
0
LINE
8
BLACK
6
CONTINUOUS
10
1.57761
20
0.635165
11
1.57761
21
0.780835
0
LINE
8
BLACK
6
CONTINUOUS
10
1.57761
20
0.780835
11
1.5779
21
0.781531
0
LINE
8
BLACK
6
CONTINUOUS
10
1.5779
20
0.781531
11
1.5786
21
0.781819
0
LINE
8
BLACK
6
CONTINUOUS
10
1.5786
20
0.781819
11
1.6534
21
0.781819
0
LINE
8
BLACK
6
CONTINUOUS
10
1.6534
20
0.781819
11
1.6541
21
0.781531
0
LINE
8
BLACK
6
CONTINUOUS
10
1.6541
20
0.781531
11
1.65439
21
0.780835
0
LINE
8
BLACK
6
CONTINUOUS
10
1.65439
20
0.780835
11
1.65439
21
0.635165
0
LINE
8
BLACK
6
CONTINUOUS
10
1.65439
20
0.635165
11
1.6541
21
0.634469
0
LINE
8
BLACK
6
CONTINUOUS
10
1.6541
20
0.634469
11
1.6534
21
0.634181
0
LINE
8
BLACK
6
CONTINUOUS
10
1.6534
20
0.634181
11
1.5786
21
0.634181
0
LINE
8
BLACK
6
CONTINUOUS
10
1.5786
20
0.634181
11
1.5779
21
0.634469
0
LINE
8
BLACK
6
CONTINUOUS
10
1.57958
20
0.77985
11
1.57958
21
0.63615
0
LINE
8
BLACK
6
CONTINUOUS
10
1.57958
20
0.63615
11
1.65242
21
0.63615
0
LINE
8
BLACK
6
CONTINUOUS
10
1.65242
20
0.63615
11
1.65242
21
0.77985
0
LINE
8
BLACK
6
CONTINUOUS
10
1.65242
20
0.77985
11
1.57958
21
0.77985
0
LINE
8
BLACK
6
CONTINUOUS
10
1.70982
20
0.77222
11
1.79222
21
0.689817
0
LINE
8
BLACK
6
CONTINUOUS
10
1.79222
20
0.689817
11
1.79251
21
0.689121
0
LINE
8
BLACK
6
CONTINUOUS
10
1.79251
20
0.689121
11
1.79235
21
0.68874
0
LINE
8
BLACK
6
CONTINUOUS
10
1.79235
20
0.68874
11
1.79222
21
0.688425
0
LINE
8
BLACK
6
CONTINUOUS
10
1.79222
20
0.688425
11
1.75158
21
0.64778
0
LINE
8
BLACK
6
CONTINUOUS
10
1.75158
20
0.64778
11
1.75088
21
0.647492
0
LINE
8
BLACK
6
CONTINUOUS
10
1.75088
20
0.647492
11
1.75018
21
0.64778
0
LINE
8
BLACK
6
CONTINUOUS
10
1.75018
20
0.64778
11
1.66778
21
0.730183
0
LINE
8
BLACK
6
CONTINUOUS
10
1.66778
20
0.730183
11
1.66749
21
0.730879
0
LINE
8
BLACK
6
CONTINUOUS
10
1.66749
20
0.730879
11
1.66778
21
0.731575
0
LINE
8
BLACK
6
CONTINUOUS
10
1.66778
20
0.731575
11
1.70842
21
0.77222
0
LINE
8
BLACK
6
CONTINUOUS
10
1.70842
20
0.77222
11
1.70912
21
0.772508
0
LINE
8
BLACK
6
CONTINUOUS
10
1.70912
20
0.772508
11
1.70982
21
0.77222
0
LINE
8
BLACK
6
CONTINUOUS
10
1.66987
20
0.730879
11
1.75088
21
0.649868
0
LINE
8
BLACK
6
CONTINUOUS
10
1.75088
20
0.649868
11
1.79013
21
0.689121
0
LINE
8
BLACK
6
CONTINUOUS
10
1.79013
20
0.689121
11
1.70912
21
0.770132
0
LINE
8
BLACK
6
CONTINUOUS
10
1.70912
20
0.770132
11
1.66987
21
0.730879
0
LINE
8
BLACK
6
CONTINUOUS
10
1.22678
20
0.666469
11
1.2265
21
0.667165
0
LINE
8
BLACK
6
CONTINUOUS
10
1.2265
20
0.667165
11
1.2265
21
0.912835
0
LINE
8
BLACK
6
CONTINUOUS
10
1.2265
20
0.912835
11
1.22678
21
0.913531
0
LINE
8
BLACK
6
CONTINUOUS
10
1.22678
20
0.913531
11
1.22748
21
0.913819
0
LINE
8
BLACK
6
CONTINUOUS
10
1.22748
20
0.913819
11
1.51252
21
0.913819
0
LINE
8
BLACK
6
CONTINUOUS
10
1.51252
20
0.913819
11
1.51322
21
0.913531
0
LINE
8
BLACK
6
CONTINUOUS
10
1.51322
20
0.913531
11
1.5135
21
0.912835
0
LINE
8
BLACK
6
CONTINUOUS
10
1.5135
20
0.912835
11
1.5135
21
0.667165
0
LINE
8
BLACK
6
CONTINUOUS
10
1.5135
20
0.667165
11
1.51322
21
0.666469
0
LINE
8
BLACK
6
CONTINUOUS
10
1.51322
20
0.666469
11
1.51252
21
0.666181
0
LINE
8
BLACK
6
CONTINUOUS
10
1.51252
20
0.666181
11
1.22748
21
0.666181
0
LINE
8
BLACK
6
CONTINUOUS
10
1.22748
20
0.666181
11
1.22678
21
0.666469
0
LINE
8
BLACK
6
CONTINUOUS
10
1.22846
20
0.91185
11
1.22846
21
0.66815
0
LINE
8
BLACK
6
CONTINUOUS
10
1.22846
20
0.66815
11
1.51154
21
0.66815
0
LINE
8
BLACK
6
CONTINUOUS
10
1.51154
20
0.66815
11
1.51154
21
0.91185
0
LINE
8
BLACK
6
CONTINUOUS
10
1.51154
20
0.91185
11
1.22846
21
0.91185
0
LINE
8
BLACK
6
CONTINUOUS
10
1.96552
20
0.670564
11
1.96524
21
0.67126
0
LINE
8
BLACK
6
CONTINUOUS
10
1.96524
20
0.67126
11
1.96524
21
0.72874
0
LINE
8
BLACK
6
CONTINUOUS
10
1.96524
20
0.72874
11
1.96552
21
0.729436
0
LINE
8
BLACK
6
CONTINUOUS
10
1.96552
20
0.729436
11
1.96622
21
0.729724
0
LINE
8
BLACK
6
CONTINUOUS
10
1.96622
20
0.729724
11
2.08276
21
0.729724
0
LINE
8
BLACK
6
CONTINUOUS
10
2.08276
20
0.729724
11
2.08345
21
0.729436
0
LINE
8
BLACK
6
CONTINUOUS
10
2.08345
20
0.729436
11
2.08374
21
0.72874
0
LINE
8
BLACK
6
CONTINUOUS
10
2.08374
20
0.72874
11
2.08374
21
0.67126
0
LINE
8
BLACK
6
CONTINUOUS
10
2.08374
20
0.67126
11
2.08345
21
0.670564
0
LINE
8
BLACK
6
CONTINUOUS
10
2.08345
20
0.670564
11
2.08276
21
0.670276
0
LINE
8
BLACK
6
CONTINUOUS
10
2.08276
20
0.670276
11
1.96622
21
0.670276
0
LINE
8
BLACK
6
CONTINUOUS
10
1.96622
20
0.670276
11
1.96552
21
0.670564
0
LINE
8
BLACK
6
CONTINUOUS
10
1.9672
20
0.727756
11
1.9672
21
0.672244
0
LINE
8
BLACK
6
CONTINUOUS
10
1.9672
20
0.672244
11
2.08177
21
0.672244
0
LINE
8
BLACK
6
CONTINUOUS
10
2.08177
20
0.672244
11
2.08177
21
0.727756
0
LINE
8
BLACK
6
CONTINUOUS
10
2.08177
20
0.727756
11
1.9672
21
0.727756
0
LINE
8
BLACK
6
CONTINUOUS
10
2.25556
20
0.675524
11
2.25528
21
0.67622
0
LINE
8
BLACK
6
CONTINUOUS
10
2.25528
20
0.67622
11
2.25528
21
0.792756
0
LINE
8
BLACK
6
CONTINUOUS
10
2.25528
20
0.792756
11
2.25556
21
0.793452
0
LINE
8
BLACK
6
CONTINUOUS
10
2.25556
20
0.793452
11
2.25626
21
0.79374
0
LINE
8
BLACK
6
CONTINUOUS
10
2.25626
20
0.79374
11
2.31374
21
0.79374
0
LINE
8
BLACK
6
CONTINUOUS
10
2.31374
20
0.79374
11
2.31444
21
0.793452
0
LINE
8
BLACK
6
CONTINUOUS
10
2.31444
20
0.793452
11
2.31472
21
0.792756
0
LINE
8
BLACK
6
CONTINUOUS
10
2.31472
20
0.792756
11
2.31472
21
0.67622
0
LINE
8
BLACK
6
CONTINUOUS
10
2.31472
20
0.67622
11
2.31444
21
0.675524
0
LINE
8
BLACK
6
CONTINUOUS
10
2.31444
20
0.675524
11
2.31374
21
0.675236
0
LINE
8
BLACK
6
CONTINUOUS
10
2.31374
20
0.675236
11
2.25626
21
0.675236
0
LINE
8
BLACK
6
CONTINUOUS
10
2.25626
20
0.675236
11
2.25556
21
0.675524
0
LINE
8
BLACK
6
CONTINUOUS
10
2.25724
20
0.791772
11
2.25724
21
0.677205
0
LINE
8
BLACK
6
CONTINUOUS
10
2.25724
20
0.677205
11
2.31276
21
0.677205
0
LINE
8
BLACK
6
CONTINUOUS
10
2.31276
20
0.677205
11
2.31276
21
0.791772
0
LINE
8
BLACK
6
CONTINUOUS
10
2.31276
20
0.791772
11
2.25724
21
0.791772
0
LINE
8
BLACK
6
CONTINUOUS
10
1.06052
20
0.700564
11
1.06024
21
0.70126
0
LINE
8
BLACK
6
CONTINUOUS
10
1.06024
20
0.70126
11
1.06024
21
0.75874
0
LINE
8
BLACK
6
CONTINUOUS
10
1.06024
20
0.75874
11
1.06052
21
0.759436
0
LINE
8
BLACK
6
CONTINUOUS
10
1.06052
20
0.759436
11
1.06122
21
0.759724
0
LINE
8
BLACK
6
CONTINUOUS
10
1.06122
20
0.759724
11
1.17776
21
0.759724
0
LINE
8
BLACK
6
CONTINUOUS
10
1.17776
20
0.759724
11
1.17845
21
0.759436
0
LINE
8
BLACK
6
CONTINUOUS
10
1.17845
20
0.759436
11
1.17874
21
0.75874
0
LINE
8
BLACK
6
CONTINUOUS
10
1.17874
20
0.75874
11
1.17874
21
0.70126
0
LINE
8
BLACK
6
CONTINUOUS
10
1.17874
20
0.70126
11
1.17845
21
0.700564
0
LINE
8
BLACK
6
CONTINUOUS
10
1.17845
20
0.700564
11
1.17776
21
0.700276
0
LINE
8
BLACK
6
CONTINUOUS
10
1.17776
20
0.700276
11
1.06122
21
0.700276
0
LINE
8
BLACK
6
CONTINUOUS
10
1.06122
20
0.700276
11
1.06052
21
0.700564
0
LINE
8
BLACK
6
CONTINUOUS
10
1.0622
20
0.757756
11
1.0622
21
0.702244
0
LINE
8
BLACK
6
CONTINUOUS
10
1.0622
20
0.702244
11
1.17677
21
0.702244
0
LINE
8
BLACK
6
CONTINUOUS
10
1.17677
20
0.702244
11
1.17677
21
0.757756
0
LINE
8
BLACK
6
CONTINUOUS
10
1.17677
20
0.757756
11
1.0622
21
0.757756
0
LINE
8
BLACK
6
CONTINUOUS
10
2.3423
20
0.725131
11
2.34201
21
0.725827
0
LINE
8
BLACK
6
CONTINUOUS
10
2.34201
20
0.725827
11
2.34201
21
1.04583
0
LINE
8
BLACK
6
CONTINUOUS
10
2.34201
20
1.04583
11
2.3423
21
1.04652
0
LINE
8
BLACK
6
CONTINUOUS
10
2.3423
20
1.04652
11
2.34299
21
1.04681
0
LINE
8
BLACK
6
CONTINUOUS
10
2.34299
20
1.04681
11
2.76299
21
1.04681
0
LINE
8
BLACK
6
CONTINUOUS
10
2.76299
20
1.04681
11
2.76369
21
1.04652
0
LINE
8
BLACK
6
CONTINUOUS
10
2.76369
20
1.04652
11
2.76398
21
1.04583
0
LINE
8
BLACK
6
CONTINUOUS
10
2.76398
20
1.04583
11
2.76398
21
0.725827
0
LINE
8
BLACK
6
CONTINUOUS
10
2.76398
20
0.725827
11
2.76369
21
0.725131
0
LINE
8
BLACK
6
CONTINUOUS
10
2.76369
20
0.725131
11
2.76299
21
0.724843
0
LINE
8
BLACK
6
CONTINUOUS
10
2.76299
20
0.724843
11
2.34299
21
0.724843
0
LINE
8
BLACK
6
CONTINUOUS
10
2.34299
20
0.724843
11
2.3423
21
0.725131
0
LINE
8
BLACK
6
CONTINUOUS
10
2.34398
20
1.04484
11
2.34398
21
0.726811
0
LINE
8
BLACK
6
CONTINUOUS
10
2.34398
20
0.726811
11
2.76201
21
0.726811
0
LINE
8
BLACK
6
CONTINUOUS
10
2.76201
20
0.726811
11
2.76201
21
1.04484
0
LINE
8
BLACK
6
CONTINUOUS
10
2.76201
20
1.04484
11
2.34398
21
1.04484
0
LINE
8
BLACK
6
CONTINUOUS
10
1.8193
20
0.744343
11
1.81902
21
0.745039
0
LINE
8
BLACK
6
CONTINUOUS
10
1.81902
20
0.745039
11
1.81902
21
0.945039
0
LINE
8
BLACK
6
CONTINUOUS
10
1.81902
20
0.945039
11
1.8193
21
0.945735
0
LINE
8
BLACK
6
CONTINUOUS
10
1.8193
20
0.945735
11
1.82
21
0.946024
0
LINE
8
BLACK
6
CONTINUOUS
10
1.82
20
0.946024
11
1.98
21
0.946024
0
LINE
8
BLACK
6
CONTINUOUS
10
1.98
20
0.946024
11
1.9807
21
0.945735
0
LINE
8
BLACK
6
CONTINUOUS
10
1.9807
20
0.945735
11
1.98098
21
0.945039
0
LINE
8
BLACK
6
CONTINUOUS
10
1.98098
20
0.945039
11
1.98098
21
0.745039
0
LINE
8
BLACK
6
CONTINUOUS
10
1.98098
20
0.745039
11
1.9807
21
0.744343
0
LINE
8
BLACK
6
CONTINUOUS
10
1.9807
20
0.744343
11
1.98
21
0.744055
0
LINE
8
BLACK
6
CONTINUOUS
10
1.98
20
0.744055
11
1.82
21
0.744055
0
LINE
8
BLACK
6
CONTINUOUS
10
1.82
20
0.744055
11
1.8193
21
0.744343
0
LINE
8
BLACK
6
CONTINUOUS
10
1.82098
20
0.944055
11
1.82098
21
0.746024
0
LINE
8
BLACK
6
CONTINUOUS
10
1.82098
20
0.746024
11
1.97902
21
0.746024
0
LINE
8
BLACK
6
CONTINUOUS
10
1.97902
20
0.746024
11
1.97902
21
0.944055
0
LINE
8
BLACK
6
CONTINUOUS
10
1.97902
20
0.944055
11
1.82098
21
0.944055
0
LINE
8
BLACK
6
CONTINUOUS
10
1.5439
20
0.784469
11
1.54361
21
0.785165
0
LINE
8
BLACK
6
CONTINUOUS
10
1.54361
20
0.785165
11
1.54361
21
0.930835
0
LINE
8
BLACK
6
CONTINUOUS
10
1.54361
20
0.930835
11
1.5439
21
0.931531
0
LINE
8
BLACK
6
CONTINUOUS
10
1.5439
20
0.931531
11
1.5446
21
0.931819
0
LINE
8
BLACK
6
CONTINUOUS
10
1.5446
20
0.931819
11
1.6194
21
0.931819
0
LINE
8
BLACK
6
CONTINUOUS
10
1.6194
20
0.931819
11
1.6201
21
0.931531
0
LINE
8
BLACK
6
CONTINUOUS
10
1.6201
20
0.931531
11
1.62039
21
0.930835
0
LINE
8
BLACK
6
CONTINUOUS
10
1.62039
20
0.930835
11
1.62039
21
0.785165
0
LINE
8
BLACK
6
CONTINUOUS
10
1.62039
20
0.785165
11
1.6201
21
0.784469
0
LINE
8
BLACK
6
CONTINUOUS
10
1.6201
20
0.784469
11
1.6194
21
0.784181
0
LINE
8
BLACK
6
CONTINUOUS
10
1.6194
20
0.784181
11
1.5446
21
0.784181
0
LINE
8
BLACK
6
CONTINUOUS
10
1.5446
20
0.784181
11
1.5439
21
0.784469
0
LINE
8
BLACK
6
CONTINUOUS
10
1.54558
20
0.92985
11
1.54558
21
0.78615
0
LINE
8
BLACK
6
CONTINUOUS
10
1.54558
20
0.78615
11
1.61842
21
0.78615
0
LINE
8
BLACK
6
CONTINUOUS
10
1.61842
20
0.78615
11
1.61842
21
0.92985
0
LINE
8
BLACK
6
CONTINUOUS
10
1.61842
20
0.92985
11
1.54558
21
0.92985
0
LINE
8
BLACK
6
CONTINUOUS
10
1.13056
20
0.793517
11
1.13028
21
0.794213
0
LINE
8
BLACK
6
CONTINUOUS
10
1.13028
20
0.794213
11
1.13028
21
0.910748
0
LINE
8
BLACK
6
CONTINUOUS
10
1.13028
20
0.910748
11
1.13056
21
0.911444
0
LINE
8
BLACK
6
CONTINUOUS
10
1.13056
20
0.911444
11
1.13126
21
0.911732
0
LINE
8
BLACK
6
CONTINUOUS
10
1.13126
20
0.911732
11
1.18874
21
0.911732
0
LINE
8
BLACK
6
CONTINUOUS
10
1.18874
20
0.911732
11
1.18944
21
0.911444
0
LINE
8
BLACK
6
CONTINUOUS
10
1.18944
20
0.911444
11
1.18972
21
0.910748
0
LINE
8
BLACK
6
CONTINUOUS
10
1.18972
20
0.910748
11
1.18972
21
0.794213
0
LINE
8
BLACK
6
CONTINUOUS
10
1.18972
20
0.794213
11
1.18944
21
0.793517
0
LINE
8
BLACK
6
CONTINUOUS
10
1.18944
20
0.793517
11
1.18874
21
0.793228
0
LINE
8
BLACK
6
CONTINUOUS
10
1.18874
20
0.793228
11
1.13126
21
0.793228
0
LINE
8
BLACK
6
CONTINUOUS
10
1.13126
20
0.793228
11
1.13056
21
0.793517
0
LINE
8
BLACK
6
CONTINUOUS
10
1.13224
20
0.909764
11
1.13224
21
0.795197
0
LINE
8
BLACK
6
CONTINUOUS
10
1.13224
20
0.795197
11
1.18776
21
0.795197
0
LINE
8
BLACK
6
CONTINUOUS
10
1.18776
20
0.795197
11
1.18776
21
0.909764
0
LINE
8
BLACK
6
CONTINUOUS
10
1.18776
20
0.909764
11
1.13224
21
0.909764
0
LINE
8
BLACK
6
CONTINUOUS
10
1.65104
20
0.800564
11
1.65075
21
0.80126
0
LINE
8
BLACK
6
CONTINUOUS
10
1.65075
20
0.80126
11
1.65075
21
0.85874
0
LINE
8
BLACK
6
CONTINUOUS
10
1.65075
20
0.85874
11
1.65104
21
0.859436
0
LINE
8
BLACK
6
CONTINUOUS
10
1.65104
20
0.859436
11
1.65173
21
0.859724
0
LINE
8
BLACK
6
CONTINUOUS
10
1.65173
20
0.859724
11
1.76827
21
0.859724
0
LINE
8
BLACK
6
CONTINUOUS
10
1.76827
20
0.859724
11
1.76896
21
0.859436
0
LINE
8
BLACK
6
CONTINUOUS
10
1.76896
20
0.859436
11
1.76925
21
0.85874
0
LINE
8
BLACK
6
CONTINUOUS
10
1.76925
20
0.85874
11
1.76925
21
0.80126
0
LINE
8
BLACK
6
CONTINUOUS
10
1.76925
20
0.80126
11
1.76896
21
0.800564
0
LINE
8
BLACK
6
CONTINUOUS
10
1.76896
20
0.800564
11
1.76827
21
0.800276
0
LINE
8
BLACK
6
CONTINUOUS
10
1.76827
20
0.800276
11
1.65173
21
0.800276
0
LINE
8
BLACK
6
CONTINUOUS
10
1.65173
20
0.800276
11
1.65104
21
0.800564
0
LINE
8
BLACK
6
CONTINUOUS
10
1.65272
20
0.857756
11
1.65272
21
0.802244
0
LINE
8
BLACK
6
CONTINUOUS
10
1.65272
20
0.802244
11
1.76728
21
0.802244
0
LINE
8
BLACK
6
CONTINUOUS
10
1.76728
20
0.802244
11
1.76728
21
0.857756
0
LINE
8
BLACK
6
CONTINUOUS
10
1.76728
20
0.857756
11
1.65272
21
0.857756
0
LINE
8
BLACK
6
CONTINUOUS
10
1.02556
20
0.846036
11
1.02528
21
0.846732
0
LINE
8
BLACK
6
CONTINUOUS
10
1.02528
20
0.846732
11
1.02528
21
0.963268
0
LINE
8
BLACK
6
CONTINUOUS
10
1.02528
20
0.963268
11
1.02556
21
0.963964
0
LINE
8
BLACK
6
CONTINUOUS
10
1.02556
20
0.963964
11
1.02626
21
0.964252
0
LINE
8
BLACK
6
CONTINUOUS
10
1.02626
20
0.964252
11
1.08374
21
0.964252
0
LINE
8
BLACK
6
CONTINUOUS
10
1.08374
20
0.964252
11
1.08444
21
0.963964
0
LINE
8
BLACK
6
CONTINUOUS
10
1.08444
20
0.963964
11
1.08472
21
0.963268
0
LINE
8
BLACK
6
CONTINUOUS
10
1.08472
20
0.963268
11
1.08472
21
0.846732
0
LINE
8
BLACK
6
CONTINUOUS
10
1.08472
20
0.846732
11
1.08444
21
0.846036
0
LINE
8
BLACK
6
CONTINUOUS
10
1.08444
20
0.846036
11
1.08374
21
0.845748
0
LINE
8
BLACK
6
CONTINUOUS
10
1.08374
20
0.845748
11
1.02626
21
0.845748
0
LINE
8
BLACK
6
CONTINUOUS
10
1.02626
20
0.845748
11
1.02556
21
0.846036
0
LINE
8
BLACK
6
CONTINUOUS
10
1.02724
20
0.962283
11
1.02724
21
0.847717
0
LINE
8
BLACK
6
CONTINUOUS
10
1.02724
20
0.847717
11
1.08276
21
0.847717
0
LINE
8
BLACK
6
CONTINUOUS
10
1.08276
20
0.847717
11
1.08276
21
0.962283
0
LINE
8
BLACK
6
CONTINUOUS
10
1.08276
20
0.962283
11
1.02724
21
0.962283
0
LINE
8
BLACK
6
CONTINUOUS
10
0.945564
20
0.848517
11
0.945276
21
0.849213
0
LINE
8
BLACK
6
CONTINUOUS
10
0.945276
20
0.849213
11
0.945276
21
0.965748
0
LINE
8
BLACK
6
CONTINUOUS
10
0.945276
20
0.965748
11
0.945564
21
0.966444
0
LINE
8
BLACK
6
CONTINUOUS
10
0.945564
20
0.966444
11
0.94626
21
0.966732
0
LINE
8
BLACK
6
CONTINUOUS
10
0.94626
20
0.966732
11
1.00374
21
0.966732
0
LINE
8
BLACK
6
CONTINUOUS
10
1.00374
20
0.966732
11
1.00444
21
0.966444
0
LINE
8
BLACK
6
CONTINUOUS
10
1.00444
20
0.966444
11
1.00472
21
0.965748
0
LINE
8
BLACK
6
CONTINUOUS
10
1.00472
20
0.965748
11
1.00472
21
0.849213
0
LINE
8
BLACK
6
CONTINUOUS
10
1.00472
20
0.849213
11
1.00444
21
0.848517
0
LINE
8
BLACK
6
CONTINUOUS
10
1.00444
20
0.848517
11
1.00374
21
0.848228
0
LINE
8
BLACK
6
CONTINUOUS
10
1.00374
20
0.848228
11
0.94626
21
0.848228
0
LINE
8
BLACK
6
CONTINUOUS
10
0.94626
20
0.848228
11
0.945564
21
0.848517
0
LINE
8
BLACK
6
CONTINUOUS
10
0.947244
20
0.964764
11
0.947244
21
0.850197
0
LINE
8
BLACK
6
CONTINUOUS
10
0.947244
20
0.850197
11
1.00276
21
0.850197
0
LINE
8
BLACK
6
CONTINUOUS
10
1.00276
20
0.850197
11
1.00276
21
0.964764
0
LINE
8
BLACK
6
CONTINUOUS
10
1.00276
20
0.964764
11
0.947244
21
0.964764
0
LINE
8
BLACK
6
CONTINUOUS
10
0.868564
20
0.848556
11
0.868276
21
0.849252
0
LINE
8
BLACK
6
CONTINUOUS
10
0.868276
20
0.849252
11
0.868276
21
0.965787
0
LINE
8
BLACK
6
CONTINUOUS
10
0.868276
20
0.965787
11
0.868564
21
0.966483
0
LINE
8
BLACK
6
CONTINUOUS
10
0.868564
20
0.966483
11
0.86926
21
0.966772
0
LINE
8
BLACK
6
CONTINUOUS
10
0.86926
20
0.966772
11
0.92674
21
0.966772
0
LINE
8
BLACK
6
CONTINUOUS
10
0.92674
20
0.966772
11
0.927436
21
0.966483
0
LINE
8
BLACK
6
CONTINUOUS
10
0.927436
20
0.966483
11
0.927724
21
0.965787
0
LINE
8
BLACK
6
CONTINUOUS
10
0.927724
20
0.965787
11
0.927724
21
0.849252
0
LINE
8
BLACK
6
CONTINUOUS
10
0.927724
20
0.849252
11
0.927436
21
0.848556
0
LINE
8
BLACK
6
CONTINUOUS
10
0.927436
20
0.848556
11
0.92674
21
0.848268
0
LINE
8
BLACK
6
CONTINUOUS
10
0.92674
20
0.848268
11
0.86926
21
0.848268
0
LINE
8
BLACK
6
CONTINUOUS
10
0.86926
20
0.848268
11
0.868564
21
0.848556
0
LINE
8
BLACK
6
CONTINUOUS
10
0.870244
20
0.964803
11
0.870244
21
0.850236
0
LINE
8
BLACK
6
CONTINUOUS
10
0.870244
20
0.850236
11
0.925756
21
0.850236
0
LINE
8
BLACK
6
CONTINUOUS
10
0.925756
20
0.850236
11
0.925756
21
0.964803
0
LINE
8
BLACK
6
CONTINUOUS
10
0.925756
20
0.964803
11
0.870244
21
0.964803
0
LINE
8
BLACK
6
CONTINUOUS
10
2.2469
20
0.8533
11
2.24661
21
0.853996
0
LINE
8
BLACK
6
CONTINUOUS
10
2.24661
20
0.853996
11
2.24661
21
0.999665
0
LINE
8
BLACK
6
CONTINUOUS
10
2.24661
20
0.999665
11
2.2469
21
1.00036
0
LINE
8
BLACK
6
CONTINUOUS
10
2.2469
20
1.00036
11
2.2476
21
1.00065
0
LINE
8
BLACK
6
CONTINUOUS
10
2.2476
20
1.00065
11
2.3224
21
1.00065
0
LINE
8
BLACK
6
CONTINUOUS
10
2.3224
20
1.00065
11
2.3231
21
1.00036
0
LINE
8
BLACK
6
CONTINUOUS
10
2.3231
20
1.00036
11
2.32339
21
0.999665
0
LINE
8
BLACK
6
CONTINUOUS
10
2.32339
20
0.999665
11
2.32339
21
0.853996
0
LINE
8
BLACK
6
CONTINUOUS
10
2.32339
20
0.853996
11
2.3231
21
0.8533
0
LINE
8
BLACK
6
CONTINUOUS
10
2.3231
20
0.8533
11
2.3224
21
0.853012
0
LINE
8
BLACK
6
CONTINUOUS
10
2.3224
20
0.853012
11
2.2476
21
0.853012
0
LINE
8
BLACK
6
CONTINUOUS
10
2.2476
20
0.853012
11
2.2469
21
0.8533
0
LINE
8
BLACK
6
CONTINUOUS
10
2.24858
20
0.998681
11
2.24858
21
0.85498
0
LINE
8
BLACK
6
CONTINUOUS
10
2.24858
20
0.85498
11
2.32142
21
0.85498
0
LINE
8
BLACK
6
CONTINUOUS
10
2.32142
20
0.85498
11
2.32142
21
0.998681
0
LINE
8
BLACK
6
CONTINUOUS
10
2.32142
20
0.998681
11
2.24858
21
0.998681
0
LINE
8
BLACK
6
CONTINUOUS
10
1.78575
20
1.02864
11
1.83864
21
0.975751
0
LINE
8
BLACK
6
CONTINUOUS
10
1.83864
20
0.975751
11
1.83893
21
0.975055
0
LINE
8
BLACK
6
CONTINUOUS
10
1.83893
20
0.975055
11
1.83864
21
0.974359
0
LINE
8
BLACK
6
CONTINUOUS
10
1.83864
20
0.974359
11
1.73564
21
0.871355
0
LINE
8
BLACK
6
CONTINUOUS
10
1.73564
20
0.871355
11
1.73495
21
0.871067
0
LINE
8
BLACK
6
CONTINUOUS
10
1.73495
20
0.871067
11
1.73425
21
0.871355
0
LINE
8
BLACK
6
CONTINUOUS
10
1.73425
20
0.871355
11
1.68136
21
0.924249
0
LINE
8
BLACK
6
CONTINUOUS
10
1.68136
20
0.924249
11
1.68107
21
0.924945
0
LINE
8
BLACK
6
CONTINUOUS
10
1.68107
20
0.924945
11
1.68136
21
0.925641
0
LINE
8
BLACK
6
CONTINUOUS
10
1.68136
20
0.925641
11
1.78436
21
1.02864
0
LINE
8
BLACK
6
CONTINUOUS
10
1.78436
20
1.02864
11
1.78505
21
1.02893
0
LINE
8
BLACK
6
CONTINUOUS
10
1.78505
20
1.02893
11
1.78575
21
1.02864
0
LINE
8
BLACK
6
CONTINUOUS
10
1.68344
20
0.924945
11
1.73495
21
0.873443
0
LINE
8
BLACK
6
CONTINUOUS
10
1.73495
20
0.873443
11
1.83656
21
0.975055
0
LINE
8
BLACK
6
CONTINUOUS
10
1.83656
20
0.975055
11
1.78505
21
1.02656
0
LINE
8
BLACK
6
CONTINUOUS
10
1.78505
20
1.02656
11
1.68344
21
0.924945
0
LINE
8
BLACK
6
CONTINUOUS
10
1.62156
20
0.882036
11
1.62128
21
0.882732
0
LINE
8
BLACK
6
CONTINUOUS
10
1.62128
20
0.882732
11
1.62128
21
0.999268
0
LINE
8
BLACK
6
CONTINUOUS
10
1.62128
20
0.999268
11
1.62156
21
0.999964
0
LINE
8
BLACK
6
CONTINUOUS
10
1.62156
20
0.999964
11
1.62226
21
1.00025
0
LINE
8
BLACK
6
CONTINUOUS
10
1.62226
20
1.00025
11
1.67974
21
1.00025
0
LINE
8
BLACK
6
CONTINUOUS
10
1.67974
20
1.00025
11
1.68044
21
0.999964
0
LINE
8
BLACK
6
CONTINUOUS
10
1.68044
20
0.999964
11
1.68072
21
0.999268
0
LINE
8
BLACK
6
CONTINUOUS
10
1.68072
20
0.999268
11
1.68072
21
0.882732
0
LINE
8
BLACK
6
CONTINUOUS
10
1.68072
20
0.882732
11
1.68044
21
0.882036
0
LINE
8
BLACK
6
CONTINUOUS
10
1.68044
20
0.882036
11
1.67974
21
0.881748
0
LINE
8
BLACK
6
CONTINUOUS
10
1.67974
20
0.881748
11
1.62226
21
0.881748
0
LINE
8
BLACK
6
CONTINUOUS
10
1.62226
20
0.881748
11
1.62156
21
0.882036
0
LINE
8
BLACK
6
CONTINUOUS
10
1.62324
20
0.998283
11
1.62324
21
0.883717
0
LINE
8
BLACK
6
CONTINUOUS
10
1.62324
20
0.883717
11
1.67876
21
0.883717
0
LINE
8
BLACK
6
CONTINUOUS
10
1.67876
20
0.883717
11
1.67876
21
0.998283
0
LINE
8
BLACK
6
CONTINUOUS
10
1.67876
20
0.998283
11
1.62324
21
0.998283
0
LINE
8
BLACK
6
CONTINUOUS
10
1.33232
20
0.954627
11
1.33203
21
0.955323
0
LINE
8
BLACK
6
CONTINUOUS
10
1.33203
20
0.955323
11
1.33203
21
1.12068
0
LINE
8
BLACK
6
CONTINUOUS
10
1.33203
20
1.12068
11
1.33232
21
1.12137
0
LINE
8
BLACK
6
CONTINUOUS
10
1.33232
20
1.12137
11
1.33302
21
1.12166
0
LINE
8
BLACK
6
CONTINUOUS
10
1.33302
20
1.12166
11
1.58498
21
1.12166
0
LINE
8
BLACK
6
CONTINUOUS
10
1.58498
20
1.12166
11
1.58568
21
1.12137
0
LINE
8
BLACK
6
CONTINUOUS
10
1.58568
20
1.12137
11
1.58597
21
1.12068
0
LINE
8
BLACK
6
CONTINUOUS
10
1.58597
20
1.12068
11
1.58597
21
0.955323
0
LINE
8
BLACK
6
CONTINUOUS
10
1.58597
20
0.955323
11
1.58568
21
0.954627
0
LINE
8
BLACK
6
CONTINUOUS
10
1.58568
20
0.954627
11
1.58498
21
0.954339
0
LINE
8
BLACK
6
CONTINUOUS
10
1.58498
20
0.954339
11
1.33302
21
0.954339
0
LINE
8
BLACK
6
CONTINUOUS
10
1.33302
20
0.954339
11
1.33232
21
0.954627
0
LINE
8
BLACK
6
CONTINUOUS
10
1.334
20
1.11969
11
1.334
21
0.956307
0
LINE
8
BLACK
6
CONTINUOUS
10
1.334
20
0.956307
11
1.584
21
0.956307
0
LINE
8
BLACK
6
CONTINUOUS
10
1.584
20
0.956307
11
1.584
21
1.11969
0
LINE
8
BLACK
6
CONTINUOUS
10
1.584
20
1.11969
11
1.334
21
1.11969
0
LINE
8
BLACK
6
CONTINUOUS
10
1.84304
20
0.965564
11
1.84275
21
0.96626
0
LINE
8
BLACK
6
CONTINUOUS
10
1.84275
20
0.96626
11
1.84275
21
1.02374
0
LINE
8
BLACK
6
CONTINUOUS
10
1.84275
20
1.02374
11
1.84304
21
1.02444
0
LINE
8
BLACK
6
CONTINUOUS
10
1.84304
20
1.02444
11
1.84373
21
1.02472
0
LINE
8
BLACK
6
CONTINUOUS
10
1.84373
20
1.02472
11
1.96027
21
1.02472
0
LINE
8
BLACK
6
CONTINUOUS
10
1.96027
20
1.02472
11
1.96096
21
1.02444
0
LINE
8
BLACK
6
CONTINUOUS
10
1.96096
20
1.02444
11
1.96125
21
1.02374
0
LINE
8
BLACK
6
CONTINUOUS
10
1.96125
20
1.02374
11
1.96125
21
0.96626
0
LINE
8
BLACK
6
CONTINUOUS
10
1.96125
20
0.96626
11
1.96096
21
0.965564
0
LINE
8
BLACK
6
CONTINUOUS
10
1.96096
20
0.965564
11
1.96027
21
0.965276
0
LINE
8
BLACK
6
CONTINUOUS
10
1.96027
20
0.965276
11
1.84373
21
0.965276
0
LINE
8
BLACK
6
CONTINUOUS
10
1.84373
20
0.965276
11
1.84304
21
0.965564
0
LINE
8
BLACK
6
CONTINUOUS
10
1.84472
20
1.02276
11
1.84472
21
0.967244
0
LINE
8
BLACK
6
CONTINUOUS
10
1.84472
20
0.967244
11
1.95928
21
0.967244
0
LINE
8
BLACK
6
CONTINUOUS
10
1.95928
20
0.967244
11
1.95928
21
1.02276
0
LINE
8
BLACK
6
CONTINUOUS
10
1.95928
20
1.02276
11
1.84472
21
1.02276
0
LINE
8
BLACK
6
CONTINUOUS
10
1.02568
20
0.976343
11
1.02539
21
0.977039
0
LINE
8
BLACK
6
CONTINUOUS
10
1.02539
20
0.977039
11
1.02539
21
1.10696
0
LINE
8
BLACK
6
CONTINUOUS
10
1.02539
20
1.10696
11
1.02568
21
1.10766
0
LINE
8
BLACK
6
CONTINUOUS
10
1.02568
20
1.10766
11
1.02638
21
1.10794
0
LINE
8
BLACK
6
CONTINUOUS
10
1.02638
20
1.10794
11
1.08386
21
1.10794
0
LINE
8
BLACK
6
CONTINUOUS
10
1.08386
20
1.10794
11
1.08455
21
1.10766
0
LINE
8
BLACK
6
CONTINUOUS
10
1.08455
20
1.10766
11
1.08484
21
1.10696
0
LINE
8
BLACK
6
CONTINUOUS
10
1.08484
20
1.10696
11
1.08484
21
0.977039
0
LINE
8
BLACK
6
CONTINUOUS
10
1.08484
20
0.977039
11
1.08455
21
0.976343
0
LINE
8
BLACK
6
CONTINUOUS
10
1.08455
20
0.976343
11
1.08386
21
0.976055
0
LINE
8
BLACK
6
CONTINUOUS
10
1.08386
20
0.976055
11
1.02638
21
0.976055
0
LINE
8
BLACK
6
CONTINUOUS
10
1.02638
20
0.976055
11
1.02568
21
0.976343
0
LINE
8
BLACK
6
CONTINUOUS
10
1.02736
20
1.10598
11
1.02736
21
0.978024
0
LINE
8
BLACK
6
CONTINUOUS
10
1.02736
20
0.978024
11
1.08287
21
0.978024
0
LINE
8
BLACK
6
CONTINUOUS
10
1.08287
20
0.978024
11
1.08287
21
1.10598
0
LINE
8
BLACK
6
CONTINUOUS
10
1.08287
20
1.10598
11
1.02736
21
1.10598
0
LINE
8
BLACK
6
CONTINUOUS
10
0.868202
20
0.976343
11
0.867913
21
0.977039
0
LINE
8
BLACK
6
CONTINUOUS
10
0.867913
20
0.977039
11
0.867913
21
1.10696
0
LINE
8
BLACK
6
CONTINUOUS
10
0.867913
20
1.10696
11
0.868202
21
1.10766
0
LINE
8
BLACK
6
CONTINUOUS
10
0.868202
20
1.10766
11
0.868898
21
1.10794
0
LINE
8
BLACK
6
CONTINUOUS
10
0.868898
20
1.10794
11
0.926378
21
1.10794
0
LINE
8
BLACK
6
CONTINUOUS
10
0.926378
20
1.10794
11
0.927074
21
1.10766
0
LINE
8
BLACK
6
CONTINUOUS
10
0.927074
20
1.10766
11
0.927362
21
1.10696
0
LINE
8
BLACK
6
CONTINUOUS
10
0.927362
20
1.10696
11
0.927362
21
0.977039
0
LINE
8
BLACK
6
CONTINUOUS
10
0.927362
20
0.977039
11
0.927074
21
0.976343
0
LINE
8
BLACK
6
CONTINUOUS
10
0.927074
20
0.976343
11
0.926378
21
0.976055
0
LINE
8
BLACK
6
CONTINUOUS
10
0.926378
20
0.976055
11
0.868898
21
0.976055
0
LINE
8
BLACK
6
CONTINUOUS
10
0.868898
20
0.976055
11
0.868202
21
0.976343
0
LINE
8
BLACK
6
CONTINUOUS
10
0.869882
20
1.10598
11
0.869882
21
0.978024
0
LINE
8
BLACK
6
CONTINUOUS
10
0.869882
20
0.978024
11
0.925394
21
0.978024
0
LINE
8
BLACK
6
CONTINUOUS
10
0.925394
20
0.978024
11
0.925394
21
1.10598
0
LINE
8
BLACK
6
CONTINUOUS
10
0.925394
20
1.10598
11
0.869882
21
1.10598
0
LINE
8
BLACK
6
CONTINUOUS
10
0.946942
20
0.976343
11
0.946654
21
0.977039
0
LINE
8
BLACK
6
CONTINUOUS
10
0.946654
20
0.977039
11
0.946654
21
1.10696
0
LINE
8
BLACK
6
CONTINUOUS
10
0.946654
20
1.10696
11
0.946942
21
1.10766
0
LINE
8
BLACK
6
CONTINUOUS
10
0.946942
20
1.10766
11
0.947638
21
1.10794
0
LINE
8
BLACK
6
CONTINUOUS
10
0.947638
20
1.10794
11
1.00512
21
1.10794
0
LINE
8
BLACK
6
CONTINUOUS
10
1.00512
20
1.10794
11
1.00581
21
1.10766
0
LINE
8
BLACK
6
CONTINUOUS
10
1.00581
20
1.10766
11
1.0061
21
1.10696
0
LINE
8
BLACK
6
CONTINUOUS
10
1.0061
20
1.10696
11
1.0061
21
0.977039
0
LINE
8
BLACK
6
CONTINUOUS
10
1.0061
20
0.977039
11
1.00581
21
0.976343
0
LINE
8
BLACK
6
CONTINUOUS
10
1.00581
20
0.976343
11
1.00512
21
0.976055
0
LINE
8
BLACK
6
CONTINUOUS
10
1.00512
20
0.976055
11
0.947638
21
0.976055
0
LINE
8
BLACK
6
CONTINUOUS
10
0.947638
20
0.976055
11
0.946942
21
0.976343
0
LINE
8
BLACK
6
CONTINUOUS
10
0.948622
20
1.10598
11
0.948622
21
0.978024
0
LINE
8
BLACK
6
CONTINUOUS
10
0.948622
20
0.978024
11
1.00413
21
0.978024
0
LINE
8
BLACK
6
CONTINUOUS
10
1.00413
20
0.978024
11
1.00413
21
1.10598
0
LINE
8
BLACK
6
CONTINUOUS
10
1.00413
20
1.10598
11
0.948622
21
1.10598
  0
ENDSEC
  0
EOF
