  0
SECTION
  2
HEADER
  9
$ANGBASE
  50
0.0
  9
$ANGDIR
  70
1
  9
$MEASUREMENT
  70
0
  0
ENDSEC
  0
SECTION
  2
TABLES
  0
TABLE
  2
LTYPE
  70
4
  0
LTYPE
  5
40F
  2
CONTINUOUS
  70
0
  3
Solid line
  72
65
  73
0
  40
0.0
  0
LTYPE
  5
410
  2
DASHDOT
 70
0
  3
Dash Dot ____ _ ____ _
 72
65
 73
4
 40
2.0
 49
1.25
 49
-0.25
 49
0.25
 49
-0.25
  0
LTYPE
  5
411
  2
DASHED
 70
0
  3
Dashed __ __ __ __ __
 72
65
 73
2
 40
0.75
 49
0.5
 49
-0.25
  0
LTYPE
  5
43B
  2
DOTTED
 70
0
  3
Dotted .  .  .  .
 72
65
 73
2
 40
0.2
 49
0.0
 49
-0.2
  0
ENDTAB
  0
TABLE
  2
STYLE
  70
4
  0
STYLE
  2
KICAD
  70
0
  40
0
  41
1
  42
1
  50
0
  71
0
  3
isocp.shx
  0
STYLE
  2
KICADB
  70
0
  40
0
  41
1
  42
1
  50
0
  71
0
  3
isocp.shx
  0
STYLE
  2
KICADI
  70
0
  40
0
  41
1
  42
1
  50
15
  71
0
  3
isocp.shx
  0
STYLE
  2
KICADBI
  70
0
  40
0
  41
1
  42
1
  50
15
  71
0
  3
isocp.shx
  0
ENDTAB
  0
TABLE
  2
LAYER
  70
1
  0
LAYER
  2
BLACK
  70
0
  62
7
  6
CONTINUOUS
  0
ENDTAB
  0
ENDSEC
  0
SECTION
  2
ENTITIES
0
LINE
8
BLACK
6
CONTINUOUS
10
5.0509121259842518
20
-4.0733246062992121
11
5.0597253937007869
21
-4.0761882283464566
0
LINE
8
BLACK
6
CONTINUOUS
10
5.0597253937007869
20
-4.0761882283464566
11
5.0679822047244096
21
-4.0803952755905515
0
LINE
8
BLACK
6
CONTINUOUS
10
5.0679822047244096
20
-4.0803952755905515
11
5.0754792125984247
21
-4.0858421653543306
0
LINE
8
BLACK
6
CONTINUOUS
10
5.0754792125984247
20
-4.0858421653543306
11
5.082031850393701
21
-4.092394803149606
0
LINE
8
BLACK
6
CONTINUOUS
10
5.082031850393701
20
-4.092394803149606
11
5.0874787401574801
21
-4.099891811023622
0
LINE
8
BLACK
6
CONTINUOUS
10
5.0874787401574801
20
-4.099891811023622
11
5.0916857874015751
21
-4.1081486220472438
0
LINE
8
BLACK
6
CONTINUOUS
10
5.0916857874015751
20
-4.1081486220472438
11
5.0945494094488186
21
-4.1169618897637799
0
LINE
8
BLACK
6
CONTINUOUS
10
5.0945494094488186
20
-4.1169618897637799
11
5.09599905511811
21
-4.1261146062992129
0
LINE
8
BLACK
6
CONTINUOUS
10
5.09599905511811
20
-4.1261146062992129
11
5.09599905511811
21
-4.1353814566929135
0
LINE
8
BLACK
6
CONTINUOUS
10
5.09599905511811
20
-4.1353814566929135
11
5.0945494094488186
21
-4.1445341732283465
0
LINE
8
BLACK
6
CONTINUOUS
10
5.0945494094488186
20
-4.1445341732283465
11
5.0916857874015751
21
-4.1533474409448816
0
LINE
8
BLACK
6
CONTINUOUS
10
5.0916857874015751
20
-4.1533474409448816
11
5.0874787401574801
21
-4.1616042519685035
0
LINE
8
BLACK
6
CONTINUOUS
10
5.0874787401574801
20
-4.1616042519685035
11
5.082031850393701
21
-4.1691012598425194
0
LINE
8
BLACK
6
CONTINUOUS
10
5.082031850393701
20
-4.1691012598425194
11
5.0754792125984247
21
-4.1756538976377948
0
LINE
8
BLACK
6
CONTINUOUS
10
5.0754792125984247
20
-4.1756538976377948
11
5.0679822047244096
21
-4.1811007874015749
0
LINE
8
BLACK
6
CONTINUOUS
10
5.0679822047244096
20
-4.1811007874015749
11
5.0597253937007869
21
-4.1853078346456689
0
LINE
8
BLACK
6
CONTINUOUS
10
5.0597253937007869
20
-4.1853078346456689
11
5.0509121259842518
21
-4.1881714566929134
0
LINE
8
BLACK
6
CONTINUOUS
10
5.0509121259842518
20
-4.1881714566929134
11
5.0417594094488187
21
-4.1896211023622048
0
LINE
8
BLACK
6
CONTINUOUS
10
5.0417594094488187
20
-4.1896211023622048
11
5.0324925590551182
21
-4.1896211023622048
0
LINE
8
BLACK
6
CONTINUOUS
10
5.0324925590551182
20
-4.1896211023622048
11
5.0233398425196851
21
-4.1881714566929134
0
LINE
8
BLACK
6
CONTINUOUS
10
5.0233398425196851
20
-4.1881714566929134
11
5.0145265748031491
21
-4.1853078346456689
0
LINE
8
BLACK
6
CONTINUOUS
10
5.0145265748031491
20
-4.1853078346456689
11
5.0062697637795273
21
-4.1811007874015749
0
LINE
8
BLACK
6
CONTINUOUS
10
5.0062697637795273
20
-4.1811007874015749
11
4.9987727559055113
21
-4.1756538976377948
0
LINE
8
BLACK
6
CONTINUOUS
10
4.9987727559055113
20
-4.1756538976377948
11
4.9922201181102359
21
-4.1691012598425194
0
LINE
8
BLACK
6
CONTINUOUS
10
4.9922201181102359
20
-4.1691012598425194
11
4.9867732283464568
21
-4.1616042519685035
0
LINE
8
BLACK
6
CONTINUOUS
10
4.9867732283464568
20
-4.1616042519685035
11
4.9825661811023618
21
-4.1533474409448816
0
LINE
8
BLACK
6
CONTINUOUS
10
4.9825661811023618
20
-4.1533474409448816
11
4.9797025590551183
21
-4.1445341732283465
0
LINE
8
BLACK
6
CONTINUOUS
10
4.9797025590551183
20
-4.1445341732283465
11
4.9782529133858269
21
-4.1353814566929135
0
LINE
8
BLACK
6
CONTINUOUS
10
4.9782529133858269
20
-4.1353814566929135
11
4.9782529133858269
21
-4.1261146062992129
0
LINE
8
BLACK
6
CONTINUOUS
10
4.9782529133858269
20
-4.1261146062992129
11
4.9797025590551183
21
-4.1169618897637799
0
LINE
8
BLACK
6
CONTINUOUS
10
4.9797025590551183
20
-4.1169618897637799
11
4.9825661811023618
21
-4.1081486220472438
0
LINE
8
BLACK
6
CONTINUOUS
10
4.9825661811023618
20
-4.1081486220472438
11
4.9867732283464568
21
-4.099891811023622
0
LINE
8
BLACK
6
CONTINUOUS
10
4.9867732283464568
20
-4.099891811023622
11
4.9922201181102359
21
-4.092394803149606
0
LINE
8
BLACK
6
CONTINUOUS
10
4.9922201181102359
20
-4.092394803149606
11
4.9987727559055113
21
-4.0858421653543306
0
LINE
8
BLACK
6
CONTINUOUS
10
4.9987727559055113
20
-4.0858421653543306
11
5.0062697637795273
21
-4.0803952755905515
0
LINE
8
BLACK
6
CONTINUOUS
10
5.0062697637795273
20
-4.0803952755905515
11
5.0145265748031491
21
-4.0761882283464566
0
LINE
8
BLACK
6
CONTINUOUS
10
5.0145265748031491
20
-4.0761882283464566
11
5.0233398425196851
21
-4.0733246062992121
0
LINE
8
BLACK
6
CONTINUOUS
10
5.0233398425196851
20
-4.0733246062992121
11
5.0324925590551182
21
-4.0718749606299216
0
LINE
8
BLACK
6
CONTINUOUS
10
5.0324925590551182
20
-4.0718749606299216
11
5.0417594094488187
21
-4.0718749606299216
0
LINE
8
BLACK
6
CONTINUOUS
10
5.0417594094488187
20
-4.0718749606299216
11
5.0509121259842518
21
-4.0733246062992121
0
LINE
8
BLACK
6
CONTINUOUS
10
5.4446129133858268
20
-4.0733246062992121
11
5.4534261811023619
21
-4.0761882283464566
0
LINE
8
BLACK
6
CONTINUOUS
10
5.4534261811023619
20
-4.0761882283464566
11
5.4616829921259837
21
-4.0803952755905515
0
LINE
8
BLACK
6
CONTINUOUS
10
5.4616829921259837
20
-4.0803952755905515
11
5.4691799999999997
21
-4.0858421653543306
0
LINE
8
BLACK
6
CONTINUOUS
10
5.4691799999999997
20
-4.0858421653543306
11
5.4757326377952751
21
-4.092394803149606
0
LINE
8
BLACK
6
CONTINUOUS
10
5.4757326377952751
20
-4.092394803149606
11
5.4811795275590551
21
-4.099891811023622
0
LINE
8
BLACK
6
CONTINUOUS
10
5.4811795275590551
20
-4.099891811023622
11
5.4853865748031492
21
-4.1081486220472438
0
LINE
8
BLACK
6
CONTINUOUS
10
5.4853865748031492
20
-4.1081486220472438
11
5.4882501968503936
21
-4.1169618897637799
0
LINE
8
BLACK
6
CONTINUOUS
10
5.4882501968503936
20
-4.1169618897637799
11
5.489699842519685
21
-4.1261146062992129
0
LINE
8
BLACK
6
CONTINUOUS
10
5.489699842519685
20
-4.1261146062992129
11
5.489699842519685
21
-4.1353814566929135
0
LINE
8
BLACK
6
CONTINUOUS
10
5.489699842519685
20
-4.1353814566929135
11
5.4882501968503936
21
-4.1445341732283465
0
LINE
8
BLACK
6
CONTINUOUS
10
5.4882501968503936
20
-4.1445341732283465
11
5.4853865748031492
21
-4.1533474409448816
0
LINE
8
BLACK
6
CONTINUOUS
10
5.4853865748031492
20
-4.1533474409448816
11
5.4811795275590551
21
-4.1616042519685035
0
LINE
8
BLACK
6
CONTINUOUS
10
5.4811795275590551
20
-4.1616042519685035
11
5.4757326377952751
21
-4.1691012598425194
0
LINE
8
BLACK
6
CONTINUOUS
10
5.4757326377952751
20
-4.1691012598425194
11
5.4691799999999997
21
-4.1756538976377948
0
LINE
8
BLACK
6
CONTINUOUS
10
5.4691799999999997
20
-4.1756538976377948
11
5.4616829921259837
21
-4.1811007874015749
0
LINE
8
BLACK
6
CONTINUOUS
10
5.4616829921259837
20
-4.1811007874015749
11
5.4534261811023619
21
-4.1853078346456689
0
LINE
8
BLACK
6
CONTINUOUS
10
5.4534261811023619
20
-4.1853078346456689
11
5.4446129133858268
21
-4.1881714566929134
0
LINE
8
BLACK
6
CONTINUOUS
10
5.4446129133858268
20
-4.1881714566929134
11
5.4354601968503937
21
-4.1896211023622048
0
LINE
8
BLACK
6
CONTINUOUS
10
5.4354601968503937
20
-4.1896211023622048
11
5.4261933464566932
21
-4.1896211023622048
0
LINE
8
BLACK
6
CONTINUOUS
10
5.4261933464566932
20
-4.1896211023622048
11
5.4170406299212601
21
-4.1881714566929134
0
LINE
8
BLACK
6
CONTINUOUS
10
5.4170406299212601
20
-4.1881714566929134
11
5.4082273622047241
21
-4.1853078346456689
0
LINE
8
BLACK
6
CONTINUOUS
10
5.4082273622047241
20
-4.1853078346456689
11
5.3999705511811023
21
-4.1811007874015749
0
LINE
8
BLACK
6
CONTINUOUS
10
5.3999705511811023
20
-4.1811007874015749
11
5.3924735433070863
21
-4.1756538976377948
0
LINE
8
BLACK
6
CONTINUOUS
10
5.3924735433070863
20
-4.1756538976377948
11
5.3859209055118109
21
-4.1691012598425194
0
LINE
8
BLACK
6
CONTINUOUS
10
5.3859209055118109
20
-4.1691012598425194
11
5.3804740157480317
21
-4.1616042519685035
0
LINE
8
BLACK
6
CONTINUOUS
10
5.3804740157480317
20
-4.1616042519685035
11
5.3762669685039368
21
-4.1533474409448816
0
LINE
8
BLACK
6
CONTINUOUS
10
5.3762669685039368
20
-4.1533474409448816
11
5.3734033464566924
21
-4.1445341732283465
0
LINE
8
BLACK
6
CONTINUOUS
10
5.3734033464566924
20
-4.1445341732283465
11
5.3719537007874019
21
-4.1353814566929135
0
LINE
8
BLACK
6
CONTINUOUS
10
5.3719537007874019
20
-4.1353814566929135
11
5.3719537007874019
21
-4.1261146062992129
0
LINE
8
BLACK
6
CONTINUOUS
10
5.3719537007874019
20
-4.1261146062992129
11
5.3734033464566924
21
-4.1169618897637799
0
LINE
8
BLACK
6
CONTINUOUS
10
5.3734033464566924
20
-4.1169618897637799
11
5.3762669685039368
21
-4.1081486220472438
0
LINE
8
BLACK
6
CONTINUOUS
10
5.3762669685039368
20
-4.1081486220472438
11
5.3804740157480317
21
-4.099891811023622
0
LINE
8
BLACK
6
CONTINUOUS
10
5.3804740157480317
20
-4.099891811023622
11
5.3859209055118109
21
-4.092394803149606
0
LINE
8
BLACK
6
CONTINUOUS
10
5.3859209055118109
20
-4.092394803149606
11
5.3924735433070863
21
-4.0858421653543306
0
LINE
8
BLACK
6
CONTINUOUS
10
5.3924735433070863
20
-4.0858421653543306
11
5.3999705511811023
21
-4.0803952755905515
0
LINE
8
BLACK
6
CONTINUOUS
10
5.3999705511811023
20
-4.0803952755905515
11
5.4082273622047241
21
-4.0761882283464566
0
LINE
8
BLACK
6
CONTINUOUS
10
5.4082273622047241
20
-4.0761882283464566
11
5.4170406299212601
21
-4.0733246062992121
0
LINE
8
BLACK
6
CONTINUOUS
10
5.4170406299212601
20
-4.0733246062992121
11
5.4261933464566932
21
-4.0718749606299216
0
LINE
8
BLACK
6
CONTINUOUS
10
5.4261933464566932
20
-4.0718749606299216
11
5.4354601968503937
21
-4.0718749606299216
0
LINE
8
BLACK
6
CONTINUOUS
10
5.4354601968503937
20
-4.0718749606299216
11
5.4446129133858268
21
-4.0733246062992121
0
LINE
8
BLACK
6
CONTINUOUS
10
6.9040210236220467
20
-3.9173151968503936
11
6.904659645669291
21
-3.9177419291338582
0
LINE
8
BLACK
6
CONTINUOUS
10
6.904659645669291
20
-3.9177419291338582
11
6.905086377952756
21
-3.9183805511811021
0
LINE
8
BLACK
6
CONTINUOUS
10
6.905086377952756
20
-3.9183805511811021
11
6.9052362204724407
21
-3.9191338582677164
0
LINE
8
BLACK
6
CONTINUOUS
10
6.9052362204724407
20
-3.9191338582677164
11
6.9052362204724407
21
-3.9769270078740155
0
LINE
8
BLACK
6
CONTINUOUS
10
6.9052362204724407
20
-3.9769270078740155
11
6.9067274015748028
21
-3.9786479527559053
0
LINE
8
BLACK
6
CONTINUOUS
10
6.9067274015748028
20
-3.9786479527559053
11
6.9071755905511809
21
-3.9807376377952757
0
LINE
8
BLACK
6
CONTINUOUS
10
6.9071755905511809
20
-3.9807376377952757
11
6.9063280314960629
21
-4.1258163779527557
0
LINE
8
BLACK
6
CONTINUOUS
10
6.9063280314960629
20
-4.1258163779527557
11
6.9055248818897637
21
-4.1284936614173224
0
LINE
8
BLACK
6
CONTINUOUS
10
6.9055248818897637
20
-4.1284936614173224
11
6.9034018110236222
21
-4.1303116929133861
0
LINE
8
BLACK
6
CONTINUOUS
10
6.9034018110236222
20
-4.1303116929133861
11
6.9013674803149607
21
-4.1307480314960632
0
LINE
8
BLACK
6
CONTINUOUS
10
6.9013674803149607
20
-4.1307480314960632
11
6.6708022047244091
21
-4.1307480314960632
0
LINE
8
BLACK
6
CONTINUOUS
10
6.6708022047244091
20
-4.1307480314960632
11
6.6708022047244091
21
-4.1353814566929135
0
LINE
8
BLACK
6
CONTINUOUS
10
6.6708022047244091
20
-4.1353814566929135
11
6.6693525590551177
21
-4.1445341732283465
0
LINE
8
BLACK
6
CONTINUOUS
10
6.6693525590551177
20
-4.1445341732283465
11
6.6664889370078741
21
-4.1533474409448816
0
LINE
8
BLACK
6
CONTINUOUS
10
6.6664889370078741
20
-4.1533474409448816
11
6.6622818897637792
21
-4.1616042519685035
0
LINE
8
BLACK
6
CONTINUOUS
10
6.6622818897637792
20
-4.1616042519685035
11
6.6568350000000001
21
-4.1691012598425194
0
LINE
8
BLACK
6
CONTINUOUS
10
6.6568350000000001
20
-4.1691012598425194
11
6.6502823622047247
21
-4.1756538976377948
0
LINE
8
BLACK
6
CONTINUOUS
10
6.6502823622047247
20
-4.1756538976377948
11
6.6427853543307087
21
-4.1811007874015749
0
LINE
8
BLACK
6
CONTINUOUS
10
6.6427853543307087
20
-4.1811007874015749
11
6.6345285433070869
21
-4.1853078346456689
0
LINE
8
BLACK
6
CONTINUOUS
10
6.6345285433070869
20
-4.1853078346456689
11
6.6257152755905508
21
-4.1881714566929134
0
LINE
8
BLACK
6
CONTINUOUS
10
6.6257152755905508
20
-4.1881714566929134
11
6.6165625590551178
21
-4.1896211023622048
0
LINE
8
BLACK
6
CONTINUOUS
10
6.6165625590551178
20
-4.1896211023622048
11
6.6072957086614172
21
-4.1896211023622048
0
LINE
8
BLACK
6
CONTINUOUS
10
6.6072957086614172
20
-4.1896211023622048
11
6.5981429921259842
21
-4.1881714566929134
0
LINE
8
BLACK
6
CONTINUOUS
10
6.5981429921259842
20
-4.1881714566929134
11
6.5893297244094491
21
-4.1853078346456689
0
LINE
8
BLACK
6
CONTINUOUS
10
6.5893297244094491
20
-4.1853078346456689
11
6.5810729133858263
21
-4.1811007874015749
0
LINE
8
BLACK
6
CONTINUOUS
10
6.5810729133858263
20
-4.1811007874015749
11
6.5735759055118113
21
-4.1756538976377948
0
LINE
8
BLACK
6
CONTINUOUS
10
6.5735759055118113
20
-4.1756538976377948
11
6.567023267716535
21
-4.1691012598425194
0
LINE
8
BLACK
6
CONTINUOUS
10
6.567023267716535
20
-4.1691012598425194
11
6.5615763779527558
21
-4.1616042519685035
0
LINE
8
BLACK
6
CONTINUOUS
10
6.5615763779527558
20
-4.1616042519685035
11
6.5573693307086609
21
-4.1533474409448816
0
LINE
8
BLACK
6
CONTINUOUS
10
6.5573693307086609
20
-4.1533474409448816
11
6.5545057086614174
21
-4.1445341732283465
0
LINE
8
BLACK
6
CONTINUOUS
10
6.5545057086614174
20
-4.1445341732283465
11
6.553056062992126
21
-4.1353814566929135
0
LINE
8
BLACK
6
CONTINUOUS
10
6.553056062992126
20
-4.1353814566929135
11
6.553056062992126
21
-4.1307480314960632
0
LINE
8
BLACK
6
CONTINUOUS
10
6.553056062992126
20
-4.1307480314960632
11
6.2771014173228341
21
-4.1307480314960632
0
LINE
8
BLACK
6
CONTINUOUS
10
6.2771014173228341
20
-4.1307480314960632
11
6.2771014173228341
21
-4.1353814566929135
0
LINE
8
BLACK
6
CONTINUOUS
10
6.2771014173228341
20
-4.1353814566929135
11
6.2756517716535436
21
-4.1445341732283465
0
LINE
8
BLACK
6
CONTINUOUS
10
6.2756517716535436
20
-4.1445341732283465
11
6.2727881496062992
21
-4.1533474409448816
0
LINE
8
BLACK
6
CONTINUOUS
10
6.2727881496062992
20
-4.1533474409448816
11
6.2685811023622042
21
-4.1616042519685035
0
LINE
8
BLACK
6
CONTINUOUS
10
6.2685811023622042
20
-4.1616042519685035
11
6.2631342125984251
21
-4.1691012598425194
0
LINE
8
BLACK
6
CONTINUOUS
10
6.2631342125984251
20
-4.1691012598425194
11
6.2565815748031497
21
-4.1756538976377948
0
LINE
8
BLACK
6
CONTINUOUS
10
6.2565815748031497
20
-4.1756538976377948
11
6.2490845669291337
21
-4.1811007874015749
0
LINE
8
BLACK
6
CONTINUOUS
10
6.2490845669291337
20
-4.1811007874015749
11
6.2408277559055119
21
-4.1853078346456689
0
LINE
8
BLACK
6
CONTINUOUS
10
6.2408277559055119
20
-4.1853078346456689
11
6.2320144881889759
21
-4.1881714566929134
0
LINE
8
BLACK
6
CONTINUOUS
10
6.2320144881889759
20
-4.1881714566929134
11
6.2228617716535428
21
-4.1896211023622048
0
LINE
8
BLACK
6
CONTINUOUS
10
6.2228617716535428
20
-4.1896211023622048
11
6.2135949212598423
21
-4.1896211023622048
0
LINE
8
BLACK
6
CONTINUOUS
10
6.2135949212598423
20
-4.1896211023622048
11
6.2044422047244092
21
-4.1881714566929134
0
LINE
8
BLACK
6
CONTINUOUS
10
6.2044422047244092
20
-4.1881714566929134
11
6.1956289370078741
21
-4.1853078346456689
0
LINE
8
BLACK
6
CONTINUOUS
10
6.1956289370078741
20
-4.1853078346456689
11
6.1873721259842522
21
-4.1811007874015749
0
LINE
8
BLACK
6
CONTINUOUS
10
6.1873721259842522
20
-4.1811007874015749
11
6.1798751181102363
21
-4.1756538976377948
0
LINE
8
BLACK
6
CONTINUOUS
10
6.1798751181102363
20
-4.1756538976377948
11
6.1733224803149609
21
-4.1691012598425194
0
LINE
8
BLACK
6
CONTINUOUS
10
6.1733224803149609
20
-4.1691012598425194
11
6.1678755905511808
21
-4.1616042519685035
0
LINE
8
BLACK
6
CONTINUOUS
10
6.1678755905511808
20
-4.1616042519685035
11
6.1636685433070868
21
-4.1533474409448816
0
LINE
8
BLACK
6
CONTINUOUS
10
6.1636685433070868
20
-4.1533474409448816
11
6.1608049212598424
21
-4.1445341732283465
0
LINE
8
BLACK
6
CONTINUOUS
10
6.1608049212598424
20
-4.1445341732283465
11
6.159355275590551
21
-4.1353814566929135
0
LINE
8
BLACK
6
CONTINUOUS
10
6.159355275590551
20
-4.1353814566929135
11
6.159355275590551
21
-4.1307480314960632
0
LINE
8
BLACK
6
CONTINUOUS
10
6.159355275590551
20
-4.1307480314960632
11
5.88340062992126
21
-4.1307480314960632
0
LINE
8
BLACK
6
CONTINUOUS
10
5.88340062992126
20
-4.1307480314960632
11
5.88340062992126
21
-4.1353814566929135
0
LINE
8
BLACK
6
CONTINUOUS
10
5.88340062992126
20
-4.1353814566929135
11
5.8819509842519686
21
-4.1445341732283465
0
LINE
8
BLACK
6
CONTINUOUS
10
5.8819509842519686
20
-4.1445341732283465
11
5.8790873622047242
21
-4.1533474409448816
0
LINE
8
BLACK
6
CONTINUOUS
10
5.8790873622047242
20
-4.1533474409448816
11
5.8748803149606301
21
-4.1616042519685035
0
LINE
8
BLACK
6
CONTINUOUS
10
5.8748803149606301
20
-4.1616042519685035
11
5.8694334251968501
21
-4.1691012598425194
0
LINE
8
BLACK
6
CONTINUOUS
10
5.8694334251968501
20
-4.1691012598425194
11
5.8628807874015747
21
-4.1756538976377948
0
LINE
8
BLACK
6
CONTINUOUS
10
5.8628807874015747
20
-4.1756538976377948
11
5.8553837795275587
21
-4.1811007874015749
0
LINE
8
BLACK
6
CONTINUOUS
10
5.8553837795275587
20
-4.1811007874015749
11
5.8471269685039369
21
-4.1853078346456689
0
LINE
8
BLACK
6
CONTINUOUS
10
5.8471269685039369
20
-4.1853078346456689
11
5.8383137007874017
21
-4.1881714566929134
0
LINE
8
BLACK
6
CONTINUOUS
10
5.8383137007874017
20
-4.1881714566929134
11
5.8291609842519687
21
-4.1896211023622048
0
LINE
8
BLACK
6
CONTINUOUS
10
5.8291609842519687
20
-4.1896211023622048
11
5.8198941338582673
21
-4.1896211023622048
0
LINE
8
BLACK
6
CONTINUOUS
10
5.8198941338582673
20
-4.1896211023622048
11
5.8107414173228342
21
-4.1881714566929134
0
LINE
8
BLACK
6
CONTINUOUS
10
5.8107414173228342
20
-4.1881714566929134
11
5.8019281496062991
21
-4.1853078346456689
0
LINE
8
BLACK
6
CONTINUOUS
10
5.8019281496062991
20
-4.1853078346456689
11
5.7936713385826772
21
-4.1811007874015749
0
LINE
8
BLACK
6
CONTINUOUS
10
5.7936713385826772
20
-4.1811007874015749
11
5.7861743307086613
21
-4.1756538976377948
0
LINE
8
BLACK
6
CONTINUOUS
10
5.7861743307086613
20
-4.1756538976377948
11
5.7796216929133859
21
-4.1691012598425194
0
LINE
8
BLACK
6
CONTINUOUS
10
5.7796216929133859
20
-4.1691012598425194
11
5.7741748031496059
21
-4.1616042519685035
0
LINE
8
BLACK
6
CONTINUOUS
10
5.7741748031496059
20
-4.1616042519685035
11
5.7699677559055118
21
-4.1533474409448816
0
LINE
8
BLACK
6
CONTINUOUS
10
5.7699677559055118
20
-4.1533474409448816
11
5.7671041338582674
21
-4.1445341732283465
0
LINE
8
BLACK
6
CONTINUOUS
10
5.7671041338582674
20
-4.1445341732283465
11
5.765654488188976
21
-4.1353814566929135
0
LINE
8
BLACK
6
CONTINUOUS
10
5.765654488188976
20
-4.1353814566929135
11
5.765654488188976
21
-4.1307480314960632
0
LINE
8
BLACK
6
CONTINUOUS
10
5.765654488188976
20
-4.1307480314960632
11
5.761259842519685
21
-4.1307480314960632
0
LINE
8
BLACK
6
CONTINUOUS
10
5.761259842519685
20
-4.1307480314960632
11
5.7585779133858264
21
-4.1299605511811022
0
LINE
8
BLACK
6
CONTINUOUS
10
5.7585779133858264
20
-4.1299605511811022
11
5.7567474803149601
21
-4.1278481102362203
0
LINE
8
BLACK
6
CONTINUOUS
10
5.7567474803149601
20
-4.1278481102362203
11
5.7562992125984254
21
-4.1257874015748026
0
LINE
8
BLACK
6
CONTINUOUS
10
5.7562992125984254
20
-4.1257874015748026
11
5.7562992125984254
21
-3.9807086614173226
0
LINE
8
BLACK
6
CONTINUOUS
10
5.7562992125984254
20
-3.9807086614173226
11
5.7570866929133855
21
-3.9780267322834644
0
LINE
8
BLACK
6
CONTINUOUS
10
5.7570866929133855
20
-3.9780267322834644
11
5.7591991338582673
21
-3.9761962992125985
0
LINE
8
BLACK
6
CONTINUOUS
10
5.7591991338582673
20
-3.9761962992125985
11
5.761259842519685
21
-3.9757480314960629
0
LINE
8
BLACK
6
CONTINUOUS
10
5.761259842519685
20
-3.9757480314960629
11
6.5725590551181101
21
-3.9757480314960629
0
LINE
8
BLACK
6
CONTINUOUS
10
6.5725590551181101
20
-3.9757480314960629
11
6.5725590551181101
21
-3.9191338582677164
0
LINE
8
BLACK
6
CONTINUOUS
10
6.5725590551181101
20
-3.9191338582677164
11
6.5727088976377948
21
-3.9183805511811021
0
LINE
8
BLACK
6
CONTINUOUS
10
6.5727088976377948
20
-3.9183805511811021
11
6.5731356299212598
21
-3.9177419291338582
0
LINE
8
BLACK
6
CONTINUOUS
10
6.5731356299212598
20
-3.9177419291338582
11
6.5737742519685041
21
-3.9173151968503936
0
LINE
8
BLACK
6
CONTINUOUS
10
6.5737742519685041
20
-3.9173151968503936
11
6.5745275590551175
21
-3.9171653543307086
0
LINE
8
BLACK
6
CONTINUOUS
10
6.5745275590551175
20
-3.9171653543307086
11
6.9032677165354333
21
-3.9171653543307086
0
LINE
8
BLACK
6
CONTINUOUS
10
6.9032677165354333
20
-3.9171653543307086
11
6.9040210236220467
21
-3.9173151968503936
0
LINE
8
BLACK
6
CONTINUOUS
10
6.9040210236220467
20
-3.6909372440944881
11
6.904659645669291
21
-3.6913639763779527
0
LINE
8
BLACK
6
CONTINUOUS
10
6.904659645669291
20
-3.6913639763779527
11
6.905086377952756
21
-3.692002598425197
0
LINE
8
BLACK
6
CONTINUOUS
10
6.905086377952756
20
-3.692002598425197
11
6.9052362204724407
21
-3.6927559055118109
0
LINE
8
BLACK
6
CONTINUOUS
10
6.9052362204724407
20
-3.6927559055118109
11
6.9052362204724407
21
-3.751811023622047
0
LINE
8
BLACK
6
CONTINUOUS
10
6.9052362204724407
20
-3.751811023622047
11
6.905086377952756
21
-3.7525643307086614
0
LINE
8
BLACK
6
CONTINUOUS
10
6.905086377952756
20
-3.7525643307086614
11
6.904659645669291
21
-3.7532029527559052
0
LINE
8
BLACK
6
CONTINUOUS
10
6.904659645669291
20
-3.7532029527559052
11
6.9040210236220467
21
-3.7536296850393698
0
LINE
8
BLACK
6
CONTINUOUS
10
6.9040210236220467
20
-3.7536296850393698
11
6.9032677165354333
21
-3.7537795275590549
0
LINE
8
BLACK
6
CONTINUOUS
10
6.9032677165354333
20
-3.7537795275590549
11
6.5745275590551175
21
-3.7537795275590549
0
LINE
8
BLACK
6
CONTINUOUS
10
6.5745275590551175
20
-3.7537795275590549
11
6.5737742519685041
21
-3.7536296850393698
0
LINE
8
BLACK
6
CONTINUOUS
10
6.5737742519685041
20
-3.7536296850393698
11
6.5731356299212598
21
-3.7532029527559052
0
LINE
8
BLACK
6
CONTINUOUS
10
6.5731356299212598
20
-3.7532029527559052
11
6.5727088976377948
21
-3.7525643307086614
0
LINE
8
BLACK
6
CONTINUOUS
10
6.5727088976377948
20
-3.7525643307086614
11
6.5725590551181101
21
-3.751811023622047
0
LINE
8
BLACK
6
CONTINUOUS
10
6.5725590551181101
20
-3.751811023622047
11
6.5725590551181101
21
-3.6927559055118109
0
LINE
8
BLACK
6
CONTINUOUS
10
6.5725590551181101
20
-3.6927559055118109
11
6.5727088976377948
21
-3.692002598425197
0
LINE
8
BLACK
6
CONTINUOUS
10
6.5727088976377948
20
-3.692002598425197
11
6.5731356299212598
21
-3.6913639763779527
0
LINE
8
BLACK
6
CONTINUOUS
10
6.5731356299212598
20
-3.6913639763779527
11
6.5737742519685041
21
-3.6909372440944881
0
LINE
8
BLACK
6
CONTINUOUS
10
6.5737742519685041
20
-3.6909372440944881
11
6.5745275590551175
21
-3.690787401574803
0
LINE
8
BLACK
6
CONTINUOUS
10
6.5745275590551175
20
-3.690787401574803
11
6.9032677165354333
21
-3.690787401574803
0
LINE
8
BLACK
6
CONTINUOUS
10
6.9032677165354333
20
-3.690787401574803
11
6.9040210236220467
21
-3.6909372440944881
0
LINE
8
BLACK
6
CONTINUOUS
10
5.0460525196850394
20
-3.45492937007874
11
5.0466911417322837
21
-3.4553561023622046
0
LINE
8
BLACK
6
CONTINUOUS
10
5.0466911417322837
20
-3.4553561023622046
11
5.0471178740157479
21
-3.4559947244094489
0
LINE
8
BLACK
6
CONTINUOUS
10
5.0471178740157479
20
-3.4559947244094489
11
5.0472677165354334
21
-3.4567480314960628
0
LINE
8
BLACK
6
CONTINUOUS
10
5.0472677165354334
20
-3.4567480314960628
11
5.0472677165354334
21
-3.5167480314960629
0
LINE
8
BLACK
6
CONTINUOUS
10
5.0472677165354334
20
-3.5167480314960629
11
5.0471178740157479
21
-3.5175013385826772
0
LINE
8
BLACK
6
CONTINUOUS
10
5.0471178740157479
20
-3.5175013385826772
11
5.0466911417322837
21
-3.5181399606299211
0
LINE
8
BLACK
6
CONTINUOUS
10
5.0466911417322837
20
-3.5181399606299211
11
5.0460525196850394
21
-3.5185666929133856
0
LINE
8
BLACK
6
CONTINUOUS
10
5.0460525196850394
20
-3.5185666929133856
11
5.0452992125984251
21
-3.5187165354330707
0
LINE
8
BLACK
6
CONTINUOUS
10
5.0452992125984251
20
-3.5187165354330707
11
4.9852992125984255
21
-3.5187165354330707
0
LINE
8
BLACK
6
CONTINUOUS
10
4.9852992125984255
20
-3.5187165354330707
11
4.9845459055118111
21
-3.5185666929133856
0
LINE
8
BLACK
6
CONTINUOUS
10
4.9845459055118111
20
-3.5185666929133856
11
4.9839072834645668
21
-3.5181399606299211
0
LINE
8
BLACK
6
CONTINUOUS
10
4.9839072834645668
20
-3.5181399606299211
11
4.9834805511811027
21
-3.5175013385826772
0
LINE
8
BLACK
6
CONTINUOUS
10
4.9834805511811027
20
-3.5175013385826772
11
4.9833307086614171
21
-3.5167480314960629
0
LINE
8
BLACK
6
CONTINUOUS
10
4.9833307086614171
20
-3.5167480314960629
11
4.9833307086614171
21
-3.4567480314960628
0
LINE
8
BLACK
6
CONTINUOUS
10
4.9833307086614171
20
-3.4567480314960628
11
4.9834805511811027
21
-3.4559947244094489
0
LINE
8
BLACK
6
CONTINUOUS
10
4.9834805511811027
20
-3.4559947244094489
11
4.9839072834645668
21
-3.4553561023622046
0
LINE
8
BLACK
6
CONTINUOUS
10
4.9839072834645668
20
-3.4553561023622046
11
4.9845459055118111
21
-3.45492937007874
0
LINE
8
BLACK
6
CONTINUOUS
10
4.9845459055118111
20
-3.45492937007874
11
4.9852992125984255
21
-3.4547795275590549
0
LINE
8
BLACK
6
CONTINUOUS
10
4.9852992125984255
20
-3.4547795275590549
11
5.0452992125984251
21
-3.4547795275590549
0
LINE
8
BLACK
6
CONTINUOUS
10
5.0452992125984251
20
-3.4547795275590549
11
5.0460525196850394
21
-3.45492937007874
0
LINE
8
BLACK
6
CONTINUOUS
10
5.1460525196850391
20
-3.45492937007874
11
5.1466911417322834
21
-3.4553561023622046
0
LINE
8
BLACK
6
CONTINUOUS
10
5.1466911417322834
20
-3.4553561023622046
11
5.1471178740157475
21
-3.4559947244094489
0
LINE
8
BLACK
6
CONTINUOUS
10
5.1471178740157475
20
-3.4559947244094489
11
5.147267716535433
21
-3.4567480314960628
0
LINE
8
BLACK
6
CONTINUOUS
10
5.147267716535433
20
-3.4567480314960628
11
5.147267716535433
21
-3.5167480314960629
0
LINE
8
BLACK
6
CONTINUOUS
10
5.147267716535433
20
-3.5167480314960629
11
5.1471178740157475
21
-3.5175013385826772
0
LINE
8
BLACK
6
CONTINUOUS
10
5.1471178740157475
20
-3.5175013385826772
11
5.1466911417322834
21
-3.5181399606299211
0
LINE
8
BLACK
6
CONTINUOUS
10
5.1466911417322834
20
-3.5181399606299211
11
5.1460525196850391
21
-3.5185666929133856
0
LINE
8
BLACK
6
CONTINUOUS
10
5.1460525196850391
20
-3.5185666929133856
11
5.1452992125984247
21
-3.5187165354330707
0
LINE
8
BLACK
6
CONTINUOUS
10
5.1452992125984247
20
-3.5187165354330707
11
5.0852992125984251
21
-3.5187165354330707
0
LINE
8
BLACK
6
CONTINUOUS
10
5.0852992125984251
20
-3.5187165354330707
11
5.0845459055118107
21
-3.5185666929133856
0
LINE
8
BLACK
6
CONTINUOUS
10
5.0845459055118107
20
-3.5185666929133856
11
5.0839072834645664
21
-3.5181399606299211
0
LINE
8
BLACK
6
CONTINUOUS
10
5.0839072834645664
20
-3.5181399606299211
11
5.0834805511811023
21
-3.5175013385826772
0
LINE
8
BLACK
6
CONTINUOUS
10
5.0834805511811023
20
-3.5175013385826772
11
5.0833307086614168
21
-3.5167480314960629
0
LINE
8
BLACK
6
CONTINUOUS
10
5.0833307086614168
20
-3.5167480314960629
11
5.0833307086614168
21
-3.4567480314960628
0
LINE
8
BLACK
6
CONTINUOUS
10
5.0833307086614168
20
-3.4567480314960628
11
5.0834805511811023
21
-3.4559947244094489
0
LINE
8
BLACK
6
CONTINUOUS
10
5.0834805511811023
20
-3.4559947244094489
11
5.0839072834645664
21
-3.4553561023622046
0
LINE
8
BLACK
6
CONTINUOUS
10
5.0839072834645664
20
-3.4553561023622046
11
5.0845459055118107
21
-3.45492937007874
0
LINE
8
BLACK
6
CONTINUOUS
10
5.0845459055118107
20
-3.45492937007874
11
5.0852992125984251
21
-3.4547795275590549
0
LINE
8
BLACK
6
CONTINUOUS
10
5.0852992125984251
20
-3.4547795275590549
11
5.1452992125984247
21
-3.4547795275590549
0
LINE
8
BLACK
6
CONTINUOUS
10
5.1452992125984247
20
-3.4547795275590549
11
5.1460525196850391
21
-3.45492937007874
0
LINE
8
BLACK
6
CONTINUOUS
10
5.0460525196850394
20
-3.3549293700787399
11
5.0466911417322837
21
-3.3553561023622045
0
LINE
8
BLACK
6
CONTINUOUS
10
5.0466911417322837
20
-3.3553561023622045
11
5.0471178740157479
21
-3.3559947244094488
0
LINE
8
BLACK
6
CONTINUOUS
10
5.0471178740157479
20
-3.3559947244094488
11
5.0472677165354334
21
-3.3567480314960627
0
LINE
8
BLACK
6
CONTINUOUS
10
5.0472677165354334
20
-3.3567480314960627
11
5.0472677165354334
21
-3.4167480314960628
0
LINE
8
BLACK
6
CONTINUOUS
10
5.0472677165354334
20
-3.4167480314960628
11
5.0471178740157479
21
-3.4175013385826771
0
LINE
8
BLACK
6
CONTINUOUS
10
5.0471178740157479
20
-3.4175013385826771
11
5.0466911417322837
21
-3.418139960629921
0
LINE
8
BLACK
6
CONTINUOUS
10
5.0466911417322837
20
-3.418139960629921
11
5.0460525196850394
21
-3.4185666929133856
0
LINE
8
BLACK
6
CONTINUOUS
10
5.0460525196850394
20
-3.4185666929133856
11
5.0452992125984251
21
-3.4187165354330706
0
LINE
8
BLACK
6
CONTINUOUS
10
5.0452992125984251
20
-3.4187165354330706
11
4.9852992125984255
21
-3.4187165354330706
0
LINE
8
BLACK
6
CONTINUOUS
10
4.9852992125984255
20
-3.4187165354330706
11
4.9845459055118111
21
-3.4185666929133856
0
LINE
8
BLACK
6
CONTINUOUS
10
4.9845459055118111
20
-3.4185666929133856
11
4.9839072834645668
21
-3.418139960629921
0
LINE
8
BLACK
6
CONTINUOUS
10
4.9839072834645668
20
-3.418139960629921
11
4.9834805511811027
21
-3.4175013385826771
0
LINE
8
BLACK
6
CONTINUOUS
10
4.9834805511811027
20
-3.4175013385826771
11
4.9833307086614171
21
-3.4167480314960628
0
LINE
8
BLACK
6
CONTINUOUS
10
4.9833307086614171
20
-3.4167480314960628
11
4.9833307086614171
21
-3.3567480314960627
0
LINE
8
BLACK
6
CONTINUOUS
10
4.9833307086614171
20
-3.3567480314960627
11
4.9834805511811027
21
-3.3559947244094488
0
LINE
8
BLACK
6
CONTINUOUS
10
4.9834805511811027
20
-3.3559947244094488
11
4.9839072834645668
21
-3.3553561023622045
0
LINE
8
BLACK
6
CONTINUOUS
10
4.9839072834645668
20
-3.3553561023622045
11
4.9845459055118111
21
-3.3549293700787399
0
LINE
8
BLACK
6
CONTINUOUS
10
4.9845459055118111
20
-3.3549293700787399
11
4.9852992125984255
21
-3.3547795275590548
0
LINE
8
BLACK
6
CONTINUOUS
10
4.9852992125984255
20
-3.3547795275590548
11
5.0452992125984251
21
-3.3547795275590548
0
LINE
8
BLACK
6
CONTINUOUS
10
5.0452992125984251
20
-3.3547795275590548
11
5.0460525196850394
21
-3.3549293700787399
0
LINE
8
BLACK
6
CONTINUOUS
10
5.1460525196850391
20
-3.3549293700787399
11
5.1466911417322834
21
-3.3553561023622045
0
LINE
8
BLACK
6
CONTINUOUS
10
5.1466911417322834
20
-3.3553561023622045
11
5.1471178740157475
21
-3.3559947244094488
0
LINE
8
BLACK
6
CONTINUOUS
10
5.1471178740157475
20
-3.3559947244094488
11
5.147267716535433
21
-3.3567480314960627
0
LINE
8
BLACK
6
CONTINUOUS
10
5.147267716535433
20
-3.3567480314960627
11
5.147267716535433
21
-3.4167480314960628
0
LINE
8
BLACK
6
CONTINUOUS
10
5.147267716535433
20
-3.4167480314960628
11
5.1471178740157475
21
-3.4175013385826771
0
LINE
8
BLACK
6
CONTINUOUS
10
5.1471178740157475
20
-3.4175013385826771
11
5.1466911417322834
21
-3.418139960629921
0
LINE
8
BLACK
6
CONTINUOUS
10
5.1466911417322834
20
-3.418139960629921
11
5.1460525196850391
21
-3.4185666929133856
0
LINE
8
BLACK
6
CONTINUOUS
10
5.1460525196850391
20
-3.4185666929133856
11
5.1452992125984247
21
-3.4187165354330706
0
LINE
8
BLACK
6
CONTINUOUS
10
5.1452992125984247
20
-3.4187165354330706
11
5.0852992125984251
21
-3.4187165354330706
0
LINE
8
BLACK
6
CONTINUOUS
10
5.0852992125984251
20
-3.4187165354330706
11
5.0845459055118107
21
-3.4185666929133856
0
LINE
8
BLACK
6
CONTINUOUS
10
5.0845459055118107
20
-3.4185666929133856
11
5.0839072834645664
21
-3.418139960629921
0
LINE
8
BLACK
6
CONTINUOUS
10
5.0839072834645664
20
-3.418139960629921
11
5.0834805511811023
21
-3.4175013385826771
0
LINE
8
BLACK
6
CONTINUOUS
10
5.0834805511811023
20
-3.4175013385826771
11
5.0833307086614168
21
-3.4167480314960628
0
LINE
8
BLACK
6
CONTINUOUS
10
5.0833307086614168
20
-3.4167480314960628
11
5.0833307086614168
21
-3.3567480314960627
0
LINE
8
BLACK
6
CONTINUOUS
10
5.0833307086614168
20
-3.3567480314960627
11
5.0834805511811023
21
-3.3559947244094488
0
LINE
8
BLACK
6
CONTINUOUS
10
5.0834805511811023
20
-3.3559947244094488
11
5.0839072834645664
21
-3.3553561023622045
0
LINE
8
BLACK
6
CONTINUOUS
10
5.0839072834645664
20
-3.3553561023622045
11
5.0845459055118107
21
-3.3549293700787399
0
LINE
8
BLACK
6
CONTINUOUS
10
5.0845459055118107
20
-3.3549293700787399
11
5.0852992125984251
21
-3.3547795275590548
0
LINE
8
BLACK
6
CONTINUOUS
10
5.0852992125984251
20
-3.3547795275590548
11
5.1452992125984247
21
-3.3547795275590548
0
LINE
8
BLACK
6
CONTINUOUS
10
5.1452992125984247
20
-3.3547795275590548
11
5.1460525196850391
21
-3.3549293700787399
0
LINE
8
BLACK
6
CONTINUOUS
10
6.9040210236220467
20
-3.3267640157480316
11
6.904659645669291
21
-3.3271907480314962
0
LINE
8
BLACK
6
CONTINUOUS
10
6.904659645669291
20
-3.3271907480314962
11
6.905086377952756
21
-3.32782937007874
0
LINE
8
BLACK
6
CONTINUOUS
10
6.905086377952756
20
-3.32782937007874
11
6.9052362204724407
21
-3.3285826771653544
0
LINE
8
BLACK
6
CONTINUOUS
10
6.9052362204724407
20
-3.3285826771653544
11
6.9052362204724407
21
-3.3876377952755905
0
LINE
8
BLACK
6
CONTINUOUS
10
6.9052362204724407
20
-3.3876377952755905
11
6.905086377952756
21
-3.3883911023622049
0
LINE
8
BLACK
6
CONTINUOUS
10
6.905086377952756
20
-3.3883911023622049
11
6.904659645669291
21
-3.3890297244094487
0
LINE
8
BLACK
6
CONTINUOUS
10
6.904659645669291
20
-3.3890297244094487
11
6.9040210236220467
21
-3.3894564566929133
0
LINE
8
BLACK
6
CONTINUOUS
10
6.9040210236220467
20
-3.3894564566929133
11
6.9032677165354333
21
-3.3896062992125984
0
LINE
8
BLACK
6
CONTINUOUS
10
6.9032677165354333
20
-3.3896062992125984
11
6.5745275590551175
21
-3.3896062992125984
0
LINE
8
BLACK
6
CONTINUOUS
10
6.5745275590551175
20
-3.3896062992125984
11
6.5737742519685041
21
-3.3894564566929133
0
LINE
8
BLACK
6
CONTINUOUS
10
6.5737742519685041
20
-3.3894564566929133
11
6.5731356299212598
21
-3.3890297244094487
0
LINE
8
BLACK
6
CONTINUOUS
10
6.5731356299212598
20
-3.3890297244094487
11
6.5727088976377948
21
-3.3883911023622049
0
LINE
8
BLACK
6
CONTINUOUS
10
6.5727088976377948
20
-3.3883911023622049
11
6.5725590551181101
21
-3.3876377952755905
0
LINE
8
BLACK
6
CONTINUOUS
10
6.5725590551181101
20
-3.3876377952755905
11
6.5725590551181101
21
-3.3285826771653544
0
LINE
8
BLACK
6
CONTINUOUS
10
6.5725590551181101
20
-3.3285826771653544
11
6.5727088976377948
21
-3.32782937007874
0
LINE
8
BLACK
6
CONTINUOUS
10
6.5727088976377948
20
-3.32782937007874
11
6.5731356299212598
21
-3.3271907480314962
0
LINE
8
BLACK
6
CONTINUOUS
10
6.5731356299212598
20
-3.3271907480314962
11
6.5737742519685041
21
-3.3267640157480316
0
LINE
8
BLACK
6
CONTINUOUS
10
6.5737742519685041
20
-3.3267640157480316
11
6.5745275590551175
21
-3.3266141732283465
0
LINE
8
BLACK
6
CONTINUOUS
10
6.5745275590551175
20
-3.3266141732283465
11
6.9032677165354333
21
-3.3266141732283465
0
LINE
8
BLACK
6
CONTINUOUS
10
6.9032677165354333
20
-3.3266141732283465
11
6.9040210236220467
21
-3.3267640157480316
0
LINE
8
BLACK
6
CONTINUOUS
10
5.0460525196850394
20
-3.2549293700787403
11
5.0466911417322837
21
-3.2553561023622049
0
LINE
8
BLACK
6
CONTINUOUS
10
5.0466911417322837
20
-3.2553561023622049
11
5.0471178740157479
21
-3.2559947244094487
0
LINE
8
BLACK
6
CONTINUOUS
10
5.0471178740157479
20
-3.2559947244094487
11
5.0472677165354334
21
-3.2567480314960631
0
LINE
8
BLACK
6
CONTINUOUS
10
5.0472677165354334
20
-3.2567480314960631
11
5.0472677165354334
21
-3.3167480314960631
0
LINE
8
BLACK
6
CONTINUOUS
10
5.0472677165354334
20
-3.3167480314960631
11
5.0471178740157479
21
-3.317501338582677
0
LINE
8
BLACK
6
CONTINUOUS
10
5.0471178740157479
20
-3.317501338582677
11
5.0466911417322837
21
-3.3181399606299213
0
LINE
8
BLACK
6
CONTINUOUS
10
5.0466911417322837
20
-3.3181399606299213
11
5.0460525196850394
21
-3.3185666929133859
0
LINE
8
BLACK
6
CONTINUOUS
10
5.0460525196850394
20
-3.3185666929133859
11
5.0452992125984251
21
-3.318716535433071
0
LINE
8
BLACK
6
CONTINUOUS
10
5.0452992125984251
20
-3.318716535433071
11
4.9852992125984255
21
-3.318716535433071
0
LINE
8
BLACK
6
CONTINUOUS
10
4.9852992125984255
20
-3.318716535433071
11
4.9845459055118111
21
-3.3185666929133859
0
LINE
8
BLACK
6
CONTINUOUS
10
4.9845459055118111
20
-3.3185666929133859
11
4.9839072834645668
21
-3.3181399606299213
0
LINE
8
BLACK
6
CONTINUOUS
10
4.9839072834645668
20
-3.3181399606299213
11
4.9834805511811027
21
-3.317501338582677
0
LINE
8
BLACK
6
CONTINUOUS
10
4.9834805511811027
20
-3.317501338582677
11
4.9833307086614171
21
-3.3167480314960631
0
LINE
8
BLACK
6
CONTINUOUS
10
4.9833307086614171
20
-3.3167480314960631
11
4.9833307086614171
21
-3.2567480314960631
0
LINE
8
BLACK
6
CONTINUOUS
10
4.9833307086614171
20
-3.2567480314960631
11
4.9834805511811027
21
-3.2559947244094487
0
LINE
8
BLACK
6
CONTINUOUS
10
4.9834805511811027
20
-3.2559947244094487
11
4.9839072834645668
21
-3.2553561023622049
0
LINE
8
BLACK
6
CONTINUOUS
10
4.9839072834645668
20
-3.2553561023622049
11
4.9845459055118111
21
-3.2549293700787403
0
LINE
8
BLACK
6
CONTINUOUS
10
4.9845459055118111
20
-3.2549293700787403
11
4.9852992125984255
21
-3.2547795275590552
0
LINE
8
BLACK
6
CONTINUOUS
10
4.9852992125984255
20
-3.2547795275590552
11
5.0452992125984251
21
-3.2547795275590552
0
LINE
8
BLACK
6
CONTINUOUS
10
5.0452992125984251
20
-3.2547795275590552
11
5.0460525196850394
21
-3.2549293700787403
0
LINE
8
BLACK
6
CONTINUOUS
10
5.1460525196850391
20
-3.2549293700787403
11
5.1466911417322834
21
-3.2553561023622049
0
LINE
8
BLACK
6
CONTINUOUS
10
5.1466911417322834
20
-3.2553561023622049
11
5.1471178740157475
21
-3.2559947244094487
0
LINE
8
BLACK
6
CONTINUOUS
10
5.1471178740157475
20
-3.2559947244094487
11
5.147267716535433
21
-3.2567480314960631
0
LINE
8
BLACK
6
CONTINUOUS
10
5.147267716535433
20
-3.2567480314960631
11
5.147267716535433
21
-3.3167480314960631
0
LINE
8
BLACK
6
CONTINUOUS
10
5.147267716535433
20
-3.3167480314960631
11
5.1471178740157475
21
-3.317501338582677
0
LINE
8
BLACK
6
CONTINUOUS
10
5.1471178740157475
20
-3.317501338582677
11
5.1466911417322834
21
-3.3181399606299213
0
LINE
8
BLACK
6
CONTINUOUS
10
5.1466911417322834
20
-3.3181399606299213
11
5.1460525196850391
21
-3.3185666929133859
0
LINE
8
BLACK
6
CONTINUOUS
10
5.1460525196850391
20
-3.3185666929133859
11
5.1452992125984247
21
-3.318716535433071
0
LINE
8
BLACK
6
CONTINUOUS
10
5.1452992125984247
20
-3.318716535433071
11
5.0852992125984251
21
-3.318716535433071
0
LINE
8
BLACK
6
CONTINUOUS
10
5.0852992125984251
20
-3.318716535433071
11
5.0845459055118107
21
-3.3185666929133859
0
LINE
8
BLACK
6
CONTINUOUS
10
5.0845459055118107
20
-3.3185666929133859
11
5.0839072834645664
21
-3.3181399606299213
0
LINE
8
BLACK
6
CONTINUOUS
10
5.0839072834645664
20
-3.3181399606299213
11
5.0834805511811023
21
-3.317501338582677
0
LINE
8
BLACK
6
CONTINUOUS
10
5.0834805511811023
20
-3.317501338582677
11
5.0833307086614168
21
-3.3167480314960631
0
LINE
8
BLACK
6
CONTINUOUS
10
5.0833307086614168
20
-3.3167480314960631
11
5.0833307086614168
21
-3.2567480314960631
0
LINE
8
BLACK
6
CONTINUOUS
10
5.0833307086614168
20
-3.2567480314960631
11
5.0834805511811023
21
-3.2559947244094487
0
LINE
8
BLACK
6
CONTINUOUS
10
5.0834805511811023
20
-3.2559947244094487
11
5.0839072834645664
21
-3.2553561023622049
0
LINE
8
BLACK
6
CONTINUOUS
10
5.0839072834645664
20
-3.2553561023622049
11
5.0845459055118107
21
-3.2549293700787403
0
LINE
8
BLACK
6
CONTINUOUS
10
5.0845459055118107
20
-3.2549293700787403
11
5.0852992125984251
21
-3.2547795275590552
0
LINE
8
BLACK
6
CONTINUOUS
10
5.0852992125984251
20
-3.2547795275590552
11
5.1452992125984247
21
-3.2547795275590552
0
LINE
8
BLACK
6
CONTINUOUS
10
5.1452992125984247
20
-3.2547795275590552
11
5.1460525196850391
21
-3.2549293700787403
0
LINE
8
BLACK
6
CONTINUOUS
10
5.8383137007874017
20
-2.892222244094488
11
5.8471269685039369
21
-2.895085866141732
0
LINE
8
BLACK
6
CONTINUOUS
10
5.8471269685039369
20
-2.895085866141732
11
5.8553837795275587
21
-2.8992929133858265
0
LINE
8
BLACK
6
CONTINUOUS
10
5.8553837795275587
20
-2.8992929133858265
11
5.8628807874015747
21
-2.9047398031496061
0
LINE
8
BLACK
6
CONTINUOUS
10
5.8628807874015747
20
-2.9047398031496061
11
5.8694334251968501
21
-2.9112924409448819
0
LINE
8
BLACK
6
CONTINUOUS
10
5.8694334251968501
20
-2.9112924409448819
11
5.8748803149606301
21
-2.9187894488188975
0
LINE
8
BLACK
6
CONTINUOUS
10
5.8748803149606301
20
-2.9187894488188975
11
5.8790873622047242
21
-2.9270462598425198
0
LINE
8
BLACK
6
CONTINUOUS
10
5.8790873622047242
20
-2.9270462598425198
11
5.8819509842519686
21
-2.9358595275590549
0
LINE
8
BLACK
6
CONTINUOUS
10
5.8819509842519686
20
-2.9358595275590549
11
5.88340062992126
21
-2.9450122440944879
0
LINE
8
BLACK
6
CONTINUOUS
10
5.88340062992126
20
-2.9450122440944879
11
5.88340062992126
21
-2.950748031496063
0
LINE
8
BLACK
6
CONTINUOUS
10
5.88340062992126
20
-2.950748031496063
11
6.159355275590551
21
-2.950748031496063
0
LINE
8
BLACK
6
CONTINUOUS
10
6.159355275590551
20
-2.950748031496063
11
6.159355275590551
21
-2.9450122440944879
0
LINE
8
BLACK
6
CONTINUOUS
10
6.159355275590551
20
-2.9450122440944879
11
6.1608049212598424
21
-2.9358595275590549
0
LINE
8
BLACK
6
CONTINUOUS
10
6.1608049212598424
20
-2.9358595275590549
11
6.1636685433070868
21
-2.9270462598425198
0
LINE
8
BLACK
6
CONTINUOUS
10
6.1636685433070868
20
-2.9270462598425198
11
6.1678755905511808
21
-2.9187894488188975
0
LINE
8
BLACK
6
CONTINUOUS
10
6.1678755905511808
20
-2.9187894488188975
11
6.1733224803149609
21
-2.9112924409448819
0
LINE
8
BLACK
6
CONTINUOUS
10
6.1733224803149609
20
-2.9112924409448819
11
6.1798751181102363
21
-2.9047398031496061
0
LINE
8
BLACK
6
CONTINUOUS
10
6.1798751181102363
20
-2.9047398031496061
11
6.1873721259842522
21
-2.8992929133858265
0
LINE
8
BLACK
6
CONTINUOUS
10
6.1873721259842522
20
-2.8992929133858265
11
6.1956289370078741
21
-2.895085866141732
0
LINE
8
BLACK
6
CONTINUOUS
10
6.1956289370078741
20
-2.895085866141732
11
6.2044422047244092
21
-2.892222244094488
0
LINE
8
BLACK
6
CONTINUOUS
10
6.2044422047244092
20
-2.892222244094488
11
6.2135949212598423
21
-2.8907725984251966
0
LINE
8
BLACK
6
CONTINUOUS
10
6.2135949212598423
20
-2.8907725984251966
11
6.2228617716535428
21
-2.8907725984251966
0
LINE
8
BLACK
6
CONTINUOUS
10
6.2228617716535428
20
-2.8907725984251966
11
6.2320144881889759
21
-2.892222244094488
0
LINE
8
BLACK
6
CONTINUOUS
10
6.2320144881889759
20
-2.892222244094488
11
6.2408277559055119
21
-2.895085866141732
0
LINE
8
BLACK
6
CONTINUOUS
10
6.2408277559055119
20
-2.895085866141732
11
6.2490845669291337
21
-2.8992929133858265
0
LINE
8
BLACK
6
CONTINUOUS
10
6.2490845669291337
20
-2.8992929133858265
11
6.2565815748031497
21
-2.9047398031496061
0
LINE
8
BLACK
6
CONTINUOUS
10
6.2565815748031497
20
-2.9047398031496061
11
6.2631342125984251
21
-2.9112924409448819
0
LINE
8
BLACK
6
CONTINUOUS
10
6.2631342125984251
20
-2.9112924409448819
11
6.2685811023622042
21
-2.9187894488188975
0
LINE
8
BLACK
6
CONTINUOUS
10
6.2685811023622042
20
-2.9187894488188975
11
6.2727881496062992
21
-2.9270462598425198
0
LINE
8
BLACK
6
CONTINUOUS
10
6.2727881496062992
20
-2.9270462598425198
11
6.2756517716535436
21
-2.9358595275590549
0
LINE
8
BLACK
6
CONTINUOUS
10
6.2756517716535436
20
-2.9358595275590549
11
6.2771014173228341
21
-2.9450122440944879
0
LINE
8
BLACK
6
CONTINUOUS
10
6.2771014173228341
20
-2.9450122440944879
11
6.2771014173228341
21
-2.950748031496063
0
LINE
8
BLACK
6
CONTINUOUS
10
6.2771014173228341
20
-2.950748031496063
11
6.553056062992126
21
-2.950748031496063
0
LINE
8
BLACK
6
CONTINUOUS
10
6.553056062992126
20
-2.950748031496063
11
6.553056062992126
21
-2.9450122440944879
0
LINE
8
BLACK
6
CONTINUOUS
10
6.553056062992126
20
-2.9450122440944879
11
6.5545057086614174
21
-2.9358595275590549
0
LINE
8
BLACK
6
CONTINUOUS
10
6.5545057086614174
20
-2.9358595275590549
11
6.5573693307086609
21
-2.9270462598425198
0
LINE
8
BLACK
6
CONTINUOUS
10
6.5573693307086609
20
-2.9270462598425198
11
6.5615763779527558
21
-2.9187894488188975
0
LINE
8
BLACK
6
CONTINUOUS
10
6.5615763779527558
20
-2.9187894488188975
11
6.567023267716535
21
-2.9112924409448819
0
LINE
8
BLACK
6
CONTINUOUS
10
6.567023267716535
20
-2.9112924409448819
11
6.5735759055118113
21
-2.9047398031496061
0
LINE
8
BLACK
6
CONTINUOUS
10
6.5735759055118113
20
-2.9047398031496061
11
6.5810729133858263
21
-2.8992929133858265
0
LINE
8
BLACK
6
CONTINUOUS
10
6.5810729133858263
20
-2.8992929133858265
11
6.5893297244094491
21
-2.895085866141732
0
LINE
8
BLACK
6
CONTINUOUS
10
6.5893297244094491
20
-2.895085866141732
11
6.5981429921259842
21
-2.892222244094488
0
LINE
8
BLACK
6
CONTINUOUS
10
6.5981429921259842
20
-2.892222244094488
11
6.6072957086614172
21
-2.8907725984251966
0
LINE
8
BLACK
6
CONTINUOUS
10
6.6072957086614172
20
-2.8907725984251966
11
6.6165625590551178
21
-2.8907725984251966
0
LINE
8
BLACK
6
CONTINUOUS
10
6.6165625590551178
20
-2.8907725984251966
11
6.6257152755905508
21
-2.892222244094488
0
LINE
8
BLACK
6
CONTINUOUS
10
6.6257152755905508
20
-2.892222244094488
11
6.6345285433070869
21
-2.895085866141732
0
LINE
8
BLACK
6
CONTINUOUS
10
6.6345285433070869
20
-2.895085866141732
11
6.6427853543307087
21
-2.8992929133858265
0
LINE
8
BLACK
6
CONTINUOUS
10
6.6427853543307087
20
-2.8992929133858265
11
6.6502823622047247
21
-2.9047398031496061
0
LINE
8
BLACK
6
CONTINUOUS
10
6.6502823622047247
20
-2.9047398031496061
11
6.6568350000000001
21
-2.9112924409448819
0
LINE
8
BLACK
6
CONTINUOUS
10
6.6568350000000001
20
-2.9112924409448819
11
6.6622818897637792
21
-2.9187894488188975
0
LINE
8
BLACK
6
CONTINUOUS
10
6.6622818897637792
20
-2.9187894488188975
11
6.6664889370078741
21
-2.9270462598425198
0
LINE
8
BLACK
6
CONTINUOUS
10
6.6664889370078741
20
-2.9270462598425198
11
6.6693525590551177
21
-2.9358595275590549
0
LINE
8
BLACK
6
CONTINUOUS
10
6.6693525590551177
20
-2.9358595275590549
11
6.6708022047244091
21
-2.9450122440944879
0
LINE
8
BLACK
6
CONTINUOUS
10
6.6708022047244091
20
-2.9450122440944879
11
6.6708022047244091
21
-2.950748031496063
0
LINE
8
BLACK
6
CONTINUOUS
10
6.6708022047244091
20
-2.950748031496063
11
6.9013095275590546
21
-2.950748031496063
0
LINE
8
BLACK
6
CONTINUOUS
10
6.9013095275590546
20
-2.950748031496063
11
6.9039914566929133
21
-2.9515355118110236
0
LINE
8
BLACK
6
CONTINUOUS
10
6.9039914566929133
20
-2.9515355118110236
11
6.9058218897637795
21
-2.9536479527559054
0
LINE
8
BLACK
6
CONTINUOUS
10
6.9058218897637795
20
-2.9536479527559054
11
6.9062700787401576
21
-2.9557376377952753
0
LINE
8
BLACK
6
CONTINUOUS
10
6.9062700787401576
20
-2.9557376377952753
11
6.9054225196850396
21
-3.1008163779527558
0
LINE
8
BLACK
6
CONTINUOUS
10
6.9054225196850396
20
-3.1008163779527558
11
6.9051444094488188
21
-3.1017433070866143
0
LINE
8
BLACK
6
CONTINUOUS
10
6.9051444094488188
20
-3.1017433070866143
11
6.9052362204724407
21
-3.1022047244094488
0
LINE
8
BLACK
6
CONTINUOUS
10
6.9052362204724407
20
-3.1022047244094488
11
6.9052362204724407
21
-3.1612598425196849
0
LINE
8
BLACK
6
CONTINUOUS
10
6.9052362204724407
20
-3.1612598425196849
11
6.905086377952756
21
-3.1620131496062993
0
LINE
8
BLACK
6
CONTINUOUS
10
6.905086377952756
20
-3.1620131496062993
11
6.904659645669291
21
-3.1626517716535432
0
LINE
8
BLACK
6
CONTINUOUS
10
6.904659645669291
20
-3.1626517716535432
11
6.9040210236220467
21
-3.1630785039370077
0
LINE
8
BLACK
6
CONTINUOUS
10
6.9040210236220467
20
-3.1630785039370077
11
6.9032677165354333
21
-3.1632283464566928
0
LINE
8
BLACK
6
CONTINUOUS
10
6.9032677165354333
20
-3.1632283464566928
11
6.5745275590551175
21
-3.1632283464566928
0
LINE
8
BLACK
6
CONTINUOUS
10
6.5745275590551175
20
-3.1632283464566928
11
6.5737742519685041
21
-3.1630785039370077
0
LINE
8
BLACK
6
CONTINUOUS
10
6.5737742519685041
20
-3.1630785039370077
11
6.5731356299212598
21
-3.1626517716535432
0
LINE
8
BLACK
6
CONTINUOUS
10
6.5731356299212598
20
-3.1626517716535432
11
6.5727088976377948
21
-3.1620131496062993
0
LINE
8
BLACK
6
CONTINUOUS
10
6.5727088976377948
20
-3.1620131496062993
11
6.5725590551181101
21
-3.1612598425196849
0
LINE
8
BLACK
6
CONTINUOUS
10
6.5725590551181101
20
-3.1612598425196849
11
6.5725590551181101
21
-3.1057480314960628
0
LINE
8
BLACK
6
CONTINUOUS
10
6.5725590551181101
20
-3.1057480314960628
11
5.7603543307086609
21
-3.1057480314960628
0
LINE
8
BLACK
6
CONTINUOUS
10
5.7603543307086609
20
-3.1057480314960628
11
5.7576724015748031
21
-3.1049605511811023
0
LINE
8
BLACK
6
CONTINUOUS
10
5.7576724015748031
20
-3.1049605511811023
11
5.7558419685039368
21
-3.1028481102362204
0
LINE
8
BLACK
6
CONTINUOUS
10
5.7558419685039368
20
-3.1028481102362204
11
5.7553937007874012
21
-3.1007874015748031
0
LINE
8
BLACK
6
CONTINUOUS
10
5.7553937007874012
20
-3.1007874015748031
11
5.7553937007874012
21
-2.9557086614173227
0
LINE
8
BLACK
6
CONTINUOUS
10
5.7553937007874012
20
-2.9557086614173227
11
5.7561811811023622
21
-2.9530267322834645
0
LINE
8
BLACK
6
CONTINUOUS
10
5.7561811811023622
20
-2.9530267322834645
11
5.758293622047244
21
-2.9511962992125982
0
LINE
8
BLACK
6
CONTINUOUS
10
5.758293622047244
20
-2.9511962992125982
11
5.7603543307086609
21
-2.950748031496063
0
LINE
8
BLACK
6
CONTINUOUS
10
5.7603543307086609
20
-2.950748031496063
11
5.765654488188976
21
-2.950748031496063
0
LINE
8
BLACK
6
CONTINUOUS
10
5.765654488188976
20
-2.950748031496063
11
5.765654488188976
21
-2.9450122440944879
0
LINE
8
BLACK
6
CONTINUOUS
10
5.765654488188976
20
-2.9450122440944879
11
5.7671041338582674
21
-2.9358595275590549
0
LINE
8
BLACK
6
CONTINUOUS
10
5.7671041338582674
20
-2.9358595275590549
11
5.7699677559055118
21
-2.9270462598425198
0
LINE
8
BLACK
6
CONTINUOUS
10
5.7699677559055118
20
-2.9270462598425198
11
5.7741748031496059
21
-2.9187894488188975
0
LINE
8
BLACK
6
CONTINUOUS
10
5.7741748031496059
20
-2.9187894488188975
11
5.7796216929133859
21
-2.9112924409448819
0
LINE
8
BLACK
6
CONTINUOUS
10
5.7796216929133859
20
-2.9112924409448819
11
5.7861743307086613
21
-2.9047398031496061
0
LINE
8
BLACK
6
CONTINUOUS
10
5.7861743307086613
20
-2.9047398031496061
11
5.7936713385826772
21
-2.8992929133858265
0
LINE
8
BLACK
6
CONTINUOUS
10
5.7936713385826772
20
-2.8992929133858265
11
5.8019281496062991
21
-2.895085866141732
0
LINE
8
BLACK
6
CONTINUOUS
10
5.8019281496062991
20
-2.895085866141732
11
5.8107414173228342
21
-2.892222244094488
0
LINE
8
BLACK
6
CONTINUOUS
10
5.8107414173228342
20
-2.892222244094488
11
5.8198941338582673
21
-2.8907725984251966
0
LINE
8
BLACK
6
CONTINUOUS
10
5.8198941338582673
20
-2.8907725984251966
11
5.8291609842519687
21
-2.8907725984251966
0
LINE
8
BLACK
6
CONTINUOUS
10
5.8291609842519687
20
-2.8907725984251966
11
5.8383137007874017
21
-2.892222244094488
0
LINE
8
BLACK
6
CONTINUOUS
10
5.0509121259842518
20
-2.892222244094488
11
5.0597253937007869
21
-2.895085866141732
0
LINE
8
BLACK
6
CONTINUOUS
10
5.0597253937007869
20
-2.895085866141732
11
5.0679822047244096
21
-2.8992929133858265
0
LINE
8
BLACK
6
CONTINUOUS
10
5.0679822047244096
20
-2.8992929133858265
11
5.0754792125984247
21
-2.9047398031496061
0
LINE
8
BLACK
6
CONTINUOUS
10
5.0754792125984247
20
-2.9047398031496061
11
5.082031850393701
21
-2.9112924409448819
0
LINE
8
BLACK
6
CONTINUOUS
10
5.082031850393701
20
-2.9112924409448819
11
5.0874787401574801
21
-2.9187894488188975
0
LINE
8
BLACK
6
CONTINUOUS
10
5.0874787401574801
20
-2.9187894488188975
11
5.0916857874015751
21
-2.9270462598425198
0
LINE
8
BLACK
6
CONTINUOUS
10
5.0916857874015751
20
-2.9270462598425198
11
5.0945494094488186
21
-2.9358595275590549
0
LINE
8
BLACK
6
CONTINUOUS
10
5.0945494094488186
20
-2.9358595275590549
11
5.09599905511811
21
-2.9450122440944879
0
LINE
8
BLACK
6
CONTINUOUS
10
5.09599905511811
20
-2.9450122440944879
11
5.09599905511811
21
-2.9542790944881889
0
LINE
8
BLACK
6
CONTINUOUS
10
5.09599905511811
20
-2.9542790944881889
11
5.0945494094488186
21
-2.963431811023622
0
LINE
8
BLACK
6
CONTINUOUS
10
5.0945494094488186
20
-2.963431811023622
11
5.0916857874015751
21
-2.9722450787401575
0
LINE
8
BLACK
6
CONTINUOUS
10
5.0916857874015751
20
-2.9722450787401575
11
5.0874787401574801
21
-2.9805018897637794
0
LINE
8
BLACK
6
CONTINUOUS
10
5.0874787401574801
20
-2.9805018897637794
11
5.082031850393701
21
-2.9879988976377954
0
LINE
8
BLACK
6
CONTINUOUS
10
5.082031850393701
20
-2.9879988976377954
11
5.0754792125984247
21
-2.9945515354330707
0
LINE
8
BLACK
6
CONTINUOUS
10
5.0754792125984247
20
-2.9945515354330707
11
5.0679822047244096
21
-2.9999984251968503
0
LINE
8
BLACK
6
CONTINUOUS
10
5.0679822047244096
20
-2.9999984251968503
11
5.0597253937007869
21
-3.0042054724409448
0
LINE
8
BLACK
6
CONTINUOUS
10
5.0597253937007869
20
-3.0042054724409448
11
5.0509121259842518
21
-3.0070690944881888
0
LINE
8
BLACK
6
CONTINUOUS
10
5.0509121259842518
20
-3.0070690944881888
11
5.0417594094488187
21
-3.0085187401574802
0
LINE
8
BLACK
6
CONTINUOUS
10
5.0417594094488187
20
-3.0085187401574802
11
5.0324925590551182
21
-3.0085187401574802
0
LINE
8
BLACK
6
CONTINUOUS
10
5.0324925590551182
20
-3.0085187401574802
11
5.0233398425196851
21
-3.0070690944881888
0
LINE
8
BLACK
6
CONTINUOUS
10
5.0233398425196851
20
-3.0070690944881888
11
5.0145265748031491
21
-3.0042054724409448
0
LINE
8
BLACK
6
CONTINUOUS
10
5.0145265748031491
20
-3.0042054724409448
11
5.0062697637795273
21
-2.9999984251968503
0
LINE
8
BLACK
6
CONTINUOUS
10
5.0062697637795273
20
-2.9999984251968503
11
4.9987727559055113
21
-2.9945515354330707
0
LINE
8
BLACK
6
CONTINUOUS
10
4.9987727559055113
20
-2.9945515354330707
11
4.9922201181102359
21
-2.9879988976377954
0
LINE
8
BLACK
6
CONTINUOUS
10
4.9922201181102359
20
-2.9879988976377954
11
4.9867732283464568
21
-2.9805018897637794
0
LINE
8
BLACK
6
CONTINUOUS
10
4.9867732283464568
20
-2.9805018897637794
11
4.9825661811023618
21
-2.9722450787401575
0
LINE
8
BLACK
6
CONTINUOUS
10
4.9825661811023618
20
-2.9722450787401575
11
4.9797025590551183
21
-2.963431811023622
0
LINE
8
BLACK
6
CONTINUOUS
10
4.9797025590551183
20
-2.963431811023622
11
4.9782529133858269
21
-2.9542790944881889
0
LINE
8
BLACK
6
CONTINUOUS
10
4.9782529133858269
20
-2.9542790944881889
11
4.9782529133858269
21
-2.9450122440944879
0
LINE
8
BLACK
6
CONTINUOUS
10
4.9782529133858269
20
-2.9450122440944879
11
4.9797025590551183
21
-2.9358595275590549
0
LINE
8
BLACK
6
CONTINUOUS
10
4.9797025590551183
20
-2.9358595275590549
11
4.9825661811023618
21
-2.9270462598425198
0
LINE
8
BLACK
6
CONTINUOUS
10
4.9825661811023618
20
-2.9270462598425198
11
4.9867732283464568
21
-2.9187894488188975
0
LINE
8
BLACK
6
CONTINUOUS
10
4.9867732283464568
20
-2.9187894488188975
11
4.9922201181102359
21
-2.9112924409448819
0
LINE
8
BLACK
6
CONTINUOUS
10
4.9922201181102359
20
-2.9112924409448819
11
4.9987727559055113
21
-2.9047398031496061
0
LINE
8
BLACK
6
CONTINUOUS
10
4.9987727559055113
20
-2.9047398031496061
11
5.0062697637795273
21
-2.8992929133858265
0
LINE
8
BLACK
6
CONTINUOUS
10
5.0062697637795273
20
-2.8992929133858265
11
5.0145265748031491
21
-2.895085866141732
0
LINE
8
BLACK
6
CONTINUOUS
10
5.0145265748031491
20
-2.895085866141732
11
5.0233398425196851
21
-2.892222244094488
0
LINE
8
BLACK
6
CONTINUOUS
10
5.0233398425196851
20
-2.892222244094488
11
5.0324925590551182
21
-2.8907725984251966
0
LINE
8
BLACK
6
CONTINUOUS
10
5.0324925590551182
20
-2.8907725984251966
11
5.0417594094488187
21
-2.8907725984251966
0
LINE
8
BLACK
6
CONTINUOUS
10
5.0417594094488187
20
-2.8907725984251966
11
5.0509121259842518
21
-2.892222244094488
0
LINE
8
BLACK
6
CONTINUOUS
10
5.4446129133858268
20
-2.892222244094488
11
5.4534261811023619
21
-2.895085866141732
0
LINE
8
BLACK
6
CONTINUOUS
10
5.4534261811023619
20
-2.895085866141732
11
5.4616829921259837
21
-2.8992929133858265
0
LINE
8
BLACK
6
CONTINUOUS
10
5.4616829921259837
20
-2.8992929133858265
11
5.4691799999999997
21
-2.9047398031496061
0
LINE
8
BLACK
6
CONTINUOUS
10
5.4691799999999997
20
-2.9047398031496061
11
5.4757326377952751
21
-2.9112924409448819
0
LINE
8
BLACK
6
CONTINUOUS
10
5.4757326377952751
20
-2.9112924409448819
11
5.4811795275590551
21
-2.9187894488188975
0
LINE
8
BLACK
6
CONTINUOUS
10
5.4811795275590551
20
-2.9187894488188975
11
5.4853865748031492
21
-2.9270462598425198
0
LINE
8
BLACK
6
CONTINUOUS
10
5.4853865748031492
20
-2.9270462598425198
11
5.4882501968503936
21
-2.9358595275590549
0
LINE
8
BLACK
6
CONTINUOUS
10
5.4882501968503936
20
-2.9358595275590549
11
5.489699842519685
21
-2.9450122440944879
0
LINE
8
BLACK
6
CONTINUOUS
10
5.489699842519685
20
-2.9450122440944879
11
5.489699842519685
21
-2.9542790944881889
0
LINE
8
BLACK
6
CONTINUOUS
10
5.489699842519685
20
-2.9542790944881889
11
5.4882501968503936
21
-2.963431811023622
0
LINE
8
BLACK
6
CONTINUOUS
10
5.4882501968503936
20
-2.963431811023622
11
5.4853865748031492
21
-2.9722450787401575
0
LINE
8
BLACK
6
CONTINUOUS
10
5.4853865748031492
20
-2.9722450787401575
11
5.4811795275590551
21
-2.9805018897637794
0
LINE
8
BLACK
6
CONTINUOUS
10
5.4811795275590551
20
-2.9805018897637794
11
5.4757326377952751
21
-2.9879988976377954
0
LINE
8
BLACK
6
CONTINUOUS
10
5.4757326377952751
20
-2.9879988976377954
11
5.4691799999999997
21
-2.9945515354330707
0
LINE
8
BLACK
6
CONTINUOUS
10
5.4691799999999997
20
-2.9945515354330707
11
5.4616829921259837
21
-2.9999984251968503
0
LINE
8
BLACK
6
CONTINUOUS
10
5.4616829921259837
20
-2.9999984251968503
11
5.4534261811023619
21
-3.0042054724409448
0
LINE
8
BLACK
6
CONTINUOUS
10
5.4534261811023619
20
-3.0042054724409448
11
5.4446129133858268
21
-3.0070690944881888
0
LINE
8
BLACK
6
CONTINUOUS
10
5.4446129133858268
20
-3.0070690944881888
11
5.4354601968503937
21
-3.0085187401574802
0
LINE
8
BLACK
6
CONTINUOUS
10
5.4354601968503937
20
-3.0085187401574802
11
5.4261933464566932
21
-3.0085187401574802
0
LINE
8
BLACK
6
CONTINUOUS
10
5.4261933464566932
20
-3.0085187401574802
11
5.4170406299212601
21
-3.0070690944881888
0
LINE
8
BLACK
6
CONTINUOUS
10
5.4170406299212601
20
-3.0070690944881888
11
5.4082273622047241
21
-3.0042054724409448
0
LINE
8
BLACK
6
CONTINUOUS
10
5.4082273622047241
20
-3.0042054724409448
11
5.3999705511811023
21
-2.9999984251968503
0
LINE
8
BLACK
6
CONTINUOUS
10
5.3999705511811023
20
-2.9999984251968503
11
5.3924735433070863
21
-2.9945515354330707
0
LINE
8
BLACK
6
CONTINUOUS
10
5.3924735433070863
20
-2.9945515354330707
11
5.3859209055118109
21
-2.9879988976377954
0
LINE
8
BLACK
6
CONTINUOUS
10
5.3859209055118109
20
-2.9879988976377954
11
5.3804740157480317
21
-2.9805018897637794
0
LINE
8
BLACK
6
CONTINUOUS
10
5.3804740157480317
20
-2.9805018897637794
11
5.3762669685039368
21
-2.9722450787401575
0
LINE
8
BLACK
6
CONTINUOUS
10
5.3762669685039368
20
-2.9722450787401575
11
5.3734033464566924
21
-2.963431811023622
0
LINE
8
BLACK
6
CONTINUOUS
10
5.3734033464566924
20
-2.963431811023622
11
5.3719537007874019
21
-2.9542790944881889
0
LINE
8
BLACK
6
CONTINUOUS
10
5.3719537007874019
20
-2.9542790944881889
11
5.3719537007874019
21
-2.9450122440944879
0
LINE
8
BLACK
6
CONTINUOUS
10
5.3719537007874019
20
-2.9450122440944879
11
5.3734033464566924
21
-2.9358595275590549
0
LINE
8
BLACK
6
CONTINUOUS
10
5.3734033464566924
20
-2.9358595275590549
11
5.3762669685039368
21
-2.9270462598425198
0
LINE
8
BLACK
6
CONTINUOUS
10
5.3762669685039368
20
-2.9270462598425198
11
5.3804740157480317
21
-2.9187894488188975
0
LINE
8
BLACK
6
CONTINUOUS
10
5.3804740157480317
20
-2.9187894488188975
11
5.3859209055118109
21
-2.9112924409448819
0
LINE
8
BLACK
6
CONTINUOUS
10
5.3859209055118109
20
-2.9112924409448819
11
5.3924735433070863
21
-2.9047398031496061
0
LINE
8
BLACK
6
CONTINUOUS
10
5.3924735433070863
20
-2.9047398031496061
11
5.3999705511811023
21
-2.8992929133858265
0
LINE
8
BLACK
6
CONTINUOUS
10
5.3999705511811023
20
-2.8992929133858265
11
5.4082273622047241
21
-2.895085866141732
0
LINE
8
BLACK
6
CONTINUOUS
10
5.4082273622047241
20
-2.895085866141732
11
5.4170406299212601
21
-2.892222244094488
0
LINE
8
BLACK
6
CONTINUOUS
10
5.4170406299212601
20
-2.892222244094488
11
5.4261933464566932
21
-2.8907725984251966
0
LINE
8
BLACK
6
CONTINUOUS
10
5.4261933464566932
20
-2.8907725984251966
11
5.4354601968503937
21
-2.8907725984251966
0
LINE
8
BLACK
6
CONTINUOUS
10
5.4354601968503937
20
-2.8907725984251966
11
5.4446129133858268
21
-2.892222244094488
0
CIRCLE
8
BLACK
10
5.8245275590551175
20
-2.9496456692913386
40
0.0068897637795276
0
CIRCLE
8
BLACK
10
5.0371259842519684
20
-2.9496456692913386
40
0.0068897637795276
0
CIRCLE
8
BLACK
10
5.4308267716535434
20
-2.9496456692913386
40
0.0068897637795276
0
CIRCLE
8
BLACK
10
6.6119291338582675
20
-4.1307480314960632
40
0.0068897637795276
0
CIRCLE
8
BLACK
10
6.2182283464566925
20
-4.1307480314960632
40
0.0068897637795276
0
CIRCLE
8
BLACK
10
5.8245275590551175
20
-4.1307480314960632
40
0.0068897637795276
0
CIRCLE
8
BLACK
10
5.0371259842519684
20
-4.1307480314960632
40
0.0068897637795276
0
CIRCLE
8
BLACK
10
6.6119291338582675
20
-2.9496456692913386
40
0.0068897637795276
0
CIRCLE
8
BLACK
10
6.2182283464566925
20
-2.9496456692913386
40
0.0068897637795276
0
CIRCLE
8
BLACK
10
5.4308267716535434
20
-4.1307480314960632
40
0.0068897637795276
0
CIRCLE
8
BLACK
10
5.5921653543307084
20
-3.2797244094488187
40
0.0039370078740157
0
CIRCLE
8
BLACK
10
5.5449212598425195
20
-3.2797244094488187
40
0.0039370078740157
0
CIRCLE
8
BLACK
10
5.4976771653543306
20
-3.2797244094488187
40
0.0039370078740157
0
CIRCLE
8
BLACK
10
5.4504330708661417
20
-3.2797244094488187
40
0.0039370078740157
0
CIRCLE
8
BLACK
10
5.5921653543307084
20
-3.3407480314960627
40
0.0039370078740157
0
CIRCLE
8
BLACK
10
5.5449212598425195
20
-3.3407480314960627
40
0.0039370078740157
0
CIRCLE
8
BLACK
10
5.4976771653543306
20
-3.3407480314960627
40
0.0039370078740157
0
CIRCLE
8
BLACK
10
5.4504330708661417
20
-3.3407480314960627
40
0.0039370078740157
0
CIRCLE
8
BLACK
10
5.5921653543307084
20
-3.4017716535433071
40
0.0039370078740157
0
CIRCLE
8
BLACK
10
5.5449212598425195
20
-3.4017716535433071
40
0.0039370078740157
0
CIRCLE
8
BLACK
10
5.4976771653543306
20
-3.4017716535433071
40
0.0039370078740157
0
CIRCLE
8
BLACK
10
5.4504330708661417
20
-3.4017716535433071
40
0.0039370078740157
0
CIRCLE
8
BLACK
10
6.0181496062992128
20
-3.6763779527559053
40
0.0039370078740157
0
CIRCLE
8
BLACK
10
6.0417716535433073
20
-3.6763779527559053
40
0.0039370078740157
0
CIRCLE
8
BLACK
10
6.0653937007874017
20
-3.6763779527559053
40
0.0039370078740157
0
CIRCLE
8
BLACK
10
6.5892913385826768
20
-3.3581102362204724
40
0.0039370078740157
0
CIRCLE
8
BLACK
10
6.5892913385826768
20
-3.1317322834645669
40
0.0039370078740157
0
CIRCLE
8
BLACK
10
6.5892913385826768
20
-3.9486614173228345
40
0.0039370078740157
0
CIRCLE
8
BLACK
10
6.5892913385826768
20
-3.7222834645669289
40
0.0039370078740157
0
CIRCLE
8
WHITE
10
5.8245275590551175
20
-2.9496456692913386
40
0.0068897637795276
0
CIRCLE
8
WHITE
10
5.0371259842519684
20
-2.9496456692913386
40
0.0068897637795276
0
CIRCLE
8
WHITE
10
5.4308267716535434
20
-2.9496456692913386
40
0.0068897637795276
0
CIRCLE
8
WHITE
10
6.6119291338582675
20
-4.1307480314960632
40
0.0068897637795276
0
CIRCLE
8
WHITE
10
6.2182283464566925
20
-4.1307480314960632
40
0.0068897637795276
0
CIRCLE
8
WHITE
10
5.8245275590551175
20
-4.1307480314960632
40
0.0068897637795276
0
CIRCLE
8
WHITE
10
5.0371259842519684
20
-4.1307480314960632
40
0.0068897637795276
0
CIRCLE
8
WHITE
10
6.6119291338582675
20
-2.9496456692913386
40
0.0068897637795276
0
CIRCLE
8
WHITE
10
6.2182283464566925
20
-2.9496456692913386
40
0.0068897637795276
0
CIRCLE
8
WHITE
10
5.4308267716535434
20
-4.1307480314960632
40
0.0068897637795276
0
CIRCLE
8
BLACK
10
5.5921653543307084
20
-3.2797244094488187
40
0.0039370078740157
0
CIRCLE
8
BLACK
10
5.5449212598425195
20
-3.2797244094488187
40
0.0039370078740157
0
CIRCLE
8
BLACK
10
5.4976771653543306
20
-3.2797244094488187
40
0.0039370078740157
0
CIRCLE
8
BLACK
10
5.4504330708661417
20
-3.2797244094488187
40
0.0039370078740157
0
CIRCLE
8
BLACK
10
5.5921653543307084
20
-3.3407480314960627
40
0.0039370078740157
0
CIRCLE
8
BLACK
10
5.5449212598425195
20
-3.3407480314960627
40
0.0039370078740157
0
CIRCLE
8
BLACK
10
5.4976771653543306
20
-3.3407480314960627
40
0.0039370078740157
0
CIRCLE
8
BLACK
10
5.4504330708661417
20
-3.3407480314960627
40
0.0039370078740157
0
CIRCLE
8
BLACK
10
5.5921653543307084
20
-3.4017716535433071
40
0.0039370078740157
0
CIRCLE
8
BLACK
10
5.5449212598425195
20
-3.4017716535433071
40
0.0039370078740157
0
CIRCLE
8
BLACK
10
5.4976771653543306
20
-3.4017716535433071
40
0.0039370078740157
0
CIRCLE
8
BLACK
10
5.4504330708661417
20
-3.4017716535433071
40
0.0039370078740157
0
CIRCLE
8
BLACK
10
6.0181496062992128
20
-3.6763779527559053
40
0.0039370078740157
0
CIRCLE
8
BLACK
10
6.0417716535433073
20
-3.6763779527559053
40
0.0039370078740157
0
CIRCLE
8
BLACK
10
6.0653937007874017
20
-3.6763779527559053
40
0.0039370078740157
0
CIRCLE
8
WHITE
10
6.5892913385826768
20
-3.3581102362204724
40
0.0039370078740157
0
CIRCLE
8
WHITE
10
6.5892913385826768
20
-3.1317322834645669
40
0.0039370078740157
0
CIRCLE
8
WHITE
10
6.5892913385826768
20
-3.9486614173228345
40
0.0039370078740157
0
CIRCLE
8
WHITE
10
6.5892913385826768
20
-3.7222834645669289
40
0.0039370078740157
  0
ENDSEC
  0
EOF
