  0
SECTION
  2
HEADER
  9
$ANGBASE
  50
0.0
  9
$ANGDIR
  70
1
  9
$MEASUREMENT
  70
0
  0
ENDSEC
  0
SECTION
  2
TABLES
  0
TABLE
  2
LTYPE
  70
4
  0
LTYPE
  5
40F
  2
CONTINUOUS
  70
0
  3
Solid line
  72
65
  73
0
  40
0.0
  0
LTYPE
  5
410
  2
DASHDOT
 70
0
  3
Dash Dot ____ _ ____ _
 72
65
 73
4
 40
2.0
 49
1.25
 49
-0.25
 49
0.25
 49
-0.25
  0
LTYPE
  5
411
  2
DASHED
 70
0
  3
Dashed __ __ __ __ __
 72
65
 73
2
 40
0.75
 49
0.5
 49
-0.25
  0
LTYPE
  5
43B
  2
DOTTED
 70
0
  3
Dotted .  .  .  .
 72
65
 73
2
 40
0.2
 49
0.0
 49
-0.2
  0
ENDTAB
  0
TABLE
  2
STYLE
  70
4
  0
STYLE
  2
KICAD
  70
0
  40
0
  41
1
  42
1
  50
0
  71
0
  3
isocp.shx
  0
STYLE
  2
KICADB
  70
0
  40
0
  41
1
  42
1
  50
0
  71
0
  3
isocp.shx
  0
STYLE
  2
KICADI
  70
0
  40
0
  41
1
  42
1
  50
15
  71
0
  3
isocp.shx
  0
STYLE
  2
KICADBI
  70
0
  40
0
  41
1
  42
1
  50
15
  71
0
  3
isocp.shx
  0
ENDTAB
  0
TABLE
  2
LAYER
  70
1
  0
LAYER
  2
BLACK
  70
0
  62
7
  6
CONTINUOUS
  0
ENDTAB
  0
ENDSEC
  0
SECTION
  2
ENTITIES
0
LINE
8
BLACK
6
CONTINUOUS
10
5.26617
20
-3.18175
11
5.27056
21
-3.18399
0
LINE
8
BLACK
6
CONTINUOUS
10
5.27056
20
-3.18399
11
5.27404
21
-3.18748
0
LINE
8
BLACK
6
CONTINUOUS
10
5.27404
20
-3.18748
11
5.27628
21
-3.19187
0
LINE
8
BLACK
6
CONTINUOUS
10
5.27628
20
-3.19187
11
5.27705
21
-3.19673
0
LINE
8
BLACK
6
CONTINUOUS
10
5.27705
20
-3.19673
11
5.27628
21
-3.2016
0
LINE
8
BLACK
6
CONTINUOUS
10
5.27628
20
-3.2016
11
5.27404
21
-3.20599
0
LINE
8
BLACK
6
CONTINUOUS
10
5.27404
20
-3.20599
11
5.27056
21
-3.20947
0
LINE
8
BLACK
6
CONTINUOUS
10
5.27056
20
-3.20947
11
5.2672
21
-3.21118
0
LINE
8
BLACK
6
CONTINUOUS
10
5.2672
20
-3.21118
11
5.2672
21
-3.23075
0
LINE
8
BLACK
6
CONTINUOUS
10
5.2672
20
-3.23075
11
5.267
21
-3.2315
0
LINE
8
BLACK
6
CONTINUOUS
10
5.267
20
-3.2315
11
5.267
21
-3.23228
0
LINE
8
BLACK
6
CONTINUOUS
10
5.267
20
-3.23228
11
5.26661
21
-3.23295
0
LINE
8
BLACK
6
CONTINUOUS
10
5.26661
20
-3.23295
11
5.26641
21
-3.2337
0
LINE
8
BLACK
6
CONTINUOUS
10
5.26641
20
-3.2337
11
5.26586
21
-3.23425
0
LINE
8
BLACK
6
CONTINUOUS
10
5.26586
20
-3.23425
11
5.26548
21
-3.23492
0
LINE
8
BLACK
6
CONTINUOUS
10
5.26548
20
-3.23492
11
5.1772
21
-3.32319
0
LINE
8
BLACK
6
CONTINUOUS
10
5.1772
20
-3.32319
11
5.1772
21
-3.33075
0
LINE
8
BLACK
6
CONTINUOUS
10
5.1772
20
-3.33075
11
5.177
21
-3.3315
0
LINE
8
BLACK
6
CONTINUOUS
10
5.177
20
-3.3315
11
5.177
21
-3.33228
0
LINE
8
BLACK
6
CONTINUOUS
10
5.177
20
-3.33228
11
5.17661
21
-3.33295
0
LINE
8
BLACK
6
CONTINUOUS
10
5.17661
20
-3.33295
11
5.17641
21
-3.3337
0
LINE
8
BLACK
6
CONTINUOUS
10
5.17641
20
-3.3337
11
5.17586
21
-3.33425
0
LINE
8
BLACK
6
CONTINUOUS
10
5.17586
20
-3.33425
11
5.17548
21
-3.33492
0
LINE
8
BLACK
6
CONTINUOUS
10
5.17548
20
-3.33492
11
5.1453
21
-3.3651
0
LINE
8
BLACK
6
CONTINUOUS
10
5.1453
20
-3.3651
11
5.1453
21
-3.41675
0
LINE
8
BLACK
6
CONTINUOUS
10
5.1453
20
-3.41675
11
5.0853
21
-3.41675
0
LINE
8
BLACK
6
CONTINUOUS
10
5.0853
20
-3.41675
11
5.0853
21
-3.35675
0
LINE
8
BLACK
6
CONTINUOUS
10
5.0853
20
-3.35675
11
5.13695
21
-3.35675
0
LINE
8
BLACK
6
CONTINUOUS
10
5.13695
20
-3.35675
11
5.16539
21
-3.3283
0
LINE
8
BLACK
6
CONTINUOUS
10
5.16539
20
-3.3283
11
5.16539
21
-3.32075
0
LINE
8
BLACK
6
CONTINUOUS
10
5.16539
20
-3.32075
11
5.16559
21
-3.32
0
LINE
8
BLACK
6
CONTINUOUS
10
5.16559
20
-3.32
11
5.16559
21
-3.31922
0
LINE
8
BLACK
6
CONTINUOUS
10
5.16559
20
-3.31922
11
5.16598
21
-3.31855
0
LINE
8
BLACK
6
CONTINUOUS
10
5.16598
20
-3.31855
11
5.16618
21
-3.3178
0
LINE
8
BLACK
6
CONTINUOUS
10
5.16618
20
-3.3178
11
5.16673
21
-3.31725
0
LINE
8
BLACK
6
CONTINUOUS
10
5.16673
20
-3.31725
11
5.16712
21
-3.31657
0
LINE
8
BLACK
6
CONTINUOUS
10
5.16712
20
-3.31657
11
5.25539
21
-3.2283
0
LINE
8
BLACK
6
CONTINUOUS
10
5.25539
20
-3.2283
11
5.25539
21
-3.21118
0
LINE
8
BLACK
6
CONTINUOUS
10
5.25539
20
-3.21118
11
5.25204
21
-3.20947
0
LINE
8
BLACK
6
CONTINUOUS
10
5.25204
20
-3.20947
11
5.24856
21
-3.20599
0
LINE
8
BLACK
6
CONTINUOUS
10
5.24856
20
-3.20599
11
5.24632
21
-3.2016
0
LINE
8
BLACK
6
CONTINUOUS
10
5.24632
20
-3.2016
11
5.24555
21
-3.19673
0
LINE
8
BLACK
6
CONTINUOUS
10
5.24555
20
-3.19673
11
5.24632
21
-3.19187
0
LINE
8
BLACK
6
CONTINUOUS
10
5.24632
20
-3.19187
11
5.24856
21
-3.18748
0
LINE
8
BLACK
6
CONTINUOUS
10
5.24856
20
-3.18748
11
5.25204
21
-3.18399
0
LINE
8
BLACK
6
CONTINUOUS
10
5.25204
20
-3.18399
11
5.25643
21
-3.18175
0
LINE
8
BLACK
6
CONTINUOUS
10
5.25643
20
-3.18175
11
5.2613
21
-3.18098
0
LINE
8
BLACK
6
CONTINUOUS
10
5.2613
20
-3.18098
11
5.26617
21
-3.18175
0
LINE
8
BLACK
6
CONTINUOUS
10
5.26217
20
-3.03577
11
5.26656
21
-3.03801
0
LINE
8
BLACK
6
CONTINUOUS
10
5.26656
20
-3.03801
11
5.27004
21
-3.04149
0
LINE
8
BLACK
6
CONTINUOUS
10
5.27004
20
-3.04149
11
5.27228
21
-3.04588
0
LINE
8
BLACK
6
CONTINUOUS
10
5.27228
20
-3.04588
11
5.27305
21
-3.05075
0
LINE
8
BLACK
6
CONTINUOUS
10
5.27305
20
-3.05075
11
5.27228
21
-3.05561
0
LINE
8
BLACK
6
CONTINUOUS
10
5.27228
20
-3.05561
11
5.27074
21
-3.05862
0
LINE
8
BLACK
6
CONTINUOUS
10
5.27074
20
-3.05862
11
5.33888
21
-3.12676
0
LINE
8
BLACK
6
CONTINUOUS
10
5.33888
20
-3.12676
11
5.38367
21
-3.12676
0
LINE
8
BLACK
6
CONTINUOUS
10
5.38367
20
-3.12676
11
5.42446
21
-3.08596
0
LINE
8
BLACK
6
CONTINUOUS
10
5.42446
20
-3.08596
11
5.42474
21
-3.08582
0
LINE
8
BLACK
6
CONTINUOUS
10
5.42474
20
-3.08582
11
5.42493
21
-3.08556
0
LINE
8
BLACK
6
CONTINUOUS
10
5.42493
20
-3.08556
11
5.42581
21
-3.08528
0
LINE
8
BLACK
6
CONTINUOUS
10
5.42581
20
-3.08528
11
5.42663
21
-3.08486
0
LINE
8
BLACK
6
CONTINUOUS
10
5.42663
20
-3.08486
11
5.42694
21
-3.08491
0
LINE
8
BLACK
6
CONTINUOUS
10
5.42694
20
-3.08491
11
5.42725
21
-3.08481
0
LINE
8
BLACK
6
CONTINUOUS
10
5.42725
20
-3.08481
11
5.4553
21
-3.08481
0
LINE
8
BLACK
6
CONTINUOUS
10
5.4553
20
-3.08481
11
5.4572
21
-3.08481
0
LINE
8
BLACK
6
CONTINUOUS
10
5.4572
20
-3.08481
11
5.45751
21
-3.08491
0
LINE
8
BLACK
6
CONTINUOUS
10
5.45751
20
-3.08491
11
5.45782
21
-3.08486
0
LINE
8
BLACK
6
CONTINUOUS
10
5.45782
20
-3.08486
11
5.45864
21
-3.08528
0
LINE
8
BLACK
6
CONTINUOUS
10
5.45864
20
-3.08528
11
5.45952
21
-3.08556
0
LINE
8
BLACK
6
CONTINUOUS
10
5.45952
20
-3.08556
11
5.4597
21
-3.08582
0
LINE
8
BLACK
6
CONTINUOUS
10
5.4597
20
-3.08582
11
5.45999
21
-3.08596
0
LINE
8
BLACK
6
CONTINUOUS
10
5.45999
20
-3.08596
11
5.52975
21
-3.15573
0
LINE
8
BLACK
6
CONTINUOUS
10
5.52975
20
-3.15573
11
5.52989
21
-3.15601
0
LINE
8
BLACK
6
CONTINUOUS
10
5.52989
20
-3.15601
11
5.53015
21
-3.1562
0
LINE
8
BLACK
6
CONTINUOUS
10
5.53015
20
-3.1562
11
5.53044
21
-3.15707
0
LINE
8
BLACK
6
CONTINUOUS
10
5.53044
20
-3.15707
11
5.53086
21
-3.1579
0
LINE
8
BLACK
6
CONTINUOUS
10
5.53086
20
-3.1579
11
5.53081
21
-3.15821
0
LINE
8
BLACK
6
CONTINUOUS
10
5.53081
20
-3.15821
11
5.5309
21
-3.15851
0
LINE
8
BLACK
6
CONTINUOUS
10
5.5309
20
-3.15851
11
5.5309
21
-3.17234
0
LINE
8
BLACK
6
CONTINUOUS
10
5.5309
20
-3.17234
11
5.53183
21
-3.17249
0
LINE
8
BLACK
6
CONTINUOUS
10
5.53183
20
-3.17249
11
5.53622
21
-3.17473
0
LINE
8
BLACK
6
CONTINUOUS
10
5.53622
20
-3.17473
11
5.53971
21
-3.17821
0
LINE
8
BLACK
6
CONTINUOUS
10
5.53971
20
-3.17821
11
5.54194
21
-3.1826
0
LINE
8
BLACK
6
CONTINUOUS
10
5.54194
20
-3.1826
11
5.54271
21
-3.18747
0
LINE
8
BLACK
6
CONTINUOUS
10
5.54271
20
-3.18747
11
5.54194
21
-3.19234
0
LINE
8
BLACK
6
CONTINUOUS
10
5.54194
20
-3.19234
11
5.53971
21
-3.19673
0
LINE
8
BLACK
6
CONTINUOUS
10
5.53971
20
-3.19673
11
5.53622
21
-3.20021
0
LINE
8
BLACK
6
CONTINUOUS
10
5.53622
20
-3.20021
11
5.53183
21
-3.20245
0
LINE
8
BLACK
6
CONTINUOUS
10
5.53183
20
-3.20245
11
5.52697
21
-3.20322
0
LINE
8
BLACK
6
CONTINUOUS
10
5.52697
20
-3.20322
11
5.5221
21
-3.20245
0
LINE
8
BLACK
6
CONTINUOUS
10
5.5221
20
-3.20245
11
5.51771
21
-3.20021
0
LINE
8
BLACK
6
CONTINUOUS
10
5.51771
20
-3.20021
11
5.51423
21
-3.19673
0
LINE
8
BLACK
6
CONTINUOUS
10
5.51423
20
-3.19673
11
5.51199
21
-3.19234
0
LINE
8
BLACK
6
CONTINUOUS
10
5.51199
20
-3.19234
11
5.51122
21
-3.18747
0
LINE
8
BLACK
6
CONTINUOUS
10
5.51122
20
-3.18747
11
5.51199
21
-3.1826
0
LINE
8
BLACK
6
CONTINUOUS
10
5.51199
20
-3.1826
11
5.51423
21
-3.17821
0
LINE
8
BLACK
6
CONTINUOUS
10
5.51423
20
-3.17821
11
5.51771
21
-3.17473
0
LINE
8
BLACK
6
CONTINUOUS
10
5.51771
20
-3.17473
11
5.5221
21
-3.17249
0
LINE
8
BLACK
6
CONTINUOUS
10
5.5221
20
-3.17249
11
5.52303
21
-3.17234
0
LINE
8
BLACK
6
CONTINUOUS
10
5.52303
20
-3.17234
11
5.52303
21
-3.16014
0
LINE
8
BLACK
6
CONTINUOUS
10
5.52303
20
-3.16014
11
5.45557
21
-3.09269
0
LINE
8
BLACK
6
CONTINUOUS
10
5.45557
20
-3.09269
11
5.4553
21
-3.09269
0
LINE
8
BLACK
6
CONTINUOUS
10
5.4553
20
-3.09269
11
5.42888
21
-3.09269
0
LINE
8
BLACK
6
CONTINUOUS
10
5.42888
20
-3.09269
11
5.38808
21
-3.13348
0
LINE
8
BLACK
6
CONTINUOUS
10
5.38808
20
-3.13348
11
5.3878
21
-3.13362
0
LINE
8
BLACK
6
CONTINUOUS
10
5.3878
20
-3.13362
11
5.38761
21
-3.13388
0
LINE
8
BLACK
6
CONTINUOUS
10
5.38761
20
-3.13388
11
5.38674
21
-3.13416
0
LINE
8
BLACK
6
CONTINUOUS
10
5.38674
20
-3.13416
11
5.38592
21
-3.13458
0
LINE
8
BLACK
6
CONTINUOUS
10
5.38592
20
-3.13458
11
5.3856
21
-3.13453
0
LINE
8
BLACK
6
CONTINUOUS
10
5.3856
20
-3.13453
11
5.3853
21
-3.13463
0
LINE
8
BLACK
6
CONTINUOUS
10
5.3853
20
-3.13463
11
5.33725
21
-3.13463
0
LINE
8
BLACK
6
CONTINUOUS
10
5.33725
20
-3.13463
11
5.33694
21
-3.13453
0
LINE
8
BLACK
6
CONTINUOUS
10
5.33694
20
-3.13453
11
5.33663
21
-3.13458
0
LINE
8
BLACK
6
CONTINUOUS
10
5.33663
20
-3.13458
11
5.33581
21
-3.13416
0
LINE
8
BLACK
6
CONTINUOUS
10
5.33581
20
-3.13416
11
5.33493
21
-3.13388
0
LINE
8
BLACK
6
CONTINUOUS
10
5.33493
20
-3.13388
11
5.33474
21
-3.13362
0
LINE
8
BLACK
6
CONTINUOUS
10
5.33474
20
-3.13362
11
5.33446
21
-3.13348
0
LINE
8
BLACK
6
CONTINUOUS
10
5.33446
20
-3.13348
11
5.26518
21
-3.06419
0
LINE
8
BLACK
6
CONTINUOUS
10
5.26518
20
-3.06419
11
5.26217
21
-3.06573
0
LINE
8
BLACK
6
CONTINUOUS
10
5.26217
20
-3.06573
11
5.2573
21
-3.0665
0
LINE
8
BLACK
6
CONTINUOUS
10
5.2573
20
-3.0665
11
5.25243
21
-3.06573
0
LINE
8
BLACK
6
CONTINUOUS
10
5.25243
20
-3.06573
11
5.24804
21
-3.06349
0
LINE
8
BLACK
6
CONTINUOUS
10
5.24804
20
-3.06349
11
5.24456
21
-3.06
0
LINE
8
BLACK
6
CONTINUOUS
10
5.24456
20
-3.06
11
5.24232
21
-3.05561
0
LINE
8
BLACK
6
CONTINUOUS
10
5.24232
20
-3.05561
11
5.24155
21
-3.05075
0
LINE
8
BLACK
6
CONTINUOUS
10
5.24155
20
-3.05075
11
5.24232
21
-3.04588
0
LINE
8
BLACK
6
CONTINUOUS
10
5.24232
20
-3.04588
11
5.24456
21
-3.04149
0
LINE
8
BLACK
6
CONTINUOUS
10
5.24456
20
-3.04149
11
5.24804
21
-3.03801
0
LINE
8
BLACK
6
CONTINUOUS
10
5.24804
20
-3.03801
11
5.25243
21
-3.03577
0
LINE
8
BLACK
6
CONTINUOUS
10
5.25243
20
-3.03577
11
5.2573
21
-3.035
0
LINE
8
BLACK
6
CONTINUOUS
10
5.2573
20
-3.035
11
5.26217
21
-3.03577
0
LINE
8
BLACK
6
CONTINUOUS
10
5.09417
20
-3.07577
11
5.09856
21
-3.07801
0
LINE
8
BLACK
6
CONTINUOUS
10
5.09856
20
-3.07801
11
5.10204
21
-3.08149
0
LINE
8
BLACK
6
CONTINUOUS
10
5.10204
20
-3.08149
11
5.10428
21
-3.08588
0
LINE
8
BLACK
6
CONTINUOUS
10
5.10428
20
-3.08588
11
5.10505
21
-3.09075
0
LINE
8
BLACK
6
CONTINUOUS
10
5.10505
20
-3.09075
11
5.10428
21
-3.09561
0
LINE
8
BLACK
6
CONTINUOUS
10
5.10428
20
-3.09561
11
5.10274
21
-3.09862
0
LINE
8
BLACK
6
CONTINUOUS
10
5.10274
20
-3.09862
11
5.16233
21
-3.15822
0
LINE
8
BLACK
6
CONTINUOUS
10
5.16233
20
-3.15822
11
5.41879
21
-3.15822
0
LINE
8
BLACK
6
CONTINUOUS
10
5.41879
20
-3.15822
11
5.41868
21
-3.15748
0
LINE
8
BLACK
6
CONTINUOUS
10
5.41868
20
-3.15748
11
5.41945
21
-3.15261
0
LINE
8
BLACK
6
CONTINUOUS
10
5.41945
20
-3.15261
11
5.42168
21
-3.14822
0
LINE
8
BLACK
6
CONTINUOUS
10
5.42168
20
-3.14822
11
5.42517
21
-3.14474
0
LINE
8
BLACK
6
CONTINUOUS
10
5.42517
20
-3.14474
11
5.42956
21
-3.1425
0
LINE
8
BLACK
6
CONTINUOUS
10
5.42956
20
-3.1425
11
5.43442
21
-3.14173
0
LINE
8
BLACK
6
CONTINUOUS
10
5.43442
20
-3.14173
11
5.43929
21
-3.1425
0
LINE
8
BLACK
6
CONTINUOUS
10
5.43929
20
-3.1425
11
5.44368
21
-3.14474
0
LINE
8
BLACK
6
CONTINUOUS
10
5.44368
20
-3.14474
11
5.44716
21
-3.14822
0
LINE
8
BLACK
6
CONTINUOUS
10
5.44716
20
-3.14822
11
5.4494
21
-3.15261
0
LINE
8
BLACK
6
CONTINUOUS
10
5.4494
20
-3.15261
11
5.45017
21
-3.15748
0
LINE
8
BLACK
6
CONTINUOUS
10
5.45017
20
-3.15748
11
5.4494
21
-3.16235
0
LINE
8
BLACK
6
CONTINUOUS
10
5.4494
20
-3.16235
11
5.44716
21
-3.16674
0
LINE
8
BLACK
6
CONTINUOUS
10
5.44716
20
-3.16674
11
5.44368
21
-3.17022
0
LINE
8
BLACK
6
CONTINUOUS
10
5.44368
20
-3.17022
11
5.43929
21
-3.17246
0
LINE
8
BLACK
6
CONTINUOUS
10
5.43929
20
-3.17246
11
5.43442
21
-3.17323
0
LINE
8
BLACK
6
CONTINUOUS
10
5.43442
20
-3.17323
11
5.42956
21
-3.17246
0
LINE
8
BLACK
6
CONTINUOUS
10
5.42956
20
-3.17246
11
5.42517
21
-3.17022
0
LINE
8
BLACK
6
CONTINUOUS
10
5.42517
20
-3.17022
11
5.42168
21
-3.16674
0
LINE
8
BLACK
6
CONTINUOUS
10
5.42168
20
-3.16674
11
5.42135
21
-3.16609
0
LINE
8
BLACK
6
CONTINUOUS
10
5.42135
20
-3.16609
11
5.1607
21
-3.16609
0
LINE
8
BLACK
6
CONTINUOUS
10
5.1607
20
-3.16609
11
5.1604
21
-3.16599
0
LINE
8
BLACK
6
CONTINUOUS
10
5.1604
20
-3.16599
11
5.16009
21
-3.16604
0
LINE
8
BLACK
6
CONTINUOUS
10
5.16009
20
-3.16604
11
5.15927
21
-3.16562
0
LINE
8
BLACK
6
CONTINUOUS
10
5.15927
20
-3.16562
11
5.15839
21
-3.16534
0
LINE
8
BLACK
6
CONTINUOUS
10
5.15839
20
-3.16534
11
5.1582
21
-3.16508
0
LINE
8
BLACK
6
CONTINUOUS
10
5.1582
20
-3.16508
11
5.15792
21
-3.16494
0
LINE
8
BLACK
6
CONTINUOUS
10
5.15792
20
-3.16494
11
5.09718
21
-3.10419
0
LINE
8
BLACK
6
CONTINUOUS
10
5.09718
20
-3.10419
11
5.09417
21
-3.10573
0
LINE
8
BLACK
6
CONTINUOUS
10
5.09417
20
-3.10573
11
5.0893
21
-3.1065
0
LINE
8
BLACK
6
CONTINUOUS
10
5.0893
20
-3.1065
11
5.08443
21
-3.10573
0
LINE
8
BLACK
6
CONTINUOUS
10
5.08443
20
-3.10573
11
5.08004
21
-3.10349
0
LINE
8
BLACK
6
CONTINUOUS
10
5.08004
20
-3.10349
11
5.07656
21
-3.1
0
LINE
8
BLACK
6
CONTINUOUS
10
5.07656
20
-3.1
11
5.07432
21
-3.09561
0
LINE
8
BLACK
6
CONTINUOUS
10
5.07432
20
-3.09561
11
5.07355
21
-3.09075
0
LINE
8
BLACK
6
CONTINUOUS
10
5.07355
20
-3.09075
11
5.07432
21
-3.08588
0
LINE
8
BLACK
6
CONTINUOUS
10
5.07432
20
-3.08588
11
5.07656
21
-3.08149
0
LINE
8
BLACK
6
CONTINUOUS
10
5.07656
20
-3.08149
11
5.08004
21
-3.07801
0
LINE
8
BLACK
6
CONTINUOUS
10
5.08004
20
-3.07801
11
5.08443
21
-3.07577
0
LINE
8
BLACK
6
CONTINUOUS
10
5.08443
20
-3.07577
11
5.0893
21
-3.075
0
LINE
8
BLACK
6
CONTINUOUS
10
5.0893
20
-3.075
11
5.09417
21
-3.07577
0
LINE
8
BLACK
6
CONTINUOUS
10
5.16817
20
-3.07577
11
5.17256
21
-3.07801
0
LINE
8
BLACK
6
CONTINUOUS
10
5.17256
20
-3.07801
11
5.17604
21
-3.08149
0
LINE
8
BLACK
6
CONTINUOUS
10
5.17604
20
-3.08149
11
5.17828
21
-3.08588
0
LINE
8
BLACK
6
CONTINUOUS
10
5.17828
20
-3.08588
11
5.17905
21
-3.09075
0
LINE
8
BLACK
6
CONTINUOUS
10
5.17905
20
-3.09075
11
5.17828
21
-3.09561
0
LINE
8
BLACK
6
CONTINUOUS
10
5.17828
20
-3.09561
11
5.17674
21
-3.09862
0
LINE
8
BLACK
6
CONTINUOUS
10
5.17674
20
-3.09862
11
5.22061
21
-3.14249
0
LINE
8
BLACK
6
CONTINUOUS
10
5.22061
20
-3.14249
11
5.39367
21
-3.14249
0
LINE
8
BLACK
6
CONTINUOUS
10
5.39367
20
-3.14249
11
5.41688
21
-3.11928
0
LINE
8
BLACK
6
CONTINUOUS
10
5.41688
20
-3.11928
11
5.41716
21
-3.11913
0
LINE
8
BLACK
6
CONTINUOUS
10
5.41716
20
-3.11913
11
5.41735
21
-3.11888
0
LINE
8
BLACK
6
CONTINUOUS
10
5.41735
20
-3.11888
11
5.41822
21
-3.11859
0
LINE
8
BLACK
6
CONTINUOUS
10
5.41822
20
-3.11859
11
5.41905
21
-3.11817
0
LINE
8
BLACK
6
CONTINUOUS
10
5.41905
20
-3.11817
11
5.41936
21
-3.11822
0
LINE
8
BLACK
6
CONTINUOUS
10
5.41936
20
-3.11822
11
5.41966
21
-3.11812
0
LINE
8
BLACK
6
CONTINUOUS
10
5.41966
20
-3.11812
11
5.43644
21
-3.11812
0
LINE
8
BLACK
6
CONTINUOUS
10
5.43644
20
-3.11812
11
5.43659
21
-3.11719
0
LINE
8
BLACK
6
CONTINUOUS
10
5.43659
20
-3.11719
11
5.43883
21
-3.1128
0
LINE
8
BLACK
6
CONTINUOUS
10
5.43883
20
-3.1128
11
5.44231
21
-3.10932
0
LINE
8
BLACK
6
CONTINUOUS
10
5.44231
20
-3.10932
11
5.4467
21
-3.10708
0
LINE
8
BLACK
6
CONTINUOUS
10
5.4467
20
-3.10708
11
5.45157
21
-3.10631
0
LINE
8
BLACK
6
CONTINUOUS
10
5.45157
20
-3.10631
11
5.45643
21
-3.10708
0
LINE
8
BLACK
6
CONTINUOUS
10
5.45643
20
-3.10708
11
5.46082
21
-3.10932
0
LINE
8
BLACK
6
CONTINUOUS
10
5.46082
20
-3.10932
11
5.46431
21
-3.1128
0
LINE
8
BLACK
6
CONTINUOUS
10
5.46431
20
-3.1128
11
5.46655
21
-3.11719
0
LINE
8
BLACK
6
CONTINUOUS
10
5.46655
20
-3.11719
11
5.46732
21
-3.12206
0
LINE
8
BLACK
6
CONTINUOUS
10
5.46732
20
-3.12206
11
5.46655
21
-3.12693
0
LINE
8
BLACK
6
CONTINUOUS
10
5.46655
20
-3.12693
11
5.46431
21
-3.13132
0
LINE
8
BLACK
6
CONTINUOUS
10
5.46431
20
-3.13132
11
5.46082
21
-3.1348
0
LINE
8
BLACK
6
CONTINUOUS
10
5.46082
20
-3.1348
11
5.45643
21
-3.13704
0
LINE
8
BLACK
6
CONTINUOUS
10
5.45643
20
-3.13704
11
5.45157
21
-3.13781
0
LINE
8
BLACK
6
CONTINUOUS
10
5.45157
20
-3.13781
11
5.4467
21
-3.13704
0
LINE
8
BLACK
6
CONTINUOUS
10
5.4467
20
-3.13704
11
5.44231
21
-3.1348
0
LINE
8
BLACK
6
CONTINUOUS
10
5.44231
20
-3.1348
11
5.43883
21
-3.13132
0
LINE
8
BLACK
6
CONTINUOUS
10
5.43883
20
-3.13132
11
5.43659
21
-3.12693
0
LINE
8
BLACK
6
CONTINUOUS
10
5.43659
20
-3.12693
11
5.43644
21
-3.126
0
LINE
8
BLACK
6
CONTINUOUS
10
5.43644
20
-3.126
11
5.42129
21
-3.126
0
LINE
8
BLACK
6
CONTINUOUS
10
5.42129
20
-3.126
11
5.39808
21
-3.14921
0
LINE
8
BLACK
6
CONTINUOUS
10
5.39808
20
-3.14921
11
5.3978
21
-3.14935
0
LINE
8
BLACK
6
CONTINUOUS
10
5.3978
20
-3.14935
11
5.39761
21
-3.14961
0
LINE
8
BLACK
6
CONTINUOUS
10
5.39761
20
-3.14961
11
5.39674
21
-3.14989
0
LINE
8
BLACK
6
CONTINUOUS
10
5.39674
20
-3.14989
11
5.39592
21
-3.15031
0
LINE
8
BLACK
6
CONTINUOUS
10
5.39592
20
-3.15031
11
5.3956
21
-3.15026
0
LINE
8
BLACK
6
CONTINUOUS
10
5.3956
20
-3.15026
11
5.3953
21
-3.15036
0
LINE
8
BLACK
6
CONTINUOUS
10
5.3953
20
-3.15036
11
5.21897
21
-3.15036
0
LINE
8
BLACK
6
CONTINUOUS
10
5.21897
20
-3.15036
11
5.21867
21
-3.15026
0
LINE
8
BLACK
6
CONTINUOUS
10
5.21867
20
-3.15026
11
5.21836
21
-3.15031
0
LINE
8
BLACK
6
CONTINUOUS
10
5.21836
20
-3.15031
11
5.21754
21
-3.14989
0
LINE
8
BLACK
6
CONTINUOUS
10
5.21754
20
-3.14989
11
5.21666
21
-3.14961
0
LINE
8
BLACK
6
CONTINUOUS
10
5.21666
20
-3.14961
11
5.21647
21
-3.14935
0
LINE
8
BLACK
6
CONTINUOUS
10
5.21647
20
-3.14935
11
5.21619
21
-3.14921
0
LINE
8
BLACK
6
CONTINUOUS
10
5.21619
20
-3.14921
11
5.17118
21
-3.10419
0
LINE
8
BLACK
6
CONTINUOUS
10
5.17118
20
-3.10419
11
5.16817
21
-3.10573
0
LINE
8
BLACK
6
CONTINUOUS
10
5.16817
20
-3.10573
11
5.1633
21
-3.1065
0
LINE
8
BLACK
6
CONTINUOUS
10
5.1633
20
-3.1065
11
5.15843
21
-3.10573
0
LINE
8
BLACK
6
CONTINUOUS
10
5.15843
20
-3.10573
11
5.15404
21
-3.10349
0
LINE
8
BLACK
6
CONTINUOUS
10
5.15404
20
-3.10349
11
5.15056
21
-3.1
0
LINE
8
BLACK
6
CONTINUOUS
10
5.15056
20
-3.1
11
5.14832
21
-3.09561
0
LINE
8
BLACK
6
CONTINUOUS
10
5.14832
20
-3.09561
11
5.14755
21
-3.09075
0
LINE
8
BLACK
6
CONTINUOUS
10
5.14755
20
-3.09075
11
5.14832
21
-3.08588
0
LINE
8
BLACK
6
CONTINUOUS
10
5.14832
20
-3.08588
11
5.15056
21
-3.08149
0
LINE
8
BLACK
6
CONTINUOUS
10
5.15056
20
-3.08149
11
5.15404
21
-3.07801
0
LINE
8
BLACK
6
CONTINUOUS
10
5.15404
20
-3.07801
11
5.15843
21
-3.07577
0
LINE
8
BLACK
6
CONTINUOUS
10
5.15843
20
-3.07577
11
5.1633
21
-3.075
0
LINE
8
BLACK
6
CONTINUOUS
10
5.1633
20
-3.075
11
5.16817
21
-3.07577
0
LINE
8
BLACK
6
CONTINUOUS
10
6.89033
20
-2.96614
11
6.89139
21
-2.96798
0
LINE
8
BLACK
6
CONTINUOUS
10
6.89139
20
-2.96798
11
6.89144
21
-2.96852
0
LINE
8
BLACK
6
CONTINUOUS
10
6.89144
20
-2.96852
11
6.89144
21
-3.1286
0
LINE
8
BLACK
6
CONTINUOUS
10
6.89144
20
-3.1286
11
6.89071
21
-3.1306
0
LINE
8
BLACK
6
CONTINUOUS
10
6.89071
20
-3.1306
11
6.88887
21
-3.13167
0
LINE
8
BLACK
6
CONTINUOUS
10
6.88887
20
-3.13167
11
6.88833
21
-3.13171
0
LINE
8
BLACK
6
CONTINUOUS
10
6.88833
20
-3.13171
11
6.65475
21
-3.13171
0
LINE
8
BLACK
6
CONTINUOUS
10
6.65475
20
-3.13171
11
6.65427
21
-3.13167
0
LINE
8
BLACK
6
CONTINUOUS
10
6.65427
20
-3.13167
11
6.6539
21
-3.13162
0
LINE
8
BLACK
6
CONTINUOUS
10
6.6539
20
-3.13162
11
6.65327
21
-3.13152
0
LINE
8
BLACK
6
CONTINUOUS
10
6.65327
20
-3.13152
11
6.65327
21
-3.13152
0
LINE
8
BLACK
6
CONTINUOUS
10
6.65327
20
-3.13152
11
6.65203
21
-3.13171
0
LINE
8
BLACK
6
CONTINUOUS
10
6.65203
20
-3.13171
11
6.64833
21
-3.1323
0
LINE
8
BLACK
6
CONTINUOUS
10
6.64833
20
-3.1323
11
6.64833
21
-3.1323
0
LINE
8
BLACK
6
CONTINUOUS
10
6.64833
20
-3.1323
11
6.64388
21
-3.13456
0
LINE
8
BLACK
6
CONTINUOUS
10
6.64388
20
-3.13456
11
6.64388
21
-3.13456
0
LINE
8
BLACK
6
CONTINUOUS
10
6.64388
20
-3.13456
11
6.64035
21
-3.1381
0
LINE
8
BLACK
6
CONTINUOUS
10
6.64035
20
-3.1381
11
6.64035
21
-3.1381
0
LINE
8
BLACK
6
CONTINUOUS
10
6.64035
20
-3.1381
11
6.63808
21
-3.14255
0
LINE
8
BLACK
6
CONTINUOUS
10
6.63808
20
-3.14255
11
6.63808
21
-3.14255
0
LINE
8
BLACK
6
CONTINUOUS
10
6.63808
20
-3.14255
11
6.6373
21
-3.14748
0
LINE
8
BLACK
6
CONTINUOUS
10
6.6373
20
-3.14748
11
6.6373
21
-3.14748
0
LINE
8
BLACK
6
CONTINUOUS
10
6.6373
20
-3.14748
11
6.63746
21
-3.14848
0
LINE
8
BLACK
6
CONTINUOUS
10
6.63746
20
-3.14848
11
6.6375
21
-3.14897
0
LINE
8
BLACK
6
CONTINUOUS
10
6.6375
20
-3.14897
11
6.6375
21
-3.34088
0
LINE
8
BLACK
6
CONTINUOUS
10
6.6375
20
-3.34088
11
6.63746
21
-3.34136
0
LINE
8
BLACK
6
CONTINUOUS
10
6.63746
20
-3.34136
11
6.6373
21
-3.34236
0
LINE
8
BLACK
6
CONTINUOUS
10
6.6373
20
-3.34236
11
6.63749
21
-3.34352
0
LINE
8
BLACK
6
CONTINUOUS
10
6.63749
20
-3.34352
11
6.63749
21
-3.34352
0
LINE
8
BLACK
6
CONTINUOUS
10
6.63749
20
-3.34352
11
6.63808
21
-3.3473
0
LINE
8
BLACK
6
CONTINUOUS
10
6.63808
20
-3.3473
11
6.63808
21
-3.3473
0
LINE
8
BLACK
6
CONTINUOUS
10
6.63808
20
-3.3473
11
6.64035
21
-3.35175
0
LINE
8
BLACK
6
CONTINUOUS
10
6.64035
20
-3.35175
11
6.64035
21
-3.35175
0
LINE
8
BLACK
6
CONTINUOUS
10
6.64035
20
-3.35175
11
6.64388
21
-3.35528
0
LINE
8
BLACK
6
CONTINUOUS
10
6.64388
20
-3.35528
11
6.64388
21
-3.35528
0
LINE
8
BLACK
6
CONTINUOUS
10
6.64388
20
-3.35528
11
6.64833
21
-3.35755
0
LINE
8
BLACK
6
CONTINUOUS
10
6.64833
20
-3.35755
11
6.64833
21
-3.35755
0
LINE
8
BLACK
6
CONTINUOUS
10
6.64833
20
-3.35755
11
6.64833
21
-3.35755
0
LINE
8
BLACK
6
CONTINUOUS
10
6.64833
20
-3.35755
11
6.64998
21
-3.35781
0
LINE
8
BLACK
6
CONTINUOUS
10
6.64998
20
-3.35781
11
6.65327
21
-3.35833
0
LINE
8
BLACK
6
CONTINUOUS
10
6.65327
20
-3.35833
11
6.65327
21
-3.35833
0
LINE
8
BLACK
6
CONTINUOUS
10
6.65327
20
-3.35833
11
6.65327
21
-3.35833
0
LINE
8
BLACK
6
CONTINUOUS
10
6.65327
20
-3.35833
11
6.6539
21
-3.35823
0
LINE
8
BLACK
6
CONTINUOUS
10
6.6539
20
-3.35823
11
6.65427
21
-3.35817
0
LINE
8
BLACK
6
CONTINUOUS
10
6.65427
20
-3.35817
11
6.65475
21
-3.35813
0
LINE
8
BLACK
6
CONTINUOUS
10
6.65475
20
-3.35813
11
6.88833
21
-3.35813
0
LINE
8
BLACK
6
CONTINUOUS
10
6.88833
20
-3.35813
11
6.89033
21
-3.35886
0
LINE
8
BLACK
6
CONTINUOUS
10
6.89033
20
-3.35886
11
6.89139
21
-3.3607
0
LINE
8
BLACK
6
CONTINUOUS
10
6.89139
20
-3.3607
11
6.89144
21
-3.36124
0
LINE
8
BLACK
6
CONTINUOUS
10
6.89144
20
-3.36124
11
6.89144
21
-3.71915
0
LINE
8
BLACK
6
CONTINUOUS
10
6.89144
20
-3.71915
11
6.89071
21
-3.72115
0
LINE
8
BLACK
6
CONTINUOUS
10
6.89071
20
-3.72115
11
6.88887
21
-3.72222
0
LINE
8
BLACK
6
CONTINUOUS
10
6.88887
20
-3.72222
11
6.88833
21
-3.72226
0
LINE
8
BLACK
6
CONTINUOUS
10
6.88833
20
-3.72226
11
6.65475
21
-3.72226
0
LINE
8
BLACK
6
CONTINUOUS
10
6.65475
20
-3.72226
11
6.65427
21
-3.72223
0
LINE
8
BLACK
6
CONTINUOUS
10
6.65427
20
-3.72223
11
6.6539
21
-3.72217
0
LINE
8
BLACK
6
CONTINUOUS
10
6.6539
20
-3.72217
11
6.65327
21
-3.72207
0
LINE
8
BLACK
6
CONTINUOUS
10
6.65327
20
-3.72207
11
6.65327
21
-3.72207
0
LINE
8
BLACK
6
CONTINUOUS
10
6.65327
20
-3.72207
11
6.65203
21
-3.72226
0
LINE
8
BLACK
6
CONTINUOUS
10
6.65203
20
-3.72226
11
6.64833
21
-3.72285
0
LINE
8
BLACK
6
CONTINUOUS
10
6.64833
20
-3.72285
11
6.64833
21
-3.72285
0
LINE
8
BLACK
6
CONTINUOUS
10
6.64833
20
-3.72285
11
6.64388
21
-3.72512
0
LINE
8
BLACK
6
CONTINUOUS
10
6.64388
20
-3.72512
11
6.64388
21
-3.72512
0
LINE
8
BLACK
6
CONTINUOUS
10
6.64388
20
-3.72512
11
6.64035
21
-3.72865
0
LINE
8
BLACK
6
CONTINUOUS
10
6.64035
20
-3.72865
11
6.64035
21
-3.72865
0
LINE
8
BLACK
6
CONTINUOUS
10
6.64035
20
-3.72865
11
6.63808
21
-3.7331
0
LINE
8
BLACK
6
CONTINUOUS
10
6.63808
20
-3.7331
11
6.63808
21
-3.7331
0
LINE
8
BLACK
6
CONTINUOUS
10
6.63808
20
-3.7331
11
6.6373
21
-3.73803
0
LINE
8
BLACK
6
CONTINUOUS
10
6.6373
20
-3.73803
11
6.6373
21
-3.73803
0
LINE
8
BLACK
6
CONTINUOUS
10
6.6373
20
-3.73803
11
6.63746
21
-3.73903
0
LINE
8
BLACK
6
CONTINUOUS
10
6.63746
20
-3.73903
11
6.6375
21
-3.73952
0
LINE
8
BLACK
6
CONTINUOUS
10
6.6375
20
-3.73952
11
6.6375
21
-3.93143
0
LINE
8
BLACK
6
CONTINUOUS
10
6.6375
20
-3.93143
11
6.63746
21
-3.93191
0
LINE
8
BLACK
6
CONTINUOUS
10
6.63746
20
-3.93191
11
6.6373
21
-3.93291
0
LINE
8
BLACK
6
CONTINUOUS
10
6.6373
20
-3.93291
11
6.63749
21
-3.93407
0
LINE
8
BLACK
6
CONTINUOUS
10
6.63749
20
-3.93407
11
6.63749
21
-3.93407
0
LINE
8
BLACK
6
CONTINUOUS
10
6.63749
20
-3.93407
11
6.63808
21
-3.93785
0
LINE
8
BLACK
6
CONTINUOUS
10
6.63808
20
-3.93785
11
6.63808
21
-3.93785
0
LINE
8
BLACK
6
CONTINUOUS
10
6.63808
20
-3.93785
11
6.64035
21
-3.9423
0
LINE
8
BLACK
6
CONTINUOUS
10
6.64035
20
-3.9423
11
6.64035
21
-3.9423
0
LINE
8
BLACK
6
CONTINUOUS
10
6.64035
20
-3.9423
11
6.64388
21
-3.94583
0
LINE
8
BLACK
6
CONTINUOUS
10
6.64388
20
-3.94583
11
6.64388
21
-3.94583
0
LINE
8
BLACK
6
CONTINUOUS
10
6.64388
20
-3.94583
11
6.64833
21
-3.9481
0
LINE
8
BLACK
6
CONTINUOUS
10
6.64833
20
-3.9481
11
6.64833
21
-3.9481
0
LINE
8
BLACK
6
CONTINUOUS
10
6.64833
20
-3.9481
11
6.64833
21
-3.9481
0
LINE
8
BLACK
6
CONTINUOUS
10
6.64833
20
-3.9481
11
6.64998
21
-3.94836
0
LINE
8
BLACK
6
CONTINUOUS
10
6.64998
20
-3.94836
11
6.65327
21
-3.94888
0
LINE
8
BLACK
6
CONTINUOUS
10
6.65327
20
-3.94888
11
6.65327
21
-3.94888
0
LINE
8
BLACK
6
CONTINUOUS
10
6.65327
20
-3.94888
11
6.65327
21
-3.94888
0
LINE
8
BLACK
6
CONTINUOUS
10
6.65327
20
-3.94888
11
6.6539
21
-3.94878
0
LINE
8
BLACK
6
CONTINUOUS
10
6.6539
20
-3.94878
11
6.65427
21
-3.94872
0
LINE
8
BLACK
6
CONTINUOUS
10
6.65427
20
-3.94872
11
6.65475
21
-3.94868
0
LINE
8
BLACK
6
CONTINUOUS
10
6.65475
20
-3.94868
11
6.88833
21
-3.94868
0
LINE
8
BLACK
6
CONTINUOUS
10
6.88833
20
-3.94868
11
6.89033
21
-3.94941
0
LINE
8
BLACK
6
CONTINUOUS
10
6.89033
20
-3.94941
11
6.89139
21
-3.95125
0
LINE
8
BLACK
6
CONTINUOUS
10
6.89139
20
-3.95125
11
6.89144
21
-3.95179
0
LINE
8
BLACK
6
CONTINUOUS
10
6.89144
20
-3.95179
11
6.89144
21
-4.11187
0
LINE
8
BLACK
6
CONTINUOUS
10
6.89144
20
-4.11187
11
6.89071
21
-4.11387
0
LINE
8
BLACK
6
CONTINUOUS
10
6.89071
20
-4.11387
11
6.88887
21
-4.11493
0
LINE
8
BLACK
6
CONTINUOUS
10
6.88887
20
-4.11493
11
6.88833
21
-4.11498
0
LINE
8
BLACK
6
CONTINUOUS
10
6.88833
20
-4.11498
11
4.95758
21
-4.11498
0
LINE
8
BLACK
6
CONTINUOUS
10
4.95758
20
-4.11498
11
4.95558
21
-4.11425
0
LINE
8
BLACK
6
CONTINUOUS
10
4.95558
20
-4.11425
11
4.95452
21
-4.11241
0
LINE
8
BLACK
6
CONTINUOUS
10
4.95452
20
-4.11241
11
4.95447
21
-4.11187
0
LINE
8
BLACK
6
CONTINUOUS
10
4.95447
20
-4.11187
11
4.95447
21
-3.51753
0
LINE
8
BLACK
6
CONTINUOUS
10
4.95447
20
-3.51753
11
4.95447
21
-3.41753
0
LINE
8
BLACK
6
CONTINUOUS
10
4.95447
20
-3.41753
11
4.95447
21
-3.09075
0
LINE
8
BLACK
6
CONTINUOUS
10
4.95447
20
-3.09075
11
4.95447
21
-2.96852
0
LINE
8
BLACK
6
CONTINUOUS
10
4.95447
20
-2.96852
11
4.9552
21
-2.96652
0
LINE
8
BLACK
6
CONTINUOUS
10
4.9552
20
-2.96652
11
4.95704
21
-2.96546
0
LINE
8
BLACK
6
CONTINUOUS
10
4.95704
20
-2.96546
11
4.95758
21
-2.96541
0
LINE
8
BLACK
6
CONTINUOUS
10
4.95758
20
-2.96541
11
6.88833
21
-2.96541
0
LINE
8
BLACK
6
CONTINUOUS
10
6.88833
20
-2.96541
11
6.89033
21
-2.96614
0
LINE
8
BLACK
6
CONTINUOUS
10
5.0453
20
-3.50561
11
5.06687
21
-3.52718
0
LINE
8
BLACK
6
CONTINUOUS
10
5.06687
20
-3.52718
11
5.06757
21
-3.5283
0
LINE
8
BLACK
6
CONTINUOUS
10
5.06757
20
-3.5283
11
5.06839
21
-3.52933
0
LINE
8
BLACK
6
CONTINUOUS
10
5.06839
20
-3.52933
11
5.06849
21
-3.52977
0
LINE
8
BLACK
6
CONTINUOUS
10
5.06849
20
-3.52977
11
5.06873
21
-3.53015
0
LINE
8
BLACK
6
CONTINUOUS
10
5.06873
20
-3.53015
11
5.06888
21
-3.53146
0
LINE
8
BLACK
6
CONTINUOUS
10
5.06888
20
-3.53146
11
5.06917
21
-3.53275
0
LINE
8
BLACK
6
CONTINUOUS
10
5.06917
20
-3.53275
11
5.06917
21
-3.94063
0
LINE
8
BLACK
6
CONTINUOUS
10
5.06917
20
-3.94063
11
5.07004
21
-3.94149
0
LINE
8
BLACK
6
CONTINUOUS
10
5.07004
20
-3.94149
11
5.07228
21
-3.94588
0
LINE
8
BLACK
6
CONTINUOUS
10
5.07228
20
-3.94588
11
5.07305
21
-3.95075
0
LINE
8
BLACK
6
CONTINUOUS
10
5.07305
20
-3.95075
11
5.07228
21
-3.95561
0
LINE
8
BLACK
6
CONTINUOUS
10
5.07228
20
-3.95561
11
5.07004
21
-3.96
0
LINE
8
BLACK
6
CONTINUOUS
10
5.07004
20
-3.96
11
5.06656
21
-3.96349
0
LINE
8
BLACK
6
CONTINUOUS
10
5.06656
20
-3.96349
11
5.06217
21
-3.96573
0
LINE
8
BLACK
6
CONTINUOUS
10
5.06217
20
-3.96573
11
5.0573
21
-3.9665
0
LINE
8
BLACK
6
CONTINUOUS
10
5.0573
20
-3.9665
11
5.05243
21
-3.96573
0
LINE
8
BLACK
6
CONTINUOUS
10
5.05243
20
-3.96573
11
5.04804
21
-3.96349
0
LINE
8
BLACK
6
CONTINUOUS
10
5.04804
20
-3.96349
11
5.04456
21
-3.96
0
LINE
8
BLACK
6
CONTINUOUS
10
5.04456
20
-3.96
11
5.04232
21
-3.95561
0
LINE
8
BLACK
6
CONTINUOUS
10
5.04232
20
-3.95561
11
5.04155
21
-3.95075
0
LINE
8
BLACK
6
CONTINUOUS
10
5.04155
20
-3.95075
11
5.04232
21
-3.94588
0
LINE
8
BLACK
6
CONTINUOUS
10
5.04232
20
-3.94588
11
5.04456
21
-3.94149
0
LINE
8
BLACK
6
CONTINUOUS
10
5.04456
20
-3.94149
11
5.04804
21
-3.93801
0
LINE
8
BLACK
6
CONTINUOUS
10
5.04804
20
-3.93801
11
5.05243
21
-3.93577
0
LINE
8
BLACK
6
CONTINUOUS
10
5.05243
20
-3.93577
11
5.05343
21
-3.93561
0
LINE
8
BLACK
6
CONTINUOUS
10
5.05343
20
-3.93561
11
5.05343
21
-3.53601
0
LINE
8
BLACK
6
CONTINUOUS
10
5.05343
20
-3.53601
11
5.03416
21
-3.51675
0
LINE
8
BLACK
6
CONTINUOUS
10
5.03416
20
-3.51675
11
4.9853
21
-3.51675
0
LINE
8
BLACK
6
CONTINUOUS
10
4.9853
20
-3.51675
11
4.9853
21
-3.45675
0
LINE
8
BLACK
6
CONTINUOUS
10
4.9853
20
-3.45675
11
5.0453
21
-3.45675
0
LINE
8
BLACK
6
CONTINUOUS
10
5.0453
20
-3.45675
11
5.0453
21
-3.50561
0
LINE
8
BLACK
6
CONTINUOUS
10
5.5071
20
-3.47337
11
5.51149
21
-3.47561
0
LINE
8
BLACK
6
CONTINUOUS
10
5.51149
20
-3.47561
11
5.51497
21
-3.47909
0
LINE
8
BLACK
6
CONTINUOUS
10
5.51497
20
-3.47909
11
5.51721
21
-3.48348
0
LINE
8
BLACK
6
CONTINUOUS
10
5.51721
20
-3.48348
11
5.51798
21
-3.48835
0
LINE
8
BLACK
6
CONTINUOUS
10
5.51798
20
-3.48835
11
5.51721
21
-3.49321
0
LINE
8
BLACK
6
CONTINUOUS
10
5.51721
20
-3.49321
11
5.51497
21
-3.4976
0
LINE
8
BLACK
6
CONTINUOUS
10
5.51497
20
-3.4976
11
5.51455
21
-3.49802
0
LINE
8
BLACK
6
CONTINUOUS
10
5.51455
20
-3.49802
11
5.51455
21
-3.73037
0
LINE
8
BLACK
6
CONTINUOUS
10
5.51455
20
-3.73037
11
5.51426
21
-3.73166
0
LINE
8
BLACK
6
CONTINUOUS
10
5.51426
20
-3.73166
11
5.51411
21
-3.73297
0
LINE
8
BLACK
6
CONTINUOUS
10
5.51411
20
-3.73297
11
5.51387
21
-3.73335
0
LINE
8
BLACK
6
CONTINUOUS
10
5.51387
20
-3.73335
11
5.51377
21
-3.73378
0
LINE
8
BLACK
6
CONTINUOUS
10
5.51377
20
-3.73378
11
5.51295
21
-3.73482
0
LINE
8
BLACK
6
CONTINUOUS
10
5.51295
20
-3.73482
11
5.51225
21
-3.73594
0
LINE
8
BLACK
6
CONTINUOUS
10
5.51225
20
-3.73594
11
5.42642
21
-3.82177
0
LINE
8
BLACK
6
CONTINUOUS
10
5.42642
20
-3.82177
11
5.42705
21
-3.82575
0
LINE
8
BLACK
6
CONTINUOUS
10
5.42705
20
-3.82575
11
5.42628
21
-3.83061
0
LINE
8
BLACK
6
CONTINUOUS
10
5.42628
20
-3.83061
11
5.42404
21
-3.835
0
LINE
8
BLACK
6
CONTINUOUS
10
5.42404
20
-3.835
11
5.42056
21
-3.83849
0
LINE
8
BLACK
6
CONTINUOUS
10
5.42056
20
-3.83849
11
5.41617
21
-3.84073
0
LINE
8
BLACK
6
CONTINUOUS
10
5.41617
20
-3.84073
11
5.4113
21
-3.8415
0
LINE
8
BLACK
6
CONTINUOUS
10
5.4113
20
-3.8415
11
5.40643
21
-3.84073
0
LINE
8
BLACK
6
CONTINUOUS
10
5.40643
20
-3.84073
11
5.40204
21
-3.83849
0
LINE
8
BLACK
6
CONTINUOUS
10
5.40204
20
-3.83849
11
5.39856
21
-3.835
0
LINE
8
BLACK
6
CONTINUOUS
10
5.39856
20
-3.835
11
5.39632
21
-3.83061
0
LINE
8
BLACK
6
CONTINUOUS
10
5.39632
20
-3.83061
11
5.39555
21
-3.82575
0
LINE
8
BLACK
6
CONTINUOUS
10
5.39555
20
-3.82575
11
5.39632
21
-3.82088
0
LINE
8
BLACK
6
CONTINUOUS
10
5.39632
20
-3.82088
11
5.39856
21
-3.81649
0
LINE
8
BLACK
6
CONTINUOUS
10
5.39856
20
-3.81649
11
5.40204
21
-3.81301
0
LINE
8
BLACK
6
CONTINUOUS
10
5.40204
20
-3.81301
11
5.40643
21
-3.81077
0
LINE
8
BLACK
6
CONTINUOUS
10
5.40643
20
-3.81077
11
5.4113
21
-3.81
0
LINE
8
BLACK
6
CONTINUOUS
10
5.4113
20
-3.81
11
5.41528
21
-3.81063
0
LINE
8
BLACK
6
CONTINUOUS
10
5.41528
20
-3.81063
11
5.49881
21
-3.72711
0
LINE
8
BLACK
6
CONTINUOUS
10
5.49881
20
-3.72711
11
5.49881
21
-3.50355
0
LINE
8
BLACK
6
CONTINUOUS
10
5.49881
20
-3.50355
11
5.49736
21
-3.50332
0
LINE
8
BLACK
6
CONTINUOUS
10
5.49736
20
-3.50332
11
5.49297
21
-3.50109
0
LINE
8
BLACK
6
CONTINUOUS
10
5.49297
20
-3.50109
11
5.48949
21
-3.4976
0
LINE
8
BLACK
6
CONTINUOUS
10
5.48949
20
-3.4976
11
5.48725
21
-3.49321
0
LINE
8
BLACK
6
CONTINUOUS
10
5.48725
20
-3.49321
11
5.48648
21
-3.48835
0
LINE
8
BLACK
6
CONTINUOUS
10
5.48648
20
-3.48835
11
5.48725
21
-3.48348
0
LINE
8
BLACK
6
CONTINUOUS
10
5.48725
20
-3.48348
11
5.48949
21
-3.47909
0
LINE
8
BLACK
6
CONTINUOUS
10
5.48949
20
-3.47909
11
5.49297
21
-3.47561
0
LINE
8
BLACK
6
CONTINUOUS
10
5.49297
20
-3.47561
11
5.49736
21
-3.47337
0
LINE
8
BLACK
6
CONTINUOUS
10
5.49736
20
-3.47337
11
5.50223
21
-3.4726
0
LINE
8
BLACK
6
CONTINUOUS
10
5.50223
20
-3.4726
11
5.5071
21
-3.47337
0
LINE
8
BLACK
6
CONTINUOUS
10
5.46776
20
-3.47236
11
5.47215
21
-3.4746
0
LINE
8
BLACK
6
CONTINUOUS
10
5.47215
20
-3.4746
11
5.47563
21
-3.47809
0
LINE
8
BLACK
6
CONTINUOUS
10
5.47563
20
-3.47809
11
5.47787
21
-3.48248
0
LINE
8
BLACK
6
CONTINUOUS
10
5.47787
20
-3.48248
11
5.47864
21
-3.48734
0
LINE
8
BLACK
6
CONTINUOUS
10
5.47864
20
-3.48734
11
5.47787
21
-3.49221
0
LINE
8
BLACK
6
CONTINUOUS
10
5.47787
20
-3.49221
11
5.47747
21
-3.49299
0
LINE
8
BLACK
6
CONTINUOUS
10
5.47747
20
-3.49299
11
5.47748
21
-3.49306
0
LINE
8
BLACK
6
CONTINUOUS
10
5.47748
20
-3.49306
11
5.47778
21
-3.49435
0
LINE
8
BLACK
6
CONTINUOUS
10
5.47778
20
-3.49435
11
5.47778
21
-3.68714
0
LINE
8
BLACK
6
CONTINUOUS
10
5.47778
20
-3.68714
11
5.47748
21
-3.68843
0
LINE
8
BLACK
6
CONTINUOUS
10
5.47748
20
-3.68843
11
5.47733
21
-3.68975
0
LINE
8
BLACK
6
CONTINUOUS
10
5.47733
20
-3.68975
11
5.4771
21
-3.69012
0
LINE
8
BLACK
6
CONTINUOUS
10
5.4771
20
-3.69012
11
5.477
21
-3.69056
0
LINE
8
BLACK
6
CONTINUOUS
10
5.477
20
-3.69056
11
5.47617
21
-3.69159
0
LINE
8
BLACK
6
CONTINUOUS
10
5.47617
20
-3.69159
11
5.47547
21
-3.69271
0
LINE
8
BLACK
6
CONTINUOUS
10
5.47547
20
-3.69271
11
5.36993
21
-3.79825
0
LINE
8
BLACK
6
CONTINUOUS
10
5.36993
20
-3.79825
11
5.37128
21
-3.80088
0
LINE
8
BLACK
6
CONTINUOUS
10
5.37128
20
-3.80088
11
5.37205
21
-3.80575
0
LINE
8
BLACK
6
CONTINUOUS
10
5.37205
20
-3.80575
11
5.37128
21
-3.81061
0
LINE
8
BLACK
6
CONTINUOUS
10
5.37128
20
-3.81061
11
5.36904
21
-3.815
0
LINE
8
BLACK
6
CONTINUOUS
10
5.36904
20
-3.815
11
5.36556
21
-3.81849
0
LINE
8
BLACK
6
CONTINUOUS
10
5.36556
20
-3.81849
11
5.36117
21
-3.82073
0
LINE
8
BLACK
6
CONTINUOUS
10
5.36117
20
-3.82073
11
5.3563
21
-3.8215
0
LINE
8
BLACK
6
CONTINUOUS
10
5.3563
20
-3.8215
11
5.35143
21
-3.82073
0
LINE
8
BLACK
6
CONTINUOUS
10
5.35143
20
-3.82073
11
5.34704
21
-3.81849
0
LINE
8
BLACK
6
CONTINUOUS
10
5.34704
20
-3.81849
11
5.34356
21
-3.815
0
LINE
8
BLACK
6
CONTINUOUS
10
5.34356
20
-3.815
11
5.34132
21
-3.81061
0
LINE
8
BLACK
6
CONTINUOUS
10
5.34132
20
-3.81061
11
5.34055
21
-3.80575
0
LINE
8
BLACK
6
CONTINUOUS
10
5.34055
20
-3.80575
11
5.34132
21
-3.80088
0
LINE
8
BLACK
6
CONTINUOUS
10
5.34132
20
-3.80088
11
5.34356
21
-3.79649
0
LINE
8
BLACK
6
CONTINUOUS
10
5.34356
20
-3.79649
11
5.34704
21
-3.79301
0
LINE
8
BLACK
6
CONTINUOUS
10
5.34704
20
-3.79301
11
5.35143
21
-3.79077
0
LINE
8
BLACK
6
CONTINUOUS
10
5.35143
20
-3.79077
11
5.35584
21
-3.79007
0
LINE
8
BLACK
6
CONTINUOUS
10
5.35584
20
-3.79007
11
5.46203
21
-3.68388
0
LINE
8
BLACK
6
CONTINUOUS
10
5.46203
20
-3.68388
11
5.46203
21
-3.50295
0
LINE
8
BLACK
6
CONTINUOUS
10
5.46203
20
-3.50295
11
5.45803
21
-3.50232
0
LINE
8
BLACK
6
CONTINUOUS
10
5.45803
20
-3.50232
11
5.45364
21
-3.50008
0
LINE
8
BLACK
6
CONTINUOUS
10
5.45364
20
-3.50008
11
5.45015
21
-3.4966
0
LINE
8
BLACK
6
CONTINUOUS
10
5.45015
20
-3.4966
11
5.44792
21
-3.49221
0
LINE
8
BLACK
6
CONTINUOUS
10
5.44792
20
-3.49221
11
5.44714
21
-3.48734
0
LINE
8
BLACK
6
CONTINUOUS
10
5.44714
20
-3.48734
11
5.44792
21
-3.48248
0
LINE
8
BLACK
6
CONTINUOUS
10
5.44792
20
-3.48248
11
5.45015
21
-3.47809
0
LINE
8
BLACK
6
CONTINUOUS
10
5.45015
20
-3.47809
11
5.45364
21
-3.4746
0
LINE
8
BLACK
6
CONTINUOUS
10
5.45364
20
-3.4746
11
5.45803
21
-3.47236
0
LINE
8
BLACK
6
CONTINUOUS
10
5.45803
20
-3.47236
11
5.46289
21
-3.47159
0
LINE
8
BLACK
6
CONTINUOUS
10
5.46289
20
-3.47159
11
5.46776
21
-3.47236
0
LINE
8
BLACK
6
CONTINUOUS
10
5.42617
20
-3.47077
11
5.43056
21
-3.47301
0
LINE
8
BLACK
6
CONTINUOUS
10
5.43056
20
-3.47301
11
5.43404
21
-3.47649
0
LINE
8
BLACK
6
CONTINUOUS
10
5.43404
20
-3.47649
11
5.43628
21
-3.48088
0
LINE
8
BLACK
6
CONTINUOUS
10
5.43628
20
-3.48088
11
5.43705
21
-3.48575
0
LINE
8
BLACK
6
CONTINUOUS
10
5.43705
20
-3.48575
11
5.43628
21
-3.49061
0
LINE
8
BLACK
6
CONTINUOUS
10
5.43628
20
-3.49061
11
5.4344
21
-3.4943
0
LINE
8
BLACK
6
CONTINUOUS
10
5.4344
20
-3.4943
11
5.45187
21
-3.51177
0
LINE
8
BLACK
6
CONTINUOUS
10
5.45187
20
-3.51177
11
5.45257
21
-3.51288
0
LINE
8
BLACK
6
CONTINUOUS
10
5.45257
20
-3.51288
11
5.45339
21
-3.51392
0
LINE
8
BLACK
6
CONTINUOUS
10
5.45339
20
-3.51392
11
5.45349
21
-3.51435
0
LINE
8
BLACK
6
CONTINUOUS
10
5.45349
20
-3.51435
11
5.45373
21
-3.51473
0
LINE
8
BLACK
6
CONTINUOUS
10
5.45373
20
-3.51473
11
5.45388
21
-3.51605
0
LINE
8
BLACK
6
CONTINUOUS
10
5.45388
20
-3.51605
11
5.45417
21
-3.51733
0
LINE
8
BLACK
6
CONTINUOUS
10
5.45417
20
-3.51733
11
5.45417
21
-3.65575
0
LINE
8
BLACK
6
CONTINUOUS
10
5.45417
20
-3.65575
11
5.45388
21
-3.65704
0
LINE
8
BLACK
6
CONTINUOUS
10
5.45388
20
-3.65704
11
5.45373
21
-3.65835
0
LINE
8
BLACK
6
CONTINUOUS
10
5.45373
20
-3.65835
11
5.45349
21
-3.65873
0
LINE
8
BLACK
6
CONTINUOUS
10
5.45349
20
-3.65873
11
5.45339
21
-3.65916
0
LINE
8
BLACK
6
CONTINUOUS
10
5.45339
20
-3.65916
11
5.45257
21
-3.6602
0
LINE
8
BLACK
6
CONTINUOUS
10
5.45257
20
-3.6602
11
5.45187
21
-3.66132
0
LINE
8
BLACK
6
CONTINUOUS
10
5.45187
20
-3.66132
11
5.36642
21
-3.74677
0
LINE
8
BLACK
6
CONTINUOUS
10
5.36642
20
-3.74677
11
5.36705
21
-3.75075
0
LINE
8
BLACK
6
CONTINUOUS
10
5.36705
20
-3.75075
11
5.36628
21
-3.75561
0
LINE
8
BLACK
6
CONTINUOUS
10
5.36628
20
-3.75561
11
5.36404
21
-3.76
0
LINE
8
BLACK
6
CONTINUOUS
10
5.36404
20
-3.76
11
5.36056
21
-3.76349
0
LINE
8
BLACK
6
CONTINUOUS
10
5.36056
20
-3.76349
11
5.35617
21
-3.76573
0
LINE
8
BLACK
6
CONTINUOUS
10
5.35617
20
-3.76573
11
5.3513
21
-3.7665
0
LINE
8
BLACK
6
CONTINUOUS
10
5.3513
20
-3.7665
11
5.34643
21
-3.76573
0
LINE
8
BLACK
6
CONTINUOUS
10
5.34643
20
-3.76573
11
5.34204
21
-3.76349
0
LINE
8
BLACK
6
CONTINUOUS
10
5.34204
20
-3.76349
11
5.33856
21
-3.76
0
LINE
8
BLACK
6
CONTINUOUS
10
5.33856
20
-3.76
11
5.33632
21
-3.75561
0
LINE
8
BLACK
6
CONTINUOUS
10
5.33632
20
-3.75561
11
5.33555
21
-3.75075
0
LINE
8
BLACK
6
CONTINUOUS
10
5.33555
20
-3.75075
11
5.33632
21
-3.74588
0
LINE
8
BLACK
6
CONTINUOUS
10
5.33632
20
-3.74588
11
5.33856
21
-3.74149
0
LINE
8
BLACK
6
CONTINUOUS
10
5.33856
20
-3.74149
11
5.34204
21
-3.73801
0
LINE
8
BLACK
6
CONTINUOUS
10
5.34204
20
-3.73801
11
5.34643
21
-3.73577
0
LINE
8
BLACK
6
CONTINUOUS
10
5.34643
20
-3.73577
11
5.3513
21
-3.735
0
LINE
8
BLACK
6
CONTINUOUS
10
5.3513
20
-3.735
11
5.35528
21
-3.73563
0
LINE
8
BLACK
6
CONTINUOUS
10
5.35528
20
-3.73563
11
5.43843
21
-3.65249
0
LINE
8
BLACK
6
CONTINUOUS
10
5.43843
20
-3.65249
11
5.43843
21
-3.5206
0
LINE
8
BLACK
6
CONTINUOUS
10
5.43843
20
-3.5206
11
5.41895
21
-3.50112
0
LINE
8
BLACK
6
CONTINUOUS
10
5.41895
20
-3.50112
11
5.41643
21
-3.50073
0
LINE
8
BLACK
6
CONTINUOUS
10
5.41643
20
-3.50073
11
5.41204
21
-3.49849
0
LINE
8
BLACK
6
CONTINUOUS
10
5.41204
20
-3.49849
11
5.40856
21
-3.495
0
LINE
8
BLACK
6
CONTINUOUS
10
5.40856
20
-3.495
11
5.40632
21
-3.49061
0
LINE
8
BLACK
6
CONTINUOUS
10
5.40632
20
-3.49061
11
5.40555
21
-3.48575
0
LINE
8
BLACK
6
CONTINUOUS
10
5.40555
20
-3.48575
11
5.40632
21
-3.48088
0
LINE
8
BLACK
6
CONTINUOUS
10
5.40632
20
-3.48088
11
5.40856
21
-3.47649
0
LINE
8
BLACK
6
CONTINUOUS
10
5.40856
20
-3.47649
11
5.41204
21
-3.47301
0
LINE
8
BLACK
6
CONTINUOUS
10
5.41204
20
-3.47301
11
5.41643
21
-3.47077
0
LINE
8
BLACK
6
CONTINUOUS
10
5.41643
20
-3.47077
11
5.4213
21
-3.47
0
LINE
8
BLACK
6
CONTINUOUS
10
5.4213
20
-3.47
11
5.42617
21
-3.47077
0
LINE
8
BLACK
6
CONTINUOUS
10
5.56355
20
-3.47718
11
5.56794
21
-3.47942
0
LINE
8
BLACK
6
CONTINUOUS
10
5.56794
20
-3.47942
11
5.57142
21
-3.4829
0
LINE
8
BLACK
6
CONTINUOUS
10
5.57142
20
-3.4829
11
5.57366
21
-3.48729
0
LINE
8
BLACK
6
CONTINUOUS
10
5.57366
20
-3.48729
11
5.57443
21
-3.49216
0
LINE
8
BLACK
6
CONTINUOUS
10
5.57443
20
-3.49216
11
5.57366
21
-3.49703
0
LINE
8
BLACK
6
CONTINUOUS
10
5.57366
20
-3.49703
11
5.57142
21
-3.50142
0
LINE
8
BLACK
6
CONTINUOUS
10
5.57142
20
-3.50142
11
5.56794
21
-3.5049
0
LINE
8
BLACK
6
CONTINUOUS
10
5.56794
20
-3.5049
11
5.56459
21
-3.50661
0
LINE
8
BLACK
6
CONTINUOUS
10
5.56459
20
-3.50661
11
5.56459
21
-3.5235
0
LINE
8
BLACK
6
CONTINUOUS
10
5.56459
20
-3.5235
11
5.62109
21
-3.58
0
LINE
8
BLACK
6
CONTINUOUS
10
5.62109
20
-3.58
11
5.98646
21
-3.58
0
LINE
8
BLACK
6
CONTINUOUS
10
5.98646
20
-3.58
11
5.98721
21
-3.5802
0
LINE
8
BLACK
6
CONTINUOUS
10
5.98721
20
-3.5802
11
5.98799
21
-3.5802
0
LINE
8
BLACK
6
CONTINUOUS
10
5.98799
20
-3.5802
11
5.98866
21
-3.58059
0
LINE
8
BLACK
6
CONTINUOUS
10
5.98866
20
-3.58059
11
5.98941
21
-3.58079
0
LINE
8
BLACK
6
CONTINUOUS
10
5.98941
20
-3.58079
11
5.98996
21
-3.58134
0
LINE
8
BLACK
6
CONTINUOUS
10
5.98996
20
-3.58134
11
5.99063
21
-3.58173
0
LINE
8
BLACK
6
CONTINUOUS
10
5.99063
20
-3.58173
11
6.01875
21
-3.60984
0
LINE
8
BLACK
6
CONTINUOUS
10
6.01875
20
-3.60984
11
6.1513
21
-3.60984
0
LINE
8
BLACK
6
CONTINUOUS
10
6.1513
20
-3.60984
11
6.15205
21
-3.61004
0
LINE
8
BLACK
6
CONTINUOUS
10
6.15205
20
-3.61004
11
6.15283
21
-3.61004
0
LINE
8
BLACK
6
CONTINUOUS
10
6.15283
20
-3.61004
11
6.1535
21
-3.61043
0
LINE
8
BLACK
6
CONTINUOUS
10
6.1535
20
-3.61043
11
6.15425
21
-3.61063
0
LINE
8
BLACK
6
CONTINUOUS
10
6.15425
20
-3.61063
11
6.1548
21
-3.61118
0
LINE
8
BLACK
6
CONTINUOUS
10
6.1548
20
-3.61118
11
6.15548
21
-3.61157
0
LINE
8
BLACK
6
CONTINUOUS
10
6.15548
20
-3.61157
11
6.25027
21
-3.70636
0
LINE
8
BLACK
6
CONTINUOUS
10
6.25027
20
-3.70636
11
6.25143
21
-3.70577
0
LINE
8
BLACK
6
CONTINUOUS
10
6.25143
20
-3.70577
11
6.2563
21
-3.705
0
LINE
8
BLACK
6
CONTINUOUS
10
6.2563
20
-3.705
11
6.26117
21
-3.70577
0
LINE
8
BLACK
6
CONTINUOUS
10
6.26117
20
-3.70577
11
6.26556
21
-3.70801
0
LINE
8
BLACK
6
CONTINUOUS
10
6.26556
20
-3.70801
11
6.26904
21
-3.71149
0
LINE
8
BLACK
6
CONTINUOUS
10
6.26904
20
-3.71149
11
6.27128
21
-3.71588
0
LINE
8
BLACK
6
CONTINUOUS
10
6.27128
20
-3.71588
11
6.27205
21
-3.72075
0
LINE
8
BLACK
6
CONTINUOUS
10
6.27205
20
-3.72075
11
6.27128
21
-3.72561
0
LINE
8
BLACK
6
CONTINUOUS
10
6.27128
20
-3.72561
11
6.26904
21
-3.73
0
LINE
8
BLACK
6
CONTINUOUS
10
6.26904
20
-3.73
11
6.26556
21
-3.73349
0
LINE
8
BLACK
6
CONTINUOUS
10
6.26556
20
-3.73349
11
6.26117
21
-3.73573
0
LINE
8
BLACK
6
CONTINUOUS
10
6.26117
20
-3.73573
11
6.2563
21
-3.7365
0
LINE
8
BLACK
6
CONTINUOUS
10
6.2563
20
-3.7365
11
6.25143
21
-3.73573
0
LINE
8
BLACK
6
CONTINUOUS
10
6.25143
20
-3.73573
11
6.24704
21
-3.73349
0
LINE
8
BLACK
6
CONTINUOUS
10
6.24704
20
-3.73349
11
6.24356
21
-3.73
0
LINE
8
BLACK
6
CONTINUOUS
10
6.24356
20
-3.73
11
6.24132
21
-3.72561
0
LINE
8
BLACK
6
CONTINUOUS
10
6.24132
20
-3.72561
11
6.24055
21
-3.72075
0
LINE
8
BLACK
6
CONTINUOUS
10
6.24055
20
-3.72075
11
6.24132
21
-3.71588
0
LINE
8
BLACK
6
CONTINUOUS
10
6.24132
20
-3.71588
11
6.24192
21
-3.71472
0
LINE
8
BLACK
6
CONTINUOUS
10
6.24192
20
-3.71472
11
6.14885
21
-3.62165
0
LINE
8
BLACK
6
CONTINUOUS
10
6.14885
20
-3.62165
11
6.0163
21
-3.62165
0
LINE
8
BLACK
6
CONTINUOUS
10
6.0163
20
-3.62165
11
6.01555
21
-3.62145
0
LINE
8
BLACK
6
CONTINUOUS
10
6.01555
20
-3.62145
11
6.01477
21
-3.62145
0
LINE
8
BLACK
6
CONTINUOUS
10
6.01477
20
-3.62145
11
6.0141
21
-3.62106
0
LINE
8
BLACK
6
CONTINUOUS
10
6.0141
20
-3.62106
11
6.01335
21
-3.62086
0
LINE
8
BLACK
6
CONTINUOUS
10
6.01335
20
-3.62086
11
6.0128
21
-3.62031
0
LINE
8
BLACK
6
CONTINUOUS
10
6.0128
20
-3.62031
11
6.01212
21
-3.61992
0
LINE
8
BLACK
6
CONTINUOUS
10
6.01212
20
-3.61992
11
5.98401
21
-3.59181
0
LINE
8
BLACK
6
CONTINUOUS
10
5.98401
20
-3.59181
11
5.61864
21
-3.59181
0
LINE
8
BLACK
6
CONTINUOUS
10
5.61864
20
-3.59181
11
5.61789
21
-3.59161
0
LINE
8
BLACK
6
CONTINUOUS
10
5.61789
20
-3.59161
11
5.61712
21
-3.59161
0
LINE
8
BLACK
6
CONTINUOUS
10
5.61712
20
-3.59161
11
5.61644
21
-3.59122
0
LINE
8
BLACK
6
CONTINUOUS
10
5.61644
20
-3.59122
11
5.61569
21
-3.59102
0
LINE
8
BLACK
6
CONTINUOUS
10
5.61569
20
-3.59102
11
5.61514
21
-3.59047
0
LINE
8
BLACK
6
CONTINUOUS
10
5.61514
20
-3.59047
11
5.61447
21
-3.59008
0
LINE
8
BLACK
6
CONTINUOUS
10
5.61447
20
-3.59008
11
5.55451
21
-3.53012
0
LINE
8
BLACK
6
CONTINUOUS
10
5.55451
20
-3.53012
11
5.55412
21
-3.52944
0
LINE
8
BLACK
6
CONTINUOUS
10
5.55412
20
-3.52944
11
5.55357
21
-3.52889
0
LINE
8
BLACK
6
CONTINUOUS
10
5.55357
20
-3.52889
11
5.55337
21
-3.52814
0
LINE
8
BLACK
6
CONTINUOUS
10
5.55337
20
-3.52814
11
5.55298
21
-3.52747
0
LINE
8
BLACK
6
CONTINUOUS
10
5.55298
20
-3.52747
11
5.55298
21
-3.52669
0
LINE
8
BLACK
6
CONTINUOUS
10
5.55298
20
-3.52669
11
5.55278
21
-3.52594
0
LINE
8
BLACK
6
CONTINUOUS
10
5.55278
20
-3.52594
11
5.55278
21
-3.50661
0
LINE
8
BLACK
6
CONTINUOUS
10
5.55278
20
-3.50661
11
5.54942
21
-3.5049
0
LINE
8
BLACK
6
CONTINUOUS
10
5.54942
20
-3.5049
11
5.54594
21
-3.50142
0
LINE
8
BLACK
6
CONTINUOUS
10
5.54594
20
-3.50142
11
5.5437
21
-3.49703
0
LINE
8
BLACK
6
CONTINUOUS
10
5.5437
20
-3.49703
11
5.54293
21
-3.49216
0
LINE
8
BLACK
6
CONTINUOUS
10
5.54293
20
-3.49216
11
5.5437
21
-3.48729
0
LINE
8
BLACK
6
CONTINUOUS
10
5.5437
20
-3.48729
11
5.54594
21
-3.4829
0
LINE
8
BLACK
6
CONTINUOUS
10
5.54594
20
-3.4829
11
5.54942
21
-3.47942
0
LINE
8
BLACK
6
CONTINUOUS
10
5.54942
20
-3.47942
11
5.55381
21
-3.47718
0
LINE
8
BLACK
6
CONTINUOUS
10
5.55381
20
-3.47718
11
5.55868
21
-3.47641
0
LINE
8
BLACK
6
CONTINUOUS
10
5.55868
20
-3.47641
11
5.56355
21
-3.47718
0
LINE
8
BLACK
6
CONTINUOUS
10
5.39302
20
-3.44137
11
5.39741
21
-3.44361
0
LINE
8
BLACK
6
CONTINUOUS
10
5.39741
20
-3.44361
11
5.40089
21
-3.44709
0
LINE
8
BLACK
6
CONTINUOUS
10
5.40089
20
-3.44709
11
5.40313
21
-3.45148
0
LINE
8
BLACK
6
CONTINUOUS
10
5.40313
20
-3.45148
11
5.4039
21
-3.45635
0
LINE
8
BLACK
6
CONTINUOUS
10
5.4039
20
-3.45635
11
5.40313
21
-3.46121
0
LINE
8
BLACK
6
CONTINUOUS
10
5.40313
20
-3.46121
11
5.40089
21
-3.4656
0
LINE
8
BLACK
6
CONTINUOUS
10
5.40089
20
-3.4656
11
5.39741
21
-3.46909
0
LINE
8
BLACK
6
CONTINUOUS
10
5.39741
20
-3.46909
11
5.39302
21
-3.47133
0
LINE
8
BLACK
6
CONTINUOUS
10
5.39302
20
-3.47133
11
5.38815
21
-3.4721
0
LINE
8
BLACK
6
CONTINUOUS
10
5.38815
20
-3.4721
11
5.38417
21
-3.47147
0
LINE
8
BLACK
6
CONTINUOUS
10
5.38417
20
-3.47147
11
5.35917
21
-3.49646
0
LINE
8
BLACK
6
CONTINUOUS
10
5.35917
20
-3.49646
11
5.35917
21
-3.6723
0
LINE
8
BLACK
6
CONTINUOUS
10
5.35917
20
-3.6723
11
5.36056
21
-3.67301
0
LINE
8
BLACK
6
CONTINUOUS
10
5.36056
20
-3.67301
11
5.36404
21
-3.67649
0
LINE
8
BLACK
6
CONTINUOUS
10
5.36404
20
-3.67649
11
5.36628
21
-3.68088
0
LINE
8
BLACK
6
CONTINUOUS
10
5.36628
20
-3.68088
11
5.36705
21
-3.68575
0
LINE
8
BLACK
6
CONTINUOUS
10
5.36705
20
-3.68575
11
5.36628
21
-3.69061
0
LINE
8
BLACK
6
CONTINUOUS
10
5.36628
20
-3.69061
11
5.36404
21
-3.695
0
LINE
8
BLACK
6
CONTINUOUS
10
5.36404
20
-3.695
11
5.36056
21
-3.69849
0
LINE
8
BLACK
6
CONTINUOUS
10
5.36056
20
-3.69849
11
5.35617
21
-3.70073
0
LINE
8
BLACK
6
CONTINUOUS
10
5.35617
20
-3.70073
11
5.3513
21
-3.7015
0
LINE
8
BLACK
6
CONTINUOUS
10
5.3513
20
-3.7015
11
5.34643
21
-3.70073
0
LINE
8
BLACK
6
CONTINUOUS
10
5.34643
20
-3.70073
11
5.34204
21
-3.69849
0
LINE
8
BLACK
6
CONTINUOUS
10
5.34204
20
-3.69849
11
5.33856
21
-3.695
0
LINE
8
BLACK
6
CONTINUOUS
10
5.33856
20
-3.695
11
5.33632
21
-3.69061
0
LINE
8
BLACK
6
CONTINUOUS
10
5.33632
20
-3.69061
11
5.33555
21
-3.68575
0
LINE
8
BLACK
6
CONTINUOUS
10
5.33555
20
-3.68575
11
5.33632
21
-3.68088
0
LINE
8
BLACK
6
CONTINUOUS
10
5.33632
20
-3.68088
11
5.33856
21
-3.67649
0
LINE
8
BLACK
6
CONTINUOUS
10
5.33856
20
-3.67649
11
5.34204
21
-3.67301
0
LINE
8
BLACK
6
CONTINUOUS
10
5.34204
20
-3.67301
11
5.34343
21
-3.6723
0
LINE
8
BLACK
6
CONTINUOUS
10
5.34343
20
-3.6723
11
5.34343
21
-3.4932
0
LINE
8
BLACK
6
CONTINUOUS
10
5.34343
20
-3.4932
11
5.34372
21
-3.49191
0
LINE
8
BLACK
6
CONTINUOUS
10
5.34372
20
-3.49191
11
5.34387
21
-3.4906
0
LINE
8
BLACK
6
CONTINUOUS
10
5.34387
20
-3.4906
11
5.34411
21
-3.49022
0
LINE
8
BLACK
6
CONTINUOUS
10
5.34411
20
-3.49022
11
5.3442
21
-3.48978
0
LINE
8
BLACK
6
CONTINUOUS
10
5.3442
20
-3.48978
11
5.34503
21
-3.48875
0
LINE
8
BLACK
6
CONTINUOUS
10
5.34503
20
-3.48875
11
5.34573
21
-3.48763
0
LINE
8
BLACK
6
CONTINUOUS
10
5.34573
20
-3.48763
11
5.37303
21
-3.46033
0
LINE
8
BLACK
6
CONTINUOUS
10
5.37303
20
-3.46033
11
5.3724
21
-3.45635
0
LINE
8
BLACK
6
CONTINUOUS
10
5.3724
20
-3.45635
11
5.37317
21
-3.45148
0
LINE
8
BLACK
6
CONTINUOUS
10
5.37317
20
-3.45148
11
5.37541
21
-3.44709
0
LINE
8
BLACK
6
CONTINUOUS
10
5.37541
20
-3.44709
11
5.37889
21
-3.44361
0
LINE
8
BLACK
6
CONTINUOUS
10
5.37889
20
-3.44361
11
5.38328
21
-3.44137
0
LINE
8
BLACK
6
CONTINUOUS
10
5.38328
20
-3.44137
11
5.38815
21
-3.4406
0
LINE
8
BLACK
6
CONTINUOUS
10
5.38815
20
-3.4406
11
5.39302
21
-3.44137
0
LINE
8
BLACK
6
CONTINUOUS
10
5.97687
20
-3.59987
11
5.97765
21
-3.59987
0
LINE
8
BLACK
6
CONTINUOUS
10
5.97765
20
-3.59987
11
5.97832
21
-3.60026
0
LINE
8
BLACK
6
CONTINUOUS
10
5.97832
20
-3.60026
11
5.97908
21
-3.60046
0
LINE
8
BLACK
6
CONTINUOUS
10
5.97908
20
-3.60046
11
5.97963
21
-3.60101
0
LINE
8
BLACK
6
CONTINUOUS
10
5.97963
20
-3.60101
11
5.9803
21
-3.6014
0
LINE
8
BLACK
6
CONTINUOUS
10
5.9803
20
-3.6014
11
6.01408
21
-3.63517
0
LINE
8
BLACK
6
CONTINUOUS
10
6.01408
20
-3.63517
11
6.08163
21
-3.63517
0
LINE
8
BLACK
6
CONTINUOUS
10
6.08163
20
-3.63517
11
6.08238
21
-3.63537
0
LINE
8
BLACK
6
CONTINUOUS
10
6.08238
20
-3.63537
11
6.08316
21
-3.63537
0
LINE
8
BLACK
6
CONTINUOUS
10
6.08316
20
-3.63537
11
6.08383
21
-3.63576
0
LINE
8
BLACK
6
CONTINUOUS
10
6.08383
20
-3.63576
11
6.08458
21
-3.63596
0
LINE
8
BLACK
6
CONTINUOUS
10
6.08458
20
-3.63596
11
6.08513
21
-3.63651
0
LINE
8
BLACK
6
CONTINUOUS
10
6.08513
20
-3.63651
11
6.08581
21
-3.6369
0
LINE
8
BLACK
6
CONTINUOUS
10
6.08581
20
-3.6369
11
6.08875
21
-3.63984
0
LINE
8
BLACK
6
CONTINUOUS
10
6.08875
20
-3.63984
11
6.11685
21
-3.63984
0
LINE
8
BLACK
6
CONTINUOUS
10
6.11685
20
-3.63984
11
6.11856
21
-3.63649
0
LINE
8
BLACK
6
CONTINUOUS
10
6.11856
20
-3.63649
11
6.12204
21
-3.63301
0
LINE
8
BLACK
6
CONTINUOUS
10
6.12204
20
-3.63301
11
6.12643
21
-3.63077
0
LINE
8
BLACK
6
CONTINUOUS
10
6.12643
20
-3.63077
11
6.1313
21
-3.63
0
LINE
8
BLACK
6
CONTINUOUS
10
6.1313
20
-3.63
11
6.13617
21
-3.63077
0
LINE
8
BLACK
6
CONTINUOUS
10
6.13617
20
-3.63077
11
6.14056
21
-3.63301
0
LINE
8
BLACK
6
CONTINUOUS
10
6.14056
20
-3.63301
11
6.14404
21
-3.63649
0
LINE
8
BLACK
6
CONTINUOUS
10
6.14404
20
-3.63649
11
6.14628
21
-3.64088
0
LINE
8
BLACK
6
CONTINUOUS
10
6.14628
20
-3.64088
11
6.14705
21
-3.64575
0
LINE
8
BLACK
6
CONTINUOUS
10
6.14705
20
-3.64575
11
6.14628
21
-3.65061
0
LINE
8
BLACK
6
CONTINUOUS
10
6.14628
20
-3.65061
11
6.14404
21
-3.655
0
LINE
8
BLACK
6
CONTINUOUS
10
6.14404
20
-3.655
11
6.14056
21
-3.65849
0
LINE
8
BLACK
6
CONTINUOUS
10
6.14056
20
-3.65849
11
6.13617
21
-3.66073
0
LINE
8
BLACK
6
CONTINUOUS
10
6.13617
20
-3.66073
11
6.1313
21
-3.6615
0
LINE
8
BLACK
6
CONTINUOUS
10
6.1313
20
-3.6615
11
6.12643
21
-3.66073
0
LINE
8
BLACK
6
CONTINUOUS
10
6.12643
20
-3.66073
11
6.12204
21
-3.65849
0
LINE
8
BLACK
6
CONTINUOUS
10
6.12204
20
-3.65849
11
6.11856
21
-3.655
0
LINE
8
BLACK
6
CONTINUOUS
10
6.11856
20
-3.655
11
6.11685
21
-3.65165
0
LINE
8
BLACK
6
CONTINUOUS
10
6.11685
20
-3.65165
11
6.0863
21
-3.65165
0
LINE
8
BLACK
6
CONTINUOUS
10
6.0863
20
-3.65165
11
6.08555
21
-3.65145
0
LINE
8
BLACK
6
CONTINUOUS
10
6.08555
20
-3.65145
11
6.08477
21
-3.65145
0
LINE
8
BLACK
6
CONTINUOUS
10
6.08477
20
-3.65145
11
6.0841
21
-3.65106
0
LINE
8
BLACK
6
CONTINUOUS
10
6.0841
20
-3.65106
11
6.08335
21
-3.65086
0
LINE
8
BLACK
6
CONTINUOUS
10
6.08335
20
-3.65086
11
6.0828
21
-3.65031
0
LINE
8
BLACK
6
CONTINUOUS
10
6.0828
20
-3.65031
11
6.08212
21
-3.64992
0
LINE
8
BLACK
6
CONTINUOUS
10
6.08212
20
-3.64992
11
6.07918
21
-3.64698
0
LINE
8
BLACK
6
CONTINUOUS
10
6.07918
20
-3.64698
11
6.01163
21
-3.64698
0
LINE
8
BLACK
6
CONTINUOUS
10
6.01163
20
-3.64698
11
6.01088
21
-3.64678
0
LINE
8
BLACK
6
CONTINUOUS
10
6.01088
20
-3.64678
11
6.0101
21
-3.64678
0
LINE
8
BLACK
6
CONTINUOUS
10
6.0101
20
-3.64678
11
6.00943
21
-3.64639
0
LINE
8
BLACK
6
CONTINUOUS
10
6.00943
20
-3.64639
11
6.00868
21
-3.64619
0
LINE
8
BLACK
6
CONTINUOUS
10
6.00868
20
-3.64619
11
6.00813
21
-3.64564
0
LINE
8
BLACK
6
CONTINUOUS
10
6.00813
20
-3.64564
11
6.00745
21
-3.64525
0
LINE
8
BLACK
6
CONTINUOUS
10
6.00745
20
-3.64525
11
5.97368
21
-3.61148
0
LINE
8
BLACK
6
CONTINUOUS
10
5.97368
20
-3.61148
11
5.60025
21
-3.61148
0
LINE
8
BLACK
6
CONTINUOUS
10
5.60025
20
-3.61148
11
5.55057
21
-3.66116
0
LINE
8
BLACK
6
CONTINUOUS
10
5.55057
20
-3.66116
11
5.5509
21
-3.66149
0
LINE
8
BLACK
6
CONTINUOUS
10
5.5509
20
-3.66149
11
5.55313
21
-3.66588
0
LINE
8
BLACK
6
CONTINUOUS
10
5.55313
20
-3.66588
11
5.5539
21
-3.67075
0
LINE
8
BLACK
6
CONTINUOUS
10
5.5539
20
-3.67075
11
5.55313
21
-3.67561
0
LINE
8
BLACK
6
CONTINUOUS
10
5.55313
20
-3.67561
11
5.5509
21
-3.68
0
LINE
8
BLACK
6
CONTINUOUS
10
5.5509
20
-3.68
11
5.54741
21
-3.68349
0
LINE
8
BLACK
6
CONTINUOUS
10
5.54741
20
-3.68349
11
5.54302
21
-3.68573
0
LINE
8
BLACK
6
CONTINUOUS
10
5.54302
20
-3.68573
11
5.53816
21
-3.6865
0
LINE
8
BLACK
6
CONTINUOUS
10
5.53816
20
-3.6865
11
5.53329
21
-3.68573
0
LINE
8
BLACK
6
CONTINUOUS
10
5.53329
20
-3.68573
11
5.5289
21
-3.68349
0
LINE
8
BLACK
6
CONTINUOUS
10
5.5289
20
-3.68349
11
5.52542
21
-3.68
0
LINE
8
BLACK
6
CONTINUOUS
10
5.52542
20
-3.68
11
5.52318
21
-3.67561
0
LINE
8
BLACK
6
CONTINUOUS
10
5.52318
20
-3.67561
11
5.52241
21
-3.67075
0
LINE
8
BLACK
6
CONTINUOUS
10
5.52241
20
-3.67075
11
5.52318
21
-3.66588
0
LINE
8
BLACK
6
CONTINUOUS
10
5.52318
20
-3.66588
11
5.52542
21
-3.66149
0
LINE
8
BLACK
6
CONTINUOUS
10
5.52542
20
-3.66149
11
5.5289
21
-3.65801
0
LINE
8
BLACK
6
CONTINUOUS
10
5.5289
20
-3.65801
11
5.53329
21
-3.65577
0
LINE
8
BLACK
6
CONTINUOUS
10
5.53329
20
-3.65577
11
5.53816
21
-3.655
0
LINE
8
BLACK
6
CONTINUOUS
10
5.53816
20
-3.655
11
5.53977
21
-3.65526
0
LINE
8
BLACK
6
CONTINUOUS
10
5.53977
20
-3.65526
11
5.59363
21
-3.6014
0
LINE
8
BLACK
6
CONTINUOUS
10
5.59363
20
-3.6014
11
5.5943
21
-3.60101
0
LINE
8
BLACK
6
CONTINUOUS
10
5.5943
20
-3.60101
11
5.59485
21
-3.60046
0
LINE
8
BLACK
6
CONTINUOUS
10
5.59485
20
-3.60046
11
5.5956
21
-3.60026
0
LINE
8
BLACK
6
CONTINUOUS
10
5.5956
20
-3.60026
11
5.59627
21
-3.59987
0
LINE
8
BLACK
6
CONTINUOUS
10
5.59627
20
-3.59987
11
5.59705
21
-3.59987
0
LINE
8
BLACK
6
CONTINUOUS
10
5.59705
20
-3.59987
11
5.5978
21
-3.59967
0
LINE
8
BLACK
6
CONTINUOUS
10
5.5978
20
-3.59967
11
5.97612
21
-3.59967
0
LINE
8
BLACK
6
CONTINUOUS
10
5.97612
20
-3.59967
11
5.97687
21
-3.59987
0
LINE
8
BLACK
6
CONTINUOUS
10
5.60125
20
-3.48845
11
5.60564
21
-3.49068
0
LINE
8
BLACK
6
CONTINUOUS
10
5.60564
20
-3.49068
11
5.60913
21
-3.49417
0
LINE
8
BLACK
6
CONTINUOUS
10
5.60913
20
-3.49417
11
5.61136
21
-3.49856
0
LINE
8
BLACK
6
CONTINUOUS
10
5.61136
20
-3.49856
11
5.61213
21
-3.50342
0
LINE
8
BLACK
6
CONTINUOUS
10
5.61213
20
-3.50342
11
5.61136
21
-3.50829
0
LINE
8
BLACK
6
CONTINUOUS
10
5.61136
20
-3.50829
11
5.60913
21
-3.51268
0
LINE
8
BLACK
6
CONTINUOUS
10
5.60913
20
-3.51268
11
5.60564
21
-3.51617
0
LINE
8
BLACK
6
CONTINUOUS
10
5.60564
20
-3.51617
11
5.60229
21
-3.51787
0
LINE
8
BLACK
6
CONTINUOUS
10
5.60229
20
-3.51787
11
5.60229
21
-3.53339
0
LINE
8
BLACK
6
CONTINUOUS
10
5.60229
20
-3.53339
11
5.62924
21
-3.56033
0
LINE
8
BLACK
6
CONTINUOUS
10
5.62924
20
-3.56033
11
5.99081
21
-3.56033
0
LINE
8
BLACK
6
CONTINUOUS
10
5.99081
20
-3.56033
11
5.99581
21
-3.56033
0
LINE
8
BLACK
6
CONTINUOUS
10
5.99581
20
-3.56033
11
5.99876
21
-3.56113
0
LINE
8
BLACK
6
CONTINUOUS
10
5.99876
20
-3.56113
11
6.00092
21
-3.56329
0
LINE
8
BLACK
6
CONTINUOUS
10
6.00092
20
-3.56329
11
6.00126
21
-3.56454
0
LINE
8
BLACK
6
CONTINUOUS
10
6.00126
20
-3.56454
11
6.02689
21
-3.59018
0
LINE
8
BLACK
6
CONTINUOUS
10
6.02689
20
-3.59018
11
6.35022
21
-3.59018
0
LINE
8
BLACK
6
CONTINUOUS
10
6.35022
20
-3.59018
11
6.36241
21
-3.58397
0
LINE
8
BLACK
6
CONTINUOUS
10
6.36241
20
-3.58397
11
6.3622
21
-3.58268
0
LINE
8
BLACK
6
CONTINUOUS
10
6.3622
20
-3.58268
11
6.36298
21
-3.57781
0
LINE
8
BLACK
6
CONTINUOUS
10
6.36298
20
-3.57781
11
6.36521
21
-3.57342
0
LINE
8
BLACK
6
CONTINUOUS
10
6.36521
20
-3.57342
11
6.3687
21
-3.56994
0
LINE
8
BLACK
6
CONTINUOUS
10
6.3687
20
-3.56994
11
6.37309
21
-3.5677
0
LINE
8
BLACK
6
CONTINUOUS
10
6.37309
20
-3.5677
11
6.37795
21
-3.56693
0
LINE
8
BLACK
6
CONTINUOUS
10
6.37795
20
-3.56693
11
6.38282
21
-3.5677
0
LINE
8
BLACK
6
CONTINUOUS
10
6.38282
20
-3.5677
11
6.38721
21
-3.56994
0
LINE
8
BLACK
6
CONTINUOUS
10
6.38721
20
-3.56994
11
6.39069
21
-3.57342
0
LINE
8
BLACK
6
CONTINUOUS
10
6.39069
20
-3.57342
11
6.39293
21
-3.57781
0
LINE
8
BLACK
6
CONTINUOUS
10
6.39293
20
-3.57781
11
6.3937
21
-3.58268
0
LINE
8
BLACK
6
CONTINUOUS
10
6.3937
20
-3.58268
11
6.39293
21
-3.58754
0
LINE
8
BLACK
6
CONTINUOUS
10
6.39293
20
-3.58754
11
6.39069
21
-3.59193
0
LINE
8
BLACK
6
CONTINUOUS
10
6.39069
20
-3.59193
11
6.38721
21
-3.59542
0
LINE
8
BLACK
6
CONTINUOUS
10
6.38721
20
-3.59542
11
6.38282
21
-3.59765
0
LINE
8
BLACK
6
CONTINUOUS
10
6.38282
20
-3.59765
11
6.37795
21
-3.59843
0
LINE
8
BLACK
6
CONTINUOUS
10
6.37795
20
-3.59843
11
6.37309
21
-3.59765
0
LINE
8
BLACK
6
CONTINUOUS
10
6.37309
20
-3.59765
11
6.3687
21
-3.59542
0
LINE
8
BLACK
6
CONTINUOUS
10
6.3687
20
-3.59542
11
6.36777
21
-3.59449
0
LINE
8
BLACK
6
CONTINUOUS
10
6.36777
20
-3.59449
11
6.35431
21
-3.60134
0
LINE
8
BLACK
6
CONTINUOUS
10
6.35431
20
-3.60134
11
6.35296
21
-3.60163
0
LINE
8
BLACK
6
CONTINUOUS
10
6.35296
20
-3.60163
11
6.35163
21
-3.60199
0
LINE
8
BLACK
6
CONTINUOUS
10
6.35163
20
-3.60199
11
6.02445
21
-3.60199
0
LINE
8
BLACK
6
CONTINUOUS
10
6.02445
20
-3.60199
11
6.02369
21
-3.60179
0
LINE
8
BLACK
6
CONTINUOUS
10
6.02369
20
-3.60179
11
6.02292
21
-3.60179
0
LINE
8
BLACK
6
CONTINUOUS
10
6.02292
20
-3.60179
11
6.02224
21
-3.6014
0
LINE
8
BLACK
6
CONTINUOUS
10
6.02224
20
-3.6014
11
6.02149
21
-3.6012
0
LINE
8
BLACK
6
CONTINUOUS
10
6.02149
20
-3.6012
11
6.02094
21
-3.60065
0
LINE
8
BLACK
6
CONTINUOUS
10
6.02094
20
-3.60065
11
6.02027
21
-3.60026
0
LINE
8
BLACK
6
CONTINUOUS
10
6.02027
20
-3.60026
11
5.99216
21
-3.57215
0
LINE
8
BLACK
6
CONTINUOUS
10
5.99216
20
-3.57215
11
5.99081
21
-3.57215
0
LINE
8
BLACK
6
CONTINUOUS
10
5.99081
20
-3.57215
11
5.62679
21
-3.57215
0
LINE
8
BLACK
6
CONTINUOUS
10
5.62679
20
-3.57215
11
5.62604
21
-3.57194
0
LINE
8
BLACK
6
CONTINUOUS
10
5.62604
20
-3.57194
11
5.62526
21
-3.57194
0
LINE
8
BLACK
6
CONTINUOUS
10
5.62526
20
-3.57194
11
5.62459
21
-3.57156
0
LINE
8
BLACK
6
CONTINUOUS
10
5.62459
20
-3.57156
11
5.62384
21
-3.57135
0
LINE
8
BLACK
6
CONTINUOUS
10
5.62384
20
-3.57135
11
5.62329
21
-3.5708
0
LINE
8
BLACK
6
CONTINUOUS
10
5.62329
20
-3.5708
11
5.62262
21
-3.57042
0
LINE
8
BLACK
6
CONTINUOUS
10
5.62262
20
-3.57042
11
5.59221
21
-3.54001
0
LINE
8
BLACK
6
CONTINUOUS
10
5.59221
20
-3.54001
11
5.59182
21
-3.53934
0
LINE
8
BLACK
6
CONTINUOUS
10
5.59182
20
-3.53934
11
5.59127
21
-3.53879
0
LINE
8
BLACK
6
CONTINUOUS
10
5.59127
20
-3.53879
11
5.59107
21
-3.53804
0
LINE
8
BLACK
6
CONTINUOUS
10
5.59107
20
-3.53804
11
5.59068
21
-3.53736
0
LINE
8
BLACK
6
CONTINUOUS
10
5.59068
20
-3.53736
11
5.59068
21
-3.53658
0
LINE
8
BLACK
6
CONTINUOUS
10
5.59068
20
-3.53658
11
5.59048
21
-3.53583
0
LINE
8
BLACK
6
CONTINUOUS
10
5.59048
20
-3.53583
11
5.59048
21
-3.51787
0
LINE
8
BLACK
6
CONTINUOUS
10
5.59048
20
-3.51787
11
5.58713
21
-3.51617
0
LINE
8
BLACK
6
CONTINUOUS
10
5.58713
20
-3.51617
11
5.58364
21
-3.51268
0
LINE
8
BLACK
6
CONTINUOUS
10
5.58364
20
-3.51268
11
5.58141
21
-3.50829
0
LINE
8
BLACK
6
CONTINUOUS
10
5.58141
20
-3.50829
11
5.58064
21
-3.50342
0
LINE
8
BLACK
6
CONTINUOUS
10
5.58064
20
-3.50342
11
5.58141
21
-3.49856
0
LINE
8
BLACK
6
CONTINUOUS
10
5.58141
20
-3.49856
11
5.58364
21
-3.49417
0
LINE
8
BLACK
6
CONTINUOUS
10
5.58364
20
-3.49417
11
5.58713
21
-3.49068
0
LINE
8
BLACK
6
CONTINUOUS
10
5.58713
20
-3.49068
11
5.59152
21
-3.48845
0
LINE
8
BLACK
6
CONTINUOUS
10
5.59152
20
-3.48845
11
5.59638
21
-3.48768
0
LINE
8
BLACK
6
CONTINUOUS
10
5.59638
20
-3.48768
11
5.60125
21
-3.48845
0
LINE
8
BLACK
6
CONTINUOUS
10
5.63899
20
-3.18852
11
5.64338
21
-3.19076
0
LINE
8
BLACK
6
CONTINUOUS
10
5.64338
20
-3.19076
11
5.64687
21
-3.19424
0
LINE
8
BLACK
6
CONTINUOUS
10
5.64687
20
-3.19424
11
5.6491
21
-3.19863
0
LINE
8
BLACK
6
CONTINUOUS
10
5.6491
20
-3.19863
11
5.64988
21
-3.2035
0
LINE
8
BLACK
6
CONTINUOUS
10
5.64988
20
-3.2035
11
5.6491
21
-3.20837
0
LINE
8
BLACK
6
CONTINUOUS
10
5.6491
20
-3.20837
11
5.64687
21
-3.21276
0
LINE
8
BLACK
6
CONTINUOUS
10
5.64687
20
-3.21276
11
5.64338
21
-3.21624
0
LINE
8
BLACK
6
CONTINUOUS
10
5.64338
20
-3.21624
11
5.64003
21
-3.21795
0
LINE
8
BLACK
6
CONTINUOUS
10
5.64003
20
-3.21795
11
5.64003
21
-3.51613
0
LINE
8
BLACK
6
CONTINUOUS
10
5.64003
20
-3.51613
11
5.66457
21
-3.54067
0
LINE
8
BLACK
6
CONTINUOUS
10
5.66457
20
-3.54067
11
5.95203
21
-3.54067
0
LINE
8
BLACK
6
CONTINUOUS
10
5.95203
20
-3.54067
11
5.96014
21
-3.53256
0
LINE
8
BLACK
6
CONTINUOUS
10
5.96014
20
-3.53256
11
5.96081
21
-3.53217
0
LINE
8
BLACK
6
CONTINUOUS
10
5.96081
20
-3.53217
11
5.96136
21
-3.53162
0
LINE
8
BLACK
6
CONTINUOUS
10
5.96136
20
-3.53162
11
5.96211
21
-3.53142
0
LINE
8
BLACK
6
CONTINUOUS
10
5.96211
20
-3.53142
11
5.96279
21
-3.53103
0
LINE
8
BLACK
6
CONTINUOUS
10
5.96279
20
-3.53103
11
5.96356
21
-3.53103
0
LINE
8
BLACK
6
CONTINUOUS
10
5.96356
20
-3.53103
11
5.96432
21
-3.53083
0
LINE
8
BLACK
6
CONTINUOUS
10
5.96432
20
-3.53083
11
5.97185
21
-3.53083
0
LINE
8
BLACK
6
CONTINUOUS
10
5.97185
20
-3.53083
11
5.97356
21
-3.52748
0
LINE
8
BLACK
6
CONTINUOUS
10
5.97356
20
-3.52748
11
5.97704
21
-3.52399
0
LINE
8
BLACK
6
CONTINUOUS
10
5.97704
20
-3.52399
11
5.98143
21
-3.52175
0
LINE
8
BLACK
6
CONTINUOUS
10
5.98143
20
-3.52175
11
5.9863
21
-3.52098
0
LINE
8
BLACK
6
CONTINUOUS
10
5.9863
20
-3.52098
11
5.99117
21
-3.52175
0
LINE
8
BLACK
6
CONTINUOUS
10
5.99117
20
-3.52175
11
5.99556
21
-3.52399
0
LINE
8
BLACK
6
CONTINUOUS
10
5.99556
20
-3.52399
11
5.99904
21
-3.52748
0
LINE
8
BLACK
6
CONTINUOUS
10
5.99904
20
-3.52748
11
6.00128
21
-3.53187
0
LINE
8
BLACK
6
CONTINUOUS
10
6.00128
20
-3.53187
11
6.00205
21
-3.53673
0
LINE
8
BLACK
6
CONTINUOUS
10
6.00205
20
-3.53673
11
6.00128
21
-3.5416
0
LINE
8
BLACK
6
CONTINUOUS
10
6.00128
20
-3.5416
11
5.99904
21
-3.54599
0
LINE
8
BLACK
6
CONTINUOUS
10
5.99904
20
-3.54599
11
5.99556
21
-3.54947
0
LINE
8
BLACK
6
CONTINUOUS
10
5.99556
20
-3.54947
11
5.99117
21
-3.55171
0
LINE
8
BLACK
6
CONTINUOUS
10
5.99117
20
-3.55171
11
5.9863
21
-3.55248
0
LINE
8
BLACK
6
CONTINUOUS
10
5.9863
20
-3.55248
11
5.98143
21
-3.55171
0
LINE
8
BLACK
6
CONTINUOUS
10
5.98143
20
-3.55171
11
5.97704
21
-3.54947
0
LINE
8
BLACK
6
CONTINUOUS
10
5.97704
20
-3.54947
11
5.97356
21
-3.54599
0
LINE
8
BLACK
6
CONTINUOUS
10
5.97356
20
-3.54599
11
5.97185
21
-3.54264
0
LINE
8
BLACK
6
CONTINUOUS
10
5.97185
20
-3.54264
11
5.96676
21
-3.54264
0
LINE
8
BLACK
6
CONTINUOUS
10
5.96676
20
-3.54264
11
5.95865
21
-3.55075
0
LINE
8
BLACK
6
CONTINUOUS
10
5.95865
20
-3.55075
11
5.95798
21
-3.55114
0
LINE
8
BLACK
6
CONTINUOUS
10
5.95798
20
-3.55114
11
5.95743
21
-3.55169
0
LINE
8
BLACK
6
CONTINUOUS
10
5.95743
20
-3.55169
11
5.95668
21
-3.55189
0
LINE
8
BLACK
6
CONTINUOUS
10
5.95668
20
-3.55189
11
5.956
21
-3.55228
0
LINE
8
BLACK
6
CONTINUOUS
10
5.956
20
-3.55228
11
5.95522
21
-3.55228
0
LINE
8
BLACK
6
CONTINUOUS
10
5.95522
20
-3.55228
11
5.95447
21
-3.55248
0
LINE
8
BLACK
6
CONTINUOUS
10
5.95447
20
-3.55248
11
5.66212
21
-3.55248
0
LINE
8
BLACK
6
CONTINUOUS
10
5.66212
20
-3.55248
11
5.66137
21
-3.55228
0
LINE
8
BLACK
6
CONTINUOUS
10
5.66137
20
-3.55228
11
5.6606
21
-3.55228
0
LINE
8
BLACK
6
CONTINUOUS
10
5.6606
20
-3.55228
11
5.65992
21
-3.55189
0
LINE
8
BLACK
6
CONTINUOUS
10
5.65992
20
-3.55189
11
5.65917
21
-3.55169
0
LINE
8
BLACK
6
CONTINUOUS
10
5.65917
20
-3.55169
11
5.65862
21
-3.55114
0
LINE
8
BLACK
6
CONTINUOUS
10
5.65862
20
-3.55114
11
5.65795
21
-3.55075
0
LINE
8
BLACK
6
CONTINUOUS
10
5.65795
20
-3.55075
11
5.62995
21
-3.52275
0
LINE
8
BLACK
6
CONTINUOUS
10
5.62995
20
-3.52275
11
5.62956
21
-3.52208
0
LINE
8
BLACK
6
CONTINUOUS
10
5.62956
20
-3.52208
11
5.62901
21
-3.52153
0
LINE
8
BLACK
6
CONTINUOUS
10
5.62901
20
-3.52153
11
5.62881
21
-3.52078
0
LINE
8
BLACK
6
CONTINUOUS
10
5.62881
20
-3.52078
11
5.62842
21
-3.5201
0
LINE
8
BLACK
6
CONTINUOUS
10
5.62842
20
-3.5201
11
5.62842
21
-3.51933
0
LINE
8
BLACK
6
CONTINUOUS
10
5.62842
20
-3.51933
11
5.62822
21
-3.51858
0
LINE
8
BLACK
6
CONTINUOUS
10
5.62822
20
-3.51858
11
5.62822
21
-3.21795
0
LINE
8
BLACK
6
CONTINUOUS
10
5.62822
20
-3.21795
11
5.62487
21
-3.21624
0
LINE
8
BLACK
6
CONTINUOUS
10
5.62487
20
-3.21624
11
5.62139
21
-3.21276
0
LINE
8
BLACK
6
CONTINUOUS
10
5.62139
20
-3.21276
11
5.61915
21
-3.20837
0
LINE
8
BLACK
6
CONTINUOUS
10
5.61915
20
-3.20837
11
5.61838
21
-3.2035
0
LINE
8
BLACK
6
CONTINUOUS
10
5.61838
20
-3.2035
11
5.61915
21
-3.19863
0
LINE
8
BLACK
6
CONTINUOUS
10
5.61915
20
-3.19863
11
5.62139
21
-3.19424
0
LINE
8
BLACK
6
CONTINUOUS
10
5.62139
20
-3.19424
11
5.62487
21
-3.19076
0
LINE
8
BLACK
6
CONTINUOUS
10
5.62487
20
-3.19076
11
5.62926
21
-3.18852
0
LINE
8
BLACK
6
CONTINUOUS
10
5.62926
20
-3.18852
11
5.63413
21
-3.18775
0
LINE
8
BLACK
6
CONTINUOUS
10
5.63413
20
-3.18775
11
5.63899
21
-3.18852
0
LINE
8
BLACK
6
CONTINUOUS
10
5.25113
20
-3.02771
11
5.25113
21
-3.02771
0
LINE
8
BLACK
6
CONTINUOUS
10
5.25113
20
-3.02771
11
5.24538
21
-3.0301
0
LINE
8
BLACK
6
CONTINUOUS
10
5.24538
20
-3.0301
11
5.24538
21
-3.0301
0
LINE
8
BLACK
6
CONTINUOUS
10
5.24538
20
-3.0301
11
5.24044
21
-3.03389
0
LINE
8
BLACK
6
CONTINUOUS
10
5.24044
20
-3.03389
11
5.23665
21
-3.03883
0
LINE
8
BLACK
6
CONTINUOUS
10
5.23665
20
-3.03883
11
5.23665
21
-3.03883
0
LINE
8
BLACK
6
CONTINUOUS
10
5.23665
20
-3.03883
11
5.23427
21
-3.04458
0
LINE
8
BLACK
6
CONTINUOUS
10
5.23427
20
-3.04458
11
5.23427
21
-3.04458
0
LINE
8
BLACK
6
CONTINUOUS
10
5.23427
20
-3.04458
11
5.23345
21
-3.05075
0
LINE
8
BLACK
6
CONTINUOUS
10
5.23345
20
-3.05075
11
5.23345
21
-3.05075
0
LINE
8
BLACK
6
CONTINUOUS
10
5.23345
20
-3.05075
11
5.23427
21
-3.05692
0
LINE
8
BLACK
6
CONTINUOUS
10
5.23427
20
-3.05692
11
5.23427
21
-3.05692
0
LINE
8
BLACK
6
CONTINUOUS
10
5.23427
20
-3.05692
11
5.23665
21
-3.06267
0
LINE
8
BLACK
6
CONTINUOUS
10
5.23665
20
-3.06267
11
5.23665
21
-3.06267
0
LINE
8
BLACK
6
CONTINUOUS
10
5.23665
20
-3.06267
11
5.23665
21
-3.06267
0
LINE
8
BLACK
6
CONTINUOUS
10
5.23665
20
-3.06267
11
5.23829
21
-3.06482
0
LINE
8
BLACK
6
CONTINUOUS
10
5.23829
20
-3.06482
11
5.24044
21
-3.06761
0
LINE
8
BLACK
6
CONTINUOUS
10
5.24044
20
-3.06761
11
5.24057
21
-3.06771
0
LINE
8
BLACK
6
CONTINUOUS
10
5.24057
20
-3.06771
11
5.24538
21
-3.0714
0
LINE
8
BLACK
6
CONTINUOUS
10
5.24538
20
-3.0714
11
5.24538
21
-3.0714
0
LINE
8
BLACK
6
CONTINUOUS
10
5.24538
20
-3.0714
11
5.24538
21
-3.0714
0
LINE
8
BLACK
6
CONTINUOUS
10
5.24538
20
-3.0714
11
5.24982
21
-3.07324
0
LINE
8
BLACK
6
CONTINUOUS
10
5.24982
20
-3.07324
11
5.25113
21
-3.07378
0
LINE
8
BLACK
6
CONTINUOUS
10
5.25113
20
-3.07378
11
5.25524
21
-3.07432
0
LINE
8
BLACK
6
CONTINUOUS
10
5.25524
20
-3.07432
11
5.2573
21
-3.07459
0
LINE
8
BLACK
6
CONTINUOUS
10
5.2573
20
-3.07459
11
5.2573
21
-3.07459
0
LINE
8
BLACK
6
CONTINUOUS
10
5.2573
20
-3.07459
11
5.26207
21
-3.07397
0
LINE
8
BLACK
6
CONTINUOUS
10
5.26207
20
-3.07397
11
5.26414
21
-3.07443
0
LINE
8
BLACK
6
CONTINUOUS
10
5.26414
20
-3.07443
11
5.26467
21
-3.07485
0
LINE
8
BLACK
6
CONTINUOUS
10
5.26467
20
-3.07485
11
5.3191
21
-3.12928
0
LINE
8
BLACK
6
CONTINUOUS
10
5.3191
20
-3.12928
11
5.32
21
-3.13121
0
LINE
8
BLACK
6
CONTINUOUS
10
5.32
20
-3.13121
11
5.31945
21
-3.13327
0
LINE
8
BLACK
6
CONTINUOUS
10
5.31945
20
-3.13327
11
5.31771
21
-3.13449
0
LINE
8
BLACK
6
CONTINUOUS
10
5.31771
20
-3.13449
11
5.3169
21
-3.13459
0
LINE
8
BLACK
6
CONTINUOUS
10
5.3169
20
-3.13459
11
5.22516
21
-3.13459
0
LINE
8
BLACK
6
CONTINUOUS
10
5.22516
20
-3.13459
11
5.22316
21
-3.13387
0
LINE
8
BLACK
6
CONTINUOUS
10
5.22316
20
-3.13387
11
5.22296
21
-3.13368
0
LINE
8
BLACK
6
CONTINUOUS
10
5.22296
20
-3.13368
11
5.1874
21
-3.09812
0
LINE
8
BLACK
6
CONTINUOUS
10
5.1874
20
-3.09812
11
5.1865
21
-3.09619
0
LINE
8
BLACK
6
CONTINUOUS
10
5.1865
20
-3.09619
11
5.18652
21
-3.09551
0
LINE
8
BLACK
6
CONTINUOUS
10
5.18652
20
-3.09551
11
5.18714
21
-3.09075
0
LINE
8
BLACK
6
CONTINUOUS
10
5.18714
20
-3.09075
11
5.18633
21
-3.08458
0
LINE
8
BLACK
6
CONTINUOUS
10
5.18633
20
-3.08458
11
5.18579
21
-3.08327
0
LINE
8
BLACK
6
CONTINUOUS
10
5.18579
20
-3.08327
11
5.18395
21
-3.07883
0
LINE
8
BLACK
6
CONTINUOUS
10
5.18395
20
-3.07883
11
5.18395
21
-3.07883
0
LINE
8
BLACK
6
CONTINUOUS
10
5.18395
20
-3.07883
11
5.18395
21
-3.07883
0
LINE
8
BLACK
6
CONTINUOUS
10
5.18395
20
-3.07883
11
5.18181
21
-3.07603
0
LINE
8
BLACK
6
CONTINUOUS
10
5.18181
20
-3.07603
11
5.18016
21
-3.07389
0
LINE
8
BLACK
6
CONTINUOUS
10
5.18016
20
-3.07389
11
5.17692
21
-3.0714
0
LINE
8
BLACK
6
CONTINUOUS
10
5.17692
20
-3.0714
11
5.17522
21
-3.0701
0
LINE
8
BLACK
6
CONTINUOUS
10
5.17522
20
-3.0701
11
5.17522
21
-3.0701
0
LINE
8
BLACK
6
CONTINUOUS
10
5.17522
20
-3.0701
11
5.17522
21
-3.0701
0
LINE
8
BLACK
6
CONTINUOUS
10
5.17522
20
-3.0701
11
5.16947
21
-3.06771
0
LINE
8
BLACK
6
CONTINUOUS
10
5.16947
20
-3.06771
11
5.16947
21
-3.06771
0
LINE
8
BLACK
6
CONTINUOUS
10
5.16947
20
-3.06771
11
5.1633
21
-3.0669
0
LINE
8
BLACK
6
CONTINUOUS
10
5.1633
20
-3.0669
11
5.1633
21
-3.0669
0
LINE
8
BLACK
6
CONTINUOUS
10
5.1633
20
-3.0669
11
5.15713
21
-3.06771
0
LINE
8
BLACK
6
CONTINUOUS
10
5.15713
20
-3.06771
11
5.15713
21
-3.06771
0
LINE
8
BLACK
6
CONTINUOUS
10
5.15713
20
-3.06771
11
5.15138
21
-3.0701
0
LINE
8
BLACK
6
CONTINUOUS
10
5.15138
20
-3.0701
11
5.15138
21
-3.0701
0
LINE
8
BLACK
6
CONTINUOUS
10
5.15138
20
-3.0701
11
5.14644
21
-3.07389
0
LINE
8
BLACK
6
CONTINUOUS
10
5.14644
20
-3.07389
11
5.14265
21
-3.07883
0
LINE
8
BLACK
6
CONTINUOUS
10
5.14265
20
-3.07883
11
5.14265
21
-3.07883
0
LINE
8
BLACK
6
CONTINUOUS
10
5.14265
20
-3.07883
11
5.14027
21
-3.08458
0
LINE
8
BLACK
6
CONTINUOUS
10
5.14027
20
-3.08458
11
5.14027
21
-3.08458
0
LINE
8
BLACK
6
CONTINUOUS
10
5.14027
20
-3.08458
11
5.13945
21
-3.09075
0
LINE
8
BLACK
6
CONTINUOUS
10
5.13945
20
-3.09075
11
5.13945
21
-3.09075
0
LINE
8
BLACK
6
CONTINUOUS
10
5.13945
20
-3.09075
11
5.14027
21
-3.09692
0
LINE
8
BLACK
6
CONTINUOUS
10
5.14027
20
-3.09692
11
5.14027
21
-3.09692
0
LINE
8
BLACK
6
CONTINUOUS
10
5.14027
20
-3.09692
11
5.14265
21
-3.10267
0
LINE
8
BLACK
6
CONTINUOUS
10
5.14265
20
-3.10267
11
5.14265
21
-3.10267
0
LINE
8
BLACK
6
CONTINUOUS
10
5.14265
20
-3.10267
11
5.14265
21
-3.10267
0
LINE
8
BLACK
6
CONTINUOUS
10
5.14265
20
-3.10267
11
5.14429
21
-3.10482
0
LINE
8
BLACK
6
CONTINUOUS
10
5.14429
20
-3.10482
11
5.14644
21
-3.10761
0
LINE
8
BLACK
6
CONTINUOUS
10
5.14644
20
-3.10761
11
5.14858
21
-3.10925
0
LINE
8
BLACK
6
CONTINUOUS
10
5.14858
20
-3.10925
11
5.15138
21
-3.1114
0
LINE
8
BLACK
6
CONTINUOUS
10
5.15138
20
-3.1114
11
5.15138
21
-3.1114
0
LINE
8
BLACK
6
CONTINUOUS
10
5.15138
20
-3.1114
11
5.15138
21
-3.1114
0
LINE
8
BLACK
6
CONTINUOUS
10
5.15138
20
-3.1114
11
5.15582
21
-3.11324
0
LINE
8
BLACK
6
CONTINUOUS
10
5.15582
20
-3.11324
11
5.15713
21
-3.11378
0
LINE
8
BLACK
6
CONTINUOUS
10
5.15713
20
-3.11378
11
5.16124
21
-3.11432
0
LINE
8
BLACK
6
CONTINUOUS
10
5.16124
20
-3.11432
11
5.1633
21
-3.11459
0
LINE
8
BLACK
6
CONTINUOUS
10
5.1633
20
-3.11459
11
5.1633
21
-3.11459
0
LINE
8
BLACK
6
CONTINUOUS
10
5.1633
20
-3.11459
11
5.16807
21
-3.11397
0
LINE
8
BLACK
6
CONTINUOUS
10
5.16807
20
-3.11397
11
5.17014
21
-3.11443
0
LINE
8
BLACK
6
CONTINUOUS
10
5.17014
20
-3.11443
11
5.17067
21
-3.11485
0
LINE
8
BLACK
6
CONTINUOUS
10
5.17067
20
-3.11485
11
5.20083
21
-3.14501
0
LINE
8
BLACK
6
CONTINUOUS
10
5.20083
20
-3.14501
11
5.20173
21
-3.14694
0
LINE
8
BLACK
6
CONTINUOUS
10
5.20173
20
-3.14694
11
5.20118
21
-3.149
0
LINE
8
BLACK
6
CONTINUOUS
10
5.20118
20
-3.149
11
5.19944
21
-3.15022
0
LINE
8
BLACK
6
CONTINUOUS
10
5.19944
20
-3.15022
11
5.19863
21
-3.15032
0
LINE
8
BLACK
6
CONTINUOUS
10
5.19863
20
-3.15032
11
5.16689
21
-3.15032
0
LINE
8
BLACK
6
CONTINUOUS
10
5.16689
20
-3.15032
11
5.16489
21
-3.14959
0
LINE
8
BLACK
6
CONTINUOUS
10
5.16489
20
-3.14959
11
5.16469
21
-3.14941
0
LINE
8
BLACK
6
CONTINUOUS
10
5.16469
20
-3.14941
11
5.1134
21
-3.09812
0
LINE
8
BLACK
6
CONTINUOUS
10
5.1134
20
-3.09812
11
5.1125
21
-3.09619
0
LINE
8
BLACK
6
CONTINUOUS
10
5.1125
20
-3.09619
11
5.11252
21
-3.09551
0
LINE
8
BLACK
6
CONTINUOUS
10
5.11252
20
-3.09551
11
5.11314
21
-3.09075
0
LINE
8
BLACK
6
CONTINUOUS
10
5.11314
20
-3.09075
11
5.11233
21
-3.08458
0
LINE
8
BLACK
6
CONTINUOUS
10
5.11233
20
-3.08458
11
5.11179
21
-3.08327
0
LINE
8
BLACK
6
CONTINUOUS
10
5.11179
20
-3.08327
11
5.10995
21
-3.07883
0
LINE
8
BLACK
6
CONTINUOUS
10
5.10995
20
-3.07883
11
5.10995
21
-3.07883
0
LINE
8
BLACK
6
CONTINUOUS
10
5.10995
20
-3.07883
11
5.10995
21
-3.07883
0
LINE
8
BLACK
6
CONTINUOUS
10
5.10995
20
-3.07883
11
5.10781
21
-3.07603
0
LINE
8
BLACK
6
CONTINUOUS
10
5.10781
20
-3.07603
11
5.10616
21
-3.07389
0
LINE
8
BLACK
6
CONTINUOUS
10
5.10616
20
-3.07389
11
5.10292
21
-3.0714
0
LINE
8
BLACK
6
CONTINUOUS
10
5.10292
20
-3.0714
11
5.10122
21
-3.0701
0
LINE
8
BLACK
6
CONTINUOUS
10
5.10122
20
-3.0701
11
5.10122
21
-3.0701
0
LINE
8
BLACK
6
CONTINUOUS
10
5.10122
20
-3.0701
11
5.10122
21
-3.0701
0
LINE
8
BLACK
6
CONTINUOUS
10
5.10122
20
-3.0701
11
5.09547
21
-3.06771
0
LINE
8
BLACK
6
CONTINUOUS
10
5.09547
20
-3.06771
11
5.09547
21
-3.06771
0
LINE
8
BLACK
6
CONTINUOUS
10
5.09547
20
-3.06771
11
5.0893
21
-3.0669
0
LINE
8
BLACK
6
CONTINUOUS
10
5.0893
20
-3.0669
11
5.0893
21
-3.0669
0
LINE
8
BLACK
6
CONTINUOUS
10
5.0893
20
-3.0669
11
5.08313
21
-3.06771
0
LINE
8
BLACK
6
CONTINUOUS
10
5.08313
20
-3.06771
11
5.08313
21
-3.06771
0
LINE
8
BLACK
6
CONTINUOUS
10
5.08313
20
-3.06771
11
5.07738
21
-3.0701
0
LINE
8
BLACK
6
CONTINUOUS
10
5.07738
20
-3.0701
11
5.07738
21
-3.0701
0
LINE
8
BLACK
6
CONTINUOUS
10
5.07738
20
-3.0701
11
5.07244
21
-3.07389
0
LINE
8
BLACK
6
CONTINUOUS
10
5.07244
20
-3.07389
11
5.06865
21
-3.07883
0
LINE
8
BLACK
6
CONTINUOUS
10
5.06865
20
-3.07883
11
5.06865
21
-3.07883
0
LINE
8
BLACK
6
CONTINUOUS
10
5.06865
20
-3.07883
11
5.06627
21
-3.08458
0
LINE
8
BLACK
6
CONTINUOUS
10
5.06627
20
-3.08458
11
5.06627
21
-3.08458
0
LINE
8
BLACK
6
CONTINUOUS
10
5.06627
20
-3.08458
11
5.06545
21
-3.09075
0
LINE
8
BLACK
6
CONTINUOUS
10
5.06545
20
-3.09075
11
5.06545
21
-3.09075
0
LINE
8
BLACK
6
CONTINUOUS
10
5.06545
20
-3.09075
11
5.06627
21
-3.09692
0
LINE
8
BLACK
6
CONTINUOUS
10
5.06627
20
-3.09692
11
5.06627
21
-3.09692
0
LINE
8
BLACK
6
CONTINUOUS
10
5.06627
20
-3.09692
11
5.06865
21
-3.10267
0
LINE
8
BLACK
6
CONTINUOUS
10
5.06865
20
-3.10267
11
5.06865
21
-3.10267
0
LINE
8
BLACK
6
CONTINUOUS
10
5.06865
20
-3.10267
11
5.06865
21
-3.10267
0
LINE
8
BLACK
6
CONTINUOUS
10
5.06865
20
-3.10267
11
5.07029
21
-3.10482
0
LINE
8
BLACK
6
CONTINUOUS
10
5.07029
20
-3.10482
11
5.07244
21
-3.10761
0
LINE
8
BLACK
6
CONTINUOUS
10
5.07244
20
-3.10761
11
5.07458
21
-3.10925
0
LINE
8
BLACK
6
CONTINUOUS
10
5.07458
20
-3.10925
11
5.07738
21
-3.1114
0
LINE
8
BLACK
6
CONTINUOUS
10
5.07738
20
-3.1114
11
5.07738
21
-3.1114
0
LINE
8
BLACK
6
CONTINUOUS
10
5.07738
20
-3.1114
11
5.07738
21
-3.1114
0
LINE
8
BLACK
6
CONTINUOUS
10
5.07738
20
-3.1114
11
5.08182
21
-3.11324
0
LINE
8
BLACK
6
CONTINUOUS
10
5.08182
20
-3.11324
11
5.08313
21
-3.11378
0
LINE
8
BLACK
6
CONTINUOUS
10
5.08313
20
-3.11378
11
5.08724
21
-3.11432
0
LINE
8
BLACK
6
CONTINUOUS
10
5.08724
20
-3.11432
11
5.0893
21
-3.11459
0
LINE
8
BLACK
6
CONTINUOUS
10
5.0893
20
-3.11459
11
5.0893
21
-3.11459
0
LINE
8
BLACK
6
CONTINUOUS
10
5.0893
20
-3.11459
11
5.09407
21
-3.11397
0
LINE
8
BLACK
6
CONTINUOUS
10
5.09407
20
-3.11397
11
5.09614
21
-3.11443
0
LINE
8
BLACK
6
CONTINUOUS
10
5.09614
20
-3.11443
11
5.09667
21
-3.11485
0
LINE
8
BLACK
6
CONTINUOUS
10
5.09667
20
-3.11485
11
5.15061
21
-3.16879
0
LINE
8
BLACK
6
CONTINUOUS
10
5.15061
20
-3.16879
11
5.1509
21
-3.16919
0
LINE
8
BLACK
6
CONTINUOUS
10
5.1509
20
-3.16919
11
5.15093
21
-3.16918
0
LINE
8
BLACK
6
CONTINUOUS
10
5.15093
20
-3.16918
11
5.1511
21
-3.16941
0
LINE
8
BLACK
6
CONTINUOUS
10
5.1511
20
-3.16941
11
5.15251
21
-3.17069
0
LINE
8
BLACK
6
CONTINUOUS
10
5.15251
20
-3.17069
11
5.15256
21
-3.17074
0
LINE
8
BLACK
6
CONTINUOUS
10
5.15256
20
-3.17074
11
5.15311
21
-3.17129
0
LINE
8
BLACK
6
CONTINUOUS
10
5.15311
20
-3.17129
11
5.15325
21
-3.17139
0
LINE
8
BLACK
6
CONTINUOUS
10
5.15325
20
-3.17139
11
5.15342
21
-3.17152
0
LINE
8
BLACK
6
CONTINUOUS
10
5.15342
20
-3.17152
11
5.15437
21
-3.17239
0
LINE
8
BLACK
6
CONTINUOUS
10
5.15437
20
-3.17239
11
5.15481
21
-3.17256
0
LINE
8
BLACK
6
CONTINUOUS
10
5.15481
20
-3.17256
11
5.15545
21
-3.17289
0
LINE
8
BLACK
6
CONTINUOUS
10
5.15545
20
-3.17289
11
5.15584
21
-3.17316
0
LINE
8
BLACK
6
CONTINUOUS
10
5.15584
20
-3.17316
11
5.15709
21
-3.17346
0
LINE
8
BLACK
6
CONTINUOUS
10
5.15709
20
-3.17346
11
5.1573
21
-3.17352
0
LINE
8
BLACK
6
CONTINUOUS
10
5.1573
20
-3.17352
11
5.1581
21
-3.17383
0
LINE
8
BLACK
6
CONTINUOUS
10
5.1581
20
-3.17383
11
5.15849
21
-3.17398
0
LINE
8
BLACK
6
CONTINUOUS
10
5.15849
20
-3.17398
11
5.15849
21
-3.17398
0
LINE
8
BLACK
6
CONTINUOUS
10
5.15849
20
-3.17398
11
5.15897
21
-3.17398
0
LINE
8
BLACK
6
CONTINUOUS
10
5.15897
20
-3.17398
11
5.15968
21
-3.17407
0
LINE
8
BLACK
6
CONTINUOUS
10
5.15968
20
-3.17407
11
5.16015
21
-3.17418
0
LINE
8
BLACK
6
CONTINUOUS
10
5.16015
20
-3.17418
11
5.16142
21
-3.174
0
LINE
8
BLACK
6
CONTINUOUS
10
5.16142
20
-3.174
11
5.16163
21
-3.17398
0
LINE
8
BLACK
6
CONTINUOUS
10
5.16163
20
-3.17398
11
5.24295
21
-3.17398
0
LINE
8
BLACK
6
CONTINUOUS
10
5.24295
20
-3.17398
11
5.24495
21
-3.17471
0
LINE
8
BLACK
6
CONTINUOUS
10
5.24495
20
-3.17471
11
5.24601
21
-3.17655
0
LINE
8
BLACK
6
CONTINUOUS
10
5.24601
20
-3.17655
11
5.24564
21
-3.17865
0
LINE
8
BLACK
6
CONTINUOUS
10
5.24564
20
-3.17865
11
5.24484
21
-3.17956
0
LINE
8
BLACK
6
CONTINUOUS
10
5.24484
20
-3.17956
11
5.24472
21
-3.17966
0
LINE
8
BLACK
6
CONTINUOUS
10
5.24472
20
-3.17966
11
5.24444
21
-3.17987
0
LINE
8
BLACK
6
CONTINUOUS
10
5.24444
20
-3.17987
11
5.24065
21
-3.18481
0
LINE
8
BLACK
6
CONTINUOUS
10
5.24065
20
-3.18481
11
5.24065
21
-3.18481
0
LINE
8
BLACK
6
CONTINUOUS
10
5.24065
20
-3.18481
11
5.23827
21
-3.19056
0
LINE
8
BLACK
6
CONTINUOUS
10
5.23827
20
-3.19056
11
5.23827
21
-3.19056
0
LINE
8
BLACK
6
CONTINUOUS
10
5.23827
20
-3.19056
11
5.23745
21
-3.19673
0
LINE
8
BLACK
6
CONTINUOUS
10
5.23745
20
-3.19673
11
5.23745
21
-3.19673
0
LINE
8
BLACK
6
CONTINUOUS
10
5.23745
20
-3.19673
11
5.23827
21
-3.2029
0
LINE
8
BLACK
6
CONTINUOUS
10
5.23827
20
-3.2029
11
5.23827
21
-3.2029
0
LINE
8
BLACK
6
CONTINUOUS
10
5.23827
20
-3.2029
11
5.24065
21
-3.20865
0
LINE
8
BLACK
6
CONTINUOUS
10
5.24065
20
-3.20865
11
5.24065
21
-3.20865
0
LINE
8
BLACK
6
CONTINUOUS
10
5.24065
20
-3.20865
11
5.24065
21
-3.20865
0
LINE
8
BLACK
6
CONTINUOUS
10
5.24065
20
-3.20865
11
5.24444
21
-3.21359
0
LINE
8
BLACK
6
CONTINUOUS
10
5.24444
20
-3.21359
11
5.24444
21
-3.21359
0
LINE
8
BLACK
6
CONTINUOUS
10
5.24444
20
-3.21359
11
5.24628
21
-3.21501
0
LINE
8
BLACK
6
CONTINUOUS
10
5.24628
20
-3.21501
11
5.24743
21
-3.2168
0
LINE
8
BLACK
6
CONTINUOUS
10
5.24743
20
-3.2168
11
5.2475
21
-3.21748
0
LINE
8
BLACK
6
CONTINUOUS
10
5.2475
20
-3.21748
11
5.2475
21
-3.22374
0
LINE
8
BLACK
6
CONTINUOUS
10
5.2475
20
-3.22374
11
5.24677
21
-3.22574
0
LINE
8
BLACK
6
CONTINUOUS
10
5.24677
20
-3.22574
11
5.24659
21
-3.22594
0
LINE
8
BLACK
6
CONTINUOUS
10
5.24659
20
-3.22594
11
5.16278
21
-3.30975
0
LINE
8
BLACK
6
CONTINUOUS
10
5.16278
20
-3.30975
11
5.16228
21
-3.31015
0
LINE
8
BLACK
6
CONTINUOUS
10
5.16228
20
-3.31015
11
5.16182
21
-3.31046
0
LINE
8
BLACK
6
CONTINUOUS
10
5.16182
20
-3.31046
11
5.161
21
-3.31152
0
LINE
8
BLACK
6
CONTINUOUS
10
5.161
20
-3.31152
11
5.16087
21
-3.31166
0
LINE
8
BLACK
6
CONTINUOUS
10
5.16087
20
-3.31166
11
5.16073
21
-3.3118
0
LINE
8
BLACK
6
CONTINUOUS
10
5.16073
20
-3.3118
11
5.16025
21
-3.31247
0
LINE
8
BLACK
6
CONTINUOUS
10
5.16025
20
-3.31247
11
5.16021
21
-3.31252
0
LINE
8
BLACK
6
CONTINUOUS
10
5.16021
20
-3.31252
11
5.159
21
-3.31409
0
LINE
8
BLACK
6
CONTINUOUS
10
5.159
20
-3.31409
11
5.15887
21
-3.31432
0
LINE
8
BLACK
6
CONTINUOUS
10
5.15887
20
-3.31432
11
5.15886
21
-3.31431
0
LINE
8
BLACK
6
CONTINUOUS
10
5.15886
20
-3.31431
11
5.15883
21
-3.31436
0
LINE
8
BLACK
6
CONTINUOUS
10
5.15883
20
-3.31436
11
5.15884
21
-3.31437
0
LINE
8
BLACK
6
CONTINUOUS
10
5.15884
20
-3.31437
11
5.15873
21
-3.3146
0
LINE
8
BLACK
6
CONTINUOUS
10
5.15873
20
-3.3146
11
5.15816
21
-3.31651
0
LINE
8
BLACK
6
CONTINUOUS
10
5.15816
20
-3.31651
11
5.15814
21
-3.31657
0
LINE
8
BLACK
6
CONTINUOUS
10
5.15814
20
-3.31657
11
5.1575
21
-3.31845
0
LINE
8
BLACK
6
CONTINUOUS
10
5.1575
20
-3.31845
11
5.15746
21
-3.3187
0
LINE
8
BLACK
6
CONTINUOUS
10
5.15746
20
-3.3187
11
5.15744
21
-3.3187
0
LINE
8
BLACK
6
CONTINUOUS
10
5.15744
20
-3.3187
11
5.15743
21
-3.31876
0
LINE
8
BLACK
6
CONTINUOUS
10
5.15743
20
-3.31876
11
5.15745
21
-3.31876
0
LINE
8
BLACK
6
CONTINUOUS
10
5.15745
20
-3.31876
11
5.15742
21
-3.31902
0
LINE
8
BLACK
6
CONTINUOUS
10
5.15742
20
-3.31902
11
5.1575
21
-3.321
0
LINE
8
BLACK
6
CONTINUOUS
10
5.1575
20
-3.321
11
5.1575
21
-3.32107
0
LINE
8
BLACK
6
CONTINUOUS
10
5.1575
20
-3.32107
11
5.1575
21
-3.32374
0
LINE
8
BLACK
6
CONTINUOUS
10
5.1575
20
-3.32374
11
5.15677
21
-3.32574
0
LINE
8
BLACK
6
CONTINUOUS
10
5.15677
20
-3.32574
11
5.15659
21
-3.32594
0
LINE
8
BLACK
6
CONTINUOUS
10
5.15659
20
-3.32594
11
5.13459
21
-3.34794
0
LINE
8
BLACK
6
CONTINUOUS
10
5.13459
20
-3.34794
11
5.13266
21
-3.34884
0
LINE
8
BLACK
6
CONTINUOUS
10
5.13266
20
-3.34884
11
5.13239
21
-3.34885
0
LINE
8
BLACK
6
CONTINUOUS
10
5.13239
20
-3.34885
11
5.08452
21
-3.34885
0
LINE
8
BLACK
6
CONTINUOUS
10
5.08452
20
-3.34885
11
5.08222
21
-3.34931
0
LINE
8
BLACK
6
CONTINUOUS
10
5.08222
20
-3.34931
11
5.07961
21
-3.35106
0
LINE
8
BLACK
6
CONTINUOUS
10
5.07961
20
-3.35106
11
5.07786
21
-3.35367
0
LINE
8
BLACK
6
CONTINUOUS
10
5.07786
20
-3.35367
11
5.07741
21
-3.35597
0
LINE
8
BLACK
6
CONTINUOUS
10
5.07741
20
-3.35597
11
5.07741
21
-3.41753
0
LINE
8
BLACK
6
CONTINUOUS
10
5.07741
20
-3.41753
11
5.07786
21
-3.41983
0
LINE
8
BLACK
6
CONTINUOUS
10
5.07786
20
-3.41983
11
5.07786
21
-3.41983
0
LINE
8
BLACK
6
CONTINUOUS
10
5.07786
20
-3.41983
11
5.07961
21
-3.42244
0
LINE
8
BLACK
6
CONTINUOUS
10
5.07961
20
-3.42244
11
5.08222
21
-3.42418
0
LINE
8
BLACK
6
CONTINUOUS
10
5.08222
20
-3.42418
11
5.08222
21
-3.42418
0
LINE
8
BLACK
6
CONTINUOUS
10
5.08222
20
-3.42418
11
5.08452
21
-3.42464
0
LINE
8
BLACK
6
CONTINUOUS
10
5.08452
20
-3.42464
11
5.14608
21
-3.42464
0
LINE
8
BLACK
6
CONTINUOUS
10
5.14608
20
-3.42464
11
5.14838
21
-3.42418
0
LINE
8
BLACK
6
CONTINUOUS
10
5.14838
20
-3.42418
11
5.15099
21
-3.42244
0
LINE
8
BLACK
6
CONTINUOUS
10
5.15099
20
-3.42244
11
5.15273
21
-3.41983
0
LINE
8
BLACK
6
CONTINUOUS
10
5.15273
20
-3.41983
11
5.15319
21
-3.41753
0
LINE
8
BLACK
6
CONTINUOUS
10
5.15319
20
-3.41753
11
5.15319
21
-3.36966
0
LINE
8
BLACK
6
CONTINUOUS
10
5.15319
20
-3.36966
11
5.15392
21
-3.36766
0
LINE
8
BLACK
6
CONTINUOUS
10
5.15392
20
-3.36766
11
5.1541
21
-3.36746
0
LINE
8
BLACK
6
CONTINUOUS
10
5.1541
20
-3.36746
11
5.17982
21
-3.34175
0
LINE
8
BLACK
6
CONTINUOUS
10
5.17982
20
-3.34175
11
5.18031
21
-3.34134
0
LINE
8
BLACK
6
CONTINUOUS
10
5.18031
20
-3.34134
11
5.18077
21
-3.34104
0
LINE
8
BLACK
6
CONTINUOUS
10
5.18077
20
-3.34104
11
5.1816
21
-3.33998
0
LINE
8
BLACK
6
CONTINUOUS
10
5.1816
20
-3.33998
11
5.18173
21
-3.33983
0
LINE
8
BLACK
6
CONTINUOUS
10
5.18173
20
-3.33983
11
5.18187
21
-3.3397
0
LINE
8
BLACK
6
CONTINUOUS
10
5.18187
20
-3.3397
11
5.18235
21
-3.33902
0
LINE
8
BLACK
6
CONTINUOUS
10
5.18235
20
-3.33902
11
5.18238
21
-3.33897
0
LINE
8
BLACK
6
CONTINUOUS
10
5.18238
20
-3.33897
11
5.1836
21
-3.33741
0
LINE
8
BLACK
6
CONTINUOUS
10
5.1836
20
-3.33741
11
5.1836
21
-3.33741
0
LINE
8
BLACK
6
CONTINUOUS
10
5.1836
20
-3.33741
11
5.1836
21
-3.33741
0
LINE
8
BLACK
6
CONTINUOUS
10
5.1836
20
-3.33741
11
5.18373
21
-3.33718
0
LINE
8
BLACK
6
CONTINUOUS
10
5.18373
20
-3.33718
11
5.18374
21
-3.33719
0
LINE
8
BLACK
6
CONTINUOUS
10
5.18374
20
-3.33719
11
5.18377
21
-3.33713
0
LINE
8
BLACK
6
CONTINUOUS
10
5.18377
20
-3.33713
11
5.18375
21
-3.33712
0
LINE
8
BLACK
6
CONTINUOUS
10
5.18375
20
-3.33712
11
5.18387
21
-3.33689
0
LINE
8
BLACK
6
CONTINUOUS
10
5.18387
20
-3.33689
11
5.18387
21
-3.33689
0
LINE
8
BLACK
6
CONTINUOUS
10
5.18387
20
-3.33689
11
5.18443
21
-3.33499
0
LINE
8
BLACK
6
CONTINUOUS
10
5.18443
20
-3.33499
11
5.18445
21
-3.33493
0
LINE
8
BLACK
6
CONTINUOUS
10
5.18445
20
-3.33493
11
5.1851
21
-3.33305
0
LINE
8
BLACK
6
CONTINUOUS
10
5.1851
20
-3.33305
11
5.1851
21
-3.33305
0
LINE
8
BLACK
6
CONTINUOUS
10
5.1851
20
-3.33305
11
5.18514
21
-3.3328
0
LINE
8
BLACK
6
CONTINUOUS
10
5.18514
20
-3.3328
11
5.18516
21
-3.3328
0
LINE
8
BLACK
6
CONTINUOUS
10
5.18516
20
-3.3328
11
5.18517
21
-3.33274
0
LINE
8
BLACK
6
CONTINUOUS
10
5.18517
20
-3.33274
11
5.18515
21
-3.33273
0
LINE
8
BLACK
6
CONTINUOUS
10
5.18515
20
-3.33273
11
5.18518
21
-3.33248
0
LINE
8
BLACK
6
CONTINUOUS
10
5.18518
20
-3.33248
11
5.18518
21
-3.33248
0
LINE
8
BLACK
6
CONTINUOUS
10
5.18518
20
-3.33248
11
5.18514
21
-3.33135
0
LINE
8
BLACK
6
CONTINUOUS
10
5.18514
20
-3.33135
11
5.1851
21
-3.33049
0
LINE
8
BLACK
6
CONTINUOUS
10
5.1851
20
-3.33049
11
5.1851
21
-3.33043
0
LINE
8
BLACK
6
CONTINUOUS
10
5.1851
20
-3.33043
11
5.1851
21
-3.32775
0
LINE
8
BLACK
6
CONTINUOUS
10
5.1851
20
-3.32775
11
5.18583
21
-3.32575
0
LINE
8
BLACK
6
CONTINUOUS
10
5.18583
20
-3.32575
11
5.18601
21
-3.32555
0
LINE
8
BLACK
6
CONTINUOUS
10
5.18601
20
-3.32555
11
5.26982
21
-3.24175
0
LINE
8
BLACK
6
CONTINUOUS
10
5.26982
20
-3.24175
11
5.27031
21
-3.24134
0
LINE
8
BLACK
6
CONTINUOUS
10
5.27031
20
-3.24134
11
5.27077
21
-3.24104
0
LINE
8
BLACK
6
CONTINUOUS
10
5.27077
20
-3.24104
11
5.2716
21
-3.23998
0
LINE
8
BLACK
6
CONTINUOUS
10
5.2716
20
-3.23998
11
5.27173
21
-3.23983
0
LINE
8
BLACK
6
CONTINUOUS
10
5.27173
20
-3.23983
11
5.27187
21
-3.2397
0
LINE
8
BLACK
6
CONTINUOUS
10
5.27187
20
-3.2397
11
5.27235
21
-3.23902
0
LINE
8
BLACK
6
CONTINUOUS
10
5.27235
20
-3.23902
11
5.27238
21
-3.23897
0
LINE
8
BLACK
6
CONTINUOUS
10
5.27238
20
-3.23897
11
5.27262
21
-3.23867
0
LINE
8
BLACK
6
CONTINUOUS
10
5.27262
20
-3.23867
11
5.2736
21
-3.23741
0
LINE
8
BLACK
6
CONTINUOUS
10
5.2736
20
-3.23741
11
5.2736
21
-3.23741
0
LINE
8
BLACK
6
CONTINUOUS
10
5.2736
20
-3.23741
11
5.27373
21
-3.23718
0
LINE
8
BLACK
6
CONTINUOUS
10
5.27373
20
-3.23718
11
5.27374
21
-3.23719
0
LINE
8
BLACK
6
CONTINUOUS
10
5.27374
20
-3.23719
11
5.27377
21
-3.23713
0
LINE
8
BLACK
6
CONTINUOUS
10
5.27377
20
-3.23713
11
5.27375
21
-3.23712
0
LINE
8
BLACK
6
CONTINUOUS
10
5.27375
20
-3.23712
11
5.27387
21
-3.23689
0
LINE
8
BLACK
6
CONTINUOUS
10
5.27387
20
-3.23689
11
5.27387
21
-3.23689
0
LINE
8
BLACK
6
CONTINUOUS
10
5.27387
20
-3.23689
11
5.27443
21
-3.23499
0
LINE
8
BLACK
6
CONTINUOUS
10
5.27443
20
-3.23499
11
5.27445
21
-3.23493
0
LINE
8
BLACK
6
CONTINUOUS
10
5.27445
20
-3.23493
11
5.2751
21
-3.23305
0
LINE
8
BLACK
6
CONTINUOUS
10
5.2751
20
-3.23305
11
5.2751
21
-3.23305
0
LINE
8
BLACK
6
CONTINUOUS
10
5.2751
20
-3.23305
11
5.27514
21
-3.2328
0
LINE
8
BLACK
6
CONTINUOUS
10
5.27514
20
-3.2328
11
5.27516
21
-3.2328
0
LINE
8
BLACK
6
CONTINUOUS
10
5.27516
20
-3.2328
11
5.27517
21
-3.23274
0
LINE
8
BLACK
6
CONTINUOUS
10
5.27517
20
-3.23274
11
5.27515
21
-3.23273
0
LINE
8
BLACK
6
CONTINUOUS
10
5.27515
20
-3.23273
11
5.27518
21
-3.23248
0
LINE
8
BLACK
6
CONTINUOUS
10
5.27518
20
-3.23248
11
5.27518
21
-3.23248
0
LINE
8
BLACK
6
CONTINUOUS
10
5.27518
20
-3.23248
11
5.27514
21
-3.23135
0
LINE
8
BLACK
6
CONTINUOUS
10
5.27514
20
-3.23135
11
5.2751
21
-3.23049
0
LINE
8
BLACK
6
CONTINUOUS
10
5.2751
20
-3.23049
11
5.2751
21
-3.23043
0
LINE
8
BLACK
6
CONTINUOUS
10
5.2751
20
-3.23043
11
5.2751
21
-3.21748
0
LINE
8
BLACK
6
CONTINUOUS
10
5.2751
20
-3.21748
11
5.27583
21
-3.21548
0
LINE
8
BLACK
6
CONTINUOUS
10
5.27583
20
-3.21548
11
5.27632
21
-3.21501
0
LINE
8
BLACK
6
CONTINUOUS
10
5.27632
20
-3.21501
11
5.27685
21
-3.2146
0
LINE
8
BLACK
6
CONTINUOUS
10
5.27685
20
-3.2146
11
5.27816
21
-3.21359
0
LINE
8
BLACK
6
CONTINUOUS
10
5.27816
20
-3.21359
11
5.28195
21
-3.20865
0
LINE
8
BLACK
6
CONTINUOUS
10
5.28195
20
-3.20865
11
5.28433
21
-3.2029
0
LINE
8
BLACK
6
CONTINUOUS
10
5.28433
20
-3.2029
11
5.28514
21
-3.19673
0
LINE
8
BLACK
6
CONTINUOUS
10
5.28514
20
-3.19673
11
5.28433
21
-3.19056
0
LINE
8
BLACK
6
CONTINUOUS
10
5.28433
20
-3.19056
11
5.28195
21
-3.18481
0
LINE
8
BLACK
6
CONTINUOUS
10
5.28195
20
-3.18481
11
5.27816
21
-3.17987
0
LINE
8
BLACK
6
CONTINUOUS
10
5.27816
20
-3.17987
11
5.27776
21
-3.17956
0
LINE
8
BLACK
6
CONTINUOUS
10
5.27776
20
-3.17956
11
5.27661
21
-3.17777
0
LINE
8
BLACK
6
CONTINUOUS
10
5.27661
20
-3.17777
11
5.27689
21
-3.17566
0
LINE
8
BLACK
6
CONTINUOUS
10
5.27689
20
-3.17566
11
5.27846
21
-3.17422
0
LINE
8
BLACK
6
CONTINUOUS
10
5.27846
20
-3.17422
11
5.27965
21
-3.17398
0
LINE
8
BLACK
6
CONTINUOUS
10
5.27965
20
-3.17398
11
5.41604
21
-3.17398
0
LINE
8
BLACK
6
CONTINUOUS
10
5.41604
20
-3.17398
11
5.41793
21
-3.17463
0
LINE
8
BLACK
6
CONTINUOUS
10
5.41793
20
-3.17463
11
5.4225
21
-3.17813
0
LINE
8
BLACK
6
CONTINUOUS
10
5.4225
20
-3.17813
11
5.4225
21
-3.17813
0
LINE
8
BLACK
6
CONTINUOUS
10
5.4225
20
-3.17813
11
5.4225
21
-3.17813
0
LINE
8
BLACK
6
CONTINUOUS
10
5.4225
20
-3.17813
11
5.42595
21
-3.17956
0
LINE
8
BLACK
6
CONTINUOUS
10
5.42595
20
-3.17956
11
5.42825
21
-3.18051
0
LINE
8
BLACK
6
CONTINUOUS
10
5.42825
20
-3.18051
11
5.43237
21
-3.18105
0
LINE
8
BLACK
6
CONTINUOUS
10
5.43237
20
-3.18105
11
5.43442
21
-3.18133
0
LINE
8
BLACK
6
CONTINUOUS
10
5.43442
20
-3.18133
11
5.43442
21
-3.18133
0
LINE
8
BLACK
6
CONTINUOUS
10
5.43442
20
-3.18133
11
5.43442
21
-3.18133
0
LINE
8
BLACK
6
CONTINUOUS
10
5.43442
20
-3.18133
11
5.43597
21
-3.18112
0
LINE
8
BLACK
6
CONTINUOUS
10
5.43597
20
-3.18112
11
5.4406
21
-3.18051
0
LINE
8
BLACK
6
CONTINUOUS
10
5.4406
20
-3.18051
11
5.44635
21
-3.17813
0
LINE
8
BLACK
6
CONTINUOUS
10
5.44635
20
-3.17813
11
5.45128
21
-3.17434
0
LINE
8
BLACK
6
CONTINUOUS
10
5.45128
20
-3.17434
11
5.45507
21
-3.1694
0
LINE
8
BLACK
6
CONTINUOUS
10
5.45507
20
-3.1694
11
5.45746
21
-3.16365
0
LINE
8
BLACK
6
CONTINUOUS
10
5.45746
20
-3.16365
11
5.45827
21
-3.15748
0
LINE
8
BLACK
6
CONTINUOUS
10
5.45827
20
-3.15748
11
5.45824
21
-3.15725
0
LINE
8
BLACK
6
CONTINUOUS
10
5.45824
20
-3.15725
11
5.45769
21
-3.15307
0
LINE
8
BLACK
6
CONTINUOUS
10
5.45769
20
-3.15307
11
5.45746
21
-3.15131
0
LINE
8
BLACK
6
CONTINUOUS
10
5.45746
20
-3.15131
11
5.45649
21
-3.14898
0
LINE
8
BLACK
6
CONTINUOUS
10
5.45649
20
-3.14898
11
5.4564
21
-3.14685
0
LINE
8
BLACK
6
CONTINUOUS
10
5.4564
20
-3.14685
11
5.45769
21
-3.14516
0
LINE
8
BLACK
6
CONTINUOUS
10
5.45769
20
-3.14516
11
5.45817
21
-3.14491
0
LINE
8
BLACK
6
CONTINUOUS
10
5.45817
20
-3.14491
11
5.46349
21
-3.14271
0
LINE
8
BLACK
6
CONTINUOUS
10
5.46349
20
-3.14271
11
5.46843
21
-3.13892
0
LINE
8
BLACK
6
CONTINUOUS
10
5.46843
20
-3.13892
11
5.47222
21
-3.13398
0
LINE
8
BLACK
6
CONTINUOUS
10
5.47222
20
-3.13398
11
5.47439
21
-3.12875
0
LINE
8
BLACK
6
CONTINUOUS
10
5.47439
20
-3.12875
11
5.47583
21
-3.12718
0
LINE
8
BLACK
6
CONTINUOUS
10
5.47583
20
-3.12718
11
5.47794
21
-3.1269
0
LINE
8
BLACK
6
CONTINUOUS
10
5.47794
20
-3.1269
11
5.47946
21
-3.12774
0
LINE
8
BLACK
6
CONTINUOUS
10
5.47946
20
-3.12774
11
5.51422
21
-3.1625
0
LINE
8
BLACK
6
CONTINUOUS
10
5.51422
20
-3.1625
11
5.51512
21
-3.16443
0
LINE
8
BLACK
6
CONTINUOUS
10
5.51512
20
-3.16443
11
5.51514
21
-3.1647
0
LINE
8
BLACK
6
CONTINUOUS
10
5.51514
20
-3.1647
11
5.51514
21
-3.16521
0
LINE
8
BLACK
6
CONTINUOUS
10
5.51514
20
-3.16521
11
5.51441
21
-3.16721
0
LINE
8
BLACK
6
CONTINUOUS
10
5.51441
20
-3.16721
11
5.51392
21
-3.16768
0
LINE
8
BLACK
6
CONTINUOUS
10
5.51392
20
-3.16768
11
5.51011
21
-3.17061
0
LINE
8
BLACK
6
CONTINUOUS
10
5.51011
20
-3.17061
11
5.50632
21
-3.17555
0
LINE
8
BLACK
6
CONTINUOUS
10
5.50632
20
-3.17555
11
5.50632
21
-3.17555
0
LINE
8
BLACK
6
CONTINUOUS
10
5.50632
20
-3.17555
11
5.50393
21
-3.1813
0
LINE
8
BLACK
6
CONTINUOUS
10
5.50393
20
-3.1813
11
5.50393
21
-3.1813
0
LINE
8
BLACK
6
CONTINUOUS
10
5.50393
20
-3.1813
11
5.50312
21
-3.18747
0
LINE
8
BLACK
6
CONTINUOUS
10
5.50312
20
-3.18747
11
5.50312
21
-3.18747
0
LINE
8
BLACK
6
CONTINUOUS
10
5.50312
20
-3.18747
11
5.50393
21
-3.19364
0
LINE
8
BLACK
6
CONTINUOUS
10
5.50393
20
-3.19364
11
5.50393
21
-3.19364
0
LINE
8
BLACK
6
CONTINUOUS
10
5.50393
20
-3.19364
11
5.50632
21
-3.19939
0
LINE
8
BLACK
6
CONTINUOUS
10
5.50632
20
-3.19939
11
5.50632
21
-3.19939
0
LINE
8
BLACK
6
CONTINUOUS
10
5.50632
20
-3.19939
11
5.50632
21
-3.19939
0
LINE
8
BLACK
6
CONTINUOUS
10
5.50632
20
-3.19939
11
5.50796
21
-3.20154
0
LINE
8
BLACK
6
CONTINUOUS
10
5.50796
20
-3.20154
11
5.51011
21
-3.20433
0
LINE
8
BLACK
6
CONTINUOUS
10
5.51011
20
-3.20433
11
5.51225
21
-3.20598
0
LINE
8
BLACK
6
CONTINUOUS
10
5.51225
20
-3.20598
11
5.51504
21
-3.20812
0
LINE
8
BLACK
6
CONTINUOUS
10
5.51504
20
-3.20812
11
5.51504
21
-3.20812
0
LINE
8
BLACK
6
CONTINUOUS
10
5.51504
20
-3.20812
11
5.51504
21
-3.20812
0
LINE
8
BLACK
6
CONTINUOUS
10
5.51504
20
-3.20812
11
5.51931
21
-3.20989
0
LINE
8
BLACK
6
CONTINUOUS
10
5.51931
20
-3.20989
11
5.52079
21
-3.2105
0
LINE
8
BLACK
6
CONTINUOUS
10
5.52079
20
-3.2105
11
5.52363
21
-3.21088
0
LINE
8
BLACK
6
CONTINUOUS
10
5.52363
20
-3.21088
11
5.52697
21
-3.21131
0
LINE
8
BLACK
6
CONTINUOUS
10
5.52697
20
-3.21131
11
5.52697
21
-3.21131
0
LINE
8
BLACK
6
CONTINUOUS
10
5.52697
20
-3.21131
11
5.52697
21
-3.21131
0
LINE
8
BLACK
6
CONTINUOUS
10
5.52697
20
-3.21131
11
5.52871
21
-3.21108
0
LINE
8
BLACK
6
CONTINUOUS
10
5.52871
20
-3.21108
11
5.53314
21
-3.2105
0
LINE
8
BLACK
6
CONTINUOUS
10
5.53314
20
-3.2105
11
5.53889
21
-3.20812
0
LINE
8
BLACK
6
CONTINUOUS
10
5.53889
20
-3.20812
11
5.54383
21
-3.20433
0
LINE
8
BLACK
6
CONTINUOUS
10
5.54383
20
-3.20433
11
5.54762
21
-3.19939
0
LINE
8
BLACK
6
CONTINUOUS
10
5.54762
20
-3.19939
11
5.55
21
-3.19364
0
LINE
8
BLACK
6
CONTINUOUS
10
5.55
20
-3.19364
11
5.55081
21
-3.18747
0
LINE
8
BLACK
6
CONTINUOUS
10
5.55081
20
-3.18747
11
5.55
21
-3.1813
0
LINE
8
BLACK
6
CONTINUOUS
10
5.55
20
-3.1813
11
5.54762
21
-3.17555
0
LINE
8
BLACK
6
CONTINUOUS
10
5.54762
20
-3.17555
11
5.54383
21
-3.17061
0
LINE
8
BLACK
6
CONTINUOUS
10
5.54383
20
-3.17061
11
5.54226
21
-3.1694
0
LINE
8
BLACK
6
CONTINUOUS
10
5.54226
20
-3.1694
11
5.54001
21
-3.16768
0
LINE
8
BLACK
6
CONTINUOUS
10
5.54001
20
-3.16768
11
5.53887
21
-3.16589
0
LINE
8
BLACK
6
CONTINUOUS
10
5.53887
20
-3.16589
11
5.5388
21
-3.16521
0
LINE
8
BLACK
6
CONTINUOUS
10
5.5388
20
-3.16521
11
5.5388
21
-3.16095
0
LINE
8
BLACK
6
CONTINUOUS
10
5.5388
20
-3.16095
11
5.53888
21
-3.16046
0
LINE
8
BLACK
6
CONTINUOUS
10
5.53888
20
-3.16046
11
5.53885
21
-3.16046
0
LINE
8
BLACK
6
CONTINUOUS
10
5.53885
20
-3.16046
11
5.53889
21
-3.16017
0
LINE
8
BLACK
6
CONTINUOUS
10
5.53889
20
-3.16017
11
5.5388
21
-3.15827
0
LINE
8
BLACK
6
CONTINUOUS
10
5.5388
20
-3.15827
11
5.5388
21
-3.1582
0
LINE
8
BLACK
6
CONTINUOUS
10
5.5388
20
-3.1582
11
5.5388
21
-3.15742
0
LINE
8
BLACK
6
CONTINUOUS
10
5.5388
20
-3.15742
11
5.5388
21
-3.15742
0
LINE
8
BLACK
6
CONTINUOUS
10
5.5388
20
-3.15742
11
5.53877
21
-3.15725
0
LINE
8
BLACK
6
CONTINUOUS
10
5.53877
20
-3.15725
11
5.53874
21
-3.15704
0
LINE
8
BLACK
6
CONTINUOUS
10
5.53874
20
-3.15704
11
5.53873
21
-3.15686
0
LINE
8
BLACK
6
CONTINUOUS
10
5.53873
20
-3.15686
11
5.53868
21
-3.15576
0
LINE
8
BLACK
6
CONTINUOUS
10
5.53868
20
-3.15576
11
5.53849
21
-3.15532
0
LINE
8
BLACK
6
CONTINUOUS
10
5.53849
20
-3.15532
11
5.53828
21
-3.15463
0
LINE
8
BLACK
6
CONTINUOUS
10
5.53828
20
-3.15463
11
5.53819
21
-3.15416
0
LINE
8
BLACK
6
CONTINUOUS
10
5.53819
20
-3.15416
11
5.53819
21
-3.15416
0
LINE
8
BLACK
6
CONTINUOUS
10
5.53819
20
-3.15416
11
5.53751
21
-3.15307
0
LINE
8
BLACK
6
CONTINUOUS
10
5.53751
20
-3.15307
11
5.53741
21
-3.15288
0
LINE
8
BLACK
6
CONTINUOUS
10
5.53741
20
-3.15288
11
5.53721
21
-3.15241
0
LINE
8
BLACK
6
CONTINUOUS
10
5.53721
20
-3.15241
11
5.5369
21
-3.15171
0
LINE
8
BLACK
6
CONTINUOUS
10
5.5369
20
-3.15171
11
5.5369
21
-3.15171
0
LINE
8
BLACK
6
CONTINUOUS
10
5.5369
20
-3.15171
11
5.53656
21
-3.15137
0
LINE
8
BLACK
6
CONTINUOUS
10
5.53656
20
-3.15137
11
5.53611
21
-3.15081
0
LINE
8
BLACK
6
CONTINUOUS
10
5.53611
20
-3.15081
11
5.53586
21
-3.1504
0
LINE
8
BLACK
6
CONTINUOUS
10
5.53586
20
-3.1504
11
5.53484
21
-3.14963
0
LINE
8
BLACK
6
CONTINUOUS
10
5.53484
20
-3.14963
11
5.53468
21
-3.14949
0
LINE
8
BLACK
6
CONTINUOUS
10
5.53468
20
-3.14949
11
5.46729
21
-3.08211
0
LINE
8
BLACK
6
CONTINUOUS
10
5.46729
20
-3.08211
11
5.46701
21
-3.08171
0
LINE
8
BLACK
6
CONTINUOUS
10
5.46701
20
-3.08171
11
5.46698
21
-3.08172
0
LINE
8
BLACK
6
CONTINUOUS
10
5.46698
20
-3.08172
11
5.46681
21
-3.08149
0
LINE
8
BLACK
6
CONTINUOUS
10
5.46681
20
-3.08149
11
5.46622
21
-3.08096
0
LINE
8
BLACK
6
CONTINUOUS
10
5.46622
20
-3.08096
11
5.4654
21
-3.08021
0
LINE
8
BLACK
6
CONTINUOUS
10
5.4654
20
-3.08021
11
5.46535
21
-3.08016
0
LINE
8
BLACK
6
CONTINUOUS
10
5.46535
20
-3.08016
11
5.46479
21
-3.07961
0
LINE
8
BLACK
6
CONTINUOUS
10
5.46479
20
-3.07961
11
5.46466
21
-3.07951
0
LINE
8
BLACK
6
CONTINUOUS
10
5.46466
20
-3.07951
11
5.46449
21
-3.07938
0
LINE
8
BLACK
6
CONTINUOUS
10
5.46449
20
-3.07938
11
5.46354
21
-3.07852
0
LINE
8
BLACK
6
CONTINUOUS
10
5.46354
20
-3.07852
11
5.46354
21
-3.07852
0
LINE
8
BLACK
6
CONTINUOUS
10
5.46354
20
-3.07852
11
5.46354
21
-3.07852
0
LINE
8
BLACK
6
CONTINUOUS
10
5.46354
20
-3.07852
11
5.46354
21
-3.07851
0
LINE
8
BLACK
6
CONTINUOUS
10
5.46354
20
-3.07851
11
5.46309
21
-3.07834
0
LINE
8
BLACK
6
CONTINUOUS
10
5.46309
20
-3.07834
11
5.46246
21
-3.07801
0
LINE
8
BLACK
6
CONTINUOUS
10
5.46246
20
-3.07801
11
5.46206
21
-3.07774
0
LINE
8
BLACK
6
CONTINUOUS
10
5.46206
20
-3.07774
11
5.46082
21
-3.07744
0
LINE
8
BLACK
6
CONTINUOUS
10
5.46082
20
-3.07744
11
5.46061
21
-3.07738
0
LINE
8
BLACK
6
CONTINUOUS
10
5.46061
20
-3.07738
11
5.45941
21
-3.07692
0
LINE
8
BLACK
6
CONTINUOUS
10
5.45941
20
-3.07692
11
5.45941
21
-3.07692
0
LINE
8
BLACK
6
CONTINUOUS
10
5.45941
20
-3.07692
11
5.45894
21
-3.07692
0
LINE
8
BLACK
6
CONTINUOUS
10
5.45894
20
-3.07692
11
5.45822
21
-3.07683
0
LINE
8
BLACK
6
CONTINUOUS
10
5.45822
20
-3.07683
11
5.45804
21
-3.07679
0
LINE
8
BLACK
6
CONTINUOUS
10
5.45804
20
-3.07679
11
5.45776
21
-3.07673
0
LINE
8
BLACK
6
CONTINUOUS
10
5.45776
20
-3.07673
11
5.45695
21
-3.07684
0
LINE
8
BLACK
6
CONTINUOUS
10
5.45695
20
-3.07684
11
5.45649
21
-3.0769
0
LINE
8
BLACK
6
CONTINUOUS
10
5.45649
20
-3.0769
11
5.45627
21
-3.07692
0
LINE
8
BLACK
6
CONTINUOUS
10
5.45627
20
-3.07692
11
5.42968
21
-3.07692
0
LINE
8
BLACK
6
CONTINUOUS
10
5.42968
20
-3.07692
11
5.4292
21
-3.07684
0
LINE
8
BLACK
6
CONTINUOUS
10
5.4292
20
-3.07684
11
5.42919
21
-3.07687
0
LINE
8
BLACK
6
CONTINUOUS
10
5.42919
20
-3.07687
11
5.42891
21
-3.07683
0
LINE
8
BLACK
6
CONTINUOUS
10
5.42891
20
-3.07683
11
5.42701
21
-3.07692
0
LINE
8
BLACK
6
CONTINUOUS
10
5.42701
20
-3.07692
11
5.42694
21
-3.07692
0
LINE
8
BLACK
6
CONTINUOUS
10
5.42694
20
-3.07692
11
5.42615
21
-3.07692
0
LINE
8
BLACK
6
CONTINUOUS
10
5.42615
20
-3.07692
11
5.42598
21
-3.07695
0
LINE
8
BLACK
6
CONTINUOUS
10
5.42598
20
-3.07695
11
5.42577
21
-3.07697
0
LINE
8
BLACK
6
CONTINUOUS
10
5.42577
20
-3.07697
11
5.42449
21
-3.07703
0
LINE
8
BLACK
6
CONTINUOUS
10
5.42449
20
-3.07703
11
5.42449
21
-3.07703
0
LINE
8
BLACK
6
CONTINUOUS
10
5.42449
20
-3.07703
11
5.42449
21
-3.07703
0
LINE
8
BLACK
6
CONTINUOUS
10
5.42449
20
-3.07703
11
5.42405
21
-3.07723
0
LINE
8
BLACK
6
CONTINUOUS
10
5.42405
20
-3.07723
11
5.42337
21
-3.07744
0
LINE
8
BLACK
6
CONTINUOUS
10
5.42337
20
-3.07744
11
5.4229
21
-3.07753
0
LINE
8
BLACK
6
CONTINUOUS
10
5.4229
20
-3.07753
11
5.42181
21
-3.0782
0
LINE
8
BLACK
6
CONTINUOUS
10
5.42181
20
-3.0782
11
5.42162
21
-3.0783
0
LINE
8
BLACK
6
CONTINUOUS
10
5.42162
20
-3.0783
11
5.42044
21
-3.07882
0
LINE
8
BLACK
6
CONTINUOUS
10
5.42044
20
-3.07882
11
5.42044
21
-3.07882
0
LINE
8
BLACK
6
CONTINUOUS
10
5.42044
20
-3.07882
11
5.42011
21
-3.07916
0
LINE
8
BLACK
6
CONTINUOUS
10
5.42011
20
-3.07916
11
5.41954
21
-3.0796
0
LINE
8
BLACK
6
CONTINUOUS
10
5.41954
20
-3.0796
11
5.41914
21
-3.07985
0
LINE
8
BLACK
6
CONTINUOUS
10
5.41914
20
-3.07985
11
5.41914
21
-3.07985
0
LINE
8
BLACK
6
CONTINUOUS
10
5.41914
20
-3.07985
11
5.41836
21
-3.08088
0
LINE
8
BLACK
6
CONTINUOUS
10
5.41836
20
-3.08088
11
5.41822
21
-3.08104
0
LINE
8
BLACK
6
CONTINUOUS
10
5.41822
20
-3.08104
11
5.38131
21
-3.11795
0
LINE
8
BLACK
6
CONTINUOUS
10
5.38131
20
-3.11795
11
5.37938
21
-3.11885
0
LINE
8
BLACK
6
CONTINUOUS
10
5.37938
20
-3.11885
11
5.37911
21
-3.11886
0
LINE
8
BLACK
6
CONTINUOUS
10
5.37911
20
-3.11886
11
5.34343
21
-3.11886
0
LINE
8
BLACK
6
CONTINUOUS
10
5.34343
20
-3.11886
11
5.34143
21
-3.11814
0
LINE
8
BLACK
6
CONTINUOUS
10
5.34143
20
-3.11814
11
5.34123
21
-3.11795
0
LINE
8
BLACK
6
CONTINUOUS
10
5.34123
20
-3.11795
11
5.2814
21
-3.05812
0
LINE
8
BLACK
6
CONTINUOUS
10
5.2814
20
-3.05812
11
5.2805
21
-3.05619
0
LINE
8
BLACK
6
CONTINUOUS
10
5.2805
20
-3.05619
11
5.28052
21
-3.05551
0
LINE
8
BLACK
6
CONTINUOUS
10
5.28052
20
-3.05551
11
5.28114
21
-3.05075
0
LINE
8
BLACK
6
CONTINUOUS
10
5.28114
20
-3.05075
11
5.28033
21
-3.04458
0
LINE
8
BLACK
6
CONTINUOUS
10
5.28033
20
-3.04458
11
5.27795
21
-3.03883
0
LINE
8
BLACK
6
CONTINUOUS
10
5.27795
20
-3.03883
11
5.27581
21
-3.03603
0
LINE
8
BLACK
6
CONTINUOUS
10
5.27581
20
-3.03603
11
5.27416
21
-3.03389
0
LINE
8
BLACK
6
CONTINUOUS
10
5.27416
20
-3.03389
11
5.27137
21
-3.03174
0
LINE
8
BLACK
6
CONTINUOUS
10
5.27137
20
-3.03174
11
5.26922
21
-3.0301
0
LINE
8
BLACK
6
CONTINUOUS
10
5.26922
20
-3.0301
11
5.26922
21
-3.0301
0
LINE
8
BLACK
6
CONTINUOUS
10
5.26922
20
-3.0301
11
5.26922
21
-3.0301
0
LINE
8
BLACK
6
CONTINUOUS
10
5.26922
20
-3.0301
11
5.26347
21
-3.02771
0
LINE
8
BLACK
6
CONTINUOUS
10
5.26347
20
-3.02771
11
5.26347
21
-3.02771
0
LINE
8
BLACK
6
CONTINUOUS
10
5.26347
20
-3.02771
11
5.2573
21
-3.0269
0
LINE
8
BLACK
6
CONTINUOUS
10
5.2573
20
-3.0269
11
5.2573
21
-3.0269
0
LINE
8
BLACK
6
CONTINUOUS
10
5.2573
20
-3.0269
11
5.25113
21
-3.02771
0
LINE
8
BLACK
6
CONTINUOUS
10
5.17217
20
-3.21177
11
5.17656
21
-3.21401
0
LINE
8
BLACK
6
CONTINUOUS
10
5.17656
20
-3.21401
11
5.18004
21
-3.21749
0
LINE
8
BLACK
6
CONTINUOUS
10
5.18004
20
-3.21749
11
5.18228
21
-3.22188
0
LINE
8
BLACK
6
CONTINUOUS
10
5.18228
20
-3.22188
11
5.18305
21
-3.22675
0
LINE
8
BLACK
6
CONTINUOUS
10
5.18305
20
-3.22675
11
5.18228
21
-3.23161
0
LINE
8
BLACK
6
CONTINUOUS
10
5.18228
20
-3.23161
11
5.18004
21
-3.236
0
LINE
8
BLACK
6
CONTINUOUS
10
5.18004
20
-3.236
11
5.17656
21
-3.23949
0
LINE
8
BLACK
6
CONTINUOUS
10
5.17656
20
-3.23949
11
5.17217
21
-3.24173
0
LINE
8
BLACK
6
CONTINUOUS
10
5.17217
20
-3.24173
11
5.1673
21
-3.2425
0
LINE
8
BLACK
6
CONTINUOUS
10
5.1673
20
-3.2425
11
5.16243
21
-3.24173
0
LINE
8
BLACK
6
CONTINUOUS
10
5.16243
20
-3.24173
11
5.15804
21
-3.23949
0
LINE
8
BLACK
6
CONTINUOUS
10
5.15804
20
-3.23949
11
5.15456
21
-3.236
0
LINE
8
BLACK
6
CONTINUOUS
10
5.15456
20
-3.236
11
5.15232
21
-3.23161
0
LINE
8
BLACK
6
CONTINUOUS
10
5.15232
20
-3.23161
11
5.15217
21
-3.23065
0
LINE
8
BLACK
6
CONTINUOUS
10
5.15217
20
-3.23065
11
5.07975
21
-3.23065
0
LINE
8
BLACK
6
CONTINUOUS
10
5.07975
20
-3.23065
11
5.0692
21
-3.24119
0
LINE
8
BLACK
6
CONTINUOUS
10
5.0692
20
-3.24119
11
5.0692
21
-3.33875
0
LINE
8
BLACK
6
CONTINUOUS
10
5.0692
20
-3.33875
11
5.069
21
-3.3395
0
LINE
8
BLACK
6
CONTINUOUS
10
5.069
20
-3.3395
11
5.069
21
-3.34028
0
LINE
8
BLACK
6
CONTINUOUS
10
5.069
20
-3.34028
11
5.06861
21
-3.34095
0
LINE
8
BLACK
6
CONTINUOUS
10
5.06861
20
-3.34095
11
5.06841
21
-3.3417
0
LINE
8
BLACK
6
CONTINUOUS
10
5.06841
20
-3.3417
11
5.06786
21
-3.34225
0
LINE
8
BLACK
6
CONTINUOUS
10
5.06786
20
-3.34225
11
5.06748
21
-3.34292
0
LINE
8
BLACK
6
CONTINUOUS
10
5.06748
20
-3.34292
11
5.0453
21
-3.3651
0
LINE
8
BLACK
6
CONTINUOUS
10
5.0453
20
-3.3651
11
5.0453
21
-3.41675
0
LINE
8
BLACK
6
CONTINUOUS
10
5.0453
20
-3.41675
11
4.9853
21
-3.41675
0
LINE
8
BLACK
6
CONTINUOUS
10
4.9853
20
-3.41675
11
4.9853
21
-3.35675
0
LINE
8
BLACK
6
CONTINUOUS
10
4.9853
20
-3.35675
11
5.03695
21
-3.35675
0
LINE
8
BLACK
6
CONTINUOUS
10
5.03695
20
-3.35675
11
5.05739
21
-3.3363
0
LINE
8
BLACK
6
CONTINUOUS
10
5.05739
20
-3.3363
11
5.05739
21
-3.23875
0
LINE
8
BLACK
6
CONTINUOUS
10
5.05739
20
-3.23875
11
5.05759
21
-3.238
0
LINE
8
BLACK
6
CONTINUOUS
10
5.05759
20
-3.238
11
5.05759
21
-3.23722
0
LINE
8
BLACK
6
CONTINUOUS
10
5.05759
20
-3.23722
11
5.05798
21
-3.23655
0
LINE
8
BLACK
6
CONTINUOUS
10
5.05798
20
-3.23655
11
5.05818
21
-3.2358
0
LINE
8
BLACK
6
CONTINUOUS
10
5.05818
20
-3.2358
11
5.05873
21
-3.23525
0
LINE
8
BLACK
6
CONTINUOUS
10
5.05873
20
-3.23525
11
5.05912
21
-3.23457
0
LINE
8
BLACK
6
CONTINUOUS
10
5.05912
20
-3.23457
11
5.07312
21
-3.22057
0
LINE
8
BLACK
6
CONTINUOUS
10
5.07312
20
-3.22057
11
5.0738
21
-3.22018
0
LINE
8
BLACK
6
CONTINUOUS
10
5.0738
20
-3.22018
11
5.07435
21
-3.21963
0
LINE
8
BLACK
6
CONTINUOUS
10
5.07435
20
-3.21963
11
5.0751
21
-3.21943
0
LINE
8
BLACK
6
CONTINUOUS
10
5.0751
20
-3.21943
11
5.07577
21
-3.21904
0
LINE
8
BLACK
6
CONTINUOUS
10
5.07577
20
-3.21904
11
5.07655
21
-3.21904
0
LINE
8
BLACK
6
CONTINUOUS
10
5.07655
20
-3.21904
11
5.0773
21
-3.21884
0
LINE
8
BLACK
6
CONTINUOUS
10
5.0773
20
-3.21884
11
5.15387
21
-3.21884
0
LINE
8
BLACK
6
CONTINUOUS
10
5.15387
20
-3.21884
11
5.15456
21
-3.21749
0
LINE
8
BLACK
6
CONTINUOUS
10
5.15456
20
-3.21749
11
5.15804
21
-3.21401
0
LINE
8
BLACK
6
CONTINUOUS
10
5.15804
20
-3.21401
11
5.16243
21
-3.21177
0
LINE
8
BLACK
6
CONTINUOUS
10
5.16243
20
-3.21177
11
5.1673
21
-3.211
0
LINE
8
BLACK
6
CONTINUOUS
10
5.1673
20
-3.211
11
5.17217
21
-3.21177
0
LINE
8
BLACK
6
CONTINUOUS
10
5.32827
20
-3.75692
11
5.32827
21
-3.75692
0
LINE
8
BLACK
6
CONTINUOUS
10
5.32827
20
-3.75692
11
5.33065
21
-3.76267
0
LINE
8
BLACK
6
CONTINUOUS
10
5.33065
20
-3.76267
11
5.33065
21
-3.76267
0
LINE
8
BLACK
6
CONTINUOUS
10
5.33065
20
-3.76267
11
5.33065
21
-3.76267
0
LINE
8
BLACK
6
CONTINUOUS
10
5.33065
20
-3.76267
11
5.33229
21
-3.76482
0
LINE
8
BLACK
6
CONTINUOUS
10
5.33229
20
-3.76482
11
5.33444
21
-3.76761
0
LINE
8
BLACK
6
CONTINUOUS
10
5.33444
20
-3.76761
11
5.33658
21
-3.76925
0
LINE
8
BLACK
6
CONTINUOUS
10
5.33658
20
-3.76925
11
5.33938
21
-3.7714
0
LINE
8
BLACK
6
CONTINUOUS
10
5.33938
20
-3.7714
11
5.33938
21
-3.7714
0
LINE
8
BLACK
6
CONTINUOUS
10
5.33938
20
-3.7714
11
5.33938
21
-3.7714
0
LINE
8
BLACK
6
CONTINUOUS
10
5.33938
20
-3.7714
11
5.34382
21
-3.77324
0
LINE
8
BLACK
6
CONTINUOUS
10
5.34382
20
-3.77324
11
5.34513
21
-3.77378
0
LINE
8
BLACK
6
CONTINUOUS
10
5.34513
20
-3.77378
11
5.3513
21
-3.77459
0
LINE
8
BLACK
6
CONTINUOUS
10
5.3513
20
-3.77459
11
5.35241
21
-3.77445
0
LINE
8
BLACK
6
CONTINUOUS
10
5.35241
20
-3.77445
11
5.35449
21
-3.77491
0
LINE
8
BLACK
6
CONTINUOUS
10
5.35449
20
-3.77491
11
5.35579
21
-3.7766
0
LINE
8
BLACK
6
CONTINUOUS
10
5.35579
20
-3.7766
11
5.35569
21
-3.77872
0
LINE
8
BLACK
6
CONTINUOUS
10
5.35569
20
-3.77872
11
5.35502
21
-3.77973
0
LINE
8
BLACK
6
CONTINUOUS
10
5.35502
20
-3.77973
11
5.35307
21
-3.78168
0
LINE
8
BLACK
6
CONTINUOUS
10
5.35307
20
-3.78168
11
5.35128
21
-3.78256
0
LINE
8
BLACK
6
CONTINUOUS
10
5.35128
20
-3.78256
11
5.35013
21
-3.78271
0
LINE
8
BLACK
6
CONTINUOUS
10
5.35013
20
-3.78271
11
5.35013
21
-3.78271
0
LINE
8
BLACK
6
CONTINUOUS
10
5.35013
20
-3.78271
11
5.34438
21
-3.7851
0
LINE
8
BLACK
6
CONTINUOUS
10
5.34438
20
-3.7851
11
5.34438
21
-3.7851
0
LINE
8
BLACK
6
CONTINUOUS
10
5.34438
20
-3.7851
11
5.33944
21
-3.78889
0
LINE
8
BLACK
6
CONTINUOUS
10
5.33944
20
-3.78889
11
5.33565
21
-3.79383
0
LINE
8
BLACK
6
CONTINUOUS
10
5.33565
20
-3.79383
11
5.33565
21
-3.79383
0
LINE
8
BLACK
6
CONTINUOUS
10
5.33565
20
-3.79383
11
5.33327
21
-3.79958
0
LINE
8
BLACK
6
CONTINUOUS
10
5.33327
20
-3.79958
11
5.33327
21
-3.79958
0
LINE
8
BLACK
6
CONTINUOUS
10
5.33327
20
-3.79958
11
5.33245
21
-3.80575
0
LINE
8
BLACK
6
CONTINUOUS
10
5.33245
20
-3.80575
11
5.33245
21
-3.80575
0
LINE
8
BLACK
6
CONTINUOUS
10
5.33245
20
-3.80575
11
5.33327
21
-3.81192
0
LINE
8
BLACK
6
CONTINUOUS
10
5.33327
20
-3.81192
11
5.33327
21
-3.81192
0
LINE
8
BLACK
6
CONTINUOUS
10
5.33327
20
-3.81192
11
5.33565
21
-3.81767
0
LINE
8
BLACK
6
CONTINUOUS
10
5.33565
20
-3.81767
11
5.33565
21
-3.81767
0
LINE
8
BLACK
6
CONTINUOUS
10
5.33565
20
-3.81767
11
5.33565
21
-3.81767
0
LINE
8
BLACK
6
CONTINUOUS
10
5.33565
20
-3.81767
11
5.33711
21
-3.81958
0
LINE
8
BLACK
6
CONTINUOUS
10
5.33711
20
-3.81958
11
5.33944
21
-3.82261
0
LINE
8
BLACK
6
CONTINUOUS
10
5.33944
20
-3.82261
11
5.34033
21
-3.8233
0
LINE
8
BLACK
6
CONTINUOUS
10
5.34033
20
-3.8233
11
5.34438
21
-3.8264
0
LINE
8
BLACK
6
CONTINUOUS
10
5.34438
20
-3.8264
11
5.34438
21
-3.8264
0
LINE
8
BLACK
6
CONTINUOUS
10
5.34438
20
-3.8264
11
5.34438
21
-3.8264
0
LINE
8
BLACK
6
CONTINUOUS
10
5.34438
20
-3.8264
11
5.34882
21
-3.82824
0
LINE
8
BLACK
6
CONTINUOUS
10
5.34882
20
-3.82824
11
5.35013
21
-3.82878
0
LINE
8
BLACK
6
CONTINUOUS
10
5.35013
20
-3.82878
11
5.35424
21
-3.82932
0
LINE
8
BLACK
6
CONTINUOUS
10
5.35424
20
-3.82932
11
5.3563
21
-3.82959
0
LINE
8
BLACK
6
CONTINUOUS
10
5.3563
20
-3.82959
11
5.3563
21
-3.82959
0
LINE
8
BLACK
6
CONTINUOUS
10
5.3563
20
-3.82959
11
5.3563
21
-3.82959
0
LINE
8
BLACK
6
CONTINUOUS
10
5.3563
20
-3.82959
11
5.35784
21
-3.82939
0
LINE
8
BLACK
6
CONTINUOUS
10
5.35784
20
-3.82939
11
5.36247
21
-3.82878
0
LINE
8
BLACK
6
CONTINUOUS
10
5.36247
20
-3.82878
11
5.36822
21
-3.8264
0
LINE
8
BLACK
6
CONTINUOUS
10
5.36822
20
-3.8264
11
5.37316
21
-3.82261
0
LINE
8
BLACK
6
CONTINUOUS
10
5.37316
20
-3.82261
11
5.37695
21
-3.81767
0
LINE
8
BLACK
6
CONTINUOUS
10
5.37695
20
-3.81767
11
5.37933
21
-3.81192
0
LINE
8
BLACK
6
CONTINUOUS
10
5.37933
20
-3.81192
11
5.38014
21
-3.80575
0
LINE
8
BLACK
6
CONTINUOUS
10
5.38014
20
-3.80575
11
5.37958
21
-3.80148
0
LINE
8
BLACK
6
CONTINUOUS
10
5.37958
20
-3.80148
11
5.38004
21
-3.79941
0
LINE
8
BLACK
6
CONTINUOUS
10
5.38004
20
-3.79941
11
5.38047
21
-3.79888
0
LINE
8
BLACK
6
CONTINUOUS
10
5.38047
20
-3.79888
11
5.48193
21
-3.69742
0
LINE
8
BLACK
6
CONTINUOUS
10
5.48193
20
-3.69742
11
5.48193
21
-3.69742
0
LINE
8
BLACK
6
CONTINUOUS
10
5.48193
20
-3.69742
11
5.48211
21
-3.69724
0
LINE
8
BLACK
6
CONTINUOUS
10
5.48211
20
-3.69724
11
5.48211
21
-3.69724
0
LINE
8
BLACK
6
CONTINUOUS
10
5.48211
20
-3.69724
11
5.48282
21
-3.69653
0
LINE
8
BLACK
6
CONTINUOUS
10
5.48282
20
-3.69653
11
5.48328
21
-3.69563
0
LINE
8
BLACK
6
CONTINUOUS
10
5.48328
20
-3.69563
11
5.48353
21
-3.69521
0
LINE
8
BLACK
6
CONTINUOUS
10
5.48353
20
-3.69521
11
5.48413
21
-3.69439
0
LINE
8
BLACK
6
CONTINUOUS
10
5.48413
20
-3.69439
11
5.48444
21
-3.69343
0
LINE
8
BLACK
6
CONTINUOUS
10
5.48444
20
-3.69343
11
5.48463
21
-3.69298
0
LINE
8
BLACK
6
CONTINUOUS
10
5.48463
20
-3.69298
11
5.48503
21
-3.69219
0
LINE
8
BLACK
6
CONTINUOUS
10
5.48503
20
-3.69219
11
5.48659
21
-3.69073
0
LINE
8
BLACK
6
CONTINUOUS
10
5.48659
20
-3.69073
11
5.48871
21
-3.69062
0
LINE
8
BLACK
6
CONTINUOUS
10
5.48871
20
-3.69062
11
5.49041
21
-3.6919
0
LINE
8
BLACK
6
CONTINUOUS
10
5.49041
20
-3.6919
11
5.49091
21
-3.6936
0
LINE
8
BLACK
6
CONTINUOUS
10
5.49091
20
-3.6936
11
5.49091
21
-3.72255
0
LINE
8
BLACK
6
CONTINUOUS
10
5.49091
20
-3.72255
11
5.49018
21
-3.72455
0
LINE
8
BLACK
6
CONTINUOUS
10
5.49018
20
-3.72455
11
5.49
21
-3.72475
0
LINE
8
BLACK
6
CONTINUOUS
10
5.49
20
-3.72475
11
5.41375
21
-3.801
0
LINE
8
BLACK
6
CONTINUOUS
10
5.41375
20
-3.801
11
5.41182
21
-3.8019
0
LINE
8
BLACK
6
CONTINUOUS
10
5.41182
20
-3.8019
11
5.4115
21
-3.80189
0
LINE
8
BLACK
6
CONTINUOUS
10
5.4115
20
-3.80189
11
5.4115
21
-3.8019
0
LINE
8
BLACK
6
CONTINUOUS
10
5.4115
20
-3.8019
11
5.4113
21
-3.8019
0
LINE
8
BLACK
6
CONTINUOUS
10
5.4113
20
-3.8019
11
5.40513
21
-3.80271
0
LINE
8
BLACK
6
CONTINUOUS
10
5.40513
20
-3.80271
11
5.40513
21
-3.80271
0
LINE
8
BLACK
6
CONTINUOUS
10
5.40513
20
-3.80271
11
5.39938
21
-3.8051
0
LINE
8
BLACK
6
CONTINUOUS
10
5.39938
20
-3.8051
11
5.39938
21
-3.8051
0
LINE
8
BLACK
6
CONTINUOUS
10
5.39938
20
-3.8051
11
5.39444
21
-3.80889
0
LINE
8
BLACK
6
CONTINUOUS
10
5.39444
20
-3.80889
11
5.39065
21
-3.81383
0
LINE
8
BLACK
6
CONTINUOUS
10
5.39065
20
-3.81383
11
5.39065
21
-3.81383
0
LINE
8
BLACK
6
CONTINUOUS
10
5.39065
20
-3.81383
11
5.38827
21
-3.81958
0
LINE
8
BLACK
6
CONTINUOUS
10
5.38827
20
-3.81958
11
5.38827
21
-3.81958
0
LINE
8
BLACK
6
CONTINUOUS
10
5.38827
20
-3.81958
11
5.38745
21
-3.82575
0
LINE
8
BLACK
6
CONTINUOUS
10
5.38745
20
-3.82575
11
5.38745
21
-3.82575
0
LINE
8
BLACK
6
CONTINUOUS
10
5.38745
20
-3.82575
11
5.38827
21
-3.83192
0
LINE
8
BLACK
6
CONTINUOUS
10
5.38827
20
-3.83192
11
5.38827
21
-3.83192
0
LINE
8
BLACK
6
CONTINUOUS
10
5.38827
20
-3.83192
11
5.39065
21
-3.83767
0
LINE
8
BLACK
6
CONTINUOUS
10
5.39065
20
-3.83767
11
5.39065
21
-3.83767
0
LINE
8
BLACK
6
CONTINUOUS
10
5.39065
20
-3.83767
11
5.39065
21
-3.83767
0
LINE
8
BLACK
6
CONTINUOUS
10
5.39065
20
-3.83767
11
5.39229
21
-3.83982
0
LINE
8
BLACK
6
CONTINUOUS
10
5.39229
20
-3.83982
11
5.39444
21
-3.84261
0
LINE
8
BLACK
6
CONTINUOUS
10
5.39444
20
-3.84261
11
5.39658
21
-3.84425
0
LINE
8
BLACK
6
CONTINUOUS
10
5.39658
20
-3.84425
11
5.39938
21
-3.8464
0
LINE
8
BLACK
6
CONTINUOUS
10
5.39938
20
-3.8464
11
5.39938
21
-3.8464
0
LINE
8
BLACK
6
CONTINUOUS
10
5.39938
20
-3.8464
11
5.39938
21
-3.8464
0
LINE
8
BLACK
6
CONTINUOUS
10
5.39938
20
-3.8464
11
5.40382
21
-3.84824
0
LINE
8
BLACK
6
CONTINUOUS
10
5.40382
20
-3.84824
11
5.40513
21
-3.84878
0
LINE
8
BLACK
6
CONTINUOUS
10
5.40513
20
-3.84878
11
5.40924
21
-3.84932
0
LINE
8
BLACK
6
CONTINUOUS
10
5.40924
20
-3.84932
11
5.4113
21
-3.84959
0
LINE
8
BLACK
6
CONTINUOUS
10
5.4113
20
-3.84959
11
5.4113
21
-3.84959
0
LINE
8
BLACK
6
CONTINUOUS
10
5.4113
20
-3.84959
11
5.4113
21
-3.84959
0
LINE
8
BLACK
6
CONTINUOUS
10
5.4113
20
-3.84959
11
5.41284
21
-3.84939
0
LINE
8
BLACK
6
CONTINUOUS
10
5.41284
20
-3.84939
11
5.41747
21
-3.84878
0
LINE
8
BLACK
6
CONTINUOUS
10
5.41747
20
-3.84878
11
5.42322
21
-3.8464
0
LINE
8
BLACK
6
CONTINUOUS
10
5.42322
20
-3.8464
11
5.42816
21
-3.84261
0
LINE
8
BLACK
6
CONTINUOUS
10
5.42816
20
-3.84261
11
5.43195
21
-3.83767
0
LINE
8
BLACK
6
CONTINUOUS
10
5.43195
20
-3.83767
11
5.43433
21
-3.83192
0
LINE
8
BLACK
6
CONTINUOUS
10
5.43433
20
-3.83192
11
5.43514
21
-3.82575
0
LINE
8
BLACK
6
CONTINUOUS
10
5.43514
20
-3.82575
11
5.43514
21
-3.82575
0
LINE
8
BLACK
6
CONTINUOUS
10
5.43514
20
-3.82575
11
5.43514
21
-3.82554
0
LINE
8
BLACK
6
CONTINUOUS
10
5.43514
20
-3.82554
11
5.43524
21
-3.82554
0
LINE
8
BLACK
6
CONTINUOUS
10
5.43524
20
-3.82554
11
5.43563
21
-3.82383
0
LINE
8
BLACK
6
CONTINUOUS
10
5.43563
20
-3.82383
11
5.43605
21
-3.8233
0
LINE
8
BLACK
6
CONTINUOUS
10
5.43605
20
-3.8233
11
5.51871
21
-3.74064
0
LINE
8
BLACK
6
CONTINUOUS
10
5.51871
20
-3.74064
11
5.51871
21
-3.74064
0
LINE
8
BLACK
6
CONTINUOUS
10
5.51871
20
-3.74064
11
5.51888
21
-3.74046
0
LINE
8
BLACK
6
CONTINUOUS
10
5.51888
20
-3.74046
11
5.51888
21
-3.74046
0
LINE
8
BLACK
6
CONTINUOUS
10
5.51888
20
-3.74046
11
5.5196
21
-3.73975
0
LINE
8
BLACK
6
CONTINUOUS
10
5.5196
20
-3.73975
11
5.52005
21
-3.73885
0
LINE
8
BLACK
6
CONTINUOUS
10
5.52005
20
-3.73885
11
5.52031
21
-3.73843
0
LINE
8
BLACK
6
CONTINUOUS
10
5.52031
20
-3.73843
11
5.5209
21
-3.73762
0
LINE
8
BLACK
6
CONTINUOUS
10
5.5209
20
-3.73762
11
5.52122
21
-3.73665
0
LINE
8
BLACK
6
CONTINUOUS
10
5.52122
20
-3.73665
11
5.5214
21
-3.7362
0
LINE
8
BLACK
6
CONTINUOUS
10
5.5214
20
-3.7362
11
5.52186
21
-3.7353
0
LINE
8
BLACK
6
CONTINUOUS
10
5.52186
20
-3.7353
11
5.52202
21
-3.7343
0
LINE
8
BLACK
6
CONTINUOUS
10
5.52202
20
-3.7343
11
5.52213
21
-3.73383
0
LINE
8
BLACK
6
CONTINUOUS
10
5.52213
20
-3.73383
11
5.52245
21
-3.73287
0
LINE
8
BLACK
6
CONTINUOUS
10
5.52245
20
-3.73287
11
5.52245
21
-3.73286
0
LINE
8
BLACK
6
CONTINUOUS
10
5.52245
20
-3.73286
11
5.52245
21
-3.69449
0
LINE
8
BLACK
6
CONTINUOUS
10
5.52245
20
-3.69449
11
5.52318
21
-3.69249
0
LINE
8
BLACK
6
CONTINUOUS
10
5.52318
20
-3.69249
11
5.52502
21
-3.69142
0
LINE
8
BLACK
6
CONTINUOUS
10
5.52502
20
-3.69142
11
5.52675
21
-3.69161
0
LINE
8
BLACK
6
CONTINUOUS
10
5.52675
20
-3.69161
11
5.53198
21
-3.69378
0
LINE
8
BLACK
6
CONTINUOUS
10
5.53198
20
-3.69378
11
5.5361
21
-3.69432
0
LINE
8
BLACK
6
CONTINUOUS
10
5.5361
20
-3.69432
11
5.53816
21
-3.69459
0
LINE
8
BLACK
6
CONTINUOUS
10
5.53816
20
-3.69459
11
5.53816
21
-3.69459
0
LINE
8
BLACK
6
CONTINUOUS
10
5.53816
20
-3.69459
11
5.53816
21
-3.69459
0
LINE
8
BLACK
6
CONTINUOUS
10
5.53816
20
-3.69459
11
5.5397
21
-3.69439
0
LINE
8
BLACK
6
CONTINUOUS
10
5.5397
20
-3.69439
11
5.54433
21
-3.69378
0
LINE
8
BLACK
6
CONTINUOUS
10
5.54433
20
-3.69378
11
5.55008
21
-3.6914
0
LINE
8
BLACK
6
CONTINUOUS
10
5.55008
20
-3.6914
11
5.55502
21
-3.68761
0
LINE
8
BLACK
6
CONTINUOUS
10
5.55502
20
-3.68761
11
5.55881
21
-3.68267
0
LINE
8
BLACK
6
CONTINUOUS
10
5.55881
20
-3.68267
11
5.56119
21
-3.67692
0
LINE
8
BLACK
6
CONTINUOUS
10
5.56119
20
-3.67692
11
5.562
21
-3.67075
0
LINE
8
BLACK
6
CONTINUOUS
10
5.562
20
-3.67075
11
5.56119
21
-3.66458
0
LINE
8
BLACK
6
CONTINUOUS
10
5.56119
20
-3.66458
11
5.56114
21
-3.66446
0
LINE
8
BLACK
6
CONTINUOUS
10
5.56114
20
-3.66446
11
5.56114
21
-3.66439
0
LINE
8
BLACK
6
CONTINUOUS
10
5.56114
20
-3.66439
11
5.56114
21
-3.66438
0
LINE
8
BLACK
6
CONTINUOUS
10
5.56114
20
-3.66438
11
5.56114
21
-3.66438
0
LINE
8
BLACK
6
CONTINUOUS
10
5.56114
20
-3.66438
11
5.56105
21
-3.66234
0
LINE
8
BLACK
6
CONTINUOUS
10
5.56105
20
-3.66234
11
5.56182
21
-3.66107
0
LINE
8
BLACK
6
CONTINUOUS
10
5.56182
20
-3.66107
11
5.60261
21
-3.62028
0
LINE
8
BLACK
6
CONTINUOUS
10
5.60261
20
-3.62028
11
5.60454
21
-3.61938
0
LINE
8
BLACK
6
CONTINUOUS
10
5.60454
20
-3.61938
11
5.60481
21
-3.61937
0
LINE
8
BLACK
6
CONTINUOUS
10
5.60481
20
-3.61937
11
5.96912
21
-3.61937
0
LINE
8
BLACK
6
CONTINUOUS
10
5.96912
20
-3.61937
11
5.97112
21
-3.6201
0
LINE
8
BLACK
6
CONTINUOUS
10
5.97112
20
-3.6201
11
5.97132
21
-3.62028
0
LINE
8
BLACK
6
CONTINUOUS
10
5.97132
20
-3.62028
11
6.00063
21
-3.6496
0
LINE
8
BLACK
6
CONTINUOUS
10
6.00063
20
-3.6496
11
6.00104
21
-3.65009
0
LINE
8
BLACK
6
CONTINUOUS
10
6.00104
20
-3.65009
11
6.00134
21
-3.65055
0
LINE
8
BLACK
6
CONTINUOUS
10
6.00134
20
-3.65055
11
6.00134
21
-3.65055
0
LINE
8
BLACK
6
CONTINUOUS
10
6.00134
20
-3.65055
11
6.0024
21
-3.65138
0
LINE
8
BLACK
6
CONTINUOUS
10
6.0024
20
-3.65138
11
6.00255
21
-3.65151
0
LINE
8
BLACK
6
CONTINUOUS
10
6.00255
20
-3.65151
11
6.00268
21
-3.65164
0
LINE
8
BLACK
6
CONTINUOUS
10
6.00268
20
-3.65164
11
6.00335
21
-3.65212
0
LINE
8
BLACK
6
CONTINUOUS
10
6.00335
20
-3.65212
11
6.0034
21
-3.65216
0
LINE
8
BLACK
6
CONTINUOUS
10
6.0034
20
-3.65216
11
6.00497
21
-3.65338
0
LINE
8
BLACK
6
CONTINUOUS
10
6.00497
20
-3.65338
11
6.00497
21
-3.65338
0
LINE
8
BLACK
6
CONTINUOUS
10
6.00497
20
-3.65338
11
6.0052
21
-3.6535
0
LINE
8
BLACK
6
CONTINUOUS
10
6.0052
20
-3.6535
11
6.00519
21
-3.65352
0
LINE
8
BLACK
6
CONTINUOUS
10
6.00519
20
-3.65352
11
6.00525
21
-3.65355
0
LINE
8
BLACK
6
CONTINUOUS
10
6.00525
20
-3.65355
11
6.00525
21
-3.65353
0
LINE
8
BLACK
6
CONTINUOUS
10
6.00525
20
-3.65353
11
6.00548
21
-3.65365
0
LINE
8
BLACK
6
CONTINUOUS
10
6.00548
20
-3.65365
11
6.00625
21
-3.65387
0
LINE
8
BLACK
6
CONTINUOUS
10
6.00625
20
-3.65387
11
6.00739
21
-3.65421
0
LINE
8
BLACK
6
CONTINUOUS
10
6.00739
20
-3.65421
11
6.00745
21
-3.65423
0
LINE
8
BLACK
6
CONTINUOUS
10
6.00745
20
-3.65423
11
6.00933
21
-3.65488
0
LINE
8
BLACK
6
CONTINUOUS
10
6.00933
20
-3.65488
11
6.00933
21
-3.65488
0
LINE
8
BLACK
6
CONTINUOUS
10
6.00933
20
-3.65488
11
6.00958
21
-3.65492
0
LINE
8
BLACK
6
CONTINUOUS
10
6.00958
20
-3.65492
11
6.00958
21
-3.65494
0
LINE
8
BLACK
6
CONTINUOUS
10
6.00958
20
-3.65494
11
6.00964
21
-3.65495
0
LINE
8
BLACK
6
CONTINUOUS
10
6.00964
20
-3.65495
11
6.00964
21
-3.65493
0
LINE
8
BLACK
6
CONTINUOUS
10
6.00964
20
-3.65493
11
6.0099
21
-3.65496
0
LINE
8
BLACK
6
CONTINUOUS
10
6.0099
20
-3.65496
11
6.0099
21
-3.65496
0
LINE
8
BLACK
6
CONTINUOUS
10
6.0099
20
-3.65496
11
6.01103
21
-3.65491
0
LINE
8
BLACK
6
CONTINUOUS
10
6.01103
20
-3.65491
11
6.01188
21
-3.65488
0
LINE
8
BLACK
6
CONTINUOUS
10
6.01188
20
-3.65488
11
6.01195
21
-3.65488
0
LINE
8
BLACK
6
CONTINUOUS
10
6.01195
20
-3.65488
11
6.07449
21
-3.65488
0
LINE
8
BLACK
6
CONTINUOUS
10
6.07449
20
-3.65488
11
6.0764
21
-3.65553
0
LINE
8
BLACK
6
CONTINUOUS
10
6.0764
20
-3.65553
11
6.07687
21
-3.6559
0
LINE
8
BLACK
6
CONTINUOUS
10
6.07687
20
-3.6559
11
6.07707
21
-3.65605
0
LINE
8
BLACK
6
CONTINUOUS
10
6.07707
20
-3.65605
11
6.07722
21
-3.65618
0
LINE
8
BLACK
6
CONTINUOUS
10
6.07722
20
-3.65618
11
6.07735
21
-3.65631
0
LINE
8
BLACK
6
CONTINUOUS
10
6.07735
20
-3.65631
11
6.07802
21
-3.65679
0
LINE
8
BLACK
6
CONTINUOUS
10
6.07802
20
-3.65679
11
6.07807
21
-3.65683
0
LINE
8
BLACK
6
CONTINUOUS
10
6.07807
20
-3.65683
11
6.07964
21
-3.65805
0
LINE
8
BLACK
6
CONTINUOUS
10
6.07964
20
-3.65805
11
6.07964
21
-3.65805
0
LINE
8
BLACK
6
CONTINUOUS
10
6.07964
20
-3.65805
11
6.07987
21
-3.65817
0
LINE
8
BLACK
6
CONTINUOUS
10
6.07987
20
-3.65817
11
6.07986
21
-3.65819
0
LINE
8
BLACK
6
CONTINUOUS
10
6.07986
20
-3.65819
11
6.07992
21
-3.65822
0
LINE
8
BLACK
6
CONTINUOUS
10
6.07992
20
-3.65822
11
6.07992
21
-3.6582
0
LINE
8
BLACK
6
CONTINUOUS
10
6.07992
20
-3.6582
11
6.08015
21
-3.65832
0
LINE
8
BLACK
6
CONTINUOUS
10
6.08015
20
-3.65832
11
6.08092
21
-3.65854
0
LINE
8
BLACK
6
CONTINUOUS
10
6.08092
20
-3.65854
11
6.08206
21
-3.65888
0
LINE
8
BLACK
6
CONTINUOUS
10
6.08206
20
-3.65888
11
6.08212
21
-3.6589
0
LINE
8
BLACK
6
CONTINUOUS
10
6.08212
20
-3.6589
11
6.084
21
-3.65955
0
LINE
8
BLACK
6
CONTINUOUS
10
6.084
20
-3.65955
11
6.084
21
-3.65955
0
LINE
8
BLACK
6
CONTINUOUS
10
6.084
20
-3.65955
11
6.08425
21
-3.65959
0
LINE
8
BLACK
6
CONTINUOUS
10
6.08425
20
-3.65959
11
6.08425
21
-3.65961
0
LINE
8
BLACK
6
CONTINUOUS
10
6.08425
20
-3.65961
11
6.08431
21
-3.65962
0
LINE
8
BLACK
6
CONTINUOUS
10
6.08431
20
-3.65962
11
6.08431
21
-3.6596
0
LINE
8
BLACK
6
CONTINUOUS
10
6.08431
20
-3.6596
11
6.08457
21
-3.65963
0
LINE
8
BLACK
6
CONTINUOUS
10
6.08457
20
-3.65963
11
6.08457
21
-3.65963
0
LINE
8
BLACK
6
CONTINUOUS
10
6.08457
20
-3.65963
11
6.0857
21
-3.65958
0
LINE
8
BLACK
6
CONTINUOUS
10
6.0857
20
-3.65958
11
6.08655
21
-3.65955
0
LINE
8
BLACK
6
CONTINUOUS
10
6.08655
20
-3.65955
11
6.08662
21
-3.65955
0
LINE
8
BLACK
6
CONTINUOUS
10
6.08662
20
-3.65955
11
6.11055
21
-3.65955
0
LINE
8
BLACK
6
CONTINUOUS
10
6.11055
20
-3.65955
11
6.11255
21
-3.66027
0
LINE
8
BLACK
6
CONTINUOUS
10
6.11255
20
-3.66027
11
6.11302
21
-3.66076
0
LINE
8
BLACK
6
CONTINUOUS
10
6.11302
20
-3.66076
11
6.11444
21
-3.66261
0
LINE
8
BLACK
6
CONTINUOUS
10
6.11444
20
-3.66261
11
6.11658
21
-3.66425
0
LINE
8
BLACK
6
CONTINUOUS
10
6.11658
20
-3.66425
11
6.11938
21
-3.6664
0
LINE
8
BLACK
6
CONTINUOUS
10
6.11938
20
-3.6664
11
6.11938
21
-3.6664
0
LINE
8
BLACK
6
CONTINUOUS
10
6.11938
20
-3.6664
11
6.11938
21
-3.6664
0
LINE
8
BLACK
6
CONTINUOUS
10
6.11938
20
-3.6664
11
6.12336
21
-3.66805
0
LINE
8
BLACK
6
CONTINUOUS
10
6.12336
20
-3.66805
11
6.12513
21
-3.66878
0
LINE
8
BLACK
6
CONTINUOUS
10
6.12513
20
-3.66878
11
6.12924
21
-3.66932
0
LINE
8
BLACK
6
CONTINUOUS
10
6.12924
20
-3.66932
11
6.1313
21
-3.66959
0
LINE
8
BLACK
6
CONTINUOUS
10
6.1313
20
-3.66959
11
6.1313
21
-3.66959
0
LINE
8
BLACK
6
CONTINUOUS
10
6.1313
20
-3.66959
11
6.1313
21
-3.66959
0
LINE
8
BLACK
6
CONTINUOUS
10
6.1313
20
-3.66959
11
6.13284
21
-3.66939
0
LINE
8
BLACK
6
CONTINUOUS
10
6.13284
20
-3.66939
11
6.13747
21
-3.66878
0
LINE
8
BLACK
6
CONTINUOUS
10
6.13747
20
-3.66878
11
6.14322
21
-3.6664
0
LINE
8
BLACK
6
CONTINUOUS
10
6.14322
20
-3.6664
11
6.14816
21
-3.66261
0
LINE
8
BLACK
6
CONTINUOUS
10
6.14816
20
-3.66261
11
6.15195
21
-3.65767
0
LINE
8
BLACK
6
CONTINUOUS
10
6.15195
20
-3.65767
11
6.15433
21
-3.65192
0
LINE
8
BLACK
6
CONTINUOUS
10
6.15433
20
-3.65192
11
6.15509
21
-3.64613
0
LINE
8
BLACK
6
CONTINUOUS
10
6.15509
20
-3.64613
11
6.15608
21
-3.64425
0
LINE
8
BLACK
6
CONTINUOUS
10
6.15608
20
-3.64425
11
6.15804
21
-3.64343
0
LINE
8
BLACK
6
CONTINUOUS
10
6.15804
20
-3.64343
11
6.16007
21
-3.64407
0
LINE
8
BLACK
6
CONTINUOUS
10
6.16007
20
-3.64407
11
6.16038
21
-3.64434
0
LINE
8
BLACK
6
CONTINUOUS
10
6.16038
20
-3.64434
11
6.23187
21
-3.71584
0
LINE
8
BLACK
6
CONTINUOUS
10
6.23187
20
-3.71584
11
6.23277
21
-3.71776
0
LINE
8
BLACK
6
CONTINUOUS
10
6.23277
20
-3.71776
11
6.23276
21
-3.71844
0
LINE
8
BLACK
6
CONTINUOUS
10
6.23276
20
-3.71844
11
6.23245
21
-3.72075
0
LINE
8
BLACK
6
CONTINUOUS
10
6.23245
20
-3.72075
11
6.23245
21
-3.72075
0
LINE
8
BLACK
6
CONTINUOUS
10
6.23245
20
-3.72075
11
6.23327
21
-3.72692
0
LINE
8
BLACK
6
CONTINUOUS
10
6.23327
20
-3.72692
11
6.23327
21
-3.72692
0
LINE
8
BLACK
6
CONTINUOUS
10
6.23327
20
-3.72692
11
6.23565
21
-3.73267
0
LINE
8
BLACK
6
CONTINUOUS
10
6.23565
20
-3.73267
11
6.23565
21
-3.73267
0
LINE
8
BLACK
6
CONTINUOUS
10
6.23565
20
-3.73267
11
6.23565
21
-3.73267
0
LINE
8
BLACK
6
CONTINUOUS
10
6.23565
20
-3.73267
11
6.23654
21
-3.73383
0
LINE
8
BLACK
6
CONTINUOUS
10
6.23654
20
-3.73383
11
6.23944
21
-3.73761
0
LINE
8
BLACK
6
CONTINUOUS
10
6.23944
20
-3.73761
11
6.24102
21
-3.73883
0
LINE
8
BLACK
6
CONTINUOUS
10
6.24102
20
-3.73883
11
6.24438
21
-3.7414
0
LINE
8
BLACK
6
CONTINUOUS
10
6.24438
20
-3.7414
11
6.24438
21
-3.7414
0
LINE
8
BLACK
6
CONTINUOUS
10
6.24438
20
-3.7414
11
6.24438
21
-3.7414
0
LINE
8
BLACK
6
CONTINUOUS
10
6.24438
20
-3.7414
11
6.24816
21
-3.74296
0
LINE
8
BLACK
6
CONTINUOUS
10
6.24816
20
-3.74296
11
6.25013
21
-3.74378
0
LINE
8
BLACK
6
CONTINUOUS
10
6.25013
20
-3.74378
11
6.25424
21
-3.74432
0
LINE
8
BLACK
6
CONTINUOUS
10
6.25424
20
-3.74432
11
6.2563
21
-3.74459
0
LINE
8
BLACK
6
CONTINUOUS
10
6.2563
20
-3.74459
11
6.2563
21
-3.74459
0
LINE
8
BLACK
6
CONTINUOUS
10
6.2563
20
-3.74459
11
6.2563
21
-3.74459
0
LINE
8
BLACK
6
CONTINUOUS
10
6.2563
20
-3.74459
11
6.25784
21
-3.74439
0
LINE
8
BLACK
6
CONTINUOUS
10
6.25784
20
-3.74439
11
6.26247
21
-3.74378
0
LINE
8
BLACK
6
CONTINUOUS
10
6.26247
20
-3.74378
11
6.26822
21
-3.7414
0
LINE
8
BLACK
6
CONTINUOUS
10
6.26822
20
-3.7414
11
6.27316
21
-3.73761
0
LINE
8
BLACK
6
CONTINUOUS
10
6.27316
20
-3.73761
11
6.27695
21
-3.73267
0
LINE
8
BLACK
6
CONTINUOUS
10
6.27695
20
-3.73267
11
6.27933
21
-3.72692
0
LINE
8
BLACK
6
CONTINUOUS
10
6.27933
20
-3.72692
11
6.28014
21
-3.72075
0
LINE
8
BLACK
6
CONTINUOUS
10
6.28014
20
-3.72075
11
6.27933
21
-3.71458
0
LINE
8
BLACK
6
CONTINUOUS
10
6.27933
20
-3.71458
11
6.27695
21
-3.70883
0
LINE
8
BLACK
6
CONTINUOUS
10
6.27695
20
-3.70883
11
6.27481
21
-3.70603
0
LINE
8
BLACK
6
CONTINUOUS
10
6.27481
20
-3.70603
11
6.27316
21
-3.70389
0
LINE
8
BLACK
6
CONTINUOUS
10
6.27316
20
-3.70389
11
6.27037
21
-3.70174
0
LINE
8
BLACK
6
CONTINUOUS
10
6.27037
20
-3.70174
11
6.26822
21
-3.7001
0
LINE
8
BLACK
6
CONTINUOUS
10
6.26822
20
-3.7001
11
6.26822
21
-3.7001
0
LINE
8
BLACK
6
CONTINUOUS
10
6.26822
20
-3.7001
11
6.26822
21
-3.7001
0
LINE
8
BLACK
6
CONTINUOUS
10
6.26822
20
-3.7001
11
6.26247
21
-3.69771
0
LINE
8
BLACK
6
CONTINUOUS
10
6.26247
20
-3.69771
11
6.26247
21
-3.69771
0
LINE
8
BLACK
6
CONTINUOUS
10
6.26247
20
-3.69771
11
6.2563
21
-3.6969
0
LINE
8
BLACK
6
CONTINUOUS
10
6.2563
20
-3.6969
11
6.2563
21
-3.6969
0
LINE
8
BLACK
6
CONTINUOUS
10
6.2563
20
-3.6969
11
6.25399
21
-3.69721
0
LINE
8
BLACK
6
CONTINUOUS
10
6.25399
20
-3.69721
11
6.25192
21
-3.69675
0
LINE
8
BLACK
6
CONTINUOUS
10
6.25192
20
-3.69675
11
6.25139
21
-3.69632
0
LINE
8
BLACK
6
CONTINUOUS
10
6.25139
20
-3.69632
11
6.17026
21
-3.61519
0
LINE
8
BLACK
6
CONTINUOUS
10
6.17026
20
-3.61519
11
6.16936
21
-3.61326
0
LINE
8
BLACK
6
CONTINUOUS
10
6.16936
20
-3.61326
11
6.16991
21
-3.61121
0
LINE
8
BLACK
6
CONTINUOUS
10
6.16991
20
-3.61121
11
6.17165
21
-3.60999
0
LINE
8
BLACK
6
CONTINUOUS
10
6.17165
20
-3.60999
11
6.17246
21
-3.60988
0
LINE
8
BLACK
6
CONTINUOUS
10
6.17246
20
-3.60988
11
6.35002
21
-3.60988
0
LINE
8
BLACK
6
CONTINUOUS
10
6.35002
20
-3.60988
11
6.35061
21
-3.60994
0
LINE
8
BLACK
6
CONTINUOUS
10
6.35061
20
-3.60994
11
6.35071
21
-3.60996
0
LINE
8
BLACK
6
CONTINUOUS
10
6.35071
20
-3.60996
11
6.35128
21
-3.61007
0
LINE
8
BLACK
6
CONTINUOUS
10
6.35128
20
-3.61007
11
6.35249
21
-3.6099
0
LINE
8
BLACK
6
CONTINUOUS
10
6.35249
20
-3.6099
11
6.35271
21
-3.60988
0
LINE
8
BLACK
6
CONTINUOUS
10
6.35271
20
-3.60988
11
6.35278
21
-3.60988
0
LINE
8
BLACK
6
CONTINUOUS
10
6.35278
20
-3.60988
11
6.35278
21
-3.60988
0
LINE
8
BLACK
6
CONTINUOUS
10
6.35278
20
-3.60988
11
6.35372
21
-3.60972
0
LINE
8
BLACK
6
CONTINUOUS
10
6.35372
20
-3.60972
11
6.35375
21
-3.60972
0
LINE
8
BLACK
6
CONTINUOUS
10
6.35375
20
-3.60972
11
6.35584
21
-3.60942
0
LINE
8
BLACK
6
CONTINUOUS
10
6.35584
20
-3.60942
11
6.35584
21
-3.60942
0
LINE
8
BLACK
6
CONTINUOUS
10
6.35584
20
-3.60942
11
6.356
21
-3.60937
0
LINE
8
BLACK
6
CONTINUOUS
10
6.356
20
-3.60937
11
6.356
21
-3.60937
0
LINE
8
BLACK
6
CONTINUOUS
10
6.356
20
-3.60937
11
6.35602
21
-3.60937
0
LINE
8
BLACK
6
CONTINUOUS
10
6.35602
20
-3.60937
11
6.35602
21
-3.60937
0
LINE
8
BLACK
6
CONTINUOUS
10
6.35602
20
-3.60937
11
6.35618
21
-3.60931
0
LINE
8
BLACK
6
CONTINUOUS
10
6.35618
20
-3.60931
11
6.35618
21
-3.60931
0
LINE
8
BLACK
6
CONTINUOUS
10
6.35618
20
-3.60931
11
6.35803
21
-3.60831
0
LINE
8
BLACK
6
CONTINUOUS
10
6.35803
20
-3.60831
11
6.35806
21
-3.60829
0
LINE
8
BLACK
6
CONTINUOUS
10
6.35806
20
-3.60829
11
6.36573
21
-3.60439
0
LINE
8
BLACK
6
CONTINUOUS
10
6.36573
20
-3.60439
11
6.36785
21
-3.60413
0
LINE
8
BLACK
6
CONTINUOUS
10
6.36785
20
-3.60413
11
6.36834
21
-3.60428
0
LINE
8
BLACK
6
CONTINUOUS
10
6.36834
20
-3.60428
11
6.37178
21
-3.60571
0
LINE
8
BLACK
6
CONTINUOUS
10
6.37178
20
-3.60571
11
6.3759
21
-3.60625
0
LINE
8
BLACK
6
CONTINUOUS
10
6.3759
20
-3.60625
11
6.37795
21
-3.60652
0
LINE
8
BLACK
6
CONTINUOUS
10
6.37795
20
-3.60652
11
6.37795
21
-3.60652
0
LINE
8
BLACK
6
CONTINUOUS
10
6.37795
20
-3.60652
11
6.37795
21
-3.60652
0
LINE
8
BLACK
6
CONTINUOUS
10
6.37795
20
-3.60652
11
6.3795
21
-3.60632
0
LINE
8
BLACK
6
CONTINUOUS
10
6.3795
20
-3.60632
11
6.38412
21
-3.60571
0
LINE
8
BLACK
6
CONTINUOUS
10
6.38412
20
-3.60571
11
6.38988
21
-3.60333
0
LINE
8
BLACK
6
CONTINUOUS
10
6.38988
20
-3.60333
11
6.39481
21
-3.59954
0
LINE
8
BLACK
6
CONTINUOUS
10
6.39481
20
-3.59954
11
6.3986
21
-3.5946
0
LINE
8
BLACK
6
CONTINUOUS
10
6.3986
20
-3.5946
11
6.40099
21
-3.58885
0
LINE
8
BLACK
6
CONTINUOUS
10
6.40099
20
-3.58885
11
6.4018
21
-3.58268
0
LINE
8
BLACK
6
CONTINUOUS
10
6.4018
20
-3.58268
11
6.40099
21
-3.57651
0
LINE
8
BLACK
6
CONTINUOUS
10
6.40099
20
-3.57651
11
6.3986
21
-3.57075
0
LINE
8
BLACK
6
CONTINUOUS
10
6.3986
20
-3.57075
11
6.39646
21
-3.56796
0
LINE
8
BLACK
6
CONTINUOUS
10
6.39646
20
-3.56796
11
6.39481
21
-3.56582
0
LINE
8
BLACK
6
CONTINUOUS
10
6.39481
20
-3.56582
11
6.39202
21
-3.56367
0
LINE
8
BLACK
6
CONTINUOUS
10
6.39202
20
-3.56367
11
6.38988
21
-3.56203
0
LINE
8
BLACK
6
CONTINUOUS
10
6.38988
20
-3.56203
11
6.38988
21
-3.56203
0
LINE
8
BLACK
6
CONTINUOUS
10
6.38988
20
-3.56203
11
6.38988
21
-3.56203
0
LINE
8
BLACK
6
CONTINUOUS
10
6.38988
20
-3.56203
11
6.38412
21
-3.55964
0
LINE
8
BLACK
6
CONTINUOUS
10
6.38412
20
-3.55964
11
6.38412
21
-3.55964
0
LINE
8
BLACK
6
CONTINUOUS
10
6.38412
20
-3.55964
11
6.37795
21
-3.55883
0
LINE
8
BLACK
6
CONTINUOUS
10
6.37795
20
-3.55883
11
6.37795
21
-3.55883
0
LINE
8
BLACK
6
CONTINUOUS
10
6.37795
20
-3.55883
11
6.37178
21
-3.55964
0
LINE
8
BLACK
6
CONTINUOUS
10
6.37178
20
-3.55964
11
6.37178
21
-3.55964
0
LINE
8
BLACK
6
CONTINUOUS
10
6.37178
20
-3.55964
11
6.36603
21
-3.56203
0
LINE
8
BLACK
6
CONTINUOUS
10
6.36603
20
-3.56203
11
6.36603
21
-3.56203
0
LINE
8
BLACK
6
CONTINUOUS
10
6.36603
20
-3.56203
11
6.36109
21
-3.56582
0
LINE
8
BLACK
6
CONTINUOUS
10
6.36109
20
-3.56582
11
6.3573
21
-3.57075
0
LINE
8
BLACK
6
CONTINUOUS
10
6.3573
20
-3.57075
11
6.3573
21
-3.57075
0
LINE
8
BLACK
6
CONTINUOUS
10
6.3573
20
-3.57075
11
6.35492
21
-3.57651
0
LINE
8
BLACK
6
CONTINUOUS
10
6.35492
20
-3.57651
11
6.35492
21
-3.57651
0
LINE
8
BLACK
6
CONTINUOUS
10
6.35492
20
-3.57651
11
6.35479
21
-3.57747
0
LINE
8
BLACK
6
CONTINUOUS
10
6.35479
20
-3.57747
11
6.35381
21
-3.57936
0
LINE
8
BLACK
6
CONTINUOUS
10
6.35381
20
-3.57936
11
6.35312
21
-3.57984
0
LINE
8
BLACK
6
CONTINUOUS
10
6.35312
20
-3.57984
11
6.34899
21
-3.58194
0
LINE
8
BLACK
6
CONTINUOUS
10
6.34899
20
-3.58194
11
6.34758
21
-3.58228
0
LINE
8
BLACK
6
CONTINUOUS
10
6.34758
20
-3.58228
11
6.03145
21
-3.58228
0
LINE
8
BLACK
6
CONTINUOUS
10
6.03145
20
-3.58228
11
6.02945
21
-3.58156
0
LINE
8
BLACK
6
CONTINUOUS
10
6.02945
20
-3.58156
11
6.02925
21
-3.58137
0
LINE
8
BLACK
6
CONTINUOUS
10
6.02925
20
-3.58137
11
6.00908
21
-3.5612
0
LINE
8
BLACK
6
CONTINUOUS
10
6.00908
20
-3.5612
11
6.00867
21
-3.5607
0
LINE
8
BLACK
6
CONTINUOUS
10
6.00867
20
-3.5607
11
6.00798
21
-3.55964
0
LINE
8
BLACK
6
CONTINUOUS
10
6.00798
20
-3.55964
11
6.00771
21
-3.55922
0
LINE
8
BLACK
6
CONTINUOUS
10
6.00771
20
-3.55922
11
6.00764
21
-3.55911
0
LINE
8
BLACK
6
CONTINUOUS
10
6.00764
20
-3.55911
11
6.00749
21
-3.55883
0
LINE
8
BLACK
6
CONTINUOUS
10
6.00749
20
-3.55883
11
6.00685
21
-3.55765
0
LINE
8
BLACK
6
CONTINUOUS
10
6.00685
20
-3.55765
11
6.0067
21
-3.55751
0
LINE
8
BLACK
6
CONTINUOUS
10
6.0067
20
-3.55751
11
6.00621
21
-3.55693
0
LINE
8
BLACK
6
CONTINUOUS
10
6.00621
20
-3.55693
11
6.0061
21
-3.55676
0
LINE
8
BLACK
6
CONTINUOUS
10
6.0061
20
-3.55676
11
6.0061
21
-3.55676
0
LINE
8
BLACK
6
CONTINUOUS
10
6.0061
20
-3.55676
11
6.00517
21
-3.55604
0
LINE
8
BLACK
6
CONTINUOUS
10
6.00517
20
-3.55604
11
6.00404
21
-3.55424
0
LINE
8
BLACK
6
CONTINUOUS
10
6.00404
20
-3.55424
11
6.00434
21
-3.55213
0
LINE
8
BLACK
6
CONTINUOUS
10
6.00434
20
-3.55213
11
6.00462
21
-3.5517
0
LINE
8
BLACK
6
CONTINUOUS
10
6.00462
20
-3.5517
11
6.00474
21
-3.55153
0
LINE
8
BLACK
6
CONTINUOUS
10
6.00474
20
-3.55153
11
6.00695
21
-3.54865
0
LINE
8
BLACK
6
CONTINUOUS
10
6.00695
20
-3.54865
11
6.00933
21
-3.5429
0
LINE
8
BLACK
6
CONTINUOUS
10
6.00933
20
-3.5429
11
6.01014
21
-3.53673
0
LINE
8
BLACK
6
CONTINUOUS
10
6.01014
20
-3.53673
11
6.01004
21
-3.5359
0
LINE
8
BLACK
6
CONTINUOUS
10
6.01004
20
-3.5359
11
6.00946
21
-3.53151
0
LINE
8
BLACK
6
CONTINUOUS
10
6.00946
20
-3.53151
11
6.00933
21
-3.53056
0
LINE
8
BLACK
6
CONTINUOUS
10
6.00933
20
-3.53056
11
6.00823
21
-3.5279
0
LINE
8
BLACK
6
CONTINUOUS
10
6.00823
20
-3.5279
11
6.00695
21
-3.52481
0
LINE
8
BLACK
6
CONTINUOUS
10
6.00695
20
-3.52481
11
6.00695
21
-3.52481
0
LINE
8
BLACK
6
CONTINUOUS
10
6.00695
20
-3.52481
11
6.00695
21
-3.52481
0
LINE
8
BLACK
6
CONTINUOUS
10
6.00695
20
-3.52481
11
6.00372
21
-3.5206
0
LINE
8
BLACK
6
CONTINUOUS
10
6.00372
20
-3.5206
11
6.00316
21
-3.51987
0
LINE
8
BLACK
6
CONTINUOUS
10
6.00316
20
-3.51987
11
5.99996
21
-3.51742
0
LINE
8
BLACK
6
CONTINUOUS
10
5.99996
20
-3.51742
11
5.99822
21
-3.51608
0
LINE
8
BLACK
6
CONTINUOUS
10
5.99822
20
-3.51608
11
5.99822
21
-3.51608
0
LINE
8
BLACK
6
CONTINUOUS
10
5.99822
20
-3.51608
11
5.99822
21
-3.51608
0
LINE
8
BLACK
6
CONTINUOUS
10
5.99822
20
-3.51608
11
5.99247
21
-3.5137
0
LINE
8
BLACK
6
CONTINUOUS
10
5.99247
20
-3.5137
11
5.99247
21
-3.5137
0
LINE
8
BLACK
6
CONTINUOUS
10
5.99247
20
-3.5137
11
5.9863
21
-3.51289
0
LINE
8
BLACK
6
CONTINUOUS
10
5.9863
20
-3.51289
11
5.9863
21
-3.51289
0
LINE
8
BLACK
6
CONTINUOUS
10
5.9863
20
-3.51289
11
5.98013
21
-3.5137
0
LINE
8
BLACK
6
CONTINUOUS
10
5.98013
20
-3.5137
11
5.98013
21
-3.5137
0
LINE
8
BLACK
6
CONTINUOUS
10
5.98013
20
-3.5137
11
5.97438
21
-3.51608
0
LINE
8
BLACK
6
CONTINUOUS
10
5.97438
20
-3.51608
11
5.97438
21
-3.51608
0
LINE
8
BLACK
6
CONTINUOUS
10
5.97438
20
-3.51608
11
5.96944
21
-3.51987
0
LINE
8
BLACK
6
CONTINUOUS
10
5.96944
20
-3.51987
11
5.96809
21
-3.52162
0
LINE
8
BLACK
6
CONTINUOUS
10
5.96809
20
-3.52162
11
5.9663
21
-3.52277
0
LINE
8
BLACK
6
CONTINUOUS
10
5.9663
20
-3.52277
11
5.96499
21
-3.52277
0
LINE
8
BLACK
6
CONTINUOUS
10
5.96499
20
-3.52277
11
5.96489
21
-3.52275
0
LINE
8
BLACK
6
CONTINUOUS
10
5.96489
20
-3.52275
11
5.96489
21
-3.52275
0
LINE
8
BLACK
6
CONTINUOUS
10
5.96489
20
-3.52275
11
5.96355
21
-3.52292
0
LINE
8
BLACK
6
CONTINUOUS
10
5.96355
20
-3.52292
11
5.96336
21
-3.52293
0
LINE
8
BLACK
6
CONTINUOUS
10
5.96336
20
-3.52293
11
5.96317
21
-3.52293
0
LINE
8
BLACK
6
CONTINUOUS
10
5.96317
20
-3.52293
11
5.96236
21
-3.52307
0
LINE
8
BLACK
6
CONTINUOUS
10
5.96236
20
-3.52307
11
5.96229
21
-3.52308
0
LINE
8
BLACK
6
CONTINUOUS
10
5.96229
20
-3.52308
11
5.96032
21
-3.52332
0
LINE
8
BLACK
6
CONTINUOUS
10
5.96032
20
-3.52332
11
5.96008
21
-3.5234
0
LINE
8
BLACK
6
CONTINUOUS
10
5.96008
20
-3.5234
11
5.96007
21
-3.52338
0
LINE
8
BLACK
6
CONTINUOUS
10
5.96007
20
-3.52338
11
5.96001
21
-3.5234
0
LINE
8
BLACK
6
CONTINUOUS
10
5.96001
20
-3.5234
11
5.96002
21
-3.52342
0
LINE
8
BLACK
6
CONTINUOUS
10
5.96002
20
-3.52342
11
5.95977
21
-3.5235
0
LINE
8
BLACK
6
CONTINUOUS
10
5.95977
20
-3.5235
11
5.95803
21
-3.52444
0
LINE
8
BLACK
6
CONTINUOUS
10
5.95803
20
-3.52444
11
5.95797
21
-3.52447
0
LINE
8
BLACK
6
CONTINUOUS
10
5.95797
20
-3.52447
11
5.95619
21
-3.52535
0
LINE
8
BLACK
6
CONTINUOUS
10
5.95619
20
-3.52535
11
5.95598
21
-3.5255
0
LINE
8
BLACK
6
CONTINUOUS
10
5.95598
20
-3.5255
11
5.95597
21
-3.52548
0
LINE
8
BLACK
6
CONTINUOUS
10
5.95597
20
-3.52548
11
5.95591
21
-3.52552
0
LINE
8
BLACK
6
CONTINUOUS
10
5.95591
20
-3.52552
11
5.95593
21
-3.52553
0
LINE
8
BLACK
6
CONTINUOUS
10
5.95593
20
-3.52553
11
5.95572
21
-3.52569
0
LINE
8
BLACK
6
CONTINUOUS
10
5.95572
20
-3.52569
11
5.95438
21
-3.52715
0
LINE
8
BLACK
6
CONTINUOUS
10
5.95438
20
-3.52715
11
5.95433
21
-3.5272
0
LINE
8
BLACK
6
CONTINUOUS
10
5.95433
20
-3.5272
11
5.94967
21
-3.53186
0
LINE
8
BLACK
6
CONTINUOUS
10
5.94967
20
-3.53186
11
5.94774
21
-3.53276
0
LINE
8
BLACK
6
CONTINUOUS
10
5.94774
20
-3.53276
11
5.94747
21
-3.53277
0
LINE
8
BLACK
6
CONTINUOUS
10
5.94747
20
-3.53277
11
5.66913
21
-3.53277
0
LINE
8
BLACK
6
CONTINUOUS
10
5.66913
20
-3.53277
11
5.66713
21
-3.53205
0
LINE
8
BLACK
6
CONTINUOUS
10
5.66713
20
-3.53205
11
5.66693
21
-3.53186
0
LINE
8
BLACK
6
CONTINUOUS
10
5.66693
20
-3.53186
11
5.64884
21
-3.51377
0
LINE
8
BLACK
6
CONTINUOUS
10
5.64884
20
-3.51377
11
5.64794
21
-3.51184
0
LINE
8
BLACK
6
CONTINUOUS
10
5.64794
20
-3.51184
11
5.64793
21
-3.51157
0
LINE
8
BLACK
6
CONTINUOUS
10
5.64793
20
-3.51157
11
5.64793
21
-3.22425
0
LINE
8
BLACK
6
CONTINUOUS
10
5.64793
20
-3.22425
11
5.64865
21
-3.22225
0
LINE
8
BLACK
6
CONTINUOUS
10
5.64865
20
-3.22225
11
5.64914
21
-3.22178
0
LINE
8
BLACK
6
CONTINUOUS
10
5.64914
20
-3.22178
11
5.65071
21
-3.22058
0
LINE
8
BLACK
6
CONTINUOUS
10
5.65071
20
-3.22058
11
5.65099
21
-3.22036
0
LINE
8
BLACK
6
CONTINUOUS
10
5.65099
20
-3.22036
11
5.65478
21
-3.21542
0
LINE
8
BLACK
6
CONTINUOUS
10
5.65478
20
-3.21542
11
5.65716
21
-3.20967
0
LINE
8
BLACK
6
CONTINUOUS
10
5.65716
20
-3.20967
11
5.65797
21
-3.2035
0
LINE
8
BLACK
6
CONTINUOUS
10
5.65797
20
-3.2035
11
5.65789
21
-3.2029
0
LINE
8
BLACK
6
CONTINUOUS
10
5.65789
20
-3.2029
11
5.65743
21
-3.19939
0
LINE
8
BLACK
6
CONTINUOUS
10
5.65743
20
-3.19939
11
5.65716
21
-3.19733
0
LINE
8
BLACK
6
CONTINUOUS
10
5.65716
20
-3.19733
11
5.65563
21
-3.19364
0
LINE
8
BLACK
6
CONTINUOUS
10
5.65563
20
-3.19364
11
5.65478
21
-3.19158
0
LINE
8
BLACK
6
CONTINUOUS
10
5.65478
20
-3.19158
11
5.65478
21
-3.19158
0
LINE
8
BLACK
6
CONTINUOUS
10
5.65478
20
-3.19158
11
5.65478
21
-3.19158
0
LINE
8
BLACK
6
CONTINUOUS
10
5.65478
20
-3.19158
11
5.65163
21
-3.18747
0
LINE
8
BLACK
6
CONTINUOUS
10
5.65163
20
-3.18747
11
5.65099
21
-3.18664
0
LINE
8
BLACK
6
CONTINUOUS
10
5.65099
20
-3.18664
11
5.64819
21
-3.1845
0
LINE
8
BLACK
6
CONTINUOUS
10
5.64819
20
-3.1845
11
5.64605
21
-3.18285
0
LINE
8
BLACK
6
CONTINUOUS
10
5.64605
20
-3.18285
11
5.64605
21
-3.18285
0
LINE
8
BLACK
6
CONTINUOUS
10
5.64605
20
-3.18285
11
5.64605
21
-3.18285
0
LINE
8
BLACK
6
CONTINUOUS
10
5.64605
20
-3.18285
11
5.6403
21
-3.18047
0
LINE
8
BLACK
6
CONTINUOUS
10
5.6403
20
-3.18047
11
5.6403
21
-3.18047
0
LINE
8
BLACK
6
CONTINUOUS
10
5.6403
20
-3.18047
11
5.63413
21
-3.17966
0
LINE
8
BLACK
6
CONTINUOUS
10
5.63413
20
-3.17966
11
5.63413
21
-3.17966
0
LINE
8
BLACK
6
CONTINUOUS
10
5.63413
20
-3.17966
11
5.62796
21
-3.18047
0
LINE
8
BLACK
6
CONTINUOUS
10
5.62796
20
-3.18047
11
5.62796
21
-3.18047
0
LINE
8
BLACK
6
CONTINUOUS
10
5.62796
20
-3.18047
11
5.6222
21
-3.18285
0
LINE
8
BLACK
6
CONTINUOUS
10
5.6222
20
-3.18285
11
5.6222
21
-3.18285
0
LINE
8
BLACK
6
CONTINUOUS
10
5.6222
20
-3.18285
11
5.61727
21
-3.18664
0
LINE
8
BLACK
6
CONTINUOUS
10
5.61727
20
-3.18664
11
5.61348
21
-3.19158
0
LINE
8
BLACK
6
CONTINUOUS
10
5.61348
20
-3.19158
11
5.61348
21
-3.19158
0
LINE
8
BLACK
6
CONTINUOUS
10
5.61348
20
-3.19158
11
5.61109
21
-3.19733
0
LINE
8
BLACK
6
CONTINUOUS
10
5.61109
20
-3.19733
11
5.61109
21
-3.19733
0
LINE
8
BLACK
6
CONTINUOUS
10
5.61109
20
-3.19733
11
5.61028
21
-3.2035
0
LINE
8
BLACK
6
CONTINUOUS
10
5.61028
20
-3.2035
11
5.61028
21
-3.2035
0
LINE
8
BLACK
6
CONTINUOUS
10
5.61028
20
-3.2035
11
5.61109
21
-3.20967
0
LINE
8
BLACK
6
CONTINUOUS
10
5.61109
20
-3.20967
11
5.61109
21
-3.20967
0
LINE
8
BLACK
6
CONTINUOUS
10
5.61109
20
-3.20967
11
5.61348
21
-3.21542
0
LINE
8
BLACK
6
CONTINUOUS
10
5.61348
20
-3.21542
11
5.61348
21
-3.21542
0
LINE
8
BLACK
6
CONTINUOUS
10
5.61348
20
-3.21542
11
5.61348
21
-3.21542
0
LINE
8
BLACK
6
CONTINUOUS
10
5.61348
20
-3.21542
11
5.61453
21
-3.2168
0
LINE
8
BLACK
6
CONTINUOUS
10
5.61453
20
-3.2168
11
5.61727
21
-3.22036
0
LINE
8
BLACK
6
CONTINUOUS
10
5.61727
20
-3.22036
11
5.61911
21
-3.22178
0
LINE
8
BLACK
6
CONTINUOUS
10
5.61911
20
-3.22178
11
5.62025
21
-3.22357
0
LINE
8
BLACK
6
CONTINUOUS
10
5.62025
20
-3.22357
11
5.62033
21
-3.22425
0
LINE
8
BLACK
6
CONTINUOUS
10
5.62033
20
-3.22425
11
5.62033
21
-3.48663
0
LINE
8
BLACK
6
CONTINUOUS
10
5.62033
20
-3.48663
11
5.6196
21
-3.48863
0
LINE
8
BLACK
6
CONTINUOUS
10
5.6196
20
-3.48863
11
5.61776
21
-3.48969
0
LINE
8
BLACK
6
CONTINUOUS
10
5.61776
20
-3.48969
11
5.61566
21
-3.48932
0
LINE
8
BLACK
6
CONTINUOUS
10
5.61566
20
-3.48932
11
5.61475
21
-3.48852
0
LINE
8
BLACK
6
CONTINUOUS
10
5.61475
20
-3.48852
11
5.61325
21
-3.48656
0
LINE
8
BLACK
6
CONTINUOUS
10
5.61325
20
-3.48656
11
5.61045
21
-3.48442
0
LINE
8
BLACK
6
CONTINUOUS
10
5.61045
20
-3.48442
11
5.60831
21
-3.48277
0
LINE
8
BLACK
6
CONTINUOUS
10
5.60831
20
-3.48277
11
5.60831
21
-3.48277
0
LINE
8
BLACK
6
CONTINUOUS
10
5.60831
20
-3.48277
11
5.60831
21
-3.48277
0
LINE
8
BLACK
6
CONTINUOUS
10
5.60831
20
-3.48277
11
5.60256
21
-3.48039
0
LINE
8
BLACK
6
CONTINUOUS
10
5.60256
20
-3.48039
11
5.60256
21
-3.48039
0
LINE
8
BLACK
6
CONTINUOUS
10
5.60256
20
-3.48039
11
5.59638
21
-3.47958
0
LINE
8
BLACK
6
CONTINUOUS
10
5.59638
20
-3.47958
11
5.59638
21
-3.47958
0
LINE
8
BLACK
6
CONTINUOUS
10
5.59638
20
-3.47958
11
5.59021
21
-3.48039
0
LINE
8
BLACK
6
CONTINUOUS
10
5.59021
20
-3.48039
11
5.59021
21
-3.48039
0
LINE
8
BLACK
6
CONTINUOUS
10
5.59021
20
-3.48039
11
5.58446
21
-3.48277
0
LINE
8
BLACK
6
CONTINUOUS
10
5.58446
20
-3.48277
11
5.58429
21
-3.48288
0
LINE
8
BLACK
6
CONTINUOUS
10
5.58429
20
-3.48288
11
5.58424
21
-3.48279
0
LINE
8
BLACK
6
CONTINUOUS
10
5.58424
20
-3.48279
11
5.58255
21
-3.48332
0
LINE
8
BLACK
6
CONTINUOUS
10
5.58255
20
-3.48332
11
5.58059
21
-3.48251
0
LINE
8
BLACK
6
CONTINUOUS
10
5.58059
20
-3.48251
11
5.57982
21
-3.4814
0
LINE
8
BLACK
6
CONTINUOUS
10
5.57982
20
-3.4814
11
5.57933
21
-3.48024
0
LINE
8
BLACK
6
CONTINUOUS
10
5.57933
20
-3.48024
11
5.57933
21
-3.48024
0
LINE
8
BLACK
6
CONTINUOUS
10
5.57933
20
-3.48024
11
5.57933
21
-3.48024
0
LINE
8
BLACK
6
CONTINUOUS
10
5.57933
20
-3.48024
11
5.57713
21
-3.47737
0
LINE
8
BLACK
6
CONTINUOUS
10
5.57713
20
-3.47737
11
5.57554
21
-3.4753
0
LINE
8
BLACK
6
CONTINUOUS
10
5.57554
20
-3.4753
11
5.57199
21
-3.47257
0
LINE
8
BLACK
6
CONTINUOUS
10
5.57199
20
-3.47257
11
5.5706
21
-3.47151
0
LINE
8
BLACK
6
CONTINUOUS
10
5.5706
20
-3.47151
11
5.5706
21
-3.47151
0
LINE
8
BLACK
6
CONTINUOUS
10
5.5706
20
-3.47151
11
5.5706
21
-3.47151
0
LINE
8
BLACK
6
CONTINUOUS
10
5.5706
20
-3.47151
11
5.56485
21
-3.46913
0
LINE
8
BLACK
6
CONTINUOUS
10
5.56485
20
-3.46913
11
5.56485
21
-3.46913
0
LINE
8
BLACK
6
CONTINUOUS
10
5.56485
20
-3.46913
11
5.55868
21
-3.46831
0
LINE
8
BLACK
6
CONTINUOUS
10
5.55868
20
-3.46831
11
5.55868
21
-3.46831
0
LINE
8
BLACK
6
CONTINUOUS
10
5.55868
20
-3.46831
11
5.55251
21
-3.46913
0
LINE
8
BLACK
6
CONTINUOUS
10
5.55251
20
-3.46913
11
5.55251
21
-3.46913
0
LINE
8
BLACK
6
CONTINUOUS
10
5.55251
20
-3.46913
11
5.54676
21
-3.47151
0
LINE
8
BLACK
6
CONTINUOUS
10
5.54676
20
-3.47151
11
5.54676
21
-3.47151
0
LINE
8
BLACK
6
CONTINUOUS
10
5.54676
20
-3.47151
11
5.54182
21
-3.4753
0
LINE
8
BLACK
6
CONTINUOUS
10
5.54182
20
-3.4753
11
5.53803
21
-3.48024
0
LINE
8
BLACK
6
CONTINUOUS
10
5.53803
20
-3.48024
11
5.53803
21
-3.48024
0
LINE
8
BLACK
6
CONTINUOUS
10
5.53803
20
-3.48024
11
5.53565
21
-3.48599
0
LINE
8
BLACK
6
CONTINUOUS
10
5.53565
20
-3.48599
11
5.53565
21
-3.48599
0
LINE
8
BLACK
6
CONTINUOUS
10
5.53565
20
-3.48599
11
5.53484
21
-3.49216
0
LINE
8
BLACK
6
CONTINUOUS
10
5.53484
20
-3.49216
11
5.53484
21
-3.49216
0
LINE
8
BLACK
6
CONTINUOUS
10
5.53484
20
-3.49216
11
5.53565
21
-3.49833
0
LINE
8
BLACK
6
CONTINUOUS
10
5.53565
20
-3.49833
11
5.53565
21
-3.49833
0
LINE
8
BLACK
6
CONTINUOUS
10
5.53565
20
-3.49833
11
5.53803
21
-3.50408
0
LINE
8
BLACK
6
CONTINUOUS
10
5.53803
20
-3.50408
11
5.53803
21
-3.50408
0
LINE
8
BLACK
6
CONTINUOUS
10
5.53803
20
-3.50408
11
5.53803
21
-3.50408
0
LINE
8
BLACK
6
CONTINUOUS
10
5.53803
20
-3.50408
11
5.54182
21
-3.50902
0
LINE
8
BLACK
6
CONTINUOUS
10
5.54182
20
-3.50902
11
5.54182
21
-3.50902
0
LINE
8
BLACK
6
CONTINUOUS
10
5.54182
20
-3.50902
11
5.54366
21
-3.51044
0
LINE
8
BLACK
6
CONTINUOUS
10
5.54366
20
-3.51044
11
5.54481
21
-3.51223
0
LINE
8
BLACK
6
CONTINUOUS
10
5.54481
20
-3.51223
11
5.54488
21
-3.5129
0
LINE
8
BLACK
6
CONTINUOUS
10
5.54488
20
-3.5129
11
5.54488
21
-3.52419
0
LINE
8
BLACK
6
CONTINUOUS
10
5.54488
20
-3.52419
11
5.54482
21
-3.52483
0
LINE
8
BLACK
6
CONTINUOUS
10
5.54482
20
-3.52483
11
5.5447
21
-3.52536
0
LINE
8
BLACK
6
CONTINUOUS
10
5.5447
20
-3.52536
11
5.5447
21
-3.52536
0
LINE
8
BLACK
6
CONTINUOUS
10
5.5447
20
-3.52536
11
5.54487
21
-3.5267
0
LINE
8
BLACK
6
CONTINUOUS
10
5.54487
20
-3.5267
11
5.54488
21
-3.5269
0
LINE
8
BLACK
6
CONTINUOUS
10
5.54488
20
-3.5269
11
5.54488
21
-3.52709
0
LINE
8
BLACK
6
CONTINUOUS
10
5.54488
20
-3.52709
11
5.54502
21
-3.5279
0
LINE
8
BLACK
6
CONTINUOUS
10
5.54502
20
-3.5279
11
5.54503
21
-3.52796
0
LINE
8
BLACK
6
CONTINUOUS
10
5.54503
20
-3.52796
11
5.54527
21
-3.52993
0
LINE
8
BLACK
6
CONTINUOUS
10
5.54527
20
-3.52993
11
5.54535
21
-3.53018
0
LINE
8
BLACK
6
CONTINUOUS
10
5.54535
20
-3.53018
11
5.54533
21
-3.53019
0
LINE
8
BLACK
6
CONTINUOUS
10
5.54533
20
-3.53019
11
5.54535
21
-3.53025
0
LINE
8
BLACK
6
CONTINUOUS
10
5.54535
20
-3.53025
11
5.54537
21
-3.53024
0
LINE
8
BLACK
6
CONTINUOUS
10
5.54537
20
-3.53024
11
5.54545
21
-3.53048
0
LINE
8
BLACK
6
CONTINUOUS
10
5.54545
20
-3.53048
11
5.54639
21
-3.53223
0
LINE
8
BLACK
6
CONTINUOUS
10
5.54639
20
-3.53223
11
5.54642
21
-3.53229
0
LINE
8
BLACK
6
CONTINUOUS
10
5.54642
20
-3.53229
11
5.5473
21
-3.53407
0
LINE
8
BLACK
6
CONTINUOUS
10
5.5473
20
-3.53407
11
5.54745
21
-3.53428
0
LINE
8
BLACK
6
CONTINUOUS
10
5.54745
20
-3.53428
11
5.54743
21
-3.53429
0
LINE
8
BLACK
6
CONTINUOUS
10
5.54743
20
-3.53429
11
5.54747
21
-3.53434
0
LINE
8
BLACK
6
CONTINUOUS
10
5.54747
20
-3.53434
11
5.54748
21
-3.53433
0
LINE
8
BLACK
6
CONTINUOUS
10
5.54748
20
-3.53433
11
5.54764
21
-3.53453
0
LINE
8
BLACK
6
CONTINUOUS
10
5.54764
20
-3.53453
11
5.5491
21
-3.53588
0
LINE
8
BLACK
6
CONTINUOUS
10
5.5491
20
-3.53588
11
5.54915
21
-3.53592
0
LINE
8
BLACK
6
CONTINUOUS
10
5.54915
20
-3.53592
11
5.57442
21
-3.5612
0
LINE
8
BLACK
6
CONTINUOUS
10
5.57442
20
-3.5612
11
5.59961
21
-3.58638
0
LINE
8
BLACK
6
CONTINUOUS
10
5.59961
20
-3.58638
11
5.60051
21
-3.58831
0
LINE
8
BLACK
6
CONTINUOUS
10
5.60051
20
-3.58831
11
5.59995
21
-3.59037
0
LINE
8
BLACK
6
CONTINUOUS
10
5.59995
20
-3.59037
11
5.59821
21
-3.59159
0
LINE
8
BLACK
6
CONTINUOUS
10
5.59821
20
-3.59159
11
5.59779
21
-3.59167
0
LINE
8
BLACK
6
CONTINUOUS
10
5.59779
20
-3.59167
11
5.59704
21
-3.59176
0
LINE
8
BLACK
6
CONTINUOUS
10
5.59704
20
-3.59176
11
5.59685
21
-3.59177
0
LINE
8
BLACK
6
CONTINUOUS
10
5.59685
20
-3.59177
11
5.59666
21
-3.59177
0
LINE
8
BLACK
6
CONTINUOUS
10
5.59666
20
-3.59177
11
5.59666
21
-3.59177
0
LINE
8
BLACK
6
CONTINUOUS
10
5.59666
20
-3.59177
11
5.59666
21
-3.59177
0
LINE
8
BLACK
6
CONTINUOUS
10
5.59666
20
-3.59177
11
5.59584
21
-3.59191
0
LINE
8
BLACK
6
CONTINUOUS
10
5.59584
20
-3.59191
11
5.59578
21
-3.59192
0
LINE
8
BLACK
6
CONTINUOUS
10
5.59578
20
-3.59192
11
5.59381
21
-3.59216
0
LINE
8
BLACK
6
CONTINUOUS
10
5.59381
20
-3.59216
11
5.59356
21
-3.59224
0
LINE
8
BLACK
6
CONTINUOUS
10
5.59356
20
-3.59224
11
5.59356
21
-3.59222
0
LINE
8
BLACK
6
CONTINUOUS
10
5.59356
20
-3.59222
11
5.5935
21
-3.59224
0
LINE
8
BLACK
6
CONTINUOUS
10
5.5935
20
-3.59224
11
5.5935
21
-3.59226
0
LINE
8
BLACK
6
CONTINUOUS
10
5.5935
20
-3.59226
11
5.59326
21
-3.59234
0
LINE
8
BLACK
6
CONTINUOUS
10
5.59326
20
-3.59234
11
5.59151
21
-3.59329
0
LINE
8
BLACK
6
CONTINUOUS
10
5.59151
20
-3.59329
11
5.59146
21
-3.59331
0
LINE
8
BLACK
6
CONTINUOUS
10
5.59146
20
-3.59331
11
5.58967
21
-3.59419
0
LINE
8
BLACK
6
CONTINUOUS
10
5.58967
20
-3.59419
11
5.58946
21
-3.59434
0
LINE
8
BLACK
6
CONTINUOUS
10
5.58946
20
-3.59434
11
5.58945
21
-3.59432
0
LINE
8
BLACK
6
CONTINUOUS
10
5.58945
20
-3.59432
11
5.5894
21
-3.59436
0
LINE
8
BLACK
6
CONTINUOUS
10
5.5894
20
-3.59436
11
5.58941
21
-3.59437
0
LINE
8
BLACK
6
CONTINUOUS
10
5.58941
20
-3.59437
11
5.58921
21
-3.59453
0
LINE
8
BLACK
6
CONTINUOUS
10
5.58921
20
-3.59453
11
5.58787
21
-3.59599
0
LINE
8
BLACK
6
CONTINUOUS
10
5.58787
20
-3.59599
11
5.58782
21
-3.59604
0
LINE
8
BLACK
6
CONTINUOUS
10
5.58782
20
-3.59604
11
5.53752
21
-3.64634
0
LINE
8
BLACK
6
CONTINUOUS
10
5.53752
20
-3.64634
11
5.53573
21
-3.64722
0
LINE
8
BLACK
6
CONTINUOUS
10
5.53573
20
-3.64722
11
5.53198
21
-3.64771
0
LINE
8
BLACK
6
CONTINUOUS
10
5.53198
20
-3.64771
11
5.53198
21
-3.64771
0
LINE
8
BLACK
6
CONTINUOUS
10
5.53198
20
-3.64771
11
5.52675
21
-3.64988
0
LINE
8
BLACK
6
CONTINUOUS
10
5.52675
20
-3.64988
11
5.52462
21
-3.64998
0
LINE
8
BLACK
6
CONTINUOUS
10
5.52462
20
-3.64998
11
5.52293
21
-3.64868
0
LINE
8
BLACK
6
CONTINUOUS
10
5.52293
20
-3.64868
11
5.52245
21
-3.64701
0
LINE
8
BLACK
6
CONTINUOUS
10
5.52245
20
-3.64701
11
5.52245
21
-3.50185
0
LINE
8
BLACK
6
CONTINUOUS
10
5.52245
20
-3.50185
11
5.52282
21
-3.50046
0
LINE
8
BLACK
6
CONTINUOUS
10
5.52282
20
-3.50046
11
5.5228
21
-3.50046
0
LINE
8
BLACK
6
CONTINUOUS
10
5.5228
20
-3.50046
11
5.52286
21
-3.50033
0
LINE
8
BLACK
6
CONTINUOUS
10
5.52286
20
-3.50033
11
5.52286
21
-3.5003
0
LINE
8
BLACK
6
CONTINUOUS
10
5.52286
20
-3.5003
11
5.52288
21
-3.50027
0
LINE
8
BLACK
6
CONTINUOUS
10
5.52288
20
-3.50027
11
5.52288
21
-3.50027
0
LINE
8
BLACK
6
CONTINUOUS
10
5.52288
20
-3.50027
11
5.52526
21
-3.49452
0
LINE
8
BLACK
6
CONTINUOUS
10
5.52526
20
-3.49452
11
5.52608
21
-3.48835
0
LINE
8
BLACK
6
CONTINUOUS
10
5.52608
20
-3.48835
11
5.52607
21
-3.48827
0
LINE
8
BLACK
6
CONTINUOUS
10
5.52607
20
-3.48827
11
5.52541
21
-3.48332
0
LINE
8
BLACK
6
CONTINUOUS
10
5.52541
20
-3.48332
11
5.52526
21
-3.48217
0
LINE
8
BLACK
6
CONTINUOUS
10
5.52526
20
-3.48217
11
5.52288
21
-3.47642
0
LINE
8
BLACK
6
CONTINUOUS
10
5.52288
20
-3.47642
11
5.51992
21
-3.47257
0
LINE
8
BLACK
6
CONTINUOUS
10
5.51992
20
-3.47257
11
5.51909
21
-3.47148
0
LINE
8
BLACK
6
CONTINUOUS
10
5.51909
20
-3.47148
11
5.51571
21
-3.46889
0
LINE
8
BLACK
6
CONTINUOUS
10
5.51571
20
-3.46889
11
5.51415
21
-3.4677
0
LINE
8
BLACK
6
CONTINUOUS
10
5.51415
20
-3.4677
11
5.51415
21
-3.4677
0
LINE
8
BLACK
6
CONTINUOUS
10
5.51415
20
-3.4677
11
5.51415
21
-3.4677
0
LINE
8
BLACK
6
CONTINUOUS
10
5.51415
20
-3.4677
11
5.5084
21
-3.46531
0
LINE
8
BLACK
6
CONTINUOUS
10
5.5084
20
-3.46531
11
5.5084
21
-3.46531
0
LINE
8
BLACK
6
CONTINUOUS
10
5.5084
20
-3.46531
11
5.50223
21
-3.4645
0
LINE
8
BLACK
6
CONTINUOUS
10
5.50223
20
-3.4645
11
5.50223
21
-3.4645
0
LINE
8
BLACK
6
CONTINUOUS
10
5.50223
20
-3.4645
11
5.49606
21
-3.46531
0
LINE
8
BLACK
6
CONTINUOUS
10
5.49606
20
-3.46531
11
5.49606
21
-3.46531
0
LINE
8
BLACK
6
CONTINUOUS
10
5.49606
20
-3.46531
11
5.49031
21
-3.4677
0
LINE
8
BLACK
6
CONTINUOUS
10
5.49031
20
-3.4677
11
5.49031
21
-3.4677
0
LINE
8
BLACK
6
CONTINUOUS
10
5.49031
20
-3.4677
11
5.48537
21
-3.47148
0
LINE
8
BLACK
6
CONTINUOUS
10
5.48537
20
-3.47148
11
5.48523
21
-3.47163
0
LINE
8
BLACK
6
CONTINUOUS
10
5.48523
20
-3.47163
11
5.48517
21
-3.47158
0
LINE
8
BLACK
6
CONTINUOUS
10
5.48517
20
-3.47158
11
5.48362
21
-3.47257
0
LINE
8
BLACK
6
CONTINUOUS
10
5.48362
20
-3.47257
11
5.48151
21
-3.47229
0
LINE
8
BLACK
6
CONTINUOUS
10
5.48151
20
-3.47229
11
5.48048
21
-3.47143
0
LINE
8
BLACK
6
CONTINUOUS
10
5.48048
20
-3.47143
11
5.47975
21
-3.47048
0
LINE
8
BLACK
6
CONTINUOUS
10
5.47975
20
-3.47048
11
5.47613
21
-3.4677
0
LINE
8
BLACK
6
CONTINUOUS
10
5.47613
20
-3.4677
11
5.47482
21
-3.46669
0
LINE
8
BLACK
6
CONTINUOUS
10
5.47482
20
-3.46669
11
5.47482
21
-3.46669
0
LINE
8
BLACK
6
CONTINUOUS
10
5.47482
20
-3.46669
11
5.47482
21
-3.46669
0
LINE
8
BLACK
6
CONTINUOUS
10
5.47482
20
-3.46669
11
5.46906
21
-3.46431
0
LINE
8
BLACK
6
CONTINUOUS
10
5.46906
20
-3.46431
11
5.46906
21
-3.46431
0
LINE
8
BLACK
6
CONTINUOUS
10
5.46906
20
-3.46431
11
5.46289
21
-3.4635
0
LINE
8
BLACK
6
CONTINUOUS
10
5.46289
20
-3.4635
11
5.46289
21
-3.4635
0
LINE
8
BLACK
6
CONTINUOUS
10
5.46289
20
-3.4635
11
5.45672
21
-3.46431
0
LINE
8
BLACK
6
CONTINUOUS
10
5.45672
20
-3.46431
11
5.45672
21
-3.46431
0
LINE
8
BLACK
6
CONTINUOUS
10
5.45672
20
-3.46431
11
5.45097
21
-3.46669
0
LINE
8
BLACK
6
CONTINUOUS
10
5.45097
20
-3.46669
11
5.45097
21
-3.46669
0
LINE
8
BLACK
6
CONTINUOUS
10
5.45097
20
-3.46669
11
5.44603
21
-3.47048
0
LINE
8
BLACK
6
CONTINUOUS
10
5.44603
20
-3.47048
11
5.44518
21
-3.4716
0
LINE
8
BLACK
6
CONTINUOUS
10
5.44518
20
-3.4716
11
5.44338
21
-3.47274
0
LINE
8
BLACK
6
CONTINUOUS
10
5.44338
20
-3.47274
11
5.44127
21
-3.47246
0
LINE
8
BLACK
6
CONTINUOUS
10
5.44127
20
-3.47246
11
5.44024
21
-3.4716
0
LINE
8
BLACK
6
CONTINUOUS
10
5.44024
20
-3.4716
11
5.43816
21
-3.46889
0
LINE
8
BLACK
6
CONTINUOUS
10
5.43816
20
-3.46889
11
5.4353
21
-3.46669
0
LINE
8
BLACK
6
CONTINUOUS
10
5.4353
20
-3.46669
11
5.43322
21
-3.4651
0
LINE
8
BLACK
6
CONTINUOUS
10
5.43322
20
-3.4651
11
5.43322
21
-3.4651
0
LINE
8
BLACK
6
CONTINUOUS
10
5.43322
20
-3.4651
11
5.43322
21
-3.4651
0
LINE
8
BLACK
6
CONTINUOUS
10
5.43322
20
-3.4651
11
5.42747
21
-3.46271
0
LINE
8
BLACK
6
CONTINUOUS
10
5.42747
20
-3.46271
11
5.42747
21
-3.46271
0
LINE
8
BLACK
6
CONTINUOUS
10
5.42747
20
-3.46271
11
5.4213
21
-3.4619
0
LINE
8
BLACK
6
CONTINUOUS
10
5.4213
20
-3.4619
11
5.4213
21
-3.4619
0
LINE
8
BLACK
6
CONTINUOUS
10
5.4213
20
-3.4619
11
5.41511
21
-3.46272
0
LINE
8
BLACK
6
CONTINUOUS
10
5.41511
20
-3.46272
11
5.41303
21
-3.46226
0
LINE
8
BLACK
6
CONTINUOUS
10
5.41303
20
-3.46226
11
5.41173
21
-3.46057
0
LINE
8
BLACK
6
CONTINUOUS
10
5.41173
20
-3.46057
11
5.41162
21
-3.45923
0
LINE
8
BLACK
6
CONTINUOUS
10
5.41162
20
-3.45923
11
5.412
21
-3.45635
0
LINE
8
BLACK
6
CONTINUOUS
10
5.412
20
-3.45635
11
5.412
21
-3.45635
0
LINE
8
BLACK
6
CONTINUOUS
10
5.412
20
-3.45635
11
5.41118
21
-3.45018
0
LINE
8
BLACK
6
CONTINUOUS
10
5.41118
20
-3.45018
11
5.41118
21
-3.45018
0
LINE
8
BLACK
6
CONTINUOUS
10
5.41118
20
-3.45018
11
5.4088
21
-3.44443
0
LINE
8
BLACK
6
CONTINUOUS
10
5.4088
20
-3.44443
11
5.40666
21
-3.44163
0
LINE
8
BLACK
6
CONTINUOUS
10
5.40666
20
-3.44163
11
5.40501
21
-3.43949
0
LINE
8
BLACK
6
CONTINUOUS
10
5.40501
20
-3.43949
11
5.40222
21
-3.43734
0
LINE
8
BLACK
6
CONTINUOUS
10
5.40222
20
-3.43734
11
5.40007
21
-3.4357
0
LINE
8
BLACK
6
CONTINUOUS
10
5.40007
20
-3.4357
11
5.40007
21
-3.4357
0
LINE
8
BLACK
6
CONTINUOUS
10
5.40007
20
-3.4357
11
5.40007
21
-3.4357
0
LINE
8
BLACK
6
CONTINUOUS
10
5.40007
20
-3.4357
11
5.39432
21
-3.43331
0
LINE
8
BLACK
6
CONTINUOUS
10
5.39432
20
-3.43331
11
5.39432
21
-3.43331
0
LINE
8
BLACK
6
CONTINUOUS
10
5.39432
20
-3.43331
11
5.38815
21
-3.4325
0
LINE
8
BLACK
6
CONTINUOUS
10
5.38815
20
-3.4325
11
5.38815
21
-3.4325
0
LINE
8
BLACK
6
CONTINUOUS
10
5.38815
20
-3.4325
11
5.38198
21
-3.43331
0
LINE
8
BLACK
6
CONTINUOUS
10
5.38198
20
-3.43331
11
5.38198
21
-3.43331
0
LINE
8
BLACK
6
CONTINUOUS
10
5.38198
20
-3.43331
11
5.37623
21
-3.4357
0
LINE
8
BLACK
6
CONTINUOUS
10
5.37623
20
-3.4357
11
5.37623
21
-3.4357
0
LINE
8
BLACK
6
CONTINUOUS
10
5.37623
20
-3.4357
11
5.37129
21
-3.43949
0
LINE
8
BLACK
6
CONTINUOUS
10
5.37129
20
-3.43949
11
5.3675
21
-3.44443
0
LINE
8
BLACK
6
CONTINUOUS
10
5.3675
20
-3.44443
11
5.3675
21
-3.44443
0
LINE
8
BLACK
6
CONTINUOUS
10
5.3675
20
-3.44443
11
5.36512
21
-3.45018
0
LINE
8
BLACK
6
CONTINUOUS
10
5.36512
20
-3.45018
11
5.36512
21
-3.45018
0
LINE
8
BLACK
6
CONTINUOUS
10
5.36512
20
-3.45018
11
5.3643
21
-3.45635
0
LINE
8
BLACK
6
CONTINUOUS
10
5.3643
20
-3.45635
11
5.3643
21
-3.45655
0
LINE
8
BLACK
6
CONTINUOUS
10
5.3643
20
-3.45655
11
5.3642
21
-3.45655
0
LINE
8
BLACK
6
CONTINUOUS
10
5.3642
20
-3.45655
11
5.36382
21
-3.45827
0
LINE
8
BLACK
6
CONTINUOUS
10
5.36382
20
-3.45827
11
5.3634
21
-3.4588
0
LINE
8
BLACK
6
CONTINUOUS
10
5.3634
20
-3.4588
11
5.33927
21
-3.48293
0
LINE
8
BLACK
6
CONTINUOUS
10
5.33927
20
-3.48293
11
5.33927
21
-3.48293
0
LINE
8
BLACK
6
CONTINUOUS
10
5.33927
20
-3.48293
11
5.33927
21
-3.48293
0
LINE
8
BLACK
6
CONTINUOUS
10
5.33927
20
-3.48293
11
5.33838
21
-3.48381
0
LINE
8
BLACK
6
CONTINUOUS
10
5.33838
20
-3.48381
11
5.33792
21
-3.48472
0
LINE
8
BLACK
6
CONTINUOUS
10
5.33792
20
-3.48472
11
5.33767
21
-3.48513
0
LINE
8
BLACK
6
CONTINUOUS
10
5.33767
20
-3.48513
11
5.33708
21
-3.48595
0
LINE
8
BLACK
6
CONTINUOUS
10
5.33708
20
-3.48595
11
5.33707
21
-3.48595
0
LINE
8
BLACK
6
CONTINUOUS
10
5.33707
20
-3.48595
11
5.33676
21
-3.48691
0
LINE
8
BLACK
6
CONTINUOUS
10
5.33676
20
-3.48691
11
5.33658
21
-3.48736
0
LINE
8
BLACK
6
CONTINUOUS
10
5.33658
20
-3.48736
11
5.33612
21
-3.48827
0
LINE
8
BLACK
6
CONTINUOUS
10
5.33612
20
-3.48827
11
5.33596
21
-3.48926
0
LINE
8
BLACK
6
CONTINUOUS
10
5.33596
20
-3.48926
11
5.33584
21
-3.48974
0
LINE
8
BLACK
6
CONTINUOUS
10
5.33584
20
-3.48974
11
5.33553
21
-3.4907
0
LINE
8
BLACK
6
CONTINUOUS
10
5.33553
20
-3.4907
11
5.33553
21
-3.66651
0
LINE
8
BLACK
6
CONTINUOUS
10
5.33553
20
-3.66651
11
5.3348
21
-3.66851
0
LINE
8
BLACK
6
CONTINUOUS
10
5.3348
20
-3.66851
11
5.33457
21
-3.66873
0
LINE
8
BLACK
6
CONTINUOUS
10
5.33457
20
-3.66873
11
5.33458
21
-3.66874
0
LINE
8
BLACK
6
CONTINUOUS
10
5.33458
20
-3.66874
11
5.33444
21
-3.66889
0
LINE
8
BLACK
6
CONTINUOUS
10
5.33444
20
-3.66889
11
5.33065
21
-3.67383
0
LINE
8
BLACK
6
CONTINUOUS
10
5.33065
20
-3.67383
11
5.33065
21
-3.67383
0
LINE
8
BLACK
6
CONTINUOUS
10
5.33065
20
-3.67383
11
5.32827
21
-3.67958
0
LINE
8
BLACK
6
CONTINUOUS
10
5.32827
20
-3.67958
11
5.32827
21
-3.67958
0
LINE
8
BLACK
6
CONTINUOUS
10
5.32827
20
-3.67958
11
5.32745
21
-3.68575
0
LINE
8
BLACK
6
CONTINUOUS
10
5.32745
20
-3.68575
11
5.32745
21
-3.68575
0
LINE
8
BLACK
6
CONTINUOUS
10
5.32745
20
-3.68575
11
5.32827
21
-3.69192
0
LINE
8
BLACK
6
CONTINUOUS
10
5.32827
20
-3.69192
11
5.32827
21
-3.69192
0
LINE
8
BLACK
6
CONTINUOUS
10
5.32827
20
-3.69192
11
5.33065
21
-3.69767
0
LINE
8
BLACK
6
CONTINUOUS
10
5.33065
20
-3.69767
11
5.33065
21
-3.69767
0
LINE
8
BLACK
6
CONTINUOUS
10
5.33065
20
-3.69767
11
5.33065
21
-3.69767
0
LINE
8
BLACK
6
CONTINUOUS
10
5.33065
20
-3.69767
11
5.33229
21
-3.69982
0
LINE
8
BLACK
6
CONTINUOUS
10
5.33229
20
-3.69982
11
5.33444
21
-3.70261
0
LINE
8
BLACK
6
CONTINUOUS
10
5.33444
20
-3.70261
11
5.33658
21
-3.70425
0
LINE
8
BLACK
6
CONTINUOUS
10
5.33658
20
-3.70425
11
5.33938
21
-3.7064
0
LINE
8
BLACK
6
CONTINUOUS
10
5.33938
20
-3.7064
11
5.33938
21
-3.7064
0
LINE
8
BLACK
6
CONTINUOUS
10
5.33938
20
-3.7064
11
5.33938
21
-3.7064
0
LINE
8
BLACK
6
CONTINUOUS
10
5.33938
20
-3.7064
11
5.34382
21
-3.70824
0
LINE
8
BLACK
6
CONTINUOUS
10
5.34382
20
-3.70824
11
5.34513
21
-3.70878
0
LINE
8
BLACK
6
CONTINUOUS
10
5.34513
20
-3.70878
11
5.34924
21
-3.70932
0
LINE
8
BLACK
6
CONTINUOUS
10
5.34924
20
-3.70932
11
5.3513
21
-3.70959
0
LINE
8
BLACK
6
CONTINUOUS
10
5.3513
20
-3.70959
11
5.3513
21
-3.70959
0
LINE
8
BLACK
6
CONTINUOUS
10
5.3513
20
-3.70959
11
5.3513
21
-3.70959
0
LINE
8
BLACK
6
CONTINUOUS
10
5.3513
20
-3.70959
11
5.35284
21
-3.70939
0
LINE
8
BLACK
6
CONTINUOUS
10
5.35284
20
-3.70939
11
5.35747
21
-3.70878
0
LINE
8
BLACK
6
CONTINUOUS
10
5.35747
20
-3.70878
11
5.36322
21
-3.7064
0
LINE
8
BLACK
6
CONTINUOUS
10
5.36322
20
-3.7064
11
5.36816
21
-3.70261
0
LINE
8
BLACK
6
CONTINUOUS
10
5.36816
20
-3.70261
11
5.37195
21
-3.69767
0
LINE
8
BLACK
6
CONTINUOUS
10
5.37195
20
-3.69767
11
5.37433
21
-3.69192
0
LINE
8
BLACK
6
CONTINUOUS
10
5.37433
20
-3.69192
11
5.37514
21
-3.68575
0
LINE
8
BLACK
6
CONTINUOUS
10
5.37514
20
-3.68575
11
5.37433
21
-3.67958
0
LINE
8
BLACK
6
CONTINUOUS
10
5.37433
20
-3.67958
11
5.37323
21
-3.67692
0
LINE
8
BLACK
6
CONTINUOUS
10
5.37323
20
-3.67692
11
5.37195
21
-3.67383
0
LINE
8
BLACK
6
CONTINUOUS
10
5.37195
20
-3.67383
11
5.37195
21
-3.67383
0
LINE
8
BLACK
6
CONTINUOUS
10
5.37195
20
-3.67383
11
5.37195
21
-3.67383
0
LINE
8
BLACK
6
CONTINUOUS
10
5.37195
20
-3.67383
11
5.36816
21
-3.66889
0
LINE
8
BLACK
6
CONTINUOUS
10
5.36816
20
-3.66889
11
5.36816
21
-3.66889
0
LINE
8
BLACK
6
CONTINUOUS
10
5.36816
20
-3.66889
11
5.36802
21
-3.66874
0
LINE
8
BLACK
6
CONTINUOUS
10
5.36802
20
-3.66874
11
5.36809
21
-3.66867
0
LINE
8
BLACK
6
CONTINUOUS
10
5.36809
20
-3.66867
11
5.36714
21
-3.66719
0
LINE
8
BLACK
6
CONTINUOUS
10
5.36714
20
-3.66719
11
5.36707
21
-3.66651
0
LINE
8
BLACK
6
CONTINUOUS
10
5.36707
20
-3.66651
11
5.36707
21
-3.50102
0
LINE
8
BLACK
6
CONTINUOUS
10
5.36707
20
-3.50102
11
5.36779
21
-3.49902
0
LINE
8
BLACK
6
CONTINUOUS
10
5.36779
20
-3.49902
11
5.36798
21
-3.49882
0
LINE
8
BLACK
6
CONTINUOUS
10
5.36798
20
-3.49882
11
5.3761
21
-3.4907
0
LINE
8
BLACK
6
CONTINUOUS
10
5.3761
20
-3.4907
11
5.3857
21
-3.4811
0
LINE
8
BLACK
6
CONTINUOUS
10
5.3857
20
-3.4811
11
5.38763
21
-3.4802
0
LINE
8
BLACK
6
CONTINUOUS
10
5.38763
20
-3.4802
11
5.38795
21
-3.48021
0
LINE
8
BLACK
6
CONTINUOUS
10
5.38795
20
-3.48021
11
5.38795
21
-3.48019
0
LINE
8
BLACK
6
CONTINUOUS
10
5.38795
20
-3.48019
11
5.38815
21
-3.48019
0
LINE
8
BLACK
6
CONTINUOUS
10
5.38815
20
-3.48019
11
5.39085
21
-3.47984
0
LINE
8
BLACK
6
CONTINUOUS
10
5.39085
20
-3.47984
11
5.39432
21
-3.47938
0
LINE
8
BLACK
6
CONTINUOUS
10
5.39432
20
-3.47938
11
5.39432
21
-3.47938
0
LINE
8
BLACK
6
CONTINUOUS
10
5.39432
20
-3.47938
11
5.39434
21
-3.47938
0
LINE
8
BLACK
6
CONTINUOUS
10
5.39434
20
-3.47938
11
5.39642
21
-3.47984
0
LINE
8
BLACK
6
CONTINUOUS
10
5.39642
20
-3.47984
11
5.39772
21
-3.48153
0
LINE
8
BLACK
6
CONTINUOUS
10
5.39772
20
-3.48153
11
5.39783
21
-3.48287
0
LINE
8
BLACK
6
CONTINUOUS
10
5.39783
20
-3.48287
11
5.39745
21
-3.48575
0
LINE
8
BLACK
6
CONTINUOUS
10
5.39745
20
-3.48575
11
5.39745
21
-3.48575
0
LINE
8
BLACK
6
CONTINUOUS
10
5.39745
20
-3.48575
11
5.39827
21
-3.49192
0
LINE
8
BLACK
6
CONTINUOUS
10
5.39827
20
-3.49192
11
5.39827
21
-3.49192
0
LINE
8
BLACK
6
CONTINUOUS
10
5.39827
20
-3.49192
11
5.40065
21
-3.49767
0
LINE
8
BLACK
6
CONTINUOUS
10
5.40065
20
-3.49767
11
5.40065
21
-3.49767
0
LINE
8
BLACK
6
CONTINUOUS
10
5.40065
20
-3.49767
11
5.40065
21
-3.49767
0
LINE
8
BLACK
6
CONTINUOUS
10
5.40065
20
-3.49767
11
5.40229
21
-3.49982
0
LINE
8
BLACK
6
CONTINUOUS
10
5.40229
20
-3.49982
11
5.40444
21
-3.50261
0
LINE
8
BLACK
6
CONTINUOUS
10
5.40444
20
-3.50261
11
5.40813
21
-3.50544
0
LINE
8
BLACK
6
CONTINUOUS
10
5.40813
20
-3.50544
11
5.40938
21
-3.5064
0
LINE
8
BLACK
6
CONTINUOUS
10
5.40938
20
-3.5064
11
5.4151
21
-3.50877
0
LINE
8
BLACK
6
CONTINUOUS
10
5.4151
20
-3.50877
11
5.41611
21
-3.50945
0
LINE
8
BLACK
6
CONTINUOUS
10
5.41611
20
-3.50945
11
5.42962
21
-3.52295
0
LINE
8
BLACK
6
CONTINUOUS
10
5.42962
20
-3.52295
11
5.43052
21
-3.52488
0
LINE
8
BLACK
6
CONTINUOUS
10
5.43052
20
-3.52488
11
5.43053
21
-3.52515
0
LINE
8
BLACK
6
CONTINUOUS
10
5.43053
20
-3.52515
11
5.43053
21
-3.64793
0
LINE
8
BLACK
6
CONTINUOUS
10
5.43053
20
-3.64793
11
5.4298
21
-3.64993
0
LINE
8
BLACK
6
CONTINUOUS
10
5.4298
20
-3.64993
11
5.42962
21
-3.65013
0
LINE
8
BLACK
6
CONTINUOUS
10
5.42962
20
-3.65013
11
5.35375
21
-3.726
0
LINE
8
BLACK
6
CONTINUOUS
10
5.35375
20
-3.726
11
5.35182
21
-3.7269
0
LINE
8
BLACK
6
CONTINUOUS
10
5.35182
20
-3.7269
11
5.3515
21
-3.72689
0
LINE
8
BLACK
6
CONTINUOUS
10
5.3515
20
-3.72689
11
5.3515
21
-3.7269
0
LINE
8
BLACK
6
CONTINUOUS
10
5.3515
20
-3.7269
11
5.3513
21
-3.7269
0
LINE
8
BLACK
6
CONTINUOUS
10
5.3513
20
-3.7269
11
5.34513
21
-3.72771
0
LINE
8
BLACK
6
CONTINUOUS
10
5.34513
20
-3.72771
11
5.34513
21
-3.72771
0
LINE
8
BLACK
6
CONTINUOUS
10
5.34513
20
-3.72771
11
5.33938
21
-3.7301
0
LINE
8
BLACK
6
CONTINUOUS
10
5.33938
20
-3.7301
11
5.33938
21
-3.7301
0
LINE
8
BLACK
6
CONTINUOUS
10
5.33938
20
-3.7301
11
5.33444
21
-3.73389
0
LINE
8
BLACK
6
CONTINUOUS
10
5.33444
20
-3.73389
11
5.33065
21
-3.73883
0
LINE
8
BLACK
6
CONTINUOUS
10
5.33065
20
-3.73883
11
5.33065
21
-3.73883
0
LINE
8
BLACK
6
CONTINUOUS
10
5.33065
20
-3.73883
11
5.32827
21
-3.74458
0
LINE
8
BLACK
6
CONTINUOUS
10
5.32827
20
-3.74458
11
5.32827
21
-3.74458
0
LINE
8
BLACK
6
CONTINUOUS
10
5.32827
20
-3.74458
11
5.32745
21
-3.75075
0
LINE
8
BLACK
6
CONTINUOUS
10
5.32745
20
-3.75075
11
5.32745
21
-3.75075
0
LINE
8
BLACK
6
CONTINUOUS
10
5.32745
20
-3.75075
11
5.32827
21
-3.75692
0
LINE
8
BLACK
6
CONTINUOUS
10
4.97786
20
-3.51983
11
4.97838
21
-3.5206
0
LINE
8
BLACK
6
CONTINUOUS
10
4.97838
20
-3.5206
11
4.97961
21
-3.52244
0
LINE
8
BLACK
6
CONTINUOUS
10
4.97961
20
-3.52244
11
4.98222
21
-3.52418
0
LINE
8
BLACK
6
CONTINUOUS
10
4.98222
20
-3.52418
11
4.98222
21
-3.52418
0
LINE
8
BLACK
6
CONTINUOUS
10
4.98222
20
-3.52418
11
4.98452
21
-3.52464
0
LINE
8
BLACK
6
CONTINUOUS
10
4.98452
20
-3.52464
11
5.02961
21
-3.52464
0
LINE
8
BLACK
6
CONTINUOUS
10
5.02961
20
-3.52464
11
5.0316
21
-3.52537
0
LINE
8
BLACK
6
CONTINUOUS
10
5.0316
20
-3.52537
11
5.03181
21
-3.52555
0
LINE
8
BLACK
6
CONTINUOUS
10
5.03181
20
-3.52555
11
5.04462
21
-3.53837
0
LINE
8
BLACK
6
CONTINUOUS
10
5.04462
20
-3.53837
11
5.04552
21
-3.5403
0
LINE
8
BLACK
6
CONTINUOUS
10
5.04552
20
-3.5403
11
5.04553
21
-3.54057
0
LINE
8
BLACK
6
CONTINUOUS
10
5.04553
20
-3.54057
11
5.04553
21
-3.92844
0
LINE
8
BLACK
6
CONTINUOUS
10
5.04553
20
-3.92844
11
5.0448
21
-3.93044
0
LINE
8
BLACK
6
CONTINUOUS
10
5.0448
20
-3.93044
11
5.04431
21
-3.93091
0
LINE
8
BLACK
6
CONTINUOUS
10
5.04431
20
-3.93091
11
5.04044
21
-3.93389
0
LINE
8
BLACK
6
CONTINUOUS
10
5.04044
20
-3.93389
11
5.03665
21
-3.93883
0
LINE
8
BLACK
6
CONTINUOUS
10
5.03665
20
-3.93883
11
5.03665
21
-3.93883
0
LINE
8
BLACK
6
CONTINUOUS
10
5.03665
20
-3.93883
11
5.03427
21
-3.94458
0
LINE
8
BLACK
6
CONTINUOUS
10
5.03427
20
-3.94458
11
5.03427
21
-3.94458
0
LINE
8
BLACK
6
CONTINUOUS
10
5.03427
20
-3.94458
11
5.03345
21
-3.95075
0
LINE
8
BLACK
6
CONTINUOUS
10
5.03345
20
-3.95075
11
5.03345
21
-3.95075
0
LINE
8
BLACK
6
CONTINUOUS
10
5.03345
20
-3.95075
11
5.03427
21
-3.95692
0
LINE
8
BLACK
6
CONTINUOUS
10
5.03427
20
-3.95692
11
5.03427
21
-3.95692
0
LINE
8
BLACK
6
CONTINUOUS
10
5.03427
20
-3.95692
11
5.03665
21
-3.96267
0
LINE
8
BLACK
6
CONTINUOUS
10
5.03665
20
-3.96267
11
5.03665
21
-3.96267
0
LINE
8
BLACK
6
CONTINUOUS
10
5.03665
20
-3.96267
11
5.03665
21
-3.96267
0
LINE
8
BLACK
6
CONTINUOUS
10
5.03665
20
-3.96267
11
5.03829
21
-3.96482
0
LINE
8
BLACK
6
CONTINUOUS
10
5.03829
20
-3.96482
11
5.04044
21
-3.96761
0
LINE
8
BLACK
6
CONTINUOUS
10
5.04044
20
-3.96761
11
5.04258
21
-3.96925
0
LINE
8
BLACK
6
CONTINUOUS
10
5.04258
20
-3.96925
11
5.04538
21
-3.9714
0
LINE
8
BLACK
6
CONTINUOUS
10
5.04538
20
-3.9714
11
5.04538
21
-3.9714
0
LINE
8
BLACK
6
CONTINUOUS
10
5.04538
20
-3.9714
11
5.04538
21
-3.9714
0
LINE
8
BLACK
6
CONTINUOUS
10
5.04538
20
-3.9714
11
5.04982
21
-3.97324
0
LINE
8
BLACK
6
CONTINUOUS
10
5.04982
20
-3.97324
11
5.05113
21
-3.97378
0
LINE
8
BLACK
6
CONTINUOUS
10
5.05113
20
-3.97378
11
5.05524
21
-3.97432
0
LINE
8
BLACK
6
CONTINUOUS
10
5.05524
20
-3.97432
11
5.0573
21
-3.97459
0
LINE
8
BLACK
6
CONTINUOUS
10
5.0573
20
-3.97459
11
5.0573
21
-3.97459
0
LINE
8
BLACK
6
CONTINUOUS
10
5.0573
20
-3.97459
11
5.0573
21
-3.97459
0
LINE
8
BLACK
6
CONTINUOUS
10
5.0573
20
-3.97459
11
5.05884
21
-3.97439
0
LINE
8
BLACK
6
CONTINUOUS
10
5.05884
20
-3.97439
11
5.06347
21
-3.97378
0
LINE
8
BLACK
6
CONTINUOUS
10
5.06347
20
-3.97378
11
5.06922
21
-3.9714
0
LINE
8
BLACK
6
CONTINUOUS
10
5.06922
20
-3.9714
11
5.07416
21
-3.96761
0
LINE
8
BLACK
6
CONTINUOUS
10
5.07416
20
-3.96761
11
5.07795
21
-3.96267
0
LINE
8
BLACK
6
CONTINUOUS
10
5.07795
20
-3.96267
11
5.08033
21
-3.95692
0
LINE
8
BLACK
6
CONTINUOUS
10
5.08033
20
-3.95692
11
5.08114
21
-3.95075
0
LINE
8
BLACK
6
CONTINUOUS
10
5.08114
20
-3.95075
11
5.08097
21
-3.94941
0
LINE
8
BLACK
6
CONTINUOUS
10
5.08097
20
-3.94941
11
5.08033
21
-3.94458
0
LINE
8
BLACK
6
CONTINUOUS
10
5.08033
20
-3.94458
11
5.08033
21
-3.94458
0
LINE
8
BLACK
6
CONTINUOUS
10
5.08033
20
-3.94458
11
5.07795
21
-3.93883
0
LINE
8
BLACK
6
CONTINUOUS
10
5.07795
20
-3.93883
11
5.07795
21
-3.93883
0
LINE
8
BLACK
6
CONTINUOUS
10
5.07795
20
-3.93883
11
5.07771
21
-3.93851
0
LINE
8
BLACK
6
CONTINUOUS
10
5.07771
20
-3.93851
11
5.07707
21
-3.93662
0
LINE
8
BLACK
6
CONTINUOUS
10
5.07707
20
-3.93662
11
5.07707
21
-3.75075
0
LINE
8
BLACK
6
CONTINUOUS
10
5.07707
20
-3.75075
11
5.07707
21
-3.7353
0
LINE
8
BLACK
6
CONTINUOUS
10
5.07707
20
-3.7353
11
5.07707
21
-3.53151
0
LINE
8
BLACK
6
CONTINUOUS
10
5.07707
20
-3.53151
11
5.07707
21
-3.53151
0
LINE
8
BLACK
6
CONTINUOUS
10
5.07707
20
-3.53151
11
5.07707
21
-3.53025
0
LINE
8
BLACK
6
CONTINUOUS
10
5.07707
20
-3.53025
11
5.07675
21
-3.52929
0
LINE
8
BLACK
6
CONTINUOUS
10
5.07675
20
-3.52929
11
5.07664
21
-3.52881
0
LINE
8
BLACK
6
CONTINUOUS
10
5.07664
20
-3.52881
11
5.07648
21
-3.52781
0
LINE
8
BLACK
6
CONTINUOUS
10
5.07648
20
-3.52781
11
5.07602
21
-3.52691
0
LINE
8
BLACK
6
CONTINUOUS
10
5.07602
20
-3.52691
11
5.07584
21
-3.52646
0
LINE
8
BLACK
6
CONTINUOUS
10
5.07584
20
-3.52646
11
5.07552
21
-3.5255
0
LINE
8
BLACK
6
CONTINUOUS
10
5.07552
20
-3.5255
11
5.07493
21
-3.52468
0
LINE
8
BLACK
6
CONTINUOUS
10
5.07493
20
-3.52468
11
5.07467
21
-3.52427
0
LINE
8
BLACK
6
CONTINUOUS
10
5.07467
20
-3.52427
11
5.07421
21
-3.52336
0
LINE
8
BLACK
6
CONTINUOUS
10
5.07421
20
-3.52336
11
5.07421
21
-3.52336
0
LINE
8
BLACK
6
CONTINUOUS
10
5.07421
20
-3.52336
11
5.07247
21
-3.52162
0
LINE
8
BLACK
6
CONTINUOUS
10
5.07247
20
-3.52162
11
5.07068
21
-3.51983
0
LINE
8
BLACK
6
CONTINUOUS
10
5.07068
20
-3.51983
11
5.0541
21
-3.50325
0
LINE
8
BLACK
6
CONTINUOUS
10
5.0541
20
-3.50325
11
5.0532
21
-3.50133
0
LINE
8
BLACK
6
CONTINUOUS
10
5.0532
20
-3.50133
11
5.05319
21
-3.50105
0
LINE
8
BLACK
6
CONTINUOUS
10
5.05319
20
-3.50105
11
5.05319
21
-3.45597
0
LINE
8
BLACK
6
CONTINUOUS
10
5.05319
20
-3.45597
11
5.05273
21
-3.45367
0
LINE
8
BLACK
6
CONTINUOUS
10
5.05273
20
-3.45367
11
5.05099
21
-3.45106
0
LINE
8
BLACK
6
CONTINUOUS
10
5.05099
20
-3.45106
11
5.04838
21
-3.44931
0
LINE
8
BLACK
6
CONTINUOUS
10
5.04838
20
-3.44931
11
5.04838
21
-3.44931
0
LINE
8
BLACK
6
CONTINUOUS
10
5.04838
20
-3.44931
11
5.04838
21
-3.44931
0
LINE
8
BLACK
6
CONTINUOUS
10
5.04838
20
-3.44931
11
5.04608
21
-3.44885
0
LINE
8
BLACK
6
CONTINUOUS
10
5.04608
20
-3.44885
11
4.98452
21
-3.44885
0
LINE
8
BLACK
6
CONTINUOUS
10
4.98452
20
-3.44885
11
4.98222
21
-3.44931
0
LINE
8
BLACK
6
CONTINUOUS
10
4.98222
20
-3.44931
11
4.97961
21
-3.45106
0
LINE
8
BLACK
6
CONTINUOUS
10
4.97961
20
-3.45106
11
4.97786
21
-3.45367
0
LINE
8
BLACK
6
CONTINUOUS
10
4.97786
20
-3.45367
11
4.97741
21
-3.45597
0
LINE
8
BLACK
6
CONTINUOUS
10
4.97741
20
-3.45597
11
4.97741
21
-3.51753
0
LINE
8
BLACK
6
CONTINUOUS
10
4.97741
20
-3.51753
11
4.97786
21
-3.51983
0
LINE
8
BLACK
6
CONTINUOUS
10
4.97786
20
-3.41983
11
4.97786
21
-3.41983
0
LINE
8
BLACK
6
CONTINUOUS
10
4.97786
20
-3.41983
11
4.97961
21
-3.42244
0
LINE
8
BLACK
6
CONTINUOUS
10
4.97961
20
-3.42244
11
4.98222
21
-3.42418
0
LINE
8
BLACK
6
CONTINUOUS
10
4.98222
20
-3.42418
11
4.98222
21
-3.42418
0
LINE
8
BLACK
6
CONTINUOUS
10
4.98222
20
-3.42418
11
4.98452
21
-3.42464
0
LINE
8
BLACK
6
CONTINUOUS
10
4.98452
20
-3.42464
11
5.04608
21
-3.42464
0
LINE
8
BLACK
6
CONTINUOUS
10
5.04608
20
-3.42464
11
5.04838
21
-3.42418
0
LINE
8
BLACK
6
CONTINUOUS
10
5.04838
20
-3.42418
11
5.05099
21
-3.42244
0
LINE
8
BLACK
6
CONTINUOUS
10
5.05099
20
-3.42244
11
5.05273
21
-3.41983
0
LINE
8
BLACK
6
CONTINUOUS
10
5.05273
20
-3.41983
11
5.05319
21
-3.41753
0
LINE
8
BLACK
6
CONTINUOUS
10
5.05319
20
-3.41753
11
5.05319
21
-3.36966
0
LINE
8
BLACK
6
CONTINUOUS
10
5.05319
20
-3.36966
11
5.05392
21
-3.36766
0
LINE
8
BLACK
6
CONTINUOUS
10
5.05392
20
-3.36766
11
5.0541
21
-3.36746
0
LINE
8
BLACK
6
CONTINUOUS
10
5.0541
20
-3.36746
11
5.07182
21
-3.34975
0
LINE
8
BLACK
6
CONTINUOUS
10
5.07182
20
-3.34975
11
5.07231
21
-3.34934
0
LINE
8
BLACK
6
CONTINUOUS
10
5.07231
20
-3.34934
11
5.07277
21
-3.34904
0
LINE
8
BLACK
6
CONTINUOUS
10
5.07277
20
-3.34904
11
5.0736
21
-3.34798
0
LINE
8
BLACK
6
CONTINUOUS
10
5.0736
20
-3.34798
11
5.07373
21
-3.34783
0
LINE
8
BLACK
6
CONTINUOUS
10
5.07373
20
-3.34783
11
5.07387
21
-3.3477
0
LINE
8
BLACK
6
CONTINUOUS
10
5.07387
20
-3.3477
11
5.07435
21
-3.34702
0
LINE
8
BLACK
6
CONTINUOUS
10
5.07435
20
-3.34702
11
5.07438
21
-3.34697
0
LINE
8
BLACK
6
CONTINUOUS
10
5.07438
20
-3.34697
11
5.0756
21
-3.34541
0
LINE
8
BLACK
6
CONTINUOUS
10
5.0756
20
-3.34541
11
5.0756
21
-3.34541
0
LINE
8
BLACK
6
CONTINUOUS
10
5.0756
20
-3.34541
11
5.07573
21
-3.34518
0
LINE
8
BLACK
6
CONTINUOUS
10
5.07573
20
-3.34518
11
5.07574
21
-3.34519
0
LINE
8
BLACK
6
CONTINUOUS
10
5.07574
20
-3.34519
11
5.07577
21
-3.34513
0
LINE
8
BLACK
6
CONTINUOUS
10
5.07577
20
-3.34513
11
5.07575
21
-3.34512
0
LINE
8
BLACK
6
CONTINUOUS
10
5.07575
20
-3.34512
11
5.07587
21
-3.34489
0
LINE
8
BLACK
6
CONTINUOUS
10
5.07587
20
-3.34489
11
5.07587
21
-3.34489
0
LINE
8
BLACK
6
CONTINUOUS
10
5.07587
20
-3.34489
11
5.07643
21
-3.34299
0
LINE
8
BLACK
6
CONTINUOUS
10
5.07643
20
-3.34299
11
5.07645
21
-3.34293
0
LINE
8
BLACK
6
CONTINUOUS
10
5.07645
20
-3.34293
11
5.077
21
-3.34134
0
LINE
8
BLACK
6
CONTINUOUS
10
5.077
20
-3.34134
11
5.0771
21
-3.34105
0
LINE
8
BLACK
6
CONTINUOUS
10
5.0771
20
-3.34105
11
5.07714
21
-3.3408
0
LINE
8
BLACK
6
CONTINUOUS
10
5.07714
20
-3.3408
11
5.07716
21
-3.3408
0
LINE
8
BLACK
6
CONTINUOUS
10
5.07716
20
-3.3408
11
5.07717
21
-3.34074
0
LINE
8
BLACK
6
CONTINUOUS
10
5.07717
20
-3.34074
11
5.07715
21
-3.34073
0
LINE
8
BLACK
6
CONTINUOUS
10
5.07715
20
-3.34073
11
5.07718
21
-3.34048
0
LINE
8
BLACK
6
CONTINUOUS
10
5.07718
20
-3.34048
11
5.07718
21
-3.34048
0
LINE
8
BLACK
6
CONTINUOUS
10
5.07718
20
-3.34048
11
5.07712
21
-3.33903
0
LINE
8
BLACK
6
CONTINUOUS
10
5.07712
20
-3.33903
11
5.0771
21
-3.33849
0
LINE
8
BLACK
6
CONTINUOUS
10
5.0771
20
-3.33849
11
5.0771
21
-3.33843
0
LINE
8
BLACK
6
CONTINUOUS
10
5.0771
20
-3.33843
11
5.0771
21
-3.24575
0
LINE
8
BLACK
6
CONTINUOUS
10
5.0771
20
-3.24575
11
5.07783
21
-3.24375
0
LINE
8
BLACK
6
CONTINUOUS
10
5.07783
20
-3.24375
11
5.07801
21
-3.24355
0
LINE
8
BLACK
6
CONTINUOUS
10
5.07801
20
-3.24355
11
5.0821
21
-3.23946
0
LINE
8
BLACK
6
CONTINUOUS
10
5.0821
20
-3.23946
11
5.08403
21
-3.23856
0
LINE
8
BLACK
6
CONTINUOUS
10
5.08403
20
-3.23856
11
5.0843
21
-3.23855
0
LINE
8
BLACK
6
CONTINUOUS
10
5.0843
20
-3.23855
11
5.14502
21
-3.23855
0
LINE
8
BLACK
6
CONTINUOUS
10
5.14502
20
-3.23855
11
5.14702
21
-3.23927
0
LINE
8
BLACK
6
CONTINUOUS
10
5.14702
20
-3.23927
11
5.14749
21
-3.23976
0
LINE
8
BLACK
6
CONTINUOUS
10
5.14749
20
-3.23976
11
5.15044
21
-3.24361
0
LINE
8
BLACK
6
CONTINUOUS
10
5.15044
20
-3.24361
11
5.15155
21
-3.24446
0
LINE
8
BLACK
6
CONTINUOUS
10
5.15155
20
-3.24446
11
5.15538
21
-3.2474
0
LINE
8
BLACK
6
CONTINUOUS
10
5.15538
20
-3.2474
11
5.15538
21
-3.2474
0
LINE
8
BLACK
6
CONTINUOUS
10
5.15538
20
-3.2474
11
5.15538
21
-3.2474
0
LINE
8
BLACK
6
CONTINUOUS
10
5.15538
20
-3.2474
11
5.15982
21
-3.24924
0
LINE
8
BLACK
6
CONTINUOUS
10
5.15982
20
-3.24924
11
5.16113
21
-3.24978
0
LINE
8
BLACK
6
CONTINUOUS
10
5.16113
20
-3.24978
11
5.16524
21
-3.25032
0
LINE
8
BLACK
6
CONTINUOUS
10
5.16524
20
-3.25032
11
5.1673
21
-3.25059
0
LINE
8
BLACK
6
CONTINUOUS
10
5.1673
20
-3.25059
11
5.1673
21
-3.25059
0
LINE
8
BLACK
6
CONTINUOUS
10
5.1673
20
-3.25059
11
5.1673
21
-3.25059
0
LINE
8
BLACK
6
CONTINUOUS
10
5.1673
20
-3.25059
11
5.16884
21
-3.25039
0
LINE
8
BLACK
6
CONTINUOUS
10
5.16884
20
-3.25039
11
5.17347
21
-3.24978
0
LINE
8
BLACK
6
CONTINUOUS
10
5.17347
20
-3.24978
11
5.17922
21
-3.2474
0
LINE
8
BLACK
6
CONTINUOUS
10
5.17922
20
-3.2474
11
5.18416
21
-3.24361
0
LINE
8
BLACK
6
CONTINUOUS
10
5.18416
20
-3.24361
11
5.18795
21
-3.23867
0
LINE
8
BLACK
6
CONTINUOUS
10
5.18795
20
-3.23867
11
5.19033
21
-3.23292
0
LINE
8
BLACK
6
CONTINUOUS
10
5.19033
20
-3.23292
11
5.19114
21
-3.22675
0
LINE
8
BLACK
6
CONTINUOUS
10
5.19114
20
-3.22675
11
5.19033
21
-3.22058
0
LINE
8
BLACK
6
CONTINUOUS
10
5.19033
20
-3.22058
11
5.18877
21
-3.2168
0
LINE
8
BLACK
6
CONTINUOUS
10
5.18877
20
-3.2168
11
5.18795
21
-3.21483
0
LINE
8
BLACK
6
CONTINUOUS
10
5.18795
20
-3.21483
11
5.18795
21
-3.21483
0
LINE
8
BLACK
6
CONTINUOUS
10
5.18795
20
-3.21483
11
5.18795
21
-3.21483
0
LINE
8
BLACK
6
CONTINUOUS
10
5.18795
20
-3.21483
11
5.18535
21
-3.21143
0
LINE
8
BLACK
6
CONTINUOUS
10
5.18535
20
-3.21143
11
5.18416
21
-3.20989
0
LINE
8
BLACK
6
CONTINUOUS
10
5.18416
20
-3.20989
11
5.18137
21
-3.20774
0
LINE
8
BLACK
6
CONTINUOUS
10
5.18137
20
-3.20774
11
5.17922
21
-3.2061
0
LINE
8
BLACK
6
CONTINUOUS
10
5.17922
20
-3.2061
11
5.17922
21
-3.2061
0
LINE
8
BLACK
6
CONTINUOUS
10
5.17922
20
-3.2061
11
5.17922
21
-3.2061
0
LINE
8
BLACK
6
CONTINUOUS
10
5.17922
20
-3.2061
11
5.17347
21
-3.20371
0
LINE
8
BLACK
6
CONTINUOUS
10
5.17347
20
-3.20371
11
5.17347
21
-3.20371
0
LINE
8
BLACK
6
CONTINUOUS
10
5.17347
20
-3.20371
11
5.1673
21
-3.2029
0
LINE
8
BLACK
6
CONTINUOUS
10
5.1673
20
-3.2029
11
5.1673
21
-3.2029
0
LINE
8
BLACK
6
CONTINUOUS
10
5.1673
20
-3.2029
11
5.16113
21
-3.20371
0
LINE
8
BLACK
6
CONTINUOUS
10
5.16113
20
-3.20371
11
5.16113
21
-3.20371
0
LINE
8
BLACK
6
CONTINUOUS
10
5.16113
20
-3.20371
11
5.15538
21
-3.2061
0
LINE
8
BLACK
6
CONTINUOUS
10
5.15538
20
-3.2061
11
5.15538
21
-3.2061
0
LINE
8
BLACK
6
CONTINUOUS
10
5.15538
20
-3.2061
11
5.15044
21
-3.20989
0
LINE
8
BLACK
6
CONTINUOUS
10
5.15044
20
-3.20989
11
5.15029
21
-3.21003
0
LINE
8
BLACK
6
CONTINUOUS
10
5.15029
20
-3.21003
11
5.15021
21
-3.20995
0
LINE
8
BLACK
6
CONTINUOUS
10
5.15021
20
-3.20995
11
5.14876
21
-3.21088
0
LINE
8
BLACK
6
CONTINUOUS
10
5.14876
20
-3.21088
11
5.14809
21
-3.21095
0
LINE
8
BLACK
6
CONTINUOUS
10
5.14809
20
-3.21095
11
5.07905
21
-3.21095
0
LINE
8
BLACK
6
CONTINUOUS
10
5.07905
20
-3.21095
11
5.07841
21
-3.21088
0
LINE
8
BLACK
6
CONTINUOUS
10
5.07841
20
-3.21088
11
5.07788
21
-3.21077
0
LINE
8
BLACK
6
CONTINUOUS
10
5.07788
20
-3.21077
11
5.07788
21
-3.21077
0
LINE
8
BLACK
6
CONTINUOUS
10
5.07788
20
-3.21077
11
5.07654
21
-3.21094
0
LINE
8
BLACK
6
CONTINUOUS
10
5.07654
20
-3.21094
11
5.07635
21
-3.21095
0
LINE
8
BLACK
6
CONTINUOUS
10
5.07635
20
-3.21095
11
5.07616
21
-3.21095
0
LINE
8
BLACK
6
CONTINUOUS
10
5.07616
20
-3.21095
11
5.07534
21
-3.21108
0
LINE
8
BLACK
6
CONTINUOUS
10
5.07534
20
-3.21108
11
5.07528
21
-3.21109
0
LINE
8
BLACK
6
CONTINUOUS
10
5.07528
20
-3.21109
11
5.07331
21
-3.21134
0
LINE
8
BLACK
6
CONTINUOUS
10
5.07331
20
-3.21134
11
5.07306
21
-3.21141
0
LINE
8
BLACK
6
CONTINUOUS
10
5.07306
20
-3.21141
11
5.07306
21
-3.2114
0
LINE
8
BLACK
6
CONTINUOUS
10
5.07306
20
-3.2114
11
5.07299
21
-3.21142
0
LINE
8
BLACK
6
CONTINUOUS
10
5.07299
20
-3.21142
11
5.073
21
-3.21143
0
LINE
8
BLACK
6
CONTINUOUS
10
5.073
20
-3.21143
11
5.07276
21
-3.21152
0
LINE
8
BLACK
6
CONTINUOUS
10
5.07276
20
-3.21152
11
5.07101
21
-3.21246
0
LINE
8
BLACK
6
CONTINUOUS
10
5.07101
20
-3.21246
11
5.07095
21
-3.21249
0
LINE
8
BLACK
6
CONTINUOUS
10
5.07095
20
-3.21249
11
5.06917
21
-3.21336
0
LINE
8
BLACK
6
CONTINUOUS
10
5.06917
20
-3.21336
11
5.06896
21
-3.21351
0
LINE
8
BLACK
6
CONTINUOUS
10
5.06896
20
-3.21351
11
5.06895
21
-3.2135
0
LINE
8
BLACK
6
CONTINUOUS
10
5.06895
20
-3.2135
11
5.0689
21
-3.21354
0
LINE
8
BLACK
6
CONTINUOUS
10
5.0689
20
-3.21354
11
5.06891
21
-3.21355
0
LINE
8
BLACK
6
CONTINUOUS
10
5.06891
20
-3.21355
11
5.06871
21
-3.21371
0
LINE
8
BLACK
6
CONTINUOUS
10
5.06871
20
-3.21371
11
5.06736
21
-3.21517
0
LINE
8
BLACK
6
CONTINUOUS
10
5.06736
20
-3.21517
11
5.06732
21
-3.21521
0
LINE
8
BLACK
6
CONTINUOUS
10
5.06732
20
-3.21521
11
5.05478
21
-3.22775
0
LINE
8
BLACK
6
CONTINUOUS
10
5.05478
20
-3.22775
11
5.05428
21
-3.22815
0
LINE
8
BLACK
6
CONTINUOUS
10
5.05428
20
-3.22815
11
5.05382
21
-3.22846
0
LINE
8
BLACK
6
CONTINUOUS
10
5.05382
20
-3.22846
11
5.053
21
-3.22952
0
LINE
8
BLACK
6
CONTINUOUS
10
5.053
20
-3.22952
11
5.05287
21
-3.22966
0
LINE
8
BLACK
6
CONTINUOUS
10
5.05287
20
-3.22966
11
5.05273
21
-3.2298
0
LINE
8
BLACK
6
CONTINUOUS
10
5.05273
20
-3.2298
11
5.05225
21
-3.23047
0
LINE
8
BLACK
6
CONTINUOUS
10
5.05225
20
-3.23047
11
5.05221
21
-3.23052
0
LINE
8
BLACK
6
CONTINUOUS
10
5.05221
20
-3.23052
11
5.051
21
-3.23209
0
LINE
8
BLACK
6
CONTINUOUS
10
5.051
20
-3.23209
11
5.05087
21
-3.23232
0
LINE
8
BLACK
6
CONTINUOUS
10
5.05087
20
-3.23232
11
5.05086
21
-3.23231
0
LINE
8
BLACK
6
CONTINUOUS
10
5.05086
20
-3.23231
11
5.05083
21
-3.23236
0
LINE
8
BLACK
6
CONTINUOUS
10
5.05083
20
-3.23236
11
5.05084
21
-3.23237
0
LINE
8
BLACK
6
CONTINUOUS
10
5.05084
20
-3.23237
11
5.05073
21
-3.2326
0
LINE
8
BLACK
6
CONTINUOUS
10
5.05073
20
-3.2326
11
5.05016
21
-3.23451
0
LINE
8
BLACK
6
CONTINUOUS
10
5.05016
20
-3.23451
11
5.05014
21
-3.23457
0
LINE
8
BLACK
6
CONTINUOUS
10
5.05014
20
-3.23457
11
5.0495
21
-3.23645
0
LINE
8
BLACK
6
CONTINUOUS
10
5.0495
20
-3.23645
11
5.04946
21
-3.2367
0
LINE
8
BLACK
6
CONTINUOUS
10
5.04946
20
-3.2367
11
5.04944
21
-3.2367
0
LINE
8
BLACK
6
CONTINUOUS
10
5.04944
20
-3.2367
11
5.04943
21
-3.23676
0
LINE
8
BLACK
6
CONTINUOUS
10
5.04943
20
-3.23676
11
5.04945
21
-3.23676
0
LINE
8
BLACK
6
CONTINUOUS
10
5.04945
20
-3.23676
11
5.04942
21
-3.23702
0
LINE
8
BLACK
6
CONTINUOUS
10
5.04942
20
-3.23702
11
5.0495
21
-3.239
0
LINE
8
BLACK
6
CONTINUOUS
10
5.0495
20
-3.239
11
5.0495
21
-3.23907
0
LINE
8
BLACK
6
CONTINUOUS
10
5.0495
20
-3.23907
11
5.0495
21
-3.33174
0
LINE
8
BLACK
6
CONTINUOUS
10
5.0495
20
-3.33174
11
5.04877
21
-3.33374
0
LINE
8
BLACK
6
CONTINUOUS
10
5.04877
20
-3.33374
11
5.04859
21
-3.33394
0
LINE
8
BLACK
6
CONTINUOUS
10
5.04859
20
-3.33394
11
5.03459
21
-3.34794
0
LINE
8
BLACK
6
CONTINUOUS
10
5.03459
20
-3.34794
11
5.03266
21
-3.34884
0
LINE
8
BLACK
6
CONTINUOUS
10
5.03266
20
-3.34884
11
5.03239
21
-3.34885
0
LINE
8
BLACK
6
CONTINUOUS
10
5.03239
20
-3.34885
11
4.98452
21
-3.34885
0
LINE
8
BLACK
6
CONTINUOUS
10
4.98452
20
-3.34885
11
4.98222
21
-3.34931
0
LINE
8
BLACK
6
CONTINUOUS
10
4.98222
20
-3.34931
11
4.97961
21
-3.35106
0
LINE
8
BLACK
6
CONTINUOUS
10
4.97961
20
-3.35106
11
4.97786
21
-3.35367
0
LINE
8
BLACK
6
CONTINUOUS
10
4.97786
20
-3.35367
11
4.97741
21
-3.35597
0
LINE
8
BLACK
6
CONTINUOUS
10
4.97741
20
-3.35597
11
4.97741
21
-3.41753
0
LINE
8
BLACK
6
CONTINUOUS
10
4.97741
20
-3.41753
11
4.97786
21
-3.41983
0
CIRCLE
8
BLACK
10
5.82453
20
-2.94965
40
0.00688976
0
CIRCLE
8
BLACK
10
5.03713
20
-2.94965
40
0.00688976
0
CIRCLE
8
BLACK
10
5.43083
20
-2.94965
40
0.00688976
0
CIRCLE
8
BLACK
10
6.61193
20
-4.13075
40
0.00688976
0
CIRCLE
8
BLACK
10
6.21823
20
-4.13075
40
0.00688976
0
CIRCLE
8
BLACK
10
5.82453
20
-4.13075
40
0.00688976
0
CIRCLE
8
BLACK
10
5.03713
20
-4.13075
40
0.00688976
0
CIRCLE
8
BLACK
10
6.61193
20
-2.94965
40
0.00688976
0
CIRCLE
8
BLACK
10
6.21823
20
-2.94965
40
0.00688976
0
CIRCLE
8
BLACK
10
5.43083
20
-4.13075
40
0.00688976
0
CIRCLE
8
BLACK
10
5.45043
20
-3.40177
40
0.00393701
0
CIRCLE
8
BLACK
10
5.49768
20
-3.34075
40
0.00393701
0
CIRCLE
8
BLACK
10
5.59217
20
-3.40177
40
0.00393701
0
CIRCLE
8
BLACK
10
5.49768
20
-3.27972
40
0.00393701
0
CIRCLE
8
BLACK
10
5.49768
20
-3.40177
40
0.00393701
0
CIRCLE
8
BLACK
10
5.45043
20
-3.27972
40
0.00393701
0
CIRCLE
8
BLACK
10
5.59217
20
-3.27972
40
0.00393701
0
CIRCLE
8
BLACK
10
5.59217
20
-3.34075
40
0.00393701
0
CIRCLE
8
BLACK
10
5.54492
20
-3.27972
40
0.00393701
0
CIRCLE
8
BLACK
10
5.54492
20
-3.34075
40
0.00393701
0
CIRCLE
8
BLACK
10
5.54492
20
-3.40177
40
0.00393701
0
CIRCLE
8
BLACK
10
5.45043
20
-3.34075
40
0.00393701
0
CIRCLE
8
BLACK
10
6.06539
20
-3.67638
40
0.00393701
0
CIRCLE
8
BLACK
10
6.04177
20
-3.67638
40
0.00393701
0
CIRCLE
8
BLACK
10
6.01815
20
-3.67638
40
0.00393701
0
CIRCLE
8
BLACK
10
6.1913
20
-3.72075
40
0.00787402
0
CIRCLE
8
BLACK
10
6.4963
20
-3.93575
40
0.00787402
0
CIRCLE
8
BLACK
10
5.42098
20
-3.04217
40
0.00787402
0
CIRCLE
8
BLACK
10
6.0013
20
-3.82075
40
0.00787402
0
CIRCLE
8
BLACK
10
5.9263
20
-3.93075
40
0.00787402
0
CIRCLE
8
BLACK
10
6.24705
20
-3.18602
40
0.00787402
0
CIRCLE
8
BLACK
10
6.0563
20
-3.07575
40
0.00787402
0
CIRCLE
8
BLACK
10
5.6713
20
-3.48575
40
0.00787402
0
CIRCLE
8
BLACK
10
6.7413
20
-3.43575
40
0.00787402
0
CIRCLE
8
BLACK
10
5.2513
20
-3.62575
40
0.00787402
0
CIRCLE
8
BLACK
10
6.6163
20
-3.43575
40
0.00787402
0
CIRCLE
8
BLACK
10
6.6788
20
-3.43575
40
0.00787402
0
CIRCLE
8
BLACK
10
6.35012
20
-3.37287
40
0.00787402
0
CIRCLE
8
BLACK
10
5.9763
20
-3.28575
40
0.00787402
0
CIRCLE
8
BLACK
10
5.8263
20
-3.44575
40
0.00787402
0
CIRCLE
8
BLACK
10
6.5263
20
-4.08075
40
0.00787402
0
CIRCLE
8
BLACK
10
5.3213
20
-4.08575
40
0.00787402
0
CIRCLE
8
BLACK
10
6.3763
20
-3.12575
40
0.00787402
0
CIRCLE
8
BLACK
10
5.4663
20
-3.92075
40
0.00787402
0
CIRCLE
8
BLACK
10
6.3263
20
-3.00575
40
0.00787402
0
CIRCLE
8
BLACK
10
5.7713
20
-3.04075
40
0.00787402
0
CIRCLE
8
BLACK
10
6.3513
20
-3.90575
40
0.00787402
0
CIRCLE
8
BLACK
10
6.4913
20
-3.70575
40
0.00787402
0
CIRCLE
8
BLACK
10
6.4363
20
-3.00575
40
0.00787402
0
CIRCLE
8
BLACK
10
5.9363
20
-3.07575
40
0.00787402
0
CIRCLE
8
BLACK
10
5.6393
20
-3.70275
40
0.00787402
0
CIRCLE
8
BLACK
10
5.3413
20
-2.99575
40
0.00787402
0
CIRCLE
8
BLACK
10
6.4913
20
-3.35075
40
0.00787402
0
CIRCLE
8
BLACK
10
6.6713
20
-3.59075
40
0.00787402
0
CIRCLE
8
BLACK
10
6.63603
20
-3.06185
40
0.00787402
0
CIRCLE
8
BLACK
10
6.0963
20
-3.47075
40
0.00787402
0
CIRCLE
8
BLACK
10
6.6936
20
-3.06185
40
0.00787402
0
CIRCLE
8
BLACK
10
6.71028
20
-4.02445
40
0.00787402
0
CIRCLE
8
BLACK
10
6.0463
20
-3.82575
40
0.00787402
0
CIRCLE
8
BLACK
10
6.0413
20
-2.99575
40
0.00787402
0
CIRCLE
8
BLACK
10
6.4913
20
-3.30575
40
0.00787402
0
CIRCLE
8
BLACK
10
6.6063
20
-3.65075
40
0.00787402
0
CIRCLE
8
BLACK
10
6.1113
20
-2.99575
40
0.00787402
0
CIRCLE
8
BLACK
10
6.65579
20
-4.02445
40
0.00787402
0
CIRCLE
8
BLACK
10
5.7663
20
-3.95075
40
0.00787402
0
CIRCLE
8
BLACK
10
6.0313
20
-4.08075
40
0.00787402
0
CIRCLE
8
BLACK
10
6.21297
20
-3.82575
40
0.00787402
0
CIRCLE
8
BLACK
10
6.1813
20
-3.54075
40
0.00787402
0
CIRCLE
8
BLACK
10
6.2413
20
-4.02575
40
0.00787402
0
CIRCLE
8
BLACK
10
5.10236
20
-3.99902
40
0.00787402
0
CIRCLE
8
BLACK
10
5.5713
20
-3.92075
40
0.00787402
0
CIRCLE
8
BLACK
10
6.0413
20
-3.94075
40
0.00787402
0
CIRCLE
8
BLACK
10
6.0913
20
-4.08075
40
0.00787402
0
CIRCLE
8
BLACK
10
5.09941
20
-3.68012
40
0.00787402
0
CIRCLE
8
BLACK
10
6.3863
20
-3.45575
40
0.00787402
0
CIRCLE
8
BLACK
10
6.6713
20
-3.65075
40
0.00787402
0
CIRCLE
8
BLACK
10
5.6163
20
-4.08075
40
0.00787402
0
CIRCLE
8
BLACK
10
6.3713
20
-3.17075
40
0.00787402
0
CIRCLE
8
BLACK
10
6.3713
20
-3.22075
40
0.00787402
0
CIRCLE
8
BLACK
10
6.8663
20
-3.65075
40
0.00787402
0
CIRCLE
8
BLACK
10
6.8663
20
-3.43575
40
0.00787402
0
CIRCLE
8
BLACK
10
6.4913
20
-3.14575
40
0.00787402
0
CIRCLE
8
BLACK
10
5.9663
20
-3.69075
40
0.00787402
0
CIRCLE
8
BLACK
10
4.9813
20
-3.18875
40
0.00787402
0
CIRCLE
8
BLACK
10
6.1763
20
-3.23575
40
0.00787402
0
CIRCLE
8
BLACK
10
6.4913
20
-3.10575
40
0.00787402
0
CIRCLE
8
BLACK
10
6.24972
20
-3.13862
40
0.00787402
0
CIRCLE
8
BLACK
10
6.5063
20
-3.59575
40
0.00787402
0
CIRCLE
8
BLACK
10
5.4663
20
-3.83575
40
0.00787402
0
CIRCLE
8
BLACK
10
4.9813
20
-3.09675
40
0.00787402
0
CIRCLE
8
BLACK
10
4.98327
20
-3.6916
40
0.00787402
0
CIRCLE
8
BLACK
10
6.39146
20
-3.30988
40
0.00787402
0
CIRCLE
8
BLACK
10
6.3113
20
-3.94075
40
0.00787402
0
CIRCLE
8
BLACK
10
5.1853
20
-3.44575
40
0.00787402
0
CIRCLE
8
BLACK
10
6.2813
20
-4.06075
40
0.00787402
0
CIRCLE
8
BLACK
10
6.5613
20
-4.05075
40
0.00787402
0
CIRCLE
8
BLACK
10
6.4963
20
-3.00575
40
0.00787402
0
CIRCLE
8
BLACK
10
6.81925
20
-4.02445
40
0.00787402
0
CIRCLE
8
BLACK
10
6.76476
20
-4.02445
40
0.00787402
0
CIRCLE
8
BLACK
10
5.3813
20
-3.06075
40
0.00787402
0
CIRCLE
8
BLACK
10
6.75117
20
-3.06185
40
0.00787402
0
CIRCLE
8
BLACK
10
6.8663
20
-3.06185
40
0.00787402
0
CIRCLE
8
BLACK
10
5.8863
20
-3.90075
40
0.00787402
0
CIRCLE
8
BLACK
10
5.8463
20
-3.87075
40
0.00787402
0
CIRCLE
8
BLACK
10
6.4263
20
-3.98075
40
0.00787402
0
CIRCLE
8
BLACK
10
5.5713
20
-3.86775
40
0.00787402
0
CIRCLE
8
BLACK
10
6.31004
20
-3.1811
40
0.00787402
0
CIRCLE
8
BLACK
10
6.25463
20
-3.82575
40
0.00787402
0
CIRCLE
8
BLACK
10
5.5663
20
-4.08075
40
0.00787402
0
CIRCLE
8
BLACK
10
5.8463
20
-3.78075
40
0.00787402
0
CIRCLE
8
BLACK
10
5.1413
20
-4.04075
40
0.00787402
0
CIRCLE
8
BLACK
10
6.40044
20
-3.67209
40
0.00787402
0
CIRCLE
8
BLACK
10
5.1913
20
-3.39575
40
0.00787402
0
CIRCLE
8
BLACK
10
6.35236
20
-3.33465
40
0.00787402
0
CIRCLE
8
BLACK
10
5.8563
20
-3.51075
40
0.00787402
0
CIRCLE
8
BLACK
10
5.6863
20
-3.65075
40
0.00787402
0
CIRCLE
8
BLACK
10
5.8863
20
-3.35075
40
0.00787402
0
CIRCLE
8
BLACK
10
6.4913
20
-3.76075
40
0.00787402
0
CIRCLE
8
BLACK
10
5.7413
20
-3.66075
40
0.00787402
0
CIRCLE
8
BLACK
10
6.1713
20
-3.82575
40
0.00787402
0
CIRCLE
8
BLACK
10
5.9813
20
-2.99575
40
0.00787402
0
CIRCLE
8
BLACK
10
5.6263
20
-3.85075
40
0.00787402
0
CIRCLE
8
BLACK
10
5.7613
20
-4.03075
40
0.00787402
0
CIRCLE
8
BLACK
10
5.8513
20
-3.09075
40
0.00787402
0
CIRCLE
8
BLACK
10
4.98031
20
-3.6122
40
0.00787402
0
CIRCLE
8
BLACK
10
5.1863
20
-4.04075
40
0.00787402
0
CIRCLE
8
BLACK
10
5.2963
20
-2.99575
40
0.00787402
0
CIRCLE
8
BLACK
10
6.3363
20
-4.08075
40
0.00787402
0
CIRCLE
8
BLACK
10
6.37768
20
-3.26854
40
0.00787402
0
CIRCLE
8
BLACK
10
4.9813
20
-3.14075
40
0.00787402
0
CIRCLE
8
BLACK
10
6.3813
20
-3.87575
40
0.00787402
0
CIRCLE
8
BLACK
10
5.3563
20
-3.37075
40
0.00787402
0
CIRCLE
8
BLACK
10
6.2513
20
-3.46575
40
0.00787402
0
CIRCLE
8
BLACK
10
5.1963
20
-2.99575
40
0.00787402
0
CIRCLE
8
BLACK
10
5.5163
20
-4.08075
40
0.00787402
0
CIRCLE
8
BLACK
10
5.2013
20
-3.64075
40
0.00787402
0
CIRCLE
8
BLACK
10
6.1713
20
-3.94075
40
0.00787402
0
CIRCLE
8
BLACK
10
5.4663
20
-3.87575
40
0.00787402
0
CIRCLE
8
BLACK
10
6.4013
20
-4.08075
40
0.00787402
0
CIRCLE
8
BLACK
10
5.4633
20
-3.05875
40
0.00787402
0
CIRCLE
8
BLACK
10
5.6613
20
-4.08075
40
0.00787402
0
CIRCLE
8
BLACK
10
5.1013
20
-4.04075
40
0.00787402
0
CIRCLE
8
BLACK
10
5.5963
20
-3.65575
40
0.00787402
0
CIRCLE
8
BLACK
10
5.9663
20
-3.74575
40
0.00787402
0
CIRCLE
8
BLACK
10
5.4163
20
-3.92075
40
0.00787402
0
CIRCLE
8
BLACK
10
6.0413
20
-3.99075
40
0.00787402
0
CIRCLE
8
BLACK
10
5.6263
20
-3.92075
40
0.00787402
0
CIRCLE
8
BLACK
10
5.8213
20
-4.03075
40
0.00787402
0
CIRCLE
8
BLACK
10
5.1893
20
-3.35475
40
0.00787402
0
CIRCLE
8
BLACK
10
6.3763
20
-3.94575
40
0.00787402
0
CIRCLE
8
BLACK
10
5.2713
20
-4.08575
40
0.00787402
0
CIRCLE
8
BLACK
10
6.6013
20
-4.02445
40
0.00787402
0
CIRCLE
8
BLACK
10
5.9863
20
-4.01075
40
0.00787402
0
CIRCLE
8
BLACK
10
5.18701
20
-3.56299
40
0.00787402
0
CIRCLE
8
BLACK
10
6.00394
20
-3.40551
40
0.00787402
0
CIRCLE
8
BLACK
10
6.4663
20
-4.08075
40
0.00787402
0
CIRCLE
8
BLACK
10
6.4913
20
-3.19075
40
0.00787402
0
CIRCLE
8
BLACK
10
6.1273
20
-3.15075
40
0.00787402
0
CIRCLE
8
BLACK
10
5.00098
20
-3.97835
40
0.00787402
0
CIRCLE
8
BLACK
10
5.9263
20
-3.38075
40
0.00787402
0
CIRCLE
8
BLACK
10
5.2213
20
-4.08575
40
0.00787402
0
CIRCLE
8
BLACK
10
5.2463
20
-2.99575
40
0.00787402
0
CIRCLE
8
BLACK
10
5.1163
20
-3.64075
40
0.00787402
0
CIRCLE
8
BLACK
10
4.98327
20
-3.73327
40
0.00787402
0
CIRCLE
8
BLACK
10
5.2563
20
-3.29075
40
0.00787402
0
CIRCLE
8
BLACK
10
5.00098
20
-3.93668
40
0.00787402
0
CIRCLE
8
BLACK
10
5.02362
20
-3.69259
40
0.00787402
0
CIRCLE
8
BLACK
10
6.4913
20
-3.65075
40
0.00787402
0
CIRCLE
8
BLACK
10
6.5063
20
-3.49575
40
0.00787402
0
CIRCLE
8
BLACK
10
6.87374
20
-4.02445
40
0.00787402
0
CIRCLE
8
BLACK
10
5.9763
20
-4.08075
40
0.00787402
0
CIRCLE
8
BLACK
10
6.2963
20
-3.82575
40
0.00787402
0
CIRCLE
8
BLACK
10
5.3013
20
-3.63075
40
0.00787402
0
CIRCLE
8
BLACK
10
6.1913
20
-4.02575
40
0.00787402
0
CIRCLE
8
BLACK
10
5.8463
20
-3.82575
40
0.00787402
0
CIRCLE
8
BLACK
10
6.4913
20
-3.45075
40
0.00787402
0
CIRCLE
8
BLACK
10
5.7863
20
-3.84075
40
0.00787402
0
CIRCLE
8
BLACK
10
5.1873
20
-3.50475
40
0.00787402
0
CIRCLE
8
BLACK
10
5.2473
20
-3.34075
40
0.00787402
0
CIRCLE
8
BLACK
10
6.4763
20
-3.98075
40
0.00787402
0
CIRCLE
8
BLACK
10
6.08797
20
-3.82575
40
0.00787402
0
CIRCLE
8
BLACK
10
6.12963
20
-3.82575
40
0.00787402
0
CIRCLE
8
BLACK
10
5.5713
20
-3.81575
40
0.00787402
0
CIRCLE
8
BLACK
10
5.6413
20
-3.65075
40
0.00787402
0
CIRCLE
8
BLACK
10
6.0013
20
-3.07575
40
0.00787402
0
CIRCLE
8
BLACK
10
6.0963
20
-3.51075
40
0.00787402
0
CIRCLE
8
BLACK
10
5.7863
20
-3.72575
40
0.00787402
0
CIRCLE
8
BLACK
10
5.9863
20
-3.44575
40
0.00787402
0
CIRCLE
8
BLACK
10
5.5263
20
-2.99075
40
0.00787402
0
CIRCLE
8
BLACK
10
6.2163
20
-3.94075
40
0.00787402
0
CIRCLE
8
BLACK
10
5.9663
20
-3.64075
40
0.00787402
0
CIRCLE
8
BLACK
10
5.3863
20
-3.53575
40
0.00787402
0
CIRCLE
8
BLACK
10
6.1463
20
-4.06575
40
0.00787402
0
CIRCLE
8
BLACK
10
5.8463
20
-3.74075
40
0.00787402
0
CIRCLE
8
BLACK
10
6.0863
20
-3.94075
40
0.00787402
0
CIRCLE
8
BLACK
10
6.14469
20
-3.38091
40
0.00787402
0
CIRCLE
8
BLACK
10
5.7863
20
-3.68075
40
0.00787402
0
CIRCLE
8
BLACK
10
5.8563
20
-3.64575
40
0.00787402
0
CIRCLE
8
BLACK
10
6.1313
20
-3.94075
40
0.00787402
0
CIRCLE
8
BLACK
10
6.80873
20
-3.06185
40
0.00787402
0
CIRCLE
8
BLACK
10
5.9313
20
-3.99075
40
0.00787402
0
CIRCLE
8
BLACK
10
5.9263
20
-2.99575
40
0.00787402
0
CIRCLE
8
BLACK
10
6.53713
20
-3.03429
40
0.00787402
0
CIRCLE
8
BLACK
10
5.7063
20
-3.96575
40
0.00787402
0
CIRCLE
8
BLACK
10
6.39146
20
-3.3965
40
0.00787402
0
CIRCLE
8
BLACK
10
6.7363
20
-3.65075
40
0.00787402
0
CIRCLE
8
BLACK
10
6.4363
20
-3.10575
40
0.00787402
0
CIRCLE
8
BLACK
10
5.1613
20
-3.64075
40
0.00787402
0
CIRCLE
8
BLACK
10
5.9713
20
-3.78575
40
0.00787402
0
CIRCLE
8
BLACK
10
6.1763
20
-3.19075
40
0.00787402
0
CIRCLE
8
BLACK
10
6.38949
20
-3.73508
40
0.00787402
0
CIRCLE
8
BLACK
10
5.66297
20
-2.99075
40
0.00787402
0
CIRCLE
8
BLACK
10
5.7313
20
-2.99075
40
0.00787402
0
CIRCLE
8
BLACK
10
6.6713
20
-3.50575
40
0.00787402
0
CIRCLE
8
BLACK
10
5.8863
20
-3.12575
40
0.00787402
0
CIRCLE
8
BLACK
10
6.8038
20
-3.43575
40
0.00787402
0
CIRCLE
8
BLACK
10
6.4913
20
-3.39575
40
0.00787402
0
CIRCLE
8
BLACK
10
6.57846
20
-3.06185
40
0.00787402
0
CIRCLE
8
BLACK
10
6.3863
20
-3.00575
40
0.00787402
0
CIRCLE
8
BLACK
10
5.7863
20
-3.89575
40
0.00787402
0
CIRCLE
8
BLACK
10
6.1113
20
-3.09075
40
0.00787402
0
CIRCLE
8
BLACK
10
5.3583
20
-4.06475
40
0.00787402
0
CIRCLE
8
BLACK
10
6.2613
20
-3.94075
40
0.00787402
0
CIRCLE
8
BLACK
10
5.59463
20
-2.99075
40
0.00787402
0
CIRCLE
8
BLACK
10
5.6273
20
-3.79575
40
0.00787402
0
CIRCLE
8
BLACK
10
5.8963
20
-4.05575
40
0.00787402
0
CIRCLE
8
BLACK
10
6.8013
20
-3.65075
40
0.00787402
0
CIRCLE
8
BLACK
10
5.9563
20
-3.41075
40
0.00787402
0
CIRCLE
8
BLACK
10
5.3413
20
-3.03575
40
0.00787402
0
CIRCLE
8
BLACK
10
5.7113
20
-4.08075
40
0.00787402
0
CIRCLE
8
BLACK
10
6.2513
20
-3.41575
40
0.00787402
0
CIRCLE
8
BLACK
10
5.8553
20
-3.15475
40
0.00787402
0
CIRCLE
8
BLACK
10
6.5063
20
-3.54575
40
0.00787402
0
CIRCLE
8
BLACK
10
5.7863
20
-3.78575
40
0.00787402
0
CIRCLE
8
BLACK
10
5.8013
20
-3.09075
40
0.00787402
0
CIRCLE
8
BLACK
10
6.0963
20
-3.43075
40
0.00787402
0
CIRCLE
8
BLACK
10
5.9863
20
-3.49075
40
0.00787402
0
CIRCLE
8
BLACK
10
5.53816
20
-3.67075
40
0.00787402
0
CIRCLE
8
BLACK
10
6.1313
20
-3.64575
40
0.00787402
0
CIRCLE
8
BLACK
10
5.1633
20
-3.09075
40
0.00787402
0
CIRCLE
8
BLACK
10
5.45157
20
-3.12206
40
0.00787402
0
CIRCLE
8
BLACK
10
5.2573
20
-3.05075
40
0.00787402
0
CIRCLE
8
BLACK
10
5.52697
20
-3.18747
40
0.00787402
0
CIRCLE
8
BLACK
10
5.2613
20
-3.19673
40
0.00787402
0
CIRCLE
8
BLACK
10
5.1673
20
-3.22675
40
0.00787402
0
CIRCLE
8
BLACK
10
5.59638
20
-3.50342
40
0.00787402
0
CIRCLE
8
BLACK
10
6.37795
20
-3.58268
40
0.00787402
0
CIRCLE
8
BLACK
10
5.55868
20
-3.49216
40
0.00787402
0
CIRCLE
8
BLACK
10
6.2563
20
-3.72075
40
0.00787402
0
CIRCLE
8
BLACK
10
5.4213
20
-3.48575
40
0.00787402
0
CIRCLE
8
BLACK
10
5.3513
20
-3.75075
40
0.00787402
0
CIRCLE
8
BLACK
10
5.9863
20
-3.53673
40
0.00787402
0
CIRCLE
8
BLACK
10
5.63413
20
-3.2035
40
0.00787402
0
CIRCLE
8
BLACK
10
5.0573
20
-3.95075
40
0.00787402
0
CIRCLE
8
BLACK
10
5.38815
20
-3.45635
40
0.00787402
0
CIRCLE
8
BLACK
10
5.3513
20
-3.68575
40
0.00787402
0
CIRCLE
8
BLACK
10
5.4113
20
-3.82575
40
0.00787402
0
CIRCLE
8
BLACK
10
5.50223
20
-3.48835
40
0.00787402
0
CIRCLE
8
BLACK
10
5.3563
20
-3.80575
40
0.00787402
0
CIRCLE
8
BLACK
10
5.46289
20
-3.48734
40
0.00787402
0
CIRCLE
8
BLACK
10
5.43442
20
-3.15748
40
0.00787402
0
CIRCLE
8
BLACK
10
5.0893
20
-3.09075
40
0.00787402
  0
ENDSEC
  0
EOF
