<?xml version="1.0" standalone="no"?>
 <!DOCTYPE svg PUBLIC "-//W3C//DTD SVG 1.1//EN" 
 "http://www.w3.org/Graphics/SVG/1.1/DTD/svg11.dtd"> 
<svg
  xmlns:svg="http://www.w3.org/2000/svg"
  xmlns="http://www.w3.org/2000/svg"
  xmlns:xlink="http://www.w3.org/1999/xlink"
  version="1.1"
  width="50.1396mm" height="30.1498mm" viewBox="0.0000 0.0000 50.1396 30.1498">
<title>SVG Image created as TFSIK01-B_Silkscreen.svg date 2023/08/04 18:29:59 </title>
  <desc>Image generated by PCBNEW </desc>
<g style="fill:#000000; fill-opacity:1.0000;stroke:#000000; stroke-opacity:1.0000;
stroke-linecap:round; stroke-linejoin:round;"
 transform="translate(0 0) scale(1 1)">
</g>
<g style="fill:#000000; fill-opacity:0.0; 
stroke:#000000; stroke-width:0.0000; stroke-opacity:1; 
stroke-linecap:round; stroke-linejoin:round;">
</g>
<g style="fill:#E8B2A7; fill-opacity:0.0; 
stroke:#E8B2A7; stroke-width:0.0000; stroke-opacity:1; 
stroke-linecap:round; stroke-linejoin:round;">
</g>
<g style="fill:#E8B2A7; fill-opacity:0.0; 
stroke:#E8B2A7; stroke-width:0.1500; stroke-opacity:1; 
stroke-linecap:round; stroke-linejoin:round;">
<path d="M2.8820 3.2540
L2.8820 3.9540
" />
<path d="M4.8820 3.1040
L4.8820 3.9040
" />
<path d="M6.8820 3.0540
L6.8820 4.1040
" />
<path d="M1.6320 3.5540
L7.8820 3.5540
" />
<g transform="rotate(-90.000000 26.4290 21.7395)">
<text x="26.4290" y="22.2395"
transform="scale(-1 1) translate(-52.858000 0)"
textLength="2.0119" font-size="1.3333" lengthAdjust="spacingAndGlyphs"
text-anchor="middle" opacity="0">L5</text>
</g>
<g class="stroked-text"><desc>L5</desc>
<path d="M26.8838 21.5728
L26.8838 21.0966
" />
<path d="M26.8838 21.0966
L25.8838 21.0966
" />
<path d="M25.8838 22.3824
L25.8838 21.9062
" />
<path d="M25.8838 21.9062
L26.3600 21.8585
" />
<path d="M26.3600 21.8585
L26.3124 21.9062
" />
<path d="M26.3124 21.9062
L26.2648 22.0014
" />
<path d="M26.2648 22.0014
L26.2648 22.2395
" />
<path d="M26.2648 22.2395
L26.3124 22.3347
" />
<path d="M26.3124 22.3347
L26.3600 22.3824
" />
<path d="M26.3600 22.3824
L26.4552 22.4300
" />
<path d="M26.4552 22.4300
L26.6933 22.4300
" />
<path d="M26.6933 22.4300
L26.7886 22.3824
" />
<path d="M26.7886 22.3824
L26.8362 22.3347
" />
<path d="M26.8362 22.3347
L26.8838 22.2395
" />
<path d="M26.8838 22.2395
L26.8838 22.0014
" />
<path d="M26.8838 22.0014
L26.8362 21.9062
" />
<path d="M26.8362 21.9062
L26.7886 21.8585
" />
</g><g transform="rotate(-90.000000 1.2078 2.5922)">
<text x="1.2078" y="3.0922"
transform="scale(-1 1) translate(-2.415600 0)"
textLength="2.2024" font-size="1.3333" lengthAdjust="spacingAndGlyphs"
text-anchor="middle" opacity="0">D1</text>
</g>
<g class="stroked-text"><desc>D1</desc>
<path d="M1.6626 1.8541
L0.6626 1.8541
" />
<path d="M0.6626 1.8541
L0.6626 2.0922
" />
<path d="M0.6626 2.0922
L0.7102 2.2351
" />
<path d="M0.7102 2.2351
L0.8055 2.3303
" />
<path d="M0.8055 2.3303
L0.9007 2.3779
" />
<path d="M0.9007 2.3779
L1.0912 2.4255
" />
<path d="M1.0912 2.4255
L1.2340 2.4255
" />
<path d="M1.2340 2.4255
L1.4245 2.3779
" />
<path d="M1.4245 2.3779
L1.5198 2.3303
" />
<path d="M1.5198 2.3303
L1.6150 2.2351
" />
<path d="M1.6150 2.2351
L1.6626 2.0922
" />
<path d="M1.6626 2.0922
L1.6626 1.8541
" />
<path d="M1.6626 3.3779
L1.6626 2.8065
" />
<path d="M1.6626 3.0922
L0.6626 3.0922
" />
<path d="M0.6626 3.0922
L0.8055 2.9970
" />
<path d="M0.8055 2.9970
L0.9007 2.9017
" />
<path d="M0.9007 2.9017
L0.9483 2.8065
" />
</g><text x="8.0328" y="1.7778"
transform="scale(-1 1) translate(-16.065600 0)"
textLength="2.2024" font-size="1.3333" lengthAdjust="spacingAndGlyphs"
text-anchor="middle" opacity="0">D2</text>
<g class="stroked-text"><desc>D2</desc>
<path d="M8.7709 1.7326
L8.7709 0.7326
" />
<path d="M8.7709 0.7326
L8.5328 0.7326
" />
<path d="M8.5328 0.7326
L8.3899 0.7802
" />
<path d="M8.3899 0.7802
L8.2947 0.8755
" />
<path d="M8.2947 0.8755
L8.2471 0.9707
" />
<path d="M8.2471 0.9707
L8.1995 1.1612
" />
<path d="M8.1995 1.1612
L8.1995 1.3040
" />
<path d="M8.1995 1.3040
L8.2471 1.4945
" />
<path d="M8.2471 1.4945
L8.2947 1.5898
" />
<path d="M8.2947 1.5898
L8.3899 1.6850
" />
<path d="M8.3899 1.6850
L8.5328 1.7326
" />
<path d="M8.5328 1.7326
L8.7709 1.7326
" />
<path d="M7.8185 0.8279
L7.7709 0.7802
" />
<path d="M7.7709 0.7802
L7.6757 0.7326
" />
<path d="M7.6757 0.7326
L7.4376 0.7326
" />
<path d="M7.4376 0.7326
L7.3423 0.7802
" />
<path d="M7.3423 0.7802
L7.2947 0.8279
" />
<path d="M7.2947 0.8279
L7.2471 0.9231
" />
<path d="M7.2471 0.9231
L7.2471 1.0183
" />
<path d="M7.2471 1.0183
L7.2947 1.1612
" />
<path d="M7.2947 1.1612
L7.8661 1.7326
" />
<path d="M7.8661 1.7326
L7.2471 1.7326
" />
</g><text x="29.5585" y="22.7020"
transform="scale(-1 1) translate(-59.117000 0)"
textLength="2.0119" font-size="1.3333" lengthAdjust="spacingAndGlyphs"
text-anchor="middle" opacity="0">L3</text>
<g class="stroked-text"><desc>L3</desc>
<path d="M29.7252 22.6568
L30.2014 22.6568
" />
<path d="M30.2014 22.6568
L30.2014 21.6568
" />
<path d="M29.4871 21.6568
L28.8680 21.6568
" />
<path d="M28.8680 21.6568
L29.2014 22.0378
" />
<path d="M29.2014 22.0378
L29.0585 22.0378
" />
<path d="M29.0585 22.0378
L28.9633 22.0854
" />
<path d="M28.9633 22.0854
L28.9156 22.1330
" />
<path d="M28.9156 22.1330
L28.8680 22.2282
" />
<path d="M28.8680 22.2282
L28.8680 22.4663
" />
<path d="M28.8680 22.4663
L28.9156 22.5616
" />
<path d="M28.9156 22.5616
L28.9633 22.6092
" />
<path d="M28.9633 22.6092
L29.0585 22.6568
" />
<path d="M29.0585 22.6568
L29.3442 22.6568
" />
<path d="M29.3442 22.6568
L29.4395 22.6092
" />
<path d="M29.4395 22.6092
L29.4871 22.5616
" />
</g><text x="6.3820" y="17.6540"
transform="scale(-1 1) translate(-12.764000 0)"
textLength="1.9643" font-size="1.3333" lengthAdjust="spacingAndGlyphs"
text-anchor="middle" opacity="0">J1</text>
<g class="stroked-text"><desc>J1</desc>
<path d="M6.7153 16.6088
L6.7153 17.3231
" />
<path d="M6.7153 17.3231
L6.7630 17.4660
" />
<path d="M6.7630 17.4660
L6.8582 17.5612
" />
<path d="M6.8582 17.5612
L7.0010 17.6088
" />
<path d="M7.0010 17.6088
L7.0963 17.6088
" />
<path d="M5.7153 17.6088
L6.2868 17.6088
" />
<path d="M6.0010 17.6088
L6.0010 16.6088
" />
<path d="M6.0010 16.6088
L6.0963 16.7517
" />
<path d="M6.0963 16.7517
L6.1915 16.8469
" />
<path d="M6.1915 16.8469
L6.2868 16.8945
" />
</g><g transform="rotate(-90.000000 1.4542 7.0240)">
<text x="1.4542" y="7.5240"
transform="scale(-1 1) translate(-2.908400 0)"
textLength="2.2024" font-size="1.3333" lengthAdjust="spacingAndGlyphs"
text-anchor="middle" opacity="0">R6</text>
</g>
<g class="stroked-text"><desc>R6</desc>
<path d="M1.9090 6.8573
L1.4328 6.5240
" />
<path d="M1.9090 6.2859
L0.9090 6.2859
" />
<path d="M0.9090 6.2859
L0.9090 6.6669
" />
<path d="M0.9090 6.6669
L0.9566 6.7621
" />
<path d="M0.9566 6.7621
L1.0043 6.8097
" />
<path d="M1.0043 6.8097
L1.0995 6.8573
" />
<path d="M1.0995 6.8573
L1.2424 6.8573
" />
<path d="M1.2424 6.8573
L1.3376 6.8097
" />
<path d="M1.3376 6.8097
L1.3852 6.7621
" />
<path d="M1.3852 6.7621
L1.4328 6.6669
" />
<path d="M1.4328 6.6669
L1.4328 6.2859
" />
<path d="M0.9090 7.7145
L0.9090 7.5240
" />
<path d="M0.9090 7.5240
L0.9566 7.4288
" />
<path d="M0.9566 7.4288
L1.0043 7.3811
" />
<path d="M1.0043 7.3811
L1.1471 7.2859
" />
<path d="M1.1471 7.2859
L1.3376 7.2383
" />
<path d="M1.3376 7.2383
L1.7185 7.2383
" />
<path d="M1.7185 7.2383
L1.8138 7.2859
" />
<path d="M1.8138 7.2859
L1.8614 7.3335
" />
<path d="M1.8614 7.3335
L1.9090 7.4288
" />
<path d="M1.9090 7.4288
L1.9090 7.6192
" />
<path d="M1.9090 7.6192
L1.8614 7.7145
" />
<path d="M1.8614 7.7145
L1.8138 7.7621
" />
<path d="M1.8138 7.7621
L1.7185 7.8097
" />
<path d="M1.7185 7.8097
L1.4804 7.8097
" />
<path d="M1.4804 7.8097
L1.3852 7.7621
" />
<path d="M1.3852 7.7621
L1.3376 7.7145
" />
<path d="M1.3376 7.7145
L1.2900 7.6192
" />
<path d="M1.2900 7.6192
L1.2900 7.4288
" />
<path d="M1.2900 7.4288
L1.3376 7.3335
" />
<path d="M1.3376 7.3335
L1.3852 7.2859
" />
<path d="M1.3852 7.2859
L1.4804 7.2383
" />
</g><text x="5.1194" y="1.7714"
transform="scale(-1 1) translate(-10.238800 0)"
textLength="2.2024" font-size="1.3333" lengthAdjust="spacingAndGlyphs"
text-anchor="middle" opacity="0">D3</text>
<g class="stroked-text"><desc>D3</desc>
<path d="M5.8575 1.7262
L5.8575 0.7262
" />
<path d="M5.8575 0.7262
L5.6194 0.7262
" />
<path d="M5.6194 0.7262
L5.4765 0.7738
" />
<path d="M5.4765 0.7738
L5.3813 0.8691
" />
<path d="M5.3813 0.8691
L5.3337 0.9643
" />
<path d="M5.3337 0.9643
L5.2861 1.1548
" />
<path d="M5.2861 1.1548
L5.2861 1.2976
" />
<path d="M5.2861 1.2976
L5.3337 1.4881
" />
<path d="M5.3337 1.4881
L5.3813 1.5834
" />
<path d="M5.3813 1.5834
L5.4765 1.6786
" />
<path d="M5.4765 1.6786
L5.6194 1.7262
" />
<path d="M5.6194 1.7262
L5.8575 1.7262
" />
<path d="M4.9527 0.7262
L4.3337 0.7262
" />
<path d="M4.3337 0.7262
L4.6670 1.1072
" />
<path d="M4.6670 1.1072
L4.5242 1.1072
" />
<path d="M4.5242 1.1072
L4.4289 1.1548
" />
<path d="M4.4289 1.1548
L4.3813 1.2024
" />
<path d="M4.3813 1.2024
L4.3337 1.2976
" />
<path d="M4.3337 1.2976
L4.3337 1.5357
" />
<path d="M4.3337 1.5357
L4.3813 1.6310
" />
<path d="M4.3813 1.6310
L4.4289 1.6786
" />
<path d="M4.4289 1.6786
L4.5242 1.7262
" />
<path d="M4.5242 1.7262
L4.8099 1.7262
" />
<path d="M4.8099 1.7262
L4.9051 1.6786
" />
<path d="M4.9051 1.6786
L4.9527 1.6310
" />
</g><g transform="rotate(-90.000000 19.3250 27.3250)">
<text x="19.3250" y="27.9600"
transform="scale(-1 1) translate(-38.650000 0)"
textLength="2.7360" font-size="1.6933" lengthAdjust="spacingAndGlyphs"
text-anchor="middle" opacity="0">U1</text>
</g>
<g class="stroked-text"><desc>U1</desc>
<path d="M18.6347 26.3574
L19.6628 26.3574
" />
<path d="M19.6628 26.3574
L19.7838 26.4179
" />
<path d="M19.7838 26.4179
L19.8442 26.4783
" />
<path d="M19.8442 26.4783
L19.9047 26.5993
" />
<path d="M19.9047 26.5993
L19.9047 26.8412
" />
<path d="M19.9047 26.8412
L19.8442 26.9621
" />
<path d="M19.8442 26.9621
L19.7838 27.0226
" />
<path d="M19.7838 27.0226
L19.6628 27.0831
" />
<path d="M19.6628 27.0831
L18.6347 27.0831
" />
<path d="M19.9047 28.3531
L19.9047 27.6274
" />
<path d="M19.9047 27.9902
L18.6347 27.9902
" />
<path d="M18.6347 27.9902
L18.8162 27.8693
" />
<path d="M18.8162 27.8693
L18.9371 27.7483
" />
<path d="M18.9371 27.7483
L18.9976 27.6274
" />
</g><g transform="rotate(-90.000000 36.4640 6.5335)">
<text x="36.4640" y="7.0335"
transform="scale(-1 1) translate(-72.928000 0)"
textLength="2.9643" font-size="1.3333" lengthAdjust="spacingAndGlyphs"
text-anchor="middle" opacity="0">L11</text>
</g>
<g class="stroked-text"><desc>L11</desc>
<path d="M36.9188 5.8906
L36.9188 5.4145
" />
<path d="M36.9188 5.4145
L35.9188 5.4145
" />
<path d="M36.9188 6.7478
L36.9188 6.1764
" />
<path d="M36.9188 6.4621
L35.9188 6.4621
" />
<path d="M35.9188 6.4621
L36.0617 6.3668
" />
<path d="M36.0617 6.3668
L36.1569 6.2716
" />
<path d="M36.1569 6.2716
L36.2045 6.1764
" />
<path d="M36.9188 7.7002
L36.9188 7.1287
" />
<path d="M36.9188 7.4145
L35.9188 7.4145
" />
<path d="M35.9188 7.4145
L36.0617 7.3192
" />
<path d="M36.0617 7.3192
L36.1569 7.2240
" />
<path d="M36.1569 7.2240
L36.2045 7.1287
" />
</g><g transform="rotate(-90.000000 39.5250 9.1250)">
<text x="39.5250" y="9.6250"
transform="scale(-1 1) translate(-79.050000 0)"
textLength="1.9643" font-size="1.3333" lengthAdjust="spacingAndGlyphs"
text-anchor="middle" opacity="0">J3</text>
</g>
<g class="stroked-text"><desc>J3</desc>
<path d="M38.9798 8.7917
L39.6941 8.7917
" />
<path d="M39.6941 8.7917
L39.8370 8.7440
" />
<path d="M39.8370 8.7440
L39.9322 8.6488
" />
<path d="M39.9322 8.6488
L39.9798 8.5060
" />
<path d="M39.9798 8.5060
L39.9798 8.4107
" />
<path d="M38.9798 9.1726
L38.9798 9.7917
" />
<path d="M38.9798 9.7917
L39.3608 9.4583
" />
<path d="M39.3608 9.4583
L39.3608 9.6012
" />
<path d="M39.3608 9.6012
L39.4084 9.6964
" />
<path d="M39.4084 9.6964
L39.4560 9.7440
" />
<path d="M39.4560 9.7440
L39.5512 9.7917
" />
<path d="M39.5512 9.7917
L39.7893 9.7917
" />
<path d="M39.7893 9.7917
L39.8846 9.7440
" />
<path d="M39.8846 9.7440
L39.9322 9.6964
" />
<path d="M39.9322 9.6964
L39.9798 9.6012
" />
<path d="M39.9798 9.6012
L39.9798 9.3155
" />
<path d="M39.9798 9.3155
L39.9322 9.2202
" />
<path d="M39.9322 9.2202
L39.8846 9.1726
" />
</g><g transform="rotate(-90.000000 26.4290 16.0245)">
<text x="26.4290" y="16.5245"
transform="scale(-1 1) translate(-52.858000 0)"
textLength="2.0119" font-size="1.3333" lengthAdjust="spacingAndGlyphs"
text-anchor="middle" opacity="0">L7</text>
</g>
<g class="stroked-text"><desc>L7</desc>
<path d="M26.8838 15.8578
L26.8838 15.3816
" />
<path d="M26.8838 15.3816
L25.8838 15.3816
" />
<path d="M25.8838 16.0959
L25.8838 16.7626
" />
<path d="M25.8838 16.7626
L26.8838 16.3340
" />
</g><g transform="rotate(-90.000000 39.1750 20.7750)">
<text x="39.1750" y="21.2750"
transform="scale(-1 1) translate(-78.350000 0)"
textLength="1.9643" font-size="1.3333" lengthAdjust="spacingAndGlyphs"
text-anchor="middle" opacity="0">J4</text>
</g>
<g class="stroked-text"><desc>J4</desc>
<path d="M38.6298 20.4417
L39.3441 20.4417
" />
<path d="M39.3441 20.4417
L39.4870 20.3940
" />
<path d="M39.4870 20.3940
L39.5822 20.2988
" />
<path d="M39.5822 20.2988
L39.6298 20.1560
" />
<path d="M39.6298 20.1560
L39.6298 20.0607
" />
<path d="M38.9632 21.3464
L39.6298 21.3464
" />
<path d="M38.5822 21.1083
L39.2965 20.8702
" />
<path d="M39.2965 20.8702
L39.2965 21.4893
" />
</g><text x="16.7250" y="1.4988"
transform="scale(-1 1) translate(-33.450000 0)"
textLength="2.0595" font-size="1.3333" lengthAdjust="spacingAndGlyphs"
text-anchor="middle" opacity="0">Y2</text>
<g class="stroked-text"><desc>Y2</desc>
<path d="M17.2012 0.9774
L17.2012 1.4536
" />
<path d="M17.5345 0.4536
L17.2012 0.9774
" />
<path d="M17.2012 0.9774
L16.8679 0.4536
" />
<path d="M16.5821 0.5489
L16.5345 0.5012
" />
<path d="M16.5345 0.5012
L16.4393 0.4536
" />
<path d="M16.4393 0.4536
L16.2012 0.4536
" />
<path d="M16.2012 0.4536
L16.1060 0.5012
" />
<path d="M16.1060 0.5012
L16.0583 0.5489
" />
<path d="M16.0583 0.5489
L16.0107 0.6441
" />
<path d="M16.0107 0.6441
L16.0107 0.7393
" />
<path d="M16.0107 0.7393
L16.0583 0.8822
" />
<path d="M16.0583 0.8822
L16.6298 1.4536
" />
<path d="M16.6298 1.4536
L16.0107 1.4536
" />
</g></g>
<g style="fill:#E8B2A7; fill-opacity:0.0; 
stroke:#E8B2A7; stroke-width:0.1200; stroke-opacity:1; 
stroke-linecap:round; stroke-linejoin:round;">
<path d="M28.2452 4.2920
L28.5264 4.2920
" />
<path d="M28.2452 5.3120
L28.5264 5.3120
" />
<path d="M31.3564 11.7850
L31.6376 11.7850
" />
<path d="M31.3564 12.8050
L31.6376 12.8050
" />
<path d="M37.4040 23.9058
L37.4040 23.3832
" />
<path d="M38.8240 23.9058
L38.8240 23.3832
" />
<path d="M34.4140 20.7420
L34.4140 19.3420
" />
<path d="M36.7340 19.3420
L36.7340 21.2420
" />
<path d="M28.8450 12.9164
L28.8450 13.1976
" />
<path d="M27.8250 12.9164
L27.8250 13.1976
" />
<path d="M18.6850 15.5834
L18.6850 15.8646
" />
<path d="M17.6650 15.5834
L17.6650 15.8646
" />
<path d="M8.8605 27.9398
L8.3379 27.9398
" />
<path d="M8.8605 26.4698
L8.3379 26.4698
" />
<path d="M24.0690 22.0008
L24.0690 21.4782
" />
<path d="M25.4890 22.0008
L25.4890 21.4782
" />
<path d="M2.1400 5.2682
L2.1400 2.8082
" />
<path d="M3.6100 5.2682
L2.1400 5.2682
" />
<path d="M3.6100 2.8082
L3.6100 5.2682
" />
<path d="M7.3945 6.8507
L7.3945 7.3253
" />
<path d="M6.3495 6.8507
L6.3495 7.3253
" />
<path d="M8.8243 21.0725
L8.3497 21.0725
" />
<path d="M8.8243 20.0275
L8.3497 20.0275
" />
<path d="M6.1400 5.2682
L6.1400 2.8082
" />
<path d="M7.6100 5.2682
L6.1400 5.2682
" />
<path d="M7.6100 2.8082
L7.6100 5.2682
" />
<path d="M17.9830 7.3990
L17.5080 7.3990
" />
<path d="M17.9830 7.8740
L17.9830 7.3990
" />
<path d="M11.7630 7.8740
L11.7630 7.3990
" />
<path d="M17.9830 12.1440
L17.9830 12.6190
" />
<path d="M11.7630 12.1440
L11.7630 12.6190
" />
<path d="M17.9830 12.6190
L17.5080 12.6190
" />
<path d="M11.7630 12.6190
L12.2380 12.6190
" />
<path d="M21.5004 6.3142
L21.5004 6.0330
" />
<path d="M22.5204 6.3142
L22.5204 6.0330
" />
<path d="M29.6928 16.4340
L29.1702 16.4340
" />
<path d="M29.6928 15.0140
L29.1702 15.0140
" />
<path d="M37.6040 11.5596
L37.6040 11.2784
" />
<path d="M38.6240 11.5596
L38.6240 11.2784
" />
</g>
<g style="fill:#E8B2A7; fill-opacity:0.0; 
stroke:#E8B2A7; stroke-width:0.1500; stroke-opacity:1; 
stroke-linecap:round; stroke-linejoin:round;">
<path d="M15.1650 17.4630
L15.1650 15.7630
" />
<path d="M15.1650 15.7630
L13.5150 15.7630
" />
<path d="M13.5150 17.4630
L15.1650 17.4630
" />
<path d="M12.5150 15.7630
L10.8650 15.7630
" />
<path d="M10.8650 17.4630
L12.5150 17.4630
" />
<path d="M10.8650 15.7630
L10.8650 17.4630
" />
</g>
<g style="fill:#E8B2A7; fill-opacity:0.0; 
stroke:#E8B2A7; stroke-width:0.1200; stroke-opacity:1; 
stroke-linecap:round; stroke-linejoin:round;">
<path d="M8.7603 24.8825
L8.2857 24.8825
" />
<path d="M8.7603 23.8375
L8.2857 23.8375
" />
<path d="M24.2782 11.5810
L24.4770 11.7798
" />
<path d="M23.5570 12.3022
L23.7558 12.5010
" />
<path d="M29.8198 24.5620
L29.2972 24.5620
" />
<path d="M29.8198 23.1420
L29.2972 23.1420
" />
<path d="M9.1043 16.3320
L8.5817 16.3320
" />
<path d="M9.1043 14.8620
L8.5817 14.8620
" />
<path d="M22.5930 15.6507
L22.5930 16.1733
" />
<path d="M21.1230 15.6507
L21.1230 16.1733
" />
<path d="M20.4630 15.5704
L20.4630 15.8516
" />
<path d="M19.4430 15.5704
L19.4430 15.8516
" />
<path d="M32.0954 17.1791
L32.0954 16.6565
" />
<path d="M33.5154 17.1791
L33.5154 16.6565
" />
<path d="M3.5760 28.0600
L5.0260 28.0600
" />
<path d="M5.0260 28.0600
L5.0260 26.2600
" />
<path d="M0.7560 26.7900
L0.7560 18.3600
" />
<path d="M5.0260 26.2600
L6.0160 26.2600
" />
<path d="M3.5760 17.0900
L5.0260 17.0900
" />
<path d="M5.0260 17.0900
L5.0260 18.8900
" />
<path d="M3.4067 6.7867
L3.4067 7.2613
" />
<path d="M2.3617 6.7867
L2.3617 7.2613
" />
<path d="M31.3564 13.4360
L31.6376 13.4360
" />
<path d="M31.3564 14.4560
L31.6376 14.4560
" />
<path d="M4.1400 5.2682
L4.1400 2.8082
" />
<path d="M5.6100 5.2682
L4.1400 5.2682
" />
<path d="M5.6100 2.8082
L5.6100 5.2682
" />
<path d="M8.8243 22.9775
L8.3497 22.9775
" />
<path d="M8.8243 21.9325
L8.3497 21.9325
" />
<path d="M20.9678 8.0205
L20.9678 8.5431
" />
<path d="M19.5478 8.0205
L19.5478 8.5431
" />
</g>
<g style="fill:#E8B2A7; fill-opacity:0.0; 
stroke:#E8B2A7; stroke-width:0.1500; stroke-opacity:1; 
stroke-linecap:round; stroke-linejoin:round;">
<path d="M18.3020 28.0430
L11.1900 28.0430
" />
<path d="M18.3020 24.9950
L18.3020 28.0430
" />
<path d="M18.3020 21.9470
L18.3020 21.1850
" />
<path d="M18.3020 21.1850
L16.7780 18.8990
" />
<path d="M16.7526 18.9244
L12.6886 18.9244
" />
<path d="M12.7140 18.8990
L11.1900 21.1850
" />
<path d="M11.1900 28.0430
L11.1900 24.9950
" />
<path d="M11.1900 21.1850
L11.1900 21.9470
" />
</g>
<g style="fill:#E8B2A7; fill-opacity:0.0; 
stroke:#E8B2A7; stroke-width:0.1000; stroke-opacity:1; 
stroke-linecap:round; stroke-linejoin:round;">
<path d="M29.0930 19.5340
L29.0930 17.5340
" />
<path d="M27.0930 17.5340
L27.0930 19.5340
" />
</g>
<g style="fill:#E8B2A7; fill-opacity:0.0; 
stroke:#E8B2A7; stroke-width:0.2500; stroke-opacity:1; 
stroke-linecap:round; stroke-linejoin:round;">
<circle cx="29.4930" cy="19.9090" r="0.1250" /> 
</g>
<g style="fill:#E8B2A7; fill-opacity:0.0; 
stroke:#E8B2A7; stroke-width:0.1200; stroke-opacity:1; 
stroke-linecap:round; stroke-linejoin:round;">
<path d="M24.1446 19.4090
L23.8634 19.4090
" />
<path d="M24.1446 18.3890
L23.8634 18.3890
" />
<path d="M8.6506 12.0430
L8.3694 12.0430
" />
<path d="M8.6506 11.0230
L8.3694 11.0230
" />
<path d="M33.5426 24.3620
L33.2614 24.3620
" />
<path d="M33.5426 23.3420
L33.2614 23.3420
" />
<path d="M27.1940 24.4864
L27.1940 24.7676
" />
<path d="M26.1740 24.4864
L26.1740 24.7676
" />
<path d="M18.7354 19.6429
L18.7354 19.1203
" />
<path d="M20.2054 19.6429
L20.2054 19.1203
" />
<path d="M31.7374 20.5480
L32.0186 20.5480
" />
<path d="M31.7374 21.5680
L32.0186 21.5680
" />
<path d="M38.8240 6.2722
L38.8240 6.7948
" />
<path d="M37.4040 6.2722
L37.4040 6.7948
" />
<path d="M5.3625 6.7877
L5.3625 7.2623
" />
<path d="M4.3175 6.7877
L4.3175 7.2623
" />
<path d="M9.0165 8.6593
L9.0165 8.1847
" />
<path d="M10.0615 8.6593
L10.0615 8.1847
" />
<path d="M16.7800 15.8374
L16.7800 16.1186
" />
<path d="M15.7600 15.8374
L15.7600 16.1186
" />
<path d="M38.6240 18.2634
L38.6240 18.5446
" />
<path d="M37.6040 18.2634
L37.6040 18.5446
" />
<path d="M50.0750 11.2000
L40.2750 11.2000
" />
<path d="M50.0750 3.9500
L40.2750 3.9500
" />
<path d="M40.2750 11.2000
L40.2750 3.9500
" />
<path d="M39.8750 7.0250
L39.8750 8.1250
" />
<path d="M24.0690 16.2858
L24.0690 15.7632
" />
<path d="M25.4890 16.2858
L25.4890 15.7632
" />
<path d="M8.6506 13.8210
L8.3694 13.8210
" />
<path d="M8.6506 12.8010
L8.3694 12.8010
" />
<path d="M34.0480 13.7564
L34.0480 13.4752
" />
<path d="M35.0680 13.7564
L35.0680 13.4752
" />
<path d="M38.2450 16.1370
L36.8450 16.1370
" />
<path d="M36.8450 13.8170
L38.7450 13.8170
" />
</g>
<g style="fill:#E8B2A7; fill-opacity:0.0; 
stroke:#E8B2A7; stroke-width:0.1270; stroke-opacity:1; 
stroke-linecap:round; stroke-linejoin:round;">
<path d="M30.2350 10.5110
L30.2350 6.7110
" />
<path d="M26.4350 6.7110
L26.4350 10.5110
" />
</g>
<g style="fill:#E8B2A7; fill-opacity:0.0; 
stroke:#E8B2A7; stroke-width:0.2400; stroke-opacity:1; 
stroke-linecap:round; stroke-linejoin:round;">
<circle cx="30.4110" cy="10.8950" r="0.1200" /> 
</g>
<g style="fill:#E8B2A7; fill-opacity:0.0; 
stroke:#E8B2A7; stroke-width:0.1200; stroke-opacity:1; 
stroke-linecap:round; stroke-linejoin:round;">
<path d="M8.8243 19.2945
L8.3497 19.2945
" />
<path d="M8.8243 18.2495
L8.3497 18.2495
" />
<path d="M50.0750 26.2000
L40.2750 26.2000
" />
<path d="M50.0750 18.9500
L40.2750 18.9500
" />
<path d="M40.2750 26.2000
L40.2750 18.9500
" />
<path d="M39.8750 22.0250
L39.8750 23.1250
" />
<path d="M20.2336 4.1098
L19.8336 4.1098
" />
<path d="M19.8336 4.1098
L19.8336 3.3098
" />
<path d="M18.0336 5.5098
L18.0336 5.7498
" />
<path d="M18.0336 1.9098
L16.2336 1.9098
" />
<path d="M16.2336 5.5098
L18.0336 5.5098
" />
<path d="M14.4336 3.3098
L14.4336 4.1098
" />
<path d="M23.3684 8.4830
L23.6496 8.4830
" />
<path d="M23.3684 9.5030
L23.6496 9.5030
" />
<path d="M20.2054 22.8897
L20.2054 23.4123
" />
<path d="M18.7354 22.8897
L18.7354 23.4123
" />
<path d="M20.4114 12.3531
L20.4114 11.8305
" />
<path d="M21.8314 12.3531
L21.8314 11.8305
" />
<path d="M25.4658 6.2623
L25.0963 6.6318
" />
<path d="M24.4617 5.2582
L24.0922 5.6277
" />
<path d="M34.1496 16.9060
L34.1496 16.6248
" />
<path d="M35.1696 16.9060
L35.1696 16.6248
" />
<path d="M30.8895 18.2177
L30.8895 18.6923
" />
<path d="M29.8445 18.2177
L29.8445 18.6923
" />
<g >
</g>
<g >
</g>
<g >
</g>
<g >
</g>
<g >
</g>
<g >
</g>
<g >
</g>
<g >
</g>
<g >
</g>
<g >
</g>
<g >
</g>
<g >
</g>
<g >
</g>
<g >
</g>
<g >
</g>
<g >
</g>
<g >
</g>
<g >
</g>
<g >
</g>
<g >
</g>
<g >
</g>
<g >
</g>
<g >
</g>
<g >
</g>
<g >
</g>
<g >
</g>
<g >
</g>
<g >
</g>
<g >
</g>
<g >
</g>
<g >
</g>
<g >
</g>
<g >
</g>
<g >
</g>
<g >
</g>
<g >
</g>
<g >
</g>
<g >
</g>
<g >
</g>
<g >
</g>
<g >
</g>
<g >
</g>
<g >
</g>
<g >
</g>
<g >
</g>
<g >
</g>
<g >
</g>
<g >
</g>
<g >
</g>
<g >
</g>
<g >
</g>
<g >
</g>
<g >
</g>
<g >
</g>
<g >
</g>
<g >
</g>
<g >
</g>
<g >
</g>
<g >
</g>
<g >
</g>
<g >
</g>
<g >
</g>
<g >
</g>
<g >
</g>
<g >
</g>
<g >
</g>
<g >
</g>
<g >
</g>
<g >
</g>
<g >
</g>
<g >
</g>
<g >
</g>
<g >
</g>
</g>
<g style="fill:#000000; fill-opacity:0.0; 
stroke:#000000; stroke-width:0.1200; stroke-opacity:1; 
stroke-linecap:round; stroke-linejoin:round;">
</g>
<g style="fill:#D0D2CD; fill-opacity:0.0; 
stroke:#D0D2CD; stroke-width:0.1200; stroke-opacity:1; 
stroke-linecap:round; stroke-linejoin:round;">
</g>
<g style="fill:#D0D2CD; fill-opacity:0.0; 
stroke:#D0D2CD; stroke-width:0.1500; stroke-opacity:1; 
stroke-linecap:round; stroke-linejoin:round;">
<path d="M0.0750 0.0750
L0.0750 30.0750
" />
<path d="M50.0750 5.1000
L50.0750 0.0750
" />
<path d="M50.0750 25.0500
L50.0750 30.0750
" />
<path d="M0.0750 30.0750
L50.0750 30.0750
" />
<path d="M50.0750 20.1000
L50.0750 10.0500
" />
<path d="M50.0750 0.0750
L0.0750 0.0750
" />
</g>
<g style="fill:#D0D2CD; fill-opacity:0.0; 
stroke:#D0D2CD; stroke-width:0.1000; stroke-opacity:1; 
stroke-linecap:round; stroke-linejoin:round;">
<path d="M50.0750 10.0500
L43.6250 10.0500
" />
<path d="M43.6250 10.0500
L43.6250 5.1000
" />
<path d="M43.6250 5.1000
L50.0750 5.1000
" />
<path d="M50.0750 25.0500
L43.6250 25.0500
" />
<path d="M43.6250 25.0500
L43.6250 20.1000
" />
<path d="M43.6250 20.1000
L50.0750 20.1000
" />
<g >
</g>
<g >
</g>
<g >
</g>
<g >
</g>
<g >
</g>
<g >
</g>
<g >
</g>
<g >
</g>
<g >
</g>
<g >
</g>
<g >
</g>
<g >
</g>
<g >
</g>
<g >
</g>
<g >
</g>
<g >
</g>
<g >
</g>
<g >
</g>
<g >
</g>
<g >
</g>
<g >
</g>
<g >
</g>
<g >
</g>
<g >
</g>
<g >
</g>
<g >
</g>
<g >
</g>
<g >
</g>
<g >
</g>
<g >
</g>
<g >
</g>
<g >
</g>
<g >
</g>
<g >
</g>
<g >
</g>
<g >
</g>
<g >
</g>
<g >
</g>
<g >
</g>
<g >
</g>
<g >
</g>
<g >
</g>
<g >
</g>
<g >
</g>
<g >
</g>
<g >
</g>
<g >
</g>
<g >
</g>
<g >
</g>
<g >
</g>
<g >
</g>
<g >
</g>
<g >
</g>
<g >
</g>
<g >
</g>
<g >
</g>
<g >
</g>
<g >
</g>
<g >
</g>
<g >
</g>
<g >
</g>
<g >
</g>
<g >
</g>
<g >
</g>
<g >
</g>
<g >
</g>
<g >
</g>
<g >
</g>
<g >
</g>
<g >
</g>
<g >
</g>
<g >
</g>
<g >
</g>
</g> 
</svg>
