<?xml version="1.0" standalone="no"?>
 <!DOCTYPE svg PUBLIC "-//W3C//DTD SVG 1.1//EN" 
 "http://www.w3.org/Graphics/SVG/1.1/DTD/svg11.dtd"> 
<svg
  xmlns:svg="http://www.w3.org/2000/svg"
  xmlns="http://www.w3.org/2000/svg"
  xmlns:xlink="http://www.w3.org/1999/xlink"
  version="1.1"
  width="50.1396mm" height="30.1498mm" viewBox="0.0000 0.0000 50.1396 30.1498">
<title>SVG Image created as TFSIK01-F_Silkscreen.svg date 2023/08/04 18:29:59 </title>
  <desc>Image generated by PCBNEW </desc>
<g style="fill:#000000; fill-opacity:1.0000;stroke:#000000; stroke-opacity:1.0000;
stroke-linecap:round; stroke-linejoin:round;"
 transform="translate(0 0) scale(1 1)">
</g>
<g style="fill:#000000; fill-opacity:0.0; 
stroke:#000000; stroke-width:0.0000; stroke-opacity:1; 
stroke-linecap:round; stroke-linejoin:round;">
</g>
<g style="fill:#F2EDA1; fill-opacity:0.0; 
stroke:#F2EDA1; stroke-width:0.0000; stroke-opacity:1; 
stroke-linecap:round; stroke-linejoin:round;">
</g>
<g style="fill:#F2EDA1; fill-opacity:0.0; 
stroke:#F2EDA1; stroke-width:0.1500; stroke-opacity:1; 
stroke-linecap:round; stroke-linejoin:round;">
<path d="M6.3820 26.4040
L6.3820 18.6540
" />
<path d="M5.3820 27.4040 A1.0000 1.0000 0.0 0 0 6.3820 26.4040" />
<path d="M0.8820 17.6540
L5.3820 17.6540
" />
<path d="M6.3820 18.6540 A1.0000 1.0000 0.0 0 0 5.3820 17.6540" />
<path d="M0.8820 27.4040
L5.3820 27.4040
" />
</g>
<g style="fill:#F2EDA1; fill-opacity:0.0; 
stroke:#F2EDA1; stroke-width:0.2000; stroke-opacity:1; 
stroke-linecap:round; stroke-linejoin:round;">
<path d="M9.1320 7.1540
L15.1320 7.1540
" />
</g>
<g style="fill:#F2EDA1; fill-opacity:0.0; 
stroke:#F2EDA1; stroke-width:0.0800; stroke-opacity:1; 
stroke-linecap:round; stroke-linejoin:round;">
<path d="M9.1320 7.1540
L5.8820 9.9040
" />
</g>
<g style="fill:#F2EDA1; fill-opacity:0.0; 
stroke:#F2EDA1; stroke-width:0.3000; stroke-opacity:1; 
stroke-linecap:round; stroke-linejoin:round;">
<g transform="rotate(-90.000000 41.6700 7.5750)">
<text x="41.6700" y="8.3250"
textLength="6.0286" font-size="2.0000" lengthAdjust="spacingAndGlyphs"
text-anchor="middle" opacity="0">ANT1</text>
</g>
<g class="stroked-text"><desc>ANT1</desc>
<path d="M41.9198 10.0036
L41.9198 9.2893
" />
<path d="M42.3483 10.1464
L40.8483 9.6464
" />
<path d="M40.8483 9.6464
L42.3483 9.1464
" />
<path d="M42.3483 8.6464
L40.8483 8.6464
" />
<path d="M40.8483 8.6464
L42.3483 7.7893
" />
<path d="M42.3483 7.7893
L40.8483 7.7893
" />
<path d="M40.8483 7.2893
L40.8483 6.4321
" />
<path d="M42.3483 6.8607
L40.8483 6.8607
" />
<path d="M42.3483 5.1464
L42.3483 6.0036
" />
<path d="M42.3483 5.5750
L40.8483 5.5750
" />
<path d="M40.8483 5.5750
L41.0626 5.7179
" />
<path d="M41.0626 5.7179
L41.2055 5.8607
" />
<path d="M41.2055 5.8607
L41.2769 6.0036
" />
</g></g>
<g style="fill:#F2EDA1; fill-opacity:0.0; 
stroke:#F2EDA1; stroke-width:0.1000; stroke-opacity:1; 
stroke-linecap:round; stroke-linejoin:round;">
<text x="10.3820" y="11.9040"
textLength="3.1476" font-size="1.3333" lengthAdjust="spacingAndGlyphs"
text-anchor="middle" opacity="0">+5V</text>
<g class="stroked-text"><desc>+5V</desc>
<path d="M9.0963 11.4805
L9.8582 11.4805
" />
<path d="M9.4772 11.8614
L9.4772 11.0995
" />
<path d="M10.8106 10.8614
L10.3344 10.8614
" />
<path d="M10.3344 10.8614
L10.2868 11.3376
" />
<path d="M10.2868 11.3376
L10.3344 11.2900
" />
<path d="M10.3344 11.2900
L10.4296 11.2424
" />
<path d="M10.4296 11.2424
L10.6677 11.2424
" />
<path d="M10.6677 11.2424
L10.7630 11.2900
" />
<path d="M10.7630 11.2900
L10.8106 11.3376
" />
<path d="M10.8106 11.3376
L10.8582 11.4328
" />
<path d="M10.8582 11.4328
L10.8582 11.6709
" />
<path d="M10.8582 11.6709
L10.8106 11.7662
" />
<path d="M10.8106 11.7662
L10.7630 11.8138
" />
<path d="M10.7630 11.8138
L10.6677 11.8614
" />
<path d="M10.6677 11.8614
L10.4296 11.8614
" />
<path d="M10.4296 11.8614
L10.3344 11.8138
" />
<path d="M10.3344 11.8138
L10.2868 11.7662
" />
<path d="M11.1439 10.8614
L11.4772 11.8614
" />
<path d="M11.4772 11.8614
L11.8106 10.8614
" />
</g><text x="12.1320" y="10.4040"
textLength="3.0524" font-size="1.3333" lengthAdjust="spacingAndGlyphs"
text-anchor="start" opacity="0">C2D</text>
<g class="stroked-text"><desc>C2D</desc>
<path d="M13.0073 10.2662
L12.9597 10.3138
" />
<path d="M12.9597 10.3138
L12.8168 10.3614
" />
<path d="M12.8168 10.3614
L12.7216 10.3614
" />
<path d="M12.7216 10.3614
L12.5787 10.3138
" />
<path d="M12.5787 10.3138
L12.4835 10.2186
" />
<path d="M12.4835 10.2186
L12.4359 10.1233
" />
<path d="M12.4359 10.1233
L12.3883 9.9328
" />
<path d="M12.3883 9.9328
L12.3883 9.7900
" />
<path d="M12.3883 9.7900
L12.4359 9.5995
" />
<path d="M12.4359 9.5995
L12.4835 9.5043
" />
<path d="M12.4835 9.5043
L12.5787 9.4090
" />
<path d="M12.5787 9.4090
L12.7216 9.3614
" />
<path d="M12.7216 9.3614
L12.8168 9.3614
" />
<path d="M12.8168 9.3614
L12.9597 9.4090
" />
<path d="M12.9597 9.4090
L13.0073 9.4567
" />
<path d="M13.3883 9.4567
L13.4359 9.4090
" />
<path d="M13.4359 9.4090
L13.5311 9.3614
" />
<path d="M13.5311 9.3614
L13.7692 9.3614
" />
<path d="M13.7692 9.3614
L13.8645 9.4090
" />
<path d="M13.8645 9.4090
L13.9121 9.4567
" />
<path d="M13.9121 9.4567
L13.9597 9.5519
" />
<path d="M13.9597 9.5519
L13.9597 9.6471
" />
<path d="M13.9597 9.6471
L13.9121 9.7900
" />
<path d="M13.9121 9.7900
L13.3406 10.3614
" />
<path d="M13.3406 10.3614
L13.9597 10.3614
" />
<path d="M14.3883 10.3614
L14.3883 9.3614
" />
<path d="M14.3883 9.3614
L14.6264 9.3614
" />
<path d="M14.6264 9.3614
L14.7692 9.4090
" />
<path d="M14.7692 9.4090
L14.8645 9.5043
" />
<path d="M14.8645 9.5043
L14.9121 9.5995
" />
<path d="M14.9121 9.5995
L14.9597 9.7900
" />
<path d="M14.9597 9.7900
L14.9597 9.9328
" />
<path d="M14.9597 9.9328
L14.9121 10.1233
" />
<path d="M14.9121 10.1233
L14.8645 10.2186
" />
<path d="M14.8645 10.2186
L14.7692 10.3138
" />
<path d="M14.7692 10.3138
L14.6264 10.3614
" />
<path d="M14.6264 10.3614
L14.3883 10.3614
" />
</g></g>
<g style="fill:#F2EDA1; fill-opacity:0.0; 
stroke:#F2EDA1; stroke-width:0.3000; stroke-opacity:1; 
stroke-linecap:round; stroke-linejoin:round;">
<text x="30.2400" y="24.6020"
textLength="10.8143" font-size="2.0000" lengthAdjust="spacingAndGlyphs"
text-anchor="middle" opacity="0">TFSIK01A</text>
<g class="stroked-text"><desc>TFSIK01A</desc>
<path d="M25.2757 23.0303
L26.1329 23.0303
" />
<path d="M25.7043 24.5303
L25.7043 23.0303
" />
<path d="M27.1329 23.7446
L26.6329 23.7446
" />
<path d="M26.6329 24.5303
L26.6329 23.0303
" />
<path d="M26.6329 23.0303
L27.3471 23.0303
" />
<path d="M27.8471 24.4589
L28.0614 24.5303
" />
<path d="M28.0614 24.5303
L28.4186 24.5303
" />
<path d="M28.4186 24.5303
L28.5614 24.4589
" />
<path d="M28.5614 24.4589
L28.6329 24.3875
" />
<path d="M28.6329 24.3875
L28.7043 24.2446
" />
<path d="M28.7043 24.2446
L28.7043 24.1018
" />
<path d="M28.7043 24.1018
L28.6329 23.9589
" />
<path d="M28.6329 23.9589
L28.5614 23.8875
" />
<path d="M28.5614 23.8875
L28.4186 23.8160
" />
<path d="M28.4186 23.8160
L28.1329 23.7446
" />
<path d="M28.1329 23.7446
L27.9900 23.6732
" />
<path d="M27.9900 23.6732
L27.9186 23.6018
" />
<path d="M27.9186 23.6018
L27.8471 23.4589
" />
<path d="M27.8471 23.4589
L27.8471 23.3160
" />
<path d="M27.8471 23.3160
L27.9186 23.1732
" />
<path d="M27.9186 23.1732
L27.9900 23.1018
" />
<path d="M27.9900 23.1018
L28.1329 23.0303
" />
<path d="M28.1329 23.0303
L28.4900 23.0303
" />
<path d="M28.4900 23.0303
L28.7043 23.1018
" />
<path d="M29.3471 24.5303
L29.3471 23.0303
" />
<path d="M30.0614 24.5303
L30.0614 23.0303
" />
<path d="M30.9186 24.5303
L30.2757 23.6732
" />
<path d="M30.9186 23.0303
L30.0614 23.8875
" />
<path d="M31.8471 23.0303
L31.9900 23.0303
" />
<path d="M31.9900 23.0303
L32.1329 23.1018
" />
<path d="M32.1329 23.1018
L32.2043 23.1732
" />
<path d="M32.2043 23.1732
L32.2757 23.3160
" />
<path d="M32.2757 23.3160
L32.3471 23.6018
" />
<path d="M32.3471 23.6018
L32.3471 23.9589
" />
<path d="M32.3471 23.9589
L32.2757 24.2446
" />
<path d="M32.2757 24.2446
L32.2043 24.3875
" />
<path d="M32.2043 24.3875
L32.1329 24.4589
" />
<path d="M32.1329 24.4589
L31.9900 24.5303
" />
<path d="M31.9900 24.5303
L31.8471 24.5303
" />
<path d="M31.8471 24.5303
L31.7043 24.4589
" />
<path d="M31.7043 24.4589
L31.6329 24.3875
" />
<path d="M31.6329 24.3875
L31.5614 24.2446
" />
<path d="M31.5614 24.2446
L31.4900 23.9589
" />
<path d="M31.4900 23.9589
L31.4900 23.6018
" />
<path d="M31.4900 23.6018
L31.5614 23.3160
" />
<path d="M31.5614 23.3160
L31.6329 23.1732
" />
<path d="M31.6329 23.1732
L31.7043 23.1018
" />
<path d="M31.7043 23.1018
L31.8471 23.0303
" />
<path d="M33.7757 24.5303
L32.9186 24.5303
" />
<path d="M33.3471 24.5303
L33.3471 23.0303
" />
<path d="M33.3471 23.0303
L33.2043 23.2446
" />
<path d="M33.2043 23.2446
L33.0614 23.3875
" />
<path d="M33.0614 23.3875
L32.9186 23.4589
" />
<path d="M34.3471 24.1018
L35.0614 24.1018
" />
<path d="M34.2043 24.5303
L34.7043 23.0303
" />
<path d="M34.7043 23.0303
L35.2043 24.5303
" />
</g></g>
<g style="fill:#F2EDA1; fill-opacity:0.0; 
stroke:#F2EDA1; stroke-width:0.1000; stroke-opacity:1; 
stroke-linecap:round; stroke-linejoin:round;">
<text x="8.1320" y="10.4040"
textLength="3.8143" font-size="1.3333" lengthAdjust="spacingAndGlyphs"
text-anchor="start" opacity="0">#RST</text>
<g class="stroked-text"><desc>#RST</desc>
<path d="M8.3883 9.6948
L9.1025 9.6948
" />
<path d="M8.6740 9.2662
L8.3883 10.5519
" />
<path d="M9.0073 10.1233
L8.2930 10.1233
" />
<path d="M8.7216 10.5519
L9.0073 9.2662
" />
<path d="M10.0073 10.3614
L9.6740 9.8852
" />
<path d="M9.4359 10.3614
L9.4359 9.3614
" />
<path d="M9.4359 9.3614
L9.8168 9.3614
" />
<path d="M9.8168 9.3614
L9.9121 9.4090
" />
<path d="M9.9121 9.4090
L9.9597 9.4567
" />
<path d="M9.9597 9.4567
L10.0073 9.5519
" />
<path d="M10.0073 9.5519
L10.0073 9.6948
" />
<path d="M10.0073 9.6948
L9.9597 9.7900
" />
<path d="M9.9597 9.7900
L9.9121 9.8376
" />
<path d="M9.9121 9.8376
L9.8168 9.8852
" />
<path d="M9.8168 9.8852
L9.4359 9.8852
" />
<path d="M10.3883 10.3138
L10.5311 10.3614
" />
<path d="M10.5311 10.3614
L10.7692 10.3614
" />
<path d="M10.7692 10.3614
L10.8645 10.3138
" />
<path d="M10.8645 10.3138
L10.9121 10.2662
" />
<path d="M10.9121 10.2662
L10.9597 10.1709
" />
<path d="M10.9597 10.1709
L10.9597 10.0757
" />
<path d="M10.9597 10.0757
L10.9121 9.9805
" />
<path d="M10.9121 9.9805
L10.8645 9.9328
" />
<path d="M10.8645 9.9328
L10.7692 9.8852
" />
<path d="M10.7692 9.8852
L10.5787 9.8376
" />
<path d="M10.5787 9.8376
L10.4835 9.7900
" />
<path d="M10.4835 9.7900
L10.4359 9.7424
" />
<path d="M10.4359 9.7424
L10.3883 9.6471
" />
<path d="M10.3883 9.6471
L10.3883 9.5519
" />
<path d="M10.3883 9.5519
L10.4359 9.4567
" />
<path d="M10.4359 9.4567
L10.4835 9.4090
" />
<path d="M10.4835 9.4090
L10.5787 9.3614
" />
<path d="M10.5787 9.3614
L10.8168 9.3614
" />
<path d="M10.8168 9.3614
L10.9597 9.4090
" />
<path d="M11.2454 9.3614
L11.8168 9.3614
" />
<path d="M11.5311 10.3614
L11.5311 9.3614
" />
</g><text x="8.8820" y="8.9040"
textLength="3.1476" font-size="1.3333" lengthAdjust="spacingAndGlyphs"
text-anchor="start" opacity="0">GND</text>
<g class="stroked-text"><desc>GND</desc>
<path d="M9.7097 7.9090
L9.6145 7.8614
" />
<path d="M9.6145 7.8614
L9.4716 7.8614
" />
<path d="M9.4716 7.8614
L9.3287 7.9090
" />
<path d="M9.3287 7.9090
L9.2335 8.0043
" />
<path d="M9.2335 8.0043
L9.1859 8.0995
" />
<path d="M9.1859 8.0995
L9.1383 8.2900
" />
<path d="M9.1383 8.2900
L9.1383 8.4328
" />
<path d="M9.1383 8.4328
L9.1859 8.6233
" />
<path d="M9.1859 8.6233
L9.2335 8.7186
" />
<path d="M9.2335 8.7186
L9.3287 8.8138
" />
<path d="M9.3287 8.8138
L9.4716 8.8614
" />
<path d="M9.4716 8.8614
L9.5668 8.8614
" />
<path d="M9.5668 8.8614
L9.7097 8.8138
" />
<path d="M9.7097 8.8138
L9.7573 8.7662
" />
<path d="M9.7573 8.7662
L9.7573 8.4328
" />
<path d="M9.7573 8.4328
L9.5668 8.4328
" />
<path d="M10.1859 8.8614
L10.1859 7.8614
" />
<path d="M10.1859 7.8614
L10.7573 8.8614
" />
<path d="M10.7573 8.8614
L10.7573 7.8614
" />
<path d="M11.2335 8.8614
L11.2335 7.8614
" />
<path d="M11.2335 7.8614
L11.4716 7.8614
" />
<path d="M11.4716 7.8614
L11.6145 7.9090
" />
<path d="M11.6145 7.9090
L11.7097 8.0043
" />
<path d="M11.7097 8.0043
L11.7573 8.0995
" />
<path d="M11.7573 8.0995
L11.8049 8.2900
" />
<path d="M11.8049 8.2900
L11.8049 8.4328
" />
<path d="M11.8049 8.4328
L11.7573 8.6233
" />
<path d="M11.7573 8.6233
L11.7097 8.7186
" />
<path d="M11.7097 8.7186
L11.6145 8.8138
" />
<path d="M11.6145 8.8138
L11.4716 8.8614
" />
<path d="M11.4716 8.8614
L11.2335 8.8614
" />
</g><text x="12.1320" y="8.9040"
textLength="3.1476" font-size="1.3333" lengthAdjust="spacingAndGlyphs"
text-anchor="start" opacity="0">GND</text>
<g class="stroked-text"><desc>GND</desc>
<path d="M12.9597 7.9090
L12.8645 7.8614
" />
<path d="M12.8645 7.8614
L12.7216 7.8614
" />
<path d="M12.7216 7.8614
L12.5787 7.9090
" />
<path d="M12.5787 7.9090
L12.4835 8.0043
" />
<path d="M12.4835 8.0043
L12.4359 8.0995
" />
<path d="M12.4359 8.0995
L12.3883 8.2900
" />
<path d="M12.3883 8.2900
L12.3883 8.4328
" />
<path d="M12.3883 8.4328
L12.4359 8.6233
" />
<path d="M12.4359 8.6233
L12.4835 8.7186
" />
<path d="M12.4835 8.7186
L12.5787 8.8138
" />
<path d="M12.5787 8.8138
L12.7216 8.8614
" />
<path d="M12.7216 8.8614
L12.8168 8.8614
" />
<path d="M12.8168 8.8614
L12.9597 8.8138
" />
<path d="M12.9597 8.8138
L13.0073 8.7662
" />
<path d="M13.0073 8.7662
L13.0073 8.4328
" />
<path d="M13.0073 8.4328
L12.8168 8.4328
" />
<path d="M13.4359 8.8614
L13.4359 7.8614
" />
<path d="M13.4359 7.8614
L14.0073 8.8614
" />
<path d="M14.0073 8.8614
L14.0073 7.8614
" />
<path d="M14.4835 8.8614
L14.4835 7.8614
" />
<path d="M14.4835 7.8614
L14.7216 7.8614
" />
<path d="M14.7216 7.8614
L14.8645 7.9090
" />
<path d="M14.8645 7.9090
L14.9597 8.0043
" />
<path d="M14.9597 8.0043
L15.0073 8.0995
" />
<path d="M15.0073 8.0995
L15.0549 8.2900
" />
<path d="M15.0549 8.2900
L15.0549 8.4328
" />
<path d="M15.0549 8.4328
L15.0073 8.6233
" />
<path d="M15.0073 8.6233
L14.9597 8.7186
" />
<path d="M14.9597 8.7186
L14.8645 8.8138
" />
<path d="M14.8645 8.8138
L14.7216 8.8614
" />
<path d="M14.7216 8.8614
L14.4835 8.8614
" />
</g></g>
<g style="fill:#F2EDA1; fill-opacity:0.0; 
stroke:#F2EDA1; stroke-width:0.1500; stroke-opacity:1; 
stroke-linecap:round; stroke-linejoin:round;">
<text x="3.1320" y="20.1865"
textLength="2.7281" font-size="1.0667" lengthAdjust="spacingAndGlyphs"
text-anchor="start" opacity="0">GND</text>
<g class="stroked-text"><desc>GND</desc>
<path d="M3.8402 19.4859
L3.7640 19.4525
" />
<path d="M3.7640 19.4525
L3.6497 19.4525
" />
<path d="M3.6497 19.4525
L3.5354 19.4859
" />
<path d="M3.5354 19.4859
L3.4593 19.5525
" />
<path d="M3.4593 19.5525
L3.4212 19.6192
" />
<path d="M3.4212 19.6192
L3.3831 19.7525
" />
<path d="M3.3831 19.7525
L3.3831 19.8525
" />
<path d="M3.3831 19.8525
L3.4212 19.9859
" />
<path d="M3.4212 19.9859
L3.4593 20.0525
" />
<path d="M3.4593 20.0525
L3.5354 20.1192
" />
<path d="M3.5354 20.1192
L3.6497 20.1525
" />
<path d="M3.6497 20.1525
L3.7259 20.1525
" />
<path d="M3.7259 20.1525
L3.8402 20.1192
" />
<path d="M3.8402 20.1192
L3.8783 20.0859
" />
<path d="M3.8783 20.0859
L3.8783 19.8525
" />
<path d="M3.8783 19.8525
L3.7259 19.8525
" />
<path d="M4.2212 20.1525
L4.2212 19.4525
" />
<path d="M4.2212 19.4525
L4.6783 20.1525
" />
<path d="M4.6783 20.1525
L4.6783 19.4525
" />
<path d="M5.0593 20.1525
L5.0593 19.4525
" />
<path d="M5.0593 19.4525
L5.2497 19.4525
" />
<path d="M5.2497 19.4525
L5.3640 19.4859
" />
<path d="M5.3640 19.4859
L5.4402 19.5525
" />
<path d="M5.4402 19.5525
L5.4783 19.6192
" />
<path d="M5.4783 19.6192
L5.5164 19.7525
" />
<path d="M5.5164 19.7525
L5.5164 19.8525
" />
<path d="M5.5164 19.8525
L5.4783 19.9859
" />
<path d="M5.4783 19.9859
L5.4402 20.0525
" />
<path d="M5.4402 20.0525
L5.3640 20.1192
" />
<path d="M5.3640 20.1192
L5.2497 20.1525
" />
<path d="M5.2497 20.1525
L5.0593 20.1525
" />
</g><text x="3.1320" y="21.3135"
textLength="2.4614" font-size="1.0667" lengthAdjust="spacingAndGlyphs"
text-anchor="start" opacity="0">CTS</text>
<g class="stroked-text"><desc>CTS</desc>
<path d="M3.8783 21.2129
L3.8402 21.2462
" />
<path d="M3.8402 21.2462
L3.7259 21.2795
" />
<path d="M3.7259 21.2795
L3.6497 21.2795
" />
<path d="M3.6497 21.2795
L3.5354 21.2462
" />
<path d="M3.5354 21.2462
L3.4593 21.1795
" />
<path d="M3.4593 21.1795
L3.4212 21.1129
" />
<path d="M3.4212 21.1129
L3.3831 20.9795
" />
<path d="M3.3831 20.9795
L3.3831 20.8795
" />
<path d="M3.3831 20.8795
L3.4212 20.7462
" />
<path d="M3.4212 20.7462
L3.4593 20.6795
" />
<path d="M3.4593 20.6795
L3.5354 20.6129
" />
<path d="M3.5354 20.6129
L3.6497 20.5795
" />
<path d="M3.6497 20.5795
L3.7259 20.5795
" />
<path d="M3.7259 20.5795
L3.8402 20.6129
" />
<path d="M3.8402 20.6129
L3.8783 20.6462
" />
<path d="M4.1069 20.5795
L4.5640 20.5795
" />
<path d="M4.3354 21.2795
L4.3354 20.5795
" />
<path d="M4.7926 21.2462
L4.9069 21.2795
" />
<path d="M4.9069 21.2795
L5.0973 21.2795
" />
<path d="M5.0973 21.2795
L5.1735 21.2462
" />
<path d="M5.1735 21.2462
L5.2116 21.2129
" />
<path d="M5.2116 21.2129
L5.2497 21.1462
" />
<path d="M5.2497 21.1462
L5.2497 21.0795
" />
<path d="M5.2497 21.0795
L5.2116 21.0129
" />
<path d="M5.2116 21.0129
L5.1735 20.9795
" />
<path d="M5.1735 20.9795
L5.0973 20.9462
" />
<path d="M5.0973 20.9462
L4.9450 20.9129
" />
<path d="M4.9450 20.9129
L4.8688 20.8795
" />
<path d="M4.8688 20.8795
L4.8307 20.8462
" />
<path d="M4.8307 20.8462
L4.7926 20.7795
" />
<path d="M4.7926 20.7795
L4.7926 20.7129
" />
<path d="M4.7926 20.7129
L4.8307 20.6462
" />
<path d="M4.8307 20.6462
L4.8688 20.6129
" />
<path d="M4.8688 20.6129
L4.9450 20.5795
" />
<path d="M4.9450 20.5795
L5.1354 20.5795
" />
<path d="M5.1354 20.5795
L5.2497 20.6129
" />
</g><text x="3.1320" y="22.4405"
textLength="2.4614" font-size="1.0667" lengthAdjust="spacingAndGlyphs"
text-anchor="start" opacity="0">RTS</text>
<g class="stroked-text"><desc>RTS</desc>
<path d="M3.8783 22.4065
L3.6116 22.0732
" />
<path d="M3.4212 22.4065
L3.4212 21.7065
" />
<path d="M3.4212 21.7065
L3.7259 21.7065
" />
<path d="M3.7259 21.7065
L3.8021 21.7399
" />
<path d="M3.8021 21.7399
L3.8402 21.7732
" />
<path d="M3.8402 21.7732
L3.8783 21.8399
" />
<path d="M3.8783 21.8399
L3.8783 21.9399
" />
<path d="M3.8783 21.9399
L3.8402 22.0065
" />
<path d="M3.8402 22.0065
L3.8021 22.0399
" />
<path d="M3.8021 22.0399
L3.7259 22.0732
" />
<path d="M3.7259 22.0732
L3.4212 22.0732
" />
<path d="M4.1069 21.7065
L4.5640 21.7065
" />
<path d="M4.3354 22.4065
L4.3354 21.7065
" />
<path d="M4.7926 22.3732
L4.9069 22.4065
" />
<path d="M4.9069 22.4065
L5.0973 22.4065
" />
<path d="M5.0973 22.4065
L5.1735 22.3732
" />
<path d="M5.1735 22.3732
L5.2116 22.3399
" />
<path d="M5.2116 22.3399
L5.2497 22.2732
" />
<path d="M5.2497 22.2732
L5.2497 22.2065
" />
<path d="M5.2497 22.2065
L5.2116 22.1399
" />
<path d="M5.2116 22.1399
L5.1735 22.1065
" />
<path d="M5.1735 22.1065
L5.0973 22.0732
" />
<path d="M5.0973 22.0732
L4.9450 22.0399
" />
<path d="M4.9450 22.0399
L4.8688 22.0065
" />
<path d="M4.8688 22.0065
L4.8307 21.9732
" />
<path d="M4.8307 21.9732
L4.7926 21.9065
" />
<path d="M4.7926 21.9065
L4.7926 21.8399
" />
<path d="M4.7926 21.8399
L4.8307 21.7732
" />
<path d="M4.8307 21.7732
L4.8688 21.7399
" />
<path d="M4.8688 21.7399
L4.9450 21.7065
" />
<path d="M4.9450 21.7065
L5.1354 21.7065
" />
<path d="M5.1354 21.7065
L5.2497 21.7399
" />
</g><text x="3.1320" y="23.5675"
textLength="1.6614" font-size="1.0667" lengthAdjust="spacingAndGlyphs"
text-anchor="start" opacity="0">TX</text>
<g class="stroked-text"><desc>TX</desc>
<path d="M3.3069 22.8335
L3.7640 22.8335
" />
<path d="M3.5354 23.5335
L3.5354 22.8335
" />
<path d="M3.9545 22.8335
L4.4878 23.5335
" />
<path d="M4.4878 22.8335
L3.9545 23.5335
" />
</g><text x="3.1320" y="24.6945"
textLength="1.8519" font-size="1.0667" lengthAdjust="spacingAndGlyphs"
text-anchor="start" opacity="0">RX</text>
<g class="stroked-text"><desc>RX</desc>
<path d="M3.8783 24.6605
L3.6116 24.3272
" />
<path d="M3.4212 24.6605
L3.4212 23.9605
" />
<path d="M3.4212 23.9605
L3.7259 23.9605
" />
<path d="M3.7259 23.9605
L3.8021 23.9939
" />
<path d="M3.8021 23.9939
L3.8402 24.0272
" />
<path d="M3.8402 24.0272
L3.8783 24.0939
" />
<path d="M3.8783 24.0939
L3.8783 24.1939
" />
<path d="M3.8783 24.1939
L3.8402 24.2605
" />
<path d="M3.8402 24.2605
L3.8021 24.2939
" />
<path d="M3.8021 24.2939
L3.7259 24.3272
" />
<path d="M3.7259 24.3272
L3.4212 24.3272
" />
<path d="M4.1450 23.9605
L4.6783 24.6605
" />
<path d="M4.6783 23.9605
L4.1450 24.6605
" />
</g><text x="3.1320" y="25.8215"
textLength="2.7281" font-size="1.0667" lengthAdjust="spacingAndGlyphs"
text-anchor="start" opacity="0">+5V</text>
<g class="stroked-text"><desc>+5V</desc>
<path d="M3.4212 25.5209
L4.0307 25.5209
" />
<path d="M3.7259 25.7875
L3.7259 25.2542
" />
<path d="M4.7926 25.0875
L4.4116 25.0875
" />
<path d="M4.4116 25.0875
L4.3735 25.4209
" />
<path d="M4.3735 25.4209
L4.4116 25.3875
" />
<path d="M4.4116 25.3875
L4.4878 25.3542
" />
<path d="M4.4878 25.3542
L4.6783 25.3542
" />
<path d="M4.6783 25.3542
L4.7545 25.3875
" />
<path d="M4.7545 25.3875
L4.7926 25.4209
" />
<path d="M4.7926 25.4209
L4.8307 25.4875
" />
<path d="M4.8307 25.4875
L4.8307 25.6542
" />
<path d="M4.8307 25.6542
L4.7926 25.7209
" />
<path d="M4.7926 25.7209
L4.7545 25.7542
" />
<path d="M4.7545 25.7542
L4.6783 25.7875
" />
<path d="M4.6783 25.7875
L4.4878 25.7875
" />
<path d="M4.4878 25.7875
L4.4116 25.7542
" />
<path d="M4.4116 25.7542
L4.3735 25.7209
" />
<path d="M5.0593 25.0875
L5.3259 25.7875
" />
<path d="M5.3259 25.7875
L5.5926 25.0875
" />
</g></g>
<g style="fill:#F2EDA1; fill-opacity:0.0; 
stroke:#F2EDA1; stroke-width:0.1000; stroke-opacity:1; 
stroke-linecap:round; stroke-linejoin:round;">
<text x="12.1320" y="11.9040"
textLength="3.1476" font-size="1.3333" lengthAdjust="spacingAndGlyphs"
text-anchor="start" opacity="0">GND</text>
<g class="stroked-text"><desc>GND</desc>
<path d="M12.9597 10.9090
L12.8645 10.8614
" />
<path d="M12.8645 10.8614
L12.7216 10.8614
" />
<path d="M12.7216 10.8614
L12.5787 10.9090
" />
<path d="M12.5787 10.9090
L12.4835 11.0043
" />
<path d="M12.4835 11.0043
L12.4359 11.0995
" />
<path d="M12.4359 11.0995
L12.3883 11.2900
" />
<path d="M12.3883 11.2900
L12.3883 11.4328
" />
<path d="M12.3883 11.4328
L12.4359 11.6233
" />
<path d="M12.4359 11.6233
L12.4835 11.7186
" />
<path d="M12.4835 11.7186
L12.5787 11.8138
" />
<path d="M12.5787 11.8138
L12.7216 11.8614
" />
<path d="M12.7216 11.8614
L12.8168 11.8614
" />
<path d="M12.8168 11.8614
L12.9597 11.8138
" />
<path d="M12.9597 11.8138
L13.0073 11.7662
" />
<path d="M13.0073 11.7662
L13.0073 11.4328
" />
<path d="M13.0073 11.4328
L12.8168 11.4328
" />
<path d="M13.4359 11.8614
L13.4359 10.8614
" />
<path d="M13.4359 10.8614
L14.0073 11.8614
" />
<path d="M14.0073 11.8614
L14.0073 10.8614
" />
<path d="M14.4835 11.8614
L14.4835 10.8614
" />
<path d="M14.4835 10.8614
L14.7216 10.8614
" />
<path d="M14.7216 10.8614
L14.8645 10.9090
" />
<path d="M14.8645 10.9090
L14.9597 11.0043
" />
<path d="M14.9597 11.0043
L15.0073 11.0995
" />
<path d="M15.0073 11.0995
L15.0549 11.2900
" />
<path d="M15.0549 11.2900
L15.0549 11.4328
" />
<path d="M15.0549 11.4328
L15.0073 11.6233
" />
<path d="M15.0073 11.6233
L14.9597 11.7186
" />
<path d="M14.9597 11.7186
L14.8645 11.8138
" />
<path d="M14.8645 11.8138
L14.7216 11.8614
" />
<path d="M14.7216 11.8614
L14.4835 11.8614
" />
</g><text x="10.6320" y="6.6040"
textLength="3.2057" font-size="1.2000" lengthAdjust="spacingAndGlyphs"
text-anchor="middle" opacity="0">Prog</text>
<g class="stroked-text"><desc>Prog</desc>
<path d="M9.3034 6.5652
L9.3034 5.6652
" />
<path d="M9.3034 5.6652
L9.6463 5.6652
" />
<path d="M9.6463 5.6652
L9.7320 5.7080
" />
<path d="M9.7320 5.7080
L9.7749 5.7509
" />
<path d="M9.7749 5.7509
L9.8177 5.8366
" />
<path d="M9.8177 5.8366
L9.8177 5.9652
" />
<path d="M9.8177 5.9652
L9.7749 6.0509
" />
<path d="M9.7749 6.0509
L9.7320 6.0937
" />
<path d="M9.7320 6.0937
L9.6463 6.1366
" />
<path d="M9.6463 6.1366
L9.3034 6.1366
" />
<path d="M10.2034 6.5652
L10.2034 5.9652
" />
<path d="M10.2034 6.1366
L10.2463 6.0509
" />
<path d="M10.2463 6.0509
L10.2891 6.0080
" />
<path d="M10.2891 6.0080
L10.3749 5.9652
" />
<path d="M10.3749 5.9652
L10.4606 5.9652
" />
<path d="M10.8891 6.5652
L10.8034 6.5223
" />
<path d="M10.8034 6.5223
L10.7606 6.4794
" />
<path d="M10.7606 6.4794
L10.7177 6.3937
" />
<path d="M10.7177 6.3937
L10.7177 6.1366
" />
<path d="M10.7177 6.1366
L10.7606 6.0509
" />
<path d="M10.7606 6.0509
L10.8034 6.0080
" />
<path d="M10.8034 6.0080
L10.8891 5.9652
" />
<path d="M10.8891 5.9652
L11.0177 5.9652
" />
<path d="M11.0177 5.9652
L11.1034 6.0080
" />
<path d="M11.1034 6.0080
L11.1463 6.0509
" />
<path d="M11.1463 6.0509
L11.1891 6.1366
" />
<path d="M11.1891 6.1366
L11.1891 6.3937
" />
<path d="M11.1891 6.3937
L11.1463 6.4794
" />
<path d="M11.1463 6.4794
L11.1034 6.5223
" />
<path d="M11.1034 6.5223
L11.0177 6.5652
" />
<path d="M11.0177 6.5652
L10.8891 6.5652
" />
<path d="M11.9606 5.9652
L11.9606 6.6937
" />
<path d="M11.9606 6.6937
L11.9177 6.7794
" />
<path d="M11.9177 6.7794
L11.8749 6.8223
" />
<path d="M11.8749 6.8223
L11.7891 6.8652
" />
<path d="M11.7891 6.8652
L11.6606 6.8652
" />
<path d="M11.6606 6.8652
L11.5749 6.8223
" />
<path d="M11.9606 6.5223
L11.8749 6.5652
" />
<path d="M11.8749 6.5652
L11.7034 6.5652
" />
<path d="M11.7034 6.5652
L11.6177 6.5223
" />
<path d="M11.6177 6.5223
L11.5749 6.4794
" />
<path d="M11.5749 6.4794
L11.5320 6.3937
" />
<path d="M11.5320 6.3937
L11.5320 6.1366
" />
<path d="M11.5320 6.1366
L11.5749 6.0509
" />
<path d="M11.5749 6.0509
L11.6177 6.0080
" />
<path d="M11.6177 6.0080
L11.7034 5.9652
" />
<path d="M11.7034 5.9652
L11.8749 5.9652
" />
<path d="M11.8749 5.9652
L11.9606 6.0080
" />
</g></g>
<g style="fill:#F2EDA1; fill-opacity:0.0; 
stroke:#F2EDA1; stroke-width:0.2000; stroke-opacity:1; 
stroke-linecap:round; stroke-linejoin:round;">
<g transform="rotate(-90.000000 2.1320 22.5750)">
<text x="2.1320" y="23.1250"
textLength="4.7600" font-size="1.6000" lengthAdjust="spacingAndGlyphs"
text-anchor="middle" opacity="0">UART</text>
</g>
<g class="stroked-text"><desc>UART</desc>
<path d="M1.5305 24.4893
L2.4210 24.4893
" />
<path d="M2.4210 24.4893
L2.5257 24.4321
" />
<path d="M2.5257 24.4321
L2.5781 24.3750
" />
<path d="M2.5781 24.3750
L2.6305 24.2607
" />
<path d="M2.6305 24.2607
L2.6305 24.0321
" />
<path d="M2.6305 24.0321
L2.5781 23.9179
" />
<path d="M2.5781 23.9179
L2.5257 23.8607
" />
<path d="M2.5257 23.8607
L2.4210 23.8036
" />
<path d="M2.4210 23.8036
L1.5305 23.8036
" />
<path d="M2.3162 23.2893
L2.3162 22.7179
" />
<path d="M2.6305 23.4036
L1.5305 23.0036
" />
<path d="M1.5305 23.0036
L2.6305 22.6036
" />
<path d="M2.6305 21.5179
L2.1067 21.9179
" />
<path d="M2.6305 22.2036
L1.5305 22.2036
" />
<path d="M1.5305 22.2036
L1.5305 21.7464
" />
<path d="M1.5305 21.7464
L1.5829 21.6321
" />
<path d="M1.5829 21.6321
L1.6352 21.5750
" />
<path d="M1.6352 21.5750
L1.7400 21.5179
" />
<path d="M1.7400 21.5179
L1.8971 21.5179
" />
<path d="M1.8971 21.5179
L2.0019 21.5750
" />
<path d="M2.0019 21.5750
L2.0543 21.6321
" />
<path d="M2.0543 21.6321
L2.1067 21.7464
" />
<path d="M2.1067 21.7464
L2.1067 22.2036
" />
<path d="M1.5305 21.1750
L1.5305 20.4893
" />
<path d="M2.6305 20.8321
L1.5305 20.8321
" />
</g></g>
<g style="fill:#F2EDA1; fill-opacity:0.0; 
stroke:#F2EDA1; stroke-width:0.3000; stroke-opacity:1; 
stroke-linecap:round; stroke-linejoin:round;">
<text x="30.3250" y="21.5250"
textLength="6.3143" font-size="2.0000" lengthAdjust="spacingAndGlyphs"
text-anchor="middle" opacity="0">2022</text>
<g class="stroked-text"><desc>2022</desc>
<path d="M27.7536 20.0962
L27.8250 20.0248
" />
<path d="M27.8250 20.0248
L27.9679 19.9533
" />
<path d="M27.9679 19.9533
L28.3250 19.9533
" />
<path d="M28.3250 19.9533
L28.4679 20.0248
" />
<path d="M28.4679 20.0248
L28.5393 20.0962
" />
<path d="M28.5393 20.0962
L28.6107 20.2390
" />
<path d="M28.6107 20.2390
L28.6107 20.3819
" />
<path d="M28.6107 20.3819
L28.5393 20.5962
" />
<path d="M28.5393 20.5962
L27.6821 21.4533
" />
<path d="M27.6821 21.4533
L28.6107 21.4533
" />
<path d="M29.5393 19.9533
L29.6821 19.9533
" />
<path d="M29.6821 19.9533
L29.8250 20.0248
" />
<path d="M29.8250 20.0248
L29.8964 20.0962
" />
<path d="M29.8964 20.0962
L29.9679 20.2390
" />
<path d="M29.9679 20.2390
L30.0393 20.5248
" />
<path d="M30.0393 20.5248
L30.0393 20.8819
" />
<path d="M30.0393 20.8819
L29.9679 21.1676
" />
<path d="M29.9679 21.1676
L29.8964 21.3105
" />
<path d="M29.8964 21.3105
L29.8250 21.3819
" />
<path d="M29.8250 21.3819
L29.6821 21.4533
" />
<path d="M29.6821 21.4533
L29.5393 21.4533
" />
<path d="M29.5393 21.4533
L29.3964 21.3819
" />
<path d="M29.3964 21.3819
L29.3250 21.3105
" />
<path d="M29.3250 21.3105
L29.2536 21.1676
" />
<path d="M29.2536 21.1676
L29.1821 20.8819
" />
<path d="M29.1821 20.8819
L29.1821 20.5248
" />
<path d="M29.1821 20.5248
L29.2536 20.2390
" />
<path d="M29.2536 20.2390
L29.3250 20.0962
" />
<path d="M29.3250 20.0962
L29.3964 20.0248
" />
<path d="M29.3964 20.0248
L29.5393 19.9533
" />
<path d="M30.6107 20.0962
L30.6821 20.0248
" />
<path d="M30.6821 20.0248
L30.8250 19.9533
" />
<path d="M30.8250 19.9533
L31.1821 19.9533
" />
<path d="M31.1821 19.9533
L31.3250 20.0248
" />
<path d="M31.3250 20.0248
L31.3964 20.0962
" />
<path d="M31.3964 20.0962
L31.4679 20.2390
" />
<path d="M31.4679 20.2390
L31.4679 20.3819
" />
<path d="M31.4679 20.3819
L31.3964 20.5962
" />
<path d="M31.3964 20.5962
L30.5393 21.4533
" />
<path d="M30.5393 21.4533
L31.4679 21.4533
" />
<path d="M32.0393 20.0962
L32.1107 20.0248
" />
<path d="M32.1107 20.0248
L32.2536 19.9533
" />
<path d="M32.2536 19.9533
L32.6107 19.9533
" />
<path d="M32.6107 19.9533
L32.7536 20.0248
" />
<path d="M32.7536 20.0248
L32.8250 20.0962
" />
<path d="M32.8250 20.0962
L32.8964 20.2390
" />
<path d="M32.8964 20.2390
L32.8964 20.3819
" />
<path d="M32.8964 20.3819
L32.8250 20.5962
" />
<path d="M32.8250 20.5962
L31.9679 21.4533
" />
<path d="M31.9679 21.4533
L32.8964 21.4533
" />
</g><g transform="rotate(-90.000000 41.6700 22.5750)">
<text x="41.6700" y="23.3250"
textLength="6.0286" font-size="2.0000" lengthAdjust="spacingAndGlyphs"
text-anchor="middle" opacity="0">ANT2</text>
</g>
<g class="stroked-text"><desc>ANT2</desc>
<path d="M41.9198 25.0036
L41.9198 24.2893
" />
<path d="M42.3483 25.1464
L40.8483 24.6464
" />
<path d="M40.8483 24.6464
L42.3483 24.1464
" />
<path d="M42.3483 23.6464
L40.8483 23.6464
" />
<path d="M40.8483 23.6464
L42.3483 22.7893
" />
<path d="M42.3483 22.7893
L40.8483 22.7893
" />
<path d="M40.8483 22.2893
L40.8483 21.4321
" />
<path d="M42.3483 21.8607
L40.8483 21.8607
" />
<path d="M40.9912 21.0036
L40.9198 20.9321
" />
<path d="M40.9198 20.9321
L40.8483 20.7893
" />
<path d="M40.8483 20.7893
L40.8483 20.4321
" />
<path d="M40.8483 20.4321
L40.9198 20.2893
" />
<path d="M40.9198 20.2893
L40.9912 20.2179
" />
<path d="M40.9912 20.2179
L41.1340 20.1464
" />
<path d="M41.1340 20.1464
L41.2769 20.1464
" />
<path d="M41.2769 20.1464
L41.4912 20.2179
" />
<path d="M41.4912 20.2179
L42.3483 21.0750
" />
<path d="M42.3483 21.0750
L42.3483 20.1464
" />
</g></g>
<g style="fill:#F2EDA1; fill-opacity:0.0; 
stroke:#F2EDA1; stroke-width:0.0500; stroke-opacity:1; 
stroke-linecap:round; stroke-linejoin:round;">
<text x="1.7844" y="7.1158"
textLength="0.5262" font-size="0.6667" lengthAdjust="spacingAndGlyphs"
text-anchor="middle" opacity="0">1</text>
<g class="stroked-text"><desc>1</desc>
<path d="M1.9273 7.0945
L1.6415 7.0945
" />
<path d="M1.7844 7.0945
L1.7844 6.5945
" />
<path d="M1.7844 6.5945
L1.7368 6.6659
" />
<path d="M1.7368 6.6659
L1.6892 6.7136
" />
<path d="M1.6892 6.7136
L1.6415 6.7374
" />
</g></g>
<g style="fill:#F2EDA1; fill-opacity:0.0; 
stroke:#F2EDA1; stroke-width:0.1500; stroke-opacity:1; 
stroke-linecap:round; stroke-linejoin:round;">
<path d="M0.7506 7.3674
L5.8306 7.3674
" />
<path d="M0.7506 14.9874
L0.7506 7.3674
" />
<path d="M5.8306 7.3674
L5.8306 14.9874
" />
<path d="M5.8306 14.9874
L0.7506 14.9874
" />
<g >
</g>
<g >
</g>
<g >
</g>
<g >
</g>
<g >
</g>
<g >
</g>
<g >
</g>
<g >
</g>
<g >
</g>
<g >
</g>
<g >
</g>
<g >
</g>
<g >
</g>
<g >
</g>
<g >
</g>
<g >
</g>
<g >
</g>
<g >
</g>
<g >
</g>
<g >
</g>
<g >
</g>
<g >
</g>
<g >
</g>
<g >
</g>
<g >
</g>
<g >
</g>
<g >
</g>
<g >
</g>
<g >
</g>
<g >
</g>
<g >
</g>
<g >
</g>
<g >
</g>
<g >
</g>
<g >
</g>
<g >
</g>
<g >
</g>
<g >
</g>
<g >
</g>
<g >
</g>
<g >
</g>
<g >
</g>
<g >
</g>
<g >
</g>
<g >
</g>
<g >
</g>
<g >
</g>
<g >
</g>
<g >
</g>
<g >
</g>
<g >
</g>
<g >
</g>
<g >
</g>
<g >
</g>
<g >
</g>
<g >
</g>
<g >
</g>
<g >
</g>
<g >
</g>
<g >
</g>
<g >
</g>
<g >
</g>
<g >
</g>
<g >
</g>
<g >
</g>
<g >
</g>
<g >
</g>
<g >
</g>
<g >
</g>
<g >
</g>
<g >
</g>
<g >
</g>
<g >
</g>
</g>
<g style="fill:#000000; fill-opacity:0.0; 
stroke:#000000; stroke-width:0.1500; stroke-opacity:1; 
stroke-linecap:round; stroke-linejoin:round;">
</g>
<g style="fill:#D0D2CD; fill-opacity:0.0; 
stroke:#D0D2CD; stroke-width:0.1500; stroke-opacity:1; 
stroke-linecap:round; stroke-linejoin:round;">
<path d="M0.0750 0.0750
L0.0750 30.0750
" />
<path d="M50.0750 5.1000
L50.0750 0.0750
" />
<path d="M50.0750 25.0500
L50.0750 30.0750
" />
<path d="M0.0750 30.0750
L50.0750 30.0750
" />
<path d="M50.0750 20.1000
L50.0750 10.0500
" />
<path d="M50.0750 0.0750
L0.0750 0.0750
" />
</g>
<g style="fill:#D0D2CD; fill-opacity:0.0; 
stroke:#D0D2CD; stroke-width:0.1000; stroke-opacity:1; 
stroke-linecap:round; stroke-linejoin:round;">
<path d="M50.0750 10.0500
L43.6250 10.0500
" />
<path d="M43.6250 10.0500
L43.6250 5.1000
" />
<path d="M43.6250 5.1000
L50.0750 5.1000
" />
<path d="M50.0750 25.0500
L43.6250 25.0500
" />
<path d="M43.6250 25.0500
L43.6250 20.1000
" />
<path d="M43.6250 20.1000
L50.0750 20.1000
" />
<g >
</g>
<g >
</g>
<g >
</g>
<g >
</g>
<g >
</g>
<g >
</g>
<g >
</g>
<g >
</g>
<g >
</g>
<g >
</g>
<g >
</g>
<g >
</g>
<g >
</g>
<g >
</g>
<g >
</g>
<g >
</g>
<g >
</g>
<g >
</g>
<g >
</g>
<g >
</g>
<g >
</g>
<g >
</g>
<g >
</g>
<g >
</g>
<g >
</g>
<g >
</g>
<g >
</g>
<g >
</g>
<g >
</g>
<g >
</g>
<g >
</g>
<g >
</g>
<g >
</g>
<g >
</g>
<g >
</g>
<g >
</g>
<g >
</g>
<g >
</g>
<g >
</g>
<g >
</g>
<g >
</g>
<g >
</g>
<g >
</g>
<g >
</g>
<g >
</g>
<g >
</g>
<g >
</g>
<g >
</g>
<g >
</g>
<g >
</g>
<g >
</g>
<g >
</g>
<g >
</g>
<g >
</g>
<g >
</g>
<g >
</g>
<g >
</g>
<g >
</g>
<g >
</g>
<g >
</g>
<g >
</g>
<g >
</g>
<g >
</g>
<g >
</g>
<g >
</g>
<g >
</g>
<g >
</g>
<g >
</g>
<g >
</g>
<g >
</g>
<g >
</g>
<g >
</g>
<g >
</g>
</g> 
</svg>
