<?xml version="1.0" standalone="no"?>
<!DOCTYPE svg PUBLIC "-//W3C//DTD SVG 1.1//EN" "http://www.w3.org/Graphics/SVG/1.1/DTD/svg11.dtd">
<svg width="34mm" height="54mm" viewBox="23 -27 34 54" xmlns="http://www.w3.org/2000/svg" version="1.1">
<title>OpenSCAD Model</title>
<path d="
M 23.9,26.2 L 56.1,26.2 L 56.1,-26.2 L 23.9,-26.2 z
M 50.27,22.15 L 50.27,18.15 L 50.2768,18.0193 L 50.2973,17.8901 L 50.3312,17.7637 L 50.3781,17.6416
 L 50.4375,17.525 L 50.5087,17.4153 L 50.5911,17.3136 L 50.6836,17.2211 L 50.7853,17.1387 L 50.895,17.0675
 L 51.0116,17.0081 L 51.1337,16.9612 L 51.2601,16.9273 L 51.3893,16.9068 L 51.52,16.9 L 51.6507,16.9068
 L 51.7799,16.9273 L 51.9063,16.9612 L 52.0284,17.0081 L 52.145,17.0675 L 52.2547,17.1387 L 52.3564,17.2211
 L 52.4489,17.3136 L 52.5313,17.4153 L 52.6025,17.525 L 52.6619,17.6416 L 52.7088,17.7637 L 52.7427,17.8901
 L 52.7632,18.0193 L 52.77,18.15 L 52.77,22.15 L 52.7632,22.2807 L 52.7427,22.4099 L 52.7088,22.5363
 L 52.6619,22.6584 L 52.6025,22.775 L 52.5313,22.8847 L 52.4489,22.9864 L 52.3564,23.0789 L 52.2547,23.1613
 L 52.145,23.2325 L 52.0284,23.2919 L 51.9063,23.3388 L 51.7799,23.3727 L 51.6507,23.3932 L 51.52,23.4
 L 51.3893,23.3932 L 51.2601,23.3727 L 51.1337,23.3388 L 51.0116,23.2919 L 50.895,23.2325 L 50.7853,23.1613
 L 50.6836,23.0789 L 50.5911,22.9864 L 50.5087,22.8847 L 50.4375,22.775 L 50.3781,22.6584 L 50.3312,22.5363
 L 50.2973,22.4099 L 50.2768,22.2807 z
" stroke="black" fill="lightgray" stroke-width="0.5"/>
</svg>
