%TF.GenerationSoftware,KiCad,Pcbnew,7.0.5.1-1-g8f565ef7f0-dirty-deb11*%
%TF.CreationDate,2023-07-20T13:55:19+00:00*%
%TF.ProjectId,TFSIK01,54465349-4b30-4312-9e6b-696361645f70,REV*%
%TF.SameCoordinates,Original*%
%TF.FileFunction,Legend,Top*%
%TF.FilePolarity,Positive*%
%FSLAX46Y46*%
G04 Gerber Fmt 4.6, Leading zero omitted, Abs format (unit mm)*
G04 Created by KiCad (PCBNEW 7.0.5.1-1-g8f565ef7f0-dirty-deb11) date 2023-07-20 13:55:19*
%MOMM*%
%LPD*%
G01*
G04 APERTURE LIST*
%ADD10C,0.150000*%
%ADD11C,0.200000*%
%ADD12C,0.080000*%
%ADD13C,0.300000*%
%ADD14C,0.100000*%
%ADD15C,0.050000*%
G04 APERTURE END LIST*
D10*
X131750000Y-101250000D02*
X131750000Y-93500000D01*
X130750000Y-102250000D02*
G75*
G03*
X131750000Y-101250000I0J1000000D01*
G01*
X126250000Y-92500000D02*
X130750000Y-92500000D01*
X131750000Y-93500000D02*
G75*
G03*
X130750000Y-92500000I-1000000J0D01*
G01*
X126250000Y-102250000D02*
X130750000Y-102250000D01*
D11*
X134500000Y-82000000D02*
X140500000Y-82000000D01*
D12*
X134500000Y-82000000D02*
X131250000Y-84750000D01*
D13*
X167287757Y-84849570D02*
X167287757Y-84135285D01*
X167716328Y-84992427D02*
X166216328Y-84492427D01*
X166216328Y-84492427D02*
X167716328Y-83992427D01*
X167716328Y-83492428D02*
X166216328Y-83492428D01*
X166216328Y-83492428D02*
X167716328Y-82635285D01*
X167716328Y-82635285D02*
X166216328Y-82635285D01*
X166216328Y-82135284D02*
X166216328Y-81278142D01*
X167716328Y-81706713D02*
X166216328Y-81706713D01*
X167716328Y-79992427D02*
X167716328Y-80849570D01*
X167716328Y-80420999D02*
X166216328Y-80420999D01*
X166216328Y-80420999D02*
X166430614Y-80563856D01*
X166430614Y-80563856D02*
X166573471Y-80706713D01*
X166573471Y-80706713D02*
X166644900Y-80849570D01*
D14*
X134464286Y-86326466D02*
X135226191Y-86326466D01*
X134845238Y-86707419D02*
X134845238Y-85945514D01*
X136178571Y-85707419D02*
X135702381Y-85707419D01*
X135702381Y-85707419D02*
X135654762Y-86183609D01*
X135654762Y-86183609D02*
X135702381Y-86135990D01*
X135702381Y-86135990D02*
X135797619Y-86088371D01*
X135797619Y-86088371D02*
X136035714Y-86088371D01*
X136035714Y-86088371D02*
X136130952Y-86135990D01*
X136130952Y-86135990D02*
X136178571Y-86183609D01*
X136178571Y-86183609D02*
X136226190Y-86278847D01*
X136226190Y-86278847D02*
X136226190Y-86516942D01*
X136226190Y-86516942D02*
X136178571Y-86612180D01*
X136178571Y-86612180D02*
X136130952Y-86659800D01*
X136130952Y-86659800D02*
X136035714Y-86707419D01*
X136035714Y-86707419D02*
X135797619Y-86707419D01*
X135797619Y-86707419D02*
X135702381Y-86659800D01*
X135702381Y-86659800D02*
X135654762Y-86612180D01*
X136511905Y-85707419D02*
X136845238Y-86707419D01*
X136845238Y-86707419D02*
X137178571Y-85707419D01*
X138375312Y-85112180D02*
X138327693Y-85159800D01*
X138327693Y-85159800D02*
X138184836Y-85207419D01*
X138184836Y-85207419D02*
X138089598Y-85207419D01*
X138089598Y-85207419D02*
X137946741Y-85159800D01*
X137946741Y-85159800D02*
X137851503Y-85064561D01*
X137851503Y-85064561D02*
X137803884Y-84969323D01*
X137803884Y-84969323D02*
X137756265Y-84778847D01*
X137756265Y-84778847D02*
X137756265Y-84635990D01*
X137756265Y-84635990D02*
X137803884Y-84445514D01*
X137803884Y-84445514D02*
X137851503Y-84350276D01*
X137851503Y-84350276D02*
X137946741Y-84255038D01*
X137946741Y-84255038D02*
X138089598Y-84207419D01*
X138089598Y-84207419D02*
X138184836Y-84207419D01*
X138184836Y-84207419D02*
X138327693Y-84255038D01*
X138327693Y-84255038D02*
X138375312Y-84302657D01*
X138756265Y-84302657D02*
X138803884Y-84255038D01*
X138803884Y-84255038D02*
X138899122Y-84207419D01*
X138899122Y-84207419D02*
X139137217Y-84207419D01*
X139137217Y-84207419D02*
X139232455Y-84255038D01*
X139232455Y-84255038D02*
X139280074Y-84302657D01*
X139280074Y-84302657D02*
X139327693Y-84397895D01*
X139327693Y-84397895D02*
X139327693Y-84493133D01*
X139327693Y-84493133D02*
X139280074Y-84635990D01*
X139280074Y-84635990D02*
X138708646Y-85207419D01*
X138708646Y-85207419D02*
X139327693Y-85207419D01*
X139756265Y-85207419D02*
X139756265Y-84207419D01*
X139756265Y-84207419D02*
X139994360Y-84207419D01*
X139994360Y-84207419D02*
X140137217Y-84255038D01*
X140137217Y-84255038D02*
X140232455Y-84350276D01*
X140232455Y-84350276D02*
X140280074Y-84445514D01*
X140280074Y-84445514D02*
X140327693Y-84635990D01*
X140327693Y-84635990D02*
X140327693Y-84778847D01*
X140327693Y-84778847D02*
X140280074Y-84969323D01*
X140280074Y-84969323D02*
X140232455Y-85064561D01*
X140232455Y-85064561D02*
X140137217Y-85159800D01*
X140137217Y-85159800D02*
X139994360Y-85207419D01*
X139994360Y-85207419D02*
X139756265Y-85207419D01*
D13*
X150643715Y-97876328D02*
X151500858Y-97876328D01*
X151072286Y-99376328D02*
X151072286Y-97876328D01*
X152500857Y-98590614D02*
X152000857Y-98590614D01*
X152000857Y-99376328D02*
X152000857Y-97876328D01*
X152000857Y-97876328D02*
X152715143Y-97876328D01*
X153215143Y-99304900D02*
X153429429Y-99376328D01*
X153429429Y-99376328D02*
X153786571Y-99376328D01*
X153786571Y-99376328D02*
X153929429Y-99304900D01*
X153929429Y-99304900D02*
X154000857Y-99233471D01*
X154000857Y-99233471D02*
X154072286Y-99090614D01*
X154072286Y-99090614D02*
X154072286Y-98947757D01*
X154072286Y-98947757D02*
X154000857Y-98804900D01*
X154000857Y-98804900D02*
X153929429Y-98733471D01*
X153929429Y-98733471D02*
X153786571Y-98662042D01*
X153786571Y-98662042D02*
X153500857Y-98590614D01*
X153500857Y-98590614D02*
X153358000Y-98519185D01*
X153358000Y-98519185D02*
X153286571Y-98447757D01*
X153286571Y-98447757D02*
X153215143Y-98304900D01*
X153215143Y-98304900D02*
X153215143Y-98162042D01*
X153215143Y-98162042D02*
X153286571Y-98019185D01*
X153286571Y-98019185D02*
X153358000Y-97947757D01*
X153358000Y-97947757D02*
X153500857Y-97876328D01*
X153500857Y-97876328D02*
X153858000Y-97876328D01*
X153858000Y-97876328D02*
X154072286Y-97947757D01*
X154715142Y-99376328D02*
X154715142Y-97876328D01*
X155429428Y-99376328D02*
X155429428Y-97876328D01*
X156286571Y-99376328D02*
X155643714Y-98519185D01*
X156286571Y-97876328D02*
X155429428Y-98733471D01*
X157215143Y-97876328D02*
X157358000Y-97876328D01*
X157358000Y-97876328D02*
X157500857Y-97947757D01*
X157500857Y-97947757D02*
X157572286Y-98019185D01*
X157572286Y-98019185D02*
X157643714Y-98162042D01*
X157643714Y-98162042D02*
X157715143Y-98447757D01*
X157715143Y-98447757D02*
X157715143Y-98804900D01*
X157715143Y-98804900D02*
X157643714Y-99090614D01*
X157643714Y-99090614D02*
X157572286Y-99233471D01*
X157572286Y-99233471D02*
X157500857Y-99304900D01*
X157500857Y-99304900D02*
X157358000Y-99376328D01*
X157358000Y-99376328D02*
X157215143Y-99376328D01*
X157215143Y-99376328D02*
X157072286Y-99304900D01*
X157072286Y-99304900D02*
X157000857Y-99233471D01*
X157000857Y-99233471D02*
X156929428Y-99090614D01*
X156929428Y-99090614D02*
X156858000Y-98804900D01*
X156858000Y-98804900D02*
X156858000Y-98447757D01*
X156858000Y-98447757D02*
X156929428Y-98162042D01*
X156929428Y-98162042D02*
X157000857Y-98019185D01*
X157000857Y-98019185D02*
X157072286Y-97947757D01*
X157072286Y-97947757D02*
X157215143Y-97876328D01*
X159143714Y-99376328D02*
X158286571Y-99376328D01*
X158715142Y-99376328D02*
X158715142Y-97876328D01*
X158715142Y-97876328D02*
X158572285Y-98090614D01*
X158572285Y-98090614D02*
X158429428Y-98233471D01*
X158429428Y-98233471D02*
X158286571Y-98304900D01*
X159715142Y-98947757D02*
X160429428Y-98947757D01*
X159572285Y-99376328D02*
X160072285Y-97876328D01*
X160072285Y-97876328D02*
X160572285Y-99376328D01*
D14*
X133756265Y-84540752D02*
X134470550Y-84540752D01*
X134041979Y-84112180D02*
X133756265Y-85397895D01*
X134375312Y-84969323D02*
X133661027Y-84969323D01*
X134089598Y-85397895D02*
X134375312Y-84112180D01*
X135375312Y-85207419D02*
X135041979Y-84731228D01*
X134803884Y-85207419D02*
X134803884Y-84207419D01*
X134803884Y-84207419D02*
X135184836Y-84207419D01*
X135184836Y-84207419D02*
X135280074Y-84255038D01*
X135280074Y-84255038D02*
X135327693Y-84302657D01*
X135327693Y-84302657D02*
X135375312Y-84397895D01*
X135375312Y-84397895D02*
X135375312Y-84540752D01*
X135375312Y-84540752D02*
X135327693Y-84635990D01*
X135327693Y-84635990D02*
X135280074Y-84683609D01*
X135280074Y-84683609D02*
X135184836Y-84731228D01*
X135184836Y-84731228D02*
X134803884Y-84731228D01*
X135756265Y-85159800D02*
X135899122Y-85207419D01*
X135899122Y-85207419D02*
X136137217Y-85207419D01*
X136137217Y-85207419D02*
X136232455Y-85159800D01*
X136232455Y-85159800D02*
X136280074Y-85112180D01*
X136280074Y-85112180D02*
X136327693Y-85016942D01*
X136327693Y-85016942D02*
X136327693Y-84921704D01*
X136327693Y-84921704D02*
X136280074Y-84826466D01*
X136280074Y-84826466D02*
X136232455Y-84778847D01*
X136232455Y-84778847D02*
X136137217Y-84731228D01*
X136137217Y-84731228D02*
X135946741Y-84683609D01*
X135946741Y-84683609D02*
X135851503Y-84635990D01*
X135851503Y-84635990D02*
X135803884Y-84588371D01*
X135803884Y-84588371D02*
X135756265Y-84493133D01*
X135756265Y-84493133D02*
X135756265Y-84397895D01*
X135756265Y-84397895D02*
X135803884Y-84302657D01*
X135803884Y-84302657D02*
X135851503Y-84255038D01*
X135851503Y-84255038D02*
X135946741Y-84207419D01*
X135946741Y-84207419D02*
X136184836Y-84207419D01*
X136184836Y-84207419D02*
X136327693Y-84255038D01*
X136613408Y-84207419D02*
X137184836Y-84207419D01*
X136899122Y-85207419D02*
X136899122Y-84207419D01*
X135077693Y-82755038D02*
X134982455Y-82707419D01*
X134982455Y-82707419D02*
X134839598Y-82707419D01*
X134839598Y-82707419D02*
X134696741Y-82755038D01*
X134696741Y-82755038D02*
X134601503Y-82850276D01*
X134601503Y-82850276D02*
X134553884Y-82945514D01*
X134553884Y-82945514D02*
X134506265Y-83135990D01*
X134506265Y-83135990D02*
X134506265Y-83278847D01*
X134506265Y-83278847D02*
X134553884Y-83469323D01*
X134553884Y-83469323D02*
X134601503Y-83564561D01*
X134601503Y-83564561D02*
X134696741Y-83659800D01*
X134696741Y-83659800D02*
X134839598Y-83707419D01*
X134839598Y-83707419D02*
X134934836Y-83707419D01*
X134934836Y-83707419D02*
X135077693Y-83659800D01*
X135077693Y-83659800D02*
X135125312Y-83612180D01*
X135125312Y-83612180D02*
X135125312Y-83278847D01*
X135125312Y-83278847D02*
X134934836Y-83278847D01*
X135553884Y-83707419D02*
X135553884Y-82707419D01*
X135553884Y-82707419D02*
X136125312Y-83707419D01*
X136125312Y-83707419D02*
X136125312Y-82707419D01*
X136601503Y-83707419D02*
X136601503Y-82707419D01*
X136601503Y-82707419D02*
X136839598Y-82707419D01*
X136839598Y-82707419D02*
X136982455Y-82755038D01*
X136982455Y-82755038D02*
X137077693Y-82850276D01*
X137077693Y-82850276D02*
X137125312Y-82945514D01*
X137125312Y-82945514D02*
X137172931Y-83135990D01*
X137172931Y-83135990D02*
X137172931Y-83278847D01*
X137172931Y-83278847D02*
X137125312Y-83469323D01*
X137125312Y-83469323D02*
X137077693Y-83564561D01*
X137077693Y-83564561D02*
X136982455Y-83659800D01*
X136982455Y-83659800D02*
X136839598Y-83707419D01*
X136839598Y-83707419D02*
X136601503Y-83707419D01*
X138327693Y-82755038D02*
X138232455Y-82707419D01*
X138232455Y-82707419D02*
X138089598Y-82707419D01*
X138089598Y-82707419D02*
X137946741Y-82755038D01*
X137946741Y-82755038D02*
X137851503Y-82850276D01*
X137851503Y-82850276D02*
X137803884Y-82945514D01*
X137803884Y-82945514D02*
X137756265Y-83135990D01*
X137756265Y-83135990D02*
X137756265Y-83278847D01*
X137756265Y-83278847D02*
X137803884Y-83469323D01*
X137803884Y-83469323D02*
X137851503Y-83564561D01*
X137851503Y-83564561D02*
X137946741Y-83659800D01*
X137946741Y-83659800D02*
X138089598Y-83707419D01*
X138089598Y-83707419D02*
X138184836Y-83707419D01*
X138184836Y-83707419D02*
X138327693Y-83659800D01*
X138327693Y-83659800D02*
X138375312Y-83612180D01*
X138375312Y-83612180D02*
X138375312Y-83278847D01*
X138375312Y-83278847D02*
X138184836Y-83278847D01*
X138803884Y-83707419D02*
X138803884Y-82707419D01*
X138803884Y-82707419D02*
X139375312Y-83707419D01*
X139375312Y-83707419D02*
X139375312Y-82707419D01*
X139851503Y-83707419D02*
X139851503Y-82707419D01*
X139851503Y-82707419D02*
X140089598Y-82707419D01*
X140089598Y-82707419D02*
X140232455Y-82755038D01*
X140232455Y-82755038D02*
X140327693Y-82850276D01*
X140327693Y-82850276D02*
X140375312Y-82945514D01*
X140375312Y-82945514D02*
X140422931Y-83135990D01*
X140422931Y-83135990D02*
X140422931Y-83278847D01*
X140422931Y-83278847D02*
X140375312Y-83469323D01*
X140375312Y-83469323D02*
X140327693Y-83564561D01*
X140327693Y-83564561D02*
X140232455Y-83659800D01*
X140232455Y-83659800D02*
X140089598Y-83707419D01*
X140089598Y-83707419D02*
X139851503Y-83707419D01*
D10*
X129208207Y-94331866D02*
X129132017Y-94298533D01*
X129132017Y-94298533D02*
X129017731Y-94298533D01*
X129017731Y-94298533D02*
X128903445Y-94331866D01*
X128903445Y-94331866D02*
X128827255Y-94398533D01*
X128827255Y-94398533D02*
X128789160Y-94465200D01*
X128789160Y-94465200D02*
X128751064Y-94598533D01*
X128751064Y-94598533D02*
X128751064Y-94698533D01*
X128751064Y-94698533D02*
X128789160Y-94831866D01*
X128789160Y-94831866D02*
X128827255Y-94898533D01*
X128827255Y-94898533D02*
X128903445Y-94965200D01*
X128903445Y-94965200D02*
X129017731Y-94998533D01*
X129017731Y-94998533D02*
X129093922Y-94998533D01*
X129093922Y-94998533D02*
X129208207Y-94965200D01*
X129208207Y-94965200D02*
X129246303Y-94931866D01*
X129246303Y-94931866D02*
X129246303Y-94698533D01*
X129246303Y-94698533D02*
X129093922Y-94698533D01*
X129589160Y-94998533D02*
X129589160Y-94298533D01*
X129589160Y-94298533D02*
X130046303Y-94998533D01*
X130046303Y-94998533D02*
X130046303Y-94298533D01*
X130427255Y-94998533D02*
X130427255Y-94298533D01*
X130427255Y-94298533D02*
X130617731Y-94298533D01*
X130617731Y-94298533D02*
X130732017Y-94331866D01*
X130732017Y-94331866D02*
X130808207Y-94398533D01*
X130808207Y-94398533D02*
X130846302Y-94465200D01*
X130846302Y-94465200D02*
X130884398Y-94598533D01*
X130884398Y-94598533D02*
X130884398Y-94698533D01*
X130884398Y-94698533D02*
X130846302Y-94831866D01*
X130846302Y-94831866D02*
X130808207Y-94898533D01*
X130808207Y-94898533D02*
X130732017Y-94965200D01*
X130732017Y-94965200D02*
X130617731Y-94998533D01*
X130617731Y-94998533D02*
X130427255Y-94998533D01*
X129246303Y-96058866D02*
X129208207Y-96092200D01*
X129208207Y-96092200D02*
X129093922Y-96125533D01*
X129093922Y-96125533D02*
X129017731Y-96125533D01*
X129017731Y-96125533D02*
X128903445Y-96092200D01*
X128903445Y-96092200D02*
X128827255Y-96025533D01*
X128827255Y-96025533D02*
X128789160Y-95958866D01*
X128789160Y-95958866D02*
X128751064Y-95825533D01*
X128751064Y-95825533D02*
X128751064Y-95725533D01*
X128751064Y-95725533D02*
X128789160Y-95592200D01*
X128789160Y-95592200D02*
X128827255Y-95525533D01*
X128827255Y-95525533D02*
X128903445Y-95458866D01*
X128903445Y-95458866D02*
X129017731Y-95425533D01*
X129017731Y-95425533D02*
X129093922Y-95425533D01*
X129093922Y-95425533D02*
X129208207Y-95458866D01*
X129208207Y-95458866D02*
X129246303Y-95492200D01*
X129474874Y-95425533D02*
X129932017Y-95425533D01*
X129703445Y-96125533D02*
X129703445Y-95425533D01*
X130160588Y-96092200D02*
X130274874Y-96125533D01*
X130274874Y-96125533D02*
X130465350Y-96125533D01*
X130465350Y-96125533D02*
X130541541Y-96092200D01*
X130541541Y-96092200D02*
X130579636Y-96058866D01*
X130579636Y-96058866D02*
X130617731Y-95992200D01*
X130617731Y-95992200D02*
X130617731Y-95925533D01*
X130617731Y-95925533D02*
X130579636Y-95858866D01*
X130579636Y-95858866D02*
X130541541Y-95825533D01*
X130541541Y-95825533D02*
X130465350Y-95792200D01*
X130465350Y-95792200D02*
X130312969Y-95758866D01*
X130312969Y-95758866D02*
X130236779Y-95725533D01*
X130236779Y-95725533D02*
X130198684Y-95692200D01*
X130198684Y-95692200D02*
X130160588Y-95625533D01*
X130160588Y-95625533D02*
X130160588Y-95558866D01*
X130160588Y-95558866D02*
X130198684Y-95492200D01*
X130198684Y-95492200D02*
X130236779Y-95458866D01*
X130236779Y-95458866D02*
X130312969Y-95425533D01*
X130312969Y-95425533D02*
X130503446Y-95425533D01*
X130503446Y-95425533D02*
X130617731Y-95458866D01*
X129246303Y-97252533D02*
X128979636Y-96919200D01*
X128789160Y-97252533D02*
X128789160Y-96552533D01*
X128789160Y-96552533D02*
X129093922Y-96552533D01*
X129093922Y-96552533D02*
X129170112Y-96585866D01*
X129170112Y-96585866D02*
X129208207Y-96619200D01*
X129208207Y-96619200D02*
X129246303Y-96685866D01*
X129246303Y-96685866D02*
X129246303Y-96785866D01*
X129246303Y-96785866D02*
X129208207Y-96852533D01*
X129208207Y-96852533D02*
X129170112Y-96885866D01*
X129170112Y-96885866D02*
X129093922Y-96919200D01*
X129093922Y-96919200D02*
X128789160Y-96919200D01*
X129474874Y-96552533D02*
X129932017Y-96552533D01*
X129703445Y-97252533D02*
X129703445Y-96552533D01*
X130160588Y-97219200D02*
X130274874Y-97252533D01*
X130274874Y-97252533D02*
X130465350Y-97252533D01*
X130465350Y-97252533D02*
X130541541Y-97219200D01*
X130541541Y-97219200D02*
X130579636Y-97185866D01*
X130579636Y-97185866D02*
X130617731Y-97119200D01*
X130617731Y-97119200D02*
X130617731Y-97052533D01*
X130617731Y-97052533D02*
X130579636Y-96985866D01*
X130579636Y-96985866D02*
X130541541Y-96952533D01*
X130541541Y-96952533D02*
X130465350Y-96919200D01*
X130465350Y-96919200D02*
X130312969Y-96885866D01*
X130312969Y-96885866D02*
X130236779Y-96852533D01*
X130236779Y-96852533D02*
X130198684Y-96819200D01*
X130198684Y-96819200D02*
X130160588Y-96752533D01*
X130160588Y-96752533D02*
X130160588Y-96685866D01*
X130160588Y-96685866D02*
X130198684Y-96619200D01*
X130198684Y-96619200D02*
X130236779Y-96585866D01*
X130236779Y-96585866D02*
X130312969Y-96552533D01*
X130312969Y-96552533D02*
X130503446Y-96552533D01*
X130503446Y-96552533D02*
X130617731Y-96585866D01*
X128674874Y-97679533D02*
X129132017Y-97679533D01*
X128903445Y-98379533D02*
X128903445Y-97679533D01*
X129322493Y-97679533D02*
X129855827Y-98379533D01*
X129855827Y-97679533D02*
X129322493Y-98379533D01*
X129246303Y-99506533D02*
X128979636Y-99173200D01*
X128789160Y-99506533D02*
X128789160Y-98806533D01*
X128789160Y-98806533D02*
X129093922Y-98806533D01*
X129093922Y-98806533D02*
X129170112Y-98839866D01*
X129170112Y-98839866D02*
X129208207Y-98873200D01*
X129208207Y-98873200D02*
X129246303Y-98939866D01*
X129246303Y-98939866D02*
X129246303Y-99039866D01*
X129246303Y-99039866D02*
X129208207Y-99106533D01*
X129208207Y-99106533D02*
X129170112Y-99139866D01*
X129170112Y-99139866D02*
X129093922Y-99173200D01*
X129093922Y-99173200D02*
X128789160Y-99173200D01*
X129512969Y-98806533D02*
X130046303Y-99506533D01*
X130046303Y-98806533D02*
X129512969Y-99506533D01*
X128789160Y-100366866D02*
X129398684Y-100366866D01*
X129093922Y-100633533D02*
X129093922Y-100100200D01*
X130160588Y-99933533D02*
X129779636Y-99933533D01*
X129779636Y-99933533D02*
X129741540Y-100266866D01*
X129741540Y-100266866D02*
X129779636Y-100233533D01*
X129779636Y-100233533D02*
X129855826Y-100200200D01*
X129855826Y-100200200D02*
X130046302Y-100200200D01*
X130046302Y-100200200D02*
X130122493Y-100233533D01*
X130122493Y-100233533D02*
X130160588Y-100266866D01*
X130160588Y-100266866D02*
X130198683Y-100333533D01*
X130198683Y-100333533D02*
X130198683Y-100500200D01*
X130198683Y-100500200D02*
X130160588Y-100566866D01*
X130160588Y-100566866D02*
X130122493Y-100600200D01*
X130122493Y-100600200D02*
X130046302Y-100633533D01*
X130046302Y-100633533D02*
X129855826Y-100633533D01*
X129855826Y-100633533D02*
X129779636Y-100600200D01*
X129779636Y-100600200D02*
X129741540Y-100566866D01*
X130427255Y-99933533D02*
X130693922Y-100633533D01*
X130693922Y-100633533D02*
X130960588Y-99933533D01*
D14*
X138327693Y-85755038D02*
X138232455Y-85707419D01*
X138232455Y-85707419D02*
X138089598Y-85707419D01*
X138089598Y-85707419D02*
X137946741Y-85755038D01*
X137946741Y-85755038D02*
X137851503Y-85850276D01*
X137851503Y-85850276D02*
X137803884Y-85945514D01*
X137803884Y-85945514D02*
X137756265Y-86135990D01*
X137756265Y-86135990D02*
X137756265Y-86278847D01*
X137756265Y-86278847D02*
X137803884Y-86469323D01*
X137803884Y-86469323D02*
X137851503Y-86564561D01*
X137851503Y-86564561D02*
X137946741Y-86659800D01*
X137946741Y-86659800D02*
X138089598Y-86707419D01*
X138089598Y-86707419D02*
X138184836Y-86707419D01*
X138184836Y-86707419D02*
X138327693Y-86659800D01*
X138327693Y-86659800D02*
X138375312Y-86612180D01*
X138375312Y-86612180D02*
X138375312Y-86278847D01*
X138375312Y-86278847D02*
X138184836Y-86278847D01*
X138803884Y-86707419D02*
X138803884Y-85707419D01*
X138803884Y-85707419D02*
X139375312Y-86707419D01*
X139375312Y-86707419D02*
X139375312Y-85707419D01*
X139851503Y-86707419D02*
X139851503Y-85707419D01*
X139851503Y-85707419D02*
X140089598Y-85707419D01*
X140089598Y-85707419D02*
X140232455Y-85755038D01*
X140232455Y-85755038D02*
X140327693Y-85850276D01*
X140327693Y-85850276D02*
X140375312Y-85945514D01*
X140375312Y-85945514D02*
X140422931Y-86135990D01*
X140422931Y-86135990D02*
X140422931Y-86278847D01*
X140422931Y-86278847D02*
X140375312Y-86469323D01*
X140375312Y-86469323D02*
X140327693Y-86564561D01*
X140327693Y-86564561D02*
X140232455Y-86659800D01*
X140232455Y-86659800D02*
X140089598Y-86707419D01*
X140089598Y-86707419D02*
X139851503Y-86707419D01*
X134671428Y-81411157D02*
X134671428Y-80511157D01*
X134671428Y-80511157D02*
X135014285Y-80511157D01*
X135014285Y-80511157D02*
X135100000Y-80554014D01*
X135100000Y-80554014D02*
X135142857Y-80596871D01*
X135142857Y-80596871D02*
X135185714Y-80682585D01*
X135185714Y-80682585D02*
X135185714Y-80811157D01*
X135185714Y-80811157D02*
X135142857Y-80896871D01*
X135142857Y-80896871D02*
X135100000Y-80939728D01*
X135100000Y-80939728D02*
X135014285Y-80982585D01*
X135014285Y-80982585D02*
X134671428Y-80982585D01*
X135571428Y-81411157D02*
X135571428Y-80811157D01*
X135571428Y-80982585D02*
X135614285Y-80896871D01*
X135614285Y-80896871D02*
X135657143Y-80854014D01*
X135657143Y-80854014D02*
X135742857Y-80811157D01*
X135742857Y-80811157D02*
X135828571Y-80811157D01*
X136257143Y-81411157D02*
X136171428Y-81368300D01*
X136171428Y-81368300D02*
X136128571Y-81325442D01*
X136128571Y-81325442D02*
X136085714Y-81239728D01*
X136085714Y-81239728D02*
X136085714Y-80982585D01*
X136085714Y-80982585D02*
X136128571Y-80896871D01*
X136128571Y-80896871D02*
X136171428Y-80854014D01*
X136171428Y-80854014D02*
X136257143Y-80811157D01*
X136257143Y-80811157D02*
X136385714Y-80811157D01*
X136385714Y-80811157D02*
X136471428Y-80854014D01*
X136471428Y-80854014D02*
X136514286Y-80896871D01*
X136514286Y-80896871D02*
X136557143Y-80982585D01*
X136557143Y-80982585D02*
X136557143Y-81239728D01*
X136557143Y-81239728D02*
X136514286Y-81325442D01*
X136514286Y-81325442D02*
X136471428Y-81368300D01*
X136471428Y-81368300D02*
X136385714Y-81411157D01*
X136385714Y-81411157D02*
X136257143Y-81411157D01*
X137328572Y-80811157D02*
X137328572Y-81539728D01*
X137328572Y-81539728D02*
X137285714Y-81625442D01*
X137285714Y-81625442D02*
X137242857Y-81668300D01*
X137242857Y-81668300D02*
X137157143Y-81711157D01*
X137157143Y-81711157D02*
X137028572Y-81711157D01*
X137028572Y-81711157D02*
X136942857Y-81668300D01*
X137328572Y-81368300D02*
X137242857Y-81411157D01*
X137242857Y-81411157D02*
X137071429Y-81411157D01*
X137071429Y-81411157D02*
X136985714Y-81368300D01*
X136985714Y-81368300D02*
X136942857Y-81325442D01*
X136942857Y-81325442D02*
X136900000Y-81239728D01*
X136900000Y-81239728D02*
X136900000Y-80982585D01*
X136900000Y-80982585D02*
X136942857Y-80896871D01*
X136942857Y-80896871D02*
X136985714Y-80854014D01*
X136985714Y-80854014D02*
X137071429Y-80811157D01*
X137071429Y-80811157D02*
X137242857Y-80811157D01*
X137242857Y-80811157D02*
X137328572Y-80854014D01*
D11*
X126898480Y-99335285D02*
X127788957Y-99335285D01*
X127788957Y-99335285D02*
X127893719Y-99278142D01*
X127893719Y-99278142D02*
X127946100Y-99221000D01*
X127946100Y-99221000D02*
X127998480Y-99106714D01*
X127998480Y-99106714D02*
X127998480Y-98878142D01*
X127998480Y-98878142D02*
X127946100Y-98763857D01*
X127946100Y-98763857D02*
X127893719Y-98706714D01*
X127893719Y-98706714D02*
X127788957Y-98649571D01*
X127788957Y-98649571D02*
X126898480Y-98649571D01*
X127684195Y-98135285D02*
X127684195Y-97563857D01*
X127998480Y-98249571D02*
X126898480Y-97849571D01*
X126898480Y-97849571D02*
X127998480Y-97449571D01*
X127998480Y-96363857D02*
X127474671Y-96763857D01*
X127998480Y-97049571D02*
X126898480Y-97049571D01*
X126898480Y-97049571D02*
X126898480Y-96592428D01*
X126898480Y-96592428D02*
X126950861Y-96478143D01*
X126950861Y-96478143D02*
X127003242Y-96421000D01*
X127003242Y-96421000D02*
X127108004Y-96363857D01*
X127108004Y-96363857D02*
X127265147Y-96363857D01*
X127265147Y-96363857D02*
X127369909Y-96421000D01*
X127369909Y-96421000D02*
X127422290Y-96478143D01*
X127422290Y-96478143D02*
X127474671Y-96592428D01*
X127474671Y-96592428D02*
X127474671Y-97049571D01*
X126898480Y-96021000D02*
X126898480Y-95335286D01*
X127998480Y-95678143D02*
X126898480Y-95678143D01*
D13*
X153121572Y-94942185D02*
X153193000Y-94870757D01*
X153193000Y-94870757D02*
X153335858Y-94799328D01*
X153335858Y-94799328D02*
X153693000Y-94799328D01*
X153693000Y-94799328D02*
X153835858Y-94870757D01*
X153835858Y-94870757D02*
X153907286Y-94942185D01*
X153907286Y-94942185D02*
X153978715Y-95085042D01*
X153978715Y-95085042D02*
X153978715Y-95227900D01*
X153978715Y-95227900D02*
X153907286Y-95442185D01*
X153907286Y-95442185D02*
X153050143Y-96299328D01*
X153050143Y-96299328D02*
X153978715Y-96299328D01*
X154907286Y-94799328D02*
X155050143Y-94799328D01*
X155050143Y-94799328D02*
X155193000Y-94870757D01*
X155193000Y-94870757D02*
X155264429Y-94942185D01*
X155264429Y-94942185D02*
X155335857Y-95085042D01*
X155335857Y-95085042D02*
X155407286Y-95370757D01*
X155407286Y-95370757D02*
X155407286Y-95727900D01*
X155407286Y-95727900D02*
X155335857Y-96013614D01*
X155335857Y-96013614D02*
X155264429Y-96156471D01*
X155264429Y-96156471D02*
X155193000Y-96227900D01*
X155193000Y-96227900D02*
X155050143Y-96299328D01*
X155050143Y-96299328D02*
X154907286Y-96299328D01*
X154907286Y-96299328D02*
X154764429Y-96227900D01*
X154764429Y-96227900D02*
X154693000Y-96156471D01*
X154693000Y-96156471D02*
X154621571Y-96013614D01*
X154621571Y-96013614D02*
X154550143Y-95727900D01*
X154550143Y-95727900D02*
X154550143Y-95370757D01*
X154550143Y-95370757D02*
X154621571Y-95085042D01*
X154621571Y-95085042D02*
X154693000Y-94942185D01*
X154693000Y-94942185D02*
X154764429Y-94870757D01*
X154764429Y-94870757D02*
X154907286Y-94799328D01*
X155978714Y-94942185D02*
X156050142Y-94870757D01*
X156050142Y-94870757D02*
X156193000Y-94799328D01*
X156193000Y-94799328D02*
X156550142Y-94799328D01*
X156550142Y-94799328D02*
X156693000Y-94870757D01*
X156693000Y-94870757D02*
X156764428Y-94942185D01*
X156764428Y-94942185D02*
X156835857Y-95085042D01*
X156835857Y-95085042D02*
X156835857Y-95227900D01*
X156835857Y-95227900D02*
X156764428Y-95442185D01*
X156764428Y-95442185D02*
X155907285Y-96299328D01*
X155907285Y-96299328D02*
X156835857Y-96299328D01*
X157407285Y-94942185D02*
X157478713Y-94870757D01*
X157478713Y-94870757D02*
X157621571Y-94799328D01*
X157621571Y-94799328D02*
X157978713Y-94799328D01*
X157978713Y-94799328D02*
X158121571Y-94870757D01*
X158121571Y-94870757D02*
X158192999Y-94942185D01*
X158192999Y-94942185D02*
X158264428Y-95085042D01*
X158264428Y-95085042D02*
X158264428Y-95227900D01*
X158264428Y-95227900D02*
X158192999Y-95442185D01*
X158192999Y-95442185D02*
X157335856Y-96299328D01*
X157335856Y-96299328D02*
X158264428Y-96299328D01*
X167287757Y-99849570D02*
X167287757Y-99135285D01*
X167716328Y-99992427D02*
X166216328Y-99492427D01*
X166216328Y-99492427D02*
X167716328Y-98992427D01*
X167716328Y-98492428D02*
X166216328Y-98492428D01*
X166216328Y-98492428D02*
X167716328Y-97635285D01*
X167716328Y-97635285D02*
X166216328Y-97635285D01*
X166216328Y-97135284D02*
X166216328Y-96278142D01*
X167716328Y-96706713D02*
X166216328Y-96706713D01*
X166359185Y-95849570D02*
X166287757Y-95778142D01*
X166287757Y-95778142D02*
X166216328Y-95635285D01*
X166216328Y-95635285D02*
X166216328Y-95278142D01*
X166216328Y-95278142D02*
X166287757Y-95135285D01*
X166287757Y-95135285D02*
X166359185Y-95063856D01*
X166359185Y-95063856D02*
X166502042Y-94992427D01*
X166502042Y-94992427D02*
X166644900Y-94992427D01*
X166644900Y-94992427D02*
X166859185Y-95063856D01*
X166859185Y-95063856D02*
X167716328Y-95920999D01*
X167716328Y-95920999D02*
X167716328Y-94992427D01*
D15*
%TO.C,J2*%
X125880457Y-83712109D02*
X125594743Y-83712109D01*
X125737600Y-83712109D02*
X125737600Y-83212109D01*
X125737600Y-83212109D02*
X125689981Y-83283538D01*
X125689981Y-83283538D02*
X125642362Y-83331157D01*
X125642362Y-83331157D02*
X125594743Y-83354966D01*
%TO.C,G\u002A\u002A\u002A*%
G36*
X158691626Y-85819804D02*
G01*
X158688795Y-85834483D01*
X158682467Y-85869227D01*
X158672952Y-85922297D01*
X158660555Y-85991950D01*
X158645586Y-86076448D01*
X158628351Y-86174049D01*
X158609158Y-86283012D01*
X158588316Y-86401599D01*
X158566132Y-86528067D01*
X158542914Y-86660676D01*
X158540448Y-86674771D01*
X158517160Y-86807754D01*
X158494880Y-86934651D01*
X158473913Y-87053738D01*
X158454567Y-87163289D01*
X158437149Y-87261579D01*
X158421963Y-87346882D01*
X158409318Y-87417473D01*
X158399519Y-87471626D01*
X158392873Y-87507616D01*
X158389687Y-87523717D01*
X158389560Y-87524205D01*
X158385220Y-87531861D01*
X158375194Y-87537206D01*
X158356051Y-87540646D01*
X158324362Y-87542583D01*
X158276696Y-87543421D01*
X158225148Y-87543573D01*
X158162895Y-87543371D01*
X158119557Y-87542496D01*
X158091916Y-87540543D01*
X158076754Y-87537109D01*
X158070853Y-87531788D01*
X158070987Y-87524205D01*
X158073580Y-87510419D01*
X158079672Y-87476559D01*
X158088956Y-87424356D01*
X158101129Y-87355542D01*
X158115886Y-87271848D01*
X158132921Y-87175005D01*
X158151929Y-87066746D01*
X158172606Y-86948801D01*
X158194648Y-86822902D01*
X158217748Y-86690781D01*
X158219578Y-86680305D01*
X158242804Y-86547435D01*
X158265031Y-86420401D01*
X158285950Y-86300966D01*
X158305253Y-86190891D01*
X158322628Y-86091939D01*
X158337766Y-86005872D01*
X158350358Y-85934452D01*
X158360095Y-85879440D01*
X158366665Y-85842600D01*
X158369760Y-85825693D01*
X158369831Y-85825337D01*
X158376028Y-85794902D01*
X158697628Y-85794902D01*
X158691626Y-85819804D01*
G37*
G36*
X157342833Y-85795484D02*
G01*
X157389835Y-85797299D01*
X157418916Y-85800549D01*
X157432170Y-85805408D01*
X157433529Y-85808203D01*
X157431655Y-85820963D01*
X157426230Y-85853836D01*
X157417543Y-85905133D01*
X157405888Y-85973169D01*
X157391556Y-86056255D01*
X157374839Y-86152707D01*
X157356029Y-86260836D01*
X157335418Y-86378955D01*
X157313298Y-86505379D01*
X157289960Y-86638420D01*
X157284117Y-86671678D01*
X157260534Y-86806005D01*
X157238096Y-86934073D01*
X157217096Y-87054201D01*
X157197824Y-87164709D01*
X157180572Y-87263916D01*
X157165632Y-87350141D01*
X157153295Y-87421705D01*
X157143854Y-87476926D01*
X157137599Y-87514125D01*
X157134822Y-87531620D01*
X157134705Y-87532713D01*
X157124043Y-87537055D01*
X157093644Y-87540416D01*
X157045892Y-87542637D01*
X156983170Y-87543557D01*
X156972843Y-87543573D01*
X156810980Y-87543573D01*
X156816726Y-87513137D01*
X156819514Y-87497593D01*
X156825814Y-87461985D01*
X156835320Y-87408052D01*
X156847725Y-87337535D01*
X156862726Y-87252173D01*
X156880015Y-87153706D01*
X156899288Y-87043872D01*
X156920239Y-86924413D01*
X156942562Y-86797067D01*
X156965953Y-86663574D01*
X156970288Y-86638826D01*
X157118104Y-85794950D01*
X157275817Y-85794926D01*
X157342833Y-85795484D01*
G37*
G36*
X159905090Y-85796443D02*
G01*
X159932911Y-85797931D01*
X159948602Y-85801175D01*
X159955494Y-85806517D01*
X159956928Y-85813517D01*
X159955049Y-85827232D01*
X159949609Y-85861041D01*
X159940901Y-85913240D01*
X159929218Y-85982126D01*
X159914852Y-86065996D01*
X159898097Y-86163148D01*
X159879245Y-86271876D01*
X159858591Y-86390480D01*
X159836426Y-86517254D01*
X159813044Y-86650496D01*
X159807516Y-86681931D01*
X159783933Y-86816041D01*
X159761496Y-86943790D01*
X159740496Y-87063508D01*
X159721224Y-87173525D01*
X159703973Y-87272173D01*
X159689033Y-87357782D01*
X159676696Y-87428682D01*
X159667254Y-87483204D01*
X159660998Y-87519679D01*
X159658221Y-87536436D01*
X159658104Y-87537347D01*
X159647686Y-87539548D01*
X159619024Y-87541408D01*
X159576009Y-87542774D01*
X159522534Y-87543497D01*
X159497625Y-87543573D01*
X159440941Y-87543034D01*
X159393121Y-87541553D01*
X159358037Y-87539329D01*
X159339562Y-87536565D01*
X159337688Y-87535272D01*
X159339650Y-87523324D01*
X159345168Y-87491238D01*
X159353952Y-87440676D01*
X159365709Y-87373297D01*
X159380151Y-87290762D01*
X159396984Y-87194733D01*
X159415920Y-87086870D01*
X159436666Y-86968833D01*
X159458931Y-86842283D01*
X159482425Y-86708881D01*
X159490387Y-86663703D01*
X159642543Y-85800435D01*
X159799735Y-85797365D01*
X159861809Y-85796368D01*
X159905090Y-85796443D01*
G37*
G36*
X160617847Y-81445660D02*
G01*
X160665530Y-81446489D01*
X160700481Y-81447731D01*
X160718795Y-81449275D01*
X160720588Y-81449964D01*
X160718720Y-81461743D01*
X160713351Y-81493305D01*
X160704836Y-81542639D01*
X160693529Y-81607732D01*
X160679784Y-81686570D01*
X160663955Y-81777142D01*
X160646396Y-81877434D01*
X160627461Y-81985433D01*
X160607504Y-82099127D01*
X160586880Y-82216503D01*
X160565943Y-82335549D01*
X160545045Y-82454251D01*
X160524543Y-82570596D01*
X160504790Y-82682573D01*
X160486139Y-82788168D01*
X160468945Y-82885368D01*
X160453562Y-82972161D01*
X160440345Y-83046534D01*
X160429647Y-83106474D01*
X160421822Y-83149968D01*
X160417225Y-83175005D01*
X160416196Y-83180196D01*
X160413085Y-83189930D01*
X160406833Y-83196726D01*
X160393942Y-83201113D01*
X160370917Y-83203616D01*
X160334262Y-83204764D01*
X160280480Y-83205084D01*
X160251043Y-83205098D01*
X160188668Y-83204897D01*
X160145214Y-83204026D01*
X160117466Y-83202083D01*
X160102212Y-83198666D01*
X160096238Y-83193372D01*
X160096331Y-83185798D01*
X160096347Y-83185730D01*
X160098942Y-83171944D01*
X160105037Y-83138085D01*
X160114328Y-83085883D01*
X160126509Y-83017070D01*
X160141275Y-82933378D01*
X160158322Y-82836537D01*
X160177343Y-82728279D01*
X160198035Y-82610336D01*
X160220091Y-82484440D01*
X160243208Y-82352321D01*
X160245042Y-82341830D01*
X160268303Y-82208793D01*
X160290571Y-82081467D01*
X160311532Y-81961627D01*
X160330878Y-81851052D01*
X160348295Y-81751519D01*
X160363474Y-81664805D01*
X160376103Y-81592687D01*
X160385872Y-81536944D01*
X160392468Y-81499352D01*
X160395582Y-81481689D01*
X160395646Y-81481329D01*
X160402093Y-81445359D01*
X160561340Y-81445359D01*
X160617847Y-81445660D01*
G37*
G36*
X158191814Y-81470261D02*
G01*
X158189015Y-81484953D01*
X158182722Y-81519705D01*
X158173244Y-81572769D01*
X158160889Y-81642399D01*
X158145965Y-81726847D01*
X158128780Y-81824368D01*
X158109642Y-81933214D01*
X158088860Y-82051638D01*
X158066742Y-82177894D01*
X158043596Y-82310235D01*
X158041943Y-82319695D01*
X158018715Y-82452564D01*
X157996486Y-82579598D01*
X157975566Y-82699033D01*
X157956264Y-82809107D01*
X157938890Y-82908059D01*
X157923753Y-82994126D01*
X157911163Y-83065547D01*
X157901431Y-83120558D01*
X157894865Y-83157399D01*
X157891775Y-83174307D01*
X157891704Y-83174662D01*
X157885539Y-83205098D01*
X157563940Y-83205098D01*
X157569940Y-83180196D01*
X157572789Y-83165438D01*
X157579124Y-83130654D01*
X157588632Y-83077622D01*
X157600998Y-83008122D01*
X157615907Y-82923933D01*
X157633044Y-82826835D01*
X157652096Y-82718606D01*
X157672747Y-82601026D01*
X157694683Y-82475875D01*
X157715230Y-82358431D01*
X157738233Y-82226945D01*
X157760368Y-82100646D01*
X157781303Y-81981412D01*
X157800706Y-81871118D01*
X157818246Y-81771644D01*
X157833593Y-81684866D01*
X157846413Y-81612662D01*
X157856376Y-81556909D01*
X157863151Y-81519484D01*
X157866159Y-81503464D01*
X157877800Y-81445359D01*
X158197611Y-81445359D01*
X158191814Y-81470261D01*
G37*
G36*
X147572352Y-84311852D02*
G01*
X148380283Y-84311852D01*
X148380283Y-83625664D01*
X148701241Y-83625664D01*
X148701241Y-85374335D01*
X148380283Y-85374335D01*
X148380283Y-84621743D01*
X147572352Y-84621743D01*
X147572352Y-85374335D01*
X147251394Y-85374335D01*
X147251394Y-83625664D01*
X147572352Y-83625664D01*
X147572352Y-84311852D01*
G37*
G36*
X147074313Y-83935555D02*
G01*
X146576274Y-83935555D01*
X146576274Y-85374335D01*
X146255315Y-85374335D01*
X146255315Y-83935555D01*
X145757276Y-83935555D01*
X145757276Y-83625664D01*
X147074313Y-83625664D01*
X147074313Y-83935555D01*
G37*
G36*
X158116459Y-83625861D02*
G01*
X158214031Y-83626347D01*
X158302357Y-83627119D01*
X158379268Y-83628143D01*
X158442596Y-83629384D01*
X158490172Y-83630807D01*
X158519828Y-83632378D01*
X158529428Y-83633965D01*
X158527748Y-83647394D01*
X158522996Y-83678346D01*
X158515855Y-83722530D01*
X158507009Y-83775656D01*
X158504793Y-83788762D01*
X158479945Y-83935259D01*
X158120569Y-83938174D01*
X157761194Y-83941089D01*
X157730707Y-84107102D01*
X157720020Y-84166346D01*
X157710896Y-84218902D01*
X157704060Y-84260442D01*
X157700237Y-84286634D01*
X157699686Y-84292483D01*
X157700894Y-84298461D01*
X157706572Y-84303070D01*
X157719239Y-84306487D01*
X157741414Y-84308887D01*
X157775619Y-84310447D01*
X157824373Y-84311344D01*
X157890196Y-84311753D01*
X157975608Y-84311852D01*
X157976584Y-84311852D01*
X158062074Y-84311940D01*
X158127902Y-84312323D01*
X158176543Y-84313177D01*
X158210469Y-84314677D01*
X158232154Y-84317002D01*
X158244072Y-84320325D01*
X158248696Y-84324825D01*
X158248500Y-84330676D01*
X158248347Y-84331220D01*
X158244661Y-84347874D01*
X158238314Y-84380394D01*
X158230252Y-84423530D01*
X158221417Y-84472031D01*
X158212755Y-84520647D01*
X158205209Y-84564127D01*
X158199724Y-84597220D01*
X158197244Y-84614678D01*
X158197189Y-84615689D01*
X158186613Y-84617337D01*
X158156851Y-84618815D01*
X158110852Y-84620060D01*
X158051563Y-84621008D01*
X157981935Y-84621594D01*
X157917734Y-84621760D01*
X157638278Y-84621778D01*
X157595706Y-84868013D01*
X157581660Y-84949181D01*
X157567261Y-85032246D01*
X157553495Y-85111544D01*
X157541343Y-85181414D01*
X157531788Y-85236192D01*
X157530372Y-85244292D01*
X157507609Y-85374335D01*
X157347536Y-85374335D01*
X157285157Y-85374247D01*
X157241651Y-85373635D01*
X157213754Y-85371976D01*
X157198204Y-85368747D01*
X157191739Y-85363425D01*
X157191096Y-85355488D01*
X157192113Y-85349433D01*
X157194722Y-85334799D01*
X157200849Y-85300080D01*
X157210190Y-85246995D01*
X157222444Y-85177263D01*
X157237310Y-85092603D01*
X157254486Y-84994733D01*
X157273670Y-84885372D01*
X157294561Y-84766239D01*
X157316856Y-84639052D01*
X157340255Y-84505531D01*
X157345582Y-84475129D01*
X157494400Y-83625726D01*
X158011808Y-83625695D01*
X158116459Y-83625861D01*
G37*
G36*
X156213021Y-83625762D02*
G01*
X156297461Y-83626144D01*
X156365250Y-83626939D01*
X156419128Y-83628279D01*
X156461839Y-83630295D01*
X156496123Y-83633117D01*
X156524722Y-83636876D01*
X156550378Y-83641704D01*
X156575832Y-83647730D01*
X156576791Y-83647974D01*
X156685303Y-83684397D01*
X156776004Y-83733936D01*
X156849061Y-83796804D01*
X156904638Y-83873213D01*
X156942900Y-83963378D01*
X156964013Y-84067511D01*
X156968692Y-84154190D01*
X156960664Y-84265615D01*
X156936090Y-84363068D01*
X156894235Y-84448069D01*
X156834363Y-84522135D01*
X156761197Y-84583006D01*
X156725631Y-84608735D01*
X156698216Y-84630130D01*
X156683169Y-84643834D01*
X156681555Y-84646449D01*
X156686444Y-84657549D01*
X156700456Y-84685494D01*
X156722195Y-84727650D01*
X156750263Y-84781388D01*
X156783265Y-84844074D01*
X156819803Y-84913077D01*
X156858481Y-84985766D01*
X156897903Y-85059509D01*
X156936673Y-85131673D01*
X156973393Y-85199628D01*
X157006667Y-85260742D01*
X157031098Y-85305163D01*
X157069384Y-85374335D01*
X156888994Y-85374102D01*
X156708605Y-85373868D01*
X156540803Y-85050376D01*
X156373002Y-84726884D01*
X156211544Y-84723822D01*
X156050087Y-84720759D01*
X156050087Y-85374335D01*
X155729128Y-85374335D01*
X155729128Y-84457961D01*
X156050087Y-84457961D01*
X156235468Y-84454079D01*
X156304005Y-84452497D01*
X156354704Y-84450634D01*
X156391856Y-84447857D01*
X156419755Y-84443531D01*
X156442695Y-84437023D01*
X156464968Y-84427701D01*
X156486774Y-84416993D01*
X156550265Y-84376416D01*
X156594591Y-84327255D01*
X156621909Y-84266871D01*
X156627372Y-84244933D01*
X156635826Y-84162067D01*
X156626012Y-84086489D01*
X156598924Y-84020593D01*
X156555554Y-83966773D01*
X156496897Y-83927422D01*
X156495351Y-83926695D01*
X156470815Y-83915834D01*
X156448029Y-83907894D01*
X156422780Y-83902318D01*
X156390851Y-83898550D01*
X156348029Y-83896032D01*
X156290097Y-83894208D01*
X156241002Y-83893103D01*
X156050087Y-83889095D01*
X156050087Y-84457961D01*
X155729128Y-84457961D01*
X155729128Y-83625664D01*
X156109188Y-83625664D01*
X156213021Y-83625762D01*
G37*
G36*
X160819715Y-83626334D02*
G01*
X160867714Y-83627692D01*
X160897752Y-83630266D01*
X160911905Y-83634218D01*
X160913116Y-83638599D01*
X160904986Y-83649588D01*
X160884568Y-83676403D01*
X160853143Y-83717382D01*
X160811992Y-83770862D01*
X160762396Y-83835181D01*
X160705636Y-83908678D01*
X160642994Y-83989688D01*
X160575751Y-84076551D01*
X160543507Y-84118170D01*
X160474641Y-84207074D01*
X160409835Y-84290810D01*
X160350364Y-84367727D01*
X160297499Y-84436174D01*
X160252515Y-84494503D01*
X160216684Y-84541062D01*
X160191280Y-84574201D01*
X160177575Y-84592271D01*
X160175542Y-84595082D01*
X160172617Y-84607224D01*
X160166377Y-84638123D01*
X160157376Y-84684745D01*
X160146166Y-84744053D01*
X160133303Y-84813012D01*
X160119340Y-84888584D01*
X160104832Y-84967735D01*
X160090331Y-85047427D01*
X160076392Y-85124626D01*
X160063570Y-85196295D01*
X160052417Y-85259398D01*
X160043489Y-85310899D01*
X160037338Y-85347762D01*
X160034520Y-85366951D01*
X160034400Y-85368610D01*
X160023981Y-85370633D01*
X159995316Y-85372342D01*
X159952294Y-85373599D01*
X159898803Y-85374265D01*
X159873710Y-85374335D01*
X159713020Y-85374335D01*
X159718809Y-85349433D01*
X159722885Y-85329116D01*
X159729896Y-85291155D01*
X159739301Y-85238705D01*
X159750558Y-85174923D01*
X159763124Y-85102965D01*
X159776458Y-85025986D01*
X159790019Y-84947142D01*
X159803264Y-84869589D01*
X159815651Y-84796484D01*
X159826639Y-84730982D01*
X159835685Y-84676240D01*
X159842249Y-84635412D01*
X159845787Y-84611656D01*
X159846252Y-84607172D01*
X159842071Y-84593823D01*
X159830100Y-84562220D01*
X159811204Y-84514485D01*
X159786243Y-84452737D01*
X159756082Y-84379099D01*
X159721581Y-84295690D01*
X159683603Y-84204632D01*
X159651201Y-84127475D01*
X159610896Y-84031645D01*
X159573161Y-83941656D01*
X159538887Y-83859651D01*
X159508962Y-83787769D01*
X159484277Y-83728154D01*
X159465722Y-83682945D01*
X159454187Y-83654285D01*
X159450618Y-83644737D01*
X159449919Y-83637255D01*
X159454819Y-83632057D01*
X159468438Y-83628827D01*
X159493899Y-83627245D01*
X159534324Y-83626997D01*
X159592834Y-83627763D01*
X159613967Y-83628135D01*
X159782848Y-83631198D01*
X159921106Y-83971525D01*
X159954342Y-84052804D01*
X159985150Y-84127130D01*
X160012509Y-84192113D01*
X160035394Y-84245364D01*
X160052784Y-84284495D01*
X160063655Y-84307117D01*
X160066817Y-84311852D01*
X160074841Y-84303260D01*
X160094521Y-84278767D01*
X160124389Y-84240298D01*
X160162977Y-84189776D01*
X160208817Y-84129125D01*
X160260442Y-84060271D01*
X160316383Y-83985137D01*
X160328257Y-83969125D01*
X160582244Y-83626399D01*
X160751677Y-83626032D01*
X160819715Y-83626334D01*
G37*
G36*
X152976078Y-83628589D02*
G01*
X153091501Y-83629891D01*
X153187477Y-83631340D01*
X153266695Y-83633315D01*
X153331841Y-83636193D01*
X153385603Y-83640354D01*
X153430669Y-83646177D01*
X153469725Y-83654040D01*
X153505461Y-83664321D01*
X153540562Y-83677400D01*
X153577717Y-83693655D01*
X153619613Y-83713464D01*
X153636616Y-83721656D01*
X153690419Y-83749270D01*
X153733967Y-83776485D01*
X153774796Y-83808749D01*
X153820443Y-83851512D01*
X153831836Y-83862826D01*
X153877651Y-83910562D01*
X153911773Y-83951839D01*
X153939657Y-83994197D01*
X153966756Y-84045177D01*
X153973031Y-84058045D01*
X154003538Y-84123766D01*
X154026351Y-84180584D01*
X154042552Y-84233817D01*
X154053222Y-84288782D01*
X154059441Y-84350797D01*
X154062291Y-84425179D01*
X154062872Y-84500000D01*
X154061982Y-84589037D01*
X154058589Y-84661250D01*
X154051613Y-84721906D01*
X154039972Y-84776271D01*
X154022584Y-84829610D01*
X153998369Y-84887189D01*
X153971952Y-84942701D01*
X153906783Y-85050757D01*
X153824605Y-85145652D01*
X153727334Y-85225705D01*
X153616888Y-85289235D01*
X153542179Y-85319746D01*
X153500252Y-85333685D01*
X153460118Y-85345064D01*
X153418960Y-85354136D01*
X153373956Y-85361153D01*
X153322287Y-85366370D01*
X153261134Y-85370038D01*
X153187676Y-85372410D01*
X153099094Y-85373741D01*
X152992568Y-85374282D01*
X152933601Y-85374335D01*
X152552745Y-85374335D01*
X152552745Y-85088420D01*
X152873703Y-85088420D01*
X153366209Y-85081046D01*
X153440369Y-85045913D01*
X153525366Y-84994450D01*
X153594763Y-84927870D01*
X153648678Y-84845945D01*
X153687227Y-84748447D01*
X153710525Y-84635149D01*
X153718688Y-84505823D01*
X153718702Y-84500000D01*
X153711175Y-84369991D01*
X153688520Y-84256020D01*
X153650618Y-84157859D01*
X153597355Y-84075280D01*
X153528614Y-84008056D01*
X153444279Y-83955959D01*
X153440369Y-83954087D01*
X153366209Y-83918954D01*
X153119956Y-83915426D01*
X152873703Y-83911899D01*
X152873703Y-85088420D01*
X152552745Y-85088420D01*
X152552745Y-83624038D01*
X152976078Y-83628589D01*
G37*
G36*
X149356695Y-84203943D02*
G01*
X149357548Y-84332086D01*
X149358371Y-84440094D01*
X149359251Y-84529966D01*
X149360276Y-84603703D01*
X149361532Y-84663304D01*
X149363105Y-84710769D01*
X149365082Y-84748097D01*
X149367550Y-84777288D01*
X149370595Y-84800342D01*
X149374305Y-84819259D01*
X149378765Y-84836039D01*
X149384062Y-84852680D01*
X149384916Y-84855233D01*
X149422862Y-84939125D01*
X149474606Y-85005713D01*
X149540129Y-85054987D01*
X149619410Y-85086935D01*
X149712431Y-85101548D01*
X149819171Y-85098814D01*
X149826791Y-85098013D01*
X149914627Y-85080050D01*
X149987992Y-85046605D01*
X150047527Y-84996966D01*
X150093874Y-84930422D01*
X150127673Y-84846261D01*
X150149566Y-84743772D01*
X150150243Y-84738996D01*
X150153066Y-84706965D01*
X150155583Y-84654838D01*
X150157752Y-84584652D01*
X150159533Y-84498445D01*
X150160887Y-84398255D01*
X150161771Y-84286118D01*
X150162146Y-84164072D01*
X150162156Y-84139504D01*
X150162156Y-83625664D01*
X150483115Y-83625664D01*
X150483115Y-84167173D01*
X150482969Y-84306090D01*
X150482440Y-84425000D01*
X150481389Y-84526032D01*
X150479681Y-84611314D01*
X150477178Y-84682971D01*
X150473742Y-84743133D01*
X150469237Y-84793927D01*
X150463525Y-84837480D01*
X150456468Y-84875920D01*
X150447931Y-84911375D01*
X150437775Y-84945971D01*
X150431675Y-84964730D01*
X150383806Y-85078184D01*
X150321370Y-85175002D01*
X150244149Y-85255405D01*
X150151926Y-85319609D01*
X150044484Y-85367832D01*
X150023812Y-85374736D01*
X149963218Y-85388858D01*
X149887429Y-85398773D01*
X149803016Y-85404318D01*
X149716548Y-85405328D01*
X149634594Y-85401642D01*
X149563722Y-85393094D01*
X149534408Y-85386924D01*
X149419430Y-85347846D01*
X149319255Y-85292597D01*
X149233552Y-85220845D01*
X149161990Y-85132262D01*
X149104235Y-85026518D01*
X149064987Y-84920385D01*
X149059539Y-84901895D01*
X149054926Y-84883957D01*
X149051064Y-84864601D01*
X149047870Y-84841855D01*
X149045261Y-84813749D01*
X149043155Y-84778312D01*
X149041468Y-84733572D01*
X149040116Y-84677559D01*
X149039018Y-84608301D01*
X149038090Y-84523829D01*
X149037248Y-84422171D01*
X149036410Y-84301355D01*
X149035957Y-84231612D01*
X149032056Y-83625664D01*
X149352965Y-83625664D01*
X149356695Y-84203943D01*
G37*
G36*
X151505645Y-84187342D02*
G01*
X151877552Y-84749019D01*
X151877588Y-84187342D01*
X151877625Y-83625664D01*
X152198583Y-83625664D01*
X152198583Y-85374335D01*
X151936552Y-85374335D01*
X151136124Y-84173507D01*
X151136100Y-85374335D01*
X150815141Y-85374335D01*
X150815141Y-83625664D01*
X151133738Y-83625664D01*
X151505645Y-84187342D01*
G37*
G36*
X158894230Y-83627793D02*
G01*
X158912782Y-83628118D01*
X159066993Y-83631198D01*
X158948554Y-84306318D01*
X158927414Y-84426872D01*
X158907267Y-84541863D01*
X158888465Y-84649282D01*
X158871357Y-84747120D01*
X158856295Y-84833367D01*
X158843630Y-84906014D01*
X158833712Y-84963051D01*
X158826893Y-85002468D01*
X158823524Y-85022257D01*
X158823413Y-85022941D01*
X158816710Y-85064444D01*
X159115664Y-85064444D01*
X159205244Y-85064552D01*
X159275095Y-85064972D01*
X159327623Y-85065849D01*
X159365234Y-85067329D01*
X159390333Y-85069557D01*
X159405325Y-85072679D01*
X159412617Y-85076840D01*
X159414614Y-85082185D01*
X159414618Y-85082508D01*
X159412767Y-85099930D01*
X159407719Y-85134263D01*
X159400231Y-85180642D01*
X159391063Y-85234197D01*
X159390490Y-85237453D01*
X159366361Y-85374335D01*
X158903518Y-85374335D01*
X158804736Y-85374271D01*
X158713178Y-85374089D01*
X158631132Y-85373802D01*
X158560887Y-85373423D01*
X158504733Y-85372967D01*
X158464958Y-85372447D01*
X158443852Y-85371877D01*
X158441014Y-85371568D01*
X158443904Y-85352865D01*
X158450248Y-85315101D01*
X158459691Y-85260276D01*
X158471873Y-85190387D01*
X158486438Y-85107432D01*
X158503028Y-85013410D01*
X158521286Y-84910318D01*
X158540854Y-84800154D01*
X158561374Y-84684916D01*
X158582490Y-84566603D01*
X158603842Y-84447213D01*
X158625075Y-84328742D01*
X158645831Y-84213191D01*
X158665751Y-84102555D01*
X158684479Y-83998835D01*
X158701657Y-83904026D01*
X158716927Y-83820129D01*
X158729933Y-83749140D01*
X158740315Y-83693058D01*
X158747718Y-83653880D01*
X158751783Y-83633605D01*
X158752427Y-83631182D01*
X158765140Y-83629169D01*
X158795799Y-83627881D01*
X158840223Y-83627395D01*
X158894230Y-83627793D01*
G37*
G36*
X159445765Y-81475795D02*
G01*
X159443165Y-81491323D01*
X159437041Y-81526920D01*
X159427697Y-81580852D01*
X159415434Y-81651387D01*
X159400554Y-81736791D01*
X159383361Y-81835330D01*
X159364155Y-81945272D01*
X159343240Y-82064883D01*
X159320918Y-82192431D01*
X159297490Y-82326181D01*
X159292330Y-82355625D01*
X159143464Y-83205018D01*
X158985751Y-83205058D01*
X158921062Y-83204638D01*
X158875721Y-83203167D01*
X158846957Y-83200390D01*
X158831995Y-83196050D01*
X158828039Y-83190447D01*
X158829915Y-83177180D01*
X158835307Y-83144155D01*
X158843857Y-83093401D01*
X158855209Y-83026950D01*
X158869007Y-82946832D01*
X158884893Y-82855076D01*
X158902511Y-82753712D01*
X158921504Y-82644772D01*
X158941517Y-82530286D01*
X158962191Y-82412282D01*
X158983171Y-82292792D01*
X159004099Y-82173847D01*
X159024620Y-82057475D01*
X159044376Y-81945707D01*
X159063011Y-81840574D01*
X159080169Y-81744106D01*
X159095492Y-81658333D01*
X159108624Y-81585285D01*
X159119209Y-81526992D01*
X159126889Y-81485484D01*
X159131308Y-81462792D01*
X159132161Y-81459194D01*
X159141023Y-81453270D01*
X159164093Y-81449138D01*
X159203671Y-81446603D01*
X159262057Y-81445467D01*
X159293784Y-81445359D01*
X159450333Y-81445359D01*
X159445765Y-81475795D01*
G37*
G36*
X155452440Y-83935555D02*
G01*
X154655577Y-83935555D01*
X154655577Y-84311852D01*
X155264291Y-84311852D01*
X155264291Y-84621743D01*
X154655577Y-84621743D01*
X154655577Y-85064444D01*
X155474575Y-85064444D01*
X155474575Y-85374335D01*
X154323551Y-85374335D01*
X154323551Y-83625664D01*
X155452440Y-83625664D01*
X155452440Y-83935555D01*
G37*
D10*
%TO.C,J2*%
X126118600Y-89833400D02*
X126118600Y-82213400D01*
X131198600Y-89833400D02*
X126118600Y-89833400D01*
X131198600Y-82213400D02*
X131198600Y-89833400D01*
X126118600Y-82213400D02*
X131198600Y-82213400D01*
%TD*%
M02*
