%TF.GenerationSoftware,KiCad,Pcbnew,9.0.1+1*%
%TF.CreationDate,2025-11-06T21:37:25+00:00*%
%TF.ProjectId,TFSIK01,54465349-4b30-4312-9e6b-696361645f70,rev?*%
%TF.SameCoordinates,Original*%
%TF.FileFunction,Copper,L1,Top*%
%TF.FilePolarity,Positive*%
%FSLAX46Y46*%
G04 Gerber Fmt 4.6, Leading zero omitted, Abs format (unit mm)*
G04 Created by KiCad (PCBNEW 9.0.1+1) date 2025-11-06 21:37:25*
%MOMM*%
%LPD*%
G01*
G04 APERTURE LIST*
%ADD10C,0.100000*%
%ADD11C,0.180000*%
%TA.AperFunction,SMDPad,CuDef*%
%ADD12R,1.524000X1.524000*%
%TD*%
%TA.AperFunction,HeatsinkPad*%
%ADD13C,0.500000*%
%TD*%
%TA.AperFunction,HeatsinkPad*%
%ADD14R,4.100000X3.600000*%
%TD*%
%TA.AperFunction,ComponentPad*%
%ADD15C,0.300000*%
%TD*%
%TA.AperFunction,ComponentPad*%
%ADD16R,8.350000X1.500000*%
%TD*%
%TA.AperFunction,ViaPad*%
%ADD17C,0.500000*%
%TD*%
%TA.AperFunction,Conductor*%
%ADD18C,0.300000*%
%TD*%
%TA.AperFunction,Conductor*%
%ADD19C,0.400000*%
%TD*%
G04 APERTURE END LIST*
D10*
G36*
X170391020Y-90405821D02*
G01*
X170414495Y-90431905D01*
X170443500Y-90496362D01*
X170475457Y-90638388D01*
X170475457Y-90817757D01*
X170443500Y-90959783D01*
X170414495Y-91024239D01*
X170391019Y-91050324D01*
X170341072Y-91078073D01*
X170298413Y-91078073D01*
X170248466Y-91050324D01*
X170224990Y-91024240D01*
X170195985Y-90959786D01*
X170164028Y-90817757D01*
X170164028Y-90638388D01*
X170195985Y-90496359D01*
X170224989Y-90431905D01*
X170248465Y-90405821D01*
X170298413Y-90378073D01*
X170341072Y-90378073D01*
X170391020Y-90405821D01*
G37*
G36*
X170715458Y-89374300D02*
G01*
X170715458Y-89772602D01*
X170683930Y-89790118D01*
X170572699Y-89790118D01*
X170522752Y-89762369D01*
X170499276Y-89736285D01*
X170472600Y-89677005D01*
X170472600Y-89469896D01*
X170499276Y-89410616D01*
X170522750Y-89384534D01*
X170572701Y-89356784D01*
X170683929Y-89356784D01*
X170715458Y-89374300D01*
G37*
G36*
X171343814Y-89380529D02*
G01*
X171366887Y-89431801D01*
X171366887Y-89457152D01*
X171124029Y-89511120D01*
X171124029Y-89431801D01*
X171147102Y-89380529D01*
X171189844Y-89356784D01*
X171301072Y-89356784D01*
X171343814Y-89380529D01*
G37*
G36*
X173578466Y-91266962D02*
G01*
X167716088Y-91266962D01*
X167716088Y-91111393D01*
X169346893Y-91111393D01*
X169347835Y-91129285D01*
X169347835Y-91147207D01*
X169348830Y-91148202D01*
X169348905Y-91149609D01*
X169362226Y-91161598D01*
X169374895Y-91174267D01*
X169376701Y-91174626D01*
X169377349Y-91175209D01*
X169379153Y-91175114D01*
X169394029Y-91178073D01*
X169839743Y-91178073D01*
X169858877Y-91174267D01*
X169885937Y-91147207D01*
X169885937Y-91108939D01*
X169858877Y-91081879D01*
X169839743Y-91078073D01*
X169506297Y-91078073D01*
X169842622Y-90704378D01*
X169843492Y-90702914D01*
X169844205Y-90702531D01*
X169848215Y-90694972D01*
X169852593Y-90687610D01*
X169852550Y-90686800D01*
X169853348Y-90685297D01*
X169869087Y-90632835D01*
X170064028Y-90632835D01*
X170064028Y-90823311D01*
X170065109Y-90828749D01*
X170065248Y-90834287D01*
X170099534Y-90986668D01*
X170101583Y-90991285D01*
X170102718Y-90996210D01*
X170137004Y-91072400D01*
X170141484Y-91078686D01*
X170145435Y-91085330D01*
X170179721Y-91123426D01*
X170186318Y-91128354D01*
X170192604Y-91133686D01*
X170261174Y-91171781D01*
X170265096Y-91173040D01*
X170266323Y-91174267D01*
X170273134Y-91175621D01*
X170279749Y-91177746D01*
X170281417Y-91177269D01*
X170285457Y-91178073D01*
X170354028Y-91178073D01*
X170358067Y-91177269D01*
X170359735Y-91177746D01*
X170366347Y-91175622D01*
X170373162Y-91174267D01*
X170374388Y-91173040D01*
X170378310Y-91171781D01*
X170446882Y-91133686D01*
X170453164Y-91128357D01*
X170459765Y-91123426D01*
X170470595Y-91111393D01*
X170718321Y-91111393D01*
X170719263Y-91129285D01*
X170719263Y-91147207D01*
X170720258Y-91148202D01*
X170720333Y-91149609D01*
X170733654Y-91161598D01*
X170746323Y-91174267D01*
X170748129Y-91174626D01*
X170748777Y-91175209D01*
X170750581Y-91175114D01*
X170765457Y-91178073D01*
X171211171Y-91178073D01*
X171230305Y-91174267D01*
X171257365Y-91147207D01*
X171257365Y-91108939D01*
X171230305Y-91081879D01*
X171211171Y-91078073D01*
X170877725Y-91078073D01*
X171213902Y-90704543D01*
X171435657Y-90704543D01*
X171437733Y-90723941D01*
X171440134Y-90726817D01*
X171440331Y-90730560D01*
X171452106Y-90741158D01*
X171462258Y-90753318D01*
X171465990Y-90753653D01*
X171468776Y-90756161D01*
X171484597Y-90755328D01*
X171500372Y-90756748D01*
X171503248Y-90754346D01*
X171506991Y-90754150D01*
X171522620Y-90742474D01*
X171551321Y-90710583D01*
X171601270Y-90682835D01*
X171746786Y-90682835D01*
X171796733Y-90710583D01*
X171820208Y-90736667D01*
X171846885Y-90795947D01*
X171846885Y-90964960D01*
X171820207Y-91024241D01*
X171796735Y-91050323D01*
X171746786Y-91078073D01*
X171601270Y-91078073D01*
X171551322Y-91050324D01*
X171522621Y-91018434D01*
X171506992Y-91006758D01*
X171468776Y-91004746D01*
X171440332Y-91030346D01*
X171438320Y-91068562D01*
X171448291Y-91085330D01*
X171482577Y-91123426D01*
X171489174Y-91128354D01*
X171495460Y-91133686D01*
X171564032Y-91171781D01*
X171567953Y-91173040D01*
X171569180Y-91174267D01*
X171575992Y-91175622D01*
X171582606Y-91177746D01*
X171584274Y-91177269D01*
X171588314Y-91178073D01*
X171759742Y-91178073D01*
X171763781Y-91177269D01*
X171765449Y-91177746D01*
X171772061Y-91175622D01*
X171778876Y-91174267D01*
X171780102Y-91173040D01*
X171784024Y-91171781D01*
X171852596Y-91133686D01*
X171858881Y-91128354D01*
X171865479Y-91123425D01*
X171899764Y-91085329D01*
X171903711Y-91078691D01*
X171908195Y-91072400D01*
X171942481Y-90996211D01*
X171942716Y-90995188D01*
X171943079Y-90994826D01*
X171944837Y-90985983D01*
X171946862Y-90977200D01*
X171946680Y-90976721D01*
X171946885Y-90975692D01*
X171946885Y-90785216D01*
X171946680Y-90784186D01*
X171946862Y-90783708D01*
X171944838Y-90774928D01*
X171943079Y-90766082D01*
X171942716Y-90765719D01*
X171942481Y-90764698D01*
X171908195Y-90688507D01*
X171903714Y-90682220D01*
X171899764Y-90675577D01*
X171865479Y-90637482D01*
X171858878Y-90632550D01*
X171852596Y-90627222D01*
X171784024Y-90589127D01*
X171780102Y-90587867D01*
X171778876Y-90586641D01*
X171772061Y-90585285D01*
X171765449Y-90583162D01*
X171763781Y-90583638D01*
X171759742Y-90582835D01*
X171588314Y-90582835D01*
X171584274Y-90583638D01*
X171582606Y-90583162D01*
X171575992Y-90585285D01*
X171569180Y-90586641D01*
X171567953Y-90587867D01*
X171564032Y-90589127D01*
X171545523Y-90599409D01*
X171565444Y-90378073D01*
X171862599Y-90378073D01*
X171881733Y-90374267D01*
X171908793Y-90347207D01*
X171908793Y-90308939D01*
X171881733Y-90281879D01*
X171862599Y-90278073D01*
X171519742Y-90278073D01*
X171507214Y-90280564D01*
X171504826Y-90280350D01*
X171503740Y-90281255D01*
X171500608Y-90281879D01*
X171488545Y-90293941D01*
X171475449Y-90304875D01*
X171474547Y-90307939D01*
X171473548Y-90308939D01*
X171473548Y-90311336D01*
X171469943Y-90323591D01*
X171435657Y-90704543D01*
X171213902Y-90704543D01*
X171214050Y-90704378D01*
X171214920Y-90702914D01*
X171215633Y-90702531D01*
X171219643Y-90694972D01*
X171224021Y-90687610D01*
X171223978Y-90686800D01*
X171224776Y-90685297D01*
X171259062Y-90571012D01*
X171259752Y-90563775D01*
X171261171Y-90556644D01*
X171261171Y-90480454D01*
X171260966Y-90479424D01*
X171261148Y-90478946D01*
X171259124Y-90470166D01*
X171257365Y-90461320D01*
X171257002Y-90460957D01*
X171256767Y-90459936D01*
X171222481Y-90383745D01*
X171218000Y-90377458D01*
X171214050Y-90370815D01*
X171179765Y-90332720D01*
X171173164Y-90327788D01*
X171166882Y-90322460D01*
X171098310Y-90284365D01*
X171094388Y-90283105D01*
X171093162Y-90281879D01*
X171086347Y-90280523D01*
X171079735Y-90278400D01*
X171078067Y-90278876D01*
X171074028Y-90278073D01*
X170902600Y-90278073D01*
X170898560Y-90278876D01*
X170896892Y-90278400D01*
X170890278Y-90280523D01*
X170883466Y-90281879D01*
X170882239Y-90283105D01*
X170878318Y-90284365D01*
X170809746Y-90322460D01*
X170803462Y-90327789D01*
X170796864Y-90332719D01*
X170762578Y-90370814D01*
X170752606Y-90387583D01*
X170754617Y-90425798D01*
X170783062Y-90451399D01*
X170821277Y-90449388D01*
X170836906Y-90437712D01*
X170865607Y-90405821D01*
X170915556Y-90378073D01*
X171061072Y-90378073D01*
X171111019Y-90405821D01*
X171134494Y-90431905D01*
X171161171Y-90491185D01*
X171161171Y-90549306D01*
X171132217Y-90645818D01*
X170728292Y-91094625D01*
X170720539Y-91107662D01*
X170719263Y-91108939D01*
X170719263Y-91109808D01*
X170718321Y-91111393D01*
X170470595Y-91111393D01*
X170494051Y-91085330D01*
X170497998Y-91078691D01*
X170502482Y-91072400D01*
X170536767Y-90996210D01*
X170537901Y-90991286D01*
X170539951Y-90986668D01*
X170574238Y-90834286D01*
X170574376Y-90828743D01*
X170575457Y-90823311D01*
X170575457Y-90632835D01*
X170574376Y-90627402D01*
X170574238Y-90621860D01*
X170539951Y-90469478D01*
X170537901Y-90464859D01*
X170536767Y-90459937D01*
X170502482Y-90383745D01*
X170497999Y-90377455D01*
X170494051Y-90370815D01*
X170459764Y-90332719D01*
X170453161Y-90327786D01*
X170446882Y-90322460D01*
X170378310Y-90284365D01*
X170374388Y-90283105D01*
X170373162Y-90281879D01*
X170366347Y-90280523D01*
X170359735Y-90278400D01*
X170358067Y-90278876D01*
X170354028Y-90278073D01*
X170285457Y-90278073D01*
X170281417Y-90278876D01*
X170279749Y-90278400D01*
X170273134Y-90280524D01*
X170266323Y-90281879D01*
X170265096Y-90283105D01*
X170261174Y-90284365D01*
X170192604Y-90322460D01*
X170186320Y-90327789D01*
X170179722Y-90332719D01*
X170145436Y-90370814D01*
X170141485Y-90377456D01*
X170137004Y-90383745D01*
X170102718Y-90459936D01*
X170101583Y-90464860D01*
X170099534Y-90469478D01*
X170065248Y-90621859D01*
X170065109Y-90627396D01*
X170064028Y-90632835D01*
X169869087Y-90632835D01*
X169887634Y-90571012D01*
X169888324Y-90563775D01*
X169889743Y-90556644D01*
X169889743Y-90480454D01*
X169889538Y-90479424D01*
X169889720Y-90478946D01*
X169887696Y-90470166D01*
X169885937Y-90461320D01*
X169885574Y-90460957D01*
X169885339Y-90459936D01*
X169851053Y-90383745D01*
X169846572Y-90377458D01*
X169842622Y-90370815D01*
X169808337Y-90332720D01*
X169801736Y-90327788D01*
X169795454Y-90322460D01*
X169726882Y-90284365D01*
X169722960Y-90283105D01*
X169721734Y-90281879D01*
X169714919Y-90280523D01*
X169708307Y-90278400D01*
X169706639Y-90278876D01*
X169702600Y-90278073D01*
X169531172Y-90278073D01*
X169527132Y-90278876D01*
X169525464Y-90278400D01*
X169518850Y-90280523D01*
X169512038Y-90281879D01*
X169510811Y-90283105D01*
X169506890Y-90284365D01*
X169438318Y-90322460D01*
X169432034Y-90327789D01*
X169425436Y-90332719D01*
X169391150Y-90370814D01*
X169381178Y-90387583D01*
X169383189Y-90425798D01*
X169411634Y-90451399D01*
X169449849Y-90449388D01*
X169465478Y-90437712D01*
X169494179Y-90405821D01*
X169544128Y-90378073D01*
X169689644Y-90378073D01*
X169739591Y-90405821D01*
X169763066Y-90431905D01*
X169789743Y-90491185D01*
X169789743Y-90549306D01*
X169760789Y-90645818D01*
X169356864Y-91094625D01*
X169349111Y-91107662D01*
X169347835Y-91108939D01*
X169347835Y-91109808D01*
X169346893Y-91111393D01*
X167716088Y-91111393D01*
X167716088Y-89020984D01*
X167804977Y-89020984D01*
X167804977Y-89059252D01*
X167832037Y-89086312D01*
X167851171Y-89090118D01*
X168006885Y-89090118D01*
X168006885Y-89840118D01*
X168010691Y-89859252D01*
X168037751Y-89886312D01*
X168076019Y-89886312D01*
X168103079Y-89859252D01*
X168106885Y-89840118D01*
X168106885Y-89090118D01*
X168262600Y-89090118D01*
X168281734Y-89086312D01*
X168308794Y-89059252D01*
X168308794Y-89040118D01*
X168452599Y-89040118D01*
X168452599Y-89840118D01*
X168456405Y-89859252D01*
X168483465Y-89886312D01*
X168521733Y-89886312D01*
X168548793Y-89859252D01*
X168552599Y-89840118D01*
X168552599Y-89402162D01*
X168568463Y-89384534D01*
X168618414Y-89356784D01*
X168695356Y-89356784D01*
X168738098Y-89380529D01*
X168761171Y-89431801D01*
X168761171Y-89840118D01*
X168764977Y-89859252D01*
X168792037Y-89886312D01*
X168830305Y-89886312D01*
X168857365Y-89859252D01*
X168861171Y-89840118D01*
X168861171Y-89421070D01*
X168860966Y-89420040D01*
X168861148Y-89419562D01*
X168859123Y-89410778D01*
X168857365Y-89401936D01*
X168857002Y-89401573D01*
X168856767Y-89400551D01*
X168822481Y-89324362D01*
X168816779Y-89316362D01*
X168816045Y-89313792D01*
X168813269Y-89311437D01*
X168811158Y-89308475D01*
X168808660Y-89307527D01*
X168807784Y-89306784D01*
X169104028Y-89306784D01*
X169104028Y-89725832D01*
X169104232Y-89726861D01*
X169104051Y-89727340D01*
X169106074Y-89736119D01*
X169107834Y-89744966D01*
X169108196Y-89745328D01*
X169108432Y-89746350D01*
X169142718Y-89822541D01*
X169148419Y-89830540D01*
X169149154Y-89833112D01*
X169151930Y-89835467D01*
X169154041Y-89838428D01*
X169156538Y-89839375D01*
X169164032Y-89845731D01*
X169232602Y-89883826D01*
X169236524Y-89885085D01*
X169237751Y-89886312D01*
X169244562Y-89887666D01*
X169251177Y-89889791D01*
X169252845Y-89889314D01*
X169256885Y-89890118D01*
X169359742Y-89890118D01*
X169363781Y-89889314D01*
X169365449Y-89889791D01*
X169372061Y-89887667D01*
X169378876Y-89886312D01*
X169380102Y-89885085D01*
X169384024Y-89883826D01*
X169420638Y-89863484D01*
X169443466Y-89886312D01*
X169481734Y-89886312D01*
X169508794Y-89859252D01*
X169512600Y-89840118D01*
X169512600Y-89306784D01*
X169755457Y-89306784D01*
X169755457Y-89840118D01*
X169759263Y-89859252D01*
X169786323Y-89886312D01*
X169824591Y-89886312D01*
X169851651Y-89859252D01*
X169855457Y-89840118D01*
X169855457Y-89402162D01*
X169871321Y-89384534D01*
X169921272Y-89356784D01*
X169998214Y-89356784D01*
X170040956Y-89380529D01*
X170064029Y-89431801D01*
X170064029Y-89840118D01*
X170067835Y-89859252D01*
X170094895Y-89886312D01*
X170133163Y-89886312D01*
X170160223Y-89859252D01*
X170164029Y-89840118D01*
X170164029Y-89459165D01*
X170372600Y-89459165D01*
X170372600Y-89687737D01*
X170372804Y-89688766D01*
X170372623Y-89689245D01*
X170374646Y-89698024D01*
X170376406Y-89706871D01*
X170376768Y-89707233D01*
X170377004Y-89708255D01*
X170411290Y-89784445D01*
X170415770Y-89790731D01*
X170419721Y-89797375D01*
X170454007Y-89835471D01*
X170460604Y-89840399D01*
X170466890Y-89845731D01*
X170535460Y-89883826D01*
X170539382Y-89885085D01*
X170540609Y-89886312D01*
X170547420Y-89887666D01*
X170554035Y-89889791D01*
X170555703Y-89889314D01*
X170559743Y-89890118D01*
X170696886Y-89890118D01*
X170700925Y-89889314D01*
X170702593Y-89889791D01*
X170709205Y-89887667D01*
X170716020Y-89886312D01*
X170717246Y-89885085D01*
X170721168Y-89883826D01*
X170735741Y-89875729D01*
X170746324Y-89886312D01*
X170784592Y-89886312D01*
X170811652Y-89859252D01*
X170815458Y-89840118D01*
X170815458Y-89421070D01*
X171024029Y-89421070D01*
X171024029Y-89725832D01*
X171024233Y-89726861D01*
X171024052Y-89727340D01*
X171026075Y-89736119D01*
X171027835Y-89744966D01*
X171028197Y-89745328D01*
X171028433Y-89746350D01*
X171062719Y-89822541D01*
X171068420Y-89830540D01*
X171069155Y-89833112D01*
X171071931Y-89835467D01*
X171074042Y-89838428D01*
X171076539Y-89839375D01*
X171084033Y-89845731D01*
X171152605Y-89883826D01*
X171156526Y-89885085D01*
X171157753Y-89886312D01*
X171164565Y-89887667D01*
X171171179Y-89889791D01*
X171172847Y-89889314D01*
X171176887Y-89890118D01*
X171314029Y-89890118D01*
X171318068Y-89889314D01*
X171319736Y-89889791D01*
X171326348Y-89887667D01*
X171333163Y-89886312D01*
X171334389Y-89885085D01*
X171338311Y-89883826D01*
X171406883Y-89845731D01*
X171421760Y-89833112D01*
X171432274Y-89796316D01*
X171413690Y-89762863D01*
X171376893Y-89752350D01*
X171358319Y-89758315D01*
X171301073Y-89790118D01*
X171189843Y-89790118D01*
X171147101Y-89766372D01*
X171124029Y-89715100D01*
X171124029Y-89613559D01*
X171427733Y-89546070D01*
X171433668Y-89543455D01*
X171436021Y-89543455D01*
X171437874Y-89541601D01*
X171445586Y-89538204D01*
X171453135Y-89526340D01*
X171463081Y-89516395D01*
X171464725Y-89508127D01*
X171466131Y-89505919D01*
X171465621Y-89503624D01*
X171466887Y-89497261D01*
X171466887Y-89421070D01*
X171466682Y-89420040D01*
X171466864Y-89419562D01*
X171464839Y-89410778D01*
X171463081Y-89401936D01*
X171462718Y-89401573D01*
X171462483Y-89400551D01*
X171428197Y-89324362D01*
X171422495Y-89316362D01*
X171421761Y-89313792D01*
X171418985Y-89311437D01*
X171416874Y-89308475D01*
X171414376Y-89307527D01*
X171413500Y-89306784D01*
X171675458Y-89306784D01*
X171675458Y-89840118D01*
X171679264Y-89859252D01*
X171706324Y-89886312D01*
X171744592Y-89886312D01*
X171771652Y-89859252D01*
X171775458Y-89840118D01*
X171775458Y-89469896D01*
X171802134Y-89410616D01*
X171825608Y-89384534D01*
X171875559Y-89356784D01*
X171931172Y-89356784D01*
X171950306Y-89352978D01*
X171977366Y-89325918D01*
X171977366Y-89287650D01*
X171950306Y-89260590D01*
X171931172Y-89256784D01*
X171862601Y-89256784D01*
X171858561Y-89257587D01*
X171856893Y-89257111D01*
X171850278Y-89259235D01*
X171843467Y-89260590D01*
X171842240Y-89261816D01*
X171838318Y-89263076D01*
X171773884Y-89298873D01*
X171771652Y-89287650D01*
X171744592Y-89260590D01*
X171706324Y-89260590D01*
X171679264Y-89287650D01*
X171675458Y-89306784D01*
X171413500Y-89306784D01*
X171406884Y-89301172D01*
X171338311Y-89263076D01*
X171334389Y-89261816D01*
X171333163Y-89260590D01*
X171326350Y-89259234D01*
X171319737Y-89257111D01*
X171318068Y-89257587D01*
X171314029Y-89256784D01*
X171176887Y-89256784D01*
X171172847Y-89257587D01*
X171171179Y-89257111D01*
X171164565Y-89259234D01*
X171157753Y-89260590D01*
X171156526Y-89261816D01*
X171152605Y-89263076D01*
X171084033Y-89301172D01*
X171076540Y-89307527D01*
X171074042Y-89308475D01*
X171071930Y-89311437D01*
X171069155Y-89313792D01*
X171068420Y-89316362D01*
X171062719Y-89324362D01*
X171028433Y-89400552D01*
X171028197Y-89401573D01*
X171027835Y-89401936D01*
X171026075Y-89410782D01*
X171024052Y-89419562D01*
X171024233Y-89420040D01*
X171024029Y-89421070D01*
X170815458Y-89421070D01*
X170815458Y-89040118D01*
X172121172Y-89040118D01*
X172121172Y-89840118D01*
X172124978Y-89859252D01*
X172152038Y-89886312D01*
X172190306Y-89886312D01*
X172217366Y-89859252D01*
X172221172Y-89840118D01*
X172221172Y-89471070D01*
X172411172Y-89471070D01*
X172430306Y-89467264D01*
X172457366Y-89440204D01*
X172457366Y-89401936D01*
X172430306Y-89374876D01*
X172411172Y-89371070D01*
X172221172Y-89371070D01*
X172221172Y-89090118D01*
X172514029Y-89090118D01*
X172533163Y-89086312D01*
X172560223Y-89059252D01*
X172560223Y-89040118D01*
X172738315Y-89040118D01*
X172738315Y-89725832D01*
X172738519Y-89726861D01*
X172738338Y-89727340D01*
X172740361Y-89736119D01*
X172742121Y-89744966D01*
X172742483Y-89745328D01*
X172742719Y-89746350D01*
X172777005Y-89822541D01*
X172782706Y-89830540D01*
X172783441Y-89833112D01*
X172786217Y-89835467D01*
X172788328Y-89838428D01*
X172790825Y-89839375D01*
X172798319Y-89845731D01*
X172866889Y-89883826D01*
X172885464Y-89889791D01*
X172922260Y-89879278D01*
X172940845Y-89845825D01*
X172930332Y-89809029D01*
X172915454Y-89796410D01*
X172861387Y-89766373D01*
X172838315Y-89715100D01*
X172838315Y-89302704D01*
X173047054Y-89302704D01*
X173049286Y-89322084D01*
X173215502Y-89839205D01*
X173156021Y-90004432D01*
X173133879Y-90029034D01*
X173072605Y-90063076D01*
X173057727Y-90075695D01*
X173047214Y-90112492D01*
X173065798Y-90145944D01*
X173102595Y-90156457D01*
X173121169Y-90150492D01*
X173189740Y-90112397D01*
X173196023Y-90107067D01*
X173202622Y-90102138D01*
X173236909Y-90064042D01*
X173241865Y-90055706D01*
X173246788Y-90047530D01*
X173315359Y-89857054D01*
X173315489Y-89856185D01*
X173315916Y-89855418D01*
X173487345Y-89322085D01*
X173489577Y-89302704D01*
X173472096Y-89268661D01*
X173435664Y-89256951D01*
X173401621Y-89274432D01*
X173392143Y-89291484D01*
X173268315Y-89676724D01*
X173144488Y-89291484D01*
X173135010Y-89274432D01*
X173100967Y-89256951D01*
X173064535Y-89268661D01*
X173047054Y-89302704D01*
X172838315Y-89302704D01*
X172838315Y-89040118D01*
X172834509Y-89020984D01*
X172807449Y-88993924D01*
X172769181Y-88993924D01*
X172742121Y-89020984D01*
X172738315Y-89040118D01*
X172560223Y-89040118D01*
X172560223Y-89020984D01*
X172533163Y-88993924D01*
X172514029Y-88990118D01*
X172171172Y-88990118D01*
X172152038Y-88993924D01*
X172124978Y-89020984D01*
X172121172Y-89040118D01*
X170815458Y-89040118D01*
X170811652Y-89020984D01*
X170784592Y-88993924D01*
X170746324Y-88993924D01*
X170719264Y-89020984D01*
X170715458Y-89040118D01*
X170715458Y-89260478D01*
X170709207Y-89259234D01*
X170702594Y-89257111D01*
X170700925Y-89257587D01*
X170696886Y-89256784D01*
X170559743Y-89256784D01*
X170555703Y-89257587D01*
X170554035Y-89257111D01*
X170547420Y-89259235D01*
X170540609Y-89260590D01*
X170539382Y-89261816D01*
X170535460Y-89263076D01*
X170466889Y-89301172D01*
X170460605Y-89306501D01*
X170454008Y-89311431D01*
X170419722Y-89349526D01*
X170415771Y-89356168D01*
X170411290Y-89362457D01*
X170377004Y-89438647D01*
X170376768Y-89439668D01*
X170376406Y-89440031D01*
X170374646Y-89448877D01*
X170372623Y-89457657D01*
X170372804Y-89458135D01*
X170372600Y-89459165D01*
X170164029Y-89459165D01*
X170164029Y-89421070D01*
X170163824Y-89420040D01*
X170164006Y-89419562D01*
X170161981Y-89410778D01*
X170160223Y-89401936D01*
X170159860Y-89401573D01*
X170159625Y-89400551D01*
X170125339Y-89324362D01*
X170119637Y-89316362D01*
X170118903Y-89313792D01*
X170116127Y-89311437D01*
X170114016Y-89308475D01*
X170111518Y-89307527D01*
X170104026Y-89301172D01*
X170035453Y-89263076D01*
X170031531Y-89261816D01*
X170030305Y-89260590D01*
X170023492Y-89259234D01*
X170016879Y-89257111D01*
X170015210Y-89257587D01*
X170011171Y-89256784D01*
X169908314Y-89256784D01*
X169904274Y-89257587D01*
X169902606Y-89257111D01*
X169895991Y-89259235D01*
X169889180Y-89260590D01*
X169887953Y-89261816D01*
X169884031Y-89263076D01*
X169847418Y-89283417D01*
X169824591Y-89260590D01*
X169786323Y-89260590D01*
X169759263Y-89287650D01*
X169755457Y-89306784D01*
X169512600Y-89306784D01*
X169508794Y-89287650D01*
X169481734Y-89260590D01*
X169443466Y-89260590D01*
X169416406Y-89287650D01*
X169412600Y-89306784D01*
X169412600Y-89744740D01*
X169396733Y-89762369D01*
X169346786Y-89790118D01*
X169269841Y-89790118D01*
X169227100Y-89766373D01*
X169204028Y-89715100D01*
X169204028Y-89306784D01*
X169200222Y-89287650D01*
X169173162Y-89260590D01*
X169134894Y-89260590D01*
X169107834Y-89287650D01*
X169104028Y-89306784D01*
X168807784Y-89306784D01*
X168801168Y-89301172D01*
X168732595Y-89263076D01*
X168728673Y-89261816D01*
X168727447Y-89260590D01*
X168720634Y-89259234D01*
X168714021Y-89257111D01*
X168712352Y-89257587D01*
X168708313Y-89256784D01*
X168605456Y-89256784D01*
X168601416Y-89257587D01*
X168599748Y-89257111D01*
X168593133Y-89259235D01*
X168586322Y-89260590D01*
X168585095Y-89261816D01*
X168581173Y-89263076D01*
X168552599Y-89278950D01*
X168552599Y-89040118D01*
X168548793Y-89020984D01*
X168521733Y-88993924D01*
X168483465Y-88993924D01*
X168456405Y-89020984D01*
X168452599Y-89040118D01*
X168308794Y-89040118D01*
X168308794Y-89020984D01*
X168281734Y-88993924D01*
X168262600Y-88990118D01*
X167851171Y-88990118D01*
X167832037Y-88993924D01*
X167804977Y-89020984D01*
X167716088Y-89020984D01*
X167716088Y-88901229D01*
X173578466Y-88901229D01*
X173578466Y-91266962D01*
G37*
D11*
G36*
X141338264Y-102164850D02*
G01*
X141362322Y-102187641D01*
X141395833Y-102251136D01*
X141435467Y-102401328D01*
X141435467Y-102592265D01*
X141395833Y-102742456D01*
X141362321Y-102805951D01*
X141338264Y-102828743D01*
X141279040Y-102856797D01*
X141229037Y-102856797D01*
X141169812Y-102828743D01*
X141145754Y-102805950D01*
X141112244Y-102742456D01*
X141072610Y-102592264D01*
X141072610Y-102401329D01*
X141112244Y-102251136D01*
X141145754Y-102187642D01*
X141169812Y-102164850D01*
X141229037Y-102136797D01*
X141279040Y-102136797D01*
X141338264Y-102164850D01*
G37*
G36*
X143568941Y-103136797D02*
G01*
X136858624Y-103136797D01*
X136858624Y-102029239D01*
X136958624Y-102029239D01*
X136958624Y-102064355D01*
X136972063Y-102096798D01*
X136996894Y-102121629D01*
X137029337Y-102135068D01*
X137046895Y-102136797D01*
X137228323Y-102136797D01*
X137228323Y-102946797D01*
X137230052Y-102964355D01*
X137243491Y-102996798D01*
X137268322Y-103021629D01*
X137300765Y-103035068D01*
X137335881Y-103035068D01*
X137368324Y-103021629D01*
X137393155Y-102996798D01*
X137406594Y-102964355D01*
X137408323Y-102946797D01*
X137408323Y-102136797D01*
X137589752Y-102136797D01*
X137607310Y-102135068D01*
X137639753Y-102121629D01*
X137664584Y-102096798D01*
X137678023Y-102064355D01*
X137678023Y-102046797D01*
X137816419Y-102046797D01*
X137816419Y-102946797D01*
X137818148Y-102964355D01*
X137831587Y-102996798D01*
X137856418Y-103021629D01*
X137888861Y-103035068D01*
X137923977Y-103035068D01*
X137956420Y-103021629D01*
X137981251Y-102996798D01*
X137994690Y-102964355D01*
X137996419Y-102946797D01*
X137996419Y-102565368D01*
X138223086Y-102565368D01*
X138240644Y-102563639D01*
X138273087Y-102550200D01*
X138297918Y-102525369D01*
X138311357Y-102492926D01*
X138311357Y-102457810D01*
X138297918Y-102425367D01*
X138273087Y-102400536D01*
X138240644Y-102387097D01*
X138223086Y-102385368D01*
X137996419Y-102385368D01*
X137996419Y-102218225D01*
X138585467Y-102218225D01*
X138585467Y-102303940D01*
X138587196Y-102321498D01*
X138588813Y-102325403D01*
X138589206Y-102329613D01*
X138595872Y-102345948D01*
X138641110Y-102431662D01*
X138646286Y-102439498D01*
X138647251Y-102441659D01*
X138649197Y-102443904D01*
X138650835Y-102446383D01*
X138652655Y-102447892D01*
X138658808Y-102454990D01*
X138704046Y-102497847D01*
X138710696Y-102503010D01*
X138712288Y-102504769D01*
X138715250Y-102506546D01*
X138717981Y-102508667D01*
X138720197Y-102509515D01*
X138727415Y-102513847D01*
X138817891Y-102556704D01*
X138818665Y-102556981D01*
X138818990Y-102557216D01*
X138826763Y-102559884D01*
X138834499Y-102562658D01*
X138834898Y-102562677D01*
X138835677Y-102562945D01*
X139007408Y-102603618D01*
X139076359Y-102636278D01*
X139100416Y-102659070D01*
X139128324Y-102711947D01*
X139128324Y-102753074D01*
X139100416Y-102805951D01*
X139076359Y-102828743D01*
X139017135Y-102856797D01*
X138825053Y-102856797D01*
X138702569Y-102818118D01*
X138685305Y-102814479D01*
X138650321Y-102817525D01*
X138619165Y-102833726D01*
X138596581Y-102860616D01*
X138586006Y-102894102D01*
X138589052Y-102929086D01*
X138605253Y-102960242D01*
X138632143Y-102982826D01*
X138648365Y-102989762D01*
X138784079Y-103032619D01*
X138791473Y-103034177D01*
X138793623Y-103035068D01*
X138797516Y-103035451D01*
X138801343Y-103036258D01*
X138803659Y-103036056D01*
X138811181Y-103036797D01*
X139037372Y-103036797D01*
X139054930Y-103035068D01*
X139057026Y-103034199D01*
X139059292Y-103034087D01*
X139075900Y-103028133D01*
X139166376Y-102985276D01*
X139173597Y-102980942D01*
X139175810Y-102980095D01*
X139178535Y-102977978D01*
X139181503Y-102976198D01*
X139183096Y-102974437D01*
X139189746Y-102969275D01*
X139234984Y-102926417D01*
X139241135Y-102919320D01*
X139242956Y-102917811D01*
X139244593Y-102915332D01*
X139246541Y-102913086D01*
X139247505Y-102910923D01*
X139252681Y-102903090D01*
X139297918Y-102817377D01*
X139304585Y-102801042D01*
X139304977Y-102796831D01*
X139306595Y-102792926D01*
X139308324Y-102775368D01*
X139308324Y-102689654D01*
X139306595Y-102672096D01*
X139304977Y-102668190D01*
X139304585Y-102663980D01*
X139297918Y-102647645D01*
X139252681Y-102561932D01*
X139247505Y-102554098D01*
X139246541Y-102551936D01*
X139244593Y-102549689D01*
X139242956Y-102547211D01*
X139241135Y-102545701D01*
X139234984Y-102538605D01*
X139189746Y-102495747D01*
X139183096Y-102490584D01*
X139181503Y-102488824D01*
X139178535Y-102487043D01*
X139175810Y-102484927D01*
X139173597Y-102484079D01*
X139166376Y-102479746D01*
X139075900Y-102436889D01*
X139075125Y-102436611D01*
X139074801Y-102436377D01*
X139067027Y-102433708D01*
X139059292Y-102430935D01*
X139058892Y-102430915D01*
X139058114Y-102430648D01*
X138886382Y-102389974D01*
X138817431Y-102357314D01*
X138793373Y-102334522D01*
X138765467Y-102281646D01*
X138765467Y-102240518D01*
X138793373Y-102187642D01*
X138817431Y-102164850D01*
X138876656Y-102136797D01*
X139068738Y-102136797D01*
X139191222Y-102175476D01*
X139208486Y-102179115D01*
X139243470Y-102176069D01*
X139274626Y-102159868D01*
X139297210Y-102132978D01*
X139307785Y-102099492D01*
X139304739Y-102064508D01*
X139295529Y-102046797D01*
X139535467Y-102046797D01*
X139535467Y-102946797D01*
X139537196Y-102964355D01*
X139550635Y-102996798D01*
X139575466Y-103021629D01*
X139607909Y-103035068D01*
X139643025Y-103035068D01*
X139675468Y-103021629D01*
X139700299Y-102996798D01*
X139713738Y-102964355D01*
X139715467Y-102946797D01*
X139715467Y-102046797D01*
X139987848Y-102046797D01*
X139987848Y-102946797D01*
X139989577Y-102964355D01*
X140003016Y-102996798D01*
X140027847Y-103021629D01*
X140060290Y-103035068D01*
X140095406Y-103035068D01*
X140127849Y-103021629D01*
X140152680Y-102996798D01*
X140166119Y-102964355D01*
X140167848Y-102946797D01*
X140167848Y-102599794D01*
X140204052Y-102565495D01*
X140550141Y-103002661D01*
X140562395Y-103015354D01*
X140593069Y-103032449D01*
X140627951Y-103036505D01*
X140661729Y-103026904D01*
X140689262Y-103005107D01*
X140706357Y-102974433D01*
X140710413Y-102939552D01*
X140700812Y-102905773D01*
X140691269Y-102890934D01*
X140335239Y-102441212D01*
X140389662Y-102389654D01*
X140892610Y-102389654D01*
X140892610Y-102603940D01*
X140892998Y-102607882D01*
X140892781Y-102609486D01*
X140893744Y-102615465D01*
X140894339Y-102621498D01*
X140894958Y-102622993D01*
X140895589Y-102626904D01*
X140940827Y-102798331D01*
X140941504Y-102800150D01*
X140941587Y-102801041D01*
X140944397Y-102807927D01*
X140946979Y-102814867D01*
X140947518Y-102815575D01*
X140948253Y-102817376D01*
X140993491Y-102903090D01*
X140998666Y-102910923D01*
X140999631Y-102913086D01*
X141001578Y-102915332D01*
X141003216Y-102917811D01*
X141005035Y-102919320D01*
X141011188Y-102926417D01*
X141056426Y-102969275D01*
X141063075Y-102974437D01*
X141064669Y-102976198D01*
X141067636Y-102977978D01*
X141070362Y-102980095D01*
X141072574Y-102980942D01*
X141079796Y-102985276D01*
X141170272Y-103028133D01*
X141186880Y-103034087D01*
X141189145Y-103034199D01*
X141191242Y-103035068D01*
X141208800Y-103036797D01*
X141299277Y-103036797D01*
X141316835Y-103035068D01*
X141318931Y-103034199D01*
X141321197Y-103034087D01*
X141337805Y-103028133D01*
X141428281Y-102985276D01*
X141435502Y-102980942D01*
X141437715Y-102980095D01*
X141440440Y-102977978D01*
X141443408Y-102976198D01*
X141445001Y-102974437D01*
X141451651Y-102969275D01*
X141496889Y-102926417D01*
X141503040Y-102919320D01*
X141504861Y-102917811D01*
X141506498Y-102915332D01*
X141508446Y-102913086D01*
X141509410Y-102910923D01*
X141514586Y-102903090D01*
X141559823Y-102817377D01*
X141560557Y-102815578D01*
X141561098Y-102814868D01*
X141563684Y-102807916D01*
X141566490Y-102801042D01*
X141566572Y-102800151D01*
X141567250Y-102798332D01*
X141612488Y-102626904D01*
X141613118Y-102622993D01*
X141613738Y-102621498D01*
X141614332Y-102615465D01*
X141615296Y-102609486D01*
X141615078Y-102607882D01*
X141615467Y-102603940D01*
X141615467Y-102389654D01*
X141615078Y-102385711D01*
X141615296Y-102384108D01*
X141614332Y-102378128D01*
X141613738Y-102372096D01*
X141613118Y-102370600D01*
X141612488Y-102366690D01*
X141592458Y-102290788D01*
X141798339Y-102290788D01*
X141800082Y-102325861D01*
X141815115Y-102357596D01*
X141841149Y-102381163D01*
X141874220Y-102392973D01*
X141909293Y-102391230D01*
X141925900Y-102385276D01*
X142016377Y-102342418D01*
X142023595Y-102338085D01*
X142025810Y-102337238D01*
X142028539Y-102335119D01*
X142031505Y-102333339D01*
X142033098Y-102331579D01*
X142039745Y-102326418D01*
X142068800Y-102298892D01*
X142068800Y-102856797D01*
X141887372Y-102856797D01*
X141869814Y-102858526D01*
X141837371Y-102871965D01*
X141812540Y-102896796D01*
X141799101Y-102929239D01*
X141799101Y-102964355D01*
X141812540Y-102996798D01*
X141837371Y-103021629D01*
X141869814Y-103035068D01*
X141887372Y-103036797D01*
X142430229Y-103036797D01*
X142447787Y-103035068D01*
X142480230Y-103021629D01*
X142505061Y-102996798D01*
X142518500Y-102964355D01*
X142518500Y-102929239D01*
X142505061Y-102896796D01*
X142480230Y-102871965D01*
X142447787Y-102858526D01*
X142430229Y-102856797D01*
X142248800Y-102856797D01*
X142248800Y-102432511D01*
X142702134Y-102432511D01*
X142702134Y-102561082D01*
X142702522Y-102565024D01*
X142702305Y-102566628D01*
X142703268Y-102572607D01*
X142703863Y-102578640D01*
X142704482Y-102580135D01*
X142705113Y-102584046D01*
X142750351Y-102755474D01*
X142751028Y-102757293D01*
X142751111Y-102758184D01*
X142753921Y-102765070D01*
X142756503Y-102772010D01*
X142757042Y-102772718D01*
X142757777Y-102774519D01*
X142803015Y-102860233D01*
X142808191Y-102868069D01*
X142809156Y-102870230D01*
X142811102Y-102872474D01*
X142812740Y-102874954D01*
X142814561Y-102876465D01*
X142820713Y-102883560D01*
X142911188Y-102969275D01*
X142925124Y-102980096D01*
X142927671Y-102981071D01*
X142929762Y-102982827D01*
X142945984Y-102989763D01*
X143081699Y-103032619D01*
X143089093Y-103034177D01*
X143091243Y-103035068D01*
X143095136Y-103035451D01*
X143098963Y-103036258D01*
X143101279Y-103036056D01*
X143108801Y-103036797D01*
X143199277Y-103036797D01*
X143206798Y-103036056D01*
X143209115Y-103036258D01*
X143212941Y-103035451D01*
X143216835Y-103035068D01*
X143218984Y-103034177D01*
X143226379Y-103032619D01*
X143362093Y-102989762D01*
X143378315Y-102982826D01*
X143380405Y-102981070D01*
X143382953Y-102980095D01*
X143396889Y-102969275D01*
X143442127Y-102926417D01*
X143453684Y-102913086D01*
X143467993Y-102881018D01*
X143468941Y-102845914D01*
X143456384Y-102813120D01*
X143432233Y-102787627D01*
X143400165Y-102773318D01*
X143365061Y-102772370D01*
X143332267Y-102784927D01*
X143318331Y-102795747D01*
X143288132Y-102824356D01*
X143185405Y-102856797D01*
X143122676Y-102856797D01*
X143019942Y-102824355D01*
X142955279Y-102763095D01*
X142921768Y-102699599D01*
X142882134Y-102549406D01*
X142882134Y-102444186D01*
X142921768Y-102293993D01*
X142955278Y-102230499D01*
X143019942Y-102169238D01*
X143122676Y-102136797D01*
X143185405Y-102136797D01*
X143288132Y-102169237D01*
X143318332Y-102197847D01*
X143332267Y-102208667D01*
X143365062Y-102221223D01*
X143400165Y-102220274D01*
X143432234Y-102205965D01*
X143456385Y-102180472D01*
X143468941Y-102147678D01*
X143467992Y-102112574D01*
X143453683Y-102080506D01*
X143442126Y-102067175D01*
X143396888Y-102024318D01*
X143382953Y-102013498D01*
X143380403Y-102012521D01*
X143378315Y-102010768D01*
X143362093Y-102003832D01*
X143226379Y-101960975D01*
X143218984Y-101959416D01*
X143216835Y-101958526D01*
X143212941Y-101958142D01*
X143209115Y-101957336D01*
X143206798Y-101957537D01*
X143199277Y-101956797D01*
X143108801Y-101956797D01*
X143101279Y-101957537D01*
X143098963Y-101957336D01*
X143095136Y-101958142D01*
X143091243Y-101958526D01*
X143089093Y-101959416D01*
X143081699Y-101960975D01*
X142945984Y-102003831D01*
X142929762Y-102010767D01*
X142927671Y-102012523D01*
X142925125Y-102013498D01*
X142911189Y-102024318D01*
X142820713Y-102110032D01*
X142814560Y-102117129D01*
X142812740Y-102118639D01*
X142811102Y-102121117D01*
X142809156Y-102123363D01*
X142808191Y-102125523D01*
X142803015Y-102133360D01*
X142757777Y-102219074D01*
X142757042Y-102220874D01*
X142756503Y-102221583D01*
X142753921Y-102228522D01*
X142751111Y-102235409D01*
X142751028Y-102236299D01*
X142750351Y-102238119D01*
X142705113Y-102409547D01*
X142704482Y-102413457D01*
X142703863Y-102414953D01*
X142703268Y-102420985D01*
X142702305Y-102426965D01*
X142702522Y-102428568D01*
X142702134Y-102432511D01*
X142248800Y-102432511D01*
X142248800Y-102046797D01*
X142247071Y-102029239D01*
X142244091Y-102022045D01*
X142242757Y-102014374D01*
X142237434Y-102005975D01*
X142233632Y-101996796D01*
X142228129Y-101991293D01*
X142223959Y-101984713D01*
X142215825Y-101978989D01*
X142208801Y-101971965D01*
X142201611Y-101968986D01*
X142195241Y-101964504D01*
X142185539Y-101962329D01*
X142176358Y-101958526D01*
X142168572Y-101958526D01*
X142160975Y-101956823D01*
X142151183Y-101958526D01*
X142141242Y-101958526D01*
X142134048Y-101961505D01*
X142126377Y-101962840D01*
X142117978Y-101968162D01*
X142108799Y-101971965D01*
X142103296Y-101977467D01*
X142096716Y-101981638D01*
X142085198Y-101995002D01*
X141999897Y-102116217D01*
X141926359Y-102185885D01*
X141848844Y-102222604D01*
X141833716Y-102231683D01*
X141810149Y-102257717D01*
X141798339Y-102290788D01*
X141592458Y-102290788D01*
X141567250Y-102195261D01*
X141566572Y-102193441D01*
X141566490Y-102192551D01*
X141563681Y-102185670D01*
X141561098Y-102178726D01*
X141560557Y-102178016D01*
X141559823Y-102176216D01*
X141514586Y-102090503D01*
X141509409Y-102082666D01*
X141508445Y-102080506D01*
X141506498Y-102078260D01*
X141504861Y-102075782D01*
X141503040Y-102074271D01*
X141496888Y-102067175D01*
X141451650Y-102024318D01*
X141444999Y-102019154D01*
X141443408Y-102017396D01*
X141440445Y-102015618D01*
X141437715Y-102013498D01*
X141435498Y-102012649D01*
X141428281Y-102008318D01*
X141337805Y-101965461D01*
X141321197Y-101959507D01*
X141318931Y-101959394D01*
X141316835Y-101958526D01*
X141299277Y-101956797D01*
X141208800Y-101956797D01*
X141191242Y-101958526D01*
X141189145Y-101959394D01*
X141186880Y-101959507D01*
X141170272Y-101965461D01*
X141079796Y-102008318D01*
X141072578Y-102012649D01*
X141070362Y-102013498D01*
X141067631Y-102015618D01*
X141064669Y-102017396D01*
X141063077Y-102019154D01*
X141056427Y-102024318D01*
X141011189Y-102067175D01*
X141005036Y-102074272D01*
X141003216Y-102075782D01*
X141001578Y-102078260D01*
X140999632Y-102080506D01*
X140998667Y-102082666D01*
X140993491Y-102090503D01*
X140948253Y-102176217D01*
X140947518Y-102178017D01*
X140946979Y-102178726D01*
X140944397Y-102185665D01*
X140941587Y-102192552D01*
X140941504Y-102193442D01*
X140940827Y-102195262D01*
X140895589Y-102366690D01*
X140894958Y-102370600D01*
X140894339Y-102372096D01*
X140893744Y-102378128D01*
X140892781Y-102384108D01*
X140892998Y-102385711D01*
X140892610Y-102389654D01*
X140389662Y-102389654D01*
X140682602Y-102112133D01*
X140694159Y-102098802D01*
X140708468Y-102066734D01*
X140709417Y-102031630D01*
X140696861Y-101998836D01*
X140672710Y-101973343D01*
X140640641Y-101959034D01*
X140605538Y-101958085D01*
X140572743Y-101970641D01*
X140558808Y-101981461D01*
X140167848Y-102351843D01*
X140167848Y-102046797D01*
X140166119Y-102029239D01*
X140152680Y-101996796D01*
X140127849Y-101971965D01*
X140095406Y-101958526D01*
X140060290Y-101958526D01*
X140027847Y-101971965D01*
X140003016Y-101996796D01*
X139989577Y-102029239D01*
X139987848Y-102046797D01*
X139715467Y-102046797D01*
X139713738Y-102029239D01*
X139700299Y-101996796D01*
X139675468Y-101971965D01*
X139643025Y-101958526D01*
X139607909Y-101958526D01*
X139575466Y-101971965D01*
X139550635Y-101996796D01*
X139537196Y-102029239D01*
X139535467Y-102046797D01*
X139295529Y-102046797D01*
X139288538Y-102033352D01*
X139261648Y-102010768D01*
X139245426Y-102003832D01*
X139109712Y-101960975D01*
X139102317Y-101959416D01*
X139100168Y-101958526D01*
X139096274Y-101958142D01*
X139092448Y-101957336D01*
X139090131Y-101957537D01*
X139082610Y-101956797D01*
X138856419Y-101956797D01*
X138838861Y-101958526D01*
X138836764Y-101959394D01*
X138834499Y-101959507D01*
X138817891Y-101965461D01*
X138727415Y-102008318D01*
X138720197Y-102012649D01*
X138717981Y-102013498D01*
X138715250Y-102015618D01*
X138712288Y-102017396D01*
X138710696Y-102019154D01*
X138704046Y-102024318D01*
X138658808Y-102067175D01*
X138652655Y-102074272D01*
X138650835Y-102075782D01*
X138649197Y-102078260D01*
X138647251Y-102080506D01*
X138646286Y-102082666D01*
X138641110Y-102090503D01*
X138595872Y-102176217D01*
X138589206Y-102192552D01*
X138588813Y-102196761D01*
X138587196Y-102200667D01*
X138585467Y-102218225D01*
X137996419Y-102218225D01*
X137996419Y-102136797D01*
X138358800Y-102136797D01*
X138376358Y-102135068D01*
X138408801Y-102121629D01*
X138433632Y-102096798D01*
X138447071Y-102064355D01*
X138447071Y-102029239D01*
X138433632Y-101996796D01*
X138408801Y-101971965D01*
X138376358Y-101958526D01*
X138358800Y-101956797D01*
X137906419Y-101956797D01*
X137888861Y-101958526D01*
X137856418Y-101971965D01*
X137831587Y-101996796D01*
X137818148Y-102029239D01*
X137816419Y-102046797D01*
X137678023Y-102046797D01*
X137678023Y-102029239D01*
X137664584Y-101996796D01*
X137639753Y-101971965D01*
X137607310Y-101958526D01*
X137589752Y-101956797D01*
X137046895Y-101956797D01*
X137029337Y-101958526D01*
X136996894Y-101971965D01*
X136972063Y-101996796D01*
X136958624Y-102029239D01*
X136858624Y-102029239D01*
X136858624Y-101856797D01*
X143568941Y-101856797D01*
X143568941Y-103136797D01*
G37*
D12*
%TO.P,J2,1*%
%TO.N,GND*%
X127388600Y-83483400D03*
%TO.P,J2,2*%
X129928600Y-83483400D03*
%TO.P,J2,3*%
%TO.N,/#RST_C2CK*%
X127388600Y-86023400D03*
%TO.P,J2,4*%
%TO.N,/C2D*%
X129928600Y-86023400D03*
%TO.P,J2,5*%
%TO.N,+5V*%
X127388600Y-88563400D03*
%TO.P,J2,6*%
%TO.N,GND*%
X129928600Y-88563400D03*
%TD*%
D13*
%TO.P,U2,37,GND_RF*%
%TO.N,GNDS*%
X142041000Y-83305000D03*
X140841000Y-83305000D03*
X139641000Y-83305000D03*
X138441000Y-83305000D03*
X142041000Y-84855000D03*
X140841000Y-84855000D03*
D14*
X140241000Y-84855000D03*
D13*
X139641000Y-84855000D03*
X138441000Y-84855000D03*
X142041000Y-86405000D03*
X140841000Y-86405000D03*
X139641000Y-86405000D03*
X138441000Y-86405000D03*
%TD*%
D15*
%TO.P,U3,9*%
%TO.N,GNDS*%
X152861000Y-93380000D03*
X153461000Y-93380000D03*
X154061000Y-93380000D03*
%TD*%
D16*
%TO.P,J3,2*%
%TO.N,GNDS*%
X171168000Y-85296000D03*
X171168000Y-79546000D03*
%TD*%
%TO.P,J4,2*%
%TO.N,GNDS*%
X171168000Y-100296000D03*
X171168000Y-94546000D03*
%TD*%
D17*
%TO.N,GND*%
X137693000Y-77271000D03*
X133883400Y-89204800D03*
X135161000Y-103778000D03*
X138844000Y-99587000D03*
X143154400Y-94107000D03*
X135669000Y-76092000D03*
X138282596Y-92826553D03*
X129600000Y-101575000D03*
X141511000Y-99587000D03*
X129525000Y-93475000D03*
X142654000Y-103651000D03*
X126355398Y-76970186D03*
X138844000Y-97428000D03*
X126516010Y-78676106D03*
X126575000Y-93766667D03*
X131706600Y-87522000D03*
X134550000Y-77150000D03*
X141511000Y-98240800D03*
X141384000Y-103651000D03*
X130589000Y-102635000D03*
X131859000Y-86252000D03*
X142908000Y-97809000D03*
X126500000Y-91750000D03*
X131732000Y-102635000D03*
X134526000Y-76092000D03*
X126525000Y-79775000D03*
X135813800Y-85013800D03*
X131986000Y-76092000D03*
X140114000Y-103651000D03*
X129768600Y-90449400D03*
X138844000Y-98444000D03*
X138767800Y-77692200D03*
X143797000Y-103651000D03*
X129573000Y-102635000D03*
X135509000Y-87299800D03*
X140795200Y-93416088D03*
X137574000Y-99587000D03*
X142908000Y-99587000D03*
X131808200Y-85255800D03*
X133891000Y-103778000D03*
X131750000Y-90500000D03*
X127025000Y-101050000D03*
X132621000Y-103778000D03*
X133256000Y-76092000D03*
X131622800Y-91821000D03*
X126575000Y-94825000D03*
X134000000Y-83343000D03*
X127025000Y-99991665D03*
X127600000Y-93791667D03*
X130657600Y-93395800D03*
X131757400Y-89020600D03*
X133460101Y-85097000D03*
X141427200Y-97180400D03*
X142341600Y-92913200D03*
X140368000Y-75965000D03*
X136682596Y-89808000D03*
X142316200Y-93751400D03*
X144940000Y-100730000D03*
X127076200Y-90525600D03*
X143839332Y-75965000D03*
X145575000Y-75965000D03*
X136100800Y-103244600D03*
X142103666Y-75965000D03*
X142933400Y-96412000D03*
X135669000Y-77108000D03*
X145067000Y-103651000D03*
%TO.N,+3V3*%
X142240000Y-95177600D03*
X155735000Y-92602000D03*
%TO.N,/P1.5*%
X130243000Y-77579200D03*
X138469835Y-79300335D03*
%TO.N,/P1.4*%
X133200000Y-77641700D03*
X140017617Y-80805800D03*
%TO.N,/C2D*%
X133637000Y-81381600D03*
%TO.N,GNDS*%
X157259000Y-94507000D03*
X165006000Y-99968000D03*
X154863800Y-94996000D03*
X152433000Y-97047000D03*
X150528000Y-99841000D03*
X158675000Y-80925000D03*
X153830000Y-78124000D03*
X144650000Y-88050000D03*
X171229000Y-87268000D03*
X154762200Y-92710000D03*
X144907000Y-87172800D03*
X168054000Y-87268000D03*
X169641500Y-87268000D03*
X161293000Y-85671000D03*
X151798000Y-83458000D03*
X147950000Y-87400000D03*
X165768000Y-103651000D03*
X161958000Y-79394000D03*
X154813000Y-93726000D03*
X160688000Y-76346000D03*
X146800000Y-76900000D03*
X158038800Y-92100400D03*
X161323000Y-99206000D03*
X164879000Y-94126000D03*
X163482000Y-76346000D03*
X150782000Y-78124000D03*
X164879000Y-85109000D03*
X160578800Y-96824800D03*
X166268400Y-92710000D03*
X168555200Y-77771000D03*
X154846000Y-88157000D03*
X170017400Y-77771000D03*
X170441000Y-102221000D03*
X153576000Y-97174000D03*
X156768800Y-94869000D03*
X153449000Y-76092000D03*
X164879000Y-83966000D03*
X146532600Y-82880200D03*
X167800000Y-92729000D03*
X155227000Y-76092000D03*
X169057000Y-102221000D03*
X146950000Y-100450000D03*
X153195000Y-103651000D03*
X157809332Y-97174000D03*
X157005000Y-89935000D03*
X158529000Y-102254000D03*
X153449000Y-100095000D03*
X154838400Y-83769200D03*
X154719000Y-103651000D03*
X162212000Y-87776000D03*
X169451000Y-92729000D03*
X161831000Y-80537000D03*
X161831000Y-81807000D03*
X174404000Y-92729000D03*
X174404000Y-87268000D03*
X164879000Y-79902000D03*
X151544000Y-93745000D03*
X156878000Y-82188000D03*
X164879000Y-78886000D03*
X158743000Y-79721000D03*
X165260000Y-91332000D03*
X162300000Y-84400000D03*
X160307000Y-100095000D03*
X159545000Y-103143000D03*
X143383000Y-92227400D03*
X160942000Y-94888000D03*
X166657000Y-102889000D03*
X165006000Y-76346000D03*
X173209000Y-102221000D03*
X171825000Y-102221000D03*
X171479600Y-77771000D03*
X174404000Y-77771000D03*
X149512000Y-99079000D03*
X148496000Y-98317000D03*
X147269200Y-84785200D03*
X157327600Y-85115400D03*
X163228000Y-101111000D03*
X160275000Y-80800000D03*
X158867665Y-97174000D03*
X148496000Y-96031000D03*
X162571264Y-93271000D03*
X161350000Y-84700000D03*
X149512000Y-85109000D03*
X164879000Y-95523000D03*
X156750999Y-97174000D03*
X151925000Y-76092000D03*
X148623000Y-78505000D03*
X160942000Y-103651000D03*
X161993000Y-83021000D03*
X162085000Y-98444000D03*
X158783000Y-88030000D03*
X153339800Y-83083400D03*
X156751000Y-100095000D03*
X162593000Y-103651000D03*
X151544000Y-95142000D03*
X153449000Y-101365000D03*
X147861000Y-102381000D03*
X158470600Y-94894400D03*
X161958000Y-100222000D03*
X167673000Y-102221000D03*
X152052000Y-101873000D03*
X152500000Y-86500000D03*
X164244000Y-103651000D03*
X164879000Y-81045000D03*
X155633400Y-80029000D03*
X150528000Y-85871000D03*
X143941800Y-84861400D03*
X164879000Y-92729000D03*
X165260000Y-88792000D03*
X174593000Y-102221000D03*
X151798000Y-103651000D03*
X159926000Y-97174000D03*
X144119600Y-86385400D03*
X157259000Y-102254000D03*
X158699200Y-84328000D03*
X148496000Y-97174000D03*
X164879000Y-87649000D03*
X146972000Y-97555000D03*
X164498000Y-101111000D03*
X154634333Y-97174000D03*
X155692666Y-97174000D03*
X152433000Y-78124000D03*
X154846000Y-89173000D03*
X146972000Y-94634000D03*
X152052000Y-87522000D03*
X157894000Y-100095000D03*
X151544000Y-92475000D03*
X163093400Y-88874600D03*
X156116000Y-103270000D03*
X148496000Y-95015000D03*
X154592000Y-100095000D03*
X156075000Y-85875000D03*
X149352000Y-82829400D03*
X146972000Y-93491000D03*
X148750000Y-92602000D03*
X155735000Y-100095000D03*
X172941800Y-77771000D03*
X150655000Y-101365000D03*
X150528000Y-76092000D03*
X166043000Y-77071000D03*
X162343000Y-86271000D03*
X171102000Y-92729000D03*
X163482000Y-78886000D03*
X151671000Y-96158000D03*
X156878000Y-81045000D03*
X162293000Y-94871000D03*
X161350000Y-92050000D03*
X166573200Y-87350600D03*
X149512000Y-79394000D03*
X172816500Y-87268000D03*
X164879000Y-86252000D03*
X167093000Y-77771000D03*
X162212000Y-76346000D03*
X146972000Y-98952000D03*
X159258000Y-94742000D03*
X155227000Y-78505000D03*
X159037000Y-100095000D03*
X149766000Y-103016000D03*
X172753000Y-92729000D03*
X151290000Y-86633000D03*
X159969200Y-85140800D03*
X158783000Y-86760000D03*
X148724600Y-80130600D03*
X160705800Y-83566000D03*
X144200000Y-82000000D03*
X165260000Y-90062000D03*
X156818750Y-92338333D03*
X146972000Y-96158000D03*
X147353000Y-78505000D03*
X154846000Y-87141000D03*
X152052000Y-88665000D03*
%TO.N,/#RST_C2CK*%
X131500000Y-81946480D03*
%TO.N,GPIO1*%
X141300200Y-88823800D03*
X159479000Y-93938000D03*
%TO.N,/#RTS*%
X137718800Y-88754002D03*
X135796000Y-95396000D03*
%TO.N,GPIO0*%
X142188308Y-88871707D03*
X162000000Y-91000000D03*
%TO.N,GPIO2*%
X152052000Y-89832989D03*
X143106835Y-82300000D03*
%TO.N,+5V*%
X128652400Y-100546000D03*
%TO.N,/#CTS*%
X136859006Y-87791237D03*
X135450000Y-93618000D03*
%TO.N,/RX_u*%
X137447000Y-97174000D03*
X139809570Y-88576017D03*
%TO.N,/TX_u*%
X136093200Y-97231200D03*
X138963400Y-88595200D03*
%TO.N,/P1.6*%
X138000020Y-80265820D03*
X127700000Y-77400000D03*
X128718000Y-79376700D03*
%TD*%
D18*
%TO.N,+3V3*%
X142184194Y-91581529D02*
X141545200Y-92220523D01*
X141545200Y-92220523D02*
X141545200Y-94482800D01*
X152261600Y-92049600D02*
X151793529Y-91581529D01*
X155735000Y-92602000D02*
X155182600Y-92049600D01*
X155182600Y-92049600D02*
X152261600Y-92049600D01*
X141545200Y-94482800D02*
X142240000Y-95177600D01*
X151793529Y-91581529D02*
X142184194Y-91581529D01*
%TO.N,/P1.5*%
X131943135Y-79300335D02*
X138469835Y-79300335D01*
X130243000Y-77579200D02*
X130243000Y-77600200D01*
X130243000Y-77600200D02*
X131943135Y-79300335D01*
%TO.N,/P1.4*%
X140017617Y-79858858D02*
X138612959Y-78454200D01*
X138612959Y-78454200D02*
X134012500Y-78454200D01*
X134012500Y-78454200D02*
X133200000Y-77641700D01*
X140017617Y-80805800D02*
X140017617Y-79858858D01*
%TO.N,/C2D*%
X133637000Y-82315000D02*
X133637000Y-81381600D01*
X129928600Y-86023400D02*
X133637000Y-82315000D01*
%TO.N,/#RST_C2CK*%
X128607800Y-84804200D02*
X128607800Y-82692200D01*
X129391400Y-81908600D02*
X131462120Y-81908600D01*
X127388600Y-86023400D02*
X128607800Y-84804200D01*
X128607800Y-82692200D02*
X129391400Y-81908600D01*
X131462120Y-81908600D02*
X131500000Y-81946480D01*
%TO.N,GPIO1*%
X156960300Y-91500000D02*
X152474000Y-91500000D01*
X158023850Y-92949050D02*
X157418750Y-92343950D01*
X159398300Y-93938000D02*
X158409350Y-92949050D01*
X152474000Y-91500000D02*
X152056009Y-91082009D01*
X157418750Y-91958450D02*
X156960300Y-91500000D01*
X157418750Y-92343950D02*
X157418750Y-91958450D01*
X158409350Y-92949050D02*
X158023850Y-92949050D01*
X142082009Y-91082009D02*
X141300200Y-90300200D01*
X159479000Y-93938000D02*
X159398300Y-93938000D01*
X152056009Y-91082009D02*
X142082009Y-91082009D01*
X141300200Y-90300200D02*
X141300200Y-88823800D01*
%TO.N,/#RTS*%
X137482596Y-93709404D02*
X135796000Y-95396000D01*
X137482596Y-88990206D02*
X137482596Y-93709404D01*
X137718800Y-88754002D02*
X137482596Y-88990206D01*
%TO.N,GPIO0*%
X142151095Y-90101095D02*
X142151095Y-88908920D01*
X152166511Y-90582489D02*
X152262917Y-90582489D01*
X142151095Y-88908920D02*
X142188308Y-88871707D01*
X142632489Y-90582489D02*
X142151095Y-90101095D01*
X162000000Y-91000000D02*
X152750000Y-91000000D01*
X152332489Y-90582489D02*
X152166511Y-90582489D01*
X152750000Y-91000000D02*
X152332489Y-90582489D01*
X152166511Y-90582489D02*
X142632489Y-90582489D01*
%TO.N,GPIO2*%
X143106835Y-87956835D02*
X145232969Y-90082969D01*
X151802020Y-90082969D02*
X152052000Y-89832989D01*
X145232969Y-90082969D02*
X151802020Y-90082969D01*
X143106835Y-82300000D02*
X143106835Y-87956835D01*
D19*
%TO.N,+5V*%
X127388600Y-88563400D02*
X128652400Y-89827200D01*
X128652400Y-89827200D02*
X128652400Y-100546000D01*
D18*
%TO.N,/#CTS*%
X136275121Y-88375121D02*
X136859006Y-87791237D01*
X136275121Y-88375121D02*
X135450000Y-89200242D01*
X135450000Y-89200242D02*
X135450000Y-93618000D01*
%TO.N,/RX_u*%
X139852400Y-94768600D02*
X137447000Y-97174000D01*
X139809570Y-88576017D02*
X139852400Y-88618847D01*
X139852400Y-88618847D02*
X139852400Y-94768600D01*
%TO.N,/TX_u*%
X136093200Y-97231200D02*
X139000000Y-94324400D01*
X139000000Y-94324400D02*
X139000000Y-88631800D01*
X139000000Y-88631800D02*
X138963400Y-88595200D01*
%TO.N,/P1.6*%
X128718000Y-79376700D02*
X129607120Y-80265820D01*
X128718000Y-79318000D02*
X127700000Y-78300000D01*
X129607120Y-80265820D02*
X138000020Y-80265820D01*
X128718000Y-79376700D02*
X128718000Y-79318000D01*
X127700000Y-78300000D02*
X127700000Y-77400000D01*
%TD*%
%TA.AperFunction,Conductor*%
%TO.N,GND*%
G36*
X126423021Y-75039982D02*
G01*
X126450041Y-75086782D01*
X126450268Y-75088142D01*
X126479444Y-75272357D01*
X126479449Y-75272376D01*
X126552431Y-75496989D01*
X126552438Y-75497007D01*
X126659654Y-75707428D01*
X126659657Y-75707433D01*
X126798483Y-75898510D01*
X126798487Y-75898514D01*
X126798492Y-75898520D01*
X126965479Y-76065507D01*
X126965485Y-76065512D01*
X126965490Y-76065517D01*
X127156567Y-76204343D01*
X127156571Y-76204345D01*
X127366992Y-76311561D01*
X127367001Y-76311564D01*
X127367008Y-76311568D01*
X127591632Y-76384553D01*
X127591638Y-76384553D01*
X127591642Y-76384555D01*
X127779924Y-76414375D01*
X127824908Y-76421500D01*
X127824913Y-76421500D01*
X128061087Y-76421500D01*
X128061092Y-76421500D01*
X128177730Y-76403026D01*
X128294357Y-76384555D01*
X128294359Y-76384554D01*
X128294368Y-76384553D01*
X128518992Y-76311568D01*
X128519001Y-76311563D01*
X128519007Y-76311561D01*
X128632635Y-76253663D01*
X128729433Y-76204343D01*
X128920510Y-76065517D01*
X129087517Y-75898510D01*
X129226343Y-75707433D01*
X129275663Y-75610635D01*
X129333561Y-75497007D01*
X129333563Y-75497001D01*
X129333568Y-75496992D01*
X129406553Y-75272368D01*
X129431994Y-75111740D01*
X129435732Y-75088142D01*
X129461930Y-75040878D01*
X129512380Y-75021512D01*
X129513759Y-75021500D01*
X136372241Y-75021500D01*
X136423021Y-75039982D01*
X136450041Y-75086782D01*
X136450268Y-75088142D01*
X136479444Y-75272357D01*
X136479449Y-75272376D01*
X136552431Y-75496989D01*
X136552438Y-75497007D01*
X136659654Y-75707428D01*
X136659657Y-75707433D01*
X136798483Y-75898510D01*
X136798487Y-75898514D01*
X136798492Y-75898520D01*
X136965479Y-76065507D01*
X136965485Y-76065512D01*
X136965490Y-76065517D01*
X137156567Y-76204343D01*
X137156571Y-76204345D01*
X137366992Y-76311561D01*
X137367001Y-76311564D01*
X137367008Y-76311568D01*
X137591632Y-76384553D01*
X137591638Y-76384553D01*
X137591642Y-76384555D01*
X137779924Y-76414375D01*
X137824908Y-76421500D01*
X137824913Y-76421500D01*
X138061087Y-76421500D01*
X138061092Y-76421500D01*
X138177730Y-76403026D01*
X138294357Y-76384555D01*
X138294359Y-76384554D01*
X138294368Y-76384553D01*
X138518992Y-76311568D01*
X138519001Y-76311563D01*
X138519007Y-76311561D01*
X138632635Y-76253663D01*
X138729433Y-76204343D01*
X138920510Y-76065517D01*
X139087517Y-75898510D01*
X139226343Y-75707433D01*
X139275663Y-75610635D01*
X139333561Y-75497007D01*
X139333563Y-75497001D01*
X139333568Y-75496992D01*
X139406553Y-75272368D01*
X139431994Y-75111740D01*
X139435732Y-75088142D01*
X139461930Y-75040878D01*
X139512380Y-75021512D01*
X139513759Y-75021500D01*
X145921156Y-75021500D01*
X145971936Y-75039982D01*
X145998956Y-75086782D01*
X145999352Y-75111740D01*
X145994500Y-75145495D01*
X145994500Y-80615500D01*
X145976018Y-80666280D01*
X145929218Y-80693300D01*
X145915500Y-80694500D01*
X144843497Y-80694500D01*
X144832864Y-80694775D01*
X144832853Y-80694775D01*
X144832836Y-80694776D01*
X144820055Y-80695438D01*
X144820046Y-80695439D01*
X144752719Y-80710527D01*
X144752717Y-80710527D01*
X144752716Y-80710528D01*
X144738591Y-80716320D01*
X144688069Y-80737036D01*
X144672006Y-80746490D01*
X144637661Y-80766702D01*
X144448599Y-80917951D01*
X144371432Y-80979686D01*
X144249553Y-81077189D01*
X144200202Y-81094500D01*
X140724047Y-81094500D01*
X140680327Y-81099205D01*
X140680323Y-81099205D01*
X140680321Y-81099206D01*
X140680319Y-81099206D01*
X140628761Y-81110432D01*
X140618562Y-81112927D01*
X140618552Y-81112931D01*
X140537860Y-81155969D01*
X140537858Y-81155970D01*
X140485081Y-81201737D01*
X140467123Y-81219346D01*
X140422507Y-81299178D01*
X140402851Y-81366214D01*
X140402846Y-81366236D01*
X140394547Y-81424119D01*
X140394547Y-81424123D01*
X140394547Y-81424124D01*
X140394837Y-82187876D01*
X140395061Y-82775470D01*
X140376598Y-82826257D01*
X140329809Y-82853295D01*
X140316061Y-82854500D01*
X138171252Y-82854500D01*
X138112769Y-82866132D01*
X138046448Y-82910448D01*
X138002132Y-82976769D01*
X137990500Y-83035252D01*
X137990500Y-86674747D01*
X138002132Y-86733230D01*
X138002133Y-86733231D01*
X138046448Y-86799552D01*
X138112769Y-86843867D01*
X138112768Y-86843867D01*
X138171252Y-86855500D01*
X138381691Y-86855500D01*
X138500309Y-86855500D01*
X139581691Y-86855500D01*
X139700309Y-86855500D01*
X140317644Y-86855500D01*
X140368424Y-86873982D01*
X140395444Y-86920782D01*
X140396644Y-86934470D01*
X140397200Y-88395169D01*
X140401913Y-88438848D01*
X140406978Y-88462094D01*
X140409716Y-88481144D01*
X140412422Y-88487071D01*
X140413139Y-88490361D01*
X140415628Y-88500526D01*
X140436002Y-88538728D01*
X140447695Y-88564342D01*
X140449690Y-88566952D01*
X140450659Y-88566210D01*
X140457232Y-88578535D01*
X140458663Y-88581218D01*
X140458667Y-88581224D01*
X140473401Y-88598215D01*
X140476477Y-88601992D01*
X140490126Y-88619846D01*
X140490140Y-88619864D01*
X140503534Y-88635323D01*
X140506620Y-88638884D01*
X140513645Y-88643398D01*
X140522041Y-88651961D01*
X140559888Y-88673111D01*
X140561929Y-88674423D01*
X140561930Y-88674424D01*
X140583563Y-88688325D01*
X140583564Y-88688326D01*
X140587528Y-88689758D01*
X140587543Y-88689763D01*
X140593601Y-88691953D01*
X140601876Y-88696578D01*
X140625786Y-88703589D01*
X140649231Y-88712065D01*
X140649232Y-88712065D01*
X140649234Y-88712066D01*
X140706539Y-88723924D01*
X140708248Y-88724028D01*
X140710339Y-88724157D01*
X140710346Y-88724157D01*
X140710359Y-88724158D01*
X140722996Y-88724542D01*
X140770673Y-88724524D01*
X140821458Y-88742988D01*
X140848495Y-88789777D01*
X140849700Y-88803524D01*
X140849700Y-88883109D01*
X140880400Y-88997685D01*
X140880401Y-88997687D01*
X140939116Y-89099382D01*
X140949700Y-89138882D01*
X140949700Y-90346346D01*
X140973042Y-90433459D01*
X140973042Y-90433460D01*
X140973583Y-90435482D01*
X140973586Y-90435489D01*
X141019731Y-90515414D01*
X141831317Y-91327000D01*
X141854155Y-91375976D01*
X141840169Y-91428174D01*
X141831317Y-91438722D01*
X141264731Y-92005308D01*
X141231146Y-92063478D01*
X141231146Y-92063480D01*
X141223458Y-92076795D01*
X141218584Y-92085238D01*
X141194700Y-92174376D01*
X141194700Y-94528946D01*
X141217470Y-94613926D01*
X141218585Y-94618086D01*
X141218585Y-94618087D01*
X141264731Y-94698014D01*
X141769360Y-95202642D01*
X141789807Y-95238056D01*
X141820200Y-95351485D01*
X141820201Y-95351487D01*
X141879512Y-95454215D01*
X141963384Y-95538087D01*
X141963386Y-95538088D01*
X141963387Y-95538089D01*
X142066114Y-95597399D01*
X142180691Y-95628100D01*
X142180693Y-95628100D01*
X142299307Y-95628100D01*
X142299309Y-95628100D01*
X142413886Y-95597399D01*
X142516613Y-95538089D01*
X142600489Y-95454213D01*
X142659799Y-95351486D01*
X142690500Y-95236909D01*
X142690500Y-95118291D01*
X142659799Y-95003714D01*
X142648308Y-94983812D01*
X142600487Y-94900984D01*
X142516615Y-94817112D01*
X142413887Y-94757801D01*
X142413885Y-94757800D01*
X142300456Y-94727407D01*
X142265042Y-94706960D01*
X141918839Y-94360757D01*
X141896001Y-94311781D01*
X141895700Y-94304896D01*
X141895700Y-92398427D01*
X141914182Y-92347647D01*
X141918839Y-92342566D01*
X142306237Y-91955168D01*
X142355213Y-91932330D01*
X142362098Y-91932029D01*
X142528155Y-91932029D01*
X142578935Y-91950511D01*
X142605955Y-91997311D01*
X142606978Y-92016315D01*
X142603433Y-92069166D01*
X142603433Y-92069178D01*
X142603288Y-92094313D01*
X142628546Y-92182209D01*
X142628547Y-92182210D01*
X142662303Y-92243383D01*
X142697565Y-92290053D01*
X143070840Y-92660025D01*
X143086919Y-92674371D01*
X143107171Y-92690616D01*
X143177857Y-92727490D01*
X143244896Y-92747175D01*
X143302794Y-92755500D01*
X145744757Y-92755500D01*
X145795537Y-92773982D01*
X145796169Y-92774519D01*
X145966912Y-92920869D01*
X145993439Y-92967949D01*
X145994500Y-92980850D01*
X145994500Y-104696500D01*
X145998430Y-104733056D01*
X145985482Y-104785521D01*
X145941839Y-104817388D01*
X145919883Y-104820500D01*
X139513759Y-104820500D01*
X139462979Y-104802018D01*
X139435959Y-104755218D01*
X139435732Y-104753858D01*
X139406555Y-104569642D01*
X139406553Y-104569638D01*
X139406553Y-104569632D01*
X139333568Y-104345008D01*
X139333564Y-104345001D01*
X139333561Y-104344992D01*
X139226345Y-104134571D01*
X139226343Y-104134567D01*
X139087517Y-103943490D01*
X139087512Y-103943485D01*
X139087507Y-103943479D01*
X138920520Y-103776492D01*
X138920514Y-103776487D01*
X138920510Y-103776483D01*
X138729433Y-103637657D01*
X138729431Y-103637656D01*
X138729428Y-103637654D01*
X138519007Y-103530438D01*
X138518989Y-103530431D01*
X138294376Y-103457449D01*
X138294357Y-103457444D01*
X138061103Y-103420501D01*
X138061095Y-103420500D01*
X138061092Y-103420500D01*
X137824908Y-103420500D01*
X137824905Y-103420500D01*
X137824896Y-103420501D01*
X137591642Y-103457444D01*
X137591623Y-103457449D01*
X137367010Y-103530431D01*
X137366992Y-103530438D01*
X137156571Y-103637654D01*
X137156560Y-103637661D01*
X136965497Y-103776477D01*
X136965479Y-103776492D01*
X136798492Y-103943479D01*
X136798477Y-103943497D01*
X136659661Y-104134560D01*
X136659654Y-104134571D01*
X136552438Y-104344992D01*
X136552431Y-104345010D01*
X136479449Y-104569623D01*
X136479444Y-104569642D01*
X136450268Y-104753858D01*
X136424070Y-104801122D01*
X136373620Y-104820488D01*
X136372241Y-104820500D01*
X129513759Y-104820500D01*
X129462979Y-104802018D01*
X129435959Y-104755218D01*
X129435732Y-104753858D01*
X129406555Y-104569642D01*
X129406553Y-104569638D01*
X129406553Y-104569632D01*
X129333568Y-104345008D01*
X129333564Y-104345001D01*
X129333561Y-104344992D01*
X129226345Y-104134571D01*
X129226343Y-104134567D01*
X129087517Y-103943490D01*
X129087512Y-103943485D01*
X129087507Y-103943479D01*
X128920520Y-103776492D01*
X128920514Y-103776487D01*
X128920510Y-103776483D01*
X128729433Y-103637657D01*
X128729431Y-103637656D01*
X128729428Y-103637654D01*
X128519007Y-103530438D01*
X128518989Y-103530431D01*
X128294376Y-103457449D01*
X128294357Y-103457444D01*
X128061103Y-103420501D01*
X128061095Y-103420500D01*
X128061092Y-103420500D01*
X127824908Y-103420500D01*
X127824905Y-103420500D01*
X127824896Y-103420501D01*
X127591642Y-103457444D01*
X127591623Y-103457449D01*
X127367010Y-103530431D01*
X127366992Y-103530438D01*
X127156571Y-103637654D01*
X127156560Y-103637661D01*
X126965497Y-103776477D01*
X126965479Y-103776492D01*
X126798492Y-103943479D01*
X126798477Y-103943497D01*
X126659661Y-104134560D01*
X126659654Y-104134571D01*
X126552438Y-104344992D01*
X126552431Y-104345010D01*
X126479449Y-104569623D01*
X126479444Y-104569642D01*
X126450268Y-104753858D01*
X126424070Y-104801122D01*
X126373620Y-104820488D01*
X126372241Y-104820500D01*
X125622500Y-104820500D01*
X125571720Y-104802018D01*
X125544700Y-104755218D01*
X125543500Y-104741500D01*
X125543500Y-103043229D01*
X136951895Y-103043229D01*
X143475677Y-103043229D01*
X143475677Y-101950134D01*
X136951895Y-101950134D01*
X136951895Y-103043229D01*
X125543500Y-103043229D01*
X125543500Y-87781652D01*
X126426100Y-87781652D01*
X126426100Y-89345147D01*
X126437732Y-89403630D01*
X126437733Y-89403631D01*
X126482048Y-89469952D01*
X126548369Y-89514267D01*
X126548368Y-89514267D01*
X126606852Y-89525900D01*
X127751985Y-89525900D01*
X127802765Y-89544382D01*
X127807846Y-89549039D01*
X128228761Y-89969954D01*
X128251599Y-90018930D01*
X128251900Y-90025815D01*
X128251900Y-100317518D01*
X128241317Y-100357017D01*
X128232600Y-100372114D01*
X128201900Y-100486690D01*
X128201900Y-100605309D01*
X128232600Y-100719885D01*
X128232601Y-100719887D01*
X128291912Y-100822615D01*
X128375784Y-100906487D01*
X128375786Y-100906488D01*
X128375787Y-100906489D01*
X128478514Y-100965799D01*
X128593091Y-100996500D01*
X128593093Y-100996500D01*
X128711707Y-100996500D01*
X128711709Y-100996500D01*
X128826286Y-100965799D01*
X128929013Y-100906489D01*
X129012889Y-100822613D01*
X129072199Y-100719886D01*
X129102900Y-100605309D01*
X129102900Y-100486691D01*
X129072199Y-100372114D01*
X129063483Y-100357017D01*
X129052900Y-100317518D01*
X129052900Y-97171890D01*
X135642700Y-97171890D01*
X135642700Y-97290509D01*
X135673400Y-97405085D01*
X135673401Y-97405087D01*
X135732712Y-97507815D01*
X135816584Y-97591687D01*
X135816586Y-97591688D01*
X135816587Y-97591689D01*
X135919314Y-97650999D01*
X136033891Y-97681700D01*
X136033893Y-97681700D01*
X136152507Y-97681700D01*
X136152509Y-97681700D01*
X136267086Y-97650999D01*
X136369813Y-97591689D01*
X136453689Y-97507813D01*
X136512999Y-97405086D01*
X136543392Y-97291655D01*
X136563837Y-97256244D01*
X136894577Y-96925504D01*
X136943552Y-96902667D01*
X136995750Y-96916653D01*
X137026745Y-96960919D01*
X137026745Y-97001812D01*
X136996500Y-97114688D01*
X136996500Y-97233309D01*
X137027200Y-97347885D01*
X137027201Y-97347887D01*
X137086512Y-97450615D01*
X137170384Y-97534487D01*
X137170386Y-97534488D01*
X137170387Y-97534489D01*
X137273114Y-97593799D01*
X137387691Y-97624500D01*
X137387693Y-97624500D01*
X137506307Y-97624500D01*
X137506309Y-97624500D01*
X137620886Y-97593799D01*
X137723613Y-97534489D01*
X137807489Y-97450613D01*
X137866799Y-97347886D01*
X137897193Y-97234453D01*
X137917637Y-97199043D01*
X140132869Y-94983812D01*
X140179014Y-94903888D01*
X140179791Y-94900987D01*
X140202900Y-94814744D01*
X140202900Y-88816916D01*
X140213483Y-88777417D01*
X140229369Y-88749903D01*
X140260070Y-88635326D01*
X140260070Y-88516708D01*
X140229369Y-88402131D01*
X140225349Y-88395169D01*
X140181134Y-88318587D01*
X140170059Y-88299404D01*
X140170058Y-88299403D01*
X140170057Y-88299401D01*
X140086185Y-88215529D01*
X139983457Y-88156218D01*
X139983455Y-88156217D01*
X139868879Y-88125517D01*
X139750261Y-88125517D01*
X139750260Y-88125517D01*
X139635684Y-88156217D01*
X139635682Y-88156218D01*
X139532954Y-88215529D01*
X139449082Y-88299402D01*
X139449080Y-88299403D01*
X139447709Y-88301779D01*
X139446443Y-88302840D01*
X139445930Y-88303510D01*
X139445781Y-88303396D01*
X139406308Y-88336511D01*
X139352269Y-88336505D01*
X139323436Y-88318133D01*
X139240015Y-88234712D01*
X139137287Y-88175401D01*
X139137285Y-88175400D01*
X139022709Y-88144700D01*
X138904091Y-88144700D01*
X138904090Y-88144700D01*
X138789514Y-88175400D01*
X138789512Y-88175401D01*
X138686784Y-88234712D01*
X138602912Y-88318584D01*
X138543601Y-88421312D01*
X138543600Y-88421314D01*
X138512900Y-88535890D01*
X138512900Y-88654509D01*
X138543600Y-88769085D01*
X138543601Y-88769087D01*
X138602912Y-88871815D01*
X138626360Y-88895262D01*
X138649199Y-88944237D01*
X138649500Y-88951124D01*
X138649500Y-94146496D01*
X138631018Y-94197276D01*
X138626361Y-94202357D01*
X136068157Y-96760560D01*
X136032743Y-96781007D01*
X135919314Y-96811400D01*
X135919312Y-96811401D01*
X135816584Y-96870712D01*
X135732712Y-96954584D01*
X135673401Y-97057312D01*
X135673400Y-97057314D01*
X135642700Y-97171890D01*
X129052900Y-97171890D01*
X129052900Y-95336690D01*
X135345500Y-95336690D01*
X135345500Y-95455309D01*
X135376200Y-95569885D01*
X135376201Y-95569887D01*
X135435512Y-95672615D01*
X135519384Y-95756487D01*
X135519386Y-95756488D01*
X135519387Y-95756489D01*
X135622114Y-95815799D01*
X135736691Y-95846500D01*
X135736693Y-95846500D01*
X135855307Y-95846500D01*
X135855309Y-95846500D01*
X135969886Y-95815799D01*
X136072613Y-95756489D01*
X136156489Y-95672613D01*
X136215799Y-95569886D01*
X136246192Y-95456455D01*
X136266637Y-95421044D01*
X137763066Y-93924616D01*
X137809210Y-93844692D01*
X137812286Y-93833212D01*
X137833096Y-93755548D01*
X137833096Y-89250386D01*
X137851578Y-89199606D01*
X137888127Y-89176324D01*
X137887903Y-89175782D01*
X137890982Y-89174506D01*
X137891657Y-89174076D01*
X137892686Y-89173801D01*
X137995413Y-89114491D01*
X138079289Y-89030615D01*
X138138599Y-88927888D01*
X138169300Y-88813311D01*
X138169300Y-88694693D01*
X138138599Y-88580116D01*
X138079289Y-88477389D01*
X138079288Y-88477388D01*
X138079287Y-88477386D01*
X137995415Y-88393514D01*
X137892687Y-88334203D01*
X137892685Y-88334202D01*
X137778109Y-88303502D01*
X137659491Y-88303502D01*
X137659490Y-88303502D01*
X137544914Y-88334202D01*
X137544912Y-88334203D01*
X137442184Y-88393514D01*
X137358312Y-88477386D01*
X137299001Y-88580114D01*
X137299000Y-88580116D01*
X137268607Y-88693544D01*
X137267758Y-88695280D01*
X137267811Y-88696313D01*
X137264847Y-88701236D01*
X137255316Y-88720739D01*
X137252015Y-88725104D01*
X137202126Y-88774994D01*
X137165238Y-88838886D01*
X137162795Y-88843117D01*
X137162793Y-88843120D01*
X137155982Y-88854916D01*
X137155981Y-88854920D01*
X137132096Y-88944059D01*
X137132096Y-93531500D01*
X137113614Y-93582280D01*
X137108957Y-93587361D01*
X135770957Y-94925360D01*
X135735543Y-94945807D01*
X135622114Y-94976200D01*
X135622112Y-94976201D01*
X135519384Y-95035512D01*
X135435512Y-95119384D01*
X135376201Y-95222112D01*
X135376200Y-95222114D01*
X135345500Y-95336690D01*
X129052900Y-95336690D01*
X129052900Y-93558690D01*
X134999500Y-93558690D01*
X134999500Y-93677309D01*
X135030200Y-93791885D01*
X135030201Y-93791887D01*
X135089512Y-93894615D01*
X135173384Y-93978487D01*
X135173386Y-93978488D01*
X135173387Y-93978489D01*
X135276114Y-94037799D01*
X135390691Y-94068500D01*
X135390693Y-94068500D01*
X135509307Y-94068500D01*
X135509309Y-94068500D01*
X135623886Y-94037799D01*
X135726613Y-93978489D01*
X135810489Y-93894613D01*
X135869799Y-93791886D01*
X135900500Y-93677309D01*
X135900500Y-93558691D01*
X135869799Y-93444114D01*
X135811084Y-93342417D01*
X135800500Y-93302917D01*
X135800500Y-89378144D01*
X135818982Y-89327364D01*
X135823628Y-89322294D01*
X136483825Y-88662096D01*
X136483835Y-88662089D01*
X136884050Y-88261875D01*
X136919462Y-88241429D01*
X137032892Y-88211036D01*
X137135619Y-88151726D01*
X137219495Y-88067850D01*
X137278805Y-87965123D01*
X137309506Y-87850546D01*
X137309506Y-87731928D01*
X137278805Y-87617351D01*
X137219495Y-87514624D01*
X137219494Y-87514623D01*
X137219493Y-87514621D01*
X137135621Y-87430749D01*
X137032893Y-87371438D01*
X137032891Y-87371437D01*
X136918315Y-87340737D01*
X136799697Y-87340737D01*
X136799696Y-87340737D01*
X136685120Y-87371437D01*
X136685118Y-87371438D01*
X136582390Y-87430749D01*
X136498518Y-87514621D01*
X136439207Y-87617349D01*
X136439206Y-87617351D01*
X136408813Y-87730780D01*
X136388367Y-87766194D01*
X136059909Y-88094652D01*
X135169531Y-88985027D01*
X135132894Y-89048485D01*
X135132893Y-89048484D01*
X135123388Y-89064948D01*
X135123385Y-89064956D01*
X135099500Y-89154095D01*
X135099500Y-93302917D01*
X135088916Y-93342417D01*
X135030201Y-93444112D01*
X135030200Y-93444114D01*
X134999500Y-93558690D01*
X129052900Y-93558690D01*
X129052900Y-89774475D01*
X129052899Y-89774470D01*
X129041645Y-89732468D01*
X129036299Y-89712516D01*
X129025607Y-89672612D01*
X128972880Y-89581287D01*
X128972879Y-89581286D01*
X128972878Y-89581284D01*
X128374239Y-88982645D01*
X128351401Y-88933669D01*
X128351100Y-88926784D01*
X128351100Y-87781652D01*
X128339467Y-87723169D01*
X128295152Y-87656848D01*
X128228831Y-87612533D01*
X128228830Y-87612532D01*
X128228831Y-87612532D01*
X128170348Y-87600900D01*
X126606852Y-87600900D01*
X126548369Y-87612532D01*
X126482048Y-87656848D01*
X126437732Y-87723169D01*
X126426100Y-87781652D01*
X125543500Y-87781652D01*
X125543500Y-85241652D01*
X126426100Y-85241652D01*
X126426100Y-86805147D01*
X126437732Y-86863630D01*
X126437733Y-86863631D01*
X126482048Y-86929952D01*
X126548369Y-86974267D01*
X126548368Y-86974267D01*
X126606852Y-86985900D01*
X128170348Y-86985900D01*
X128228831Y-86974267D01*
X128295152Y-86929952D01*
X128339467Y-86863631D01*
X128351100Y-86805148D01*
X128351100Y-85589304D01*
X128369582Y-85538524D01*
X128374228Y-85533453D01*
X128666030Y-85241652D01*
X128966100Y-85241652D01*
X128966100Y-86805147D01*
X128977732Y-86863630D01*
X128977733Y-86863631D01*
X129022048Y-86929952D01*
X129088369Y-86974267D01*
X129088368Y-86974267D01*
X129146852Y-86985900D01*
X130710348Y-86985900D01*
X130768831Y-86974267D01*
X130835152Y-86929952D01*
X130879467Y-86863631D01*
X130891100Y-86805148D01*
X130891100Y-85589304D01*
X130909582Y-85538524D01*
X130914239Y-85533443D01*
X133917468Y-82530214D01*
X133917470Y-82530212D01*
X133963614Y-82450288D01*
X133967633Y-82435288D01*
X133987500Y-82361144D01*
X133987500Y-81696682D01*
X133998084Y-81657182D01*
X134014857Y-81628131D01*
X134056799Y-81555486D01*
X134087500Y-81440909D01*
X134087500Y-81322291D01*
X134056799Y-81207714D01*
X133997489Y-81104987D01*
X133997488Y-81104986D01*
X133997487Y-81104984D01*
X133913615Y-81021112D01*
X133810887Y-80961801D01*
X133810885Y-80961800D01*
X133696309Y-80931100D01*
X133577691Y-80931100D01*
X133577690Y-80931100D01*
X133463114Y-80961800D01*
X133463112Y-80961801D01*
X133360384Y-81021112D01*
X133276512Y-81104984D01*
X133217201Y-81207712D01*
X133217200Y-81207714D01*
X133186500Y-81322290D01*
X133186500Y-81440909D01*
X133217200Y-81555485D01*
X133217201Y-81555487D01*
X133275916Y-81657182D01*
X133286500Y-81696682D01*
X133286500Y-82137096D01*
X133268018Y-82187876D01*
X133263361Y-82192957D01*
X130418557Y-85037761D01*
X130369581Y-85060599D01*
X130362696Y-85060900D01*
X129146852Y-85060900D01*
X129088369Y-85072532D01*
X129022048Y-85116848D01*
X128977732Y-85183169D01*
X128966100Y-85241652D01*
X128666030Y-85241652D01*
X128888270Y-85019412D01*
X128934414Y-84939488D01*
X128940710Y-84915991D01*
X128958300Y-84850344D01*
X128958300Y-82870104D01*
X128976782Y-82819324D01*
X128981439Y-82814243D01*
X129513443Y-82282239D01*
X129562419Y-82259401D01*
X129569304Y-82259100D01*
X131142796Y-82259100D01*
X131193576Y-82277582D01*
X131198658Y-82282240D01*
X131223384Y-82306967D01*
X131223386Y-82306968D01*
X131223387Y-82306969D01*
X131326114Y-82366279D01*
X131440691Y-82396980D01*
X131440693Y-82396980D01*
X131559307Y-82396980D01*
X131559309Y-82396980D01*
X131673886Y-82366279D01*
X131776613Y-82306969D01*
X131860489Y-82223093D01*
X131919799Y-82120366D01*
X131950500Y-82005789D01*
X131950500Y-81887171D01*
X131919799Y-81772594D01*
X131860489Y-81669867D01*
X131860488Y-81669866D01*
X131860487Y-81669864D01*
X131776615Y-81585992D01*
X131673887Y-81526681D01*
X131673885Y-81526680D01*
X131559309Y-81495980D01*
X131440691Y-81495980D01*
X131440690Y-81495980D01*
X131326114Y-81526680D01*
X131326112Y-81526681D01*
X131290027Y-81547516D01*
X131250527Y-81558100D01*
X129345253Y-81558100D01*
X129262773Y-81580201D01*
X129256114Y-81581985D01*
X129256110Y-81581986D01*
X129176185Y-81628131D01*
X128327331Y-82476985D01*
X128291816Y-82538498D01*
X128291817Y-82538499D01*
X128281184Y-82556915D01*
X128257300Y-82646053D01*
X128257300Y-84626296D01*
X128238818Y-84677076D01*
X128234161Y-84682157D01*
X127878557Y-85037761D01*
X127829581Y-85060599D01*
X127822696Y-85060900D01*
X126606852Y-85060900D01*
X126548369Y-85072532D01*
X126482048Y-85116848D01*
X126437732Y-85183169D01*
X126426100Y-85241652D01*
X125543500Y-85241652D01*
X125543500Y-77340690D01*
X127249500Y-77340690D01*
X127249500Y-77459309D01*
X127280200Y-77573885D01*
X127280201Y-77573887D01*
X127338916Y-77675582D01*
X127349500Y-77715082D01*
X127349500Y-78346146D01*
X127373385Y-78435285D01*
X127373386Y-78435289D01*
X127419530Y-78515212D01*
X128244361Y-79340042D01*
X128267199Y-79389018D01*
X128267500Y-79395903D01*
X128267500Y-79436009D01*
X128298200Y-79550585D01*
X128298201Y-79550587D01*
X128357512Y-79653315D01*
X128441384Y-79737187D01*
X128441386Y-79737188D01*
X128441387Y-79737189D01*
X128544114Y-79796499D01*
X128657544Y-79826892D01*
X128692957Y-79847339D01*
X129391905Y-80546288D01*
X129391907Y-80546289D01*
X129391908Y-80546290D01*
X129458588Y-80584787D01*
X129458590Y-80584790D01*
X129471826Y-80592431D01*
X129471828Y-80592431D01*
X129471832Y-80592434D01*
X129560976Y-80616320D01*
X129560977Y-80616320D01*
X129653264Y-80616320D01*
X137684938Y-80616320D01*
X137724437Y-80626903D01*
X137826134Y-80685619D01*
X137940711Y-80716320D01*
X137940713Y-80716320D01*
X138059327Y-80716320D01*
X138059329Y-80716320D01*
X138173906Y-80685619D01*
X138276633Y-80626309D01*
X138360509Y-80542433D01*
X138419819Y-80439706D01*
X138450520Y-80325129D01*
X138450520Y-80206511D01*
X138419819Y-80091934D01*
X138360509Y-79989207D01*
X138360508Y-79989206D01*
X138360507Y-79989204D01*
X138276635Y-79905332D01*
X138173907Y-79846021D01*
X138173905Y-79846020D01*
X138059329Y-79815320D01*
X137940711Y-79815320D01*
X137940710Y-79815320D01*
X137826134Y-79846020D01*
X137826132Y-79846021D01*
X137724438Y-79904736D01*
X137684938Y-79915320D01*
X129785024Y-79915320D01*
X129734244Y-79896838D01*
X129729163Y-79892181D01*
X129188639Y-79351657D01*
X129168192Y-79316243D01*
X129137799Y-79202814D01*
X129137798Y-79202812D01*
X129078487Y-79100084D01*
X128994615Y-79016212D01*
X128891886Y-78956900D01*
X128858639Y-78947992D01*
X128823226Y-78927545D01*
X128073639Y-78177957D01*
X128050801Y-78128981D01*
X128050500Y-78122096D01*
X128050500Y-77715082D01*
X128061084Y-77675582D01*
X128119799Y-77573886D01*
X128134267Y-77519890D01*
X129792500Y-77519890D01*
X129792500Y-77638509D01*
X129823200Y-77753085D01*
X129823201Y-77753087D01*
X129882512Y-77855815D01*
X129966384Y-77939687D01*
X129966386Y-77939688D01*
X129966387Y-77939689D01*
X130069114Y-77998999D01*
X130153855Y-78021705D01*
X130189270Y-78042152D01*
X131727920Y-79580803D01*
X131727922Y-79580804D01*
X131727923Y-79580805D01*
X131777126Y-79609212D01*
X131807847Y-79626949D01*
X131896991Y-79650835D01*
X138154753Y-79650835D01*
X138194252Y-79661418D01*
X138295949Y-79720134D01*
X138410526Y-79750835D01*
X138410528Y-79750835D01*
X138529142Y-79750835D01*
X138529144Y-79750835D01*
X138643721Y-79720134D01*
X138746448Y-79660824D01*
X138830324Y-79576948D01*
X138889634Y-79474221D01*
X138906557Y-79411062D01*
X138937552Y-79366796D01*
X138989750Y-79352810D01*
X139038724Y-79375646D01*
X139038726Y-79375648D01*
X139643978Y-79980900D01*
X139666816Y-80029876D01*
X139667117Y-80036761D01*
X139667117Y-80490717D01*
X139656533Y-80530217D01*
X139597818Y-80631912D01*
X139597817Y-80631914D01*
X139567117Y-80746490D01*
X139567117Y-80865109D01*
X139597817Y-80979685D01*
X139597818Y-80979687D01*
X139657129Y-81082415D01*
X139741001Y-81166287D01*
X139832900Y-81219346D01*
X139843731Y-81225599D01*
X139958308Y-81256300D01*
X139958310Y-81256300D01*
X140076924Y-81256300D01*
X140076926Y-81256300D01*
X140191503Y-81225599D01*
X140294230Y-81166289D01*
X140378106Y-81082413D01*
X140437416Y-80979686D01*
X140468117Y-80865109D01*
X140468117Y-80746491D01*
X140437416Y-80631914D01*
X140437415Y-80631912D01*
X140378701Y-80530217D01*
X140368117Y-80490717D01*
X140368117Y-79812716D01*
X140368116Y-79812711D01*
X140352062Y-79752796D01*
X140344231Y-79723570D01*
X140342247Y-79720133D01*
X140298087Y-79643647D01*
X140281389Y-79626949D01*
X140232829Y-79578389D01*
X139911697Y-79257257D01*
X138828173Y-78173731D01*
X138748248Y-78127586D01*
X138748244Y-78127585D01*
X138659105Y-78103700D01*
X138659103Y-78103700D01*
X134190404Y-78103700D01*
X134139624Y-78085218D01*
X134134543Y-78080561D01*
X133670639Y-77616657D01*
X133650192Y-77581243D01*
X133648220Y-77573885D01*
X133619799Y-77467814D01*
X133560489Y-77365087D01*
X133560488Y-77365086D01*
X133560487Y-77365084D01*
X133476615Y-77281212D01*
X133373887Y-77221901D01*
X133373885Y-77221900D01*
X133259309Y-77191200D01*
X133140691Y-77191200D01*
X133140690Y-77191200D01*
X133026114Y-77221900D01*
X133026112Y-77221901D01*
X132923384Y-77281212D01*
X132839512Y-77365084D01*
X132780201Y-77467812D01*
X132780200Y-77467814D01*
X132749500Y-77582390D01*
X132749500Y-77701009D01*
X132780200Y-77815585D01*
X132780201Y-77815587D01*
X132839512Y-77918315D01*
X132923384Y-78002187D01*
X132923386Y-78002188D01*
X132923387Y-78002189D01*
X133026114Y-78061499D01*
X133139544Y-78091892D01*
X133174957Y-78112339D01*
X133797285Y-78734668D01*
X133877210Y-78780813D01*
X133877212Y-78780814D01*
X133928390Y-78794527D01*
X133972656Y-78825522D01*
X133986642Y-78877720D01*
X133963805Y-78926696D01*
X133914828Y-78949534D01*
X133907943Y-78949835D01*
X132121039Y-78949835D01*
X132070259Y-78931353D01*
X132065178Y-78926696D01*
X130716639Y-77578157D01*
X130693801Y-77529181D01*
X130693500Y-77522296D01*
X130693500Y-77519893D01*
X130693500Y-77519891D01*
X130662799Y-77405314D01*
X130603489Y-77302587D01*
X130603488Y-77302586D01*
X130603487Y-77302584D01*
X130519615Y-77218712D01*
X130416887Y-77159401D01*
X130416885Y-77159400D01*
X130302309Y-77128700D01*
X130183691Y-77128700D01*
X130183690Y-77128700D01*
X130069114Y-77159400D01*
X130069112Y-77159401D01*
X129966384Y-77218712D01*
X129882512Y-77302584D01*
X129823201Y-77405312D01*
X129823200Y-77405314D01*
X129792500Y-77519890D01*
X128134267Y-77519890D01*
X128150500Y-77459309D01*
X128150500Y-77340691D01*
X128119799Y-77226114D01*
X128115525Y-77218712D01*
X128060487Y-77123384D01*
X127976615Y-77039512D01*
X127873887Y-76980201D01*
X127873885Y-76980200D01*
X127759309Y-76949500D01*
X127640691Y-76949500D01*
X127640690Y-76949500D01*
X127526114Y-76980200D01*
X127526112Y-76980201D01*
X127423384Y-77039512D01*
X127339512Y-77123384D01*
X127280201Y-77226112D01*
X127280200Y-77226114D01*
X127249500Y-77340690D01*
X125543500Y-77340690D01*
X125543500Y-75100500D01*
X125561982Y-75049720D01*
X125608782Y-75022700D01*
X125622500Y-75021500D01*
X126372241Y-75021500D01*
X126423021Y-75039982D01*
G37*
%TD.AperFunction*%
%TD*%
%TA.AperFunction,Conductor*%
%TO.N,GNDS*%
G36*
X146400846Y-75041185D02*
G01*
X146446601Y-75093989D01*
X146456280Y-75126102D01*
X146479446Y-75272368D01*
X146552433Y-75496996D01*
X146659657Y-75707433D01*
X146798483Y-75898510D01*
X146965490Y-76065517D01*
X147156567Y-76204343D01*
X147229714Y-76241613D01*
X147367003Y-76311566D01*
X147367005Y-76311566D01*
X147367008Y-76311568D01*
X147487412Y-76350689D01*
X147591631Y-76384553D01*
X147824903Y-76421500D01*
X147824908Y-76421500D01*
X148061097Y-76421500D01*
X148294368Y-76384553D01*
X148518992Y-76311568D01*
X148729433Y-76204343D01*
X148920510Y-76065517D01*
X149087517Y-75898510D01*
X149226343Y-75707433D01*
X149333568Y-75496992D01*
X149406553Y-75272368D01*
X149429720Y-75126102D01*
X149459649Y-75062967D01*
X149518961Y-75026036D01*
X149552193Y-75021500D01*
X156333807Y-75021500D01*
X156400846Y-75041185D01*
X156446601Y-75093989D01*
X156456280Y-75126102D01*
X156479446Y-75272368D01*
X156552433Y-75496996D01*
X156659657Y-75707433D01*
X156798483Y-75898510D01*
X156965490Y-76065517D01*
X157156567Y-76204343D01*
X157229714Y-76241613D01*
X157367003Y-76311566D01*
X157367005Y-76311566D01*
X157367008Y-76311568D01*
X157487412Y-76350689D01*
X157591631Y-76384553D01*
X157824903Y-76421500D01*
X157824908Y-76421500D01*
X158061097Y-76421500D01*
X158294368Y-76384553D01*
X158518992Y-76311568D01*
X158729433Y-76204343D01*
X158920510Y-76065517D01*
X159087517Y-75898510D01*
X159226343Y-75707433D01*
X159333568Y-75496992D01*
X159406553Y-75272368D01*
X159429720Y-75126102D01*
X159459649Y-75062967D01*
X159518961Y-75026036D01*
X159552193Y-75021500D01*
X166333807Y-75021500D01*
X166400846Y-75041185D01*
X166446601Y-75093989D01*
X166456280Y-75126102D01*
X166479446Y-75272368D01*
X166552433Y-75496996D01*
X166659657Y-75707433D01*
X166798483Y-75898510D01*
X166965490Y-76065517D01*
X167156567Y-76204343D01*
X167229714Y-76241613D01*
X167367003Y-76311566D01*
X167367005Y-76311566D01*
X167367008Y-76311568D01*
X167487412Y-76350689D01*
X167591631Y-76384553D01*
X167824903Y-76421500D01*
X167824908Y-76421500D01*
X168061097Y-76421500D01*
X168294368Y-76384553D01*
X168518992Y-76311568D01*
X168729433Y-76204343D01*
X168920510Y-76065517D01*
X169087517Y-75898510D01*
X169226343Y-75707433D01*
X169333568Y-75496992D01*
X169406553Y-75272368D01*
X169429720Y-75126102D01*
X169459649Y-75062967D01*
X169518961Y-75026036D01*
X169552193Y-75021500D01*
X175218500Y-75021500D01*
X175285539Y-75041185D01*
X175331294Y-75093989D01*
X175342500Y-75145500D01*
X175342500Y-79721500D01*
X175322815Y-79788539D01*
X175270011Y-79834294D01*
X175218500Y-79845500D01*
X168973007Y-79845500D01*
X168936071Y-79860799D01*
X168907799Y-79889071D01*
X168892500Y-79926007D01*
X168892500Y-84915992D01*
X168907799Y-84952928D01*
X168907800Y-84952929D01*
X168936071Y-84981200D01*
X168973009Y-84996500D01*
X175218500Y-84996500D01*
X175285539Y-85016185D01*
X175331294Y-85068989D01*
X175342500Y-85120500D01*
X175342500Y-94721500D01*
X175322815Y-94788539D01*
X175270011Y-94834294D01*
X175218500Y-94845500D01*
X168973007Y-94845500D01*
X168936071Y-94860799D01*
X168907799Y-94889071D01*
X168892500Y-94926007D01*
X168892500Y-99915992D01*
X168907799Y-99952928D01*
X168907800Y-99952929D01*
X168936071Y-99981200D01*
X168973009Y-99996500D01*
X175218500Y-99996500D01*
X175285539Y-100016185D01*
X175331294Y-100068989D01*
X175342500Y-100120500D01*
X175342500Y-104696500D01*
X175322815Y-104763539D01*
X175270011Y-104809294D01*
X175218500Y-104820500D01*
X169552193Y-104820500D01*
X169485154Y-104800815D01*
X169439399Y-104748011D01*
X169429720Y-104715898D01*
X169406553Y-104569631D01*
X169333566Y-104345003D01*
X169226342Y-104134566D01*
X169202318Y-104101500D01*
X169087517Y-103943490D01*
X168920510Y-103776483D01*
X168729433Y-103637657D01*
X168639220Y-103591691D01*
X168518996Y-103530433D01*
X168294368Y-103457446D01*
X168061097Y-103420500D01*
X168061092Y-103420500D01*
X167824908Y-103420500D01*
X167824903Y-103420500D01*
X167591631Y-103457446D01*
X167367003Y-103530433D01*
X167156566Y-103637657D01*
X167056570Y-103710309D01*
X166965490Y-103776483D01*
X166965488Y-103776485D01*
X166965487Y-103776485D01*
X166798485Y-103943487D01*
X166798485Y-103943488D01*
X166798483Y-103943490D01*
X166749079Y-104011489D01*
X166659657Y-104134566D01*
X166552433Y-104345003D01*
X166479446Y-104569631D01*
X166456280Y-104715898D01*
X166426351Y-104779033D01*
X166367039Y-104815964D01*
X166333807Y-104820500D01*
X159552193Y-104820500D01*
X159485154Y-104800815D01*
X159439399Y-104748011D01*
X159429720Y-104715898D01*
X159406553Y-104569631D01*
X159333566Y-104345003D01*
X159226342Y-104134566D01*
X159202318Y-104101500D01*
X159087517Y-103943490D01*
X158920510Y-103776483D01*
X158729433Y-103637657D01*
X158639220Y-103591691D01*
X158518996Y-103530433D01*
X158294368Y-103457446D01*
X158061097Y-103420500D01*
X158061092Y-103420500D01*
X157824908Y-103420500D01*
X157824903Y-103420500D01*
X157591631Y-103457446D01*
X157367003Y-103530433D01*
X157156566Y-103637657D01*
X157056570Y-103710309D01*
X156965490Y-103776483D01*
X156965488Y-103776485D01*
X156965487Y-103776485D01*
X156798485Y-103943487D01*
X156798485Y-103943488D01*
X156798483Y-103943490D01*
X156749079Y-104011489D01*
X156659657Y-104134566D01*
X156552433Y-104345003D01*
X156479446Y-104569631D01*
X156456280Y-104715898D01*
X156426351Y-104779033D01*
X156367039Y-104815964D01*
X156333807Y-104820500D01*
X149552193Y-104820500D01*
X149485154Y-104800815D01*
X149439399Y-104748011D01*
X149429720Y-104715898D01*
X149406553Y-104569631D01*
X149333566Y-104345003D01*
X149226342Y-104134566D01*
X149202318Y-104101500D01*
X149087517Y-103943490D01*
X148920510Y-103776483D01*
X148729433Y-103637657D01*
X148639220Y-103591691D01*
X148518996Y-103530433D01*
X148294368Y-103457446D01*
X148061097Y-103420500D01*
X148061092Y-103420500D01*
X147824908Y-103420500D01*
X147824903Y-103420500D01*
X147591631Y-103457446D01*
X147367003Y-103530433D01*
X147156566Y-103637657D01*
X147056570Y-103710309D01*
X146965490Y-103776483D01*
X146965488Y-103776485D01*
X146965487Y-103776485D01*
X146798485Y-103943487D01*
X146798485Y-103943488D01*
X146798483Y-103943490D01*
X146749079Y-104011489D01*
X146659657Y-104134566D01*
X146552433Y-104345003D01*
X146479446Y-104569631D01*
X146456280Y-104715898D01*
X146441683Y-104746689D01*
X146427520Y-104777703D01*
X146426745Y-104778200D01*
X146426351Y-104779033D01*
X146397412Y-104797051D01*
X146368742Y-104815477D01*
X146367544Y-104815649D01*
X146367039Y-104815964D01*
X146333807Y-104820500D01*
X146324000Y-104820500D01*
X146256961Y-104800815D01*
X146211206Y-104748011D01*
X146200000Y-104696500D01*
X146200000Y-92850000D01*
X145883676Y-92578865D01*
X145850000Y-92550000D01*
X145849998Y-92550000D01*
X143302794Y-92550000D01*
X143235755Y-92530315D01*
X143215503Y-92514070D01*
X143163676Y-92462702D01*
X142842228Y-92144098D01*
X142808472Y-92082925D01*
X142813147Y-92013212D01*
X142854769Y-91957093D01*
X142920124Y-91932385D01*
X142929520Y-91932029D01*
X151596985Y-91932029D01*
X151664024Y-91951714D01*
X151684666Y-91968348D01*
X151839154Y-92122835D01*
X151981131Y-92264812D01*
X152046388Y-92330069D01*
X152046391Y-92330070D01*
X152046394Y-92330073D01*
X152126306Y-92376211D01*
X152126307Y-92376211D01*
X152126312Y-92376214D01*
X152215456Y-92400100D01*
X154986056Y-92400100D01*
X155053095Y-92419785D01*
X155073737Y-92436419D01*
X155255835Y-92618517D01*
X155287927Y-92674102D01*
X155315201Y-92775886D01*
X155374511Y-92878613D01*
X155458387Y-92962489D01*
X155561114Y-93021799D01*
X155675691Y-93052500D01*
X155675694Y-93052500D01*
X155794306Y-93052500D01*
X155794309Y-93052500D01*
X155908886Y-93021799D01*
X156011613Y-92962489D01*
X156095489Y-92878613D01*
X156154799Y-92775886D01*
X156185500Y-92661309D01*
X156185500Y-92542691D01*
X156154799Y-92428114D01*
X156095489Y-92325387D01*
X156011613Y-92241511D01*
X155908886Y-92182201D01*
X155807102Y-92154927D01*
X155793216Y-92146910D01*
X155779771Y-92143986D01*
X155751517Y-92122835D01*
X155690863Y-92062181D01*
X155657378Y-92000858D01*
X155662362Y-91931166D01*
X155704234Y-91875233D01*
X155769698Y-91850816D01*
X155778544Y-91850500D01*
X156763756Y-91850500D01*
X156830795Y-91870185D01*
X156851437Y-91886819D01*
X157031931Y-92067313D01*
X157065416Y-92128636D01*
X157068250Y-92154994D01*
X157068250Y-92390093D01*
X157087705Y-92462701D01*
X157087705Y-92462702D01*
X157092135Y-92479236D01*
X157138277Y-92559158D01*
X157138279Y-92559161D01*
X157138280Y-92559162D01*
X157808638Y-93229520D01*
X157867840Y-93263700D01*
X157888562Y-93275664D01*
X157977706Y-93299550D01*
X157977707Y-93299550D01*
X158069994Y-93299550D01*
X158212806Y-93299550D01*
X158279845Y-93319235D01*
X158300487Y-93335869D01*
X159029523Y-94064905D01*
X159056399Y-94105123D01*
X159059200Y-94111883D01*
X159059201Y-94111886D01*
X159118511Y-94214613D01*
X159202387Y-94298489D01*
X159305114Y-94357799D01*
X159419691Y-94388500D01*
X159419694Y-94388500D01*
X159538306Y-94388500D01*
X159538309Y-94388500D01*
X159652886Y-94357799D01*
X159755613Y-94298489D01*
X159839489Y-94214613D01*
X159898799Y-94111886D01*
X159929500Y-93997309D01*
X159929500Y-93878691D01*
X159898799Y-93764114D01*
X159839489Y-93661387D01*
X159755613Y-93577511D01*
X159652886Y-93518201D01*
X159538309Y-93487500D01*
X159538306Y-93487500D01*
X159494844Y-93487500D01*
X159427805Y-93467815D01*
X159407163Y-93451181D01*
X158624563Y-92668581D01*
X158624558Y-92668577D01*
X158544640Y-92622437D01*
X158544639Y-92622436D01*
X158544638Y-92622436D01*
X158455494Y-92598550D01*
X158455493Y-92598550D01*
X158220394Y-92598550D01*
X158153355Y-92578865D01*
X158132713Y-92562231D01*
X157805569Y-92235087D01*
X157772084Y-92173764D01*
X157769250Y-92147406D01*
X157769250Y-91912308D01*
X157769250Y-91912306D01*
X157745364Y-91823162D01*
X157730110Y-91796741D01*
X157699220Y-91743238D01*
X157518163Y-91562181D01*
X157484678Y-91500858D01*
X157489662Y-91431166D01*
X157531534Y-91375233D01*
X157596998Y-91350816D01*
X157605844Y-91350500D01*
X161672860Y-91350500D01*
X161734859Y-91367112D01*
X161826114Y-91419799D01*
X161940691Y-91450500D01*
X161940694Y-91450500D01*
X162059306Y-91450500D01*
X162059309Y-91450500D01*
X162173886Y-91419799D01*
X162276613Y-91360489D01*
X162360489Y-91276613D01*
X162412431Y-91186647D01*
X167796171Y-91186647D01*
X173498443Y-91186647D01*
X173498443Y-88985118D01*
X167796171Y-88985118D01*
X167796171Y-91186647D01*
X162412431Y-91186647D01*
X162419799Y-91173886D01*
X162450500Y-91059309D01*
X162450500Y-90940691D01*
X162419799Y-90826114D01*
X162360489Y-90723387D01*
X162276613Y-90639511D01*
X162173886Y-90580201D01*
X162059309Y-90549500D01*
X161940691Y-90549500D01*
X161826114Y-90580201D01*
X161734859Y-90632887D01*
X161672860Y-90649500D01*
X152946544Y-90649500D01*
X152879505Y-90629815D01*
X152858863Y-90613181D01*
X152547702Y-90302020D01*
X152547697Y-90302016D01*
X152470360Y-90257366D01*
X152422145Y-90206799D01*
X152408921Y-90138192D01*
X152424972Y-90087980D01*
X152471799Y-90006875D01*
X152502500Y-89892298D01*
X152502500Y-89773680D01*
X152471799Y-89659103D01*
X152412489Y-89556376D01*
X152328613Y-89472500D01*
X152225886Y-89413190D01*
X152111309Y-89382489D01*
X151992691Y-89382489D01*
X151878114Y-89413190D01*
X151878112Y-89413190D01*
X151878112Y-89413191D01*
X151775387Y-89472500D01*
X151775384Y-89472502D01*
X151691513Y-89556373D01*
X151691511Y-89556376D01*
X151628137Y-89666142D01*
X151626189Y-89665017D01*
X151589671Y-89710329D01*
X151523376Y-89732390D01*
X151518957Y-89732469D01*
X145429513Y-89732469D01*
X145362474Y-89712784D01*
X145341832Y-89696150D01*
X143493654Y-87847972D01*
X143460169Y-87786649D01*
X143457335Y-87760291D01*
X143457335Y-82627140D01*
X143473947Y-82565140D01*
X143526634Y-82473886D01*
X143557335Y-82359309D01*
X143557335Y-82240691D01*
X143526634Y-82126114D01*
X143467324Y-82023387D01*
X143383448Y-81939511D01*
X143280721Y-81880201D01*
X143166144Y-81849500D01*
X143047526Y-81849500D01*
X142932949Y-81880201D01*
X142932947Y-81880201D01*
X142932947Y-81880202D01*
X142830222Y-81939511D01*
X142830219Y-81939513D01*
X142746348Y-82023384D01*
X142746346Y-82023387D01*
X142687036Y-82126114D01*
X142656335Y-82240691D01*
X142656335Y-82359309D01*
X142687036Y-82473886D01*
X142739722Y-82565140D01*
X142756335Y-82627140D01*
X142756335Y-88002978D01*
X142780221Y-88092122D01*
X142780222Y-88092125D01*
X142826362Y-88172043D01*
X142826366Y-88172048D01*
X144674626Y-90020308D01*
X144708111Y-90081631D01*
X144703127Y-90151323D01*
X144661255Y-90207256D01*
X144595791Y-90231673D01*
X144586945Y-90231989D01*
X142829033Y-90231989D01*
X142761994Y-90212304D01*
X142741352Y-90195670D01*
X142537914Y-89992232D01*
X142504429Y-89930909D01*
X142501595Y-89904551D01*
X142501595Y-89246884D01*
X142521280Y-89179845D01*
X142537914Y-89159203D01*
X142548797Y-89148320D01*
X142608107Y-89045593D01*
X142638808Y-88931016D01*
X142638808Y-88812398D01*
X142608107Y-88697821D01*
X142548797Y-88595094D01*
X142464921Y-88511218D01*
X142362194Y-88451908D01*
X142247617Y-88421207D01*
X142128999Y-88421207D01*
X142014422Y-88451908D01*
X142014420Y-88451908D01*
X142014420Y-88451909D01*
X141911695Y-88511218D01*
X141853666Y-88569247D01*
X141792342Y-88602731D01*
X141722651Y-88597746D01*
X141666717Y-88555875D01*
X141662808Y-88549950D01*
X141660691Y-88547190D01*
X141660689Y-88547187D01*
X141576813Y-88463311D01*
X141474086Y-88404001D01*
X141359509Y-88373300D01*
X141240891Y-88373300D01*
X141126314Y-88404001D01*
X141126312Y-88404001D01*
X141126312Y-88404002D01*
X141023587Y-88463311D01*
X141023583Y-88463314D01*
X140993199Y-88493698D01*
X140931875Y-88527183D01*
X140897923Y-88529783D01*
X140842956Y-88526409D01*
X140843000Y-88519000D01*
X140722924Y-88519042D01*
X140719104Y-88518808D01*
X140689699Y-88508177D01*
X140659697Y-88499380D01*
X140657110Y-88496396D01*
X140653396Y-88495054D01*
X140634405Y-88470211D01*
X140613924Y-88446592D01*
X140612957Y-88442156D01*
X140610962Y-88439546D01*
X140610106Y-88429075D01*
X140602700Y-88395091D01*
X140600047Y-81424046D01*
X140619706Y-81357000D01*
X140672493Y-81311225D01*
X140724047Y-81300000D01*
X144300000Y-81300000D01*
X144766035Y-80927172D01*
X144830681Y-80900664D01*
X144843497Y-80900000D01*
X146200000Y-80900000D01*
X146200000Y-75145500D01*
X146202550Y-75136814D01*
X146201262Y-75127853D01*
X146212240Y-75103812D01*
X146219685Y-75078461D01*
X146226525Y-75072533D01*
X146230287Y-75064297D01*
X146252521Y-75050007D01*
X146272489Y-75032706D01*
X146283003Y-75030418D01*
X146289065Y-75026523D01*
X146324000Y-75021500D01*
X146333807Y-75021500D01*
X146400846Y-75041185D01*
G37*
%TD.AperFunction*%
%TD*%
M02*
