%TF.GenerationSoftware,KiCad,Pcbnew,9.0.1+1*%
%TF.CreationDate,2025-05-28T19:55:52+00:00*%
%TF.ProjectId,TFSIK01,54465349-4b30-4312-9e6b-696361645f70,REV*%
%TF.SameCoordinates,Original*%
%TF.FileFunction,Legend,Top*%
%TF.FilePolarity,Positive*%
%FSLAX46Y46*%
G04 Gerber Fmt 4.6, Leading zero omitted, Abs format (unit mm)*
G04 Created by KiCad (PCBNEW 9.0.1+1) date 2025-05-28 19:55:52*
%MOMM*%
%LPD*%
G01*
G04 APERTURE LIST*
%ADD10C,0.150000*%
%ADD11C,0.200000*%
%ADD12C,0.080000*%
%ADD13C,0.300000*%
%ADD14C,0.100000*%
%ADD15C,0.050000*%
%ADD16C,0.000000*%
G04 APERTURE END LIST*
D10*
X131750000Y-101250000D02*
X131750000Y-93500000D01*
X131750000Y-101250000D02*
G75*
G02*
X130750000Y-102250000I-1000000J0D01*
G01*
X126250000Y-92500000D02*
X130750000Y-92500000D01*
X130750000Y-92500000D02*
G75*
G02*
X131750000Y-93500000I0J-1000000D01*
G01*
X126250000Y-102250000D02*
X130750000Y-102250000D01*
D11*
X134500000Y-82000000D02*
X140500000Y-82000000D01*
D12*
X134500000Y-82000000D02*
X131250000Y-84750000D01*
D13*
X167287757Y-84849570D02*
X167287757Y-84135285D01*
X167716328Y-84992427D02*
X166216328Y-84492427D01*
X166216328Y-84492427D02*
X167716328Y-83992427D01*
X167716328Y-83492428D02*
X166216328Y-83492428D01*
X166216328Y-83492428D02*
X167716328Y-82635285D01*
X167716328Y-82635285D02*
X166216328Y-82635285D01*
X166216328Y-82135284D02*
X166216328Y-81278142D01*
X167716328Y-81706713D02*
X166216328Y-81706713D01*
X167716328Y-79992427D02*
X167716328Y-80849570D01*
X167716328Y-80420999D02*
X166216328Y-80420999D01*
X166216328Y-80420999D02*
X166430614Y-80563856D01*
X166430614Y-80563856D02*
X166573471Y-80706713D01*
X166573471Y-80706713D02*
X166644900Y-80849570D01*
D14*
X134464286Y-86326466D02*
X135226191Y-86326466D01*
X134845238Y-86707419D02*
X134845238Y-85945514D01*
X136178571Y-85707419D02*
X135702381Y-85707419D01*
X135702381Y-85707419D02*
X135654762Y-86183609D01*
X135654762Y-86183609D02*
X135702381Y-86135990D01*
X135702381Y-86135990D02*
X135797619Y-86088371D01*
X135797619Y-86088371D02*
X136035714Y-86088371D01*
X136035714Y-86088371D02*
X136130952Y-86135990D01*
X136130952Y-86135990D02*
X136178571Y-86183609D01*
X136178571Y-86183609D02*
X136226190Y-86278847D01*
X136226190Y-86278847D02*
X136226190Y-86516942D01*
X136226190Y-86516942D02*
X136178571Y-86612180D01*
X136178571Y-86612180D02*
X136130952Y-86659800D01*
X136130952Y-86659800D02*
X136035714Y-86707419D01*
X136035714Y-86707419D02*
X135797619Y-86707419D01*
X135797619Y-86707419D02*
X135702381Y-86659800D01*
X135702381Y-86659800D02*
X135654762Y-86612180D01*
X136511905Y-85707419D02*
X136845238Y-86707419D01*
X136845238Y-86707419D02*
X137178571Y-85707419D01*
X138375312Y-85112180D02*
X138327693Y-85159800D01*
X138327693Y-85159800D02*
X138184836Y-85207419D01*
X138184836Y-85207419D02*
X138089598Y-85207419D01*
X138089598Y-85207419D02*
X137946741Y-85159800D01*
X137946741Y-85159800D02*
X137851503Y-85064561D01*
X137851503Y-85064561D02*
X137803884Y-84969323D01*
X137803884Y-84969323D02*
X137756265Y-84778847D01*
X137756265Y-84778847D02*
X137756265Y-84635990D01*
X137756265Y-84635990D02*
X137803884Y-84445514D01*
X137803884Y-84445514D02*
X137851503Y-84350276D01*
X137851503Y-84350276D02*
X137946741Y-84255038D01*
X137946741Y-84255038D02*
X138089598Y-84207419D01*
X138089598Y-84207419D02*
X138184836Y-84207419D01*
X138184836Y-84207419D02*
X138327693Y-84255038D01*
X138327693Y-84255038D02*
X138375312Y-84302657D01*
X138756265Y-84302657D02*
X138803884Y-84255038D01*
X138803884Y-84255038D02*
X138899122Y-84207419D01*
X138899122Y-84207419D02*
X139137217Y-84207419D01*
X139137217Y-84207419D02*
X139232455Y-84255038D01*
X139232455Y-84255038D02*
X139280074Y-84302657D01*
X139280074Y-84302657D02*
X139327693Y-84397895D01*
X139327693Y-84397895D02*
X139327693Y-84493133D01*
X139327693Y-84493133D02*
X139280074Y-84635990D01*
X139280074Y-84635990D02*
X138708646Y-85207419D01*
X138708646Y-85207419D02*
X139327693Y-85207419D01*
X139756265Y-85207419D02*
X139756265Y-84207419D01*
X139756265Y-84207419D02*
X139994360Y-84207419D01*
X139994360Y-84207419D02*
X140137217Y-84255038D01*
X140137217Y-84255038D02*
X140232455Y-84350276D01*
X140232455Y-84350276D02*
X140280074Y-84445514D01*
X140280074Y-84445514D02*
X140327693Y-84635990D01*
X140327693Y-84635990D02*
X140327693Y-84778847D01*
X140327693Y-84778847D02*
X140280074Y-84969323D01*
X140280074Y-84969323D02*
X140232455Y-85064561D01*
X140232455Y-85064561D02*
X140137217Y-85159800D01*
X140137217Y-85159800D02*
X139994360Y-85207419D01*
X139994360Y-85207419D02*
X139756265Y-85207419D01*
D13*
X150536572Y-97876328D02*
X151393715Y-97876328D01*
X150965143Y-99376328D02*
X150965143Y-97876328D01*
X152393714Y-98590614D02*
X151893714Y-98590614D01*
X151893714Y-99376328D02*
X151893714Y-97876328D01*
X151893714Y-97876328D02*
X152608000Y-97876328D01*
X153108000Y-99304900D02*
X153322286Y-99376328D01*
X153322286Y-99376328D02*
X153679428Y-99376328D01*
X153679428Y-99376328D02*
X153822286Y-99304900D01*
X153822286Y-99304900D02*
X153893714Y-99233471D01*
X153893714Y-99233471D02*
X153965143Y-99090614D01*
X153965143Y-99090614D02*
X153965143Y-98947757D01*
X153965143Y-98947757D02*
X153893714Y-98804900D01*
X153893714Y-98804900D02*
X153822286Y-98733471D01*
X153822286Y-98733471D02*
X153679428Y-98662042D01*
X153679428Y-98662042D02*
X153393714Y-98590614D01*
X153393714Y-98590614D02*
X153250857Y-98519185D01*
X153250857Y-98519185D02*
X153179428Y-98447757D01*
X153179428Y-98447757D02*
X153108000Y-98304900D01*
X153108000Y-98304900D02*
X153108000Y-98162042D01*
X153108000Y-98162042D02*
X153179428Y-98019185D01*
X153179428Y-98019185D02*
X153250857Y-97947757D01*
X153250857Y-97947757D02*
X153393714Y-97876328D01*
X153393714Y-97876328D02*
X153750857Y-97876328D01*
X153750857Y-97876328D02*
X153965143Y-97947757D01*
X154607999Y-99376328D02*
X154607999Y-97876328D01*
X155322285Y-99376328D02*
X155322285Y-97876328D01*
X156179428Y-99376328D02*
X155536571Y-98519185D01*
X156179428Y-97876328D02*
X155322285Y-98733471D01*
X157108000Y-97876328D02*
X157250857Y-97876328D01*
X157250857Y-97876328D02*
X157393714Y-97947757D01*
X157393714Y-97947757D02*
X157465143Y-98019185D01*
X157465143Y-98019185D02*
X157536571Y-98162042D01*
X157536571Y-98162042D02*
X157608000Y-98447757D01*
X157608000Y-98447757D02*
X157608000Y-98804900D01*
X157608000Y-98804900D02*
X157536571Y-99090614D01*
X157536571Y-99090614D02*
X157465143Y-99233471D01*
X157465143Y-99233471D02*
X157393714Y-99304900D01*
X157393714Y-99304900D02*
X157250857Y-99376328D01*
X157250857Y-99376328D02*
X157108000Y-99376328D01*
X157108000Y-99376328D02*
X156965143Y-99304900D01*
X156965143Y-99304900D02*
X156893714Y-99233471D01*
X156893714Y-99233471D02*
X156822285Y-99090614D01*
X156822285Y-99090614D02*
X156750857Y-98804900D01*
X156750857Y-98804900D02*
X156750857Y-98447757D01*
X156750857Y-98447757D02*
X156822285Y-98162042D01*
X156822285Y-98162042D02*
X156893714Y-98019185D01*
X156893714Y-98019185D02*
X156965143Y-97947757D01*
X156965143Y-97947757D02*
X157108000Y-97876328D01*
X159036571Y-99376328D02*
X158179428Y-99376328D01*
X158607999Y-99376328D02*
X158607999Y-97876328D01*
X158607999Y-97876328D02*
X158465142Y-98090614D01*
X158465142Y-98090614D02*
X158322285Y-98233471D01*
X158322285Y-98233471D02*
X158179428Y-98304900D01*
X160179427Y-98590614D02*
X160393713Y-98662042D01*
X160393713Y-98662042D02*
X160465142Y-98733471D01*
X160465142Y-98733471D02*
X160536570Y-98876328D01*
X160536570Y-98876328D02*
X160536570Y-99090614D01*
X160536570Y-99090614D02*
X160465142Y-99233471D01*
X160465142Y-99233471D02*
X160393713Y-99304900D01*
X160393713Y-99304900D02*
X160250856Y-99376328D01*
X160250856Y-99376328D02*
X159679427Y-99376328D01*
X159679427Y-99376328D02*
X159679427Y-97876328D01*
X159679427Y-97876328D02*
X160179427Y-97876328D01*
X160179427Y-97876328D02*
X160322285Y-97947757D01*
X160322285Y-97947757D02*
X160393713Y-98019185D01*
X160393713Y-98019185D02*
X160465142Y-98162042D01*
X160465142Y-98162042D02*
X160465142Y-98304900D01*
X160465142Y-98304900D02*
X160393713Y-98447757D01*
X160393713Y-98447757D02*
X160322285Y-98519185D01*
X160322285Y-98519185D02*
X160179427Y-98590614D01*
X160179427Y-98590614D02*
X159679427Y-98590614D01*
D14*
X133756265Y-84540752D02*
X134470550Y-84540752D01*
X134041979Y-84112180D02*
X133756265Y-85397895D01*
X134375312Y-84969323D02*
X133661027Y-84969323D01*
X134089598Y-85397895D02*
X134375312Y-84112180D01*
X135375312Y-85207419D02*
X135041979Y-84731228D01*
X134803884Y-85207419D02*
X134803884Y-84207419D01*
X134803884Y-84207419D02*
X135184836Y-84207419D01*
X135184836Y-84207419D02*
X135280074Y-84255038D01*
X135280074Y-84255038D02*
X135327693Y-84302657D01*
X135327693Y-84302657D02*
X135375312Y-84397895D01*
X135375312Y-84397895D02*
X135375312Y-84540752D01*
X135375312Y-84540752D02*
X135327693Y-84635990D01*
X135327693Y-84635990D02*
X135280074Y-84683609D01*
X135280074Y-84683609D02*
X135184836Y-84731228D01*
X135184836Y-84731228D02*
X134803884Y-84731228D01*
X135756265Y-85159800D02*
X135899122Y-85207419D01*
X135899122Y-85207419D02*
X136137217Y-85207419D01*
X136137217Y-85207419D02*
X136232455Y-85159800D01*
X136232455Y-85159800D02*
X136280074Y-85112180D01*
X136280074Y-85112180D02*
X136327693Y-85016942D01*
X136327693Y-85016942D02*
X136327693Y-84921704D01*
X136327693Y-84921704D02*
X136280074Y-84826466D01*
X136280074Y-84826466D02*
X136232455Y-84778847D01*
X136232455Y-84778847D02*
X136137217Y-84731228D01*
X136137217Y-84731228D02*
X135946741Y-84683609D01*
X135946741Y-84683609D02*
X135851503Y-84635990D01*
X135851503Y-84635990D02*
X135803884Y-84588371D01*
X135803884Y-84588371D02*
X135756265Y-84493133D01*
X135756265Y-84493133D02*
X135756265Y-84397895D01*
X135756265Y-84397895D02*
X135803884Y-84302657D01*
X135803884Y-84302657D02*
X135851503Y-84255038D01*
X135851503Y-84255038D02*
X135946741Y-84207419D01*
X135946741Y-84207419D02*
X136184836Y-84207419D01*
X136184836Y-84207419D02*
X136327693Y-84255038D01*
X136613408Y-84207419D02*
X137184836Y-84207419D01*
X136899122Y-85207419D02*
X136899122Y-84207419D01*
X135077693Y-82755038D02*
X134982455Y-82707419D01*
X134982455Y-82707419D02*
X134839598Y-82707419D01*
X134839598Y-82707419D02*
X134696741Y-82755038D01*
X134696741Y-82755038D02*
X134601503Y-82850276D01*
X134601503Y-82850276D02*
X134553884Y-82945514D01*
X134553884Y-82945514D02*
X134506265Y-83135990D01*
X134506265Y-83135990D02*
X134506265Y-83278847D01*
X134506265Y-83278847D02*
X134553884Y-83469323D01*
X134553884Y-83469323D02*
X134601503Y-83564561D01*
X134601503Y-83564561D02*
X134696741Y-83659800D01*
X134696741Y-83659800D02*
X134839598Y-83707419D01*
X134839598Y-83707419D02*
X134934836Y-83707419D01*
X134934836Y-83707419D02*
X135077693Y-83659800D01*
X135077693Y-83659800D02*
X135125312Y-83612180D01*
X135125312Y-83612180D02*
X135125312Y-83278847D01*
X135125312Y-83278847D02*
X134934836Y-83278847D01*
X135553884Y-83707419D02*
X135553884Y-82707419D01*
X135553884Y-82707419D02*
X136125312Y-83707419D01*
X136125312Y-83707419D02*
X136125312Y-82707419D01*
X136601503Y-83707419D02*
X136601503Y-82707419D01*
X136601503Y-82707419D02*
X136839598Y-82707419D01*
X136839598Y-82707419D02*
X136982455Y-82755038D01*
X136982455Y-82755038D02*
X137077693Y-82850276D01*
X137077693Y-82850276D02*
X137125312Y-82945514D01*
X137125312Y-82945514D02*
X137172931Y-83135990D01*
X137172931Y-83135990D02*
X137172931Y-83278847D01*
X137172931Y-83278847D02*
X137125312Y-83469323D01*
X137125312Y-83469323D02*
X137077693Y-83564561D01*
X137077693Y-83564561D02*
X136982455Y-83659800D01*
X136982455Y-83659800D02*
X136839598Y-83707419D01*
X136839598Y-83707419D02*
X136601503Y-83707419D01*
X138327693Y-82755038D02*
X138232455Y-82707419D01*
X138232455Y-82707419D02*
X138089598Y-82707419D01*
X138089598Y-82707419D02*
X137946741Y-82755038D01*
X137946741Y-82755038D02*
X137851503Y-82850276D01*
X137851503Y-82850276D02*
X137803884Y-82945514D01*
X137803884Y-82945514D02*
X137756265Y-83135990D01*
X137756265Y-83135990D02*
X137756265Y-83278847D01*
X137756265Y-83278847D02*
X137803884Y-83469323D01*
X137803884Y-83469323D02*
X137851503Y-83564561D01*
X137851503Y-83564561D02*
X137946741Y-83659800D01*
X137946741Y-83659800D02*
X138089598Y-83707419D01*
X138089598Y-83707419D02*
X138184836Y-83707419D01*
X138184836Y-83707419D02*
X138327693Y-83659800D01*
X138327693Y-83659800D02*
X138375312Y-83612180D01*
X138375312Y-83612180D02*
X138375312Y-83278847D01*
X138375312Y-83278847D02*
X138184836Y-83278847D01*
X138803884Y-83707419D02*
X138803884Y-82707419D01*
X138803884Y-82707419D02*
X139375312Y-83707419D01*
X139375312Y-83707419D02*
X139375312Y-82707419D01*
X139851503Y-83707419D02*
X139851503Y-82707419D01*
X139851503Y-82707419D02*
X140089598Y-82707419D01*
X140089598Y-82707419D02*
X140232455Y-82755038D01*
X140232455Y-82755038D02*
X140327693Y-82850276D01*
X140327693Y-82850276D02*
X140375312Y-82945514D01*
X140375312Y-82945514D02*
X140422931Y-83135990D01*
X140422931Y-83135990D02*
X140422931Y-83278847D01*
X140422931Y-83278847D02*
X140375312Y-83469323D01*
X140375312Y-83469323D02*
X140327693Y-83564561D01*
X140327693Y-83564561D02*
X140232455Y-83659800D01*
X140232455Y-83659800D02*
X140089598Y-83707419D01*
X140089598Y-83707419D02*
X139851503Y-83707419D01*
D10*
X129208207Y-94331964D02*
X129132017Y-94298631D01*
X129132017Y-94298631D02*
X129017731Y-94298631D01*
X129017731Y-94298631D02*
X128903445Y-94331964D01*
X128903445Y-94331964D02*
X128827255Y-94398631D01*
X128827255Y-94398631D02*
X128789160Y-94465298D01*
X128789160Y-94465298D02*
X128751064Y-94598631D01*
X128751064Y-94598631D02*
X128751064Y-94698631D01*
X128751064Y-94698631D02*
X128789160Y-94831964D01*
X128789160Y-94831964D02*
X128827255Y-94898631D01*
X128827255Y-94898631D02*
X128903445Y-94965298D01*
X128903445Y-94965298D02*
X129017731Y-94998631D01*
X129017731Y-94998631D02*
X129093922Y-94998631D01*
X129093922Y-94998631D02*
X129208207Y-94965298D01*
X129208207Y-94965298D02*
X129246303Y-94931964D01*
X129246303Y-94931964D02*
X129246303Y-94698631D01*
X129246303Y-94698631D02*
X129093922Y-94698631D01*
X129589160Y-94998631D02*
X129589160Y-94298631D01*
X129589160Y-94298631D02*
X130046303Y-94998631D01*
X130046303Y-94998631D02*
X130046303Y-94298631D01*
X130427255Y-94998631D02*
X130427255Y-94298631D01*
X130427255Y-94298631D02*
X130617731Y-94298631D01*
X130617731Y-94298631D02*
X130732017Y-94331964D01*
X130732017Y-94331964D02*
X130808207Y-94398631D01*
X130808207Y-94398631D02*
X130846302Y-94465298D01*
X130846302Y-94465298D02*
X130884398Y-94598631D01*
X130884398Y-94598631D02*
X130884398Y-94698631D01*
X130884398Y-94698631D02*
X130846302Y-94831964D01*
X130846302Y-94831964D02*
X130808207Y-94898631D01*
X130808207Y-94898631D02*
X130732017Y-94965298D01*
X130732017Y-94965298D02*
X130617731Y-94998631D01*
X130617731Y-94998631D02*
X130427255Y-94998631D01*
X129246303Y-96058925D02*
X129208207Y-96092259D01*
X129208207Y-96092259D02*
X129093922Y-96125592D01*
X129093922Y-96125592D02*
X129017731Y-96125592D01*
X129017731Y-96125592D02*
X128903445Y-96092259D01*
X128903445Y-96092259D02*
X128827255Y-96025592D01*
X128827255Y-96025592D02*
X128789160Y-95958925D01*
X128789160Y-95958925D02*
X128751064Y-95825592D01*
X128751064Y-95825592D02*
X128751064Y-95725592D01*
X128751064Y-95725592D02*
X128789160Y-95592259D01*
X128789160Y-95592259D02*
X128827255Y-95525592D01*
X128827255Y-95525592D02*
X128903445Y-95458925D01*
X128903445Y-95458925D02*
X129017731Y-95425592D01*
X129017731Y-95425592D02*
X129093922Y-95425592D01*
X129093922Y-95425592D02*
X129208207Y-95458925D01*
X129208207Y-95458925D02*
X129246303Y-95492259D01*
X129474874Y-95425592D02*
X129932017Y-95425592D01*
X129703445Y-96125592D02*
X129703445Y-95425592D01*
X130160588Y-96092259D02*
X130274874Y-96125592D01*
X130274874Y-96125592D02*
X130465350Y-96125592D01*
X130465350Y-96125592D02*
X130541541Y-96092259D01*
X130541541Y-96092259D02*
X130579636Y-96058925D01*
X130579636Y-96058925D02*
X130617731Y-95992259D01*
X130617731Y-95992259D02*
X130617731Y-95925592D01*
X130617731Y-95925592D02*
X130579636Y-95858925D01*
X130579636Y-95858925D02*
X130541541Y-95825592D01*
X130541541Y-95825592D02*
X130465350Y-95792259D01*
X130465350Y-95792259D02*
X130312969Y-95758925D01*
X130312969Y-95758925D02*
X130236779Y-95725592D01*
X130236779Y-95725592D02*
X130198684Y-95692259D01*
X130198684Y-95692259D02*
X130160588Y-95625592D01*
X130160588Y-95625592D02*
X130160588Y-95558925D01*
X130160588Y-95558925D02*
X130198684Y-95492259D01*
X130198684Y-95492259D02*
X130236779Y-95458925D01*
X130236779Y-95458925D02*
X130312969Y-95425592D01*
X130312969Y-95425592D02*
X130503446Y-95425592D01*
X130503446Y-95425592D02*
X130617731Y-95458925D01*
X129246303Y-97252553D02*
X128979636Y-96919220D01*
X128789160Y-97252553D02*
X128789160Y-96552553D01*
X128789160Y-96552553D02*
X129093922Y-96552553D01*
X129093922Y-96552553D02*
X129170112Y-96585886D01*
X129170112Y-96585886D02*
X129208207Y-96619220D01*
X129208207Y-96619220D02*
X129246303Y-96685886D01*
X129246303Y-96685886D02*
X129246303Y-96785886D01*
X129246303Y-96785886D02*
X129208207Y-96852553D01*
X129208207Y-96852553D02*
X129170112Y-96885886D01*
X129170112Y-96885886D02*
X129093922Y-96919220D01*
X129093922Y-96919220D02*
X128789160Y-96919220D01*
X129474874Y-96552553D02*
X129932017Y-96552553D01*
X129703445Y-97252553D02*
X129703445Y-96552553D01*
X130160588Y-97219220D02*
X130274874Y-97252553D01*
X130274874Y-97252553D02*
X130465350Y-97252553D01*
X130465350Y-97252553D02*
X130541541Y-97219220D01*
X130541541Y-97219220D02*
X130579636Y-97185886D01*
X130579636Y-97185886D02*
X130617731Y-97119220D01*
X130617731Y-97119220D02*
X130617731Y-97052553D01*
X130617731Y-97052553D02*
X130579636Y-96985886D01*
X130579636Y-96985886D02*
X130541541Y-96952553D01*
X130541541Y-96952553D02*
X130465350Y-96919220D01*
X130465350Y-96919220D02*
X130312969Y-96885886D01*
X130312969Y-96885886D02*
X130236779Y-96852553D01*
X130236779Y-96852553D02*
X130198684Y-96819220D01*
X130198684Y-96819220D02*
X130160588Y-96752553D01*
X130160588Y-96752553D02*
X130160588Y-96685886D01*
X130160588Y-96685886D02*
X130198684Y-96619220D01*
X130198684Y-96619220D02*
X130236779Y-96585886D01*
X130236779Y-96585886D02*
X130312969Y-96552553D01*
X130312969Y-96552553D02*
X130503446Y-96552553D01*
X130503446Y-96552553D02*
X130617731Y-96585886D01*
X128674874Y-97679514D02*
X129132017Y-97679514D01*
X128903445Y-98379514D02*
X128903445Y-97679514D01*
X129322493Y-97679514D02*
X129855827Y-98379514D01*
X129855827Y-97679514D02*
X129322493Y-98379514D01*
X129246303Y-99506475D02*
X128979636Y-99173142D01*
X128789160Y-99506475D02*
X128789160Y-98806475D01*
X128789160Y-98806475D02*
X129093922Y-98806475D01*
X129093922Y-98806475D02*
X129170112Y-98839808D01*
X129170112Y-98839808D02*
X129208207Y-98873142D01*
X129208207Y-98873142D02*
X129246303Y-98939808D01*
X129246303Y-98939808D02*
X129246303Y-99039808D01*
X129246303Y-99039808D02*
X129208207Y-99106475D01*
X129208207Y-99106475D02*
X129170112Y-99139808D01*
X129170112Y-99139808D02*
X129093922Y-99173142D01*
X129093922Y-99173142D02*
X128789160Y-99173142D01*
X129512969Y-98806475D02*
X130046303Y-99506475D01*
X130046303Y-98806475D02*
X129512969Y-99506475D01*
X128789160Y-100366769D02*
X129398684Y-100366769D01*
X129093922Y-100633436D02*
X129093922Y-100100103D01*
X130160588Y-99933436D02*
X129779636Y-99933436D01*
X129779636Y-99933436D02*
X129741540Y-100266769D01*
X129741540Y-100266769D02*
X129779636Y-100233436D01*
X129779636Y-100233436D02*
X129855826Y-100200103D01*
X129855826Y-100200103D02*
X130046302Y-100200103D01*
X130046302Y-100200103D02*
X130122493Y-100233436D01*
X130122493Y-100233436D02*
X130160588Y-100266769D01*
X130160588Y-100266769D02*
X130198683Y-100333436D01*
X130198683Y-100333436D02*
X130198683Y-100500103D01*
X130198683Y-100500103D02*
X130160588Y-100566769D01*
X130160588Y-100566769D02*
X130122493Y-100600103D01*
X130122493Y-100600103D02*
X130046302Y-100633436D01*
X130046302Y-100633436D02*
X129855826Y-100633436D01*
X129855826Y-100633436D02*
X129779636Y-100600103D01*
X129779636Y-100600103D02*
X129741540Y-100566769D01*
X130427255Y-99933436D02*
X130693922Y-100633436D01*
X130693922Y-100633436D02*
X130960588Y-99933436D01*
D14*
X138327693Y-85755038D02*
X138232455Y-85707419D01*
X138232455Y-85707419D02*
X138089598Y-85707419D01*
X138089598Y-85707419D02*
X137946741Y-85755038D01*
X137946741Y-85755038D02*
X137851503Y-85850276D01*
X137851503Y-85850276D02*
X137803884Y-85945514D01*
X137803884Y-85945514D02*
X137756265Y-86135990D01*
X137756265Y-86135990D02*
X137756265Y-86278847D01*
X137756265Y-86278847D02*
X137803884Y-86469323D01*
X137803884Y-86469323D02*
X137851503Y-86564561D01*
X137851503Y-86564561D02*
X137946741Y-86659800D01*
X137946741Y-86659800D02*
X138089598Y-86707419D01*
X138089598Y-86707419D02*
X138184836Y-86707419D01*
X138184836Y-86707419D02*
X138327693Y-86659800D01*
X138327693Y-86659800D02*
X138375312Y-86612180D01*
X138375312Y-86612180D02*
X138375312Y-86278847D01*
X138375312Y-86278847D02*
X138184836Y-86278847D01*
X138803884Y-86707419D02*
X138803884Y-85707419D01*
X138803884Y-85707419D02*
X139375312Y-86707419D01*
X139375312Y-86707419D02*
X139375312Y-85707419D01*
X139851503Y-86707419D02*
X139851503Y-85707419D01*
X139851503Y-85707419D02*
X140089598Y-85707419D01*
X140089598Y-85707419D02*
X140232455Y-85755038D01*
X140232455Y-85755038D02*
X140327693Y-85850276D01*
X140327693Y-85850276D02*
X140375312Y-85945514D01*
X140375312Y-85945514D02*
X140422931Y-86135990D01*
X140422931Y-86135990D02*
X140422931Y-86278847D01*
X140422931Y-86278847D02*
X140375312Y-86469323D01*
X140375312Y-86469323D02*
X140327693Y-86564561D01*
X140327693Y-86564561D02*
X140232455Y-86659800D01*
X140232455Y-86659800D02*
X140089598Y-86707419D01*
X140089598Y-86707419D02*
X139851503Y-86707419D01*
X134671428Y-81411157D02*
X134671428Y-80511157D01*
X134671428Y-80511157D02*
X135014285Y-80511157D01*
X135014285Y-80511157D02*
X135100000Y-80554014D01*
X135100000Y-80554014D02*
X135142857Y-80596871D01*
X135142857Y-80596871D02*
X135185714Y-80682585D01*
X135185714Y-80682585D02*
X135185714Y-80811157D01*
X135185714Y-80811157D02*
X135142857Y-80896871D01*
X135142857Y-80896871D02*
X135100000Y-80939728D01*
X135100000Y-80939728D02*
X135014285Y-80982585D01*
X135014285Y-80982585D02*
X134671428Y-80982585D01*
X135571428Y-81411157D02*
X135571428Y-80811157D01*
X135571428Y-80982585D02*
X135614285Y-80896871D01*
X135614285Y-80896871D02*
X135657143Y-80854014D01*
X135657143Y-80854014D02*
X135742857Y-80811157D01*
X135742857Y-80811157D02*
X135828571Y-80811157D01*
X136257143Y-81411157D02*
X136171428Y-81368300D01*
X136171428Y-81368300D02*
X136128571Y-81325442D01*
X136128571Y-81325442D02*
X136085714Y-81239728D01*
X136085714Y-81239728D02*
X136085714Y-80982585D01*
X136085714Y-80982585D02*
X136128571Y-80896871D01*
X136128571Y-80896871D02*
X136171428Y-80854014D01*
X136171428Y-80854014D02*
X136257143Y-80811157D01*
X136257143Y-80811157D02*
X136385714Y-80811157D01*
X136385714Y-80811157D02*
X136471428Y-80854014D01*
X136471428Y-80854014D02*
X136514286Y-80896871D01*
X136514286Y-80896871D02*
X136557143Y-80982585D01*
X136557143Y-80982585D02*
X136557143Y-81239728D01*
X136557143Y-81239728D02*
X136514286Y-81325442D01*
X136514286Y-81325442D02*
X136471428Y-81368300D01*
X136471428Y-81368300D02*
X136385714Y-81411157D01*
X136385714Y-81411157D02*
X136257143Y-81411157D01*
X137328572Y-80811157D02*
X137328572Y-81539728D01*
X137328572Y-81539728D02*
X137285714Y-81625442D01*
X137285714Y-81625442D02*
X137242857Y-81668300D01*
X137242857Y-81668300D02*
X137157143Y-81711157D01*
X137157143Y-81711157D02*
X137028572Y-81711157D01*
X137028572Y-81711157D02*
X136942857Y-81668300D01*
X137328572Y-81368300D02*
X137242857Y-81411157D01*
X137242857Y-81411157D02*
X137071429Y-81411157D01*
X137071429Y-81411157D02*
X136985714Y-81368300D01*
X136985714Y-81368300D02*
X136942857Y-81325442D01*
X136942857Y-81325442D02*
X136900000Y-81239728D01*
X136900000Y-81239728D02*
X136900000Y-80982585D01*
X136900000Y-80982585D02*
X136942857Y-80896871D01*
X136942857Y-80896871D02*
X136985714Y-80854014D01*
X136985714Y-80854014D02*
X137071429Y-80811157D01*
X137071429Y-80811157D02*
X137242857Y-80811157D01*
X137242857Y-80811157D02*
X137328572Y-80854014D01*
D11*
X126898480Y-99335285D02*
X127788957Y-99335285D01*
X127788957Y-99335285D02*
X127893719Y-99278142D01*
X127893719Y-99278142D02*
X127946100Y-99221000D01*
X127946100Y-99221000D02*
X127998480Y-99106714D01*
X127998480Y-99106714D02*
X127998480Y-98878142D01*
X127998480Y-98878142D02*
X127946100Y-98763857D01*
X127946100Y-98763857D02*
X127893719Y-98706714D01*
X127893719Y-98706714D02*
X127788957Y-98649571D01*
X127788957Y-98649571D02*
X126898480Y-98649571D01*
X127684195Y-98135285D02*
X127684195Y-97563857D01*
X127998480Y-98249571D02*
X126898480Y-97849571D01*
X126898480Y-97849571D02*
X127998480Y-97449571D01*
X127998480Y-96363857D02*
X127474671Y-96763857D01*
X127998480Y-97049571D02*
X126898480Y-97049571D01*
X126898480Y-97049571D02*
X126898480Y-96592428D01*
X126898480Y-96592428D02*
X126950861Y-96478143D01*
X126950861Y-96478143D02*
X127003242Y-96421000D01*
X127003242Y-96421000D02*
X127108004Y-96363857D01*
X127108004Y-96363857D02*
X127265147Y-96363857D01*
X127265147Y-96363857D02*
X127369909Y-96421000D01*
X127369909Y-96421000D02*
X127422290Y-96478143D01*
X127422290Y-96478143D02*
X127474671Y-96592428D01*
X127474671Y-96592428D02*
X127474671Y-97049571D01*
X126898480Y-96021000D02*
X126898480Y-95335286D01*
X127998480Y-95678143D02*
X126898480Y-95678143D01*
D13*
X153121572Y-94942185D02*
X153193000Y-94870757D01*
X153193000Y-94870757D02*
X153335858Y-94799328D01*
X153335858Y-94799328D02*
X153693000Y-94799328D01*
X153693000Y-94799328D02*
X153835858Y-94870757D01*
X153835858Y-94870757D02*
X153907286Y-94942185D01*
X153907286Y-94942185D02*
X153978715Y-95085042D01*
X153978715Y-95085042D02*
X153978715Y-95227900D01*
X153978715Y-95227900D02*
X153907286Y-95442185D01*
X153907286Y-95442185D02*
X153050143Y-96299328D01*
X153050143Y-96299328D02*
X153978715Y-96299328D01*
X154907286Y-94799328D02*
X155050143Y-94799328D01*
X155050143Y-94799328D02*
X155193000Y-94870757D01*
X155193000Y-94870757D02*
X155264429Y-94942185D01*
X155264429Y-94942185D02*
X155335857Y-95085042D01*
X155335857Y-95085042D02*
X155407286Y-95370757D01*
X155407286Y-95370757D02*
X155407286Y-95727900D01*
X155407286Y-95727900D02*
X155335857Y-96013614D01*
X155335857Y-96013614D02*
X155264429Y-96156471D01*
X155264429Y-96156471D02*
X155193000Y-96227900D01*
X155193000Y-96227900D02*
X155050143Y-96299328D01*
X155050143Y-96299328D02*
X154907286Y-96299328D01*
X154907286Y-96299328D02*
X154764429Y-96227900D01*
X154764429Y-96227900D02*
X154693000Y-96156471D01*
X154693000Y-96156471D02*
X154621571Y-96013614D01*
X154621571Y-96013614D02*
X154550143Y-95727900D01*
X154550143Y-95727900D02*
X154550143Y-95370757D01*
X154550143Y-95370757D02*
X154621571Y-95085042D01*
X154621571Y-95085042D02*
X154693000Y-94942185D01*
X154693000Y-94942185D02*
X154764429Y-94870757D01*
X154764429Y-94870757D02*
X154907286Y-94799328D01*
X155978714Y-94942185D02*
X156050142Y-94870757D01*
X156050142Y-94870757D02*
X156193000Y-94799328D01*
X156193000Y-94799328D02*
X156550142Y-94799328D01*
X156550142Y-94799328D02*
X156693000Y-94870757D01*
X156693000Y-94870757D02*
X156764428Y-94942185D01*
X156764428Y-94942185D02*
X156835857Y-95085042D01*
X156835857Y-95085042D02*
X156835857Y-95227900D01*
X156835857Y-95227900D02*
X156764428Y-95442185D01*
X156764428Y-95442185D02*
X155907285Y-96299328D01*
X155907285Y-96299328D02*
X156835857Y-96299328D01*
X158192999Y-94799328D02*
X157478713Y-94799328D01*
X157478713Y-94799328D02*
X157407285Y-95513614D01*
X157407285Y-95513614D02*
X157478713Y-95442185D01*
X157478713Y-95442185D02*
X157621571Y-95370757D01*
X157621571Y-95370757D02*
X157978713Y-95370757D01*
X157978713Y-95370757D02*
X158121571Y-95442185D01*
X158121571Y-95442185D02*
X158192999Y-95513614D01*
X158192999Y-95513614D02*
X158264428Y-95656471D01*
X158264428Y-95656471D02*
X158264428Y-96013614D01*
X158264428Y-96013614D02*
X158192999Y-96156471D01*
X158192999Y-96156471D02*
X158121571Y-96227900D01*
X158121571Y-96227900D02*
X157978713Y-96299328D01*
X157978713Y-96299328D02*
X157621571Y-96299328D01*
X157621571Y-96299328D02*
X157478713Y-96227900D01*
X157478713Y-96227900D02*
X157407285Y-96156471D01*
X167287757Y-99849570D02*
X167287757Y-99135285D01*
X167716328Y-99992427D02*
X166216328Y-99492427D01*
X166216328Y-99492427D02*
X167716328Y-98992427D01*
X167716328Y-98492428D02*
X166216328Y-98492428D01*
X166216328Y-98492428D02*
X167716328Y-97635285D01*
X167716328Y-97635285D02*
X166216328Y-97635285D01*
X166216328Y-97135284D02*
X166216328Y-96278142D01*
X167716328Y-96706713D02*
X166216328Y-96706713D01*
X166359185Y-95849570D02*
X166287757Y-95778142D01*
X166287757Y-95778142D02*
X166216328Y-95635285D01*
X166216328Y-95635285D02*
X166216328Y-95278142D01*
X166216328Y-95278142D02*
X166287757Y-95135285D01*
X166287757Y-95135285D02*
X166359185Y-95063856D01*
X166359185Y-95063856D02*
X166502042Y-94992427D01*
X166502042Y-94992427D02*
X166644900Y-94992427D01*
X166644900Y-94992427D02*
X166859185Y-95063856D01*
X166859185Y-95063856D02*
X167716328Y-95920999D01*
X167716328Y-95920999D02*
X167716328Y-94992427D01*
D15*
X127295257Y-81940509D02*
X127009543Y-81940509D01*
X127152400Y-81940509D02*
X127152400Y-81440509D01*
X127152400Y-81440509D02*
X127104781Y-81511938D01*
X127104781Y-81511938D02*
X127057162Y-81559557D01*
X127057162Y-81559557D02*
X127009543Y-81583366D01*
D10*
%TO.C,J2*%
X126118600Y-82213400D02*
X131198600Y-82213400D01*
X126118600Y-89833400D02*
X126118600Y-82213400D01*
X131198600Y-82213400D02*
X131198600Y-89833400D01*
X131198600Y-89833400D02*
X126118600Y-89833400D01*
D16*
%TO.C,G1*%
G36*
X147282117Y-83642089D02*
G01*
X146784078Y-83642089D01*
X146784078Y-85080869D01*
X146463119Y-85080869D01*
X146463119Y-83642089D01*
X145965080Y-83642089D01*
X145965080Y-83332198D01*
X147282117Y-83332198D01*
X147282117Y-83642089D01*
G37*
G36*
X147780156Y-84018386D02*
G01*
X148588087Y-84018386D01*
X148588087Y-83332198D01*
X148909045Y-83332198D01*
X148909045Y-85080869D01*
X148588087Y-85080869D01*
X148588087Y-84328277D01*
X147780156Y-84328277D01*
X147780156Y-85080869D01*
X147459198Y-85080869D01*
X147459198Y-83332198D01*
X147780156Y-83332198D01*
X147780156Y-84018386D01*
G37*
G36*
X151713449Y-83893876D02*
G01*
X152085356Y-84455553D01*
X152085392Y-83893876D01*
X152085429Y-83332198D01*
X152406387Y-83332198D01*
X152406387Y-85080869D01*
X152144356Y-85080869D01*
X151343928Y-83880041D01*
X151343904Y-85080869D01*
X151022945Y-85080869D01*
X151022945Y-83332198D01*
X151341542Y-83332198D01*
X151713449Y-83893876D01*
G37*
G36*
X155660244Y-83642089D02*
G01*
X154863381Y-83642089D01*
X154863381Y-84018386D01*
X155472095Y-84018386D01*
X155472095Y-84328277D01*
X154863381Y-84328277D01*
X154863381Y-84770978D01*
X155682379Y-84770978D01*
X155682379Y-85080869D01*
X154531355Y-85080869D01*
X154531355Y-83332198D01*
X155660244Y-83332198D01*
X155660244Y-83642089D01*
G37*
G36*
X157550637Y-85502018D02*
G01*
X157597639Y-85503833D01*
X157626720Y-85507083D01*
X157639974Y-85511942D01*
X157641333Y-85514737D01*
X157639459Y-85527497D01*
X157634034Y-85560370D01*
X157625347Y-85611667D01*
X157613692Y-85679703D01*
X157599360Y-85762789D01*
X157582643Y-85859241D01*
X157563833Y-85967370D01*
X157543222Y-86085489D01*
X157521102Y-86211913D01*
X157497764Y-86344954D01*
X157491921Y-86378212D01*
X157468338Y-86512539D01*
X157445900Y-86640607D01*
X157424900Y-86760735D01*
X157405628Y-86871243D01*
X157388376Y-86970450D01*
X157373436Y-87056675D01*
X157361099Y-87128239D01*
X157351658Y-87183460D01*
X157345403Y-87220659D01*
X157342626Y-87238154D01*
X157342509Y-87239247D01*
X157331847Y-87243589D01*
X157301448Y-87246950D01*
X157253696Y-87249171D01*
X157190974Y-87250091D01*
X157180647Y-87250107D01*
X157018784Y-87250107D01*
X157024530Y-87219671D01*
X157027318Y-87204127D01*
X157033618Y-87168519D01*
X157043124Y-87114586D01*
X157055529Y-87044069D01*
X157070530Y-86958707D01*
X157087819Y-86860240D01*
X157107092Y-86750406D01*
X157128043Y-86630947D01*
X157150366Y-86503601D01*
X157173757Y-86370108D01*
X157178092Y-86345360D01*
X157325908Y-85501484D01*
X157483621Y-85501460D01*
X157550637Y-85502018D01*
G37*
G36*
X159653569Y-81182329D02*
G01*
X159650969Y-81197857D01*
X159644845Y-81233454D01*
X159635501Y-81287386D01*
X159623238Y-81357921D01*
X159608358Y-81443325D01*
X159591165Y-81541864D01*
X159571959Y-81651806D01*
X159551044Y-81771417D01*
X159528722Y-81898965D01*
X159505294Y-82032715D01*
X159500134Y-82062159D01*
X159351268Y-82911552D01*
X159193555Y-82911592D01*
X159128866Y-82911172D01*
X159083525Y-82909701D01*
X159054761Y-82906924D01*
X159039799Y-82902584D01*
X159035843Y-82896981D01*
X159037719Y-82883714D01*
X159043111Y-82850689D01*
X159051661Y-82799935D01*
X159063013Y-82733484D01*
X159076811Y-82653366D01*
X159092697Y-82561610D01*
X159110315Y-82460246D01*
X159129308Y-82351306D01*
X159149321Y-82236820D01*
X159169995Y-82118816D01*
X159190975Y-81999326D01*
X159211903Y-81880381D01*
X159232424Y-81764009D01*
X159252180Y-81652241D01*
X159270815Y-81547108D01*
X159287973Y-81450640D01*
X159303296Y-81364867D01*
X159316428Y-81291819D01*
X159327013Y-81233526D01*
X159334693Y-81192018D01*
X159339112Y-81169326D01*
X159339965Y-81165728D01*
X159348827Y-81159804D01*
X159371897Y-81155672D01*
X159411475Y-81153137D01*
X159469861Y-81152001D01*
X159501588Y-81151893D01*
X159658137Y-81151893D01*
X159653569Y-81182329D01*
G37*
G36*
X158399618Y-81176795D02*
G01*
X158396819Y-81191487D01*
X158390526Y-81226239D01*
X158381048Y-81279303D01*
X158368693Y-81348933D01*
X158353769Y-81433381D01*
X158336584Y-81530902D01*
X158317446Y-81639748D01*
X158296664Y-81758172D01*
X158274546Y-81884428D01*
X158251400Y-82016769D01*
X158249747Y-82026229D01*
X158226519Y-82159098D01*
X158204290Y-82286132D01*
X158183370Y-82405567D01*
X158164068Y-82515641D01*
X158146694Y-82614593D01*
X158131557Y-82700660D01*
X158118967Y-82772081D01*
X158109235Y-82827092D01*
X158102669Y-82863933D01*
X158099579Y-82880841D01*
X158099508Y-82881196D01*
X158093343Y-82911632D01*
X157771744Y-82911632D01*
X157777744Y-82886730D01*
X157780593Y-82871972D01*
X157786928Y-82837188D01*
X157796436Y-82784156D01*
X157808802Y-82714656D01*
X157823711Y-82630467D01*
X157840848Y-82533369D01*
X157859900Y-82425140D01*
X157880551Y-82307560D01*
X157902487Y-82182409D01*
X157923034Y-82064965D01*
X157946037Y-81933479D01*
X157968172Y-81807180D01*
X157989107Y-81687946D01*
X158008510Y-81577652D01*
X158026050Y-81478178D01*
X158041397Y-81391400D01*
X158054217Y-81319196D01*
X158064180Y-81263443D01*
X158070955Y-81226018D01*
X158073963Y-81209998D01*
X158085604Y-81151893D01*
X158405415Y-81151893D01*
X158399618Y-81176795D01*
G37*
G36*
X160112894Y-85502977D02*
G01*
X160140715Y-85504465D01*
X160156406Y-85507709D01*
X160163298Y-85513051D01*
X160164732Y-85520051D01*
X160162853Y-85533766D01*
X160157413Y-85567575D01*
X160148705Y-85619774D01*
X160137022Y-85688660D01*
X160122656Y-85772530D01*
X160105901Y-85869682D01*
X160087049Y-85978410D01*
X160066395Y-86097014D01*
X160044230Y-86223788D01*
X160020848Y-86357030D01*
X160015320Y-86388465D01*
X159991737Y-86522575D01*
X159969300Y-86650324D01*
X159948300Y-86770042D01*
X159929028Y-86880059D01*
X159911777Y-86978707D01*
X159896837Y-87064316D01*
X159884500Y-87135216D01*
X159875058Y-87189738D01*
X159868802Y-87226213D01*
X159866025Y-87242970D01*
X159865908Y-87243881D01*
X159855490Y-87246082D01*
X159826828Y-87247942D01*
X159783813Y-87249308D01*
X159730338Y-87250031D01*
X159705429Y-87250107D01*
X159648745Y-87249568D01*
X159600925Y-87248087D01*
X159565841Y-87245863D01*
X159547366Y-87243099D01*
X159545492Y-87241806D01*
X159547454Y-87229858D01*
X159552972Y-87197772D01*
X159561756Y-87147210D01*
X159573513Y-87079831D01*
X159587955Y-86997296D01*
X159604788Y-86901267D01*
X159623724Y-86793404D01*
X159644470Y-86675367D01*
X159666735Y-86548817D01*
X159690229Y-86415415D01*
X159698191Y-86370237D01*
X159850347Y-85506969D01*
X160007539Y-85503899D01*
X160069613Y-85502902D01*
X160112894Y-85502977D01*
G37*
G36*
X158899430Y-85526338D02*
G01*
X158896599Y-85541017D01*
X158890271Y-85575761D01*
X158880756Y-85628831D01*
X158868359Y-85698484D01*
X158853390Y-85782982D01*
X158836155Y-85880583D01*
X158816962Y-85989546D01*
X158796120Y-86108133D01*
X158773936Y-86234601D01*
X158750718Y-86367210D01*
X158748252Y-86381305D01*
X158724964Y-86514288D01*
X158702684Y-86641185D01*
X158681717Y-86760272D01*
X158662371Y-86869823D01*
X158644953Y-86968113D01*
X158629767Y-87053416D01*
X158617122Y-87124007D01*
X158607323Y-87178160D01*
X158600677Y-87214150D01*
X158597491Y-87230251D01*
X158597364Y-87230739D01*
X158593024Y-87238395D01*
X158582998Y-87243740D01*
X158563855Y-87247180D01*
X158532166Y-87249117D01*
X158484500Y-87249955D01*
X158432952Y-87250107D01*
X158370699Y-87249905D01*
X158327361Y-87249030D01*
X158299720Y-87247077D01*
X158284558Y-87243643D01*
X158278657Y-87238322D01*
X158278791Y-87230739D01*
X158281384Y-87216953D01*
X158287476Y-87183093D01*
X158296760Y-87130890D01*
X158308933Y-87062076D01*
X158323690Y-86978382D01*
X158340725Y-86881539D01*
X158359733Y-86773280D01*
X158380410Y-86655335D01*
X158402452Y-86529436D01*
X158425552Y-86397315D01*
X158427382Y-86386839D01*
X158450608Y-86253969D01*
X158472835Y-86126935D01*
X158493754Y-86007500D01*
X158513057Y-85897425D01*
X158530432Y-85798473D01*
X158545570Y-85712406D01*
X158558162Y-85640986D01*
X158567899Y-85585974D01*
X158574469Y-85549134D01*
X158577564Y-85532227D01*
X158577635Y-85531871D01*
X158583832Y-85501436D01*
X158905432Y-85501436D01*
X158899430Y-85526338D01*
G37*
G36*
X159102034Y-83334327D02*
G01*
X159120586Y-83334652D01*
X159274797Y-83337732D01*
X159156358Y-84012852D01*
X159135218Y-84133406D01*
X159115071Y-84248397D01*
X159096269Y-84355816D01*
X159079161Y-84453654D01*
X159064099Y-84539901D01*
X159051434Y-84612548D01*
X159041516Y-84669585D01*
X159034697Y-84709002D01*
X159031328Y-84728791D01*
X159031217Y-84729475D01*
X159024514Y-84770978D01*
X159323468Y-84770978D01*
X159413048Y-84771086D01*
X159482899Y-84771506D01*
X159535427Y-84772383D01*
X159573038Y-84773863D01*
X159598137Y-84776091D01*
X159613129Y-84779213D01*
X159620421Y-84783374D01*
X159622418Y-84788719D01*
X159622422Y-84789042D01*
X159620571Y-84806464D01*
X159615523Y-84840797D01*
X159608035Y-84887176D01*
X159598867Y-84940731D01*
X159598294Y-84943987D01*
X159574165Y-85080869D01*
X159111322Y-85080869D01*
X159012540Y-85080805D01*
X158920982Y-85080623D01*
X158838936Y-85080336D01*
X158768691Y-85079957D01*
X158712537Y-85079501D01*
X158672762Y-85078981D01*
X158651656Y-85078411D01*
X158648818Y-85078102D01*
X158651708Y-85059399D01*
X158658052Y-85021635D01*
X158667495Y-84966810D01*
X158679677Y-84896921D01*
X158694242Y-84813966D01*
X158710832Y-84719944D01*
X158729090Y-84616852D01*
X158748658Y-84506688D01*
X158769178Y-84391450D01*
X158790294Y-84273137D01*
X158811646Y-84153747D01*
X158832879Y-84035276D01*
X158853635Y-83919725D01*
X158873555Y-83809089D01*
X158892283Y-83705369D01*
X158909461Y-83610560D01*
X158924731Y-83526663D01*
X158937737Y-83455674D01*
X158948119Y-83399592D01*
X158955522Y-83360414D01*
X158959587Y-83340139D01*
X158960231Y-83337716D01*
X158972944Y-83335703D01*
X159003603Y-83334415D01*
X159048027Y-83333929D01*
X159102034Y-83334327D01*
G37*
G36*
X160825651Y-81152194D02*
G01*
X160873334Y-81153023D01*
X160908285Y-81154265D01*
X160926599Y-81155809D01*
X160928392Y-81156498D01*
X160926524Y-81168277D01*
X160921155Y-81199839D01*
X160912640Y-81249173D01*
X160901333Y-81314266D01*
X160887588Y-81393104D01*
X160871759Y-81483676D01*
X160854200Y-81583968D01*
X160835265Y-81691967D01*
X160815308Y-81805661D01*
X160794684Y-81923037D01*
X160773747Y-82042083D01*
X160752849Y-82160785D01*
X160732347Y-82277130D01*
X160712594Y-82389107D01*
X160693943Y-82494702D01*
X160676749Y-82591902D01*
X160661366Y-82678695D01*
X160648149Y-82753068D01*
X160637451Y-82813008D01*
X160629626Y-82856502D01*
X160625029Y-82881539D01*
X160624000Y-82886730D01*
X160620889Y-82896464D01*
X160614637Y-82903260D01*
X160601746Y-82907647D01*
X160578721Y-82910150D01*
X160542066Y-82911298D01*
X160488284Y-82911618D01*
X160458847Y-82911632D01*
X160396472Y-82911431D01*
X160353018Y-82910560D01*
X160325270Y-82908617D01*
X160310016Y-82905200D01*
X160304042Y-82899906D01*
X160304135Y-82892332D01*
X160304151Y-82892264D01*
X160306746Y-82878478D01*
X160312841Y-82844619D01*
X160322132Y-82792417D01*
X160334313Y-82723604D01*
X160349079Y-82639912D01*
X160366126Y-82543071D01*
X160385147Y-82434813D01*
X160405839Y-82316870D01*
X160427895Y-82190974D01*
X160451012Y-82058855D01*
X160452846Y-82048364D01*
X160476107Y-81915327D01*
X160498375Y-81788001D01*
X160519336Y-81668161D01*
X160538682Y-81557586D01*
X160556099Y-81458053D01*
X160571278Y-81371339D01*
X160583907Y-81299221D01*
X160593676Y-81243478D01*
X160600272Y-81205886D01*
X160603386Y-81188223D01*
X160603450Y-81187863D01*
X160609897Y-81151893D01*
X160769144Y-81151893D01*
X160825651Y-81152194D01*
G37*
G36*
X153183882Y-83335123D02*
G01*
X153299305Y-83336425D01*
X153395281Y-83337874D01*
X153474499Y-83339849D01*
X153539645Y-83342727D01*
X153593407Y-83346888D01*
X153638473Y-83352711D01*
X153677529Y-83360574D01*
X153713265Y-83370855D01*
X153748366Y-83383934D01*
X153785521Y-83400189D01*
X153827417Y-83419998D01*
X153844420Y-83428190D01*
X153898223Y-83455804D01*
X153941771Y-83483019D01*
X153982600Y-83515283D01*
X154028247Y-83558046D01*
X154039640Y-83569360D01*
X154085455Y-83617096D01*
X154119577Y-83658373D01*
X154147461Y-83700731D01*
X154174560Y-83751711D01*
X154180835Y-83764579D01*
X154211342Y-83830300D01*
X154234155Y-83887118D01*
X154250356Y-83940351D01*
X154261026Y-83995316D01*
X154267245Y-84057331D01*
X154270095Y-84131713D01*
X154270676Y-84206534D01*
X154269786Y-84295571D01*
X154266393Y-84367784D01*
X154259417Y-84428440D01*
X154247776Y-84482805D01*
X154230388Y-84536144D01*
X154206173Y-84593723D01*
X154179756Y-84649235D01*
X154114587Y-84757291D01*
X154032409Y-84852186D01*
X153935138Y-84932239D01*
X153824692Y-84995769D01*
X153749983Y-85026280D01*
X153708056Y-85040219D01*
X153667922Y-85051598D01*
X153626764Y-85060670D01*
X153581760Y-85067687D01*
X153530091Y-85072904D01*
X153468938Y-85076572D01*
X153395480Y-85078944D01*
X153306898Y-85080275D01*
X153200372Y-85080816D01*
X153141405Y-85080869D01*
X152760549Y-85080869D01*
X152760549Y-84794954D01*
X152760549Y-83618433D01*
X153081507Y-83618433D01*
X153081507Y-84794954D01*
X153574013Y-84787580D01*
X153648173Y-84752447D01*
X153733170Y-84700984D01*
X153802567Y-84634404D01*
X153856482Y-84552479D01*
X153895031Y-84454981D01*
X153918329Y-84341683D01*
X153926492Y-84212357D01*
X153926506Y-84206534D01*
X153918979Y-84076525D01*
X153896324Y-83962554D01*
X153858422Y-83864393D01*
X153805159Y-83781814D01*
X153736418Y-83714590D01*
X153652083Y-83662493D01*
X153648173Y-83660621D01*
X153574013Y-83625488D01*
X153327760Y-83621960D01*
X153081507Y-83618433D01*
X152760549Y-83618433D01*
X152760549Y-83330572D01*
X153183882Y-83335123D01*
G37*
G36*
X156420825Y-83332296D02*
G01*
X156505265Y-83332678D01*
X156573054Y-83333473D01*
X156626932Y-83334813D01*
X156669643Y-83336829D01*
X156703927Y-83339651D01*
X156732526Y-83343410D01*
X156758182Y-83348238D01*
X156783636Y-83354264D01*
X156784595Y-83354508D01*
X156893107Y-83390931D01*
X156983808Y-83440470D01*
X157056865Y-83503338D01*
X157112442Y-83579747D01*
X157150704Y-83669912D01*
X157171817Y-83774045D01*
X157176496Y-83860724D01*
X157168468Y-83972149D01*
X157143894Y-84069602D01*
X157102039Y-84154603D01*
X157042167Y-84228669D01*
X156969001Y-84289540D01*
X156933435Y-84315269D01*
X156906020Y-84336664D01*
X156890973Y-84350368D01*
X156889359Y-84352983D01*
X156894248Y-84364083D01*
X156908260Y-84392028D01*
X156929999Y-84434184D01*
X156958067Y-84487922D01*
X156991069Y-84550608D01*
X157027607Y-84619611D01*
X157066285Y-84692300D01*
X157105707Y-84766043D01*
X157144477Y-84838207D01*
X157181197Y-84906162D01*
X157214471Y-84967276D01*
X157238902Y-85011697D01*
X157277188Y-85080869D01*
X157096798Y-85080636D01*
X156916409Y-85080402D01*
X156748607Y-84756910D01*
X156580806Y-84433418D01*
X156419348Y-84430356D01*
X156257891Y-84427293D01*
X156257891Y-85080869D01*
X155936932Y-85080869D01*
X155936932Y-84164495D01*
X155936932Y-83595629D01*
X156257891Y-83595629D01*
X156257891Y-84164495D01*
X156443272Y-84160613D01*
X156511809Y-84159031D01*
X156562508Y-84157168D01*
X156599660Y-84154391D01*
X156627559Y-84150065D01*
X156650499Y-84143557D01*
X156672772Y-84134235D01*
X156694578Y-84123527D01*
X156758069Y-84082950D01*
X156802395Y-84033789D01*
X156829713Y-83973405D01*
X156835176Y-83951467D01*
X156843630Y-83868601D01*
X156833816Y-83793023D01*
X156806728Y-83727127D01*
X156763358Y-83673307D01*
X156704701Y-83633956D01*
X156703155Y-83633229D01*
X156678619Y-83622368D01*
X156655833Y-83614428D01*
X156630584Y-83608852D01*
X156598655Y-83605084D01*
X156555833Y-83602566D01*
X156497901Y-83600742D01*
X156448806Y-83599637D01*
X156257891Y-83595629D01*
X155936932Y-83595629D01*
X155936932Y-83332198D01*
X156316992Y-83332198D01*
X156420825Y-83332296D01*
G37*
G36*
X149564499Y-83910477D02*
G01*
X149565352Y-84038620D01*
X149566175Y-84146628D01*
X149567055Y-84236500D01*
X149568080Y-84310237D01*
X149569336Y-84369838D01*
X149570909Y-84417303D01*
X149572886Y-84454631D01*
X149575354Y-84483822D01*
X149578399Y-84506876D01*
X149582109Y-84525793D01*
X149586569Y-84542573D01*
X149591866Y-84559214D01*
X149592720Y-84561767D01*
X149630666Y-84645659D01*
X149682410Y-84712247D01*
X149747933Y-84761521D01*
X149827214Y-84793469D01*
X149920235Y-84808082D01*
X150026975Y-84805348D01*
X150034595Y-84804547D01*
X150122431Y-84786584D01*
X150195796Y-84753139D01*
X150255331Y-84703500D01*
X150301678Y-84636956D01*
X150335477Y-84552795D01*
X150357370Y-84450306D01*
X150358047Y-84445530D01*
X150360870Y-84413499D01*
X150363387Y-84361372D01*
X150365556Y-84291186D01*
X150367337Y-84204979D01*
X150368691Y-84104789D01*
X150369575Y-83992652D01*
X150369950Y-83870606D01*
X150369960Y-83846038D01*
X150369960Y-83332198D01*
X150690919Y-83332198D01*
X150690919Y-83873707D01*
X150690773Y-84012624D01*
X150690244Y-84131534D01*
X150689193Y-84232566D01*
X150687485Y-84317848D01*
X150684982Y-84389505D01*
X150681546Y-84449667D01*
X150677041Y-84500461D01*
X150671329Y-84544014D01*
X150664272Y-84582454D01*
X150655735Y-84617909D01*
X150645579Y-84652505D01*
X150639479Y-84671264D01*
X150591610Y-84784718D01*
X150529174Y-84881536D01*
X150451953Y-84961939D01*
X150359730Y-85026143D01*
X150252288Y-85074366D01*
X150231616Y-85081270D01*
X150171022Y-85095392D01*
X150095233Y-85105307D01*
X150010820Y-85110852D01*
X149924352Y-85111862D01*
X149842398Y-85108176D01*
X149771526Y-85099628D01*
X149742212Y-85093458D01*
X149627234Y-85054380D01*
X149527059Y-84999131D01*
X149441356Y-84927379D01*
X149369794Y-84838796D01*
X149312039Y-84733052D01*
X149272791Y-84626919D01*
X149267343Y-84608429D01*
X149262730Y-84590491D01*
X149258868Y-84571135D01*
X149255674Y-84548389D01*
X149253065Y-84520283D01*
X149250959Y-84484846D01*
X149249272Y-84440106D01*
X149247920Y-84384093D01*
X149246822Y-84314835D01*
X149245894Y-84230363D01*
X149245052Y-84128705D01*
X149244214Y-84007889D01*
X149243761Y-83938146D01*
X149239860Y-83332198D01*
X149560769Y-83332198D01*
X149564499Y-83910477D01*
G37*
G36*
X158324263Y-83332395D02*
G01*
X158421835Y-83332881D01*
X158510161Y-83333653D01*
X158587072Y-83334677D01*
X158650400Y-83335918D01*
X158697976Y-83337341D01*
X158727632Y-83338912D01*
X158737232Y-83340499D01*
X158735552Y-83353928D01*
X158730800Y-83384880D01*
X158723659Y-83429064D01*
X158714813Y-83482190D01*
X158712597Y-83495296D01*
X158687749Y-83641793D01*
X158328373Y-83644708D01*
X157968998Y-83647623D01*
X157938511Y-83813636D01*
X157927824Y-83872880D01*
X157918700Y-83925436D01*
X157911864Y-83966976D01*
X157908041Y-83993168D01*
X157907490Y-83999017D01*
X157908698Y-84004995D01*
X157914376Y-84009604D01*
X157927043Y-84013021D01*
X157949218Y-84015421D01*
X157983423Y-84016981D01*
X158032177Y-84017878D01*
X158098000Y-84018287D01*
X158183412Y-84018386D01*
X158184388Y-84018386D01*
X158269878Y-84018474D01*
X158335706Y-84018857D01*
X158384347Y-84019711D01*
X158418273Y-84021211D01*
X158439958Y-84023536D01*
X158451876Y-84026859D01*
X158456500Y-84031359D01*
X158456304Y-84037210D01*
X158456151Y-84037754D01*
X158452465Y-84054408D01*
X158446118Y-84086928D01*
X158438056Y-84130064D01*
X158429221Y-84178565D01*
X158420559Y-84227181D01*
X158413013Y-84270661D01*
X158407528Y-84303754D01*
X158405048Y-84321212D01*
X158404993Y-84322223D01*
X158394417Y-84323871D01*
X158364655Y-84325349D01*
X158318656Y-84326594D01*
X158259367Y-84327542D01*
X158189739Y-84328128D01*
X158125538Y-84328294D01*
X157846082Y-84328312D01*
X157803510Y-84574547D01*
X157789464Y-84655715D01*
X157775065Y-84738780D01*
X157761299Y-84818078D01*
X157749147Y-84887948D01*
X157739592Y-84942726D01*
X157738176Y-84950826D01*
X157715413Y-85080869D01*
X157555340Y-85080869D01*
X157492961Y-85080781D01*
X157449455Y-85080169D01*
X157421558Y-85078510D01*
X157406008Y-85075281D01*
X157399543Y-85069959D01*
X157398900Y-85062022D01*
X157399917Y-85055967D01*
X157402526Y-85041333D01*
X157408653Y-85006614D01*
X157417994Y-84953529D01*
X157430248Y-84883797D01*
X157445114Y-84799137D01*
X157462290Y-84701267D01*
X157481474Y-84591906D01*
X157502365Y-84472773D01*
X157524660Y-84345586D01*
X157548059Y-84212065D01*
X157553386Y-84181663D01*
X157702204Y-83332260D01*
X158219612Y-83332229D01*
X158324263Y-83332395D01*
G37*
G36*
X161027519Y-83332868D02*
G01*
X161075518Y-83334226D01*
X161105556Y-83336800D01*
X161119709Y-83340752D01*
X161120920Y-83345133D01*
X161112790Y-83356122D01*
X161092372Y-83382937D01*
X161060947Y-83423916D01*
X161019796Y-83477396D01*
X160970200Y-83541715D01*
X160913440Y-83615212D01*
X160850798Y-83696222D01*
X160783555Y-83783085D01*
X160751311Y-83824704D01*
X160682445Y-83913608D01*
X160617639Y-83997344D01*
X160558168Y-84074261D01*
X160505303Y-84142708D01*
X160460319Y-84201037D01*
X160424488Y-84247596D01*
X160399084Y-84280735D01*
X160385379Y-84298805D01*
X160383346Y-84301616D01*
X160380421Y-84313758D01*
X160374181Y-84344657D01*
X160365180Y-84391279D01*
X160353970Y-84450587D01*
X160341107Y-84519546D01*
X160327144Y-84595118D01*
X160312636Y-84674269D01*
X160298135Y-84753961D01*
X160284196Y-84831160D01*
X160271374Y-84902829D01*
X160260221Y-84965932D01*
X160251293Y-85017433D01*
X160245142Y-85054296D01*
X160242324Y-85073485D01*
X160242204Y-85075144D01*
X160231785Y-85077167D01*
X160203120Y-85078876D01*
X160160098Y-85080133D01*
X160106607Y-85080799D01*
X160081514Y-85080869D01*
X159920824Y-85080869D01*
X159926613Y-85055967D01*
X159930689Y-85035650D01*
X159937700Y-84997689D01*
X159947105Y-84945239D01*
X159958362Y-84881457D01*
X159970928Y-84809499D01*
X159984262Y-84732520D01*
X159997823Y-84653676D01*
X160011068Y-84576123D01*
X160023455Y-84503018D01*
X160034443Y-84437516D01*
X160043489Y-84382774D01*
X160050053Y-84341946D01*
X160053591Y-84318190D01*
X160054056Y-84313706D01*
X160049875Y-84300357D01*
X160037904Y-84268754D01*
X160019008Y-84221019D01*
X159994047Y-84159271D01*
X159963886Y-84085633D01*
X159929385Y-84002224D01*
X159891407Y-83911166D01*
X159859005Y-83834009D01*
X159818700Y-83738179D01*
X159780965Y-83648190D01*
X159746691Y-83566185D01*
X159716766Y-83494303D01*
X159692081Y-83434688D01*
X159673526Y-83389479D01*
X159661991Y-83360819D01*
X159658422Y-83351271D01*
X159657723Y-83343789D01*
X159662623Y-83338591D01*
X159676242Y-83335361D01*
X159701703Y-83333779D01*
X159742128Y-83333531D01*
X159800638Y-83334297D01*
X159821771Y-83334669D01*
X159990652Y-83337732D01*
X160128910Y-83678059D01*
X160162146Y-83759338D01*
X160192954Y-83833664D01*
X160220313Y-83898647D01*
X160243198Y-83951898D01*
X160260588Y-83991029D01*
X160271459Y-84013651D01*
X160274621Y-84018386D01*
X160282645Y-84009794D01*
X160302325Y-83985301D01*
X160332193Y-83946832D01*
X160370781Y-83896310D01*
X160416621Y-83835659D01*
X160468246Y-83766805D01*
X160524187Y-83691671D01*
X160536061Y-83675659D01*
X160790048Y-83332933D01*
X160959481Y-83332566D01*
X161027519Y-83332868D01*
G37*
%TD*%
M02*
