%TF.GenerationSoftware,KiCad,Pcbnew,9.0.1+1*%
%TF.CreationDate,2025-09-19T21:28:40+00:00*%
%TF.ProjectId,TFSIK01,54465349-4b30-4312-9e6b-696361645f70,rev?*%
%TF.SameCoordinates,Original*%
%TF.FileFunction,Copper,L2,Bot*%
%TF.FilePolarity,Positive*%
%FSLAX46Y46*%
G04 Gerber Fmt 4.6, Leading zero omitted, Abs format (unit mm)*
G04 Created by KiCad (PCBNEW 9.0.1+1) date 2025-09-19 21:28:40*
%MOMM*%
%LPD*%
G01*
G04 APERTURE LIST*
G04 Aperture macros list*
%AMRoundRect*
0 Rectangle with rounded corners*
0 $1 Rounding radius*
0 $2 $3 $4 $5 $6 $7 $8 $9 X,Y pos of 4 corners*
0 Add a 4 corners polygon primitive as box body*
4,1,4,$2,$3,$4,$5,$6,$7,$8,$9,$2,$3,0*
0 Add four circle primitives for the rounded corners*
1,1,$1+$1,$2,$3*
1,1,$1+$1,$4,$5*
1,1,$1+$1,$6,$7*
1,1,$1+$1,$8,$9*
0 Add four rect primitives between the rounded corners*
20,1,$1+$1,$2,$3,$4,$5,0*
20,1,$1+$1,$4,$5,$6,$7,0*
20,1,$1+$1,$6,$7,$8,$9,0*
20,1,$1+$1,$8,$9,$2,$3,0*%
%AMFreePoly0*
4,1,7,1.675000,0.350000,8.125000,0.350000,8.125000,-0.750000,-1.675000,-0.750000,-1.675000,0.750000,1.675000,0.750000,1.675000,0.350000,1.675000,0.350000,$1*%
%AMFreePoly1*
4,1,8,1.675000,-0.750000,-1.675000,-0.750000,-8.125000,-0.750000,-8.125000,0.350000,-1.675000,0.350000,-1.675000,0.750000,1.675000,0.750000,1.675000,-0.750000,1.675000,-0.750000,$1*%
G04 Aperture macros list end*
%TA.AperFunction,EtchedComponent*%
%ADD10C,0.000000*%
%TD*%
%TA.AperFunction,SMDPad,CuDef*%
%ADD11RoundRect,0.225000X-0.225000X-0.250000X0.225000X-0.250000X0.225000X0.250000X-0.225000X0.250000X0*%
%TD*%
%TA.AperFunction,SMDPad,CuDef*%
%ADD12RoundRect,0.250000X0.450000X-0.325000X0.450000X0.325000X-0.450000X0.325000X-0.450000X-0.325000X0*%
%TD*%
%TA.AperFunction,SMDPad,CuDef*%
%ADD13RoundRect,0.200000X0.275000X-0.200000X0.275000X0.200000X-0.275000X0.200000X-0.275000X-0.200000X0*%
%TD*%
%TA.AperFunction,SMDPad,CuDef*%
%ADD14RoundRect,0.100000X0.100000X-0.225000X0.100000X0.225000X-0.100000X0.225000X-0.100000X-0.225000X0*%
%TD*%
%TA.AperFunction,SMDPad,CuDef*%
%ADD15RoundRect,0.225000X-0.250000X0.225000X-0.250000X-0.225000X0.250000X-0.225000X0.250000X0.225000X0*%
%TD*%
%TA.AperFunction,SMDPad,CuDef*%
%ADD16RoundRect,0.250000X0.250000X0.475000X-0.250000X0.475000X-0.250000X-0.475000X0.250000X-0.475000X0*%
%TD*%
%TA.AperFunction,SMDPad,CuDef*%
%ADD17RoundRect,0.200000X-0.275000X0.200000X-0.275000X-0.200000X0.275000X-0.200000X0.275000X0.200000X0*%
%TD*%
%TA.AperFunction,SMDPad,CuDef*%
%ADD18C,0.500000*%
%TD*%
%TA.AperFunction,SMDPad,CuDef*%
%ADD19RoundRect,0.200000X0.200000X0.275000X-0.200000X0.275000X-0.200000X-0.275000X0.200000X-0.275000X0*%
%TD*%
%TA.AperFunction,SMDPad,CuDef*%
%ADD20R,0.600000X1.200000*%
%TD*%
%TA.AperFunction,SMDPad,CuDef*%
%ADD21RoundRect,0.237500X0.237500X-0.287500X0.237500X0.287500X-0.237500X0.287500X-0.237500X-0.287500X0*%
%TD*%
%TA.AperFunction,SMDPad,CuDef*%
%ADD22RoundRect,0.062500X-0.062500X0.362500X-0.062500X-0.362500X0.062500X-0.362500X0.062500X0.362500X0*%
%TD*%
%TA.AperFunction,SMDPad,CuDef*%
%ADD23RoundRect,0.062500X-0.362500X0.062500X-0.362500X-0.062500X0.362500X-0.062500X0.362500X0.062500X0*%
%TD*%
%TA.AperFunction,HeatsinkPad*%
%ADD24C,0.500000*%
%TD*%
%TA.AperFunction,HeatsinkPad*%
%ADD25R,4.100000X3.600000*%
%TD*%
%TA.AperFunction,SMDPad,CuDef*%
%ADD26RoundRect,0.225000X0.250000X-0.225000X0.250000X0.225000X-0.250000X0.225000X-0.250000X-0.225000X0*%
%TD*%
%TA.AperFunction,SMDPad,CuDef*%
%ADD27RoundRect,0.250000X0.325000X0.450000X-0.325000X0.450000X-0.325000X-0.450000X0.325000X-0.450000X0*%
%TD*%
%TA.AperFunction,SMDPad,CuDef*%
%ADD28R,1.300000X1.500000*%
%TD*%
%TA.AperFunction,SMDPad,CuDef*%
%ADD29R,0.700000X3.000000*%
%TD*%
%TA.AperFunction,SMDPad,CuDef*%
%ADD30RoundRect,0.225000X-0.335876X-0.017678X-0.017678X-0.335876X0.335876X0.017678X0.017678X0.335876X0*%
%TD*%
%TA.AperFunction,SMDPad,CuDef*%
%ADD31RoundRect,0.250000X-0.475000X0.250000X-0.475000X-0.250000X0.475000X-0.250000X0.475000X0.250000X0*%
%TD*%
%TA.AperFunction,SMDPad,CuDef*%
%ADD32RoundRect,0.150000X0.700000X-0.150000X0.700000X0.150000X-0.700000X0.150000X-0.700000X-0.150000X0*%
%TD*%
%TA.AperFunction,SMDPad,CuDef*%
%ADD33RoundRect,0.250000X1.100000X-0.250000X1.100000X0.250000X-1.100000X0.250000X-1.100000X-0.250000X0*%
%TD*%
%TA.AperFunction,SMDPad,CuDef*%
%ADD34RoundRect,0.250000X-0.450000X0.325000X-0.450000X-0.325000X0.450000X-0.325000X0.450000X0.325000X0*%
%TD*%
%TA.AperFunction,SMDPad,CuDef*%
%ADD35RoundRect,0.375000X0.375000X-0.625000X0.375000X0.625000X-0.375000X0.625000X-0.375000X-0.625000X0*%
%TD*%
%TA.AperFunction,SMDPad,CuDef*%
%ADD36RoundRect,0.500000X1.400000X-0.500000X1.400000X0.500000X-1.400000X0.500000X-1.400000X-0.500000X0*%
%TD*%
%TA.AperFunction,SMDPad,CuDef*%
%ADD37R,0.300000X0.750000*%
%TD*%
%TA.AperFunction,ComponentPad*%
%ADD38C,0.300000*%
%TD*%
%TA.AperFunction,SMDPad,CuDef*%
%ADD39R,1.650000X0.850000*%
%TD*%
%TA.AperFunction,SMDPad,CuDef*%
%ADD40R,1.000000X1.800000*%
%TD*%
%TA.AperFunction,SMDPad,CuDef*%
%ADD41RoundRect,0.225000X0.225000X0.250000X-0.225000X0.250000X-0.225000X-0.250000X0.225000X-0.250000X0*%
%TD*%
%TA.AperFunction,SMDPad,CuDef*%
%ADD42RoundRect,0.250000X0.475000X-0.250000X0.475000X0.250000X-0.475000X0.250000X-0.475000X-0.250000X0*%
%TD*%
%TA.AperFunction,SMDPad,CuDef*%
%ADD43RoundRect,0.250000X0.450000X-0.262500X0.450000X0.262500X-0.450000X0.262500X-0.450000X-0.262500X0*%
%TD*%
%TA.AperFunction,SMDPad,CuDef*%
%ADD44R,3.249000X1.450000*%
%TD*%
%TA.AperFunction,ComponentPad*%
%ADD45FreePoly0,0.000000*%
%TD*%
%TA.AperFunction,ComponentPad*%
%ADD46FreePoly1,180.000000*%
%TD*%
%TA.AperFunction,SMDPad,CuDef*%
%ADD47RoundRect,0.100000X0.225000X0.100000X-0.225000X0.100000X-0.225000X-0.100000X0.225000X-0.100000X0*%
%TD*%
%TA.AperFunction,SMDPad,CuDef*%
%ADD48R,0.600000X1.500000*%
%TD*%
%TA.AperFunction,SMDPad,CuDef*%
%ADD49RoundRect,0.250000X0.650000X0.350000X-0.650000X0.350000X-0.650000X-0.350000X0.650000X-0.350000X0*%
%TD*%
%TA.AperFunction,SMDPad,CuDef*%
%ADD50RoundRect,0.250000X-0.088388X0.548008X-0.548008X0.088388X0.088388X-0.548008X0.548008X-0.088388X0*%
%TD*%
%TA.AperFunction,ViaPad*%
%ADD51C,0.500000*%
%TD*%
%TA.AperFunction,Conductor*%
%ADD52C,0.400000*%
%TD*%
%TA.AperFunction,Conductor*%
%ADD53C,0.860506*%
%TD*%
%TA.AperFunction,Conductor*%
%ADD54C,0.500000*%
%TD*%
%TA.AperFunction,Conductor*%
%ADD55C,0.600000*%
%TD*%
%TA.AperFunction,Conductor*%
%ADD56C,0.200000*%
%TD*%
%TA.AperFunction,Conductor*%
%ADD57C,0.800000*%
%TD*%
%TA.AperFunction,Conductor*%
%ADD58C,0.300000*%
%TD*%
G04 APERTURE END LIST*
D10*
%TA.AperFunction,EtchedComponent*%
%TO.C,NT1*%
G36*
X141524800Y-93387800D02*
G01*
X141024800Y-93387800D01*
X141024800Y-92387800D01*
X141524800Y-92387800D01*
X141524800Y-93387800D01*
G37*
%TD.AperFunction*%
%TD*%
D11*
%TO.P,C2,1*%
%TO.N,Net-(C12-Pad2)*%
X152260000Y-79654400D03*
%TO.P,C2,2*%
%TO.N,RX*%
X153810000Y-79654400D03*
%TD*%
%TO.P,C32,1*%
%TO.N,+3V3*%
X156090000Y-87141000D03*
%TO.P,C32,2*%
%TO.N,GNDS*%
X157640000Y-87141000D03*
%TD*%
D12*
%TO.P,L12,1,1*%
%TO.N,GNDS*%
X163482000Y-99515500D03*
%TO.P,L12,2,2*%
%TO.N,/RFSWITCH/RX{slash}TX_2*%
X163482000Y-97465500D03*
%TD*%
D13*
%TO.P,R7,1*%
%TO.N,+3V3*%
X127150000Y-82700000D03*
%TO.P,R7,2*%
%TO.N,Net-(D1-A1)*%
X127150000Y-81050000D03*
%TD*%
D14*
%TO.P,U9,1,RF1*%
%TO.N,TX*%
X161592000Y-95838000D03*
%TO.P,U9,2,GND*%
%TO.N,GNDS*%
X160942000Y-95838000D03*
%TO.P,U9,3,RF2*%
%TO.N,Net-(U9-RF2)*%
X160292000Y-95838000D03*
%TO.P,U9,4,CTRL*%
%TO.N,GPIO1*%
X160292000Y-93938000D03*
%TO.P,U9,5,RFC*%
%TO.N,Net-(U9-RFC)*%
X160942000Y-93938000D03*
%TO.P,U9,6,#CTRL*%
%TO.N,+3V3*%
X161592000Y-93938000D03*
%TD*%
D15*
%TO.P,C34,1*%
%TO.N,Net-(FL1-IN)*%
X153703000Y-87128000D03*
%TO.P,C34,2*%
%TO.N,Net-(C34-Pad2)*%
X153703000Y-88678000D03*
%TD*%
%TO.P,C19,1*%
%TO.N,VDD_RF*%
X142900000Y-89825000D03*
%TO.P,C19,2*%
%TO.N,GNDS*%
X142900000Y-91375000D03*
%TD*%
D16*
%TO.P,C1,1*%
%TO.N,+5V*%
X134917200Y-102050800D03*
%TO.P,C1,2*%
%TO.N,GND*%
X133017200Y-102050800D03*
%TD*%
D12*
%TO.P,L5,1*%
%TO.N,Net-(C7-Pad1)*%
X150147000Y-97610500D03*
%TO.P,L5,2*%
%TO.N,Net-(C9-Pad1)*%
X150147000Y-95560500D03*
%TD*%
D17*
%TO.P,R22,1*%
%TO.N,Net-(D2-K)*%
X132240000Y-81109000D03*
%TO.P,R22,2*%
%TO.N,GND*%
X132240000Y-82759000D03*
%TD*%
D18*
%TO.P,NT1,1,1*%
%TO.N,GNDS*%
X141274800Y-92387800D03*
%TO.P,NT1,2,2*%
%TO.N,GND*%
X141274800Y-93387800D03*
%TD*%
D19*
%TO.P,R3,1*%
%TO.N,/#RTS*%
X134780000Y-95396000D03*
%TO.P,R3,2*%
%TO.N,Net-(J1-Pad4)*%
X133130000Y-95396000D03*
%TD*%
D20*
%TO.P,D1,1,A1*%
%TO.N,Net-(D1-A1)*%
X127768000Y-79376700D03*
%TO.P,D1,2,K1*%
%TO.N,/P1.6*%
X127768000Y-77576700D03*
%TO.P,D1,3,A2*%
X128718000Y-77576700D03*
%TO.P,D1,4,K2*%
%TO.N,Net-(D1-K2)*%
X128718000Y-79376700D03*
%TD*%
D21*
%TO.P,D2,1,K*%
%TO.N,Net-(D2-K)*%
X132243000Y-79329200D03*
%TO.P,D2,2,A*%
%TO.N,/P1.4*%
X132243000Y-77579200D03*
%TD*%
D22*
%TO.P,U2,1,P2.7/C2D*%
%TO.N,/C2D*%
X137991000Y-82405000D03*
%TO.P,U2,2,XTAL4*%
%TO.N,Net-(U2-XTAL4)*%
X138491000Y-82405000D03*
%TO.P,U2,3,XTAL3*%
%TO.N,Net-(U2-XTAL3)*%
X138991000Y-82405000D03*
%TO.P,U2,4,P1.6*%
%TO.N,/P1.6*%
X139491000Y-82405000D03*
%TO.P,U2,5,P1.5*%
%TO.N,/P1.5*%
X139991000Y-82405000D03*
%TO.P,U2,6,P1.4*%
%TO.N,/P1.4*%
X140491000Y-82405000D03*
%TO.P,U2,7,XOUT*%
%TO.N,Net-(U2-XOUT)*%
X140991000Y-82405000D03*
%TO.P,U2,8,XIN*%
%TO.N,Net-(U2-XIN)*%
X141491000Y-82405000D03*
%TO.P,U2,9,GND_RF*%
%TO.N,GNDS*%
X141991000Y-82405000D03*
%TO.P,U2,10,GPIO2*%
%TO.N,GPIO2*%
X142491000Y-82405000D03*
D23*
%TO.P,U2,11,GPIO3*%
%TO.N,unconnected-(U2-GPIO3-Pad11)*%
X143191000Y-83105000D03*
%TO.P,U2,12,RXP*%
%TO.N,Net-(U2-RXP)*%
X143191000Y-83605000D03*
%TO.P,U2,13,RXN*%
%TO.N,Net-(U2-RXN)*%
X143191000Y-84105000D03*
%TO.P,U2,14,GND_RF*%
%TO.N,GNDS*%
X143191000Y-84605000D03*
%TO.P,U2,15,GND_RF*%
X143191000Y-85105000D03*
%TO.P,U2,16,TX*%
%TO.N,Net-(U2-TX)*%
X143191000Y-85605000D03*
%TO.P,U2,17,GND_RF*%
%TO.N,GNDS*%
X143191000Y-86105000D03*
%TO.P,U2,18,VDD_RF*%
%TO.N,VDD_RF*%
X143191000Y-86605000D03*
D22*
%TO.P,U2,19,TXRAMP*%
%TO.N,unconnected-(U2-TXRAMP-Pad19)*%
X142491000Y-87305000D03*
%TO.P,U2,20,VDD_RF*%
%TO.N,VDD_RF*%
X141991000Y-87305000D03*
%TO.P,U2,21,GPIO0*%
%TO.N,GPIO0*%
X141491000Y-87305000D03*
%TO.P,U2,22,GPIO1*%
%TO.N,GPIO1*%
X140991000Y-87305000D03*
%TO.P,U2,23,#IRQ*%
%TO.N,Net-(U2-#IRQ)*%
X140491000Y-87305000D03*
%TO.P,U2,24,P0.6/CNVSTR*%
%TO.N,unconnected-(U2-P0.6{slash}CNVSTR-Pad24)*%
X139991000Y-87305000D03*
%TO.P,U2,25,P0.5/RX*%
%TO.N,/RX_u*%
X139491000Y-87305000D03*
%TO.P,U2,26,P0.4/TX*%
%TO.N,/TX_u*%
X138991000Y-87305000D03*
%TO.P,U2,27,P0.3/XTAL2*%
%TO.N,/#RTS*%
X138491000Y-87305000D03*
%TO.P,U2,28,P0.2/XTAL1*%
%TO.N,/#CTS*%
X137991000Y-87305000D03*
D23*
%TO.P,U2,29,P0.1/AGND*%
%TO.N,Net-(U2-#IRQ)*%
X137291000Y-86605000D03*
%TO.P,U2,30,P0.0/VREF*%
%TO.N,unconnected-(U2-P0.0{slash}VREF-Pad30)*%
X137291000Y-86105000D03*
%TO.P,U2,31,GND_MCU*%
%TO.N,GND*%
X137291000Y-85605000D03*
%TO.P,U2,32,NC*%
%TO.N,unconnected-(U2-NC-Pad32)*%
X137291000Y-85105000D03*
%TO.P,U2,33,VDD_MCU*%
%TO.N,+3V3*%
X137291000Y-84605000D03*
%TO.P,U2,34,NC*%
%TO.N,unconnected-(U2-NC-Pad34)*%
X137291000Y-84105000D03*
%TO.P,U2,35,NC*%
%TO.N,unconnected-(U2-NC-Pad35)*%
X137291000Y-83605000D03*
%TO.P,U2,36,#RST/C2CK*%
%TO.N,/#RST_C2CK*%
X137291000Y-83105000D03*
D24*
%TO.P,U2,37,GND_RF*%
%TO.N,GNDS*%
X142041000Y-83305000D03*
X140841000Y-83305000D03*
X139641000Y-83305000D03*
X138441000Y-83305000D03*
X142041000Y-84855000D03*
X140841000Y-84855000D03*
D25*
X140241000Y-84855000D03*
D24*
X139641000Y-84855000D03*
X138441000Y-84855000D03*
X142041000Y-86405000D03*
X140841000Y-86405000D03*
X139641000Y-86405000D03*
X138441000Y-86405000D03*
%TD*%
D26*
%TO.P,C13,1*%
%TO.N,Net-(U2-RXP)*%
X147378400Y-81794600D03*
%TO.P,C13,2*%
%TO.N,GNDS*%
X147378400Y-80244600D03*
%TD*%
D27*
%TO.P,L16,1,1*%
%TO.N,+3V3*%
X155824500Y-90570000D03*
%TO.P,L16,2,2*%
%TO.N,Net-(C34-Pad2)*%
X153774500Y-90570000D03*
%TD*%
D26*
%TO.P,C26,1*%
%TO.N,Net-(U7-RF1)*%
X163482000Y-87040000D03*
%TO.P,C26,2*%
%TO.N,/RFSWITCH/RX{slash}TX_1*%
X163482000Y-85490000D03*
%TD*%
D28*
%TO.P,C21,1,1*%
%TO.N,VDD_RF*%
X139400000Y-91300000D03*
D29*
%TO.P,C21,2,2*%
%TO.N,GND*%
X138050000Y-91300000D03*
D28*
%TO.P,C21,3,3*%
%TO.N,+3V3*%
X136700000Y-91300000D03*
%TD*%
D19*
%TO.P,R1,1*%
%TO.N,/RX_u*%
X134716000Y-99206000D03*
%TO.P,R1,2*%
%TO.N,Net-(J1-Pad2)*%
X133066000Y-99206000D03*
%TD*%
D30*
%TO.P,C11,1*%
%TO.N,Net-(U2-TX)*%
X148836992Y-86338992D03*
%TO.P,C11,2*%
%TO.N,Net-(C11-Pad2)*%
X149933008Y-87435008D03*
%TD*%
D27*
%TO.P,L3,1*%
%TO.N,Net-(C4-Pad2)*%
X155951500Y-98698000D03*
%TO.P,L3,2*%
%TO.N,Net-(C7-Pad1)*%
X153901500Y-98698000D03*
%TD*%
D16*
%TO.P,C18,1*%
%TO.N,+3V3*%
X134935000Y-90017600D03*
%TO.P,C18,2*%
%TO.N,GND*%
X133035000Y-90017600D03*
%TD*%
D31*
%TO.P,C20,1*%
%TO.N,VDD_RF*%
X146300000Y-89700000D03*
%TO.P,C20,2*%
%TO.N,GNDS*%
X146300000Y-91600000D03*
%TD*%
D15*
%TO.P,C15,1*%
%TO.N,VDD_RF*%
X144500000Y-89825000D03*
%TO.P,C15,2*%
%TO.N,GNDS*%
X144500000Y-91375000D03*
%TD*%
D12*
%TO.P,L13,1,1*%
%TO.N,Net-(U9-RFC)*%
X158173400Y-93125000D03*
%TO.P,L13,2,2*%
%TO.N,Net-(U7-RFC)*%
X158173400Y-91075000D03*
%TD*%
D32*
%TO.P,J1,1*%
%TO.N,+5V*%
X130534000Y-100546000D03*
%TO.P,J1,2*%
%TO.N,Net-(J1-Pad2)*%
X130534000Y-99296000D03*
%TO.P,J1,3*%
%TO.N,Net-(J1-Pad3)*%
X130534000Y-98046000D03*
%TO.P,J1,4*%
%TO.N,Net-(J1-Pad4)*%
X130534000Y-96796000D03*
%TO.P,J1,5*%
%TO.N,Net-(J1-Pad5)*%
X130534000Y-95546000D03*
%TO.P,J1,6*%
%TO.N,GND*%
X130534000Y-94296000D03*
D33*
%TO.P,J1,MP*%
X127334000Y-102396000D03*
X127334000Y-92446000D03*
%TD*%
D17*
%TO.P,R6,1*%
%TO.N,Net-(D1-K2)*%
X128750000Y-81045000D03*
%TO.P,R6,2*%
%TO.N,GND*%
X128750000Y-82695000D03*
%TD*%
D11*
%TO.P,C33,1*%
%TO.N,+3V3*%
X156090000Y-88792000D03*
%TO.P,C33,2*%
%TO.N,GNDS*%
X157640000Y-88792000D03*
%TD*%
D21*
%TO.P,D3,1,K*%
%TO.N,Net-(D3-K)*%
X130243000Y-79329200D03*
%TO.P,D3,2,A*%
%TO.N,/P1.5*%
X130243000Y-77579200D03*
%TD*%
D19*
%TO.P,R2,1*%
%TO.N,/TX_u*%
X134780000Y-97301000D03*
%TO.P,R2,2*%
%TO.N,Net-(J1-Pad3)*%
X133130000Y-97301000D03*
%TD*%
D34*
%TO.P,L10,1*%
%TO.N,Net-(U2-RXP)*%
X145625800Y-81950000D03*
%TO.P,L10,2*%
%TO.N,Net-(U2-RXN)*%
X145625800Y-84000000D03*
%TD*%
D35*
%TO.P,U1,1,GND*%
%TO.N,GND*%
X142414000Y-101702000D03*
%TO.P,U1,2,VO*%
%TO.N,+3V3*%
X140114000Y-101702000D03*
D36*
X140114000Y-95402000D03*
D35*
%TO.P,U1,3,VI*%
%TO.N,+5V*%
X137814000Y-101702000D03*
%TD*%
D37*
%TO.P,U3,1*%
%TO.N,Net-(R5-Pad2)*%
X154211000Y-94380000D03*
%TO.P,U3,2*%
%TO.N,Net-(C31-Pad1)*%
X153711000Y-94380000D03*
%TO.P,U3,3*%
%TO.N,GNDS*%
X153211000Y-94380000D03*
%TO.P,U3,4*%
X152711000Y-94380000D03*
%TO.P,U3,5*%
X152711000Y-92380000D03*
%TO.P,U3,6*%
%TO.N,GPIO2*%
X153211000Y-92380000D03*
%TO.P,U3,7*%
%TO.N,Net-(C34-Pad2)*%
X153711000Y-92380000D03*
%TO.P,U3,8*%
%TO.N,GNDS*%
X154211000Y-92380000D03*
D38*
%TO.P,U3,9*%
X152861000Y-93380000D03*
X153461000Y-93380000D03*
D39*
X153461000Y-93380000D03*
D38*
X154061000Y-93380000D03*
%TD*%
D40*
%TO.P,Y1,1,1*%
%TO.N,Net-(U2-XTAL4)*%
X134266600Y-79521000D03*
%TO.P,Y1,2,2*%
%TO.N,Net-(U2-XTAL3)*%
X136766600Y-79521000D03*
%TD*%
D41*
%TO.P,C9,1*%
%TO.N,Net-(C9-Pad1)*%
X150147000Y-93745000D03*
%TO.P,C9,2*%
%TO.N,GNDS*%
X148597000Y-93745000D03*
%TD*%
%TO.P,C14,1*%
%TO.N,+3V3*%
X134653000Y-86379000D03*
%TO.P,C14,2*%
%TO.N,GND*%
X133103000Y-86379000D03*
%TD*%
%TO.P,C4,1*%
%TO.N,TX*%
X159545000Y-98698000D03*
%TO.P,C4,2*%
%TO.N,Net-(C4-Pad2)*%
X157995000Y-98698000D03*
%TD*%
D15*
%TO.P,C7,1*%
%TO.N,Net-(C7-Pad1)*%
X152052000Y-98698000D03*
%TO.P,C7,2*%
%TO.N,GNDS*%
X152052000Y-100248000D03*
%TD*%
D42*
%TO.P,C3,1*%
%TO.N,+3V3*%
X144838400Y-95177600D03*
%TO.P,C3,2*%
%TO.N,GND*%
X144838400Y-93277600D03*
%TD*%
D19*
%TO.P,R9,1*%
%TO.N,+3V3*%
X134784600Y-92075000D03*
%TO.P,R9,2*%
%TO.N,Net-(J1-Pad5)*%
X133134600Y-92075000D03*
%TD*%
D11*
%TO.P,C31,1*%
%TO.N,Net-(C31-Pad1)*%
X156471000Y-95904000D03*
%TO.P,C31,2*%
%TO.N,Net-(U9-RF2)*%
X158021000Y-95904000D03*
%TD*%
D34*
%TO.P,L11,1,1*%
%TO.N,GNDS*%
X163482000Y-80354500D03*
%TO.P,L11,2,2*%
%TO.N,/RFSWITCH/RX{slash}TX_1*%
X163482000Y-82404500D03*
%TD*%
D17*
%TO.P,R23,1*%
%TO.N,Net-(D3-K)*%
X130300000Y-81046000D03*
%TO.P,R23,2*%
%TO.N,GND*%
X130300000Y-82696000D03*
%TD*%
D43*
%TO.P,R8,1*%
%TO.N,VDD_RF*%
X148300000Y-90562500D03*
%TO.P,R8,2*%
%TO.N,Net-(L8-Pad1)*%
X148300000Y-88737500D03*
%TD*%
D13*
%TO.P,R20,1*%
%TO.N,+3V3*%
X134907000Y-84093000D03*
%TO.P,R20,2*%
%TO.N,/#RST_C2CK*%
X134907000Y-82443000D03*
%TD*%
D15*
%TO.P,C17,1*%
%TO.N,VDD_RF*%
X141300000Y-90050000D03*
%TO.P,C17,2*%
%TO.N,GNDS*%
X141300000Y-91600000D03*
%TD*%
%TO.P,C27,1*%
%TO.N,Net-(U7-RF2)*%
X163482000Y-92475000D03*
%TO.P,C27,2*%
%TO.N,/RFSWITCH/RX{slash}TX_2*%
X163482000Y-94025000D03*
%TD*%
D44*
%TO.P,J3,1*%
%TO.N,/RFSWITCH/RX{slash}TX_1*%
X167241000Y-82421000D03*
D45*
%TO.P,J3,2*%
%TO.N,GNDS*%
X167368000Y-85296000D03*
D46*
X167368000Y-79546000D03*
%TD*%
D12*
%TO.P,L7,1*%
%TO.N,Net-(C9-Pad1)*%
X150250000Y-91925000D03*
%TO.P,L7,2*%
%TO.N,Net-(C11-Pad2)*%
X150250000Y-89875000D03*
%TD*%
D41*
%TO.P,C16,1*%
%TO.N,+3V3*%
X134653000Y-88157000D03*
%TO.P,C16,2*%
%TO.N,GND*%
X133103000Y-88157000D03*
%TD*%
D26*
%TO.P,C28,1*%
%TO.N,Net-(U7-RFC)*%
X159926000Y-89236800D03*
%TO.P,C28,2*%
%TO.N,GNDS*%
X159926000Y-87686800D03*
%TD*%
D47*
%TO.P,U7,1,RF1*%
%TO.N,Net-(U7-RF1)*%
X163863000Y-89173000D03*
%TO.P,U7,2,GND*%
%TO.N,GNDS*%
X163863000Y-89823000D03*
%TO.P,U7,3,RF2*%
%TO.N,Net-(U7-RF2)*%
X163863000Y-90473000D03*
%TO.P,U7,4,CTRL*%
%TO.N,GPIO0*%
X161963000Y-90473000D03*
%TO.P,U7,5,RFC*%
%TO.N,Net-(U7-RFC)*%
X161963000Y-89823000D03*
%TO.P,U7,6,#CTRL*%
%TO.N,+3V3*%
X161963000Y-89173000D03*
%TD*%
D48*
%TO.P,FL1,1,GND*%
%TO.N,GNDS*%
X154973000Y-85107000D03*
%TO.P,FL1,2,IN*%
%TO.N,Net-(FL1-IN)*%
X153703000Y-85107000D03*
%TO.P,FL1,3,GND*%
%TO.N,GNDS*%
X152433000Y-85107000D03*
%TO.P,FL1,4,GND*%
X152433000Y-81807000D03*
%TO.P,FL1,5,OUT*%
%TO.N,RX*%
X153703000Y-81807000D03*
%TO.P,FL1,6,GND*%
%TO.N,GNDS*%
X154973000Y-81807000D03*
%TD*%
D19*
%TO.P,R4,1*%
%TO.N,/#CTS*%
X134780000Y-93618000D03*
%TO.P,R4,2*%
%TO.N,Net-(J1-Pad5)*%
X133130000Y-93618000D03*
%TD*%
D44*
%TO.P,J4,1*%
%TO.N,/RFSWITCH/RX{slash}TX_2*%
X167241000Y-97421000D03*
D45*
%TO.P,J4,2*%
%TO.N,GNDS*%
X167368000Y-100296000D03*
D46*
X167368000Y-94546000D03*
%TD*%
D49*
%TO.P,Y2,1,1*%
%TO.N,Net-(U2-XIN)*%
X144501600Y-79755800D03*
%TO.P,Y2,2,2*%
%TO.N,GND*%
X140501600Y-79755800D03*
%TO.P,Y2,3,3*%
%TO.N,Net-(U2-XOUT)*%
X140501600Y-77355800D03*
%TO.P,Y2,4,4*%
%TO.N,GND*%
X144501600Y-77355800D03*
%TD*%
D11*
%TO.P,C12,1*%
%TO.N,Net-(U2-RXN)*%
X148102000Y-83839000D03*
%TO.P,C12,2*%
%TO.N,Net-(C12-Pad2)*%
X149652000Y-83839000D03*
%TD*%
D31*
%TO.P,C5,1*%
%TO.N,+3V3*%
X144838400Y-97047000D03*
%TO.P,C5,2*%
%TO.N,GND*%
X144838400Y-98947000D03*
%TD*%
D12*
%TO.P,L8,1*%
%TO.N,Net-(L8-Pad1)*%
X146300000Y-88050000D03*
%TO.P,L8,2*%
%TO.N,Net-(U2-TX)*%
X146300000Y-86000000D03*
%TD*%
D50*
%TO.P,L9,1*%
%TO.N,Net-(C12-Pad2)*%
X150871784Y-80066216D03*
%TO.P,L9,2*%
%TO.N,Net-(U2-RXP)*%
X149422216Y-81515784D03*
%TD*%
D26*
%TO.P,C29,1*%
%TO.N,Net-(U9-RFC)*%
X160027600Y-92575000D03*
%TO.P,C29,2*%
%TO.N,GNDS*%
X160027600Y-91025000D03*
%TD*%
D17*
%TO.P,R5,1*%
%TO.N,+3V3*%
X155735000Y-92476000D03*
%TO.P,R5,2*%
%TO.N,Net-(R5-Pad2)*%
X155735000Y-94126000D03*
%TD*%
D51*
%TO.N,GND*%
X137693000Y-77271000D03*
X133883400Y-89204800D03*
X135161000Y-103778000D03*
X138844000Y-99587000D03*
X143154400Y-94107000D03*
X135669000Y-76092000D03*
X138282596Y-92826553D03*
X129600000Y-101575000D03*
X141511000Y-99587000D03*
X129525000Y-93475000D03*
X142654000Y-103651000D03*
X126355398Y-76970186D03*
X138844000Y-97428000D03*
X126516010Y-78676106D03*
X126575000Y-93766667D03*
X131706600Y-87522000D03*
X134550000Y-77150000D03*
X141511000Y-98240800D03*
X141384000Y-103651000D03*
X130589000Y-102635000D03*
X131859000Y-86252000D03*
X142908000Y-97809000D03*
X126500000Y-91750000D03*
X131732000Y-102635000D03*
X134526000Y-76092000D03*
X126525000Y-79775000D03*
X136050000Y-85617000D03*
X131986000Y-76092000D03*
X140114000Y-103651000D03*
X129768600Y-90449400D03*
X138844000Y-98444000D03*
X138767800Y-77692200D03*
X143797000Y-103651000D03*
X129573000Y-102635000D03*
X140795200Y-93416088D03*
X137574000Y-99587000D03*
X142908000Y-99587000D03*
X131808200Y-85255800D03*
X133891000Y-103778000D03*
X131750000Y-90500000D03*
X127025000Y-101050000D03*
X132621000Y-103778000D03*
X133256000Y-76092000D03*
X131622800Y-91821000D03*
X126575000Y-94825000D03*
X133510000Y-83343000D03*
X127025000Y-99991665D03*
X127600000Y-93791667D03*
X130657600Y-93395800D03*
X131757400Y-89020600D03*
X133460101Y-85097000D03*
X141427200Y-97180400D03*
X142341600Y-92913200D03*
X140368000Y-75965000D03*
X136682596Y-89808000D03*
X144940000Y-100730000D03*
X127076200Y-90525600D03*
X143839332Y-75965000D03*
X145575000Y-75965000D03*
X136100800Y-103244600D03*
X142103666Y-75965000D03*
X142933400Y-96412000D03*
X135669000Y-77108000D03*
X145067000Y-103651000D03*
%TO.N,+3V3*%
X142240000Y-95177600D03*
X155735000Y-92602000D03*
%TO.N,/P1.5*%
X131147800Y-78505000D03*
X138469835Y-79300335D03*
%TO.N,/P1.4*%
X133200000Y-77641700D03*
X140384951Y-80961708D03*
%TO.N,/C2D*%
X133637000Y-81196980D03*
%TO.N,GNDS*%
X157259000Y-94507000D03*
X165006000Y-99968000D03*
X152433000Y-97047000D03*
X150528000Y-99841000D03*
X158675000Y-80925000D03*
X153830000Y-78124000D03*
X144650000Y-88050000D03*
X171229000Y-87268000D03*
X168054000Y-87268000D03*
X169641500Y-87268000D03*
X161293000Y-85671000D03*
X151798000Y-83458000D03*
X147950000Y-87400000D03*
X165768000Y-103651000D03*
X161958000Y-79394000D03*
X160688000Y-76346000D03*
X146800000Y-76900000D03*
X161323000Y-99206000D03*
X164879000Y-94126000D03*
X163482000Y-76346000D03*
X150782000Y-78124000D03*
X164879000Y-85109000D03*
X166268400Y-92710000D03*
X168555200Y-77771000D03*
X154846000Y-88157000D03*
X170017400Y-77771000D03*
X170441000Y-102221000D03*
X153576000Y-97174000D03*
X153449000Y-76092000D03*
X164879000Y-83966000D03*
X167800000Y-92729000D03*
X155227000Y-76092000D03*
X169057000Y-102221000D03*
X146950000Y-100450000D03*
X153195000Y-103651000D03*
X157809332Y-97174000D03*
X157005000Y-89935000D03*
X158529000Y-102254000D03*
X153449000Y-100095000D03*
X154719000Y-103651000D03*
X162212000Y-87776000D03*
X169451000Y-92729000D03*
X161831000Y-80537000D03*
X161831000Y-81807000D03*
X174404000Y-92729000D03*
X174404000Y-87268000D03*
X164879000Y-79902000D03*
X151544000Y-93745000D03*
X156878000Y-82188000D03*
X164879000Y-78886000D03*
X158743000Y-79721000D03*
X165260000Y-91332000D03*
X162300000Y-84400000D03*
X160307000Y-100095000D03*
X159545000Y-103143000D03*
X166657000Y-102889000D03*
X165006000Y-76346000D03*
X173209000Y-102221000D03*
X171825000Y-102221000D03*
X171479600Y-77771000D03*
X174404000Y-77771000D03*
X149512000Y-99079000D03*
X148496000Y-98317000D03*
X163228000Y-101111000D03*
X160275000Y-80800000D03*
X158867665Y-97174000D03*
X148496000Y-96031000D03*
X162571264Y-93271000D03*
X161350000Y-84700000D03*
X149512000Y-85109000D03*
X164879000Y-95523000D03*
X156750999Y-97174000D03*
X151925000Y-76092000D03*
X148623000Y-78505000D03*
X160942000Y-103651000D03*
X161993000Y-83021000D03*
X162085000Y-98444000D03*
X158783000Y-88030000D03*
X156751000Y-100095000D03*
X162593000Y-103651000D03*
X151544000Y-95142000D03*
X153449000Y-101365000D03*
X147861000Y-102381000D03*
X161958000Y-100222000D03*
X167673000Y-102221000D03*
X152052000Y-101873000D03*
X152500000Y-86500000D03*
X164244000Y-103651000D03*
X164879000Y-81045000D03*
X155633400Y-80029000D03*
X150528000Y-85871000D03*
X164879000Y-92729000D03*
X165260000Y-88792000D03*
X174593000Y-102221000D03*
X151798000Y-103651000D03*
X159926000Y-97174000D03*
X157259000Y-102254000D03*
X148496000Y-97174000D03*
X164879000Y-87649000D03*
X146972000Y-97555000D03*
X164498000Y-101111000D03*
X154634333Y-97174000D03*
X155692666Y-97174000D03*
X152433000Y-78124000D03*
X154846000Y-89173000D03*
X146972000Y-94634000D03*
X152052000Y-87522000D03*
X157894000Y-100095000D03*
X151544000Y-92475000D03*
X156116000Y-103270000D03*
X148496000Y-95015000D03*
X154592000Y-100095000D03*
X156075000Y-85875000D03*
X146972000Y-93491000D03*
X148750000Y-92602000D03*
X155735000Y-100095000D03*
X172941800Y-77771000D03*
X150655000Y-101365000D03*
X150528000Y-76092000D03*
X166043000Y-77071000D03*
X162343000Y-86271000D03*
X171102000Y-92729000D03*
X163482000Y-78886000D03*
X151671000Y-96158000D03*
X156878000Y-81045000D03*
X162293000Y-94871000D03*
X161350000Y-92050000D03*
X166573200Y-87350600D03*
X149512000Y-79394000D03*
X172816500Y-87268000D03*
X164879000Y-86252000D03*
X167093000Y-77771000D03*
X162212000Y-76346000D03*
X146972000Y-98952000D03*
X155227000Y-78505000D03*
X159037000Y-100095000D03*
X149766000Y-103016000D03*
X172753000Y-92729000D03*
X151290000Y-86633000D03*
X158783000Y-86760000D03*
X148724600Y-80130600D03*
X144200000Y-82000000D03*
X165260000Y-90062000D03*
X146972000Y-96158000D03*
X147353000Y-78505000D03*
X154846000Y-87141000D03*
X152052000Y-88665000D03*
%TO.N,/#RST_C2CK*%
X131249400Y-81959400D03*
%TO.N,GPIO1*%
X141300200Y-88823800D03*
X159479000Y-93938000D03*
%TO.N,/#RTS*%
X137701000Y-88595200D03*
X135923000Y-95269000D03*
%TO.N,GPIO0*%
X142188308Y-88871707D03*
X162000000Y-91000000D03*
%TO.N,GPIO2*%
X152052000Y-89832989D03*
X143106835Y-82300000D03*
%TO.N,+5V*%
X128455400Y-100349000D03*
%TO.N,/#CTS*%
X136859006Y-87791237D03*
X135450000Y-93618000D03*
%TO.N,/RX_u*%
X137447000Y-97174000D03*
X139809570Y-88576017D03*
%TO.N,/TX_u*%
X136093200Y-97231200D03*
X138750969Y-88578322D03*
%TO.N,/P1.6*%
X138034353Y-80199980D03*
X128244600Y-77622400D03*
%TD*%
D52*
%TO.N,+3V3*%
X161963000Y-89173000D02*
X162008786Y-89173000D01*
D53*
X140114000Y-101619000D02*
X140114000Y-98190000D01*
D54*
X155735000Y-92476000D02*
X155735000Y-90697000D01*
D55*
X135445800Y-90792600D02*
X134935000Y-90281800D01*
D54*
X161131616Y-88410119D02*
X161131616Y-87596893D01*
X134784600Y-92075000D02*
X134911600Y-92202000D01*
D56*
X136395600Y-84605000D02*
X135883600Y-84093000D01*
D54*
X155735000Y-90697000D02*
X155862000Y-90570000D01*
D55*
X136700000Y-91792000D02*
X136700000Y-92750000D01*
D57*
X140276600Y-95177600D02*
X144838400Y-95177600D01*
D58*
X155735000Y-92476000D02*
X155735000Y-92602000D01*
D55*
X134935000Y-90281800D02*
X134935000Y-90017600D01*
X135161000Y-90443000D02*
X135161000Y-88665000D01*
X135445800Y-91300000D02*
X135445800Y-90792600D01*
D54*
X156612206Y-86618794D02*
X156090000Y-87141000D01*
X159038435Y-85871000D02*
X158417540Y-85871000D01*
D55*
X134907000Y-86125000D02*
X134907000Y-84093000D01*
X134955000Y-91790800D02*
X135445800Y-91300000D01*
D54*
X161577000Y-89173000D02*
X161422893Y-89018893D01*
X156090000Y-88792000D02*
X156090000Y-87141000D01*
D55*
X135445800Y-91300000D02*
X135857000Y-91300000D01*
D56*
X135883600Y-84093000D02*
X134907000Y-84093000D01*
D55*
X135161000Y-88665000D02*
X134653000Y-88157000D01*
D53*
X140114000Y-98190000D02*
X140114000Y-95015000D01*
D52*
X162715893Y-89465893D02*
X162753554Y-89503554D01*
D58*
X127150000Y-82700000D02*
X128543000Y-84093000D01*
D55*
X134653000Y-88157000D02*
X134653000Y-86379000D01*
X134955000Y-92202000D02*
X134955000Y-91790800D01*
D54*
X155862000Y-90570000D02*
X155862000Y-89020000D01*
D57*
X144838400Y-95177600D02*
X144838400Y-97047000D01*
D55*
X136700000Y-91300000D02*
X135857000Y-91300000D01*
X138965000Y-95015000D02*
X140114000Y-95015000D01*
D54*
X134911600Y-92202000D02*
X134955000Y-92202000D01*
D52*
X161771764Y-93192450D02*
X161771764Y-93758236D01*
X161771764Y-93758236D02*
X161592000Y-93938000D01*
D54*
X160799646Y-86795446D02*
X160466883Y-86462683D01*
D52*
X162900000Y-89857110D02*
X162900000Y-90468659D01*
D54*
X140114000Y-95015000D02*
X140276600Y-95177600D01*
X155862000Y-89020000D02*
X156090000Y-88792000D01*
D55*
X134653000Y-86379000D02*
X134907000Y-86125000D01*
D58*
X128543000Y-84093000D02*
X134907000Y-84093000D01*
D54*
X161963000Y-89173000D02*
X161577000Y-89173000D01*
D55*
X136700000Y-92750000D02*
X138965000Y-95015000D01*
D56*
X137291000Y-84605000D02*
X136395600Y-84605000D01*
D52*
X162715893Y-89465893D02*
G75*
G03*
X162008786Y-89173022I-706993J-706907D01*
G01*
X162753554Y-89503554D02*
G75*
G02*
X162899995Y-89857110I-353554J-353546D01*
G01*
D54*
X161422893Y-89018893D02*
G75*
G02*
X161131643Y-88410116I730607J723593D01*
G01*
X156612206Y-86618794D02*
G75*
G02*
X158417540Y-85871020I1805294J-1805306D01*
G01*
D52*
X162064657Y-92485343D02*
G75*
G03*
X162899974Y-90468659I-2016657J2016643D01*
G01*
X162064657Y-92485343D02*
G75*
G03*
X161771810Y-93192450I707143J-707057D01*
G01*
D54*
X161131616Y-87596893D02*
G75*
G03*
X160799642Y-86795450I-1133416J-7D01*
G01*
X160466883Y-86462683D02*
G75*
G03*
X159038435Y-85870967I-1428483J-1428417D01*
G01*
D53*
%TO.N,Net-(C7-Pad1)*%
X153864000Y-98698000D02*
X152052000Y-98698000D01*
X151490522Y-98698000D02*
X152052000Y-98698000D01*
X150147000Y-97961400D02*
X150297814Y-98112214D01*
X150297814Y-98112214D02*
X150454457Y-98268854D01*
X150147000Y-97648000D02*
X150147000Y-97961400D01*
X151490522Y-98698000D02*
G75*
G02*
X150454453Y-98268858I-22J1465200D01*
G01*
%TO.N,Net-(C9-Pad1)*%
X150147000Y-93745000D02*
X150147000Y-91933000D01*
X150147000Y-95523000D02*
X150147000Y-93745000D01*
D54*
%TO.N,Net-(U2-TX)*%
X146464000Y-85600000D02*
X144292500Y-85600000D01*
D58*
X145494500Y-85697500D02*
X145402000Y-85605000D01*
X146464000Y-85697500D02*
X145494500Y-85697500D01*
D53*
X148781287Y-86283287D02*
X148836992Y-86338992D01*
D58*
X145402000Y-85605000D02*
X144394600Y-85605000D01*
D53*
X146464000Y-85697500D02*
X147367073Y-85697500D01*
D58*
X146464000Y-85697500D02*
X146163500Y-85697500D01*
X146163500Y-85697500D02*
X146083000Y-85617000D01*
X143191000Y-85605000D02*
X144394600Y-85605000D01*
D53*
X148781287Y-86283287D02*
G75*
G03*
X147367073Y-85697519I-1414187J-1414213D01*
G01*
%TO.N,Net-(C11-Pad2)*%
X150147000Y-87649000D02*
X149933008Y-87435008D01*
X150147000Y-89808000D02*
X150147000Y-87649000D01*
D58*
%TO.N,Net-(U2-RXN)*%
X143191000Y-84105000D02*
X144596600Y-84105000D01*
X144596600Y-84105000D02*
X144602200Y-84099400D01*
D54*
X144602800Y-84100000D02*
X144602200Y-84099400D01*
X145280450Y-84100000D02*
X144602800Y-84100000D01*
D53*
X148102000Y-83839000D02*
X145786800Y-83839000D01*
%TO.N,Net-(U2-RXP)*%
X147378400Y-81794600D02*
X147285500Y-81887500D01*
D58*
X143191000Y-83605000D02*
X144045156Y-83605000D01*
D53*
X147380101Y-81796301D02*
X147378400Y-81794600D01*
D58*
X144045156Y-83605000D02*
X144389062Y-83261094D01*
D53*
X147378400Y-81794600D02*
X145964134Y-81794600D01*
X149040099Y-81796301D02*
X147380101Y-81796301D01*
D54*
X145866494Y-81783506D02*
X144400000Y-83250000D01*
D56*
%TO.N,/P1.5*%
X139991000Y-81780766D02*
X139991000Y-82405000D01*
X138920200Y-79750700D02*
X138469835Y-79300335D01*
X138920200Y-80486200D02*
X138920200Y-79750700D01*
X139991000Y-81780766D02*
X139991000Y-81557000D01*
X139991000Y-81557000D02*
X138920200Y-80486200D01*
X131147800Y-78505000D02*
X131147800Y-78484000D01*
X131147800Y-78484000D02*
X130243000Y-77579200D01*
%TO.N,/P1.4*%
X140491000Y-82405000D02*
X140491000Y-81067757D01*
X140491000Y-81067757D02*
X140384951Y-80961708D01*
X133200000Y-77641700D02*
X132290800Y-77641700D01*
%TO.N,/C2D*%
X133637000Y-81196980D02*
X135128974Y-81196980D01*
X135128974Y-81196980D02*
X135640497Y-81708503D01*
X137991000Y-81991000D02*
X137991000Y-82405000D01*
X137708503Y-81708503D02*
X137991000Y-81991000D01*
X135640497Y-81708503D02*
X137708503Y-81708503D01*
D52*
%TO.N,Net-(U7-RF1)*%
X163863000Y-87421000D02*
X163482000Y-87040000D01*
X163863000Y-89173000D02*
X163863000Y-87421000D01*
%TO.N,Net-(U7-RF2)*%
X163750000Y-90473000D02*
X163750000Y-92094000D01*
D53*
%TO.N,Net-(U7-RFC)*%
X159222316Y-89236800D02*
X159926000Y-89236800D01*
D52*
X161963000Y-89823000D02*
X160901600Y-89823000D01*
D53*
X159926000Y-89236800D02*
X160108293Y-89236800D01*
X158173400Y-91075000D02*
X158173400Y-90476847D01*
X160461833Y-89383233D02*
X160901600Y-89823000D01*
X158550810Y-89565700D02*
X158637426Y-89479084D01*
X159222316Y-89236800D02*
G75*
G03*
X158637423Y-89479081I-16J-827100D01*
G01*
X160108293Y-89236800D02*
G75*
G02*
X160461836Y-89383230I7J-500000D01*
G01*
X158173400Y-90476847D02*
G75*
G02*
X158550777Y-89565667I1288600J47D01*
G01*
D52*
%TO.N,Net-(U9-RFC)*%
X160942000Y-93938000D02*
X160942000Y-93152200D01*
D53*
X160320700Y-92750000D02*
X158679300Y-92750000D01*
X160942000Y-93152200D02*
X160364800Y-92575000D01*
%TO.N,Net-(U9-RF2)*%
X158117000Y-95900000D02*
X160000000Y-95900000D01*
D58*
%TO.N,Net-(R5-Pad2)*%
X154211000Y-94380000D02*
X155481000Y-94380000D01*
X155481000Y-94380000D02*
X155735000Y-94126000D01*
D53*
%TO.N,Net-(FL1-IN)*%
X153703000Y-87128000D02*
X153703000Y-85107000D01*
D58*
%TO.N,GNDS*%
X143191000Y-85105000D02*
X142291000Y-85105000D01*
D56*
X157173880Y-94421880D02*
X157259000Y-94507000D01*
D58*
X143191000Y-84605000D02*
X142291000Y-84605000D01*
D54*
X141350000Y-91550000D02*
X147600000Y-91550000D01*
X141300000Y-92362600D02*
X141274800Y-92387800D01*
D58*
X141991000Y-83255000D02*
X142041000Y-83305000D01*
D54*
X141300000Y-91600000D02*
X141300000Y-92362600D01*
D58*
X142291000Y-84605000D02*
X142041000Y-84855000D01*
D54*
X141300000Y-91600000D02*
X141350000Y-91550000D01*
X147600000Y-91550000D02*
X147650000Y-91600000D01*
D58*
X141991000Y-82405000D02*
X141991000Y-83255000D01*
X142291000Y-85105000D02*
X142041000Y-84855000D01*
D52*
%TO.N,Net-(D2-K)*%
X132290800Y-79266700D02*
X132290800Y-81058200D01*
X132290800Y-81058200D02*
X132240000Y-81109000D01*
D53*
%TO.N,Net-(C12-Pad2)*%
X150796701Y-80039699D02*
X151182000Y-79654400D01*
X151182000Y-79654400D02*
X152260000Y-79654400D01*
X149689800Y-83839000D02*
X150248887Y-83279913D01*
X150985200Y-80278998D02*
X150796701Y-80090499D01*
X150985200Y-81502295D02*
X150985200Y-80278998D01*
X150796701Y-80090499D02*
X150796701Y-80039699D01*
X149652000Y-83839000D02*
X149689800Y-83839000D01*
X150248887Y-83279913D02*
G75*
G03*
X150985206Y-81502295I-1777587J1777613D01*
G01*
D52*
%TO.N,Net-(D3-K)*%
X130233400Y-79266700D02*
X130233400Y-81020600D01*
X130233400Y-81020600D02*
X130208000Y-81046000D01*
D56*
%TO.N,/#RST_C2CK*%
X135569000Y-83105000D02*
X134907000Y-82443000D01*
D58*
X134410480Y-81946480D02*
X134907000Y-82443000D01*
X131262320Y-81946480D02*
X131249400Y-81959400D01*
D56*
X137291000Y-83105000D02*
X135569000Y-83105000D01*
D58*
X134410480Y-81946480D02*
X131262320Y-81946480D01*
D56*
%TO.N,Net-(U2-XTAL4)*%
X135097500Y-80778300D02*
X135275300Y-80778300D01*
X134566000Y-79648000D02*
X134566000Y-80069000D01*
X138491000Y-81835000D02*
X137955000Y-81299000D01*
X134266600Y-79521000D02*
X134266600Y-79947400D01*
X137955000Y-81299000D02*
X135796000Y-81299000D01*
X138491000Y-82405000D02*
X138491000Y-81835000D01*
X135275300Y-80778300D02*
X135796000Y-81299000D01*
X134266600Y-79947400D02*
X135097500Y-80778300D01*
%TO.N,Net-(U2-XTAL3)*%
X138991000Y-81769994D02*
X138991000Y-82405000D01*
X138120486Y-80899480D02*
X138991000Y-81769994D01*
X136766600Y-79521000D02*
X136766600Y-80059800D01*
X136766600Y-80059800D02*
X137606280Y-80899480D01*
X137606280Y-80899480D02*
X138120486Y-80899480D01*
D52*
%TO.N,GPIO1*%
X159479000Y-93938000D02*
X160292000Y-93938000D01*
D56*
X140991000Y-88514600D02*
X141300200Y-88823800D01*
X140991000Y-87305000D02*
X140991000Y-88514600D01*
%TO.N,Net-(U2-XOUT)*%
X141701500Y-80600500D02*
X140991000Y-81311000D01*
X140501600Y-77432000D02*
X140768200Y-77432000D01*
X140991000Y-81311000D02*
X140991000Y-82405000D01*
X140768200Y-77432000D02*
X141701500Y-78365300D01*
X141701500Y-78365300D02*
X141701500Y-80600500D01*
D53*
%TO.N,Net-(C4-Pad2)*%
X157995000Y-98698000D02*
X155989000Y-98698000D01*
D56*
%TO.N,/#RTS*%
X138491000Y-87305000D02*
X138491000Y-87805200D01*
D52*
X134780000Y-95396000D02*
X135796000Y-95396000D01*
X135796000Y-95396000D02*
X135923000Y-95269000D01*
D56*
X138491000Y-87805200D02*
X137701000Y-88595200D01*
%TO.N,Net-(U2-XIN)*%
X143035006Y-79832000D02*
X144501600Y-79832000D01*
X141491000Y-81376006D02*
X143035006Y-79832000D01*
X141491000Y-82405000D02*
X141491000Y-81376006D01*
%TO.N,GPIO0*%
X141491000Y-87305000D02*
X141491000Y-88174399D01*
D58*
X162000000Y-91000000D02*
X162000000Y-90510000D01*
D56*
X141491000Y-88174399D02*
X142188308Y-88871707D01*
D58*
X162000000Y-90510000D02*
X161963000Y-90473000D01*
D56*
%TO.N,Net-(U2-#IRQ)*%
X136713000Y-86605000D02*
X137291000Y-86605000D01*
X140509570Y-88286067D02*
X140509570Y-88865967D01*
X140509570Y-88865967D02*
X140071535Y-89304002D01*
X136159495Y-88127003D02*
X136159495Y-87158505D01*
X140071535Y-89304002D02*
X137336494Y-89304002D01*
X136159495Y-87158505D02*
X136713000Y-86605000D01*
X137336494Y-89304002D02*
X136159495Y-88127003D01*
X140491000Y-88267497D02*
X140509570Y-88286067D01*
X140491000Y-87305000D02*
X140491000Y-88267497D01*
D53*
%TO.N,/RFSWITCH/RX{slash}TX_1*%
X166372000Y-82442000D02*
X166393000Y-82421000D01*
X163482000Y-82442000D02*
X166372000Y-82442000D01*
X163482000Y-85490000D02*
X163482000Y-82442000D01*
%TO.N,/RFSWITCH/RX{slash}TX_2*%
X163616000Y-97421000D02*
X163609000Y-97428000D01*
X163482000Y-97428000D02*
X163482000Y-94025000D01*
X166393000Y-97421000D02*
X163616000Y-97421000D01*
D55*
%TO.N,VDD_RF*%
X143289000Y-90049000D02*
X143543000Y-89795000D01*
D56*
X142950000Y-89825000D02*
X142950000Y-87936000D01*
D55*
X140381000Y-90049000D02*
X141638000Y-90049000D01*
X139733000Y-90697000D02*
X140381000Y-90049000D01*
D56*
X142276792Y-88031000D02*
X142855000Y-88031000D01*
X143543000Y-89795000D02*
X143530000Y-89795000D01*
X141991000Y-87745208D02*
X142276792Y-88031000D01*
D55*
X143543000Y-89795000D02*
X147532500Y-89795000D01*
D54*
X146438000Y-89782000D02*
X146464000Y-89756000D01*
D55*
X141638000Y-90049000D02*
X143289000Y-90049000D01*
D56*
X142855000Y-88031000D02*
X142950000Y-87936000D01*
X142950000Y-87936000D02*
X143191000Y-87695000D01*
X141991000Y-87305000D02*
X141991000Y-87745208D01*
D55*
X147532500Y-89795000D02*
X148300000Y-90562500D01*
X139733000Y-91459000D02*
X139733000Y-90697000D01*
D56*
X143191000Y-87695000D02*
X143191000Y-86605000D01*
D53*
%TO.N,Net-(C31-Pad1)*%
X153736860Y-95464660D02*
X153711000Y-95438800D01*
D58*
X153711000Y-94380000D02*
X153711000Y-95438800D01*
D53*
X156471000Y-95904000D02*
X154797520Y-95904000D01*
X153736860Y-95464660D02*
G75*
G03*
X154797520Y-95903986I1060640J1060660D01*
G01*
D58*
%TO.N,GPIO2*%
X152052000Y-90697000D02*
X153211000Y-91856000D01*
X153211000Y-91856000D02*
X153211000Y-92380000D01*
D56*
X142596000Y-82300000D02*
X142491000Y-82405000D01*
X143106835Y-82300000D02*
X142596000Y-82300000D01*
D58*
X152052000Y-89832989D02*
X152052000Y-90697000D01*
D53*
%TO.N,Net-(C34-Pad2)*%
X153737000Y-90570000D02*
X153737000Y-88712000D01*
D58*
X153711000Y-92380000D02*
X153711000Y-90596000D01*
X153711000Y-90596000D02*
X153737000Y-90570000D01*
D53*
X153737000Y-88712000D02*
X153703000Y-88678000D01*
D55*
%TO.N,+5V*%
X130534000Y-100546000D02*
X128652400Y-100546000D01*
X128652400Y-100546000D02*
X128455400Y-100349000D01*
X130534000Y-100546000D02*
X133260000Y-100546000D01*
X134917200Y-102050800D02*
X137396200Y-102050800D01*
X133412400Y-100546000D02*
X134917200Y-102050800D01*
D53*
%TO.N,RX*%
X153810000Y-80840000D02*
X153703000Y-80947000D01*
D55*
X153703000Y-80947000D02*
X153703000Y-81807000D01*
D53*
X153810000Y-79654400D02*
X153810000Y-80840000D01*
D52*
%TO.N,/#CTS*%
X134780000Y-93618000D02*
X135450000Y-93618000D01*
D56*
X137345243Y-87305000D02*
X137991000Y-87305000D01*
X136859006Y-87791237D02*
X137345243Y-87305000D01*
D54*
%TO.N,Net-(J1-Pad2)*%
X132976000Y-99296000D02*
X133066000Y-99206000D01*
X130534000Y-99296000D02*
X132976000Y-99296000D01*
%TO.N,Net-(J1-Pad3)*%
X130534000Y-98046000D02*
X132385000Y-98046000D01*
X132385000Y-98046000D02*
X133130000Y-97301000D01*
D52*
%TO.N,Net-(J1-Pad4)*%
X131730000Y-96796000D02*
X133130000Y-95396000D01*
X130534000Y-96796000D02*
X131730000Y-96796000D01*
D53*
%TO.N,TX*%
X161772253Y-95970322D02*
X161772253Y-95838000D01*
X160580792Y-98319208D02*
X160953829Y-97946171D01*
X159545000Y-98698000D02*
G75*
G03*
X160557218Y-98319180I-3200J1550300D01*
G01*
X161772253Y-95970322D02*
G75*
G02*
X160953814Y-97946156I-2794253J22D01*
G01*
D52*
%TO.N,Net-(J1-Pad5)*%
X133130000Y-93618000D02*
X131202000Y-95546000D01*
X133130000Y-92206600D02*
X133134600Y-92202000D01*
X131202000Y-95546000D02*
X130534000Y-95546000D01*
X133130000Y-93618000D02*
X133130000Y-92206600D01*
X133134600Y-92202000D02*
X133134600Y-92075000D01*
%TO.N,/RX_u*%
X135415000Y-99206000D02*
X137447000Y-97174000D01*
D56*
X139491000Y-87305000D02*
X139491000Y-88257447D01*
X139491000Y-88257447D02*
X139809570Y-88576017D01*
D52*
X134716000Y-99206000D02*
X135415000Y-99206000D01*
D54*
%TO.N,/TX_u*%
X136023400Y-97301000D02*
X136093200Y-97231200D01*
D56*
X138991000Y-87305000D02*
X138991000Y-88338291D01*
D54*
X134780000Y-97301000D02*
X136023400Y-97301000D01*
D56*
X138991000Y-88338291D02*
X138750969Y-88578322D01*
%TO.N,/P1.6*%
X138034353Y-80199980D02*
X139491000Y-81656627D01*
X139491000Y-81656627D02*
X139491000Y-82405000D01*
D54*
%TO.N,Net-(L8-Pad1)*%
X148187500Y-88737500D02*
X147750000Y-88300000D01*
X148300000Y-88737500D02*
X148187500Y-88737500D01*
X147750000Y-88300000D02*
X145800000Y-88300000D01*
D58*
%TO.N,Net-(D1-K2)*%
X128618000Y-79411400D02*
X128618000Y-80913000D01*
X128618000Y-80913000D02*
X128750000Y-81045000D01*
%TO.N,Net-(D1-A1)*%
X127668000Y-79411400D02*
X127668000Y-80532000D01*
X127668000Y-80532000D02*
X127150000Y-81050000D01*
%TD*%
%TA.AperFunction,Conductor*%
%TO.N,GND*%
G36*
X126446011Y-75324410D02*
G01*
X126454440Y-75323226D01*
X126470736Y-75333409D01*
X126488795Y-75339982D01*
X126494288Y-75348126D01*
X126500268Y-75351863D01*
X126513145Y-75376082D01*
X126552432Y-75496992D01*
X126552434Y-75496997D01*
X126552438Y-75497007D01*
X126659654Y-75707428D01*
X126659657Y-75707433D01*
X126798483Y-75898510D01*
X126798487Y-75898514D01*
X126798492Y-75898520D01*
X126965479Y-76065507D01*
X126965485Y-76065512D01*
X126965490Y-76065517D01*
X127156567Y-76204343D01*
X127156571Y-76204345D01*
X127366992Y-76311561D01*
X127367001Y-76311564D01*
X127367008Y-76311568D01*
X127591632Y-76384553D01*
X127591638Y-76384553D01*
X127591642Y-76384555D01*
X127779924Y-76414375D01*
X127824908Y-76421500D01*
X127824913Y-76421500D01*
X128061087Y-76421500D01*
X128061092Y-76421500D01*
X128177730Y-76403026D01*
X128294357Y-76384555D01*
X128294359Y-76384554D01*
X128294368Y-76384553D01*
X128518992Y-76311568D01*
X128519001Y-76311563D01*
X128519007Y-76311561D01*
X128632635Y-76253663D01*
X128729433Y-76204343D01*
X128920510Y-76065517D01*
X129087517Y-75898510D01*
X129226343Y-75707433D01*
X129275663Y-75610635D01*
X129333561Y-75497007D01*
X129333565Y-75496997D01*
X129333568Y-75496992D01*
X129372853Y-75376085D01*
X129406121Y-75333504D01*
X129447985Y-75321500D01*
X136438015Y-75321500D01*
X136488795Y-75339982D01*
X136513146Y-75376084D01*
X136552432Y-75496992D01*
X136552434Y-75496997D01*
X136552438Y-75497007D01*
X136659654Y-75707428D01*
X136659657Y-75707433D01*
X136798483Y-75898510D01*
X136798487Y-75898514D01*
X136798492Y-75898520D01*
X136965479Y-76065507D01*
X136965485Y-76065512D01*
X136965490Y-76065517D01*
X137156567Y-76204343D01*
X137156571Y-76204345D01*
X137366992Y-76311561D01*
X137367001Y-76311564D01*
X137367008Y-76311568D01*
X137591632Y-76384553D01*
X137591638Y-76384553D01*
X137591642Y-76384555D01*
X137779924Y-76414375D01*
X137824908Y-76421500D01*
X137824913Y-76421500D01*
X138061087Y-76421500D01*
X138061092Y-76421500D01*
X138177730Y-76403026D01*
X138294357Y-76384555D01*
X138294359Y-76384554D01*
X138294368Y-76384553D01*
X138518992Y-76311568D01*
X138519001Y-76311563D01*
X138519007Y-76311561D01*
X138632635Y-76253663D01*
X138729433Y-76204343D01*
X138920510Y-76065517D01*
X139087517Y-75898510D01*
X139226343Y-75707433D01*
X139275663Y-75610635D01*
X139333561Y-75497007D01*
X139333565Y-75496997D01*
X139333568Y-75496992D01*
X139372853Y-75376085D01*
X139406121Y-75333504D01*
X139447985Y-75321500D01*
X145921156Y-75321500D01*
X145971936Y-75339982D01*
X145998956Y-75386782D01*
X145999352Y-75411740D01*
X145994500Y-75445495D01*
X145994500Y-80615500D01*
X145976018Y-80666280D01*
X145929218Y-80693300D01*
X145915500Y-80694500D01*
X145298150Y-80694500D01*
X145247370Y-80676018D01*
X145220350Y-80629218D01*
X145229734Y-80576000D01*
X145271130Y-80541264D01*
X145272059Y-80540933D01*
X145364478Y-80508595D01*
X145364479Y-80508593D01*
X145364482Y-80508593D01*
X145473750Y-80427950D01*
X145554393Y-80318682D01*
X145599246Y-80190499D01*
X145602100Y-80160066D01*
X145602100Y-79351534D01*
X145599246Y-79321101D01*
X145554393Y-79192918D01*
X145505337Y-79126449D01*
X145473750Y-79083649D01*
X145364482Y-79003007D01*
X145364479Y-79003005D01*
X145236299Y-78958154D01*
X145236296Y-78958153D01*
X145217878Y-78956426D01*
X145205866Y-78955300D01*
X143797334Y-78955300D01*
X143786201Y-78956344D01*
X143766903Y-78958153D01*
X143766900Y-78958154D01*
X143638720Y-79003005D01*
X143638717Y-79003007D01*
X143529449Y-79083649D01*
X143448807Y-79192917D01*
X143448805Y-79192920D01*
X143403954Y-79321100D01*
X143403953Y-79321103D01*
X143403507Y-79325864D01*
X143401338Y-79349003D01*
X143401100Y-79351538D01*
X143401100Y-79452500D01*
X143382618Y-79503280D01*
X143335818Y-79530300D01*
X143322100Y-79531500D01*
X142995443Y-79531500D01*
X142919017Y-79551978D01*
X142919015Y-79551979D01*
X142850492Y-79591541D01*
X142136861Y-80305173D01*
X142087885Y-80328011D01*
X142035687Y-80314025D01*
X142004692Y-80269759D01*
X142002000Y-80249312D01*
X142002000Y-78325739D01*
X142002000Y-78325738D01*
X141995619Y-78301925D01*
X141981522Y-78249312D01*
X141941960Y-78180789D01*
X141621249Y-77860078D01*
X141598412Y-77811103D01*
X141599425Y-77795345D01*
X141598797Y-77795287D01*
X141602100Y-77760062D01*
X141602100Y-76951538D01*
X141599246Y-76921103D01*
X141599246Y-76921101D01*
X141554393Y-76792918D01*
X141533266Y-76764292D01*
X141473750Y-76683649D01*
X141364482Y-76603007D01*
X141364479Y-76603005D01*
X141236299Y-76558154D01*
X141236296Y-76558153D01*
X141217878Y-76556426D01*
X141205866Y-76555300D01*
X139797334Y-76555300D01*
X139786201Y-76556344D01*
X139766903Y-76558153D01*
X139766900Y-76558154D01*
X139638720Y-76603005D01*
X139638717Y-76603007D01*
X139529449Y-76683649D01*
X139448807Y-76792917D01*
X139448805Y-76792920D01*
X139403954Y-76921100D01*
X139403953Y-76921103D01*
X139401100Y-76951538D01*
X139401100Y-77760061D01*
X139403953Y-77790496D01*
X139403954Y-77790499D01*
X139448805Y-77918679D01*
X139448807Y-77918682D01*
X139529449Y-78027950D01*
X139638717Y-78108592D01*
X139638720Y-78108594D01*
X139679210Y-78122761D01*
X139766901Y-78153446D01*
X139797334Y-78156300D01*
X141034807Y-78156300D01*
X141085587Y-78174782D01*
X141090668Y-78179439D01*
X141377861Y-78466632D01*
X141400699Y-78515608D01*
X141401000Y-78522493D01*
X141401000Y-80443306D01*
X141382518Y-80494086D01*
X141377861Y-80499167D01*
X140961617Y-80915411D01*
X140912641Y-80938249D01*
X140860443Y-80924263D01*
X140829448Y-80879997D01*
X140828912Y-80877998D01*
X140804750Y-80787822D01*
X140802368Y-80783697D01*
X140745438Y-80685092D01*
X140661566Y-80601220D01*
X140558838Y-80541909D01*
X140558836Y-80541908D01*
X140444260Y-80511208D01*
X140325642Y-80511208D01*
X140325641Y-80511208D01*
X140211065Y-80541908D01*
X140211063Y-80541909D01*
X140108335Y-80601220D01*
X140024463Y-80685092D01*
X139965152Y-80787820D01*
X139965151Y-80787822D01*
X139933289Y-80906735D01*
X139902293Y-80951001D01*
X139850095Y-80964987D01*
X139801120Y-80942149D01*
X139243839Y-80384868D01*
X139221001Y-80335892D01*
X139220700Y-80329007D01*
X139220700Y-79711139D01*
X139220700Y-79711138D01*
X139200221Y-79634711D01*
X139160660Y-79566189D01*
X139104711Y-79510240D01*
X138943474Y-79349003D01*
X138920636Y-79300027D01*
X138920335Y-79293142D01*
X138920335Y-79241028D01*
X138920335Y-79241026D01*
X138889634Y-79126449D01*
X138830324Y-79023722D01*
X138830323Y-79023721D01*
X138830322Y-79023719D01*
X138746450Y-78939847D01*
X138643722Y-78880536D01*
X138643720Y-78880535D01*
X138529144Y-78849835D01*
X138410526Y-78849835D01*
X138410525Y-78849835D01*
X138295949Y-78880535D01*
X138295947Y-78880536D01*
X138193219Y-78939847D01*
X138109347Y-79023719D01*
X138050036Y-79126447D01*
X138050035Y-79126449D01*
X138019335Y-79241025D01*
X138019335Y-79359644D01*
X138050035Y-79474220D01*
X138050036Y-79474222D01*
X138109347Y-79576950D01*
X138147016Y-79614619D01*
X138169854Y-79663595D01*
X138155868Y-79715793D01*
X138111602Y-79746788D01*
X138091155Y-79749480D01*
X137975043Y-79749480D01*
X137860467Y-79780180D01*
X137860465Y-79780181D01*
X137757737Y-79839492D01*
X137673866Y-79923363D01*
X137614516Y-80026160D01*
X137573119Y-80060895D01*
X137519080Y-80060894D01*
X137477684Y-80026158D01*
X137467100Y-79986659D01*
X137467100Y-78601252D01*
X137455467Y-78542769D01*
X137455074Y-78542181D01*
X137411152Y-78476448D01*
X137344831Y-78432133D01*
X137344830Y-78432132D01*
X137344831Y-78432132D01*
X137286348Y-78420500D01*
X136246852Y-78420500D01*
X136188369Y-78432132D01*
X136122048Y-78476448D01*
X136077732Y-78542769D01*
X136066100Y-78601252D01*
X136066100Y-80440747D01*
X136077732Y-80499230D01*
X136090241Y-80517950D01*
X136122048Y-80565552D01*
X136188369Y-80609867D01*
X136188368Y-80609867D01*
X136246852Y-80621500D01*
X136870607Y-80621500D01*
X136921387Y-80639982D01*
X136926468Y-80644639D01*
X137145468Y-80863639D01*
X137168306Y-80912615D01*
X137154320Y-80964813D01*
X137110054Y-80995808D01*
X137089607Y-80998500D01*
X135953193Y-80998500D01*
X135902413Y-80980018D01*
X135897332Y-80975361D01*
X135459813Y-80537841D01*
X135438891Y-80525762D01*
X135391288Y-80498278D01*
X135391289Y-80498278D01*
X135314862Y-80477800D01*
X135254693Y-80477800D01*
X135203913Y-80459318D01*
X135198832Y-80454661D01*
X134990239Y-80246068D01*
X134967401Y-80197092D01*
X134967100Y-80190207D01*
X134967100Y-78601252D01*
X134955467Y-78542769D01*
X134955074Y-78542181D01*
X134911152Y-78476448D01*
X134844831Y-78432133D01*
X134844830Y-78432132D01*
X134844831Y-78432132D01*
X134786348Y-78420500D01*
X133746852Y-78420500D01*
X133688369Y-78432132D01*
X133622048Y-78476448D01*
X133577732Y-78542769D01*
X133566100Y-78601252D01*
X133566100Y-80440747D01*
X133577732Y-80499230D01*
X133592914Y-80521951D01*
X133622047Y-80565551D01*
X133622049Y-80565553D01*
X133676287Y-80601795D01*
X133708240Y-80645375D01*
X133704705Y-80699298D01*
X133667336Y-80738333D01*
X133632396Y-80746480D01*
X133577690Y-80746480D01*
X133463114Y-80777180D01*
X133463112Y-80777181D01*
X133360384Y-80836492D01*
X133276512Y-80920364D01*
X133217201Y-81023092D01*
X133217200Y-81023094D01*
X133186500Y-81137670D01*
X133186500Y-81256289D01*
X133217200Y-81370865D01*
X133217201Y-81370867D01*
X133278755Y-81477480D01*
X133288139Y-81530698D01*
X133261119Y-81577497D01*
X133210339Y-81595980D01*
X132947184Y-81595980D01*
X132896404Y-81577498D01*
X132869384Y-81530698D01*
X132876795Y-81481114D01*
X132900645Y-81434305D01*
X132900646Y-81434304D01*
X132915500Y-81340519D01*
X132915499Y-80877482D01*
X132900646Y-80783696D01*
X132843050Y-80670658D01*
X132843049Y-80670657D01*
X132843048Y-80670655D01*
X132753345Y-80580952D01*
X132753342Y-80580950D01*
X132734432Y-80571314D01*
X132697579Y-80531791D01*
X132691300Y-80500926D01*
X132691300Y-80045373D01*
X132709782Y-79994593D01*
X132723381Y-79981815D01*
X132793711Y-79929911D01*
X132793711Y-79929909D01*
X132793713Y-79929909D01*
X132872114Y-79823678D01*
X132872114Y-79823677D01*
X132872116Y-79823675D01*
X132915725Y-79699049D01*
X132918500Y-79669456D01*
X132918500Y-78988944D01*
X132915725Y-78959351D01*
X132872116Y-78834725D01*
X132872113Y-78834721D01*
X132872114Y-78834721D01*
X132793711Y-78728488D01*
X132687478Y-78650085D01*
X132636217Y-78632148D01*
X132562849Y-78606475D01*
X132562847Y-78606474D01*
X132562845Y-78606474D01*
X132544352Y-78604740D01*
X132533256Y-78603700D01*
X131952744Y-78603700D01*
X131942599Y-78604651D01*
X131923154Y-78606474D01*
X131923151Y-78606475D01*
X131798525Y-78650084D01*
X131798524Y-78650084D01*
X131798523Y-78650085D01*
X131701947Y-78721360D01*
X131650114Y-78736643D01*
X131600584Y-78715032D01*
X131576533Y-78666640D01*
X131578727Y-78637353D01*
X131598300Y-78564309D01*
X131598300Y-78445691D01*
X131567599Y-78331114D01*
X131563019Y-78323182D01*
X131525569Y-78258316D01*
X131508289Y-78228387D01*
X131508288Y-78228386D01*
X131508287Y-78228384D01*
X131424415Y-78144512D01*
X131321687Y-78085201D01*
X131321685Y-78085200D01*
X131207109Y-78054500D01*
X131175993Y-78054500D01*
X131125213Y-78036018D01*
X131120132Y-78031361D01*
X130941639Y-77852868D01*
X130918801Y-77803892D01*
X130918500Y-77797007D01*
X130918500Y-77238947D01*
X131567500Y-77238947D01*
X131567500Y-77919452D01*
X131570274Y-77949045D01*
X131570274Y-77949047D01*
X131570275Y-77949049D01*
X131613884Y-78073675D01*
X131613886Y-78073678D01*
X131613885Y-78073678D01*
X131692288Y-78179911D01*
X131798521Y-78258314D01*
X131798523Y-78258314D01*
X131798525Y-78258316D01*
X131923151Y-78301925D01*
X131952744Y-78304700D01*
X131952748Y-78304700D01*
X132533252Y-78304700D01*
X132533256Y-78304700D01*
X132562849Y-78301925D01*
X132687475Y-78258316D01*
X132793711Y-78179911D01*
X132872116Y-78073675D01*
X132872118Y-78073667D01*
X132874729Y-78068730D01*
X132914797Y-78032470D01*
X132968798Y-78030448D01*
X132984076Y-78037228D01*
X133026110Y-78061497D01*
X133026112Y-78061498D01*
X133026114Y-78061499D01*
X133140691Y-78092200D01*
X133140693Y-78092200D01*
X133259307Y-78092200D01*
X133259309Y-78092200D01*
X133373886Y-78061499D01*
X133476613Y-78002189D01*
X133560489Y-77918313D01*
X133619799Y-77815586D01*
X133650500Y-77701009D01*
X133650500Y-77582391D01*
X133619799Y-77467814D01*
X133560489Y-77365087D01*
X133560488Y-77365086D01*
X133560487Y-77365084D01*
X133476615Y-77281212D01*
X133373887Y-77221901D01*
X133373885Y-77221900D01*
X133259309Y-77191200D01*
X133140691Y-77191200D01*
X133140690Y-77191200D01*
X133026114Y-77221900D01*
X133026112Y-77221901D01*
X133020499Y-77225142D01*
X132967280Y-77234521D01*
X132920483Y-77207497D01*
X132906441Y-77182819D01*
X132872116Y-77084725D01*
X132867335Y-77078247D01*
X132793711Y-76978488D01*
X132687478Y-76900085D01*
X132671962Y-76894655D01*
X132562849Y-76856475D01*
X132562847Y-76856474D01*
X132562845Y-76856474D01*
X132544352Y-76854740D01*
X132533256Y-76853700D01*
X131952744Y-76853700D01*
X131942599Y-76854651D01*
X131923154Y-76856474D01*
X131923151Y-76856475D01*
X131798521Y-76900085D01*
X131692288Y-76978488D01*
X131613885Y-77084721D01*
X131570275Y-77209351D01*
X131570274Y-77209354D01*
X131567500Y-77238947D01*
X130918500Y-77238947D01*
X130917206Y-77225142D01*
X130915725Y-77209351D01*
X130872116Y-77084725D01*
X130872113Y-77084721D01*
X130872114Y-77084721D01*
X130793711Y-76978488D01*
X130687478Y-76900085D01*
X130671962Y-76894655D01*
X130562849Y-76856475D01*
X130562847Y-76856474D01*
X130562845Y-76856474D01*
X130544352Y-76854740D01*
X130533256Y-76853700D01*
X129952744Y-76853700D01*
X129942599Y-76854651D01*
X129923154Y-76856474D01*
X129923151Y-76856475D01*
X129798521Y-76900085D01*
X129692288Y-76978488D01*
X129613885Y-77084721D01*
X129570275Y-77209351D01*
X129570274Y-77209354D01*
X129567500Y-77238947D01*
X129567500Y-77919452D01*
X129570274Y-77949045D01*
X129570274Y-77949047D01*
X129570275Y-77949049D01*
X129613884Y-78073675D01*
X129613886Y-78073678D01*
X129613885Y-78073678D01*
X129692288Y-78179911D01*
X129798521Y-78258314D01*
X129798523Y-78258314D01*
X129798525Y-78258316D01*
X129923151Y-78301925D01*
X129952744Y-78304700D01*
X129952748Y-78304700D01*
X130510807Y-78304700D01*
X130527014Y-78310598D01*
X130544194Y-78312102D01*
X130558318Y-78321992D01*
X130561587Y-78323182D01*
X130566668Y-78327839D01*
X130674161Y-78435332D01*
X130696999Y-78484308D01*
X130697300Y-78491193D01*
X130697300Y-78542181D01*
X130678818Y-78592961D01*
X130632018Y-78619981D01*
X130592209Y-78616748D01*
X130562852Y-78606476D01*
X130562851Y-78606475D01*
X130562849Y-78606475D01*
X130562848Y-78606474D01*
X130562845Y-78606474D01*
X130544352Y-78604740D01*
X130533256Y-78603700D01*
X129952744Y-78603700D01*
X129942599Y-78604651D01*
X129923154Y-78606474D01*
X129923151Y-78606475D01*
X129798521Y-78650085D01*
X129692288Y-78728488D01*
X129613885Y-78834721D01*
X129570275Y-78959351D01*
X129570274Y-78959354D01*
X129567500Y-78988947D01*
X129567500Y-79669452D01*
X129570274Y-79699045D01*
X129570274Y-79699047D01*
X129570275Y-79699049D01*
X129613884Y-79823675D01*
X129613886Y-79823678D01*
X129613885Y-79823678D01*
X129692286Y-79929909D01*
X129692289Y-79929911D01*
X129798525Y-80008316D01*
X129798527Y-80008316D01*
X129800811Y-80010002D01*
X129830694Y-80055027D01*
X129832900Y-80073566D01*
X129832900Y-80445977D01*
X129814418Y-80496757D01*
X129789766Y-80516366D01*
X129786657Y-80517950D01*
X129786656Y-80517950D01*
X129696950Y-80607656D01*
X129696948Y-80607659D01*
X129639354Y-80720693D01*
X129639353Y-80720697D01*
X129624501Y-80814469D01*
X129624500Y-80814485D01*
X129624500Y-81277515D01*
X129625136Y-81281530D01*
X129639284Y-81370865D01*
X129639354Y-81371302D01*
X129639353Y-81371302D01*
X129696951Y-81484344D01*
X129786656Y-81574049D01*
X129786659Y-81574051D01*
X129899693Y-81631645D01*
X129899695Y-81631645D01*
X129899696Y-81631646D01*
X129993481Y-81646500D01*
X130606518Y-81646499D01*
X130700304Y-81631646D01*
X130771721Y-81595256D01*
X130825355Y-81588671D01*
X130870677Y-81618102D01*
X130886477Y-81669780D01*
X130876001Y-81705146D01*
X130829601Y-81785512D01*
X130829600Y-81785514D01*
X130798900Y-81900090D01*
X130798900Y-82018709D01*
X130829600Y-82133285D01*
X130829601Y-82133287D01*
X130888912Y-82236015D01*
X130972784Y-82319887D01*
X131069938Y-82375980D01*
X131075514Y-82379199D01*
X131190091Y-82409900D01*
X131190093Y-82409900D01*
X131308707Y-82409900D01*
X131308709Y-82409900D01*
X131423286Y-82379199D01*
X131526013Y-82319889D01*
X131526016Y-82319886D01*
X131530123Y-82316736D01*
X131530891Y-82317737D01*
X131574760Y-82297281D01*
X131581645Y-82296980D01*
X134152500Y-82296980D01*
X134203280Y-82315462D01*
X134230300Y-82362262D01*
X134231500Y-82375980D01*
X134231500Y-82674515D01*
X134231501Y-82674519D01*
X134243534Y-82750500D01*
X134246354Y-82768302D01*
X134246353Y-82768302D01*
X134303951Y-82881344D01*
X134393656Y-82971049D01*
X134393659Y-82971051D01*
X134506693Y-83028645D01*
X134506695Y-83028645D01*
X134506696Y-83028646D01*
X134600481Y-83043500D01*
X135049806Y-83043499D01*
X135100586Y-83061981D01*
X135105667Y-83066638D01*
X135328540Y-83289511D01*
X135384489Y-83345460D01*
X135453011Y-83385021D01*
X135529438Y-83405500D01*
X136591337Y-83405500D01*
X136642117Y-83423982D01*
X136669137Y-83470782D01*
X136668819Y-83499911D01*
X136665500Y-83516597D01*
X136665500Y-83693399D01*
X136680759Y-83770115D01*
X136680760Y-83770117D01*
X136683367Y-83774018D01*
X136708151Y-83811111D01*
X136720994Y-83863601D01*
X136708151Y-83898889D01*
X136680760Y-83939883D01*
X136680759Y-83939884D01*
X136665500Y-84016599D01*
X136665500Y-84193396D01*
X136668821Y-84210090D01*
X136668682Y-84210992D01*
X136669138Y-84211782D01*
X136664586Y-84237596D01*
X136660598Y-84263500D01*
X136659912Y-84264101D01*
X136659754Y-84265000D01*
X136639664Y-84281857D01*
X136619968Y-84299130D01*
X136618824Y-84299344D01*
X136618358Y-84299736D01*
X136591338Y-84304500D01*
X136552793Y-84304500D01*
X136502013Y-84286018D01*
X136496942Y-84281371D01*
X136068111Y-83852540D01*
X135999590Y-83812979D01*
X135999588Y-83812978D01*
X135923162Y-83792500D01*
X135628695Y-83792500D01*
X135577915Y-83774018D01*
X135558307Y-83749367D01*
X135510050Y-83654658D01*
X135510049Y-83654657D01*
X135510048Y-83654655D01*
X135420343Y-83564950D01*
X135420340Y-83564948D01*
X135307306Y-83507354D01*
X135307302Y-83507353D01*
X135213530Y-83492501D01*
X135213522Y-83492500D01*
X135213519Y-83492500D01*
X135213514Y-83492500D01*
X134600484Y-83492500D01*
X134524345Y-83504558D01*
X134506696Y-83507354D01*
X134488556Y-83516597D01*
X134393655Y-83564951D01*
X134303951Y-83654655D01*
X134292122Y-83677871D01*
X134284210Y-83693401D01*
X134281171Y-83699365D01*
X134241649Y-83736220D01*
X134210781Y-83742500D01*
X128720904Y-83742500D01*
X128670124Y-83724018D01*
X128665043Y-83719361D01*
X127848638Y-82902956D01*
X127825800Y-82853980D01*
X127825499Y-82847095D01*
X127825499Y-82468484D01*
X127825497Y-82468469D01*
X127810646Y-82374696D01*
X127753050Y-82261658D01*
X127753049Y-82261657D01*
X127753048Y-82261655D01*
X127663343Y-82171950D01*
X127663340Y-82171948D01*
X127550306Y-82114354D01*
X127550302Y-82114353D01*
X127456530Y-82099501D01*
X127456522Y-82099500D01*
X127456519Y-82099500D01*
X127456514Y-82099500D01*
X126843484Y-82099500D01*
X126767345Y-82111558D01*
X126749696Y-82114354D01*
X126712542Y-82133285D01*
X126636655Y-82171951D01*
X126546950Y-82261656D01*
X126546948Y-82261659D01*
X126489354Y-82374693D01*
X126489353Y-82374697D01*
X126474501Y-82468469D01*
X126474500Y-82468485D01*
X126474500Y-82931515D01*
X126489354Y-83025302D01*
X126489353Y-83025302D01*
X126546951Y-83138344D01*
X126636656Y-83228049D01*
X126636659Y-83228051D01*
X126749693Y-83285645D01*
X126749695Y-83285645D01*
X126749696Y-83285646D01*
X126843481Y-83300500D01*
X127222095Y-83300499D01*
X127272875Y-83318981D01*
X127277956Y-83323638D01*
X128327784Y-84373467D01*
X128327786Y-84373468D01*
X128327787Y-84373469D01*
X128370217Y-84397966D01*
X128407712Y-84419614D01*
X128496856Y-84443500D01*
X134210781Y-84443500D01*
X134261561Y-84461982D01*
X134281169Y-84486633D01*
X134296439Y-84516600D01*
X134303951Y-84531344D01*
X134383361Y-84610754D01*
X134406199Y-84659730D01*
X134406500Y-84666615D01*
X134406500Y-85634128D01*
X134388018Y-85684908D01*
X134341218Y-85711928D01*
X134339859Y-85712155D01*
X134294880Y-85719279D01*
X134294875Y-85719280D01*
X134174777Y-85780473D01*
X134079473Y-85875777D01*
X134018280Y-85995875D01*
X134018279Y-85995880D01*
X134002501Y-86095500D01*
X134002500Y-86095516D01*
X134002500Y-86662483D01*
X134002501Y-86662499D01*
X134018279Y-86762119D01*
X134018280Y-86762124D01*
X134018280Y-86762125D01*
X134018281Y-86762126D01*
X134079472Y-86882220D01*
X134129361Y-86932109D01*
X134152199Y-86981084D01*
X134152500Y-86987970D01*
X134152500Y-87548029D01*
X134134018Y-87598809D01*
X134129361Y-87603890D01*
X134079473Y-87653777D01*
X134018280Y-87773875D01*
X134018279Y-87773880D01*
X134002501Y-87873500D01*
X134002500Y-87873516D01*
X134002500Y-88440483D01*
X134002501Y-88440499D01*
X134018279Y-88540119D01*
X134018280Y-88540124D01*
X134079473Y-88660222D01*
X134174777Y-88755526D01*
X134174779Y-88755527D01*
X134174780Y-88755528D01*
X134294874Y-88816719D01*
X134394512Y-88832500D01*
X134581500Y-88832500D01*
X134600787Y-88839519D01*
X134621000Y-88843084D01*
X134625581Y-88848544D01*
X134632280Y-88850982D01*
X134642541Y-88868756D01*
X134655736Y-88884480D01*
X134657545Y-88894743D01*
X134659300Y-88897782D01*
X134660500Y-88911500D01*
X134660500Y-89018198D01*
X134642018Y-89068978D01*
X134604288Y-89091796D01*
X134604838Y-89093367D01*
X134600302Y-89094953D01*
X134600301Y-89094954D01*
X134564939Y-89107327D01*
X134472120Y-89139805D01*
X134472117Y-89139807D01*
X134362849Y-89220449D01*
X134282207Y-89329717D01*
X134282205Y-89329720D01*
X134237354Y-89457900D01*
X134237353Y-89457903D01*
X134235612Y-89476472D01*
X134234500Y-89488334D01*
X134234500Y-90546866D01*
X134234913Y-90551268D01*
X134237353Y-90577296D01*
X134237354Y-90577299D01*
X134282205Y-90705479D01*
X134282207Y-90705482D01*
X134362849Y-90814750D01*
X134429819Y-90864175D01*
X134467061Y-90891661D01*
X134472117Y-90895392D01*
X134472120Y-90895394D01*
X134512610Y-90909561D01*
X134600301Y-90940246D01*
X134630734Y-90943100D01*
X134855765Y-90943100D01*
X134871972Y-90948998D01*
X134889152Y-90950502D01*
X134903276Y-90960392D01*
X134906545Y-90961582D01*
X134911626Y-90966239D01*
X134922161Y-90976774D01*
X134944999Y-91025750D01*
X134945300Y-91032635D01*
X134945300Y-91059964D01*
X134926818Y-91110744D01*
X134922171Y-91115814D01*
X134781943Y-91256043D01*
X134661624Y-91376362D01*
X134612648Y-91399199D01*
X134605764Y-91399500D01*
X134553084Y-91399500D01*
X134476945Y-91411558D01*
X134459296Y-91414354D01*
X134403813Y-91442623D01*
X134346255Y-91471951D01*
X134256550Y-91561656D01*
X134256548Y-91561659D01*
X134198954Y-91674693D01*
X134198953Y-91674697D01*
X134184101Y-91768469D01*
X134184100Y-91768485D01*
X134184100Y-92381515D01*
X134198954Y-92475302D01*
X134198953Y-92475302D01*
X134256551Y-92588344D01*
X134346256Y-92678049D01*
X134346259Y-92678051D01*
X134459293Y-92735645D01*
X134459295Y-92735645D01*
X134459296Y-92735646D01*
X134553081Y-92750500D01*
X135016118Y-92750499D01*
X135109904Y-92735646D01*
X135222942Y-92678050D01*
X135312650Y-92588342D01*
X135344552Y-92525729D01*
X135353121Y-92514014D01*
X135352348Y-92513421D01*
X135355496Y-92509317D01*
X135355500Y-92509314D01*
X135421392Y-92395186D01*
X135455500Y-92267892D01*
X135455500Y-92030836D01*
X135473982Y-91980056D01*
X135478639Y-91974975D01*
X135629975Y-91823639D01*
X135645602Y-91816351D01*
X135658816Y-91805264D01*
X135675802Y-91802268D01*
X135678951Y-91800801D01*
X135685836Y-91800500D01*
X135770500Y-91800500D01*
X135821280Y-91818982D01*
X135848300Y-91865782D01*
X135849500Y-91879500D01*
X135849500Y-92069747D01*
X135861132Y-92128230D01*
X135861133Y-92128231D01*
X135905448Y-92194552D01*
X135971769Y-92238867D01*
X135971768Y-92238867D01*
X136030252Y-92250500D01*
X136120500Y-92250500D01*
X136171280Y-92268982D01*
X136198300Y-92315782D01*
X136199500Y-92329500D01*
X136199500Y-92815894D01*
X136233607Y-92943183D01*
X136233608Y-92943187D01*
X136299501Y-93057316D01*
X137993506Y-94751320D01*
X138016344Y-94800296D01*
X138016321Y-94814328D01*
X138013500Y-94845381D01*
X138013500Y-95958616D01*
X138019913Y-96029196D01*
X138040306Y-96094638D01*
X138070522Y-96191606D01*
X138158528Y-96337185D01*
X138278815Y-96457472D01*
X138424394Y-96545478D01*
X138548218Y-96584062D01*
X138586803Y-96596086D01*
X138657383Y-96602500D01*
X138657384Y-96602500D01*
X139404247Y-96602500D01*
X139455027Y-96620982D01*
X139482047Y-96667782D01*
X139483247Y-96681500D01*
X139483247Y-100508885D01*
X139464765Y-100559665D01*
X139452340Y-100571560D01*
X139328547Y-100666550D01*
X139236302Y-100786767D01*
X139236299Y-100786771D01*
X139178315Y-100926757D01*
X139178312Y-100926766D01*
X139163500Y-101039277D01*
X139163500Y-102364722D01*
X139178312Y-102477233D01*
X139178315Y-102477242D01*
X139236299Y-102617228D01*
X139236301Y-102617230D01*
X139236302Y-102617233D01*
X139276352Y-102669428D01*
X139328548Y-102737451D01*
X139380744Y-102777501D01*
X139448767Y-102829698D01*
X139448769Y-102829699D01*
X139448771Y-102829700D01*
X139557047Y-102874549D01*
X139588764Y-102887687D01*
X139645022Y-102895093D01*
X139701278Y-102902500D01*
X139701280Y-102902500D01*
X140526722Y-102902500D01*
X140571726Y-102896574D01*
X140639236Y-102887687D01*
X140779233Y-102829698D01*
X140899451Y-102737451D01*
X140991698Y-102617233D01*
X141049687Y-102477236D01*
X141064500Y-102364720D01*
X141064500Y-101039280D01*
X141049687Y-100926764D01*
X140991698Y-100786767D01*
X140899451Y-100666549D01*
X140779233Y-100574302D01*
X140775660Y-100571560D01*
X140746625Y-100525983D01*
X140744753Y-100508885D01*
X140744753Y-96681500D01*
X140763235Y-96630720D01*
X140810035Y-96603700D01*
X140823753Y-96602500D01*
X141570617Y-96602500D01*
X141641196Y-96596086D01*
X141803606Y-96545478D01*
X141949185Y-96457472D01*
X142069472Y-96337185D01*
X142157478Y-96191606D01*
X142208086Y-96029196D01*
X142214500Y-95958616D01*
X142214500Y-95857100D01*
X142232982Y-95806320D01*
X142279782Y-95779300D01*
X142293500Y-95778100D01*
X144053668Y-95778100D01*
X144061580Y-95780194D01*
X144066923Y-95779220D01*
X144081799Y-95785547D01*
X144092760Y-95788450D01*
X144096817Y-95790760D01*
X144150518Y-95830393D01*
X144191759Y-95844823D01*
X144197992Y-95848373D01*
X144211119Y-95863830D01*
X144226818Y-95876673D01*
X144229108Y-95885011D01*
X144232973Y-95889562D01*
X144233030Y-95899294D01*
X144237900Y-95917023D01*
X144237900Y-96307576D01*
X144219418Y-96358356D01*
X144184995Y-96382142D01*
X144150516Y-96394207D01*
X144041249Y-96474849D01*
X143960607Y-96584117D01*
X143960605Y-96584120D01*
X143915754Y-96712300D01*
X143915753Y-96712303D01*
X143912900Y-96742738D01*
X143912900Y-97351261D01*
X143915753Y-97381696D01*
X143915754Y-97381699D01*
X143960605Y-97509879D01*
X143960607Y-97509882D01*
X144041249Y-97619150D01*
X144121892Y-97678666D01*
X144136594Y-97689517D01*
X144150517Y-97699792D01*
X144150520Y-97699794D01*
X144191010Y-97713961D01*
X144278701Y-97744646D01*
X144309134Y-97747500D01*
X144309139Y-97747500D01*
X145367661Y-97747500D01*
X145367666Y-97747500D01*
X145398099Y-97744646D01*
X145526282Y-97699793D01*
X145635550Y-97619150D01*
X145716193Y-97509882D01*
X145761046Y-97381699D01*
X145763900Y-97351266D01*
X145763900Y-96742734D01*
X145761046Y-96712301D01*
X145716193Y-96584118D01*
X145687031Y-96544604D01*
X145635550Y-96474849D01*
X145526283Y-96394207D01*
X145491805Y-96382142D01*
X145449980Y-96347923D01*
X145438900Y-96307576D01*
X145438900Y-95917023D01*
X145457382Y-95866243D01*
X145491808Y-95842456D01*
X145526279Y-95830394D01*
X145526278Y-95830394D01*
X145526282Y-95830393D01*
X145635550Y-95749750D01*
X145716193Y-95640482D01*
X145761046Y-95512299D01*
X145763900Y-95481866D01*
X145763900Y-94873334D01*
X145761046Y-94842901D01*
X145723414Y-94735354D01*
X145716194Y-94714720D01*
X145716192Y-94714717D01*
X145635550Y-94605449D01*
X145526282Y-94524807D01*
X145526279Y-94524805D01*
X145398099Y-94479954D01*
X145398096Y-94479953D01*
X145379678Y-94478226D01*
X145367666Y-94477100D01*
X144309134Y-94477100D01*
X144298001Y-94478144D01*
X144278703Y-94479953D01*
X144278700Y-94479954D01*
X144150520Y-94524805D01*
X144150517Y-94524807D01*
X144116309Y-94550053D01*
X144104706Y-94558618D01*
X144100580Y-94561663D01*
X144053668Y-94577100D01*
X142180698Y-94577100D01*
X142129918Y-94558618D01*
X142113092Y-94538970D01*
X142069473Y-94466816D01*
X141949187Y-94346530D01*
X141949185Y-94346528D01*
X141803606Y-94258522D01*
X141765020Y-94246498D01*
X141641196Y-94207913D01*
X141570617Y-94201500D01*
X141570616Y-94201500D01*
X138892036Y-94201500D01*
X138841256Y-94183018D01*
X138836175Y-94178361D01*
X137223639Y-92565825D01*
X137200801Y-92516849D01*
X137200500Y-92509964D01*
X137200500Y-92329500D01*
X137218982Y-92278720D01*
X137265782Y-92251700D01*
X137279500Y-92250500D01*
X137369748Y-92250500D01*
X137428231Y-92238867D01*
X137494552Y-92194552D01*
X137538867Y-92128231D01*
X137550500Y-92069748D01*
X137550500Y-90530252D01*
X137538867Y-90471769D01*
X137494552Y-90405448D01*
X137428231Y-90361133D01*
X137428230Y-90361132D01*
X137428231Y-90361132D01*
X137369748Y-90349500D01*
X136030252Y-90349500D01*
X135971769Y-90361132D01*
X135905445Y-90405449D01*
X135903253Y-90408731D01*
X135902519Y-90409268D01*
X135902284Y-90410148D01*
X135880807Y-90425185D01*
X135859671Y-90440681D01*
X135858762Y-90440621D01*
X135858018Y-90441143D01*
X135831921Y-90438859D01*
X135805748Y-90437142D01*
X135804789Y-90436485D01*
X135804184Y-90436433D01*
X135781710Y-90420696D01*
X135750355Y-90389341D01*
X135750354Y-90389341D01*
X135684638Y-90323624D01*
X135661801Y-90274648D01*
X135661500Y-90267763D01*
X135661500Y-88599110D01*
X135661494Y-88599068D01*
X135661327Y-88598464D01*
X135653612Y-88569671D01*
X135627392Y-88471814D01*
X135617369Y-88454453D01*
X135561500Y-88357686D01*
X135468314Y-88264500D01*
X135326639Y-88122825D01*
X135303801Y-88073849D01*
X135303500Y-88066964D01*
X135303500Y-87873516D01*
X135303498Y-87873500D01*
X135300902Y-87857112D01*
X135287719Y-87773874D01*
X135226528Y-87653780D01*
X135226527Y-87653779D01*
X135226526Y-87653777D01*
X135176639Y-87603890D01*
X135153801Y-87554914D01*
X135153500Y-87548029D01*
X135153500Y-86987970D01*
X135171982Y-86937190D01*
X135176628Y-86932119D01*
X135226528Y-86882220D01*
X135287719Y-86762126D01*
X135303500Y-86662488D01*
X135303500Y-86460410D01*
X135304957Y-86454363D01*
X135304106Y-86450647D01*
X135310306Y-86432168D01*
X135312173Y-86424423D01*
X135313085Y-86422638D01*
X135373392Y-86318186D01*
X135378762Y-86298144D01*
X135407500Y-86190893D01*
X135407500Y-86059108D01*
X135407500Y-84666615D01*
X135425982Y-84615835D01*
X135430639Y-84610754D01*
X135510049Y-84531343D01*
X135510050Y-84531342D01*
X135554808Y-84443500D01*
X135558307Y-84436634D01*
X135559901Y-84435147D01*
X135560280Y-84433000D01*
X135579494Y-84416877D01*
X135597829Y-84399780D01*
X135600522Y-84399232D01*
X135601676Y-84398264D01*
X135628696Y-84393500D01*
X135726407Y-84393500D01*
X135777187Y-84411982D01*
X135782268Y-84416639D01*
X136155140Y-84789511D01*
X136211089Y-84845460D01*
X136279611Y-84885021D01*
X136356038Y-84905500D01*
X136591337Y-84905500D01*
X136642117Y-84923982D01*
X136669137Y-84970782D01*
X136668819Y-84999911D01*
X136665500Y-85016597D01*
X136665500Y-85193399D01*
X136680759Y-85270115D01*
X136680760Y-85270117D01*
X136738887Y-85357112D01*
X136798522Y-85396958D01*
X136825883Y-85415240D01*
X136902599Y-85430500D01*
X137679400Y-85430499D01*
X137756117Y-85415240D01*
X137843112Y-85357112D01*
X137845813Y-85353068D01*
X137889392Y-85321114D01*
X137943316Y-85324648D01*
X137982352Y-85362016D01*
X137990500Y-85396958D01*
X137990500Y-85813041D01*
X137972018Y-85863821D01*
X137925218Y-85890841D01*
X137872000Y-85881457D01*
X137845815Y-85856933D01*
X137843111Y-85852887D01*
X137756116Y-85794759D01*
X137694660Y-85782535D01*
X137679401Y-85779500D01*
X137679400Y-85779500D01*
X136902600Y-85779500D01*
X136825884Y-85794759D01*
X136825882Y-85794760D01*
X136738887Y-85852887D01*
X136680759Y-85939883D01*
X136665500Y-86016599D01*
X136665500Y-86193399D01*
X136672448Y-86228328D01*
X136664227Y-86281738D01*
X136629315Y-86314881D01*
X136622604Y-86318121D01*
X136597011Y-86324979D01*
X136541355Y-86357112D01*
X136538832Y-86358568D01*
X136538827Y-86358571D01*
X136528486Y-86364541D01*
X136010809Y-86882220D01*
X135974984Y-86918045D01*
X135960921Y-86932108D01*
X135919035Y-86973993D01*
X135879474Y-87042514D01*
X135879473Y-87042516D01*
X135858995Y-87118942D01*
X135858995Y-88166565D01*
X135879473Y-88242991D01*
X135879474Y-88242993D01*
X135912894Y-88300878D01*
X135912896Y-88300880D01*
X135919036Y-88311516D01*
X137096034Y-89488513D01*
X137151983Y-89544462D01*
X137220505Y-89584023D01*
X137296932Y-89604502D01*
X137296933Y-89604502D01*
X139926962Y-89604502D01*
X139977742Y-89622984D01*
X140004762Y-89669784D01*
X139995378Y-89723002D01*
X139982823Y-89739363D01*
X139395825Y-90326361D01*
X139346849Y-90349199D01*
X139339964Y-90349500D01*
X138730252Y-90349500D01*
X138671769Y-90361132D01*
X138605448Y-90405448D01*
X138561132Y-90471769D01*
X138549500Y-90530252D01*
X138549500Y-92069747D01*
X138561132Y-92128230D01*
X138561133Y-92128231D01*
X138605448Y-92194552D01*
X138671769Y-92238867D01*
X138671768Y-92238867D01*
X138730252Y-92250500D01*
X140069748Y-92250500D01*
X140128231Y-92238867D01*
X140194552Y-92194552D01*
X140238867Y-92128231D01*
X140250500Y-92069748D01*
X140250500Y-90920036D01*
X140268982Y-90869256D01*
X140273639Y-90864175D01*
X140565175Y-90572639D01*
X140580802Y-90565351D01*
X140594016Y-90554264D01*
X140611002Y-90551268D01*
X140614151Y-90549801D01*
X140621036Y-90549500D01*
X140690030Y-90549500D01*
X140740810Y-90567982D01*
X140745880Y-90572628D01*
X140796780Y-90623528D01*
X140916874Y-90684719D01*
X141016512Y-90700500D01*
X141251322Y-90700500D01*
X141271220Y-90707742D01*
X141292004Y-90711780D01*
X141296054Y-90716780D01*
X141302102Y-90718982D01*
X141312688Y-90737317D01*
X141326016Y-90753773D01*
X141327175Y-90762410D01*
X141329122Y-90765782D01*
X141330310Y-90780871D01*
X141330277Y-90782757D01*
X141327288Y-90828837D01*
X141327198Y-90853973D01*
X141328936Y-90859973D01*
X141328730Y-90871871D01*
X141321135Y-90891661D01*
X141316721Y-90912390D01*
X141311666Y-90916335D01*
X141309369Y-90922323D01*
X141290832Y-90932600D01*
X141274125Y-90945643D01*
X141264586Y-90947151D01*
X141262108Y-90948526D01*
X141259321Y-90947984D01*
X141249742Y-90949500D01*
X141016512Y-90949500D01*
X141016509Y-90949500D01*
X141016500Y-90949501D01*
X140916880Y-90965279D01*
X140916875Y-90965280D01*
X140796777Y-91026473D01*
X140701473Y-91121777D01*
X140640280Y-91241875D01*
X140640279Y-91241880D01*
X140624501Y-91341500D01*
X140624500Y-91341516D01*
X140624500Y-91858483D01*
X140624501Y-91858499D01*
X140640279Y-91958119D01*
X140640280Y-91958124D01*
X140701473Y-92078222D01*
X140796778Y-92173527D01*
X140796781Y-92173529D01*
X140800527Y-92175438D01*
X140837382Y-92214959D01*
X140840971Y-92266272D01*
X140837865Y-92277865D01*
X140824300Y-92328491D01*
X140824300Y-92328493D01*
X140824300Y-92447109D01*
X140843820Y-92519958D01*
X140843820Y-92519959D01*
X140855000Y-92561684D01*
X140855001Y-92561688D01*
X140914312Y-92664416D01*
X140998183Y-92748287D01*
X140998185Y-92748288D01*
X140998186Y-92748289D01*
X141100913Y-92807599D01*
X141117799Y-92812123D01*
X141117800Y-92812124D01*
X141117801Y-92812124D01*
X141215491Y-92838300D01*
X141215493Y-92838300D01*
X141334107Y-92838300D01*
X141334109Y-92838300D01*
X141431799Y-92812124D01*
X141448687Y-92807599D01*
X141551414Y-92748289D01*
X141660489Y-92639214D01*
X141719799Y-92536487D01*
X141734842Y-92480345D01*
X141750500Y-92421909D01*
X141750500Y-92248801D01*
X141768982Y-92198021D01*
X141793634Y-92178412D01*
X141803220Y-92173528D01*
X141898528Y-92078220D01*
X141908929Y-92057806D01*
X141916151Y-92043634D01*
X141955673Y-92006780D01*
X141986540Y-92000500D01*
X142372909Y-92000500D01*
X142423689Y-92018982D01*
X142428522Y-92023391D01*
X143070841Y-92660026D01*
X143086925Y-92674376D01*
X143092816Y-92679101D01*
X143107171Y-92690616D01*
X143177857Y-92727490D01*
X143244896Y-92747175D01*
X143302794Y-92755500D01*
X145744757Y-92755500D01*
X145795537Y-92773982D01*
X145796165Y-92774515D01*
X145870579Y-92838299D01*
X145966912Y-92920869D01*
X145993439Y-92967949D01*
X145994500Y-92980850D01*
X145994500Y-104396500D01*
X145998430Y-104433056D01*
X145985482Y-104485521D01*
X145941839Y-104517388D01*
X145919883Y-104520500D01*
X139447985Y-104520500D01*
X139397205Y-104502018D01*
X139372853Y-104465915D01*
X139333568Y-104345008D01*
X139333565Y-104345002D01*
X139333561Y-104344992D01*
X139226345Y-104134571D01*
X139226343Y-104134567D01*
X139087517Y-103943490D01*
X139087512Y-103943485D01*
X139087507Y-103943479D01*
X138920520Y-103776492D01*
X138920514Y-103776487D01*
X138920510Y-103776483D01*
X138729433Y-103637657D01*
X138729431Y-103637656D01*
X138729428Y-103637654D01*
X138519007Y-103530438D01*
X138518989Y-103530431D01*
X138294376Y-103457449D01*
X138294357Y-103457444D01*
X138061103Y-103420501D01*
X138061095Y-103420500D01*
X138061092Y-103420500D01*
X137824908Y-103420500D01*
X137824905Y-103420500D01*
X137824896Y-103420501D01*
X137591642Y-103457444D01*
X137591623Y-103457449D01*
X137367010Y-103530431D01*
X137366992Y-103530438D01*
X137156571Y-103637654D01*
X137156560Y-103637661D01*
X136965497Y-103776477D01*
X136965479Y-103776492D01*
X136798492Y-103943479D01*
X136798477Y-103943497D01*
X136659661Y-104134560D01*
X136659654Y-104134571D01*
X136552438Y-104344992D01*
X136552434Y-104345002D01*
X136552432Y-104345007D01*
X136552432Y-104345008D01*
X136513146Y-104465914D01*
X136479879Y-104508496D01*
X136438015Y-104520500D01*
X129447985Y-104520500D01*
X129397205Y-104502018D01*
X129372853Y-104465915D01*
X129333568Y-104345008D01*
X129333565Y-104345002D01*
X129333561Y-104344992D01*
X129226345Y-104134571D01*
X129226343Y-104134567D01*
X129087517Y-103943490D01*
X129087512Y-103943485D01*
X129087507Y-103943479D01*
X128920520Y-103776492D01*
X128920514Y-103776487D01*
X128920510Y-103776483D01*
X128729433Y-103637657D01*
X128729431Y-103637656D01*
X128729428Y-103637654D01*
X128519007Y-103530438D01*
X128518989Y-103530431D01*
X128294376Y-103457449D01*
X128294357Y-103457444D01*
X128061103Y-103420501D01*
X128061095Y-103420500D01*
X128061092Y-103420500D01*
X127824908Y-103420500D01*
X127824905Y-103420500D01*
X127824896Y-103420501D01*
X127591642Y-103457444D01*
X127591623Y-103457449D01*
X127367010Y-103530431D01*
X127366992Y-103530438D01*
X127156571Y-103637654D01*
X127156560Y-103637661D01*
X126965497Y-103776477D01*
X126965479Y-103776492D01*
X126798492Y-103943479D01*
X126798477Y-103943497D01*
X126659661Y-104134560D01*
X126659654Y-104134571D01*
X126552438Y-104344992D01*
X126552434Y-104345002D01*
X126552432Y-104345007D01*
X126552432Y-104345008D01*
X126513146Y-104465914D01*
X126479879Y-104508496D01*
X126438015Y-104520500D01*
X125922500Y-104520500D01*
X125871720Y-104502018D01*
X125844700Y-104455218D01*
X125843500Y-104441500D01*
X125843500Y-100283105D01*
X127954900Y-100283105D01*
X127954900Y-100414894D01*
X127989007Y-100542183D01*
X127989008Y-100542187D01*
X128054901Y-100656316D01*
X128345083Y-100946498D01*
X128345085Y-100946499D01*
X128345086Y-100946500D01*
X128459214Y-101012392D01*
X128586507Y-101046500D01*
X128586508Y-101046500D01*
X129800740Y-101046500D01*
X130468108Y-101046500D01*
X133172364Y-101046500D01*
X133223144Y-101064982D01*
X133228225Y-101069639D01*
X134193561Y-102034975D01*
X134216399Y-102083951D01*
X134216700Y-102090836D01*
X134216700Y-102580061D01*
X134219553Y-102610496D01*
X134219554Y-102610499D01*
X134264405Y-102738679D01*
X134264407Y-102738682D01*
X134345049Y-102847950D01*
X134454317Y-102928592D01*
X134454320Y-102928594D01*
X134494810Y-102942761D01*
X134582501Y-102973446D01*
X134612934Y-102976300D01*
X134612939Y-102976300D01*
X135221461Y-102976300D01*
X135221466Y-102976300D01*
X135251899Y-102973446D01*
X135380082Y-102928593D01*
X135489350Y-102847950D01*
X135569993Y-102738682D01*
X135614846Y-102610499D01*
X135614846Y-102610496D01*
X135616433Y-102605962D01*
X135618483Y-102606679D01*
X135643092Y-102567778D01*
X135691383Y-102551300D01*
X136856205Y-102551300D01*
X136906985Y-102569782D01*
X136929191Y-102600067D01*
X136936300Y-102617230D01*
X136936301Y-102617231D01*
X136936302Y-102617233D01*
X136976352Y-102669428D01*
X137028548Y-102737451D01*
X137080744Y-102777501D01*
X137148767Y-102829698D01*
X137148769Y-102829699D01*
X137148771Y-102829700D01*
X137257047Y-102874549D01*
X137288764Y-102887687D01*
X137345022Y-102895093D01*
X137401278Y-102902500D01*
X137401280Y-102902500D01*
X138226722Y-102902500D01*
X138271726Y-102896574D01*
X138339236Y-102887687D01*
X138479233Y-102829698D01*
X138599451Y-102737451D01*
X138691698Y-102617233D01*
X138749687Y-102477236D01*
X138764500Y-102364720D01*
X138764500Y-101039280D01*
X138749687Y-100926764D01*
X138691698Y-100786767D01*
X138639501Y-100718744D01*
X138599451Y-100666548D01*
X138531428Y-100614352D01*
X138479233Y-100574302D01*
X138479230Y-100574301D01*
X138479228Y-100574299D01*
X138339242Y-100516315D01*
X138339233Y-100516312D01*
X138226722Y-100501500D01*
X138226720Y-100501500D01*
X137401280Y-100501500D01*
X137401278Y-100501500D01*
X137288766Y-100516312D01*
X137288757Y-100516315D01*
X137148771Y-100574299D01*
X137148767Y-100574302D01*
X137028548Y-100666548D01*
X136936302Y-100786767D01*
X136936299Y-100786771D01*
X136878315Y-100926757D01*
X136878312Y-100926766D01*
X136863500Y-101039277D01*
X136863500Y-101471300D01*
X136845018Y-101522080D01*
X136798218Y-101549100D01*
X136784500Y-101550300D01*
X135691383Y-101550300D01*
X135640603Y-101531818D01*
X135618326Y-101494975D01*
X135616433Y-101495638D01*
X135614846Y-101491103D01*
X135614846Y-101491101D01*
X135569993Y-101362918D01*
X135548866Y-101334292D01*
X135489350Y-101253649D01*
X135380082Y-101173007D01*
X135380079Y-101173005D01*
X135251899Y-101128154D01*
X135251896Y-101128153D01*
X135233478Y-101126426D01*
X135221466Y-101125300D01*
X135221461Y-101125300D01*
X134732236Y-101125300D01*
X134681456Y-101106818D01*
X134676375Y-101102161D01*
X133719716Y-100145501D01*
X133605587Y-100079608D01*
X133605583Y-100079607D01*
X133478294Y-100045500D01*
X133478292Y-100045500D01*
X133346508Y-100045500D01*
X133325892Y-100045500D01*
X131267260Y-100045500D01*
X130599892Y-100045500D01*
X128892436Y-100045500D01*
X128841656Y-100027018D01*
X128836585Y-100022371D01*
X128762714Y-99948500D01*
X128648587Y-99882608D01*
X128648583Y-99882607D01*
X128521294Y-99848500D01*
X128521292Y-99848500D01*
X128389508Y-99848500D01*
X128389505Y-99848500D01*
X128262216Y-99882607D01*
X128262212Y-99882608D01*
X128148083Y-99948501D01*
X128054901Y-100041683D01*
X127989008Y-100155812D01*
X127989007Y-100155816D01*
X127954900Y-100283105D01*
X125843500Y-100283105D01*
X125843500Y-99112738D01*
X129483500Y-99112738D01*
X129483500Y-99479261D01*
X129493427Y-99547395D01*
X129544802Y-99652483D01*
X129544805Y-99652487D01*
X129627512Y-99735194D01*
X129627516Y-99735197D01*
X129627517Y-99735198D01*
X129682453Y-99762054D01*
X129732604Y-99786572D01*
X129732605Y-99786572D01*
X129732607Y-99786573D01*
X129800740Y-99796500D01*
X129800744Y-99796500D01*
X131267256Y-99796500D01*
X131267260Y-99796500D01*
X131335393Y-99786573D01*
X131400944Y-99754526D01*
X131435640Y-99746500D01*
X132532386Y-99746500D01*
X132583166Y-99764982D01*
X132588236Y-99769628D01*
X132615107Y-99796499D01*
X132627659Y-99809051D01*
X132740693Y-99866645D01*
X132740695Y-99866645D01*
X132740696Y-99866646D01*
X132834481Y-99881500D01*
X133297518Y-99881499D01*
X133391304Y-99866646D01*
X133504342Y-99809050D01*
X133594050Y-99719342D01*
X133651646Y-99606304D01*
X133666500Y-99512519D01*
X133666499Y-98899485D01*
X134115500Y-98899485D01*
X134115500Y-99512515D01*
X134124763Y-99571005D01*
X134126062Y-99579206D01*
X134130354Y-99606302D01*
X134130353Y-99606302D01*
X134187951Y-99719344D01*
X134277656Y-99809049D01*
X134277659Y-99809051D01*
X134390693Y-99866645D01*
X134390695Y-99866645D01*
X134390696Y-99866646D01*
X134484481Y-99881500D01*
X134947518Y-99881499D01*
X135041304Y-99866646D01*
X135154342Y-99809050D01*
X135244050Y-99719342D01*
X135279568Y-99649633D01*
X135319089Y-99612780D01*
X135349957Y-99606500D01*
X135467725Y-99606500D01*
X135467727Y-99606500D01*
X135569588Y-99579207D01*
X135660913Y-99526480D01*
X137568637Y-97618754D01*
X137604049Y-97598310D01*
X137620886Y-97593799D01*
X137723613Y-97534489D01*
X137807489Y-97450613D01*
X137866799Y-97347886D01*
X137897500Y-97233309D01*
X137897500Y-97114691D01*
X137866799Y-97000114D01*
X137863548Y-96994484D01*
X137809399Y-96900696D01*
X137807489Y-96897387D01*
X137807488Y-96897386D01*
X137807487Y-96897384D01*
X137723615Y-96813512D01*
X137620887Y-96754201D01*
X137620885Y-96754200D01*
X137506309Y-96723500D01*
X137387691Y-96723500D01*
X137387690Y-96723500D01*
X137273114Y-96754200D01*
X137273112Y-96754201D01*
X137170384Y-96813512D01*
X137086512Y-96897384D01*
X137027200Y-97000115D01*
X137027198Y-97000118D01*
X137022688Y-97016951D01*
X137002242Y-97052363D01*
X136671505Y-97383100D01*
X136622529Y-97405938D01*
X136570331Y-97391952D01*
X136539336Y-97347686D01*
X136539336Y-97306795D01*
X136543700Y-97290509D01*
X136543700Y-97171891D01*
X136517100Y-97072618D01*
X136512999Y-97057313D01*
X136453689Y-96954586D01*
X136453688Y-96954585D01*
X136453687Y-96954583D01*
X136369816Y-96870712D01*
X136267088Y-96811401D01*
X136267085Y-96811400D01*
X136237752Y-96803541D01*
X136152509Y-96780700D01*
X136033891Y-96780700D01*
X136033890Y-96780700D01*
X135954892Y-96801867D01*
X135954887Y-96801869D01*
X135948648Y-96803541D01*
X135919313Y-96811401D01*
X135866553Y-96841861D01*
X135863006Y-96843468D01*
X135854148Y-96844142D01*
X135830424Y-96850500D01*
X135388481Y-96850500D01*
X135337701Y-96832018D01*
X135318091Y-96807365D01*
X135315290Y-96801867D01*
X135308050Y-96787658D01*
X135308049Y-96787657D01*
X135308048Y-96787655D01*
X135218343Y-96697950D01*
X135218340Y-96697948D01*
X135105306Y-96640354D01*
X135105302Y-96640353D01*
X135011530Y-96625501D01*
X135011522Y-96625500D01*
X135011519Y-96625500D01*
X135011514Y-96625500D01*
X134548484Y-96625500D01*
X134472345Y-96637558D01*
X134454696Y-96640354D01*
X134400866Y-96667782D01*
X134341655Y-96697951D01*
X134251950Y-96787656D01*
X134251948Y-96787659D01*
X134194354Y-96900693D01*
X134194353Y-96900697D01*
X134179501Y-96994469D01*
X134179500Y-96994485D01*
X134179500Y-97607515D01*
X134181343Y-97619150D01*
X134192486Y-97689512D01*
X134194354Y-97701302D01*
X134194353Y-97701302D01*
X134251951Y-97814344D01*
X134341656Y-97904049D01*
X134341659Y-97904051D01*
X134454693Y-97961645D01*
X134454695Y-97961645D01*
X134454696Y-97961646D01*
X134548481Y-97976500D01*
X135011518Y-97976499D01*
X135105304Y-97961646D01*
X135218342Y-97904050D01*
X135308050Y-97814342D01*
X135318091Y-97794634D01*
X135357613Y-97757780D01*
X135388481Y-97751500D01*
X136082705Y-97751500D01*
X136082709Y-97751500D01*
X136098994Y-97747136D01*
X136152824Y-97751845D01*
X136191036Y-97790055D01*
X136195748Y-97843888D01*
X136175300Y-97879305D01*
X135358860Y-98695745D01*
X135309884Y-98718583D01*
X135257686Y-98704597D01*
X135247138Y-98695745D01*
X135154343Y-98602950D01*
X135154340Y-98602948D01*
X135041306Y-98545354D01*
X135041302Y-98545353D01*
X134947530Y-98530501D01*
X134947522Y-98530500D01*
X134947519Y-98530500D01*
X134947514Y-98530500D01*
X134484484Y-98530500D01*
X134408345Y-98542558D01*
X134390696Y-98545354D01*
X134358176Y-98561924D01*
X134277655Y-98602951D01*
X134187950Y-98692656D01*
X134187948Y-98692659D01*
X134130354Y-98805693D01*
X134130353Y-98805697D01*
X134115501Y-98899469D01*
X134115500Y-98899485D01*
X133666499Y-98899485D01*
X133666499Y-98899482D01*
X133651646Y-98805696D01*
X133594050Y-98692658D01*
X133594049Y-98692657D01*
X133594048Y-98692655D01*
X133504343Y-98602950D01*
X133504340Y-98602948D01*
X133391306Y-98545354D01*
X133391302Y-98545353D01*
X133297530Y-98530501D01*
X133297522Y-98530500D01*
X133297519Y-98530500D01*
X133297514Y-98530500D01*
X132834484Y-98530500D01*
X132758345Y-98542558D01*
X132740696Y-98545354D01*
X132708174Y-98561924D01*
X132707972Y-98561948D01*
X132707647Y-98562190D01*
X132629169Y-98601437D01*
X132537950Y-98692657D01*
X132524740Y-98718583D01*
X132482050Y-98802366D01*
X132442530Y-98839220D01*
X132411662Y-98845500D01*
X131435640Y-98845500D01*
X131400944Y-98837473D01*
X131335393Y-98805427D01*
X131335394Y-98805427D01*
X131267261Y-98795500D01*
X131267260Y-98795500D01*
X129800740Y-98795500D01*
X129800738Y-98795500D01*
X129732604Y-98805427D01*
X129627516Y-98856802D01*
X129627512Y-98856805D01*
X129544805Y-98939512D01*
X129544802Y-98939516D01*
X129493427Y-99044604D01*
X129483500Y-99112738D01*
X125843500Y-99112738D01*
X125843500Y-97862738D01*
X129483500Y-97862738D01*
X129483500Y-98229261D01*
X129493427Y-98297395D01*
X129544802Y-98402483D01*
X129544805Y-98402487D01*
X129627512Y-98485194D01*
X129627516Y-98485197D01*
X129627517Y-98485198D01*
X129682453Y-98512054D01*
X129732604Y-98536572D01*
X129732605Y-98536572D01*
X129732607Y-98536573D01*
X129800740Y-98546500D01*
X129800744Y-98546500D01*
X131267256Y-98546500D01*
X131267260Y-98546500D01*
X131335393Y-98536573D01*
X131400944Y-98504526D01*
X131435640Y-98496500D01*
X132444307Y-98496500D01*
X132444309Y-98496500D01*
X132541342Y-98470500D01*
X132558887Y-98465799D01*
X132661614Y-98406489D01*
X133068464Y-97999637D01*
X133117441Y-97976800D01*
X133124326Y-97976499D01*
X133361515Y-97976499D01*
X133361518Y-97976499D01*
X133455304Y-97961646D01*
X133568342Y-97904050D01*
X133658050Y-97814342D01*
X133715646Y-97701304D01*
X133730500Y-97607519D01*
X133730499Y-96994482D01*
X133715646Y-96900696D01*
X133658050Y-96787658D01*
X133658049Y-96787657D01*
X133658048Y-96787655D01*
X133568343Y-96697950D01*
X133568340Y-96697948D01*
X133455306Y-96640354D01*
X133455302Y-96640353D01*
X133361530Y-96625501D01*
X133361522Y-96625500D01*
X133361519Y-96625500D01*
X133361514Y-96625500D01*
X132898484Y-96625500D01*
X132822345Y-96637558D01*
X132804696Y-96640354D01*
X132750866Y-96667782D01*
X132691655Y-96697951D01*
X132601950Y-96787656D01*
X132601948Y-96787659D01*
X132544354Y-96900693D01*
X132544353Y-96900697D01*
X132529501Y-96994469D01*
X132529500Y-96994485D01*
X132529500Y-97231673D01*
X132511018Y-97282453D01*
X132506362Y-97287534D01*
X132221536Y-97572361D01*
X132172559Y-97595199D01*
X132165674Y-97595500D01*
X131435640Y-97595500D01*
X131400944Y-97587473D01*
X131370032Y-97572361D01*
X131335393Y-97555427D01*
X131335394Y-97555427D01*
X131267261Y-97545500D01*
X131267260Y-97545500D01*
X129800740Y-97545500D01*
X129800738Y-97545500D01*
X129732604Y-97555427D01*
X129627516Y-97606802D01*
X129627512Y-97606805D01*
X129544805Y-97689512D01*
X129544802Y-97689516D01*
X129493427Y-97794604D01*
X129483500Y-97862738D01*
X125843500Y-97862738D01*
X125843500Y-95362738D01*
X129483500Y-95362738D01*
X129483500Y-95729261D01*
X129493427Y-95797395D01*
X129544802Y-95902483D01*
X129544805Y-95902487D01*
X129627512Y-95985194D01*
X129627516Y-95985197D01*
X129627517Y-95985198D01*
X129655848Y-95999048D01*
X129732604Y-96036572D01*
X129732605Y-96036572D01*
X129732607Y-96036573D01*
X129800740Y-96046500D01*
X129800744Y-96046500D01*
X131267256Y-96046500D01*
X131267260Y-96046500D01*
X131335393Y-96036573D01*
X131440483Y-95985198D01*
X131523198Y-95902483D01*
X131574573Y-95797393D01*
X131580613Y-95755934D01*
X131602926Y-95711465D01*
X132426085Y-94888305D01*
X132475059Y-94865469D01*
X132527256Y-94879455D01*
X132558252Y-94923721D01*
X132553542Y-94977555D01*
X132552335Y-94980031D01*
X132544353Y-94995697D01*
X132529501Y-95089469D01*
X132529500Y-95089485D01*
X132529500Y-95397384D01*
X132511018Y-95448164D01*
X132506361Y-95453245D01*
X131587246Y-96372361D01*
X131571618Y-96379648D01*
X131558405Y-96390736D01*
X131541418Y-96393731D01*
X131538270Y-96395199D01*
X131531385Y-96395500D01*
X131511904Y-96395500D01*
X131461124Y-96377018D01*
X131456043Y-96372361D01*
X131440487Y-96356805D01*
X131440483Y-96356802D01*
X131335395Y-96305427D01*
X131267261Y-96295500D01*
X131267260Y-96295500D01*
X129800740Y-96295500D01*
X129800738Y-96295500D01*
X129732604Y-96305427D01*
X129627516Y-96356802D01*
X129627512Y-96356805D01*
X129544805Y-96439512D01*
X129544802Y-96439516D01*
X129493427Y-96544604D01*
X129483500Y-96612738D01*
X129483500Y-96979261D01*
X129493427Y-97047395D01*
X129544802Y-97152483D01*
X129544805Y-97152487D01*
X129627512Y-97235194D01*
X129627516Y-97235197D01*
X129627517Y-97235198D01*
X129682453Y-97262054D01*
X129732604Y-97286572D01*
X129732605Y-97286572D01*
X129732607Y-97286573D01*
X129800740Y-97296500D01*
X129800744Y-97296500D01*
X131267256Y-97296500D01*
X131267260Y-97296500D01*
X131335393Y-97286573D01*
X131440483Y-97235198D01*
X131444008Y-97231673D01*
X131456043Y-97219639D01*
X131505019Y-97196801D01*
X131511904Y-97196500D01*
X131782725Y-97196500D01*
X131782727Y-97196500D01*
X131884588Y-97169207D01*
X131975913Y-97116480D01*
X132997754Y-96094637D01*
X133046730Y-96071800D01*
X133053615Y-96071499D01*
X133361515Y-96071499D01*
X133361518Y-96071499D01*
X133455304Y-96056646D01*
X133568342Y-95999050D01*
X133658050Y-95909342D01*
X133715646Y-95796304D01*
X133730500Y-95702519D01*
X133730499Y-95089485D01*
X134179500Y-95089485D01*
X134179500Y-95702515D01*
X134181712Y-95716480D01*
X134192650Y-95785547D01*
X134194354Y-95796302D01*
X134194353Y-95796302D01*
X134251951Y-95909344D01*
X134341656Y-95999049D01*
X134341659Y-95999051D01*
X134454693Y-96056645D01*
X134454695Y-96056645D01*
X134454696Y-96056646D01*
X134548481Y-96071500D01*
X135011518Y-96071499D01*
X135105304Y-96056646D01*
X135218342Y-95999050D01*
X135308050Y-95909342D01*
X135343568Y-95839633D01*
X135383089Y-95802780D01*
X135413957Y-95796500D01*
X135848725Y-95796500D01*
X135848727Y-95796500D01*
X135950588Y-95769207D01*
X136041913Y-95716480D01*
X136044632Y-95713760D01*
X136080050Y-95693309D01*
X136096886Y-95688799D01*
X136199613Y-95629489D01*
X136283489Y-95545613D01*
X136342799Y-95442886D01*
X136373500Y-95328309D01*
X136373500Y-95209691D01*
X136342799Y-95095114D01*
X136339548Y-95089484D01*
X136285399Y-94995696D01*
X136283489Y-94992387D01*
X136283488Y-94992386D01*
X136283487Y-94992384D01*
X136199615Y-94908512D01*
X136096887Y-94849201D01*
X136096885Y-94849200D01*
X135982309Y-94818500D01*
X135863691Y-94818500D01*
X135863690Y-94818500D01*
X135749114Y-94849200D01*
X135749112Y-94849201D01*
X135646384Y-94908512D01*
X135582536Y-94972361D01*
X135566908Y-94979648D01*
X135553695Y-94990736D01*
X135536708Y-94993731D01*
X135533560Y-94995199D01*
X135526675Y-94995500D01*
X135413957Y-94995500D01*
X135363177Y-94977018D01*
X135343568Y-94952366D01*
X135308050Y-94882658D01*
X135308049Y-94882657D01*
X135308048Y-94882655D01*
X135218343Y-94792950D01*
X135218340Y-94792948D01*
X135105306Y-94735354D01*
X135105302Y-94735353D01*
X135011530Y-94720501D01*
X135011522Y-94720500D01*
X135011519Y-94720500D01*
X135011514Y-94720500D01*
X134548484Y-94720500D01*
X134472345Y-94732558D01*
X134454696Y-94735354D01*
X134399213Y-94763623D01*
X134341655Y-94792951D01*
X134251950Y-94882656D01*
X134251948Y-94882659D01*
X134194354Y-94995693D01*
X134194353Y-94995697D01*
X134179501Y-95089469D01*
X134179500Y-95089485D01*
X133730499Y-95089485D01*
X133730499Y-95089482D01*
X133715646Y-94995696D01*
X133658050Y-94882658D01*
X133658049Y-94882657D01*
X133658048Y-94882655D01*
X133568343Y-94792950D01*
X133568340Y-94792948D01*
X133455306Y-94735354D01*
X133455302Y-94735353D01*
X133361530Y-94720501D01*
X133361522Y-94720500D01*
X133361519Y-94720500D01*
X133361514Y-94720500D01*
X132898484Y-94720500D01*
X132822345Y-94732558D01*
X132804696Y-94735354D01*
X132789030Y-94743336D01*
X132735393Y-94749920D01*
X132690073Y-94720486D01*
X132674275Y-94668808D01*
X132695392Y-94619065D01*
X132697243Y-94617147D01*
X132997754Y-94316636D01*
X133046729Y-94293800D01*
X133053614Y-94293499D01*
X133361515Y-94293499D01*
X133361518Y-94293499D01*
X133455304Y-94278646D01*
X133568342Y-94221050D01*
X133658050Y-94131342D01*
X133715646Y-94018304D01*
X133730500Y-93924519D01*
X133730499Y-93311485D01*
X134179500Y-93311485D01*
X134179500Y-93924515D01*
X134194354Y-94018302D01*
X134194353Y-94018302D01*
X134251951Y-94131344D01*
X134341656Y-94221049D01*
X134341659Y-94221051D01*
X134454693Y-94278645D01*
X134454695Y-94278645D01*
X134454696Y-94278646D01*
X134548481Y-94293500D01*
X135011518Y-94293499D01*
X135105304Y-94278646D01*
X135218342Y-94221050D01*
X135308050Y-94131342D01*
X135318091Y-94111634D01*
X135357613Y-94074780D01*
X135388481Y-94068500D01*
X135509307Y-94068500D01*
X135509309Y-94068500D01*
X135623886Y-94037799D01*
X135726613Y-93978489D01*
X135810489Y-93894613D01*
X135869799Y-93791886D01*
X135900500Y-93677309D01*
X135900500Y-93558691D01*
X135869799Y-93444114D01*
X135853229Y-93415415D01*
X135810487Y-93341384D01*
X135726615Y-93257512D01*
X135623887Y-93198201D01*
X135623885Y-93198200D01*
X135509309Y-93167500D01*
X135390691Y-93167500D01*
X135388481Y-93167500D01*
X135337701Y-93149018D01*
X135318091Y-93124365D01*
X135308050Y-93104658D01*
X135308049Y-93104657D01*
X135308048Y-93104655D01*
X135218343Y-93014950D01*
X135218340Y-93014948D01*
X135105306Y-92957354D01*
X135105302Y-92957353D01*
X135011530Y-92942501D01*
X135011522Y-92942500D01*
X135011519Y-92942500D01*
X135011514Y-92942500D01*
X134548484Y-92942500D01*
X134472345Y-92954558D01*
X134454696Y-92957354D01*
X134408583Y-92980850D01*
X134341655Y-93014951D01*
X134251950Y-93104656D01*
X134251948Y-93104659D01*
X134194354Y-93217693D01*
X134194353Y-93217697D01*
X134179501Y-93311469D01*
X134179500Y-93311485D01*
X133730499Y-93311485D01*
X133730499Y-93311482D01*
X133715646Y-93217696D01*
X133658050Y-93104658D01*
X133658049Y-93104657D01*
X133658048Y-93104655D01*
X133568345Y-93014952D01*
X133563314Y-93011297D01*
X133565222Y-93008669D01*
X133536717Y-92977976D01*
X133530500Y-92947257D01*
X133530500Y-92748086D01*
X133548982Y-92697306D01*
X133568163Y-92682050D01*
X133567912Y-92681705D01*
X133572943Y-92678049D01*
X133662649Y-92588343D01*
X133662651Y-92588340D01*
X133720245Y-92475306D01*
X133720245Y-92475305D01*
X133720246Y-92475304D01*
X133735100Y-92381519D01*
X133735099Y-91768482D01*
X133720246Y-91674696D01*
X133662650Y-91561658D01*
X133662649Y-91561657D01*
X133662648Y-91561655D01*
X133572943Y-91471950D01*
X133572940Y-91471948D01*
X133459906Y-91414354D01*
X133459902Y-91414353D01*
X133366130Y-91399501D01*
X133366122Y-91399500D01*
X133366119Y-91399500D01*
X133366114Y-91399500D01*
X132903084Y-91399500D01*
X132826945Y-91411558D01*
X132809296Y-91414354D01*
X132753813Y-91442623D01*
X132696255Y-91471951D01*
X132606550Y-91561656D01*
X132606548Y-91561659D01*
X132548954Y-91674693D01*
X132548953Y-91674697D01*
X132534101Y-91768469D01*
X132534100Y-91768485D01*
X132534100Y-92381515D01*
X132548954Y-92475302D01*
X132548953Y-92475302D01*
X132606551Y-92588344D01*
X132696249Y-92678042D01*
X132696252Y-92678044D01*
X132696258Y-92678050D01*
X132696264Y-92678053D01*
X132696925Y-92678533D01*
X132697308Y-92679101D01*
X132700654Y-92682447D01*
X132700004Y-92683096D01*
X132727150Y-92723329D01*
X132729500Y-92742453D01*
X132729500Y-92947257D01*
X132711018Y-92998037D01*
X132695841Y-93010134D01*
X132696686Y-93011297D01*
X132691654Y-93014952D01*
X132601950Y-93104656D01*
X132601948Y-93104659D01*
X132544354Y-93217693D01*
X132544353Y-93217697D01*
X132529501Y-93311469D01*
X132529500Y-93311485D01*
X132529500Y-93619385D01*
X132511018Y-93670165D01*
X132506361Y-93675246D01*
X131159246Y-95022361D01*
X131110270Y-95045199D01*
X131103385Y-95045500D01*
X129800738Y-95045500D01*
X129732604Y-95055427D01*
X129627516Y-95106802D01*
X129627512Y-95106805D01*
X129544805Y-95189512D01*
X129544802Y-95189516D01*
X129493427Y-95294604D01*
X129483500Y-95362738D01*
X125843500Y-95362738D01*
X125843500Y-80818485D01*
X126474500Y-80818485D01*
X126474500Y-81281515D01*
X126483763Y-81340005D01*
X126488720Y-81371303D01*
X126489354Y-81375302D01*
X126489353Y-81375302D01*
X126546951Y-81488344D01*
X126636656Y-81578049D01*
X126636659Y-81578051D01*
X126749693Y-81635645D01*
X126749695Y-81635645D01*
X126749696Y-81635646D01*
X126843481Y-81650500D01*
X127456518Y-81650499D01*
X127550304Y-81635646D01*
X127663342Y-81578050D01*
X127753050Y-81488342D01*
X127810646Y-81375304D01*
X127825500Y-81281519D01*
X127825499Y-80902904D01*
X127831397Y-80886697D01*
X127832901Y-80869518D01*
X127842791Y-80855393D01*
X127843981Y-80852125D01*
X127848638Y-80847044D01*
X127939639Y-80756043D01*
X127988615Y-80733205D01*
X128040813Y-80747191D01*
X128071808Y-80791457D01*
X128074500Y-80811904D01*
X128074500Y-81276515D01*
X128089354Y-81370302D01*
X128089353Y-81370302D01*
X128146951Y-81483344D01*
X128236656Y-81573049D01*
X128236659Y-81573051D01*
X128349693Y-81630645D01*
X128349695Y-81630645D01*
X128349696Y-81630646D01*
X128443481Y-81645500D01*
X129056518Y-81645499D01*
X129150304Y-81630646D01*
X129263342Y-81573050D01*
X129353050Y-81483342D01*
X129410137Y-81371303D01*
X129410645Y-81370306D01*
X129410645Y-81370305D01*
X129410646Y-81370304D01*
X129425500Y-81276519D01*
X129425499Y-80813482D01*
X129410646Y-80719696D01*
X129353050Y-80606658D01*
X129353049Y-80606657D01*
X129353048Y-80606655D01*
X129263343Y-80516950D01*
X129263340Y-80516948D01*
X129150306Y-80459354D01*
X129150302Y-80459353D01*
X129056530Y-80444501D01*
X129056522Y-80444500D01*
X129056519Y-80444500D01*
X129056514Y-80444500D01*
X129047500Y-80444500D01*
X129028212Y-80437480D01*
X129008000Y-80433916D01*
X129003418Y-80428455D01*
X128996720Y-80426018D01*
X128986458Y-80408243D01*
X128973264Y-80392520D01*
X128971454Y-80382256D01*
X128969700Y-80379218D01*
X128968500Y-80365500D01*
X128968500Y-80255621D01*
X128986982Y-80204841D01*
X129033782Y-80177821D01*
X129036492Y-80177449D01*
X129037744Y-80177200D01*
X129037748Y-80177200D01*
X129096231Y-80165567D01*
X129162552Y-80121252D01*
X129206867Y-80054931D01*
X129218500Y-79996448D01*
X129218500Y-78756952D01*
X129206867Y-78698469D01*
X129162552Y-78632148D01*
X129096231Y-78587833D01*
X129096230Y-78587832D01*
X129096231Y-78587832D01*
X129037748Y-78576200D01*
X128398252Y-78576200D01*
X128339768Y-78587832D01*
X128339767Y-78587833D01*
X128286890Y-78623165D01*
X128234399Y-78636009D01*
X128199110Y-78623165D01*
X128146232Y-78587833D01*
X128146231Y-78587832D01*
X128087748Y-78576200D01*
X127448252Y-78576200D01*
X127389769Y-78587832D01*
X127323448Y-78632148D01*
X127279132Y-78698469D01*
X127267500Y-78756952D01*
X127267500Y-79996447D01*
X127279132Y-80054930D01*
X127304186Y-80092424D01*
X127317500Y-80136315D01*
X127317500Y-80354094D01*
X127311601Y-80370301D01*
X127310098Y-80387481D01*
X127300207Y-80401605D01*
X127299018Y-80404874D01*
X127294361Y-80409955D01*
X127277955Y-80426361D01*
X127228979Y-80449199D01*
X127222094Y-80449500D01*
X126843484Y-80449500D01*
X126767345Y-80461558D01*
X126749696Y-80464354D01*
X126726783Y-80476029D01*
X126636655Y-80521951D01*
X126546950Y-80611656D01*
X126546948Y-80611659D01*
X126489354Y-80724693D01*
X126489353Y-80724697D01*
X126474501Y-80818469D01*
X126474500Y-80818485D01*
X125843500Y-80818485D01*
X125843500Y-76956952D01*
X127267500Y-76956952D01*
X127267500Y-78196447D01*
X127279132Y-78254930D01*
X127279133Y-78254931D01*
X127323448Y-78321252D01*
X127389769Y-78365567D01*
X127389768Y-78365567D01*
X127448252Y-78377200D01*
X128087748Y-78377200D01*
X128146231Y-78365567D01*
X128199110Y-78330233D01*
X128251600Y-78317389D01*
X128286889Y-78330233D01*
X128339769Y-78365567D01*
X128339768Y-78365567D01*
X128398252Y-78377200D01*
X129037748Y-78377200D01*
X129096231Y-78365567D01*
X129162552Y-78321252D01*
X129206867Y-78254931D01*
X129218500Y-78196448D01*
X129218500Y-76956952D01*
X129206867Y-76898469D01*
X129162552Y-76832148D01*
X129096231Y-76787833D01*
X129096230Y-76787832D01*
X129096231Y-76787832D01*
X129037748Y-76776200D01*
X128398252Y-76776200D01*
X128339768Y-76787832D01*
X128339767Y-76787833D01*
X128286890Y-76823165D01*
X128234399Y-76836009D01*
X128199110Y-76823165D01*
X128146232Y-76787833D01*
X128146231Y-76787832D01*
X128087748Y-76776200D01*
X127448252Y-76776200D01*
X127389769Y-76787832D01*
X127323448Y-76832148D01*
X127279132Y-76898469D01*
X127267500Y-76956952D01*
X125843500Y-76956952D01*
X125843500Y-75400500D01*
X125861982Y-75349720D01*
X125908782Y-75322700D01*
X125922500Y-75321500D01*
X126438015Y-75321500D01*
X126446011Y-75324410D01*
G37*
%TD.AperFunction*%
%TD*%
%TA.AperFunction,Conductor*%
%TO.N,GNDS*%
G36*
X146472359Y-75341185D02*
G01*
X146518114Y-75393989D01*
X146523250Y-75407179D01*
X146552432Y-75496992D01*
X146659657Y-75707433D01*
X146798483Y-75898510D01*
X146965490Y-76065517D01*
X147156567Y-76204343D01*
X147229714Y-76241613D01*
X147367003Y-76311566D01*
X147367005Y-76311566D01*
X147367008Y-76311568D01*
X147487412Y-76350689D01*
X147591631Y-76384553D01*
X147824903Y-76421500D01*
X147824908Y-76421500D01*
X148061097Y-76421500D01*
X148294368Y-76384553D01*
X148518992Y-76311568D01*
X148729433Y-76204343D01*
X148920510Y-76065517D01*
X149087517Y-75898510D01*
X149226343Y-75707433D01*
X149333568Y-75496992D01*
X149362749Y-75407181D01*
X149402187Y-75349506D01*
X149466545Y-75322308D01*
X149480680Y-75321500D01*
X156405320Y-75321500D01*
X156472359Y-75341185D01*
X156518114Y-75393989D01*
X156523250Y-75407179D01*
X156552432Y-75496992D01*
X156659657Y-75707433D01*
X156798483Y-75898510D01*
X156965490Y-76065517D01*
X157156567Y-76204343D01*
X157229714Y-76241613D01*
X157367003Y-76311566D01*
X157367005Y-76311566D01*
X157367008Y-76311568D01*
X157487412Y-76350689D01*
X157591631Y-76384553D01*
X157824903Y-76421500D01*
X157824908Y-76421500D01*
X158061097Y-76421500D01*
X158294368Y-76384553D01*
X158518992Y-76311568D01*
X158729433Y-76204343D01*
X158920510Y-76065517D01*
X159087517Y-75898510D01*
X159226343Y-75707433D01*
X159333568Y-75496992D01*
X159362749Y-75407181D01*
X159402187Y-75349506D01*
X159466545Y-75322308D01*
X159480680Y-75321500D01*
X166405320Y-75321500D01*
X166472359Y-75341185D01*
X166518114Y-75393989D01*
X166523250Y-75407179D01*
X166552432Y-75496992D01*
X166659657Y-75707433D01*
X166798483Y-75898510D01*
X166965490Y-76065517D01*
X167156567Y-76204343D01*
X167229714Y-76241613D01*
X167367003Y-76311566D01*
X167367005Y-76311566D01*
X167367008Y-76311568D01*
X167487412Y-76350689D01*
X167591631Y-76384553D01*
X167824903Y-76421500D01*
X167824908Y-76421500D01*
X168061097Y-76421500D01*
X168294368Y-76384553D01*
X168518992Y-76311568D01*
X168729433Y-76204343D01*
X168920510Y-76065517D01*
X169087517Y-75898510D01*
X169226343Y-75707433D01*
X169333568Y-75496992D01*
X169362749Y-75407181D01*
X169402187Y-75349506D01*
X169466545Y-75322308D01*
X169480680Y-75321500D01*
X174918500Y-75321500D01*
X174985539Y-75341185D01*
X175031294Y-75393989D01*
X175042500Y-75445500D01*
X175042500Y-79421500D01*
X175022815Y-79488539D01*
X174970011Y-79534294D01*
X174918500Y-79545500D01*
X168940273Y-79545500D01*
X168838413Y-79572793D01*
X168838410Y-79572794D01*
X168747085Y-79625521D01*
X168672521Y-79700085D01*
X168619794Y-79791410D01*
X168619793Y-79791413D01*
X168592500Y-79893273D01*
X168592500Y-81371500D01*
X168572815Y-81438539D01*
X168520011Y-81484294D01*
X168468500Y-81495500D01*
X165596747Y-81495500D01*
X165538270Y-81507131D01*
X165538269Y-81507132D01*
X165471947Y-81551447D01*
X165427632Y-81617769D01*
X165427631Y-81617770D01*
X165416000Y-81676247D01*
X165416000Y-81687247D01*
X165396315Y-81754286D01*
X165343511Y-81800041D01*
X165292000Y-81811247D01*
X164356526Y-81811247D01*
X164289487Y-81791562D01*
X164256755Y-81760879D01*
X164254153Y-81757354D01*
X164254152Y-81757353D01*
X164254150Y-81757350D01*
X164144882Y-81676707D01*
X164144880Y-81676706D01*
X164016700Y-81631853D01*
X163986270Y-81629000D01*
X163986266Y-81629000D01*
X162977734Y-81629000D01*
X162977730Y-81629000D01*
X162947300Y-81631853D01*
X162947298Y-81631853D01*
X162819119Y-81676706D01*
X162819117Y-81676707D01*
X162709850Y-81757350D01*
X162629207Y-81866617D01*
X162629206Y-81866619D01*
X162584353Y-81994798D01*
X162584353Y-81994800D01*
X162581500Y-82025230D01*
X162581500Y-82783769D01*
X162584353Y-82814199D01*
X162584353Y-82814201D01*
X162629206Y-82942380D01*
X162629207Y-82942382D01*
X162690449Y-83025363D01*
X162709851Y-83051651D01*
X162800880Y-83118833D01*
X162843131Y-83174480D01*
X162851247Y-83218603D01*
X162851247Y-85045255D01*
X162837733Y-85101548D01*
X162822279Y-85131877D01*
X162806500Y-85231506D01*
X162806500Y-85748493D01*
X162822279Y-85848121D01*
X162822280Y-85848124D01*
X162822281Y-85848126D01*
X162876991Y-85955500D01*
X162883473Y-85968221D01*
X162883476Y-85968225D01*
X162978774Y-86063523D01*
X162978778Y-86063526D01*
X162978780Y-86063528D01*
X163098874Y-86124719D01*
X163098876Y-86124719D01*
X163098878Y-86124720D01*
X163198507Y-86140500D01*
X163198512Y-86140500D01*
X163765493Y-86140500D01*
X163865121Y-86124720D01*
X163865121Y-86124719D01*
X163865126Y-86124719D01*
X163985220Y-86063528D01*
X164080528Y-85968220D01*
X164141719Y-85848126D01*
X164142257Y-85844728D01*
X164157500Y-85748493D01*
X164157500Y-85231506D01*
X164141720Y-85131877D01*
X164141719Y-85131875D01*
X164141719Y-85131874D01*
X164126266Y-85101547D01*
X164112753Y-85045255D01*
X164112753Y-83218603D01*
X164114161Y-83213807D01*
X164113132Y-83208916D01*
X164123907Y-83180615D01*
X164132438Y-83151564D01*
X164136700Y-83147017D01*
X164137994Y-83143619D01*
X164163120Y-83118833D01*
X164192726Y-83096983D01*
X164258355Y-83073012D01*
X164266359Y-83072753D01*
X165295738Y-83072753D01*
X165362777Y-83092438D01*
X165408532Y-83145242D01*
X165417354Y-83172557D01*
X165423771Y-83204815D01*
X165427633Y-83224232D01*
X165471947Y-83290552D01*
X165538269Y-83334867D01*
X165538270Y-83334868D01*
X165596747Y-83346499D01*
X165596750Y-83346500D01*
X165596752Y-83346500D01*
X168468500Y-83346500D01*
X168535539Y-83366185D01*
X168581294Y-83418989D01*
X168592500Y-83470500D01*
X168592500Y-84843273D01*
X168592500Y-84948727D01*
X168619793Y-85050587D01*
X168672520Y-85141913D01*
X168747087Y-85216480D01*
X168838413Y-85269207D01*
X168940273Y-85296500D01*
X174918500Y-85296500D01*
X174985539Y-85316185D01*
X175031294Y-85368989D01*
X175042500Y-85420500D01*
X175042500Y-94421500D01*
X175022815Y-94488539D01*
X174970011Y-94534294D01*
X174918500Y-94545500D01*
X168940273Y-94545500D01*
X168838413Y-94572793D01*
X168838410Y-94572794D01*
X168747085Y-94625521D01*
X168672521Y-94700085D01*
X168619794Y-94791410D01*
X168619793Y-94791413D01*
X168592500Y-94893273D01*
X168592500Y-96371500D01*
X168572815Y-96438539D01*
X168520011Y-96484294D01*
X168468500Y-96495500D01*
X165596747Y-96495500D01*
X165538270Y-96507131D01*
X165538269Y-96507132D01*
X165471947Y-96551447D01*
X165427632Y-96617769D01*
X165427631Y-96617770D01*
X165416000Y-96676244D01*
X165415788Y-96678404D01*
X165415360Y-96679461D01*
X165414811Y-96682226D01*
X165414286Y-96682121D01*
X165389625Y-96743191D01*
X165332590Y-96783548D01*
X165292385Y-96790247D01*
X164256875Y-96790247D01*
X164236019Y-96784123D01*
X164214331Y-96782720D01*
X164193949Y-96771769D01*
X164189836Y-96770562D01*
X164183240Y-96766016D01*
X164163118Y-96751165D01*
X164120868Y-96695518D01*
X164112753Y-96651396D01*
X164112753Y-94469743D01*
X164126268Y-94413449D01*
X164141719Y-94383126D01*
X164143035Y-94374819D01*
X164157500Y-94283493D01*
X164157500Y-93766506D01*
X164141720Y-93666878D01*
X164141719Y-93666876D01*
X164141719Y-93666874D01*
X164080528Y-93546780D01*
X164080526Y-93546778D01*
X164080523Y-93546774D01*
X163985225Y-93451476D01*
X163985221Y-93451473D01*
X163985220Y-93451472D01*
X163865126Y-93390281D01*
X163865124Y-93390280D01*
X163865121Y-93390279D01*
X163765493Y-93374500D01*
X163765488Y-93374500D01*
X163198512Y-93374500D01*
X163198507Y-93374500D01*
X163098878Y-93390279D01*
X162978778Y-93451473D01*
X162978774Y-93451476D01*
X162883476Y-93546774D01*
X162883473Y-93546778D01*
X162822279Y-93666878D01*
X162806500Y-93766506D01*
X162806500Y-94283493D01*
X162822279Y-94383122D01*
X162822280Y-94383125D01*
X162822281Y-94383126D01*
X162837731Y-94413449D01*
X162851247Y-94469743D01*
X162851247Y-96651396D01*
X162831562Y-96718435D01*
X162800881Y-96751166D01*
X162709850Y-96818350D01*
X162629207Y-96927617D01*
X162629206Y-96927619D01*
X162584353Y-97055798D01*
X162584353Y-97055800D01*
X162581500Y-97086230D01*
X162581500Y-97844769D01*
X162584353Y-97875199D01*
X162584353Y-97875201D01*
X162629206Y-98003380D01*
X162629207Y-98003382D01*
X162709850Y-98112650D01*
X162819118Y-98193293D01*
X162861845Y-98208244D01*
X162947299Y-98238146D01*
X162977730Y-98241000D01*
X162977734Y-98241000D01*
X163986270Y-98241000D01*
X164016699Y-98238146D01*
X164016701Y-98238146D01*
X164080790Y-98215719D01*
X164144882Y-98193293D01*
X164254150Y-98112650D01*
X164261924Y-98102116D01*
X164317570Y-98059868D01*
X164361692Y-98051753D01*
X165292385Y-98051753D01*
X165359424Y-98071438D01*
X165405179Y-98124242D01*
X165414760Y-98159784D01*
X165414811Y-98159774D01*
X165414961Y-98160528D01*
X165415788Y-98163596D01*
X165416000Y-98165755D01*
X165427631Y-98224229D01*
X165427632Y-98224230D01*
X165471947Y-98290552D01*
X165538269Y-98334867D01*
X165538270Y-98334868D01*
X165596747Y-98346499D01*
X165596750Y-98346500D01*
X165596752Y-98346500D01*
X168468500Y-98346500D01*
X168535539Y-98366185D01*
X168581294Y-98418989D01*
X168592500Y-98470500D01*
X168592500Y-99843273D01*
X168592500Y-99948727D01*
X168619793Y-100050587D01*
X168672520Y-100141913D01*
X168747087Y-100216480D01*
X168838413Y-100269207D01*
X168940273Y-100296500D01*
X174918500Y-100296500D01*
X174985539Y-100316185D01*
X175031294Y-100368989D01*
X175042500Y-100420500D01*
X175042500Y-104396500D01*
X175022815Y-104463539D01*
X174970011Y-104509294D01*
X174918500Y-104520500D01*
X169480680Y-104520500D01*
X169413641Y-104500815D01*
X169367886Y-104448011D01*
X169362749Y-104434818D01*
X169333568Y-104345008D01*
X169226343Y-104134567D01*
X169087517Y-103943490D01*
X168920510Y-103776483D01*
X168729433Y-103637657D01*
X168639220Y-103591691D01*
X168518996Y-103530433D01*
X168294368Y-103457446D01*
X168061097Y-103420500D01*
X168061092Y-103420500D01*
X167824908Y-103420500D01*
X167824903Y-103420500D01*
X167591631Y-103457446D01*
X167367003Y-103530433D01*
X167156566Y-103637657D01*
X167056570Y-103710309D01*
X166965490Y-103776483D01*
X166965488Y-103776485D01*
X166965487Y-103776485D01*
X166798485Y-103943487D01*
X166798485Y-103943488D01*
X166798483Y-103943490D01*
X166749079Y-104011489D01*
X166659657Y-104134566D01*
X166552433Y-104345005D01*
X166523251Y-104434818D01*
X166483813Y-104492494D01*
X166419455Y-104519692D01*
X166405320Y-104520500D01*
X159480680Y-104520500D01*
X159413641Y-104500815D01*
X159367886Y-104448011D01*
X159362749Y-104434818D01*
X159333568Y-104345008D01*
X159226343Y-104134567D01*
X159087517Y-103943490D01*
X158920510Y-103776483D01*
X158729433Y-103637657D01*
X158639220Y-103591691D01*
X158518996Y-103530433D01*
X158294368Y-103457446D01*
X158061097Y-103420500D01*
X158061092Y-103420500D01*
X157824908Y-103420500D01*
X157824903Y-103420500D01*
X157591631Y-103457446D01*
X157367003Y-103530433D01*
X157156566Y-103637657D01*
X157056570Y-103710309D01*
X156965490Y-103776483D01*
X156965488Y-103776485D01*
X156965487Y-103776485D01*
X156798485Y-103943487D01*
X156798485Y-103943488D01*
X156798483Y-103943490D01*
X156749079Y-104011489D01*
X156659657Y-104134566D01*
X156552433Y-104345005D01*
X156523251Y-104434818D01*
X156483813Y-104492494D01*
X156419455Y-104519692D01*
X156405320Y-104520500D01*
X149480680Y-104520500D01*
X149413641Y-104500815D01*
X149367886Y-104448011D01*
X149362749Y-104434818D01*
X149333568Y-104345008D01*
X149226343Y-104134567D01*
X149087517Y-103943490D01*
X148920510Y-103776483D01*
X148729433Y-103637657D01*
X148639220Y-103591691D01*
X148518996Y-103530433D01*
X148294368Y-103457446D01*
X148061097Y-103420500D01*
X148061092Y-103420500D01*
X147824908Y-103420500D01*
X147824903Y-103420500D01*
X147591631Y-103457446D01*
X147367003Y-103530433D01*
X147156566Y-103637657D01*
X147056570Y-103710309D01*
X146965490Y-103776483D01*
X146965488Y-103776485D01*
X146965487Y-103776485D01*
X146798485Y-103943487D01*
X146798485Y-103943488D01*
X146798483Y-103943490D01*
X146749079Y-104011489D01*
X146659657Y-104134566D01*
X146552433Y-104345005D01*
X146523251Y-104434818D01*
X146509301Y-104455219D01*
X146499033Y-104477703D01*
X146489924Y-104483556D01*
X146483813Y-104492494D01*
X146461046Y-104502115D01*
X146440255Y-104515477D01*
X146423846Y-104517836D01*
X146419455Y-104519692D01*
X146405320Y-104520500D01*
X146324000Y-104520500D01*
X146256961Y-104500815D01*
X146211206Y-104448011D01*
X146200000Y-104396500D01*
X146200000Y-97231230D01*
X149246500Y-97231230D01*
X149246500Y-97989769D01*
X149249353Y-98020199D01*
X149249353Y-98020201D01*
X149294206Y-98148380D01*
X149294207Y-98148382D01*
X149374850Y-98257650D01*
X149484118Y-98338293D01*
X149526845Y-98353244D01*
X149612299Y-98383146D01*
X149638893Y-98385640D01*
X149662213Y-98394929D01*
X149686743Y-98400266D01*
X149699406Y-98409746D01*
X149703802Y-98411497D01*
X149714997Y-98421417D01*
X149744918Y-98451338D01*
X149744919Y-98451339D01*
X149894869Y-98601289D01*
X149901103Y-98607523D01*
X149901121Y-98607539D01*
X149954294Y-98660711D01*
X149969251Y-98675668D01*
X149969260Y-98675685D01*
X150091679Y-98798104D01*
X150275718Y-98944869D01*
X150275727Y-98944875D01*
X150275733Y-98944880D01*
X150475066Y-99070127D01*
X150687169Y-99172268D01*
X150687172Y-99172269D01*
X150687174Y-99172270D01*
X150735527Y-99189188D01*
X150909375Y-99250018D01*
X151138888Y-99302400D01*
X151372824Y-99328755D01*
X151490531Y-99328753D01*
X151637028Y-99328753D01*
X151659069Y-99332244D01*
X151659236Y-99331193D01*
X151768507Y-99348500D01*
X151768512Y-99348500D01*
X152335493Y-99348500D01*
X152444764Y-99331193D01*
X152444930Y-99332244D01*
X152466972Y-99328753D01*
X153087397Y-99328753D01*
X153154436Y-99348438D01*
X153187167Y-99379120D01*
X153254348Y-99470148D01*
X153254349Y-99470148D01*
X153254350Y-99470150D01*
X153363618Y-99550793D01*
X153406345Y-99565744D01*
X153491799Y-99595646D01*
X153522230Y-99598500D01*
X153522234Y-99598500D01*
X154280770Y-99598500D01*
X154311199Y-99595646D01*
X154311201Y-99595646D01*
X154375290Y-99573219D01*
X154439382Y-99550793D01*
X154548650Y-99470150D01*
X154629293Y-99360882D01*
X154657000Y-99281699D01*
X154674146Y-99232701D01*
X154674146Y-99232699D01*
X154677000Y-99202269D01*
X154677000Y-98193730D01*
X155176000Y-98193730D01*
X155176000Y-99202269D01*
X155178853Y-99232699D01*
X155178853Y-99232701D01*
X155223706Y-99360880D01*
X155223707Y-99360882D01*
X155304350Y-99470150D01*
X155413618Y-99550793D01*
X155456345Y-99565744D01*
X155541799Y-99595646D01*
X155572230Y-99598500D01*
X155572234Y-99598500D01*
X156330770Y-99598500D01*
X156361199Y-99595646D01*
X156361201Y-99595646D01*
X156425290Y-99573219D01*
X156489382Y-99550793D01*
X156598650Y-99470150D01*
X156665833Y-99379120D01*
X156721480Y-99336869D01*
X156765603Y-99328753D01*
X157550255Y-99328753D01*
X157606547Y-99342266D01*
X157636874Y-99357719D01*
X157636875Y-99357719D01*
X157636877Y-99357720D01*
X157736507Y-99373500D01*
X157736512Y-99373500D01*
X158253493Y-99373500D01*
X158353121Y-99357720D01*
X158353121Y-99357719D01*
X158353126Y-99357719D01*
X158473220Y-99296528D01*
X158568528Y-99201220D01*
X158629719Y-99081126D01*
X158631462Y-99070123D01*
X158645500Y-98981493D01*
X158645500Y-98414506D01*
X158894500Y-98414506D01*
X158894500Y-98981493D01*
X158910279Y-99081121D01*
X158910280Y-99081124D01*
X158910281Y-99081126D01*
X158971472Y-99201220D01*
X158971473Y-99201221D01*
X158971476Y-99201225D01*
X159066774Y-99296523D01*
X159066778Y-99296526D01*
X159066780Y-99296528D01*
X159186874Y-99357719D01*
X159186876Y-99357719D01*
X159186878Y-99357720D01*
X159286507Y-99373500D01*
X159286512Y-99373500D01*
X159803493Y-99373500D01*
X159903123Y-99357720D01*
X159903124Y-99357719D01*
X159903126Y-99357719D01*
X160023220Y-99296528D01*
X160026741Y-99293007D01*
X160085017Y-99260222D01*
X160184921Y-99235835D01*
X160427640Y-99144999D01*
X160657896Y-99026062D01*
X160860405Y-98888859D01*
X160874355Y-98881347D01*
X160874194Y-98881045D01*
X160879562Y-98878175D01*
X160879566Y-98878174D01*
X160982873Y-98809146D01*
X161443767Y-98348252D01*
X161443768Y-98348249D01*
X161448067Y-98343951D01*
X161448325Y-98343664D01*
X161518799Y-98273194D01*
X161732288Y-98013062D01*
X161889206Y-97778223D01*
X161919245Y-97733268D01*
X161919247Y-97733264D01*
X161919252Y-97733257D01*
X162077889Y-97436474D01*
X162206673Y-97125571D01*
X162304363Y-96803541D01*
X162370018Y-96473487D01*
X162403005Y-96138587D01*
X162403006Y-95970327D01*
X162403007Y-95893740D01*
X162403006Y-95893735D01*
X162403006Y-95775876D01*
X162378767Y-95654016D01*
X162331219Y-95539226D01*
X162331218Y-95539225D01*
X162331215Y-95539219D01*
X162262191Y-95435918D01*
X162262188Y-95435914D01*
X162174338Y-95348064D01*
X162174334Y-95348061D01*
X162071033Y-95279037D01*
X162071024Y-95279032D01*
X161956237Y-95231486D01*
X161956229Y-95231484D01*
X161834381Y-95207247D01*
X161834377Y-95207247D01*
X161710129Y-95207247D01*
X161710124Y-95207247D01*
X161588276Y-95231484D01*
X161588268Y-95231486D01*
X161473480Y-95279033D01*
X161473477Y-95279034D01*
X161422179Y-95313309D01*
X161403380Y-95323639D01*
X161319234Y-95360794D01*
X161239793Y-95440236D01*
X161194415Y-95543006D01*
X161194415Y-95543008D01*
X161191500Y-95568131D01*
X161191294Y-95571704D01*
X161191087Y-95571692D01*
X161191087Y-95571694D01*
X161191053Y-95571690D01*
X161190603Y-95571664D01*
X161182061Y-95614611D01*
X161165740Y-95654012D01*
X161165737Y-95654024D01*
X161141500Y-95775871D01*
X161141500Y-95966834D01*
X161141305Y-95973788D01*
X161128284Y-96205599D01*
X161126727Y-96219417D01*
X161088417Y-96444881D01*
X161085323Y-96458437D01*
X161022015Y-96678178D01*
X161017422Y-96691304D01*
X160929899Y-96902597D01*
X160923865Y-96915125D01*
X160813245Y-97115272D01*
X160805847Y-97127046D01*
X160673510Y-97313555D01*
X160664840Y-97324427D01*
X160509873Y-97497831D01*
X160505095Y-97502884D01*
X160243587Y-97764392D01*
X160231658Y-97774882D01*
X160222562Y-97781900D01*
X160201984Y-97792419D01*
X160145642Y-97841254D01*
X160142831Y-97843424D01*
X160142474Y-97843563D01*
X160139646Y-97845802D01*
X160020510Y-97931784D01*
X160001557Y-97943045D01*
X159874102Y-98004161D01*
X159853456Y-98011888D01*
X159831161Y-98018037D01*
X159798193Y-98022500D01*
X159286507Y-98022500D01*
X159186878Y-98038279D01*
X159066778Y-98099473D01*
X159066774Y-98099476D01*
X158971476Y-98194774D01*
X158971473Y-98194778D01*
X158910279Y-98314878D01*
X158894500Y-98414506D01*
X158645500Y-98414506D01*
X158629720Y-98314878D01*
X158629719Y-98314876D01*
X158629719Y-98314874D01*
X158568528Y-98194780D01*
X158568526Y-98194778D01*
X158568523Y-98194774D01*
X158473225Y-98099476D01*
X158473221Y-98099473D01*
X158473220Y-98099472D01*
X158353126Y-98038281D01*
X158353124Y-98038280D01*
X158353121Y-98038279D01*
X158253493Y-98022500D01*
X158253488Y-98022500D01*
X157736512Y-98022500D01*
X157736507Y-98022500D01*
X157636877Y-98038279D01*
X157606548Y-98053733D01*
X157550255Y-98067247D01*
X156765603Y-98067247D01*
X156698564Y-98047562D01*
X156665833Y-98016880D01*
X156598651Y-97925851D01*
X156489382Y-97845207D01*
X156489380Y-97845206D01*
X156361200Y-97800353D01*
X156330770Y-97797500D01*
X156330766Y-97797500D01*
X155572234Y-97797500D01*
X155572230Y-97797500D01*
X155541800Y-97800353D01*
X155541798Y-97800353D01*
X155413619Y-97845206D01*
X155413617Y-97845207D01*
X155304350Y-97925850D01*
X155223707Y-98035117D01*
X155223706Y-98035119D01*
X155178853Y-98163298D01*
X155178853Y-98163300D01*
X155176000Y-98193730D01*
X154677000Y-98193730D01*
X154674146Y-98163300D01*
X154674146Y-98163298D01*
X154636941Y-98056975D01*
X154629293Y-98035118D01*
X154548650Y-97925850D01*
X154439382Y-97845207D01*
X154439380Y-97845206D01*
X154311200Y-97800353D01*
X154280770Y-97797500D01*
X154280766Y-97797500D01*
X153522234Y-97797500D01*
X153522230Y-97797500D01*
X153491800Y-97800353D01*
X153491798Y-97800353D01*
X153363619Y-97845206D01*
X153363617Y-97845207D01*
X153254348Y-97925851D01*
X153187167Y-98016880D01*
X153131520Y-98059131D01*
X153087397Y-98067247D01*
X152466972Y-98067247D01*
X152444930Y-98063755D01*
X152444764Y-98064807D01*
X152335493Y-98047500D01*
X152335488Y-98047500D01*
X151768512Y-98047500D01*
X151768507Y-98047500D01*
X151659236Y-98064807D01*
X151659119Y-98064070D01*
X151637028Y-98067247D01*
X151574711Y-98067247D01*
X151574695Y-98067246D01*
X151495384Y-98067246D01*
X151485657Y-98066864D01*
X151369702Y-98057740D01*
X151350484Y-98054696D01*
X151242145Y-98028688D01*
X151223638Y-98022675D01*
X151124048Y-97981424D01*
X151069644Y-97937583D01*
X151047579Y-97871289D01*
X151047500Y-97866863D01*
X151047500Y-97231230D01*
X151044646Y-97200800D01*
X151044646Y-97200798D01*
X150999793Y-97072619D01*
X150999792Y-97072617D01*
X150919150Y-96963350D01*
X150809882Y-96882707D01*
X150809880Y-96882706D01*
X150681700Y-96837853D01*
X150651270Y-96835000D01*
X150651266Y-96835000D01*
X149642734Y-96835000D01*
X149642730Y-96835000D01*
X149612300Y-96837853D01*
X149612298Y-96837853D01*
X149484119Y-96882706D01*
X149484117Y-96882707D01*
X149374850Y-96963350D01*
X149294207Y-97072617D01*
X149294206Y-97072619D01*
X149249353Y-97200798D01*
X149249353Y-97200800D01*
X149246500Y-97231230D01*
X146200000Y-97231230D01*
X146200000Y-95181230D01*
X149246500Y-95181230D01*
X149246500Y-95939769D01*
X149249353Y-95970199D01*
X149249353Y-95970201D01*
X149294206Y-96098380D01*
X149294207Y-96098382D01*
X149374850Y-96207650D01*
X149484118Y-96288293D01*
X149526845Y-96303244D01*
X149612299Y-96333146D01*
X149642730Y-96336000D01*
X149642734Y-96336000D01*
X150651270Y-96336000D01*
X150681699Y-96333146D01*
X150681701Y-96333146D01*
X150745790Y-96310719D01*
X150809882Y-96288293D01*
X150919150Y-96207650D01*
X150999793Y-96098382D01*
X151024002Y-96029196D01*
X151044646Y-95970201D01*
X151044646Y-95970199D01*
X151047500Y-95939769D01*
X151047500Y-95376671D01*
X153080247Y-95376671D01*
X153080247Y-95500928D01*
X153104484Y-95622776D01*
X153104486Y-95622784D01*
X153152032Y-95737571D01*
X153221061Y-95840881D01*
X153236696Y-95856516D01*
X153236698Y-95856519D01*
X153254525Y-95874346D01*
X153254550Y-95874391D01*
X153375459Y-95995296D01*
X153548126Y-96132991D01*
X153562570Y-96144509D01*
X153765211Y-96271834D01*
X153980834Y-96375670D01*
X153980837Y-96375671D01*
X153980839Y-96375672D01*
X154013143Y-96386975D01*
X154206727Y-96454710D01*
X154440050Y-96507962D01*
X154677867Y-96534754D01*
X154797528Y-96534753D01*
X156026255Y-96534753D01*
X156082547Y-96548266D01*
X156112874Y-96563719D01*
X156112875Y-96563719D01*
X156112877Y-96563720D01*
X156212507Y-96579500D01*
X156212512Y-96579500D01*
X156729493Y-96579500D01*
X156829121Y-96563720D01*
X156829121Y-96563719D01*
X156829126Y-96563719D01*
X156949220Y-96502528D01*
X157044528Y-96407220D01*
X157105719Y-96287126D01*
X157113854Y-96235765D01*
X157121500Y-96187493D01*
X157121500Y-95620506D01*
X157370500Y-95620506D01*
X157370500Y-96187493D01*
X157386279Y-96287121D01*
X157386280Y-96287124D01*
X157386281Y-96287126D01*
X157438667Y-96389939D01*
X157447473Y-96407221D01*
X157447476Y-96407225D01*
X157542774Y-96502523D01*
X157542778Y-96502526D01*
X157542780Y-96502528D01*
X157662874Y-96563719D01*
X157662876Y-96563719D01*
X157662878Y-96563720D01*
X157762507Y-96579500D01*
X157762512Y-96579500D01*
X158279493Y-96579500D01*
X158379123Y-96563720D01*
X158379124Y-96563719D01*
X158379126Y-96563719D01*
X158417300Y-96544267D01*
X158473595Y-96530753D01*
X160062125Y-96530753D01*
X160062126Y-96530752D01*
X160183984Y-96506514D01*
X160298774Y-96458966D01*
X160402082Y-96389938D01*
X160402085Y-96389934D01*
X160405692Y-96386975D01*
X160453925Y-96366484D01*
X160452987Y-96363035D01*
X160461984Y-96360585D01*
X160461991Y-96360585D01*
X160564765Y-96315206D01*
X160644206Y-96235765D01*
X160689585Y-96132991D01*
X160692500Y-96107865D01*
X160692499Y-95568136D01*
X160692497Y-95568117D01*
X160689586Y-95543012D01*
X160689585Y-95543010D01*
X160689585Y-95543009D01*
X160644206Y-95440235D01*
X160564765Y-95360794D01*
X160535930Y-95348062D01*
X160461992Y-95315415D01*
X160436868Y-95312500D01*
X160436865Y-95312500D01*
X160254554Y-95312500D01*
X160207101Y-95303061D01*
X160183990Y-95293488D01*
X160183978Y-95293484D01*
X160062128Y-95269247D01*
X160062124Y-95269247D01*
X158457894Y-95269247D01*
X158401600Y-95255732D01*
X158392685Y-95251190D01*
X158379123Y-95244279D01*
X158279493Y-95228500D01*
X158279488Y-95228500D01*
X157762512Y-95228500D01*
X157762507Y-95228500D01*
X157662878Y-95244279D01*
X157542778Y-95305473D01*
X157542774Y-95305476D01*
X157447476Y-95400774D01*
X157447473Y-95400778D01*
X157386279Y-95520878D01*
X157370500Y-95620506D01*
X157121500Y-95620506D01*
X157105720Y-95520878D01*
X157105719Y-95520876D01*
X157105719Y-95520874D01*
X157044528Y-95400780D01*
X157044526Y-95400778D01*
X157044523Y-95400774D01*
X156949225Y-95305476D01*
X156949221Y-95305473D01*
X156949220Y-95305472D01*
X156829126Y-95244281D01*
X156829124Y-95244280D01*
X156829121Y-95244279D01*
X156729493Y-95228500D01*
X156729488Y-95228500D01*
X156212512Y-95228500D01*
X156212507Y-95228500D01*
X156112877Y-95244279D01*
X156082548Y-95259733D01*
X156026255Y-95273247D01*
X154881708Y-95273247D01*
X154874102Y-95273246D01*
X154874099Y-95273246D01*
X154838870Y-95273246D01*
X154802381Y-95273246D01*
X154802380Y-95273245D01*
X154792656Y-95272864D01*
X154671258Y-95263312D01*
X154652039Y-95260268D01*
X154538389Y-95232984D01*
X154519884Y-95226972D01*
X154411895Y-95182243D01*
X154394586Y-95173427D01*
X154394094Y-95173126D01*
X154392877Y-95172379D01*
X154345988Y-95120582D01*
X154334546Y-95051656D01*
X154362185Y-94987485D01*
X154420129Y-94948444D01*
X154433447Y-94945017D01*
X154439231Y-94943867D01*
X154505552Y-94899552D01*
X154549867Y-94833231D01*
X154549867Y-94833229D01*
X154549868Y-94833229D01*
X154550449Y-94830309D01*
X154553470Y-94824532D01*
X154554542Y-94821946D01*
X154554773Y-94822041D01*
X154582834Y-94768398D01*
X154643549Y-94733824D01*
X154672066Y-94730500D01*
X155527146Y-94730500D01*
X155535202Y-94729439D01*
X155535216Y-94729551D01*
X155558401Y-94726499D01*
X156041517Y-94726499D01*
X156041518Y-94726499D01*
X156135304Y-94711646D01*
X156248342Y-94654050D01*
X156338050Y-94564342D01*
X156395646Y-94451304D01*
X156395646Y-94451302D01*
X156395647Y-94451301D01*
X156409636Y-94362971D01*
X156410500Y-94357519D01*
X156410499Y-93894482D01*
X156395646Y-93800696D01*
X156338050Y-93687658D01*
X156338046Y-93687654D01*
X156338045Y-93687652D01*
X156248347Y-93597954D01*
X156248344Y-93597952D01*
X156248342Y-93597950D01*
X156147912Y-93546778D01*
X156135301Y-93540352D01*
X156041524Y-93525500D01*
X155428482Y-93525500D01*
X155352717Y-93537500D01*
X155334696Y-93540354D01*
X155221658Y-93597950D01*
X155221657Y-93597951D01*
X155221652Y-93597954D01*
X155131954Y-93687652D01*
X155131951Y-93687657D01*
X155131950Y-93687658D01*
X155112751Y-93725337D01*
X155074352Y-93800698D01*
X155059500Y-93894475D01*
X155059500Y-93905500D01*
X155039815Y-93972539D01*
X154987011Y-94018294D01*
X154935500Y-94029500D01*
X154672066Y-94029500D01*
X154605027Y-94009815D01*
X154559272Y-93957011D01*
X154550449Y-93929691D01*
X154549868Y-93926770D01*
X154549867Y-93926769D01*
X154505552Y-93860447D01*
X154439230Y-93816132D01*
X154439229Y-93816131D01*
X154380752Y-93804500D01*
X154380748Y-93804500D01*
X154041252Y-93804500D01*
X153985190Y-93815651D01*
X153936810Y-93815651D01*
X153880748Y-93804500D01*
X153541252Y-93804500D01*
X153541247Y-93804500D01*
X153482770Y-93816131D01*
X153482769Y-93816132D01*
X153416447Y-93860447D01*
X153372132Y-93926769D01*
X153372131Y-93926770D01*
X153360500Y-93985247D01*
X153360500Y-94848117D01*
X153340815Y-94915156D01*
X153312659Y-94943832D01*
X153313621Y-94945004D01*
X153308912Y-94948868D01*
X153221064Y-95036715D01*
X153221061Y-95036718D01*
X153152032Y-95140028D01*
X153104486Y-95254815D01*
X153104484Y-95254823D01*
X153080247Y-95376671D01*
X151047500Y-95376671D01*
X151047500Y-95181230D01*
X151044646Y-95150800D01*
X151044646Y-95150798D01*
X150999793Y-95022619D01*
X150999792Y-95022617D01*
X150996955Y-95018773D01*
X150919150Y-94913350D01*
X150830762Y-94848117D01*
X150828119Y-94846166D01*
X150785868Y-94790518D01*
X150777753Y-94746396D01*
X150777753Y-94159973D01*
X150781245Y-94137932D01*
X150780193Y-94137766D01*
X150797500Y-94028493D01*
X150797500Y-93461506D01*
X150780193Y-93352236D01*
X150781244Y-93352069D01*
X150777753Y-93330028D01*
X150777753Y-92788058D01*
X150797438Y-92721019D01*
X150850242Y-92675264D01*
X150860776Y-92671025D01*
X150912882Y-92652793D01*
X151022150Y-92572150D01*
X151102793Y-92462882D01*
X151125774Y-92397206D01*
X151147646Y-92334701D01*
X151147646Y-92334699D01*
X151150500Y-92304269D01*
X151150500Y-91545730D01*
X151147646Y-91515300D01*
X151147646Y-91515298D01*
X151102793Y-91387119D01*
X151102792Y-91387117D01*
X151083139Y-91360488D01*
X151022150Y-91277850D01*
X150912882Y-91197207D01*
X150912880Y-91197206D01*
X150784700Y-91152353D01*
X150754270Y-91149500D01*
X150754266Y-91149500D01*
X149745734Y-91149500D01*
X149745730Y-91149500D01*
X149715300Y-91152353D01*
X149715298Y-91152353D01*
X149587119Y-91197206D01*
X149587117Y-91197207D01*
X149477850Y-91277850D01*
X149397207Y-91387117D01*
X149397206Y-91387119D01*
X149352353Y-91515298D01*
X149352353Y-91515300D01*
X149349500Y-91545730D01*
X149349500Y-92304269D01*
X149352353Y-92334699D01*
X149352353Y-92334701D01*
X149396580Y-92461090D01*
X149397207Y-92462882D01*
X149477849Y-92572149D01*
X149477851Y-92572151D01*
X149479928Y-92574228D01*
X149481474Y-92577060D01*
X149483368Y-92579626D01*
X149483016Y-92579885D01*
X149513413Y-92635551D01*
X149516247Y-92661909D01*
X149516247Y-93330028D01*
X149512755Y-93352069D01*
X149513807Y-93352236D01*
X149496500Y-93461506D01*
X149496500Y-94028493D01*
X149513807Y-94137766D01*
X149512754Y-94137932D01*
X149516247Y-94159973D01*
X149516247Y-94746396D01*
X149496562Y-94813435D01*
X149465881Y-94846166D01*
X149374850Y-94913350D01*
X149294207Y-95022617D01*
X149294206Y-95022619D01*
X149249353Y-95150798D01*
X149249353Y-95150800D01*
X149246500Y-95181230D01*
X146200000Y-95181230D01*
X146200000Y-92850000D01*
X145936255Y-92623933D01*
X145850000Y-92550000D01*
X145849998Y-92550000D01*
X143302794Y-92550000D01*
X143235755Y-92530315D01*
X143215503Y-92514070D01*
X143046604Y-92346666D01*
X142505024Y-91809878D01*
X142493557Y-91805198D01*
X142453317Y-91778652D01*
X141566246Y-90903239D01*
X141532357Y-90842140D01*
X141536880Y-90772417D01*
X141578381Y-90716208D01*
X141633947Y-90692508D01*
X141683126Y-90684719D01*
X141803220Y-90623528D01*
X141840928Y-90585820D01*
X141902251Y-90552334D01*
X141928610Y-90549500D01*
X143354890Y-90549500D01*
X143354892Y-90549500D01*
X143482186Y-90515392D01*
X143596314Y-90449500D01*
X143713995Y-90331819D01*
X143740922Y-90317115D01*
X143766741Y-90300523D01*
X143772941Y-90299631D01*
X143775318Y-90298334D01*
X143801676Y-90295500D01*
X143842389Y-90295500D01*
X143909428Y-90315185D01*
X143930070Y-90331819D01*
X143996774Y-90398523D01*
X143996778Y-90398526D01*
X143996780Y-90398528D01*
X144116874Y-90459719D01*
X144116876Y-90459719D01*
X144116878Y-90459720D01*
X144216507Y-90475500D01*
X144216512Y-90475500D01*
X144783493Y-90475500D01*
X144883121Y-90459720D01*
X144883121Y-90459719D01*
X144883126Y-90459719D01*
X145003220Y-90398528D01*
X145033759Y-90367989D01*
X145069930Y-90331819D01*
X145131253Y-90298334D01*
X145157611Y-90295500D01*
X145493686Y-90295500D01*
X145560725Y-90315185D01*
X145567301Y-90319717D01*
X145612118Y-90352793D01*
X145740301Y-90397646D01*
X145749653Y-90398523D01*
X145770730Y-90400500D01*
X145770734Y-90400500D01*
X146829270Y-90400500D01*
X146846656Y-90398869D01*
X146859699Y-90397646D01*
X146987882Y-90352793D01*
X147032682Y-90319729D01*
X147053094Y-90312273D01*
X147071379Y-90300523D01*
X147094281Y-90297230D01*
X147098309Y-90295759D01*
X147106314Y-90295500D01*
X147273824Y-90295500D01*
X147340863Y-90315185D01*
X147361505Y-90331819D01*
X147363181Y-90333495D01*
X147374175Y-90353629D01*
X147386618Y-90367989D01*
X147388262Y-90379428D01*
X147396666Y-90394818D01*
X147399500Y-90421176D01*
X147399500Y-90879269D01*
X147402353Y-90909699D01*
X147402353Y-90909701D01*
X147447206Y-91037880D01*
X147447207Y-91037882D01*
X147527850Y-91147150D01*
X147637118Y-91227793D01*
X147651662Y-91232882D01*
X147765299Y-91272646D01*
X147795730Y-91275500D01*
X147795734Y-91275500D01*
X148804270Y-91275500D01*
X148834699Y-91272646D01*
X148834701Y-91272646D01*
X148898790Y-91250219D01*
X148962882Y-91227793D01*
X149072150Y-91147150D01*
X149152793Y-91037882D01*
X149184777Y-90946477D01*
X149197646Y-90909701D01*
X149197646Y-90909699D01*
X149200500Y-90879269D01*
X149200500Y-90523184D01*
X149220185Y-90456145D01*
X149272989Y-90410390D01*
X149342147Y-90400446D01*
X149405703Y-90429471D01*
X149424265Y-90449544D01*
X149477850Y-90522150D01*
X149587118Y-90602793D01*
X149629845Y-90617744D01*
X149715299Y-90647646D01*
X149745730Y-90650500D01*
X149745734Y-90650500D01*
X150754270Y-90650500D01*
X150784699Y-90647646D01*
X150784701Y-90647646D01*
X150848790Y-90625219D01*
X150912882Y-90602793D01*
X151022150Y-90522150D01*
X151102793Y-90412882D01*
X151127889Y-90341162D01*
X151147646Y-90284701D01*
X151147646Y-90284699D01*
X151150500Y-90254269D01*
X151150500Y-89773680D01*
X151601500Y-89773680D01*
X151601500Y-89892298D01*
X151632201Y-90006875D01*
X151684887Y-90098129D01*
X151701500Y-90160129D01*
X151701500Y-90743145D01*
X151714180Y-90790469D01*
X151714181Y-90790469D01*
X151714181Y-90790470D01*
X151725097Y-90831211D01*
X151725387Y-90832290D01*
X151771527Y-90912208D01*
X151771531Y-90912213D01*
X152824181Y-91964863D01*
X152857666Y-92026186D01*
X152860500Y-92052544D01*
X152860500Y-92774752D01*
X152872131Y-92833229D01*
X152872132Y-92833230D01*
X152916447Y-92899552D01*
X152982769Y-92943867D01*
X152982770Y-92943868D01*
X153041247Y-92955499D01*
X153041250Y-92955500D01*
X153041252Y-92955500D01*
X153380750Y-92955500D01*
X153436808Y-92944349D01*
X153485192Y-92944349D01*
X153541249Y-92955500D01*
X153541252Y-92955500D01*
X153880750Y-92955500D01*
X153880751Y-92955499D01*
X153895568Y-92952552D01*
X153939229Y-92943868D01*
X153939229Y-92943867D01*
X153939231Y-92943867D01*
X154005552Y-92899552D01*
X154049867Y-92833231D01*
X154049867Y-92833229D01*
X154049868Y-92833229D01*
X154061499Y-92774752D01*
X154061500Y-92774750D01*
X154061500Y-91592068D01*
X154081185Y-91525029D01*
X154133989Y-91479274D01*
X154173924Y-91468610D01*
X154182295Y-91467824D01*
X154184199Y-91467646D01*
X154184201Y-91467646D01*
X154255688Y-91442631D01*
X154312382Y-91422793D01*
X154421650Y-91342150D01*
X154502293Y-91232882D01*
X154532292Y-91147149D01*
X154547146Y-91104701D01*
X154547146Y-91104699D01*
X154550000Y-91074269D01*
X154550000Y-90065730D01*
X155049000Y-90065730D01*
X155049000Y-91074269D01*
X155051853Y-91104699D01*
X155051853Y-91104701D01*
X155084326Y-91197500D01*
X155096707Y-91232882D01*
X155177350Y-91342150D01*
X155234134Y-91384058D01*
X155276384Y-91439703D01*
X155284500Y-91483827D01*
X155284500Y-91839942D01*
X155264815Y-91906981D01*
X155228095Y-91940209D01*
X155229552Y-91942214D01*
X155221657Y-91947950D01*
X155131954Y-92037652D01*
X155131951Y-92037657D01*
X155074352Y-92150698D01*
X155059500Y-92244475D01*
X155059500Y-92707517D01*
X155067673Y-92759118D01*
X155074354Y-92801304D01*
X155131950Y-92914342D01*
X155131952Y-92914344D01*
X155131954Y-92914347D01*
X155221652Y-93004045D01*
X155221654Y-93004046D01*
X155221658Y-93004050D01*
X155308941Y-93048523D01*
X155334698Y-93061647D01*
X155428475Y-93076499D01*
X155428481Y-93076500D01*
X156041518Y-93076499D01*
X156135304Y-93061646D01*
X156248342Y-93004050D01*
X156338050Y-92914342D01*
X156395646Y-92801304D01*
X156395646Y-92801302D01*
X156395647Y-92801301D01*
X156409267Y-92715301D01*
X156410500Y-92707519D01*
X156410499Y-92244482D01*
X156395646Y-92150696D01*
X156338050Y-92037658D01*
X156338046Y-92037654D01*
X156338045Y-92037652D01*
X156248343Y-91947950D01*
X156240448Y-91942214D01*
X156242098Y-91939942D01*
X156202396Y-91902431D01*
X156185500Y-91839942D01*
X156185500Y-91572669D01*
X156205185Y-91505630D01*
X156257989Y-91459875D01*
X156268545Y-91455628D01*
X156296660Y-91445790D01*
X156362382Y-91422793D01*
X156471650Y-91342150D01*
X156552293Y-91232882D01*
X156582292Y-91147149D01*
X156597146Y-91104701D01*
X156597146Y-91104699D01*
X156600000Y-91074269D01*
X156600000Y-90065730D01*
X156597146Y-90035300D01*
X156597146Y-90035298D01*
X156558067Y-89923619D01*
X156552293Y-89907118D01*
X156471650Y-89797850D01*
X156362866Y-89717564D01*
X156359843Y-89713583D01*
X156355297Y-89711507D01*
X156338923Y-89686028D01*
X156320616Y-89661916D01*
X156319488Y-89655787D01*
X156317523Y-89652729D01*
X156312500Y-89617794D01*
X156312500Y-89579106D01*
X156332185Y-89512067D01*
X156384989Y-89466312D01*
X156417099Y-89456633D01*
X156448126Y-89451719D01*
X156568220Y-89390528D01*
X156663528Y-89295220D01*
X156724719Y-89175126D01*
X156727086Y-89160180D01*
X156740500Y-89075493D01*
X156740500Y-88508506D01*
X156724720Y-88408878D01*
X156724719Y-88408876D01*
X156724719Y-88408874D01*
X156663528Y-88288780D01*
X156663526Y-88288778D01*
X156663523Y-88288774D01*
X156576819Y-88202070D01*
X156543334Y-88140747D01*
X156540500Y-88114389D01*
X156540500Y-87818611D01*
X156560185Y-87751572D01*
X156576819Y-87730930D01*
X156663523Y-87644225D01*
X156663528Y-87644220D01*
X156724719Y-87524126D01*
X156725654Y-87518221D01*
X156740500Y-87424493D01*
X156740500Y-87178965D01*
X156749144Y-87149524D01*
X156755668Y-87119538D01*
X156759422Y-87114522D01*
X156760185Y-87111926D01*
X156776819Y-87091284D01*
X156818356Y-87049747D01*
X156928314Y-86939789D01*
X156933315Y-86935060D01*
X157101396Y-86784856D01*
X157112233Y-86776214D01*
X157293206Y-86647808D01*
X157304953Y-86640427D01*
X157499160Y-86533094D01*
X157511659Y-86527075D01*
X157716653Y-86442167D01*
X157729775Y-86437576D01*
X157735003Y-86436070D01*
X157942984Y-86376153D01*
X157956508Y-86373066D01*
X158175261Y-86335902D01*
X158189050Y-86334348D01*
X158414442Y-86321694D01*
X158421375Y-86321500D01*
X158476842Y-86321501D01*
X158476846Y-86321500D01*
X159034372Y-86321500D01*
X159042484Y-86321766D01*
X159235201Y-86334400D01*
X159251255Y-86336514D01*
X159436708Y-86373406D01*
X159452356Y-86377599D01*
X159631406Y-86438383D01*
X159646373Y-86444583D01*
X159815946Y-86528211D01*
X159829975Y-86536311D01*
X159987185Y-86641360D01*
X160000050Y-86651233D01*
X160145645Y-86778922D01*
X160151554Y-86784457D01*
X160190261Y-86823166D01*
X160190265Y-86823168D01*
X160476781Y-87109684D01*
X160484952Y-87118699D01*
X160558278Y-87208045D01*
X160571784Y-87228258D01*
X160623378Y-87324784D01*
X160632678Y-87347234D01*
X160656115Y-87424493D01*
X160664452Y-87451975D01*
X160669194Y-87475815D01*
X160680519Y-87590782D01*
X160681116Y-87602938D01*
X160681116Y-88366980D01*
X160679725Y-88385500D01*
X160677311Y-88401478D01*
X160677311Y-88401483D01*
X160680341Y-88428450D01*
X160681116Y-88442294D01*
X160681116Y-88469428D01*
X160685351Y-88485235D01*
X160688799Y-88503476D01*
X160694483Y-88554045D01*
X160682410Y-88622863D01*
X160635047Y-88674230D01*
X160567432Y-88691836D01*
X160532944Y-88685827D01*
X160378152Y-88635537D01*
X160360174Y-88628091D01*
X160309122Y-88602079D01*
X160209493Y-88586300D01*
X160209488Y-88586300D01*
X159642512Y-88586300D01*
X159642507Y-88586300D01*
X159533236Y-88603607D01*
X159533069Y-88602555D01*
X159511028Y-88606047D01*
X159154657Y-88606047D01*
X159154569Y-88606051D01*
X159126766Y-88606051D01*
X158937283Y-88630995D01*
X158752677Y-88680460D01*
X158752656Y-88680467D01*
X158576114Y-88753596D01*
X158576099Y-88753604D01*
X158410591Y-88849165D01*
X158410584Y-88849169D01*
X158258967Y-88965517D01*
X158202559Y-89021932D01*
X158202554Y-89021936D01*
X158185476Y-89039014D01*
X158163282Y-89061206D01*
X158163227Y-89061256D01*
X158140731Y-89083754D01*
X158140592Y-89083829D01*
X158015796Y-89208638D01*
X157862648Y-89408244D01*
X157862638Y-89408259D01*
X157736856Y-89626142D01*
X157736850Y-89626153D01*
X157640579Y-89858600D01*
X157575474Y-90101616D01*
X157553541Y-90268255D01*
X157525276Y-90332152D01*
X157504235Y-90351843D01*
X157401250Y-90427850D01*
X157320607Y-90537117D01*
X157320606Y-90537119D01*
X157275753Y-90665298D01*
X157275753Y-90665300D01*
X157272900Y-90695730D01*
X157272900Y-91454269D01*
X157275753Y-91484699D01*
X157275753Y-91484701D01*
X157314840Y-91596402D01*
X157320607Y-91612882D01*
X157401250Y-91722150D01*
X157510518Y-91802793D01*
X157530766Y-91809878D01*
X157638699Y-91847646D01*
X157669130Y-91850500D01*
X157669134Y-91850500D01*
X158677670Y-91850500D01*
X158708099Y-91847646D01*
X158708101Y-91847646D01*
X158774247Y-91824500D01*
X158836282Y-91802793D01*
X158945550Y-91722150D01*
X159026193Y-91612882D01*
X159049690Y-91545730D01*
X159071046Y-91484701D01*
X159071046Y-91484699D01*
X159073900Y-91454269D01*
X159073900Y-90695730D01*
X159071046Y-90665300D01*
X159071046Y-90665298D01*
X159031337Y-90551818D01*
X159026193Y-90537118D01*
X158945550Y-90427850D01*
X158900793Y-90394818D01*
X158891108Y-90387670D01*
X158877146Y-90369282D01*
X158859836Y-90354011D01*
X158856419Y-90341982D01*
X158848857Y-90332022D01*
X158847053Y-90309004D01*
X158840747Y-90286800D01*
X158843765Y-90267047D01*
X158843399Y-90262366D01*
X158846075Y-90251924D01*
X158850675Y-90236758D01*
X158859974Y-90214309D01*
X158888930Y-90160129D01*
X158909248Y-90122112D01*
X158922745Y-90101909D01*
X158992643Y-90016729D01*
X159000795Y-90007733D01*
X159007672Y-90000856D01*
X159023286Y-89985242D01*
X159023334Y-89985200D01*
X159029301Y-89979232D01*
X159029305Y-89979230D01*
X159077728Y-89930801D01*
X159089890Y-89920135D01*
X159111179Y-89903798D01*
X159139200Y-89887619D01*
X159156406Y-89880492D01*
X159187665Y-89872117D01*
X159214283Y-89868613D01*
X159230462Y-89867553D01*
X159298891Y-89867555D01*
X159298895Y-89867553D01*
X159306475Y-89867554D01*
X159306508Y-89867553D01*
X159511028Y-89867553D01*
X159533069Y-89871044D01*
X159533236Y-89869993D01*
X159642507Y-89887300D01*
X159642512Y-89887300D01*
X160022519Y-89887300D01*
X160089558Y-89906985D01*
X160110200Y-89923619D01*
X160499514Y-90312935D01*
X160499522Y-90312941D01*
X160602815Y-90381959D01*
X160602818Y-90381960D01*
X160602826Y-90381966D01*
X160717616Y-90429513D01*
X160747458Y-90435449D01*
X160839473Y-90453753D01*
X160839476Y-90453753D01*
X160963725Y-90453753D01*
X161025068Y-90441550D01*
X161085583Y-90429513D01*
X161200374Y-90381966D01*
X161200378Y-90381963D01*
X161200381Y-90381962D01*
X161244608Y-90352410D01*
X161311285Y-90331531D01*
X161378666Y-90350015D01*
X161425356Y-90401993D01*
X161437500Y-90455510D01*
X161437500Y-90617855D01*
X161437502Y-90617882D01*
X161440413Y-90642987D01*
X161440415Y-90642991D01*
X161485793Y-90745764D01*
X161526607Y-90786578D01*
X161560092Y-90847901D01*
X161558701Y-90906351D01*
X161549500Y-90940689D01*
X161549500Y-90940691D01*
X161549500Y-91059309D01*
X161580201Y-91173886D01*
X161639511Y-91276613D01*
X161723387Y-91360489D01*
X161826114Y-91419799D01*
X161940691Y-91450500D01*
X161940694Y-91450500D01*
X162059306Y-91450500D01*
X162059309Y-91450500D01*
X162062469Y-91449653D01*
X162065239Y-91449718D01*
X162067365Y-91449439D01*
X162067408Y-91449770D01*
X162083480Y-91450152D01*
X162104040Y-91445790D01*
X162117705Y-91450966D01*
X162132317Y-91451314D01*
X162149724Y-91463095D01*
X162169379Y-91470540D01*
X162178076Y-91482283D01*
X162190181Y-91490475D01*
X162198456Y-91509797D01*
X162210965Y-91526686D01*
X162211933Y-91541266D01*
X162217687Y-91554702D01*
X162214201Y-91575431D01*
X162215594Y-91596402D01*
X162206750Y-91619750D01*
X162206102Y-91623605D01*
X162203096Y-91629399D01*
X162151836Y-91722150D01*
X162127121Y-91766869D01*
X162119723Y-91778643D01*
X161968697Y-91991497D01*
X161960026Y-92002369D01*
X161784639Y-92198626D01*
X161779868Y-92203674D01*
X161716507Y-92267044D01*
X161604755Y-92412698D01*
X161575785Y-92462882D01*
X161512967Y-92571701D01*
X161512964Y-92571706D01*
X161512964Y-92571708D01*
X161507995Y-92583705D01*
X161464154Y-92638108D01*
X161397860Y-92660173D01*
X161330161Y-92642894D01*
X161305753Y-92623933D01*
X160766881Y-92085061D01*
X160663571Y-92016032D01*
X160548784Y-91968486D01*
X160548776Y-91968484D01*
X160423803Y-91943625D01*
X160411378Y-91940383D01*
X160311093Y-91924500D01*
X160311088Y-91924500D01*
X159744112Y-91924500D01*
X159744107Y-91924500D01*
X159644478Y-91940279D01*
X159524378Y-92001473D01*
X159524374Y-92001476D01*
X159442923Y-92082928D01*
X159381600Y-92116413D01*
X159355242Y-92119247D01*
X158617171Y-92119247D01*
X158495323Y-92143484D01*
X158495315Y-92143486D01*
X158380528Y-92191032D01*
X158380519Y-92191037D01*
X158277218Y-92260061D01*
X158277214Y-92260064D01*
X158224100Y-92313180D01*
X158162777Y-92346666D01*
X158136418Y-92349500D01*
X157669130Y-92349500D01*
X157638700Y-92352353D01*
X157638698Y-92352353D01*
X157510519Y-92397206D01*
X157510517Y-92397207D01*
X157401250Y-92477850D01*
X157320607Y-92587117D01*
X157320606Y-92587119D01*
X157275753Y-92715298D01*
X157275753Y-92715300D01*
X157272900Y-92745730D01*
X157272900Y-93504269D01*
X157275753Y-93534699D01*
X157275753Y-93534701D01*
X157320084Y-93661387D01*
X157320607Y-93662882D01*
X157401250Y-93772150D01*
X157510518Y-93852793D01*
X157532392Y-93860447D01*
X157638699Y-93897646D01*
X157669130Y-93900500D01*
X157669134Y-93900500D01*
X158677670Y-93900500D01*
X158708099Y-93897646D01*
X158708101Y-93897646D01*
X158772190Y-93875219D01*
X158836282Y-93852793D01*
X158836287Y-93852789D01*
X158844501Y-93848449D01*
X158845991Y-93851270D01*
X158896460Y-93832820D01*
X158964634Y-93848116D01*
X159013717Y-93897842D01*
X159028500Y-93956559D01*
X159028500Y-93997309D01*
X159059201Y-94111886D01*
X159118511Y-94214613D01*
X159202387Y-94298489D01*
X159305114Y-94357799D01*
X159419691Y-94388500D01*
X159419694Y-94388500D01*
X159538306Y-94388500D01*
X159538309Y-94388500D01*
X159652886Y-94357799D01*
X159657537Y-94355114D01*
X159673024Y-94350963D01*
X159684603Y-94343523D01*
X159719538Y-94338500D01*
X159891167Y-94338500D01*
X159958206Y-94358185D01*
X159978848Y-94374819D01*
X160019235Y-94415206D01*
X160122009Y-94460585D01*
X160147135Y-94463500D01*
X160436864Y-94463499D01*
X160436879Y-94463497D01*
X160436882Y-94463497D01*
X160461987Y-94460586D01*
X160461987Y-94460585D01*
X160461991Y-94460585D01*
X160564765Y-94415206D01*
X160564766Y-94415204D01*
X160566912Y-94414257D01*
X160636190Y-94405185D01*
X160667085Y-94414257D01*
X160750989Y-94451304D01*
X160772009Y-94460585D01*
X160797135Y-94463500D01*
X161086864Y-94463499D01*
X161086879Y-94463497D01*
X161086882Y-94463497D01*
X161111987Y-94460586D01*
X161111987Y-94460585D01*
X161111991Y-94460585D01*
X161214765Y-94415206D01*
X161214766Y-94415204D01*
X161216912Y-94414257D01*
X161286190Y-94405185D01*
X161317085Y-94414257D01*
X161400989Y-94451304D01*
X161422009Y-94460585D01*
X161447135Y-94463500D01*
X161736864Y-94463499D01*
X161736879Y-94463497D01*
X161736882Y-94463497D01*
X161761987Y-94460586D01*
X161761988Y-94460585D01*
X161761991Y-94460585D01*
X161864765Y-94415206D01*
X161944206Y-94335765D01*
X161989585Y-94232991D01*
X161992500Y-94207865D01*
X161992499Y-94155255D01*
X162012182Y-94088217D01*
X162028809Y-94067583D01*
X162092244Y-94004149D01*
X162144971Y-93912823D01*
X162149038Y-93897646D01*
X162172265Y-93810963D01*
X162172265Y-93705509D01*
X162172264Y-93705505D01*
X162172264Y-93260018D01*
X162172265Y-93259993D01*
X162172264Y-93250016D01*
X162172266Y-93250013D01*
X162172264Y-93198520D01*
X162172860Y-93186374D01*
X162177477Y-93139475D01*
X162182582Y-93087613D01*
X162187319Y-93063788D01*
X162214346Y-92974676D01*
X162223645Y-92952226D01*
X162231622Y-92937300D01*
X162267530Y-92870112D01*
X162281026Y-92849910D01*
X162343503Y-92773770D01*
X162351667Y-92764762D01*
X162460859Y-92655570D01*
X162586646Y-92502295D01*
X162644392Y-92462961D01*
X162714236Y-92461090D01*
X162774005Y-92497277D01*
X162804721Y-92560033D01*
X162806500Y-92580960D01*
X162806500Y-92733493D01*
X162822279Y-92833121D01*
X162822280Y-92833124D01*
X162822281Y-92833126D01*
X162878707Y-92943868D01*
X162883473Y-92953221D01*
X162883476Y-92953225D01*
X162978774Y-93048523D01*
X162978778Y-93048526D01*
X162978780Y-93048528D01*
X163098874Y-93109719D01*
X163098876Y-93109719D01*
X163098878Y-93109720D01*
X163198507Y-93125500D01*
X163198512Y-93125500D01*
X163765493Y-93125500D01*
X163865121Y-93109720D01*
X163865121Y-93109719D01*
X163865126Y-93109719D01*
X163985220Y-93048528D01*
X164080528Y-92953220D01*
X164141719Y-92833126D01*
X164146759Y-92801304D01*
X164157500Y-92733493D01*
X164157500Y-92216513D01*
X164155466Y-92203674D01*
X164151472Y-92178461D01*
X164151165Y-92154857D01*
X164150500Y-92154857D01*
X164150500Y-90954690D01*
X164170185Y-90887651D01*
X164222989Y-90841896D01*
X164224284Y-90841313D01*
X164260765Y-90825206D01*
X164340206Y-90745765D01*
X164385585Y-90642991D01*
X164388500Y-90617865D01*
X164388499Y-90328136D01*
X164388497Y-90328117D01*
X164385586Y-90303012D01*
X164385585Y-90303010D01*
X164385585Y-90303009D01*
X164340206Y-90200235D01*
X164260765Y-90120794D01*
X164238935Y-90111155D01*
X164157992Y-90075415D01*
X164132868Y-90072500D01*
X164132865Y-90072500D01*
X163802729Y-90072500D01*
X163802727Y-90072500D01*
X163697273Y-90072500D01*
X163697269Y-90072500D01*
X163593143Y-90072500D01*
X163593118Y-90072502D01*
X163568011Y-90075414D01*
X163568008Y-90075415D01*
X163474586Y-90116665D01*
X163440678Y-90121105D01*
X163406855Y-90125969D01*
X163406115Y-90125631D01*
X163405308Y-90125737D01*
X163374416Y-90111155D01*
X163343299Y-90096946D01*
X163342858Y-90096259D01*
X163342123Y-90095913D01*
X163324004Y-90066924D01*
X163305524Y-90038168D01*
X163305372Y-90037112D01*
X163305092Y-90036664D01*
X163300500Y-90003233D01*
X163300500Y-89977850D01*
X163300500Y-89804383D01*
X163300496Y-89804369D01*
X163300496Y-89795716D01*
X163300497Y-89795714D01*
X163300496Y-89795707D01*
X163300497Y-89786247D01*
X163279128Y-89651314D01*
X163288084Y-89582022D01*
X163333082Y-89528570D01*
X163399833Y-89507932D01*
X163453687Y-89522913D01*
X163454725Y-89520565D01*
X163465234Y-89525205D01*
X163465235Y-89525206D01*
X163568009Y-89570585D01*
X163593135Y-89573500D01*
X163810271Y-89573499D01*
X163810273Y-89573500D01*
X163915727Y-89573500D01*
X163915729Y-89573499D01*
X164132864Y-89573499D01*
X164132879Y-89573497D01*
X164132882Y-89573497D01*
X164157987Y-89570586D01*
X164157988Y-89570585D01*
X164157991Y-89570585D01*
X164260765Y-89525206D01*
X164340206Y-89445765D01*
X164385585Y-89342991D01*
X164388500Y-89317865D01*
X164388499Y-89028136D01*
X164387780Y-89021932D01*
X164385586Y-89003012D01*
X164385585Y-89003010D01*
X164385585Y-89003009D01*
X164340206Y-88900235D01*
X164299819Y-88859848D01*
X164266334Y-88798525D01*
X164263500Y-88772167D01*
X164263500Y-87368275D01*
X164263500Y-87368273D01*
X164236207Y-87266413D01*
X164183480Y-87175087D01*
X164183474Y-87175081D01*
X164183119Y-87174617D01*
X164182938Y-87174150D01*
X164179416Y-87168049D01*
X164180367Y-87167499D01*
X164157929Y-87109446D01*
X164157500Y-87099137D01*
X164157500Y-86781506D01*
X164141720Y-86681878D01*
X164141719Y-86681876D01*
X164141719Y-86681874D01*
X164080528Y-86561780D01*
X164080526Y-86561778D01*
X164080523Y-86561774D01*
X163985225Y-86466476D01*
X163985221Y-86466473D01*
X163985220Y-86466472D01*
X163865126Y-86405281D01*
X163865124Y-86405280D01*
X163865121Y-86405279D01*
X163765493Y-86389500D01*
X163765488Y-86389500D01*
X163198512Y-86389500D01*
X163198507Y-86389500D01*
X163098878Y-86405279D01*
X162978778Y-86466473D01*
X162978774Y-86466476D01*
X162883476Y-86561774D01*
X162883473Y-86561778D01*
X162822279Y-86681878D01*
X162806500Y-86781506D01*
X162806500Y-87298493D01*
X162822279Y-87398121D01*
X162822280Y-87398124D01*
X162822281Y-87398126D01*
X162883472Y-87518220D01*
X162883473Y-87518221D01*
X162883476Y-87518225D01*
X162978774Y-87613523D01*
X162978778Y-87613526D01*
X162978780Y-87613528D01*
X163098874Y-87674719D01*
X163098876Y-87674719D01*
X163098878Y-87674720D01*
X163198507Y-87690500D01*
X163198512Y-87690500D01*
X163338500Y-87690500D01*
X163405539Y-87710185D01*
X163451294Y-87762989D01*
X163462500Y-87814500D01*
X163462500Y-88772167D01*
X163442815Y-88839206D01*
X163426181Y-88859848D01*
X163385794Y-88900234D01*
X163340415Y-89003006D01*
X163340415Y-89003008D01*
X163337500Y-89028131D01*
X163337500Y-89233811D01*
X163330186Y-89258716D01*
X163326692Y-89284444D01*
X163320501Y-89291701D01*
X163317815Y-89300850D01*
X163298200Y-89317846D01*
X163281349Y-89337602D01*
X163272217Y-89340360D01*
X163265011Y-89346605D01*
X163239315Y-89350299D01*
X163214464Y-89357807D01*
X163205293Y-89355191D01*
X163195853Y-89356549D01*
X163172238Y-89345764D01*
X163147274Y-89338645D01*
X163138363Y-89330294D01*
X163132297Y-89327524D01*
X163120421Y-89315740D01*
X163116594Y-89311392D01*
X163086867Y-89270475D01*
X163036753Y-89220361D01*
X163034362Y-89217970D01*
X163034165Y-89217746D01*
X162975404Y-89158979D01*
X162934212Y-89117782D01*
X162788554Y-89006008D01*
X162788548Y-89006004D01*
X162788546Y-89006003D01*
X162629553Y-88914208D01*
X162629540Y-88914202D01*
X162459922Y-88843949D01*
X162350944Y-88814754D01*
X162350841Y-88814727D01*
X162341142Y-88812129D01*
X162257991Y-88775415D01*
X162232865Y-88772500D01*
X162187744Y-88772500D01*
X162172457Y-88768542D01*
X162159215Y-88760623D01*
X162141537Y-88755886D01*
X162136886Y-88753201D01*
X162022309Y-88722500D01*
X162022306Y-88722500D01*
X161818148Y-88722500D01*
X161817097Y-88722191D01*
X161816042Y-88722482D01*
X161783636Y-88712366D01*
X161751109Y-88702815D01*
X161750050Y-88701881D01*
X161749346Y-88701662D01*
X161723069Y-88678099D01*
X161709215Y-88661550D01*
X161687713Y-88635866D01*
X161675796Y-88618938D01*
X161637540Y-88553616D01*
X161628605Y-88534941D01*
X161618575Y-88508506D01*
X161601746Y-88464154D01*
X161596050Y-88444273D01*
X161584476Y-88385820D01*
X161582116Y-88361743D01*
X161582116Y-87648257D01*
X161582121Y-87648239D01*
X161582121Y-87493074D01*
X161568088Y-87386493D01*
X161555018Y-87287220D01*
X161501278Y-87086664D01*
X161421820Y-86894839D01*
X161413085Y-86879710D01*
X161320400Y-86719175D01*
X161318004Y-86715025D01*
X161317996Y-86715014D01*
X161191611Y-86550308D01*
X161191603Y-86550299D01*
X161118200Y-86476896D01*
X161118195Y-86476892D01*
X161106803Y-86465500D01*
X160737964Y-86096660D01*
X160737589Y-86096331D01*
X160687312Y-86046051D01*
X160687307Y-86046047D01*
X160687305Y-86046045D01*
X160470373Y-85873040D01*
X160470364Y-85873033D01*
X160235413Y-85725396D01*
X160235412Y-85725395D01*
X160235405Y-85725391D01*
X160119949Y-85669788D01*
X159985393Y-85604985D01*
X159723478Y-85513331D01*
X159723474Y-85513330D01*
X159452938Y-85451577D01*
X159427577Y-85448719D01*
X159177191Y-85420501D01*
X159177194Y-85420501D01*
X159097747Y-85420500D01*
X159097746Y-85420500D01*
X159038443Y-85420500D01*
X158979133Y-85420499D01*
X158979129Y-85420500D01*
X158358231Y-85420500D01*
X158350398Y-85420500D01*
X158350089Y-85420519D01*
X158269991Y-85420519D01*
X158269990Y-85420519D01*
X158269988Y-85420519D01*
X158161941Y-85431159D01*
X157976297Y-85449441D01*
X157976288Y-85449442D01*
X157686842Y-85507012D01*
X157686836Y-85507013D01*
X157419984Y-85587960D01*
X157404434Y-85592677D01*
X157374719Y-85604985D01*
X157131782Y-85705609D01*
X156871506Y-85844728D01*
X156626130Y-86008679D01*
X156626123Y-86008684D01*
X156397990Y-86195907D01*
X156338026Y-86255869D01*
X156338018Y-86255877D01*
X156164715Y-86429181D01*
X156103392Y-86462666D01*
X156077034Y-86465500D01*
X155831507Y-86465500D01*
X155731878Y-86481279D01*
X155611778Y-86542473D01*
X155611774Y-86542476D01*
X155516476Y-86637774D01*
X155516473Y-86637778D01*
X155516472Y-86637780D01*
X155457822Y-86752888D01*
X155455279Y-86757878D01*
X155439500Y-86857506D01*
X155439500Y-87424493D01*
X155455279Y-87524121D01*
X155455280Y-87524124D01*
X155455281Y-87524126D01*
X155516472Y-87644220D01*
X155516473Y-87644221D01*
X155516476Y-87644225D01*
X155603181Y-87730930D01*
X155636666Y-87792253D01*
X155639500Y-87818611D01*
X155639500Y-88114389D01*
X155619815Y-88181428D01*
X155603181Y-88202070D01*
X155516476Y-88288774D01*
X155516473Y-88288778D01*
X155455279Y-88408878D01*
X155439500Y-88508506D01*
X155439500Y-88839867D01*
X155435275Y-88871960D01*
X155411500Y-88960691D01*
X155411500Y-89585526D01*
X155391815Y-89652565D01*
X155339011Y-89698320D01*
X155328456Y-89702567D01*
X155286618Y-89717207D01*
X155177350Y-89797850D01*
X155096707Y-89907117D01*
X155096706Y-89907119D01*
X155051853Y-90035298D01*
X155051853Y-90035300D01*
X155049000Y-90065730D01*
X154550000Y-90065730D01*
X154547146Y-90035300D01*
X154547146Y-90035298D01*
X154508067Y-89923619D01*
X154502293Y-89907118D01*
X154421650Y-89797850D01*
X154421646Y-89797847D01*
X154421644Y-89797845D01*
X154418115Y-89795240D01*
X154415198Y-89791398D01*
X154415076Y-89791276D01*
X154415092Y-89791259D01*
X154375867Y-89739591D01*
X154367753Y-89695473D01*
X154367753Y-89014099D01*
X154369280Y-88994700D01*
X154369812Y-88991345D01*
X154371381Y-88981434D01*
X154378500Y-88936491D01*
X154378500Y-88419506D01*
X154362720Y-88319878D01*
X154362719Y-88319876D01*
X154362719Y-88319874D01*
X154301528Y-88199780D01*
X154301526Y-88199778D01*
X154301523Y-88199774D01*
X154206225Y-88104476D01*
X154206221Y-88104473D01*
X154206220Y-88104472D01*
X154086126Y-88043281D01*
X154086124Y-88043280D01*
X154086121Y-88043279D01*
X153986493Y-88027500D01*
X153986488Y-88027500D01*
X153419512Y-88027500D01*
X153419507Y-88027500D01*
X153319878Y-88043279D01*
X153199778Y-88104473D01*
X153199774Y-88104476D01*
X153104476Y-88199774D01*
X153104473Y-88199778D01*
X153043279Y-88319878D01*
X153027500Y-88419506D01*
X153027500Y-88936493D01*
X153043279Y-89036121D01*
X153043280Y-89036124D01*
X153043281Y-89036126D01*
X153092732Y-89133180D01*
X153106247Y-89189472D01*
X153106247Y-89785639D01*
X153086562Y-89852678D01*
X153082018Y-89859271D01*
X153046708Y-89907115D01*
X153001853Y-90035303D01*
X152999000Y-90065730D01*
X152999000Y-90848956D01*
X152979315Y-90915995D01*
X152926511Y-90961750D01*
X152857353Y-90971694D01*
X152793797Y-90942669D01*
X152787319Y-90936637D01*
X152438819Y-90588137D01*
X152405334Y-90526814D01*
X152402500Y-90500456D01*
X152402500Y-90160129D01*
X152419112Y-90098129D01*
X152471799Y-90006875D01*
X152502500Y-89892298D01*
X152502500Y-89773680D01*
X152471799Y-89659103D01*
X152412489Y-89556376D01*
X152328613Y-89472500D01*
X152225886Y-89413190D01*
X152111309Y-89382489D01*
X151992691Y-89382489D01*
X151878114Y-89413190D01*
X151878112Y-89413190D01*
X151878112Y-89413191D01*
X151775387Y-89472500D01*
X151775384Y-89472502D01*
X151691513Y-89556373D01*
X151691511Y-89556376D01*
X151634116Y-89655787D01*
X151632201Y-89659103D01*
X151601500Y-89773680D01*
X151150500Y-89773680D01*
X151150500Y-89495730D01*
X151147646Y-89465300D01*
X151147646Y-89465298D01*
X151110032Y-89357807D01*
X151102793Y-89337118D01*
X151022150Y-89227850D01*
X150912882Y-89147207D01*
X150880329Y-89135816D01*
X150860796Y-89128981D01*
X150804021Y-89088258D01*
X150778275Y-89023305D01*
X150777753Y-89011940D01*
X150777753Y-87586875D01*
X150777752Y-87586871D01*
X150765270Y-87524121D01*
X150753514Y-87465016D01*
X150705966Y-87350226D01*
X150693130Y-87331016D01*
X150678303Y-87300446D01*
X150652733Y-87221750D01*
X150593437Y-87140136D01*
X150322813Y-86869512D01*
X153027500Y-86869512D01*
X153027500Y-86879710D01*
X153027500Y-87386493D01*
X153043279Y-87486121D01*
X153043280Y-87486124D01*
X153043281Y-87486126D01*
X153102800Y-87602938D01*
X153104473Y-87606221D01*
X153104476Y-87606225D01*
X153199774Y-87701523D01*
X153199778Y-87701526D01*
X153199780Y-87701528D01*
X153319874Y-87762719D01*
X153319876Y-87762719D01*
X153319878Y-87762720D01*
X153419507Y-87778500D01*
X153419512Y-87778500D01*
X153986493Y-87778500D01*
X154086121Y-87762720D01*
X154086121Y-87762719D01*
X154086126Y-87762719D01*
X154206220Y-87701528D01*
X154301528Y-87606220D01*
X154362719Y-87486126D01*
X154364352Y-87475815D01*
X154378500Y-87386493D01*
X154378500Y-86869506D01*
X154362720Y-86769877D01*
X154362719Y-86769875D01*
X154362719Y-86769874D01*
X154347266Y-86739547D01*
X154333753Y-86683255D01*
X154333753Y-85044875D01*
X154333752Y-85044871D01*
X154309515Y-84923023D01*
X154309514Y-84923016D01*
X154261966Y-84808226D01*
X154261965Y-84808225D01*
X154261962Y-84808219D01*
X154224398Y-84752001D01*
X154203520Y-84685324D01*
X154203500Y-84683110D01*
X154203500Y-84337249D01*
X154203499Y-84337247D01*
X154191868Y-84278770D01*
X154191867Y-84278769D01*
X154147552Y-84212447D01*
X154081230Y-84168132D01*
X154081229Y-84168131D01*
X154022752Y-84156500D01*
X154022748Y-84156500D01*
X153383252Y-84156500D01*
X153383247Y-84156500D01*
X153324770Y-84168131D01*
X153324769Y-84168132D01*
X153258447Y-84212447D01*
X153214132Y-84278769D01*
X153214131Y-84278770D01*
X153202500Y-84337247D01*
X153202500Y-84683110D01*
X153182815Y-84750149D01*
X153181602Y-84752001D01*
X153144037Y-84808219D01*
X153144032Y-84808228D01*
X153096486Y-84923015D01*
X153096484Y-84923023D01*
X153072247Y-85044871D01*
X153072247Y-86683255D01*
X153071124Y-86687929D01*
X153068638Y-86712955D01*
X153065217Y-86726822D01*
X153043281Y-86769874D01*
X153027500Y-86869512D01*
X150322813Y-86869512D01*
X150227880Y-86774579D01*
X150227876Y-86774576D01*
X150146268Y-86715284D01*
X150146266Y-86715283D01*
X150062080Y-86687929D01*
X150018080Y-86673632D01*
X150018079Y-86673632D01*
X149883293Y-86673632D01*
X149883291Y-86673632D01*
X149755105Y-86715283D01*
X149755102Y-86715284D01*
X149673494Y-86774576D01*
X149673488Y-86774581D01*
X149272581Y-87175488D01*
X149272576Y-87175494D01*
X149213284Y-87257102D01*
X149213283Y-87257105D01*
X149171632Y-87385291D01*
X149171632Y-87385293D01*
X149171632Y-87520079D01*
X149213274Y-87648239D01*
X149213283Y-87648265D01*
X149213284Y-87648268D01*
X149272576Y-87729876D01*
X149272581Y-87729882D01*
X149479928Y-87937229D01*
X149513413Y-87998552D01*
X149516247Y-88024910D01*
X149516247Y-89138091D01*
X149496562Y-89205130D01*
X149479928Y-89225772D01*
X149477851Y-89227848D01*
X149397207Y-89337117D01*
X149397206Y-89337119D01*
X149352353Y-89465298D01*
X149352353Y-89465300D01*
X149349500Y-89495730D01*
X149349500Y-89976815D01*
X149329815Y-90043854D01*
X149277011Y-90089609D01*
X149207853Y-90099553D01*
X149144297Y-90070528D01*
X149125730Y-90050449D01*
X149114552Y-90035303D01*
X149072150Y-89977850D01*
X148962882Y-89897207D01*
X148962880Y-89897206D01*
X148834700Y-89852353D01*
X148804270Y-89849500D01*
X148804266Y-89849500D01*
X148346176Y-89849500D01*
X148316735Y-89840855D01*
X148286749Y-89834332D01*
X148281733Y-89830577D01*
X148279137Y-89829815D01*
X148258495Y-89813181D01*
X148107495Y-89662181D01*
X148074010Y-89600858D01*
X148078994Y-89531166D01*
X148120866Y-89475233D01*
X148186330Y-89450816D01*
X148195176Y-89450500D01*
X148804270Y-89450500D01*
X148834699Y-89447646D01*
X148834701Y-89447646D01*
X148898790Y-89425219D01*
X148962882Y-89402793D01*
X149072150Y-89322150D01*
X149152793Y-89212882D01*
X149178425Y-89139630D01*
X149197646Y-89084701D01*
X149197646Y-89084699D01*
X149200500Y-89054269D01*
X149200500Y-88420730D01*
X149197646Y-88390300D01*
X149197646Y-88390298D01*
X149152793Y-88262119D01*
X149152792Y-88262117D01*
X149072150Y-88152850D01*
X148962882Y-88072207D01*
X148962880Y-88072206D01*
X148834700Y-88027353D01*
X148804270Y-88024500D01*
X148804266Y-88024500D01*
X148162965Y-88024500D01*
X148095926Y-88004815D01*
X148075284Y-87988181D01*
X148026616Y-87939513D01*
X148026614Y-87939511D01*
X147975250Y-87909856D01*
X147923888Y-87880201D01*
X147911390Y-87876852D01*
X147898893Y-87873504D01*
X147898890Y-87873503D01*
X147861028Y-87863358D01*
X147809309Y-87849500D01*
X147809308Y-87849500D01*
X147324500Y-87849500D01*
X147257461Y-87829815D01*
X147211706Y-87777011D01*
X147200500Y-87725500D01*
X147200500Y-87670730D01*
X147197646Y-87640300D01*
X147197646Y-87640298D01*
X147155579Y-87520080D01*
X147152793Y-87512118D01*
X147072150Y-87402850D01*
X146962882Y-87322207D01*
X146962880Y-87322206D01*
X146834700Y-87277353D01*
X146804270Y-87274500D01*
X146804266Y-87274500D01*
X145795734Y-87274500D01*
X145795730Y-87274500D01*
X145765300Y-87277353D01*
X145765298Y-87277353D01*
X145637119Y-87322206D01*
X145637117Y-87322207D01*
X145527850Y-87402850D01*
X145447207Y-87512117D01*
X145447206Y-87512119D01*
X145402353Y-87640298D01*
X145402353Y-87640300D01*
X145399500Y-87670730D01*
X145399500Y-88059461D01*
X145382889Y-88121458D01*
X145380202Y-88126111D01*
X145380201Y-88126112D01*
X145376280Y-88140747D01*
X145349500Y-88240691D01*
X145349500Y-88359309D01*
X145380201Y-88473886D01*
X145439511Y-88576613D01*
X145439512Y-88576614D01*
X145440652Y-88578588D01*
X145442675Y-88581742D01*
X145460613Y-88606047D01*
X145527850Y-88697150D01*
X145637118Y-88777793D01*
X145675105Y-88791085D01*
X145731879Y-88831804D01*
X145757627Y-88896756D01*
X145744171Y-88965318D01*
X145695785Y-89015722D01*
X145675106Y-89025166D01*
X145635538Y-89039012D01*
X145612118Y-89047207D01*
X145612117Y-89047207D01*
X145612116Y-89047208D01*
X145502850Y-89127850D01*
X145417029Y-89244134D01*
X145413048Y-89247156D01*
X145410972Y-89251703D01*
X145385497Y-89268074D01*
X145361382Y-89286384D01*
X145355252Y-89287511D01*
X145352194Y-89289477D01*
X145317259Y-89294500D01*
X145097611Y-89294500D01*
X145030572Y-89274815D01*
X145009930Y-89258181D01*
X145003225Y-89251476D01*
X145003221Y-89251473D01*
X145003220Y-89251472D01*
X144883126Y-89190281D01*
X144883124Y-89190280D01*
X144883121Y-89190279D01*
X144783493Y-89174500D01*
X144783488Y-89174500D01*
X144216512Y-89174500D01*
X144216507Y-89174500D01*
X144116878Y-89190279D01*
X143996778Y-89251473D01*
X143996774Y-89251476D01*
X143990070Y-89258181D01*
X143928747Y-89291666D01*
X143902389Y-89294500D01*
X143497611Y-89294500D01*
X143434476Y-89277224D01*
X143420999Y-89269251D01*
X143403220Y-89251472D01*
X143314722Y-89206380D01*
X143311365Y-89204394D01*
X143290083Y-89181594D01*
X143267409Y-89160180D01*
X143266313Y-89156130D01*
X143263688Y-89153318D01*
X143259868Y-89132303D01*
X143250500Y-89097670D01*
X143250500Y-88111833D01*
X143270185Y-88044794D01*
X143286814Y-88024156D01*
X143431460Y-87879511D01*
X143434928Y-87873504D01*
X143471021Y-87810989D01*
X143491500Y-87734562D01*
X143491500Y-87049747D01*
X143511185Y-86982708D01*
X143563989Y-86936953D01*
X143591303Y-86928131D01*
X143656117Y-86915240D01*
X143743112Y-86857112D01*
X143801240Y-86770117D01*
X143816500Y-86693401D01*
X143816499Y-86516600D01*
X143801240Y-86439883D01*
X143801239Y-86439881D01*
X143801238Y-86439879D01*
X143759625Y-86377602D01*
X143743112Y-86352888D01*
X143656117Y-86294760D01*
X143656115Y-86294759D01*
X143656112Y-86294758D01*
X143579404Y-86279500D01*
X142802602Y-86279500D01*
X142725881Y-86294760D01*
X142725879Y-86294761D01*
X142638888Y-86352888D01*
X142580760Y-86439883D01*
X142580758Y-86439887D01*
X142565500Y-86516594D01*
X142565500Y-86555500D01*
X142545815Y-86622539D01*
X142493011Y-86668294D01*
X142469711Y-86676248D01*
X142455788Y-86679500D01*
X142402600Y-86679501D01*
X142325883Y-86694760D01*
X142291154Y-86717964D01*
X142269211Y-86723091D01*
X142255917Y-86722344D01*
X142243212Y-86726323D01*
X142221713Y-86720424D01*
X142199451Y-86719175D01*
X142188670Y-86711359D01*
X142175832Y-86707837D01*
X142172111Y-86705446D01*
X142156117Y-86694759D01*
X142079403Y-86679500D01*
X141902601Y-86679500D01*
X141825880Y-86694760D01*
X141809889Y-86705446D01*
X141743212Y-86726323D01*
X141675832Y-86707837D01*
X141672111Y-86705446D01*
X141656117Y-86694759D01*
X141579403Y-86679500D01*
X141402601Y-86679500D01*
X141325880Y-86694760D01*
X141309889Y-86705446D01*
X141243212Y-86726323D01*
X141175832Y-86707837D01*
X141172111Y-86705446D01*
X141156117Y-86694759D01*
X141079403Y-86679500D01*
X140902601Y-86679500D01*
X140825881Y-86694760D01*
X140809887Y-86705447D01*
X140791617Y-86711166D01*
X140775477Y-86721452D01*
X140758966Y-86721388D01*
X140743208Y-86726322D01*
X140724749Y-86721257D01*
X140705608Y-86721184D01*
X140679116Y-86708736D01*
X140675829Y-86707835D01*
X140673560Y-86706399D01*
X140672770Y-86705887D01*
X140656117Y-86694760D01*
X140655373Y-86694612D01*
X140645171Y-86688000D01*
X140629481Y-86669751D01*
X140610746Y-86654650D01*
X140607116Y-86643739D01*
X140599620Y-86635021D01*
X140596286Y-86611190D01*
X140588689Y-86588353D01*
X140588615Y-86584922D01*
X140580809Y-85516595D01*
X142565500Y-85516595D01*
X142565500Y-85693398D01*
X142580760Y-85770118D01*
X142580761Y-85770120D01*
X142615668Y-85822361D01*
X142638888Y-85857112D01*
X142725883Y-85915240D01*
X142725886Y-85915240D01*
X142725887Y-85915241D01*
X142764241Y-85922870D01*
X142802599Y-85930500D01*
X143035224Y-85930499D01*
X143067318Y-85934724D01*
X143079689Y-85938038D01*
X143144856Y-85955500D01*
X143974020Y-85955500D01*
X144036019Y-85972112D01*
X144118614Y-86019799D01*
X144233191Y-86050500D01*
X145275500Y-86050500D01*
X145342539Y-86070185D01*
X145388294Y-86122989D01*
X145399500Y-86174500D01*
X145399500Y-86379269D01*
X145402353Y-86409699D01*
X145402353Y-86409701D01*
X145439863Y-86516895D01*
X145447207Y-86537882D01*
X145527850Y-86647150D01*
X145637118Y-86727793D01*
X145670712Y-86739548D01*
X145765299Y-86772646D01*
X145795730Y-86775500D01*
X145795734Y-86775500D01*
X146804270Y-86775500D01*
X146834699Y-86772646D01*
X146834701Y-86772646D01*
X146898790Y-86750219D01*
X146962882Y-86727793D01*
X147072150Y-86647150D01*
X147152793Y-86537882D01*
X147186285Y-86442168D01*
X147197087Y-86411298D01*
X147210705Y-86392310D01*
X147220415Y-86371050D01*
X147230691Y-86364446D01*
X147237809Y-86354522D01*
X147259533Y-86345910D01*
X147279193Y-86333276D01*
X147298357Y-86330520D01*
X147302761Y-86328775D01*
X147314112Y-86328253D01*
X147363018Y-86328253D01*
X147371125Y-86328518D01*
X147388698Y-86329669D01*
X147537701Y-86339433D01*
X147553769Y-86341549D01*
X147713512Y-86373321D01*
X147729158Y-86377514D01*
X147881370Y-86429181D01*
X147883379Y-86429863D01*
X147898359Y-86436067D01*
X147981148Y-86476893D01*
X148044423Y-86508096D01*
X148058468Y-86516205D01*
X148059501Y-86516895D01*
X148103431Y-86546247D01*
X148134857Y-86576461D01*
X148176563Y-86633864D01*
X148542120Y-86999421D01*
X148623734Y-87058717D01*
X148751921Y-87100368D01*
X148751922Y-87100368D01*
X148886706Y-87100368D01*
X148886707Y-87100368D01*
X149014895Y-87058717D01*
X149096509Y-86999421D01*
X149497421Y-86598509D01*
X149556717Y-86516895D01*
X149598368Y-86388707D01*
X149598368Y-86253921D01*
X149556717Y-86125734D01*
X149535354Y-86096331D01*
X149498824Y-86046051D01*
X149497421Y-86044120D01*
X149131864Y-85678563D01*
X149131860Y-85678560D01*
X149050252Y-85619268D01*
X149050248Y-85619266D01*
X148953899Y-85587960D01*
X148914908Y-85566978D01*
X148891816Y-85548563D01*
X148734059Y-85449441D01*
X148641625Y-85391362D01*
X148485514Y-85316185D01*
X148375402Y-85263159D01*
X148375400Y-85263158D01*
X148178610Y-85194301D01*
X148096503Y-85165572D01*
X148096499Y-85165571D01*
X148096493Y-85165569D01*
X147808445Y-85099827D01*
X147808418Y-85099823D01*
X147514810Y-85066745D01*
X147514805Y-85066745D01*
X147367064Y-85066747D01*
X146401871Y-85066747D01*
X146280023Y-85090984D01*
X146280015Y-85090986D01*
X146161539Y-85140061D01*
X146114086Y-85149500D01*
X144233191Y-85149500D01*
X144118614Y-85180201D01*
X144018698Y-85237887D01*
X143956700Y-85254500D01*
X143144856Y-85254500D01*
X143067322Y-85275275D01*
X143035230Y-85279500D01*
X142802601Y-85279500D01*
X142725881Y-85294760D01*
X142725879Y-85294761D01*
X142638888Y-85352888D01*
X142580760Y-85439883D01*
X142580758Y-85439887D01*
X142565500Y-85516595D01*
X140580809Y-85516595D01*
X140563417Y-83136346D01*
X140582612Y-83069168D01*
X140630332Y-83025363D01*
X140645956Y-83017260D01*
X140656117Y-83015240D01*
X140677822Y-83000736D01*
X140683918Y-82997576D01*
X140711735Y-82992145D01*
X140738783Y-82983676D01*
X140745577Y-82985539D01*
X140752493Y-82984190D01*
X140778832Y-82994661D01*
X140806164Y-83002159D01*
X140809871Y-83004541D01*
X140822260Y-83012819D01*
X140825883Y-83015240D01*
X140825887Y-83015241D01*
X140859329Y-83021893D01*
X140902599Y-83030500D01*
X141079400Y-83030499D01*
X141156117Y-83015240D01*
X141172107Y-83004555D01*
X141238783Y-82983676D01*
X141306164Y-83002159D01*
X141309871Y-83004541D01*
X141322260Y-83012819D01*
X141325883Y-83015240D01*
X141325887Y-83015241D01*
X141359329Y-83021893D01*
X141402599Y-83030500D01*
X141579400Y-83030499D01*
X141656117Y-83015240D01*
X141743112Y-82957112D01*
X141801240Y-82870117D01*
X141816500Y-82793401D01*
X141816499Y-82016600D01*
X141816498Y-82016594D01*
X142165500Y-82016594D01*
X142165500Y-82793397D01*
X142180760Y-82870118D01*
X142180761Y-82870120D01*
X142215668Y-82922361D01*
X142238888Y-82957112D01*
X142325883Y-83015240D01*
X142325886Y-83015240D01*
X142325887Y-83015241D01*
X142359329Y-83021893D01*
X142402599Y-83030500D01*
X142441499Y-83030499D01*
X142508537Y-83050182D01*
X142554293Y-83102985D01*
X142562248Y-83126289D01*
X142565500Y-83140211D01*
X142565501Y-83193400D01*
X142580760Y-83270117D01*
X142603963Y-83304844D01*
X142609091Y-83326790D01*
X142608344Y-83340082D01*
X142612323Y-83352788D01*
X142606424Y-83374286D01*
X142605175Y-83396549D01*
X142597359Y-83407330D01*
X142593837Y-83420168D01*
X142591446Y-83423889D01*
X142580759Y-83439882D01*
X142565500Y-83516596D01*
X142565500Y-83693398D01*
X142580760Y-83770119D01*
X142591446Y-83786111D01*
X142612323Y-83852788D01*
X142593837Y-83920168D01*
X142591446Y-83923889D01*
X142580759Y-83939882D01*
X142565500Y-84016596D01*
X142565500Y-84193398D01*
X142580760Y-84270118D01*
X142580761Y-84270120D01*
X142615668Y-84322361D01*
X142638888Y-84357112D01*
X142725883Y-84415240D01*
X142725886Y-84415240D01*
X142725887Y-84415241D01*
X142764241Y-84422870D01*
X142802599Y-84430500D01*
X143035224Y-84430499D01*
X143067318Y-84434724D01*
X143077765Y-84437523D01*
X143144856Y-84455500D01*
X144284319Y-84455500D01*
X144299807Y-84459649D01*
X144313551Y-84458995D01*
X144346317Y-84472112D01*
X144395463Y-84500486D01*
X144395464Y-84500487D01*
X144428908Y-84519796D01*
X144428909Y-84519797D01*
X144428911Y-84519797D01*
X144428914Y-84519799D01*
X144543491Y-84550500D01*
X144719721Y-84550500D01*
X144786760Y-84570185D01*
X144819492Y-84600867D01*
X144853648Y-84647148D01*
X144853650Y-84647150D01*
X144962918Y-84727793D01*
X145001842Y-84741413D01*
X145091099Y-84772646D01*
X145121530Y-84775500D01*
X145121534Y-84775500D01*
X146130070Y-84775500D01*
X146160499Y-84772646D01*
X146160501Y-84772646D01*
X146224792Y-84750149D01*
X146288682Y-84727793D01*
X146397950Y-84647150D01*
X146478593Y-84537882D01*
X146478595Y-84537877D01*
X146479691Y-84535806D01*
X146481486Y-84533961D01*
X146484111Y-84530405D01*
X146484597Y-84530764D01*
X146528422Y-84485736D01*
X146589318Y-84469753D01*
X147657255Y-84469753D01*
X147713547Y-84483266D01*
X147743874Y-84498719D01*
X147743875Y-84498719D01*
X147743877Y-84498720D01*
X147843507Y-84514500D01*
X147843512Y-84514500D01*
X148360493Y-84514500D01*
X148460121Y-84498720D01*
X148460121Y-84498719D01*
X148460126Y-84498719D01*
X148580220Y-84437528D01*
X148675528Y-84342220D01*
X148736719Y-84222126D01*
X148745271Y-84168131D01*
X148752500Y-84122493D01*
X148752500Y-83555506D01*
X148736720Y-83455878D01*
X148736719Y-83455876D01*
X148736719Y-83455874D01*
X148675528Y-83335780D01*
X148675526Y-83335778D01*
X148675523Y-83335774D01*
X148580225Y-83240476D01*
X148580221Y-83240473D01*
X148580220Y-83240472D01*
X148460126Y-83179281D01*
X148460124Y-83179280D01*
X148460121Y-83179279D01*
X148360493Y-83163500D01*
X148360488Y-83163500D01*
X147843512Y-83163500D01*
X147843507Y-83163500D01*
X147743877Y-83179279D01*
X147713548Y-83194733D01*
X147657255Y-83208247D01*
X145724672Y-83208247D01*
X145654945Y-83222117D01*
X145630754Y-83224500D01*
X145361965Y-83224500D01*
X145294926Y-83204815D01*
X145249171Y-83152011D01*
X145239227Y-83082853D01*
X145268252Y-83019297D01*
X145274284Y-83012819D01*
X145525285Y-82761819D01*
X145586608Y-82728334D01*
X145612966Y-82725500D01*
X146130070Y-82725500D01*
X146160499Y-82722646D01*
X146160501Y-82722646D01*
X146224590Y-82700219D01*
X146288682Y-82677793D01*
X146397950Y-82597150D01*
X146478593Y-82487882D01*
X146478593Y-82487881D01*
X146484111Y-82480405D01*
X146486046Y-82481833D01*
X146525463Y-82441335D01*
X146586358Y-82425353D01*
X146917512Y-82425353D01*
X146981117Y-82444029D01*
X146981351Y-82443593D01*
X146983449Y-82444714D01*
X146984551Y-82445038D01*
X146986401Y-82446249D01*
X146986726Y-82446466D01*
X147101516Y-82494014D01*
X147223371Y-82518252D01*
X147223375Y-82518253D01*
X147223376Y-82518253D01*
X147347625Y-82518253D01*
X147347626Y-82518252D01*
X147469484Y-82494014D01*
X147564784Y-82454538D01*
X147565059Y-82454469D01*
X147565171Y-82454380D01*
X147566253Y-82454166D01*
X147599398Y-82445766D01*
X147605796Y-82445100D01*
X147661888Y-82445100D01*
X147761526Y-82429319D01*
X147762587Y-82428777D01*
X147772750Y-82427720D01*
X147774062Y-82427961D01*
X147785589Y-82427054D01*
X149102223Y-82427054D01*
X149153906Y-82416773D01*
X149223493Y-82422999D01*
X149247102Y-82436940D01*
X149247613Y-82436144D01*
X149253960Y-82440215D01*
X149253962Y-82440217D01*
X149376317Y-82499140D01*
X149510604Y-82519381D01*
X149644892Y-82499140D01*
X149767247Y-82440217D01*
X149790784Y-82420715D01*
X149885538Y-82325960D01*
X149905912Y-82314834D01*
X149923729Y-82299945D01*
X149936003Y-82298403D01*
X149946860Y-82292475D01*
X149970018Y-82294131D01*
X149993054Y-82291238D01*
X150004212Y-82296576D01*
X150016551Y-82297459D01*
X150035134Y-82311370D01*
X150056082Y-82321392D01*
X150062584Y-82331918D01*
X150072485Y-82339330D01*
X150080597Y-82361080D01*
X150092801Y-82380836D01*
X150092580Y-82393204D01*
X150096903Y-82404794D01*
X150091968Y-82427479D01*
X150091554Y-82450694D01*
X150083054Y-82468458D01*
X150082052Y-82473067D01*
X150076321Y-82482532D01*
X149969809Y-82641938D01*
X149959936Y-82654804D01*
X149918940Y-82701552D01*
X149805505Y-82830898D01*
X149799959Y-82836819D01*
X149509600Y-83127181D01*
X149448277Y-83160666D01*
X149421918Y-83163500D01*
X149393507Y-83163500D01*
X149293878Y-83179279D01*
X149173778Y-83240473D01*
X149173774Y-83240476D01*
X149078476Y-83335774D01*
X149078473Y-83335778D01*
X149017279Y-83455878D01*
X149001500Y-83555506D01*
X149001500Y-84122493D01*
X149017279Y-84222121D01*
X149017280Y-84222124D01*
X149017281Y-84222126D01*
X149075941Y-84337252D01*
X149078473Y-84342221D01*
X149078476Y-84342225D01*
X149173774Y-84437523D01*
X149173778Y-84437526D01*
X149173780Y-84437528D01*
X149293874Y-84498719D01*
X149293876Y-84498719D01*
X149293878Y-84498720D01*
X149393507Y-84514500D01*
X149393512Y-84514500D01*
X149910493Y-84514500D01*
X150010121Y-84498720D01*
X150010121Y-84498719D01*
X150010126Y-84498719D01*
X150130220Y-84437528D01*
X150225528Y-84342220D01*
X150286719Y-84222126D01*
X150296982Y-84157325D01*
X150326910Y-84094193D01*
X150331738Y-84089080D01*
X150738825Y-83681995D01*
X150738826Y-83681992D01*
X150743308Y-83677511D01*
X150743380Y-83677430D01*
X150804130Y-83616682D01*
X151000144Y-83377841D01*
X151171804Y-83120936D01*
X151317456Y-82848443D01*
X151435697Y-82562985D01*
X151525389Y-82267313D01*
X151585668Y-81964272D01*
X151615953Y-81656782D01*
X151615953Y-81502294D01*
X151615953Y-81425706D01*
X151615953Y-80884871D01*
X153072247Y-80884871D01*
X153072247Y-81009128D01*
X153096484Y-81130976D01*
X153096486Y-81130984D01*
X153144032Y-81245771D01*
X153144033Y-81245773D01*
X153144034Y-81245774D01*
X153180267Y-81300000D01*
X153181602Y-81301997D01*
X153202480Y-81368674D01*
X153202500Y-81370888D01*
X153202500Y-82576752D01*
X153214131Y-82635229D01*
X153214132Y-82635230D01*
X153258447Y-82701552D01*
X153324769Y-82745867D01*
X153324770Y-82745868D01*
X153383247Y-82757499D01*
X153383250Y-82757500D01*
X153383252Y-82757500D01*
X154022750Y-82757500D01*
X154022751Y-82757499D01*
X154037568Y-82754552D01*
X154081229Y-82745868D01*
X154081229Y-82745867D01*
X154081231Y-82745867D01*
X154147552Y-82701552D01*
X154191867Y-82635231D01*
X154191867Y-82635229D01*
X154191868Y-82635229D01*
X154203499Y-82576752D01*
X154203500Y-82576750D01*
X154203500Y-81389882D01*
X154210684Y-81365414D01*
X154213924Y-81340118D01*
X154221271Y-81329358D01*
X154223185Y-81322843D01*
X154232544Y-81310136D01*
X154236004Y-81306015D01*
X154299938Y-81242082D01*
X154336017Y-81188086D01*
X154368967Y-81138774D01*
X154411018Y-81037252D01*
X154416514Y-81023984D01*
X154440753Y-80902124D01*
X154440753Y-80069373D01*
X154444245Y-80047332D01*
X154443193Y-80047166D01*
X154460500Y-79937893D01*
X154460500Y-79370906D01*
X154444720Y-79271278D01*
X154444719Y-79271276D01*
X154444719Y-79271274D01*
X154383528Y-79151180D01*
X154383526Y-79151178D01*
X154383523Y-79151174D01*
X154288225Y-79055876D01*
X154288221Y-79055873D01*
X154288220Y-79055872D01*
X154168126Y-78994681D01*
X154168124Y-78994680D01*
X154168121Y-78994679D01*
X154068493Y-78978900D01*
X154068488Y-78978900D01*
X153551512Y-78978900D01*
X153551507Y-78978900D01*
X153451878Y-78994679D01*
X153331778Y-79055873D01*
X153331774Y-79055876D01*
X153236476Y-79151174D01*
X153236473Y-79151178D01*
X153175279Y-79271278D01*
X153159500Y-79370906D01*
X153159500Y-79937893D01*
X153176807Y-80047166D01*
X153175754Y-80047332D01*
X153179247Y-80069373D01*
X153179247Y-80557910D01*
X153159562Y-80624949D01*
X153158349Y-80626801D01*
X153144037Y-80648219D01*
X153144032Y-80648228D01*
X153096486Y-80763015D01*
X153096484Y-80763023D01*
X153072247Y-80884871D01*
X151615953Y-80884871D01*
X151615953Y-80646908D01*
X151635638Y-80579869D01*
X151652267Y-80559231D01*
X151776715Y-80434784D01*
X151796217Y-80411247D01*
X151807144Y-80388555D01*
X151853963Y-80336697D01*
X151921390Y-80318382D01*
X151938262Y-80319883D01*
X152001507Y-80329900D01*
X152001512Y-80329900D01*
X152518493Y-80329900D01*
X152618121Y-80314120D01*
X152618121Y-80314119D01*
X152618126Y-80314119D01*
X152738220Y-80252928D01*
X152833528Y-80157620D01*
X152894719Y-80037526D01*
X152894720Y-80037521D01*
X152910500Y-79937893D01*
X152910500Y-79370906D01*
X152894720Y-79271278D01*
X152894719Y-79271276D01*
X152894719Y-79271274D01*
X152833528Y-79151180D01*
X152833526Y-79151178D01*
X152833523Y-79151174D01*
X152738225Y-79055876D01*
X152738221Y-79055873D01*
X152738220Y-79055872D01*
X152618126Y-78994681D01*
X152618124Y-78994680D01*
X152618121Y-78994679D01*
X152518493Y-78978900D01*
X152518488Y-78978900D01*
X152001512Y-78978900D01*
X152001507Y-78978900D01*
X151901877Y-78994679D01*
X151871548Y-79010133D01*
X151815255Y-79023647D01*
X151119871Y-79023647D01*
X150998024Y-79047884D01*
X150998016Y-79047886D01*
X150946522Y-79069215D01*
X150880590Y-79077268D01*
X150783396Y-79062619D01*
X150649108Y-79082860D01*
X150526754Y-79141782D01*
X150503209Y-79161290D01*
X149966858Y-79697641D01*
X149947350Y-79721186D01*
X149913532Y-79791410D01*
X149888428Y-79843540D01*
X149868187Y-79977828D01*
X149888428Y-80112115D01*
X149947351Y-80234470D01*
X149962641Y-80252923D01*
X149966858Y-80258013D01*
X150318128Y-80609282D01*
X150351613Y-80670605D01*
X150354447Y-80696963D01*
X150354447Y-81051930D01*
X150334762Y-81118969D01*
X150281958Y-81164724D01*
X150212800Y-81174668D01*
X150149244Y-81145643D01*
X150142766Y-81139611D01*
X149614013Y-80610858D01*
X149612111Y-80609282D01*
X149590470Y-80591351D01*
X149468115Y-80532428D01*
X149333828Y-80512187D01*
X149199540Y-80532428D01*
X149077186Y-80591350D01*
X149053641Y-80610858D01*
X148535271Y-81129229D01*
X148473948Y-81162714D01*
X148447590Y-81165548D01*
X147798607Y-81165548D01*
X147771196Y-81161206D01*
X147771165Y-81161407D01*
X147661893Y-81144100D01*
X147661888Y-81144100D01*
X147094912Y-81144100D01*
X147094907Y-81144100D01*
X146985636Y-81161407D01*
X146985469Y-81160355D01*
X146963428Y-81163847D01*
X145902009Y-81163847D01*
X145893458Y-81165548D01*
X145860432Y-81172117D01*
X145836242Y-81174500D01*
X145121530Y-81174500D01*
X145091100Y-81177353D01*
X145091098Y-81177353D01*
X144962919Y-81222206D01*
X144962917Y-81222207D01*
X144853650Y-81302850D01*
X144773007Y-81412117D01*
X144773006Y-81412119D01*
X144728153Y-81540298D01*
X144728153Y-81540300D01*
X144725300Y-81570730D01*
X144725300Y-82236234D01*
X144705615Y-82303273D01*
X144688981Y-82323915D01*
X144039513Y-82973383D01*
X144039509Y-82973389D01*
X144031978Y-82986432D01*
X143981408Y-83034645D01*
X143912801Y-83047864D01*
X143847937Y-83021893D01*
X143807412Y-82964976D01*
X143802976Y-82948613D01*
X143801240Y-82939883D01*
X143801238Y-82939880D01*
X143801238Y-82939879D01*
X143777861Y-82904894D01*
X143743112Y-82852888D01*
X143656117Y-82794760D01*
X143656115Y-82794759D01*
X143656112Y-82794758D01*
X143579404Y-82779500D01*
X143579401Y-82779500D01*
X143563090Y-82779500D01*
X143496051Y-82759815D01*
X143450296Y-82707011D01*
X143440352Y-82637853D01*
X143464716Y-82580011D01*
X143467319Y-82576617D01*
X143467324Y-82576613D01*
X143526634Y-82473886D01*
X143557335Y-82359309D01*
X143557335Y-82240691D01*
X143526634Y-82126114D01*
X143467324Y-82023387D01*
X143383448Y-81939511D01*
X143280721Y-81880201D01*
X143166144Y-81849500D01*
X143047526Y-81849500D01*
X142966986Y-81871080D01*
X142932944Y-81880202D01*
X142909707Y-81893619D01*
X142841806Y-81910092D01*
X142775780Y-81887239D01*
X142744605Y-81855122D01*
X142743112Y-81852888D01*
X142738041Y-81849500D01*
X142656117Y-81794760D01*
X142656115Y-81794759D01*
X142656112Y-81794758D01*
X142579404Y-81779500D01*
X142402601Y-81779500D01*
X142325881Y-81794760D01*
X142325879Y-81794761D01*
X142238888Y-81852888D01*
X142180760Y-81939883D01*
X142180758Y-81939887D01*
X142165500Y-82016594D01*
X141816498Y-82016594D01*
X141801240Y-81939883D01*
X141801238Y-81939880D01*
X141801238Y-81939879D01*
X141800937Y-81939151D01*
X141791500Y-81891703D01*
X141791500Y-81551839D01*
X141800144Y-81522398D01*
X141806668Y-81492412D01*
X141810422Y-81487396D01*
X141811185Y-81484800D01*
X141827819Y-81464158D01*
X141955658Y-81336319D01*
X142016981Y-81302834D01*
X142043339Y-81300000D01*
X144300000Y-81300000D01*
X144766035Y-80927172D01*
X144830681Y-80900664D01*
X144843497Y-80900000D01*
X146200000Y-80900000D01*
X146200000Y-75445500D01*
X146202550Y-75436814D01*
X146201262Y-75427853D01*
X146212240Y-75403812D01*
X146219685Y-75378461D01*
X146226525Y-75372533D01*
X146230287Y-75364297D01*
X146252521Y-75350007D01*
X146272489Y-75332706D01*
X146283003Y-75330418D01*
X146289065Y-75326523D01*
X146324000Y-75321500D01*
X146405320Y-75321500D01*
X146472359Y-75341185D01*
G37*
%TD.AperFunction*%
%TD*%
M02*
