%TF.GenerationSoftware,KiCad,Pcbnew,9.0.1+1*%
%TF.CreationDate,2025-11-03T08:37:59+00:00*%
%TF.ProjectId,TFSIK01,54465349-4b30-4312-9e6b-696361645f70,rev?*%
%TF.SameCoordinates,Original*%
%TF.FileFunction,Legend,Bot*%
%TF.FilePolarity,Positive*%
%FSLAX46Y46*%
G04 Gerber Fmt 4.6, Leading zero omitted, Abs format (unit mm)*
G04 Created by KiCad (PCBNEW 9.0.1+1) date 2025-11-03 08:37:59*
%MOMM*%
%LPD*%
G01*
G04 APERTURE LIST*
%ADD10C,0.100000*%
%ADD11C,0.060000*%
%ADD12C,0.120000*%
%ADD13C,0.150000*%
%ADD14C,0.250000*%
%ADD15C,0.127000*%
%ADD16C,0.240000*%
G04 APERTURE END LIST*
D10*
X155316666Y-79851966D02*
X155349999Y-79885300D01*
X155349999Y-79885300D02*
X155449999Y-79918633D01*
X155449999Y-79918633D02*
X155516666Y-79918633D01*
X155516666Y-79918633D02*
X155616666Y-79885300D01*
X155616666Y-79885300D02*
X155683333Y-79818633D01*
X155683333Y-79818633D02*
X155716666Y-79751966D01*
X155716666Y-79751966D02*
X155749999Y-79618633D01*
X155749999Y-79618633D02*
X155749999Y-79518633D01*
X155749999Y-79518633D02*
X155716666Y-79385300D01*
X155716666Y-79385300D02*
X155683333Y-79318633D01*
X155683333Y-79318633D02*
X155616666Y-79251966D01*
X155616666Y-79251966D02*
X155516666Y-79218633D01*
X155516666Y-79218633D02*
X155449999Y-79218633D01*
X155449999Y-79218633D02*
X155349999Y-79251966D01*
X155349999Y-79251966D02*
X155316666Y-79285300D01*
X155049999Y-79285300D02*
X155016666Y-79251966D01*
X155016666Y-79251966D02*
X154949999Y-79218633D01*
X154949999Y-79218633D02*
X154783333Y-79218633D01*
X154783333Y-79218633D02*
X154716666Y-79251966D01*
X154716666Y-79251966D02*
X154683333Y-79285300D01*
X154683333Y-79285300D02*
X154649999Y-79351966D01*
X154649999Y-79351966D02*
X154649999Y-79418633D01*
X154649999Y-79418633D02*
X154683333Y-79518633D01*
X154683333Y-79518633D02*
X155083333Y-79918633D01*
X155083333Y-79918633D02*
X154649999Y-79918633D01*
X157650000Y-86351966D02*
X157683333Y-86385300D01*
X157683333Y-86385300D02*
X157783333Y-86418633D01*
X157783333Y-86418633D02*
X157850000Y-86418633D01*
X157850000Y-86418633D02*
X157950000Y-86385300D01*
X157950000Y-86385300D02*
X158016667Y-86318633D01*
X158016667Y-86318633D02*
X158050000Y-86251966D01*
X158050000Y-86251966D02*
X158083333Y-86118633D01*
X158083333Y-86118633D02*
X158083333Y-86018633D01*
X158083333Y-86018633D02*
X158050000Y-85885300D01*
X158050000Y-85885300D02*
X158016667Y-85818633D01*
X158016667Y-85818633D02*
X157950000Y-85751966D01*
X157950000Y-85751966D02*
X157850000Y-85718633D01*
X157850000Y-85718633D02*
X157783333Y-85718633D01*
X157783333Y-85718633D02*
X157683333Y-85751966D01*
X157683333Y-85751966D02*
X157650000Y-85785300D01*
X157416667Y-85718633D02*
X156983333Y-85718633D01*
X156983333Y-85718633D02*
X157216667Y-85985300D01*
X157216667Y-85985300D02*
X157116667Y-85985300D01*
X157116667Y-85985300D02*
X157050000Y-86018633D01*
X157050000Y-86018633D02*
X157016667Y-86051966D01*
X157016667Y-86051966D02*
X156983333Y-86118633D01*
X156983333Y-86118633D02*
X156983333Y-86285300D01*
X156983333Y-86285300D02*
X157016667Y-86351966D01*
X157016667Y-86351966D02*
X157050000Y-86385300D01*
X157050000Y-86385300D02*
X157116667Y-86418633D01*
X157116667Y-86418633D02*
X157316667Y-86418633D01*
X157316667Y-86418633D02*
X157383333Y-86385300D01*
X157383333Y-86385300D02*
X157416667Y-86351966D01*
X156716666Y-85785300D02*
X156683333Y-85751966D01*
X156683333Y-85751966D02*
X156616666Y-85718633D01*
X156616666Y-85718633D02*
X156450000Y-85718633D01*
X156450000Y-85718633D02*
X156383333Y-85751966D01*
X156383333Y-85751966D02*
X156350000Y-85785300D01*
X156350000Y-85785300D02*
X156316666Y-85851966D01*
X156316666Y-85851966D02*
X156316666Y-85918633D01*
X156316666Y-85918633D02*
X156350000Y-86018633D01*
X156350000Y-86018633D02*
X156750000Y-86418633D01*
X156750000Y-86418633D02*
X156316666Y-86418633D01*
X162418633Y-98750000D02*
X162418633Y-98416666D01*
X162418633Y-98416666D02*
X161718633Y-98416666D01*
X162418633Y-99350000D02*
X162418633Y-98950000D01*
X162418633Y-99150000D02*
X161718633Y-99150000D01*
X161718633Y-99150000D02*
X161818633Y-99083333D01*
X161818633Y-99083333D02*
X161885300Y-99016667D01*
X161885300Y-99016667D02*
X161918633Y-98950000D01*
X161785300Y-99616667D02*
X161751966Y-99650000D01*
X161751966Y-99650000D02*
X161718633Y-99716667D01*
X161718633Y-99716667D02*
X161718633Y-99883334D01*
X161718633Y-99883334D02*
X161751966Y-99950000D01*
X161751966Y-99950000D02*
X161785300Y-99983334D01*
X161785300Y-99983334D02*
X161851966Y-100016667D01*
X161851966Y-100016667D02*
X161918633Y-100016667D01*
X161918633Y-100016667D02*
X162018633Y-99983334D01*
X162018633Y-99983334D02*
X162418633Y-99583334D01*
X162418633Y-99583334D02*
X162418633Y-100016667D01*
X127514895Y-83766667D02*
X127133942Y-83500000D01*
X127514895Y-83309524D02*
X126714895Y-83309524D01*
X126714895Y-83309524D02*
X126714895Y-83614286D01*
X126714895Y-83614286D02*
X126752990Y-83690476D01*
X126752990Y-83690476D02*
X126791085Y-83728571D01*
X126791085Y-83728571D02*
X126867276Y-83766667D01*
X126867276Y-83766667D02*
X126981561Y-83766667D01*
X126981561Y-83766667D02*
X127057752Y-83728571D01*
X127057752Y-83728571D02*
X127095847Y-83690476D01*
X127095847Y-83690476D02*
X127133942Y-83614286D01*
X127133942Y-83614286D02*
X127133942Y-83309524D01*
X126714895Y-84033333D02*
X126714895Y-84566667D01*
X126714895Y-84566667D02*
X127514895Y-84223809D01*
X161475333Y-96618633D02*
X161475333Y-97185300D01*
X161475333Y-97185300D02*
X161442000Y-97251966D01*
X161442000Y-97251966D02*
X161408666Y-97285300D01*
X161408666Y-97285300D02*
X161342000Y-97318633D01*
X161342000Y-97318633D02*
X161208666Y-97318633D01*
X161208666Y-97318633D02*
X161142000Y-97285300D01*
X161142000Y-97285300D02*
X161108666Y-97251966D01*
X161108666Y-97251966D02*
X161075333Y-97185300D01*
X161075333Y-97185300D02*
X161075333Y-96618633D01*
X160708667Y-97318633D02*
X160575333Y-97318633D01*
X160575333Y-97318633D02*
X160508667Y-97285300D01*
X160508667Y-97285300D02*
X160475333Y-97251966D01*
X160475333Y-97251966D02*
X160408667Y-97151966D01*
X160408667Y-97151966D02*
X160375333Y-97018633D01*
X160375333Y-97018633D02*
X160375333Y-96751966D01*
X160375333Y-96751966D02*
X160408667Y-96685300D01*
X160408667Y-96685300D02*
X160442000Y-96651966D01*
X160442000Y-96651966D02*
X160508667Y-96618633D01*
X160508667Y-96618633D02*
X160642000Y-96618633D01*
X160642000Y-96618633D02*
X160708667Y-96651966D01*
X160708667Y-96651966D02*
X160742000Y-96685300D01*
X160742000Y-96685300D02*
X160775333Y-96751966D01*
X160775333Y-96751966D02*
X160775333Y-96918633D01*
X160775333Y-96918633D02*
X160742000Y-96985300D01*
X160742000Y-96985300D02*
X160708667Y-97018633D01*
X160708667Y-97018633D02*
X160642000Y-97051966D01*
X160642000Y-97051966D02*
X160508667Y-97051966D01*
X160508667Y-97051966D02*
X160442000Y-97018633D01*
X160442000Y-97018633D02*
X160408667Y-96985300D01*
X160408667Y-96985300D02*
X160375333Y-96918633D01*
X152951966Y-87549999D02*
X152985300Y-87516666D01*
X152985300Y-87516666D02*
X153018633Y-87416666D01*
X153018633Y-87416666D02*
X153018633Y-87349999D01*
X153018633Y-87349999D02*
X152985300Y-87249999D01*
X152985300Y-87249999D02*
X152918633Y-87183333D01*
X152918633Y-87183333D02*
X152851966Y-87149999D01*
X152851966Y-87149999D02*
X152718633Y-87116666D01*
X152718633Y-87116666D02*
X152618633Y-87116666D01*
X152618633Y-87116666D02*
X152485300Y-87149999D01*
X152485300Y-87149999D02*
X152418633Y-87183333D01*
X152418633Y-87183333D02*
X152351966Y-87249999D01*
X152351966Y-87249999D02*
X152318633Y-87349999D01*
X152318633Y-87349999D02*
X152318633Y-87416666D01*
X152318633Y-87416666D02*
X152351966Y-87516666D01*
X152351966Y-87516666D02*
X152385300Y-87549999D01*
X152318633Y-87783333D02*
X152318633Y-88216666D01*
X152318633Y-88216666D02*
X152585300Y-87983333D01*
X152585300Y-87983333D02*
X152585300Y-88083333D01*
X152585300Y-88083333D02*
X152618633Y-88149999D01*
X152618633Y-88149999D02*
X152651966Y-88183333D01*
X152651966Y-88183333D02*
X152718633Y-88216666D01*
X152718633Y-88216666D02*
X152885300Y-88216666D01*
X152885300Y-88216666D02*
X152951966Y-88183333D01*
X152951966Y-88183333D02*
X152985300Y-88149999D01*
X152985300Y-88149999D02*
X153018633Y-88083333D01*
X153018633Y-88083333D02*
X153018633Y-87883333D01*
X153018633Y-87883333D02*
X152985300Y-87816666D01*
X152985300Y-87816666D02*
X152951966Y-87783333D01*
X152551966Y-88816666D02*
X153018633Y-88816666D01*
X152285300Y-88650000D02*
X152785300Y-88483333D01*
X152785300Y-88483333D02*
X152785300Y-88916666D01*
X143514285Y-92788704D02*
X143552381Y-92826800D01*
X143552381Y-92826800D02*
X143666666Y-92864895D01*
X143666666Y-92864895D02*
X143742857Y-92864895D01*
X143742857Y-92864895D02*
X143857143Y-92826800D01*
X143857143Y-92826800D02*
X143933333Y-92750609D01*
X143933333Y-92750609D02*
X143971428Y-92674419D01*
X143971428Y-92674419D02*
X144009524Y-92522038D01*
X144009524Y-92522038D02*
X144009524Y-92407752D01*
X144009524Y-92407752D02*
X143971428Y-92255371D01*
X143971428Y-92255371D02*
X143933333Y-92179180D01*
X143933333Y-92179180D02*
X143857143Y-92102990D01*
X143857143Y-92102990D02*
X143742857Y-92064895D01*
X143742857Y-92064895D02*
X143666666Y-92064895D01*
X143666666Y-92064895D02*
X143552381Y-92102990D01*
X143552381Y-92102990D02*
X143514285Y-92141085D01*
X142752381Y-92864895D02*
X143209524Y-92864895D01*
X142980952Y-92864895D02*
X142980952Y-92064895D01*
X142980952Y-92064895D02*
X143057143Y-92179180D01*
X143057143Y-92179180D02*
X143133333Y-92255371D01*
X143133333Y-92255371D02*
X143209524Y-92293466D01*
X142371428Y-92864895D02*
X142219047Y-92864895D01*
X142219047Y-92864895D02*
X142142857Y-92826800D01*
X142142857Y-92826800D02*
X142104761Y-92788704D01*
X142104761Y-92788704D02*
X142028571Y-92674419D01*
X142028571Y-92674419D02*
X141990476Y-92522038D01*
X141990476Y-92522038D02*
X141990476Y-92217276D01*
X141990476Y-92217276D02*
X142028571Y-92141085D01*
X142028571Y-92141085D02*
X142066666Y-92102990D01*
X142066666Y-92102990D02*
X142142857Y-92064895D01*
X142142857Y-92064895D02*
X142295238Y-92064895D01*
X142295238Y-92064895D02*
X142371428Y-92102990D01*
X142371428Y-92102990D02*
X142409523Y-92141085D01*
X142409523Y-92141085D02*
X142447619Y-92217276D01*
X142447619Y-92217276D02*
X142447619Y-92407752D01*
X142447619Y-92407752D02*
X142409523Y-92483942D01*
X142409523Y-92483942D02*
X142371428Y-92522038D01*
X142371428Y-92522038D02*
X142295238Y-92560133D01*
X142295238Y-92560133D02*
X142142857Y-92560133D01*
X142142857Y-92560133D02*
X142066666Y-92522038D01*
X142066666Y-92522038D02*
X142028571Y-92483942D01*
X142028571Y-92483942D02*
X141990476Y-92407752D01*
X134100532Y-103788704D02*
X134138628Y-103826800D01*
X134138628Y-103826800D02*
X134252913Y-103864895D01*
X134252913Y-103864895D02*
X134329104Y-103864895D01*
X134329104Y-103864895D02*
X134443390Y-103826800D01*
X134443390Y-103826800D02*
X134519580Y-103750609D01*
X134519580Y-103750609D02*
X134557675Y-103674419D01*
X134557675Y-103674419D02*
X134595771Y-103522038D01*
X134595771Y-103522038D02*
X134595771Y-103407752D01*
X134595771Y-103407752D02*
X134557675Y-103255371D01*
X134557675Y-103255371D02*
X134519580Y-103179180D01*
X134519580Y-103179180D02*
X134443390Y-103102990D01*
X134443390Y-103102990D02*
X134329104Y-103064895D01*
X134329104Y-103064895D02*
X134252913Y-103064895D01*
X134252913Y-103064895D02*
X134138628Y-103102990D01*
X134138628Y-103102990D02*
X134100532Y-103141085D01*
X133338628Y-103864895D02*
X133795771Y-103864895D01*
X133567199Y-103864895D02*
X133567199Y-103064895D01*
X133567199Y-103064895D02*
X133643390Y-103179180D01*
X133643390Y-103179180D02*
X133719580Y-103255371D01*
X133719580Y-103255371D02*
X133795771Y-103293466D01*
X151818633Y-96468833D02*
X151818633Y-96135499D01*
X151818633Y-96135499D02*
X151118633Y-96135499D01*
X151118633Y-97035500D02*
X151118633Y-96702166D01*
X151118633Y-96702166D02*
X151451966Y-96668833D01*
X151451966Y-96668833D02*
X151418633Y-96702166D01*
X151418633Y-96702166D02*
X151385300Y-96768833D01*
X151385300Y-96768833D02*
X151385300Y-96935500D01*
X151385300Y-96935500D02*
X151418633Y-97002166D01*
X151418633Y-97002166D02*
X151451966Y-97035500D01*
X151451966Y-97035500D02*
X151518633Y-97068833D01*
X151518633Y-97068833D02*
X151685300Y-97068833D01*
X151685300Y-97068833D02*
X151751966Y-97035500D01*
X151751966Y-97035500D02*
X151785300Y-97002166D01*
X151785300Y-97002166D02*
X151818633Y-96935500D01*
X151818633Y-96935500D02*
X151818633Y-96768833D01*
X151818633Y-96768833D02*
X151785300Y-96702166D01*
X151785300Y-96702166D02*
X151751966Y-96668833D01*
X132564895Y-83785714D02*
X132183942Y-83519047D01*
X132564895Y-83328571D02*
X131764895Y-83328571D01*
X131764895Y-83328571D02*
X131764895Y-83633333D01*
X131764895Y-83633333D02*
X131802990Y-83709523D01*
X131802990Y-83709523D02*
X131841085Y-83747618D01*
X131841085Y-83747618D02*
X131917276Y-83785714D01*
X131917276Y-83785714D02*
X132031561Y-83785714D01*
X132031561Y-83785714D02*
X132107752Y-83747618D01*
X132107752Y-83747618D02*
X132145847Y-83709523D01*
X132145847Y-83709523D02*
X132183942Y-83633333D01*
X132183942Y-83633333D02*
X132183942Y-83328571D01*
X131841085Y-84090475D02*
X131802990Y-84128571D01*
X131802990Y-84128571D02*
X131764895Y-84204761D01*
X131764895Y-84204761D02*
X131764895Y-84395237D01*
X131764895Y-84395237D02*
X131802990Y-84471428D01*
X131802990Y-84471428D02*
X131841085Y-84509523D01*
X131841085Y-84509523D02*
X131917276Y-84547618D01*
X131917276Y-84547618D02*
X131993466Y-84547618D01*
X131993466Y-84547618D02*
X132107752Y-84509523D01*
X132107752Y-84509523D02*
X132564895Y-84052380D01*
X132564895Y-84052380D02*
X132564895Y-84547618D01*
X131841085Y-84852380D02*
X131802990Y-84890476D01*
X131802990Y-84890476D02*
X131764895Y-84966666D01*
X131764895Y-84966666D02*
X131764895Y-85157142D01*
X131764895Y-85157142D02*
X131802990Y-85233333D01*
X131802990Y-85233333D02*
X131841085Y-85271428D01*
X131841085Y-85271428D02*
X131917276Y-85309523D01*
X131917276Y-85309523D02*
X131993466Y-85309523D01*
X131993466Y-85309523D02*
X132107752Y-85271428D01*
X132107752Y-85271428D02*
X132564895Y-84814285D01*
X132564895Y-84814285D02*
X132564895Y-85309523D01*
X132564895Y-95266667D02*
X132183942Y-95000000D01*
X132564895Y-94809524D02*
X131764895Y-94809524D01*
X131764895Y-94809524D02*
X131764895Y-95114286D01*
X131764895Y-95114286D02*
X131802990Y-95190476D01*
X131802990Y-95190476D02*
X131841085Y-95228571D01*
X131841085Y-95228571D02*
X131917276Y-95266667D01*
X131917276Y-95266667D02*
X132031561Y-95266667D01*
X132031561Y-95266667D02*
X132107752Y-95228571D01*
X132107752Y-95228571D02*
X132145847Y-95190476D01*
X132145847Y-95190476D02*
X132183942Y-95114286D01*
X132183942Y-95114286D02*
X132183942Y-94809524D01*
X131764895Y-95533333D02*
X131764895Y-96028571D01*
X131764895Y-96028571D02*
X132069657Y-95761905D01*
X132069657Y-95761905D02*
X132069657Y-95876190D01*
X132069657Y-95876190D02*
X132107752Y-95952381D01*
X132107752Y-95952381D02*
X132145847Y-95990476D01*
X132145847Y-95990476D02*
X132222038Y-96028571D01*
X132222038Y-96028571D02*
X132412514Y-96028571D01*
X132412514Y-96028571D02*
X132488704Y-95990476D01*
X132488704Y-95990476D02*
X132526800Y-95952381D01*
X132526800Y-95952381D02*
X132564895Y-95876190D01*
X132564895Y-95876190D02*
X132564895Y-95647619D01*
X132564895Y-95647619D02*
X132526800Y-95571428D01*
X132526800Y-95571428D02*
X132488704Y-95533333D01*
X127090475Y-79564895D02*
X127090475Y-78764895D01*
X127090475Y-78764895D02*
X126899999Y-78764895D01*
X126899999Y-78764895D02*
X126785713Y-78802990D01*
X126785713Y-78802990D02*
X126709523Y-78879180D01*
X126709523Y-78879180D02*
X126671428Y-78955371D01*
X126671428Y-78955371D02*
X126633332Y-79107752D01*
X126633332Y-79107752D02*
X126633332Y-79222038D01*
X126633332Y-79222038D02*
X126671428Y-79374419D01*
X126671428Y-79374419D02*
X126709523Y-79450609D01*
X126709523Y-79450609D02*
X126785713Y-79526800D01*
X126785713Y-79526800D02*
X126899999Y-79564895D01*
X126899999Y-79564895D02*
X127090475Y-79564895D01*
X125871428Y-79564895D02*
X126328571Y-79564895D01*
X126099999Y-79564895D02*
X126099999Y-78764895D01*
X126099999Y-78764895D02*
X126176190Y-78879180D01*
X126176190Y-78879180D02*
X126252380Y-78955371D01*
X126252380Y-78955371D02*
X126328571Y-78993466D01*
X132890475Y-76564895D02*
X132890475Y-75764895D01*
X132890475Y-75764895D02*
X132699999Y-75764895D01*
X132699999Y-75764895D02*
X132585713Y-75802990D01*
X132585713Y-75802990D02*
X132509523Y-75879180D01*
X132509523Y-75879180D02*
X132471428Y-75955371D01*
X132471428Y-75955371D02*
X132433332Y-76107752D01*
X132433332Y-76107752D02*
X132433332Y-76222038D01*
X132433332Y-76222038D02*
X132471428Y-76374419D01*
X132471428Y-76374419D02*
X132509523Y-76450609D01*
X132509523Y-76450609D02*
X132585713Y-76526800D01*
X132585713Y-76526800D02*
X132699999Y-76564895D01*
X132699999Y-76564895D02*
X132890475Y-76564895D01*
X132128571Y-75841085D02*
X132090475Y-75802990D01*
X132090475Y-75802990D02*
X132014285Y-75764895D01*
X132014285Y-75764895D02*
X131823809Y-75764895D01*
X131823809Y-75764895D02*
X131747618Y-75802990D01*
X131747618Y-75802990D02*
X131709523Y-75841085D01*
X131709523Y-75841085D02*
X131671428Y-75917276D01*
X131671428Y-75917276D02*
X131671428Y-75993466D01*
X131671428Y-75993466D02*
X131709523Y-76107752D01*
X131709523Y-76107752D02*
X132166666Y-76564895D01*
X132166666Y-76564895D02*
X131671428Y-76564895D01*
X139805895Y-84245476D02*
X140453514Y-84245476D01*
X140453514Y-84245476D02*
X140529704Y-84283571D01*
X140529704Y-84283571D02*
X140567800Y-84321666D01*
X140567800Y-84321666D02*
X140605895Y-84397857D01*
X140605895Y-84397857D02*
X140605895Y-84550238D01*
X140605895Y-84550238D02*
X140567800Y-84626428D01*
X140567800Y-84626428D02*
X140529704Y-84664523D01*
X140529704Y-84664523D02*
X140453514Y-84702619D01*
X140453514Y-84702619D02*
X139805895Y-84702619D01*
X139882085Y-85045475D02*
X139843990Y-85083571D01*
X139843990Y-85083571D02*
X139805895Y-85159761D01*
X139805895Y-85159761D02*
X139805895Y-85350237D01*
X139805895Y-85350237D02*
X139843990Y-85426428D01*
X139843990Y-85426428D02*
X139882085Y-85464523D01*
X139882085Y-85464523D02*
X139958276Y-85502618D01*
X139958276Y-85502618D02*
X140034466Y-85502618D01*
X140034466Y-85502618D02*
X140148752Y-85464523D01*
X140148752Y-85464523D02*
X140605895Y-85007380D01*
X140605895Y-85007380D02*
X140605895Y-85502618D01*
X147914285Y-79588704D02*
X147952381Y-79626800D01*
X147952381Y-79626800D02*
X148066666Y-79664895D01*
X148066666Y-79664895D02*
X148142857Y-79664895D01*
X148142857Y-79664895D02*
X148257143Y-79626800D01*
X148257143Y-79626800D02*
X148333333Y-79550609D01*
X148333333Y-79550609D02*
X148371428Y-79474419D01*
X148371428Y-79474419D02*
X148409524Y-79322038D01*
X148409524Y-79322038D02*
X148409524Y-79207752D01*
X148409524Y-79207752D02*
X148371428Y-79055371D01*
X148371428Y-79055371D02*
X148333333Y-78979180D01*
X148333333Y-78979180D02*
X148257143Y-78902990D01*
X148257143Y-78902990D02*
X148142857Y-78864895D01*
X148142857Y-78864895D02*
X148066666Y-78864895D01*
X148066666Y-78864895D02*
X147952381Y-78902990D01*
X147952381Y-78902990D02*
X147914285Y-78941085D01*
X147152381Y-79664895D02*
X147609524Y-79664895D01*
X147380952Y-79664895D02*
X147380952Y-78864895D01*
X147380952Y-78864895D02*
X147457143Y-78979180D01*
X147457143Y-78979180D02*
X147533333Y-79055371D01*
X147533333Y-79055371D02*
X147609524Y-79093466D01*
X146885714Y-78864895D02*
X146390476Y-78864895D01*
X146390476Y-78864895D02*
X146657142Y-79169657D01*
X146657142Y-79169657D02*
X146542857Y-79169657D01*
X146542857Y-79169657D02*
X146466666Y-79207752D01*
X146466666Y-79207752D02*
X146428571Y-79245847D01*
X146428571Y-79245847D02*
X146390476Y-79322038D01*
X146390476Y-79322038D02*
X146390476Y-79512514D01*
X146390476Y-79512514D02*
X146428571Y-79588704D01*
X146428571Y-79588704D02*
X146466666Y-79626800D01*
X146466666Y-79626800D02*
X146542857Y-79664895D01*
X146542857Y-79664895D02*
X146771428Y-79664895D01*
X146771428Y-79664895D02*
X146847619Y-79626800D01*
X146847619Y-79626800D02*
X146885714Y-79588704D01*
X155218633Y-88250000D02*
X155218633Y-87916666D01*
X155218633Y-87916666D02*
X154518633Y-87916666D01*
X155218633Y-88850000D02*
X155218633Y-88450000D01*
X155218633Y-88650000D02*
X154518633Y-88650000D01*
X154518633Y-88650000D02*
X154618633Y-88583333D01*
X154618633Y-88583333D02*
X154685300Y-88516667D01*
X154685300Y-88516667D02*
X154718633Y-88450000D01*
X154518633Y-89450000D02*
X154518633Y-89316667D01*
X154518633Y-89316667D02*
X154551966Y-89250000D01*
X154551966Y-89250000D02*
X154585300Y-89216667D01*
X154585300Y-89216667D02*
X154685300Y-89150000D01*
X154685300Y-89150000D02*
X154818633Y-89116667D01*
X154818633Y-89116667D02*
X155085300Y-89116667D01*
X155085300Y-89116667D02*
X155151966Y-89150000D01*
X155151966Y-89150000D02*
X155185300Y-89183334D01*
X155185300Y-89183334D02*
X155218633Y-89250000D01*
X155218633Y-89250000D02*
X155218633Y-89383334D01*
X155218633Y-89383334D02*
X155185300Y-89450000D01*
X155185300Y-89450000D02*
X155151966Y-89483334D01*
X155151966Y-89483334D02*
X155085300Y-89516667D01*
X155085300Y-89516667D02*
X154918633Y-89516667D01*
X154918633Y-89516667D02*
X154851966Y-89483334D01*
X154851966Y-89483334D02*
X154818633Y-89450000D01*
X154818633Y-89450000D02*
X154785300Y-89383334D01*
X154785300Y-89383334D02*
X154785300Y-89250000D01*
X154785300Y-89250000D02*
X154818633Y-89183334D01*
X154818633Y-89183334D02*
X154851966Y-89150000D01*
X154851966Y-89150000D02*
X154918633Y-89116667D01*
X162551966Y-85849999D02*
X162585300Y-85816666D01*
X162585300Y-85816666D02*
X162618633Y-85716666D01*
X162618633Y-85716666D02*
X162618633Y-85649999D01*
X162618633Y-85649999D02*
X162585300Y-85549999D01*
X162585300Y-85549999D02*
X162518633Y-85483333D01*
X162518633Y-85483333D02*
X162451966Y-85449999D01*
X162451966Y-85449999D02*
X162318633Y-85416666D01*
X162318633Y-85416666D02*
X162218633Y-85416666D01*
X162218633Y-85416666D02*
X162085300Y-85449999D01*
X162085300Y-85449999D02*
X162018633Y-85483333D01*
X162018633Y-85483333D02*
X161951966Y-85549999D01*
X161951966Y-85549999D02*
X161918633Y-85649999D01*
X161918633Y-85649999D02*
X161918633Y-85716666D01*
X161918633Y-85716666D02*
X161951966Y-85816666D01*
X161951966Y-85816666D02*
X161985300Y-85849999D01*
X161985300Y-86116666D02*
X161951966Y-86149999D01*
X161951966Y-86149999D02*
X161918633Y-86216666D01*
X161918633Y-86216666D02*
X161918633Y-86383333D01*
X161918633Y-86383333D02*
X161951966Y-86449999D01*
X161951966Y-86449999D02*
X161985300Y-86483333D01*
X161985300Y-86483333D02*
X162051966Y-86516666D01*
X162051966Y-86516666D02*
X162118633Y-86516666D01*
X162118633Y-86516666D02*
X162218633Y-86483333D01*
X162218633Y-86483333D02*
X162618633Y-86083333D01*
X162618633Y-86083333D02*
X162618633Y-86516666D01*
X161918633Y-87116666D02*
X161918633Y-86983333D01*
X161918633Y-86983333D02*
X161951966Y-86916666D01*
X161951966Y-86916666D02*
X161985300Y-86883333D01*
X161985300Y-86883333D02*
X162085300Y-86816666D01*
X162085300Y-86816666D02*
X162218633Y-86783333D01*
X162218633Y-86783333D02*
X162485300Y-86783333D01*
X162485300Y-86783333D02*
X162551966Y-86816666D01*
X162551966Y-86816666D02*
X162585300Y-86850000D01*
X162585300Y-86850000D02*
X162618633Y-86916666D01*
X162618633Y-86916666D02*
X162618633Y-87050000D01*
X162618633Y-87050000D02*
X162585300Y-87116666D01*
X162585300Y-87116666D02*
X162551966Y-87150000D01*
X162551966Y-87150000D02*
X162485300Y-87183333D01*
X162485300Y-87183333D02*
X162318633Y-87183333D01*
X162318633Y-87183333D02*
X162251966Y-87150000D01*
X162251966Y-87150000D02*
X162218633Y-87116666D01*
X162218633Y-87116666D02*
X162185300Y-87050000D01*
X162185300Y-87050000D02*
X162185300Y-86916666D01*
X162185300Y-86916666D02*
X162218633Y-86850000D01*
X162218633Y-86850000D02*
X162251966Y-86816666D01*
X162251966Y-86816666D02*
X162318633Y-86783333D01*
X136914285Y-93088704D02*
X136952381Y-93126800D01*
X136952381Y-93126800D02*
X137066666Y-93164895D01*
X137066666Y-93164895D02*
X137142857Y-93164895D01*
X137142857Y-93164895D02*
X137257143Y-93126800D01*
X137257143Y-93126800D02*
X137333333Y-93050609D01*
X137333333Y-93050609D02*
X137371428Y-92974419D01*
X137371428Y-92974419D02*
X137409524Y-92822038D01*
X137409524Y-92822038D02*
X137409524Y-92707752D01*
X137409524Y-92707752D02*
X137371428Y-92555371D01*
X137371428Y-92555371D02*
X137333333Y-92479180D01*
X137333333Y-92479180D02*
X137257143Y-92402990D01*
X137257143Y-92402990D02*
X137142857Y-92364895D01*
X137142857Y-92364895D02*
X137066666Y-92364895D01*
X137066666Y-92364895D02*
X136952381Y-92402990D01*
X136952381Y-92402990D02*
X136914285Y-92441085D01*
X136609524Y-92441085D02*
X136571428Y-92402990D01*
X136571428Y-92402990D02*
X136495238Y-92364895D01*
X136495238Y-92364895D02*
X136304762Y-92364895D01*
X136304762Y-92364895D02*
X136228571Y-92402990D01*
X136228571Y-92402990D02*
X136190476Y-92441085D01*
X136190476Y-92441085D02*
X136152381Y-92517276D01*
X136152381Y-92517276D02*
X136152381Y-92593466D01*
X136152381Y-92593466D02*
X136190476Y-92707752D01*
X136190476Y-92707752D02*
X136647619Y-93164895D01*
X136647619Y-93164895D02*
X136152381Y-93164895D01*
X135390476Y-93164895D02*
X135847619Y-93164895D01*
X135619047Y-93164895D02*
X135619047Y-92364895D01*
X135619047Y-92364895D02*
X135695238Y-92479180D01*
X135695238Y-92479180D02*
X135771428Y-92555371D01*
X135771428Y-92555371D02*
X135847619Y-92593466D01*
X132564895Y-99097667D02*
X132183942Y-98831000D01*
X132564895Y-98640524D02*
X131764895Y-98640524D01*
X131764895Y-98640524D02*
X131764895Y-98945286D01*
X131764895Y-98945286D02*
X131802990Y-99021476D01*
X131802990Y-99021476D02*
X131841085Y-99059571D01*
X131841085Y-99059571D02*
X131917276Y-99097667D01*
X131917276Y-99097667D02*
X132031561Y-99097667D01*
X132031561Y-99097667D02*
X132107752Y-99059571D01*
X132107752Y-99059571D02*
X132145847Y-99021476D01*
X132145847Y-99021476D02*
X132183942Y-98945286D01*
X132183942Y-98945286D02*
X132183942Y-98640524D01*
X132564895Y-99859571D02*
X132564895Y-99402428D01*
X132564895Y-99631000D02*
X131764895Y-99631000D01*
X131764895Y-99631000D02*
X131879180Y-99554809D01*
X131879180Y-99554809D02*
X131955371Y-99478619D01*
X131955371Y-99478619D02*
X131993466Y-99402428D01*
X150940030Y-87122146D02*
X150940030Y-87169287D01*
X150940030Y-87169287D02*
X150987171Y-87263567D01*
X150987171Y-87263567D02*
X151034311Y-87310708D01*
X151034311Y-87310708D02*
X151128592Y-87357848D01*
X151128592Y-87357848D02*
X151222873Y-87357848D01*
X151222873Y-87357848D02*
X151293584Y-87334278D01*
X151293584Y-87334278D02*
X151411435Y-87263567D01*
X151411435Y-87263567D02*
X151482146Y-87192857D01*
X151482146Y-87192857D02*
X151552856Y-87075006D01*
X151552856Y-87075006D02*
X151576427Y-87004295D01*
X151576427Y-87004295D02*
X151576427Y-86910014D01*
X151576427Y-86910014D02*
X151529286Y-86815733D01*
X151529286Y-86815733D02*
X151482146Y-86768593D01*
X151482146Y-86768593D02*
X151387865Y-86721452D01*
X151387865Y-86721452D02*
X151340724Y-86721452D01*
X150421485Y-86697882D02*
X150704328Y-86980725D01*
X150562907Y-86839303D02*
X151057882Y-86344329D01*
X151057882Y-86344329D02*
X151034311Y-86462180D01*
X151034311Y-86462180D02*
X151034311Y-86556461D01*
X151034311Y-86556461D02*
X151057882Y-86627171D01*
X149950081Y-86226477D02*
X150232923Y-86509320D01*
X150091502Y-86367899D02*
X150586477Y-85872924D01*
X150586477Y-85872924D02*
X150562907Y-85990775D01*
X150562907Y-85990775D02*
X150562907Y-86085056D01*
X150562907Y-86085056D02*
X150586477Y-86155767D01*
X155016667Y-100318633D02*
X155350000Y-100318633D01*
X155350000Y-100318633D02*
X155350000Y-99618633D01*
X154850000Y-99618633D02*
X154416666Y-99618633D01*
X154416666Y-99618633D02*
X154650000Y-99885300D01*
X154650000Y-99885300D02*
X154550000Y-99885300D01*
X154550000Y-99885300D02*
X154483333Y-99918633D01*
X154483333Y-99918633D02*
X154450000Y-99951966D01*
X154450000Y-99951966D02*
X154416666Y-100018633D01*
X154416666Y-100018633D02*
X154416666Y-100185300D01*
X154416666Y-100185300D02*
X154450000Y-100251966D01*
X154450000Y-100251966D02*
X154483333Y-100285300D01*
X154483333Y-100285300D02*
X154550000Y-100318633D01*
X154550000Y-100318633D02*
X154750000Y-100318633D01*
X154750000Y-100318633D02*
X154816666Y-100285300D01*
X154816666Y-100285300D02*
X154850000Y-100251966D01*
X131833333Y-90331304D02*
X131871429Y-90369400D01*
X131871429Y-90369400D02*
X131985714Y-90407495D01*
X131985714Y-90407495D02*
X132061905Y-90407495D01*
X132061905Y-90407495D02*
X132176191Y-90369400D01*
X132176191Y-90369400D02*
X132252381Y-90293209D01*
X132252381Y-90293209D02*
X132290476Y-90217019D01*
X132290476Y-90217019D02*
X132328572Y-90064638D01*
X132328572Y-90064638D02*
X132328572Y-89950352D01*
X132328572Y-89950352D02*
X132290476Y-89797971D01*
X132290476Y-89797971D02*
X132252381Y-89721780D01*
X132252381Y-89721780D02*
X132176191Y-89645590D01*
X132176191Y-89645590D02*
X132061905Y-89607495D01*
X132061905Y-89607495D02*
X131985714Y-89607495D01*
X131985714Y-89607495D02*
X131871429Y-89645590D01*
X131871429Y-89645590D02*
X131833333Y-89683685D01*
X131071429Y-90407495D02*
X131528572Y-90407495D01*
X131300000Y-90407495D02*
X131300000Y-89607495D01*
X131300000Y-89607495D02*
X131376191Y-89721780D01*
X131376191Y-89721780D02*
X131452381Y-89797971D01*
X131452381Y-89797971D02*
X131528572Y-89836066D01*
X130614286Y-89950352D02*
X130690476Y-89912257D01*
X130690476Y-89912257D02*
X130728571Y-89874161D01*
X130728571Y-89874161D02*
X130766667Y-89797971D01*
X130766667Y-89797971D02*
X130766667Y-89759876D01*
X130766667Y-89759876D02*
X130728571Y-89683685D01*
X130728571Y-89683685D02*
X130690476Y-89645590D01*
X130690476Y-89645590D02*
X130614286Y-89607495D01*
X130614286Y-89607495D02*
X130461905Y-89607495D01*
X130461905Y-89607495D02*
X130385714Y-89645590D01*
X130385714Y-89645590D02*
X130347619Y-89683685D01*
X130347619Y-89683685D02*
X130309524Y-89759876D01*
X130309524Y-89759876D02*
X130309524Y-89797971D01*
X130309524Y-89797971D02*
X130347619Y-89874161D01*
X130347619Y-89874161D02*
X130385714Y-89912257D01*
X130385714Y-89912257D02*
X130461905Y-89950352D01*
X130461905Y-89950352D02*
X130614286Y-89950352D01*
X130614286Y-89950352D02*
X130690476Y-89988447D01*
X130690476Y-89988447D02*
X130728571Y-90026542D01*
X130728571Y-90026542D02*
X130766667Y-90102733D01*
X130766667Y-90102733D02*
X130766667Y-90255114D01*
X130766667Y-90255114D02*
X130728571Y-90331304D01*
X130728571Y-90331304D02*
X130690476Y-90369400D01*
X130690476Y-90369400D02*
X130614286Y-90407495D01*
X130614286Y-90407495D02*
X130461905Y-90407495D01*
X130461905Y-90407495D02*
X130385714Y-90369400D01*
X130385714Y-90369400D02*
X130347619Y-90331304D01*
X130347619Y-90331304D02*
X130309524Y-90255114D01*
X130309524Y-90255114D02*
X130309524Y-90102733D01*
X130309524Y-90102733D02*
X130347619Y-90026542D01*
X130347619Y-90026542D02*
X130385714Y-89988447D01*
X130385714Y-89988447D02*
X130461905Y-89950352D01*
X147488704Y-92885714D02*
X147526800Y-92847618D01*
X147526800Y-92847618D02*
X147564895Y-92733333D01*
X147564895Y-92733333D02*
X147564895Y-92657142D01*
X147564895Y-92657142D02*
X147526800Y-92542856D01*
X147526800Y-92542856D02*
X147450609Y-92466666D01*
X147450609Y-92466666D02*
X147374419Y-92428571D01*
X147374419Y-92428571D02*
X147222038Y-92390475D01*
X147222038Y-92390475D02*
X147107752Y-92390475D01*
X147107752Y-92390475D02*
X146955371Y-92428571D01*
X146955371Y-92428571D02*
X146879180Y-92466666D01*
X146879180Y-92466666D02*
X146802990Y-92542856D01*
X146802990Y-92542856D02*
X146764895Y-92657142D01*
X146764895Y-92657142D02*
X146764895Y-92733333D01*
X146764895Y-92733333D02*
X146802990Y-92847618D01*
X146802990Y-92847618D02*
X146841085Y-92885714D01*
X146841085Y-93190475D02*
X146802990Y-93228571D01*
X146802990Y-93228571D02*
X146764895Y-93304761D01*
X146764895Y-93304761D02*
X146764895Y-93495237D01*
X146764895Y-93495237D02*
X146802990Y-93571428D01*
X146802990Y-93571428D02*
X146841085Y-93609523D01*
X146841085Y-93609523D02*
X146917276Y-93647618D01*
X146917276Y-93647618D02*
X146993466Y-93647618D01*
X146993466Y-93647618D02*
X147107752Y-93609523D01*
X147107752Y-93609523D02*
X147564895Y-93152380D01*
X147564895Y-93152380D02*
X147564895Y-93647618D01*
X146764895Y-94142857D02*
X146764895Y-94219047D01*
X146764895Y-94219047D02*
X146802990Y-94295238D01*
X146802990Y-94295238D02*
X146841085Y-94333333D01*
X146841085Y-94333333D02*
X146917276Y-94371428D01*
X146917276Y-94371428D02*
X147069657Y-94409523D01*
X147069657Y-94409523D02*
X147260133Y-94409523D01*
X147260133Y-94409523D02*
X147412514Y-94371428D01*
X147412514Y-94371428D02*
X147488704Y-94333333D01*
X147488704Y-94333333D02*
X147526800Y-94295238D01*
X147526800Y-94295238D02*
X147564895Y-94219047D01*
X147564895Y-94219047D02*
X147564895Y-94142857D01*
X147564895Y-94142857D02*
X147526800Y-94066666D01*
X147526800Y-94066666D02*
X147488704Y-94028571D01*
X147488704Y-94028571D02*
X147412514Y-93990476D01*
X147412514Y-93990476D02*
X147260133Y-93952380D01*
X147260133Y-93952380D02*
X147069657Y-93952380D01*
X147069657Y-93952380D02*
X146917276Y-93990476D01*
X146917276Y-93990476D02*
X146841085Y-94028571D01*
X146841085Y-94028571D02*
X146802990Y-94066666D01*
X146802990Y-94066666D02*
X146764895Y-94142857D01*
X144814285Y-88988704D02*
X144852381Y-89026800D01*
X144852381Y-89026800D02*
X144966666Y-89064895D01*
X144966666Y-89064895D02*
X145042857Y-89064895D01*
X145042857Y-89064895D02*
X145157143Y-89026800D01*
X145157143Y-89026800D02*
X145233333Y-88950609D01*
X145233333Y-88950609D02*
X145271428Y-88874419D01*
X145271428Y-88874419D02*
X145309524Y-88722038D01*
X145309524Y-88722038D02*
X145309524Y-88607752D01*
X145309524Y-88607752D02*
X145271428Y-88455371D01*
X145271428Y-88455371D02*
X145233333Y-88379180D01*
X145233333Y-88379180D02*
X145157143Y-88302990D01*
X145157143Y-88302990D02*
X145042857Y-88264895D01*
X145042857Y-88264895D02*
X144966666Y-88264895D01*
X144966666Y-88264895D02*
X144852381Y-88302990D01*
X144852381Y-88302990D02*
X144814285Y-88341085D01*
X144052381Y-89064895D02*
X144509524Y-89064895D01*
X144280952Y-89064895D02*
X144280952Y-88264895D01*
X144280952Y-88264895D02*
X144357143Y-88379180D01*
X144357143Y-88379180D02*
X144433333Y-88455371D01*
X144433333Y-88455371D02*
X144509524Y-88493466D01*
X143328571Y-88264895D02*
X143709523Y-88264895D01*
X143709523Y-88264895D02*
X143747619Y-88645847D01*
X143747619Y-88645847D02*
X143709523Y-88607752D01*
X143709523Y-88607752D02*
X143633333Y-88569657D01*
X143633333Y-88569657D02*
X143442857Y-88569657D01*
X143442857Y-88569657D02*
X143366666Y-88607752D01*
X143366666Y-88607752D02*
X143328571Y-88645847D01*
X143328571Y-88645847D02*
X143290476Y-88722038D01*
X143290476Y-88722038D02*
X143290476Y-88912514D01*
X143290476Y-88912514D02*
X143328571Y-88988704D01*
X143328571Y-88988704D02*
X143366666Y-89026800D01*
X143366666Y-89026800D02*
X143442857Y-89064895D01*
X143442857Y-89064895D02*
X143633333Y-89064895D01*
X143633333Y-89064895D02*
X143709523Y-89026800D01*
X143709523Y-89026800D02*
X143747619Y-88988704D01*
X158550000Y-94618633D02*
X158883333Y-94618633D01*
X158883333Y-94618633D02*
X158883333Y-93918633D01*
X157949999Y-94618633D02*
X158349999Y-94618633D01*
X158149999Y-94618633D02*
X158149999Y-93918633D01*
X158149999Y-93918633D02*
X158216666Y-94018633D01*
X158216666Y-94018633D02*
X158283333Y-94085300D01*
X158283333Y-94085300D02*
X158349999Y-94118633D01*
X157716666Y-93918633D02*
X157283332Y-93918633D01*
X157283332Y-93918633D02*
X157516666Y-94185300D01*
X157516666Y-94185300D02*
X157416666Y-94185300D01*
X157416666Y-94185300D02*
X157349999Y-94218633D01*
X157349999Y-94218633D02*
X157316666Y-94251966D01*
X157316666Y-94251966D02*
X157283332Y-94318633D01*
X157283332Y-94318633D02*
X157283332Y-94485300D01*
X157283332Y-94485300D02*
X157316666Y-94551966D01*
X157316666Y-94551966D02*
X157349999Y-94585300D01*
X157349999Y-94585300D02*
X157416666Y-94618633D01*
X157416666Y-94618633D02*
X157616666Y-94618633D01*
X157616666Y-94618633D02*
X157683332Y-94585300D01*
X157683332Y-94585300D02*
X157716666Y-94551966D01*
X130564895Y-101633333D02*
X131136323Y-101633333D01*
X131136323Y-101633333D02*
X131250609Y-101595238D01*
X131250609Y-101595238D02*
X131326800Y-101519047D01*
X131326800Y-101519047D02*
X131364895Y-101404762D01*
X131364895Y-101404762D02*
X131364895Y-101328571D01*
X131364895Y-102433333D02*
X131364895Y-101976190D01*
X131364895Y-102204762D02*
X130564895Y-102204762D01*
X130564895Y-102204762D02*
X130679180Y-102128571D01*
X130679180Y-102128571D02*
X130755371Y-102052381D01*
X130755371Y-102052381D02*
X130793466Y-101976190D01*
X126364895Y-97133333D02*
X126936323Y-97133333D01*
X126936323Y-97133333D02*
X127050609Y-97095238D01*
X127050609Y-97095238D02*
X127126800Y-97019047D01*
X127126800Y-97019047D02*
X127164895Y-96904762D01*
X127164895Y-96904762D02*
X127164895Y-96828571D01*
X127164895Y-97933333D02*
X127164895Y-97476190D01*
X127164895Y-97704762D02*
X126364895Y-97704762D01*
X126364895Y-97704762D02*
X126479180Y-97628571D01*
X126479180Y-97628571D02*
X126555371Y-97552381D01*
X126555371Y-97552381D02*
X126593466Y-97476190D01*
X129114895Y-83766667D02*
X128733942Y-83500000D01*
X129114895Y-83309524D02*
X128314895Y-83309524D01*
X128314895Y-83309524D02*
X128314895Y-83614286D01*
X128314895Y-83614286D02*
X128352990Y-83690476D01*
X128352990Y-83690476D02*
X128391085Y-83728571D01*
X128391085Y-83728571D02*
X128467276Y-83766667D01*
X128467276Y-83766667D02*
X128581561Y-83766667D01*
X128581561Y-83766667D02*
X128657752Y-83728571D01*
X128657752Y-83728571D02*
X128695847Y-83690476D01*
X128695847Y-83690476D02*
X128733942Y-83614286D01*
X128733942Y-83614286D02*
X128733942Y-83309524D01*
X128314895Y-84452381D02*
X128314895Y-84300000D01*
X128314895Y-84300000D02*
X128352990Y-84223809D01*
X128352990Y-84223809D02*
X128391085Y-84185714D01*
X128391085Y-84185714D02*
X128505371Y-84109524D01*
X128505371Y-84109524D02*
X128657752Y-84071428D01*
X128657752Y-84071428D02*
X128962514Y-84071428D01*
X128962514Y-84071428D02*
X129038704Y-84109524D01*
X129038704Y-84109524D02*
X129076800Y-84147619D01*
X129076800Y-84147619D02*
X129114895Y-84223809D01*
X129114895Y-84223809D02*
X129114895Y-84376190D01*
X129114895Y-84376190D02*
X129076800Y-84452381D01*
X129076800Y-84452381D02*
X129038704Y-84490476D01*
X129038704Y-84490476D02*
X128962514Y-84528571D01*
X128962514Y-84528571D02*
X128772038Y-84528571D01*
X128772038Y-84528571D02*
X128695847Y-84490476D01*
X128695847Y-84490476D02*
X128657752Y-84452381D01*
X128657752Y-84452381D02*
X128619657Y-84376190D01*
X128619657Y-84376190D02*
X128619657Y-84223809D01*
X128619657Y-84223809D02*
X128657752Y-84147619D01*
X128657752Y-84147619D02*
X128695847Y-84109524D01*
X128695847Y-84109524D02*
X128772038Y-84071428D01*
X157950000Y-90151966D02*
X157983333Y-90185300D01*
X157983333Y-90185300D02*
X158083333Y-90218633D01*
X158083333Y-90218633D02*
X158150000Y-90218633D01*
X158150000Y-90218633D02*
X158250000Y-90185300D01*
X158250000Y-90185300D02*
X158316667Y-90118633D01*
X158316667Y-90118633D02*
X158350000Y-90051966D01*
X158350000Y-90051966D02*
X158383333Y-89918633D01*
X158383333Y-89918633D02*
X158383333Y-89818633D01*
X158383333Y-89818633D02*
X158350000Y-89685300D01*
X158350000Y-89685300D02*
X158316667Y-89618633D01*
X158316667Y-89618633D02*
X158250000Y-89551966D01*
X158250000Y-89551966D02*
X158150000Y-89518633D01*
X158150000Y-89518633D02*
X158083333Y-89518633D01*
X158083333Y-89518633D02*
X157983333Y-89551966D01*
X157983333Y-89551966D02*
X157950000Y-89585300D01*
X157716667Y-89518633D02*
X157283333Y-89518633D01*
X157283333Y-89518633D02*
X157516667Y-89785300D01*
X157516667Y-89785300D02*
X157416667Y-89785300D01*
X157416667Y-89785300D02*
X157350000Y-89818633D01*
X157350000Y-89818633D02*
X157316667Y-89851966D01*
X157316667Y-89851966D02*
X157283333Y-89918633D01*
X157283333Y-89918633D02*
X157283333Y-90085300D01*
X157283333Y-90085300D02*
X157316667Y-90151966D01*
X157316667Y-90151966D02*
X157350000Y-90185300D01*
X157350000Y-90185300D02*
X157416667Y-90218633D01*
X157416667Y-90218633D02*
X157616667Y-90218633D01*
X157616667Y-90218633D02*
X157683333Y-90185300D01*
X157683333Y-90185300D02*
X157716667Y-90151966D01*
X157050000Y-89518633D02*
X156616666Y-89518633D01*
X156616666Y-89518633D02*
X156850000Y-89785300D01*
X156850000Y-89785300D02*
X156750000Y-89785300D01*
X156750000Y-89785300D02*
X156683333Y-89818633D01*
X156683333Y-89818633D02*
X156650000Y-89851966D01*
X156650000Y-89851966D02*
X156616666Y-89918633D01*
X156616666Y-89918633D02*
X156616666Y-90085300D01*
X156616666Y-90085300D02*
X156650000Y-90151966D01*
X156650000Y-90151966D02*
X156683333Y-90185300D01*
X156683333Y-90185300D02*
X156750000Y-90218633D01*
X156750000Y-90218633D02*
X156950000Y-90218633D01*
X156950000Y-90218633D02*
X157016666Y-90185300D01*
X157016666Y-90185300D02*
X157050000Y-90151966D01*
X130833475Y-76564895D02*
X130833475Y-75764895D01*
X130833475Y-75764895D02*
X130642999Y-75764895D01*
X130642999Y-75764895D02*
X130528713Y-75802990D01*
X130528713Y-75802990D02*
X130452523Y-75879180D01*
X130452523Y-75879180D02*
X130414428Y-75955371D01*
X130414428Y-75955371D02*
X130376332Y-76107752D01*
X130376332Y-76107752D02*
X130376332Y-76222038D01*
X130376332Y-76222038D02*
X130414428Y-76374419D01*
X130414428Y-76374419D02*
X130452523Y-76450609D01*
X130452523Y-76450609D02*
X130528713Y-76526800D01*
X130528713Y-76526800D02*
X130642999Y-76564895D01*
X130642999Y-76564895D02*
X130833475Y-76564895D01*
X130109666Y-75764895D02*
X129614428Y-75764895D01*
X129614428Y-75764895D02*
X129881094Y-76069657D01*
X129881094Y-76069657D02*
X129766809Y-76069657D01*
X129766809Y-76069657D02*
X129690618Y-76107752D01*
X129690618Y-76107752D02*
X129652523Y-76145847D01*
X129652523Y-76145847D02*
X129614428Y-76222038D01*
X129614428Y-76222038D02*
X129614428Y-76412514D01*
X129614428Y-76412514D02*
X129652523Y-76488704D01*
X129652523Y-76488704D02*
X129690618Y-76526800D01*
X129690618Y-76526800D02*
X129766809Y-76564895D01*
X129766809Y-76564895D02*
X129995380Y-76564895D01*
X129995380Y-76564895D02*
X130071571Y-76526800D01*
X130071571Y-76526800D02*
X130109666Y-76488704D01*
X132564895Y-97066667D02*
X132183942Y-96800000D01*
X132564895Y-96609524D02*
X131764895Y-96609524D01*
X131764895Y-96609524D02*
X131764895Y-96914286D01*
X131764895Y-96914286D02*
X131802990Y-96990476D01*
X131802990Y-96990476D02*
X131841085Y-97028571D01*
X131841085Y-97028571D02*
X131917276Y-97066667D01*
X131917276Y-97066667D02*
X132031561Y-97066667D01*
X132031561Y-97066667D02*
X132107752Y-97028571D01*
X132107752Y-97028571D02*
X132145847Y-96990476D01*
X132145847Y-96990476D02*
X132183942Y-96914286D01*
X132183942Y-96914286D02*
X132183942Y-96609524D01*
X131841085Y-97371428D02*
X131802990Y-97409524D01*
X131802990Y-97409524D02*
X131764895Y-97485714D01*
X131764895Y-97485714D02*
X131764895Y-97676190D01*
X131764895Y-97676190D02*
X131802990Y-97752381D01*
X131802990Y-97752381D02*
X131841085Y-97790476D01*
X131841085Y-97790476D02*
X131917276Y-97828571D01*
X131917276Y-97828571D02*
X131993466Y-97828571D01*
X131993466Y-97828571D02*
X132107752Y-97790476D01*
X132107752Y-97790476D02*
X132564895Y-97333333D01*
X132564895Y-97333333D02*
X132564895Y-97828571D01*
X144764895Y-82460714D02*
X144764895Y-82079762D01*
X144764895Y-82079762D02*
X143964895Y-82079762D01*
X144764895Y-83146428D02*
X144764895Y-82689285D01*
X144764895Y-82917857D02*
X143964895Y-82917857D01*
X143964895Y-82917857D02*
X144079180Y-82841666D01*
X144079180Y-82841666D02*
X144155371Y-82765476D01*
X144155371Y-82765476D02*
X144193466Y-82689285D01*
X143964895Y-83641667D02*
X143964895Y-83717857D01*
X143964895Y-83717857D02*
X144002990Y-83794048D01*
X144002990Y-83794048D02*
X144041085Y-83832143D01*
X144041085Y-83832143D02*
X144117276Y-83870238D01*
X144117276Y-83870238D02*
X144269657Y-83908333D01*
X144269657Y-83908333D02*
X144460133Y-83908333D01*
X144460133Y-83908333D02*
X144612514Y-83870238D01*
X144612514Y-83870238D02*
X144688704Y-83832143D01*
X144688704Y-83832143D02*
X144726800Y-83794048D01*
X144726800Y-83794048D02*
X144764895Y-83717857D01*
X144764895Y-83717857D02*
X144764895Y-83641667D01*
X144764895Y-83641667D02*
X144726800Y-83565476D01*
X144726800Y-83565476D02*
X144688704Y-83527381D01*
X144688704Y-83527381D02*
X144612514Y-83489286D01*
X144612514Y-83489286D02*
X144460133Y-83451190D01*
X144460133Y-83451190D02*
X144269657Y-83451190D01*
X144269657Y-83451190D02*
X144117276Y-83489286D01*
X144117276Y-83489286D02*
X144041085Y-83527381D01*
X144041085Y-83527381D02*
X144002990Y-83565476D01*
X144002990Y-83565476D02*
X143964895Y-83641667D01*
X145409523Y-101264895D02*
X145409523Y-101912514D01*
X145409523Y-101912514D02*
X145371428Y-101988704D01*
X145371428Y-101988704D02*
X145333333Y-102026800D01*
X145333333Y-102026800D02*
X145257142Y-102064895D01*
X145257142Y-102064895D02*
X145104761Y-102064895D01*
X145104761Y-102064895D02*
X145028571Y-102026800D01*
X145028571Y-102026800D02*
X144990476Y-101988704D01*
X144990476Y-101988704D02*
X144952380Y-101912514D01*
X144952380Y-101912514D02*
X144952380Y-101264895D01*
X144152381Y-102064895D02*
X144609524Y-102064895D01*
X144380952Y-102064895D02*
X144380952Y-101264895D01*
X144380952Y-101264895D02*
X144457143Y-101379180D01*
X144457143Y-101379180D02*
X144533333Y-101455371D01*
X144533333Y-101455371D02*
X144609524Y-101493466D01*
X153433333Y-95018633D02*
X153433333Y-95585300D01*
X153433333Y-95585300D02*
X153400000Y-95651966D01*
X153400000Y-95651966D02*
X153366666Y-95685300D01*
X153366666Y-95685300D02*
X153300000Y-95718633D01*
X153300000Y-95718633D02*
X153166666Y-95718633D01*
X153166666Y-95718633D02*
X153100000Y-95685300D01*
X153100000Y-95685300D02*
X153066666Y-95651966D01*
X153066666Y-95651966D02*
X153033333Y-95585300D01*
X153033333Y-95585300D02*
X153033333Y-95018633D01*
X152766667Y-95018633D02*
X152333333Y-95018633D01*
X152333333Y-95018633D02*
X152566667Y-95285300D01*
X152566667Y-95285300D02*
X152466667Y-95285300D01*
X152466667Y-95285300D02*
X152400000Y-95318633D01*
X152400000Y-95318633D02*
X152366667Y-95351966D01*
X152366667Y-95351966D02*
X152333333Y-95418633D01*
X152333333Y-95418633D02*
X152333333Y-95585300D01*
X152333333Y-95585300D02*
X152366667Y-95651966D01*
X152366667Y-95651966D02*
X152400000Y-95685300D01*
X152400000Y-95685300D02*
X152466667Y-95718633D01*
X152466667Y-95718633D02*
X152666667Y-95718633D01*
X152666667Y-95718633D02*
X152733333Y-95685300D01*
X152733333Y-95685300D02*
X152766667Y-95651966D01*
X135880951Y-77983942D02*
X135880951Y-78364895D01*
X136147618Y-77564895D02*
X135880951Y-77983942D01*
X135880951Y-77983942D02*
X135614285Y-77564895D01*
X134928571Y-78364895D02*
X135385714Y-78364895D01*
X135157142Y-78364895D02*
X135157142Y-77564895D01*
X135157142Y-77564895D02*
X135233333Y-77679180D01*
X135233333Y-77679180D02*
X135309523Y-77755371D01*
X135309523Y-77755371D02*
X135385714Y-77793466D01*
X151451966Y-93583333D02*
X151485300Y-93550000D01*
X151485300Y-93550000D02*
X151518633Y-93450000D01*
X151518633Y-93450000D02*
X151518633Y-93383333D01*
X151518633Y-93383333D02*
X151485300Y-93283333D01*
X151485300Y-93283333D02*
X151418633Y-93216667D01*
X151418633Y-93216667D02*
X151351966Y-93183333D01*
X151351966Y-93183333D02*
X151218633Y-93150000D01*
X151218633Y-93150000D02*
X151118633Y-93150000D01*
X151118633Y-93150000D02*
X150985300Y-93183333D01*
X150985300Y-93183333D02*
X150918633Y-93216667D01*
X150918633Y-93216667D02*
X150851966Y-93283333D01*
X150851966Y-93283333D02*
X150818633Y-93383333D01*
X150818633Y-93383333D02*
X150818633Y-93450000D01*
X150818633Y-93450000D02*
X150851966Y-93550000D01*
X150851966Y-93550000D02*
X150885300Y-93583333D01*
X151518633Y-93916667D02*
X151518633Y-94050000D01*
X151518633Y-94050000D02*
X151485300Y-94116667D01*
X151485300Y-94116667D02*
X151451966Y-94150000D01*
X151451966Y-94150000D02*
X151351966Y-94216667D01*
X151351966Y-94216667D02*
X151218633Y-94250000D01*
X151218633Y-94250000D02*
X150951966Y-94250000D01*
X150951966Y-94250000D02*
X150885300Y-94216667D01*
X150885300Y-94216667D02*
X150851966Y-94183333D01*
X150851966Y-94183333D02*
X150818633Y-94116667D01*
X150818633Y-94116667D02*
X150818633Y-93983333D01*
X150818633Y-93983333D02*
X150851966Y-93916667D01*
X150851966Y-93916667D02*
X150885300Y-93883333D01*
X150885300Y-93883333D02*
X150951966Y-93850000D01*
X150951966Y-93850000D02*
X151118633Y-93850000D01*
X151118633Y-93850000D02*
X151185300Y-93883333D01*
X151185300Y-93883333D02*
X151218633Y-93916667D01*
X151218633Y-93916667D02*
X151251966Y-93983333D01*
X151251966Y-93983333D02*
X151251966Y-94116667D01*
X151251966Y-94116667D02*
X151218633Y-94183333D01*
X151218633Y-94183333D02*
X151185300Y-94216667D01*
X151185300Y-94216667D02*
X151118633Y-94250000D01*
X131914285Y-86692704D02*
X131952381Y-86730800D01*
X131952381Y-86730800D02*
X132066666Y-86768895D01*
X132066666Y-86768895D02*
X132142857Y-86768895D01*
X132142857Y-86768895D02*
X132257143Y-86730800D01*
X132257143Y-86730800D02*
X132333333Y-86654609D01*
X132333333Y-86654609D02*
X132371428Y-86578419D01*
X132371428Y-86578419D02*
X132409524Y-86426038D01*
X132409524Y-86426038D02*
X132409524Y-86311752D01*
X132409524Y-86311752D02*
X132371428Y-86159371D01*
X132371428Y-86159371D02*
X132333333Y-86083180D01*
X132333333Y-86083180D02*
X132257143Y-86006990D01*
X132257143Y-86006990D02*
X132142857Y-85968895D01*
X132142857Y-85968895D02*
X132066666Y-85968895D01*
X132066666Y-85968895D02*
X131952381Y-86006990D01*
X131952381Y-86006990D02*
X131914285Y-86045085D01*
X131152381Y-86768895D02*
X131609524Y-86768895D01*
X131380952Y-86768895D02*
X131380952Y-85968895D01*
X131380952Y-85968895D02*
X131457143Y-86083180D01*
X131457143Y-86083180D02*
X131533333Y-86159371D01*
X131533333Y-86159371D02*
X131609524Y-86197466D01*
X130466666Y-86235561D02*
X130466666Y-86768895D01*
X130657142Y-85930800D02*
X130847619Y-86502228D01*
X130847619Y-86502228D02*
X130352380Y-86502228D01*
X158886666Y-100051966D02*
X158919999Y-100085300D01*
X158919999Y-100085300D02*
X159019999Y-100118633D01*
X159019999Y-100118633D02*
X159086666Y-100118633D01*
X159086666Y-100118633D02*
X159186666Y-100085300D01*
X159186666Y-100085300D02*
X159253333Y-100018633D01*
X159253333Y-100018633D02*
X159286666Y-99951966D01*
X159286666Y-99951966D02*
X159319999Y-99818633D01*
X159319999Y-99818633D02*
X159319999Y-99718633D01*
X159319999Y-99718633D02*
X159286666Y-99585300D01*
X159286666Y-99585300D02*
X159253333Y-99518633D01*
X159253333Y-99518633D02*
X159186666Y-99451966D01*
X159186666Y-99451966D02*
X159086666Y-99418633D01*
X159086666Y-99418633D02*
X159019999Y-99418633D01*
X159019999Y-99418633D02*
X158919999Y-99451966D01*
X158919999Y-99451966D02*
X158886666Y-99485300D01*
X158286666Y-99651966D02*
X158286666Y-100118633D01*
X158453333Y-99385300D02*
X158619999Y-99885300D01*
X158619999Y-99885300D02*
X158186666Y-99885300D01*
X151251966Y-99383333D02*
X151285300Y-99350000D01*
X151285300Y-99350000D02*
X151318633Y-99250000D01*
X151318633Y-99250000D02*
X151318633Y-99183333D01*
X151318633Y-99183333D02*
X151285300Y-99083333D01*
X151285300Y-99083333D02*
X151218633Y-99016667D01*
X151218633Y-99016667D02*
X151151966Y-98983333D01*
X151151966Y-98983333D02*
X151018633Y-98950000D01*
X151018633Y-98950000D02*
X150918633Y-98950000D01*
X150918633Y-98950000D02*
X150785300Y-98983333D01*
X150785300Y-98983333D02*
X150718633Y-99016667D01*
X150718633Y-99016667D02*
X150651966Y-99083333D01*
X150651966Y-99083333D02*
X150618633Y-99183333D01*
X150618633Y-99183333D02*
X150618633Y-99250000D01*
X150618633Y-99250000D02*
X150651966Y-99350000D01*
X150651966Y-99350000D02*
X150685300Y-99383333D01*
X150618633Y-99616667D02*
X150618633Y-100083333D01*
X150618633Y-100083333D02*
X151318633Y-99783333D01*
X143888704Y-94766667D02*
X143926800Y-94728571D01*
X143926800Y-94728571D02*
X143964895Y-94614286D01*
X143964895Y-94614286D02*
X143964895Y-94538095D01*
X143964895Y-94538095D02*
X143926800Y-94423809D01*
X143926800Y-94423809D02*
X143850609Y-94347619D01*
X143850609Y-94347619D02*
X143774419Y-94309524D01*
X143774419Y-94309524D02*
X143622038Y-94271428D01*
X143622038Y-94271428D02*
X143507752Y-94271428D01*
X143507752Y-94271428D02*
X143355371Y-94309524D01*
X143355371Y-94309524D02*
X143279180Y-94347619D01*
X143279180Y-94347619D02*
X143202990Y-94423809D01*
X143202990Y-94423809D02*
X143164895Y-94538095D01*
X143164895Y-94538095D02*
X143164895Y-94614286D01*
X143164895Y-94614286D02*
X143202990Y-94728571D01*
X143202990Y-94728571D02*
X143241085Y-94766667D01*
X143164895Y-95033333D02*
X143164895Y-95528571D01*
X143164895Y-95528571D02*
X143469657Y-95261905D01*
X143469657Y-95261905D02*
X143469657Y-95376190D01*
X143469657Y-95376190D02*
X143507752Y-95452381D01*
X143507752Y-95452381D02*
X143545847Y-95490476D01*
X143545847Y-95490476D02*
X143622038Y-95528571D01*
X143622038Y-95528571D02*
X143812514Y-95528571D01*
X143812514Y-95528571D02*
X143888704Y-95490476D01*
X143888704Y-95490476D02*
X143926800Y-95452381D01*
X143926800Y-95452381D02*
X143964895Y-95376190D01*
X143964895Y-95376190D02*
X143964895Y-95147619D01*
X143964895Y-95147619D02*
X143926800Y-95071428D01*
X143926800Y-95071428D02*
X143888704Y-95033333D01*
X131833332Y-92464895D02*
X132099999Y-92083942D01*
X132290475Y-92464895D02*
X132290475Y-91664895D01*
X132290475Y-91664895D02*
X131985713Y-91664895D01*
X131985713Y-91664895D02*
X131909523Y-91702990D01*
X131909523Y-91702990D02*
X131871428Y-91741085D01*
X131871428Y-91741085D02*
X131833332Y-91817276D01*
X131833332Y-91817276D02*
X131833332Y-91931561D01*
X131833332Y-91931561D02*
X131871428Y-92007752D01*
X131871428Y-92007752D02*
X131909523Y-92045847D01*
X131909523Y-92045847D02*
X131985713Y-92083942D01*
X131985713Y-92083942D02*
X132290475Y-92083942D01*
X131452380Y-92464895D02*
X131299999Y-92464895D01*
X131299999Y-92464895D02*
X131223809Y-92426800D01*
X131223809Y-92426800D02*
X131185713Y-92388704D01*
X131185713Y-92388704D02*
X131109523Y-92274419D01*
X131109523Y-92274419D02*
X131071428Y-92122038D01*
X131071428Y-92122038D02*
X131071428Y-91817276D01*
X131071428Y-91817276D02*
X131109523Y-91741085D01*
X131109523Y-91741085D02*
X131147618Y-91702990D01*
X131147618Y-91702990D02*
X131223809Y-91664895D01*
X131223809Y-91664895D02*
X131376190Y-91664895D01*
X131376190Y-91664895D02*
X131452380Y-91702990D01*
X131452380Y-91702990D02*
X131490475Y-91741085D01*
X131490475Y-91741085D02*
X131528571Y-91817276D01*
X131528571Y-91817276D02*
X131528571Y-92007752D01*
X131528571Y-92007752D02*
X131490475Y-92083942D01*
X131490475Y-92083942D02*
X131452380Y-92122038D01*
X131452380Y-92122038D02*
X131376190Y-92160133D01*
X131376190Y-92160133D02*
X131223809Y-92160133D01*
X131223809Y-92160133D02*
X131147618Y-92122038D01*
X131147618Y-92122038D02*
X131109523Y-92083942D01*
X131109523Y-92083942D02*
X131071428Y-92007752D01*
X157750000Y-97251966D02*
X157783333Y-97285300D01*
X157783333Y-97285300D02*
X157883333Y-97318633D01*
X157883333Y-97318633D02*
X157950000Y-97318633D01*
X157950000Y-97318633D02*
X158050000Y-97285300D01*
X158050000Y-97285300D02*
X158116667Y-97218633D01*
X158116667Y-97218633D02*
X158150000Y-97151966D01*
X158150000Y-97151966D02*
X158183333Y-97018633D01*
X158183333Y-97018633D02*
X158183333Y-96918633D01*
X158183333Y-96918633D02*
X158150000Y-96785300D01*
X158150000Y-96785300D02*
X158116667Y-96718633D01*
X158116667Y-96718633D02*
X158050000Y-96651966D01*
X158050000Y-96651966D02*
X157950000Y-96618633D01*
X157950000Y-96618633D02*
X157883333Y-96618633D01*
X157883333Y-96618633D02*
X157783333Y-96651966D01*
X157783333Y-96651966D02*
X157750000Y-96685300D01*
X157516667Y-96618633D02*
X157083333Y-96618633D01*
X157083333Y-96618633D02*
X157316667Y-96885300D01*
X157316667Y-96885300D02*
X157216667Y-96885300D01*
X157216667Y-96885300D02*
X157150000Y-96918633D01*
X157150000Y-96918633D02*
X157116667Y-96951966D01*
X157116667Y-96951966D02*
X157083333Y-97018633D01*
X157083333Y-97018633D02*
X157083333Y-97185300D01*
X157083333Y-97185300D02*
X157116667Y-97251966D01*
X157116667Y-97251966D02*
X157150000Y-97285300D01*
X157150000Y-97285300D02*
X157216667Y-97318633D01*
X157216667Y-97318633D02*
X157416667Y-97318633D01*
X157416667Y-97318633D02*
X157483333Y-97285300D01*
X157483333Y-97285300D02*
X157516667Y-97251966D01*
X156416666Y-97318633D02*
X156816666Y-97318633D01*
X156616666Y-97318633D02*
X156616666Y-96618633D01*
X156616666Y-96618633D02*
X156683333Y-96718633D01*
X156683333Y-96718633D02*
X156750000Y-96785300D01*
X156750000Y-96785300D02*
X156816666Y-96818633D01*
X162218633Y-80929500D02*
X162218633Y-80596166D01*
X162218633Y-80596166D02*
X161518633Y-80596166D01*
X162218633Y-81529500D02*
X162218633Y-81129500D01*
X162218633Y-81329500D02*
X161518633Y-81329500D01*
X161518633Y-81329500D02*
X161618633Y-81262833D01*
X161618633Y-81262833D02*
X161685300Y-81196167D01*
X161685300Y-81196167D02*
X161718633Y-81129500D01*
X162218633Y-82196167D02*
X162218633Y-81796167D01*
X162218633Y-81996167D02*
X161518633Y-81996167D01*
X161518633Y-81996167D02*
X161618633Y-81929500D01*
X161618633Y-81929500D02*
X161685300Y-81862834D01*
X161685300Y-81862834D02*
X161718633Y-81796167D01*
X130664895Y-83785714D02*
X130283942Y-83519047D01*
X130664895Y-83328571D02*
X129864895Y-83328571D01*
X129864895Y-83328571D02*
X129864895Y-83633333D01*
X129864895Y-83633333D02*
X129902990Y-83709523D01*
X129902990Y-83709523D02*
X129941085Y-83747618D01*
X129941085Y-83747618D02*
X130017276Y-83785714D01*
X130017276Y-83785714D02*
X130131561Y-83785714D01*
X130131561Y-83785714D02*
X130207752Y-83747618D01*
X130207752Y-83747618D02*
X130245847Y-83709523D01*
X130245847Y-83709523D02*
X130283942Y-83633333D01*
X130283942Y-83633333D02*
X130283942Y-83328571D01*
X129941085Y-84090475D02*
X129902990Y-84128571D01*
X129902990Y-84128571D02*
X129864895Y-84204761D01*
X129864895Y-84204761D02*
X129864895Y-84395237D01*
X129864895Y-84395237D02*
X129902990Y-84471428D01*
X129902990Y-84471428D02*
X129941085Y-84509523D01*
X129941085Y-84509523D02*
X130017276Y-84547618D01*
X130017276Y-84547618D02*
X130093466Y-84547618D01*
X130093466Y-84547618D02*
X130207752Y-84509523D01*
X130207752Y-84509523D02*
X130664895Y-84052380D01*
X130664895Y-84052380D02*
X130664895Y-84547618D01*
X129864895Y-84814285D02*
X129864895Y-85309523D01*
X129864895Y-85309523D02*
X130169657Y-85042857D01*
X130169657Y-85042857D02*
X130169657Y-85157142D01*
X130169657Y-85157142D02*
X130207752Y-85233333D01*
X130207752Y-85233333D02*
X130245847Y-85271428D01*
X130245847Y-85271428D02*
X130322038Y-85309523D01*
X130322038Y-85309523D02*
X130512514Y-85309523D01*
X130512514Y-85309523D02*
X130588704Y-85271428D01*
X130588704Y-85271428D02*
X130626800Y-85233333D01*
X130626800Y-85233333D02*
X130664895Y-85157142D01*
X130664895Y-85157142D02*
X130664895Y-84928571D01*
X130664895Y-84928571D02*
X130626800Y-84852380D01*
X130626800Y-84852380D02*
X130588704Y-84814285D01*
X148516666Y-92118633D02*
X148749999Y-91785300D01*
X148916666Y-92118633D02*
X148916666Y-91418633D01*
X148916666Y-91418633D02*
X148649999Y-91418633D01*
X148649999Y-91418633D02*
X148583333Y-91451966D01*
X148583333Y-91451966D02*
X148549999Y-91485300D01*
X148549999Y-91485300D02*
X148516666Y-91551966D01*
X148516666Y-91551966D02*
X148516666Y-91651966D01*
X148516666Y-91651966D02*
X148549999Y-91718633D01*
X148549999Y-91718633D02*
X148583333Y-91751966D01*
X148583333Y-91751966D02*
X148649999Y-91785300D01*
X148649999Y-91785300D02*
X148916666Y-91785300D01*
X148116666Y-91718633D02*
X148183333Y-91685300D01*
X148183333Y-91685300D02*
X148216666Y-91651966D01*
X148216666Y-91651966D02*
X148249999Y-91585300D01*
X148249999Y-91585300D02*
X148249999Y-91551966D01*
X148249999Y-91551966D02*
X148216666Y-91485300D01*
X148216666Y-91485300D02*
X148183333Y-91451966D01*
X148183333Y-91451966D02*
X148116666Y-91418633D01*
X148116666Y-91418633D02*
X147983333Y-91418633D01*
X147983333Y-91418633D02*
X147916666Y-91451966D01*
X147916666Y-91451966D02*
X147883333Y-91485300D01*
X147883333Y-91485300D02*
X147849999Y-91551966D01*
X147849999Y-91551966D02*
X147849999Y-91585300D01*
X147849999Y-91585300D02*
X147883333Y-91651966D01*
X147883333Y-91651966D02*
X147916666Y-91685300D01*
X147916666Y-91685300D02*
X147983333Y-91718633D01*
X147983333Y-91718633D02*
X148116666Y-91718633D01*
X148116666Y-91718633D02*
X148183333Y-91751966D01*
X148183333Y-91751966D02*
X148216666Y-91785300D01*
X148216666Y-91785300D02*
X148249999Y-91851966D01*
X148249999Y-91851966D02*
X148249999Y-91985300D01*
X148249999Y-91985300D02*
X148216666Y-92051966D01*
X148216666Y-92051966D02*
X148183333Y-92085300D01*
X148183333Y-92085300D02*
X148116666Y-92118633D01*
X148116666Y-92118633D02*
X147983333Y-92118633D01*
X147983333Y-92118633D02*
X147916666Y-92085300D01*
X147916666Y-92085300D02*
X147883333Y-92051966D01*
X147883333Y-92051966D02*
X147849999Y-91985300D01*
X147849999Y-91985300D02*
X147849999Y-91851966D01*
X147849999Y-91851966D02*
X147883333Y-91785300D01*
X147883333Y-91785300D02*
X147916666Y-91751966D01*
X147916666Y-91751966D02*
X147983333Y-91718633D01*
X148133332Y-87864895D02*
X148399999Y-87483942D01*
X148590475Y-87864895D02*
X148590475Y-87064895D01*
X148590475Y-87064895D02*
X148285713Y-87064895D01*
X148285713Y-87064895D02*
X148209523Y-87102990D01*
X148209523Y-87102990D02*
X148171428Y-87141085D01*
X148171428Y-87141085D02*
X148133332Y-87217276D01*
X148133332Y-87217276D02*
X148133332Y-87331561D01*
X148133332Y-87331561D02*
X148171428Y-87407752D01*
X148171428Y-87407752D02*
X148209523Y-87445847D01*
X148209523Y-87445847D02*
X148285713Y-87483942D01*
X148285713Y-87483942D02*
X148590475Y-87483942D01*
X147676190Y-87407752D02*
X147752380Y-87369657D01*
X147752380Y-87369657D02*
X147790475Y-87331561D01*
X147790475Y-87331561D02*
X147828571Y-87255371D01*
X147828571Y-87255371D02*
X147828571Y-87217276D01*
X147828571Y-87217276D02*
X147790475Y-87141085D01*
X147790475Y-87141085D02*
X147752380Y-87102990D01*
X147752380Y-87102990D02*
X147676190Y-87064895D01*
X147676190Y-87064895D02*
X147523809Y-87064895D01*
X147523809Y-87064895D02*
X147447618Y-87102990D01*
X147447618Y-87102990D02*
X147409523Y-87141085D01*
X147409523Y-87141085D02*
X147371428Y-87217276D01*
X147371428Y-87217276D02*
X147371428Y-87255371D01*
X147371428Y-87255371D02*
X147409523Y-87331561D01*
X147409523Y-87331561D02*
X147447618Y-87369657D01*
X147447618Y-87369657D02*
X147523809Y-87407752D01*
X147523809Y-87407752D02*
X147676190Y-87407752D01*
X147676190Y-87407752D02*
X147752380Y-87445847D01*
X147752380Y-87445847D02*
X147790475Y-87483942D01*
X147790475Y-87483942D02*
X147828571Y-87560133D01*
X147828571Y-87560133D02*
X147828571Y-87712514D01*
X147828571Y-87712514D02*
X147790475Y-87788704D01*
X147790475Y-87788704D02*
X147752380Y-87826800D01*
X147752380Y-87826800D02*
X147676190Y-87864895D01*
X147676190Y-87864895D02*
X147523809Y-87864895D01*
X147523809Y-87864895D02*
X147447618Y-87826800D01*
X147447618Y-87826800D02*
X147409523Y-87788704D01*
X147409523Y-87788704D02*
X147371428Y-87712514D01*
X147371428Y-87712514D02*
X147371428Y-87560133D01*
X147371428Y-87560133D02*
X147409523Y-87483942D01*
X147409523Y-87483942D02*
X147447618Y-87445847D01*
X147447618Y-87445847D02*
X147523809Y-87407752D01*
X134164895Y-82753714D02*
X133783942Y-82487047D01*
X134164895Y-82296571D02*
X133364895Y-82296571D01*
X133364895Y-82296571D02*
X133364895Y-82601333D01*
X133364895Y-82601333D02*
X133402990Y-82677523D01*
X133402990Y-82677523D02*
X133441085Y-82715618D01*
X133441085Y-82715618D02*
X133517276Y-82753714D01*
X133517276Y-82753714D02*
X133631561Y-82753714D01*
X133631561Y-82753714D02*
X133707752Y-82715618D01*
X133707752Y-82715618D02*
X133745847Y-82677523D01*
X133745847Y-82677523D02*
X133783942Y-82601333D01*
X133783942Y-82601333D02*
X133783942Y-82296571D01*
X133441085Y-83058475D02*
X133402990Y-83096571D01*
X133402990Y-83096571D02*
X133364895Y-83172761D01*
X133364895Y-83172761D02*
X133364895Y-83363237D01*
X133364895Y-83363237D02*
X133402990Y-83439428D01*
X133402990Y-83439428D02*
X133441085Y-83477523D01*
X133441085Y-83477523D02*
X133517276Y-83515618D01*
X133517276Y-83515618D02*
X133593466Y-83515618D01*
X133593466Y-83515618D02*
X133707752Y-83477523D01*
X133707752Y-83477523D02*
X134164895Y-83020380D01*
X134164895Y-83020380D02*
X134164895Y-83515618D01*
X133364895Y-84010857D02*
X133364895Y-84087047D01*
X133364895Y-84087047D02*
X133402990Y-84163238D01*
X133402990Y-84163238D02*
X133441085Y-84201333D01*
X133441085Y-84201333D02*
X133517276Y-84239428D01*
X133517276Y-84239428D02*
X133669657Y-84277523D01*
X133669657Y-84277523D02*
X133860133Y-84277523D01*
X133860133Y-84277523D02*
X134012514Y-84239428D01*
X134012514Y-84239428D02*
X134088704Y-84201333D01*
X134088704Y-84201333D02*
X134126800Y-84163238D01*
X134126800Y-84163238D02*
X134164895Y-84087047D01*
X134164895Y-84087047D02*
X134164895Y-84010857D01*
X134164895Y-84010857D02*
X134126800Y-83934666D01*
X134126800Y-83934666D02*
X134088704Y-83896571D01*
X134088704Y-83896571D02*
X134012514Y-83858476D01*
X134012514Y-83858476D02*
X133860133Y-83820380D01*
X133860133Y-83820380D02*
X133669657Y-83820380D01*
X133669657Y-83820380D02*
X133517276Y-83858476D01*
X133517276Y-83858476D02*
X133441085Y-83896571D01*
X133441085Y-83896571D02*
X133402990Y-83934666D01*
X133402990Y-83934666D02*
X133364895Y-84010857D01*
X141314285Y-93288704D02*
X141352381Y-93326800D01*
X141352381Y-93326800D02*
X141466666Y-93364895D01*
X141466666Y-93364895D02*
X141542857Y-93364895D01*
X141542857Y-93364895D02*
X141657143Y-93326800D01*
X141657143Y-93326800D02*
X141733333Y-93250609D01*
X141733333Y-93250609D02*
X141771428Y-93174419D01*
X141771428Y-93174419D02*
X141809524Y-93022038D01*
X141809524Y-93022038D02*
X141809524Y-92907752D01*
X141809524Y-92907752D02*
X141771428Y-92755371D01*
X141771428Y-92755371D02*
X141733333Y-92679180D01*
X141733333Y-92679180D02*
X141657143Y-92602990D01*
X141657143Y-92602990D02*
X141542857Y-92564895D01*
X141542857Y-92564895D02*
X141466666Y-92564895D01*
X141466666Y-92564895D02*
X141352381Y-92602990D01*
X141352381Y-92602990D02*
X141314285Y-92641085D01*
X140552381Y-93364895D02*
X141009524Y-93364895D01*
X140780952Y-93364895D02*
X140780952Y-92564895D01*
X140780952Y-92564895D02*
X140857143Y-92679180D01*
X140857143Y-92679180D02*
X140933333Y-92755371D01*
X140933333Y-92755371D02*
X141009524Y-92793466D01*
X140285714Y-92564895D02*
X139752380Y-92564895D01*
X139752380Y-92564895D02*
X140095238Y-93364895D01*
X164851966Y-92799999D02*
X164885300Y-92766666D01*
X164885300Y-92766666D02*
X164918633Y-92666666D01*
X164918633Y-92666666D02*
X164918633Y-92599999D01*
X164918633Y-92599999D02*
X164885300Y-92499999D01*
X164885300Y-92499999D02*
X164818633Y-92433333D01*
X164818633Y-92433333D02*
X164751966Y-92399999D01*
X164751966Y-92399999D02*
X164618633Y-92366666D01*
X164618633Y-92366666D02*
X164518633Y-92366666D01*
X164518633Y-92366666D02*
X164385300Y-92399999D01*
X164385300Y-92399999D02*
X164318633Y-92433333D01*
X164318633Y-92433333D02*
X164251966Y-92499999D01*
X164251966Y-92499999D02*
X164218633Y-92599999D01*
X164218633Y-92599999D02*
X164218633Y-92666666D01*
X164218633Y-92666666D02*
X164251966Y-92766666D01*
X164251966Y-92766666D02*
X164285300Y-92799999D01*
X164285300Y-93066666D02*
X164251966Y-93099999D01*
X164251966Y-93099999D02*
X164218633Y-93166666D01*
X164218633Y-93166666D02*
X164218633Y-93333333D01*
X164218633Y-93333333D02*
X164251966Y-93399999D01*
X164251966Y-93399999D02*
X164285300Y-93433333D01*
X164285300Y-93433333D02*
X164351966Y-93466666D01*
X164351966Y-93466666D02*
X164418633Y-93466666D01*
X164418633Y-93466666D02*
X164518633Y-93433333D01*
X164518633Y-93433333D02*
X164918633Y-93033333D01*
X164918633Y-93033333D02*
X164918633Y-93466666D01*
X164218633Y-93700000D02*
X164218633Y-94166666D01*
X164218633Y-94166666D02*
X164918633Y-93866666D01*
D11*
X178747762Y-82602927D02*
X178747762Y-82202927D01*
X178519191Y-82602927D02*
X178690620Y-82374356D01*
X178519191Y-82202927D02*
X178747762Y-82431499D01*
X178195381Y-82583880D02*
X178233477Y-82602927D01*
X178233477Y-82602927D02*
X178309667Y-82602927D01*
X178309667Y-82602927D02*
X178347762Y-82583880D01*
X178347762Y-82583880D02*
X178366810Y-82545784D01*
X178366810Y-82545784D02*
X178366810Y-82393403D01*
X178366810Y-82393403D02*
X178347762Y-82355308D01*
X178347762Y-82355308D02*
X178309667Y-82336260D01*
X178309667Y-82336260D02*
X178233477Y-82336260D01*
X178233477Y-82336260D02*
X178195381Y-82355308D01*
X178195381Y-82355308D02*
X178176334Y-82393403D01*
X178176334Y-82393403D02*
X178176334Y-82431499D01*
X178176334Y-82431499D02*
X178366810Y-82469594D01*
X177852524Y-82583880D02*
X177890620Y-82602927D01*
X177890620Y-82602927D02*
X177966810Y-82602927D01*
X177966810Y-82602927D02*
X178004905Y-82583880D01*
X178004905Y-82583880D02*
X178023953Y-82545784D01*
X178023953Y-82545784D02*
X178023953Y-82393403D01*
X178023953Y-82393403D02*
X178004905Y-82355308D01*
X178004905Y-82355308D02*
X177966810Y-82336260D01*
X177966810Y-82336260D02*
X177890620Y-82336260D01*
X177890620Y-82336260D02*
X177852524Y-82355308D01*
X177852524Y-82355308D02*
X177833477Y-82393403D01*
X177833477Y-82393403D02*
X177833477Y-82431499D01*
X177833477Y-82431499D02*
X178023953Y-82469594D01*
X177662048Y-82336260D02*
X177662048Y-82736260D01*
X177662048Y-82355308D02*
X177623953Y-82336260D01*
X177623953Y-82336260D02*
X177547763Y-82336260D01*
X177547763Y-82336260D02*
X177509667Y-82355308D01*
X177509667Y-82355308D02*
X177490620Y-82374356D01*
X177490620Y-82374356D02*
X177471572Y-82412451D01*
X177471572Y-82412451D02*
X177471572Y-82526737D01*
X177471572Y-82526737D02*
X177490620Y-82564832D01*
X177490620Y-82564832D02*
X177509667Y-82583880D01*
X177509667Y-82583880D02*
X177547763Y-82602927D01*
X177547763Y-82602927D02*
X177623953Y-82602927D01*
X177623953Y-82602927D02*
X177662048Y-82583880D01*
X176995381Y-82336260D02*
X176995381Y-82736260D01*
X176995381Y-82355308D02*
X176957286Y-82336260D01*
X176957286Y-82336260D02*
X176881096Y-82336260D01*
X176881096Y-82336260D02*
X176843000Y-82355308D01*
X176843000Y-82355308D02*
X176823953Y-82374356D01*
X176823953Y-82374356D02*
X176804905Y-82412451D01*
X176804905Y-82412451D02*
X176804905Y-82526737D01*
X176804905Y-82526737D02*
X176823953Y-82564832D01*
X176823953Y-82564832D02*
X176843000Y-82583880D01*
X176843000Y-82583880D02*
X176881096Y-82602927D01*
X176881096Y-82602927D02*
X176957286Y-82602927D01*
X176957286Y-82602927D02*
X176995381Y-82583880D01*
X176462048Y-82602927D02*
X176462048Y-82393403D01*
X176462048Y-82393403D02*
X176481095Y-82355308D01*
X176481095Y-82355308D02*
X176519191Y-82336260D01*
X176519191Y-82336260D02*
X176595381Y-82336260D01*
X176595381Y-82336260D02*
X176633476Y-82355308D01*
X176462048Y-82583880D02*
X176500143Y-82602927D01*
X176500143Y-82602927D02*
X176595381Y-82602927D01*
X176595381Y-82602927D02*
X176633476Y-82583880D01*
X176633476Y-82583880D02*
X176652524Y-82545784D01*
X176652524Y-82545784D02*
X176652524Y-82507689D01*
X176652524Y-82507689D02*
X176633476Y-82469594D01*
X176633476Y-82469594D02*
X176595381Y-82450546D01*
X176595381Y-82450546D02*
X176500143Y-82450546D01*
X176500143Y-82450546D02*
X176462048Y-82431499D01*
X176100143Y-82602927D02*
X176100143Y-82202927D01*
X176100143Y-82583880D02*
X176138238Y-82602927D01*
X176138238Y-82602927D02*
X176214429Y-82602927D01*
X176214429Y-82602927D02*
X176252524Y-82583880D01*
X176252524Y-82583880D02*
X176271571Y-82564832D01*
X176271571Y-82564832D02*
X176290619Y-82526737D01*
X176290619Y-82526737D02*
X176290619Y-82412451D01*
X176290619Y-82412451D02*
X176271571Y-82374356D01*
X176271571Y-82374356D02*
X176252524Y-82355308D01*
X176252524Y-82355308D02*
X176214429Y-82336260D01*
X176214429Y-82336260D02*
X176138238Y-82336260D01*
X176138238Y-82336260D02*
X176100143Y-82355308D01*
X175928714Y-82583880D02*
X175890619Y-82602927D01*
X175890619Y-82602927D02*
X175814428Y-82602927D01*
X175814428Y-82602927D02*
X175776333Y-82583880D01*
X175776333Y-82583880D02*
X175757285Y-82545784D01*
X175757285Y-82545784D02*
X175757285Y-82526737D01*
X175757285Y-82526737D02*
X175776333Y-82488641D01*
X175776333Y-82488641D02*
X175814428Y-82469594D01*
X175814428Y-82469594D02*
X175871571Y-82469594D01*
X175871571Y-82469594D02*
X175909666Y-82450546D01*
X175909666Y-82450546D02*
X175928714Y-82412451D01*
X175928714Y-82412451D02*
X175928714Y-82393403D01*
X175928714Y-82393403D02*
X175909666Y-82355308D01*
X175909666Y-82355308D02*
X175871571Y-82336260D01*
X175871571Y-82336260D02*
X175814428Y-82336260D01*
X175814428Y-82336260D02*
X175776333Y-82355308D01*
X175109666Y-82583880D02*
X175147761Y-82602927D01*
X175147761Y-82602927D02*
X175223952Y-82602927D01*
X175223952Y-82602927D02*
X175262047Y-82583880D01*
X175262047Y-82583880D02*
X175281094Y-82564832D01*
X175281094Y-82564832D02*
X175300142Y-82526737D01*
X175300142Y-82526737D02*
X175300142Y-82412451D01*
X175300142Y-82412451D02*
X175281094Y-82374356D01*
X175281094Y-82374356D02*
X175262047Y-82355308D01*
X175262047Y-82355308D02*
X175223952Y-82336260D01*
X175223952Y-82336260D02*
X175147761Y-82336260D01*
X175147761Y-82336260D02*
X175109666Y-82355308D01*
X174881095Y-82602927D02*
X174919190Y-82583880D01*
X174919190Y-82583880D02*
X174938237Y-82564832D01*
X174938237Y-82564832D02*
X174957285Y-82526737D01*
X174957285Y-82526737D02*
X174957285Y-82412451D01*
X174957285Y-82412451D02*
X174938237Y-82374356D01*
X174938237Y-82374356D02*
X174919190Y-82355308D01*
X174919190Y-82355308D02*
X174881095Y-82336260D01*
X174881095Y-82336260D02*
X174823952Y-82336260D01*
X174823952Y-82336260D02*
X174785856Y-82355308D01*
X174785856Y-82355308D02*
X174766809Y-82374356D01*
X174766809Y-82374356D02*
X174747761Y-82412451D01*
X174747761Y-82412451D02*
X174747761Y-82526737D01*
X174747761Y-82526737D02*
X174766809Y-82564832D01*
X174766809Y-82564832D02*
X174785856Y-82583880D01*
X174785856Y-82583880D02*
X174823952Y-82602927D01*
X174823952Y-82602927D02*
X174881095Y-82602927D01*
X174519190Y-82602927D02*
X174557285Y-82583880D01*
X174557285Y-82583880D02*
X174576332Y-82564832D01*
X174576332Y-82564832D02*
X174595380Y-82526737D01*
X174595380Y-82526737D02*
X174595380Y-82412451D01*
X174595380Y-82412451D02*
X174576332Y-82374356D01*
X174576332Y-82374356D02*
X174557285Y-82355308D01*
X174557285Y-82355308D02*
X174519190Y-82336260D01*
X174519190Y-82336260D02*
X174462047Y-82336260D01*
X174462047Y-82336260D02*
X174423951Y-82355308D01*
X174423951Y-82355308D02*
X174404904Y-82374356D01*
X174404904Y-82374356D02*
X174385856Y-82412451D01*
X174385856Y-82412451D02*
X174385856Y-82526737D01*
X174385856Y-82526737D02*
X174404904Y-82564832D01*
X174404904Y-82564832D02*
X174423951Y-82583880D01*
X174423951Y-82583880D02*
X174462047Y-82602927D01*
X174462047Y-82602927D02*
X174519190Y-82602927D01*
X174214427Y-82336260D02*
X174214427Y-82736260D01*
X174214427Y-82355308D02*
X174176332Y-82336260D01*
X174176332Y-82336260D02*
X174100142Y-82336260D01*
X174100142Y-82336260D02*
X174062046Y-82355308D01*
X174062046Y-82355308D02*
X174042999Y-82374356D01*
X174042999Y-82374356D02*
X174023951Y-82412451D01*
X174023951Y-82412451D02*
X174023951Y-82526737D01*
X174023951Y-82526737D02*
X174042999Y-82564832D01*
X174042999Y-82564832D02*
X174062046Y-82583880D01*
X174062046Y-82583880D02*
X174100142Y-82602927D01*
X174100142Y-82602927D02*
X174176332Y-82602927D01*
X174176332Y-82602927D02*
X174214427Y-82583880D01*
X173700141Y-82583880D02*
X173738237Y-82602927D01*
X173738237Y-82602927D02*
X173814427Y-82602927D01*
X173814427Y-82602927D02*
X173852522Y-82583880D01*
X173852522Y-82583880D02*
X173871570Y-82545784D01*
X173871570Y-82545784D02*
X173871570Y-82393403D01*
X173871570Y-82393403D02*
X173852522Y-82355308D01*
X173852522Y-82355308D02*
X173814427Y-82336260D01*
X173814427Y-82336260D02*
X173738237Y-82336260D01*
X173738237Y-82336260D02*
X173700141Y-82355308D01*
X173700141Y-82355308D02*
X173681094Y-82393403D01*
X173681094Y-82393403D02*
X173681094Y-82431499D01*
X173681094Y-82431499D02*
X173871570Y-82469594D01*
X173509665Y-82602927D02*
X173509665Y-82336260D01*
X173509665Y-82412451D02*
X173490618Y-82374356D01*
X173490618Y-82374356D02*
X173471570Y-82355308D01*
X173471570Y-82355308D02*
X173433475Y-82336260D01*
X173433475Y-82336260D02*
X173395380Y-82336260D01*
X173014427Y-82336260D02*
X172862046Y-82336260D01*
X172957284Y-82202927D02*
X172957284Y-82545784D01*
X172957284Y-82545784D02*
X172938237Y-82583880D01*
X172938237Y-82583880D02*
X172900142Y-82602927D01*
X172900142Y-82602927D02*
X172862046Y-82602927D01*
X172671571Y-82602927D02*
X172709666Y-82583880D01*
X172709666Y-82583880D02*
X172728713Y-82564832D01*
X172728713Y-82564832D02*
X172747761Y-82526737D01*
X172747761Y-82526737D02*
X172747761Y-82412451D01*
X172747761Y-82412451D02*
X172728713Y-82374356D01*
X172728713Y-82374356D02*
X172709666Y-82355308D01*
X172709666Y-82355308D02*
X172671571Y-82336260D01*
X172671571Y-82336260D02*
X172614428Y-82336260D01*
X172614428Y-82336260D02*
X172576332Y-82355308D01*
X172576332Y-82355308D02*
X172557285Y-82374356D01*
X172557285Y-82374356D02*
X172538237Y-82412451D01*
X172538237Y-82412451D02*
X172538237Y-82526737D01*
X172538237Y-82526737D02*
X172557285Y-82564832D01*
X172557285Y-82564832D02*
X172576332Y-82583880D01*
X172576332Y-82583880D02*
X172614428Y-82602927D01*
X172614428Y-82602927D02*
X172671571Y-82602927D01*
X172062046Y-82602927D02*
X172062046Y-82202927D01*
X172062046Y-82202927D02*
X171909665Y-82202927D01*
X171909665Y-82202927D02*
X171871570Y-82221975D01*
X171871570Y-82221975D02*
X171852523Y-82241022D01*
X171852523Y-82241022D02*
X171833475Y-82279118D01*
X171833475Y-82279118D02*
X171833475Y-82336260D01*
X171833475Y-82336260D02*
X171852523Y-82374356D01*
X171852523Y-82374356D02*
X171871570Y-82393403D01*
X171871570Y-82393403D02*
X171909665Y-82412451D01*
X171909665Y-82412451D02*
X172062046Y-82412451D01*
X171433475Y-82564832D02*
X171452523Y-82583880D01*
X171452523Y-82583880D02*
X171509665Y-82602927D01*
X171509665Y-82602927D02*
X171547761Y-82602927D01*
X171547761Y-82602927D02*
X171604904Y-82583880D01*
X171604904Y-82583880D02*
X171642999Y-82545784D01*
X171642999Y-82545784D02*
X171662046Y-82507689D01*
X171662046Y-82507689D02*
X171681094Y-82431499D01*
X171681094Y-82431499D02*
X171681094Y-82374356D01*
X171681094Y-82374356D02*
X171662046Y-82298165D01*
X171662046Y-82298165D02*
X171642999Y-82260070D01*
X171642999Y-82260070D02*
X171604904Y-82221975D01*
X171604904Y-82221975D02*
X171547761Y-82202927D01*
X171547761Y-82202927D02*
X171509665Y-82202927D01*
X171509665Y-82202927D02*
X171452523Y-82221975D01*
X171452523Y-82221975D02*
X171433475Y-82241022D01*
X171128713Y-82393403D02*
X171071570Y-82412451D01*
X171071570Y-82412451D02*
X171052523Y-82431499D01*
X171052523Y-82431499D02*
X171033475Y-82469594D01*
X171033475Y-82469594D02*
X171033475Y-82526737D01*
X171033475Y-82526737D02*
X171052523Y-82564832D01*
X171052523Y-82564832D02*
X171071570Y-82583880D01*
X171071570Y-82583880D02*
X171109665Y-82602927D01*
X171109665Y-82602927D02*
X171262046Y-82602927D01*
X171262046Y-82602927D02*
X171262046Y-82202927D01*
X171262046Y-82202927D02*
X171128713Y-82202927D01*
X171128713Y-82202927D02*
X171090618Y-82221975D01*
X171090618Y-82221975D02*
X171071570Y-82241022D01*
X171071570Y-82241022D02*
X171052523Y-82279118D01*
X171052523Y-82279118D02*
X171052523Y-82317213D01*
X171052523Y-82317213D02*
X171071570Y-82355308D01*
X171071570Y-82355308D02*
X171090618Y-82374356D01*
X171090618Y-82374356D02*
X171128713Y-82393403D01*
X171128713Y-82393403D02*
X171262046Y-82393403D01*
X170404903Y-82583880D02*
X170442999Y-82602927D01*
X170442999Y-82602927D02*
X170519189Y-82602927D01*
X170519189Y-82602927D02*
X170557284Y-82583880D01*
X170557284Y-82583880D02*
X170576332Y-82545784D01*
X170576332Y-82545784D02*
X170576332Y-82393403D01*
X170576332Y-82393403D02*
X170557284Y-82355308D01*
X170557284Y-82355308D02*
X170519189Y-82336260D01*
X170519189Y-82336260D02*
X170442999Y-82336260D01*
X170442999Y-82336260D02*
X170404903Y-82355308D01*
X170404903Y-82355308D02*
X170385856Y-82393403D01*
X170385856Y-82393403D02*
X170385856Y-82431499D01*
X170385856Y-82431499D02*
X170576332Y-82469594D01*
X170042999Y-82602927D02*
X170042999Y-82202927D01*
X170042999Y-82583880D02*
X170081094Y-82602927D01*
X170081094Y-82602927D02*
X170157285Y-82602927D01*
X170157285Y-82602927D02*
X170195380Y-82583880D01*
X170195380Y-82583880D02*
X170214427Y-82564832D01*
X170214427Y-82564832D02*
X170233475Y-82526737D01*
X170233475Y-82526737D02*
X170233475Y-82412451D01*
X170233475Y-82412451D02*
X170214427Y-82374356D01*
X170214427Y-82374356D02*
X170195380Y-82355308D01*
X170195380Y-82355308D02*
X170157285Y-82336260D01*
X170157285Y-82336260D02*
X170081094Y-82336260D01*
X170081094Y-82336260D02*
X170042999Y-82355308D01*
X169681094Y-82336260D02*
X169681094Y-82660070D01*
X169681094Y-82660070D02*
X169700141Y-82698165D01*
X169700141Y-82698165D02*
X169719189Y-82717213D01*
X169719189Y-82717213D02*
X169757284Y-82736260D01*
X169757284Y-82736260D02*
X169814427Y-82736260D01*
X169814427Y-82736260D02*
X169852522Y-82717213D01*
X169681094Y-82583880D02*
X169719189Y-82602927D01*
X169719189Y-82602927D02*
X169795380Y-82602927D01*
X169795380Y-82602927D02*
X169833475Y-82583880D01*
X169833475Y-82583880D02*
X169852522Y-82564832D01*
X169852522Y-82564832D02*
X169871570Y-82526737D01*
X169871570Y-82526737D02*
X169871570Y-82412451D01*
X169871570Y-82412451D02*
X169852522Y-82374356D01*
X169852522Y-82374356D02*
X169833475Y-82355308D01*
X169833475Y-82355308D02*
X169795380Y-82336260D01*
X169795380Y-82336260D02*
X169719189Y-82336260D01*
X169719189Y-82336260D02*
X169681094Y-82355308D01*
X169338236Y-82583880D02*
X169376332Y-82602927D01*
X169376332Y-82602927D02*
X169452522Y-82602927D01*
X169452522Y-82602927D02*
X169490617Y-82583880D01*
X169490617Y-82583880D02*
X169509665Y-82545784D01*
X169509665Y-82545784D02*
X169509665Y-82393403D01*
X169509665Y-82393403D02*
X169490617Y-82355308D01*
X169490617Y-82355308D02*
X169452522Y-82336260D01*
X169452522Y-82336260D02*
X169376332Y-82336260D01*
X169376332Y-82336260D02*
X169338236Y-82355308D01*
X169338236Y-82355308D02*
X169319189Y-82393403D01*
X169319189Y-82393403D02*
X169319189Y-82431499D01*
X169319189Y-82431499D02*
X169509665Y-82469594D01*
D10*
X151918633Y-90783333D02*
X151918633Y-90449999D01*
X151918633Y-90449999D02*
X151218633Y-90449999D01*
X151218633Y-90950000D02*
X151218633Y-91416666D01*
X151218633Y-91416666D02*
X151918633Y-91116666D01*
X131914285Y-88470704D02*
X131952381Y-88508800D01*
X131952381Y-88508800D02*
X132066666Y-88546895D01*
X132066666Y-88546895D02*
X132142857Y-88546895D01*
X132142857Y-88546895D02*
X132257143Y-88508800D01*
X132257143Y-88508800D02*
X132333333Y-88432609D01*
X132333333Y-88432609D02*
X132371428Y-88356419D01*
X132371428Y-88356419D02*
X132409524Y-88204038D01*
X132409524Y-88204038D02*
X132409524Y-88089752D01*
X132409524Y-88089752D02*
X132371428Y-87937371D01*
X132371428Y-87937371D02*
X132333333Y-87861180D01*
X132333333Y-87861180D02*
X132257143Y-87784990D01*
X132257143Y-87784990D02*
X132142857Y-87746895D01*
X132142857Y-87746895D02*
X132066666Y-87746895D01*
X132066666Y-87746895D02*
X131952381Y-87784990D01*
X131952381Y-87784990D02*
X131914285Y-87823085D01*
X131152381Y-88546895D02*
X131609524Y-88546895D01*
X131380952Y-88546895D02*
X131380952Y-87746895D01*
X131380952Y-87746895D02*
X131457143Y-87861180D01*
X131457143Y-87861180D02*
X131533333Y-87937371D01*
X131533333Y-87937371D02*
X131609524Y-87975466D01*
X130466666Y-87746895D02*
X130619047Y-87746895D01*
X130619047Y-87746895D02*
X130695238Y-87784990D01*
X130695238Y-87784990D02*
X130733333Y-87823085D01*
X130733333Y-87823085D02*
X130809523Y-87937371D01*
X130809523Y-87937371D02*
X130847619Y-88089752D01*
X130847619Y-88089752D02*
X130847619Y-88394514D01*
X130847619Y-88394514D02*
X130809523Y-88470704D01*
X130809523Y-88470704D02*
X130771428Y-88508800D01*
X130771428Y-88508800D02*
X130695238Y-88546895D01*
X130695238Y-88546895D02*
X130542857Y-88546895D01*
X130542857Y-88546895D02*
X130466666Y-88508800D01*
X130466666Y-88508800D02*
X130428571Y-88470704D01*
X130428571Y-88470704D02*
X130390476Y-88394514D01*
X130390476Y-88394514D02*
X130390476Y-88204038D01*
X130390476Y-88204038D02*
X130428571Y-88127847D01*
X130428571Y-88127847D02*
X130466666Y-88089752D01*
X130466666Y-88089752D02*
X130542857Y-88051657D01*
X130542857Y-88051657D02*
X130695238Y-88051657D01*
X130695238Y-88051657D02*
X130771428Y-88089752D01*
X130771428Y-88089752D02*
X130809523Y-88127847D01*
X130809523Y-88127847D02*
X130847619Y-88204038D01*
X160350000Y-86951966D02*
X160383333Y-86985300D01*
X160383333Y-86985300D02*
X160483333Y-87018633D01*
X160483333Y-87018633D02*
X160550000Y-87018633D01*
X160550000Y-87018633D02*
X160650000Y-86985300D01*
X160650000Y-86985300D02*
X160716667Y-86918633D01*
X160716667Y-86918633D02*
X160750000Y-86851966D01*
X160750000Y-86851966D02*
X160783333Y-86718633D01*
X160783333Y-86718633D02*
X160783333Y-86618633D01*
X160783333Y-86618633D02*
X160750000Y-86485300D01*
X160750000Y-86485300D02*
X160716667Y-86418633D01*
X160716667Y-86418633D02*
X160650000Y-86351966D01*
X160650000Y-86351966D02*
X160550000Y-86318633D01*
X160550000Y-86318633D02*
X160483333Y-86318633D01*
X160483333Y-86318633D02*
X160383333Y-86351966D01*
X160383333Y-86351966D02*
X160350000Y-86385300D01*
X160083333Y-86385300D02*
X160050000Y-86351966D01*
X160050000Y-86351966D02*
X159983333Y-86318633D01*
X159983333Y-86318633D02*
X159816667Y-86318633D01*
X159816667Y-86318633D02*
X159750000Y-86351966D01*
X159750000Y-86351966D02*
X159716667Y-86385300D01*
X159716667Y-86385300D02*
X159683333Y-86451966D01*
X159683333Y-86451966D02*
X159683333Y-86518633D01*
X159683333Y-86518633D02*
X159716667Y-86618633D01*
X159716667Y-86618633D02*
X160116667Y-87018633D01*
X160116667Y-87018633D02*
X159683333Y-87018633D01*
X159283333Y-86618633D02*
X159350000Y-86585300D01*
X159350000Y-86585300D02*
X159383333Y-86551966D01*
X159383333Y-86551966D02*
X159416666Y-86485300D01*
X159416666Y-86485300D02*
X159416666Y-86451966D01*
X159416666Y-86451966D02*
X159383333Y-86385300D01*
X159383333Y-86385300D02*
X159350000Y-86351966D01*
X159350000Y-86351966D02*
X159283333Y-86318633D01*
X159283333Y-86318633D02*
X159150000Y-86318633D01*
X159150000Y-86318633D02*
X159083333Y-86351966D01*
X159083333Y-86351966D02*
X159050000Y-86385300D01*
X159050000Y-86385300D02*
X159016666Y-86451966D01*
X159016666Y-86451966D02*
X159016666Y-86485300D01*
X159016666Y-86485300D02*
X159050000Y-86551966D01*
X159050000Y-86551966D02*
X159083333Y-86585300D01*
X159083333Y-86585300D02*
X159150000Y-86618633D01*
X159150000Y-86618633D02*
X159283333Y-86618633D01*
X159283333Y-86618633D02*
X159350000Y-86651966D01*
X159350000Y-86651966D02*
X159383333Y-86685300D01*
X159383333Y-86685300D02*
X159416666Y-86751966D01*
X159416666Y-86751966D02*
X159416666Y-86885300D01*
X159416666Y-86885300D02*
X159383333Y-86951966D01*
X159383333Y-86951966D02*
X159350000Y-86985300D01*
X159350000Y-86985300D02*
X159283333Y-87018633D01*
X159283333Y-87018633D02*
X159150000Y-87018633D01*
X159150000Y-87018633D02*
X159083333Y-86985300D01*
X159083333Y-86985300D02*
X159050000Y-86951966D01*
X159050000Y-86951966D02*
X159016666Y-86885300D01*
X159016666Y-86885300D02*
X159016666Y-86751966D01*
X159016666Y-86751966D02*
X159050000Y-86685300D01*
X159050000Y-86685300D02*
X159083333Y-86651966D01*
X159083333Y-86651966D02*
X159150000Y-86618633D01*
X164518633Y-89266666D02*
X165085300Y-89266666D01*
X165085300Y-89266666D02*
X165151966Y-89300000D01*
X165151966Y-89300000D02*
X165185300Y-89333333D01*
X165185300Y-89333333D02*
X165218633Y-89400000D01*
X165218633Y-89400000D02*
X165218633Y-89533333D01*
X165218633Y-89533333D02*
X165185300Y-89600000D01*
X165185300Y-89600000D02*
X165151966Y-89633333D01*
X165151966Y-89633333D02*
X165085300Y-89666666D01*
X165085300Y-89666666D02*
X164518633Y-89666666D01*
X164518633Y-89933333D02*
X164518633Y-90399999D01*
X164518633Y-90399999D02*
X165218633Y-90099999D01*
X156251966Y-81883333D02*
X156251966Y-81649999D01*
X156618633Y-81649999D02*
X155918633Y-81649999D01*
X155918633Y-81649999D02*
X155918633Y-81983333D01*
X156618633Y-82583333D02*
X156618633Y-82249999D01*
X156618633Y-82249999D02*
X155918633Y-82249999D01*
X156618633Y-83183333D02*
X156618633Y-82783333D01*
X156618633Y-82983333D02*
X155918633Y-82983333D01*
X155918633Y-82983333D02*
X156018633Y-82916666D01*
X156018633Y-82916666D02*
X156085300Y-82850000D01*
X156085300Y-82850000D02*
X156118633Y-82783333D01*
X132564895Y-93466667D02*
X132183942Y-93200000D01*
X132564895Y-93009524D02*
X131764895Y-93009524D01*
X131764895Y-93009524D02*
X131764895Y-93314286D01*
X131764895Y-93314286D02*
X131802990Y-93390476D01*
X131802990Y-93390476D02*
X131841085Y-93428571D01*
X131841085Y-93428571D02*
X131917276Y-93466667D01*
X131917276Y-93466667D02*
X132031561Y-93466667D01*
X132031561Y-93466667D02*
X132107752Y-93428571D01*
X132107752Y-93428571D02*
X132145847Y-93390476D01*
X132145847Y-93390476D02*
X132183942Y-93314286D01*
X132183942Y-93314286D02*
X132183942Y-93009524D01*
X132031561Y-94152381D02*
X132564895Y-94152381D01*
X131726800Y-93961905D02*
X132298228Y-93771428D01*
X132298228Y-93771428D02*
X132298228Y-94266667D01*
D11*
X178747762Y-97602927D02*
X178747762Y-97202927D01*
X178519191Y-97602927D02*
X178690620Y-97374356D01*
X178519191Y-97202927D02*
X178747762Y-97431499D01*
X178195381Y-97583880D02*
X178233477Y-97602927D01*
X178233477Y-97602927D02*
X178309667Y-97602927D01*
X178309667Y-97602927D02*
X178347762Y-97583880D01*
X178347762Y-97583880D02*
X178366810Y-97545784D01*
X178366810Y-97545784D02*
X178366810Y-97393403D01*
X178366810Y-97393403D02*
X178347762Y-97355308D01*
X178347762Y-97355308D02*
X178309667Y-97336260D01*
X178309667Y-97336260D02*
X178233477Y-97336260D01*
X178233477Y-97336260D02*
X178195381Y-97355308D01*
X178195381Y-97355308D02*
X178176334Y-97393403D01*
X178176334Y-97393403D02*
X178176334Y-97431499D01*
X178176334Y-97431499D02*
X178366810Y-97469594D01*
X177852524Y-97583880D02*
X177890620Y-97602927D01*
X177890620Y-97602927D02*
X177966810Y-97602927D01*
X177966810Y-97602927D02*
X178004905Y-97583880D01*
X178004905Y-97583880D02*
X178023953Y-97545784D01*
X178023953Y-97545784D02*
X178023953Y-97393403D01*
X178023953Y-97393403D02*
X178004905Y-97355308D01*
X178004905Y-97355308D02*
X177966810Y-97336260D01*
X177966810Y-97336260D02*
X177890620Y-97336260D01*
X177890620Y-97336260D02*
X177852524Y-97355308D01*
X177852524Y-97355308D02*
X177833477Y-97393403D01*
X177833477Y-97393403D02*
X177833477Y-97431499D01*
X177833477Y-97431499D02*
X178023953Y-97469594D01*
X177662048Y-97336260D02*
X177662048Y-97736260D01*
X177662048Y-97355308D02*
X177623953Y-97336260D01*
X177623953Y-97336260D02*
X177547763Y-97336260D01*
X177547763Y-97336260D02*
X177509667Y-97355308D01*
X177509667Y-97355308D02*
X177490620Y-97374356D01*
X177490620Y-97374356D02*
X177471572Y-97412451D01*
X177471572Y-97412451D02*
X177471572Y-97526737D01*
X177471572Y-97526737D02*
X177490620Y-97564832D01*
X177490620Y-97564832D02*
X177509667Y-97583880D01*
X177509667Y-97583880D02*
X177547763Y-97602927D01*
X177547763Y-97602927D02*
X177623953Y-97602927D01*
X177623953Y-97602927D02*
X177662048Y-97583880D01*
X176995381Y-97336260D02*
X176995381Y-97736260D01*
X176995381Y-97355308D02*
X176957286Y-97336260D01*
X176957286Y-97336260D02*
X176881096Y-97336260D01*
X176881096Y-97336260D02*
X176843000Y-97355308D01*
X176843000Y-97355308D02*
X176823953Y-97374356D01*
X176823953Y-97374356D02*
X176804905Y-97412451D01*
X176804905Y-97412451D02*
X176804905Y-97526737D01*
X176804905Y-97526737D02*
X176823953Y-97564832D01*
X176823953Y-97564832D02*
X176843000Y-97583880D01*
X176843000Y-97583880D02*
X176881096Y-97602927D01*
X176881096Y-97602927D02*
X176957286Y-97602927D01*
X176957286Y-97602927D02*
X176995381Y-97583880D01*
X176462048Y-97602927D02*
X176462048Y-97393403D01*
X176462048Y-97393403D02*
X176481095Y-97355308D01*
X176481095Y-97355308D02*
X176519191Y-97336260D01*
X176519191Y-97336260D02*
X176595381Y-97336260D01*
X176595381Y-97336260D02*
X176633476Y-97355308D01*
X176462048Y-97583880D02*
X176500143Y-97602927D01*
X176500143Y-97602927D02*
X176595381Y-97602927D01*
X176595381Y-97602927D02*
X176633476Y-97583880D01*
X176633476Y-97583880D02*
X176652524Y-97545784D01*
X176652524Y-97545784D02*
X176652524Y-97507689D01*
X176652524Y-97507689D02*
X176633476Y-97469594D01*
X176633476Y-97469594D02*
X176595381Y-97450546D01*
X176595381Y-97450546D02*
X176500143Y-97450546D01*
X176500143Y-97450546D02*
X176462048Y-97431499D01*
X176100143Y-97602927D02*
X176100143Y-97202927D01*
X176100143Y-97583880D02*
X176138238Y-97602927D01*
X176138238Y-97602927D02*
X176214429Y-97602927D01*
X176214429Y-97602927D02*
X176252524Y-97583880D01*
X176252524Y-97583880D02*
X176271571Y-97564832D01*
X176271571Y-97564832D02*
X176290619Y-97526737D01*
X176290619Y-97526737D02*
X176290619Y-97412451D01*
X176290619Y-97412451D02*
X176271571Y-97374356D01*
X176271571Y-97374356D02*
X176252524Y-97355308D01*
X176252524Y-97355308D02*
X176214429Y-97336260D01*
X176214429Y-97336260D02*
X176138238Y-97336260D01*
X176138238Y-97336260D02*
X176100143Y-97355308D01*
X175928714Y-97583880D02*
X175890619Y-97602927D01*
X175890619Y-97602927D02*
X175814428Y-97602927D01*
X175814428Y-97602927D02*
X175776333Y-97583880D01*
X175776333Y-97583880D02*
X175757285Y-97545784D01*
X175757285Y-97545784D02*
X175757285Y-97526737D01*
X175757285Y-97526737D02*
X175776333Y-97488641D01*
X175776333Y-97488641D02*
X175814428Y-97469594D01*
X175814428Y-97469594D02*
X175871571Y-97469594D01*
X175871571Y-97469594D02*
X175909666Y-97450546D01*
X175909666Y-97450546D02*
X175928714Y-97412451D01*
X175928714Y-97412451D02*
X175928714Y-97393403D01*
X175928714Y-97393403D02*
X175909666Y-97355308D01*
X175909666Y-97355308D02*
X175871571Y-97336260D01*
X175871571Y-97336260D02*
X175814428Y-97336260D01*
X175814428Y-97336260D02*
X175776333Y-97355308D01*
X175109666Y-97583880D02*
X175147761Y-97602927D01*
X175147761Y-97602927D02*
X175223952Y-97602927D01*
X175223952Y-97602927D02*
X175262047Y-97583880D01*
X175262047Y-97583880D02*
X175281094Y-97564832D01*
X175281094Y-97564832D02*
X175300142Y-97526737D01*
X175300142Y-97526737D02*
X175300142Y-97412451D01*
X175300142Y-97412451D02*
X175281094Y-97374356D01*
X175281094Y-97374356D02*
X175262047Y-97355308D01*
X175262047Y-97355308D02*
X175223952Y-97336260D01*
X175223952Y-97336260D02*
X175147761Y-97336260D01*
X175147761Y-97336260D02*
X175109666Y-97355308D01*
X174881095Y-97602927D02*
X174919190Y-97583880D01*
X174919190Y-97583880D02*
X174938237Y-97564832D01*
X174938237Y-97564832D02*
X174957285Y-97526737D01*
X174957285Y-97526737D02*
X174957285Y-97412451D01*
X174957285Y-97412451D02*
X174938237Y-97374356D01*
X174938237Y-97374356D02*
X174919190Y-97355308D01*
X174919190Y-97355308D02*
X174881095Y-97336260D01*
X174881095Y-97336260D02*
X174823952Y-97336260D01*
X174823952Y-97336260D02*
X174785856Y-97355308D01*
X174785856Y-97355308D02*
X174766809Y-97374356D01*
X174766809Y-97374356D02*
X174747761Y-97412451D01*
X174747761Y-97412451D02*
X174747761Y-97526737D01*
X174747761Y-97526737D02*
X174766809Y-97564832D01*
X174766809Y-97564832D02*
X174785856Y-97583880D01*
X174785856Y-97583880D02*
X174823952Y-97602927D01*
X174823952Y-97602927D02*
X174881095Y-97602927D01*
X174519190Y-97602927D02*
X174557285Y-97583880D01*
X174557285Y-97583880D02*
X174576332Y-97564832D01*
X174576332Y-97564832D02*
X174595380Y-97526737D01*
X174595380Y-97526737D02*
X174595380Y-97412451D01*
X174595380Y-97412451D02*
X174576332Y-97374356D01*
X174576332Y-97374356D02*
X174557285Y-97355308D01*
X174557285Y-97355308D02*
X174519190Y-97336260D01*
X174519190Y-97336260D02*
X174462047Y-97336260D01*
X174462047Y-97336260D02*
X174423951Y-97355308D01*
X174423951Y-97355308D02*
X174404904Y-97374356D01*
X174404904Y-97374356D02*
X174385856Y-97412451D01*
X174385856Y-97412451D02*
X174385856Y-97526737D01*
X174385856Y-97526737D02*
X174404904Y-97564832D01*
X174404904Y-97564832D02*
X174423951Y-97583880D01*
X174423951Y-97583880D02*
X174462047Y-97602927D01*
X174462047Y-97602927D02*
X174519190Y-97602927D01*
X174214427Y-97336260D02*
X174214427Y-97736260D01*
X174214427Y-97355308D02*
X174176332Y-97336260D01*
X174176332Y-97336260D02*
X174100142Y-97336260D01*
X174100142Y-97336260D02*
X174062046Y-97355308D01*
X174062046Y-97355308D02*
X174042999Y-97374356D01*
X174042999Y-97374356D02*
X174023951Y-97412451D01*
X174023951Y-97412451D02*
X174023951Y-97526737D01*
X174023951Y-97526737D02*
X174042999Y-97564832D01*
X174042999Y-97564832D02*
X174062046Y-97583880D01*
X174062046Y-97583880D02*
X174100142Y-97602927D01*
X174100142Y-97602927D02*
X174176332Y-97602927D01*
X174176332Y-97602927D02*
X174214427Y-97583880D01*
X173700141Y-97583880D02*
X173738237Y-97602927D01*
X173738237Y-97602927D02*
X173814427Y-97602927D01*
X173814427Y-97602927D02*
X173852522Y-97583880D01*
X173852522Y-97583880D02*
X173871570Y-97545784D01*
X173871570Y-97545784D02*
X173871570Y-97393403D01*
X173871570Y-97393403D02*
X173852522Y-97355308D01*
X173852522Y-97355308D02*
X173814427Y-97336260D01*
X173814427Y-97336260D02*
X173738237Y-97336260D01*
X173738237Y-97336260D02*
X173700141Y-97355308D01*
X173700141Y-97355308D02*
X173681094Y-97393403D01*
X173681094Y-97393403D02*
X173681094Y-97431499D01*
X173681094Y-97431499D02*
X173871570Y-97469594D01*
X173509665Y-97602927D02*
X173509665Y-97336260D01*
X173509665Y-97412451D02*
X173490618Y-97374356D01*
X173490618Y-97374356D02*
X173471570Y-97355308D01*
X173471570Y-97355308D02*
X173433475Y-97336260D01*
X173433475Y-97336260D02*
X173395380Y-97336260D01*
X173014427Y-97336260D02*
X172862046Y-97336260D01*
X172957284Y-97202927D02*
X172957284Y-97545784D01*
X172957284Y-97545784D02*
X172938237Y-97583880D01*
X172938237Y-97583880D02*
X172900142Y-97602927D01*
X172900142Y-97602927D02*
X172862046Y-97602927D01*
X172671571Y-97602927D02*
X172709666Y-97583880D01*
X172709666Y-97583880D02*
X172728713Y-97564832D01*
X172728713Y-97564832D02*
X172747761Y-97526737D01*
X172747761Y-97526737D02*
X172747761Y-97412451D01*
X172747761Y-97412451D02*
X172728713Y-97374356D01*
X172728713Y-97374356D02*
X172709666Y-97355308D01*
X172709666Y-97355308D02*
X172671571Y-97336260D01*
X172671571Y-97336260D02*
X172614428Y-97336260D01*
X172614428Y-97336260D02*
X172576332Y-97355308D01*
X172576332Y-97355308D02*
X172557285Y-97374356D01*
X172557285Y-97374356D02*
X172538237Y-97412451D01*
X172538237Y-97412451D02*
X172538237Y-97526737D01*
X172538237Y-97526737D02*
X172557285Y-97564832D01*
X172557285Y-97564832D02*
X172576332Y-97583880D01*
X172576332Y-97583880D02*
X172614428Y-97602927D01*
X172614428Y-97602927D02*
X172671571Y-97602927D01*
X172062046Y-97602927D02*
X172062046Y-97202927D01*
X172062046Y-97202927D02*
X171909665Y-97202927D01*
X171909665Y-97202927D02*
X171871570Y-97221975D01*
X171871570Y-97221975D02*
X171852523Y-97241022D01*
X171852523Y-97241022D02*
X171833475Y-97279118D01*
X171833475Y-97279118D02*
X171833475Y-97336260D01*
X171833475Y-97336260D02*
X171852523Y-97374356D01*
X171852523Y-97374356D02*
X171871570Y-97393403D01*
X171871570Y-97393403D02*
X171909665Y-97412451D01*
X171909665Y-97412451D02*
X172062046Y-97412451D01*
X171433475Y-97564832D02*
X171452523Y-97583880D01*
X171452523Y-97583880D02*
X171509665Y-97602927D01*
X171509665Y-97602927D02*
X171547761Y-97602927D01*
X171547761Y-97602927D02*
X171604904Y-97583880D01*
X171604904Y-97583880D02*
X171642999Y-97545784D01*
X171642999Y-97545784D02*
X171662046Y-97507689D01*
X171662046Y-97507689D02*
X171681094Y-97431499D01*
X171681094Y-97431499D02*
X171681094Y-97374356D01*
X171681094Y-97374356D02*
X171662046Y-97298165D01*
X171662046Y-97298165D02*
X171642999Y-97260070D01*
X171642999Y-97260070D02*
X171604904Y-97221975D01*
X171604904Y-97221975D02*
X171547761Y-97202927D01*
X171547761Y-97202927D02*
X171509665Y-97202927D01*
X171509665Y-97202927D02*
X171452523Y-97221975D01*
X171452523Y-97221975D02*
X171433475Y-97241022D01*
X171128713Y-97393403D02*
X171071570Y-97412451D01*
X171071570Y-97412451D02*
X171052523Y-97431499D01*
X171052523Y-97431499D02*
X171033475Y-97469594D01*
X171033475Y-97469594D02*
X171033475Y-97526737D01*
X171033475Y-97526737D02*
X171052523Y-97564832D01*
X171052523Y-97564832D02*
X171071570Y-97583880D01*
X171071570Y-97583880D02*
X171109665Y-97602927D01*
X171109665Y-97602927D02*
X171262046Y-97602927D01*
X171262046Y-97602927D02*
X171262046Y-97202927D01*
X171262046Y-97202927D02*
X171128713Y-97202927D01*
X171128713Y-97202927D02*
X171090618Y-97221975D01*
X171090618Y-97221975D02*
X171071570Y-97241022D01*
X171071570Y-97241022D02*
X171052523Y-97279118D01*
X171052523Y-97279118D02*
X171052523Y-97317213D01*
X171052523Y-97317213D02*
X171071570Y-97355308D01*
X171071570Y-97355308D02*
X171090618Y-97374356D01*
X171090618Y-97374356D02*
X171128713Y-97393403D01*
X171128713Y-97393403D02*
X171262046Y-97393403D01*
X170404903Y-97583880D02*
X170442999Y-97602927D01*
X170442999Y-97602927D02*
X170519189Y-97602927D01*
X170519189Y-97602927D02*
X170557284Y-97583880D01*
X170557284Y-97583880D02*
X170576332Y-97545784D01*
X170576332Y-97545784D02*
X170576332Y-97393403D01*
X170576332Y-97393403D02*
X170557284Y-97355308D01*
X170557284Y-97355308D02*
X170519189Y-97336260D01*
X170519189Y-97336260D02*
X170442999Y-97336260D01*
X170442999Y-97336260D02*
X170404903Y-97355308D01*
X170404903Y-97355308D02*
X170385856Y-97393403D01*
X170385856Y-97393403D02*
X170385856Y-97431499D01*
X170385856Y-97431499D02*
X170576332Y-97469594D01*
X170042999Y-97602927D02*
X170042999Y-97202927D01*
X170042999Y-97583880D02*
X170081094Y-97602927D01*
X170081094Y-97602927D02*
X170157285Y-97602927D01*
X170157285Y-97602927D02*
X170195380Y-97583880D01*
X170195380Y-97583880D02*
X170214427Y-97564832D01*
X170214427Y-97564832D02*
X170233475Y-97526737D01*
X170233475Y-97526737D02*
X170233475Y-97412451D01*
X170233475Y-97412451D02*
X170214427Y-97374356D01*
X170214427Y-97374356D02*
X170195380Y-97355308D01*
X170195380Y-97355308D02*
X170157285Y-97336260D01*
X170157285Y-97336260D02*
X170081094Y-97336260D01*
X170081094Y-97336260D02*
X170042999Y-97355308D01*
X169681094Y-97336260D02*
X169681094Y-97660070D01*
X169681094Y-97660070D02*
X169700141Y-97698165D01*
X169700141Y-97698165D02*
X169719189Y-97717213D01*
X169719189Y-97717213D02*
X169757284Y-97736260D01*
X169757284Y-97736260D02*
X169814427Y-97736260D01*
X169814427Y-97736260D02*
X169852522Y-97717213D01*
X169681094Y-97583880D02*
X169719189Y-97602927D01*
X169719189Y-97602927D02*
X169795380Y-97602927D01*
X169795380Y-97602927D02*
X169833475Y-97583880D01*
X169833475Y-97583880D02*
X169852522Y-97564832D01*
X169852522Y-97564832D02*
X169871570Y-97526737D01*
X169871570Y-97526737D02*
X169871570Y-97412451D01*
X169871570Y-97412451D02*
X169852522Y-97374356D01*
X169852522Y-97374356D02*
X169833475Y-97355308D01*
X169833475Y-97355308D02*
X169795380Y-97336260D01*
X169795380Y-97336260D02*
X169719189Y-97336260D01*
X169719189Y-97336260D02*
X169681094Y-97355308D01*
X169338236Y-97583880D02*
X169376332Y-97602927D01*
X169376332Y-97602927D02*
X169452522Y-97602927D01*
X169452522Y-97602927D02*
X169490617Y-97583880D01*
X169490617Y-97583880D02*
X169509665Y-97545784D01*
X169509665Y-97545784D02*
X169509665Y-97393403D01*
X169509665Y-97393403D02*
X169490617Y-97355308D01*
X169490617Y-97355308D02*
X169452522Y-97336260D01*
X169452522Y-97336260D02*
X169376332Y-97336260D01*
X169376332Y-97336260D02*
X169338236Y-97355308D01*
X169338236Y-97355308D02*
X169319189Y-97393403D01*
X169319189Y-97393403D02*
X169319189Y-97431499D01*
X169319189Y-97431499D02*
X169509665Y-97469594D01*
D10*
X142473951Y-75828742D02*
X142473951Y-76209695D01*
X142740618Y-75409695D02*
X142473951Y-75828742D01*
X142473951Y-75828742D02*
X142207285Y-75409695D01*
X141978714Y-75485885D02*
X141940618Y-75447790D01*
X141940618Y-75447790D02*
X141864428Y-75409695D01*
X141864428Y-75409695D02*
X141673952Y-75409695D01*
X141673952Y-75409695D02*
X141597761Y-75447790D01*
X141597761Y-75447790D02*
X141559666Y-75485885D01*
X141559666Y-75485885D02*
X141521571Y-75562076D01*
X141521571Y-75562076D02*
X141521571Y-75638266D01*
X141521571Y-75638266D02*
X141559666Y-75752552D01*
X141559666Y-75752552D02*
X142016809Y-76209695D01*
X142016809Y-76209695D02*
X141521571Y-76209695D01*
X142882551Y-78539742D02*
X142882551Y-78920695D01*
X143149218Y-78120695D02*
X142882551Y-78539742D01*
X142882551Y-78539742D02*
X142615885Y-78120695D01*
X142387314Y-78196885D02*
X142349218Y-78158790D01*
X142349218Y-78158790D02*
X142273028Y-78120695D01*
X142273028Y-78120695D02*
X142082552Y-78120695D01*
X142082552Y-78120695D02*
X142006361Y-78158790D01*
X142006361Y-78158790D02*
X141968266Y-78196885D01*
X141968266Y-78196885D02*
X141930171Y-78273076D01*
X141930171Y-78273076D02*
X141930171Y-78349266D01*
X141930171Y-78349266D02*
X141968266Y-78463552D01*
X141968266Y-78463552D02*
X142425409Y-78920695D01*
X142425409Y-78920695D02*
X141930171Y-78920695D01*
X149414285Y-85288704D02*
X149452381Y-85326800D01*
X149452381Y-85326800D02*
X149566666Y-85364895D01*
X149566666Y-85364895D02*
X149642857Y-85364895D01*
X149642857Y-85364895D02*
X149757143Y-85326800D01*
X149757143Y-85326800D02*
X149833333Y-85250609D01*
X149833333Y-85250609D02*
X149871428Y-85174419D01*
X149871428Y-85174419D02*
X149909524Y-85022038D01*
X149909524Y-85022038D02*
X149909524Y-84907752D01*
X149909524Y-84907752D02*
X149871428Y-84755371D01*
X149871428Y-84755371D02*
X149833333Y-84679180D01*
X149833333Y-84679180D02*
X149757143Y-84602990D01*
X149757143Y-84602990D02*
X149642857Y-84564895D01*
X149642857Y-84564895D02*
X149566666Y-84564895D01*
X149566666Y-84564895D02*
X149452381Y-84602990D01*
X149452381Y-84602990D02*
X149414285Y-84641085D01*
X148652381Y-85364895D02*
X149109524Y-85364895D01*
X148880952Y-85364895D02*
X148880952Y-84564895D01*
X148880952Y-84564895D02*
X148957143Y-84679180D01*
X148957143Y-84679180D02*
X149033333Y-84755371D01*
X149033333Y-84755371D02*
X149109524Y-84793466D01*
X148347619Y-84641085D02*
X148309523Y-84602990D01*
X148309523Y-84602990D02*
X148233333Y-84564895D01*
X148233333Y-84564895D02*
X148042857Y-84564895D01*
X148042857Y-84564895D02*
X147966666Y-84602990D01*
X147966666Y-84602990D02*
X147928571Y-84641085D01*
X147928571Y-84641085D02*
X147890476Y-84717276D01*
X147890476Y-84717276D02*
X147890476Y-84793466D01*
X147890476Y-84793466D02*
X147928571Y-84907752D01*
X147928571Y-84907752D02*
X148385714Y-85364895D01*
X148385714Y-85364895D02*
X147890476Y-85364895D01*
X145033332Y-100388704D02*
X145071428Y-100426800D01*
X145071428Y-100426800D02*
X145185713Y-100464895D01*
X145185713Y-100464895D02*
X145261904Y-100464895D01*
X145261904Y-100464895D02*
X145376190Y-100426800D01*
X145376190Y-100426800D02*
X145452380Y-100350609D01*
X145452380Y-100350609D02*
X145490475Y-100274419D01*
X145490475Y-100274419D02*
X145528571Y-100122038D01*
X145528571Y-100122038D02*
X145528571Y-100007752D01*
X145528571Y-100007752D02*
X145490475Y-99855371D01*
X145490475Y-99855371D02*
X145452380Y-99779180D01*
X145452380Y-99779180D02*
X145376190Y-99702990D01*
X145376190Y-99702990D02*
X145261904Y-99664895D01*
X145261904Y-99664895D02*
X145185713Y-99664895D01*
X145185713Y-99664895D02*
X145071428Y-99702990D01*
X145071428Y-99702990D02*
X145033332Y-99741085D01*
X144309523Y-99664895D02*
X144690475Y-99664895D01*
X144690475Y-99664895D02*
X144728571Y-100045847D01*
X144728571Y-100045847D02*
X144690475Y-100007752D01*
X144690475Y-100007752D02*
X144614285Y-99969657D01*
X144614285Y-99969657D02*
X144423809Y-99969657D01*
X144423809Y-99969657D02*
X144347618Y-100007752D01*
X144347618Y-100007752D02*
X144309523Y-100045847D01*
X144309523Y-100045847D02*
X144271428Y-100122038D01*
X144271428Y-100122038D02*
X144271428Y-100312514D01*
X144271428Y-100312514D02*
X144309523Y-100388704D01*
X144309523Y-100388704D02*
X144347618Y-100426800D01*
X144347618Y-100426800D02*
X144423809Y-100464895D01*
X144423809Y-100464895D02*
X144614285Y-100464895D01*
X144614285Y-100464895D02*
X144690475Y-100426800D01*
X144690475Y-100426800D02*
X144728571Y-100388704D01*
X145264895Y-85966666D02*
X145264895Y-85585714D01*
X145264895Y-85585714D02*
X144464895Y-85585714D01*
X144807752Y-86347618D02*
X144769657Y-86271428D01*
X144769657Y-86271428D02*
X144731561Y-86233333D01*
X144731561Y-86233333D02*
X144655371Y-86195237D01*
X144655371Y-86195237D02*
X144617276Y-86195237D01*
X144617276Y-86195237D02*
X144541085Y-86233333D01*
X144541085Y-86233333D02*
X144502990Y-86271428D01*
X144502990Y-86271428D02*
X144464895Y-86347618D01*
X144464895Y-86347618D02*
X144464895Y-86499999D01*
X144464895Y-86499999D02*
X144502990Y-86576190D01*
X144502990Y-86576190D02*
X144541085Y-86614285D01*
X144541085Y-86614285D02*
X144617276Y-86652380D01*
X144617276Y-86652380D02*
X144655371Y-86652380D01*
X144655371Y-86652380D02*
X144731561Y-86614285D01*
X144731561Y-86614285D02*
X144769657Y-86576190D01*
X144769657Y-86576190D02*
X144807752Y-86499999D01*
X144807752Y-86499999D02*
X144807752Y-86347618D01*
X144807752Y-86347618D02*
X144845847Y-86271428D01*
X144845847Y-86271428D02*
X144883942Y-86233333D01*
X144883942Y-86233333D02*
X144960133Y-86195237D01*
X144960133Y-86195237D02*
X145112514Y-86195237D01*
X145112514Y-86195237D02*
X145188704Y-86233333D01*
X145188704Y-86233333D02*
X145226800Y-86271428D01*
X145226800Y-86271428D02*
X145264895Y-86347618D01*
X145264895Y-86347618D02*
X145264895Y-86499999D01*
X145264895Y-86499999D02*
X145226800Y-86576190D01*
X145226800Y-86576190D02*
X145188704Y-86614285D01*
X145188704Y-86614285D02*
X145112514Y-86652380D01*
X145112514Y-86652380D02*
X144960133Y-86652380D01*
X144960133Y-86652380D02*
X144883942Y-86614285D01*
X144883942Y-86614285D02*
X144845847Y-86576190D01*
X144845847Y-86576190D02*
X144807752Y-86499999D01*
X151307804Y-82042811D02*
X151543507Y-81807109D01*
X151543507Y-81807109D02*
X151048532Y-81312134D01*
X151119242Y-82231373D02*
X151024961Y-82325654D01*
X151024961Y-82325654D02*
X150954251Y-82349224D01*
X150954251Y-82349224D02*
X150907110Y-82349224D01*
X150907110Y-82349224D02*
X150789259Y-82325654D01*
X150789259Y-82325654D02*
X150671408Y-82254944D01*
X150671408Y-82254944D02*
X150482846Y-82066382D01*
X150482846Y-82066382D02*
X150459276Y-81995671D01*
X150459276Y-81995671D02*
X150459276Y-81948531D01*
X150459276Y-81948531D02*
X150482846Y-81877820D01*
X150482846Y-81877820D02*
X150577127Y-81783539D01*
X150577127Y-81783539D02*
X150647838Y-81759969D01*
X150647838Y-81759969D02*
X150694978Y-81759969D01*
X150694978Y-81759969D02*
X150765689Y-81783539D01*
X150765689Y-81783539D02*
X150883540Y-81901390D01*
X150883540Y-81901390D02*
X150907110Y-81972101D01*
X150907110Y-81972101D02*
X150907110Y-82019241D01*
X150907110Y-82019241D02*
X150883540Y-82089952D01*
X150883540Y-82089952D02*
X150789259Y-82184233D01*
X150789259Y-82184233D02*
X150718548Y-82207803D01*
X150718548Y-82207803D02*
X150671408Y-82207803D01*
X150671408Y-82207803D02*
X150600697Y-82184233D01*
X161351966Y-91349999D02*
X161385300Y-91316666D01*
X161385300Y-91316666D02*
X161418633Y-91216666D01*
X161418633Y-91216666D02*
X161418633Y-91149999D01*
X161418633Y-91149999D02*
X161385300Y-91049999D01*
X161385300Y-91049999D02*
X161318633Y-90983333D01*
X161318633Y-90983333D02*
X161251966Y-90949999D01*
X161251966Y-90949999D02*
X161118633Y-90916666D01*
X161118633Y-90916666D02*
X161018633Y-90916666D01*
X161018633Y-90916666D02*
X160885300Y-90949999D01*
X160885300Y-90949999D02*
X160818633Y-90983333D01*
X160818633Y-90983333D02*
X160751966Y-91049999D01*
X160751966Y-91049999D02*
X160718633Y-91149999D01*
X160718633Y-91149999D02*
X160718633Y-91216666D01*
X160718633Y-91216666D02*
X160751966Y-91316666D01*
X160751966Y-91316666D02*
X160785300Y-91349999D01*
X160785300Y-91616666D02*
X160751966Y-91649999D01*
X160751966Y-91649999D02*
X160718633Y-91716666D01*
X160718633Y-91716666D02*
X160718633Y-91883333D01*
X160718633Y-91883333D02*
X160751966Y-91949999D01*
X160751966Y-91949999D02*
X160785300Y-91983333D01*
X160785300Y-91983333D02*
X160851966Y-92016666D01*
X160851966Y-92016666D02*
X160918633Y-92016666D01*
X160918633Y-92016666D02*
X161018633Y-91983333D01*
X161018633Y-91983333D02*
X161418633Y-91583333D01*
X161418633Y-91583333D02*
X161418633Y-92016666D01*
X161418633Y-92350000D02*
X161418633Y-92483333D01*
X161418633Y-92483333D02*
X161385300Y-92550000D01*
X161385300Y-92550000D02*
X161351966Y-92583333D01*
X161351966Y-92583333D02*
X161251966Y-92650000D01*
X161251966Y-92650000D02*
X161118633Y-92683333D01*
X161118633Y-92683333D02*
X160851966Y-92683333D01*
X160851966Y-92683333D02*
X160785300Y-92650000D01*
X160785300Y-92650000D02*
X160751966Y-92616666D01*
X160751966Y-92616666D02*
X160718633Y-92550000D01*
X160718633Y-92550000D02*
X160718633Y-92416666D01*
X160718633Y-92416666D02*
X160751966Y-92350000D01*
X160751966Y-92350000D02*
X160785300Y-92316666D01*
X160785300Y-92316666D02*
X160851966Y-92283333D01*
X160851966Y-92283333D02*
X161018633Y-92283333D01*
X161018633Y-92283333D02*
X161085300Y-92316666D01*
X161085300Y-92316666D02*
X161118633Y-92350000D01*
X161118633Y-92350000D02*
X161151966Y-92416666D01*
X161151966Y-92416666D02*
X161151966Y-92550000D01*
X161151966Y-92550000D02*
X161118633Y-92616666D01*
X161118633Y-92616666D02*
X161085300Y-92650000D01*
X161085300Y-92650000D02*
X161018633Y-92683333D01*
X157118633Y-93183333D02*
X156785300Y-92950000D01*
X157118633Y-92783333D02*
X156418633Y-92783333D01*
X156418633Y-92783333D02*
X156418633Y-93050000D01*
X156418633Y-93050000D02*
X156451966Y-93116667D01*
X156451966Y-93116667D02*
X156485300Y-93150000D01*
X156485300Y-93150000D02*
X156551966Y-93183333D01*
X156551966Y-93183333D02*
X156651966Y-93183333D01*
X156651966Y-93183333D02*
X156718633Y-93150000D01*
X156718633Y-93150000D02*
X156751966Y-93116667D01*
X156751966Y-93116667D02*
X156785300Y-93050000D01*
X156785300Y-93050000D02*
X156785300Y-92783333D01*
X156418633Y-93816667D02*
X156418633Y-93483333D01*
X156418633Y-93483333D02*
X156751966Y-93450000D01*
X156751966Y-93450000D02*
X156718633Y-93483333D01*
X156718633Y-93483333D02*
X156685300Y-93550000D01*
X156685300Y-93550000D02*
X156685300Y-93716667D01*
X156685300Y-93716667D02*
X156718633Y-93783333D01*
X156718633Y-93783333D02*
X156751966Y-93816667D01*
X156751966Y-93816667D02*
X156818633Y-93850000D01*
X156818633Y-93850000D02*
X156985300Y-93850000D01*
X156985300Y-93850000D02*
X157051966Y-93816667D01*
X157051966Y-93816667D02*
X157085300Y-93783333D01*
X157085300Y-93783333D02*
X157118633Y-93716667D01*
X157118633Y-93716667D02*
X157118633Y-93550000D01*
X157118633Y-93550000D02*
X157085300Y-93483333D01*
X157085300Y-93483333D02*
X157051966Y-93450000D01*
D12*
%TO.C,C2*%
X152894420Y-79144400D02*
X153175580Y-79144400D01*
X152894420Y-80164400D02*
X153175580Y-80164400D01*
%TO.C,C32*%
X156724420Y-86631000D02*
X157005580Y-86631000D01*
X156724420Y-87651000D02*
X157005580Y-87651000D01*
%TO.C,L12*%
X162772000Y-98751752D02*
X162772000Y-98229248D01*
X164192000Y-98751752D02*
X164192000Y-98229248D01*
%TO.C,R7*%
X126627500Y-82112258D02*
X126627500Y-81637742D01*
X127672500Y-82112258D02*
X127672500Y-81637742D01*
%TO.C,U9*%
X159782000Y-95588000D02*
X159782000Y-94188000D01*
X162102000Y-95598000D02*
X162102000Y-94188000D01*
X162382000Y-96208000D02*
X162052000Y-95968000D01*
X162382000Y-95728000D01*
X162382000Y-96208000D01*
G36*
X162382000Y-96208000D02*
G01*
X162052000Y-95968000D01*
X162382000Y-95728000D01*
X162382000Y-96208000D01*
G37*
%TO.C,C34*%
X153193000Y-87762420D02*
X153193000Y-88043580D01*
X154213000Y-87762420D02*
X154213000Y-88043580D01*
%TO.C,C19*%
X142390000Y-90459420D02*
X142390000Y-90740580D01*
X143410000Y-90459420D02*
X143410000Y-90740580D01*
%TO.C,C1*%
X134228452Y-101315800D02*
X133705948Y-101315800D01*
X134228452Y-102785800D02*
X133705948Y-102785800D01*
%TO.C,L5*%
X149437000Y-96846752D02*
X149437000Y-96324248D01*
X150857000Y-96846752D02*
X150857000Y-96324248D01*
%TO.C,R22*%
X131717500Y-81696742D02*
X131717500Y-82171258D01*
X132762500Y-81696742D02*
X132762500Y-82171258D01*
%TO.C,R3*%
X134192258Y-94873500D02*
X133717742Y-94873500D01*
X134192258Y-95918500D02*
X133717742Y-95918500D01*
%TO.C,D1*%
X128183000Y-76976700D02*
X128303000Y-76976700D01*
X128183000Y-77176700D02*
X128183000Y-76976700D01*
X128303000Y-76976700D02*
X128303000Y-77176700D01*
X128303000Y-77176700D02*
X128183000Y-77176700D01*
%TO.C,D2*%
X131508000Y-80114200D02*
X131508000Y-77654200D01*
X132978000Y-77654200D02*
X132978000Y-80114200D01*
X132978000Y-80114200D02*
X131508000Y-80114200D01*
%TO.C,U2*%
X137131000Y-82245000D02*
X137131000Y-82720000D01*
X137131000Y-86990000D02*
X137131000Y-87465000D01*
X137131000Y-87465000D02*
X137606000Y-87465000D01*
X137606000Y-82245000D02*
X137131000Y-82245000D01*
X142876000Y-87465000D02*
X143351000Y-87465000D01*
X143351000Y-82245000D02*
X142876000Y-82245000D01*
X143351000Y-82720000D02*
X143351000Y-82245000D01*
X143351000Y-87465000D02*
X143351000Y-86990000D01*
X137991000Y-81715000D02*
X137751000Y-81385000D01*
X138231000Y-81385000D01*
X137991000Y-81715000D01*
G36*
X137991000Y-81715000D02*
G01*
X137751000Y-81385000D01*
X138231000Y-81385000D01*
X137991000Y-81715000D01*
G37*
%TO.C,C13*%
X146868400Y-81160180D02*
X146868400Y-80879020D01*
X147888400Y-81160180D02*
X147888400Y-80879020D01*
%TO.C,L16*%
X155060752Y-89860000D02*
X154538248Y-89860000D01*
X155060752Y-91280000D02*
X154538248Y-91280000D01*
%TO.C,C26*%
X162972000Y-86405580D02*
X162972000Y-86124420D01*
X163992000Y-86405580D02*
X163992000Y-86124420D01*
D13*
%TO.C,C21*%
X135900000Y-90450000D02*
X135900000Y-92150000D01*
X135900000Y-92150000D02*
X137550000Y-92150000D01*
X137550000Y-90450000D02*
X135900000Y-90450000D01*
X138550000Y-92150000D02*
X140200000Y-92150000D01*
X140200000Y-90450000D02*
X138550000Y-90450000D01*
X140200000Y-92150000D02*
X140200000Y-90450000D01*
D12*
%TO.C,R1*%
X134128258Y-98683500D02*
X133653742Y-98683500D01*
X134128258Y-99728500D02*
X133653742Y-99728500D01*
%TO.C,C11*%
X148924970Y-87148219D02*
X149123781Y-87347030D01*
X149646219Y-86426970D02*
X149845030Y-86625781D01*
%TO.C,L3*%
X155187752Y-97988000D02*
X154665248Y-97988000D01*
X155187752Y-99408000D02*
X154665248Y-99408000D01*
%TO.C,C18*%
X134246252Y-89282600D02*
X133723748Y-89282600D01*
X134246252Y-90752600D02*
X133723748Y-90752600D01*
%TO.C,C20*%
X145565000Y-90388748D02*
X145565000Y-90911252D01*
X147035000Y-90388748D02*
X147035000Y-90911252D01*
%TO.C,C15*%
X143990000Y-90459420D02*
X143990000Y-90740580D01*
X145010000Y-90459420D02*
X145010000Y-90740580D01*
%TO.C,L13*%
X157463400Y-92361252D02*
X157463400Y-91838748D01*
X158883400Y-92361252D02*
X158883400Y-91838748D01*
%TO.C,J1*%
X126124000Y-101636000D02*
X126124000Y-93206000D01*
X128944000Y-91936000D02*
X130394000Y-91936000D01*
X128944000Y-102906000D02*
X130394000Y-102906000D01*
X130394000Y-91936000D02*
X130394000Y-93736000D01*
X130394000Y-101106000D02*
X131384000Y-101106000D01*
X130394000Y-102906000D02*
X130394000Y-101106000D01*
%TO.C,R6*%
X128227500Y-81632742D02*
X128227500Y-82107258D01*
X129272500Y-81632742D02*
X129272500Y-82107258D01*
%TO.C,C33*%
X156724420Y-88282000D02*
X157005580Y-88282000D01*
X156724420Y-89302000D02*
X157005580Y-89302000D01*
%TO.C,D3*%
X129508000Y-80114200D02*
X129508000Y-77654200D01*
X130978000Y-77654200D02*
X130978000Y-80114200D01*
X130978000Y-80114200D02*
X129508000Y-80114200D01*
%TO.C,R2*%
X134192258Y-96778500D02*
X133717742Y-96778500D01*
X134192258Y-97823500D02*
X133717742Y-97823500D01*
%TO.C,L10*%
X144915800Y-82713748D02*
X144915800Y-83236252D01*
X146335800Y-82713748D02*
X146335800Y-83236252D01*
%TO.C,U1*%
X136704000Y-96642000D02*
X137964000Y-96642000D01*
X136704000Y-100402000D02*
X136704000Y-96642000D01*
X143524000Y-96642000D02*
X142264000Y-96642000D01*
X143524000Y-100402000D02*
X143524000Y-96642000D01*
X143754000Y-101922000D02*
X143424000Y-101682000D01*
X143754000Y-101442000D01*
X143754000Y-101922000D01*
G36*
X143754000Y-101922000D02*
G01*
X143424000Y-101682000D01*
X143754000Y-101442000D01*
X143754000Y-101922000D01*
G37*
D10*
%TO.C,U3*%
X152461000Y-92380000D02*
X152461000Y-94380000D01*
X154461000Y-94380000D02*
X154461000Y-92380000D01*
D14*
X154986000Y-94755000D02*
G75*
G02*
X154736000Y-94755000I-125000J0D01*
G01*
X154736000Y-94755000D02*
G75*
G02*
X154986000Y-94755000I125000J0D01*
G01*
D12*
%TO.C,C9*%
X149512580Y-93235000D02*
X149231420Y-93235000D01*
X149512580Y-94255000D02*
X149231420Y-94255000D01*
%TO.C,C14*%
X134018580Y-85869000D02*
X133737420Y-85869000D01*
X134018580Y-86889000D02*
X133737420Y-86889000D01*
%TO.C,C4*%
X158910580Y-98188000D02*
X158629420Y-98188000D01*
X158910580Y-99208000D02*
X158629420Y-99208000D01*
%TO.C,C7*%
X151542000Y-99332420D02*
X151542000Y-99613580D01*
X152562000Y-99332420D02*
X152562000Y-99613580D01*
%TO.C,C3*%
X144103400Y-94488852D02*
X144103400Y-93966348D01*
X145573400Y-94488852D02*
X145573400Y-93966348D01*
%TO.C,R9*%
X134196858Y-91552500D02*
X133722342Y-91552500D01*
X134196858Y-92597500D02*
X133722342Y-92597500D01*
%TO.C,C31*%
X157105420Y-95394000D02*
X157386580Y-95394000D01*
X157105420Y-96414000D02*
X157386580Y-96414000D01*
%TO.C,L11*%
X162772000Y-81118248D02*
X162772000Y-81640752D01*
X164192000Y-81118248D02*
X164192000Y-81640752D01*
%TO.C,R23*%
X129777500Y-81633742D02*
X129777500Y-82108258D01*
X130822500Y-81633742D02*
X130822500Y-82108258D01*
%TO.C,R8*%
X147565000Y-89877064D02*
X147565000Y-89422936D01*
X149035000Y-89877064D02*
X149035000Y-89422936D01*
%TO.C,R20*%
X134384500Y-83505258D02*
X134384500Y-83030742D01*
X135429500Y-83505258D02*
X135429500Y-83030742D01*
%TO.C,C17*%
X140790000Y-90684420D02*
X140790000Y-90965580D01*
X141810000Y-90684420D02*
X141810000Y-90965580D01*
%TO.C,C27*%
X162972000Y-93109420D02*
X162972000Y-93390580D01*
X163992000Y-93109420D02*
X163992000Y-93390580D01*
%TO.C,J3*%
X165243000Y-81871000D02*
X165243000Y-82971000D01*
X165643000Y-86046000D02*
X165643000Y-78796000D01*
X175443000Y-78796000D02*
X165643000Y-78796000D01*
X175443000Y-86046000D02*
X165643000Y-86046000D01*
%TO.C,L7*%
X149540000Y-91161252D02*
X149540000Y-90638748D01*
X150960000Y-91161252D02*
X150960000Y-90638748D01*
%TO.C,C16*%
X134018580Y-87647000D02*
X133737420Y-87647000D01*
X134018580Y-88667000D02*
X133737420Y-88667000D01*
%TO.C,C28*%
X159416000Y-88602380D02*
X159416000Y-88321220D01*
X160436000Y-88602380D02*
X160436000Y-88321220D01*
%TO.C,U7*%
X163613000Y-90983000D02*
X162213000Y-90983000D01*
X163623000Y-88663000D02*
X162213000Y-88663000D01*
X163993000Y-88713000D02*
X163753000Y-88383000D01*
X164233000Y-88383000D01*
X163993000Y-88713000D01*
G36*
X163993000Y-88713000D02*
G01*
X163753000Y-88383000D01*
X164233000Y-88383000D01*
X163993000Y-88713000D01*
G37*
D15*
%TO.C,FL1*%
X151803000Y-81557000D02*
X151803000Y-85357000D01*
X155603000Y-85357000D02*
X155603000Y-81557000D01*
D16*
X155899000Y-85741000D02*
G75*
G02*
X155659000Y-85741000I-120000J0D01*
G01*
X155659000Y-85741000D02*
G75*
G02*
X155899000Y-85741000I120000J0D01*
G01*
D12*
%TO.C,R4*%
X134192258Y-93095500D02*
X133717742Y-93095500D01*
X134192258Y-94140500D02*
X133717742Y-94140500D01*
%TO.C,J4*%
X165243000Y-96871000D02*
X165243000Y-97971000D01*
X165643000Y-101046000D02*
X165643000Y-93796000D01*
X175443000Y-93796000D02*
X165643000Y-93796000D01*
X175443000Y-101046000D02*
X165643000Y-101046000D01*
%TO.C,Y2*%
X139741600Y-78215800D02*
X139741600Y-78895800D01*
X141661600Y-80415800D02*
X143341600Y-80415800D01*
X143341600Y-76695800D02*
X141661600Y-76695800D01*
X143341600Y-80415800D02*
X143341600Y-80915800D01*
X145261600Y-78895800D02*
X145261600Y-78215800D01*
X145661600Y-78895800D02*
X145261600Y-78895800D01*
%TO.C,C12*%
X148736420Y-83329000D02*
X149017580Y-83329000D01*
X148736420Y-84349000D02*
X149017580Y-84349000D01*
%TO.C,C5*%
X144103400Y-97735748D02*
X144103400Y-98258252D01*
X145573400Y-97735748D02*
X145573400Y-98258252D01*
%TO.C,L8*%
X145590000Y-87286252D02*
X145590000Y-86763748D01*
X147010000Y-87286252D02*
X147010000Y-86763748D01*
%TO.C,L9*%
X149829687Y-80104221D02*
X149460221Y-80473687D01*
X150833779Y-81108313D02*
X150464313Y-81477779D01*
%TO.C,C29*%
X159517600Y-91940580D02*
X159517600Y-91659420D01*
X160537600Y-91940580D02*
X160537600Y-91659420D01*
%TO.C,R5*%
X155212500Y-93063742D02*
X155212500Y-93538258D01*
X156257500Y-93063742D02*
X156257500Y-93538258D01*
%TD*%
M02*
