M48
; DRILL file {KiCad 9.0.6+1} date 2026-02-04T13:40:10+0000
; FORMAT={3:3/ absolute / metric / suppress leading zeros}
; #@! TF.CreationDate,2026-02-04T13:40:10+00:00
; #@! TF.GenerationSoftware,Kicad,Pcbnew,9.0.6+1
; #@! TF.FileFunction,Plated,1,2,PTH
FMAT,2
METRIC,TZ
; #@! TA.AperFunction,Plated,PTH,ComponentDrill
T1C0.200
; #@! TA.AperFunction,Plated,PTH,ViaDrill
T2C0.300
%
G90
G05
T1
X138441Y-83305
X138441Y-84855
X138441Y-86405
X139641Y-83305
X139641Y-84855
X139641Y-86405
X140841Y-83305
X140841Y-84855
X140841Y-86405
X142041Y-83305
X142041Y-84855
X142041Y-86405
X152861Y-93380
X153461Y-93380
X154061Y-93380
X167368Y-79546
X167368Y-85296
X167368Y-94546
X167368Y-100296
T2
X126355Y-76970
X126500Y-91750
X126516Y-78676
X126525Y-79775
X126575Y-93767
X126575Y-94825
X127025Y-99992
X127025Y-101050
X127076Y-90526
X127600Y-93792
X127700Y-77400
X128652Y-100546
X128718Y-79377
X129525Y-93475
X129573Y-102635
X129600Y-101575
X129769Y-90449
X130243Y-77579
X130589Y-102635
X130658Y-93396
X131500Y-81946
X131623Y-91821
X131707Y-87522
X131732Y-102635
X131750Y-90500
X131757Y-89021
X131808Y-85256
X131859Y-86252
X131986Y-76092
X132621Y-103778
X133200Y-77642
X133256Y-76092
X133460Y-85097
X133637Y-81382
X133883Y-89205
X133891Y-103778
X134000Y-83343
X134526Y-76092
X134550Y-77150
X135161Y-103778
X135450Y-93618
X135509Y-87300
X135669Y-76092
X135669Y-77108
X135796Y-95396
X135814Y-85014
X136093Y-97231
X136101Y-103245
X136683Y-89808
X136859Y-87791
X137447Y-97174
X137574Y-99587
X137693Y-77271
X137719Y-88754
X138000Y-80266
X138283Y-92827
X138470Y-79300
X138768Y-77692
X138844Y-97428
X138844Y-98444
X138844Y-99587
X138963Y-88595
X139810Y-88576
X140018Y-80806
X140114Y-103651
X140368Y-75965
X140795Y-93416
X141300Y-88824
X141384Y-103651
X141427Y-97180
X141511Y-98241
X141511Y-99587
X142104Y-75965
X142188Y-88872
X142240Y-95178
X142316Y-93751
X142342Y-92913
X142654Y-103651
X142908Y-97809
X142908Y-99587
X142933Y-96412
X143107Y-82300
X143154Y-94107
X143383Y-92227
X143797Y-103651
X143839Y-75965
X143942Y-84861
X144120Y-86385
X144200Y-82000
X144650Y-88050
X144907Y-87173
X144940Y-100730
X145067Y-103651
X145575Y-75965
X146533Y-82880
X146800Y-76900
X146950Y-100450
X146972Y-93491
X146972Y-94634
X146972Y-96158
X146972Y-97555
X146972Y-98952
X147269Y-84785
X147353Y-78505
X147861Y-102381
X147950Y-87400
X148496Y-95015
X148496Y-96031
X148496Y-97174
X148496Y-98317
X148623Y-78505
X148725Y-80131
X148750Y-92602
X149352Y-82829
X149512Y-79394
X149512Y-85109
X149512Y-99079
X149766Y-103016
X150528Y-76092
X150528Y-85871
X150528Y-99841
X150655Y-101365
X150782Y-78124
X151290Y-86633
X151544Y-92475
X151544Y-93745
X151544Y-95142
X151671Y-96158
X151798Y-83458
X151798Y-103651
X151925Y-76092
X152052Y-87522
X152052Y-88665
X152052Y-89833
X152052Y-101873
X152433Y-78124
X152433Y-97047
X152500Y-86500
X153195Y-103651
X153340Y-83083
X153449Y-76092
X153449Y-100095
X153449Y-101365
X153576Y-97174
X153830Y-78124
X154592Y-100095
X154634Y-97174
X154719Y-103651
X154762Y-92710
X154813Y-93726
X154838Y-83769
X154846Y-87141
X154846Y-88157
X154846Y-89173
X154864Y-94996
X155227Y-76092
X155227Y-78505
X155633Y-80029
X155693Y-97174
X155735Y-92602
X155735Y-100095
X156075Y-85875
X156116Y-103270
X156751Y-97174
X156751Y-100095
X156769Y-94869
X156819Y-92338
X156878Y-81045
X156878Y-82188
X157005Y-89935
X157259Y-94507
X157259Y-102254
X157328Y-85115
X157809Y-97174
X157894Y-100095
X158039Y-92100
X158471Y-94894
X158529Y-102254
X158675Y-80925
X158699Y-84328
X158743Y-79721
X158783Y-86760
X158783Y-88030
X158868Y-97174
X159037Y-100095
X159258Y-94742
X159479Y-93938
X159545Y-103143
X159926Y-97174
X159969Y-85141
X160275Y-80800
X160307Y-100095
X160579Y-96825
X160688Y-76346
X160706Y-83566
X160942Y-94888
X160942Y-103651
X161293Y-85671
X161323Y-99206
X161350Y-84700
X161350Y-92050
X161831Y-80537
X161831Y-81807
X161958Y-79394
X161958Y-100222
X161993Y-83021
X162000Y-91000
X162085Y-98444
X162212Y-76346
X162212Y-87776
X162293Y-94871
X162300Y-84400
X162343Y-86271
X162571Y-93271
X162593Y-103651
X163093Y-88875
X163228Y-101111
X163482Y-76346
X163482Y-78886
X164244Y-103651
X164498Y-101111
X164879Y-78886
X164879Y-79902
X164879Y-81045
X164879Y-83966
X164879Y-85109
X164879Y-86252
X164879Y-87649
X164879Y-92729
X164879Y-94126
X164879Y-95523
X165006Y-76346
X165006Y-99968
X165260Y-88792
X165260Y-90062
X165260Y-91332
X165768Y-103651
X166043Y-77071
X166268Y-92710
X166573Y-87351
X166657Y-102889
X167093Y-77771
X167673Y-102221
X167800Y-92729
X168054Y-87268
X168555Y-77771
X169057Y-102221
X169451Y-92729
X169641Y-87268
X170017Y-77771
X170441Y-102221
X171102Y-92729
X171229Y-87268
X171480Y-77771
X171825Y-102221
X172753Y-92729
X172817Y-87268
X172942Y-77771
X173209Y-102221
X174404Y-77771
X174404Y-87268
X174404Y-92729
X174593Y-102221
M30
