%TF.GenerationSoftware,KiCad,Pcbnew,9.0.1+1*%
%TF.CreationDate,2025-10-17T12:53:40+00:00*%
%TF.ProjectId,TFSIK01,54465349-4b30-4312-9e6b-696361645f70,rev?*%
%TF.SameCoordinates,Original*%
%TF.FileFunction,Legend,Bot*%
%TF.FilePolarity,Positive*%
%FSLAX46Y46*%
G04 Gerber Fmt 4.6, Leading zero omitted, Abs format (unit mm)*
G04 Created by KiCad (PCBNEW 9.0.1+1) date 2025-10-17 12:53:40*
%MOMM*%
%LPD*%
G01*
G04 APERTURE LIST*
%ADD10C,0.150000*%
%ADD11C,0.120000*%
%ADD12C,0.100000*%
%ADD13C,0.250000*%
%ADD14C,0.127000*%
%ADD15C,0.240000*%
G04 APERTURE END LIST*
D10*
X127658019Y-84262933D02*
X127181828Y-83929600D01*
X127658019Y-83691505D02*
X126658019Y-83691505D01*
X126658019Y-83691505D02*
X126658019Y-84072457D01*
X126658019Y-84072457D02*
X126705638Y-84167695D01*
X126705638Y-84167695D02*
X126753257Y-84215314D01*
X126753257Y-84215314D02*
X126848495Y-84262933D01*
X126848495Y-84262933D02*
X126991352Y-84262933D01*
X126991352Y-84262933D02*
X127086590Y-84215314D01*
X127086590Y-84215314D02*
X127134209Y-84167695D01*
X127134209Y-84167695D02*
X127181828Y-84072457D01*
X127181828Y-84072457D02*
X127181828Y-83691505D01*
X126658019Y-84596267D02*
X126658019Y-85262933D01*
X126658019Y-85262933D02*
X127658019Y-84834362D01*
X152251819Y-96418833D02*
X152251819Y-95942643D01*
X152251819Y-95942643D02*
X151251819Y-95942643D01*
X151251819Y-97228357D02*
X151251819Y-96752167D01*
X151251819Y-96752167D02*
X151728009Y-96704548D01*
X151728009Y-96704548D02*
X151680390Y-96752167D01*
X151680390Y-96752167D02*
X151632771Y-96847405D01*
X151632771Y-96847405D02*
X151632771Y-97085500D01*
X151632771Y-97085500D02*
X151680390Y-97180738D01*
X151680390Y-97180738D02*
X151728009Y-97228357D01*
X151728009Y-97228357D02*
X151823247Y-97275976D01*
X151823247Y-97275976D02*
X152061342Y-97275976D01*
X152061342Y-97275976D02*
X152156580Y-97228357D01*
X152156580Y-97228357D02*
X152204200Y-97180738D01*
X152204200Y-97180738D02*
X152251819Y-97085500D01*
X152251819Y-97085500D02*
X152251819Y-96847405D01*
X152251819Y-96847405D02*
X152204200Y-96752167D01*
X152204200Y-96752167D02*
X152156580Y-96704548D01*
X127124619Y-77036705D02*
X126124619Y-77036705D01*
X126124619Y-77036705D02*
X126124619Y-77274800D01*
X126124619Y-77274800D02*
X126172238Y-77417657D01*
X126172238Y-77417657D02*
X126267476Y-77512895D01*
X126267476Y-77512895D02*
X126362714Y-77560514D01*
X126362714Y-77560514D02*
X126553190Y-77608133D01*
X126553190Y-77608133D02*
X126696047Y-77608133D01*
X126696047Y-77608133D02*
X126886523Y-77560514D01*
X126886523Y-77560514D02*
X126981761Y-77512895D01*
X126981761Y-77512895D02*
X127077000Y-77417657D01*
X127077000Y-77417657D02*
X127124619Y-77274800D01*
X127124619Y-77274800D02*
X127124619Y-77036705D01*
X127124619Y-78560514D02*
X127124619Y-77989086D01*
X127124619Y-78274800D02*
X126124619Y-78274800D01*
X126124619Y-78274800D02*
X126267476Y-78179562D01*
X126267476Y-78179562D02*
X126362714Y-78084324D01*
X126362714Y-78084324D02*
X126410333Y-77989086D01*
X134138894Y-76578619D02*
X134138894Y-75578619D01*
X134138894Y-75578619D02*
X133900799Y-75578619D01*
X133900799Y-75578619D02*
X133757942Y-75626238D01*
X133757942Y-75626238D02*
X133662704Y-75721476D01*
X133662704Y-75721476D02*
X133615085Y-75816714D01*
X133615085Y-75816714D02*
X133567466Y-76007190D01*
X133567466Y-76007190D02*
X133567466Y-76150047D01*
X133567466Y-76150047D02*
X133615085Y-76340523D01*
X133615085Y-76340523D02*
X133662704Y-76435761D01*
X133662704Y-76435761D02*
X133757942Y-76531000D01*
X133757942Y-76531000D02*
X133900799Y-76578619D01*
X133900799Y-76578619D02*
X134138894Y-76578619D01*
X133186513Y-75673857D02*
X133138894Y-75626238D01*
X133138894Y-75626238D02*
X133043656Y-75578619D01*
X133043656Y-75578619D02*
X132805561Y-75578619D01*
X132805561Y-75578619D02*
X132710323Y-75626238D01*
X132710323Y-75626238D02*
X132662704Y-75673857D01*
X132662704Y-75673857D02*
X132615085Y-75769095D01*
X132615085Y-75769095D02*
X132615085Y-75864333D01*
X132615085Y-75864333D02*
X132662704Y-76007190D01*
X132662704Y-76007190D02*
X133234132Y-76578619D01*
X133234132Y-76578619D02*
X132615085Y-76578619D01*
X155093166Y-97502819D02*
X155569356Y-97502819D01*
X155569356Y-97502819D02*
X155569356Y-96502819D01*
X154855070Y-96502819D02*
X154236023Y-96502819D01*
X154236023Y-96502819D02*
X154569356Y-96883771D01*
X154569356Y-96883771D02*
X154426499Y-96883771D01*
X154426499Y-96883771D02*
X154331261Y-96931390D01*
X154331261Y-96931390D02*
X154283642Y-96979009D01*
X154283642Y-96979009D02*
X154236023Y-97074247D01*
X154236023Y-97074247D02*
X154236023Y-97312342D01*
X154236023Y-97312342D02*
X154283642Y-97407580D01*
X154283642Y-97407580D02*
X154331261Y-97455200D01*
X154331261Y-97455200D02*
X154426499Y-97502819D01*
X154426499Y-97502819D02*
X154712213Y-97502819D01*
X154712213Y-97502819D02*
X154807451Y-97455200D01*
X154807451Y-97455200D02*
X154855070Y-97407580D01*
X128527133Y-90285219D02*
X128527133Y-90999504D01*
X128527133Y-90999504D02*
X128574752Y-91142361D01*
X128574752Y-91142361D02*
X128669990Y-91237600D01*
X128669990Y-91237600D02*
X128812847Y-91285219D01*
X128812847Y-91285219D02*
X128908085Y-91285219D01*
X127527133Y-91285219D02*
X128098561Y-91285219D01*
X127812847Y-91285219D02*
X127812847Y-90285219D01*
X127812847Y-90285219D02*
X127908085Y-90428076D01*
X127908085Y-90428076D02*
X128003323Y-90523314D01*
X128003323Y-90523314D02*
X128098561Y-90570933D01*
X129258219Y-84237533D02*
X128782028Y-83904200D01*
X129258219Y-83666105D02*
X128258219Y-83666105D01*
X128258219Y-83666105D02*
X128258219Y-84047057D01*
X128258219Y-84047057D02*
X128305838Y-84142295D01*
X128305838Y-84142295D02*
X128353457Y-84189914D01*
X128353457Y-84189914D02*
X128448695Y-84237533D01*
X128448695Y-84237533D02*
X128591552Y-84237533D01*
X128591552Y-84237533D02*
X128686790Y-84189914D01*
X128686790Y-84189914D02*
X128734409Y-84142295D01*
X128734409Y-84142295D02*
X128782028Y-84047057D01*
X128782028Y-84047057D02*
X128782028Y-83666105D01*
X128258219Y-85094676D02*
X128258219Y-84904200D01*
X128258219Y-84904200D02*
X128305838Y-84808962D01*
X128305838Y-84808962D02*
X128353457Y-84761343D01*
X128353457Y-84761343D02*
X128496314Y-84666105D01*
X128496314Y-84666105D02*
X128686790Y-84618486D01*
X128686790Y-84618486D02*
X129067742Y-84618486D01*
X129067742Y-84618486D02*
X129162980Y-84666105D01*
X129162980Y-84666105D02*
X129210600Y-84713724D01*
X129210600Y-84713724D02*
X129258219Y-84808962D01*
X129258219Y-84808962D02*
X129258219Y-84999438D01*
X129258219Y-84999438D02*
X129210600Y-85094676D01*
X129210600Y-85094676D02*
X129162980Y-85142295D01*
X129162980Y-85142295D02*
X129067742Y-85189914D01*
X129067742Y-85189914D02*
X128829647Y-85189914D01*
X128829647Y-85189914D02*
X128734409Y-85142295D01*
X128734409Y-85142295D02*
X128686790Y-85094676D01*
X128686790Y-85094676D02*
X128639171Y-84999438D01*
X128639171Y-84999438D02*
X128639171Y-84808962D01*
X128639171Y-84808962D02*
X128686790Y-84713724D01*
X128686790Y-84713724D02*
X128734409Y-84666105D01*
X128734409Y-84666105D02*
X128829647Y-84618486D01*
X131225494Y-76572219D02*
X131225494Y-75572219D01*
X131225494Y-75572219D02*
X130987399Y-75572219D01*
X130987399Y-75572219D02*
X130844542Y-75619838D01*
X130844542Y-75619838D02*
X130749304Y-75715076D01*
X130749304Y-75715076D02*
X130701685Y-75810314D01*
X130701685Y-75810314D02*
X130654066Y-76000790D01*
X130654066Y-76000790D02*
X130654066Y-76143647D01*
X130654066Y-76143647D02*
X130701685Y-76334123D01*
X130701685Y-76334123D02*
X130749304Y-76429361D01*
X130749304Y-76429361D02*
X130844542Y-76524600D01*
X130844542Y-76524600D02*
X130987399Y-76572219D01*
X130987399Y-76572219D02*
X131225494Y-76572219D01*
X130320732Y-75572219D02*
X129701685Y-75572219D01*
X129701685Y-75572219D02*
X130035018Y-75953171D01*
X130035018Y-75953171D02*
X129892161Y-75953171D01*
X129892161Y-75953171D02*
X129796923Y-76000790D01*
X129796923Y-76000790D02*
X129749304Y-76048409D01*
X129749304Y-76048409D02*
X129701685Y-76143647D01*
X129701685Y-76143647D02*
X129701685Y-76381742D01*
X129701685Y-76381742D02*
X129749304Y-76476980D01*
X129749304Y-76476980D02*
X129796923Y-76524600D01*
X129796923Y-76524600D02*
X129892161Y-76572219D01*
X129892161Y-76572219D02*
X130177875Y-76572219D01*
X130177875Y-76572219D02*
X130273113Y-76524600D01*
X130273113Y-76524600D02*
X130320732Y-76476980D01*
X136843419Y-94767495D02*
X137652942Y-94767495D01*
X137652942Y-94767495D02*
X137748180Y-94815114D01*
X137748180Y-94815114D02*
X137795800Y-94862733D01*
X137795800Y-94862733D02*
X137843419Y-94957971D01*
X137843419Y-94957971D02*
X137843419Y-95148447D01*
X137843419Y-95148447D02*
X137795800Y-95243685D01*
X137795800Y-95243685D02*
X137748180Y-95291304D01*
X137748180Y-95291304D02*
X137652942Y-95338923D01*
X137652942Y-95338923D02*
X136843419Y-95338923D01*
X137843419Y-96338923D02*
X137843419Y-95767495D01*
X137843419Y-96053209D02*
X136843419Y-96053209D01*
X136843419Y-96053209D02*
X136986276Y-95957971D01*
X136986276Y-95957971D02*
X137081514Y-95862733D01*
X137081514Y-95862733D02*
X137129133Y-95767495D01*
X131865666Y-92656819D02*
X132198999Y-92180628D01*
X132437094Y-92656819D02*
X132437094Y-91656819D01*
X132437094Y-91656819D02*
X132056142Y-91656819D01*
X132056142Y-91656819D02*
X131960904Y-91704438D01*
X131960904Y-91704438D02*
X131913285Y-91752057D01*
X131913285Y-91752057D02*
X131865666Y-91847295D01*
X131865666Y-91847295D02*
X131865666Y-91990152D01*
X131865666Y-91990152D02*
X131913285Y-92085390D01*
X131913285Y-92085390D02*
X131960904Y-92133009D01*
X131960904Y-92133009D02*
X132056142Y-92180628D01*
X132056142Y-92180628D02*
X132437094Y-92180628D01*
X131389475Y-92656819D02*
X131198999Y-92656819D01*
X131198999Y-92656819D02*
X131103761Y-92609200D01*
X131103761Y-92609200D02*
X131056142Y-92561580D01*
X131056142Y-92561580D02*
X130960904Y-92418723D01*
X130960904Y-92418723D02*
X130913285Y-92228247D01*
X130913285Y-92228247D02*
X130913285Y-91847295D01*
X130913285Y-91847295D02*
X130960904Y-91752057D01*
X130960904Y-91752057D02*
X131008523Y-91704438D01*
X131008523Y-91704438D02*
X131103761Y-91656819D01*
X131103761Y-91656819D02*
X131294237Y-91656819D01*
X131294237Y-91656819D02*
X131389475Y-91704438D01*
X131389475Y-91704438D02*
X131437094Y-91752057D01*
X131437094Y-91752057D02*
X131484713Y-91847295D01*
X131484713Y-91847295D02*
X131484713Y-92085390D01*
X131484713Y-92085390D02*
X131437094Y-92180628D01*
X131437094Y-92180628D02*
X131389475Y-92228247D01*
X131389475Y-92228247D02*
X131294237Y-92275866D01*
X131294237Y-92275866D02*
X131103761Y-92275866D01*
X131103761Y-92275866D02*
X131008523Y-92228247D01*
X131008523Y-92228247D02*
X130960904Y-92180628D01*
X130960904Y-92180628D02*
X130913285Y-92085390D01*
X162286819Y-80736642D02*
X162286819Y-80260452D01*
X162286819Y-80260452D02*
X161286819Y-80260452D01*
X162286819Y-81593785D02*
X162286819Y-81022357D01*
X162286819Y-81308071D02*
X161286819Y-81308071D01*
X161286819Y-81308071D02*
X161429676Y-81212833D01*
X161429676Y-81212833D02*
X161524914Y-81117595D01*
X161524914Y-81117595D02*
X161572533Y-81022357D01*
X162286819Y-82546166D02*
X162286819Y-81974738D01*
X162286819Y-82260452D02*
X161286819Y-82260452D01*
X161286819Y-82260452D02*
X161429676Y-82165214D01*
X161429676Y-82165214D02*
X161524914Y-82069976D01*
X161524914Y-82069976D02*
X161572533Y-81974738D01*
X130833019Y-84218542D02*
X130356828Y-83885209D01*
X130833019Y-83647114D02*
X129833019Y-83647114D01*
X129833019Y-83647114D02*
X129833019Y-84028066D01*
X129833019Y-84028066D02*
X129880638Y-84123304D01*
X129880638Y-84123304D02*
X129928257Y-84170923D01*
X129928257Y-84170923D02*
X130023495Y-84218542D01*
X130023495Y-84218542D02*
X130166352Y-84218542D01*
X130166352Y-84218542D02*
X130261590Y-84170923D01*
X130261590Y-84170923D02*
X130309209Y-84123304D01*
X130309209Y-84123304D02*
X130356828Y-84028066D01*
X130356828Y-84028066D02*
X130356828Y-83647114D01*
X129928257Y-84599495D02*
X129880638Y-84647114D01*
X129880638Y-84647114D02*
X129833019Y-84742352D01*
X129833019Y-84742352D02*
X129833019Y-84980447D01*
X129833019Y-84980447D02*
X129880638Y-85075685D01*
X129880638Y-85075685D02*
X129928257Y-85123304D01*
X129928257Y-85123304D02*
X130023495Y-85170923D01*
X130023495Y-85170923D02*
X130118733Y-85170923D01*
X130118733Y-85170923D02*
X130261590Y-85123304D01*
X130261590Y-85123304D02*
X130833019Y-84551876D01*
X130833019Y-84551876D02*
X130833019Y-85170923D01*
X129833019Y-85504257D02*
X129833019Y-86123304D01*
X129833019Y-86123304D02*
X130213971Y-85789971D01*
X130213971Y-85789971D02*
X130213971Y-85932828D01*
X130213971Y-85932828D02*
X130261590Y-86028066D01*
X130261590Y-86028066D02*
X130309209Y-86075685D01*
X130309209Y-86075685D02*
X130404447Y-86123304D01*
X130404447Y-86123304D02*
X130642542Y-86123304D01*
X130642542Y-86123304D02*
X130737780Y-86075685D01*
X130737780Y-86075685D02*
X130785400Y-86028066D01*
X130785400Y-86028066D02*
X130833019Y-85932828D01*
X130833019Y-85932828D02*
X130833019Y-85647114D01*
X130833019Y-85647114D02*
X130785400Y-85551876D01*
X130785400Y-85551876D02*
X130737780Y-85504257D01*
X148968619Y-91959133D02*
X148492428Y-91625800D01*
X148968619Y-91387705D02*
X147968619Y-91387705D01*
X147968619Y-91387705D02*
X147968619Y-91768657D01*
X147968619Y-91768657D02*
X148016238Y-91863895D01*
X148016238Y-91863895D02*
X148063857Y-91911514D01*
X148063857Y-91911514D02*
X148159095Y-91959133D01*
X148159095Y-91959133D02*
X148301952Y-91959133D01*
X148301952Y-91959133D02*
X148397190Y-91911514D01*
X148397190Y-91911514D02*
X148444809Y-91863895D01*
X148444809Y-91863895D02*
X148492428Y-91768657D01*
X148492428Y-91768657D02*
X148492428Y-91387705D01*
X148397190Y-92530562D02*
X148349571Y-92435324D01*
X148349571Y-92435324D02*
X148301952Y-92387705D01*
X148301952Y-92387705D02*
X148206714Y-92340086D01*
X148206714Y-92340086D02*
X148159095Y-92340086D01*
X148159095Y-92340086D02*
X148063857Y-92387705D01*
X148063857Y-92387705D02*
X148016238Y-92435324D01*
X148016238Y-92435324D02*
X147968619Y-92530562D01*
X147968619Y-92530562D02*
X147968619Y-92721038D01*
X147968619Y-92721038D02*
X148016238Y-92816276D01*
X148016238Y-92816276D02*
X148063857Y-92863895D01*
X148063857Y-92863895D02*
X148159095Y-92911514D01*
X148159095Y-92911514D02*
X148206714Y-92911514D01*
X148206714Y-92911514D02*
X148301952Y-92863895D01*
X148301952Y-92863895D02*
X148349571Y-92816276D01*
X148349571Y-92816276D02*
X148397190Y-92721038D01*
X148397190Y-92721038D02*
X148397190Y-92530562D01*
X148397190Y-92530562D02*
X148444809Y-92435324D01*
X148444809Y-92435324D02*
X148492428Y-92387705D01*
X148492428Y-92387705D02*
X148587666Y-92340086D01*
X148587666Y-92340086D02*
X148778142Y-92340086D01*
X148778142Y-92340086D02*
X148873380Y-92387705D01*
X148873380Y-92387705D02*
X148921000Y-92435324D01*
X148921000Y-92435324D02*
X148968619Y-92530562D01*
X148968619Y-92530562D02*
X148968619Y-92721038D01*
X148968619Y-92721038D02*
X148921000Y-92816276D01*
X148921000Y-92816276D02*
X148873380Y-92863895D01*
X148873380Y-92863895D02*
X148778142Y-92911514D01*
X148778142Y-92911514D02*
X148587666Y-92911514D01*
X148587666Y-92911514D02*
X148492428Y-92863895D01*
X148492428Y-92863895D02*
X148444809Y-92816276D01*
X148444809Y-92816276D02*
X148397190Y-92721038D01*
X164347819Y-83637666D02*
X165062104Y-83637666D01*
X165062104Y-83637666D02*
X165204961Y-83590047D01*
X165204961Y-83590047D02*
X165300200Y-83494809D01*
X165300200Y-83494809D02*
X165347819Y-83351952D01*
X165347819Y-83351952D02*
X165347819Y-83256714D01*
X164347819Y-84018619D02*
X164347819Y-84637666D01*
X164347819Y-84637666D02*
X164728771Y-84304333D01*
X164728771Y-84304333D02*
X164728771Y-84447190D01*
X164728771Y-84447190D02*
X164776390Y-84542428D01*
X164776390Y-84542428D02*
X164824009Y-84590047D01*
X164824009Y-84590047D02*
X164919247Y-84637666D01*
X164919247Y-84637666D02*
X165157342Y-84637666D01*
X165157342Y-84637666D02*
X165252580Y-84590047D01*
X165252580Y-84590047D02*
X165300200Y-84542428D01*
X165300200Y-84542428D02*
X165347819Y-84447190D01*
X165347819Y-84447190D02*
X165347819Y-84161476D01*
X165347819Y-84161476D02*
X165300200Y-84066238D01*
X165300200Y-84066238D02*
X165252580Y-84018619D01*
X152354819Y-90733333D02*
X152354819Y-90257143D01*
X152354819Y-90257143D02*
X151354819Y-90257143D01*
X151354819Y-90971429D02*
X151354819Y-91638095D01*
X151354819Y-91638095D02*
X152354819Y-91209524D01*
X163997819Y-95287666D02*
X164712104Y-95287666D01*
X164712104Y-95287666D02*
X164854961Y-95240047D01*
X164854961Y-95240047D02*
X164950200Y-95144809D01*
X164950200Y-95144809D02*
X164997819Y-95001952D01*
X164997819Y-95001952D02*
X164997819Y-94906714D01*
X164331152Y-96192428D02*
X164997819Y-96192428D01*
X163950200Y-95954333D02*
X164664485Y-95716238D01*
X164664485Y-95716238D02*
X164664485Y-96335285D01*
X142569190Y-75823428D02*
X142569190Y-76299619D01*
X142902523Y-75299619D02*
X142569190Y-75823428D01*
X142569190Y-75823428D02*
X142235857Y-75299619D01*
X141950142Y-75394857D02*
X141902523Y-75347238D01*
X141902523Y-75347238D02*
X141807285Y-75299619D01*
X141807285Y-75299619D02*
X141569190Y-75299619D01*
X141569190Y-75299619D02*
X141473952Y-75347238D01*
X141473952Y-75347238D02*
X141426333Y-75394857D01*
X141426333Y-75394857D02*
X141378714Y-75490095D01*
X141378714Y-75490095D02*
X141378714Y-75585333D01*
X141378714Y-75585333D02*
X141426333Y-75728190D01*
X141426333Y-75728190D02*
X141997761Y-76299619D01*
X141997761Y-76299619D02*
X141378714Y-76299619D01*
D11*
%TO.C,C2*%
X152894420Y-79144400D02*
X153175580Y-79144400D01*
X152894420Y-80164400D02*
X153175580Y-80164400D01*
%TO.C,C32*%
X156724420Y-86631000D02*
X157005580Y-86631000D01*
X156724420Y-87651000D02*
X157005580Y-87651000D01*
%TO.C,L12*%
X162772000Y-98751752D02*
X162772000Y-98229248D01*
X164192000Y-98751752D02*
X164192000Y-98229248D01*
%TO.C,R7*%
X126627500Y-82112258D02*
X126627500Y-81637742D01*
X127672500Y-82112258D02*
X127672500Y-81637742D01*
%TO.C,U9*%
X159782000Y-95588000D02*
X159782000Y-94188000D01*
X162102000Y-95598000D02*
X162102000Y-94188000D01*
X162382000Y-96208000D02*
X162052000Y-95968000D01*
X162382000Y-95728000D01*
X162382000Y-96208000D01*
G36*
X162382000Y-96208000D02*
G01*
X162052000Y-95968000D01*
X162382000Y-95728000D01*
X162382000Y-96208000D01*
G37*
%TO.C,C34*%
X153193000Y-87762420D02*
X153193000Y-88043580D01*
X154213000Y-87762420D02*
X154213000Y-88043580D01*
%TO.C,C19*%
X142390000Y-90459420D02*
X142390000Y-90740580D01*
X143410000Y-90459420D02*
X143410000Y-90740580D01*
%TO.C,C1*%
X134228452Y-101315800D02*
X133705948Y-101315800D01*
X134228452Y-102785800D02*
X133705948Y-102785800D01*
%TO.C,L5*%
X149437000Y-96846752D02*
X149437000Y-96324248D01*
X150857000Y-96846752D02*
X150857000Y-96324248D01*
%TO.C,R22*%
X131717500Y-81696742D02*
X131717500Y-82171258D01*
X132762500Y-81696742D02*
X132762500Y-82171258D01*
%TO.C,R3*%
X134192258Y-94873500D02*
X133717742Y-94873500D01*
X134192258Y-95918500D02*
X133717742Y-95918500D01*
%TO.C,D1*%
X128183000Y-76976700D02*
X128303000Y-76976700D01*
X128183000Y-77176700D02*
X128183000Y-76976700D01*
X128303000Y-76976700D02*
X128303000Y-77176700D01*
X128303000Y-77176700D02*
X128183000Y-77176700D01*
%TO.C,D2*%
X131508000Y-80114200D02*
X131508000Y-77654200D01*
X132978000Y-77654200D02*
X132978000Y-80114200D01*
X132978000Y-80114200D02*
X131508000Y-80114200D01*
%TO.C,U2*%
X137131000Y-82720000D02*
X137131000Y-82545000D01*
X137131000Y-86990000D02*
X137131000Y-87465000D01*
X137131000Y-87465000D02*
X137606000Y-87465000D01*
X137606000Y-82245000D02*
X137371000Y-82245000D01*
X143351000Y-82245000D02*
X142876000Y-82245000D01*
X143351000Y-82720000D02*
X143351000Y-82245000D01*
X143351000Y-86990000D02*
X143351000Y-87465000D01*
X143351000Y-87465000D02*
X142876000Y-87465000D01*
X137131000Y-82245000D02*
X136801000Y-82485000D01*
X136801000Y-82005000D01*
X137131000Y-82245000D01*
G36*
X137131000Y-82245000D02*
G01*
X136801000Y-82485000D01*
X136801000Y-82005000D01*
X137131000Y-82245000D01*
G37*
%TO.C,C13*%
X146868400Y-81160180D02*
X146868400Y-80879020D01*
X147888400Y-81160180D02*
X147888400Y-80879020D01*
%TO.C,L16*%
X155060752Y-89860000D02*
X154538248Y-89860000D01*
X155060752Y-91280000D02*
X154538248Y-91280000D01*
%TO.C,C26*%
X162972000Y-86405580D02*
X162972000Y-86124420D01*
X163992000Y-86405580D02*
X163992000Y-86124420D01*
D10*
%TO.C,C21*%
X135900000Y-90450000D02*
X135900000Y-92150000D01*
X135900000Y-92150000D02*
X137550000Y-92150000D01*
X137550000Y-90450000D02*
X135900000Y-90450000D01*
X138550000Y-92150000D02*
X140200000Y-92150000D01*
X140200000Y-90450000D02*
X138550000Y-90450000D01*
X140200000Y-92150000D02*
X140200000Y-90450000D01*
D11*
%TO.C,R1*%
X134128258Y-98683500D02*
X133653742Y-98683500D01*
X134128258Y-99728500D02*
X133653742Y-99728500D01*
%TO.C,C11*%
X148924970Y-87148219D02*
X149123781Y-87347030D01*
X149646219Y-86426970D02*
X149845030Y-86625781D01*
%TO.C,L3*%
X155187752Y-97988000D02*
X154665248Y-97988000D01*
X155187752Y-99408000D02*
X154665248Y-99408000D01*
%TO.C,C18*%
X134246252Y-89282600D02*
X133723748Y-89282600D01*
X134246252Y-90752600D02*
X133723748Y-90752600D01*
%TO.C,C20*%
X145565000Y-90388748D02*
X145565000Y-90911252D01*
X147035000Y-90388748D02*
X147035000Y-90911252D01*
%TO.C,C15*%
X143990000Y-90459420D02*
X143990000Y-90740580D01*
X145010000Y-90459420D02*
X145010000Y-90740580D01*
%TO.C,L13*%
X157463400Y-92361252D02*
X157463400Y-91838748D01*
X158883400Y-92361252D02*
X158883400Y-91838748D01*
%TO.C,J1*%
X126124000Y-101636000D02*
X126124000Y-93206000D01*
X128944000Y-91936000D02*
X130394000Y-91936000D01*
X128944000Y-102906000D02*
X130394000Y-102906000D01*
X130394000Y-91936000D02*
X130394000Y-93736000D01*
X130394000Y-101106000D02*
X131384000Y-101106000D01*
X130394000Y-102906000D02*
X130394000Y-101106000D01*
%TO.C,R6*%
X128227500Y-81632742D02*
X128227500Y-82107258D01*
X129272500Y-81632742D02*
X129272500Y-82107258D01*
%TO.C,C33*%
X156724420Y-88282000D02*
X157005580Y-88282000D01*
X156724420Y-89302000D02*
X157005580Y-89302000D01*
%TO.C,D3*%
X129508000Y-80114200D02*
X129508000Y-77654200D01*
X130978000Y-77654200D02*
X130978000Y-80114200D01*
X130978000Y-80114200D02*
X129508000Y-80114200D01*
%TO.C,R2*%
X134192258Y-96778500D02*
X133717742Y-96778500D01*
X134192258Y-97823500D02*
X133717742Y-97823500D01*
%TO.C,L10*%
X144915800Y-82713748D02*
X144915800Y-83236252D01*
X146335800Y-82713748D02*
X146335800Y-83236252D01*
%TO.C,U1*%
X136704000Y-96642000D02*
X137964000Y-96642000D01*
X136704000Y-100402000D02*
X136704000Y-96642000D01*
X143524000Y-96642000D02*
X142264000Y-96642000D01*
X143524000Y-100402000D02*
X143524000Y-96642000D01*
X143754000Y-101922000D02*
X143424000Y-101682000D01*
X143754000Y-101442000D01*
X143754000Y-101922000D01*
G36*
X143754000Y-101922000D02*
G01*
X143424000Y-101682000D01*
X143754000Y-101442000D01*
X143754000Y-101922000D01*
G37*
D12*
%TO.C,U3*%
X152461000Y-92380000D02*
X152461000Y-94380000D01*
X154461000Y-94380000D02*
X154461000Y-92380000D01*
D13*
X154986000Y-94755000D02*
G75*
G02*
X154736000Y-94755000I-125000J0D01*
G01*
X154736000Y-94755000D02*
G75*
G02*
X154986000Y-94755000I125000J0D01*
G01*
D11*
%TO.C,C9*%
X149512580Y-93235000D02*
X149231420Y-93235000D01*
X149512580Y-94255000D02*
X149231420Y-94255000D01*
%TO.C,C14*%
X134018580Y-85869000D02*
X133737420Y-85869000D01*
X134018580Y-86889000D02*
X133737420Y-86889000D01*
%TO.C,C4*%
X158910580Y-98188000D02*
X158629420Y-98188000D01*
X158910580Y-99208000D02*
X158629420Y-99208000D01*
%TO.C,C7*%
X151542000Y-99332420D02*
X151542000Y-99613580D01*
X152562000Y-99332420D02*
X152562000Y-99613580D01*
%TO.C,C3*%
X144103400Y-94488852D02*
X144103400Y-93966348D01*
X145573400Y-94488852D02*
X145573400Y-93966348D01*
%TO.C,R9*%
X134196858Y-91552500D02*
X133722342Y-91552500D01*
X134196858Y-92597500D02*
X133722342Y-92597500D01*
%TO.C,C31*%
X157105420Y-95394000D02*
X157386580Y-95394000D01*
X157105420Y-96414000D02*
X157386580Y-96414000D01*
%TO.C,L11*%
X162772000Y-81118248D02*
X162772000Y-81640752D01*
X164192000Y-81118248D02*
X164192000Y-81640752D01*
%TO.C,R23*%
X129777500Y-81633742D02*
X129777500Y-82108258D01*
X130822500Y-81633742D02*
X130822500Y-82108258D01*
%TO.C,R8*%
X147565000Y-89877064D02*
X147565000Y-89422936D01*
X149035000Y-89877064D02*
X149035000Y-89422936D01*
%TO.C,R20*%
X134384500Y-83505258D02*
X134384500Y-83030742D01*
X135429500Y-83505258D02*
X135429500Y-83030742D01*
%TO.C,C17*%
X140790000Y-90684420D02*
X140790000Y-90965580D01*
X141810000Y-90684420D02*
X141810000Y-90965580D01*
%TO.C,C27*%
X162972000Y-93109420D02*
X162972000Y-93390580D01*
X163992000Y-93109420D02*
X163992000Y-93390580D01*
%TO.C,J3*%
X165243000Y-81871000D02*
X165243000Y-82971000D01*
X165643000Y-86046000D02*
X165643000Y-78796000D01*
X175443000Y-78796000D02*
X165643000Y-78796000D01*
X175443000Y-86046000D02*
X165643000Y-86046000D01*
%TO.C,L7*%
X149540000Y-91161252D02*
X149540000Y-90638748D01*
X150960000Y-91161252D02*
X150960000Y-90638748D01*
%TO.C,C16*%
X134018580Y-87647000D02*
X133737420Y-87647000D01*
X134018580Y-88667000D02*
X133737420Y-88667000D01*
%TO.C,C28*%
X159416000Y-88602380D02*
X159416000Y-88321220D01*
X160436000Y-88602380D02*
X160436000Y-88321220D01*
%TO.C,U7*%
X163613000Y-90983000D02*
X162213000Y-90983000D01*
X163623000Y-88663000D02*
X162213000Y-88663000D01*
X163993000Y-88713000D02*
X163753000Y-88383000D01*
X164233000Y-88383000D01*
X163993000Y-88713000D01*
G36*
X163993000Y-88713000D02*
G01*
X163753000Y-88383000D01*
X164233000Y-88383000D01*
X163993000Y-88713000D01*
G37*
D14*
%TO.C,FL1*%
X151803000Y-81557000D02*
X151803000Y-85357000D01*
X155603000Y-85357000D02*
X155603000Y-81557000D01*
D15*
X155899000Y-85741000D02*
G75*
G02*
X155659000Y-85741000I-120000J0D01*
G01*
X155659000Y-85741000D02*
G75*
G02*
X155899000Y-85741000I120000J0D01*
G01*
D11*
%TO.C,R4*%
X134192258Y-93095500D02*
X133717742Y-93095500D01*
X134192258Y-94140500D02*
X133717742Y-94140500D01*
%TO.C,J4*%
X165243000Y-96871000D02*
X165243000Y-97971000D01*
X165643000Y-101046000D02*
X165643000Y-93796000D01*
X175443000Y-93796000D02*
X165643000Y-93796000D01*
X175443000Y-101046000D02*
X165643000Y-101046000D01*
%TO.C,Y2*%
X139741600Y-78215800D02*
X139741600Y-78895800D01*
X141661600Y-80415800D02*
X143341600Y-80415800D01*
X143341600Y-76695800D02*
X141661600Y-76695800D01*
X143341600Y-80415800D02*
X143341600Y-80915800D01*
X145261600Y-78895800D02*
X145261600Y-78215800D01*
X145661600Y-78895800D02*
X145261600Y-78895800D01*
%TO.C,C12*%
X148736420Y-83329000D02*
X149017580Y-83329000D01*
X148736420Y-84349000D02*
X149017580Y-84349000D01*
%TO.C,C5*%
X144103400Y-97735748D02*
X144103400Y-98258252D01*
X145573400Y-97735748D02*
X145573400Y-98258252D01*
%TO.C,L8*%
X145590000Y-87286252D02*
X145590000Y-86763748D01*
X147010000Y-87286252D02*
X147010000Y-86763748D01*
%TO.C,L9*%
X149829687Y-80104221D02*
X149460221Y-80473687D01*
X150833779Y-81108313D02*
X150464313Y-81477779D01*
%TO.C,C29*%
X159517600Y-91940580D02*
X159517600Y-91659420D01*
X160537600Y-91940580D02*
X160537600Y-91659420D01*
%TO.C,R5*%
X155212500Y-93063742D02*
X155212500Y-93538258D01*
X156257500Y-93063742D02*
X156257500Y-93538258D01*
%TD*%
M02*
