%TF.GenerationSoftware,KiCad,Pcbnew,7.0.7-7.0.7~ubuntu23.04.1*%
%TF.CreationDate,2023-09-23T22:01:58+00:00*%
%TF.ProjectId,TFSIK01,54465349-4b30-4312-9e6b-696361645f70,REV*%
%TF.SameCoordinates,Original*%
%TF.FileFunction,Legend,Bot*%
%TF.FilePolarity,Positive*%
%FSLAX46Y46*%
G04 Gerber Fmt 4.6, Leading zero omitted, Abs format (unit mm)*
G04 Created by KiCad (PCBNEW 7.0.7-7.0.7~ubuntu23.04.1) date 2023-09-23 22:01:58*
%MOMM*%
%LPD*%
G01*
G04 APERTURE LIST*
%ADD10C,0.150000*%
%ADD11C,0.120000*%
%ADD12C,0.100000*%
%ADD13C,0.250000*%
%ADD14C,0.127000*%
%ADD15C,0.240000*%
G04 APERTURE END LIST*
D10*
X152251819Y-96418833D02*
X152251819Y-95942643D01*
X152251819Y-95942643D02*
X151251819Y-95942643D01*
X151251819Y-97228357D02*
X151251819Y-96752167D01*
X151251819Y-96752167D02*
X151728009Y-96704548D01*
X151728009Y-96704548D02*
X151680390Y-96752167D01*
X151680390Y-96752167D02*
X151632771Y-96847405D01*
X151632771Y-96847405D02*
X151632771Y-97085500D01*
X151632771Y-97085500D02*
X151680390Y-97180738D01*
X151680390Y-97180738D02*
X151728009Y-97228357D01*
X151728009Y-97228357D02*
X151823247Y-97275976D01*
X151823247Y-97275976D02*
X152061342Y-97275976D01*
X152061342Y-97275976D02*
X152156580Y-97228357D01*
X152156580Y-97228357D02*
X152204200Y-97180738D01*
X152204200Y-97180738D02*
X152251819Y-97085500D01*
X152251819Y-97085500D02*
X152251819Y-96847405D01*
X152251819Y-96847405D02*
X152204200Y-96752167D01*
X152204200Y-96752167D02*
X152156580Y-96704548D01*
X127030619Y-76700105D02*
X126030619Y-76700105D01*
X126030619Y-76700105D02*
X126030619Y-76938200D01*
X126030619Y-76938200D02*
X126078238Y-77081057D01*
X126078238Y-77081057D02*
X126173476Y-77176295D01*
X126173476Y-77176295D02*
X126268714Y-77223914D01*
X126268714Y-77223914D02*
X126459190Y-77271533D01*
X126459190Y-77271533D02*
X126602047Y-77271533D01*
X126602047Y-77271533D02*
X126792523Y-77223914D01*
X126792523Y-77223914D02*
X126887761Y-77176295D01*
X126887761Y-77176295D02*
X126983000Y-77081057D01*
X126983000Y-77081057D02*
X127030619Y-76938200D01*
X127030619Y-76938200D02*
X127030619Y-76700105D01*
X127030619Y-78223914D02*
X127030619Y-77652486D01*
X127030619Y-77938200D02*
X126030619Y-77938200D01*
X126030619Y-77938200D02*
X126173476Y-77842962D01*
X126173476Y-77842962D02*
X126268714Y-77747724D01*
X126268714Y-77747724D02*
X126316333Y-77652486D01*
X134138894Y-76578619D02*
X134138894Y-75578619D01*
X134138894Y-75578619D02*
X133900799Y-75578619D01*
X133900799Y-75578619D02*
X133757942Y-75626238D01*
X133757942Y-75626238D02*
X133662704Y-75721476D01*
X133662704Y-75721476D02*
X133615085Y-75816714D01*
X133615085Y-75816714D02*
X133567466Y-76007190D01*
X133567466Y-76007190D02*
X133567466Y-76150047D01*
X133567466Y-76150047D02*
X133615085Y-76340523D01*
X133615085Y-76340523D02*
X133662704Y-76435761D01*
X133662704Y-76435761D02*
X133757942Y-76531000D01*
X133757942Y-76531000D02*
X133900799Y-76578619D01*
X133900799Y-76578619D02*
X134138894Y-76578619D01*
X133186513Y-75673857D02*
X133138894Y-75626238D01*
X133138894Y-75626238D02*
X133043656Y-75578619D01*
X133043656Y-75578619D02*
X132805561Y-75578619D01*
X132805561Y-75578619D02*
X132710323Y-75626238D01*
X132710323Y-75626238D02*
X132662704Y-75673857D01*
X132662704Y-75673857D02*
X132615085Y-75769095D01*
X132615085Y-75769095D02*
X132615085Y-75864333D01*
X132615085Y-75864333D02*
X132662704Y-76007190D01*
X132662704Y-76007190D02*
X133234132Y-76578619D01*
X133234132Y-76578619D02*
X132615085Y-76578619D01*
X155093166Y-97502819D02*
X155569356Y-97502819D01*
X155569356Y-97502819D02*
X155569356Y-96502819D01*
X154855070Y-96502819D02*
X154236023Y-96502819D01*
X154236023Y-96502819D02*
X154569356Y-96883771D01*
X154569356Y-96883771D02*
X154426499Y-96883771D01*
X154426499Y-96883771D02*
X154331261Y-96931390D01*
X154331261Y-96931390D02*
X154283642Y-96979009D01*
X154283642Y-96979009D02*
X154236023Y-97074247D01*
X154236023Y-97074247D02*
X154236023Y-97312342D01*
X154236023Y-97312342D02*
X154283642Y-97407580D01*
X154283642Y-97407580D02*
X154331261Y-97455200D01*
X154331261Y-97455200D02*
X154426499Y-97502819D01*
X154426499Y-97502819D02*
X154712213Y-97502819D01*
X154712213Y-97502819D02*
X154807451Y-97455200D01*
X154807451Y-97455200D02*
X154855070Y-97407580D01*
X132083333Y-91454819D02*
X132083333Y-92169104D01*
X132083333Y-92169104D02*
X132130952Y-92311961D01*
X132130952Y-92311961D02*
X132226190Y-92407200D01*
X132226190Y-92407200D02*
X132369047Y-92454819D01*
X132369047Y-92454819D02*
X132464285Y-92454819D01*
X131083333Y-92454819D02*
X131654761Y-92454819D01*
X131369047Y-92454819D02*
X131369047Y-91454819D01*
X131369047Y-91454819D02*
X131464285Y-91597676D01*
X131464285Y-91597676D02*
X131559523Y-91692914D01*
X131559523Y-91692914D02*
X131654761Y-91740533D01*
X127277019Y-81703333D02*
X126800828Y-81370000D01*
X127277019Y-81131905D02*
X126277019Y-81131905D01*
X126277019Y-81131905D02*
X126277019Y-81512857D01*
X126277019Y-81512857D02*
X126324638Y-81608095D01*
X126324638Y-81608095D02*
X126372257Y-81655714D01*
X126372257Y-81655714D02*
X126467495Y-81703333D01*
X126467495Y-81703333D02*
X126610352Y-81703333D01*
X126610352Y-81703333D02*
X126705590Y-81655714D01*
X126705590Y-81655714D02*
X126753209Y-81608095D01*
X126753209Y-81608095D02*
X126800828Y-81512857D01*
X126800828Y-81512857D02*
X126800828Y-81131905D01*
X126277019Y-82560476D02*
X126277019Y-82370000D01*
X126277019Y-82370000D02*
X126324638Y-82274762D01*
X126324638Y-82274762D02*
X126372257Y-82227143D01*
X126372257Y-82227143D02*
X126515114Y-82131905D01*
X126515114Y-82131905D02*
X126705590Y-82084286D01*
X126705590Y-82084286D02*
X127086542Y-82084286D01*
X127086542Y-82084286D02*
X127181780Y-82131905D01*
X127181780Y-82131905D02*
X127229400Y-82179524D01*
X127229400Y-82179524D02*
X127277019Y-82274762D01*
X127277019Y-82274762D02*
X127277019Y-82465238D01*
X127277019Y-82465238D02*
X127229400Y-82560476D01*
X127229400Y-82560476D02*
X127181780Y-82608095D01*
X127181780Y-82608095D02*
X127086542Y-82655714D01*
X127086542Y-82655714D02*
X126848447Y-82655714D01*
X126848447Y-82655714D02*
X126753209Y-82608095D01*
X126753209Y-82608095D02*
X126705590Y-82560476D01*
X126705590Y-82560476D02*
X126657971Y-82465238D01*
X126657971Y-82465238D02*
X126657971Y-82274762D01*
X126657971Y-82274762D02*
X126705590Y-82179524D01*
X126705590Y-82179524D02*
X126753209Y-82131905D01*
X126753209Y-82131905D02*
X126848447Y-82084286D01*
X131225494Y-76572219D02*
X131225494Y-75572219D01*
X131225494Y-75572219D02*
X130987399Y-75572219D01*
X130987399Y-75572219D02*
X130844542Y-75619838D01*
X130844542Y-75619838D02*
X130749304Y-75715076D01*
X130749304Y-75715076D02*
X130701685Y-75810314D01*
X130701685Y-75810314D02*
X130654066Y-76000790D01*
X130654066Y-76000790D02*
X130654066Y-76143647D01*
X130654066Y-76143647D02*
X130701685Y-76334123D01*
X130701685Y-76334123D02*
X130749304Y-76429361D01*
X130749304Y-76429361D02*
X130844542Y-76524600D01*
X130844542Y-76524600D02*
X130987399Y-76572219D01*
X130987399Y-76572219D02*
X131225494Y-76572219D01*
X130320732Y-75572219D02*
X129701685Y-75572219D01*
X129701685Y-75572219D02*
X130035018Y-75953171D01*
X130035018Y-75953171D02*
X129892161Y-75953171D01*
X129892161Y-75953171D02*
X129796923Y-76000790D01*
X129796923Y-76000790D02*
X129749304Y-76048409D01*
X129749304Y-76048409D02*
X129701685Y-76143647D01*
X129701685Y-76143647D02*
X129701685Y-76381742D01*
X129701685Y-76381742D02*
X129749304Y-76476980D01*
X129749304Y-76476980D02*
X129796923Y-76524600D01*
X129796923Y-76524600D02*
X129892161Y-76572219D01*
X129892161Y-76572219D02*
X130177875Y-76572219D01*
X130177875Y-76572219D02*
X130273113Y-76524600D01*
X130273113Y-76524600D02*
X130320732Y-76476980D01*
X144002726Y-101203380D02*
X145030821Y-101203380D01*
X145030821Y-101203380D02*
X145151773Y-101263857D01*
X145151773Y-101263857D02*
X145212250Y-101324333D01*
X145212250Y-101324333D02*
X145272726Y-101445285D01*
X145272726Y-101445285D02*
X145272726Y-101687190D01*
X145272726Y-101687190D02*
X145212250Y-101808142D01*
X145212250Y-101808142D02*
X145151773Y-101868619D01*
X145151773Y-101868619D02*
X145030821Y-101929095D01*
X145030821Y-101929095D02*
X144002726Y-101929095D01*
X145272726Y-103199095D02*
X145272726Y-102473380D01*
X145272726Y-102836237D02*
X144002726Y-102836237D01*
X144002726Y-102836237D02*
X144184154Y-102715285D01*
X144184154Y-102715285D02*
X144305107Y-102594333D01*
X144305107Y-102594333D02*
X144365583Y-102473380D01*
X162286819Y-80736642D02*
X162286819Y-80260452D01*
X162286819Y-80260452D02*
X161286819Y-80260452D01*
X162286819Y-81593785D02*
X162286819Y-81022357D01*
X162286819Y-81308071D02*
X161286819Y-81308071D01*
X161286819Y-81308071D02*
X161429676Y-81212833D01*
X161429676Y-81212833D02*
X161524914Y-81117595D01*
X161524914Y-81117595D02*
X161572533Y-81022357D01*
X162286819Y-82546166D02*
X162286819Y-81974738D01*
X162286819Y-82260452D02*
X161286819Y-82260452D01*
X161286819Y-82260452D02*
X161429676Y-82165214D01*
X161429676Y-82165214D02*
X161524914Y-82069976D01*
X161524914Y-82069976D02*
X161572533Y-81974738D01*
X164347819Y-83637666D02*
X165062104Y-83637666D01*
X165062104Y-83637666D02*
X165204961Y-83590047D01*
X165204961Y-83590047D02*
X165300200Y-83494809D01*
X165300200Y-83494809D02*
X165347819Y-83351952D01*
X165347819Y-83351952D02*
X165347819Y-83256714D01*
X164347819Y-84018619D02*
X164347819Y-84637666D01*
X164347819Y-84637666D02*
X164728771Y-84304333D01*
X164728771Y-84304333D02*
X164728771Y-84447190D01*
X164728771Y-84447190D02*
X164776390Y-84542428D01*
X164776390Y-84542428D02*
X164824009Y-84590047D01*
X164824009Y-84590047D02*
X164919247Y-84637666D01*
X164919247Y-84637666D02*
X165157342Y-84637666D01*
X165157342Y-84637666D02*
X165252580Y-84590047D01*
X165252580Y-84590047D02*
X165300200Y-84542428D01*
X165300200Y-84542428D02*
X165347819Y-84447190D01*
X165347819Y-84447190D02*
X165347819Y-84161476D01*
X165347819Y-84161476D02*
X165300200Y-84066238D01*
X165300200Y-84066238D02*
X165252580Y-84018619D01*
X152251819Y-90703833D02*
X152251819Y-90227643D01*
X152251819Y-90227643D02*
X151251819Y-90227643D01*
X151251819Y-90941929D02*
X151251819Y-91608595D01*
X151251819Y-91608595D02*
X152251819Y-91180024D01*
X163997819Y-95287666D02*
X164712104Y-95287666D01*
X164712104Y-95287666D02*
X164854961Y-95240047D01*
X164854961Y-95240047D02*
X164950200Y-95144809D01*
X164950200Y-95144809D02*
X164997819Y-95001952D01*
X164997819Y-95001952D02*
X164997819Y-94906714D01*
X164331152Y-96192428D02*
X164997819Y-96192428D01*
X163950200Y-95954333D02*
X164664485Y-95716238D01*
X164664485Y-95716238D02*
X164664485Y-96335285D01*
X142569190Y-75823428D02*
X142569190Y-76299619D01*
X142902523Y-75299619D02*
X142569190Y-75823428D01*
X142569190Y-75823428D02*
X142235857Y-75299619D01*
X141950142Y-75394857D02*
X141902523Y-75347238D01*
X141902523Y-75347238D02*
X141807285Y-75299619D01*
X141807285Y-75299619D02*
X141569190Y-75299619D01*
X141569190Y-75299619D02*
X141473952Y-75347238D01*
X141473952Y-75347238D02*
X141426333Y-75394857D01*
X141426333Y-75394857D02*
X141378714Y-75490095D01*
X141378714Y-75490095D02*
X141378714Y-75585333D01*
X141378714Y-75585333D02*
X141426333Y-75728190D01*
X141426333Y-75728190D02*
X141997761Y-76299619D01*
X141997761Y-76299619D02*
X141378714Y-76299619D01*
D11*
%TO.C,C2*%
X153613220Y-79138000D02*
X153894380Y-79138000D01*
X153613220Y-80158000D02*
X153894380Y-80158000D01*
%TO.C,C32*%
X156724420Y-86631000D02*
X157005580Y-86631000D01*
X156724420Y-87651000D02*
X157005580Y-87651000D01*
%TO.C,L12*%
X162772000Y-98751752D02*
X162772000Y-98229248D01*
X164192000Y-98751752D02*
X164192000Y-98229248D01*
%TO.C,U9*%
X159782000Y-95588000D02*
X159782000Y-94188000D01*
X162102000Y-94188000D02*
X162102000Y-96088000D01*
%TO.C,C34*%
X154213000Y-87762420D02*
X154213000Y-88043580D01*
X153193000Y-87762420D02*
X153193000Y-88043580D01*
%TO.C,C19*%
X144053000Y-90429420D02*
X144053000Y-90710580D01*
X143033000Y-90429420D02*
X143033000Y-90710580D01*
%TO.C,C1*%
X134228452Y-102785800D02*
X133705948Y-102785800D01*
X134228452Y-101315800D02*
X133705948Y-101315800D01*
%TO.C,L5*%
X149437000Y-96846752D02*
X149437000Y-96324248D01*
X150857000Y-96846752D02*
X150857000Y-96324248D01*
%TO.C,D1*%
X127508000Y-80114200D02*
X127508000Y-77654200D01*
X128978000Y-80114200D02*
X127508000Y-80114200D01*
X128978000Y-77654200D02*
X128978000Y-80114200D01*
%TO.C,R22*%
X132762500Y-81696742D02*
X132762500Y-82171258D01*
X131717500Y-81696742D02*
X131717500Y-82171258D01*
%TO.C,R3*%
X134192258Y-95918500D02*
X133717742Y-95918500D01*
X134192258Y-94873500D02*
X133717742Y-94873500D01*
%TO.C,D2*%
X131508000Y-80114200D02*
X131508000Y-77654200D01*
X132978000Y-80114200D02*
X131508000Y-80114200D01*
X132978000Y-77654200D02*
X132978000Y-80114200D01*
%TO.C,U2*%
X143351000Y-82245000D02*
X142876000Y-82245000D01*
X143351000Y-82720000D02*
X143351000Y-82245000D01*
X137131000Y-82720000D02*
X137131000Y-82245000D01*
X143351000Y-86990000D02*
X143351000Y-87465000D01*
X137131000Y-86990000D02*
X137131000Y-87465000D01*
X143351000Y-87465000D02*
X142876000Y-87465000D01*
X137131000Y-87465000D02*
X137606000Y-87465000D01*
%TO.C,C13*%
X146868400Y-81160180D02*
X146868400Y-80879020D01*
X147888400Y-81160180D02*
X147888400Y-80879020D01*
%TO.C,L16*%
X155060752Y-91280000D02*
X154538248Y-91280000D01*
X155060752Y-89860000D02*
X154538248Y-89860000D01*
%TO.C,C26*%
X162972000Y-86405580D02*
X162972000Y-86124420D01*
X163992000Y-86405580D02*
X163992000Y-86124420D01*
D10*
%TO.C,C21*%
X140533000Y-92309000D02*
X140533000Y-90609000D01*
X140533000Y-90609000D02*
X138883000Y-90609000D01*
X138883000Y-92309000D02*
X140533000Y-92309000D01*
X137883000Y-90609000D02*
X136233000Y-90609000D01*
X136233000Y-92309000D02*
X137883000Y-92309000D01*
X136233000Y-90609000D02*
X136233000Y-92309000D01*
D11*
%TO.C,R1*%
X134128258Y-99728500D02*
X133653742Y-99728500D01*
X134128258Y-98683500D02*
X133653742Y-98683500D01*
%TO.C,C11*%
X149646219Y-86426970D02*
X149845030Y-86625781D01*
X148924970Y-87148219D02*
X149123781Y-87347030D01*
%TO.C,L3*%
X155187752Y-99408000D02*
X154665248Y-99408000D01*
X155187752Y-97988000D02*
X154665248Y-97988000D01*
%TO.C,C18*%
X134472252Y-91178000D02*
X133949748Y-91178000D01*
X134472252Y-89708000D02*
X133949748Y-89708000D01*
%TO.C,C20*%
X147961000Y-90496748D02*
X147961000Y-91019252D01*
X146491000Y-90496748D02*
X146491000Y-91019252D01*
%TO.C,C15*%
X145831000Y-90416420D02*
X145831000Y-90697580D01*
X144811000Y-90416420D02*
X144811000Y-90697580D01*
%TO.C,L13*%
X157463400Y-92025052D02*
X157463400Y-91502548D01*
X158883400Y-92025052D02*
X158883400Y-91502548D01*
%TO.C,J1*%
X128944000Y-102906000D02*
X130394000Y-102906000D01*
X130394000Y-102906000D02*
X130394000Y-101106000D01*
X126124000Y-101636000D02*
X126124000Y-93206000D01*
X130394000Y-101106000D02*
X131384000Y-101106000D01*
X128944000Y-91936000D02*
X130394000Y-91936000D01*
X130394000Y-91936000D02*
X130394000Y-93736000D01*
%TO.C,R6*%
X128774700Y-81632742D02*
X128774700Y-82107258D01*
X127729700Y-81632742D02*
X127729700Y-82107258D01*
%TO.C,C33*%
X156724420Y-88282000D02*
X157005580Y-88282000D01*
X156724420Y-89302000D02*
X157005580Y-89302000D01*
%TO.C,D3*%
X129508000Y-80114200D02*
X129508000Y-77654200D01*
X130978000Y-80114200D02*
X129508000Y-80114200D01*
X130978000Y-77654200D02*
X130978000Y-80114200D01*
%TO.C,R2*%
X134192258Y-97823500D02*
X133717742Y-97823500D01*
X134192258Y-96778500D02*
X133717742Y-96778500D01*
%TO.C,L10*%
X146335800Y-82866548D02*
X146335800Y-83389052D01*
X144915800Y-82866548D02*
X144915800Y-83389052D01*
D10*
%TO.C,U1*%
X143670000Y-102889000D02*
X136558000Y-102889000D01*
X143670000Y-99841000D02*
X143670000Y-102889000D01*
X143670000Y-96793000D02*
X143670000Y-96031000D01*
X143670000Y-96031000D02*
X142146000Y-93745000D01*
X142120600Y-93770400D02*
X138056600Y-93770400D01*
X138082000Y-93745000D02*
X136558000Y-96031000D01*
X136558000Y-102889000D02*
X136558000Y-99841000D01*
X136558000Y-96031000D02*
X136558000Y-96793000D01*
D12*
%TO.C,U3*%
X154461000Y-94380000D02*
X154461000Y-92380000D01*
X152461000Y-92380000D02*
X152461000Y-94380000D01*
D13*
X154986000Y-94755000D02*
G75*
G03*
X154986000Y-94755000I-125000J0D01*
G01*
D11*
%TO.C,C9*%
X149512580Y-94255000D02*
X149231420Y-94255000D01*
X149512580Y-93235000D02*
X149231420Y-93235000D01*
%TO.C,C14*%
X134018580Y-86889000D02*
X133737420Y-86889000D01*
X134018580Y-85869000D02*
X133737420Y-85869000D01*
%TO.C,C4*%
X158910580Y-99208000D02*
X158629420Y-99208000D01*
X158910580Y-98188000D02*
X158629420Y-98188000D01*
%TO.C,C7*%
X152562000Y-99332420D02*
X152562000Y-99613580D01*
X151542000Y-99332420D02*
X151542000Y-99613580D01*
%TO.C,C3*%
X144103400Y-94488852D02*
X144103400Y-93966348D01*
X145573400Y-94488852D02*
X145573400Y-93966348D01*
%TO.C,C31*%
X157105420Y-95394000D02*
X157386580Y-95394000D01*
X157105420Y-96414000D02*
X157386580Y-96414000D01*
%TO.C,L11*%
X164192000Y-81118248D02*
X164192000Y-81640752D01*
X162772000Y-81118248D02*
X162772000Y-81640752D01*
%TO.C,R23*%
X130730500Y-81633742D02*
X130730500Y-82108258D01*
X129685500Y-81633742D02*
X129685500Y-82108258D01*
%TO.C,R20*%
X134384500Y-83505258D02*
X134384500Y-83030742D01*
X135429500Y-83505258D02*
X135429500Y-83030742D01*
%TO.C,C17*%
X142148000Y-90683420D02*
X142148000Y-90964580D01*
X141128000Y-90683420D02*
X141128000Y-90964580D01*
%TO.C,C27*%
X163992000Y-93109420D02*
X163992000Y-93390580D01*
X162972000Y-93109420D02*
X162972000Y-93390580D01*
%TO.C,J3*%
X175443000Y-86046000D02*
X165643000Y-86046000D01*
X175443000Y-78796000D02*
X165643000Y-78796000D01*
X165643000Y-86046000D02*
X165643000Y-78796000D01*
X165243000Y-81871000D02*
X165243000Y-82971000D01*
%TO.C,L7*%
X149437000Y-91131752D02*
X149437000Y-90609248D01*
X150857000Y-91131752D02*
X150857000Y-90609248D01*
%TO.C,C16*%
X134018580Y-88667000D02*
X133737420Y-88667000D01*
X134018580Y-87647000D02*
X133737420Y-87647000D01*
%TO.C,C28*%
X159416000Y-88602380D02*
X159416000Y-88321220D01*
X160436000Y-88602380D02*
X160436000Y-88321220D01*
%TO.C,U7*%
X163613000Y-90983000D02*
X162213000Y-90983000D01*
X162213000Y-88663000D02*
X164113000Y-88663000D01*
D14*
%TO.C,FL1*%
X155603000Y-85357000D02*
X155603000Y-81557000D01*
X151803000Y-81557000D02*
X151803000Y-85357000D01*
D15*
X155899000Y-85741000D02*
G75*
G03*
X155899000Y-85741000I-120000J0D01*
G01*
D11*
%TO.C,R4*%
X134192258Y-94140500D02*
X133717742Y-94140500D01*
X134192258Y-93095500D02*
X133717742Y-93095500D01*
%TO.C,J4*%
X175443000Y-101046000D02*
X165643000Y-101046000D01*
X175443000Y-93796000D02*
X165643000Y-93796000D01*
X165643000Y-101046000D02*
X165643000Y-93796000D01*
X165243000Y-96871000D02*
X165243000Y-97971000D01*
%TO.C,Y2*%
X145601600Y-78955800D02*
X145201600Y-78955800D01*
X145201600Y-78955800D02*
X145201600Y-78155800D01*
X143401600Y-80355800D02*
X143401600Y-80595800D01*
X143401600Y-76755800D02*
X141601600Y-76755800D01*
X141601600Y-80355800D02*
X143401600Y-80355800D01*
X139801600Y-78155800D02*
X139801600Y-78955800D01*
%TO.C,C12*%
X148736420Y-83329000D02*
X149017580Y-83329000D01*
X148736420Y-84349000D02*
X149017580Y-84349000D01*
%TO.C,C5*%
X145573400Y-97735748D02*
X145573400Y-98258252D01*
X144103400Y-97735748D02*
X144103400Y-98258252D01*
%TO.C,L8*%
X145779400Y-87199052D02*
X145779400Y-86676548D01*
X147199400Y-87199052D02*
X147199400Y-86676548D01*
%TO.C,L9*%
X150833779Y-81108313D02*
X150464313Y-81477779D01*
X149829687Y-80104221D02*
X149460221Y-80473687D01*
%TO.C,C29*%
X159517600Y-91751980D02*
X159517600Y-91470820D01*
X160537600Y-91751980D02*
X160537600Y-91470820D01*
%TO.C,R5*%
X156257500Y-93063742D02*
X156257500Y-93538258D01*
X155212500Y-93063742D02*
X155212500Y-93538258D01*
%TD*%
M02*
