%TF.GenerationSoftware,KiCad,Pcbnew,9.0.1+1*%
%TF.CreationDate,2025-09-08T12:37:26+00:00*%
%TF.ProjectId,TFSIK01,54465349-4b30-4312-9e6b-696361645f70,rev?*%
%TF.SameCoordinates,Original*%
%TF.FileFunction,Legend,Top*%
%TF.FilePolarity,Positive*%
%FSLAX46Y46*%
G04 Gerber Fmt 4.6, Leading zero omitted, Abs format (unit mm)*
G04 Created by KiCad (PCBNEW 9.0.1+1) date 2025-09-08 12:37:26*
%MOMM*%
%LPD*%
G01*
G04 APERTURE LIST*
%ADD10C,0.150000*%
%ADD11C,0.200000*%
%ADD12C,0.080000*%
%ADD13C,0.158750*%
%ADD14C,0.050000*%
%ADD15C,0.000000*%
G04 APERTURE END LIST*
D10*
X131750000Y-101250000D02*
X131750000Y-93500000D01*
X131750000Y-101250000D02*
G75*
G02*
X130750000Y-102250000I-1000000J0D01*
G01*
X126250000Y-92500000D02*
X130750000Y-92500000D01*
X130750000Y-92500000D02*
G75*
G02*
X131750000Y-93500000I0J-1000000D01*
G01*
X126250000Y-102250000D02*
X130750000Y-102250000D01*
D11*
X134500000Y-82000000D02*
X140500000Y-82000000D01*
D12*
X134500000Y-82000000D02*
X131250000Y-84750000D01*
D13*
X163792414Y-84352190D02*
X163792414Y-83747428D01*
X164155271Y-84473142D02*
X162885271Y-84049809D01*
X162885271Y-84049809D02*
X164155271Y-83626475D01*
X164155271Y-83203143D02*
X162885271Y-83203143D01*
X162885271Y-83203143D02*
X164155271Y-82477428D01*
X164155271Y-82477428D02*
X162885271Y-82477428D01*
X162885271Y-82054095D02*
X162885271Y-81328381D01*
X164155271Y-81691238D02*
X162885271Y-81691238D01*
X164155271Y-80239809D02*
X164155271Y-80965524D01*
X164155271Y-80602667D02*
X162885271Y-80602667D01*
X162885271Y-80602667D02*
X163066699Y-80723619D01*
X163066699Y-80723619D02*
X163187652Y-80844571D01*
X163187652Y-80844571D02*
X163248128Y-80965524D01*
D10*
X134721429Y-86307533D02*
X135330953Y-86307533D01*
X135026191Y-86612295D02*
X135026191Y-86002771D01*
X136092857Y-85812295D02*
X135711905Y-85812295D01*
X135711905Y-85812295D02*
X135673809Y-86193247D01*
X135673809Y-86193247D02*
X135711905Y-86155152D01*
X135711905Y-86155152D02*
X135788095Y-86117057D01*
X135788095Y-86117057D02*
X135978571Y-86117057D01*
X135978571Y-86117057D02*
X136054762Y-86155152D01*
X136054762Y-86155152D02*
X136092857Y-86193247D01*
X136092857Y-86193247D02*
X136130952Y-86269438D01*
X136130952Y-86269438D02*
X136130952Y-86459914D01*
X136130952Y-86459914D02*
X136092857Y-86536104D01*
X136092857Y-86536104D02*
X136054762Y-86574200D01*
X136054762Y-86574200D02*
X135978571Y-86612295D01*
X135978571Y-86612295D02*
X135788095Y-86612295D01*
X135788095Y-86612295D02*
X135711905Y-86574200D01*
X135711905Y-86574200D02*
X135673809Y-86536104D01*
X136359524Y-85812295D02*
X136626191Y-86612295D01*
X136626191Y-86612295D02*
X136892857Y-85812295D01*
X138363503Y-85036104D02*
X138325407Y-85074200D01*
X138325407Y-85074200D02*
X138211122Y-85112295D01*
X138211122Y-85112295D02*
X138134931Y-85112295D01*
X138134931Y-85112295D02*
X138020645Y-85074200D01*
X138020645Y-85074200D02*
X137944455Y-84998009D01*
X137944455Y-84998009D02*
X137906360Y-84921819D01*
X137906360Y-84921819D02*
X137868264Y-84769438D01*
X137868264Y-84769438D02*
X137868264Y-84655152D01*
X137868264Y-84655152D02*
X137906360Y-84502771D01*
X137906360Y-84502771D02*
X137944455Y-84426580D01*
X137944455Y-84426580D02*
X138020645Y-84350390D01*
X138020645Y-84350390D02*
X138134931Y-84312295D01*
X138134931Y-84312295D02*
X138211122Y-84312295D01*
X138211122Y-84312295D02*
X138325407Y-84350390D01*
X138325407Y-84350390D02*
X138363503Y-84388485D01*
X138668264Y-84388485D02*
X138706360Y-84350390D01*
X138706360Y-84350390D02*
X138782550Y-84312295D01*
X138782550Y-84312295D02*
X138973026Y-84312295D01*
X138973026Y-84312295D02*
X139049217Y-84350390D01*
X139049217Y-84350390D02*
X139087312Y-84388485D01*
X139087312Y-84388485D02*
X139125407Y-84464676D01*
X139125407Y-84464676D02*
X139125407Y-84540866D01*
X139125407Y-84540866D02*
X139087312Y-84655152D01*
X139087312Y-84655152D02*
X138630169Y-85112295D01*
X138630169Y-85112295D02*
X139125407Y-85112295D01*
X139468265Y-85112295D02*
X139468265Y-84312295D01*
X139468265Y-84312295D02*
X139658741Y-84312295D01*
X139658741Y-84312295D02*
X139773027Y-84350390D01*
X139773027Y-84350390D02*
X139849217Y-84426580D01*
X139849217Y-84426580D02*
X139887312Y-84502771D01*
X139887312Y-84502771D02*
X139925408Y-84655152D01*
X139925408Y-84655152D02*
X139925408Y-84769438D01*
X139925408Y-84769438D02*
X139887312Y-84921819D01*
X139887312Y-84921819D02*
X139849217Y-84998009D01*
X139849217Y-84998009D02*
X139773027Y-85074200D01*
X139773027Y-85074200D02*
X139658741Y-85112295D01*
X139658741Y-85112295D02*
X139468265Y-85112295D01*
D11*
X151550857Y-98096480D02*
X152236572Y-98096480D01*
X151893714Y-99196480D02*
X151893714Y-98096480D01*
X153036572Y-98620290D02*
X152636572Y-98620290D01*
X152636572Y-99196480D02*
X152636572Y-98096480D01*
X152636572Y-98096480D02*
X153208000Y-98096480D01*
X153608000Y-99144100D02*
X153779429Y-99196480D01*
X153779429Y-99196480D02*
X154065143Y-99196480D01*
X154065143Y-99196480D02*
X154179429Y-99144100D01*
X154179429Y-99144100D02*
X154236571Y-99091719D01*
X154236571Y-99091719D02*
X154293714Y-98986957D01*
X154293714Y-98986957D02*
X154293714Y-98882195D01*
X154293714Y-98882195D02*
X154236571Y-98777433D01*
X154236571Y-98777433D02*
X154179429Y-98725052D01*
X154179429Y-98725052D02*
X154065143Y-98672671D01*
X154065143Y-98672671D02*
X153836571Y-98620290D01*
X153836571Y-98620290D02*
X153722286Y-98567909D01*
X153722286Y-98567909D02*
X153665143Y-98515528D01*
X153665143Y-98515528D02*
X153608000Y-98410766D01*
X153608000Y-98410766D02*
X153608000Y-98306004D01*
X153608000Y-98306004D02*
X153665143Y-98201242D01*
X153665143Y-98201242D02*
X153722286Y-98148861D01*
X153722286Y-98148861D02*
X153836571Y-98096480D01*
X153836571Y-98096480D02*
X154122286Y-98096480D01*
X154122286Y-98096480D02*
X154293714Y-98148861D01*
X154808000Y-99196480D02*
X154808000Y-98096480D01*
X155379429Y-99196480D02*
X155379429Y-98096480D01*
X156065143Y-99196480D02*
X155550857Y-98567909D01*
X156065143Y-98096480D02*
X155379429Y-98725052D01*
X156808000Y-98096480D02*
X156922286Y-98096480D01*
X156922286Y-98096480D02*
X157036572Y-98148861D01*
X157036572Y-98148861D02*
X157093715Y-98201242D01*
X157093715Y-98201242D02*
X157150857Y-98306004D01*
X157150857Y-98306004D02*
X157208000Y-98515528D01*
X157208000Y-98515528D02*
X157208000Y-98777433D01*
X157208000Y-98777433D02*
X157150857Y-98986957D01*
X157150857Y-98986957D02*
X157093715Y-99091719D01*
X157093715Y-99091719D02*
X157036572Y-99144100D01*
X157036572Y-99144100D02*
X156922286Y-99196480D01*
X156922286Y-99196480D02*
X156808000Y-99196480D01*
X156808000Y-99196480D02*
X156693715Y-99144100D01*
X156693715Y-99144100D02*
X156636572Y-99091719D01*
X156636572Y-99091719D02*
X156579429Y-98986957D01*
X156579429Y-98986957D02*
X156522286Y-98777433D01*
X156522286Y-98777433D02*
X156522286Y-98515528D01*
X156522286Y-98515528D02*
X156579429Y-98306004D01*
X156579429Y-98306004D02*
X156636572Y-98201242D01*
X156636572Y-98201242D02*
X156693715Y-98148861D01*
X156693715Y-98148861D02*
X156808000Y-98096480D01*
X158350857Y-99196480D02*
X157665143Y-99196480D01*
X158008000Y-99196480D02*
X158008000Y-98096480D01*
X158008000Y-98096480D02*
X157893714Y-98253623D01*
X157893714Y-98253623D02*
X157779429Y-98358385D01*
X157779429Y-98358385D02*
X157665143Y-98410766D01*
X159265143Y-98620290D02*
X159436571Y-98672671D01*
X159436571Y-98672671D02*
X159493714Y-98725052D01*
X159493714Y-98725052D02*
X159550857Y-98829814D01*
X159550857Y-98829814D02*
X159550857Y-98986957D01*
X159550857Y-98986957D02*
X159493714Y-99091719D01*
X159493714Y-99091719D02*
X159436571Y-99144100D01*
X159436571Y-99144100D02*
X159322286Y-99196480D01*
X159322286Y-99196480D02*
X158865143Y-99196480D01*
X158865143Y-99196480D02*
X158865143Y-98096480D01*
X158865143Y-98096480D02*
X159265143Y-98096480D01*
X159265143Y-98096480D02*
X159379429Y-98148861D01*
X159379429Y-98148861D02*
X159436571Y-98201242D01*
X159436571Y-98201242D02*
X159493714Y-98306004D01*
X159493714Y-98306004D02*
X159493714Y-98410766D01*
X159493714Y-98410766D02*
X159436571Y-98515528D01*
X159436571Y-98515528D02*
X159379429Y-98567909D01*
X159379429Y-98567909D02*
X159265143Y-98620290D01*
X159265143Y-98620290D02*
X158865143Y-98620290D01*
D10*
X134959903Y-85045904D02*
X134921807Y-85084000D01*
X134921807Y-85084000D02*
X134807522Y-85122095D01*
X134807522Y-85122095D02*
X134731331Y-85122095D01*
X134731331Y-85122095D02*
X134617045Y-85084000D01*
X134617045Y-85084000D02*
X134540855Y-85007809D01*
X134540855Y-85007809D02*
X134502760Y-84931619D01*
X134502760Y-84931619D02*
X134464664Y-84779238D01*
X134464664Y-84779238D02*
X134464664Y-84664952D01*
X134464664Y-84664952D02*
X134502760Y-84512571D01*
X134502760Y-84512571D02*
X134540855Y-84436380D01*
X134540855Y-84436380D02*
X134617045Y-84360190D01*
X134617045Y-84360190D02*
X134731331Y-84322095D01*
X134731331Y-84322095D02*
X134807522Y-84322095D01*
X134807522Y-84322095D02*
X134921807Y-84360190D01*
X134921807Y-84360190D02*
X134959903Y-84398285D01*
X135264664Y-84398285D02*
X135302760Y-84360190D01*
X135302760Y-84360190D02*
X135378950Y-84322095D01*
X135378950Y-84322095D02*
X135569426Y-84322095D01*
X135569426Y-84322095D02*
X135645617Y-84360190D01*
X135645617Y-84360190D02*
X135683712Y-84398285D01*
X135683712Y-84398285D02*
X135721807Y-84474476D01*
X135721807Y-84474476D02*
X135721807Y-84550666D01*
X135721807Y-84550666D02*
X135683712Y-84664952D01*
X135683712Y-84664952D02*
X135226569Y-85122095D01*
X135226569Y-85122095D02*
X135721807Y-85122095D01*
X136521808Y-85045904D02*
X136483712Y-85084000D01*
X136483712Y-85084000D02*
X136369427Y-85122095D01*
X136369427Y-85122095D02*
X136293236Y-85122095D01*
X136293236Y-85122095D02*
X136178950Y-85084000D01*
X136178950Y-85084000D02*
X136102760Y-85007809D01*
X136102760Y-85007809D02*
X136064665Y-84931619D01*
X136064665Y-84931619D02*
X136026569Y-84779238D01*
X136026569Y-84779238D02*
X136026569Y-84664952D01*
X136026569Y-84664952D02*
X136064665Y-84512571D01*
X136064665Y-84512571D02*
X136102760Y-84436380D01*
X136102760Y-84436380D02*
X136178950Y-84360190D01*
X136178950Y-84360190D02*
X136293236Y-84322095D01*
X136293236Y-84322095D02*
X136369427Y-84322095D01*
X136369427Y-84322095D02*
X136483712Y-84360190D01*
X136483712Y-84360190D02*
X136521808Y-84398285D01*
X136864665Y-85122095D02*
X136864665Y-84322095D01*
X137321808Y-85122095D02*
X136978950Y-84664952D01*
X137321808Y-84322095D02*
X136864665Y-84779238D01*
X135110588Y-82850390D02*
X135015350Y-82812295D01*
X135015350Y-82812295D02*
X134872493Y-82812295D01*
X134872493Y-82812295D02*
X134729636Y-82850390D01*
X134729636Y-82850390D02*
X134634398Y-82926580D01*
X134634398Y-82926580D02*
X134586779Y-83002771D01*
X134586779Y-83002771D02*
X134539160Y-83155152D01*
X134539160Y-83155152D02*
X134539160Y-83269438D01*
X134539160Y-83269438D02*
X134586779Y-83421819D01*
X134586779Y-83421819D02*
X134634398Y-83498009D01*
X134634398Y-83498009D02*
X134729636Y-83574200D01*
X134729636Y-83574200D02*
X134872493Y-83612295D01*
X134872493Y-83612295D02*
X134967731Y-83612295D01*
X134967731Y-83612295D02*
X135110588Y-83574200D01*
X135110588Y-83574200D02*
X135158207Y-83536104D01*
X135158207Y-83536104D02*
X135158207Y-83269438D01*
X135158207Y-83269438D02*
X134967731Y-83269438D01*
X135586779Y-83612295D02*
X135586779Y-82812295D01*
X135586779Y-82812295D02*
X136158207Y-83612295D01*
X136158207Y-83612295D02*
X136158207Y-82812295D01*
X136634398Y-83612295D02*
X136634398Y-82812295D01*
X136634398Y-82812295D02*
X136872493Y-82812295D01*
X136872493Y-82812295D02*
X137015350Y-82850390D01*
X137015350Y-82850390D02*
X137110588Y-82926580D01*
X137110588Y-82926580D02*
X137158207Y-83002771D01*
X137158207Y-83002771D02*
X137205826Y-83155152D01*
X137205826Y-83155152D02*
X137205826Y-83269438D01*
X137205826Y-83269438D02*
X137158207Y-83421819D01*
X137158207Y-83421819D02*
X137110588Y-83498009D01*
X137110588Y-83498009D02*
X137015350Y-83574200D01*
X137015350Y-83574200D02*
X136872493Y-83612295D01*
X136872493Y-83612295D02*
X136634398Y-83612295D01*
X138208207Y-82850390D02*
X138132017Y-82812295D01*
X138132017Y-82812295D02*
X138017731Y-82812295D01*
X138017731Y-82812295D02*
X137903445Y-82850390D01*
X137903445Y-82850390D02*
X137827255Y-82926580D01*
X137827255Y-82926580D02*
X137789160Y-83002771D01*
X137789160Y-83002771D02*
X137751064Y-83155152D01*
X137751064Y-83155152D02*
X137751064Y-83269438D01*
X137751064Y-83269438D02*
X137789160Y-83421819D01*
X137789160Y-83421819D02*
X137827255Y-83498009D01*
X137827255Y-83498009D02*
X137903445Y-83574200D01*
X137903445Y-83574200D02*
X138017731Y-83612295D01*
X138017731Y-83612295D02*
X138093922Y-83612295D01*
X138093922Y-83612295D02*
X138208207Y-83574200D01*
X138208207Y-83574200D02*
X138246303Y-83536104D01*
X138246303Y-83536104D02*
X138246303Y-83269438D01*
X138246303Y-83269438D02*
X138093922Y-83269438D01*
X138589160Y-83612295D02*
X138589160Y-82812295D01*
X138589160Y-82812295D02*
X139046303Y-83612295D01*
X139046303Y-83612295D02*
X139046303Y-82812295D01*
X139427255Y-83612295D02*
X139427255Y-82812295D01*
X139427255Y-82812295D02*
X139617731Y-82812295D01*
X139617731Y-82812295D02*
X139732017Y-82850390D01*
X139732017Y-82850390D02*
X139808207Y-82926580D01*
X139808207Y-82926580D02*
X139846302Y-83002771D01*
X139846302Y-83002771D02*
X139884398Y-83155152D01*
X139884398Y-83155152D02*
X139884398Y-83269438D01*
X139884398Y-83269438D02*
X139846302Y-83421819D01*
X139846302Y-83421819D02*
X139808207Y-83498009D01*
X139808207Y-83498009D02*
X139732017Y-83574200D01*
X139732017Y-83574200D02*
X139617731Y-83612295D01*
X139617731Y-83612295D02*
X139427255Y-83612295D01*
X129208207Y-93880503D02*
X129132017Y-93842408D01*
X129132017Y-93842408D02*
X129017731Y-93842408D01*
X129017731Y-93842408D02*
X128903445Y-93880503D01*
X128903445Y-93880503D02*
X128827255Y-93956693D01*
X128827255Y-93956693D02*
X128789160Y-94032884D01*
X128789160Y-94032884D02*
X128751064Y-94185265D01*
X128751064Y-94185265D02*
X128751064Y-94299551D01*
X128751064Y-94299551D02*
X128789160Y-94451932D01*
X128789160Y-94451932D02*
X128827255Y-94528122D01*
X128827255Y-94528122D02*
X128903445Y-94604313D01*
X128903445Y-94604313D02*
X129017731Y-94642408D01*
X129017731Y-94642408D02*
X129093922Y-94642408D01*
X129093922Y-94642408D02*
X129208207Y-94604313D01*
X129208207Y-94604313D02*
X129246303Y-94566217D01*
X129246303Y-94566217D02*
X129246303Y-94299551D01*
X129246303Y-94299551D02*
X129093922Y-94299551D01*
X129589160Y-94642408D02*
X129589160Y-93842408D01*
X129589160Y-93842408D02*
X130046303Y-94642408D01*
X130046303Y-94642408D02*
X130046303Y-93842408D01*
X130427255Y-94642408D02*
X130427255Y-93842408D01*
X130427255Y-93842408D02*
X130617731Y-93842408D01*
X130617731Y-93842408D02*
X130732017Y-93880503D01*
X130732017Y-93880503D02*
X130808207Y-93956693D01*
X130808207Y-93956693D02*
X130846302Y-94032884D01*
X130846302Y-94032884D02*
X130884398Y-94185265D01*
X130884398Y-94185265D02*
X130884398Y-94299551D01*
X130884398Y-94299551D02*
X130846302Y-94451932D01*
X130846302Y-94451932D02*
X130808207Y-94528122D01*
X130808207Y-94528122D02*
X130732017Y-94604313D01*
X130732017Y-94604313D02*
X130617731Y-94642408D01*
X130617731Y-94642408D02*
X130427255Y-94642408D01*
X129246303Y-95854172D02*
X129208207Y-95892268D01*
X129208207Y-95892268D02*
X129093922Y-95930363D01*
X129093922Y-95930363D02*
X129017731Y-95930363D01*
X129017731Y-95930363D02*
X128903445Y-95892268D01*
X128903445Y-95892268D02*
X128827255Y-95816077D01*
X128827255Y-95816077D02*
X128789160Y-95739887D01*
X128789160Y-95739887D02*
X128751064Y-95587506D01*
X128751064Y-95587506D02*
X128751064Y-95473220D01*
X128751064Y-95473220D02*
X128789160Y-95320839D01*
X128789160Y-95320839D02*
X128827255Y-95244648D01*
X128827255Y-95244648D02*
X128903445Y-95168458D01*
X128903445Y-95168458D02*
X129017731Y-95130363D01*
X129017731Y-95130363D02*
X129093922Y-95130363D01*
X129093922Y-95130363D02*
X129208207Y-95168458D01*
X129208207Y-95168458D02*
X129246303Y-95206553D01*
X129474874Y-95130363D02*
X129932017Y-95130363D01*
X129703445Y-95930363D02*
X129703445Y-95130363D01*
X130160588Y-95892268D02*
X130274874Y-95930363D01*
X130274874Y-95930363D02*
X130465350Y-95930363D01*
X130465350Y-95930363D02*
X130541541Y-95892268D01*
X130541541Y-95892268D02*
X130579636Y-95854172D01*
X130579636Y-95854172D02*
X130617731Y-95777982D01*
X130617731Y-95777982D02*
X130617731Y-95701791D01*
X130617731Y-95701791D02*
X130579636Y-95625601D01*
X130579636Y-95625601D02*
X130541541Y-95587506D01*
X130541541Y-95587506D02*
X130465350Y-95549410D01*
X130465350Y-95549410D02*
X130312969Y-95511315D01*
X130312969Y-95511315D02*
X130236779Y-95473220D01*
X130236779Y-95473220D02*
X130198684Y-95435125D01*
X130198684Y-95435125D02*
X130160588Y-95358934D01*
X130160588Y-95358934D02*
X130160588Y-95282744D01*
X130160588Y-95282744D02*
X130198684Y-95206553D01*
X130198684Y-95206553D02*
X130236779Y-95168458D01*
X130236779Y-95168458D02*
X130312969Y-95130363D01*
X130312969Y-95130363D02*
X130503446Y-95130363D01*
X130503446Y-95130363D02*
X130617731Y-95168458D01*
X129246303Y-97218318D02*
X128979636Y-96837365D01*
X128789160Y-97218318D02*
X128789160Y-96418318D01*
X128789160Y-96418318D02*
X129093922Y-96418318D01*
X129093922Y-96418318D02*
X129170112Y-96456413D01*
X129170112Y-96456413D02*
X129208207Y-96494508D01*
X129208207Y-96494508D02*
X129246303Y-96570699D01*
X129246303Y-96570699D02*
X129246303Y-96684984D01*
X129246303Y-96684984D02*
X129208207Y-96761175D01*
X129208207Y-96761175D02*
X129170112Y-96799270D01*
X129170112Y-96799270D02*
X129093922Y-96837365D01*
X129093922Y-96837365D02*
X128789160Y-96837365D01*
X129474874Y-96418318D02*
X129932017Y-96418318D01*
X129703445Y-97218318D02*
X129703445Y-96418318D01*
X130160588Y-97180223D02*
X130274874Y-97218318D01*
X130274874Y-97218318D02*
X130465350Y-97218318D01*
X130465350Y-97218318D02*
X130541541Y-97180223D01*
X130541541Y-97180223D02*
X130579636Y-97142127D01*
X130579636Y-97142127D02*
X130617731Y-97065937D01*
X130617731Y-97065937D02*
X130617731Y-96989746D01*
X130617731Y-96989746D02*
X130579636Y-96913556D01*
X130579636Y-96913556D02*
X130541541Y-96875461D01*
X130541541Y-96875461D02*
X130465350Y-96837365D01*
X130465350Y-96837365D02*
X130312969Y-96799270D01*
X130312969Y-96799270D02*
X130236779Y-96761175D01*
X130236779Y-96761175D02*
X130198684Y-96723080D01*
X130198684Y-96723080D02*
X130160588Y-96646889D01*
X130160588Y-96646889D02*
X130160588Y-96570699D01*
X130160588Y-96570699D02*
X130198684Y-96494508D01*
X130198684Y-96494508D02*
X130236779Y-96456413D01*
X130236779Y-96456413D02*
X130312969Y-96418318D01*
X130312969Y-96418318D02*
X130503446Y-96418318D01*
X130503446Y-96418318D02*
X130617731Y-96456413D01*
X128674874Y-97706273D02*
X129132017Y-97706273D01*
X128903445Y-98506273D02*
X128903445Y-97706273D01*
X129322493Y-97706273D02*
X129855827Y-98506273D01*
X129855827Y-97706273D02*
X129322493Y-98506273D01*
X129246303Y-99794228D02*
X128979636Y-99413275D01*
X128789160Y-99794228D02*
X128789160Y-98994228D01*
X128789160Y-98994228D02*
X129093922Y-98994228D01*
X129093922Y-98994228D02*
X129170112Y-99032323D01*
X129170112Y-99032323D02*
X129208207Y-99070418D01*
X129208207Y-99070418D02*
X129246303Y-99146609D01*
X129246303Y-99146609D02*
X129246303Y-99260894D01*
X129246303Y-99260894D02*
X129208207Y-99337085D01*
X129208207Y-99337085D02*
X129170112Y-99375180D01*
X129170112Y-99375180D02*
X129093922Y-99413275D01*
X129093922Y-99413275D02*
X128789160Y-99413275D01*
X129512969Y-98994228D02*
X130046303Y-99794228D01*
X130046303Y-98994228D02*
X129512969Y-99794228D01*
X128789160Y-100777421D02*
X129398684Y-100777421D01*
X129093922Y-101082183D02*
X129093922Y-100472659D01*
X130160588Y-100282183D02*
X129779636Y-100282183D01*
X129779636Y-100282183D02*
X129741540Y-100663135D01*
X129741540Y-100663135D02*
X129779636Y-100625040D01*
X129779636Y-100625040D02*
X129855826Y-100586945D01*
X129855826Y-100586945D02*
X130046302Y-100586945D01*
X130046302Y-100586945D02*
X130122493Y-100625040D01*
X130122493Y-100625040D02*
X130160588Y-100663135D01*
X130160588Y-100663135D02*
X130198683Y-100739326D01*
X130198683Y-100739326D02*
X130198683Y-100929802D01*
X130198683Y-100929802D02*
X130160588Y-101005992D01*
X130160588Y-101005992D02*
X130122493Y-101044088D01*
X130122493Y-101044088D02*
X130046302Y-101082183D01*
X130046302Y-101082183D02*
X129855826Y-101082183D01*
X129855826Y-101082183D02*
X129779636Y-101044088D01*
X129779636Y-101044088D02*
X129741540Y-101005992D01*
X130427255Y-100282183D02*
X130693922Y-101082183D01*
X130693922Y-101082183D02*
X130960588Y-100282183D01*
X138208207Y-85850390D02*
X138132017Y-85812295D01*
X138132017Y-85812295D02*
X138017731Y-85812295D01*
X138017731Y-85812295D02*
X137903445Y-85850390D01*
X137903445Y-85850390D02*
X137827255Y-85926580D01*
X137827255Y-85926580D02*
X137789160Y-86002771D01*
X137789160Y-86002771D02*
X137751064Y-86155152D01*
X137751064Y-86155152D02*
X137751064Y-86269438D01*
X137751064Y-86269438D02*
X137789160Y-86421819D01*
X137789160Y-86421819D02*
X137827255Y-86498009D01*
X137827255Y-86498009D02*
X137903445Y-86574200D01*
X137903445Y-86574200D02*
X138017731Y-86612295D01*
X138017731Y-86612295D02*
X138093922Y-86612295D01*
X138093922Y-86612295D02*
X138208207Y-86574200D01*
X138208207Y-86574200D02*
X138246303Y-86536104D01*
X138246303Y-86536104D02*
X138246303Y-86269438D01*
X138246303Y-86269438D02*
X138093922Y-86269438D01*
X138589160Y-86612295D02*
X138589160Y-85812295D01*
X138589160Y-85812295D02*
X139046303Y-86612295D01*
X139046303Y-86612295D02*
X139046303Y-85812295D01*
X139427255Y-86612295D02*
X139427255Y-85812295D01*
X139427255Y-85812295D02*
X139617731Y-85812295D01*
X139617731Y-85812295D02*
X139732017Y-85850390D01*
X139732017Y-85850390D02*
X139808207Y-85926580D01*
X139808207Y-85926580D02*
X139846302Y-86002771D01*
X139846302Y-86002771D02*
X139884398Y-86155152D01*
X139884398Y-86155152D02*
X139884398Y-86269438D01*
X139884398Y-86269438D02*
X139846302Y-86421819D01*
X139846302Y-86421819D02*
X139808207Y-86498009D01*
X139808207Y-86498009D02*
X139732017Y-86574200D01*
X139732017Y-86574200D02*
X139617731Y-86612295D01*
X139617731Y-86612295D02*
X139427255Y-86612295D01*
X134671428Y-81408557D02*
X134671428Y-80508557D01*
X134671428Y-80508557D02*
X135014285Y-80508557D01*
X135014285Y-80508557D02*
X135100000Y-80551414D01*
X135100000Y-80551414D02*
X135142857Y-80594271D01*
X135142857Y-80594271D02*
X135185714Y-80679985D01*
X135185714Y-80679985D02*
X135185714Y-80808557D01*
X135185714Y-80808557D02*
X135142857Y-80894271D01*
X135142857Y-80894271D02*
X135100000Y-80937128D01*
X135100000Y-80937128D02*
X135014285Y-80979985D01*
X135014285Y-80979985D02*
X134671428Y-80979985D01*
X135571428Y-81408557D02*
X135571428Y-80808557D01*
X135571428Y-80979985D02*
X135614285Y-80894271D01*
X135614285Y-80894271D02*
X135657143Y-80851414D01*
X135657143Y-80851414D02*
X135742857Y-80808557D01*
X135742857Y-80808557D02*
X135828571Y-80808557D01*
X136257143Y-81408557D02*
X136171428Y-81365700D01*
X136171428Y-81365700D02*
X136128571Y-81322842D01*
X136128571Y-81322842D02*
X136085714Y-81237128D01*
X136085714Y-81237128D02*
X136085714Y-80979985D01*
X136085714Y-80979985D02*
X136128571Y-80894271D01*
X136128571Y-80894271D02*
X136171428Y-80851414D01*
X136171428Y-80851414D02*
X136257143Y-80808557D01*
X136257143Y-80808557D02*
X136385714Y-80808557D01*
X136385714Y-80808557D02*
X136471428Y-80851414D01*
X136471428Y-80851414D02*
X136514286Y-80894271D01*
X136514286Y-80894271D02*
X136557143Y-80979985D01*
X136557143Y-80979985D02*
X136557143Y-81237128D01*
X136557143Y-81237128D02*
X136514286Y-81322842D01*
X136514286Y-81322842D02*
X136471428Y-81365700D01*
X136471428Y-81365700D02*
X136385714Y-81408557D01*
X136385714Y-81408557D02*
X136257143Y-81408557D01*
X137328572Y-80808557D02*
X137328572Y-81537128D01*
X137328572Y-81537128D02*
X137285714Y-81622842D01*
X137285714Y-81622842D02*
X137242857Y-81665700D01*
X137242857Y-81665700D02*
X137157143Y-81708557D01*
X137157143Y-81708557D02*
X137028572Y-81708557D01*
X137028572Y-81708557D02*
X136942857Y-81665700D01*
X137328572Y-81365700D02*
X137242857Y-81408557D01*
X137242857Y-81408557D02*
X137071429Y-81408557D01*
X137071429Y-81408557D02*
X136985714Y-81365700D01*
X136985714Y-81365700D02*
X136942857Y-81322842D01*
X136942857Y-81322842D02*
X136900000Y-81237128D01*
X136900000Y-81237128D02*
X136900000Y-80979985D01*
X136900000Y-80979985D02*
X136942857Y-80894271D01*
X136942857Y-80894271D02*
X136985714Y-80851414D01*
X136985714Y-80851414D02*
X137071429Y-80808557D01*
X137071429Y-80808557D02*
X137242857Y-80808557D01*
X137242857Y-80808557D02*
X137328572Y-80851414D01*
D11*
X126898480Y-99335285D02*
X127788957Y-99335285D01*
X127788957Y-99335285D02*
X127893719Y-99278142D01*
X127893719Y-99278142D02*
X127946100Y-99221000D01*
X127946100Y-99221000D02*
X127998480Y-99106714D01*
X127998480Y-99106714D02*
X127998480Y-98878142D01*
X127998480Y-98878142D02*
X127946100Y-98763857D01*
X127946100Y-98763857D02*
X127893719Y-98706714D01*
X127893719Y-98706714D02*
X127788957Y-98649571D01*
X127788957Y-98649571D02*
X126898480Y-98649571D01*
X127684195Y-98135285D02*
X127684195Y-97563857D01*
X127998480Y-98249571D02*
X126898480Y-97849571D01*
X126898480Y-97849571D02*
X127998480Y-97449571D01*
X127998480Y-96363857D02*
X127474671Y-96763857D01*
X127998480Y-97049571D02*
X126898480Y-97049571D01*
X126898480Y-97049571D02*
X126898480Y-96592428D01*
X126898480Y-96592428D02*
X126950861Y-96478143D01*
X126950861Y-96478143D02*
X127003242Y-96421000D01*
X127003242Y-96421000D02*
X127108004Y-96363857D01*
X127108004Y-96363857D02*
X127265147Y-96363857D01*
X127265147Y-96363857D02*
X127369909Y-96421000D01*
X127369909Y-96421000D02*
X127422290Y-96478143D01*
X127422290Y-96478143D02*
X127474671Y-96592428D01*
X127474671Y-96592428D02*
X127474671Y-97049571D01*
X126898480Y-96021000D02*
X126898480Y-95335286D01*
X127998480Y-95678143D02*
X126898480Y-95678143D01*
X153635857Y-95124242D02*
X153693000Y-95071861D01*
X153693000Y-95071861D02*
X153807286Y-95019480D01*
X153807286Y-95019480D02*
X154093000Y-95019480D01*
X154093000Y-95019480D02*
X154207286Y-95071861D01*
X154207286Y-95071861D02*
X154264428Y-95124242D01*
X154264428Y-95124242D02*
X154321571Y-95229004D01*
X154321571Y-95229004D02*
X154321571Y-95333766D01*
X154321571Y-95333766D02*
X154264428Y-95490909D01*
X154264428Y-95490909D02*
X153578714Y-96119480D01*
X153578714Y-96119480D02*
X154321571Y-96119480D01*
X155064428Y-95019480D02*
X155178714Y-95019480D01*
X155178714Y-95019480D02*
X155293000Y-95071861D01*
X155293000Y-95071861D02*
X155350143Y-95124242D01*
X155350143Y-95124242D02*
X155407285Y-95229004D01*
X155407285Y-95229004D02*
X155464428Y-95438528D01*
X155464428Y-95438528D02*
X155464428Y-95700433D01*
X155464428Y-95700433D02*
X155407285Y-95909957D01*
X155407285Y-95909957D02*
X155350143Y-96014719D01*
X155350143Y-96014719D02*
X155293000Y-96067100D01*
X155293000Y-96067100D02*
X155178714Y-96119480D01*
X155178714Y-96119480D02*
X155064428Y-96119480D01*
X155064428Y-96119480D02*
X154950143Y-96067100D01*
X154950143Y-96067100D02*
X154893000Y-96014719D01*
X154893000Y-96014719D02*
X154835857Y-95909957D01*
X154835857Y-95909957D02*
X154778714Y-95700433D01*
X154778714Y-95700433D02*
X154778714Y-95438528D01*
X154778714Y-95438528D02*
X154835857Y-95229004D01*
X154835857Y-95229004D02*
X154893000Y-95124242D01*
X154893000Y-95124242D02*
X154950143Y-95071861D01*
X154950143Y-95071861D02*
X155064428Y-95019480D01*
X155921571Y-95124242D02*
X155978714Y-95071861D01*
X155978714Y-95071861D02*
X156093000Y-95019480D01*
X156093000Y-95019480D02*
X156378714Y-95019480D01*
X156378714Y-95019480D02*
X156493000Y-95071861D01*
X156493000Y-95071861D02*
X156550142Y-95124242D01*
X156550142Y-95124242D02*
X156607285Y-95229004D01*
X156607285Y-95229004D02*
X156607285Y-95333766D01*
X156607285Y-95333766D02*
X156550142Y-95490909D01*
X156550142Y-95490909D02*
X155864428Y-96119480D01*
X155864428Y-96119480D02*
X156607285Y-96119480D01*
X157692999Y-95019480D02*
X157121571Y-95019480D01*
X157121571Y-95019480D02*
X157064428Y-95543290D01*
X157064428Y-95543290D02*
X157121571Y-95490909D01*
X157121571Y-95490909D02*
X157235857Y-95438528D01*
X157235857Y-95438528D02*
X157521571Y-95438528D01*
X157521571Y-95438528D02*
X157635857Y-95490909D01*
X157635857Y-95490909D02*
X157692999Y-95543290D01*
X157692999Y-95543290D02*
X157750142Y-95648052D01*
X157750142Y-95648052D02*
X157750142Y-95909957D01*
X157750142Y-95909957D02*
X157692999Y-96014719D01*
X157692999Y-96014719D02*
X157635857Y-96067100D01*
X157635857Y-96067100D02*
X157521571Y-96119480D01*
X157521571Y-96119480D02*
X157235857Y-96119480D01*
X157235857Y-96119480D02*
X157121571Y-96067100D01*
X157121571Y-96067100D02*
X157064428Y-96014719D01*
D13*
X163792414Y-99592190D02*
X163792414Y-98987428D01*
X164155271Y-99713142D02*
X162885271Y-99289809D01*
X162885271Y-99289809D02*
X164155271Y-98866475D01*
X164155271Y-98443143D02*
X162885271Y-98443143D01*
X162885271Y-98443143D02*
X164155271Y-97717428D01*
X164155271Y-97717428D02*
X162885271Y-97717428D01*
X162885271Y-97294095D02*
X162885271Y-96568381D01*
X164155271Y-96931238D02*
X162885271Y-96931238D01*
X163006223Y-96205524D02*
X162945747Y-96145048D01*
X162945747Y-96145048D02*
X162885271Y-96024095D01*
X162885271Y-96024095D02*
X162885271Y-95721714D01*
X162885271Y-95721714D02*
X162945747Y-95600762D01*
X162945747Y-95600762D02*
X163006223Y-95540286D01*
X163006223Y-95540286D02*
X163127175Y-95479809D01*
X163127175Y-95479809D02*
X163248128Y-95479809D01*
X163248128Y-95479809D02*
X163429556Y-95540286D01*
X163429556Y-95540286D02*
X164155271Y-96266000D01*
X164155271Y-96266000D02*
X164155271Y-95479809D01*
X135583806Y-92403704D02*
X135583806Y-93250371D01*
X135281425Y-91919895D02*
X134979044Y-92827037D01*
X134979044Y-92827037D02*
X135765235Y-92827037D01*
X136128092Y-91980371D02*
X136914283Y-91980371D01*
X136914283Y-91980371D02*
X136490949Y-92464180D01*
X136490949Y-92464180D02*
X136672378Y-92464180D01*
X136672378Y-92464180D02*
X136793330Y-92524656D01*
X136793330Y-92524656D02*
X136853806Y-92585133D01*
X136853806Y-92585133D02*
X136914283Y-92706085D01*
X136914283Y-92706085D02*
X136914283Y-93008466D01*
X136914283Y-93008466D02*
X136853806Y-93129418D01*
X136853806Y-93129418D02*
X136793330Y-93189895D01*
X136793330Y-93189895D02*
X136672378Y-93250371D01*
X136672378Y-93250371D02*
X136309521Y-93250371D01*
X136309521Y-93250371D02*
X136188568Y-93189895D01*
X136188568Y-93189895D02*
X136128092Y-93129418D01*
X137337616Y-91980371D02*
X138123807Y-91980371D01*
X138123807Y-91980371D02*
X137700473Y-92464180D01*
X137700473Y-92464180D02*
X137881902Y-92464180D01*
X137881902Y-92464180D02*
X138002854Y-92524656D01*
X138002854Y-92524656D02*
X138063330Y-92585133D01*
X138063330Y-92585133D02*
X138123807Y-92706085D01*
X138123807Y-92706085D02*
X138123807Y-93008466D01*
X138123807Y-93008466D02*
X138063330Y-93129418D01*
X138063330Y-93129418D02*
X138002854Y-93189895D01*
X138002854Y-93189895D02*
X137881902Y-93250371D01*
X137881902Y-93250371D02*
X137519045Y-93250371D01*
X137519045Y-93250371D02*
X137398092Y-93189895D01*
X137398092Y-93189895D02*
X137337616Y-93129418D01*
X135220949Y-95902856D02*
X135099997Y-95842380D01*
X135099997Y-95842380D02*
X135039520Y-95781904D01*
X135039520Y-95781904D02*
X134979044Y-95660952D01*
X134979044Y-95660952D02*
X134979044Y-95600475D01*
X134979044Y-95600475D02*
X135039520Y-95479523D01*
X135039520Y-95479523D02*
X135099997Y-95419047D01*
X135099997Y-95419047D02*
X135220949Y-95358571D01*
X135220949Y-95358571D02*
X135462854Y-95358571D01*
X135462854Y-95358571D02*
X135583806Y-95419047D01*
X135583806Y-95419047D02*
X135644282Y-95479523D01*
X135644282Y-95479523D02*
X135704759Y-95600475D01*
X135704759Y-95600475D02*
X135704759Y-95660952D01*
X135704759Y-95660952D02*
X135644282Y-95781904D01*
X135644282Y-95781904D02*
X135583806Y-95842380D01*
X135583806Y-95842380D02*
X135462854Y-95902856D01*
X135462854Y-95902856D02*
X135220949Y-95902856D01*
X135220949Y-95902856D02*
X135099997Y-95963333D01*
X135099997Y-95963333D02*
X135039520Y-96023809D01*
X135039520Y-96023809D02*
X134979044Y-96144761D01*
X134979044Y-96144761D02*
X134979044Y-96386666D01*
X134979044Y-96386666D02*
X135039520Y-96507618D01*
X135039520Y-96507618D02*
X135099997Y-96568095D01*
X135099997Y-96568095D02*
X135220949Y-96628571D01*
X135220949Y-96628571D02*
X135462854Y-96628571D01*
X135462854Y-96628571D02*
X135583806Y-96568095D01*
X135583806Y-96568095D02*
X135644282Y-96507618D01*
X135644282Y-96507618D02*
X135704759Y-96386666D01*
X135704759Y-96386666D02*
X135704759Y-96144761D01*
X135704759Y-96144761D02*
X135644282Y-96023809D01*
X135644282Y-96023809D02*
X135583806Y-95963333D01*
X135583806Y-95963333D02*
X135462854Y-95902856D01*
X136793330Y-95358571D02*
X136551425Y-95358571D01*
X136551425Y-95358571D02*
X136430473Y-95419047D01*
X136430473Y-95419047D02*
X136369997Y-95479523D01*
X136369997Y-95479523D02*
X136249044Y-95660952D01*
X136249044Y-95660952D02*
X136188568Y-95902856D01*
X136188568Y-95902856D02*
X136188568Y-96386666D01*
X136188568Y-96386666D02*
X136249044Y-96507618D01*
X136249044Y-96507618D02*
X136309521Y-96568095D01*
X136309521Y-96568095D02*
X136430473Y-96628571D01*
X136430473Y-96628571D02*
X136672378Y-96628571D01*
X136672378Y-96628571D02*
X136793330Y-96568095D01*
X136793330Y-96568095D02*
X136853806Y-96507618D01*
X136853806Y-96507618D02*
X136914283Y-96386666D01*
X136914283Y-96386666D02*
X136914283Y-96084285D01*
X136914283Y-96084285D02*
X136853806Y-95963333D01*
X136853806Y-95963333D02*
X136793330Y-95902856D01*
X136793330Y-95902856D02*
X136672378Y-95842380D01*
X136672378Y-95842380D02*
X136430473Y-95842380D01*
X136430473Y-95842380D02*
X136309521Y-95902856D01*
X136309521Y-95902856D02*
X136249044Y-95963333D01*
X136249044Y-95963333D02*
X136188568Y-96084285D01*
X137639997Y-95902856D02*
X137519045Y-95842380D01*
X137519045Y-95842380D02*
X137458568Y-95781904D01*
X137458568Y-95781904D02*
X137398092Y-95660952D01*
X137398092Y-95660952D02*
X137398092Y-95600475D01*
X137398092Y-95600475D02*
X137458568Y-95479523D01*
X137458568Y-95479523D02*
X137519045Y-95419047D01*
X137519045Y-95419047D02*
X137639997Y-95358571D01*
X137639997Y-95358571D02*
X137881902Y-95358571D01*
X137881902Y-95358571D02*
X138002854Y-95419047D01*
X138002854Y-95419047D02*
X138063330Y-95479523D01*
X138063330Y-95479523D02*
X138123807Y-95600475D01*
X138123807Y-95600475D02*
X138123807Y-95660952D01*
X138123807Y-95660952D02*
X138063330Y-95781904D01*
X138063330Y-95781904D02*
X138002854Y-95842380D01*
X138002854Y-95842380D02*
X137881902Y-95902856D01*
X137881902Y-95902856D02*
X137639997Y-95902856D01*
X137639997Y-95902856D02*
X137519045Y-95963333D01*
X137519045Y-95963333D02*
X137458568Y-96023809D01*
X137458568Y-96023809D02*
X137398092Y-96144761D01*
X137398092Y-96144761D02*
X137398092Y-96386666D01*
X137398092Y-96386666D02*
X137458568Y-96507618D01*
X137458568Y-96507618D02*
X137519045Y-96568095D01*
X137519045Y-96568095D02*
X137639997Y-96628571D01*
X137639997Y-96628571D02*
X137881902Y-96628571D01*
X137881902Y-96628571D02*
X138002854Y-96568095D01*
X138002854Y-96568095D02*
X138063330Y-96507618D01*
X138063330Y-96507618D02*
X138123807Y-96386666D01*
X138123807Y-96386666D02*
X138123807Y-96144761D01*
X138123807Y-96144761D02*
X138063330Y-96023809D01*
X138063330Y-96023809D02*
X138002854Y-95963333D01*
X138002854Y-95963333D02*
X137881902Y-95902856D01*
X135099997Y-100006771D02*
X135341901Y-100006771D01*
X135341901Y-100006771D02*
X135462854Y-99946295D01*
X135462854Y-99946295D02*
X135523330Y-99885818D01*
X135523330Y-99885818D02*
X135644282Y-99704390D01*
X135644282Y-99704390D02*
X135704759Y-99462485D01*
X135704759Y-99462485D02*
X135704759Y-98978675D01*
X135704759Y-98978675D02*
X135644282Y-98857723D01*
X135644282Y-98857723D02*
X135583806Y-98797247D01*
X135583806Y-98797247D02*
X135462854Y-98736771D01*
X135462854Y-98736771D02*
X135220949Y-98736771D01*
X135220949Y-98736771D02*
X135099997Y-98797247D01*
X135099997Y-98797247D02*
X135039520Y-98857723D01*
X135039520Y-98857723D02*
X134979044Y-98978675D01*
X134979044Y-98978675D02*
X134979044Y-99281056D01*
X134979044Y-99281056D02*
X135039520Y-99402009D01*
X135039520Y-99402009D02*
X135099997Y-99462485D01*
X135099997Y-99462485D02*
X135220949Y-99522961D01*
X135220949Y-99522961D02*
X135462854Y-99522961D01*
X135462854Y-99522961D02*
X135583806Y-99462485D01*
X135583806Y-99462485D02*
X135644282Y-99402009D01*
X135644282Y-99402009D02*
X135704759Y-99281056D01*
X136914283Y-100006771D02*
X136188568Y-100006771D01*
X136551425Y-100006771D02*
X136551425Y-98736771D01*
X136551425Y-98736771D02*
X136430473Y-98918199D01*
X136430473Y-98918199D02*
X136309521Y-99039152D01*
X136309521Y-99039152D02*
X136188568Y-99099628D01*
X138063330Y-98736771D02*
X137458568Y-98736771D01*
X137458568Y-98736771D02*
X137398092Y-99341533D01*
X137398092Y-99341533D02*
X137458568Y-99281056D01*
X137458568Y-99281056D02*
X137579521Y-99220580D01*
X137579521Y-99220580D02*
X137881902Y-99220580D01*
X137881902Y-99220580D02*
X138002854Y-99281056D01*
X138002854Y-99281056D02*
X138063330Y-99341533D01*
X138063330Y-99341533D02*
X138123807Y-99462485D01*
X138123807Y-99462485D02*
X138123807Y-99764866D01*
X138123807Y-99764866D02*
X138063330Y-99885818D01*
X138063330Y-99885818D02*
X138002854Y-99946295D01*
X138002854Y-99946295D02*
X137881902Y-100006771D01*
X137881902Y-100006771D02*
X137579521Y-100006771D01*
X137579521Y-100006771D02*
X137458568Y-99946295D01*
X137458568Y-99946295D02*
X137398092Y-99885818D01*
D10*
X144247400Y-94360200D02*
X133630200Y-94360200D01*
X144247400Y-97738400D02*
X133630200Y-97738400D01*
X133630200Y-90982000D02*
X144247400Y-90982000D01*
X144247400Y-90982000D02*
X144247400Y-101116600D01*
X144247400Y-101116600D02*
X133630200Y-101116600D01*
X133630200Y-101116600D02*
X133630200Y-90982000D01*
D14*
X127447657Y-81864309D02*
X127161943Y-81864309D01*
X127304800Y-81864309D02*
X127304800Y-81364309D01*
X127304800Y-81364309D02*
X127257181Y-81435738D01*
X127257181Y-81435738D02*
X127209562Y-81483357D01*
X127209562Y-81483357D02*
X127161943Y-81507166D01*
D10*
%TO.C,J2*%
X126118600Y-82213400D02*
X131198600Y-82213400D01*
X126118600Y-89833400D02*
X126118600Y-82213400D01*
X131198600Y-82213400D02*
X131198600Y-89833400D01*
X131198600Y-89833400D02*
X126118600Y-89833400D01*
D15*
%TO.C,G1*%
G36*
X146478313Y-83509555D02*
G01*
X145980274Y-83509555D01*
X145980274Y-84948335D01*
X145659315Y-84948335D01*
X145659315Y-83509555D01*
X145161276Y-83509555D01*
X145161276Y-83199664D01*
X146478313Y-83199664D01*
X146478313Y-83509555D01*
G37*
G36*
X146976352Y-83885852D02*
G01*
X147784283Y-83885852D01*
X147784283Y-83199664D01*
X148105241Y-83199664D01*
X148105241Y-84948335D01*
X147784283Y-84948335D01*
X147784283Y-84195743D01*
X146976352Y-84195743D01*
X146976352Y-84948335D01*
X146655394Y-84948335D01*
X146655394Y-83199664D01*
X146976352Y-83199664D01*
X146976352Y-83885852D01*
G37*
G36*
X150909645Y-83761342D02*
G01*
X151281552Y-84323019D01*
X151281588Y-83761342D01*
X151281625Y-83199664D01*
X151602583Y-83199664D01*
X151602583Y-84948335D01*
X151340552Y-84948335D01*
X150540124Y-83747507D01*
X150540100Y-84948335D01*
X150219141Y-84948335D01*
X150219141Y-83199664D01*
X150537738Y-83199664D01*
X150909645Y-83761342D01*
G37*
G36*
X154856440Y-83509555D02*
G01*
X154059577Y-83509555D01*
X154059577Y-83885852D01*
X154668291Y-83885852D01*
X154668291Y-84195743D01*
X154059577Y-84195743D01*
X154059577Y-84638444D01*
X154878575Y-84638444D01*
X154878575Y-84948335D01*
X153727551Y-84948335D01*
X153727551Y-83199664D01*
X154856440Y-83199664D01*
X154856440Y-83509555D01*
G37*
G36*
X156746833Y-85369484D02*
G01*
X156793835Y-85371299D01*
X156822916Y-85374549D01*
X156836170Y-85379408D01*
X156837529Y-85382203D01*
X156835655Y-85394963D01*
X156830230Y-85427836D01*
X156821543Y-85479133D01*
X156809888Y-85547169D01*
X156795556Y-85630255D01*
X156778839Y-85726707D01*
X156760029Y-85834836D01*
X156739418Y-85952955D01*
X156717298Y-86079379D01*
X156693960Y-86212420D01*
X156688117Y-86245678D01*
X156664534Y-86380005D01*
X156642096Y-86508073D01*
X156621096Y-86628201D01*
X156601824Y-86738709D01*
X156584572Y-86837916D01*
X156569632Y-86924141D01*
X156557295Y-86995705D01*
X156547854Y-87050926D01*
X156541599Y-87088125D01*
X156538822Y-87105620D01*
X156538705Y-87106713D01*
X156528043Y-87111055D01*
X156497644Y-87114416D01*
X156449892Y-87116637D01*
X156387170Y-87117557D01*
X156376843Y-87117573D01*
X156214980Y-87117573D01*
X156220726Y-87087137D01*
X156223514Y-87071593D01*
X156229814Y-87035985D01*
X156239320Y-86982052D01*
X156251725Y-86911535D01*
X156266726Y-86826173D01*
X156284015Y-86727706D01*
X156303288Y-86617872D01*
X156324239Y-86498413D01*
X156346562Y-86371067D01*
X156369953Y-86237574D01*
X156374288Y-86212826D01*
X156522104Y-85368950D01*
X156679817Y-85368926D01*
X156746833Y-85369484D01*
G37*
G36*
X158849765Y-81049795D02*
G01*
X158847165Y-81065323D01*
X158841041Y-81100920D01*
X158831697Y-81154852D01*
X158819434Y-81225387D01*
X158804554Y-81310791D01*
X158787361Y-81409330D01*
X158768155Y-81519272D01*
X158747240Y-81638883D01*
X158724918Y-81766431D01*
X158701490Y-81900181D01*
X158696330Y-81929625D01*
X158547464Y-82779018D01*
X158389751Y-82779058D01*
X158325062Y-82778638D01*
X158279721Y-82777167D01*
X158250957Y-82774390D01*
X158235995Y-82770050D01*
X158232039Y-82764447D01*
X158233915Y-82751180D01*
X158239307Y-82718155D01*
X158247857Y-82667401D01*
X158259209Y-82600950D01*
X158273007Y-82520832D01*
X158288893Y-82429076D01*
X158306511Y-82327712D01*
X158325504Y-82218772D01*
X158345517Y-82104286D01*
X158366191Y-81986282D01*
X158387171Y-81866792D01*
X158408099Y-81747847D01*
X158428620Y-81631475D01*
X158448376Y-81519707D01*
X158467011Y-81414574D01*
X158484169Y-81318106D01*
X158499492Y-81232333D01*
X158512624Y-81159285D01*
X158523209Y-81100992D01*
X158530889Y-81059484D01*
X158535308Y-81036792D01*
X158536161Y-81033194D01*
X158545023Y-81027270D01*
X158568093Y-81023138D01*
X158607671Y-81020603D01*
X158666057Y-81019467D01*
X158697784Y-81019359D01*
X158854333Y-81019359D01*
X158849765Y-81049795D01*
G37*
G36*
X157595814Y-81044261D02*
G01*
X157593015Y-81058953D01*
X157586722Y-81093705D01*
X157577244Y-81146769D01*
X157564889Y-81216399D01*
X157549965Y-81300847D01*
X157532780Y-81398368D01*
X157513642Y-81507214D01*
X157492860Y-81625638D01*
X157470742Y-81751894D01*
X157447596Y-81884235D01*
X157445943Y-81893695D01*
X157422715Y-82026564D01*
X157400486Y-82153598D01*
X157379566Y-82273033D01*
X157360264Y-82383107D01*
X157342890Y-82482059D01*
X157327753Y-82568126D01*
X157315163Y-82639547D01*
X157305431Y-82694558D01*
X157298865Y-82731399D01*
X157295775Y-82748307D01*
X157295704Y-82748662D01*
X157289539Y-82779098D01*
X156967940Y-82779098D01*
X156973940Y-82754196D01*
X156976789Y-82739438D01*
X156983124Y-82704654D01*
X156992632Y-82651622D01*
X157004998Y-82582122D01*
X157019907Y-82497933D01*
X157037044Y-82400835D01*
X157056096Y-82292606D01*
X157076747Y-82175026D01*
X157098683Y-82049875D01*
X157119230Y-81932431D01*
X157142233Y-81800945D01*
X157164368Y-81674646D01*
X157185303Y-81555412D01*
X157204706Y-81445118D01*
X157222246Y-81345644D01*
X157237593Y-81258866D01*
X157250413Y-81186662D01*
X157260376Y-81130909D01*
X157267151Y-81093484D01*
X157270159Y-81077464D01*
X157281800Y-81019359D01*
X157601611Y-81019359D01*
X157595814Y-81044261D01*
G37*
G36*
X159309090Y-85370443D02*
G01*
X159336911Y-85371931D01*
X159352602Y-85375175D01*
X159359494Y-85380517D01*
X159360928Y-85387517D01*
X159359049Y-85401232D01*
X159353609Y-85435041D01*
X159344901Y-85487240D01*
X159333218Y-85556126D01*
X159318852Y-85639996D01*
X159302097Y-85737148D01*
X159283245Y-85845876D01*
X159262591Y-85964480D01*
X159240426Y-86091254D01*
X159217044Y-86224496D01*
X159211516Y-86255931D01*
X159187933Y-86390041D01*
X159165496Y-86517790D01*
X159144496Y-86637508D01*
X159125224Y-86747525D01*
X159107973Y-86846173D01*
X159093033Y-86931782D01*
X159080696Y-87002682D01*
X159071254Y-87057204D01*
X159064998Y-87093679D01*
X159062221Y-87110436D01*
X159062104Y-87111347D01*
X159051686Y-87113548D01*
X159023024Y-87115408D01*
X158980009Y-87116774D01*
X158926534Y-87117497D01*
X158901625Y-87117573D01*
X158844941Y-87117034D01*
X158797121Y-87115553D01*
X158762037Y-87113329D01*
X158743562Y-87110565D01*
X158741688Y-87109272D01*
X158743650Y-87097324D01*
X158749168Y-87065238D01*
X158757952Y-87014676D01*
X158769709Y-86947297D01*
X158784151Y-86864762D01*
X158800984Y-86768733D01*
X158819920Y-86660870D01*
X158840666Y-86542833D01*
X158862931Y-86416283D01*
X158886425Y-86282881D01*
X158894387Y-86237703D01*
X159046543Y-85374435D01*
X159203735Y-85371365D01*
X159265809Y-85370368D01*
X159309090Y-85370443D01*
G37*
G36*
X158095626Y-85393804D02*
G01*
X158092795Y-85408483D01*
X158086467Y-85443227D01*
X158076952Y-85496297D01*
X158064555Y-85565950D01*
X158049586Y-85650448D01*
X158032351Y-85748049D01*
X158013158Y-85857012D01*
X157992316Y-85975599D01*
X157970132Y-86102067D01*
X157946914Y-86234676D01*
X157944448Y-86248771D01*
X157921160Y-86381754D01*
X157898880Y-86508651D01*
X157877913Y-86627738D01*
X157858567Y-86737289D01*
X157841149Y-86835579D01*
X157825963Y-86920882D01*
X157813318Y-86991473D01*
X157803519Y-87045626D01*
X157796873Y-87081616D01*
X157793687Y-87097717D01*
X157793560Y-87098205D01*
X157789220Y-87105861D01*
X157779194Y-87111206D01*
X157760051Y-87114646D01*
X157728362Y-87116583D01*
X157680696Y-87117421D01*
X157629148Y-87117573D01*
X157566895Y-87117371D01*
X157523557Y-87116496D01*
X157495916Y-87114543D01*
X157480754Y-87111109D01*
X157474853Y-87105788D01*
X157474987Y-87098205D01*
X157477580Y-87084419D01*
X157483672Y-87050559D01*
X157492956Y-86998356D01*
X157505129Y-86929542D01*
X157519886Y-86845848D01*
X157536921Y-86749005D01*
X157555929Y-86640746D01*
X157576606Y-86522801D01*
X157598648Y-86396902D01*
X157621748Y-86264781D01*
X157623578Y-86254305D01*
X157646804Y-86121435D01*
X157669031Y-85994401D01*
X157689950Y-85874966D01*
X157709253Y-85764891D01*
X157726628Y-85665939D01*
X157741766Y-85579872D01*
X157754358Y-85508452D01*
X157764095Y-85453440D01*
X157770665Y-85416600D01*
X157773760Y-85399693D01*
X157773831Y-85399337D01*
X157780028Y-85368902D01*
X158101628Y-85368902D01*
X158095626Y-85393804D01*
G37*
G36*
X158298230Y-83201793D02*
G01*
X158316782Y-83202118D01*
X158470993Y-83205198D01*
X158352554Y-83880318D01*
X158331414Y-84000872D01*
X158311267Y-84115863D01*
X158292465Y-84223282D01*
X158275357Y-84321120D01*
X158260295Y-84407367D01*
X158247630Y-84480014D01*
X158237712Y-84537051D01*
X158230893Y-84576468D01*
X158227524Y-84596257D01*
X158227413Y-84596941D01*
X158220710Y-84638444D01*
X158519664Y-84638444D01*
X158609244Y-84638552D01*
X158679095Y-84638972D01*
X158731623Y-84639849D01*
X158769234Y-84641329D01*
X158794333Y-84643557D01*
X158809325Y-84646679D01*
X158816617Y-84650840D01*
X158818614Y-84656185D01*
X158818618Y-84656508D01*
X158816767Y-84673930D01*
X158811719Y-84708263D01*
X158804231Y-84754642D01*
X158795063Y-84808197D01*
X158794490Y-84811453D01*
X158770361Y-84948335D01*
X158307518Y-84948335D01*
X158208736Y-84948271D01*
X158117178Y-84948089D01*
X158035132Y-84947802D01*
X157964887Y-84947423D01*
X157908733Y-84946967D01*
X157868958Y-84946447D01*
X157847852Y-84945877D01*
X157845014Y-84945568D01*
X157847904Y-84926865D01*
X157854248Y-84889101D01*
X157863691Y-84834276D01*
X157875873Y-84764387D01*
X157890438Y-84681432D01*
X157907028Y-84587410D01*
X157925286Y-84484318D01*
X157944854Y-84374154D01*
X157965374Y-84258916D01*
X157986490Y-84140603D01*
X158007842Y-84021213D01*
X158029075Y-83902742D01*
X158049831Y-83787191D01*
X158069751Y-83676555D01*
X158088479Y-83572835D01*
X158105657Y-83478026D01*
X158120927Y-83394129D01*
X158133933Y-83323140D01*
X158144315Y-83267058D01*
X158151718Y-83227880D01*
X158155783Y-83207605D01*
X158156427Y-83205182D01*
X158169140Y-83203169D01*
X158199799Y-83201881D01*
X158244223Y-83201395D01*
X158298230Y-83201793D01*
G37*
G36*
X160021847Y-81019660D02*
G01*
X160069530Y-81020489D01*
X160104481Y-81021731D01*
X160122795Y-81023275D01*
X160124588Y-81023964D01*
X160122720Y-81035743D01*
X160117351Y-81067305D01*
X160108836Y-81116639D01*
X160097529Y-81181732D01*
X160083784Y-81260570D01*
X160067955Y-81351142D01*
X160050396Y-81451434D01*
X160031461Y-81559433D01*
X160011504Y-81673127D01*
X159990880Y-81790503D01*
X159969943Y-81909549D01*
X159949045Y-82028251D01*
X159928543Y-82144596D01*
X159908790Y-82256573D01*
X159890139Y-82362168D01*
X159872945Y-82459368D01*
X159857562Y-82546161D01*
X159844345Y-82620534D01*
X159833647Y-82680474D01*
X159825822Y-82723968D01*
X159821225Y-82749005D01*
X159820196Y-82754196D01*
X159817085Y-82763930D01*
X159810833Y-82770726D01*
X159797942Y-82775113D01*
X159774917Y-82777616D01*
X159738262Y-82778764D01*
X159684480Y-82779084D01*
X159655043Y-82779098D01*
X159592668Y-82778897D01*
X159549214Y-82778026D01*
X159521466Y-82776083D01*
X159506212Y-82772666D01*
X159500238Y-82767372D01*
X159500331Y-82759798D01*
X159500347Y-82759730D01*
X159502942Y-82745944D01*
X159509037Y-82712085D01*
X159518328Y-82659883D01*
X159530509Y-82591070D01*
X159545275Y-82507378D01*
X159562322Y-82410537D01*
X159581343Y-82302279D01*
X159602035Y-82184336D01*
X159624091Y-82058440D01*
X159647208Y-81926321D01*
X159649042Y-81915830D01*
X159672303Y-81782793D01*
X159694571Y-81655467D01*
X159715532Y-81535627D01*
X159734878Y-81425052D01*
X159752295Y-81325519D01*
X159767474Y-81238805D01*
X159780103Y-81166687D01*
X159789872Y-81110944D01*
X159796468Y-81073352D01*
X159799582Y-81055689D01*
X159799646Y-81055329D01*
X159806093Y-81019359D01*
X159965340Y-81019359D01*
X160021847Y-81019660D01*
G37*
G36*
X152380078Y-83202589D02*
G01*
X152495501Y-83203891D01*
X152591477Y-83205340D01*
X152670695Y-83207315D01*
X152735841Y-83210193D01*
X152789603Y-83214354D01*
X152834669Y-83220177D01*
X152873725Y-83228040D01*
X152909461Y-83238321D01*
X152944562Y-83251400D01*
X152981717Y-83267655D01*
X153023613Y-83287464D01*
X153040616Y-83295656D01*
X153094419Y-83323270D01*
X153137967Y-83350485D01*
X153178796Y-83382749D01*
X153224443Y-83425512D01*
X153235836Y-83436826D01*
X153281651Y-83484562D01*
X153315773Y-83525839D01*
X153343657Y-83568197D01*
X153370756Y-83619177D01*
X153377031Y-83632045D01*
X153407538Y-83697766D01*
X153430351Y-83754584D01*
X153446552Y-83807817D01*
X153457222Y-83862782D01*
X153463441Y-83924797D01*
X153466291Y-83999179D01*
X153466872Y-84074000D01*
X153465982Y-84163037D01*
X153462589Y-84235250D01*
X153455613Y-84295906D01*
X153443972Y-84350271D01*
X153426584Y-84403610D01*
X153402369Y-84461189D01*
X153375952Y-84516701D01*
X153310783Y-84624757D01*
X153228605Y-84719652D01*
X153131334Y-84799705D01*
X153020888Y-84863235D01*
X152946179Y-84893746D01*
X152904252Y-84907685D01*
X152864118Y-84919064D01*
X152822960Y-84928136D01*
X152777956Y-84935153D01*
X152726287Y-84940370D01*
X152665134Y-84944038D01*
X152591676Y-84946410D01*
X152503094Y-84947741D01*
X152396568Y-84948282D01*
X152337601Y-84948335D01*
X151956745Y-84948335D01*
X151956745Y-84662420D01*
X151956745Y-83485899D01*
X152277703Y-83485899D01*
X152277703Y-84662420D01*
X152770209Y-84655046D01*
X152844369Y-84619913D01*
X152929366Y-84568450D01*
X152998763Y-84501870D01*
X153052678Y-84419945D01*
X153091227Y-84322447D01*
X153114525Y-84209149D01*
X153122688Y-84079823D01*
X153122702Y-84074000D01*
X153115175Y-83943991D01*
X153092520Y-83830020D01*
X153054618Y-83731859D01*
X153001355Y-83649280D01*
X152932614Y-83582056D01*
X152848279Y-83529959D01*
X152844369Y-83528087D01*
X152770209Y-83492954D01*
X152523956Y-83489426D01*
X152277703Y-83485899D01*
X151956745Y-83485899D01*
X151956745Y-83198038D01*
X152380078Y-83202589D01*
G37*
G36*
X155617021Y-83199762D02*
G01*
X155701461Y-83200144D01*
X155769250Y-83200939D01*
X155823128Y-83202279D01*
X155865839Y-83204295D01*
X155900123Y-83207117D01*
X155928722Y-83210876D01*
X155954378Y-83215704D01*
X155979832Y-83221730D01*
X155980791Y-83221974D01*
X156089303Y-83258397D01*
X156180004Y-83307936D01*
X156253061Y-83370804D01*
X156308638Y-83447213D01*
X156346900Y-83537378D01*
X156368013Y-83641511D01*
X156372692Y-83728190D01*
X156364664Y-83839615D01*
X156340090Y-83937068D01*
X156298235Y-84022069D01*
X156238363Y-84096135D01*
X156165197Y-84157006D01*
X156129631Y-84182735D01*
X156102216Y-84204130D01*
X156087169Y-84217834D01*
X156085555Y-84220449D01*
X156090444Y-84231549D01*
X156104456Y-84259494D01*
X156126195Y-84301650D01*
X156154263Y-84355388D01*
X156187265Y-84418074D01*
X156223803Y-84487077D01*
X156262481Y-84559766D01*
X156301903Y-84633509D01*
X156340673Y-84705673D01*
X156377393Y-84773628D01*
X156410667Y-84834742D01*
X156435098Y-84879163D01*
X156473384Y-84948335D01*
X156292994Y-84948102D01*
X156112605Y-84947868D01*
X155944803Y-84624376D01*
X155777002Y-84300884D01*
X155615544Y-84297822D01*
X155454087Y-84294759D01*
X155454087Y-84948335D01*
X155133128Y-84948335D01*
X155133128Y-84031961D01*
X155133128Y-83463095D01*
X155454087Y-83463095D01*
X155454087Y-84031961D01*
X155639468Y-84028079D01*
X155708005Y-84026497D01*
X155758704Y-84024634D01*
X155795856Y-84021857D01*
X155823755Y-84017531D01*
X155846695Y-84011023D01*
X155868968Y-84001701D01*
X155890774Y-83990993D01*
X155954265Y-83950416D01*
X155998591Y-83901255D01*
X156025909Y-83840871D01*
X156031372Y-83818933D01*
X156039826Y-83736067D01*
X156030012Y-83660489D01*
X156002924Y-83594593D01*
X155959554Y-83540773D01*
X155900897Y-83501422D01*
X155899351Y-83500695D01*
X155874815Y-83489834D01*
X155852029Y-83481894D01*
X155826780Y-83476318D01*
X155794851Y-83472550D01*
X155752029Y-83470032D01*
X155694097Y-83468208D01*
X155645002Y-83467103D01*
X155454087Y-83463095D01*
X155133128Y-83463095D01*
X155133128Y-83199664D01*
X155513188Y-83199664D01*
X155617021Y-83199762D01*
G37*
G36*
X148760695Y-83777943D02*
G01*
X148761548Y-83906086D01*
X148762371Y-84014094D01*
X148763251Y-84103966D01*
X148764276Y-84177703D01*
X148765532Y-84237304D01*
X148767105Y-84284769D01*
X148769082Y-84322097D01*
X148771550Y-84351288D01*
X148774595Y-84374342D01*
X148778305Y-84393259D01*
X148782765Y-84410039D01*
X148788062Y-84426680D01*
X148788916Y-84429233D01*
X148826862Y-84513125D01*
X148878606Y-84579713D01*
X148944129Y-84628987D01*
X149023410Y-84660935D01*
X149116431Y-84675548D01*
X149223171Y-84672814D01*
X149230791Y-84672013D01*
X149318627Y-84654050D01*
X149391992Y-84620605D01*
X149451527Y-84570966D01*
X149497874Y-84504422D01*
X149531673Y-84420261D01*
X149553566Y-84317772D01*
X149554243Y-84312996D01*
X149557066Y-84280965D01*
X149559583Y-84228838D01*
X149561752Y-84158652D01*
X149563533Y-84072445D01*
X149564887Y-83972255D01*
X149565771Y-83860118D01*
X149566146Y-83738072D01*
X149566156Y-83713504D01*
X149566156Y-83199664D01*
X149887115Y-83199664D01*
X149887115Y-83741173D01*
X149886969Y-83880090D01*
X149886440Y-83999000D01*
X149885389Y-84100032D01*
X149883681Y-84185314D01*
X149881178Y-84256971D01*
X149877742Y-84317133D01*
X149873237Y-84367927D01*
X149867525Y-84411480D01*
X149860468Y-84449920D01*
X149851931Y-84485375D01*
X149841775Y-84519971D01*
X149835675Y-84538730D01*
X149787806Y-84652184D01*
X149725370Y-84749002D01*
X149648149Y-84829405D01*
X149555926Y-84893609D01*
X149448484Y-84941832D01*
X149427812Y-84948736D01*
X149367218Y-84962858D01*
X149291429Y-84972773D01*
X149207016Y-84978318D01*
X149120548Y-84979328D01*
X149038594Y-84975642D01*
X148967722Y-84967094D01*
X148938408Y-84960924D01*
X148823430Y-84921846D01*
X148723255Y-84866597D01*
X148637552Y-84794845D01*
X148565990Y-84706262D01*
X148508235Y-84600518D01*
X148468987Y-84494385D01*
X148463539Y-84475895D01*
X148458926Y-84457957D01*
X148455064Y-84438601D01*
X148451870Y-84415855D01*
X148449261Y-84387749D01*
X148447155Y-84352312D01*
X148445468Y-84307572D01*
X148444116Y-84251559D01*
X148443018Y-84182301D01*
X148442090Y-84097829D01*
X148441248Y-83996171D01*
X148440410Y-83875355D01*
X148439957Y-83805612D01*
X148436056Y-83199664D01*
X148756965Y-83199664D01*
X148760695Y-83777943D01*
G37*
G36*
X157520459Y-83199861D02*
G01*
X157618031Y-83200347D01*
X157706357Y-83201119D01*
X157783268Y-83202143D01*
X157846596Y-83203384D01*
X157894172Y-83204807D01*
X157923828Y-83206378D01*
X157933428Y-83207965D01*
X157931748Y-83221394D01*
X157926996Y-83252346D01*
X157919855Y-83296530D01*
X157911009Y-83349656D01*
X157908793Y-83362762D01*
X157883945Y-83509259D01*
X157524569Y-83512174D01*
X157165194Y-83515089D01*
X157134707Y-83681102D01*
X157124020Y-83740346D01*
X157114896Y-83792902D01*
X157108060Y-83834442D01*
X157104237Y-83860634D01*
X157103686Y-83866483D01*
X157104894Y-83872461D01*
X157110572Y-83877070D01*
X157123239Y-83880487D01*
X157145414Y-83882887D01*
X157179619Y-83884447D01*
X157228373Y-83885344D01*
X157294196Y-83885753D01*
X157379608Y-83885852D01*
X157380584Y-83885852D01*
X157466074Y-83885940D01*
X157531902Y-83886323D01*
X157580543Y-83887177D01*
X157614469Y-83888677D01*
X157636154Y-83891002D01*
X157648072Y-83894325D01*
X157652696Y-83898825D01*
X157652500Y-83904676D01*
X157652347Y-83905220D01*
X157648661Y-83921874D01*
X157642314Y-83954394D01*
X157634252Y-83997530D01*
X157625417Y-84046031D01*
X157616755Y-84094647D01*
X157609209Y-84138127D01*
X157603724Y-84171220D01*
X157601244Y-84188678D01*
X157601189Y-84189689D01*
X157590613Y-84191337D01*
X157560851Y-84192815D01*
X157514852Y-84194060D01*
X157455563Y-84195008D01*
X157385935Y-84195594D01*
X157321734Y-84195760D01*
X157042278Y-84195778D01*
X156999706Y-84442013D01*
X156985660Y-84523181D01*
X156971261Y-84606246D01*
X156957495Y-84685544D01*
X156945343Y-84755414D01*
X156935788Y-84810192D01*
X156934372Y-84818292D01*
X156911609Y-84948335D01*
X156751536Y-84948335D01*
X156689157Y-84948247D01*
X156645651Y-84947635D01*
X156617754Y-84945976D01*
X156602204Y-84942747D01*
X156595739Y-84937425D01*
X156595096Y-84929488D01*
X156596113Y-84923433D01*
X156598722Y-84908799D01*
X156604849Y-84874080D01*
X156614190Y-84820995D01*
X156626444Y-84751263D01*
X156641310Y-84666603D01*
X156658486Y-84568733D01*
X156677670Y-84459372D01*
X156698561Y-84340239D01*
X156720856Y-84213052D01*
X156744255Y-84079531D01*
X156749582Y-84049129D01*
X156898400Y-83199726D01*
X157415808Y-83199695D01*
X157520459Y-83199861D01*
G37*
G36*
X160223715Y-83200334D02*
G01*
X160271714Y-83201692D01*
X160301752Y-83204266D01*
X160315905Y-83208218D01*
X160317116Y-83212599D01*
X160308986Y-83223588D01*
X160288568Y-83250403D01*
X160257143Y-83291382D01*
X160215992Y-83344862D01*
X160166396Y-83409181D01*
X160109636Y-83482678D01*
X160046994Y-83563688D01*
X159979751Y-83650551D01*
X159947507Y-83692170D01*
X159878641Y-83781074D01*
X159813835Y-83864810D01*
X159754364Y-83941727D01*
X159701499Y-84010174D01*
X159656515Y-84068503D01*
X159620684Y-84115062D01*
X159595280Y-84148201D01*
X159581575Y-84166271D01*
X159579542Y-84169082D01*
X159576617Y-84181224D01*
X159570377Y-84212123D01*
X159561376Y-84258745D01*
X159550166Y-84318053D01*
X159537303Y-84387012D01*
X159523340Y-84462584D01*
X159508832Y-84541735D01*
X159494331Y-84621427D01*
X159480392Y-84698626D01*
X159467570Y-84770295D01*
X159456417Y-84833398D01*
X159447489Y-84884899D01*
X159441338Y-84921762D01*
X159438520Y-84940951D01*
X159438400Y-84942610D01*
X159427981Y-84944633D01*
X159399316Y-84946342D01*
X159356294Y-84947599D01*
X159302803Y-84948265D01*
X159277710Y-84948335D01*
X159117020Y-84948335D01*
X159122809Y-84923433D01*
X159126885Y-84903116D01*
X159133896Y-84865155D01*
X159143301Y-84812705D01*
X159154558Y-84748923D01*
X159167124Y-84676965D01*
X159180458Y-84599986D01*
X159194019Y-84521142D01*
X159207264Y-84443589D01*
X159219651Y-84370484D01*
X159230639Y-84304982D01*
X159239685Y-84250240D01*
X159246249Y-84209412D01*
X159249787Y-84185656D01*
X159250252Y-84181172D01*
X159246071Y-84167823D01*
X159234100Y-84136220D01*
X159215204Y-84088485D01*
X159190243Y-84026737D01*
X159160082Y-83953099D01*
X159125581Y-83869690D01*
X159087603Y-83778632D01*
X159055201Y-83701475D01*
X159014896Y-83605645D01*
X158977161Y-83515656D01*
X158942887Y-83433651D01*
X158912962Y-83361769D01*
X158888277Y-83302154D01*
X158869722Y-83256945D01*
X158858187Y-83228285D01*
X158854618Y-83218737D01*
X158853919Y-83211255D01*
X158858819Y-83206057D01*
X158872438Y-83202827D01*
X158897899Y-83201245D01*
X158938324Y-83200997D01*
X158996834Y-83201763D01*
X159017967Y-83202135D01*
X159186848Y-83205198D01*
X159325106Y-83545525D01*
X159358342Y-83626804D01*
X159389150Y-83701130D01*
X159416509Y-83766113D01*
X159439394Y-83819364D01*
X159456784Y-83858495D01*
X159467655Y-83881117D01*
X159470817Y-83885852D01*
X159478841Y-83877260D01*
X159498521Y-83852767D01*
X159528389Y-83814298D01*
X159566977Y-83763776D01*
X159612817Y-83703125D01*
X159664442Y-83634271D01*
X159720383Y-83559137D01*
X159732257Y-83543125D01*
X159986244Y-83200399D01*
X160155677Y-83200032D01*
X160223715Y-83200334D01*
G37*
%TD*%
M02*
