%TF.GenerationSoftware,KiCad,Pcbnew,7.0.7-7.0.7~ubuntu23.04.1*%
%TF.CreationDate,2023-10-05T17:54:02+00:00*%
%TF.ProjectId,TFSIK01,54465349-4b30-4312-9e6b-696361645f70,REV*%
%TF.SameCoordinates,Original*%
%TF.FileFunction,Soldermask,Bot*%
%TF.FilePolarity,Negative*%
%FSLAX46Y46*%
G04 Gerber Fmt 4.6, Leading zero omitted, Abs format (unit mm)*
G04 Created by KiCad (PCBNEW 7.0.7-7.0.7~ubuntu23.04.1) date 2023-10-05 17:54:02*
%MOMM*%
%LPD*%
G01*
G04 APERTURE LIST*
G04 Aperture macros list*
%AMRoundRect*
0 Rectangle with rounded corners*
0 $1 Rounding radius*
0 $2 $3 $4 $5 $6 $7 $8 $9 X,Y pos of 4 corners*
0 Add a 4 corners polygon primitive as box body*
4,1,4,$2,$3,$4,$5,$6,$7,$8,$9,$2,$3,0*
0 Add four circle primitives for the rounded corners*
1,1,$1+$1,$2,$3*
1,1,$1+$1,$4,$5*
1,1,$1+$1,$6,$7*
1,1,$1+$1,$8,$9*
0 Add four rect primitives between the rounded corners*
20,1,$1+$1,$2,$3,$4,$5,0*
20,1,$1+$1,$4,$5,$6,$7,0*
20,1,$1+$1,$6,$7,$8,$9,0*
20,1,$1+$1,$8,$9,$2,$3,0*%
%AMFreePoly0*
4,1,22,1.750000,0.879904,1.804904,0.825000,1.825000,0.750000,1.825000,0.500000,8.125000,0.500000,8.200000,0.479904,8.254904,0.425000,8.275000,0.350000,8.275000,-0.750000,8.254904,-0.825000,8.200000,-0.879904,8.125000,-0.900000,-1.675000,-0.900000,-1.750000,-0.879904,-1.804904,-0.825000,-1.825000,-0.750000,-1.825000,0.750000,-1.804904,0.825000,-1.750000,0.879904,-1.675000,0.900000,
1.675000,0.900000,1.750000,0.879904,1.750000,0.879904,$1*%
%AMFreePoly1*
4,1,22,1.750000,0.879904,1.804904,0.825000,1.825000,0.750000,1.825000,-0.750000,1.804904,-0.825000,1.750000,-0.879904,1.675000,-0.900000,-8.125000,-0.900000,-8.200000,-0.879904,-8.254904,-0.825000,-8.275000,-0.750000,-8.275000,0.350000,-8.254904,0.425000,-8.200000,0.479904,-8.125000,0.500000,-1.825000,0.500000,-1.825000,0.750000,-1.804904,0.825000,-1.750000,0.879904,-1.675000,0.900000,
1.675000,0.900000,1.750000,0.879904,1.750000,0.879904,$1*%
G04 Aperture macros list end*
%ADD10C,3.000000*%
%ADD11RoundRect,0.375000X-0.225000X-0.250000X0.225000X-0.250000X0.225000X0.250000X-0.225000X0.250000X0*%
%ADD12RoundRect,0.400000X0.450000X-0.325000X0.450000X0.325000X-0.450000X0.325000X-0.450000X-0.325000X0*%
%ADD13RoundRect,0.350000X0.275000X-0.200000X0.275000X0.200000X-0.275000X0.200000X-0.275000X-0.200000X0*%
%ADD14RoundRect,0.150000X0.200000X-0.325000X0.200000X0.325000X-0.200000X0.325000X-0.200000X-0.325000X0*%
%ADD15RoundRect,0.375000X-0.250000X0.225000X-0.250000X-0.225000X0.250000X-0.225000X0.250000X0.225000X0*%
%ADD16RoundRect,0.400000X0.250000X0.475000X-0.250000X0.475000X-0.250000X-0.475000X0.250000X-0.475000X0*%
%ADD17RoundRect,0.350000X-0.275000X0.200000X-0.275000X-0.200000X0.275000X-0.200000X0.275000X0.200000X0*%
%ADD18RoundRect,0.350000X0.200000X0.275000X-0.200000X0.275000X-0.200000X-0.275000X0.200000X-0.275000X0*%
%ADD19RoundRect,0.387500X0.237500X-0.287500X0.237500X0.287500X-0.237500X0.287500X-0.237500X-0.287500X0*%
%ADD20RoundRect,0.212500X-0.062500X0.362500X-0.062500X-0.362500X0.062500X-0.362500X0.062500X0.362500X0*%
%ADD21RoundRect,0.212500X-0.362500X0.062500X-0.362500X-0.062500X0.362500X-0.062500X0.362500X0.062500X0*%
%ADD22RoundRect,0.150000X-2.050000X1.800000X-2.050000X-1.800000X2.050000X-1.800000X2.050000X1.800000X0*%
%ADD23RoundRect,0.375000X0.250000X-0.225000X0.250000X0.225000X-0.250000X0.225000X-0.250000X-0.225000X0*%
%ADD24RoundRect,0.400000X0.325000X0.450000X-0.325000X0.450000X-0.325000X-0.450000X0.325000X-0.450000X0*%
%ADD25RoundRect,0.150000X0.650000X0.750000X-0.650000X0.750000X-0.650000X-0.750000X0.650000X-0.750000X0*%
%ADD26RoundRect,0.150000X0.350000X1.500000X-0.350000X1.500000X-0.350000X-1.500000X0.350000X-1.500000X0*%
%ADD27RoundRect,0.375000X-0.335876X-0.017678X-0.017678X-0.335876X0.335876X0.017678X0.017678X0.335876X0*%
%ADD28RoundRect,0.400000X-0.475000X0.250000X-0.475000X-0.250000X0.475000X-0.250000X0.475000X0.250000X0*%
%ADD29RoundRect,0.300000X0.700000X-0.150000X0.700000X0.150000X-0.700000X0.150000X-0.700000X-0.150000X0*%
%ADD30RoundRect,0.400000X1.100000X-0.250000X1.100000X0.250000X-1.100000X0.250000X-1.100000X-0.250000X0*%
%ADD31RoundRect,0.400000X-0.450000X0.325000X-0.450000X-0.325000X0.450000X-0.325000X0.450000X0.325000X0*%
%ADD32RoundRect,0.150000X0.508000X1.016000X-0.508000X1.016000X-0.508000X-1.016000X0.508000X-1.016000X0*%
%ADD33RoundRect,0.150000X1.828800X1.016000X-1.828800X1.016000X-1.828800X-1.016000X1.828800X-1.016000X0*%
%ADD34RoundRect,0.150000X-0.150000X-0.375000X0.150000X-0.375000X0.150000X0.375000X-0.150000X0.375000X0*%
%ADD35C,0.600000*%
%ADD36RoundRect,0.150000X0.825000X-0.425000X0.825000X0.425000X-0.825000X0.425000X-0.825000X-0.425000X0*%
%ADD37RoundRect,0.150000X0.500000X0.900000X-0.500000X0.900000X-0.500000X-0.900000X0.500000X-0.900000X0*%
%ADD38RoundRect,0.375000X0.225000X0.250000X-0.225000X0.250000X-0.225000X-0.250000X0.225000X-0.250000X0*%
%ADD39RoundRect,0.400000X0.475000X-0.250000X0.475000X0.250000X-0.475000X0.250000X-0.475000X-0.250000X0*%
%ADD40RoundRect,0.400000X0.450000X-0.262500X0.450000X0.262500X-0.450000X0.262500X-0.450000X-0.262500X0*%
%ADD41RoundRect,0.150000X1.624500X0.725000X-1.624500X0.725000X-1.624500X-0.725000X1.624500X-0.725000X0*%
%ADD42FreePoly0,0.000000*%
%ADD43FreePoly1,180.000000*%
%ADD44RoundRect,0.150000X0.325000X0.200000X-0.325000X0.200000X-0.325000X-0.200000X0.325000X-0.200000X0*%
%ADD45RoundRect,0.150000X0.300000X-0.750000X0.300000X0.750000X-0.300000X0.750000X-0.300000X-0.750000X0*%
%ADD46RoundRect,0.150000X0.900000X0.600000X-0.900000X0.600000X-0.900000X-0.600000X0.900000X-0.600000X0*%
%ADD47RoundRect,0.400000X-0.088388X0.548008X-0.548008X0.088388X0.088388X-0.548008X0.548008X-0.088388X0*%
G04 APERTURE END LIST*
D10*
%TO.C,M4*%
X147943000Y-74921000D03*
%TD*%
%TO.C,M3*%
X127943000Y-74921000D03*
%TD*%
%TO.C,M1*%
X137943000Y-74921000D03*
%TD*%
%TO.C,M6*%
X167943000Y-104921000D03*
%TD*%
%TO.C,M7*%
X157943000Y-104921000D03*
%TD*%
%TO.C,M5*%
X147943000Y-104921000D03*
%TD*%
%TO.C,M8*%
X127943000Y-104921000D03*
%TD*%
%TO.C,M10*%
X167943000Y-74921000D03*
%TD*%
%TO.C,M2*%
X157943000Y-74921000D03*
%TD*%
%TO.C,M9*%
X137943000Y-104921000D03*
%TD*%
D11*
%TO.C,C2*%
X152978800Y-79648000D03*
X154528800Y-79648000D03*
%TD*%
%TO.C,C32*%
X156090000Y-87141000D03*
X157640000Y-87141000D03*
%TD*%
D12*
%TO.C,L12*%
X163482000Y-99515500D03*
X163482000Y-97465500D03*
%TD*%
D13*
%TO.C,R7*%
X127150000Y-82700000D03*
X127150000Y-81050000D03*
%TD*%
D14*
%TO.C,U9*%
X161592000Y-95838000D03*
X160942000Y-95838000D03*
X160292000Y-95838000D03*
X160292000Y-93938000D03*
X160942000Y-93938000D03*
X161592000Y-93938000D03*
%TD*%
D15*
%TO.C,C34*%
X153703000Y-87128000D03*
X153703000Y-88678000D03*
%TD*%
%TO.C,C19*%
X142900000Y-89825000D03*
X142900000Y-91375000D03*
%TD*%
D16*
%TO.C,C1*%
X134917200Y-102050800D03*
X133017200Y-102050800D03*
%TD*%
D12*
%TO.C,L5*%
X150147000Y-97610500D03*
X150147000Y-95560500D03*
%TD*%
D17*
%TO.C,R22*%
X132240000Y-81109000D03*
X132240000Y-82759000D03*
%TD*%
D18*
%TO.C,R3*%
X134780000Y-95396000D03*
X133130000Y-95396000D03*
%TD*%
D19*
%TO.C,D2*%
X132243000Y-79329200D03*
X132243000Y-77579200D03*
%TD*%
D20*
%TO.C,U2*%
X137991000Y-82405000D03*
X138491000Y-82405000D03*
X138991000Y-82405000D03*
X139491000Y-82405000D03*
X139991000Y-82405000D03*
X140491000Y-82405000D03*
X140991000Y-82405000D03*
X141491000Y-82405000D03*
X141991000Y-82405000D03*
X142491000Y-82405000D03*
D21*
X143191000Y-83105000D03*
X143191000Y-83605000D03*
X143191000Y-84105000D03*
X143191000Y-84605000D03*
X143191000Y-85105000D03*
X143191000Y-85605000D03*
X143191000Y-86105000D03*
X143191000Y-86605000D03*
D20*
X142491000Y-87305000D03*
X141991000Y-87305000D03*
X141491000Y-87305000D03*
X140991000Y-87305000D03*
X140491000Y-87305000D03*
X139991000Y-87305000D03*
X139491000Y-87305000D03*
X138991000Y-87305000D03*
X138491000Y-87305000D03*
X137991000Y-87305000D03*
D21*
X137291000Y-86605000D03*
X137291000Y-86105000D03*
X137291000Y-85605000D03*
X137291000Y-85105000D03*
X137291000Y-84605000D03*
X137291000Y-84105000D03*
X137291000Y-83605000D03*
X137291000Y-83105000D03*
D22*
X140241000Y-84855000D03*
%TD*%
D23*
%TO.C,C13*%
X147378400Y-81794600D03*
X147378400Y-80244600D03*
%TD*%
D24*
%TO.C,L16*%
X155824500Y-90570000D03*
X153774500Y-90570000D03*
%TD*%
D23*
%TO.C,C26*%
X163482000Y-87040000D03*
X163482000Y-85490000D03*
%TD*%
D25*
%TO.C,C21*%
X139400000Y-91300000D03*
D26*
X138050000Y-91300000D03*
D25*
X136700000Y-91300000D03*
%TD*%
D18*
%TO.C,R1*%
X134716000Y-99206000D03*
X133066000Y-99206000D03*
%TD*%
D27*
%TO.C,C11*%
X148836992Y-86338992D03*
X149933008Y-87435008D03*
%TD*%
D24*
%TO.C,L3*%
X155951500Y-98698000D03*
X153901500Y-98698000D03*
%TD*%
D16*
%TO.C,C18*%
X135000000Y-90443000D03*
X133100000Y-90443000D03*
%TD*%
D28*
%TO.C,C20*%
X146300000Y-89700000D03*
X146300000Y-91600000D03*
%TD*%
D15*
%TO.C,C15*%
X144500000Y-89825000D03*
X144500000Y-91375000D03*
%TD*%
D12*
%TO.C,L13*%
X158173400Y-93125000D03*
X158173400Y-91075000D03*
%TD*%
D29*
%TO.C,J1*%
X130534000Y-100546000D03*
X130534000Y-99296000D03*
X130534000Y-98046000D03*
X130534000Y-96796000D03*
X130534000Y-95546000D03*
X130534000Y-94296000D03*
D30*
X127334000Y-102396000D03*
X127334000Y-92446000D03*
%TD*%
D17*
%TO.C,R6*%
X128750000Y-81045000D03*
X128750000Y-82695000D03*
%TD*%
D11*
%TO.C,C33*%
X156090000Y-88792000D03*
X157640000Y-88792000D03*
%TD*%
D19*
%TO.C,D3*%
X130243000Y-79329200D03*
X130243000Y-77579200D03*
%TD*%
D18*
%TO.C,R2*%
X134780000Y-97301000D03*
X133130000Y-97301000D03*
%TD*%
D31*
%TO.C,L10*%
X145625800Y-81950000D03*
X145625800Y-84000000D03*
%TD*%
D32*
%TO.C,U1*%
X142400000Y-101619000D03*
X140114000Y-101619000D03*
X137828000Y-101619000D03*
D33*
X140114000Y-95015000D03*
%TD*%
D34*
%TO.C,U3*%
X154211000Y-94380000D03*
X153711000Y-94380000D03*
X153211000Y-94380000D03*
X152711000Y-94380000D03*
X152711000Y-92380000D03*
X153211000Y-92380000D03*
X153711000Y-92380000D03*
X154211000Y-92380000D03*
D35*
X152861000Y-93380000D03*
X153461000Y-93380000D03*
D36*
X153461000Y-93380000D03*
D35*
X154061000Y-93380000D03*
%TD*%
D37*
%TO.C,Y1*%
X134266600Y-79521000D03*
X136766600Y-79521000D03*
%TD*%
D38*
%TO.C,C9*%
X150147000Y-93745000D03*
X148597000Y-93745000D03*
%TD*%
%TO.C,C14*%
X134653000Y-86379000D03*
X133103000Y-86379000D03*
%TD*%
%TO.C,C4*%
X159545000Y-98698000D03*
X157995000Y-98698000D03*
%TD*%
D15*
%TO.C,C7*%
X152052000Y-98698000D03*
X152052000Y-100248000D03*
%TD*%
D39*
%TO.C,C3*%
X144838400Y-95177600D03*
X144838400Y-93277600D03*
%TD*%
D11*
%TO.C,C31*%
X156471000Y-95904000D03*
X158021000Y-95904000D03*
%TD*%
D31*
%TO.C,L11*%
X163482000Y-80354500D03*
X163482000Y-82404500D03*
%TD*%
D17*
%TO.C,R23*%
X130300000Y-81046000D03*
X130300000Y-82696000D03*
%TD*%
D40*
%TO.C,R8*%
X148300000Y-90562500D03*
X148300000Y-88737500D03*
%TD*%
D13*
%TO.C,R20*%
X134907000Y-84093000D03*
X134907000Y-82443000D03*
%TD*%
D15*
%TO.C,C17*%
X141300000Y-90050000D03*
X141300000Y-91600000D03*
%TD*%
%TO.C,C27*%
X163482000Y-92475000D03*
X163482000Y-94025000D03*
%TD*%
D41*
%TO.C,J3*%
X167241000Y-82421000D03*
D42*
X167368000Y-85296000D03*
D43*
X167368000Y-79546000D03*
%TD*%
D12*
%TO.C,L7*%
X150250000Y-91925000D03*
X150250000Y-89875000D03*
%TD*%
D38*
%TO.C,C16*%
X134653000Y-88157000D03*
X133103000Y-88157000D03*
%TD*%
D23*
%TO.C,C28*%
X159926000Y-89236800D03*
X159926000Y-87686800D03*
%TD*%
D44*
%TO.C,U7*%
X163863000Y-89173000D03*
X163863000Y-89823000D03*
X163863000Y-90473000D03*
X161963000Y-90473000D03*
X161963000Y-89823000D03*
X161963000Y-89173000D03*
%TD*%
D45*
%TO.C,FL1*%
X154973000Y-85107000D03*
X153703000Y-85107000D03*
X152433000Y-85107000D03*
X152433000Y-81807000D03*
X153703000Y-81807000D03*
X154973000Y-81807000D03*
%TD*%
D18*
%TO.C,R4*%
X134780000Y-93618000D03*
X133130000Y-93618000D03*
%TD*%
D41*
%TO.C,J4*%
X167241000Y-97421000D03*
D42*
X167368000Y-100296000D03*
D43*
X167368000Y-94546000D03*
%TD*%
D46*
%TO.C,Y2*%
X144501600Y-79755800D03*
X140501600Y-79755800D03*
X140501600Y-77355800D03*
X144501600Y-77355800D03*
%TD*%
D11*
%TO.C,C12*%
X148102000Y-83839000D03*
X149652000Y-83839000D03*
%TD*%
D28*
%TO.C,C5*%
X144838400Y-97047000D03*
X144838400Y-98947000D03*
%TD*%
D12*
%TO.C,L8*%
X146300000Y-88050000D03*
X146300000Y-86000000D03*
%TD*%
D47*
%TO.C,L9*%
X150871784Y-80066216D03*
X149422216Y-81515784D03*
%TD*%
D23*
%TO.C,C29*%
X160027600Y-92575000D03*
X160027600Y-91025000D03*
%TD*%
D17*
%TO.C,R5*%
X155735000Y-92476000D03*
X155735000Y-94126000D03*
%TD*%
G36*
X147803121Y-92749002D02*
G01*
X147849614Y-92802658D01*
X147861000Y-92855000D01*
X147861000Y-100984000D01*
X147989000Y-100984000D01*
X148057121Y-101004002D01*
X148103614Y-101057658D01*
X148115000Y-101110000D01*
X148115000Y-104795000D01*
X148094998Y-104863121D01*
X148041342Y-104909614D01*
X147989000Y-104921000D01*
X146336000Y-104921000D01*
X146267879Y-104900998D01*
X146221386Y-104847342D01*
X146210000Y-104795000D01*
X146210000Y-92855000D01*
X146230002Y-92786879D01*
X146283658Y-92740386D01*
X146336000Y-92729000D01*
X147735000Y-92729000D01*
X147803121Y-92749002D01*
G37*
G36*
X175385121Y-86018002D02*
G01*
X175431614Y-86071658D01*
X175443000Y-86124000D01*
X175443000Y-93669351D01*
X175422998Y-93737472D01*
X175369342Y-93783965D01*
X175316353Y-93795349D01*
X165639353Y-93745643D01*
X165571336Y-93725292D01*
X165525119Y-93671398D01*
X165514000Y-93619645D01*
X165514000Y-86124000D01*
X165534002Y-86055879D01*
X165587658Y-86009386D01*
X165640000Y-85998000D01*
X175317000Y-85998000D01*
X175385121Y-86018002D01*
G37*
G36*
X147803121Y-100750002D02*
G01*
X147849614Y-100803658D01*
X147861000Y-100856000D01*
X147861000Y-100984000D01*
X175316262Y-100984000D01*
X175384383Y-101004002D01*
X175430876Y-101057658D01*
X175442260Y-101110736D01*
X175420732Y-104795736D01*
X175400332Y-104863739D01*
X175346406Y-104909917D01*
X175294734Y-104921000D01*
X146336000Y-104921000D01*
X146267879Y-104900998D01*
X146221386Y-104847342D01*
X146210000Y-104795000D01*
X146210000Y-100856000D01*
X146230002Y-100787879D01*
X146283658Y-100741386D01*
X146336000Y-100730000D01*
X147735000Y-100730000D01*
X147803121Y-100750002D01*
G37*
G36*
X175361383Y-74969002D02*
G01*
X175407876Y-75022658D01*
X175419260Y-75075736D01*
X175397732Y-78760736D01*
X175377332Y-78828739D01*
X175323406Y-78874917D01*
X175271734Y-78886000D01*
X146313000Y-78886000D01*
X146244879Y-78865998D01*
X146198386Y-78812342D01*
X146187000Y-78760000D01*
X146187000Y-75075000D01*
X146207002Y-75006879D01*
X146260658Y-74960386D01*
X146313000Y-74949000D01*
X175293262Y-74949000D01*
X175361383Y-74969002D01*
G37*
M02*
